<svg id="Layer_1" data-name="Layer 1" xmlns="http://www.w3.org/2000/svg" viewBox="0 0 477.62 215.16"><defs><style>.cls-1,.cls-5,.cls-7,.cls-9{font-size:10px;}.cls-1,.cls-2{fill:#74bfea;}.cls-1,.cls-4,.cls-5,.cls-7,.cls-9{font-family:Helvetica, Helvetica;}.cls-3{font-size:11px;}.cls-12,.cls-3{fill:#fff;font-family:Helvetica-Bold, Helvetica;font-weight:700;}.cls-4{font-size:8px;fill:#666;}.cls-5,.cls-6{fill:#00adee;}.cls-7,.cls-8{fill:#0a85c7;}.cls-10,.cls-9{fill:#0d4c83;}.cls-11,.cls-14{fill:none;stroke-miterlimit:10;}.cls-11{stroke:#0a85c7;stroke-width:3px;}.cls-12{font-size:12px;}.cls-13{letter-spacing:-0.07em;}.cls-14{stroke:#e6e7e8;stroke-dasharray:11.91 11.91;}</style></defs><title>stage4</title><text class="cls-1" transform="translate(51.77 104.15)">Time to Research<tspan x="16.94" y="12">and Learn</tspan></text><rect class="cls-2" x="44.45" y="154.76" width="93.47" height="17.44"/><text class="cls-3" transform="translate(71.62 167.1)">Stage 1</text><text class="cls-4" transform="translate(45.38 183.85)">Lack of awareness of <tspan x="0" y="9.6">GDPR, or its application </tspan><tspan x="0" y="19.2">to the business</tspan></text><path class="cls-2" d="M101.28,144.19a1.57,1.57,0,0,1-.67.14h-.1a.21.21,0,0,0-.24.21.23.23,0,0,0,.21.24h.12a2,2,0,0,0,.86-.19.23.23,0,1,0-.19-.41Zm-2.38-.7a.23.23,0,0,0-.07.32,2,2,0,0,0,.71.7.26.26,0,0,0,.12,0,.22.22,0,0,0,.19-.11.23.23,0,0,0-.09-.31,1.57,1.57,0,0,1-.55-.55.23.23,0,0,0-.31-.07Zm3.43-.32a.22.22,0,0,0-.29.13l0,.07a1.57,1.57,0,0,1-.15.29.23.23,0,0,0,.06.32.24.24,0,0,0,.13,0,.22.22,0,0,0,.19-.1,1.92,1.92,0,0,0,.19-.38l0-.07a.23.23,0,0,0-.13-.29Zm-15.17-.93,0,.06a2.31,2.31,0,0,1-.48.53.23.23,0,0,0,0,.32.22.22,0,0,0,.17.09.24.24,0,0,0,.14,0,2.79,2.79,0,0,0,.57-.63l.06-.1-.19-.12-.21-.09Zm-3.4-.2h0a1.2,1.2,0,1,0,.07,0h-.07Zm14.72-.3a.23.23,0,0,0-.17.28c.07.28.14.57.2.87a.22.22,0,0,0,.22.17h0a.22.22,0,0,0,.18-.27c-.07-.3-.14-.6-.21-.88a.22.22,0,0,0-.27-.17Zm-9.94-1.06a.23.23,0,0,0-.32,0l-.53.73a.23.23,0,0,0,.06.32.22.22,0,0,0,.13,0,.22.22,0,0,0,.18-.1l.53-.72a.23.23,0,0,0,0-.32ZM98,140a.22.22,0,0,0-.14.28c.09.27.17.54.26.84a.23.23,0,0,0,.22.17h.06a.23.23,0,0,0,.16-.28c-.09-.3-.18-.59-.28-.86A.22.22,0,0,0,98,140Zm-8.29-.74a.22.22,0,0,0-.32,0l-.57.7a.23.23,0,0,0,0,.32.22.22,0,0,0,.14,0,.23.23,0,0,0,.18-.09c.18-.23.38-.46.57-.69a.22.22,0,0,0,0-.32Zm7.57-.9a.22.22,0,0,0-.1.31c.13.24.25.52.36.8a.23.23,0,0,0,.21.14l.09,0a.23.23,0,0,0,.12-.3c-.12-.3-.26-.58-.39-.83a.22.22,0,0,0-.3-.1Zm5.25-.16a.23.23,0,0,0-.23.23v4a.22.22,0,0,0,.23.23.23.23,0,0,0,.23-.23v-2.63l1.63-.65-1.66-.75a.22.22,0,0,0-.2-.18ZM90.6,138q-.33.31-.64.64a.23.23,0,0,0,.17.39.24.24,0,0,0,.17-.07c.21-.22.41-.42.62-.62a.23.23,0,1,0-.31-.33Zm5.85-1a.23.23,0,0,0-.32.33,4.08,4.08,0,0,1,.55.65.22.22,0,0,0,.18.1.24.24,0,0,0,.13,0,.23.23,0,0,0,.05-.32,4.49,4.49,0,0,0-.61-.71ZM92,136.87a7.71,7.71,0,0,0-.75.54.22.22,0,0,0,0,.32.23.23,0,0,0,.32,0,7.51,7.51,0,0,1,.71-.5.23.23,0,0,0-.24-.39Zm14.65-8.76v18.15l-6.55,2.55V130.65h0Zm-27.6,0,6.51,2.54h0v12.65a2.19,2.19,0,0,1-.4,0h-.11a.21.21,0,0,0-.24.22.22.22,0,0,0,.21.24h.13a2.61,2.61,0,0,0,.4,0v5l-6.54-2.54V128.1ZM93,128l6.83,2.66h0v18.15l-6.81-2.65h0v-9.26h0a4.14,4.14,0,0,1,.82-.24.21.21,0,0,0,.13-.09.73.73,0,0,0,.71.55.72.72,0,0,0,.6-.33l.17.06.1,0a.23.23,0,0,0,.1-.43l-.23-.09a.74.74,0,0,0-1.47-.07.21.21,0,0,0-.19-.08,4.62,4.62,0,0,0-.74.21V128Zm-.27,0v8.58a.22.22,0,0,0,0,.18l0,0v9.38h0l-6.83,2.66v-5.1l.16,0a.23.23,0,0,0,.14-.28.23.23,0,0,0-.28-.14h0V130.65h0L92.77,128Zm-14-1a.45.45,0,0,0-.42,0,.46.46,0,0,0-.2.37v19.12a.45.45,0,0,0,.29.42l7.13,2.78a.46.46,0,0,0,.33,0l7-2.71,7,2.71a.45.45,0,0,0,.17,0,.43.43,0,0,0,.17,0l7.13-2.78a.45.45,0,0,0,.29-.42V127.44a.47.47,0,0,0-.2-.37.46.46,0,0,0-.42,0l-7,2.71-7-2.71a.44.44,0,0,0-.33,0l-7,2.71Z" transform="translate(-1.85 -2.84)"/><text class="cls-5" transform="translate(173.36 84.12)">Time to Plan<tspan x="-5.01" y="12">and Implement</tspan></text><rect class="cls-6" x="153.81" y="139.33" width="93.47" height="17.44"/><text class="cls-3" transform="translate(180.99 152.32)">Stage 2</text><text class="cls-4" transform="translate(154.5 167.85)">A plan is in place and in <tspan x="0" y="9.6">the process of execution</tspan></text><path class="cls-6" d="M215.09,128.12a.57.57,0,0,0-.41.22l-2,2.47-1.58-1.13a.58.58,0,1,0-.67.94l2,1.45a.59.59,0,0,0,.79-.11l2.31-2.89a.58.58,0,0,0-.05-.78.59.59,0,0,0-.44-.16Zm-2-1.74a3.47,3.47,0,1,1-3.47,3.48A3.46,3.46,0,0,1,213.12,126.39Zm-20.84-9.26h21.41v8.15a4.5,4.5,0,0,0-.57,0,4.65,4.65,0,0,0-4.64,4.64,4.58,4.58,0,0,0,.14,1.15H194a1.73,1.73,0,0,1-1.75-1.75Zm16.2-4.92a.87.87,0,1,1-.87.87A.86.86,0,0,1,208.48,112.21Zm-11,0a.87.87,0,1,1-.87.87A.86.86,0,0,1,197.49,112.21Zm1.74-3.18a.58.58,0,1,0,0,1.16h7.52a.58.58,0,1,0,0-1.16Zm-5.2,0a2.91,2.91,0,0,0-2.9,2.9v17.34a2.91,2.91,0,0,0,2.9,2.9h15.08a4.63,4.63,0,1,0,5.74-6.6V111.93a2.91,2.91,0,0,0-2.9-2.9h-1.73a.58.58,0,1,0,0,1.16h1.73a1.73,1.73,0,0,1,1.75,1.75v4H192.28v-4a1.73,1.73,0,0,1,1.75-1.75h1.73a.58.58,0,1,0,0-1.16Zm14.46-1.74a.58.58,0,0,0-.58.58v3.27a2,2,0,1,0,1.16,0v-3.27A.58.58,0,0,0,208.48,107.29Zm-11,0a.58.58,0,0,0-.58.58v3.27a2,2,0,1,0,1.16,0v-3.27A.58.58,0,0,0,197.49,107.29Z" transform="translate(-1.85 -2.84)"/><text class="cls-7" transform="translate(269.79 72.22)">Time to Accelerate<tspan x="21.96" y="12">Activities</tspan></text><rect class="cls-8" x="263.18" y="124.61" width="93.47" height="17.44"/><text class="cls-3" transform="translate(290.35 137.1)">Stage 3</text><text class="cls-4" transform="translate(265.73 153.85)">Processes are compliant <tspan x="0" y="9.6">within an acceptable level </tspan><tspan x="0" y="19.2">of risk and at time an </tspan><tspan x="0" y="28.8">outcome of improved </tspan><tspan x="0" y="38.4">business processes</tspan></text><path class="cls-8" d="M318.31,103.14a1,1,0,1,1,0-1.47A1,1,0,0,1,318.31,103.14Zm-.73-3.11a2.38,2.38,0,1,0,1.68.7A2.36,2.36,0,0,0,317.57,100Z" transform="translate(-1.85 -2.84)"/><path class="cls-8" d="M305.31,111.05a.67.67,0,0,0-.94-.94L300.5,114a.67.67,0,0,0,.95.94Z" transform="translate(-1.85 -2.84)"/><path class="cls-8" d="M306.34,113.64a.67.67,0,0,0-.94,0l-4,4a.67.67,0,0,0,.95.94l4-4a.67.67,0,0,0,0-.95Z" transform="translate(-1.85 -2.84)"/><path class="cls-8" d="M308.93,114.67l-3.86,3.86a.67.67,0,0,0,.95.94l3.86-3.86a.67.67,0,1,0-.95-.94Z" transform="translate(-1.85 -2.84)"/><path class="cls-8" d="M322.92,99.3a23.2,23.2,0,0,1-5,8,20.65,20.65,0,0,1-4.19,3.2l-.08,0a25.47,25.47,0,0,1-2.7,1.35l-.95-.95,1.91-1.91a.67.67,0,0,0-.94-.94L309,110l-.95-.95a25.59,25.59,0,0,1,1.35-2.7l0-.08a20.63,20.63,0,0,1,3.2-4.19,23.17,23.17,0,0,1,8-5,26.53,26.53,0,0,1,3.25-1,26.73,26.73,0,0,1-1,3.25Zm-6.25,13.45-2.86,2.87.8-4.1a22.87,22.87,0,0,0,2.67-1.86Zm-12.3-6.57,2.87-2.86,3.09-.6a22.78,22.78,0,0,0-1.86,2.67Zm20.91-11.47a.67.67,0,0,0-.58-.19,24.77,24.77,0,0,0-4.45,1.28,27.07,27.07,0,0,0-4.18,2,22,22,0,0,0-4.23,3.24l-5,1a.67.67,0,0,0-.34.18l-4.57,4.56a.67.67,0,0,0,.47,1.14h.13l5.16-1q-.5,1-.94,2.05a.67.67,0,0,0,.15.73l1.26,1.26-1.17,1.17a.67.67,0,0,0,.95.94l1.17-1.17,1.26,1.26a.67.67,0,0,0,.73.15q1.06-.44,2.05-.94l-1,5.16a.67.67,0,0,0,1.13.6l4.56-4.57a.67.67,0,0,0,.18-.34l1-5a22.05,22.05,0,0,0,3.24-4.23,27.17,27.17,0,0,0,2-4.18,24.76,24.76,0,0,0,1.28-4.45.67.67,0,0,0-.19-.58Z" transform="translate(-1.85 -2.84)"/><text class="cls-9" transform="translate(374.97 56.34)">Time to Consolidate<tspan x="15.84" y="12">and maintain</tspan></text><rect class="cls-10" x="371.41" y="109.89" width="93.47" height="17.44"/><text class="cls-3" transform="translate(399.87 122.43)">Stage 4</text><text class="cls-4" transform="translate(372.59 138.85)">Compliance is a product <tspan x="0" y="9.6">that is sold to others with </tspan><tspan x="0" y="19.2">less maturity</tspan></text><path class="cls-10" d="M422.83,80.43l-2.25,5.42-.61-.09-.42,0-.42,0h-.43a3.52,3.52,0,0,0-.44,0l-.43,0h-.2l-.2,0h-.31l-.13,0-.27,0-.13,0h-.13a14.22,14.22,0,0,0-1.67.43c-.14,0-.28.11-.42.15l-.21.08-.2.09-.41.18-.41.2a12.6,12.6,0,0,0-2.88,2.06l-.16.14-.15.16-.29.31c-.19.22-.39.43-.56.66l-.13.17-.13.17-.25.34c-.09.11-.15.23-.23.35a3.27,3.27,0,0,0-.22.35,13.12,13.12,0,0,0-1.29,2.83,13.52,13.52,0,0,0-.54,2.63c0,.2,0,.4,0,.58s0,.38,0,.55,0,.35,0,.51,0,.16,0,.24,0,.15,0,.22,0,.28,0,.42,0,.25,0,.36,0,.21,0,.31,0,.19,0,.27c.06.33.08.5.08.5a.54.54,0,0,1-1.05.27s-.07-.16-.17-.48c0-.09-.06-.17-.09-.27l-.21-.74-.1-.44a2.34,2.34,0,0,1-.06-.25l0-.25c0-.18-.07-.36-.09-.56s-.06-.39-.08-.6,0-.44,0-.66a15,15,0,0,1,.12-3.08,15.52,15.52,0,0,1,1-3.58c.06-.15.13-.31.2-.46s.13-.32.2-.47l.23-.46.13-.24.13-.23c.17-.31.36-.61.55-.92l.31-.45.15-.22.18-.22A15.78,15.78,0,0,1,411,83.59l.49-.35.5-.32.25-.16.26-.16.53-.29a17.28,17.28,0,0,1,2.23-1l.08,0h0l.06,0,.12,0,.26-.08.12,0,.06,0,.08,0,.32-.08.48-.13.15,0,.61-.13.61-.11.31-.05.31,0,.61-.07.61,0a16.3,16.3,0,0,1,2.77.09Z" transform="translate(-1.85 -2.84)"/><path class="cls-10" d="M438.86,93.48l-2.05,8.05a.94.94,0,0,1-1.71.48l-6-5.8a1.08,1.08,0,0,1-.4-1,1,1,0,0,1,.74-.67,2.05,2.05,0,0,0,0-.25c0-.06,0-.12,0-.2s0-.14-.05-.23a2.11,2.11,0,0,1-.07-.27,2.51,2.51,0,0,1-.09-.3l0-.16c0-.06,0-.11-.06-.18a2.86,2.86,0,0,1-.13-.36l-.16-.39c-.06-.13-.13-.26-.19-.41s-.19-.35-.29-.54L430.67,84a2.83,2.83,0,0,0,.14-.52,15.18,15.18,0,0,1,1.88,1.5,18,18,0,0,1,2.43,2.72c.15.22.31.43.45.65s.26.43.4.63l.34.59c.05.1.11.19.15.28l.14.26.25.5c.08.16.14.32.2.45s.12.27.18.4l.12.33.19.5h.05a1.06,1.06,0,0,1,1.08.17,1.07,1.07,0,0,1,.19,1.07Z" transform="translate(-1.85 -2.84)"/><path class="cls-10" d="M422.11,96.43a2.16,2.16,0,1,1,2.14-2.18A2.16,2.16,0,0,1,422.11,96.43Zm5-15a1.57,1.57,0,0,0-2.12.83c-.16.29-3.57,7.67-3.83,8.05a.3.3,0,0,1-.09.14,4,4,0,0,0-2.31,1.8,3.91,3.91,0,0,0-.46,2.91l0,.14A3.85,3.85,0,0,0,419.2,97l.13.15a4.55,4.55,0,0,0,.77.6,4.17,4.17,0,0,0,2.3.55l.24,0h.11l.4-.09.26-.08a4.16,4.16,0,0,0,1.38-.8,4.57,4.57,0,0,0,.79-.93,4,4,0,0,0,.06-4,3.38,3.38,0,0,1,.09-.77s1.6-6.2,2.18-7.93a1.6,1.6,0,0,0-.83-2.22Z" transform="translate(-1.85 -2.84)"/><line class="cls-11" x1="18.59" y1="215.16" x2="18.59" y2="8.65"/><path class="cls-8" d="M20.43,3.34a40.8,40.8,0,0,0,6.42,11.54l-6.42-2.32L14,14.88A40.76,40.76,0,0,0,20.43,3.34Z" transform="translate(-1.85 -2.84)"/><path class="cls-10" d="M462,14.25H390.24a2.84,2.84,0,0,0-2.83,2.83V35.26a2.84,2.84,0,0,0,2.83,2.83h30.42l5.43,7.55,5.43-7.55H462a2.84,2.84,0,0,0,2.83-2.83V17.08A2.84,2.84,0,0,0,462,14.25Z" transform="translate(-1.85 -2.84)"/><text class="cls-12" transform="translate(393.19 27.16)"><tspan class="cls-13">Y</tspan><tspan x="7.12" y="0">our Stage</tspan></text><rect class="cls-14" x="368.45" y="0.5" width="108.67" height="213.66" rx="1" ry="1"/><text class="cls-7" transform="translate(8.59 133.52) rotate(-90)">Readiness</text></svg>