<svg xmlns="http://www.w3.org/2000/svg" viewBox="0 0 150 26"><defs><style>.a{fill:#fff;}</style></defs><title>nttdata_logo_white</title><path class="a" d="M22.75,2.3V6.8h6.86V23.7h4.85V6.8h6.87V2.3Z"/><path class="a" d="M102.75,2.3H90.5V6.84h11.9c1.76,0,2.43.8,2.43,2.84v.76H95c-3.75,0-5.62,1.88-5.62,6.12v1c0,4.37,1.94,6.12,5.83,6.12h14.48V9.63C109.65,4.24,107.87,2.3,102.75,2.3ZM95.69,19.12c-.74,0-1.56-.37-1.56-2.2s.82-2.16,1.56-2.16h9.16v4.37Z"/><path class="a" d="M143.08,2.3H130.84V6.84h11.91c1.76,0,2.43.8,2.43,2.84v.75h-9.86c-3.75,0-5.62,1.88-5.62,6.12v1c0,4.37,1.94,6.12,5.83,6.12H150v-14C150,4.24,148.22,2.3,143.08,2.3ZM136,19.12c-.74,0-1.56-.37-1.56-2.2s.82-2.16,1.56-2.16h9.16v4.37Z"/><path class="a" d="M42.88,2.3V6.8h6.86V23.7h4.85V6.8h6.87V2.3Z"/><path class="a" d="M110.63,2.3V6.8h6.86V23.7h4.85V6.8h6.87V2.3Z"/><path class="a" d="M87.46,16.2V9.8c0-5.6-2.17-7.5-7.06-7.5h-13V23.67H80.6C85.82,23.67,87.46,21.11,87.46,16.2Zm-5,.09c0,2-.69,2.84-2.44,2.84H72.24V6.86h7.83c1.76,0,2.44.8,2.44,2.84Z"/><path class="a" d="M15.87,18.6c-.1-.2-6.61-12.85-7.39-14.11A4.5,4.5,0,0,0,4.33,2.06C2.33,2.06,0,2.94,0,7.7v16H4.79V10.36c0-1-.06-2.38-.07-2.65s0-.44.12-.52.28,0,.37.22S11.32,19.5,12.6,21.52A4.53,4.53,0,0,0,16.77,24c2,0,4.33-.88,4.33-5.64V2.3H16.32V15.64c0,1,.06,2.38.07,2.65s0,.44-.12.52S16,18.78,15.87,18.6Z"/></svg>