<svg xmlns="http://www.w3.org/2000/svg" viewBox="0 0 1417.38 540"><defs><style>.a,.b{fill:none;stroke:#c269aa;stroke-linecap:round;stroke-miterlimit:10;stroke-width:3px;}.b{stroke-dasharray:11.9 11.9;}.c,.d{fill:#bcbec0;}.c{opacity:0.5;}.e{fill:#eea746;}.f{fill:#0084b6;}.g{font-size:37px;fill:#808285;}.g,.h{font-family:OpenSans, Open Sans;}.h{font-size:27px;fill:#565759;}.i{font-size:36.85px;font-family:Helvetica, Helvetica;}</style></defs><title>section_bg</title><line class="a" x1="680" y1="34.65" x2="680" y2="40.65"/><line class="b" x1="680" y1="52.54" x2="680" y2="403.47"/><line class="a" x1="680" y1="409.42" x2="680" y2="415.42"/><line class="a" x1="1048.87" y1="34.65" x2="1048.87" y2="40.65"/><line class="b" x1="1048.87" y1="52.54" x2="1048.87" y2="403.47"/><line class="a" x1="1048.87" y1="409.42" x2="1048.87" y2="415.42"/><rect class="c" x="311.87" y="142.47" width="1105.51" height="120.46" rx="8.5" ry="8.5"/><rect class="c" x="311.87" y="294.96" width="1105.51" height="120.46" rx="8.5" ry="8.5"/><rect class="d" x="311.87" y="452.93" width="49.82" height="49.8" rx="2.83" ry="2.83"/><rect class="e" x="624.61" y="452.93" width="49.82" height="49.8" rx="2.83" ry="2.83"/><rect class="f" x="1011.35" y="452.93" width="49.82" height="49.8" rx="2.83" ry="2.83"/><text class="g" transform="translate(199.24 188.26)">Your<tspan x="-25.53" y="46">Result</tspan></text><text class="h" transform="translate(383.15 485.33)">Early stage in DX</text><text class="h" transform="translate(701.15 485.33)">Well underway in DX </text><text class="h" transform="translate(1095.14 485.33)">Very advanced in DX </text><text class="g" transform="translate(93.83 333.71)">IDC Survey<tspan x="79.89" y="46">Result</tspan></text><text class="i" transform="translate(430.93 88.67)">Follower</text><text class="i" transform="translate(784.03 88.67)">Mainstream</text><text class="i" transform="translate(1175.12 88.67)">Leader</text></svg>