<svg xmlns="http://www.w3.org/2000/svg" viewBox="0 0 14.17 14.17"><defs><style>.a{fill:#1167a6;}</style></defs><title>linkedin</title><path class="a" d="M11,2.67a.66.66,0,0,1,.65.65v7.82a.66.66,0,0,1-.65.65H3.18a.66.66,0,0,1-.65-.65V3.32a.66.66,0,0,1,.65-.65ZM4.6,5.54a.77.77,0,0,0,.56-.23.76.76,0,0,0,0-1.1A.76.76,0,0,0,4.6,4a.73.73,0,0,0-.55.23.79.79,0,0,0,0,1.1A.73.73,0,0,0,4.6,5.54Zm.67,4.95h0V6.13H3.93v4.36Zm5.07,0V8.11a3,3,0,0,0-.29-1.49A1.46,1.46,0,0,0,8.74,6a1.57,1.57,0,0,0-.83.22,1.14,1.14,0,0,0-.45.47h0V6.13H6.13v4.36H7.48V8.33a1.67,1.67,0,0,1,.14-.77.72.72,0,0,1,.67-.35.58.58,0,0,1,.61.39,2.16,2.16,0,0,1,.1.77v2.12Z"/></svg>