<svg xmlns="http://www.w3.org/2000/svg" viewBox="0 0 14.17 14.17"><defs><style>.a{fill:#1167a6;}</style></defs><title>slideshare</title><path class="a" d="M11.33,8.09A6.74,6.74,0,0,1,10,8.8a4.15,4.15,0,0,1,.16,2A2.28,2.28,0,0,1,9.49,12a1.81,1.81,0,0,1-1,.48,1.18,1.18,0,0,1-.92-.22,1,1,0,0,1-.36-.89V9.43l-.29-.06v2a1,1,0,0,1-.36.89,1.18,1.18,0,0,1-.92.22,1.8,1.8,0,0,1-1-.48,2.28,2.28,0,0,1-.63-1.2,4.17,4.17,0,0,1,.16-2,6.79,6.79,0,0,1-1.37-.71A4,4,0,0,1,2,7.33.35.35,0,0,1,2,7.08a.18.18,0,0,1,.13-.16A.3.3,0,0,1,2.36,7l.14.08V3a1,1,0,0,1,.27-.72A.88.88,0,0,1,3.44,2h7.31a.88.88,0,0,1,.66.29,1,1,0,0,1,.27.72v4L11.81,7a.3.3,0,0,1,.25-.07.18.18,0,0,1,.13.16.35.35,0,0,1-.06.25A4,4,0,0,1,11.33,8.09ZM11,2.77a.85.85,0,0,0-.65-.2H3.89a.88.88,0,0,0-.66.19,1.11,1.11,0,0,0-.17.72V7.42A5.38,5.38,0,0,0,4.79,8a7.94,7.94,0,0,0,1.3,0h.16a.71.71,0,0,1,.56.14,2.6,2.6,0,0,0,.42.35q0-.53.69-.49h.14A8.15,8.15,0,0,0,9.39,8a5.08,5.08,0,0,0,1.79-.59V3.49A1.07,1.07,0,0,0,11,2.77ZM6.58,7.15a1.31,1.31,0,0,1-1.77,0,1.11,1.11,0,0,1-.37-.84,1.08,1.08,0,0,1,.37-.82,1.33,1.33,0,0,1,1.77,0,1.08,1.08,0,0,1,.37.82A1.11,1.11,0,0,1,6.58,7.15ZM7.73,5.49a1.06,1.06,0,0,0-.38.82,1.1,1.1,0,0,0,.38.84,1.28,1.28,0,0,0,.9.35,1.25,1.25,0,0,0,.89-.35,1.11,1.11,0,0,0,.37-.84,1.08,1.08,0,0,0-.37-.82,1.35,1.35,0,0,0-1.78,0Z"/></svg>