<svg xmlns="http://www.w3.org/2000/svg" viewBox="0 0 14.17 14.17"><defs><style>.a{fill:#1167a6;}</style></defs><title>twitter</title><path class="a" d="M11.24,5.38a6,6,0,0,1-.71,2.83,5.81,5.81,0,0,1-2.06,2.3,5.88,5.88,0,0,1-3.32,1,5.93,5.93,0,0,1-3.28-1l.51,0a4.24,4.24,0,0,0,2.67-.92A2,2,0,0,1,3.8,9.2a2.13,2.13,0,0,1-.74-1l.39,0A2.69,2.69,0,0,0,4,8.11a2.16,2.16,0,0,1-1.22-.75A2.05,2.05,0,0,1,2.3,6V6a2,2,0,0,0,1,.29,2.38,2.38,0,0,1-.69-.77,2.07,2.07,0,0,1,0-2.1A5.91,5.91,0,0,0,4.55,5,5.93,5.93,0,0,0,7,5.62a3,3,0,0,1,0-.49A2.15,2.15,0,0,1,8,3.28,2.07,2.07,0,0,1,9.08,3a2,2,0,0,1,.87.18,2.41,2.41,0,0,1,.7.49A4.38,4.38,0,0,0,12,3.16a2.12,2.12,0,0,1-.94,1.18A4.6,4.6,0,0,0,12.3,4a4.71,4.71,0,0,1-1.08,1.12A1.2,1.2,0,0,1,11.24,5.38Z"/></svg>