<svg xmlns="http://www.w3.org/2000/svg" xmlns:xlink="http://www.w3.org/1999/xlink" viewBox="0 0 1615.75 765.35"><defs><style>.a{fill:none;stroke:gray;stroke-miterlimit:10;}.b{font-size:37px;}.b,.d,.e{font-family:Helvetica, Helvetica;}.c{letter-spacing:-0.09em;}.d{font-size:32px;}.e{font-size:26.13px;}.f{fill:#999;}.g{letter-spacing:-0.07em;}.h{letter-spacing:-0.04em;}.i{font-size:36.85px;}.j{letter-spacing:-0.07em;}.k{letter-spacing:0em;}.l{letter-spacing:-0.04em;}.m,.n,.o,.p{opacity:0.5;}.m{fill:url(#a);}.n{fill:url(#b);}.o{fill:url(#c);}.p{fill:url(#d);}.q{fill:#132e44;}.r{fill:#a2bbcf;}</style><linearGradient id="a" x1="330.78" y1="199.28" x2="1614.87" y2="199.28" gradientUnits="userSpaceOnUse"><stop offset="0" stop-color="#fff"/><stop offset="1" stop-color="#ccc"/></linearGradient><linearGradient id="b" x1="330.78" y1="341.53" x2="1614.87" y2="341.53" xlink:href="#a"/><linearGradient id="c" x1="330.78" y1="483.78" x2="1614.87" y2="483.78" xlink:href="#a"/><linearGradient id="d" x1="330.78" y1="626.03" x2="1614.87" y2="626.03" xlink:href="#a"/></defs><title>comparisonbg_industry_geography</title><line class="a" x1="322.97" y1="0.04" x2="322.97" y2="696.54"/><line class="a" x1="752.97" y1="0.04" x2="752.97" y2="696.54"/><line class="a" x1="1184.97" y1="0.04" x2="1184.97" y2="696.54"/><text class="b" transform="translate(208.37 181.26)"><tspan class="c">Y</tspan><tspan x="21.28" y="0">our</tspan><tspan x="-30.12" y="46">Result</tspan></text><text class="b" transform="translate(151.51 474.71)">Industry<tspan x="26.74" y="46">Result</tspan></text><text class="b" transform="translate(93.97 326.71)">IDC Survey<tspan x="-43.2" y="46">Overall Result</tspan></text><text class="b" transform="translate(153.57 618.62)">Country<tspan x="24.68" y="46">Result</tspan></text><text class="d" transform="translate(1177.63 750.12)"><tspan class="c">Y</tspan><tspan x="18.41" y="0">our Organization</tspan></text><line class="a" x1="0.37" y1="131.04" x2="1614.27" y2="131.04"/><line class="a" x1="0.91" y1="273.04" x2="1614.8" y2="273.04"/><line class="a" x1="0.91" y1="411.04" x2="1614.8" y2="411.04"/><line class="a" x1="0.91" y1="555.04" x2="1614.8" y2="555.04"/><line class="a" x1="0.91" y1="697.04" x2="1614.8" y2="697.04"/><text class="e" transform="translate(432.93 56.67)"><tspan class="f">DIGI<tspan class="g" x="53.72" y="0">T</tspan><tspan x="67.75" y="0">A</tspan><tspan class="h" x="85.18" y="0">L</tspan></tspan><tspan class="i"><tspan x="0" y="37.56">Improver</tspan></tspan></text><text class="e" transform="translate(864.03 56.67)"><tspan class="f">DIGI<tspan class="j" x="53.72" y="0">T</tspan><tspan class="k" x="67.75" y="0">A</tspan><tspan class="h" x="85.18" y="0">L</tspan></tspan><tspan class="i"><tspan x="0" y="37.56">Achiever</tspan></tspan></text><text class="e" transform="translate(1295.12 56.67)"><tspan class="f">DIGI<tspan class="j" x="53.72" y="0">T</tspan><tspan class="k" x="67.75" y="0">A</tspan><tspan class="l" x="85.18" y="0">L</tspan></tspan><tspan class="i"><tspan x="0" y="37.56">Native</tspan></tspan></text><rect class="m" x="330.78" y="140.54" width="1284.09" height="117.48"/><rect class="n" x="330.78" y="282.79" width="1284.09" height="117.48"/><rect class="o" x="330.78" y="425.04" width="1284.09" height="117.48"/><rect class="p" x="330.78" y="567.29" width="1284.09" height="117.48"/><rect class="q" x="1113.87" y="717.88" width="41.67" height="41.67"/><text class="d" transform="translate(1511.63 750.12)">Peer</text><rect class="r" x="1458.28" y="717.54" width="41.67" height="41.67"/></svg>