<svg xmlns="http://www.w3.org/2000/svg" xmlns:xlink="http://www.w3.org/1999/xlink" viewBox="0 0 269.33 101"><defs><style>.a{fill:none;}.b{fill:#004a7c;}.c{fill:#242b32;fill-rule:evenodd;}.d{clip-path:url(#a);}.e{fill:url(#b);}.f{clip-path:url(#c);}.g{fill:url(#d);}.h{clip-path:url(#e);}.i{fill:url(#f);}.j{clip-path:url(#g);}.k{fill:url(#h);}.l{clip-path:url(#i);}.m{fill:url(#j);}.n{clip-path:url(#k);}.o{fill:url(#l);}.p{clip-path:url(#m);}.q{fill:url(#n);}.r{clip-path:url(#o);}.s{fill:url(#p);}.t{clip-path:url(#q);}.u{fill:url(#r);}.v{clip-path:url(#s);}.w{fill:url(#t);}.x{clip-path:url(#u);}.y{fill:url(#v);}</style><clipPath id="a"><path class="a" d="M61,19.4c-5.74.26-10.64,1.52-10.35,2.43s2.54.74,5.52.74c5.43,0,10.8,1,12.05,2.46,2.13,2.44-1.26,8-11.87,15.79-2,1.44-3.29,2.53-3.62,3.19-.15.3,0,.68.33.71.73,0,1.87-.27,4.11-1.36,9.17-4.45,19.46-13.29,17.38-19.51-1.14-3.41-6.53-4.48-11.78-4.48-.6,0-1.19,0-1.78,0"/></clipPath><radialGradient id="b" cx="-250.47" cy="386.42" r="1.88" gradientTransform="matrix(6.59, 0, 0, -6.59, 1712.23, 2576.85)" gradientUnits="userSpaceOnUse"><stop offset="0" stop-color="#5a7d94"/><stop offset="0.23" stop-color="#587a90"/><stop offset="0.46" stop-color="#506f84"/><stop offset="0.68" stop-color="#455e70"/><stop offset="0.91" stop-color="#344654"/><stop offset="1" stop-color="#2c3b47"/></radialGradient><clipPath id="c"><path class="a" d="M68.27,43.34c-2.33,3.57,2.2,8.56,6.24,13.33,3.4,4,7,7.84,5.49,10.07-1.2,1.78-9.08,1.91-11.73,2.05-3.22.17-7.7.09-8.51.52-.5.27-1.14,1.28,1.61,1.77A74.5,74.5,0,0,0,74,72.24c5.39,0,11.69-.8,13-5.27,1-3.33-2.49-7.07-5.76-11-3.51-4.24-7.16-7.44-6.86-10.44.24-2.43,4.92-2.66,12.54-2.79,1,0,4.6,0,4-1.11-.41-.84-2.52-1.25-5.34-1.71a40,40,0,0,0-6.31-.53c-4.37,0-9,.87-11,4"/></clipPath><radialGradient id="d" cx="-257.9" cy="376.3" r="1.88" gradientTransform="matrix(8.58, 0, 0, -8.58, 2288.44, 3285.16)" gradientUnits="userSpaceOnUse"><stop offset="0" stop-color="#47687f"/><stop offset="0.18" stop-color="#45657b"/><stop offset="0.36" stop-color="#3f5b6f"/><stop offset="0.54" stop-color="#364b5b"/><stop offset="0.67" stop-color="#2c3b47"/><stop offset="1" stop-color="#47687f"/></radialGradient><clipPath id="e"><path class="a" d="M48.13,47.7C43.35,48,36.85,49.47,37,50.32c.23,1.3,5.11.87,6.81.87,4.73,0,12.25.32,13.48,3.49,2.49,6.43-14.56,18.43-18.57,17.2-1.92-.59,3.46-9.48,5.13-12.28,1.05-1.77,2.5-4.43,1.4-4.58C44,54.84,42,57.77,41.15,59a115.46,115.46,0,0,0-8.56,13.4c-.77,1.46-3.33,5.67-2.45,6.24.62.4,4.46-.31,9.42-2.28C55.16,70.15,62,62.2,63.91,55.55a4.84,4.84,0,0,0-2.06-5.15C59,48.45,54.3,47.66,50,47.66c-.62,0-1.24,0-1.85,0"/></clipPath><radialGradient id="f" cx="-259.7" cy="375.63" r="1.88" gradientTransform="matrix(8.67, 0, 0, -8.67, 2298.11, 3319.17)" gradientUnits="userSpaceOnUse"><stop offset="0" stop-color="#47687f"/><stop offset="0.19" stop-color="#45657b"/><stop offset="0.38" stop-color="#3f5b6f"/><stop offset="0.57" stop-color="#364b5b"/><stop offset="0.71" stop-color="#2c3b47"/><stop offset="1" stop-color="#47687f"/></radialGradient><clipPath id="g"><path class="a" d="M61,19.4c-5.74.26-10.64,1.52-10.35,2.43.11.37,3.45.15,5.77.15,7.6,0,11.92.19,14,2.63S67.92,33.17,57.35,41c-2.06,1.53-3.92,2.72-4.35,3.16-.21.21-.3.53,0,.55.59,0,1.65-.17,4.11-1.36,9.17-4.45,19.46-13.29,17.38-19.51-1.14-3.41-6.53-4.48-11.78-4.48-.6,0-1.19,0-1.78,0"/></clipPath><radialGradient id="h" cx="-258.27" cy="378.33" r="1.88" gradientTransform="matrix(8.43, 0, 0, -8.43, 2236.44, 3217.13)" gradientUnits="userSpaceOnUse"><stop offset="0" stop-color="#fff"/><stop offset="0.5" stop-color="#fff"/><stop offset="0.56" stop-color="#f4f6f8"/><stop offset="0.67" stop-color="#d6dee4"/><stop offset="0.81" stop-color="#a5b8c5"/><stop offset="0.98" stop-color="#628399"/><stop offset="1" stop-color="#5a7d94"/></radialGradient><clipPath id="i"><path class="a" d="M68.27,43.34c-2.33,3.57,2.67,8.93,7,13.46,3.62,3.82,8,8.12,6.39,10.45s-10.21,2.21-13.16,2.18c-3.35,0-7.81-.07-8.71.12-.3.07-.49.37-.41.57s.66.72,2,1A74.5,74.5,0,0,0,74,72.24c5.39,0,11.69-.8,13-5.27,1-3.45-3-7.78-6.71-11.88s-7.36-6.88-7.07-9.89c.25-2.53,4.48-3,12.49-3,4.13,0,5.62.14,5.25-.61s-2.52-1.25-5.34-1.71a40,40,0,0,0-6.31-.53c-4.37,0-9,.87-11,4"/></clipPath><radialGradient id="j" cx="-272.65" cy="362.01" r="1.88" gradientTransform="matrix(18, 0, 0, -18, 4967.54, 6562.21)" gradientUnits="userSpaceOnUse"><stop offset="0" stop-color="#fff"/><stop offset="0.47" stop-color="#fff"/><stop offset="0.51" stop-color="#f4f5f6"/><stop offset="0.58" stop-color="#d6dbde"/><stop offset="0.68" stop-color="#a5b0b7"/><stop offset="0.8" stop-color="#627582"/><stop offset="0.87" stop-color="#374f60"/><stop offset="1" stop-color="#5a7d94"/></radialGradient><clipPath id="k"><path class="a" d="M48.13,47.7C43.35,48,36.85,49.47,37,50.32c.12.68,4.08.1,7.4.1,5.3,0,13.34.14,14.82,4,2.81,7.23-17.34,20.66-21.89,19-2-.74,3.13-9.36,6-13.78,1.13-1.72,3-4.43,1.89-4.58C44,54.84,42,57.77,41.15,59a115.46,115.46,0,0,0-8.56,13.4c-.77,1.46-3.33,5.67-2.45,6.24.62.4,4.46-.31,9.42-2.28C55.16,70.15,62,62.2,63.91,55.55a4.84,4.84,0,0,0-2.06-5.15C59,48.45,54.3,47.66,50,47.66c-.62,0-1.24,0-1.85,0"/></clipPath><radialGradient id="l" cx="-273.82" cy="361.04" r="1.88" gradientTransform="matrix(19.47, 0, 0, -19.47, 5383.29, 7074.35)" gradientUnits="userSpaceOnUse"><stop offset="0" stop-color="#fff"/><stop offset="0.24" stop-color="#fff"/><stop offset="0.29" stop-color="#fafbfb"/><stop offset="0.34" stop-color="#ebeef0"/><stop offset="0.41" stop-color="#d2dade"/><stop offset="0.47" stop-color="#b0bdc5"/><stop offset="0.54" stop-color="#8498a4"/><stop offset="0.61" stop-color="#4f6b7c"/><stop offset="0.64" stop-color="#36566a"/><stop offset="0.69" stop-color="#3f6075"/><stop offset="0.78" stop-color="#577a91"/><stop offset="0.79" stop-color="#5a7d94"/><stop offset="1" stop-color="#5a7d94"/></radialGradient><clipPath id="m"><path class="a" d="M32.59,72.36c-.77,1.46-3.33,5.67-2.45,6.24.62.4,4.46-.31,9.42-2.28A74.59,74.59,0,0,0,46.85,73l-3.11-1.18c-2.76,1.35-5.15,2-6.38,1.56-.81-.3-.48-1.83.38-3.83l-2.93-1.11c-.78,1.29-1.53,2.6-2.23,3.93"/></clipPath><linearGradient id="n" x1="-299.58" y1="430.07" x2="-297.7" y2="430.07" gradientTransform="matrix(0, 3.84, 3.84, 0, -1613, 1219.42)" gradientUnits="userSpaceOnUse"><stop offset="0" stop-color="#5a7d94"/><stop offset="0.18" stop-color="#5a7d94"/><stop offset="0.23" stop-color="#63849a"/><stop offset="0.31" stop-color="#7a98ac"/><stop offset="0.41" stop-color="#a0b9c8"/><stop offset="0.47" stop-color="#b9ceda"/><stop offset="0.55" stop-color="#adc3d1"/><stop offset="0.7" stop-color="#8ca8b9"/><stop offset="0.88" stop-color="#5a7d94"/><stop offset="1" stop-color="#5a7d94"/></linearGradient><clipPath id="o"><path class="a" d="M75.21,56.81c3.61,3.82,8,8.11,6.4,10.44s-10.2,2.22-13.16,2.19c-3.35,0-7.8-.07-8.7.13a.53.53,0,0,0-.43.49.5.5,0,0,1,.43-.46c.9-.19,5.61,0,9,.07,3.17,0,11.67.24,13.39-2.31C83.67,65,79.58,60.87,76,57.05c-4.21-4.44-10.05-10-7.73-13.67C66,47,70.93,52.3,75.21,56.81m-7-13.42,0,0,0,0"/></clipPath><linearGradient id="p" x1="-317.52" y1="359.25" x2="-315.64" y2="359.25" gradientTransform="matrix(-9.82, 0, 0, 9.82, -3047.31, -3472.48)" gradientUnits="userSpaceOnUse"><stop offset="0" stop-color="#47687f"/><stop offset="0.07" stop-color="#517187"/><stop offset="0.2" stop-color="#6d899b"/><stop offset="0.37" stop-color="#9ab0bd"/><stop offset="0.53" stop-color="#cedde4"/><stop offset="0.58" stop-color="#bfd2db"/><stop offset="0.69" stop-color="#9fb9c7"/><stop offset="0.81" stop-color="#88a7b9"/><stop offset="0.91" stop-color="#7a9cb0"/><stop offset="1" stop-color="#7598ad"/></linearGradient><clipPath id="q"><path class="a" d="M37.07,50.4c.43.55,4.19,0,7.35,0,5.3,0,13.33.13,14.82,4C62,61.61,41.91,75,37.36,73.38c-2-.74,3.13-9.34,6-13.76,1.13-1.72,3-4.45,1.89-4.6,1.1.15-1.36,3.34-2.49,5.06-2.69,4.1-8,12.29-5.81,13.55,4.32,2.44,25.46-12.11,22.63-19.38-1.48-3.82-8.92-4.17-14.22-4.17-3.16,0-7.81.83-8.32.32"/></clipPath><linearGradient id="r" x1="-267.64" y1="355.72" x2="-265.76" y2="355.72" gradientTransform="matrix(16.52, 0, 0, -16.52, 4453.12, 5939.66)" gradientUnits="userSpaceOnUse"><stop offset="0" stop-color="#36566a"/><stop offset="0.06" stop-color="#36566a"/><stop offset="0.07" stop-color="#3e5d70"/><stop offset="0.09" stop-color="#677e8d"/><stop offset="0.13" stop-color="#8b9ca7"/><stop offset="0.16" stop-color="#a9b5bd"/><stop offset="0.2" stop-color="#c2c9cf"/><stop offset="0.24" stop-color="#d5d9dc"/><stop offset="0.29" stop-color="#e2e4e6"/><stop offset="0.35" stop-color="#eaeaeb"/><stop offset="0.47" stop-color="#ececed"/><stop offset="0.53" stop-color="#e4e5e7"/><stop offset="0.62" stop-color="#cdd3d7"/><stop offset="0.73" stop-color="#a8b4bc"/><stop offset="0.86" stop-color="#758a97"/><stop offset="1" stop-color="#36566a"/></linearGradient><clipPath id="s"><path class="a" d="M85.38,42c-8.06-.22-12.34.11-12.65,3.22s3.84,6.17,7.54,10.25c3.37,3.71,7,7.32,6.87,10.53.11-3.26-3.48-7.18-6.86-10.89-3.67-4-7.31-6.94-7-9.89.25-2.5,4.46-3,12.43-3,4.13,0,5.62.12,5.25-.63.4.84-1.94.49-5.57.39"/></clipPath><linearGradient id="t" x1="-299.15" y1="357" x2="-297.27" y2="357" gradientTransform="matrix(-21.33, 0, 0, 21.33, -6280.35, -7561.3)" gradientUnits="userSpaceOnUse"><stop offset="0" stop-color="#36566a"/><stop offset="0.1" stop-color="#36566a"/><stop offset="0.13" stop-color="#486679"/><stop offset="0.19" stop-color="#78909f"/><stop offset="0.25" stop-color="#9db2bd"/><stop offset="0.31" stop-color="#b8c9d2"/><stop offset="0.36" stop-color="#c8d8df"/><stop offset="0.4" stop-color="#cedde4"/><stop offset="0.73" stop-color="#36566a"/><stop offset="0.74" stop-color="#49697c"/><stop offset="0.79" stop-color="#6e8ea0"/><stop offset="0.82" stop-color="#89a8b9"/><stop offset="0.86" stop-color="#99b8c9"/><stop offset="0.88" stop-color="#9fbece"/><stop offset="1" stop-color="#36566a"/></linearGradient><clipPath id="u"><path class="a" d="M50.61,21.83h0Zm6.46-.07c-2.31.05-6.29.43-6.46.07.16.36,3.46.18,5.78.18,7.6,0,11.88.17,14,2.61s-2.47,8.54-13,16.37c-2.06,1.53-3.92,2.72-4.34,3.16.43-.44,2.51-1.47,4.59-3,10.88-7.84,15.3-14.1,13.34-16.7-1.55-2-5.23-2.76-11.48-2.76q-1.13,0-2.38,0"/></clipPath><radialGradient id="v" cx="-271.06" cy="364.47" r="1.88" gradientTransform="matrix(15.94, 0, 0, -15.94, 4378.8, 5831.13)" gradientUnits="userSpaceOnUse"><stop offset="0" stop-color="#47687f"/><stop offset="0.06" stop-color="#5c798e"/><stop offset="0.22" stop-color="#96a9b6"/><stop offset="0.38" stop-color="#c3ced5"/><stop offset="0.52" stop-color="#e4e9ec"/><stop offset="0.63" stop-color="#f8f9fa"/><stop offset="0.71" stop-color="#fff"/><stop offset="1" stop-color="#fff"/></radialGradient></defs><title>dassault</title><path class="b" d="M174.82,53.14h2.77l.81-3.9H187l-.81,3.9H189a.73.73,0,0,0,.81-.59l1.44-6.77c1.06-5.13-2.11-6.22-6.38-6.22-5.12,0-8,1.18-9.15,6.22l-1.44,6.77c-.09.45.19.59.56.59m4.42-7.77c.55-2.61,2.21-3.55,5.18-3.55,3.14,0,4,1.08,3.45,3.55,0,0-.13.62-.17.81a1,1,0,0,1-1,1h-7.83ZM121,53.14h2.77l.81-3.9h8.63l-.81,3.9h2.77a.73.73,0,0,0,.81-.59l1.44-6.77c1.06-5.13-2.11-6.22-6.38-6.22-5.12,0-8,1.18-9.15,6.22l-1.44,6.77c-.1.45.19.59.56.59m4.42-7.77c.55-2.61,2.21-3.55,5.18-3.55,3.14,0,4,1.08,3.45,3.55,0,0-.13.62-.17.81a1,1,0,0,1-1,1H125Zm40.35,14.2.27-1.26H152c-.73,0-1.14.22-1.24.72l-.29,1.35h5.76l-2.4,11.32h2.59a1.14,1.14,0,0,0,1.3-1l2.2-10.37h4.81a.89.89,0,0,0,1-.82m-38.65-.81-1.3,6.1c-2.27.64-8.15,1.8-7.23-2.51l.86-4h-3.09a.68.68,0,0,0-.69.45l-.78,3.68c-1.49,7,5.75,6,10.44,4.72l-1,4.54H127a1.13,1.13,0,0,0,1.3-1l2.64-12.44h-3.13a.66.66,0,0,0-.64.45m81.15.41-2.66,12.53h13.54l.28-1.34c.12-.55,0-.73-.71-.73h-9L210.5,66h7.94a.41.41,0,0,0,.43-.32l.3-1.43c0-.18-.07-.32-.3-.32h-7.95l.76-3.59h8.67c.41,0,.82,0,.92-.5l.33-1.58H209.42a1,1,0,0,0-1.14.86m-40.17,0-2.66,12.53H179l.29-1.34c.12-.55,0-.73-.71-.73h-9l.76-3.59h7.94a.42.42,0,0,0,.43-.32l.3-1.43c0-.18-.07-.32-.3-.32h-7.95l.77-3.59h8.67c.41,0,.82,0,.93-.5l.33-1.58H169.24a1,1,0,0,0-1.13.86m35.08-.86h-3.32l-6.42,5.22-4.2-5.22h-3.32a.93.93,0,0,0-1,.86l-2.66,12.53h2.81a.92.92,0,0,0,1-.77l2-9.38,3.24,4.22a.87.87,0,0,0,.77.41h1.46a1.41,1.41,0,0,0,.95-.41l5-4.22-2,9.38c-.11.5.11.77.7.77h2.81l2.67-12.53c.11-.54,0-.86-.59-.86m23.39-6.43c.12-.59-.1-.81-.69-.81H218l2.31-10.87c0-.23-.13-.46-.45-.46h-3.13l-2.84,13.4h12.39ZM103,43.46a.68.68,0,0,0-.68.46l-2,9.22H109c4.86,0,8.22-1.65,9.28-6.78.78-3.82-1-6.61-6-6.61H101.84l0,.17c-.24.9-.11,1.9,1.55,1.9H111c3.67,0,4.19,1.68,3.46,4.63s-2,4.4-4.73,4.62h-5.22l1.61-7.6Zm125.63-3.73c-.73,0-1.14.23-1.25.73l-.29,1.35h5.77l-2.4,11.32h2.59a1.13,1.13,0,0,0,1.29-1l2.21-10.36h4.81a.9.9,0,0,0,1-.82l.27-1.26ZM153.84,50.87a2.61,2.61,0,0,0-.59-3.06A9,9,0,0,0,151,46.29c-4.6-2.38-5.8-2.65-5.51-3.8.16-.64.65-.67,2.38-.67h5.39c.73,0,1.15-.27,1.27-.86l.27-1.25H148c-3.86,0-6.18,0-6.77,2.56-.44,1.88,1.18,2.8,4.45,4.66,3.58,2,4.4,2.18,4.07,3.26-.27.86-1.2.89-2.82.89h-6.37c-.73,0-1.15.27-1.28.87l-.25,1.2h8c3.68,0,6-.21,6.82-2.27m17.13,0a2.61,2.61,0,0,0-.59-3.06,8.89,8.89,0,0,0-2.29-1.52c-4.59-2.38-5.79-2.65-5.5-3.8.16-.64.65-.67,2.38-.67h5.39c.73,0,1.15-.27,1.27-.86l.27-1.25h-6.82c-3.87,0-6.19,0-6.78,2.56-.43,1.88,1.18,2.8,4.45,4.66,3.58,2,4.4,2.18,4.07,3.26-.27.86-1.21.89-2.81.89h-6.38c-.73,0-1.15.27-1.28.87l-.25,1.2h8c3.68,0,6-.21,6.83-2.27m53.07,10c-.43,1.88,1.18,2.79,4.44,4.65,3.59,2,4.4,2.18,4.07,3.26-.26.86-1.2.9-2.81.9h-6.38c-.73,0-1.15.27-1.27.87l-.25,1.2h8c3.68,0,6-.21,6.82-2.27a2.61,2.61,0,0,0-.59-3.07,8.73,8.73,0,0,0-2.28-1.51c-4.59-2.38-5.8-2.65-5.5-3.8.16-.65.65-.67,2.38-.67h5.39c.72,0,1.14-.27,1.27-.87l.27-1.25h-6.82c-3.87,0-6.19,0-6.78,2.56m-89.87,0c-.44,1.88,1.18,2.79,4.45,4.65,3.58,2,4.4,2.18,4.07,3.26-.27.86-1.2.9-2.81.9h-6.38c-.72,0-1.15.27-1.27.87l-.25,1.2h8c3.68,0,6-.21,6.82-2.27a2.62,2.62,0,0,0-.59-3.07A8.88,8.88,0,0,0,144,64.87c-4.6-2.38-5.8-2.65-5.51-3.8.16-.65.65-.67,2.38-.67h5.39c.72,0,1.15-.27,1.27-.87l.27-1.25h-6.82c-3.87,0-6.18,0-6.78,2.56m-35.46,0c-.44,1.88,1.17,2.79,4.45,4.65,3.58,2,4.4,2.18,4.07,3.26-.26.86-1.2.9-2.81.9H98c-.72,0-1.14.27-1.27.87l-.26,1.2h8c3.68,0,6-.21,6.83-2.27a2.62,2.62,0,0,0-.59-3.07,8.82,8.82,0,0,0-2.28-1.51c-4.6-2.38-5.8-2.65-5.51-3.8.17-.65.65-.67,2.38-.67h5.39c.73,0,1.15-.27,1.27-.87l.27-1.25h-6.82c-3.86,0-6.18,0-6.77,2.56m102.87-7.4c6.05,0,8.39-1.89,9.35-6.28l1.44-6.82c.1-.46-.2-.6-.58-.6h-2.93l-.8,3.93-.46,2.09-.38,1.82c-.54,2.47-2.29,3.59-5.25,3.59-3.27,0-4.14-1.09-3.63-3.59,0,0,.13-.62.17-.81l.68-3.09.81-3.93H197a.75.75,0,0,0-.83.6l-1.44,6.82c-1,4.81,1.63,6.28,6.81,6.28"/><path class="c" d="M61,19.15c5.75-.25,12.55.89,13.82,4.68,2.08,6.21-8.45,15.28-17.62,19.73C54.92,44.66,53.55,45,53,44.88a.6.6,0,0,1-.45-.92,15.65,15.65,0,0,1,3.79-3.43C66.65,33,70,27.45,68.06,25.21c-1.25-1.44-6.48-2.43-11.92-2.43-1.48,0-5.35.32-5.75-1-.33-1,4.88-2.41,10.59-2.66"/><path class="c" d="M48.13,47.49c4.78-.25,10.58.5,13.84,2.73a5,5,0,0,1,2.1,5.5c-1.88,6.65-8.9,14.69-24.5,20.87-5,2-8.86,2.72-9.68,2.19s1.68-5,2.45-6.41A117.19,117.19,0,0,1,41,58.85c1.12-1.55,2.84-4.23,4.4-4,1.4.19-.24,3-1.32,4.86-1.81,3-6.79,11.5-5.15,12,3.64,1.12,20.69-10.51,18.18-17-1.16-3-8.57-3.29-13.24-3.29-2.12,0-6.75.45-7-1s7-2.7,11.29-2.92"/><path class="c" d="M85.36,39.63c2.89.47,5.25.84,5.79,1.94S88.61,42.9,87,42.93c-7.61.13-12.19.27-12.42,2.6-.3,3,3.25,6,6.75,10.28,3.2,3.87,6.84,7.7,5.79,11.26-1.31,4.44-7.33,5.38-13.07,5.38A77.15,77.15,0,0,1,61.2,71.27c-2.72-.49-2.32-1.7-1.59-2.09s5.44-.45,8.66-.62c2.65-.14,10.34-.14,11.54-1.92,1.47-2.18-2.13-5.91-5.44-9.82-4.13-4.88-8.66-9.91-6.26-13.58,3.1-4.75,12.18-4.43,17.25-3.6"/><g class="d"><rect class="e" x="50.33" y="19.36" width="26.28" height="25.4"/></g><g class="f"><rect class="g" x="58.61" y="39.36" width="32.89" height="32.89"/></g><g class="h"><rect class="i" x="29.26" y="47.66" width="35.29" height="31.34"/></g><g class="j"><rect class="k" x="50.33" y="19.36" width="26.28" height="25.39"/></g><g class="l"><rect class="m" x="59.27" y="39.36" width="32.05" height="32.89"/></g><g class="n"><rect class="o" x="29.26" y="47.66" width="35.29" height="31.34"/></g><g class="p"><rect class="q" x="27.85" y="64.2" width="20.41" height="19.03" transform="translate(-36.7 37.75) rotate(-37)"/></g><g class="r"><rect class="s" x="54.17" y="39.93" width="34.63" height="33.53" transform="translate(-10.63 96.48) rotate(-64.27)"/></g><g class="t"><rect class="u" x="30.62" y="45.52" width="35.95" height="35.11" transform="translate(-21.72 25.73) rotate(-24.41)"/></g><g class="v"><rect class="w" x="67.93" y="41.89" width="27.93" height="23.79" transform="translate(11.5 121.94) rotate(-77.37)"/></g><g class="x"><rect class="y" x="50.61" y="21.73" width="22.28" height="22.43"/></g></svg>