<svg id="Layer_1" data-name="Layer 1" xmlns="http://www.w3.org/2000/svg" viewBox="0 0 991 964">
  <title>ranking_2de</title>
  <rect x="19" y="454" width="319" height="416" style="fill: #bcbcbc"/>
  <polygon points="338 870 19 870 19 454 338 870" style="fill: #d3d3d3"/>
  <rect x="657" y="567" width="319" height="303" style="fill: #779ab2"/>
  <polygon points="976 870 657 870 657 567 976 870" style="fill: #a2bbcf"/>
  <text transform="translate(745.7 765.04)" style="font-size: 207.85011291503906px;fill: #fff;font-family: Helvetica-Bold, Helvetica;font-weight: 700">3</text>
  <rect x="338" y="261" width="319" height="609" style="fill: #132e44"/>
  <polygon points="657 870 338 870 338 454 657 870" style="fill: #304e63"/>
  <text transform="translate(751.8 906.67)" style="font-size: 26.131669998168945px;fill: #999;font-family: Helvetica">DIGI<tspan x="53.72" y="0" style="letter-spacing: -0.07373267045829865em">T</tspan><tspan x="67.75" y="0">A</tspan><tspan x="85.18" y="0" style="letter-spacing: -0.036623424758810266em">L</tspan><tspan style="font-size: 36.85363006591797px;font-family: Helvetica-Bold, Helvetica;font-weight: 700;fill!: #000"><tspan x="0" y="37.56">Improver</tspan></tspan></text>
  <text transform="translate(111.9 906.67)" style="font-size: 26.131669998168945px;fill: #999;font-family: Helvetica">DIGI<tspan x="53.72" y="0" style="letter-spacing: -0.07369529961670801em">T</tspan><tspan x="67.75" y="0" style="letter-spacing: -0.00003737084159062272em">A</tspan><tspan x="85.18" y="0" style="letter-spacing: -0.036623424758810266em">L</tspan><tspan style="font-size: 36.85363006591797px;font-family: Helvetica-Bold, Helvetica;font-weight: 700;fill!: #000"><tspan x="0" y="37.56">Achiever</tspan></tspan></text>
  <text transform="translate(439.99 906.67)" style="font-size: 26.131669998168945px;fill: #999;font-family: Helvetica">DIGI<tspan x="53.72" y="0" style="letter-spacing: -0.07369529961670801em">T</tspan><tspan x="67.75" y="0" style="letter-spacing: -0.00003737084159062272em">A</tspan><tspan x="85.18" y="0" style="letter-spacing: -0.03658605391721965em">L</tspan><tspan style="font-size: 36.85363006591797px;font-family: Helvetica-Bold, Helvetica;font-weight: 700;fill!: #000"><tspan x="0" y="37.56">Native</tspan></tspan></text>
  <text transform="translate(120.7 662.04)" style="font-size: 207.85011291503906px;fill: #fff;font-family: Helvetica-Bold, Helvetica;font-weight: 700">2</text>
  <text transform="translate(439.7 460.04)" style="font-size: 207.85011291503906px;fill: #fff;font-family: Helvetica-Bold, Helvetica;font-weight: 700">1</text>
  <g>
    <path d="M131.78,343.23a68.92,68.92,0,0,1,97.32-2.81,4.8,4.8,0,1,0,6.59-7,78.16,78.16,0,0,0-29.9-17.69,51.68,51.68,0,1,0-47.87,0,78.56,78.56,0,0,0-54.52,74.75V424a4.8,4.8,0,0,0,4.8,4.8h67a4.8,4.8,0,0,0,0-9.6H113V390.49A68.58,68.58,0,0,1,131.78,343.23Zm8-73.26A42.07,42.07,0,1,1,181.85,312,42.11,42.11,0,0,1,139.78,270Z" style="fill: #132e44"/>
    <path d="M252.19,393.79a4.78,4.78,0,0,0-6.78,0l-18.59,18.58V357a4.8,4.8,0,1,0-9.6,0v55.36l-18.59-18.58a4.8,4.8,0,0,0-6.79,6.78l26.78,26.78a5.33,5.33,0,0,0,.74.61l0,0a4.84,4.84,0,0,0,.78.41l.06,0a4.78,4.78,0,0,0,.84.25h0a4.88,4.88,0,0,0,1.76,0h0a4.44,4.44,0,0,0,.83-.25l.06,0a4.13,4.13,0,0,0,.78-.41l0,0a4.88,4.88,0,0,0,.75-.61l26.77-26.78A4.78,4.78,0,0,0,252.19,393.79Z" style="fill: #132e44"/>
  </g>
  <text transform="translate(421.49 844.68)" style="font-size: 52.73025894165039px;fill: #fff;font-family: Helvetica-Bold, Helvetica;font-weight: 700">14.5%</text>
  <text transform="translate(763.73 844.68)" style="font-size: 52.73025894165039px;fill: #fff;font-family: Helvetica-Bold, Helvetica;font-weight: 700">35%</text>
  <text transform="translate(115.49 844.68)" style="font-size: 52.73025894165039px;fill: #fff;font-family: Helvetica-Bold, Helvetica;font-weight: 700">50.5%</text>
</svg>
