<svg xmlns="http://www.w3.org/2000/svg" viewBox="0 0 991 964"><defs><style>.a{fill:#bcbcbc;}.b{fill:#d3d3d3;}.c{fill:#779ab2;}.d{fill:#a2bbcf;}.e{font-size:207.85px;}.e,.p{fill:#fff;}.e,.l,.p{font-family:Helvetica-Bold, Helvetica;font-weight:700;}.f{fill:#132e44;}.g{fill:#304e63;}.h{font-size:26.13px;font-family:Helvetica, Helvetica;}.i{fill:#999;}.j{letter-spacing:-0.07em;}.k{letter-spacing:-0.04em;}.l{font-size:36.85px;}.m{letter-spacing:-0.07em;}.n{letter-spacing:0em;}.o{letter-spacing:-0.04em;}.p{font-size:52.73px;}</style></defs><title>ranking_3</title><rect class="a" x="19" y="454" width="319" height="416"/><polygon class="b" points="338 870 19 870 19 454 338 870"/><rect class="c" x="657" y="567" width="319" height="303"/><polygon class="d" points="976 870 657 870 657 567 976 870"/><text class="e" transform="translate(745.7 765.04)">3</text><rect class="f" x="338" y="261" width="319" height="609"/><polygon class="g" points="657 870 338 870 338 454 657 870"/><text class="h" transform="translate(751.8 906.67)"><tspan class="i">DIGI<tspan class="j" x="53.72" y="0">T</tspan><tspan x="67.75" y="0">A</tspan><tspan class="k" x="85.18" y="0">L</tspan></tspan><tspan class="l"><tspan x="0" y="37.56">Improver</tspan></tspan></text><text class="h" transform="translate(111.9 906.67)"><tspan class="i">DIGI<tspan class="m" x="53.72" y="0">T</tspan><tspan class="n" x="67.75" y="0">A</tspan><tspan class="k" x="85.18" y="0">L</tspan></tspan><tspan class="l"><tspan x="0" y="37.56">Achiever</tspan></tspan></text><text class="h" transform="translate(439.99 906.67)"><tspan class="i">DIGI<tspan class="m" x="53.72" y="0">T</tspan><tspan class="n" x="67.75" y="0">A</tspan><tspan class="o" x="85.18" y="0">L</tspan></tspan><tspan class="l"><tspan x="0" y="37.56">Native</tspan></tspan></text><text class="e" transform="translate(120.7 662.04)">2</text><text class="e" transform="translate(439.7 460.04)">1</text><path class="f" d="M769.78,458.23a68.93,68.93,0,0,1,97.32-2.82,4.8,4.8,0,1,0,6.59-7,78.17,78.17,0,0,0-29.9-17.7,51.67,51.67,0,1,0-47.87,0,78.54,78.54,0,0,0-54.52,74.74V539a4.8,4.8,0,0,0,4.8,4.8h67a4.8,4.8,0,0,0,0-9.6H751V505.49A68.59,68.59,0,0,1,769.78,458.23Zm8-73.26A42.07,42.07,0,1,1,819.85,427,42.11,42.11,0,0,1,777.78,385Z"/><path class="f" d="M890.19,508.79a4.8,4.8,0,0,0-6.79,0l-18.59,18.59V472a4.8,4.8,0,0,0-9.6,0v55.36l-18.59-18.59a4.8,4.8,0,0,0-6.79,6.79l26.77,26.77a4.82,4.82,0,0,0,.75.61l0,0a4.79,4.79,0,0,0,.78.41l.06,0a4.75,4.75,0,0,0,.83.25h0a4.65,4.65,0,0,0,1.77,0h0a4.75,4.75,0,0,0,.83-.25l.06,0a4.79,4.79,0,0,0,.78-.41l0,0a4.82,4.82,0,0,0,.75-.61l26.77-26.77A4.8,4.8,0,0,0,890.19,508.79Z"/><text class="p" transform="translate(421.49 844.68)">14.5%</text><text class="p" transform="translate(763.73 844.68)">35%</text><text class="p" transform="translate(115.49 844.68)">50.5%</text></svg>