<svg id="Layer_1" data-name="Layer 1" xmlns="http://www.w3.org/2000/svg" viewBox="0 0 991 964">
  <title>ranking_1fr</title>
  <rect x="19" y="454" width="319" height="416" style="fill: #bcbcbc"/>
  <polygon points="338 870 19 870 19 454 338 870" style="fill: #d3d3d3"/>
  <rect x="657" y="567" width="319" height="303" style="fill: #779ab2"/>
  <polygon points="976 870 657 870 657 567 976 870" style="fill: #a2bbcf"/>
  <text transform="translate(745.7 765.04)" style="font-size: 207.85011291503906px;fill: #fff;font-family: Helvetica-Bold, Helvetica;font-weight: 700">3</text>
  <rect x="338" y="261" width="319" height="609" style="fill: #132e44"/>
  <polygon points="657 870 338 870 338 454 657 870" style="fill: #304e63"/>
  <text transform="translate(421.49 844.68)" style="font-size: 52.73025894165039px;fill: #fff;font-family: Helvetica-Bold, Helvetica;font-weight: 700">14.5%</text>
  <text transform="translate(763.73 844.68)" style="font-size: 52.73025894165039px;fill: #fff;font-family: Helvetica-Bold, Helvetica;font-weight: 700">35%</text>
  <text transform="translate(115.49 844.68)" style="font-size: 52.73025894165039px;fill: #fff;font-family: Helvetica-Bold, Helvetica;font-weight: 700">50.5%</text>
  <text transform="translate(120.7 662.04)" style="font-size: 207.85011291503906px;fill: #fff;font-family: Helvetica-Bold, Helvetica;font-weight: 700">2</text>
  <text transform="translate(439.7 460.04)" style="font-size: 207.85011291503906px;fill: #fff;font-family: Helvetica-Bold, Helvetica;font-weight: 700">1</text>
  <g>
    <path d="M448.78,151.23a68.92,68.92,0,0,1,97.32-2.81,4.8,4.8,0,1,0,6.59-7,78.16,78.16,0,0,0-29.9-17.69,51.68,51.68,0,1,0-47.87,0,78.56,78.56,0,0,0-54.52,74.75V232a4.8,4.8,0,0,0,4.8,4.8h66.95a4.8,4.8,0,1,0,0-9.6H430V198.49A68.58,68.58,0,0,1,448.78,151.23Zm8-73.26A42.07,42.07,0,1,1,498.85,120,42.11,42.11,0,0,1,456.78,78Z" style="fill: #132e44"/>
    <path d="M569.19,201.79a4.78,4.78,0,0,0-6.78,0l-18.59,18.58V165a4.8,4.8,0,0,0-9.6,0v55.36l-18.59-18.58a4.8,4.8,0,0,0-6.79,6.78l26.78,26.78a5.33,5.33,0,0,0,.74.61l0,0a4.84,4.84,0,0,0,.78.41l.06,0a4.78,4.78,0,0,0,.84.25h0a4.88,4.88,0,0,0,1.76,0H540a4.44,4.44,0,0,0,.83-.25l.06,0a4.13,4.13,0,0,0,.78-.41l0,0a4.88,4.88,0,0,0,.75-.61l26.77-26.78A4.78,4.78,0,0,0,569.19,201.79Z" style="fill: #132e44"/>
  </g>
  <text transform="translate(747.18 907.76)" style="font-size: 36.85363006591797px;font-family: Helvetica">Novice<tspan style="font-size: 26.131669998168945px;fill: #999"><tspan x="-5.41" y="37.56">numérique</tspan></tspan></text>
  <text transform="translate(63.77 907.76)" style="font-size: 36.85363006591797px;font-family: Helvetica">Spécialiste du<tspan style="font-size: 26.131669998168945px;fill: #999"><tspan x="52.99" y="37.56">numérique</tspan></tspan></text>
  <text transform="translate(459.61 907.76)" style="font-size: 36.85363006591797px;font-family: Helvetica">Natif<tspan style="font-size: 26.131669998168945px;fill: #999"><tspan x="-23.85" y="37.56">numérique</tspan></tspan></text>
</svg>
