<svg xmlns="http://www.w3.org/2000/svg" xmlns:xlink="http://www.w3.org/1999/xlink" viewBox="0 0 450 272.07"><defs><style>.a,.f{fill:none;}.b{opacity:0.2;}.c{clip-path:url(#a);}.d{opacity:0.1;}.e{fill:#aaa;}.f{stroke:#fff;stroke-miterlimit:10;stroke-width:0.58px;}.g{fill:#fff;}</style><clipPath id="a"><rect class="a" y="0.22" width="450" height="271.85"/></clipPath></defs><title>data-web</title><g class="b"><g class="c"><g class="b"><g class="d"><polygon class="e" points="343.17 227.95 360.37 238 369.38 213.99 343.17 227.95"/><polygon class="e" points="421.87 226.37 408.06 185.3 444.59 217.81 421.87 226.37"/><polygon class="e" points="457.19 183.4 427.87 153.67 479.33 181.85 457.19 183.4"/><polygon class="e" points="433.12 98.89 455.34 90.21 446.45 57.62 433.12 98.89"/><polygon class="e" points="349.43 136.11 373.26 171.51 396.05 173.85 349.43 136.11"/><polygon class="e" points="406.13 295.74 431.76 290.98 419.47 254.47 406.13 295.74"/><polygon class="e" points="355.1 283.49 392.05 269.61 397.39 219.28 355.1 283.49"/><polygon class="e" points="286.55 262.56 309.55 249.56 269.61 220.74 286.55 262.56"/><polygon class="e" points="278.93 164.22 306.36 208.97 297.69 217.66 278.93 164.22"/><polygon class="e" points="310.55 156.37 349.86 186.1 339.69 163.01 310.55 156.37"/><polygon class="e" points="194.39 185.05 240.32 183.96 237.54 154.34 194.39 185.05"/><polygon class="e" points="129.93 243.83 146.65 192.99 161.11 210.76 129.93 243.83"/><polygon class="e" points="197.59 260.75 197.88 218.99 214.33 275.3 197.59 260.75"/><polygon class="e" points="82.05 304.08 120.66 284.33 129.93 243.83 82.05 304.08"/><polygon class="e" points="54.62 259.33 46.41 203.13 67.97 241.59 54.62 259.33"/><polygon class="e" points="17.81 240.34 26.82 278.8 82.05 304.08 17.81 240.34"/><polygon class="e" points="410.2 79.91 433.12 98.89 401.4 132.14 410.2 79.91"/></g><line class="f" x1="315.64" y1="296.09" x2="336.51" y2="256.66"/><polyline class="f" points="269.61 220.74 286.55 262.56 309.55 249.56"/><line class="f" x1="255.63" y1="255.39" x2="286.55" y2="262.56"/><polyline class="f" points="410.2 79.91 401.4 132.14 433.12 98.89 446.61 134.31 401.4 132.14 408.06 185.3 444.59 217.81 397.39 219.28 419.47 254.47 444.59 217.81 442.39 273.45"/><polyline class="f" points="433.12 98.89 427.87 153.67 479.33 181.85 446.61 134.31 427.87 153.67 457.19 183.4 479.33 181.85"/><polyline class="f" points="446.45 57.62 420.83 62.39 463.27 29.72 497.49 69.88 446.45 57.62 419.58 26.09 420.83 62.39 410.2 79.91 433.12 98.89 420.83 62.39 382.2 64.31 401.4 132.14 343.12 97.14 410.2 79.91"/><polyline class="f" points="543.04 103.81 536.95 57.27 497.49 69.88 543.04 103.81 596.95 97.97 536.95 57.27 446.45 57.62 433.12 98.89 455.34 90.21"/><polyline class="f" points="479.83 104.19 446.61 134.31 446.45 57.62 479.83 104.19 497.49 69.88 527.69 81.64 479.83 104.19"/><polyline class="f" points="397.39 219.28 373.26 171.51 408.06 185.3 427.87 153.67 401.4 132.14 373.26 171.51 396.05 173.85 397.39 219.28 392.05 269.61 419.47 254.47"/><polyline class="f" points="408.06 185.3 421.87 226.37 444.59 217.81 471.67 239.89 442.39 273.45 468.16 297.31 431.76 290.98 419.47 254.47 442.39 273.45 431.76 290.98"/><polyline class="f" points="397.39 219.28 355.1 283.49 392.05 269.61 406.13 295.74"/><line class="f" x1="428.17" y1="187.3" x2="444.59" y2="217.81"/><polyline class="f" points="446.45 57.62 455.34 90.21 479.83 104.19"/><polyline class="f" points="237.54 154.34 194.39 185.05 240.32 183.96 224.81 218.55 194.39 185.05 161.5 227.35 164.34 276.16 129.93 243.83 120.66 284.33 164.34 276.16 123.44 313.95"/><polyline class="f" points="240.32 183.96 197.88 218.99 214.33 275.3 224.81 218.55 197.88 218.99 197.59 260.75 214.33 275.3"/><polyline class="f" points="278.93 164.22 257.45 149.46 310.55 156.37 306.36 208.97 278.93 164.22 282.22 122.92 257.45 149.46 237.54 154.34 240.32 183.96 257.45 149.46 228.77 123.51 194.39 185.05 177.92 119.09 237.54 154.34"/><polyline class="f" points="142.23 266.15 120.66 284.33 82.05 304.08 17.81 240.34 4.16 169.13 46.41 203.13 54.62 259.33 17.81 240.34 46.41 203.13"/><polyline class="f" points="120.66 284.33 90.57 275.64 129.93 243.83 161.11 210.76 146.65 192.99 194.39 185.05 197.88 218.99 161.5 227.35 146.65 192.99 129.93 243.83 82.05 304.08 50.43 311.92 1.88 296.27 17.81 240.34 26.82 278.8 50.43 311.92"/><polyline class="f" points="161.5 227.35 142.23 266.15 164.34 276.16 167.89 310.93 123.44 313.95 124.8 349.05 103.53 318.83 120.66 284.33 123.44 313.95 103.53 318.83 78.75 345.38 82.05 304.08 54.62 259.33 50.43 311.92 103.53 318.83 82.05 304.08"/><polyline class="f" points="161.11 210.76 197.88 218.99 164.34 276.16 197.59 260.75 174.31 242.98 197.88 218.99"/><polyline class="f" points="174.31 242.98 164.34 276.16 151.63 297.15 167.89 310.93 124.8 349.05 78.75 345.38"/><polyline class="f" points="278.93 164.22 262.18 193.54 269.61 220.74 309.55 249.56 315.64 296.09 355.1 283.49 309.55 249.56 255.63 255.39 315.64 296.09 406.13 295.74 419.47 254.47 421.87 226.37"/><polyline class="f" points="343.17 227.95 309.55 249.56 306.36 208.97 349.86 186.1 397.39 219.28 343.17 227.95 306.36 208.97 269.61 220.74 278.93 164.22 224.81 218.55 269.61 220.74"/><polyline class="f" points="349.86 186.1 369.38 213.99 397.39 219.28"/><polyline class="f" points="310.55 156.37 349.43 136.11 373.26 171.51 349.86 186.1 310.55 156.37 343.17 227.95 355.1 283.49 336.51 256.65 309.55 249.56"/><polyline class="f" points="349.86 186.1 349.43 136.11 396.05 173.85 427.87 153.67 444.59 217.81 457.19 183.4 428.17 187.3 427.87 153.67"/><polyline class="f" points="269.61 220.74 255.63 255.39 214.33 275.3"/><line class="f" x1="224.81" y1="218.55" x2="255.63" y2="255.39"/><polyline class="f" points="392.05 269.61 369.38 213.99 343.17 227.95 360.37 238 369.38 213.99"/><line class="f" x1="360.37" y1="238" x2="355.1" y2="283.49"/><polyline class="f" points="1.88 296.27 26.82 278.8 82.05 304.08 90.57 275.64 54.62 259.33 129.93 243.83 161.5 227.35"/><polyline class="f" points="46.41 203.13 67.97 241.59 54.62 259.33"/><line class="f" x1="67.97" y1="241.59" x2="129.93" y2="243.83"/><polyline class="f" points="278.93 164.22 297.69 217.66 306.36 208.97"/><line class="f" x1="297.69" y1="217.66" x2="343.17" y2="227.95"/><polyline class="f" points="310.55 156.37 339.69 163.01 349.86 186.1"/><line class="f" x1="339.69" y1="163.01" x2="349.43" y2="136.11"/><circle class="g" cx="419.58" cy="26.09" r="1" transform="translate(83.34 278.42) rotate(-40.44)"/><circle class="g" cx="420.83" cy="62.39" r="1" transform="translate(59.99 287.73) rotate(-40.42)"/><circle class="g" cx="433.12" cy="98.89" r="1" transform="translate(39.38 304.65) rotate(-40.45)"/><circle class="g" cx="446.61" cy="134.32" r="1.29" transform="translate(19.61 321.85) rotate(-40.45)"/><circle class="g" cx="427.87" cy="153.67" r="1.29" transform="translate(2.53 314.2) rotate(-40.43)"/><circle class="g" cx="401.4" cy="132.14" r="1.17" transform="translate(10.18 291.91) rotate(-40.44)"/><circle class="g" cx="382.2" cy="64.31" r="1.16" transform="translate(49.68 263.42) rotate(-40.46)"/><circle class="g" cx="446.45" cy="57.62" r="1.46" transform="translate(69.28 303.35) rotate(-40.44)"/><circle class="g" cx="410.2" cy="79.91" r="1.38" transform="translate(46.13 285.1) rotate(-40.43)"/><circle class="g" cx="343.12" cy="97.14" r="1.21" transform="translate(19.02 245.9) rotate(-40.46)"/><circle class="g" cx="419.47" cy="254.47" r="1" transform="translate(-64.83 333) rotate(-40.45)"/><circle class="g" cx="397.39" cy="219.28" r="1.84" transform="translate(-47.3 310.11) rotate(-40.43)"/><circle class="g" cx="408.06" cy="185.3" r="1.2" transform="translate(-22.71 308.95) rotate(-40.44)"/><circle class="g" cx="396.05" cy="173.85" r="1.13" transform="translate(-18.17 298.35) rotate(-40.43)"/><circle class="g" cx="444.59" cy="217.81" r="1" transform="translate(-35.11 340.23) rotate(-40.42)"/><circle class="g" cx="421.87" cy="226.37" r="1" transform="translate(-46.03 327.76) rotate(-40.44)"/><circle class="g" cx="428.17" cy="187.3" r="1" transform="translate(-19.17 322.58) rotate(-40.45)"/><circle class="g" cx="373.26" cy="171.51" r="1" transform="translate(-22.05 283.18) rotate(-40.45)"/><circle class="g" cx="309.55" cy="249.56" r="1" transform="translate(-87.92 260.44) rotate(-40.44)"/><circle class="g" cx="297.69" cy="217.66" r="1" transform="translate(-70.06 245.13) rotate(-40.44)"/><circle class="g" cx="255.63" cy="255.39" r="1" transform="translate(-104.59 226.85) rotate(-40.44)"/><circle class="g" cx="392.05" cy="269.61" r="1.46" transform="translate(-81.22 318.71) rotate(-40.44)"/><circle class="g" cx="286.55" cy="262.56" r="1.46" transform="translate(-101.85 248.65) rotate(-40.45)"/><circle class="g" cx="336.51" cy="256.65" r="1.88" transform="translate(-86.08 279.56) rotate(-40.44)"/><circle class="g" cx="349.86" cy="186.1" r="1.88" transform="translate(-37.13 271.4) rotate(-40.44)"/><circle class="g" cx="282.23" cy="122.92" r="1" transform="matrix(0.08, -1, 1, 0.08, 137.13, 394.41)"/><circle class="g" cx="257.44" cy="149.46" r="1" transform="matrix(0.08, -1, 1, 0.08, 88, 394.21)"/><circle class="g" cx="240.32" cy="183.96" r="1" transform="translate(37.83 408.89) rotate(-85.44)"/><circle class="g" cx="262.18" cy="193.54" r="1" transform="translate(48.52 439.59) rotate(-85.47)"/><circle class="g" cx="224.81" cy="218.55" r="1.29" transform="translate(-10.98 425.22) rotate(-85.42)"/><circle class="g" cx="197.88" cy="218.99" r="1.29" transform="translate(-36.14 398.85) rotate(-85.44)"/><circle class="g" cx="197.59" cy="260.75" r="1.2" transform="translate(-78.04 436.99) rotate(-85.44)"/><circle class="g" cx="194.39" cy="185.05" r="1.17" transform="matrix(0.08, -1, 1, 0.08, -5.55, 364.08)"/><circle class="g" cx="228.77" cy="123.51" r="1.17" transform="translate(87.56 341.8) rotate(-85.47)"/><circle class="g" cx="310.55" cy="156.37" r="1" transform="translate(130.05 453.55) rotate(-85.45)"/><circle class="g" cx="339.69" cy="163.01" r="1" transform="translate(150.27 488.71) rotate(-85.45)"/><circle class="g" cx="278.93" cy="164.21" r="1.46" transform="matrix(0.08, -1, 1, 0.08, 93.08, 429.22)"/><circle class="g" cx="343.17" cy="227.95" r="1.46" transform="translate(88.64 551.9) rotate(-85.44)"/><circle class="g" cx="369.38" cy="213.99" r="1.46" transform="translate(126.56 565.1) rotate(-85.42)"/><circle class="g" cx="360.37" cy="238" r="1.26" transform="translate(94.41 578.25) rotate(-85.43)"/><circle class="g" cx="349.43" cy="136.11" r="1.46" transform="translate(185.95 473.6) rotate(-85.44)"/><circle class="g" cx="306.36" cy="208.97" r="1.38" transform="matrix(0.08, -1, 1, 0.08, 73.71, 497.75)"/><circle class="g" cx="269.61" cy="220.74" r="1.96" transform="translate(28.1 471.92) rotate(-85.43)"/><circle class="g" cx="237.54" cy="154.34" r="1.38" transform="translate(64.81 378.86) rotate(-85.44)"/><circle class="g" cx="177.92" cy="119.09" r="1.21" transform="translate(45.06 286.98) rotate(-85.44)"/><circle class="g" cx="129.93" cy="243.83" r="1.29" transform="translate(-123.43 354.02) rotate(-85.45)"/><circle class="g" cx="161.5" cy="227.35" r="1.2" transform="matrix(0.08, -1, 1, 0.08, -77.93, 370.33)"/><circle class="g" cx="161.11" cy="210.76" r="1.13" transform="translate(-61.75 354.66) rotate(-85.46)"/><circle class="g" cx="142.23" cy="266.15" r="1" transform="translate(-134.44 386.65) rotate(-85.41)"/><circle class="g" cx="174.31" cy="242.98" r="1" transform="translate(-81.69 397.53) rotate(-85.47)"/><circle class="g" cx="146.65" cy="192.99" r="1" transform="translate(-57.39 323.82) rotate(-85.44)"/><circle class="g" cx="46.41" cy="203.13" r="1" transform="translate(-159.75 233.34) rotate(-85.47)"/><circle class="g" cx="4.16" cy="169.13" r="1" transform="translate(-164.77 159.83) rotate(-85.44)"/><circle class="g" cx="67.97" cy="241.59" r="1.25" transform="translate(-178.27 290.07) rotate(-85.42)"/><circle class="g" cx="17.81" cy="240.34" r="1.46" transform="matrix(0.08, -1, 1, 0.08, -223.18, 238.89)"/><circle class="g" cx="54.62" cy="259.33" r="1.38" transform="translate(-208.23 293.12) rotate(-85.43)"/></g><g class="b"><polygon class="g" points="354.31 208.25 371.52 218.29 380.52 194.29 354.31 208.25"/><polygon class="g" points="433.02 206.66 419.2 165.6 455.73 198.1 433.02 206.66"/><polygon class="g" points="468.34 163.7 439.01 133.96 490.47 162.15 468.34 163.7"/><polygon class="g" points="444.26 79.19 466.49 70.5 457.6 37.92 444.26 79.19"/><polygon class="g" points="360.58 116.4 384.4 151.81 407.19 154.15 360.58 116.4"/><polygon class="g" points="417.28 276.04 442.9 271.27 430.62 234.77 417.28 276.04"/><polygon class="g" points="366.24 263.78 403.19 249.9 408.53 199.57 366.24 263.78"/><polygon class="g" points="297.69 242.86 320.69 229.85 280.75 201.04 297.69 242.86"/><polygon class="g" points="290.07 144.51 317.5 189.26 308.83 197.96 290.07 144.51"/><polygon class="g" points="321.69 136.67 361.01 166.4 350.83 143.31 321.69 136.67"/><polygon class="g" points="205.53 165.34 251.46 164.26 248.68 134.63 205.53 165.34"/><polygon class="g" points="141.07 224.12 157.79 173.28 172.25 191.05 141.07 224.12"/><polygon class="g" points="208.73 241.04 209.02 199.28 225.48 255.6 208.73 241.04"/><polygon class="g" points="93.19 284.37 131.8 264.62 141.07 224.12 93.19 284.37"/><polygon class="g" points="65.77 239.62 57.55 183.42 79.12 221.88 65.77 239.62"/><polygon class="g" points="28.95 220.63 37.97 259.09 93.19 284.37 28.95 220.63"/><polygon class="g" points="421.35 60.21 444.26 79.19 412.55 112.43 421.35 60.21"/></g><line class="f" x1="326.79" y1="276.39" x2="347.66" y2="236.95"/><polyline class="f" points="280.75 201.04 297.69 242.86 320.69 229.85"/><line class="f" x1="266.78" y1="235.69" x2="297.69" y2="242.86"/><polyline class="f" points="421.35 60.21 412.55 112.43 444.26 79.19 457.75 114.61 412.55 112.43 419.2 165.6 455.73 198.1 408.53 199.57 430.62 234.77 455.73 198.1 453.53 253.75"/><polyline class="f" points="444.26 79.19 439.01 133.96 490.47 162.15 457.75 114.61 439.01 133.96 468.34 163.7 490.47 162.15"/><polyline class="f" points="457.6 37.92 431.97 42.68 474.41 10.01 508.63 50.17 457.6 37.92 430.72 6.39 431.97 42.68 421.35 60.21 444.26 79.19 431.97 42.68 393.35 44.61 412.55 112.43 354.27 77.43 421.35 60.21"/><polyline class="f" points="554.18 84.1 548.09 37.57 508.63 50.17 554.18 84.1 608.1 78.27 548.09 37.57 457.6 37.92 444.26 79.19 466.49 70.5"/><polyline class="f" points="408.53 199.57 384.4 151.81 419.2 165.6 439.01 133.96 412.55 112.43 384.4 151.81 407.19 154.15 408.53 199.57 403.19 249.9 430.62 234.77"/><polyline class="f" points="417.28 276.04 366.24 263.78 400.47 303.94 442.9 271.27 417.28 276.04"/><polyline class="f" points="419.2 165.6 433.02 206.66 455.73 198.1 482.82 220.18 453.53 253.75 479.31 277.61 442.9 271.27 430.62 234.77 453.53 253.75 442.9 271.27"/><polyline class="f" points="408.53 199.57 366.24 263.78 403.19 249.9 417.28 276.04"/><line class="f" x1="439.31" y1="167.59" x2="455.73" y2="198.1"/><polyline class="f" points="248.68 134.63 205.53 165.34 251.46 164.26 235.96 198.85 205.53 165.34 172.64 207.64 175.49 256.46 141.07 224.12 131.8 264.62 175.49 256.46 134.58 294.25"/><polyline class="f" points="251.46 164.26 209.02 199.28 225.48 255.6 235.96 198.85 209.02 199.28 208.73 241.04 225.48 255.6"/><polyline class="f" points="290.07 144.51 268.59 129.75 321.69 136.67 317.5 189.26 290.07 144.51 293.37 103.21 268.59 129.75 248.68 134.63 251.46 164.26 268.59 129.75 239.91 103.81 205.53 165.34 189.07 99.38 248.68 134.63"/><polyline class="f" points="153.37 246.44 131.8 264.62 93.19 284.37 28.95 220.63 15.3 149.42 57.55 183.42 65.77 239.62 28.95 220.63 57.55 183.42"/><polyline class="f" points="131.8 264.62 101.71 255.93 141.07 224.12 172.25 191.05 157.79 173.28 205.53 165.34 209.02 199.28 172.64 207.64 157.79 173.28 141.07 224.12 93.19 284.37 61.57 292.22 13.02 276.57 28.95 220.63 37.97 259.09 61.57 292.22"/><polyline class="f" points="172.64 207.64 153.37 246.44 175.49 256.46 179.03 291.22 134.58 294.25 135.94 329.34 114.68 299.13 131.8 264.62 134.58 294.25 114.68 299.13 89.9 325.67 93.19 284.37 65.77 239.62 61.57 292.22 114.68 299.13 93.19 284.37"/><polyline class="f" points="172.25 191.05 209.02 199.28 175.49 256.46 208.73 241.04 185.45 223.27 209.02 199.28"/><polyline class="f" points="185.45 223.27 175.49 256.46 162.77 277.45 179.03 291.22 135.94 329.34 89.9 325.67"/><polyline class="f" points="290.07 144.51 273.32 173.83 280.75 201.04 320.69 229.85 326.79 276.39 366.24 263.78 320.69 229.85 266.78 235.69 326.79 276.39 417.28 276.04 430.62 234.77 433.02 206.66"/><polyline class="f" points="354.31 208.25 320.69 229.85 317.5 189.26 361.01 166.4 408.53 199.57 354.31 208.25 317.5 189.26 280.75 201.04 290.07 144.51 235.96 198.85 280.75 201.04"/><polyline class="f" points="361.01 166.4 380.52 194.29 408.53 199.57"/><polyline class="f" points="321.69 136.67 360.58 116.4 384.4 151.81 361.01 166.4 321.69 136.67 354.31 208.25 366.24 263.78 347.66 236.95 320.69 229.85"/><polyline class="f" points="361.01 166.4 360.58 116.4 407.19 154.15 439.01 133.96 455.73 198.1 468.34 163.7 439.31 167.59 439.01 133.96"/><polyline class="f" points="280.75 201.04 266.78 235.69 225.48 255.6"/><line class="f" x1="235.96" y1="198.85" x2="266.78" y2="235.69"/><polyline class="f" points="403.19 249.9 380.52 194.29 354.31 208.25 371.52 218.29 380.52 194.29"/><line class="f" x1="371.52" y1="218.29" x2="366.24" y2="263.78"/><polyline class="f" points="13.02 276.57 37.97 259.09 93.19 284.37 101.71 255.93 65.77 239.62 141.07 224.12 172.64 207.64"/><polyline class="f" points="57.55 183.42 79.12 221.88 65.77 239.62"/><line class="f" x1="79.12" y1="221.88" x2="141.07" y2="224.12"/><polyline class="f" points="290.07 144.51 308.83 197.96 317.5 189.26"/><line class="f" x1="308.83" y1="197.96" x2="354.31" y2="208.25"/><polyline class="f" points="321.69 136.67 350.83 143.31 361.01 166.4"/><line class="f" x1="350.83" y1="143.31" x2="360.58" y2="116.4"/><circle class="g" cx="430.72" cy="6.39" r="1" transform="translate(98.78 280.94) rotate(-40.44)"/><circle class="g" cx="431.97" cy="42.68" r="1" transform="translate(75.43 290.27) rotate(-40.42)"/><circle class="g" cx="444.26" cy="79.19" r="1" transform="translate(54.83 307.18) rotate(-40.45)"/><circle class="g" cx="439.01" cy="133.96" r="1.29" transform="translate(17.97 316.72) rotate(-40.43)"/><circle class="g" cx="412.55" cy="112.43" r="1.17" transform="translate(25.62 294.43) rotate(-40.44)"/><circle class="g" cx="393.35" cy="44.61" r="1.16" transform="translate(65.13 265.93) rotate(-40.46)"/><circle class="g" cx="421.35" cy="60.21" r="1.38" transform="translate(61.56 287.61) rotate(-40.43)"/><circle class="g" cx="354.27" cy="77.43" r="1.21" transform="translate(34.48 248.41) rotate(-40.46)"/><circle class="g" cx="442.9" cy="271.27" r="1" transform="translate(-70.14 352.12) rotate(-40.44)"/><circle class="g" cx="430.62" cy="234.77" r="1" transform="translate(-49.38 335.53) rotate(-40.45)"/><circle class="g" cx="408.53" cy="199.57" r="1.84" transform="translate(-31.86 312.63) rotate(-40.43)"/><circle class="g" cx="419.21" cy="165.6" r="1.2" transform="translate(-7.26 311.48) rotate(-40.44)"/><circle class="g" cx="407.19" cy="154.15" r="1.13" transform="translate(-2.73 300.89) rotate(-40.43)"/><circle class="g" cx="433.02" cy="206.66" r="1" transform="translate(-30.59 330.27) rotate(-40.44)"/><circle class="g" cx="439.31" cy="167.59" r="1" transform="translate(-3.72 325.09) rotate(-40.45)"/><circle class="g" cx="384.41" cy="151.8" r="1" transform="translate(-6.6 285.69) rotate(-40.45)"/><circle class="g" cx="320.69" cy="229.85" r="1" transform="translate(-72.47 262.96) rotate(-40.44)"/><circle class="g" cx="308.83" cy="197.96" r="1" transform="translate(-54.62 247.64) rotate(-40.44)"/><circle class="g" cx="266.78" cy="235.69" r="1" transform="translate(-89.14 229.37) rotate(-40.44)"/><circle class="g" cx="403.19" cy="249.9" r="1.46" transform="translate(-65.77 321.24) rotate(-40.44)"/><circle class="g" cx="297.69" cy="242.86" r="1.46" transform="translate(-86.41 251.17) rotate(-40.45)"/><circle class="g" cx="366.24" cy="263.78" r="1.38" transform="translate(-83.6 300.57) rotate(-40.44)"/><circle class="g" cx="347.66" cy="236.95" r="1.88" transform="translate(-70.64 282.09) rotate(-40.44)"/><circle class="g" cx="361.01" cy="166.4" r="1.88" transform="translate(-21.68 273.92) rotate(-40.44)"/><circle class="g" cx="293.37" cy="103.21" r="1" transform="translate(167.03 387.39) rotate(-85.41)"/><circle class="g" cx="268.59" cy="129.76" r="1" transform="matrix(0.08, -1, 1, 0.08, 117.9, 387.18)"/><circle class="g" cx="251.46" cy="164.26" r="1" transform="translate(67.73 401.86) rotate(-85.44)"/><circle class="g" cx="273.32" cy="173.83" r="1" transform="translate(78.42 432.55) rotate(-85.47)"/><circle class="g" cx="235.96" cy="198.85" r="1.29" transform="translate(18.92 418.19) rotate(-85.42)"/><circle class="g" cx="209.02" cy="199.28" r="1.29" transform="translate(-6.23 391.81) rotate(-85.44)"/><circle class="g" cx="208.73" cy="241.04" r="1.2" transform="translate(-48.13 429.96) rotate(-85.44)"/><circle class="g" cx="205.53" cy="165.34" r="1.17" transform="translate(24.35 357.05) rotate(-85.43)"/><circle class="g" cx="239.91" cy="103.81" r="1.17" transform="translate(117.47 334.76) rotate(-85.47)"/><circle class="g" cx="225.48" cy="255.6" r="1" transform="matrix(0.08, -1, 1, 0.08, -47.23, 460.05)"/><circle class="g" cx="321.69" cy="136.67" r="1" transform="matrix(0.08, -1, 1, 0.08, 159.96, 446.51)"/><circle class="g" cx="350.83" cy="143.31" r="1" transform="translate(180.17 481.67) rotate(-85.45)"/><circle class="g" cx="290.07" cy="144.51" r="1.46" transform="matrix(0.08, -1, 1, 0.08, 122.98, 422.19)"/><circle class="g" cx="354.31" cy="208.25" r="1.46" transform="translate(118.54 544.87) rotate(-85.44)"/><circle class="g" cx="380.52" cy="194.29" r="1.46" transform="translate(156.46 558.07) rotate(-85.42)"/><circle class="g" cx="371.52" cy="218.29" r="1.26" transform="translate(124.31 571.22) rotate(-85.43)"/><circle class="g" cx="360.58" cy="116.4" r="1.46" transform="translate(215.85 466.57) rotate(-85.44)"/><circle class="g" cx="317.5" cy="189.26" r="1.38" transform="translate(103.61 490.72) rotate(-85.44)"/><circle class="g" cx="280.75" cy="201.04" r="1.96" transform="translate(58 464.89) rotate(-85.43)"/><circle class="g" cx="248.68" cy="134.63" r="1.38" transform="matrix(0.08, -1, 1, 0.08, 94.71, 371.83)"/><circle class="g" cx="189.07" cy="99.38" r="1.21" transform="translate(74.96 279.95) rotate(-85.44)"/><circle class="g" cx="131.8" cy="264.62" r="1" transform="translate(-142.41 375.1) rotate(-85.47)"/><circle class="g" cx="141.07" cy="224.12" r="1.29" transform="translate(-93.52 346.99) rotate(-85.45)"/><circle class="g" cx="172.64" cy="207.64" r="1.2" transform="translate(-48.03 363.29) rotate(-85.46)"/><circle class="g" cx="172.25" cy="191.05" r="1.13" transform="translate(-31.85 347.63) rotate(-85.46)"/><circle class="g" cx="175.49" cy="256.46" r="1" transform="translate(-94.11 411) rotate(-85.44)"/><circle class="g" cx="153.37" cy="246.44" r="1" transform="translate(-104.54 379.63) rotate(-85.41)"/><circle class="g" cx="185.45" cy="223.27" r="1" transform="matrix(0.08, -1, 1, 0.08, -51.78, 390.49)"/><circle class="g" cx="157.79" cy="173.28" r="1" transform="translate(-27.49 316.79) rotate(-85.44)"/><circle class="g" cx="37.96" cy="259.09" r="1" transform="translate(-223.32 276.41) rotate(-85.45)"/><circle class="g" cx="57.55" cy="183.42" r="1" transform="translate(-129.84 226.3) rotate(-85.47)"/><circle class="g" cx="15.3" cy="149.42" r="1" transform="translate(-134.86 152.8) rotate(-85.44)"/><circle class="g" cx="101.71" cy="255.93" r="1.46" transform="translate(-161.51 336.95) rotate(-85.44)"/><circle class="g" cx="79.12" cy="221.88" r="1.25" transform="translate(-148.37 283.04) rotate(-85.42)"/><circle class="g" cx="28.95" cy="220.63" r="1.46" transform="matrix(0.08, -1, 1, 0.08, -193.29, 231.87)"/><circle class="g" cx="65.77" cy="239.62" r="1.38" transform="translate(-178.33 286.09) rotate(-85.43)"/></g></g></svg>