<svg id="Layer_1" data-name="Layer 1" xmlns="http://www.w3.org/2000/svg" viewBox="0 0 214.14 92.31">
  <title>hitachi_logo_black</title>
  <path d="M147.82,24.55v8.18h11s0-8.18,0-8.18h5.42s0,20.45,0,20.47h-5.42V36s-11,0-11,0,0,9,0,9H142.4s0-20.47,0-20.47Z" style="fill: #241f21"/>
  <path d="M96.36,24.55V28H88.07V45H82.65V28H74.36s0-3.48,0-3.48h22" style="fill: #241f21"/>
  <path d="M117.44,45h-6s-1.78-4.4-1.78-4.4H99.47S97.72,45,97.69,45h-6l9.56-20.47h6.65Zm-12.9-17-3.77,9.31h7.55Z" style="fill: #241f21"/>
  <rect x="168.49" y="24.55" width="5.43" height="20.47" style="fill: #241f21"/>
  <path d="M46.33,24.55v8.18H57.27V24.55H62.7s0,20.45,0,20.47H57.27V36s-10.94,0-10.94,0v9H40.9s0-20.47,0-20.47Z" style="fill: #241f21"/>
  <rect x="67" y="24.55" width="5.42" height="20.47" style="fill: #241f21"/>
  <path d="M117.24,39.34a13.34,13.34,0,0,1-.73-4.36,11.61,11.61,0,0,1,1.42-6,9,9,0,0,1,4.65-3.89,17,17,0,0,1,12.85.35,6.64,6.64,0,0,1,3.87,4.73c.08.42.15.86.19,1.3H133.8a4.87,4.87,0,0,0-.3-1.58A4,4,0,0,0,131,27.56a8.09,8.09,0,0,0-2.37-.35,8.21,8.21,0,0,0-2.69.46,4.91,4.91,0,0,0-3,3,13,13,0,0,0-.74,4.3,13.33,13.33,0,0,0,.52,3.6,4.85,4.85,0,0,0,3,3.23,8.26,8.26,0,0,0,2.91.54A8.08,8.08,0,0,0,131.1,42a3.87,3.87,0,0,0,2.36-2.12,5.34,5.34,0,0,0,.45-2.2h5.71a10.19,10.19,0,0,1-.27,1.94,6.6,6.6,0,0,1-3.79,4.52,18,18,0,0,1-7,1.42,18.45,18.45,0,0,1-5.5-.84,8.92,8.92,0,0,1-5.85-5.34" style="fill: #241f21"/>
  <path d="M36.05,50.74l-4.83.44v.72l.15,0c1.95.23,1.95.23,1.95,1.63V63.67h2.92v-13Z" style="fill: #241f21"/>
  <path d="M46.29,54.57a4.06,4.06,0,0,0-3.37,2v-2l-.2,0-3.92.61v.69H39c1.24,0,1.51.3,1.51,1.46v6.34h2.44V59c0-1.24,1.17-2.84,2.41-2.84s1.23,1,1.23,2.56v4.94H49V57.33a2.47,2.47,0,0,0-2.72-2.76" style="fill: #241f21"/>
  <path d="M55.85,58.1c-1-.47-1.8-.88-1.8-1.54s.91-.84,1.3-.84a4.63,4.63,0,0,1,2.29.79l.38.23V54.91l-.29-.06a10.08,10.08,0,0,0-2.22-.28c-2.3,0-3.68,1-3.68,2.64,0,1.48,1.43,2.18,2.69,2.8,1,.47,1.9.93,1.9,1.64s-.59,1.06-1.63,1.06a5.25,5.25,0,0,1-2.68-.93l-.26-.16V63.5l.18,0a11,11,0,0,0,2.68.33c2.47,0,3.95-1,3.95-2.71s-1.49-2.41-2.8-3.06" style="fill: #241f21"/>
  <path d="M66.59,54.57A3.58,3.58,0,0,0,64,55.83V54.54l-.2,0-3.9.61v.69h.17c1.22,0,1.47.28,1.47,1.46V67.42H64v-4.6a3,3,0,0,0,2.51,1c2.56,0,3.91-1.66,3.91-4.79,0-2.87-1.4-4.51-3.82-4.51m-.7,1.34c1.67,0,1.86,1.81,1.86,3.17,0,2.32-.6,3.45-1.84,3.45C64.33,62.53,64,61,64,59.8V59c0-.94.19-3.13,1.9-3.13" style="fill: #241f21"/>
  <path d="M72.11,55.18v.69h.17c1.21,0,1.45.28,1.45,1.46v6.34h2.44V54.54l-.2,0Z" style="fill: #241f21"/>
  <path d="M75,53.46a1.44,1.44,0,0,0,1.53-1.33A1.51,1.51,0,1,0,75,53.46" style="fill: #241f21"/>
  <path d="M86.4,56.58v-1.9l-.14,0a8,8,0,0,0-1.16-.09,2.78,2.78,0,0,0-2.5,1.8V54.54l-.19,0-3.9.61v.69h.17c1.23,0,1.48.28,1.48,1.46v6.34H82.6V59.1a2.36,2.36,0,0,1,2.56-2.57,3.29,3.29,0,0,1,.85.17l.39.11Z" style="fill: #241f21"/>
  <path d="M96.06,58.26c0-2.45-1.36-3.69-4-3.69-3,0-4.57,1.46-4.57,4.35,0,3.1,2,4.95,5.3,4.95a9.35,9.35,0,0,0,3-.5l.14,0V62.14l-.23.09a5.89,5.89,0,0,1-1.91.3c-2.61,0-3.58-2.17-3.64-4.1h6Zm-4.13-2.72c1.31,0,1.64.94,1.68,1.81H90.1a1.85,1.85,0,0,1,1.83-1.81" style="fill: #241f21"/>
  <path d="M118.33,54.57a3.89,3.89,0,0,0-3.35,2V50.43l-.19,0-3.89.48v.68h.18c1.2.05,1.46.32,1.46,1.5V63.67H115V59.12c0-1.66,1.24-2.95,2.3-2.95,1.37,0,1.37,1,1.37,1.92v5.58h2.44V57.81c0-1,0-3.24-2.76-3.24" style="fill: #241f21"/>
  <path d="M132.07,58.26c0-2.45-1.37-3.69-4-3.69-3,0-4.58,1.46-4.58,4.35,0,3.1,2,4.95,5.31,4.95a9.27,9.27,0,0,0,3-.5l.15,0V62.14l-.23.09a5.94,5.94,0,0,1-1.91.3c-2.62,0-3.59-2.17-3.64-4.1h6Zm-4.14-2.72c1.31,0,1.65.94,1.69,1.81H126.1a1.85,1.85,0,0,1,1.83-1.81" style="fill: #241f21"/>
  <path d="M104.64,52v2.76H103v1.08h1.64v5.48c0,2.36,1.52,2.54,3.36,2.54a8.18,8.18,0,0,0,1.43-.15h.14V62.6l-.21,0a3.79,3.79,0,0,1-.74.07c-1.46,0-1.54-.43-1.54-1.68V55.85h2.75V54.77h-2.75V52Z" style="fill: #241f21"/>
  <path d="M152.72,50.94h-2.45v9.67c-.5-.77-6.38-9.67-6.38-9.67h-5.64v.73l.48.08c1.49.26,1.61.27,1.61,1.72v10.2H143V53.55c.51.76,6.7,10.12,6.7,10.12h3.23V50.94Z" style="fill: #241f21"/>
  <path d="M163.82,58.26c0-2.45-1.37-3.68-4-3.68-3,0-4.58,1.46-4.58,4.34,0,3.1,2,4.95,5.31,4.95a9.88,9.88,0,0,0,3-.49l.14-.05V62.15l-.23.09a6.24,6.24,0,0,1-1.91.3c-2.61,0-3.59-2.18-3.64-4.11h6Zm-4.14-2.71c1.32,0,1.65.94,1.69,1.8h-3.52a1.84,1.84,0,0,1,1.83-1.8" style="fill: #241f21"/>
  <path d="M177.29,52v2.77h-1.63v1.08h1.63v5.48c0,2.36,1.52,2.54,3.36,2.54a8.18,8.18,0,0,0,1.43-.15h.15V62.6l-.22,0a3.76,3.76,0,0,1-.73.07c-1.47,0-1.55-.43-1.55-1.68V55.85h2.75V54.77h-2.75V52Z" style="fill: #241f21"/>
  <path d="M172.37,57.68l2.51-2.91H172.3l-2.39,2.75-2.1-2.75h-3.74v.71h.16a2.48,2.48,0,0,1,2.35,1.35l1.53,2-2.5,2.89h2.58l1.12-1.29,2.41,3.2h2.9l-4.59-6Z" style="fill: #241f21"/>
  <polygon points="177.26 52.01 174.68 52.01 177.8 48.39 180.38 48.39 177.26 52.01" style="fill: #e40428"/>
</svg>
