<svg xmlns="http://www.w3.org/2000/svg" viewBox="0 0 307.72 127"><defs><style>.a{fill:#fff;}.b{fill:#ed1b34;}</style></defs><title>hitachi_logo</title><path class="a" d="M218.2,26.19V41.4h20.36c0,.05,0-15.21,0-15.21h10.08s0,38,0,38H238.56V47.49c0,.05-20.36,0-20.36,0s0,16.75,0,16.74H208.12s.06-38,0-38Z"/><path class="a" d="M122.57,26.19v6.47H107.17V64.23H97.09V32.66H81.68s0-6.47,0-6.47Z"/><path class="a" d="M161.74,64.23H150.52s-3.3-8.18-3.3-8.18H128.34s-3.24,8.19-3.3,8.18H113.82l17.77-38s12.36,0,12.36,0Zm-24-31.57-7,17.3h14l-7-17.3"/><rect class="a" x="256.61" y="26.19" width="10.08" height="38.04"/><path class="a" d="M29.59,26.19s0,15.32,0,15.21H49.93c0,.05,0-15.21,0-15.21H60s0,38,0,38H49.93V47.49c0,.05-20.34,0-20.34,0s0,16.75,0,16.74H19.51s.06-38,0-38Z"/><rect class="a" x="68.01" y="26.19" width="10.07" height="38.04"/><path class="a" d="M161.38,53.69a24.57,24.57,0,0,1-1.36-8.1,21.51,21.51,0,0,1,2.63-11.08,17,17,0,0,1,8.65-7.24,31.62,31.62,0,0,1,23.88.66,12.29,12.29,0,0,1,7.19,8.79,20.39,20.39,0,0,1,.36,2.4H192.15a9.31,9.31,0,0,0-.55-2.93,7.33,7.33,0,0,0-4.72-4.4,15,15,0,0,0-9.4.2,9.06,9.06,0,0,0-5.5,5.58,24.1,24.1,0,0,0-1.39,8,24.67,24.67,0,0,0,1,6.68,9,9,0,0,0,5.5,6,15.37,15.37,0,0,0,5.41,1,15.13,15.13,0,0,0,4.66-.73,7.25,7.25,0,0,0,4.4-3.95,10,10,0,0,0,.83-4.09H203a19.31,19.31,0,0,1-.51,3.61,12.21,12.21,0,0,1-7,8.39,33.35,33.35,0,0,1-13,2.64,34.16,34.16,0,0,1-10.22-1.57C167.32,62,163.07,58.51,161.38,53.69Z"/><path class="a" d="M10.49,74.87l-9,.82V77l.28,0c3.61.43,3.61.43,3.61,3v18.8h5.43v-24Z"/><path class="a" d="M29.53,82a7.55,7.55,0,0,0-6.26,3.63V81.93l-.37.06-7.29,1.14V84.4h.32c2.3.07,2.81.55,2.81,2.72V98.89h4.53V90.23c0-2.31,2.17-5.28,4.47-5.28S30,86.76,30,89.72v9.17h4.54V87.12C34.57,83.81,32.77,82,29.53,82Z"/><path class="a" d="M47.28,88.55c-1.78-.88-3.33-1.64-3.33-2.87,0-1.4,1.69-1.55,2.4-1.55a8.45,8.45,0,0,1,4.26,1.46l.71.43v-3.4l-.56-.12A18.82,18.82,0,0,0,46.63,82c-4.27,0-6.83,1.83-6.83,4.9,0,2.76,2.66,4.05,5,5.2,1.83.89,3.55,1.73,3.55,3.06s-1.1,2-3,2a9.75,9.75,0,0,1-5-1.73l-.49-.29v3.5l.34.07a20.67,20.67,0,0,0,5,.62c4.59,0,7.33-1.89,7.33-5S49.72,89.75,47.28,88.55Z"/><path class="a" d="M67.24,82a6.66,6.66,0,0,0-4.78,2.34v-2.4l-.37.06-7.25,1.14v1.27h.31c2.27.07,2.73.53,2.73,2.72v18.74h4.54V97.32a5.54,5.54,0,0,0,4.66,2c4.75,0,7.26-3.08,7.26-8.9C74.34,85,71.75,82,67.24,82Zm-1.29,2.49c3.1,0,3.46,3.37,3.46,5.9,0,4.31-1.12,6.4-3.42,6.4-2.95,0-3.57-2.76-3.57-5.07V90.3C62.42,88.55,62.76,84.47,65.94,84.47Z"/><path class="a" d="M77.51,83.12v1.27h.31c2.24.07,2.7.53,2.7,2.72V98.89h4.54v-17l-.37.06Z"/><path class="a" d="M82.82,79.92a2.69,2.69,0,0,0,2.85-2.48,2.82,2.82,0,0,0-5.59,0A2.62,2.62,0,0,0,82.82,79.92Z"/><path class="a" d="M104.06,85.72V82.19l-.27,0a14.37,14.37,0,0,0-2.15-.17A5.17,5.17,0,0,0,97,85.33V81.93l-.37.06L89.4,83.12V84.4h.31c2.29.07,2.76.53,2.76,2.72V98.89H97V90.41c0-1.43.47-4.77,4.74-4.77a5.81,5.81,0,0,1,1.58.31l.74.2Z"/><path class="a" d="M122,88.83c0-4.55-2.53-6.85-7.53-6.85-5.64,0-8.5,2.71-8.5,8.08,0,5.76,3.69,9.21,9.87,9.21a17.63,17.63,0,0,0,5.55-.93l.27-.08v-2.2l-.43.16a11,11,0,0,1-3.55.56c-4.84,0-6.66-4-6.76-7.63H122Zm-7.68-5c2.43,0,3.06,1.76,3.13,3.36h-6.54A3.43,3.43,0,0,1,114.33,83.78Z"/><path class="a" d="M163.4,82a7.22,7.22,0,0,0-6.22,3.62V74.28l-.36,0-7.22.89v1.27h.32c2.24.1,2.72.59,2.72,2.79v19.6h4.54V90.44c0-3.08,2.3-5.49,4.28-5.49,2.53,0,2.53,1.9,2.53,3.57V98.89h4.54V88C168.52,86.2,168.52,82,163.4,82Z"/><path class="a" d="M188.93,88.83c0-4.55-2.54-6.85-7.52-6.85-5.65,0-8.51,2.71-8.51,8.08,0,5.76,3.68,9.21,9.87,9.21a17.61,17.61,0,0,0,5.54-.93l.26-.08v-2.2l-.43.16a10.94,10.94,0,0,1-3.55.56c-4.85,0-6.66-4-6.76-7.63h11.1Zm-7.69-5c2.44,0,3.06,1.76,3.14,3.36h-6.53A3.42,3.42,0,0,1,181.23,83.78Z"/><path class="a" d="M138,77.22v5.14h-3v2h3V94.55c0,4.38,2.82,4.73,6.24,4.73a16.51,16.51,0,0,0,2.66-.28l.27,0v-2l-.39.09a6.73,6.73,0,0,1-1.37.13c-2.73,0-2.87-.81-2.87-3.13V84.37h5.1v-2h-5.1V77.22Z"/><path class="a" d="M227.3,75.24h-4.55v18l-11.85-18H200.42V76.6l.89.15c2.77.47,3,.51,3,3.2V98.89h4.87V80.08c1,1.42,12.44,18.81,12.44,18.81h6V75.24Z"/><path class="a" d="M247.93,88.84c0-4.55-2.54-6.85-7.53-6.85-5.64,0-8.5,2.71-8.5,8.07,0,5.76,3.69,9.21,9.87,9.21a17.73,17.73,0,0,0,5.55-.93l.26-.08v-2.2l-.43.16a11.39,11.39,0,0,1-3.56.56c-4.85,0-6.66-4-6.76-7.63h11.09Zm-7.69-5c2.44,0,3.06,1.75,3.14,3.36h-6.53A3.42,3.42,0,0,1,240.24,83.8Z"/><path class="a" d="M273,77.22v5.15h-3v2h3V94.55c0,4.38,2.83,4.73,6.24,4.73a16.46,16.46,0,0,0,2.66-.28l.27,0v-2l-.39.09a6.8,6.8,0,0,1-1.37.13c-2.73,0-2.87-.81-2.87-3.13V84.37h5.1v-2h-5.1V77.22Z"/><path class="a" d="M263.82,87.76l4.67-5.4h-4.79l-4.43,5.12-3.91-5.11H248.4v1.31l.29,0c2.37.16,2.9.58,4.36,2.5L255.91,90l-4.64,5.37h4.8L258.14,93l4.48,5.95H268l-8.53-11.15Z"/><polygon class="b" points="272.91 77.22 268.11 77.22 273.92 70.51 278.71 70.51 272.91 77.22"/></svg>