<svg id="Layer_1" data-name="Layer 1" xmlns="http://www.w3.org/2000/svg" xmlns:xlink="http://www.w3.org/1999/xlink" viewBox="0 0 1615.75 617.95">
  <defs>
    <linearGradient id="linear-gradient" x1="338.17" y1="362.18" x2="1614.92" y2="362.18" gradientUnits="userSpaceOnUse">
      <stop offset="0" stop-color="#fff"/>
      <stop offset="1" stop-color="#ccc"/>
    </linearGradient>
  </defs>
  <title>migrtion_1</title>
  <line x1="323.02" y1="40.44" x2="323.02" y2="557.94" style="fill: none;stroke: gray;stroke-miterlimit: 10"/>
  <rect x="338.17" y="184.94" width="1276.75" height="354.47" style="opacity: 0.5;fill: url(#linear-gradient)"/>
  <line x1="753.02" y1="40.44" x2="753.02" y2="557.94" style="fill: none;stroke: gray;stroke-miterlimit: 10"/>
  <line x1="1245.02" y1="40.44" x2="1245.02" y2="557.94" style="fill: none;stroke: gray;stroke-miterlimit: 10"/>
  <rect x="338.17" y="264.94" width="334" height="181" style="fill: #1167a6"/>
  <text transform="translate(432.97 364.08)" style="font-size: 26px;fill: #fff;font-family: OpenSans, Open Sans">You are here</text>
  <line x1="0.42" y1="171.44" x2="1614.31" y2="171.44" style="fill: none;stroke: gray;stroke-miterlimit: 10"/>
  <line x1="0.95" y1="558.44" x2="1614.85" y2="558.44" style="fill: none;stroke: gray;stroke-miterlimit: 10"/>
  <g>
    <line x1="683.87" y1="355.04" x2="714.28" y2="355.04" style="fill: none;stroke: #c1272d;stroke-miterlimit: 10;stroke-width: 7px"/>
    <polygon points="749.37 355.04 699.93 375.25 711.66 355.04 699.93 334.84 749.37 355.04" style="fill: #c1272d"/>
  </g>
  <text transform="translate(780.87 226.26)" style="font-size: 26px;font-family: OpenSans, Open Sans">Ability to scalable Digital <tspan x="0" y="30">Transformation initiatives – move </tspan><tspan x="0" y="60">beyond POC’s </tspan><tspan x="0" y="114">Competitive advantage through the </tspan><tspan x="0" y="144">use of new digital innovation </tspan><tspan x="0" y="174">services</tspan><tspan x="0" y="228">Improved market responsiveness as </tspan><tspan x="0" y="258">information fows are increased </tspan><tspan x="0" y="288">across the organisation</tspan></text>
  <text transform="translate(1302.87 320.22)" style="font-size: 26px;font-family: OpenSans, Open Sans">Additional benefts <tspan x="0" y="30">gained at the cloud </tspan><tspan x="0" y="60">mastery level </tspan></text>
  <text transform="translate(60.97 308.5)" style="font-size: 31px;font-family: Helvetica">Cloud Migration<tspan x="6.81" y="37.2">and</tspan><tspan x="58.53" y="37.2" style="letter-spacing: -0.0546875em"> </tspan><tspan x="65.45" y="37.2">Application</tspan><tspan x="22.39" y="74.4">Modernization</tspan></text>
  <path d="M398.44,84c-.53,0-1.05.15-1.36,0s-.89,0-1.24-.19a2.77,2.77,0,0,0-1.35-.22,4.76,4.76,0,0,0-2.18.24,10.44,10.44,0,0,0-4.66,1.42,24,24,0,0,0-2.51,1.75,12.51,12.51,0,0,0-2.3,2.48A13.71,13.71,0,0,0,381,93a5.87,5.87,0,0,0-.52,2.36,20.92,20.92,0,0,0,.17,4.25,14.83,14.83,0,0,0,1.08,3.32,13.26,13.26,0,0,0,3.61,4.5,7.74,7.74,0,0,0,1.54,1.17c.58.25,1.09.6,1.67.85a14.51,14.51,0,0,0,5.81,1.27q21,.06,42,0a10.61,10.61,0,0,0,2.76-.27,13.41,13.41,0,0,0,1.43-.29,21.69,21.69,0,0,0,4.06-1.74c.5-.32,1-.7,1.49-1a8.46,8.46,0,0,0,1-.84c.32-.26.69-.47,1-.76s.43-.62.69-.88a10.75,10.75,0,0,0,1.86-2.65A10.45,10.45,0,0,0,452.08,98c.46-.42,0-1,.27-1.41a2.08,2.08,0,0,0,.19-1.45c0-1-.13-2-.23-3.07,0-.13-.16-.25-.18-.39a17.45,17.45,0,0,0-.95-2.89,15,15,0,0,0-1-2c-.39-.72-1-1.3-1.48-2a14.29,14.29,0,0,0-2.2-2.13,7.57,7.57,0,0,0-.63-.49,15.17,15.17,0,0,0-3.41-1.84c-.65-.26-1.32-.5-2-.7a11.46,11.46,0,0,0-2.28-.27,5,5,0,0,1-.77-.15,2.81,2.81,0,0,0-2,.11c-.42-1-.54-2.1-1-3.11a22.64,22.64,0,0,0-2.15-3.93A21.47,21.47,0,0,0,430,69.82a17.23,17.23,0,0,0-5.71-3.75,20.3,20.3,0,0,0-6.9-1.51,4,4,0,0,0-2,.16,13.71,13.71,0,0,1-2,.25,19.1,19.1,0,0,0-11.33,6.86,10.91,10.91,0,0,0-.82,1.19,18.51,18.51,0,0,0-1.75,3.4,13.55,13.55,0,0,0-.85,2.81,9.6,9.6,0,0,0-.29,2.83.51.51,0,0,1-.14.37c.08.65.13,1.08.19,1.54m37.86-6.36a30.19,30.19,0,0,1,5.56,1,28.16,28.16,0,0,1,3.32,1.5,16.26,16.26,0,0,1,4.23,3.29A16.51,16.51,0,0,1,453.24,90a6.91,6.91,0,0,1,.52,3.19A5.79,5.79,0,0,1,454,95.6c0,.57-.32,1.07-.27,1.66a3.68,3.68,0,0,1-.26,1.64c-.22.56-.26,1.14-.48,1.68s-.44,1-.67,1.49a11,11,0,0,1-.73,1.46,19.15,19.15,0,0,1-3.78,4.44,18.5,18.5,0,0,1-4.88,2.89,13.06,13.06,0,0,1-3.12.84c-1.1.14-2.18.41-3.28.44s-2.32,0-3.48,0q-19.4,0-38.81,0a11.42,11.42,0,0,1-1.57-.24,5.29,5.29,0,0,1-1.71-.22c-.46-.21-1.11-.06-1.55-.3a24.88,24.88,0,0,1-3.47-1.72,29,29,0,0,1-2.69-2.14,13.85,13.85,0,0,1-4-7.64,15.38,15.38,0,0,1-.19-4.83,9.46,9.46,0,0,1,.66-2.53,18.82,18.82,0,0,1,1.05-2.39,14.56,14.56,0,0,1,4.19-4.86,28.33,28.33,0,0,1,4.48-2.46,11.34,11.34,0,0,0,2.08-.45,25.22,25.22,0,0,1,2.89-.25,2.56,2.56,0,0,1,1.35.2,3.29,3.29,0,0,0,1.23,0c0-.4,0-.74,0-1.09a14.6,14.6,0,0,1,.55-3.29,17.15,17.15,0,0,1,1.85-4.53,15.16,15.16,0,0,1,2.53-3.54l1.78-1.74a12.11,12.11,0,0,1,3.24-2.24c.93-.46,1.82-1,2.77-1.38a13.45,13.45,0,0,1,2.34-.71,22.07,22.07,0,0,1,3.27-.53,15.47,15.47,0,0,1,2.06-.17,16.28,16.28,0,0,1,1.69.22,4.25,4.25,0,0,1,1.6.2,7.37,7.37,0,0,0,1.68.28,9.29,9.29,0,0,1,1.47.46,20.63,20.63,0,0,1,4.9,2.57,17.18,17.18,0,0,1,2.66,2.18c1.1,1.26,2.39,2.42,3,4a2.42,2.42,0,0,1,.9,1.39,17.61,17.61,0,0,1,1.05,3.12" style="fill: #1167a6"/>
  <g>
    <path d="M820.29,78.83c-.34-.44-.88-.06-1.28-.38s-.85,0-1.23-.26h-4.64a23.94,23.94,0,0,1-2.56.64,16,16,0,0,0-2.41,1,14.5,14.5,0,0,0-4.48,3.36,18.21,18.21,0,0,0-2.39,3.29,28.42,28.42,0,0,1-1.3,2.86,16.9,16.9,0,0,1-.53,2.62,14.54,14.54,0,0,0-.16,3.08,14.36,14.36,0,0,0,1.2,5.27c.15.35.23.74.41,1.07a15.21,15.21,0,0,0,2.87,4,13.06,13.06,0,0,0,2.48,2.22,13.77,13.77,0,0,0,3,1.56c.66.2,1.29.52,2,.71s1.31.29,2,.43a23.59,23.59,0,0,0,4.44.19c1.47,0,2.94,0,4.47,0v1.58H819c-1.17,0-2.34,0-3.51,0A17.28,17.28,0,0,1,807,110a15.19,15.19,0,0,1-3.07-2.16c-.34-.32-.76-.55-1.09-.89a19.08,19.08,0,0,1-1.51-1.73,19.46,19.46,0,0,1-2.23-3.82,15.65,15.65,0,0,1-1-3,16.44,16.44,0,0,1-.43-2.87,18.27,18.27,0,0,1,0-3c.11-.94.32-1.88.52-2.82a16.81,16.81,0,0,1,1.11-3,15.54,15.54,0,0,1,1.73-2.9,20.65,20.65,0,0,1,3.56-3.62,25.13,25.13,0,0,0,2.46-1.72C808.43,78,809.6,77.29,811,77c.92-.18,1.84-.31,2.75-.49a9.8,9.8,0,0,1,2.85-.12c.68.07,1.37.17,2.14.18,0-.16,0-.34,0-.51a5.18,5.18,0,0,1,.2-1.73c.21-.46-.12-1.09.26-1.59.28-2.75,1.52-5.16,2.74-7.57a24,24,0,0,1,1.8-2.54A16.86,16.86,0,0,1,826,60.21a23.07,23.07,0,0,1,6.54-4.42,24.38,24.38,0,0,1,4.07-1.38c.43-.12.92,0,1.24-.24s.82-.06,1.17-.2a8.13,8.13,0,0,1,2.86-.21,15.91,15.91,0,0,1,2.93,0A26.85,26.85,0,0,1,850,55a26.18,26.18,0,0,1,3.63,1.61,30,30,0,0,1,3.3,2.14,16.35,16.35,0,0,1,2.37,2.18,28.17,28.17,0,0,1,3.4,4.58,33.34,33.34,0,0,1,2.24,5.18,1.6,1.6,0,0,1,0,.5,10.71,10.71,0,0,1,1.14,0c.54.06,1.1-.17,1.64.15s1-.14,1.46.3a17.9,17.9,0,0,1,6.18,2.28,12,12,0,0,1,2.95,2.16c.25.28.62.38.82.77a4.47,4.47,0,0,0,.93,1,9,9,0,0,1,.87.88c.58.78,1.12,1.57,1.65,2.37a11,11,0,0,1,.9,1.55,20.77,20.77,0,0,1,1.38,3.85c.19.79.29,1.61.48,2.4a28.22,28.22,0,0,1,.2,4,4.87,4.87,0,0,1-.24,1.38c-.08.42.21.9-.22,1.26a11.37,11.37,0,0,1-.89,3.48,22.89,22.89,0,0,1-1.28,2.75,15,15,0,0,0-.85,1.34c-.17.52-.69.72-.86,1.23-.1.32-.51.54-.76.82-.44.49-.81,1-1.29,1.49a28.58,28.58,0,0,1-2.38,1.89,22.07,22.07,0,0,1-3.49,2,19.39,19.39,0,0,1-3,1,6.48,6.48,0,0,0-1.41.41c-.4.2-1-.17-1.38.24-.1.09-.36,0-.55,0h-5.82v-1.58c1.32,0,2.63,0,3.94,0a14.88,14.88,0,0,0,4.11-.48,16.84,16.84,0,0,0,4.7-1.77,18.15,18.15,0,0,0,3.92-2.82,20.93,20.93,0,0,0,3-3.4,19.15,19.15,0,0,0,2.5-5.76c.21-.91.36-1.82.48-2.75a9.55,9.55,0,0,0,.17-2.06,21.34,21.34,0,0,0-1.49-7.07,22.86,22.86,0,0,0-2.51-4.28,21,21,0,0,0-2.25-2.45,15.82,15.82,0,0,0-3-2.25,15.17,15.17,0,0,0-4.31-1.89,24,24,0,0,0-2.82-.62,38.82,38.82,0,0,0-4-.2,5.54,5.54,0,0,0-.49-2.37,12.16,12.16,0,0,0-.88-2.23A21.85,21.85,0,0,0,861.06,66c-.41-.66-.91-1.27-1.32-1.94s-1.2-1.23-1.66-1.92-1.25-1.08-1.79-1.71a7.23,7.23,0,0,0-2-1.48c-.71-.4-1.37-.87-2.09-1.25a19.57,19.57,0,0,0-2.19-1,8.31,8.31,0,0,0-2.2-.66,22.87,22.87,0,0,0-2.41-.49c-.84,0-1.65-.3-2.51-.24s-1.75-.09-2.6,0a23.17,23.17,0,0,0-8,2.41c-2.43,1.38-3,1.46-6.61,5.26a19.6,19.6,0,0,0-4.17,7.2,23.11,23.11,0,0,0-1.2,8.6" style="fill: #1167a6"/>
    <path d="M828.26,93a4.68,4.68,0,0,0-1.62-3.23,3.53,3.53,0,0,0-2.53-.94,4.17,4.17,0,0,0-3,1.51,5.2,5.2,0,0,0-1,2.52,5.38,5.38,0,0,0,1.19,2.87A5.52,5.52,0,0,0,824.2,97a5.12,5.12,0,0,0,2.09-.69A4,4,0,0,0,828,94.42a7.58,7.58,0,0,0,.31-1.39m-3.85,5.52a5.66,5.66,0,0,1-4.21-1.63,5.26,5.26,0,0,1-1.65-4,5.65,5.65,0,1,1,11.3.07,5.61,5.61,0,0,1-5.44,5.6" style="fill: #1167a6"/>
    <path d="M839.64,96.48c.22,0,.4.06.58.11a3.94,3.94,0,0,0,1.31.37,5.29,5.29,0,0,0,2.8-1.13,6.86,6.86,0,0,0,1.12-1.73,4.07,4.07,0,0,0,.2-1.48,4.41,4.41,0,0,0-1.6-2.83,3.7,3.7,0,0,0-3.84-.6,4.23,4.23,0,0,0-2.35,2.38,2.41,2.41,0,0,0-.31,1.67,5,5,0,0,0,.69,1.86c.44.53,1,.85,1.4,1.38M846.5,90c.09.29.14.5.22.69a4.85,4.85,0,0,1,.22,4,5.46,5.46,0,0,1-3.32,3.52,3.22,3.22,0,0,1-1.66.34c-.53-.07-1.11.21-1.6-.22a4.92,4.92,0,0,1-3.75-2.84,5.13,5.13,0,0,1-.37-4.34,5,5,0,0,1,2.3-3,8.27,8.27,0,0,1,1.4-.69,5.79,5.79,0,0,1,4.89.81c.69.45,1,1.19,1.67,1.68" style="fill: #1167a6"/>
    <path d="M862.88,91.76l-.55-1.12c-.15-.15-.35-.32-.52-.52a4.54,4.54,0,0,0-2.55-1.23c-.44-.13-.67.11-1,.16a3.91,3.91,0,0,0-2.85,2,3.6,3.6,0,0,0-.24,2.89,4.22,4.22,0,0,0,4,3,3.14,3.14,0,0,0,2-.7,3.39,3.39,0,0,0,1.77-3.07c0-.49,0-1,0-1.42m-4,6.8a5.65,5.65,0,0,1-5.57-6,5.65,5.65,0,0,1,5.6-5.35,5.74,5.74,0,0,1,5.72,5.66,5.6,5.6,0,0,1-1.7,4,5.4,5.4,0,0,1-4.05,1.64" style="fill: #1167a6"/>
    <path d="M844.78,104.3v.9c-.31.52-.8.32-1.39.37l-.88-1.07v1.29q0,7.13,0,14.25a2.12,2.12,0,0,1-.33,1.34h-1.13c-.44-.37-.36-.9-.36-1.4V104.85l-.75.76c-.66-.11-1.15.15-1.49-.42v-.84l3.13-3.13a13.16,13.16,0,0,1,1.59,1.5c.55.52,1.07,1.06,1.6,1.58" style="fill: #1167a6"/>
    <path d="M825.13,121l-.37.36h-.94l-.55-.64V104.83l-.85.85-.14-.13h-.95l-.3-.37v-.78l3.15-3.14h0a.15.15,0,0,1,.1,0c1,1,2,2,3,3v.92l-.33.33h-1.09l-.8-.93Z" style="fill: #1167a6"/>
    <path d="M859.94,120.89l-1,.7-.81-.47V104.7c-.3,0-.37.24-.51.35s-.33.32-.5.48h-1l-.29-.29v-.91l3.05-3.07a16.89,16.89,0,0,1,3.26,3.28v.68l-.33.33h-1l-.91-.94v3.32c0,.53,0,1.06,0,1.59s.21,1.11-.2,1.59c.44.45.15,1,.2,1.5s0,1.06,0,1.58v6.7Z" style="fill: #1167a6"/>
    <path d="M857,112.1H843.69v-1.46c.93-.16,9.72-.21,13.27-.07Z" style="fill: #1167a6"/>
    <rect x="826.28" y="110.57" width="13.27" height="1.51" style="fill: #1167a6"/>
  </g>
  <g>
    <path d="M1324.32,106.18H1284.5c0,1.06,0,2.08,0,3.1a11.82,11.82,0,0,0,.08,1.84,8.65,8.65,0,0,0,2.67,4.08,7.78,7.78,0,0,0,3.52,1.31q13.51,0,27,0a5.11,5.11,0,0,0,1.94-.37,8.57,8.57,0,0,0,2.75-1.84,10.55,10.55,0,0,0,1.51-2.75,3.61,3.61,0,0,0,.3-1.55c0-1.25,0-2.51,0-3.81M1284.5,87h39.82c0-1.39.07-2.75,0-4.09a7.12,7.12,0,0,0-.93-2.82,6.11,6.11,0,0,0-2.45-2.46,6.31,6.31,0,0,0-3.25-1c-2.57.06-5.14,0-7.71,0H1291a6.43,6.43,0,0,0-3.23,1,7.44,7.44,0,0,0-2,1.84,5.13,5.13,0,0,0-1.29,3.66c.07,1.25,0,2.51,0,3.82m34.4-12.31a1,1,0,0,0,.09-.28c0-3.17,0-6.35,0-9.52a9.86,9.86,0,0,0-.39-2.21,15.42,15.42,0,0,0-1.29-3.24,14.2,14.2,0,0,0-2.67-3.48c-.54-.53-1.2-1-1.74-1.51a1.9,1.9,0,0,0-.34-.2,19.59,19.59,0,0,0-2.78-1.41,15,15,0,0,0-4.44-1.08c-2.4-.18-2.34,0-5.39.81a13.06,13.06,0,0,0-5.66,3.26A17.2,17.2,0,0,0,1291.7,59a23.1,23.1,0,0,0-1.86,4.54c-.12,1.18-.25,2.35-.28,3.53,0,1.86,0,3.73,0,5.6v2Zm5.4,14.37h-39.75c-.17,4-.11,13.93.09,15h39.66Zm-36.43-13.66c0-3.33,0-6.65,0-10a12.68,12.68,0,0,1,.64-4,13.07,13.07,0,0,1,2.07-4.18,18.52,18.52,0,0,1,2.11-2.61,18.2,18.2,0,0,1,5.51-3.59c.81-.3,1.64-.54,2.48-.77a18.58,18.58,0,0,1,6-.23,11.27,11.27,0,0,1,3.77,1c1,.44,1.92,1,2.89,1.47a6.34,6.34,0,0,1,1.52,1.07,17.27,17.27,0,0,1,4.76,6.42,27.37,27.37,0,0,1,1.06,3.63,24,24,0,0,1,.24,5.22c0,1.73,0,3.45,0,5.18v1.24c.91.64,1.83,1.25,2.69,1.93a11.57,11.57,0,0,1,2.27,3.67,9,9,0,0,1,.36,2.23c0,8.92,0,17.84,0,26.76a9.66,9.66,0,0,1-1.59,4.66c-1.05,1.88-3,2.6-4.7,3.52a4.38,4.38,0,0,1-2,.31c-9.06,0-18.13.06-27.19,0a7.69,7.69,0,0,1-5.38-2.23,10.19,10.19,0,0,1-2.25-3.13,6.16,6.16,0,0,1-.65-2.54q0-13.94,0-27.88a7,7,0,0,1,1.09-3.33,9.17,9.17,0,0,1,4.23-3.9" style="fill: #1167a6"/>
    <path d="M1350.2,117.07a2.37,2.37,0,0,1,0-1.68h-8.64a2.32,2.32,0,0,1-.1,1.68h8.7" style="fill: #1167a6"/>
    <path d="M1372.48,113.64l-.62.33a18,18,0,0,0-2.55.66,21.24,21.24,0,0,1-2.45.49c-.89,0-1.79.26-2.68.26H1356a2.34,2.34,0,0,1-.1,1.69h7.91a28.31,28.31,0,0,0,6.53-.79,19.19,19.19,0,0,0,3.23-1.1,2.08,2.08,0,0,1-1.06-1.55" style="fill: #1167a6"/>
    <path d="M1335.69,115.39h-8.88c-.44.53-.77.94-1.1,1.35,0,.19,0,.37,0,.57a2.46,2.46,0,0,1,1.58-.23h8.31a2.32,2.32,0,0,1,0-1.68" style="fill: #1167a6"/>
    <path d="M1331.53,54.22a25.89,25.89,0,0,1,3.59-.81,30.77,30.77,0,0,1,3.81-.27,16.69,16.69,0,0,1,3.81.36,18.27,18.27,0,0,1,3.57.81,24.39,24.39,0,0,1,3.35,1.39,30.51,30.51,0,0,1,3.11,1.95c1,.74,2,1.56,2.94,2.37a16.13,16.13,0,0,1,2.53,2.88,25.94,25.94,0,0,1,2,3.09c.57,1.06.91,2.24,1.42,3.33s.66,2.34,1.16,3.43c1.47.15,3-.17,4.39.29.45.14.94.12,1.43.26a14.72,14.72,0,0,1,1.55.32,24.48,24.48,0,0,1,4.61,2.08c1,.66,2,1.38,2.94,2.06l.57.43a1.86,1.86,0,0,1,1.21-1.36,7.14,7.14,0,0,0-.55-.55c-.54-.45-1.13-.85-1.72-1.25a23.45,23.45,0,0,0-4.45-2.44,20.51,20.51,0,0,0-5.14-1.43c-1.15-.16-2.33-.26-3.48-.42-.56-1.28-.86-2.64-1.44-3.9a26.9,26.9,0,0,0-7.94-10,31,31,0,0,0-4-2.54,29.08,29.08,0,0,0-5.33-2.05,52.14,52.14,0,0,0-6.29-1,4.43,4.43,0,0,0-1.26,0,8.39,8.39,0,0,1-1.29.25,15.43,15.43,0,0,0-4.11.56,26.78,26.78,0,0,0-5.41,1.85,21.27,21.27,0,0,0-2.4,1.29,17.73,17.73,0,0,0-3.48,2.62,1.9,1.9,0,0,0,.6,1.73c1.09-.74,2.16-1.38,3.13-2.16a16.07,16.07,0,0,1,3.14-1.91,33,33,0,0,1,3.42-1.22" style="fill: #1167a6"/>
    <path d="M1316.75,66.4a31.73,31.73,0,0,0-2.35,6h-1.85a27.85,27.85,0,0,1,3.75-9.06c.45.7.45.7.45,3" style="fill: #1167a6"/>
    <path d="M1384.2,118.22c.66-.48,1.19-.88,1.74-1.26s1-.69,1.48-1.08.78-.74,1.21-1a14.22,14.22,0,0,0,1.84-1.51c1-1.08,2.17-2.09,3.13-3.27.75-.91,1.48-1.83,2.2-2.76a38.11,38.11,0,0,0,3.23-5.25c.29-.53.45-1.1.71-1.63s.49-1,.72-1.53c0-.1,0-.23,0-.4h-9.82a4.29,4.29,0,0,1-1.84-.25l-.26-.51L1389,97h12.12c.22-.78.47-1.51.62-2.27s.28-1.47.43-2.2a9.28,9.28,0,0,0,.31-2.34c.48-.73.07-1.56.27-2.35a14.06,14.06,0,0,0,.11-2.44,19.46,19.46,0,0,0-.21-2.3c0-.79-.13-1.58-.21-2.32h-18.27v2.68c0,.91,0,1.83,0,2.74a11.89,11.89,0,0,1-.11,2.59h11.24l.58.44c.11.47-.25.62-.5.89h-11.21v9.18c0,1,0,2,0,3a12.81,12.81,0,0,1-.11,3h5.54l.5.55-.33.77h-5.56Zm-1.52,0V80.78h-18.29c0,.26.08.51,0,.67a2.84,2.84,0,0,0-.16,1.49,14.25,14.25,0,0,0-.21,1.48c.12,1.53-.17,3.07.2,4.59a8.62,8.62,0,0,0,.22,2.48,19.62,19.62,0,0,0,.52,2.71c.15.6.35,1.19.51,1.79a41.39,41.39,0,0,0,1.32,3.94,13.57,13.57,0,0,0,1,2.22,16.6,16.6,0,0,0,1.71,2.87,27.07,27.07,0,0,0,4.17,5.58c1,1.12,2.09,2.14,3.16,3.18a14.14,14.14,0,0,0,1.55,1.35l2,1.43,2.31,1.66m-19.57-38a1.28,1.28,0,0,1,1.39-.95h38.44a1.49,1.49,0,0,1,.83,1.48c0,.4.12.8.18,1.2s-.11.77.17,1.13c.09.11,0,.35,0,.54,0,1.55,0,3.11,0,4.67a13,13,0,0,1-.17,1.38,5.38,5.38,0,0,1-.15,1.31,9.93,9.93,0,0,0-.22,1.65c-.17.9-.37,1.8-.59,2.69s-.46,1.64-.69,2.46c0,.08,0,.21,0,.26a7.69,7.69,0,0,0-.89,2.11,46.85,46.85,0,0,1-2.1,4.34,29.51,29.51,0,0,1-1.93,3.05,21.74,21.74,0,0,1-1.8,2.37c-.34.37-.62.8-1,1.14a8,8,0,0,0-1,1,13.41,13.41,0,0,1-2.14,2.12c-.7.56-1.27,1.27-2,1.8-.91.68-1.77,1.42-2.71,2.06s-1.9,1.33-2.87,2H1383c-.72-.5-1.39-1-2.1-1.45-.94-.59-1.77-1.33-2.68-2s-1.73-1.49-2.66-2.17a14.85,14.85,0,0,1-1.5-1.47,48.17,48.17,0,0,1-3.39-3.89,41.43,41.43,0,0,1-2.48-3.47,29.86,29.86,0,0,1-1.8-3.28,33.29,33.29,0,0,1-2.14-5.43,14.3,14.3,0,0,1-.8-3.42c-.27-.34-.07-.78-.21-1.11a3.37,3.37,0,0,1-.16-1.12,3.84,3.84,0,0,1-.19-1,1.31,1.31,0,0,0-.16-.94c-.09-.13,0-.36,0-.54,0-1.86,0-3.73,0-5.59a7.13,7.13,0,0,1,.18-1.11c.06-.37-.12-.75.16-1.13.14-.21,0-.59,0-.78" style="fill: #1167a6"/>
    <path d="M1336.66,101.18a5.56,5.56,0,0,1,.56.11,3.94,3.94,0,0,0,1.27.36,5.11,5.11,0,0,0,2.71-1.1,6.66,6.66,0,0,0,1.08-1.67,3.64,3.64,0,0,0,.2-1.43,4.3,4.3,0,0,0-1.55-2.74,3.6,3.6,0,0,0-3.72-.59,4.14,4.14,0,0,0-2.28,2.31,2.29,2.29,0,0,0-.29,1.61,4.89,4.89,0,0,0,.66,1.81,17.22,17.22,0,0,1,1.36,1.33m6.64-6.31a5.05,5.05,0,0,0,.22.66,4.72,4.72,0,0,1,.2,3.91,5.3,5.3,0,0,1-3.2,3.41,3.26,3.26,0,0,1-1.61.33c-.52-.07-1.08.2-1.55-.22a4.76,4.76,0,0,1-3.64-2.74,5,5,0,0,1-.35-4.21,4.79,4.79,0,0,1,2.22-2.88,7.8,7.8,0,0,1,1.36-.67,5.64,5.64,0,0,1,4.73.78c.67.44,1,1.16,1.62,1.63" style="fill: #1167a6"/>
    <path d="M1341.63,108.76v.86c-.29.51-.77.31-1.34.37l-.85-1v1.25q0,6.89,0,13.79a2.07,2.07,0,0,1-.32,1.3H1338c-.42-.36-.34-.87-.34-1.36V109.29l-.73.73c-.64-.11-1.11.15-1.44-.41v-.81l3-3a12.29,12.29,0,0,1,1.53,1.45c.53.51,1,1,1.55,1.54" style="fill: #1167a6"/>
    <path d="M1350.72,101.18a5.33,5.33,0,0,1,.55.11,4,4,0,0,0,1.27.36,5.11,5.11,0,0,0,2.72-1.1,6.66,6.66,0,0,0,1.08-1.67,4.05,4.05,0,0,0,.2-1.43,4.3,4.3,0,0,0-1.55-2.74,3.61,3.61,0,0,0-3.73-.59,4.09,4.09,0,0,0-2.27,2.31,2.35,2.35,0,0,0-.3,1.61,4.91,4.91,0,0,0,.67,1.81,17.22,17.22,0,0,1,1.36,1.33m6.63-6.31c.09.28.14.48.22.66a4.68,4.68,0,0,1,.21,3.91,5.32,5.32,0,0,1-3.21,3.41,3.26,3.26,0,0,1-1.61.33c-.51-.07-1.08.2-1.54-.22a4.74,4.74,0,0,1-3.64-2.74,5,5,0,0,1-.35-4.21,4.79,4.79,0,0,1,2.22-2.88,7.8,7.8,0,0,1,1.36-.67,5.64,5.64,0,0,1,4.73.78c.67.44,1,1.16,1.61,1.63" style="fill: #1167a6"/>
    <path d="M1355.69,108.76v.86c-.3.51-.77.31-1.35.37l-.84-1v1.25c0,4.59,0,9.19,0,13.79a2.07,2.07,0,0,1-.32,1.3h-1.09c-.43-.36-.34-.87-.34-1.36q0-6.84,0-13.68v-1l-.72.73c-.64-.11-1.12.15-1.44-.41v-.81l3-3a12.37,12.37,0,0,1,1.54,1.45c.53.51,1,1,1.55,1.54" style="fill: #1167a6"/>
    <path d="M1329.07,72.07a1.51,1.51,0,0,1,0-1.89h19c.53.77.53,1,0,1.89Z" style="fill: #1167a6"/>
    <path d="M1329.21,81.38c-.77-.67-.54-1.27-.06-1.89h26.17c.72.76.73,1,0,1.89Z" style="fill: #1167a6"/>
  </g>
  <text transform="translate(482.93 76.67)" style="font-size: 26.131669998168945px;fill: #999;font-family: Helvetica">Cloud<tspan style="font-size: 36.85363006591797px;fill!: #000"><tspan x="0" y="37.56">Starter</tspan></tspan></text>
  <text transform="translate(914.03 76.67)" style="font-size: 26.131669998168945px;fill: #999;font-family: Helvetica">Cloud<tspan style="font-size: 36.85363006591797px;fill!: #000"><tspan x="0" y="37.56">Practitioner</tspan></tspan></text>
  <text transform="translate(1445.12 76.67)" style="font-size: 26.131669998168945px;fill: #999;font-family: Helvetica">Cloud<tspan style="font-size: 36.85363006591797px;fill!: #000"><tspan x="0" y="37.56">Master</tspan></tspan></text>
</svg>
