<svg id="Layer_1" data-name="Layer 1" xmlns="http://www.w3.org/2000/svg" viewBox="0 0 600 600">
  <title>migration_icon</title>
  <g>
    <path d="M300,577.5c153.26,0,277.5-124.24,277.5-277.5S453.26,22.5,300,22.5,22.5,146.74,22.5,300,146.74,577.5,300,577.5" style="fill: #f7f6f7"/>
    <path d="M224.33,215.82c0-35.11,28.79-63.58,64.32-63.58M406,331.77c37.61,0,68.11-30.14,68.11-67.33s-30.5-67.32-68.11-67.32A68.74,68.74,0,0,0,382,201.47c-7-44.8-46.08-79.16-93.37-79.16-51.15,0-92.72,40.17-94.43,90.31a61.68,61.68,0,0,0-7.73-.54c-33.44,0-60.55,26.8-60.55,59.85s27.11,59.84,60.55,59.84h15.13" style="fill: #fff"/>
    <path d="M406,336.53V327c34.93,0,63.35-28.07,63.35-62.56S440.88,201.89,406,201.89a64,64,0,0,0-22.28,4.05l-5.46,2-.9-5.76c-6.8-43.54-44.08-75.13-88.66-75.13-48.64,0-88,37.65-89.67,85.71L198.8,218l-5.19-.66a55.85,55.85,0,0,0-7.12-.5c-30.76,0-55.78,24.71-55.78,55.08s25,55.08,55.78,55.08h15.13v9.52H186.49c-36,0-65.31-29-65.31-64.6s29.3-64.61,65.31-64.61c1,0,2.14,0,3.26.1,4.31-50.79,46.81-89.87,98.9-89.87,47.4,0,87.37,32.35,97.06,77.7A72.75,72.75,0,0,1,406,192.36c40.18,0,72.88,32.34,72.88,72.09S446.13,336.53,406,336.53ZM229.09,215.83h-9.53c0-37.69,31-68.36,69.09-68.36V157C255.81,157,229.09,183.39,229.09,215.83Z" style="fill: #2476ba"/>
    <path d="M209.19,367.62,239.46,345l30.27,22.67M239.46,345v60.47H156.22m0-15.12H126v30.24h30.27Zm234.6-22.68L360.54,345l-30.26,22.67m-60.55,60.47L300,450.77l30.27-22.68M360.54,345v60.47h83.24M254.59,254.24h90.82m-143.79-7.56v37.79H398.38V246.68M300,284.47v166.3M443.78,390.3h30.28v30.24H443.78Z" style="fill: #fff"/>
    <path d="M300,456.73l-33.14-24.82,5.72-7.63,22.65,17v-152H196.86V246.68h9.53v33H393.62v-33h9.53v42.55H304.77v152l22.65-17,5.71,7.63Zm178.82-31.42H439V410.18H355.78V354.47l-22.65,17-5.71-7.63L360.55,339l33.12,24.82L388,371.44l-22.65-17v46.18H439V385.54h39.81Zm-30.28-9.53H469.3V395.07H448.55ZM161,425.31h-39.8V385.54H161v15.11H234.7V354.47l-22.65,17-5.71-7.63L239.46,339l33.13,24.82-5.72,7.63-22.64-17v55.71H161Zm-30.27-9.53h20.74V395.07H130.71ZM345.4,259H254.59v-9.53H345.4Z" style="fill: #2476ba"/>
  </g>
</svg>
