<svg id="Layer_1" data-name="Layer 1" xmlns="http://www.w3.org/2000/svg" viewBox="0 0 2910.57 1385.98">
  <title>question1</title>
  <rect x="35.91" y="105.36" width="1378.11" height="611.68" style="fill: #ededed"/>
  <rect x="35.91" y="742.43" width="1378.11" height="611.68" style="fill: #ededed"/>
  <rect x="1445.75" y="105.36" width="1415.44" height="611.68" style="fill: #ededed"/>
  <rect x="1445.75" y="742.43" width="1415.44" height="611.68" style="fill: #ededed"/>
  <path d="M83.31,66.59H73.73L63.3,49.82l-3.56,2.56V66.59H51.3V26.8h8.44V45l3.32-4.68L73.84,26.8H83.2L69.32,44.41Zm18.12.54q-7.35,0-11.49-4T85.81,51.59q0-7.65,3.82-11.82t10.57-4.18q6.45,0,10,3.67t3.59,10.15v4H94.22A8,8,0,0,0,96.31,59a7.4,7.4,0,0,0,5.5,2,23,23,0,0,0,5.2-.57,26.05,26.05,0,0,0,5.11-1.82V65a19.11,19.11,0,0,1-4.65,1.62A29.57,29.57,0,0,1,101.43,67.13Zm-1.17-25.64a5.27,5.27,0,0,0-4.14,1.68,7.69,7.69,0,0,0-1.71,4.75h11.65a7,7,0,0,0-1.61-4.75A5.42,5.42,0,0,0,100.26,41.49Zm16-5.33h9.09l5.75,17.12a23.74,23.74,0,0,1,1,5.28h.17a23.36,23.36,0,0,1,1.17-5.28l5.63-17.12H148L135.08,70.48A14.94,14.94,0,0,1,130,77.61,12.74,12.74,0,0,1,122.37,80a19.15,19.15,0,0,1-4.22-.47V72.93a14.48,14.48,0,0,0,3.26.35,5.92,5.92,0,0,0,3.86-1.35,8.77,8.77,0,0,0,2.57-4.06l.49-1.5Zm51.22-9.36h12.38q8.46,0,12.29,2.41c2.55,1.6,3.82,4.16,3.82,7.66a9.71,9.71,0,0,1-1.67,5.85,6.72,6.72,0,0,1-4.45,2.75v.27a8.69,8.69,0,0,1,5.45,3.16A10.23,10.23,0,0,1,197,55.05,10.11,10.11,0,0,1,193,63.54q-3.93,3-10.68,3.05H167.46Zm8.43,15.76h4.9a8.94,8.94,0,0,0,5-1.07A4,4,0,0,0,187.3,38a3.52,3.52,0,0,0-1.68-3.28,10.77,10.77,0,0,0-5.29-1h-4.44Zm0,6.69V59.62h5.5a8.19,8.19,0,0,0,5.14-1.33,4.92,4.92,0,0,0,1.66-4.09q0-5-7.07-5ZM218,67.13q-7.35,0-11.49-4t-4.13-11.49q0-7.65,3.82-11.82t10.57-4.18q6.45,0,10,3.67t3.59,10.15v4H210.82A8,8,0,0,0,212.91,59a7.4,7.4,0,0,0,5.5,2,23,23,0,0,0,5.2-.57,26.05,26.05,0,0,0,5.11-1.82V65a19.11,19.11,0,0,1-4.65,1.62A29.57,29.57,0,0,1,218,67.13Zm-1.17-25.64a5.27,5.27,0,0,0-4.14,1.68A7.69,7.69,0,0,0,211,47.92h11.65a7,7,0,0,0-1.61-4.75A5.42,5.42,0,0,0,216.86,41.49Zm48.42,25.1H257V48.81a8.5,8.5,0,0,0-1.17-4.93,4.25,4.25,0,0,0-3.73-1.65,5.58,5.58,0,0,0-5,2.33q-1.55,2.32-1.55,7.71V66.59h-8.3V36.16h6.34l1.12,3.89h.46a8.72,8.72,0,0,1,3.82-3.33,12.94,12.94,0,0,1,5.54-1.13c3.54,0,6.22,1,8.06,2.87s2.74,4.68,2.74,8.29Zm22.31.54q-7.35,0-11.49-4T272,51.59q0-7.65,3.82-11.82t10.57-4.18q6.45,0,10.05,3.67T300,49.41v4H280.38A8,8,0,0,0,282.47,59a7.4,7.4,0,0,0,5.5,2,23,23,0,0,0,5.2-.57,26.28,26.28,0,0,0,5.11-1.82V65a19.11,19.11,0,0,1-4.65,1.62A29.64,29.64,0,0,1,287.59,67.13Zm-1.17-25.64a5.27,5.27,0,0,0-4.14,1.68,7.69,7.69,0,0,0-1.71,4.75h11.64a6.9,6.9,0,0,0-1.6-4.75A5.43,5.43,0,0,0,286.42,41.49Zm37.16.9h-7.19v24.2h-8.3V42.39h-4.57v-4l4.57-2.23V33.93q0-5.2,2.56-7.59c1.7-1.6,4.44-2.4,8.19-2.4a21.37,21.37,0,0,1,7.65,1.28l-2.12,6.1a15.4,15.4,0,0,0-4.63-.79,3,3,0,0,0-2.56,1,4.33,4.33,0,0,0-.79,2.68v1.91h7.19Zm8.92-10q-4.51,0-4.52-4.09t4.52-4.05q4.51,0,4.52,4.05a4,4,0,0,1-1.13,3,4.73,4.73,0,0,1-3.39,1.08Zm4.14,34.21h-8.3V36.16h8.3Zm21.51-6.07a17.83,17.83,0,0,0,5.22-1v6.18a18.56,18.56,0,0,1-7.62,1.39q-5,0-7.25-2.52c-1.52-1.68-2.28-4.19-2.28-7.55V42.39h-4V38.88l4.57-2.77,2.4-6.43h5.31v6.48H363v6.23h-8.51V57.06a3.24,3.24,0,0,0,1,2.61A3.89,3.89,0,0,0,358.15,60.52Zm32.59-3a8.37,8.37,0,0,1-3.25,7.13q-3.25,2.44-9.73,2.45a30.51,30.51,0,0,1-5.66-.45,21.46,21.46,0,0,1-4.38-1.32V58.5a28.6,28.6,0,0,0,5.21,1.83,21.1,21.1,0,0,0,5.11.73q4.51,0,4.51-2.61a2.17,2.17,0,0,0-.6-1.59,8.64,8.64,0,0,0-2.06-1.39c-1-.52-2.29-1.12-3.92-1.81a25,25,0,0,1-5.16-2.72,7.7,7.7,0,0,1-2.4-2.87,9.64,9.64,0,0,1-.74-4,7.21,7.21,0,0,1,3.14-6.27q3.15-2.22,8.91-2.22A25.41,25.41,0,0,1,390.42,38l-2.51,6c-1.52-.65-2.94-1.19-4.27-1.61a13.63,13.63,0,0,0-4.05-.62c-2.45,0-3.68.66-3.68,2a2.35,2.35,0,0,0,1.19,1.93,32.39,32.39,0,0,0,5.18,2.42,24.3,24.3,0,0,1,5.23,2.69A8.12,8.12,0,0,1,390,53.66,8.94,8.94,0,0,1,390.74,57.55Zm48.62-6.23q0,7.43-3.92,11.62t-10.91,4.19a15.26,15.26,0,0,1-7.73-1.92,12.78,12.78,0,0,1-5.15-5.51,18.6,18.6,0,0,1-1.79-8.38q0-7.45,3.89-11.6t10.94-4.13a15.35,15.35,0,0,1,7.73,1.9A12.71,12.71,0,0,1,437.56,43,18.36,18.36,0,0,1,439.36,51.32Zm-21,0c0,3,.5,5.29,1.48,6.83a5.32,5.32,0,0,0,4.84,2.31,5.2,5.2,0,0,0,4.77-2.3q1.45-2.29,1.46-6.84t-1.47-6.78a6.25,6.25,0,0,0-9.61,0Q418.32,46.78,418.32,51.32ZM463,42.39h-7.19v24.2h-8.3V42.39H443v-4l4.57-2.23V33.93c0-3.47.86-6,2.56-7.59s4.44-2.4,8.19-2.4a21.37,21.37,0,0,1,7.65,1.28l-2.12,6.1a15.35,15.35,0,0,0-4.63-.79,3,3,0,0,0-2.56,1,4.39,4.39,0,0,0-.79,2.68v1.91H463Zm44.25,24.2-2.88-9.47H489.89L487,66.59h-9.09l14-40h10.31l14.1,40ZM502.38,50q-4-12.87-4.5-14.56c-.34-1.13-.58-2-.72-2.67Q496.26,36.29,492,50Zm35.06,17.09A10.09,10.09,0,0,1,529,63.24h-.44c.29,2.54.44,4,.44,4.41V80h-8.3V36.16h6.75l1.17,4H529a9.59,9.59,0,0,1,8.63-4.52,9.87,9.87,0,0,1,8.43,4.16q3,4.17,3,11.57a22.84,22.84,0,0,1-1.43,8.46,11.82,11.82,0,0,1-4.07,5.47A10.42,10.42,0,0,1,537.44,67.13ZM535,42.23a5.24,5.24,0,0,0-4.49,1.89Q529.09,46,529,50.37v.89c0,3.27.48,5.61,1.46,7a5.19,5.19,0,0,0,4.61,2.12q5.58,0,5.58-9.2,0-4.49-1.38-6.74A4.69,4.69,0,0,0,535,42.23Zm37.73,24.9a10.09,10.09,0,0,1-8.41-3.89h-.44c.29,2.54.44,4,.44,4.41V80H556V36.16h6.75l1.17,4h.38a9.59,9.59,0,0,1,8.63-4.52,9.87,9.87,0,0,1,8.43,4.16q3.06,4.17,3,11.57A22.64,22.64,0,0,1,583,59.78a11.82,11.82,0,0,1-4.07,5.47A10.42,10.42,0,0,1,572.72,67.13Zm-2.45-24.9a5.24,5.24,0,0,0-4.49,1.89q-1.41,1.89-1.47,6.25v.89q0,4.91,1.46,7a5.19,5.19,0,0,0,4.61,2.12q5.58,0,5.58-9.2,0-4.49-1.38-6.74A4.69,4.69,0,0,0,570.27,42.23Zm29.32,24.36h-8.3V24.24h8.3Zm12.86-34.21q-4.51,0-4.51-4.09t4.51-4.05q4.51,0,4.52,4.05a4,4,0,0,1-1.13,3,4.73,4.73,0,0,1-3.39,1.08Zm4.14,34.21h-8.3V36.16h8.3Zm21,.54q-14.21,0-14.2-15.59,0-7.76,3.86-11.86t11.08-4.09a21.09,21.09,0,0,1,9.47,2.07l-2.45,6.42c-1.31-.53-2.52-1-3.65-1.29a11.58,11.58,0,0,0-3.37-.51q-6.48,0-6.48,9.2,0,8.93,6.48,8.93a14.59,14.59,0,0,0,4.43-.64,15.93,15.93,0,0,0,4.09-2v7.1a13.62,13.62,0,0,1-4.07,1.77A22.72,22.72,0,0,1,637.64,67.13Zm35.62-.54-1.61-4.14h-.21a12.28,12.28,0,0,1-4.32,3.66,13.92,13.92,0,0,1-5.78,1,9.35,9.35,0,0,1-6.9-2.5q-2.52-2.5-2.52-7.13,0-4.84,3.39-7.15t10.22-2.54l5.28-.17V46.31c0-3.08-1.58-4.63-4.73-4.63a21.61,21.61,0,0,0-8.58,2.21l-2.75-5.61a24.81,24.81,0,0,1,11.65-2.75q6.12,0,9.39,2.67t3.27,8.11V66.59Zm-2.45-14.1-3.21.11a10.36,10.36,0,0,0-5.39,1.3,4.11,4.11,0,0,0-1.77,3.65q0,3.51,4,3.51a6.36,6.36,0,0,0,4.61-1.66A5.84,5.84,0,0,0,670.81,55Zm29.61,8a18,18,0,0,0,5.23-1v6.18A18.56,18.56,0,0,1,698,67.13q-5,0-7.26-2.52c-1.51-1.68-2.27-4.19-2.27-7.55V42.39h-4V38.88l4.57-2.77,2.39-6.43h5.31v6.48h8.52v6.23H696.8V57.06a3.24,3.24,0,0,0,1,2.61A3.9,3.9,0,0,0,700.42,60.52ZM716,32.38c-3,0-4.52-1.36-4.52-4.09s1.5-4.05,4.52-4.05,4.51,1.35,4.51,4.05a3.92,3.92,0,0,1-1.13,3A4.72,4.72,0,0,1,716,32.38Zm4.13,34.21h-8.3V36.16h8.3Zm36.35-15.27q0,7.43-3.92,11.62t-10.91,4.19a15.26,15.26,0,0,1-7.73-1.92,12.7,12.7,0,0,1-5.14-5.51,18.47,18.47,0,0,1-1.8-8.38q0-7.45,3.89-11.6t10.94-4.13a15.35,15.35,0,0,1,7.73,1.9A12.79,12.79,0,0,1,754.65,43,18.48,18.48,0,0,1,756.44,51.32Zm-21,0q0,4.51,1.49,6.83a5.31,5.31,0,0,0,4.83,2.31,5.2,5.2,0,0,0,4.77-2.3c1-1.53,1.46-3.81,1.46-6.84s-.49-5.27-1.47-6.78a6.25,6.25,0,0,0-9.61,0Q735.4,46.78,735.4,51.32Zm56,15.27h-8.3V48.81a8.5,8.5,0,0,0-1.17-4.93,4.26,4.26,0,0,0-3.73-1.65,5.61,5.61,0,0,0-5,2.33q-1.54,2.32-1.55,7.71V66.59h-8.3V36.16h6.34l1.12,3.89h.46A8.75,8.75,0,0,1,775,36.72a12.89,12.89,0,0,1,5.53-1.13q5.31,0,8.06,2.87c1.83,1.91,2.75,4.68,2.75,8.29Zm40.52,0-9.58-31.22h-.24q.51,9.52.51,12.71V66.59h-7.53V26.8h11.48L836,57.22h.16l10-30.42h11.48V66.59h-7.86V47.75c0-.89,0-1.91,0-3.07s.15-4.25.37-9.26h-.25L839.63,66.59Zm62.71-15.27q0,7.43-3.92,11.62t-10.91,4.19a15.26,15.26,0,0,1-7.73-1.92,12.7,12.7,0,0,1-5.14-5.51,18.47,18.47,0,0,1-1.8-8.38q0-7.45,3.89-11.6t10.94-4.13a15.35,15.35,0,0,1,7.73,1.9A12.79,12.79,0,0,1,892.82,43,18.48,18.48,0,0,1,894.61,51.32Zm-21,0q0,4.51,1.49,6.83a5.31,5.31,0,0,0,4.83,2.31,5.2,5.2,0,0,0,4.77-2.3c1-1.53,1.46-3.81,1.46-6.84s-.49-5.27-1.47-6.78a6.25,6.25,0,0,0-9.61,0Q873.57,46.78,873.57,51.32Zm46.15,11.32a9.49,9.49,0,0,1-8.62,4.49A9.9,9.9,0,0,1,902.67,63q-3.06-4.17-3.06-11.54t3.12-11.66a10.11,10.11,0,0,1,8.58-4.18,10,10,0,0,1,8.77,4.46h.27a33.74,33.74,0,0,1-.63-6.07V24.24h8.33V66.59h-6.37l-1.6-4ZM914,60.52a5.65,5.65,0,0,0,4.67-1.85c1-1.24,1.52-3.33,1.62-6.29v-.9q0-4.89-1.52-7t-4.91-2.12a4.86,4.86,0,0,0-4.31,2.35Q908,47,908,51.54c0,3,.52,5.24,1.55,6.73A5.08,5.08,0,0,0,914,60.52Zm36.5,6.61q-7.34,0-11.48-4t-4.14-11.49q0-7.65,3.83-11.82t10.57-4.18q6.45,0,10,3.67t3.59,10.15v4H943.3A8,8,0,0,0,945.4,59a7.37,7.37,0,0,0,5.49,2,22.83,22.83,0,0,0,5.2-.57,26.13,26.13,0,0,0,5.12-1.82V65a19.11,19.11,0,0,1-4.65,1.62A29.74,29.74,0,0,1,950.51,67.13Zm-1.17-25.64a5.23,5.23,0,0,0-4.13,1.68,7.75,7.75,0,0,0-1.72,4.75h11.65a6.9,6.9,0,0,0-1.61-4.75A5.42,5.42,0,0,0,949.34,41.49Zm37.33-5.9a13.69,13.69,0,0,1,2.8.24l-.63,7.79a9.55,9.55,0,0,0-2.45-.28,8.76,8.76,0,0,0-6.19,2A7.36,7.36,0,0,0,978,51.1V66.59h-8.3V36.16H976l1.22,5.12h.41a11.51,11.51,0,0,1,3.83-4.13A9.43,9.43,0,0,1,986.67,35.59Zm36.4,31h-8.3V48.81a8.5,8.5,0,0,0-1.17-4.93,4.25,4.25,0,0,0-3.73-1.65,5.58,5.58,0,0,0-5,2.33q-1.55,2.32-1.55,7.71V66.59H995V36.16h6.34l1.11,3.89h.47a8.72,8.72,0,0,1,3.82-3.33,12.91,12.91,0,0,1,5.54-1.13q5.31,0,8.05,2.87c1.84,1.91,2.75,4.68,2.75,8.29Zm12.7-34.21q-4.51,0-4.52-4.09t4.52-4.05q4.51,0,4.52,4.05a4,4,0,0,1-1.13,3,4.73,4.73,0,0,1-3.39,1.08Zm4.14,34.21h-8.3V36.16h8.3Zm29.87,0h-24v-4.9l14.1-19.19h-13.26V36.16h22.7v5.39l-13.72,18.69h14.21Zm25.35,0-1.61-4.14h-.22a12.17,12.17,0,0,1-4.31,3.66,14,14,0,0,1-5.78,1,9.35,9.35,0,0,1-6.9-2.5q-2.52-2.5-2.52-7.13,0-4.84,3.39-7.15t10.22-2.54l5.28-.17V46.31c0-3.08-1.58-4.63-4.74-4.63a21.57,21.57,0,0,0-8.57,2.21l-2.75-5.61a24.78,24.78,0,0,1,11.65-2.75q6.12,0,9.39,2.67c2.18,1.78,3.26,4.48,3.26,8.11V66.59Zm-2.45-14.1-3.21.11a10.33,10.33,0,0,0-5.39,1.3,4.11,4.11,0,0,0-1.77,3.65q0,3.51,4,3.51A6.36,6.36,0,0,0,1091,59.4a5.84,5.84,0,0,0,1.73-4.41Zm29.61,8a17.83,17.83,0,0,0,5.22-1v6.18a18.53,18.53,0,0,1-7.62,1.39c-3.32,0-5.73-.84-7.25-2.52s-2.27-4.19-2.27-7.55V42.39h-4V38.88l4.58-2.77,2.39-6.43h5.31v6.48h8.52v6.23h-8.52V57.06a3.24,3.24,0,0,0,1,2.61A3.89,3.89,0,0,0,1122.29,60.52Zm15.53-28.14q-4.52,0-4.51-4.09t4.51-4.05c3,0,4.52,1.35,4.52,4.05a4,4,0,0,1-1.13,3,4.73,4.73,0,0,1-3.39,1.08ZM1142,66.59h-8.3V36.16h8.3Zm36.35-15.27q0,7.43-3.92,11.62t-10.91,4.19a15.26,15.26,0,0,1-7.73-1.92,12.78,12.78,0,0,1-5.15-5.51,18.6,18.6,0,0,1-1.79-8.38q0-7.45,3.89-11.6t10.94-4.13a15.35,15.35,0,0,1,7.73,1.9,12.71,12.71,0,0,1,5.14,5.47A18.36,18.36,0,0,1,1178.31,51.32Zm-21,0q0,4.51,1.49,6.83a5.29,5.29,0,0,0,4.83,2.31,5.2,5.2,0,0,0,4.77-2.3q1.46-2.29,1.46-6.84t-1.47-6.78a6.25,6.25,0,0,0-9.61,0Q1157.27,46.78,1157.27,51.32Zm56,15.27H1205V48.81a8.58,8.58,0,0,0-1.17-4.93,4.28,4.28,0,0,0-3.73-1.65,5.6,5.6,0,0,0-5,2.33q-1.54,2.32-1.55,7.71V66.59h-8.3V36.16h6.34l1.12,3.89h.46a8.72,8.72,0,0,1,3.82-3.33,12.94,12.94,0,0,1,5.54-1.13c3.54,0,6.22,1,8.06,2.87s2.75,4.68,2.75,8.29Z" style="fill: #2476ba"/>
  <path d="M1447.3,151.53c309.72,0,560.79,251.08,560.79,560.79H1447.3Z" style="fill: #1d1d1b"/>
  <path d="M2008.09,747.16c0,309.71-251.07,560.78-560.79,560.78V747.16Z" style="fill: #fecf00"/>
  <path d="M1412.47,1308c-309.71,0-560.79-251.08-560.79-560.79h560.79Z" style="fill: #87848a"/>
  <path d="M851.68,712.32c0-309.71,251.08-560.79,560.79-560.79V712.32Z" style="fill: #d01317"/>
  <text transform="translate(1640.13 294.63) rotate(29.16)" style="font-size: 41.802268981933594px;fill: #fff;font-family: OpenSans-Extrabold, Open Sans;font-weight: 800">R</text>
  <text transform="matrix(0.84, 0.55, -0.55, 0.84, 1664.75, 308.57)" style="font-size: 41.802242279052734px;fill: #fff;font-family: OpenSans-Extrabold, Open Sans;font-weight: 800">E</text>
  <text transform="matrix(0.81, 0.58, -0.58, 0.81, 1683.98, 321.09)" style="font-size: 41.80229949951172px;fill: #fff;font-family: OpenSans-Extrabold, Open Sans;font-weight: 800">D</text>
  <text transform="translate(1708.72 339.23) rotate(39.57)" style="font-size: 41.80248260498047px;fill: #fff;font-family: OpenSans-Extrabold, Open Sans;font-weight: 800">U</text>
  <text transform="translate(1732.91 359.62) rotate(43.4)" style="font-size: 41.80238723754883px;fill: #fff;font-family: OpenSans-Extrabold, Open Sans;font-weight: 800">C</text>
  <text transform="translate(1752.61 378.29) rotate(47.2)" style="font-size: 41.80236053466797px;fill: #fff;font-family: OpenSans-Extrabold, Open Sans;font-weight: 800">E</text>
  <text transform="translate(1768.28 395.05) rotate(49.72)" style="font-size: 41.802181243896484px;fill: #fff;font-family: OpenSans-Extrabold, Open Sans;font-weight: 800">D</text>
  <text transform="translate(1787.88 418.65) rotate(52.23)" style="font-size: 41.80224609375px;fill: #fff;font-family: OpenSans-Extrabold, Open Sans;font-weight: 800"> </text>
  <text transform="translate(1794.65 427.15) rotate(54.74)" style="font-size: 41.80216598510742px;fill: #fff;font-family: OpenSans-Extrabold, Open Sans;font-weight: 800">C</text>
  <text transform="translate(1810.45 449.22) rotate(58.49)" style="font-size: 41.80241775512695px;fill: #fff;font-family: OpenSans-Extrabold, Open Sans;font-weight: 800">O</text>
  <text transform="translate(1827.92 477.59) rotate(62.24)" style="font-size: 41.802127838134766px;fill: #fff;font-family: OpenSans-Extrabold, Open Sans;font-weight: 800">S</text>
  <text transform="matrix(0.43, 0.9, -0.9, 0.43, 1839.3, 498.87)" style="font-size: 41.80208969116211px;fill: #fff;font-family: OpenSans-Extrabold, Open Sans;font-weight: 800">T</text>
  <text transform="translate(927.24 881.68) rotate(70.68)" style="font-size: 41.80241775512695px;fill: #fff;font-family: OpenSans-Extrabold, Open Sans;font-weight: 800">M</text>
  <text transform="translate(940.92 919.71) rotate(68.05)" style="font-size: 41.802207946777344px;fill: #fff;font-family: OpenSans-Extrabold, Open Sans;font-weight: 800">I</text>
  <text transform="matrix(0.43, 0.9, -0.9, 0.43, 946.09, 933.34)" style="font-size: 41.80220031738281px;fill: #fff;font-family: OpenSans-Extrabold, Open Sans;font-weight: 800">N</text>
  <text transform="translate(961.06 964.82) rotate(62.19)" style="font-size: 41.802467346191406px;fill: #fff;font-family: OpenSans-Extrabold, Open Sans;font-weight: 800">I</text>
  <text transform="matrix(0.51, 0.86, -0.86, 0.51, 967.61, 977.83)" style="font-size: 41.802249908447266px;fill: #fff;font-family: OpenSans-Extrabold, Open Sans;font-weight: 800">M</text>
  <text transform="matrix(0.55, 0.83, -0.83, 0.55, 988.43, 1012.47)" style="font-size: 41.80237579345703px;fill: #fff;font-family: OpenSans-Extrabold, Open Sans;font-weight: 800">I</text>
  <text transform="translate(996.45 1024.61) rotate(54.46)" style="font-size: 41.80217361450195px;fill: #fff;font-family: OpenSans-Extrabold, Open Sans;font-weight: 800">Z</text>
  <text transform="translate(1011.33 1045.37) rotate(51.26)" style="font-size: 41.802188873291016px;fill: #fff;font-family: OpenSans-Extrabold, Open Sans;font-weight: 800">E</text>
  <text transform="translate(1025.59 1063.35) rotate(48.71)" style="font-size: 41.802207946777344px;fill: #fff;font-family: OpenSans-Extrabold, Open Sans;font-weight: 800">D</text>
  <text transform="matrix(0.69, 0.72, -0.72, 0.69, 1045.97, 1086.28)" style="font-size: 41.80213928222656px;fill: #fff;font-family: OpenSans-Extrabold, Open Sans;font-weight: 800"> </text>
  <text transform="matrix(0.72, 0.7, -0.7, 0.72, 1053.37, 1094.24)" style="font-size: 41.80217742919922px;fill: #fff;font-family: OpenSans-Extrabold, Open Sans;font-weight: 800">D</text>
  <text transform="matrix(0.75, 0.67, -0.67, 0.75, 1075.49, 1115.49)" style="font-size: 41.802310943603516px;fill: #fff;font-family: OpenSans-Extrabold, Open Sans;font-weight: 800">I</text>
  <text transform="matrix(0.77, 0.64, -0.64, 0.77, 1086.33, 1125.21)" style="font-size: 41.80243682861328px;fill: #fff;font-family: OpenSans-Extrabold, Open Sans;font-weight: 800">S</text>
  <text transform="translate(1104.85 1140.68) rotate(36.6)" style="font-size: 41.80235290527344px;fill: #fff;font-family: OpenSans-Extrabold, Open Sans;font-weight: 800">R</text>
  <text transform="translate(1127.51 1157.64) rotate(33.4)" style="font-size: 41.80220031738281px;fill: #fff;font-family: OpenSans-Extrabold, Open Sans;font-weight: 800">U</text>
  <text transform="translate(1153.94 1175.03) rotate(30.18)" style="font-size: 41.8022575378418px;fill: #fff;font-family: OpenSans-Extrabold, Open Sans;font-weight: 800">P</text>
  <text transform="translate(1176.78 1188.3) rotate(27.59)" style="font-size: 41.802268981933594px;fill: #fff;font-family: OpenSans-Extrabold, Open Sans;font-weight: 800">T</text>
  <text transform="translate(1198.74 1199.62) rotate(25.64)" style="font-size: 41.80233383178711px;fill: #fff;font-family: OpenSans-Extrabold, Open Sans;font-weight: 800">I</text>
  <text transform="translate(1211.82 1206) rotate(23.03)" style="font-size: 41.80211639404297px;fill: #fff;font-family: OpenSans-Extrabold, Open Sans;font-weight: 800">O</text>
  <text transform="matrix(0.94, 0.33, -0.33, 0.94, 1242.53, 1218.95)" style="font-size: 41.80244445800781px;fill: #fff;font-family: OpenSans-Extrabold, Open Sans;font-weight: 800">N</text>
  <text transform="matrix(0.99, -0.17, 0.17, 0.99, 1507.92, 1247.46)" style="font-size: 41.802066802978516px;fill: #1d1d1b;font-family: OpenSans-Extrabold, Open Sans;font-weight: 800">S</text>
  <text transform="translate(1531.73 1243.53) rotate(-13.08)" style="font-size: 41.80232238769531px;fill: #1d1d1b;font-family: OpenSans-Extrabold, Open Sans;font-weight: 800">H</text>
  <text transform="matrix(0.96, -0.28, 0.28, 0.96, 1562.95, 1236.32)" style="font-size: 41.802127838134766px;fill: #1d1d1b;font-family: OpenSans-Extrabold, Open Sans;font-weight: 800">O</text>
  <text transform="translate(1594.87 1226.8) rotate(-19.66)" style="font-size: 41.80223083496094px;fill: #1d1d1b;font-family: OpenSans-Extrabold, Open Sans;font-weight: 800">R</text>
  <text transform="translate(1621.49 1217.22) rotate(-22.92)" style="font-size: 41.80240249633789px;fill: #1d1d1b;font-family: OpenSans-Extrabold, Open Sans;font-weight: 800">T</text>
  <text transform="translate(1644.26 1207.63) rotate(-25.51)" style="font-size: 41.80231857299805px;fill: #1d1d1b;font-family: OpenSans-Extrabold, Open Sans;font-weight: 800">E</text>
  <text transform="translate(1665 1197.81) rotate(-28.09)" style="font-size: 41.80231475830078px;fill: #1d1d1b;font-family: OpenSans-Extrabold, Open Sans;font-weight: 800">R</text>
  <text transform="translate(1689.87 1184.31) rotate(-30.01)" style="font-size: 41.80241012573242px;fill: #1d1d1b;font-family: OpenSans-Extrabold, Open Sans;font-weight: 800"> </text>
  <text transform="translate(1699.35 1179.01) rotate(-32.57)" style="font-size: 41.80224609375px;fill: #1d1d1b;font-family: OpenSans-Extrabold, Open Sans;font-weight: 800">D</text>
  <text transform="translate(1725.18 1162.44) rotate(-35.75)" style="font-size: 41.80209732055664px;fill: #1d1d1b;font-family: OpenSans-Extrabold, Open Sans;font-weight: 800">E</text>
  <text transform="matrix(0.78, -0.62, 0.62, 0.78, 1743.87, 1149.13)" style="font-size: 41.80221939086914px;fill: #1d1d1b;font-family: OpenSans-Extrabold, Open Sans;font-weight: 800">V</text>
  <text transform="translate(1766.63 1131.13) rotate(-41.45)" style="font-size: 41.80222702026367px;fill: #1d1d1b;font-family: OpenSans-Extrabold, Open Sans;font-weight: 800">E</text>
  <text transform="matrix(0.72, -0.69, 0.69, 0.72, 1783.91, 1116.04)" style="font-size: 41.802345275878906px;fill: #1d1d1b;font-family: OpenSans-Extrabold, Open Sans;font-weight: 800">L</text>
  <text transform="matrix(0.68, -0.73, 0.73, 0.68, 1801.62, 1099.33)" style="font-size: 41.802337646484375px;fill: #1d1d1b;font-family: OpenSans-Extrabold, Open Sans;font-weight: 800">O</text>
  <text transform="matrix(0.64, -0.77, 0.77, 0.64, 1824.31, 1074.93)" style="font-size: 41.802284240722656px;fill: #1d1d1b;font-family: OpenSans-Extrabold, Open Sans;font-weight: 800">P</text>
  <text transform="matrix(0.6, -0.8, 0.8, 0.6, 1841.33, 1054.72)" style="font-size: 41.802345275878906px;fill: #1d1d1b;font-family: OpenSans-Extrabold, Open Sans;font-weight: 800">M</text>
  <text transform="translate(1865.13 1022.04) rotate(-57.28)" style="font-size: 41.802364349365234px;fill: #1d1d1b;font-family: OpenSans-Extrabold, Open Sans;font-weight: 800">E</text>
  <text transform="matrix(0.49, -0.87, 0.87, 0.49, 1877.74, 1002.86)" style="font-size: 41.802101135253906px;fill: #1d1d1b;font-family: OpenSans-Extrabold, Open Sans;font-weight: 800">N</text>
  <text transform="translate(1894.85 972.49) rotate(-63.69)" style="font-size: 41.80234146118164px;fill: #1d1d1b;font-family: OpenSans-Extrabold, Open Sans;font-weight: 800">T</text>
  <text transform="matrix(0.41, -0.91, 0.91, 0.41, 1905.73, 950.31)" style="font-size: 41.80224609375px;fill: #1d1d1b;font-family: OpenSans-Extrabold, Open Sans;font-weight: 800"> </text>
  <text transform="translate(1910.34 940.48) rotate(-67.58)" style="font-size: 41.802207946777344px;fill: #1d1d1b;font-family: OpenSans-Extrabold, Open Sans;font-weight: 800">T</text>
  <text transform="translate(1919.69 917.62) rotate(-69.53)" style="font-size: 41.802249908447266px;fill: #1d1d1b;font-family: OpenSans-Extrabold, Open Sans;font-weight: 800">I</text>
  <text transform="translate(1925.14 904.1) rotate(-72.8)" style="font-size: 41.80240249633789px;fill: #1d1d1b;font-family: OpenSans-Extrabold, Open Sans;font-weight: 800">M</text>
  <text transform="translate(1936.88 865.42) rotate(-76.1)" style="font-size: 41.8022346496582px;fill: #1d1d1b;font-family: OpenSans-Extrabold, Open Sans;font-weight: 800">E</text>
  <text transform="translate(1942.4 843.15) rotate(-78.75)" style="font-size: 41.802391052246094px;fill: #1d1d1b;font-family: OpenSans-Extrabold, Open Sans;font-weight: 800">S</text>
  <text transform="translate(1947.02 819.47) rotate(-80.74)" style="font-size: 41.80215835571289px;fill: #1d1d1b;font-family: OpenSans-Extrabold, Open Sans;font-weight: 800"> </text>
  <text transform="translate(963.99 595.5) rotate(-73.76)" style="font-size: 41.802425384521484px;fill: #fff;font-family: OpenSans-Extrabold, Open Sans;font-weight: 800">E</text>
  <text transform="matrix(0.35, -0.94, 0.94, 0.35, 970.24, 573.41)" style="font-size: 41.80234146118164px;fill: #fff;font-family: OpenSans-Extrabold, Open Sans;font-weight: 800">N</text>
  <text transform="translate(982.18 540.64) rotate(-65.9)" style="font-size: 41.802207946777344px;fill: #fff;font-family: OpenSans-Extrabold, Open Sans;font-weight: 800">H</text>
  <text transform="translate(995.26 511.4) rotate(-62.65)" style="font-size: 41.802242279052734px;fill: #fff;font-family: OpenSans-Extrabold, Open Sans;font-weight: 800">A</text>
  <text transform="matrix(0.52, -0.86, 0.86, 0.52, 1009.2, 484.42)" style="font-size: 41.80231857299805px;fill: #fff;font-family: OpenSans-Extrabold, Open Sans;font-weight: 800">N</text>
  <text transform="matrix(0.57, -0.82, 0.82, 0.57, 1027.36, 454.66)" style="font-size: 41.80234909057617px;fill: #fff;font-family: OpenSans-Extrabold, Open Sans;font-weight: 800">C</text>
  <text transform="translate(1043 432.49) rotate(-52.35)" style="font-size: 41.80225372314453px;fill: #fff;font-family: OpenSans-Extrabold, Open Sans;font-weight: 800">E</text>
  <text transform="matrix(0.65, -0.76, 0.76, 0.65, 1056.99, 414.29)" style="font-size: 41.802364349365234px;fill: #fff;font-family: OpenSans-Extrabold, Open Sans;font-weight: 800">D</text>
  <text transform="matrix(0.69, -0.73, 0.73, 0.69, 1077.24, 391.25)" style="font-size: 41.8021354675293px;fill: #fff;font-family: OpenSans-Extrabold, Open Sans;font-weight: 800"> </text>
  <text transform="matrix(0.71, -0.7, 0.7, 0.71, 1084.63, 383.29)" style="font-size: 41.80215072631836px;fill: #fff;font-family: OpenSans-Extrabold, Open Sans;font-weight: 800">F</text>
  <text transform="translate(1100.68 367.47) rotate(-42.08)" style="font-size: 41.802337646484375px;fill: #fff;font-family: OpenSans-Extrabold, Open Sans;font-weight: 800">L</text>
  <text transform="translate(1118.75 351.17) rotate(-38.85)" style="font-size: 41.80221939086914px;fill: #fff;font-family: OpenSans-Extrabold, Open Sans;font-weight: 800">E</text>
  <text transform="matrix(0.81, -0.59, 0.59, 0.81, 1136.58, 336.73)" style="font-size: 41.802330017089844px;fill: #fff;font-family: OpenSans-Extrabold, Open Sans;font-weight: 800">X</text>
  <text transform="translate(1161.1 319.03) rotate(-33)" style="font-size: 41.80215072631836px;fill: #fff;font-family: OpenSans-Extrabold, Open Sans;font-weight: 800">I</text>
  <text transform="matrix(0.86, -0.52, 0.52, 0.86, 1173.25, 311.02)" style="font-size: 41.802101135253906px;fill: #fff;font-family: OpenSans-Extrabold, Open Sans;font-weight: 800">B</text>
  <text transform="translate(1197.51 296.72) rotate(-28.41)" style="font-size: 41.80207443237305px;fill: #fff;font-family: OpenSans-Extrabold, Open Sans;font-weight: 800">I</text>
  <text transform="matrix(0.9, -0.43, 0.43, 0.9, 1210.28, 289.72)" style="font-size: 41.802433013916016px;fill: #fff;font-family: OpenSans-Extrabold, Open Sans;font-weight: 800">L</text>
  <text transform="translate(1232.24 279.26) rotate(-23.77)" style="font-size: 41.8022575378418px;fill: #fff;font-family: OpenSans-Extrabold, Open Sans;font-weight: 800">I</text>
  <text transform="translate(1245.54 273.33) rotate(-21.09)" style="font-size: 41.802330017089844px;fill: #fff;font-family: OpenSans-Extrabold, Open Sans;font-weight: 800">T</text>
  <text transform="translate(1268.57 264.36) rotate(-17.72)" style="font-size: 41.80229949951172px;fill: #fff;font-family: OpenSans-Extrabold, Open Sans;font-weight: 800">Y</text>
  <path d="M1638.67,554.38v25m0-137v25m-24.37,69.09v5.33A16.68,16.68,0,0,0,1631,558.42h13.4A16.69,16.69,0,0,0,1661,541.71v-11.4c0-5.28-4.34-9.89-9.71-13.31l-24.25-9.37m34-20.38v-5.31a16.69,16.69,0,0,0-16.65-16.73H1631a16.69,16.69,0,0,0-16.66,16.73v11.38c0,5.28,4.07,9.62,9.42,13l25.42,9.76m-11.43,91.73a97,97,0,1,1,96.66-97c0,53.59-43.22,97-96.66,97" style="fill: #1d1d1b"/>
  <path d="M1638.67,554.38v25m0-137v25m-24.37,69.09v5.33A16.68,16.68,0,0,0,1631,558.42h13.4A16.69,16.69,0,0,0,1661,541.71v-11.4c0-5.28-4.34-9.89-9.71-13.31l-24.25-9.37m34-20.38v-5.31a16.69,16.69,0,0,0-16.65-16.73H1631a16.69,16.69,0,0,0-16.66,16.73v11.38c0,5.28,4.07,9.62,9.42,13l25.42,9.76m-11.43,91.73a97,97,0,1,1,96.66-97C1734.37,564.39,1691.15,607.84,1637.71,607.84Z" style="fill: none;stroke: #fff;stroke-miterlimit: 10;stroke-width: 1.5px"/>
  <path d="M1743.69,572a35.84,35.84,0,1,1-35.84-35.84A35.84,35.84,0,0,1,1743.69,572" style="fill: #1d1d1b"/>
  <path d="M1743.69,572a35.84,35.84,0,1,1-35.84-35.84A35.84,35.84,0,0,1,1743.69,572Z" style="fill: none;stroke: #fff;stroke-miterlimit: 10;stroke-width: 1.5px"/>
  <path d="M1708.27,595.41l.17-59m-21.78,38.47L1708,596.15l21-20.95" style="fill: #1d1d1b"/>
  <path d="M1708.27,595.41l.17-59m-21.78,38.47L1708,596.15l21-20.95" style="fill: none;stroke: #fff;stroke-miterlimit: 10;stroke-width: 1.5px"/>
  <path d="M1126.64,493.6v60.62m190.53-60.62v60.62m-155.89-52-21.65,21.65,21.65,21.65m121.24-43.3,21.66,21.65-21.66,21.65m21.66-21.65H1139.63m52,95.26h60.62m-60.62-190.52h60.62m-52,155.88,21.65,21.65,21.65-21.65m-43.3-121.24,21.65-21.65,21.65,21.65m-21.65-21.65V606.18" style="fill: none;stroke: #fff;stroke-linecap: round;stroke-linejoin: round;stroke-width: 1.5px"/>
  <circle cx="1708.78" cy="924.11" r="65.36" transform="translate(-152.95 1478.96) rotate(-45)" style="fill: none;stroke: #1d1d1b;stroke-linejoin: round;stroke-width: 1.5px"/>
  <path d="M1599.16,964.67a15,15,0,1,0,15-15A15,15,0,0,0,1599.16,964.67Zm110-84.82v44.9l25,15" style="fill: none;stroke: #1d1d1b;stroke-miterlimit: 10;stroke-width: 1.5px"/>
  <path d="M1672.65,1012.39l-10.76,7.12,9.15,14,10.76-7.12a36.56,36.56,0,0,0,10,6.83l-2.6,12.67,16.31,3.38,2.59-12.67a36.44,36.44,0,0,0,11.87-2.3l7.08,10.82,13.91-9.2-7.08-10.82a36.91,36.91,0,0,0,6.79-10l12.6,2.61,3.37-16.39L1744,998.64m-20.81-.08a16.54,16.54,0,0,1-6.56,14,16.37,16.37,0,0,1-26.16-13.38m-59.36-94.55-7.72,14.3a44.58,44.58,0,0,0-15-.4l-7-14.67-16.26,6.27,4.59,15.59a44.91,44.91,0,0,0-10.9,10.43l-15.25-5.43-7.08,16,14.22,7.76a44.86,44.86,0,0,0-.4,15.13l-14.59,7L1562,993l15.5-4.62a44.94,44.94,0,0,0,10.37,11l-5.4,15.34,15.91,7.12,7.72-14.31a44.08,44.08,0,0,0,15,.41l7,14.67,16.26-6.28-4.59-15.58a44.91,44.91,0,0,0,10.9-10.43l15.25,5.43" style="fill: none;stroke: #1d1d1b;stroke-linejoin: round;stroke-width: 1.5px"/>
  <path d="M1251.82,906.26l-19.59,19.59-19.58,19.59,19.58-19.59Zm-73.48,73.48-19.59,19.59-19.59,19.59,19.59-19.59Zm102-102a16,16,0,1,1-22.39.28A15.84,15.84,0,0,1,1280.31,877.77Zm-73.49,73.49a16,16,0,1,1-22.38.28A15.82,15.82,0,0,1,1206.82,951.26Zm-73.48,73.48a16,16,0,1,1-22.38.28A15.83,15.83,0,0,1,1133.34,1024.74Z" style="fill: none;stroke: #fff;stroke-linecap: round;stroke-linejoin: round;stroke-width: 1.5px"/>
  <text transform="translate(88.38 311.74)" style="font-size: 41.80248260498047px;fill: #4c4c4c;font-family: OpenSans-Bold, Open Sans;font-weight: 700">Creates a fexible IT<tspan x="0" y="56">environment with new</tspan><tspan x="0" y="112">architectural paradigms</tspan><tspan x="0" y="168">such as web services; aligns</tspan><tspan x="0" y="224">IT systems to dynamic</tspan><tspan x="0" y="280">business needs.</tspan></text>
  <text transform="translate(2094.05 311.74)" style="font-size: 41.80248260498047px;fill: #4c4c4c;font-family: OpenSans-Bold, Open Sans;font-weight: 700">Lowers high maintenance<tspan x="148.1" y="56">cost of existing old</tspan><tspan x="-38.07" y="112">fashioned Legacy platforms</tspan><tspan x="45.99" y="168">and development tools,</tspan><tspan x="54.64" y="224">resulting in substantial</tspan><tspan x="93.71" y="280">savings in IT budgets.</tspan></text>
  <text transform="translate(2104.11 1015.08)" style="font-size: 41.80248260498047px;fill: #4c4c4c;font-family: OpenSans-Bold, Open Sans;font-weight: 700">Modernizes development<tspan x="-82.97" y="56">tools and retrains developers</tspan><tspan x="82.79" y="112">which lead to shorter</tspan><tspan x="112.18" y="168">development times.</tspan></text>
  <text transform="translate(88.38 903.08)" style="font-size: 41.80248260498047px;fill: #4c4c4c;font-family: OpenSans-Bold, Open Sans;font-weight: 700">Reduces the risk when<tspan x="0" y="56">modernizing Legacy platforms by</tspan><tspan x="0" y="112">combining development experience</tspan><tspan x="0" y="168">with contemporary platforms, a proven</tspan><tspan x="0" y="224">modernization framework and rich</tspan><tspan x="0" y="280">domain knowledge.</tspan></text>
  <path d="M1429.89,860.24a130.51,130.51,0,1,0-130.51-130.5,130.5,130.5,0,0,0,130.51,130.5" style="fill: #fff"/>
  <path d="M1375.13,809.51V782.62h26.7m94.35-94.77a78.8,78.8,0,0,1-10.75,97.3,77.41,77.41,0,0,1-110,0M1484.64,650v26.9h-26.7m-94.36,94.76a78.8,78.8,0,0,1,10.77-97.29,77.39,77.39,0,0,1,110,0" style="fill: none;stroke: #1d1d1b;stroke-width: 3px"/>
</svg>
