<svg id="Layer_1" data-name="Layer 1" xmlns="http://www.w3.org/2000/svg" viewBox="0 0 975.62 408.36">
  <title>question6</title>
  <text transform="translate(64.97 388.56)" style="font-size: 22.777780532836914px;fill: #53505a;font-family: OpenSans, Open Sans">Responders</text>
  <path d="M38.13,396.75a16.9,16.9,0,1,0-16.9-16.9,16.9,16.9,0,0,0,16.9,16.9" style="fill: #d0171a"/>
  <rect x="92.69" y="292.86" width="722.81" height="32.09" style="fill: #d0171a"/>
  <rect x="92.68" y="209.33" width="685.76" height="32.09" style="fill: #d0171a"/>
  <rect x="92.69" y="125.8" width="611.64" height="32.09" style="fill: #d0171a"/>
  <rect x="92.68" y="42.27" width="555.86" height="32.09" style="fill: #d0171a"/>
  <text transform="translate(92.68 32.08)" style="font-size: 23.107805252075195px;fill: #53505a;font-family: OpenSans-Semibold, Open Sans;font-weight: 600">Improve/enhance security</text>
  <text transform="translate(92.68 111.35)" style="font-size: 23.107805252075195px;fill: #53505a;font-family: OpenSans-Semibold, Open Sans;font-weight: 600">Improve application performance</text>
  <text transform="translate(92.68 198.68)" style="font-size: 23.107805252075195px;fill: #53505a;font-family: OpenSans-Semibold, Open Sans;font-weight: 600">Risk management (minimize business loss, data loss)</text>
  <text transform="translate(92.68 284.53)" style="font-size: 23.107805252075195px;fill: #53505a;font-family: OpenSans-Semibold, Open Sans;font-weight: 600">Lower cost</text>
  <text transform="translate(663.96 73.05)" style="font-size: 38.51292419433594px;fill: #1e1e1c;font-family: OpenSans-Bold, Open Sans;font-weight: 700">30%</text>
  <text transform="translate(719.16 156.58)" style="font-size: 38.51292419433594px;fill: #1e1e1c;font-family: OpenSans-Bold, Open Sans;font-weight: 700">33%</text>
  <text transform="translate(794.9 240.11)" style="font-size: 38.51292419433594px;fill: #1e1e1c;font-family: OpenSans-Bold, Open Sans;font-weight: 700">37%</text>
  <text transform="translate(832.13 323.64)" style="font-size: 38.51292419433594px;fill: #1e1e1c;font-family: OpenSans-Bold, Open Sans;font-weight: 700">39%</text>
  <path d="M45.71,310.09v6.33m0-34.75V288m-6.18,17.51v1.35a4.23,4.23,0,0,0,4.22,4.24h3.4a4.23,4.23,0,0,0,4.22-4.24V304c0-1.33-1.1-2.5-2.46-3.37l-6.15-2.38m8.61-5.16v-1.35a4.23,4.23,0,0,0-4.22-4.24h-3.4a4.23,4.23,0,0,0-4.22,4.24v2.89c0,1.34,1,2.44,2.39,3.3l6.44,2.48m-2.89,23.26A24.6,24.6,0,1,1,70,299a24.57,24.57,0,0,1-24.5,24.61" style="fill: #fff"/>
  <path d="M45.71,310.09v6.33m0-34.75V288m-6.18,17.51v1.35a4.23,4.23,0,0,0,4.22,4.24h3.4a4.23,4.23,0,0,0,4.22-4.24V304c0-1.33-1.1-2.5-2.46-3.37l-6.15-2.38m8.61-5.16v-1.35a4.23,4.23,0,0,0-4.22-4.24h-3.4a4.23,4.23,0,0,0-4.22,4.24v2.89c0,1.34,1,2.44,2.39,3.3l6.44,2.48m-2.89,23.26A24.6,24.6,0,1,1,70,299,24.57,24.57,0,0,1,45.47,323.65Z" style="fill: none;stroke: #d0171a;stroke-miterlimit: 10;stroke-width: 1.031999945640564px"/>
  <path d="M72.42,315.09a8.56,8.56,0,1,1-8.55-8.55,8.55,8.55,0,0,1,8.55,8.55" style="fill: #fff"/>
  <path d="M72.42,315.09a8.56,8.56,0,1,1-8.55-8.55A8.55,8.55,0,0,1,72.42,315.09Z" style="fill: none;stroke: #d0171a;stroke-miterlimit: 10;stroke-width: 1.031999945640564px"/>
  <path d="M64,320l0-14.25m-5.08,9.3,5,5.13,4.91-5.07" style="fill: #fff"/>
  <path d="M64,320l0-14.25m-5.08,9.3,5,5.13,4.91-5.07" style="fill: none;stroke: #d0171a;stroke-miterlimit: 10;stroke-width: 1.031999945640564px"/>
  <path d="M50.84,228.77a4.17,4.17,0,1,1-4.17-4.16,4.17,4.17,0,0,1,4.17,4.16m-1.56-7.29H44.07V204.56h5.21Zm22,.78v-7h-5A19.87,19.87,0,0,0,63,207.38l3.54-3.54-5-5L58,202.41a19.87,19.87,0,0,0-7.85-3.25v-5h-7v5a19.81,19.81,0,0,0-7.85,3.25l-3.55-3.54-5,5,3.54,3.54a19.85,19.85,0,0,0-3.24,7.85h-5v7h5a19.79,19.79,0,0,0,3.24,7.85l-3.54,3.55,5,5,3.55-3.54a19.65,19.65,0,0,0,7.85,3.24v5h7v-5A19.71,19.71,0,0,0,58,235.09l3.54,3.54,5-5L63,230.11a19.81,19.81,0,0,0,3.25-7.85Z" style="fill: #fff"/>
  <path d="M50.84,228.77a4.17,4.17,0,1,1-4.17-4.16A4.17,4.17,0,0,1,50.84,228.77Zm-1.56-7.29H44.07V204.56h5.21Zm22,.78v-7h-5A19.87,19.87,0,0,0,63,207.38l3.54-3.54-5-5L58,202.41a19.87,19.87,0,0,0-7.85-3.25v-5h-7v5a19.81,19.81,0,0,0-7.85,3.25l-3.55-3.54-5,5,3.54,3.54a19.85,19.85,0,0,0-3.24,7.85h-5v7h5a19.79,19.79,0,0,0,3.24,7.85l-3.54,3.55,5,5,3.55-3.54a19.65,19.65,0,0,0,7.85,3.24v5h7v-5A19.71,19.71,0,0,0,58,235.09l3.54,3.54,5-5L63,230.11a19.81,19.81,0,0,0,3.25-7.85Z" style="fill: none;stroke: #d0171a;stroke-miterlimit: 10;stroke-width: 1.031999945640564px"/>
  <path d="M30.9,145.52a17.18,17.18,0,0,1-1.47-4.09,16.89,16.89,0,0,1-.42-3.77,17.45,17.45,0,0,1,17.66-17.32,17.73,17.73,0,0,1,14.24,7m2.9,6a17.38,17.38,0,0,1,.53,4.23,17.14,17.14,0,0,1-1.8,7.86" style="fill: none;stroke: #d0171a;stroke-miterlimit: 10;stroke-width: 1.031999945640564px"/>
  <path d="M49.69,138a3,3,0,1,1-3-3A3,3,0,0,1,49.69,138Z" style="fill: none;stroke: #d0171a;stroke-miterlimit: 10;stroke-width: 1.031999945640564px"/>
  <path d="M46.67,114.71a23.17,23.17,0,0,0-23.29,23,22.87,22.87,0,0,0,7.31,16.77h32A22.88,22.88,0,0,0,70,137.76,23.17,23.17,0,0,0,46.67,114.71Zm-5.29,34.58H52m12.7-19.44L50.91,136m-8.47,3.69L37.14,142" style="fill: none;stroke: #d0171a;stroke-miterlimit: 10;stroke-width: 1.031999945640564px"/>
  <path d="M59.3,32c-5.32-1-9.82-3.27-12.63-6-2.8,2.78-7.31,5-12.62,6a27.89,27.89,0,0,1-9.38.22V50.54c0,14.08,9.29,20.25,22,24,12.72-3.75,22-9.92,22-24V32.21A27.89,27.89,0,0,1,59.3,32Z" style="fill: none;stroke: #d0171a;stroke-miterlimit: 10;stroke-width: 1.031999945640564px"/>
  <path d="M58.68,49.58a12,12,0,1,1-12-12.2A12.11,12.11,0,0,1,58.68,49.58Z" style="fill: none;stroke: #d0171a;stroke-miterlimit: 10;stroke-width: 1.031999945640564px"/>
  <polyline points="51.56 45.23 45.56 52.16 41.6 49.82" style="fill: none;stroke: #d0171a;stroke-miterlimit: 10;stroke-width: 1.031999945640564px"/>
</svg>
