<svg id="Layer_1" data-name="Layer 1" xmlns="http://www.w3.org/2000/svg" xmlns:xlink="http://www.w3.org/1999/xlink" viewBox="0 0 543 513">
  <defs>
    <linearGradient id="linear-gradient" x1="-708.62" y1="-0.13" x2="-707.62" y2="-0.13" gradientTransform="matrix(495.45, 0, 0, -495.45, 351109.67, 107.52)" gradientUnits="userSpaceOnUse">
      <stop offset="0" stop-color="#00a0c3"/>
      <stop offset="0.51" stop-color="#eab224"/>
      <stop offset="1" stop-color="#c92520"/>
    </linearGradient>
  </defs>
  <title>rankings</title>
  <rect width="543" height="513" style="fill: #fff"/>
  <text transform="translate(24.9 271.54)" style="font-size: 10px;fill: #524f59;font-family: OpenSans, Open Sans">organizations rarely view </text>
  <text transform="translate(24.9 285.04)" style="font-size: 10px;fill: #524f59;font-family: OpenSans, Open Sans">cloud as a vehicle for </text>
  <path d="M29.25,298.36a2.87,2.87,0,0,1-1.35.28,2.29,2.29,0,0,1-1.8-.71,2.94,2.94,0,0,1-.64-2,3,3,0,0,1,.65-2.07,2.32,2.32,0,0,1,1.84-.74,3.37,3.37,0,0,1,.77.09,2.6,2.6,0,0,1,.61.19l-.25.69a4.55,4.55,0,0,0-.59-.18,3.16,3.16,0,0,0-.56-.07c-1.09,0-1.63.7-1.63,2.08a2.48,2.48,0,0,0,.4,1.52,1.38,1.38,0,0,0,1.18.52,3.65,3.65,0,0,0,1.37-.28v.71Zm5.89-2.5a3,3,0,0,1-.66,2.05,2.32,2.32,0,0,1-1.82.73,2.38,2.38,0,0,1-1.28-.34,2.18,2.18,0,0,1-.86-1,3.4,3.4,0,0,1-.3-1.48,3,3,0,0,1,.65-2,2.36,2.36,0,0,1,1.82-.73,2.28,2.28,0,0,1,1.79.75A2.94,2.94,0,0,1,35.14,295.86Zm-4.08,0a2.58,2.58,0,0,0,.41,1.57,1.44,1.44,0,0,0,1.21.53,1.43,1.43,0,0,0,1.2-.53,2.51,2.51,0,0,0,.42-1.57,2.47,2.47,0,0,0-.42-1.55,1.44,1.44,0,0,0-1.21-.53,1.43,1.43,0,0,0-1.2.53A2.41,2.41,0,0,0,31.06,295.86Zm12.32,2.68v-3.48a1.48,1.48,0,0,0-.27-1,1.09,1.09,0,0,0-.85-.32,1.37,1.37,0,0,0-1.12.44,2.06,2.06,0,0,0-.36,1.34v3H40v-3.48a1.48,1.48,0,0,0-.28-1,1.06,1.06,0,0,0-.85-.32,1.35,1.35,0,0,0-1.12.46,2.51,2.51,0,0,0-.35,1.5v2.8h-.81v-5.35h.66l.13.74h0a1.59,1.59,0,0,1,.64-.62,2.07,2.07,0,0,1,.94-.22,1.6,1.6,0,0,1,1.64.91h0a1.69,1.69,0,0,1,.69-.66,2.22,2.22,0,0,1,1-.25,1.82,1.82,0,0,1,1.36.47,2.09,2.09,0,0,1,.45,1.49v3.49Zm5,.1a2.32,2.32,0,0,1-1-.19,1.86,1.86,0,0,1-.72-.59h-.06a6.85,6.85,0,0,1,.06.88V301h-.81v-7.76h.66l.11.74h0a1.83,1.83,0,0,1,.73-.64,2.18,2.18,0,0,1,1-.2,2,2,0,0,1,1.64.73,3.87,3.87,0,0,1,0,4.09A2,2,0,0,1,48.35,298.64Zm-.12-4.86a1.43,1.43,0,0,0-1.19.46,2.3,2.3,0,0,0-.37,1.44v.18a2.71,2.71,0,0,0,.37,1.62,1.45,1.45,0,0,0,1.21.48,1.26,1.26,0,0,0,1.09-.56,2.67,2.67,0,0,0,.39-1.55,2.56,2.56,0,0,0-.39-1.53A1.3,1.3,0,0,0,48.23,293.78Zm6,4.86a2.45,2.45,0,0,1-1.87-.72,2.79,2.79,0,0,1-.69-2,3.05,3.05,0,0,1,.64-2.05,2.1,2.1,0,0,1,1.71-.77,2,2,0,0,1,1.59.67,2.53,2.53,0,0,1,.59,1.74V296H52.53a2.13,2.13,0,0,0,.48,1.44,1.65,1.65,0,0,0,1.27.48,4.38,4.38,0,0,0,1.71-.36v.73a4.28,4.28,0,0,1-.82.26A4.77,4.77,0,0,1,54.25,298.64ZM54,293.77a1.33,1.33,0,0,0-1,.42,2,2,0,0,0-.45,1.17h2.8a1.82,1.82,0,0,0-.34-1.18A1.22,1.22,0,0,0,54,293.77Zm5.3,4.2a2.73,2.73,0,0,0,.41,0l.32-.06v.62a1.8,1.8,0,0,1-.39.1,2.6,2.6,0,0,1-.46,0c-1,0-1.55-.54-1.55-1.63v-3.19h-.77v-.39l.77-.34L58,292h.47v1.24H60v.63H58.47V297a1,1,0,0,0,.23.74A.77.77,0,0,0,59.33,298Zm1.73-6.23a.53.53,0,0,1,.14-.41.49.49,0,0,1,.34-.12.44.44,0,0,1,.33.13.51.51,0,0,1,.15.4.53.53,0,0,1-.15.41.44.44,0,0,1-.33.13.45.45,0,0,1-.34-.13A.53.53,0,0,1,61.06,291.74Zm.88,6.8h-.81v-5.35h.81Zm3.45-.57a2.73,2.73,0,0,0,.41,0l.32-.06v.62a1.8,1.8,0,0,1-.39.1,2.6,2.6,0,0,1-.46,0c-1,0-1.55-.54-1.55-1.63v-3.19H63v-.39l.77-.34.34-1.14h.47v1.24h1.55v.63H64.53V297a1,1,0,0,0,.23.74A.77.77,0,0,0,65.39,298Zm1.73-6.23a.56.56,0,0,1,.14-.41.49.49,0,0,1,.34-.12.44.44,0,0,1,.33.13.51.51,0,0,1,.15.4.53.53,0,0,1-.15.41.44.44,0,0,1-.33.13.45.45,0,0,1-.34-.13A.56.56,0,0,1,67.12,291.74Zm.88,6.8h-.81v-5.35H68Zm2.89,0-2-5.35h.87l1.15,3.18c.26.74.41,1.22.46,1.44h0a9.65,9.65,0,0,1,.34-1.07c.19-.54.62-1.72,1.28-3.55h.87l-2,5.35Zm6.1.1a2.45,2.45,0,0,1-1.87-.72,2.79,2.79,0,0,1-.69-2,3.05,3.05,0,0,1,.64-2.05,2.1,2.1,0,0,1,1.71-.77,2,2,0,0,1,1.59.67A2.53,2.53,0,0,1,79,295.5V296H75.27a2.13,2.13,0,0,0,.48,1.44,1.65,1.65,0,0,0,1.27.48,4.38,4.38,0,0,0,1.71-.36v.73a4.28,4.28,0,0,1-.82.26A4.77,4.77,0,0,1,77,298.64Zm-.22-4.87a1.33,1.33,0,0,0-1,.42,2,2,0,0,0-.45,1.17h2.8a1.82,1.82,0,0,0-.34-1.18A1.22,1.22,0,0,0,76.77,293.77Zm9.81,4.06h0a1.92,1.92,0,0,1-1.68.81,2,2,0,0,1-1.64-.72,3.12,3.12,0,0,1-.58-2,3.21,3.21,0,0,1,.59-2.05,2.15,2.15,0,0,1,3.3.06h.06l0-.39,0-.38V291h.81v7.59h-.66ZM85,298a1.48,1.48,0,0,0,1.2-.45,2.28,2.28,0,0,0,.38-1.46v-.17a2.68,2.68,0,0,0-.38-1.62,1.45,1.45,0,0,0-1.21-.49,1.23,1.23,0,0,0-1.09.56,2.77,2.77,0,0,0-.38,1.56,2.64,2.64,0,0,0,.38,1.55A1.25,1.25,0,0,0,85,298Zm4-6.22a.56.56,0,0,1,.14-.41.53.53,0,0,1,.68,0,.54.54,0,0,1,.14.4.56.56,0,0,1-.14.41.48.48,0,0,1-.34.13.45.45,0,0,1-.34-.13A.56.56,0,0,1,89,291.74Zm.88,6.8h-.81v-5.35h.81ZM94,293.82H92.65v4.72h-.81v-4.72h-1v-.36l1-.3v-.29c0-1.32.57-2,1.72-2a3.73,3.73,0,0,1,1,.17l-.21.65a2.75,2.75,0,0,0-.8-.15.76.76,0,0,0-.68.31,1.67,1.67,0,0,0-.22,1v.34H94Zm3.39,0H96v4.72h-.81v-4.72h-1v-.36l1-.3v-.29c0-1.32.57-2,1.72-2a3.79,3.79,0,0,1,1,.17l-.21.65a2.75,2.75,0,0,0-.81-.15.75.75,0,0,0-.67.31,1.67,1.67,0,0,0-.22,1v.34H97.4Zm3.24,4.82a2.45,2.45,0,0,1-1.87-.72,2.79,2.79,0,0,1-.69-2,3.05,3.05,0,0,1,.64-2.05,2.1,2.1,0,0,1,1.71-.77,2,2,0,0,1,1.59.67,2.53,2.53,0,0,1,.59,1.74V296H98.92a2.13,2.13,0,0,0,.48,1.44,1.65,1.65,0,0,0,1.27.48,4.38,4.38,0,0,0,1.71-.36v.73a4.28,4.28,0,0,1-.82.26A4.77,4.77,0,0,1,100.64,298.64Zm-.22-4.87a1.33,1.33,0,0,0-1,.42,2,2,0,0,0-.45,1.17h2.8a1.82,1.82,0,0,0-.34-1.18A1.22,1.22,0,0,0,100.42,293.77Zm6-.68a3.1,3.1,0,0,1,.64.06l-.11.76a2.75,2.75,0,0,0-.59-.08,1.44,1.44,0,0,0-1.11.53,1.91,1.91,0,0,0-.46,1.31v2.87H104v-5.35h.67l.09,1h0a2.44,2.44,0,0,1,.72-.8A1.59,1.59,0,0,1,106.43,293.09Zm3.9,5.55a2.45,2.45,0,0,1-1.87-.72,2.79,2.79,0,0,1-.69-2,3.05,3.05,0,0,1,.64-2.05,2.1,2.1,0,0,1,1.71-.77,2,2,0,0,1,1.59.67,2.53,2.53,0,0,1,.59,1.74V296h-3.69a2.18,2.18,0,0,0,.48,1.44,1.65,1.65,0,0,0,1.27.48,4.38,4.38,0,0,0,1.71-.36v.73a4.28,4.28,0,0,1-.82.26A4.77,4.77,0,0,1,110.33,298.64Zm-.22-4.87a1.33,1.33,0,0,0-1,.42,2,2,0,0,0-.45,1.17h2.8a1.82,1.82,0,0,0-.34-1.18A1.22,1.22,0,0,0,110.11,293.77Zm7.23,4.77v-3.46a1.37,1.37,0,0,0-.3-1,1.2,1.2,0,0,0-.93-.33,1.52,1.52,0,0,0-1.23.46,2.29,2.29,0,0,0-.39,1.5v2.8h-.81v-5.35h.66l.13.74h0a1.63,1.63,0,0,1,.7-.62,2.33,2.33,0,0,1,1-.22,2,2,0,0,1,1.45.47,2,2,0,0,1,.49,1.49v3.49Zm4.21-.57a2.73,2.73,0,0,0,.41,0l.32-.06v.62a1.8,1.8,0,0,1-.39.1,2.6,2.6,0,0,1-.46,0c-1,0-1.55-.54-1.55-1.63v-3.19h-.77v-.39l.77-.34.34-1.14h.47v1.24h1.55v.63h-1.55V297a1,1,0,0,0,.23.74A.77.77,0,0,0,121.55,298Zm1.73-6.23a.56.56,0,0,1,.14-.41.53.53,0,0,1,.68,0,.54.54,0,0,1,.14.4.56.56,0,0,1-.14.41.48.48,0,0,1-.34.13.45.45,0,0,1-.34-.13A.56.56,0,0,1,123.28,291.74Zm.88,6.8h-.81v-5.35h.81Zm5,0-.16-.76h0a2.2,2.2,0,0,1-.8.68,2.4,2.4,0,0,1-1,.18,1.76,1.76,0,0,1-1.25-.41,1.49,1.49,0,0,1-.45-1.17c0-1.08.86-1.64,2.59-1.69l.91,0V295a1.36,1.36,0,0,0-.27-.93,1.12,1.12,0,0,0-.87-.3,3.58,3.58,0,0,0-1.51.41l-.25-.62a4.18,4.18,0,0,1,1.81-.46,2.06,2.06,0,0,1,1.42.43,1.76,1.76,0,0,1,.46,1.36v3.65Zm-1.83-.57a1.69,1.69,0,0,0,1.19-.41,1.54,1.54,0,0,0,.43-1.16v-.49l-.81,0a2.91,2.91,0,0,0-1.4.3.89.89,0,0,0-.42.82.84.84,0,0,0,.26.67A1.09,1.09,0,0,0,127.34,298Zm5.83,0a2.73,2.73,0,0,0,.41,0l.32-.06v.62a1.8,1.8,0,0,1-.39.1,2.6,2.6,0,0,1-.46,0c-1,0-1.55-.54-1.55-1.63v-3.19h-.77v-.39l.77-.34.34-1.14h.47v1.24h1.55v.63h-1.55V297a1,1,0,0,0,.23.74A.77.77,0,0,0,133.17,298Zm1.73-6.23a.56.56,0,0,1,.14-.41.53.53,0,0,1,.68,0,.54.54,0,0,1,.14.4.56.56,0,0,1-.14.41.48.48,0,0,1-.34.13.45.45,0,0,1-.34-.13A.56.56,0,0,1,134.9,291.74Zm.88,6.8H135v-5.35h.81Zm6.34-2.68a3,3,0,0,1-.66,2.05,2.32,2.32,0,0,1-1.82.73,2.38,2.38,0,0,1-1.28-.34,2.18,2.18,0,0,1-.86-1,3.4,3.4,0,0,1-.3-1.48,3,3,0,0,1,.65-2,2.36,2.36,0,0,1,1.82-.73,2.28,2.28,0,0,1,1.79.75A2.94,2.94,0,0,1,142.12,295.86Zm-4.08,0a2.58,2.58,0,0,0,.41,1.57,1.44,1.44,0,0,0,1.21.53,1.43,1.43,0,0,0,1.2-.53,2.51,2.51,0,0,0,.42-1.57,2.47,2.47,0,0,0-.42-1.55,1.44,1.44,0,0,0-1.21-.53,1.43,1.43,0,0,0-1.2.53A2.47,2.47,0,0,0,138,295.86Zm9.16,2.68v-3.46a1.37,1.37,0,0,0-.3-1,1.2,1.2,0,0,0-.93-.33,1.52,1.52,0,0,0-1.23.46,2.29,2.29,0,0,0-.39,1.5v2.8h-.81v-5.35h.66l.13.74h0a1.63,1.63,0,0,1,.7-.62,2.33,2.33,0,0,1,1-.22,2,2,0,0,1,1.45.47,2,2,0,0,1,.49,1.49v3.49Z" style="fill: #524f59"/>
  <text transform="translate(24.9 312.04)" style="font-size: 10px;fill: #524f59;font-family: OpenSans, Open Sans">and just see it as a tactical </text>
  <text transform="translate(24.9 325.54)" style="font-size: 10px;fill: #524f59;font-family: OpenSans, Open Sans">tool for cost savings. Their </text>
  <text transform="translate(24.9 339.04)" style="font-size: 10px;fill: #524f59;font-family: OpenSans, Open Sans">key priority is to carry on </text>
  <text transform="translate(24.9 352.54)" style="font-size: 10px;fill: #524f59;font-family: OpenSans, Open Sans">as is in their IT journey </text>
  <text transform="translate(24.9 366.04)" style="font-size: 10px;fill: #524f59;font-family: OpenSans, Open Sans">and dedicate little budgets </text>
  <text transform="translate(24.9 379.54)" style="font-size: 10px;fill: #524f59;font-family: OpenSans, Open Sans">to core IT and application </text>
  <text transform="translate(24.9 393.04)" style="font-size: 10px;fill: #524f59;font-family: OpenSans, Open Sans">modernization strategies. </text>
  <text transform="translate(24.9 406.54)" style="font-size: 10px;fill: #524f59;font-family: OpenSans, Open Sans">These organizations also don’t </text>
  <text transform="translate(24.9 420.04)" style="font-size: 10px;fill: #524f59;font-family: OpenSans, Open Sans">regard data value realization </text>
  <text transform="translate(24.9 433.54)" style="font-size: 10px;fill: #524f59;font-family: OpenSans, Open Sans">as critical for digital business </text>
  <text transform="translate(24.9 447.04)" style="font-size: 10px;fill: #524f59;font-family: OpenSans, Open Sans">success.</text>
  <text transform="translate(200.84 223.11)" style="font-size: 10px;fill: #524f59;font-family: OpenSans, Open Sans">Cloud Practitioners </text>
  <text transform="translate(200.84 236.61)" style="font-size: 10px;fill: #524f59;font-family: OpenSans, Open Sans">understand the value of </text>
  <text transform="translate(200.84 250.11)" style="font-size: 10px;fill: #524f59;font-family: OpenSans, Open Sans">cloud as a digital business </text>
  <text transform="translate(200.84 263.61)" style="font-size: 10px;fill: #524f59;font-family: OpenSans, Open Sans">enabler and have ambitions </text>
  <text transform="translate(200.84 277.11)" style="font-size: 10px;fill: #524f59;font-family: OpenSans, Open Sans">to become a data-driven </text>
  <text transform="translate(200.84 290.61)" style="font-size: 10px;fill: #524f59;font-family: OpenSans, Open Sans">organization. While these </text>
  <text transform="translate(200.84 304.11)" style="font-size: 10px;fill: #524f59;font-family: OpenSans, Open Sans">organizations are well into </text>
  <text transform="translate(200.84 317.61)" style="font-size: 10px;fill: #524f59;font-family: OpenSans, Open Sans">their cloud adoption and </text>
  <text transform="translate(200.84 331.11)" style="font-size: 10px;fill: #524f59;font-family: OpenSans, Open Sans">IT modernization journeys, </text>
  <text transform="translate(200.84 344.61)" style="font-size: 10px;fill: #524f59;font-family: OpenSans, Open Sans">they are facing stumbling </text>
  <text transform="translate(200.84 358.11)" style="font-size: 10px;fill: #524f59;font-family: OpenSans, Open Sans">blocks to make that cloud </text>
  <text transform="translate(200.84 371.61)" style="font-size: 10px;fill: #524f59;font-family: OpenSans, Open Sans">transformation end-to-end </text>
  <text transform="translate(200.84 385.11)" style="font-size: 10px;fill: #524f59;font-family: OpenSans, Open Sans">and achieve all business </text>
  <text transform="translate(200.84 398.61)" style="font-size: 10px;fill: #524f59;font-family: OpenSans, Open Sans">objectives. They certainly </text>
  <text transform="translate(200.84 412.11)" style="font-size: 10px;fill: #524f59;font-family: OpenSans, Open Sans">have the cloud vision and </text>
  <text transform="translate(200.84 425.61)" style="font-size: 10px;fill: #524f59;font-family: OpenSans, Open Sans">determination to make </text>
  <text transform="translate(200.84 439.11)" style="font-size: 10px;fill: #524f59;font-family: OpenSans, Open Sans">progress and will be focusing </text>
  <text transform="translate(200.84 452.61)" style="font-size: 10px;fill: #524f59;font-family: OpenSans, Open Sans">on overcoming the challenges </text>
  <text transform="translate(200.84 466.11)" style="font-size: 10px;fill: #524f59;font-family: OpenSans, Open Sans">to graduate to the next stage </text>
  <text transform="translate(200.84 479.61)" style="font-size: 10px;fill: #524f59;font-family: OpenSans, Open Sans">of maturity. </text>
  <text transform="translate(370.02 180.48)" style="font-size: 10px;fill: #524f59;font-family: OpenSans, Open Sans">Cloud Masters have </text>
  <text transform="translate(370.02 193.98)" style="font-size: 10px;fill: #524f59;font-family: OpenSans, Open Sans">successfully overcome most </text>
  <text transform="translate(370.02 207.48)" style="font-size: 10px;fill: #524f59;font-family: OpenSans, Open Sans">of the challenges in achieving </text>
  <text transform="translate(370.02 220.98)" style="font-size: 10px;fill: #524f59;font-family: OpenSans, Open Sans">their cloud migration, </text>
  <text transform="translate(370.02 234.48)" style="font-size: 10px;fill: #524f59;font-family: OpenSans, Open Sans">application modernization, </text>
  <text transform="translate(370.02 247.98)" style="font-size: 10px;fill: #524f59;font-family: OpenSans, Open Sans">and data-driven strategy </text>
  <text transform="translate(370.02 261.48)" style="font-size: 10px;fill: #524f59;font-family: OpenSans, Open Sans">objectives. But as business </text>
  <text transform="translate(370.02 274.98)" style="font-size: 10px;fill: #524f59;font-family: OpenSans, Open Sans">dynamics, cloud services and </text>
  <text transform="translate(370.02 288.48)" style="font-size: 10px;fill: #524f59;font-family: OpenSans, Open Sans">security needs are constantly </text>
  <text transform="translate(370.02 301.98)" style="font-size: 10px;fill: #524f59;font-family: OpenSans, Open Sans">evolving, as are business </text>
  <text transform="translate(370.02 315.48)" style="font-size: 10px;fill: #524f59;font-family: OpenSans, Open Sans">needs, their key priority is in </text>
  <text transform="translate(370.02 328.98)" style="font-size: 10px;fill: #524f59;font-family: OpenSans, Open Sans">maintaining their competitive </text>
  <text transform="translate(370.02 342.48)" style="font-size: 10px;fill: #524f59;font-family: OpenSans, Open Sans">edge by keeping their cloud </text>
  <text transform="translate(370.02 355.98)" style="font-size: 10px;fill: #524f59;font-family: OpenSans, Open Sans">and data-driven strategy </text>
  <text transform="translate(370.02 369.48)" style="font-size: 10px;fill: #524f59;font-family: OpenSans, Open Sans">current. They are not taking </text>
  <text transform="translate(370.02 409.98)" style="font-size: 10px;fill: #524f59;font-family: OpenSans, Open Sans">bottlenecks, security postures </text>
  <text transform="translate(370.02 423.48)" style="font-size: 10px;fill: #524f59;font-family: OpenSans, Open Sans">and new data-related </text>
  <text transform="translate(370.02 436.98)" style="font-size: 10px;fill: #524f59;font-family: OpenSans, Open Sans">opportunities to remain the </text>
  <text transform="translate(370.02 450.48)" style="font-size: 10px;fill: #524f59;font-family: OpenSans, Open Sans">masters.</text>
  <text transform="translate(24.9 251.33)" style="font-size: 14px;fill: #2476ba;font-family: OpenSans-Bold, Open Sans;font-weight: 700">Cloud Starter</text>
  <text transform="translate(200.84 200.42)" style="font-size: 14px;fill: #2476ba;font-family: OpenSans-Bold, Open Sans;font-weight: 700">Cloud Practitioner</text>
  <text transform="translate(370.02 153.54)" style="font-size: 14px;fill: #2476ba;font-family: OpenSans-Bold, Open Sans;font-weight: 700">Cloud Master</text>
  <polygon points="22.75 220.34 180.52 220.34 180.52 168.65 345.86 168.65 345.86 123.54 518.2 123.54 518.2 124.54 346.86 124.54 346.86 169.65 181.52 169.65 181.52 221.34 22.75 221.34 22.75 220.34 22.75 220.34" style="fill: url(#linear-gradient)"/>
  <path d="M63,171.41c-.53,0-1.05.15-1.36,0s-.89,0-1.24-.19A2.65,2.65,0,0,0,59,171a4.63,4.63,0,0,0-2.18.23,10.57,10.57,0,0,0-4.66,1.42,24,24,0,0,0-2.51,1.75,12.51,12.51,0,0,0-2.3,2.48,13.71,13.71,0,0,0-1.86,3.58A5.86,5.86,0,0,0,45,182.8a20.91,20.91,0,0,0,.16,4.25,14.83,14.83,0,0,0,1.08,3.32,13.38,13.38,0,0,0,3.61,4.5A7.74,7.74,0,0,0,51.38,196c.58.25,1.1.6,1.67.85a14.55,14.55,0,0,0,5.81,1.27q21,.06,42,0a10.52,10.52,0,0,0,2.76-.27,13.41,13.41,0,0,0,1.43-.29,22.06,22.06,0,0,0,4.07-1.74c.49-.32,1-.69,1.48-1a7.68,7.68,0,0,0,1-.84c.32-.26.69-.47,1-.75s.43-.63.69-.89a10.75,10.75,0,0,0,1.86-2.65,10.45,10.45,0,0,0,1.45-4.33c.47-.42,0-1,.27-1.41a2.08,2.08,0,0,0,.19-1.45c0-1-.13-2-.23-3.06,0-.14-.16-.26-.18-.4a17.45,17.45,0,0,0-1-2.89,15,15,0,0,0-1-2c-.39-.72-1-1.3-1.48-2a14.29,14.29,0,0,0-2.2-2.13,7.57,7.57,0,0,0-.63-.49,15.17,15.17,0,0,0-3.41-1.84c-.65-.26-1.32-.5-2-.7a11.38,11.38,0,0,0-2.28-.27,6.53,6.53,0,0,1-.77-.14,2.75,2.75,0,0,0-2,.1c-.42-1-.54-2.1-1-3.11a22.64,22.64,0,0,0-2.15-3.93,21.47,21.47,0,0,0-2.18-2.41,17.22,17.22,0,0,0-5.71-3.74A20.08,20.08,0,0,0,82,152a4,4,0,0,0-2,.16,14,14,0,0,1-2,.25,19.24,19.24,0,0,0-8.33,3.85,21.4,21.4,0,0,0-3,3,12.37,12.37,0,0,0-.82,1.18,18.84,18.84,0,0,0-1.75,3.4,13.55,13.55,0,0,0-.85,2.81,9.6,9.6,0,0,0-.29,2.83.49.49,0,0,1-.14.37c.08.65.13,1.08.19,1.54m37.86-6.36a30.19,30.19,0,0,1,5.56,1,28.16,28.16,0,0,1,3.32,1.5,16.09,16.09,0,0,1,4.23,3.29,16.51,16.51,0,0,1,3.83,6.64,7,7,0,0,1,.52,3.2,5.72,5.72,0,0,1,.24,2.36c0,.57-.31,1.07-.27,1.66a3.72,3.72,0,0,1-.26,1.65c-.22.55-.25,1.14-.48,1.67s-.44,1-.67,1.49a11,11,0,0,1-.73,1.46,18.91,18.91,0,0,1-3.78,4.44,18.5,18.5,0,0,1-4.88,2.89,13.06,13.06,0,0,1-3.12.84,30.38,30.38,0,0,1-3.28.44c-1.16,0-2.32,0-3.48,0q-19.39,0-38.8,0a11.33,11.33,0,0,1-1.58-.24,5,5,0,0,1-1.71-.22c-.46-.21-1.11-.06-1.55-.3a24.88,24.88,0,0,1-3.47-1.72A29,29,0,0,1,47.77,195a16.67,16.67,0,0,1-3.52-5.61,17.19,17.19,0,0,1-.5-2,16,16,0,0,1-.19-4.83,9.46,9.46,0,0,1,.66-2.53,19.47,19.47,0,0,1,1.05-2.39,14.56,14.56,0,0,1,4.19-4.86,29.15,29.15,0,0,1,4.48-2.46,11.34,11.34,0,0,0,2.08-.45,27.69,27.69,0,0,1,2.89-.25,2.56,2.56,0,0,1,1.35.2,3.1,3.1,0,0,0,1.23,0c0-.4,0-.74,0-1.08a14.69,14.69,0,0,1,.55-3.3,17,17,0,0,1,1.85-4.52,15,15,0,0,1,2.53-3.55l1.78-1.74a12.11,12.11,0,0,1,3.24-2.24c.93-.46,1.82-1,2.77-1.38a14.68,14.68,0,0,1,2.34-.71,22.07,22.07,0,0,1,3.27-.53,15.61,15.61,0,0,1,2.06-.17c.56,0,1.13.15,1.69.22a4.25,4.25,0,0,1,1.6.2,7.37,7.37,0,0,0,1.68.28,9.74,9.74,0,0,1,1.48.46,21,21,0,0,1,4.9,2.57,17.58,17.58,0,0,1,2.65,2.18c1.1,1.26,2.39,2.42,3,4a2.42,2.42,0,0,1,.9,1.39,16.84,16.84,0,0,1,1,3.12" style="fill: #706f6f"/>
  <path d="M236.09,105.8c-.34-.44-.88-.06-1.27-.38s-.86,0-1.24-.27h-4.64a21.64,21.64,0,0,1-2.55.65,16.1,16.1,0,0,0-2.41,1,14.7,14.7,0,0,0-4.49,3.36,18.64,18.64,0,0,0-2.39,3.3,26.35,26.35,0,0,1-1.3,2.86,16.87,16.87,0,0,1-.52,2.62,13.92,13.92,0,0,0-.17,3.08,14.36,14.36,0,0,0,1.2,5.27c.16.35.23.74.41,1.07a15.44,15.44,0,0,0,2.87,4,13.74,13.74,0,0,0,2.48,2.22,14,14,0,0,0,3,1.56c.66.19,1.29.52,2,.71s1.32.29,2,.43a23.52,23.52,0,0,0,4.43.19c1.47,0,3,0,4.47,0v1.59h-3.13c-1.16,0-2.33,0-3.5,0a17.37,17.37,0,0,1-8.41-2.1,14.24,14.24,0,0,1-3.07-2.15c-.35-.32-.77-.56-1.1-.89a19,19,0,0,1-1.5-1.73,19.3,19.3,0,0,1-2.24-3.82,18.4,18.4,0,0,1-1.42-5.86,18.26,18.26,0,0,1,0-3.05c.12-.94.33-1.88.52-2.82a17.71,17.71,0,0,1,1.11-3.06,16.38,16.38,0,0,1,1.73-2.89,20.66,20.66,0,0,1,3.56-3.62,26.54,26.54,0,0,0,2.47-1.72c1.31-.38,2.47-1.12,3.84-1.38.92-.18,1.84-.31,2.75-.49a9.82,9.82,0,0,1,2.85-.12c.69.07,1.37.17,2.14.18,0-.16,0-.34.05-.51a4.93,4.93,0,0,1,.19-1.73c.21-.46-.12-1.1.26-1.59.28-2.75,1.52-5.16,2.74-7.57a23,23,0,0,1,1.8-2.54,17.47,17.47,0,0,1,2.25-2.46,23.25,23.25,0,0,1,6.54-4.41,25.37,25.37,0,0,1,4.07-1.39,5.46,5.46,0,0,0,1.25-.23c.41-.25.81-.06,1.17-.2a8.06,8.06,0,0,1,2.85-.21,16,16,0,0,1,2.94,0,26.19,26.19,0,0,1,5.15,1.2,25,25,0,0,1,3.63,1.61,28.64,28.64,0,0,1,3.3,2.14,16.42,16.42,0,0,1,2.38,2.18,28.26,28.26,0,0,1,3.39,4.58,32.93,32.93,0,0,1,2.24,5.18,1.6,1.6,0,0,1,0,.5,10.93,10.93,0,0,1,1.15,0c.54.06,1.09-.17,1.63.15s1-.14,1.46.29a18,18,0,0,1,6.18,2.29,12,12,0,0,1,2.95,2.15c.25.29.62.39.82.77a4.52,4.52,0,0,0,.93,1,7.22,7.22,0,0,1,.87.88c.58.78,1.12,1.57,1.65,2.37a12.08,12.08,0,0,1,.91,1.55,21.67,21.67,0,0,1,1.37,3.84c.19.8.29,1.62.48,2.41a28.22,28.22,0,0,1,.2,4,4.74,4.74,0,0,1-.24,1.37c-.07.43.21.91-.22,1.27a11.37,11.37,0,0,1-.89,3.48,21.45,21.45,0,0,1-1.28,2.75,13.58,13.58,0,0,0-.84,1.34c-.18.51-.7.72-.87,1.23-.1.32-.51.54-.76.82a16.59,16.59,0,0,1-1.29,1.49,29,29,0,0,1-2.38,1.89,22.07,22.07,0,0,1-3.49,1.95,19,19,0,0,1-3,1,6.78,6.78,0,0,0-1.41.4c-.4.21-.95-.17-1.38.24-.1.1-.36,0-.55,0h-5.82V137.5c1.32,0,2.64,0,3.95,0A14.49,14.49,0,0,0,285,137a16.81,16.81,0,0,0,4.7-1.76,18.15,18.15,0,0,0,3.92-2.82,20.46,20.46,0,0,0,3-3.4,18.9,18.9,0,0,0,2.5-5.76c.21-.91.36-1.82.48-2.75a10.25,10.25,0,0,0,.18-2.06,21.85,21.85,0,0,0-1.49-7.07,24,24,0,0,0-2.51-4.28,22,22,0,0,0-2.26-2.46,16.2,16.2,0,0,0-3-2.24,15.49,15.49,0,0,0-4.31-1.9,26.5,26.5,0,0,0-2.81-.61,36.45,36.45,0,0,0-4-.2,5.39,5.39,0,0,0-.49-2.37,12.88,12.88,0,0,0-.87-2.23A21.93,21.93,0,0,0,276.86,93c-.4-.67-.91-1.27-1.32-1.94s-1.2-1.23-1.66-1.92-1.25-1.08-1.79-1.71a6.94,6.94,0,0,0-2-1.48c-.7-.4-1.37-.87-2.09-1.25a21.47,21.47,0,0,0-2.18-1,8.87,8.87,0,0,0-2.21-.65,22.37,22.37,0,0,0-2.41-.49c-.84,0-1.65-.3-2.51-.24s-1.75-.09-2.6,0a23,23,0,0,0-8,2.41c-2.42,1.37-3,1.46-6.61,5.26a19.74,19.74,0,0,0-4.17,7.2,23.08,23.08,0,0,0-1.2,8.6" style="fill: #706f6f"/>
  <path d="M244.06,120a4.66,4.66,0,0,0-1.62-3.23,3.51,3.51,0,0,0-2.53-.94,4.15,4.15,0,0,0-3,1.51,5.08,5.08,0,0,0-1,2.52,5.38,5.38,0,0,0,1.19,2.87,5.55,5.55,0,0,0,2.88,1.2,5.12,5.12,0,0,0,2.09-.69,4,4,0,0,0,1.66-1.85,7,7,0,0,0,.31-1.39m-3.85,5.52a5.68,5.68,0,0,1-4.21-1.63,5.3,5.3,0,0,1-1.65-4,5.65,5.65,0,1,1,11.3.07,5.6,5.6,0,0,1-5.44,5.6" style="fill: #706f6f"/>
  <path d="M255.44,123.45a5.51,5.51,0,0,1,.58.11,3.94,3.94,0,0,0,1.31.37,5.29,5.29,0,0,0,2.8-1.13,6.86,6.86,0,0,0,1.12-1.73,3.7,3.7,0,0,0,.2-1.48,4.37,4.37,0,0,0-1.6-2.83,3.7,3.7,0,0,0-3.84-.6,4.23,4.23,0,0,0-2.35,2.38,2.35,2.35,0,0,0-.3,1.67,4.82,4.82,0,0,0,.68,1.86c.44.52,1.06.85,1.4,1.38m6.86-6.52a5.53,5.53,0,0,0,.23.69,4.85,4.85,0,0,1,.21,4,5.47,5.47,0,0,1-3.31,3.52,3.27,3.27,0,0,1-1.66.34c-.54-.07-1.12.21-1.6-.22a4.92,4.92,0,0,1-3.76-2.84,5.14,5.14,0,0,1-.37-4.34,5,5,0,0,1,2.3-3,8.66,8.66,0,0,1,1.4-.69,5.79,5.79,0,0,1,4.89.81c.69.45,1,1.19,1.67,1.68" style="fill: #706f6f"/>
  <path d="M278.68,118.73l-.55-1.12c-.15-.15-.35-.32-.52-.52a4.54,4.54,0,0,0-2.55-1.23c-.44-.13-.67.11-1,.16a3.91,3.91,0,0,0-2.85,2,3.59,3.59,0,0,0-.24,2.89,4.22,4.22,0,0,0,4,3,3.19,3.19,0,0,0,2-.7,3.4,3.4,0,0,0,1.76-3.07c0-.49,0-1,0-1.42m-3.95,6.8a5.66,5.66,0,0,1-5.57-6,5.65,5.65,0,0,1,5.61-5.35,5.73,5.73,0,0,1,5.71,5.66,5.63,5.63,0,0,1-1.69,4,5.43,5.43,0,0,1-4.06,1.64" style="fill: #706f6f"/>
  <path d="M260.58,131.27v.9c-.3.52-.8.32-1.39.37l-.87-1.07v1.29c0,4.75,0,9.5,0,14.25a2.12,2.12,0,0,1-.33,1.34h-1.13c-.44-.37-.35-.9-.35-1.4V131.82l-.76.76c-.66-.11-1.15.15-1.49-.42v-.84l3.13-3.13a11.83,11.83,0,0,1,1.59,1.5c.55.52,1.07,1.06,1.6,1.58" style="fill: #706f6f"/>
  <path d="M240.93,148l-.37.36h-.94l-.55-.64V131.8l-.85.85-.14-.13h-1c-.06-.09-.16-.2-.29-.38v-.77l3.14-3.14h0s.08,0,.1,0c1,1,2,2,3,3v.92l-.33.33h-1.09l-.8-.93Z" style="fill: #706f6f"/>
  <path d="M275.74,147.86l-1,.7-.82-.47V131.67c-.29,0-.37.23-.51.35a5.55,5.55,0,0,0-.49.48h-1l-.29-.29v-.91l3.05-3.07a16.62,16.62,0,0,1,3.26,3.28v.68l-.33.33h-1l-.92-.94v3.32c0,.53,0,1.06,0,1.59s.21,1.11-.2,1.59c.44.45.15,1,.2,1.5s0,1,0,1.58v6.7Z" style="fill: #706f6f"/>
  <path d="M272.76,139.07H259.49v-1.46c.93-.16,9.72-.21,13.27-.07Z" style="fill: #706f6f"/>
  <rect x="242.08" y="137.54" width="13.27" height="1.51" style="fill: #706f6f"/>
  <path d="M414.22,86.9H374.4c0,1.06,0,2.08,0,3.1a13.1,13.1,0,0,0,.09,1.84,8.58,8.58,0,0,0,2.67,4.08,7.74,7.74,0,0,0,3.52,1.31q13.51,0,27,0a5.11,5.11,0,0,0,1.94-.37A8.42,8.42,0,0,0,412.39,95a10.69,10.69,0,0,0,1.52-2.74,3.53,3.53,0,0,0,.29-1.56c0-1.25,0-2.5,0-3.81M374.4,67.75h39.82c0-1.39.07-2.75,0-4.09a7.12,7.12,0,0,0-.93-2.82,6.07,6.07,0,0,0-2.46-2.46,6.28,6.28,0,0,0-3.24-1c-2.57.06-5.14,0-7.71,0H380.92a6.49,6.49,0,0,0-3.23,1,7.44,7.44,0,0,0-2,1.84,5.22,5.22,0,0,0-1.29,3.66c.08,1.25,0,2.51,0,3.82m34.4-12.31a1.48,1.48,0,0,0,.09-.28c0-3.17,0-6.35,0-9.52a9.86,9.86,0,0,0-.39-2.21,14.93,14.93,0,0,0-1.3-3.24,13.93,13.93,0,0,0-2.66-3.48c-.54-.53-1.21-1-1.75-1.51a1.81,1.81,0,0,0-.33-.2,20.72,20.72,0,0,0-2.78-1.41,15,15,0,0,0-4.44-1.08c-2.4-.18-2.35,0-5.4.81a13,13,0,0,0-5.65,3.26,16.8,16.8,0,0,0-2.57,3.14,23.77,23.77,0,0,0-1.87,4.54c-.11,1.18-.24,2.35-.27,3.53,0,1.86,0,3.73,0,5.6v2Zm5.39,14.37H374.45c-.18,4-.11,13.93.09,15h39.65ZM377.76,56.15c0-3.33,0-6.65,0-10a12.4,12.4,0,0,1,.64-4,12.87,12.87,0,0,1,2.07-4.18,19.19,19.19,0,0,1,2.1-2.61,18.2,18.2,0,0,1,5.51-3.59c.81-.3,1.65-.54,2.48-.77a18.65,18.65,0,0,1,6.05-.23,11.22,11.22,0,0,1,3.76,1c1,.44,1.92,1,2.9,1.47a6.1,6.1,0,0,1,1.51,1.07,17.29,17.29,0,0,1,4.77,6.42,25.9,25.9,0,0,1,1,3.63,23.44,23.44,0,0,1,.25,5.22c.05,1.73,0,3.45,0,5.18V56.1c.91.64,1.83,1.25,2.69,1.93a11.57,11.57,0,0,1,2.27,3.67,8.5,8.5,0,0,1,.35,2.23q0,13.38,0,26.76a9.77,9.77,0,0,1-1.59,4.66c-1.06,1.88-3,2.6-4.7,3.52a4.4,4.4,0,0,1-2,.31c-9.07,0-18.13.06-27.19,0a7.69,7.69,0,0,1-5.38-2.23,10.39,10.39,0,0,1-2.26-3.13,6.32,6.32,0,0,1-.65-2.54c0-9.29,0-18.58,0-27.88a7,7,0,0,1,1.09-3.33,9.19,9.19,0,0,1,4.22-3.9" style="fill: #706f6f"/>
  <path d="M440.09,97.79a2.37,2.37,0,0,1,.05-1.68H431.5a2.37,2.37,0,0,1-.1,1.68h8.69" style="fill: #706f6f"/>
  <path d="M462.37,94.36l-.61.34a17.66,17.66,0,0,0-2.55.65,21.67,21.67,0,0,1-2.45.49c-.9,0-1.79.26-2.69.26h-8.2a2.35,2.35,0,0,1-.11,1.69h7.91A27.71,27.71,0,0,0,460.2,97a19.19,19.19,0,0,0,3.23-1.1,2.08,2.08,0,0,1-1.06-1.55" style="fill: #706f6f"/>
  <path d="M425.58,96.11h-8.87c-.44.53-.77.94-1.1,1.35,0,.19,0,.37,0,.57a2.45,2.45,0,0,1,1.58-.23h8.31a2.37,2.37,0,0,1,0-1.68" style="fill: #706f6f"/>
  <path d="M421.42,34.94a26.35,26.35,0,0,1,3.6-.81,30.5,30.5,0,0,1,3.81-.27,17.13,17.13,0,0,1,3.8.36,18.53,18.53,0,0,1,3.58.81,26.41,26.41,0,0,1,3.34,1.39,27.1,27.1,0,0,1,3.11,2c1,.73,2,1.55,2.95,2.36a15.69,15.69,0,0,1,2.52,2.88,24.84,24.84,0,0,1,2,3.09c.56,1.06.9,2.24,1.42,3.33s.66,2.34,1.16,3.44c1.47.14,2.94-.18,4.38.28.45.14.95.12,1.44.26a14.72,14.72,0,0,1,1.55.32,24.77,24.77,0,0,1,4.61,2.08c1,.66,2,1.38,2.94,2.07.19.13.38.27.56.42a1.92,1.92,0,0,1,1.21-1.36,7,7,0,0,0-.54-.55c-.55-.45-1.14-.85-1.72-1.25a23.23,23.23,0,0,0-4.46-2.44,20.74,20.74,0,0,0-5.13-1.43c-1.15-.16-2.33-.26-3.48-.42-.56-1.28-.86-2.64-1.45-3.9a25.88,25.88,0,0,0-3.94-6.2,26.76,26.76,0,0,0-4-3.82,31.13,31.13,0,0,0-4-2.54,28.25,28.25,0,0,0-5.32-2,50.57,50.57,0,0,0-6.29-1,4.43,4.43,0,0,0-1.26,0,8.62,8.62,0,0,1-1.29.25,16,16,0,0,0-4.12.56,26.9,26.9,0,0,0-5.4,1.85,24.21,24.21,0,0,0-2.41,1.29,18,18,0,0,0-3.47,2.62,1.87,1.87,0,0,0,.6,1.73c1.09-.74,2.16-1.38,3.12-2.16A16.14,16.14,0,0,1,418,36.16c1.08-.52,2.28-.81,3.41-1.22" style="fill: #706f6f"/>
  <path d="M406.65,47.12a31.73,31.73,0,0,0-2.35,6.05h-1.86a28.07,28.07,0,0,1,3.75-9.06c.46.7.46.7.46,3" style="fill: #706f6f"/>
  <path d="M474.09,98.94c.67-.48,1.2-.88,1.74-1.26s1-.69,1.48-1.08.78-.74,1.22-1a14.93,14.93,0,0,0,1.84-1.51c1.05-1.08,2.17-2.09,3.13-3.27.74-.91,1.47-1.82,2.19-2.76a38.15,38.15,0,0,0,3.24-5.25c.28-.53.45-1.1.7-1.63s.5-1,.73-1.53a1.27,1.27,0,0,0,0-.4h-9.82A4.33,4.33,0,0,1,478.7,79l-.25-.51.45-.75H491c.23-.78.47-1.51.63-2.26s.28-1.48.43-2.21a9.28,9.28,0,0,0,.31-2.34c.48-.73.06-1.56.27-2.35a16.36,16.36,0,0,0,.11-2.44,21.83,21.83,0,0,0-.21-2.3c0-.79-.14-1.58-.21-2.32H474.07v2.68c0,.91,0,1.83,0,2.74a11.88,11.88,0,0,1-.1,2.59H485.2l.57.44c.12.47-.24.62-.49.89H474.07V80c0,1,0,2,0,3a12.75,12.75,0,0,1-.12,2.95h5.55l.49.55-.32.77h-5.57Zm-1.52,0V61.5H454.29c0,.26.08.51,0,.67a2.84,2.84,0,0,0-.16,1.49,12.26,12.26,0,0,0-.21,1.48c.12,1.53-.17,3.07.2,4.59a8.23,8.23,0,0,0,.22,2.48,21.18,21.18,0,0,0,.51,2.71c.16.6.36,1.19.52,1.79a38.75,38.75,0,0,0,1.32,3.94,12.46,12.46,0,0,0,1,2.22,16,16,0,0,0,1.71,2.87,26.46,26.46,0,0,0,4.17,5.58c1,1.12,2.09,2.14,3.16,3.18a14.14,14.14,0,0,0,1.55,1.35c.65.48,1.3,1,2,1.43l2.31,1.66M453,60.93a1.27,1.27,0,0,1,1.38-1h38.44a1.5,1.5,0,0,1,.84,1.48c0,.4.12.8.17,1.21s-.11.76.17,1.12c.09.11,0,.36,0,.54,0,1.55,0,3.11,0,4.67,0,.46-.12.92-.17,1.39a4.92,4.92,0,0,1-.16,1.3,9.93,9.93,0,0,0-.22,1.65c-.16.9-.36,1.8-.58,2.69s-.46,1.64-.69,2.46c0,.08,0,.21,0,.26a7.4,7.4,0,0,0-.89,2.11c-.59,1.5-1.37,2.91-2.1,4.34a31.3,31.3,0,0,1-1.93,3.05,21.83,21.83,0,0,1-1.81,2.37c-.33.37-.61.8-1,1.14a8.87,8.87,0,0,0-1,1,13,13,0,0,1-2.14,2.12c-.69.56-1.27,1.27-2,1.81-.92.67-1.78,1.41-2.72,2s-1.89,1.33-2.86,2h-.83c-.72-.5-1.4-1-2.11-1.45-.94-.59-1.77-1.33-2.67-2s-1.74-1.49-2.66-2.17a13.85,13.85,0,0,1-1.5-1.47,44.75,44.75,0,0,1-3.39-3.89,41.55,41.55,0,0,1-2.49-3.47,33.63,33.63,0,0,1-1.8-3.28,32.37,32.37,0,0,1-2.13-5.43,14.32,14.32,0,0,1-.81-3.42c-.27-.34-.06-.78-.21-1.1A3.72,3.72,0,0,1,453,72a4.84,4.84,0,0,1-.19-1,1.3,1.3,0,0,0-.15-.94c-.09-.13,0-.36,0-.54,0-1.86,0-3.72,0-5.59a6.11,6.11,0,0,1,.18-1.11c.06-.37-.12-.75.15-1.13.15-.2,0-.59,0-.78" style="fill: #706f6f"/>
  <path d="M426.56,81.9a5.33,5.33,0,0,1,.55.11,4,4,0,0,0,1.27.36,5.11,5.11,0,0,0,2.72-1.1,6.66,6.66,0,0,0,1.08-1.67,4.05,4.05,0,0,0,.2-1.43,4.3,4.3,0,0,0-1.55-2.74,3.61,3.61,0,0,0-3.73-.59,4.09,4.09,0,0,0-2.27,2.31,2.35,2.35,0,0,0-.3,1.61,4.85,4.85,0,0,0,.67,1.81c.43.51,1,.82,1.36,1.33m6.63-6.31c.09.28.14.48.22.67a4.66,4.66,0,0,1,.21,3.9,5.32,5.32,0,0,1-3.21,3.41,3.26,3.26,0,0,1-1.61.33c-.51-.07-1.08.2-1.54-.22a4.74,4.74,0,0,1-3.64-2.74,5,5,0,0,1-.35-4.21,4.79,4.79,0,0,1,2.22-2.88,7.8,7.8,0,0,1,1.36-.67,5.64,5.64,0,0,1,4.73.78c.67.44,1,1.16,1.61,1.63" style="fill: #706f6f"/>
  <path d="M431.53,89.48v.87c-.3.5-.77.3-1.35.36l-.84-1v1.25c0,4.59,0,9.19,0,13.79A2.06,2.06,0,0,1,429,106h-1.09c-.43-.36-.34-.87-.34-1.36q0-6.84,0-13.68V90l-.72.73c-.64-.11-1.12.15-1.44-.41v-.81l3-3A11.75,11.75,0,0,1,430,88c.53.5,1,1,1.55,1.53" style="fill: #706f6f"/>
  <path d="M440.61,81.9a5.56,5.56,0,0,1,.56.11,4,4,0,0,0,1.27.36,5.08,5.08,0,0,0,2.71-1.1,6.69,6.69,0,0,0,1.09-1.67,3.82,3.82,0,0,0,.19-1.43,4.25,4.25,0,0,0-1.55-2.74,3.6,3.6,0,0,0-3.72-.59,4.09,4.09,0,0,0-2.27,2.31,2.35,2.35,0,0,0-.3,1.61,4.68,4.68,0,0,0,.67,1.81c.42.51,1,.82,1.35,1.33m6.64-6.31a5.86,5.86,0,0,0,.22.67,4.7,4.7,0,0,1,.21,3.9,5.32,5.32,0,0,1-3.21,3.41,3.26,3.26,0,0,1-1.61.33c-.52-.07-1.08.2-1.55-.22a4.73,4.73,0,0,1-3.63-2.74,5,5,0,0,1-.36-4.21,4.86,4.86,0,0,1,2.22-2.88,8.57,8.57,0,0,1,1.36-.67,5.66,5.66,0,0,1,4.74.78c.67.44,1,1.16,1.61,1.63" style="fill: #706f6f"/>
  <path d="M445.58,89.48v.87c-.29.5-.76.3-1.34.36l-.85-1v1.25q0,6.89,0,13.79a2.06,2.06,0,0,1-.32,1.3H442c-.43-.36-.35-.87-.35-1.36V90l-.73.73c-.64-.11-1.11.15-1.44-.41v-.81l3-3A12.42,12.42,0,0,1,444,88c.53.5,1,1,1.54,1.53" style="fill: #706f6f"/>
  <path d="M419,52.79a1.48,1.48,0,0,1-.05-1.89h18.95a1.37,1.37,0,0,1,0,1.89Z" style="fill: #706f6f"/>
  <path d="M419.11,62.1c-.77-.67-.55-1.27-.07-1.89h26.17c.73.77.74,1,.05,1.89Z" style="fill: #706f6f"/>
  <text transform="translate(370.02 382.48)" style="font-size: 10px;fill: #524f59;font-family: OpenSans, Open Sans">their eyes of the goal and</text>
</svg>
