<svg id="Layer_1" data-name="Layer 1" xmlns="http://www.w3.org/2000/svg" xmlns:xlink="http://www.w3.org/1999/xlink" viewBox="0 0 543 470">
  <defs>
    <linearGradient id="linear-gradient" x1="-708.62" y1="-25.13" x2="-707.62" y2="-25.13" gradientTransform="matrix(495.45, 0, 0, -495.45, 351108.5, -12302.62)" gradientUnits="userSpaceOnUse">
      <stop offset="0" stop-color="#00a0c3"/>
      <stop offset="0.51" stop-color="#eab224"/>
      <stop offset="1" stop-color="#c92520"/>
    </linearGradient>
  </defs>
  <title>rankings</title>
  <rect width="543" height="470" style="fill: #fff"/>
  <text transform="translate(24.9 246.55)" style="font-size: 10px;fill: #524f59;font-family: OpenSans, Open Sans">organizations rarely view </text>
  <text transform="translate(24.9 260.05)" style="font-size: 10px;fill: #524f59;font-family: OpenSans, Open Sans">cloud as a vehicle for </text>
  <path d="M29.25,273.37a3,3,0,0,1-1.35.27,2.26,2.26,0,0,1-1.8-.71,2.93,2.93,0,0,1-.64-2,3,3,0,0,1,.65-2.07A2.31,2.31,0,0,1,28,268.1a3.3,3.3,0,0,1,.77.08,2.55,2.55,0,0,1,.61.2l-.25.68a3.15,3.15,0,0,0-.59-.17,2.43,2.43,0,0,0-.56-.08c-1.08,0-1.63.7-1.63,2.09a2.45,2.45,0,0,0,.4,1.51,1.4,1.4,0,0,0,1.18.53,3.63,3.63,0,0,0,1.37-.29v.72Zm5.89-2.5a2.94,2.94,0,0,1-.66,2,2.32,2.32,0,0,1-1.82.73,2.49,2.49,0,0,1-1.28-.33,2.24,2.24,0,0,1-.85-1,3.25,3.25,0,0,1-.31-1.47,2.91,2.91,0,0,1,.66-2,2.57,2.57,0,0,1,3.6,0A3,3,0,0,1,35.14,270.87Zm-4.08,0a2.57,2.57,0,0,0,.41,1.56,1.63,1.63,0,0,0,2.42,0,2.57,2.57,0,0,0,.41-1.56,2.51,2.51,0,0,0-.41-1.55,1.44,1.44,0,0,0-1.22-.53,1.42,1.42,0,0,0-1.2.52A2.53,2.53,0,0,0,31.06,270.87Zm12.32,2.68v-3.49a1.44,1.44,0,0,0-.27-.95,1,1,0,0,0-.85-.32,1.36,1.36,0,0,0-1.12.43,2.08,2.08,0,0,0-.36,1.34v3H40v-3.49a1.38,1.38,0,0,0-.28-.95,1,1,0,0,0-.85-.32,1.34,1.34,0,0,0-1.12.45,2.55,2.55,0,0,0-.35,1.5v2.81h-.81v-5.36h.66l.13.74h0a1.53,1.53,0,0,1,.65-.61,1.93,1.93,0,0,1,.93-.22,1.58,1.58,0,0,1,1.64.91h0a1.68,1.68,0,0,1,.7-.67,2.15,2.15,0,0,1,1-.24,1.81,1.81,0,0,1,1.36.46,2.1,2.1,0,0,1,.45,1.5v3.49Zm5,.09a2.24,2.24,0,0,1-1-.19,1.89,1.89,0,0,1-.73-.59h-.06a7,7,0,0,1,.06.89V276h-.81v-7.76h.66l.11.74h0a1.83,1.83,0,0,1,.73-.64,2.18,2.18,0,0,1,1-.19,2,2,0,0,1,1.64.72,3.21,3.21,0,0,1,.58,2.05,3.12,3.12,0,0,1-.59,2A2,2,0,0,1,48.35,273.64Zm-.12-4.85a1.43,1.43,0,0,0-1.18.45,2.31,2.31,0,0,0-.38,1.45v.18a2.66,2.66,0,0,0,.38,1.61,1.43,1.43,0,0,0,1.2.49,1.25,1.25,0,0,0,1.09-.57,2.66,2.66,0,0,0,.39-1.54,2.59,2.59,0,0,0-.39-1.54A1.28,1.28,0,0,0,48.23,268.79Zm6,4.85a2.46,2.46,0,0,1-1.87-.72,2.79,2.79,0,0,1-.69-2,3.07,3.07,0,0,1,.64-2.05A2.09,2.09,0,0,1,54,268.1a2,2,0,0,1,1.59.66,2.53,2.53,0,0,1,.59,1.74V271H52.53a2.15,2.15,0,0,0,.48,1.43,1.66,1.66,0,0,0,1.27.49,4.15,4.15,0,0,0,1.71-.37v.73a4.43,4.43,0,0,1-.81.26A4.24,4.24,0,0,1,54.25,273.64ZM54,268.78a1.33,1.33,0,0,0-1,.42,2,2,0,0,0-.45,1.16h2.8a1.8,1.8,0,0,0-.34-1.18A1.22,1.22,0,0,0,54,268.78Zm5.3,4.2a2.71,2.71,0,0,0,.41,0l.32-.06v.62a1.8,1.8,0,0,1-.39.1,2.6,2.6,0,0,1-.46,0c-1,0-1.55-.54-1.55-1.63v-3.19h-.77v-.39l.77-.33L58,267h.47v1.24H60v.63H58.47V272a1.12,1.12,0,0,0,.23.75A.8.8,0,0,0,59.33,273Zm1.73-6.24a.52.52,0,0,1,.14-.4.45.45,0,0,1,.34-.13.48.48,0,0,1,.34.13.54.54,0,0,1,.14.4.55.55,0,0,1-.14.41.49.49,0,0,1-.34.14.46.46,0,0,1-.34-.14A.55.55,0,0,1,61.06,266.74Zm.88,6.81h-.81v-5.36h.81Zm3.45-.57a2.71,2.71,0,0,0,.41,0l.32-.06v.62a1.8,1.8,0,0,1-.39.1,2.6,2.6,0,0,1-.46,0c-1,0-1.55-.54-1.55-1.63v-3.19H63v-.39l.77-.33.34-1.15h.47v1.24h1.55v.63H64.53V272a1.12,1.12,0,0,0,.23.75A.8.8,0,0,0,65.39,273Zm1.73-6.24a.52.52,0,0,1,.14-.4.45.45,0,0,1,.34-.13.48.48,0,0,1,.34.13.54.54,0,0,1,.14.4.55.55,0,0,1-.14.41.49.49,0,0,1-.34.14.46.46,0,0,1-.34-.14A.55.55,0,0,1,67.12,266.74Zm.88,6.81h-.81v-5.36H68Zm2.89,0-2-5.36h.87l1.15,3.18a13.7,13.7,0,0,1,.46,1.44h0c0-.17.15-.53.34-1.07s.62-1.72,1.28-3.55h.87l-2,5.36Zm6.1.09a2.46,2.46,0,0,1-1.87-.72,2.79,2.79,0,0,1-.69-2,3.07,3.07,0,0,1,.64-2.05,2.09,2.09,0,0,1,1.71-.76,2,2,0,0,1,1.59.66A2.53,2.53,0,0,1,79,270.5V271H75.27a2.15,2.15,0,0,0,.48,1.43,1.66,1.66,0,0,0,1.27.49,4.15,4.15,0,0,0,1.71-.37v.73a4.43,4.43,0,0,1-.81.26A4.24,4.24,0,0,1,77,273.64Zm-.22-4.86a1.33,1.33,0,0,0-1,.42,2,2,0,0,0-.45,1.16h2.8a1.8,1.8,0,0,0-.34-1.18A1.22,1.22,0,0,0,76.77,268.78Zm9.81,4.05h0a1.92,1.92,0,0,1-1.68.81,2,2,0,0,1-1.63-.71,3.16,3.16,0,0,1-.59-2,3.22,3.22,0,0,1,.59-2.06,2,2,0,0,1,1.63-.73,1.94,1.94,0,0,1,1.67.79h.06l0-.39,0-.37V266h.81v7.6h-.66ZM85,273a1.49,1.49,0,0,0,1.21-.46,2.32,2.32,0,0,0,.37-1.45v-.17a2.73,2.73,0,0,0-.38-1.63,1.44,1.44,0,0,0-1.21-.48,1.24,1.24,0,0,0-1.09.55,2.78,2.78,0,0,0-.38,1.57,2.63,2.63,0,0,0,.38,1.54A1.27,1.27,0,0,0,85,273Zm4-6.23a.52.52,0,0,1,.14-.4.45.45,0,0,1,.34-.13.48.48,0,0,1,.34.13.54.54,0,0,1,.14.4.55.55,0,0,1-.14.41.49.49,0,0,1-.34.14.46.46,0,0,1-.34-.14A.55.55,0,0,1,89,266.74Zm.88,6.81h-.81v-5.36h.81ZM94,268.82H92.65v4.73h-.81v-4.73h-1v-.36l1-.29v-.3c0-1.32.57-2,1.72-2a3.32,3.32,0,0,1,1,.17l-.21.65a2.45,2.45,0,0,0-.8-.16.79.79,0,0,0-.68.31,1.67,1.67,0,0,0-.22,1v.34H94Zm3.39,0H96v4.73h-.81v-4.73h-1v-.36l1-.29v-.3c0-1.32.57-2,1.72-2a3.32,3.32,0,0,1,1,.17l-.21.65a2.45,2.45,0,0,0-.8-.16.79.79,0,0,0-.68.31,1.67,1.67,0,0,0-.22,1v.34H97.4Zm3.24,4.82a2.46,2.46,0,0,1-1.87-.72,2.79,2.79,0,0,1-.69-2,3.07,3.07,0,0,1,.64-2.05,2.09,2.09,0,0,1,1.71-.76,2,2,0,0,1,1.59.66,2.53,2.53,0,0,1,.59,1.74V271H98.92a2.15,2.15,0,0,0,.48,1.43,1.66,1.66,0,0,0,1.27.49,4.15,4.15,0,0,0,1.71-.37v.73a4.43,4.43,0,0,1-.81.26A4.24,4.24,0,0,1,100.64,273.64Zm-.22-4.86a1.33,1.33,0,0,0-1,.42,2,2,0,0,0-.45,1.16h2.8a1.8,1.8,0,0,0-.34-1.18A1.22,1.22,0,0,0,100.42,268.78Zm6-.68a3.1,3.1,0,0,1,.64.06l-.11.75a2.75,2.75,0,0,0-.59-.08,1.44,1.44,0,0,0-1.11.53,1.91,1.91,0,0,0-.46,1.32v2.87H104v-5.36h.67l.09,1h0a2.38,2.38,0,0,1,.72-.81A1.61,1.61,0,0,1,106.43,268.1Zm3.9,5.54a2.46,2.46,0,0,1-1.87-.72,2.79,2.79,0,0,1-.69-2,3.12,3.12,0,0,1,.64-2.05,2.11,2.11,0,0,1,1.71-.76,2,2,0,0,1,1.59.66,2.53,2.53,0,0,1,.59,1.74V271h-3.69a2.15,2.15,0,0,0,.48,1.43,1.66,1.66,0,0,0,1.27.49,4.15,4.15,0,0,0,1.71-.37v.73a4.43,4.43,0,0,1-.81.26A4.24,4.24,0,0,1,110.33,273.64Zm-.22-4.86a1.33,1.33,0,0,0-1,.42,2,2,0,0,0-.45,1.16h2.8a1.8,1.8,0,0,0-.34-1.18A1.22,1.22,0,0,0,110.11,268.78Zm7.23,4.77v-3.47a1.37,1.37,0,0,0-.3-1,1.17,1.17,0,0,0-.93-.32,1.54,1.54,0,0,0-1.23.45,2.29,2.29,0,0,0-.39,1.5v2.81h-.81v-5.36h.66l.13.74h0a1.69,1.69,0,0,1,.7-.62,2.33,2.33,0,0,1,1-.21,2,2,0,0,1,1.45.46,2,2,0,0,1,.49,1.5v3.49Zm4.21-.57a2.71,2.71,0,0,0,.41,0l.32-.06v.62a1.8,1.8,0,0,1-.39.1,2.6,2.6,0,0,1-.46,0c-1,0-1.55-.54-1.55-1.63v-3.19h-.77v-.39l.77-.33.34-1.15h.47v1.24h1.55v.63h-1.55V272a1.12,1.12,0,0,0,.23.75A.8.8,0,0,0,121.55,273Zm1.73-6.24a.52.52,0,0,1,.14-.4.45.45,0,0,1,.34-.13.48.48,0,0,1,.34.13.54.54,0,0,1,.14.4.55.55,0,0,1-.14.41.49.49,0,0,1-.34.14.46.46,0,0,1-.34-.14A.55.55,0,0,1,123.28,266.74Zm.88,6.81h-.81v-5.36h.81Zm5,0-.16-.77h0a2.24,2.24,0,0,1-.8.69,2.55,2.55,0,0,1-1,.17,1.76,1.76,0,0,1-1.25-.41,1.48,1.48,0,0,1-.45-1.16c0-1.08.86-1.65,2.59-1.7l.91,0V270a1.36,1.36,0,0,0-.27-.93,1.12,1.12,0,0,0-.87-.3,3.44,3.44,0,0,0-1.51.41l-.25-.62a3.36,3.36,0,0,1,.87-.34,3.79,3.79,0,0,1,.94-.12,2.06,2.06,0,0,1,1.42.42,1.76,1.76,0,0,1,.46,1.36v3.66Zm-1.83-.57a1.63,1.63,0,0,0,1.19-.42,1.52,1.52,0,0,0,.43-1.16v-.49l-.81,0a2.87,2.87,0,0,0-1.39.3.9.9,0,0,0-.43.83.85.85,0,0,0,.27.67A1.09,1.09,0,0,0,127.34,273Zm5.83,0a2.71,2.71,0,0,0,.41,0l.32-.06v.62a1.8,1.8,0,0,1-.39.1,2.6,2.6,0,0,1-.46,0c-1,0-1.55-.54-1.55-1.63v-3.19h-.77v-.39l.77-.33.34-1.15h.47v1.24h1.55v.63h-1.55V272a1.12,1.12,0,0,0,.23.75A.8.8,0,0,0,133.17,273Zm1.73-6.24a.52.52,0,0,1,.14-.4.45.45,0,0,1,.34-.13.48.48,0,0,1,.34.13.54.54,0,0,1,.14.4.55.55,0,0,1-.14.41.49.49,0,0,1-.34.14.46.46,0,0,1-.34-.14A.55.55,0,0,1,134.9,266.74Zm.88,6.81H135v-5.36h.81Zm6.34-2.68a2.94,2.94,0,0,1-.66,2,2.32,2.32,0,0,1-1.82.73,2.49,2.49,0,0,1-1.28-.33,2.24,2.24,0,0,1-.85-1,3.25,3.25,0,0,1-.31-1.47,2.91,2.91,0,0,1,.66-2,2.57,2.57,0,0,1,3.6,0A3,3,0,0,1,142.12,270.87Zm-4.08,0a2.57,2.57,0,0,0,.41,1.56,1.63,1.63,0,0,0,2.42,0,2.57,2.57,0,0,0,.41-1.56,2.51,2.51,0,0,0-.41-1.55,1.44,1.44,0,0,0-1.22-.53,1.42,1.42,0,0,0-1.2.52A2.53,2.53,0,0,0,138,270.87Zm9.16,2.68v-3.47a1.37,1.37,0,0,0-.3-1,1.17,1.17,0,0,0-.93-.32,1.54,1.54,0,0,0-1.23.45,2.29,2.29,0,0,0-.39,1.5v2.81h-.81v-5.36h.66l.13.74h0a1.69,1.69,0,0,1,.7-.62,2.33,2.33,0,0,1,1-.21,2,2,0,0,1,1.45.46,2,2,0,0,1,.49,1.5v3.49Z" style="fill: #524f59"/>
  <text transform="translate(24.9 287.05)" style="font-size: 10px;fill: #524f59;font-family: OpenSans, Open Sans">and just see it as a tactical </text>
  <text transform="translate(24.9 300.55)" style="font-size: 10px;fill: #524f59;font-family: OpenSans, Open Sans">tool for cost savings. Their </text>
  <text transform="translate(24.9 314.05)" style="font-size: 10px;fill: #524f59;font-family: OpenSans, Open Sans">key priority is to carry on </text>
  <text transform="translate(24.9 327.55)" style="font-size: 10px;fill: #524f59;font-family: OpenSans, Open Sans">as is in their IT journey </text>
  <text transform="translate(24.9 341.05)" style="font-size: 10px;fill: #524f59;font-family: OpenSans, Open Sans">and dedicate little budgets </text>
  <text transform="translate(24.9 354.55)" style="font-size: 10px;fill: #524f59;font-family: OpenSans, Open Sans">to core IT and application </text>
  <text transform="translate(24.9 368.05)" style="font-size: 10px;fill: #524f59;font-family: OpenSans, Open Sans">modernization strategies. </text>
  <text transform="translate(24.9 381.55)" style="font-size: 10px;fill: #524f59;font-family: OpenSans, Open Sans">These organizations also don’t </text>
  <text transform="translate(24.9 395.05)" style="font-size: 10px;fill: #524f59;font-family: OpenSans, Open Sans">regard data value realization </text>
  <text transform="translate(24.9 408.55)" style="font-size: 10px;fill: #524f59;font-family: OpenSans, Open Sans">as critical for digital business </text>
  <text transform="translate(24.9 422.05)" style="font-size: 10px;fill: #524f59;font-family: OpenSans, Open Sans">success.</text>
  <text transform="translate(200.84 198.11)" style="font-size: 10px;fill: #524f59;font-family: OpenSans, Open Sans">Cloud Practitioners </text>
  <text transform="translate(200.84 211.61)" style="font-size: 10px;fill: #524f59;font-family: OpenSans, Open Sans">understand the value of </text>
  <text transform="translate(200.84 225.11)" style="font-size: 10px;fill: #524f59;font-family: OpenSans, Open Sans">cloud as a digital business </text>
  <text transform="translate(200.84 238.61)" style="font-size: 10px;fill: #524f59;font-family: OpenSans, Open Sans">enabler and have ambitions </text>
  <text transform="translate(200.84 252.11)" style="font-size: 10px;fill: #524f59;font-family: OpenSans, Open Sans">to become a data-driven </text>
  <text transform="translate(200.84 265.61)" style="font-size: 10px;fill: #524f59;font-family: OpenSans, Open Sans">organization. While these </text>
  <text transform="translate(200.84 279.11)" style="font-size: 10px;fill: #524f59;font-family: OpenSans, Open Sans">organizations are well into </text>
  <text transform="translate(200.84 292.61)" style="font-size: 10px;fill: #524f59;font-family: OpenSans, Open Sans">their cloud adoption and </text>
  <text transform="translate(200.84 306.11)" style="font-size: 10px;fill: #524f59;font-family: OpenSans, Open Sans">IT modernization journeys, </text>
  <text transform="translate(200.84 319.61)" style="font-size: 10px;fill: #524f59;font-family: OpenSans, Open Sans">they are facing stumbling </text>
  <text transform="translate(200.84 333.11)" style="font-size: 10px;fill: #524f59;font-family: OpenSans, Open Sans">blocks to make that cloud </text>
  <text transform="translate(200.84 346.61)" style="font-size: 10px;fill: #524f59;font-family: OpenSans, Open Sans">transformation end-to-end </text>
  <text transform="translate(200.84 360.11)" style="font-size: 10px;fill: #524f59;font-family: OpenSans, Open Sans">and achieve all business </text>
  <text transform="translate(200.84 373.61)" style="font-size: 10px;fill: #524f59;font-family: OpenSans, Open Sans">objectives. They certainly </text>
  <text transform="translate(200.84 387.11)" style="font-size: 10px;fill: #524f59;font-family: OpenSans, Open Sans">have the cloud vision and </text>
  <text transform="translate(200.84 400.61)" style="font-size: 10px;fill: #524f59;font-family: OpenSans, Open Sans">determination to make </text>
  <text transform="translate(200.84 414.11)" style="font-size: 10px;fill: #524f59;font-family: OpenSans, Open Sans">progress and will be focusing </text>
  <text transform="translate(200.84 427.61)" style="font-size: 10px;fill: #524f59;font-family: OpenSans, Open Sans">on overcoming the challenges </text>
  <text transform="translate(200.84 441.11)" style="font-size: 10px;fill: #524f59;font-family: OpenSans, Open Sans">to graduate to the next stage </text>
  <text transform="translate(200.84 454.61)" style="font-size: 10px;fill: #524f59;font-family: OpenSans, Open Sans">of maturity. </text>
  <text transform="translate(370.02 155.48)" style="font-size: 10px;fill: #524f59;font-family: OpenSans, Open Sans">Cloud Masters have </text>
  <text transform="translate(370.02 168.98)" style="font-size: 10px;fill: #524f59;font-family: OpenSans, Open Sans">successfully overcome most </text>
  <text transform="translate(370.02 182.48)" style="font-size: 10px;fill: #524f59;font-family: OpenSans, Open Sans">of the challenges in achieving </text>
  <text transform="translate(370.02 195.98)" style="font-size: 10px;fill: #524f59;font-family: OpenSans, Open Sans">their cloud migration, </text>
  <text transform="translate(370.02 209.48)" style="font-size: 10px;fill: #524f59;font-family: OpenSans, Open Sans">application modernization, </text>
  <text transform="translate(370.02 222.98)" style="font-size: 10px;fill: #524f59;font-family: OpenSans, Open Sans">and data-driven strategy </text>
  <text transform="translate(370.02 236.48)" style="font-size: 10px;fill: #524f59;font-family: OpenSans, Open Sans">objectives. But as business </text>
  <text transform="translate(370.02 249.98)" style="font-size: 10px;fill: #524f59;font-family: OpenSans, Open Sans">dynamics, cloud services and </text>
  <text transform="translate(370.02 263.48)" style="font-size: 10px;fill: #524f59;font-family: OpenSans, Open Sans">security needs are constantly </text>
  <text transform="translate(370.02 276.98)" style="font-size: 10px;fill: #524f59;font-family: OpenSans, Open Sans">evolving, as are business </text>
  <text transform="translate(370.02 290.48)" style="font-size: 10px;fill: #524f59;font-family: OpenSans, Open Sans">needs, their key priority is in </text>
  <text transform="translate(370.02 303.98)" style="font-size: 10px;fill: #524f59;font-family: OpenSans, Open Sans">maintaining their competitive </text>
  <text transform="translate(370.02 317.48)" style="font-size: 10px;fill: #524f59;font-family: OpenSans, Open Sans">edge by keeping their cloud </text>
  <text transform="translate(370.02 330.98)" style="font-size: 10px;fill: #524f59;font-family: OpenSans, Open Sans">and data-driven strategy </text>
  <text transform="translate(370.02 344.48)" style="font-size: 10px;fill: #524f59;font-family: OpenSans, Open Sans">current. They are not taking </text>
  <text transform="translate(370.02 384.98)" style="font-size: 10px;fill: #524f59;font-family: OpenSans, Open Sans">bottlenecks, security postures </text>
  <text transform="translate(370.02 398.48)" style="font-size: 10px;fill: #524f59;font-family: OpenSans, Open Sans">and new data-related </text>
  <text transform="translate(370.02 411.98)" style="font-size: 10px;fill: #524f59;font-family: OpenSans, Open Sans">opportunities to remain the </text>
  <text transform="translate(370.02 425.48)" style="font-size: 10px;fill: #524f59;font-family: OpenSans, Open Sans">masters.</text>
  <text transform="translate(24.9 226.33)" style="font-size: 14px;fill: #2476ba;font-family: OpenSans-Bold, Open Sans;font-weight: 700">Cloud Starter</text>
  <text transform="translate(200.84 175.42)" style="font-size: 14px;fill: #2476ba;font-family: OpenSans-Bold, Open Sans;font-weight: 700">Cloud Practitioner</text>
  <text transform="translate(370.02 128.54)" style="font-size: 14px;fill: #2476ba;font-family: OpenSans-Bold, Open Sans;font-weight: 700">Cloud Master</text>
  <polygon points="22.76 195.34 180.53 195.34 180.53 143.65 345.87 143.65 345.87 98.55 518.21 98.55 518.21 99.55 346.87 99.55 346.87 144.65 181.53 144.65 181.53 196.34 22.76 196.34 22.76 195.34 22.76 195.34" style="fill: url(#linear-gradient)"/>
  <path d="M63,146.41c-.52,0-1,.15-1.36,0s-.88,0-1.24-.19A2.65,2.65,0,0,0,59,146a4.57,4.57,0,0,0-2.17.23,10.7,10.7,0,0,0-4.67,1.42,24,24,0,0,0-2.51,1.75,12.51,12.51,0,0,0-2.3,2.48,13.92,13.92,0,0,0-1.86,3.59A6,6,0,0,0,45,157.8a20.89,20.89,0,0,0,.16,4.25,14.36,14.36,0,0,0,1.09,3.32,13.23,13.23,0,0,0,3.6,4.5A7.52,7.52,0,0,0,51.39,171c.57.25,1.09.6,1.67.86a14.45,14.45,0,0,0,5.8,1.26q21,.06,42,0a10.52,10.52,0,0,0,2.76-.27,13.39,13.39,0,0,0,1.43-.28,22.81,22.81,0,0,0,4.07-1.75c.49-.32,1-.69,1.48-1a6.35,6.35,0,0,0,1-.84c.32-.26.69-.47,1-.75s.43-.62.69-.89a13.56,13.56,0,0,0,3.31-7c.47-.41,0-1,.28-1.41a2,2,0,0,0,.18-1.44c0-1-.13-2-.22-3.07,0-.14-.17-.26-.19-.39a17.26,17.26,0,0,0-1-2.9,15,15,0,0,0-1-2c-.39-.72-1-1.3-1.48-2a14.78,14.78,0,0,0-2.2-2.13,6.14,6.14,0,0,0-.63-.48,14.42,14.42,0,0,0-3.41-1.85c-.65-.26-1.32-.49-2-.7a12.26,12.26,0,0,0-2.29-.27,6.53,6.53,0,0,1-.77-.14,2.78,2.78,0,0,0-2,.11c-.43-1-.55-2.11-1-3.12a23,23,0,0,0-2.14-3.93,23.59,23.59,0,0,0-2.18-2.41,17.37,17.37,0,0,0-5.72-3.74A20.31,20.31,0,0,0,82,127a4,4,0,0,0-2,.17,15.59,15.59,0,0,1-2,.24,19.7,19.7,0,0,0-8.33,3.85,21.4,21.4,0,0,0-3,3,11.37,11.37,0,0,0-.82,1.19,18.71,18.71,0,0,0-1.74,3.39,13.18,13.18,0,0,0-.86,2.81,9.6,9.6,0,0,0-.29,2.83.49.49,0,0,1-.14.37c.08.65.14,1.08.19,1.54m37.87-6.36a30.23,30.23,0,0,1,5.55,1,29.08,29.08,0,0,1,3.32,1.5,16.09,16.09,0,0,1,4.23,3.29,16.51,16.51,0,0,1,3.83,6.64,7,7,0,0,1,.52,3.2,5.72,5.72,0,0,1,.24,2.36c0,.57-.31,1.07-.27,1.67a3.69,3.69,0,0,1-.25,1.64c-.23.55-.26,1.14-.49,1.68s-.44,1-.67,1.48a9.58,9.58,0,0,1-.73,1.47,17.5,17.5,0,0,1-8.65,7.33,13.25,13.25,0,0,1-3.13.83,30,30,0,0,1-3.28.44c-1.16,0-2.32,0-3.47,0q-19.41,0-38.81,0a10,10,0,0,1-1.58-.24,5.31,5.31,0,0,1-1.71-.21c-.46-.22-1.11-.07-1.54-.31a24.84,24.84,0,0,1-3.47-1.71A27.84,27.84,0,0,1,47.78,170a16.44,16.44,0,0,1-3.53-5.61,15,15,0,0,1-.49-2,15.61,15.61,0,0,1-.2-4.82,9.92,9.92,0,0,1,.66-2.54,18.69,18.69,0,0,1,1.05-2.38,14.61,14.61,0,0,1,4.19-4.87,30.53,30.53,0,0,1,4.48-2.46,11.16,11.16,0,0,0,2.08-.45,27.92,27.92,0,0,1,2.89-.24,2.49,2.49,0,0,1,1.36.19c.31.16.77,0,1.22,0,0-.39,0-.74,0-1.08a15.28,15.28,0,0,1,.55-3.3,17.28,17.28,0,0,1,1.85-4.52,15,15,0,0,1,2.53-3.55l1.78-1.74a12.39,12.39,0,0,1,3.25-2.24c.92-.46,1.82-1,2.77-1.38a14.26,14.26,0,0,1,2.33-.71,23.47,23.47,0,0,1,3.27-.53,17.7,17.7,0,0,1,2.06-.17c.57,0,1.13.15,1.7.22a4.43,4.43,0,0,1,1.59.2,6.86,6.86,0,0,0,1.68.28,9.78,9.78,0,0,1,1.48.47,20.11,20.11,0,0,1,4.9,2.57,17.52,17.52,0,0,1,2.65,2.17,13.73,13.73,0,0,1,3,4,2.43,2.43,0,0,1,.89,1.39,17.64,17.64,0,0,1,1.06,3.12" style="fill: #706f6f"/>
  <g>
    <path d="M236.09,80.8c-.34-.43-.88-.06-1.27-.38s-.85,0-1.23-.26H229a24.56,24.56,0,0,1-2.56.64,15.56,15.56,0,0,0-2.41,1,14.38,14.38,0,0,0-4.48,3.36,17.79,17.79,0,0,0-2.4,3.29,26.35,26.35,0,0,1-1.3,2.86,15.58,15.58,0,0,1-.52,2.62,15.27,15.27,0,0,0,1,8.35c.16.35.23.74.41,1.07a15.44,15.44,0,0,0,2.87,4,13.37,13.37,0,0,0,2.48,2.22,14.26,14.26,0,0,0,3,1.56c.67.2,1.29.52,2,.71s1.32.29,2,.43a23.59,23.59,0,0,0,4.44.19c1.47,0,2.94,0,4.47,0v1.58h-3.13c-1.17,0-2.34,0-3.51,0a17.25,17.25,0,0,1-8.41-2.09,14.65,14.65,0,0,1-3.07-2.16c-.35-.31-.77-.55-1.1-.89a19,19,0,0,1-1.5-1.73,19.51,19.51,0,0,1-2.24-3.82,15.62,15.62,0,0,1-1-3,16.46,16.46,0,0,1-.44-2.87,19.41,19.41,0,0,1,0-3.05c.12-.94.33-1.88.53-2.82a16.78,16.78,0,0,1,1.1-3,16.15,16.15,0,0,1,1.74-2.9,20.59,20.59,0,0,1,3.55-3.62,25.28,25.28,0,0,0,2.47-1.72c1.31-.37,2.48-1.12,3.84-1.38.92-.17,1.85-.3,2.75-.48a9.54,9.54,0,0,1,2.86-.13c.68.07,1.36.17,2.13.19,0-.17,0-.34.05-.52a5.17,5.17,0,0,1,.19-1.73c.21-.46-.12-1.09.26-1.59.28-2.75,1.52-5.16,2.74-7.57a22.86,22.86,0,0,1,1.8-2.53,16.43,16.43,0,0,1,2.25-2.46,23.21,23.21,0,0,1,6.54-4.42,24.38,24.38,0,0,1,4.07-1.38c.43-.12.93-.05,1.25-.24s.81-.06,1.17-.2a8.07,8.07,0,0,1,2.85-.21,16,16,0,0,1,2.94,0,24.75,24.75,0,0,1,8.79,2.81,30.56,30.56,0,0,1,3.3,2.15,16.23,16.23,0,0,1,2.37,2.17,28.71,28.71,0,0,1,3.39,4.58,32.41,32.41,0,0,1,2.24,5.18,1.6,1.6,0,0,1,0,.5,10.93,10.93,0,0,1,1.15,0c.54.06,1.09-.17,1.63.15s1-.14,1.46.3a17.74,17.74,0,0,1,6.18,2.28,12,12,0,0,1,3,2.16c.24.28.61.38.81.77a4.72,4.72,0,0,0,.93,1,8.21,8.21,0,0,1,.88.89c.57.77,1.12,1.56,1.65,2.36a12,12,0,0,1,.9,1.55,21.49,21.49,0,0,1,1.37,3.85c.19.8.3,1.62.48,2.4a28.24,28.24,0,0,1,.21,4,4.55,4.55,0,0,1-.25,1.38c-.07.42.22.9-.22,1.26a11.35,11.35,0,0,1-.88,3.48,20.89,20.89,0,0,1-1.29,2.75,14.86,14.86,0,0,0-.84,1.34c-.18.52-.7.72-.87,1.23-.1.32-.51.54-.75.82a18.49,18.49,0,0,1-1.3,1.49,24.07,24.07,0,0,1-2.38,1.89,21.31,21.31,0,0,1-3.49,2,19.28,19.28,0,0,1-3,1,6.73,6.73,0,0,0-1.42.41c-.39.2-.95-.17-1.38.24-.09.09-.36,0-.55,0h-5.81v-1.58c1.31,0,2.63,0,3.94,0A15.2,15.2,0,0,0,285,112a16.84,16.84,0,0,0,4.7-1.77,18.45,18.45,0,0,0,3.92-2.81,20.94,20.94,0,0,0,3-3.41,18.92,18.92,0,0,0,2.51-5.76c.2-.91.35-1.82.48-2.75a10.23,10.23,0,0,0,.17-2.06,21.59,21.59,0,0,0-1.49-7.07,23.76,23.76,0,0,0-2.51-4.28,20.19,20.19,0,0,0-2.26-2.45,15.92,15.92,0,0,0-3-2.25,15.33,15.33,0,0,0-4.31-1.89,26.53,26.53,0,0,0-2.81-.62,39.16,39.16,0,0,0-4-.2,5.42,5.42,0,0,0-.49-2.37,12.88,12.88,0,0,0-.87-2.23A22.74,22.74,0,0,0,276.87,68c-.41-.67-.92-1.28-1.33-2s-1.19-1.22-1.66-1.92-1.25-1.08-1.79-1.71a6.94,6.94,0,0,0-2-1.48c-.7-.4-1.37-.87-2.08-1.25a19.57,19.57,0,0,0-2.19-1,8.89,8.89,0,0,0-2.21-.66,22.37,22.37,0,0,0-2.41-.49c-.84,0-1.65-.3-2.51-.24s-1.75-.09-2.6,0a23,23,0,0,0-8,2.42c-2.42,1.37-3,1.45-6.61,5.25a19.7,19.7,0,0,0-4.17,7.21,23,23,0,0,0-1.2,8.59" style="fill: #706f6f"/>
    <path d="M244.06,95a4.68,4.68,0,0,0-1.62-3.23,3.45,3.45,0,0,0-2.52-.93,4.08,4.08,0,0,0-3,1.51,5.05,5.05,0,0,0-1,2.51,5.44,5.44,0,0,0,1.19,2.88,5.64,5.64,0,0,0,2.89,1.2,5.24,5.24,0,0,0,2.08-.7,3.84,3.84,0,0,0,1.66-1.85,6.22,6.22,0,0,0,.31-1.39m-3.85,5.52A5.7,5.7,0,0,1,236,98.89a5.25,5.25,0,0,1-1.64-4,5.65,5.65,0,1,1,11.29.07,5.59,5.59,0,0,1-5.44,5.59" style="fill: #706f6f"/>
    <path d="M255.45,98.45a5.8,5.8,0,0,1,.57.11,4,4,0,0,0,1.31.37,5.27,5.27,0,0,0,2.81-1.13,7.12,7.12,0,0,0,1.11-1.73,3.88,3.88,0,0,0,.21-1.48,4.46,4.46,0,0,0-1.6-2.83,3.74,3.74,0,0,0-3.85-.6,4.23,4.23,0,0,0-2.35,2.38,2.46,2.46,0,0,0-.3,1.67,4.84,4.84,0,0,0,.69,1.86c.44.53,1,.85,1.4,1.38m6.85-6.52a5.53,5.53,0,0,0,.23.69,4.87,4.87,0,0,1,.21,4,5.48,5.48,0,0,1-3.31,3.51,3.27,3.27,0,0,1-1.66.34c-.54-.07-1.12.21-1.6-.22a4.92,4.92,0,0,1-3.76-2.84,5.17,5.17,0,0,1-.36-4.34,5,5,0,0,1,2.29-3,8.36,8.36,0,0,1,1.41-.69,5.83,5.83,0,0,1,4.89.81c.69.45,1,1.19,1.66,1.68" style="fill: #706f6f"/>
    <path d="M278.69,93.73l-.55-1.11a6.58,6.58,0,0,1-.52-.53,4.64,4.64,0,0,0-2.55-1.23c-.44-.13-.68.11-1,.17a3.84,3.84,0,0,0-2.85,2,3.53,3.53,0,0,0-.25,2.88A4,4,0,0,0,272.4,98a4,4,0,0,0,2.57.91,3.18,3.18,0,0,0,2-.69,3.43,3.43,0,0,0,1.76-3.08c0-.48,0-1,0-1.42m-4,6.8a5.66,5.66,0,0,1-5.57-6,5.66,5.66,0,0,1,5.61-5.35,5.73,5.73,0,0,1,5.71,5.67,5.54,5.54,0,0,1-1.69,4,5.43,5.43,0,0,1-4.06,1.64" style="fill: #706f6f"/>
    <path d="M260.58,106.28v.89c-.3.52-.79.32-1.39.38-.2-.26-.48-.59-.87-1.07v1.28q0,7.13,0,14.25a2.17,2.17,0,0,1-.34,1.35h-1.12c-.44-.38-.36-.91-.36-1.41V106.83l-.75.75c-.67-.11-1.15.15-1.49-.42v-.84l3.13-3.13a12.39,12.39,0,0,1,1.58,1.5c.55.52,1.07,1.06,1.6,1.59" style="fill: #706f6f"/>
    <path d="M240.93,123l-.36.37h-.94l-.55-.65V106.8l-.86.85-.14-.13h-.94l-.3-.37v-.78l3.14-3.14H240s.08,0,.1,0l3,3v.92c-.11.12-.21.22-.33.33h-1.08c-.19-.22-.48-.54-.81-.93Z" style="fill: #706f6f"/>
    <path d="M275.74,122.86l-1,.7-.81-.46V106.67c-.3,0-.37.24-.52.35a5.66,5.66,0,0,0-.49.49H272l-.29-.29v-.92c1-1,2-2,3-3.07a16.93,16.93,0,0,1,3.27,3.28v.68l-.34.33h-1l-.92-.94v3.32c0,.53,0,1.06,0,1.59s.21,1.11-.2,1.6c.44.44.15,1,.2,1.49s0,1.06,0,1.58v6.7Z" style="fill: #706f6f"/>
    <path d="M272.76,114.07H259.49v-1.46c.94-.15,9.72-.21,13.27-.07Z" style="fill: #706f6f"/>
    <rect x="242.08" y="112.54" width="13.27" height="1.51" style="fill: #706f6f"/>
  </g>
  <path d="M414.22,61.9H374.4c0,1.06,0,2.08,0,3.1a11.82,11.82,0,0,0,.08,1.84,8.6,8.6,0,0,0,2.67,4.08,7.78,7.78,0,0,0,3.52,1.31q13.51,0,27,0a5.1,5.1,0,0,0,1.94-.36A8.45,8.45,0,0,0,412.39,70a10.52,10.52,0,0,0,1.52-2.74,3.67,3.67,0,0,0,.3-1.55c0-1.26,0-2.51,0-3.82M374.4,42.75h39.82c0-1.39.07-2.75,0-4.09a7.12,7.12,0,0,0-.93-2.82,6.17,6.17,0,0,0-2.45-2.46,6.41,6.41,0,0,0-3.25-1c-2.57.06-5.14,0-7.71,0H380.93a6.24,6.24,0,0,0-3.23,1,7.44,7.44,0,0,0-2,1.83,5.19,5.19,0,0,0-1.28,3.67c.07,1.25,0,2.51,0,3.81m34.4-12.31a.9.9,0,0,0,.09-.28c0-3.17,0-6.34,0-9.52a10,10,0,0,0-.39-2.21,15.14,15.14,0,0,0-1.3-3.24,14.3,14.3,0,0,0-2.66-3.48c-.54-.53-1.2-1-1.75-1.51a1.52,1.52,0,0,0-.33-.2,20.14,20.14,0,0,0-2.78-1.41,15.34,15.34,0,0,0-4.44-1.08c-2.4-.18-2.34,0-5.39.81a13,13,0,0,0-5.66,3.26,17.2,17.2,0,0,0-2.57,3.14,23.6,23.6,0,0,0-1.87,4.55c-.11,1.17-.24,2.34-.27,3.52,0,1.87,0,3.73,0,5.6v2.05Zm5.39,14.37H374.45c-.18,3.95-.11,13.94.09,15h39.65ZM377.77,31.16c0-3.34,0-6.66,0-10a12.34,12.34,0,0,1,.64-4,12.77,12.77,0,0,1,2.07-4.18,19.28,19.28,0,0,1,2.1-2.62,18.23,18.23,0,0,1,5.51-3.58c.81-.31,1.65-.55,2.49-.78a18.3,18.3,0,0,1,6-.22,10.88,10.88,0,0,1,3.77,1c1,.44,1.92,1,2.89,1.46a6.63,6.63,0,0,1,1.52,1.07,17.3,17.3,0,0,1,4.76,6.43,26.52,26.52,0,0,1,1.06,3.63,23.93,23.93,0,0,1,.24,5.21c.05,1.73,0,3.46,0,5.19V31.1c.91.65,1.83,1.25,2.69,1.93a11.57,11.57,0,0,1,2.27,3.67,9,9,0,0,1,.36,2.24c0,8.92,0,17.84,0,26.76a9.73,9.73,0,0,1-1.59,4.66c-1.05,1.88-3,2.59-4.7,3.51a4.38,4.38,0,0,1-2,.31c-9.06,0-18.13.06-27.19,0a7.68,7.68,0,0,1-5.38-2.22,10.23,10.23,0,0,1-2.25-3.14,6.16,6.16,0,0,1-.65-2.53q0-13.95,0-27.89a7,7,0,0,1,1.09-3.32,9.12,9.12,0,0,1,4.23-3.9" style="fill: #706f6f"/>
  <path d="M440.1,72.79a2.32,2.32,0,0,1,0-1.68H431.5a2.32,2.32,0,0,1-.1,1.68h8.7" style="fill: #706f6f"/>
  <path d="M462.38,69.36c-.21.11-.42.22-.62.34a17.66,17.66,0,0,0-2.55.65,19.31,19.31,0,0,1-2.45.49c-.9,0-1.79.26-2.68.26h-8.21a2.35,2.35,0,0,1-.1,1.69h7.9a27.28,27.28,0,0,0,6.54-.79,19.08,19.08,0,0,0,3.22-1.1,2.05,2.05,0,0,1-1.05-1.55" style="fill: #706f6f"/>
  <path d="M425.59,71.11h-8.88l-1.1,1.35c0,.19,0,.37,0,.58a2.39,2.39,0,0,1,1.58-.24h8.31a2.35,2.35,0,0,1,0-1.69" style="fill: #706f6f"/>
  <path d="M421.43,9.94a25.86,25.86,0,0,1,3.59-.8,30.66,30.66,0,0,1,3.81-.28,17.28,17.28,0,0,1,3.81.36,17.6,17.6,0,0,1,3.57.82,25,25,0,0,1,3.34,1.38,28.12,28.12,0,0,1,3.12,2c1,.73,2,1.56,2.94,2.37a15.79,15.79,0,0,1,2.53,2.88,25.83,25.83,0,0,1,2,3.08c.57,1.06.91,2.24,1.42,3.33s.66,2.34,1.16,3.44c1.47.14,2.94-.18,4.39.28.44.15.94.12,1.43.26a12.62,12.62,0,0,1,1.55.33,24.09,24.09,0,0,1,4.61,2.07c1,.67,2,1.38,2.94,2.07l.57.42a1.87,1.87,0,0,1,1.21-1.35,4.76,4.76,0,0,0-.55-.55,21,21,0,0,0-1.72-1.26,23.45,23.45,0,0,0-4.45-2.44,20.94,20.94,0,0,0-5.14-1.43c-1.15-.16-2.33-.26-3.48-.42-.56-1.28-.86-2.63-1.44-3.9a27,27,0,0,0-7.94-10,30,30,0,0,0-4-2.55,28.34,28.34,0,0,0-5.33-2,50.26,50.26,0,0,0-6.29-1,4.83,4.83,0,0,0-1.26,0,8.39,8.39,0,0,1-1.29.25,15.85,15.85,0,0,0-4.11.56A26.78,26.78,0,0,0,417,9.59a21.34,21.34,0,0,0-2.4,1.3,17.35,17.35,0,0,0-3.48,2.62,1.91,1.91,0,0,0,.6,1.73c1.09-.75,2.16-1.39,3.13-2.17A16.07,16.07,0,0,1,418,11.16c1.08-.52,2.28-.8,3.42-1.22" style="fill: #706f6f"/>
  <path d="M406.65,22.12a32,32,0,0,0-2.35,6.05h-1.85a27.71,27.71,0,0,1,3.75-9c.45.69.45.69.45,3" style="fill: #706f6f"/>
  <path d="M474.09,73.94c.67-.48,1.2-.88,1.75-1.26s1-.69,1.48-1.08.78-.74,1.21-1a13.31,13.31,0,0,0,1.84-1.51c1.05-1.08,2.17-2.09,3.13-3.27.74-.91,1.48-1.82,2.2-2.75a38.84,38.84,0,0,0,3.23-5.26c.29-.52.45-1.09.71-1.63s.49-1,.72-1.53c.05-.09,0-.23,0-.4h-9.82A4.36,4.36,0,0,1,478.7,54c-.09-.2-.17-.35-.25-.51.15-.24.29-.49.45-.74H491c.22-.79.46-1.52.62-2.27s.28-1.48.43-2.21a9.28,9.28,0,0,0,.31-2.34c.48-.73.06-1.56.27-2.35a14.06,14.06,0,0,0,.11-2.44,19.66,19.66,0,0,0-.21-2.3c0-.79-.13-1.57-.21-2.32H474.07v2.68c0,.91,0,1.83,0,2.74a11.26,11.26,0,0,1-.1,2.59H485.2l.58.45c.11.47-.25.61-.5.88H474.07V55c0,1,0,2,0,3a12.74,12.74,0,0,1-.11,3h5.54l.5.55-.33.77h-5.57Zm-1.51,0V36.5H454.29c0,.26.08.52,0,.68a2.79,2.79,0,0,0-.16,1.48,14.44,14.44,0,0,0-.21,1.49c.12,1.52-.17,3.07.2,4.58a8.56,8.56,0,0,0,.22,2.48,20.86,20.86,0,0,0,.51,2.71c.16.6.36,1.19.52,1.8a38.57,38.57,0,0,0,1.32,3.93,12.88,12.88,0,0,0,1,2.23,16.27,16.27,0,0,0,1.71,2.86,26.81,26.81,0,0,0,4.17,5.58c1,1.12,2.09,2.14,3.16,3.18a14.14,14.14,0,0,0,1.55,1.35c.65.48,1.3,1,2,1.44l2.32,1.65M453,35.93a1.29,1.29,0,0,1,1.39-1h38.44a1.51,1.51,0,0,1,.83,1.48c0,.41.12.81.18,1.21s-.12.76.17,1.12c.09.12,0,.36,0,.54,0,1.56,0,3.11,0,4.67a13.51,13.51,0,0,1-.17,1.39,4.87,4.87,0,0,1-.16,1.3,12.53,12.53,0,0,0-.22,1.66c-.16.9-.36,1.79-.58,2.68s-.46,1.64-.69,2.46c0,.09,0,.21,0,.27a7.63,7.63,0,0,0-.89,2.1,45.65,45.65,0,0,1-2.1,4.34,28.48,28.48,0,0,1-1.93,3,21.74,21.74,0,0,1-1.8,2.37c-.34.37-.62.8-1,1.14a7.51,7.51,0,0,0-1,1.06,14.23,14.23,0,0,1-2.14,2.11c-.7.57-1.27,1.27-2,1.81-.91.67-1.77,1.42-2.72,2.06s-1.89,1.33-2.86,2h-.83c-.72-.51-1.39-1-2.1-1.46-.94-.59-1.77-1.32-2.68-2s-1.73-1.49-2.66-2.17a15,15,0,0,1-1.5-1.48,46.51,46.51,0,0,1-3.39-3.89,41.43,41.43,0,0,1-2.48-3.47,29.86,29.86,0,0,1-1.8-3.28,32.94,32.94,0,0,1-2.14-5.43,13.84,13.84,0,0,1-.8-3.42c-.27-.34-.07-.78-.21-1.1A3.43,3.43,0,0,1,453,47a3.84,3.84,0,0,1-.19-1,1.31,1.31,0,0,0-.16-.94c-.09-.13,0-.36,0-.54,0-1.86,0-3.72,0-5.58a7.06,7.06,0,0,1,.18-1.12c.06-.37-.12-.75.16-1.13.14-.2,0-.59,0-.78" style="fill: #706f6f"/>
  <path d="M426.56,56.9a5.33,5.33,0,0,1,.55.11,3.83,3.83,0,0,0,1.28.36,5.18,5.18,0,0,0,2.71-1.09,6.91,6.91,0,0,0,1.08-1.68,3.84,3.84,0,0,0,.2-1.43,4.3,4.3,0,0,0-1.55-2.74,3.59,3.59,0,0,0-3.72-.58,4,4,0,0,0-2.28,2.3,2.31,2.31,0,0,0-.29,1.62,4.68,4.68,0,0,0,.66,1.8c.43.51,1,.82,1.36,1.33m6.63-6.31c.1.28.14.48.23.67a4.72,4.72,0,0,1,.2,3.91,5.3,5.3,0,0,1-3.21,3.4,3.22,3.22,0,0,1-1.6.33c-.52-.07-1.08.21-1.55-.21a4.79,4.79,0,0,1-3.64-2.75,5,5,0,0,1-.35-4.21,4.82,4.82,0,0,1,2.22-2.88,8.58,8.58,0,0,1,1.36-.67,5.61,5.61,0,0,1,4.73.79c.67.43,1,1.15,1.61,1.62" style="fill: #706f6f"/>
  <path d="M431.53,64.48v.87c-.29.5-.77.31-1.34.36l-.85-1v1.25q0,6.9,0,13.79A2,2,0,0,1,429,81h-1.09c-.42-.37-.34-.88-.34-1.36V65l-.73.73c-.64-.11-1.11.15-1.44-.4v-.82l3-3A11.68,11.68,0,0,1,430,63c.53.5,1,1,1.55,1.53" style="fill: #706f6f"/>
  <path d="M440.61,56.9a5.05,5.05,0,0,1,.56.11,3.77,3.77,0,0,0,1.27.36,5.21,5.21,0,0,0,2.72-1.09,6.91,6.91,0,0,0,1.08-1.68,3.82,3.82,0,0,0,.19-1.43,4.21,4.21,0,0,0-1.55-2.74,3.59,3.59,0,0,0-3.72-.58,4,4,0,0,0-2.27,2.3,2.37,2.37,0,0,0-.3,1.62,4.86,4.86,0,0,0,.67,1.8c.43.51,1,.82,1.35,1.33m6.64-6.31c.09.28.14.48.22.67a4.72,4.72,0,0,1,.21,3.91,5.3,5.3,0,0,1-3.21,3.4,3.26,3.26,0,0,1-1.61.33c-.51-.07-1.08.21-1.55-.21a4.78,4.78,0,0,1-3.63-2.75,5,5,0,0,1-.36-4.21,4.87,4.87,0,0,1,2.23-2.88,8.58,8.58,0,0,1,1.36-.67,5.61,5.61,0,0,1,4.73.79c.67.43,1,1.15,1.61,1.62" style="fill: #706f6f"/>
  <path d="M445.59,64.48v.87c-.3.5-.77.31-1.35.36l-.84-1v1.25c0,4.6,0,9.19,0,13.79a2.09,2.09,0,0,1-.32,1.31H442c-.43-.37-.35-.88-.35-1.36V65l-.72.73c-.65-.11-1.12.15-1.45-.4v-.82l3-3A11.75,11.75,0,0,1,444,63c.53.5,1,1,1.55,1.53" style="fill: #706f6f"/>
  <path d="M419,27.8a1.49,1.49,0,0,1-.05-1.89h18.95c.53.76.53,1,0,1.89Z" style="fill: #706f6f"/>
  <path d="M419.11,37.1c-.77-.67-.55-1.27-.07-1.89h26.17c.73.77.74,1,.06,1.89Z" style="fill: #706f6f"/>
  <text transform="translate(370.02 357.48)" style="font-size: 10px;fill: #524f59;font-family: OpenSans, Open Sans">their eyes of the goal and</text>
</svg>
