<svg id="Layer_1" data-name="Layer 1" xmlns="http://www.w3.org/2000/svg" viewBox="0 0 506.44 347.11">
  <title>rankings</title>
  <text transform="translate(4.88 224.81)" style="font-size: 9px;fill: #1d1d1b;font-family: MinionPro-Regular, Minion Pro">•</text>
  <text transform="translate(8.39 224.81)" style="font-size: 9px;fill: #1d1d1b;font-family: MinionPro-Regular, Minion Pro"> </text>
  <text transform="translate(19.05 224.81)" style="font-size: 9px;fill: #524f59;font-family: OpenSans, Open Sans">Employ cost savings</text>
  <text transform="translate(4.88 240.14)" style="font-size: 9px;fill: #1d1d1b;font-family: MinionPro-Regular, Minion Pro">•</text>
  <text transform="translate(8.39 240.14)" style="font-size: 9px;fill: #1d1d1b;font-family: MinionPro-Regular, Minion Pro"> </text>
  <path d="M24.14,234.64a3.36,3.36,0,0,0-1.45-.35A2.12,2.12,0,0,0,21,235a2.88,2.88,0,0,0-.61,1.93,2.93,2.93,0,0,0,.59,1.95,2.12,2.12,0,0,0,1.69.69,5.4,5.4,0,0,0,1.53-.25V240a4.62,4.62,0,0,1-1.65.25,2.82,2.82,0,0,1-2.19-.86,3.58,3.58,0,0,1-.77-2.45,3.84,3.84,0,0,1,.37-1.74A2.71,2.71,0,0,1,21,234a3.26,3.26,0,0,1,1.65-.41,4.05,4.05,0,0,1,1.77.37l-.32.65Zm3.56.6a2.56,2.56,0,0,1,.58,0l-.1.68a2.21,2.21,0,0,0-.53-.07,1.28,1.28,0,0,0-1,.48,1.71,1.71,0,0,0-.42,1.18v2.58H25.5v-4.81h.61l.08.89h0a2.12,2.12,0,0,1,.65-.73A1.45,1.45,0,0,1,27.7,235.24Zm3.51,5a2.21,2.21,0,0,1-1.68-.65,2.49,2.49,0,0,1-.62-1.81,2.82,2.82,0,0,1,.57-1.85,1.92,1.92,0,0,1,1.54-.68,1.82,1.82,0,0,1,1.43.59A2.25,2.25,0,0,1,33,237.4v.47H29.66a1.93,1.93,0,0,0,.43,1.28,1.47,1.47,0,0,0,1.15.44,4,4,0,0,0,1.54-.32v.65a4.22,4.22,0,0,1-.74.24A4,4,0,0,1,31.21,240.23Zm-.2-4.38a1.16,1.16,0,0,0-.92.38,1.73,1.73,0,0,0-.41,1H32.2a1.55,1.55,0,0,0-.31-1.05A1.07,1.07,0,0,0,31,235.85Zm6.18,4.29-.15-.68h0a2.06,2.06,0,0,1-.72.61,2.16,2.16,0,0,1-.9.16,1.59,1.59,0,0,1-1.12-.37,1.36,1.36,0,0,1-.41-1.05q0-1.45,2.34-1.53l.82,0V237a1.24,1.24,0,0,0-.25-.84,1,1,0,0,0-.78-.27,3.13,3.13,0,0,0-1.36.37l-.22-.56a3,3,0,0,1,.78-.3,3.05,3.05,0,0,1,.85-.11,1.79,1.79,0,0,1,1.27.38,1.57,1.57,0,0,1,.42,1.22v3.29Zm-1.65-.51a1.49,1.49,0,0,0,1.07-.38,1.35,1.35,0,0,0,.39-1v-.44l-.73,0a2.68,2.68,0,0,0-1.26.27.83.83,0,0,0-.38.75.75.75,0,0,0,.24.6A1,1,0,0,0,35.54,239.63Zm5.24,0a2.34,2.34,0,0,0,.38,0l.28-.06v.56a1.09,1.09,0,0,1-.35.09,2.1,2.1,0,0,1-.41,0c-.93,0-1.4-.49-1.4-1.47v-2.87h-.69v-.35l.69-.3.31-1H40v1.12h1.4v.56H40v2.84a.93.93,0,0,0,.21.66A.7.7,0,0,0,40.78,239.63Zm3.66.6a2.21,2.21,0,0,1-1.68-.65,2.49,2.49,0,0,1-.62-1.81,2.82,2.82,0,0,1,.57-1.85,1.92,1.92,0,0,1,1.54-.68,1.82,1.82,0,0,1,1.43.59,2.25,2.25,0,0,1,.53,1.57v.47H42.89a1.93,1.93,0,0,0,.43,1.28,1.47,1.47,0,0,0,1.15.44,4,4,0,0,0,1.54-.32v.65a4.22,4.22,0,0,1-.74.24A4,4,0,0,1,44.44,240.23Zm-.2-4.38a1.16,1.16,0,0,0-.92.38,1.73,1.73,0,0,0-.41,1h2.52a1.55,1.55,0,0,0-.31-1.05A1.07,1.07,0,0,0,44.24,235.85Zm6.32,3a1.17,1.17,0,0,1-.5,1,2.3,2.3,0,0,1-1.41.37,3.1,3.1,0,0,1-1.49-.3v-.68a3.52,3.52,0,0,0,.75.28,3.45,3.45,0,0,0,.76.1,1.75,1.75,0,0,0,.88-.18.61.61,0,0,0,.31-.56.6.6,0,0,0-.24-.48,3.65,3.65,0,0,0-1-.47,5.94,5.94,0,0,1-.95-.44,1.31,1.31,0,0,1-.42-.43,1,1,0,0,1-.14-.56,1.08,1.08,0,0,1,.48-.93,2.19,2.19,0,0,1,1.31-.34,3.83,3.83,0,0,1,1.52.31l-.26.6a3.46,3.46,0,0,0-1.31-.3,1.47,1.47,0,0,0-.78.16.51.51,0,0,0-.27.45.52.52,0,0,0,.1.33,1,1,0,0,0,.32.26,7.43,7.43,0,0,0,.84.35,3.21,3.21,0,0,1,1.16.63A1.12,1.12,0,0,1,50.56,238.83ZM54,234a.5.5,0,0,1,.12-.37.45.45,0,0,1,.31-.11.42.42,0,0,1,.3.12.44.44,0,0,1,.13.36.48.48,0,0,1-.13.37.42.42,0,0,1-.3.12.41.41,0,0,1-.31-.12A.51.51,0,0,1,54,234Zm.79,6.12h-.73v-4.81h.73Zm4.84,0V237a1.24,1.24,0,0,0-.27-.88,1.07,1.07,0,0,0-.84-.29,1.34,1.34,0,0,0-1.1.41,2,2,0,0,0-.36,1.34v2.53h-.72v-4.81H57l.12.65h0a1.54,1.54,0,0,1,.63-.55,2,2,0,0,1,.9-.19,1.82,1.82,0,0,1,1.31.42,1.78,1.78,0,0,1,.44,1.34v3.14ZM61.83,234a.5.5,0,0,1,.12-.37.47.47,0,0,1,.31-.11.41.41,0,0,1,.3.12.44.44,0,0,1,.13.36.48.48,0,0,1-.13.37.41.41,0,0,1-.3.12.43.43,0,0,1-.31-.12A.51.51,0,0,1,61.83,234Zm.79,6.12h-.73v-4.81h.73Zm3.1-.51a2.34,2.34,0,0,0,.38,0l.28-.06v.56a1.09,1.09,0,0,1-.35.09,2.1,2.1,0,0,1-.41,0c-.93,0-1.4-.49-1.4-1.47v-2.87h-.69v-.35l.69-.3.31-1H65v1.12h1.4v.56H65v2.84a.93.93,0,0,0,.21.66A.68.68,0,0,0,65.72,239.63ZM67.28,234a.46.46,0,0,1,.13-.37.44.44,0,0,1,.3-.11.45.45,0,0,1,.31.12.48.48,0,0,1,.13.36.52.52,0,0,1-.13.37.45.45,0,0,1-.31.12.41.41,0,0,1-.3-.12A.48.48,0,0,1,67.28,234Zm.79,6.12h-.72v-4.81h.72Zm4.51,0-.14-.68h0a2.13,2.13,0,0,1-.71.61,2.16,2.16,0,0,1-.9.16,1.58,1.58,0,0,1-1.12-.37,1.36,1.36,0,0,1-.41-1.05q0-1.45,2.34-1.53l.81,0V237a1.24,1.24,0,0,0-.24-.84,1,1,0,0,0-.78-.27,3.1,3.1,0,0,0-1.36.37l-.23-.56a3.32,3.32,0,0,1,.78-.3,3.15,3.15,0,0,1,.85-.11,1.81,1.81,0,0,1,1.28.38,1.56,1.56,0,0,1,.41,1.22v3.29Zm-1.64-.51a1.49,1.49,0,0,0,1.07-.38,1.35,1.35,0,0,0,.39-1v-.44l-.73,0a2.68,2.68,0,0,0-1.26.27.81.81,0,0,0-.38.75.75.75,0,0,0,.24.6A1,1,0,0,0,70.94,239.63Zm4.42.51h-.73V233.3h.73Zm4,0v-6.42h.75v6.42Zm4.49,0h-.75v-5.76h-2v-.66h4.82v.66h-2Zm7.27.09a2.22,2.22,0,0,1-1.69-.65,2.53,2.53,0,0,1-.62-1.81,2.77,2.77,0,0,1,.58-1.85,1.91,1.91,0,0,1,1.54-.68,1.83,1.83,0,0,1,1.43.59,2.29,2.29,0,0,1,.53,1.57v.47H89.56a1.87,1.87,0,0,0,.43,1.28,1.45,1.45,0,0,0,1.14.44,4,4,0,0,0,1.54-.32v.65a4.13,4.13,0,0,1-.73.24A4,4,0,0,1,91.11,240.23Zm-.2-4.38a1.17,1.17,0,0,0-.93.38,1.72,1.72,0,0,0-.4,1h2.51a1.6,1.6,0,0,0-.3-1.05A1.08,1.08,0,0,0,90.91,235.85Zm5.38,0H95.07v4.25h-.73v-4.25h-.87v-.33l.87-.26V235c0-1.18.51-1.77,1.55-1.77a3.24,3.24,0,0,1,.89.15l-.19.58a2.39,2.39,0,0,0-.72-.13.71.71,0,0,0-.61.27,1.58,1.58,0,0,0-.19.88v.32h1.22Zm3,0H98.09v4.25h-.73v-4.25H96.5v-.33l.86-.26V235c0-1.18.52-1.77,1.55-1.77a3.3,3.3,0,0,1,.9.15l-.19.58a2.39,2.39,0,0,0-.72-.13.7.7,0,0,0-.61.27,1.49,1.49,0,0,0-.2.88v.32h1.22Zm.85-1.87a.46.46,0,0,1,.13-.37.44.44,0,0,1,.3-.11.45.45,0,0,1,.31.12.47.47,0,0,1,.12.36.51.51,0,0,1-.12.37.45.45,0,0,1-.31.12.41.41,0,0,1-.3-.12A.48.48,0,0,1,100.16,234Zm.79,6.12h-.73v-4.81H101Zm4.7-.16a2.6,2.6,0,0,1-1.22.25,2.11,2.11,0,0,1-1.62-.64,2.67,2.67,0,0,1-.57-1.83,2.71,2.71,0,0,1,.58-1.86,2.1,2.1,0,0,1,1.66-.66,3.39,3.39,0,0,1,.7.07,2.12,2.12,0,0,1,.54.18l-.22.62A2.74,2.74,0,0,0,105,236a2,2,0,0,0-.51-.07c-1,0-1.46.63-1.46,1.88a2.3,2.3,0,0,0,.35,1.36,1.28,1.28,0,0,0,1.07.47,3.09,3.09,0,0,0,1.23-.26V240Zm1.08-6a.5.5,0,0,1,.12-.37.49.49,0,0,1,.31-.11.41.41,0,0,1,.3.12.44.44,0,0,1,.13.36.48.48,0,0,1-.13.37.41.41,0,0,1-.3.12.45.45,0,0,1-.31-.12A.51.51,0,0,1,106.73,234Zm.79,6.12h-.73v-4.81h.73Zm3.58.09a2.21,2.21,0,0,1-1.68-.65,2.53,2.53,0,0,1-.62-1.81,2.82,2.82,0,0,1,.57-1.85,1.94,1.94,0,0,1,1.55-.68,1.83,1.83,0,0,1,1.43.59,2.29,2.29,0,0,1,.53,1.57v.47h-3.32a1.83,1.83,0,0,0,.43,1.28,1.45,1.45,0,0,0,1.14.44,4,4,0,0,0,1.54-.32v.65a4.13,4.13,0,0,1-.73.24A4.06,4.06,0,0,1,111.1,240.23Zm-.19-4.38a1.17,1.17,0,0,0-.93.38,1.79,1.79,0,0,0-.41,1h2.52a1.6,1.6,0,0,0-.3-1.05A1.08,1.08,0,0,0,110.91,235.85Zm6.5,4.29V237a1.28,1.28,0,0,0-.26-.88,1.07,1.07,0,0,0-.84-.29,1.35,1.35,0,0,0-1.11.41,2.07,2.07,0,0,0-.35,1.34v2.53h-.73v-4.81h.59l.12.65h0a1.45,1.45,0,0,1,.62-.55,2,2,0,0,1,.9-.19,1.82,1.82,0,0,1,1.31.42,1.75,1.75,0,0,1,.44,1.34v3.14Zm5.38-.16a2.63,2.63,0,0,1-1.22.25,2.08,2.08,0,0,1-1.62-.64,2.67,2.67,0,0,1-.57-1.83,2.71,2.71,0,0,1,.58-1.86,2.1,2.1,0,0,1,1.66-.66,3.23,3.23,0,0,1,.69.07,2.21,2.21,0,0,1,.55.18l-.23.62a2.64,2.64,0,0,0-.52-.16,2.06,2.06,0,0,0-.51-.07c-1,0-1.47.63-1.47,1.88a2.22,2.22,0,0,0,.36,1.36,1.26,1.26,0,0,0,1.06.47,3.17,3.17,0,0,0,1.24-.26V240Zm1.08-6a.5.5,0,0,1,.12-.37.45.45,0,0,1,.31-.11.42.42,0,0,1,.3.12.44.44,0,0,1,.13.36.48.48,0,0,1-.13.37.42.42,0,0,1-.3.12.41.41,0,0,1-.31-.12A.51.51,0,0,1,123.87,234Zm.79,6.12h-.73v-4.81h.73Zm3.58.09a2.25,2.25,0,0,1-1.69-.65,2.53,2.53,0,0,1-.61-1.81,2.82,2.82,0,0,1,.57-1.85,1.92,1.92,0,0,1,1.54-.68,1.83,1.83,0,0,1,1.43.59,2.25,2.25,0,0,1,.53,1.57v.47h-3.32a1.93,1.93,0,0,0,.43,1.28,1.46,1.46,0,0,0,1.15.44,3.92,3.92,0,0,0,1.53-.32v.65a3.88,3.88,0,0,1-.73.24A4,4,0,0,1,128.24,240.23Zm-.2-4.38a1.16,1.16,0,0,0-.92.38,1.73,1.73,0,0,0-.41,1h2.52a1.55,1.55,0,0,0-.31-1.05A1.07,1.07,0,0,0,128,235.85Zm6.32,3a1.2,1.2,0,0,1-.5,1,2.3,2.3,0,0,1-1.41.37,3.1,3.1,0,0,1-1.49-.3v-.68a3.38,3.38,0,0,0,1.51.38,1.75,1.75,0,0,0,.88-.18.61.61,0,0,0,.31-.56.58.58,0,0,0-.25-.48,3.54,3.54,0,0,0-.95-.47,5.54,5.54,0,0,1-1-.44,1.31,1.31,0,0,1-.42-.43,1,1,0,0,1-.14-.56,1.08,1.08,0,0,1,.48-.93,2.19,2.19,0,0,1,1.31-.34,3.83,3.83,0,0,1,1.52.31l-.26.6a3.46,3.46,0,0,0-1.31-.3,1.53,1.53,0,0,0-.79.16.55.55,0,0,0-.16.78,1,1,0,0,0,.32.26,7.43,7.43,0,0,0,.84.35,3.21,3.21,0,0,1,1.16.63A1.12,1.12,0,0,1,134.36,238.83Z" style="fill: #524f59"/>
  <text transform="translate(4.88 255.48)" style="font-size: 9px;fill: #1d1d1b;font-family: MinionPro-Regular, Minion Pro">•</text>
  <text transform="translate(8.39 255.48)" style="font-size: 9px;fill: #1d1d1b;font-family: MinionPro-Regular, Minion Pro"> </text>
  <text transform="translate(19.05 255.48)" style="font-size: 9px;fill: #524f59;font-family: OpenSans, Open Sans">Satisfy basic compliance and </text>
  <text transform="translate(19.05 267.98)" style="font-size: 9px;fill: #524f59;font-family: OpenSans, Open Sans">data governance &amp; regulations</text>
  <text transform="translate(4.88 283.31)" style="font-size: 9px;fill: #1d1d1b;font-family: MinionPro-Regular, Minion Pro">•</text>
  <text transform="translate(8.39 283.31)" style="font-size: 9px;fill: #1d1d1b;font-family: MinionPro-Regular, Minion Pro"> </text>
  <text transform="translate(19.05 283.31)" style="font-size: 9px;fill: #524f59;font-family: OpenSans, Open Sans">Foundation set for continuing </text>
  <text transform="translate(19.05 295.81)" style="font-size: 9px;fill: #524f59;font-family: OpenSans, Open Sans">your journey to the cloud</text>
  <text transform="translate(178.77 174.55)" style="font-size: 9px;fill: #1d1d1b;font-family: MinionPro-Regular, Minion Pro">•</text>
  <text transform="translate(182.28 174.55)" style="font-size: 9px;fill: #1d1d1b;font-family: MinionPro-Regular, Minion Pro"> </text>
  <text transform="translate(192.94 174.55)" style="font-size: 9px;fill: #524f59;font-family: OpenSans, Open Sans">Competitive advantage over all </text>
  <text transform="translate(192.94 187.05)" style="font-size: 9px;fill: #524f59;font-family: OpenSans, Open Sans">Cloud Starter organizations</text>
  <text transform="translate(178.77 202.39)" style="font-size: 9px;fill: #1d1d1b;font-family: MinionPro-Regular, Minion Pro">•</text>
  <text transform="translate(182.28 202.39)" style="font-size: 9px;fill: #1d1d1b;font-family: MinionPro-Regular, Minion Pro"> </text>
  <text transform="translate(192.94 202.39)" style="font-size: 9px;fill: #524f59;font-family: OpenSans, Open Sans">Foundation set for highest levels </text>
  <text transform="translate(192.94 214.89)" style="font-size: 9px;fill: #524f59;font-family: OpenSans, Open Sans">of success in cloud, automation, </text>
  <text transform="translate(192.94 227.39)" style="font-size: 9px;fill: #524f59;font-family: OpenSans, Open Sans">and data-driven journeys</text>
  <text transform="translate(178.77 242.72)" style="font-size: 9px;fill: #1d1d1b;font-family: MinionPro-Regular, Minion Pro">•</text>
  <text transform="translate(182.28 242.72)" style="font-size: 9px;fill: #1d1d1b;font-family: MinionPro-Regular, Minion Pro"> </text>
  <text transform="translate(192.94 242.72)" style="font-size: 9px;fill: #524f59;font-family: OpenSans, Open Sans">Free resource enabling more </text>
  <text transform="translate(192.94 255.22)" style="font-size: 9px;fill: #524f59;font-family: OpenSans, Open Sans">innovation</text>
  <text transform="translate(178.77 270.56)" style="font-size: 9px;fill: #1d1d1b;font-family: MinionPro-Regular, Minion Pro">•</text>
  <text transform="translate(182.28 270.56)" style="font-size: 9px;fill: #1d1d1b;font-family: MinionPro-Regular, Minion Pro"> </text>
  <text transform="translate(192.94 283.06)" style="font-size: 9px;fill: #524f59;font-family: OpenSans, Open Sans">to better weather changing </text>
  <text transform="translate(192.94 295.56)" style="font-size: 9px;fill: #524f59;font-family: OpenSans, Open Sans">market circumstances and </text>
  <text transform="translate(192.94 308.06)" style="font-size: 9px;fill: #524f59;font-family: OpenSans, Open Sans">macroeconomic needs</text>
  <text transform="translate(346.01 126.37)" style="font-size: 9px;fill: #1d1d1b;font-family: MinionPro-Regular, Minion Pro">•</text>
  <text transform="translate(349.52 126.37)" style="font-size: 9px;fill: #1d1d1b;font-family: MinionPro-Regular, Minion Pro"> </text>
  <text transform="translate(360.18 126.37)" style="font-size: 9px;fill: #524f59;font-family: OpenSans, Open Sans">IT provides a competitive edge </text>
  <text transform="translate(360.18 138.87)" style="font-size: 9px;fill: #524f59;font-family: OpenSans, Open Sans">for the business</text>
  <text transform="translate(346.01 154.2)" style="font-size: 9px;fill: #1d1d1b;font-family: MinionPro-Regular, Minion Pro">•</text>
  <text transform="translate(349.52 154.2)" style="font-size: 9px;fill: #1d1d1b;font-family: MinionPro-Regular, Minion Pro"> </text>
  <text transform="translate(360.18 154.2)" style="font-size: 9px;fill: #524f59;font-family: OpenSans, Open Sans">Highly responsive to business </text>
  <text transform="translate(360.18 166.7)" style="font-size: 9px;fill: #524f59;font-family: OpenSans, Open Sans">needs - can scale IT delivery up </text>
  <text transform="translate(360.18 179.2)" style="font-size: 9px;fill: #524f59;font-family: OpenSans, Open Sans">and down according to business </text>
  <text transform="translate(360.18 191.7)" style="font-size: 9px;fill: #524f59;font-family: OpenSans, Open Sans">demand</text>
  <text transform="translate(346.01 207.04)" style="font-size: 9px;fill: #1d1d1b;font-family: MinionPro-Regular, Minion Pro">•</text>
  <text transform="translate(349.52 207.04)" style="font-size: 9px;fill: #1d1d1b;font-family: MinionPro-Regular, Minion Pro"> </text>
  <text transform="translate(360.18 207.04)" style="font-size: 9px;fill: #524f59;font-family: OpenSans, Open Sans">Modernized and agile business </text>
  <text transform="translate(360.18 219.54)" style="font-size: 9px;fill: #524f59;font-family: OpenSans, Open Sans">processes and operations </text>
  <text transform="translate(346.01 234.87)" style="font-size: 9px;fill: #1d1d1b;font-family: MinionPro-Regular, Minion Pro">•</text>
  <text transform="translate(349.52 234.87)" style="font-size: 9px;fill: #1d1d1b;font-family: MinionPro-Regular, Minion Pro"> </text>
  <text transform="translate(360.18 234.87)" style="font-size: 9px;fill: #524f59;font-family: OpenSans, Open Sans">Capitalizing on the new digital </text>
  <text transform="translate(360.18 247.37)" style="font-size: 9px;fill: #524f59;font-family: OpenSans, Open Sans">economy </text>
  <text transform="translate(346.01 262.7)" style="font-size: 9px;fill: #1d1d1b;font-family: MinionPro-Regular, Minion Pro">•</text>
  <text transform="translate(349.52 262.7)" style="font-size: 9px;fill: #1d1d1b;font-family: MinionPro-Regular, Minion Pro"> </text>
  <text transform="translate(360.18 262.7)" style="font-size: 9px;fill: #524f59;font-family: OpenSans, Open Sans">Capable of delivering new </text>
  <text transform="translate(360.18 275.2)" style="font-size: 9px;fill: #524f59;font-family: OpenSans, Open Sans">digital operations, experiences, </text>
  <text transform="translate(360.18 287.7)" style="font-size: 9px;fill: #524f59;font-family: OpenSans, Open Sans">products and services, driving </text>
  <text transform="translate(360.18 300.2)" style="font-size: 9px;fill: #524f59;font-family: OpenSans, Open Sans">up customer experience and </text>
  <text transform="translate(360.18 312.7)" style="font-size: 9px;fill: #524f59;font-family: OpenSans, Open Sans">revenue </text>
  <text transform="translate(346.01 328.04)" style="font-size: 9px;fill: #1d1d1b;font-family: MinionPro-Regular, Minion Pro">•</text>
  <text transform="translate(349.52 328.04)" style="font-size: 9px;fill: #1d1d1b;font-family: MinionPro-Regular, Minion Pro"> </text>
  <text transform="translate(360.18 328.04)" style="font-size: 9px;fill: #524f59;font-family: OpenSans, Open Sans">Sophisticated automation drives </text>
  <text transform="translate(360.18 340.79)" style="font-size: 9px;fill: #524f59;font-family: OpenSans, Open Sans">extreme operational efciencies</text>
  <text transform="translate(27.75 196.41)" style="font-size: 12px;fill: #1d1d1b;font-family: OpenSans-Extrabold, Open Sans;font-weight: 800">CLOUD STARTER</text>
  <text transform="translate(176.64 141.06)" style="font-size: 12px;fill: #1d1d1b;font-family: OpenSans-Extrabold, Open Sans;font-weight: 800">CLOUD PRACTITIONER</text>
  <text transform="translate(363.8 91.53)" style="font-size: 12px;fill: #1d1d1b;font-family: OpenSans-Extrabold, Open Sans;font-weight: 800">CLOUD MASTER</text>
  <polyline points="4.88 205.37 162.9 205.37 162.9 154.37 326.87 154.37 326.87 103 498.11 103" style="fill: none;stroke: #d01317;stroke-miterlimit: 10;stroke-width: 1.5px"/>
  <path d="M8.54,225.12a3.24,3.24,0,1,0-3.25-3.24,3.24,3.24,0,0,0,3.25,3.24" style="fill: #d01317"/>
  <path d="M8.54,225.12a3.24,3.24,0,1,0-3.25-3.24A3.24,3.24,0,0,0,8.54,225.12Z" style="fill: none;stroke: #fff;stroke-miterlimit: 10;stroke-width: 2px"/>
  <path d="M182.42,174.87a3.24,3.24,0,1,0-3.24-3.24,3.24,3.24,0,0,0,3.24,3.24" style="fill: #d01317"/>
  <path d="M182.42,174.87a3.24,3.24,0,1,0-3.24-3.24A3.24,3.24,0,0,0,182.42,174.87Z" style="fill: none;stroke: #fff;stroke-miterlimit: 10;stroke-width: 2px"/>
  <path d="M182.42,203.64a3.25,3.25,0,1,0-3.24-3.25,3.25,3.25,0,0,0,3.24,3.25" style="fill: #d01317"/>
  <path d="M182.42,203.64a3.25,3.25,0,1,0-3.24-3.25A3.25,3.25,0,0,0,182.42,203.64Z" style="fill: none;stroke: #fff;stroke-miterlimit: 10;stroke-width: 2px"/>
  <path d="M182.42,243.32a3.25,3.25,0,1,0-3.24-3.24,3.24,3.24,0,0,0,3.24,3.24" style="fill: #d01317"/>
  <path d="M182.42,243.32a3.25,3.25,0,1,0-3.24-3.24A3.24,3.24,0,0,0,182.42,243.32Z" style="fill: none;stroke: #fff;stroke-miterlimit: 10;stroke-width: 2px"/>
  <path d="M182.42,271.67a3.25,3.25,0,1,0-3.24-3.25,3.24,3.24,0,0,0,3.24,3.25" style="fill: #d01317"/>
  <path d="M182.42,271.67a3.25,3.25,0,1,0-3.24-3.25A3.24,3.24,0,0,0,182.42,271.67Z" style="fill: none;stroke: #fff;stroke-miterlimit: 10;stroke-width: 2px"/>
  <path d="M349.67,126.68a3.24,3.24,0,1,0-3.25-3.24,3.24,3.24,0,0,0,3.25,3.24" style="fill: #d01317"/>
  <path d="M349.67,126.68a3.24,3.24,0,1,0-3.25-3.24A3.24,3.24,0,0,0,349.67,126.68Z" style="fill: none;stroke: #fff;stroke-miterlimit: 10;stroke-width: 2px"/>
  <path d="M349.67,154.46a3.24,3.24,0,1,0-3.25-3.24,3.24,3.24,0,0,0,3.25,3.24" style="fill: #d01317"/>
  <path d="M349.67,154.46a3.24,3.24,0,1,0-3.25-3.24A3.24,3.24,0,0,0,349.67,154.46Z" style="fill: none;stroke: #fff;stroke-miterlimit: 10;stroke-width: 2px"/>
  <path d="M349.67,207.32a3.25,3.25,0,1,0-3.25-3.24,3.24,3.24,0,0,0,3.25,3.24" style="fill: #d01317"/>
  <path d="M349.67,207.32a3.25,3.25,0,1,0-3.25-3.24A3.24,3.24,0,0,0,349.67,207.32Z" style="fill: none;stroke: #fff;stroke-miterlimit: 10;stroke-width: 2px"/>
  <path d="M349.67,235.24a3.25,3.25,0,1,0-3.25-3.25,3.25,3.25,0,0,0,3.25,3.25" style="fill: #d01317"/>
  <path d="M349.67,235.24a3.25,3.25,0,1,0-3.25-3.25A3.25,3.25,0,0,0,349.67,235.24Z" style="fill: none;stroke: #fff;stroke-miterlimit: 10;stroke-width: 2px"/>
  <path d="M349.67,262.75a3.25,3.25,0,1,0-3.25-3.25,3.25,3.25,0,0,0,3.25,3.25" style="fill: #d01317"/>
  <path d="M349.67,262.75a3.25,3.25,0,1,0-3.25-3.25A3.25,3.25,0,0,0,349.67,262.75Z" style="fill: none;stroke: #fff;stroke-miterlimit: 10;stroke-width: 2px"/>
  <path d="M349.67,327.94a3.24,3.24,0,1,0-3.25-3.24,3.24,3.24,0,0,0,3.25,3.24" style="fill: #d01317"/>
  <path d="M349.67,327.94a3.24,3.24,0,1,0-3.25-3.24A3.24,3.24,0,0,0,349.67,327.94Z" style="fill: none;stroke: #fff;stroke-miterlimit: 10;stroke-width: 2px"/>
  <path d="M8.54,256.59a3.25,3.25,0,1,0-3.25-3.24,3.24,3.24,0,0,0,3.25,3.24" style="fill: #d01317"/>
  <path d="M8.54,256.59a3.25,3.25,0,1,0-3.25-3.24A3.24,3.24,0,0,0,8.54,256.59Z" style="fill: none;stroke: #fff;stroke-miterlimit: 10;stroke-width: 2px"/>
  <path d="M8.54,241.57a3.25,3.25,0,1,0-3.25-3.25,3.25,3.25,0,0,0,3.25,3.25" style="fill: #d01317"/>
  <path d="M8.54,241.57a3.25,3.25,0,1,0-3.25-3.25A3.25,3.25,0,0,0,8.54,241.57Z" style="fill: none;stroke: #fff;stroke-miterlimit: 10;stroke-width: 2px"/>
  <path d="M8.54,282.67a3.25,3.25,0,1,0-3.25-3.25,3.24,3.24,0,0,0,3.25,3.25" style="fill: #d01317"/>
  <path d="M8.54,282.67a3.25,3.25,0,1,0-3.25-3.25A3.24,3.24,0,0,0,8.54,282.67Z" style="fill: none;stroke: #fff;stroke-miterlimit: 10;stroke-width: 2px"/>
  <path d="M73.46,172a3.29,3.29,0,1,1,3.28,3.29A3.28,3.28,0,0,1,73.46,172m20.62,0h-14m-6.62,0h-14m17.33-6.69v3.41" style="fill: #fff"/>
  <path d="M73.46,172a3.29,3.29,0,1,1,3.28,3.29A3.28,3.28,0,0,1,73.46,172Zm20.62,0h-14m-6.62,0h-14m17.33-6.69v3.41" style="fill: none;stroke: #d01317;stroke-width: 1.5px"/>
  <path d="M56.94,148.35l.75,0a13.52,13.52,0,0,1,10.13-16.49,13.24,13.24,0,0,1,3-.36,12.94,12.94,0,0,1,1.77.14,13.46,13.46,0,0,1,7.58,3.62A11.4,11.4,0,0,1,96.1,145.76s0,.06,0,.09a9.74,9.74,0,0,1,8.72,7.7,9.52,9.52,0,0,1,.22,2,9.84,9.84,0,0,1-9.76,9.76H56.94a8.49,8.49,0,0,1,0-17" style="fill: #fff"/>
  <path d="M56.94,148.35l.75,0a13.52,13.52,0,0,1,10.13-16.49,13.24,13.24,0,0,1,3-.36,12.94,12.94,0,0,1,1.77.14,13.46,13.46,0,0,1,7.58,3.62A11.4,11.4,0,0,1,96.1,145.76s0,.06,0,.09a9.74,9.74,0,0,1,8.72,7.7,9.52,9.52,0,0,1,.22,2,9.84,9.84,0,0,1-9.76,9.76H56.94a8.49,8.49,0,0,1,0-17Z" style="fill: none;stroke: #d01317;stroke-width: 1.5px"/>
  <path d="M218.39,89c.32,0,.64,0,1,0a17.74,17.74,0,0,1-.53-4.22,17.5,17.5,0,0,1,13.54-17.07,17.2,17.2,0,0,1,3.9-.46,17,17,0,0,1,2.27.17,17.35,17.35,0,0,1,9.74,4.68,14.62,14.62,0,0,1,20.4,13.51v.11a12.54,12.54,0,0,1,11.19,10,12.31,12.31,0,0,1,.28,2.59,12.68,12.68,0,0,1-12.52,12.6H218.39a11,11,0,0,1,0-21.91" style="fill: #fff"/>
  <path d="M218.39,89c.32,0,.64,0,1,0a17.74,17.74,0,0,1-.53-4.22,17.5,17.5,0,0,1,13.54-17.07,17.2,17.2,0,0,1,3.9-.46,17,17,0,0,1,2.27.17,17.35,17.35,0,0,1,9.74,4.68,14.62,14.62,0,0,1,20.4,13.51v.11a12.54,12.54,0,0,1,11.19,10,12.31,12.31,0,0,1,.28,2.59,12.68,12.68,0,0,1-12.52,12.6H218.39a11,11,0,0,1,0-21.91Z" style="fill: none;stroke: #d01317;stroke-width: 1.5px"/>
  <path d="M230,97.05a3.92,3.92,0,1,0-3.92-3.92A3.92,3.92,0,0,0,230,97.05" style="fill: #fff"/>
  <circle cx="230.04" cy="93.13" r="3.92" transform="translate(55.97 270.02) rotate(-67.5)" style="fill: none;stroke: #d01317;stroke-width: 1.5px"/>
  <path d="M243.84,97.05a3.92,3.92,0,1,0-3.92-3.92,3.92,3.92,0,0,0,3.92,3.92" style="fill: #fff"/>
  <circle cx="243.84" cy="93.13" r="3.92" transform="translate(64.49 282.77) rotate(-67.5)" style="fill: none;stroke: #d01317;stroke-width: 1.5px"/>
  <path d="M257.59,97.05a3.92,3.92,0,1,0-3.92-3.92,3.92,3.92,0,0,0,3.92,3.92" style="fill: #fff"/>
  <circle cx="257.59" cy="93.13" r="3.92" transform="translate(72.98 295.47) rotate(-67.5)" style="fill: none;stroke: #d01317;stroke-width: 1.5px"/>
  <line x1="230.04" y1="115.85" x2="230.04" y2="100.8" style="fill: none;stroke: #d01317;stroke-width: 1.5px"/>
  <polyline points="234.27 105.34 230.04 100.8 225.82 105.34" style="fill: none;stroke: #d01317;stroke-width: 1.5px"/>
  <line x1="243.84" y1="115.85" x2="243.84" y2="100.8" style="fill: none;stroke: #d01317;stroke-width: 1.5px"/>
  <polyline points="248.07 105.34 243.84 100.8 239.62 105.34" style="fill: none;stroke: #d01317;stroke-width: 1.5px"/>
  <line x1="257.59" y1="115.85" x2="257.59" y2="100.8" style="fill: none;stroke: #d01317;stroke-width: 1.5px"/>
  <polyline points="261.81 105.34 257.59 100.8 253.37 105.34" style="fill: none;stroke: #d01317;stroke-width: 1.5px"/>
  <path d="M379.41,30.92c.41,0,.81,0,1.2.06a22.06,22.06,0,0,1-.66-5.24,21.73,21.73,0,0,1,16.81-21.2A21.51,21.51,0,0,1,401.6,4a22,22,0,0,1,2.83.2A21.55,21.55,0,0,1,416.53,10a18,18,0,0,1,7.16-1.48,18.21,18.21,0,0,1,18.17,18.25c0,.05,0,.1,0,.14a15.64,15.64,0,0,1-1.31,31.21H379.41a13.6,13.6,0,0,1,0-27.2" style="fill: #fff"/>
  <path d="M379.41,30.92c.41,0,.81,0,1.2.06a22.06,22.06,0,0,1-.66-5.24,21.73,21.73,0,0,1,16.81-21.2A21.51,21.51,0,0,1,401.6,4a22,22,0,0,1,2.83.2A21.55,21.55,0,0,1,416.53,10a18,18,0,0,1,7.16-1.48,18.21,18.21,0,0,1,18.17,18.25c0,.05,0,.1,0,.14a15.64,15.64,0,0,1-1.31,31.21H379.41a13.6,13.6,0,0,1,0-27.2Z" style="fill: none;stroke: #d01317;stroke-width: 1.5px"/>
  <path d="M394.32,46.46a3.92,3.92,0,1,0-3.92-3.92,3.92,3.92,0,0,0,3.92,3.92" style="fill: #fff"/>
  <circle cx="394.32" cy="42.54" r="3.92" transform="translate(204.11 390.57) rotate(-67.5)" style="fill: none;stroke: #d01317;stroke-width: 1.5px"/>
  <path d="M408.12,46.46a3.92,3.92,0,1,0-3.92-3.92,3.92,3.92,0,0,0,3.92,3.92" style="fill: #fff"/>
  <circle cx="408.12" cy="42.54" r="3.92" transform="translate(212.63 403.32) rotate(-67.5)" style="fill: none;stroke: #d01317;stroke-width: 1.5px"/>
  <line x1="394.32" y1="65.27" x2="394.32" y2="50.21" style="fill: none;stroke: #d01317;stroke-width: 1.5px"/>
  <polyline points="398.54 54.76 394.32 50.21 390.1 54.76" style="fill: none;stroke: #d01317;stroke-width: 1.5px"/>
  <line x1="408.12" y1="65.27" x2="408.12" y2="50.21" style="fill: none;stroke: #d01317;stroke-width: 1.5px"/>
  <polyline points="412.34 54.76 408.12 50.21 403.9 54.76" style="fill: none;stroke: #d01317;stroke-width: 1.5px"/>
  <path d="M426.49,55.52l3,3,6-6m2-6h-4v-5a4,4,0,1,0-8,0v5h-4v-5a8,8,0,1,1,16,0Zm3,2a2,2,0,0,0-2-2h-18a2,2,0,0,0-2,2v14a2,2,0,0,0,2,2h18a2,2,0,0,0,2-2Z" style="fill: #fff"/>
  <path d="M426.49,55.52l3,3,6-6m2-6h-4v-5a4,4,0,1,0-8,0v5h-4v-5a8,8,0,1,1,16,0Zm3,2a2,2,0,0,0-2-2h-18a2,2,0,0,0-2,2v14a2,2,0,0,0,2,2h18a2,2,0,0,0,2-2Z" style="fill: none;stroke: #d01317;stroke-width: 1.5px"/>
  <line x1="390.21" y1="17.63" x2="415.16" y2="17.63" style="fill: none;stroke: #d01317;stroke-width: 1.5px"/>
  <line x1="390.21" y1="23.2" x2="426.5" y2="23.2" style="fill: none;stroke: #d01317;stroke-width: 1.5px"/>
  <line x1="390.21" y1="28.87" x2="435.57" y2="28.87" style="fill: none;stroke: #d01317;stroke-width: 1.5px"/>
  <text transform="translate(192.94 270.72)" style="font-size: 9px;fill: #524f59;font-family: OpenSans, Open Sans">Improved agility and fexibility</text>
</svg>
