<svg id="Layer_1" data-name="Layer 1" xmlns="http://www.w3.org/2000/svg" viewBox="0 0 317.93 292.93"><defs><style>.cls-1,.cls-6{fill:#051c2c;}.cls-1,.cls-2,.cls-3,.cls-5{fill-rule:evenodd;}.cls-2{fill:#c00;}.cls-3{fill:#6fcace;}.cls-4,.cls-5{fill:#fff;}</style></defs><path class="cls-1" d="M159.36,6.51a92.21,92.21,0,0,1,92.19,92.23q0,4.77-.47,9.43l-.07.45-.24-.08-1.26,8.27a92.4,92.4,0,0,1-54.43,66.39l-3.66,1.34v-.14a91.91,91.91,0,0,0-26.52-55.79l-6.16-5.08-.23.19-7.09-5.85a92.34,92.34,0,0,0-79-11.61L67.63,108l-.47-9.28A92.21,92.21,0,0,1,159.36,6.51Z"/><path class="cls-2" d="M99.37,101.88a91.24,91.24,0,0,1,51.28,15.68l7,5.83-6.52,5.38a91.68,91.68,0,0,0-25,46.42L125,183l.89.32-.07.46a93.84,93.84,0,0,0-.48,9.39,91.58,91.58,0,0,0,26.87,64.92l6.52,5.38-7.05,5.83a91.8,91.8,0,1,1-87-160.73l3.64-1.34v.14L72.09,106A91.73,91.73,0,0,1,99.37,101.88Z"/><path class="cls-3" d="M250.45,108.24l2,.73a91.64,91.64,0,0,1,56.31,84.42c0,50.59-41.28,91.61-92.2,91.61A92.2,92.2,0,0,1,165,269.35l-7.09-5.81,6.56-5.37a91.07,91.07,0,0,0,27-64.78l-.47-9.23,3.66-1.33a91.91,91.91,0,0,0,54.43-66ZM124.93,183.56l6.46,2.35a93.27,93.27,0,0,0,54.83,0l4.81-1.75.47,9.23a91.07,91.07,0,0,1-27,64.78l-6.56,5.37-6.55-5.37a91,91,0,0,1-27-64.78,93.44,93.44,0,0,1,.48-9.37Z"/><path class="cls-4" d="M152.9,69.69a4.68,4.68,0,0,1-1.33,3.57,5.43,5.43,0,0,1-3.83,1.24h-2.67V65.07h3a5,5,0,0,1,3.59,1.22A4.47,4.47,0,0,1,152.9,69.69Zm-2.08,0c0-2-.9-3-2.68-3h-1.07v6.14h.86C149.86,72.85,150.82,71.81,150.82,69.74Z"/><path class="cls-4" d="M160.62,74.5l-.68-2.25H156.5l-.68,2.25h-2.16L157,65h2.45l3.34,9.47Zm-1.16-3.92c-.63-2-1-3.19-1.07-3.46s-.13-.47-.17-.63c-.14.55-.55,1.91-1.22,4.09Z"/><path class="cls-4" d="M167.6,74.5h-2V66.73H163V65.07h7.12v1.66H167.6Z"/><path class="cls-4" d="M177.38,74.5l-.68-2.25h-3.44l-.68,2.25h-2.15L173.75,65h2.45l3.34,9.47Zm-1.16-3.92c-.63-2-1-3.19-1.06-3.46a6.29,6.29,0,0,1-.17-.63c-.15.55-.55,1.91-1.22,4.09Z"/><path class="cls-4" d="M111.6,90.35,109.33,83h-.06c.09,1.51.13,2.51.13,3v4.39h-1.79V80.92h2.72l2.23,7.21h0L115,80.92h2.72v9.43h-1.86V85.88c0-.21,0-.45,0-.72s0-1,.08-2.2h0l-2.44,7.39Z"/><path class="cls-4" d="M128.62,85.62a5.1,5.1,0,0,1-1.16,3.6,5,5,0,0,1-6.65,0,6.18,6.18,0,0,1,0-7.21,4.35,4.35,0,0,1,3.34-1.24A4.3,4.3,0,0,1,127.47,82,5.12,5.12,0,0,1,128.62,85.62Zm-6.88,0a3.94,3.94,0,0,0,.6,2.38,2.11,2.11,0,0,0,1.79.8q2.4,0,2.4-3.18c0-2.12-.8-3.19-2.38-3.19a2.1,2.1,0,0,0-1.8.81A3.87,3.87,0,0,0,121.74,85.62Z"/><path class="cls-4" d="M138.4,85.54a4.64,4.64,0,0,1-1.33,3.57,5.4,5.4,0,0,1-3.82,1.24h-2.67V80.92h3a5,5,0,0,1,3.58,1.22A4.47,4.47,0,0,1,138.4,85.54Zm-2.08,0c0-2-.89-3-2.68-3h-1.06V88.7h.85C135.36,88.7,136.32,87.66,136.32,85.59Z"/><path class="cls-4" d="M145.78,90.35h-5.43V80.92h5.43v1.64h-3.43v2.07h3.2v1.63h-3.2V88.7h3.43Z"/><path class="cls-4" d="M149.75,86.73v3.62h-2V80.92h2.75a4.66,4.66,0,0,1,2.84.7,2.47,2.47,0,0,1,.93,2.12,2.52,2.52,0,0,1-.46,1.48,3,3,0,0,1-1.3,1c1.42,2.12,2.35,3.49,2.77,4.11h-2.21l-2.25-3.62Zm0-1.63h.65a2.5,2.5,0,0,0,1.4-.31,1.13,1.13,0,0,0,.45-1,1,1,0,0,0-.46-1,2.82,2.82,0,0,0-1.43-.28h-.61Z"/><path class="cls-4" d="M164.84,90.35H162.3l-4.11-7.14h-.05q.12,1.89.12,2.7v4.44h-1.79V80.92H159l4.1,7.06h0c-.06-1.23-.09-2.09-.09-2.6V80.92h1.8Z"/><path class="cls-4" d="M167.21,90.35V80.92h2v9.43Z"/><path class="cls-4" d="M177.73,90.35h-7v-1.3l4.52-6.48h-4.4V80.92h6.78v1.29l-4.52,6.49h4.64Z"/><path class="cls-4" d="M185,90.35l-.68-2.25h-3.44l-.68,2.25h-2.15l3.32-9.47h2.45l3.34,9.47Zm-1.16-3.92c-.63-2-1-3.19-1.06-3.45s-.14-.48-.17-.64c-.15.55-.55,1.91-1.22,4.09Z"/><path class="cls-4" d="M192,90.35h-2V82.58h-2.56V80.92h7.12v1.66H192Z"/><path class="cls-4" d="M196,90.35V80.92h2v9.43Z"/><path class="cls-4" d="M208.93,85.62a5.1,5.1,0,0,1-1.17,3.6,5,5,0,0,1-6.65,0,6.18,6.18,0,0,1,0-7.21,4.35,4.35,0,0,1,3.34-1.24A4.28,4.28,0,0,1,207.77,82,5.13,5.13,0,0,1,208.93,85.62Zm-6.89,0a3.94,3.94,0,0,0,.6,2.38,2.12,2.12,0,0,0,1.8.8c1.59,0,2.39-1.06,2.39-3.18s-.79-3.19-2.38-3.19a2.1,2.1,0,0,0-1.8.81A3.94,3.94,0,0,0,202,85.62Z"/><path class="cls-4" d="M219.24,90.35H216.7l-4.1-7.14h-.06c.09,1.26.13,2.16.13,2.7v4.44h-1.79V80.92h2.52L217.5,88h0c-.06-1.23-.09-2.09-.09-2.6V80.92h1.79Z"/><path class="cls-4" d="M36.53,212.24l-.62-2H32.8l-.62,2H30.23l3-8.57h2.21l3,8.57Zm-1.05-3.55c-.58-1.84-.9-2.88-1-3.12s-.12-.43-.15-.57q-.2.75-1.11,3.69Z"/><path class="cls-4" d="M45.44,206.37a2.63,2.63,0,0,1-.86,2.11,3.73,3.73,0,0,1-2.45.73h-.77v3H39.55v-8.53h2.72a3.59,3.59,0,0,1,2.36.67A2.42,2.42,0,0,1,45.44,206.37Zm-4.08,1.35H42a2,2,0,0,0,1.25-.33,1.14,1.14,0,0,0,.41-1,1.17,1.17,0,0,0-.34-.93,1.61,1.61,0,0,0-1.09-.31h-.82Z"/><path class="cls-4" d="M52.94,206.37a2.63,2.63,0,0,1-.86,2.11,3.71,3.71,0,0,1-2.45.73h-.77v3H47.05v-8.53h2.72a3.57,3.57,0,0,1,2.36.67A2.42,2.42,0,0,1,52.94,206.37Zm-4.08,1.35h.59a2,2,0,0,0,1.25-.33,1.15,1.15,0,0,0,.42-1,1.17,1.17,0,0,0-.35-.93,1.59,1.59,0,0,0-1.09-.31h-.82Z"/><path class="cls-4" d="M54.55,212.24v-8.53h1.81v7h3.46v1.49Z"/><path class="cls-4" d="M61.3,212.24v-8.53h1.81v8.53Z"/><path class="cls-4" d="M68.88,205.09a1.84,1.84,0,0,0-1.58.77,3.58,3.58,0,0,0-.56,2.14c0,1.9.71,2.85,2.14,2.85a6.82,6.82,0,0,0,2.18-.45v1.52a6.11,6.11,0,0,1-2.35.44,3.6,3.6,0,0,1-2.85-1.13,4.84,4.84,0,0,1-1-3.24,5.3,5.3,0,0,1,.48-2.33,3.59,3.59,0,0,1,1.39-1.54,4.21,4.21,0,0,1,2.13-.53,5.77,5.77,0,0,1,2.5.6l-.59,1.47c-.31-.15-.64-.28-1-.4A2.93,2.93,0,0,0,68.88,205.09Z"/><path class="cls-4" d="M78.09,212.24l-.62-2H74.36l-.61,2h-2l3-8.57H77l3,8.57Zm-1-3.55q-.86-2.76-1-3.12a5.43,5.43,0,0,1-.16-.57c-.13.5-.49,1.73-1.1,3.69Z"/><path class="cls-4" d="M84.41,212.24H82.6v-7H80.28v-1.5h6.44v1.5H84.41Z"/><path class="cls-4" d="M88,212.24v-8.53h1.81v8.53Z"/><path class="cls-4" d="M99.73,208a4.63,4.63,0,0,1-1,3.26,4.54,4.54,0,0,1-6,0,4.66,4.66,0,0,1-1-3.27,4.59,4.59,0,0,1,1-3.25,3.93,3.93,0,0,1,3-1.12,3.86,3.86,0,0,1,3,1.13A4.65,4.65,0,0,1,99.73,208Zm-6.22,0a3.6,3.6,0,0,0,.54,2.16,1.9,1.9,0,0,0,1.62.72q2.16,0,2.16-2.88c0-1.92-.71-2.88-2.15-2.88a1.91,1.91,0,0,0-1.63.73A3.57,3.57,0,0,0,93.51,208Z"/><path class="cls-4" d="M109.07,212.24h-2.3l-3.71-6.45H103c.08,1.14.11,2,.11,2.44v4H101.5v-8.53h2.28l3.71,6.39h0c-.06-1.11-.09-1.89-.09-2.35v-4h1.63Z"/><path class="cls-4" d="M23.31,226.58l-2.06-6.69H21.2c.07,1.36.11,2.27.11,2.72v4H19.69v-8.53h2.47l2,6.52h0l2.14-6.52h2.46v8.53H27.13v-4c0-.19,0-.41,0-.66s0-.91.07-2h-.05L25,226.58Z"/><path class="cls-4" d="M38.7,222.3a4.65,4.65,0,0,1-1.05,3.26,3.91,3.91,0,0,1-3,1.13,3.91,3.91,0,0,1-3-1.13,4.66,4.66,0,0,1-1.05-3.27A4.59,4.59,0,0,1,31.63,219a4,4,0,0,1,3-1.13,3.9,3.9,0,0,1,3,1.13A4.67,4.67,0,0,1,38.7,222.3Zm-6.22,0a3.57,3.57,0,0,0,.54,2.15,1.88,1.88,0,0,0,1.62.73c1.44,0,2.17-1,2.17-2.88s-.72-2.88-2.16-2.88a1.88,1.88,0,0,0-1.62.73A3.5,3.5,0,0,0,32.48,222.3Z"/><path class="cls-4" d="M47.55,222.23a4.22,4.22,0,0,1-1.2,3.23,4.93,4.93,0,0,1-3.46,1.12H40.47v-8.53h2.68a4.52,4.52,0,0,1,3.24,1.1A4.06,4.06,0,0,1,47.55,222.23Zm-1.88.05c0-1.83-.81-2.75-2.43-2.75h-1v5.55h.77C44.8,225.08,45.67,224.15,45.67,222.28Z"/><path class="cls-4" d="M54.23,226.58H49.31v-8.53h4.92v1.48H51.12v1.87H54v1.48H51.12v2.2h3.11Z"/><path class="cls-4" d="M57.81,223.3v3.28H56v-8.53h2.48a4.24,4.24,0,0,1,2.57.63,2.5,2.5,0,0,1,.42,3.26,2.67,2.67,0,0,1-1.17.92q1.92,2.88,2.51,3.72h-2l-2-3.28Zm0-1.47h.59a2.22,2.22,0,0,0,1.26-.28,1,1,0,0,0,.41-.9.93.93,0,0,0-.42-.86,2.49,2.49,0,0,0-1.29-.26h-.55Z"/><path class="cls-4" d="M71.46,226.58h-2.3l-3.71-6.46h0c.07,1.14.11,2,.11,2.44v4H63.89v-8.53h2.28l3.71,6.39h0c-.06-1.11-.09-1.9-.09-2.36v-4h1.63Z"/><path class="cls-4" d="M73.61,226.58v-8.53h1.81v8.53Z"/><path class="cls-4" d="M83.12,226.58H76.78V225.4l4.08-5.86h-4v-1.49H83v1.16l-4.08,5.87h4.19Z"/><path class="cls-4" d="M89.7,226.58l-.62-2H86l-.62,2h-2l3-8.57h2.21l3,8.57Zm-1-3.55q-.86-2.76-1-3.12a5.43,5.43,0,0,1-.16-.57c-.13.49-.49,1.73-1.1,3.69Z"/><path class="cls-4" d="M96,226.58H94.21v-7H91.89v-1.5h6.44v1.5H96Z"/><path class="cls-4" d="M99.64,226.58v-8.53h1.81v8.53Z"/><path class="cls-4" d="M111.34,222.3a4.65,4.65,0,0,1-1,3.26,4.57,4.57,0,0,1-6,0,4.66,4.66,0,0,1-1-3.27,4.59,4.59,0,0,1,1-3.25,4,4,0,0,1,3-1.13,3.9,3.9,0,0,1,3,1.13A4.67,4.67,0,0,1,111.34,222.3Zm-6.22,0a3.57,3.57,0,0,0,.54,2.15,1.88,1.88,0,0,0,1.62.73c1.44,0,2.17-1,2.17-2.88s-.72-2.88-2.16-2.88a1.91,1.91,0,0,0-1.63.73A3.57,3.57,0,0,0,105.12,222.3Z"/><path class="cls-4" d="M120.68,226.58h-2.3l-3.71-6.46h-.06c.08,1.14.12,2,.12,2.44v4h-1.62v-8.53h2.28l3.71,6.39h0c-.06-1.11-.09-1.9-.09-2.36v-4h1.63Z"/><path class="cls-4" d="M187,212.24v-8.53h1.81v8.53Z"/><path class="cls-4" d="M198.53,212.24h-2.3l-3.71-6.45h-.05c.07,1.14.11,2,.11,2.44v4H191v-8.53h2.29l3.7,6.39h0c-.06-1.11-.09-1.89-.09-2.35v-4h1.63Z"/><path class="cls-4" d="M202.46,212.24h-1.78v-8.53h4.89v1.48h-3.11v2.2h2.89v1.48h-2.89Z"/><path class="cls-4" d="M209,209v3.27h-1.8v-8.53h2.48a4.24,4.24,0,0,1,2.57.63,2.26,2.26,0,0,1,.84,1.93,2.22,2.22,0,0,1-.42,1.33,2.6,2.6,0,0,1-1.17.92q1.92,2.88,2.51,3.72h-2L210,209Zm0-1.47h.59a2.21,2.21,0,0,0,1.26-.29,1,1,0,0,0,.41-.9.94.94,0,0,0-.41-.86,2.56,2.56,0,0,0-1.3-.26H209Z"/><path class="cls-4" d="M220.35,212.24l-.62-2h-3.11l-.62,2h-1.95l3-8.57h2.21l3,8.57Zm-1-3.55c-.58-1.84-.9-2.88-1-3.12s-.12-.43-.15-.57q-.19.75-1.11,3.69Z"/><path class="cls-4" d="M228.4,209.87a2.18,2.18,0,0,1-.83,1.82,3.61,3.61,0,0,1-2.31.67,5.49,5.49,0,0,1-2.42-.52v-1.68a10.93,10.93,0,0,0,1.46.55,4.59,4.59,0,0,0,1.1.15,1.49,1.49,0,0,0,.91-.23.83.83,0,0,0,.18-1.12,1.5,1.5,0,0,0-.41-.37,8.13,8.13,0,0,0-1.11-.58,5.24,5.24,0,0,1-1.17-.71,2.5,2.5,0,0,1-.62-.79,2.17,2.17,0,0,1-.24-1.05,2.2,2.2,0,0,1,.77-1.77,3.14,3.14,0,0,1,2.12-.65,4.81,4.81,0,0,1,1.27.16,8.27,8.27,0,0,1,1.26.44l-.58,1.4a11.11,11.11,0,0,0-1.13-.39,3.85,3.85,0,0,0-.88-.11,1.18,1.18,0,0,0-.79.24.8.8,0,0,0-.27.63.78.78,0,0,0,.11.41,1.16,1.16,0,0,0,.35.35,11.82,11.82,0,0,0,1.15.6,4.6,4.6,0,0,1,1.64,1.14A2.26,2.26,0,0,1,228.4,209.87Z"/><path class="cls-4" d="M233.24,212.24h-1.81v-7h-2.32v-1.5h6.44v1.5h-2.31Z"/><path class="cls-4" d="M238.68,209v3.27h-1.81v-8.53h2.48a4.3,4.3,0,0,1,2.58.63,2.54,2.54,0,0,1,.42,3.26,2.68,2.68,0,0,1-1.18.92c1.29,1.92,2.12,3.16,2.51,3.72h-2l-2-3.27Zm0-1.47h.58a2.27,2.27,0,0,0,1.27-.29,1,1,0,0,0,.4-.9.92.92,0,0,0-.41-.86,2.54,2.54,0,0,0-1.29-.26h-.55Z"/><path class="cls-4" d="M251.7,203.71v5.52a3.23,3.23,0,0,1-.42,1.66,2.85,2.85,0,0,1-1.23,1.09,4.39,4.39,0,0,1-1.89.38,3.57,3.57,0,0,1-2.55-.85,3,3,0,0,1-.91-2.3v-5.5h1.8v5.22a2.17,2.17,0,0,0,.4,1.45,1.63,1.63,0,0,0,1.31.46,1.66,1.66,0,0,0,1.29-.46,2.25,2.25,0,0,0,.4-1.46v-5.21Z"/><path class="cls-4" d="M257.41,205.09a1.84,1.84,0,0,0-1.58.77,3.51,3.51,0,0,0-.56,2.14c0,1.9.71,2.85,2.14,2.85a6.71,6.71,0,0,0,2.17-.45v1.52a6,6,0,0,1-2.34.44,3.6,3.6,0,0,1-2.85-1.13,4.84,4.84,0,0,1-1-3.24,5.3,5.3,0,0,1,.48-2.33,3.53,3.53,0,0,1,1.39-1.54,4.21,4.21,0,0,1,2.13-.53,5.77,5.77,0,0,1,2.5.6l-.59,1.47c-.32-.15-.64-.28-1-.4A2.93,2.93,0,0,0,257.41,205.09Z"/><path class="cls-4" d="M264.69,212.24h-1.81v-7h-2.31v-1.5H267v1.5h-2.32Z"/><path class="cls-4" d="M275.26,203.71v5.52a3.23,3.23,0,0,1-.42,1.66,2.82,2.82,0,0,1-1.22,1.09,4.46,4.46,0,0,1-1.89.38,3.6,3.6,0,0,1-2.56-.85,3,3,0,0,1-.91-2.3v-5.5h1.8v5.22a2.22,2.22,0,0,0,.4,1.45,2.07,2.07,0,0,0,2.6,0,2.2,2.2,0,0,0,.4-1.46v-5.21Z"/><path class="cls-4" d="M279.16,209v3.27h-1.81v-8.53h2.49a4.29,4.29,0,0,1,2.57.63,2.29,2.29,0,0,1,.83,1.93,2.21,2.21,0,0,1-.41,1.33,2.71,2.71,0,0,1-1.17.92c1.28,1.92,2.12,3.16,2.5,3.72h-2l-2-3.27Zm0-1.47h.58a2.25,2.25,0,0,0,1.27-.29,1,1,0,0,0,.41-.9.93.93,0,0,0-.42-.86,2.54,2.54,0,0,0-1.29-.26h-.55Z"/><path class="cls-4" d="M290.15,212.24h-4.91v-8.53h4.91v1.48h-3.1v1.87h2.88v1.49h-2.88v2.2h3.1Z"/><path class="cls-4" d="M191.52,226.58l-2.06-6.69h-.05c.07,1.36.11,2.27.11,2.72v4H187.9v-8.53h2.47l2,6.52h0l2.14-6.52H197v8.53h-1.68v-4c0-.19,0-.41,0-.66s0-.91.08-2h-.06l-2.2,6.68Z"/><path class="cls-4" d="M206.91,222.3a4.65,4.65,0,0,1-1,3.26,4.57,4.57,0,0,1-6,0,4.66,4.66,0,0,1-1.05-3.27,4.59,4.59,0,0,1,1.05-3.25,4,4,0,0,1,3-1.13,3.9,3.9,0,0,1,3,1.13A4.63,4.63,0,0,1,206.91,222.3Zm-6.22,0a3.57,3.57,0,0,0,.54,2.15,1.88,1.88,0,0,0,1.62.73c1.44,0,2.17-1,2.17-2.88s-.72-2.88-2.16-2.88a1.88,1.88,0,0,0-1.62.73A3.5,3.5,0,0,0,200.69,222.3Z"/><path class="cls-4" d="M215.76,222.23a4.22,4.22,0,0,1-1.2,3.23,4.91,4.91,0,0,1-3.46,1.12h-2.42v-8.53h2.68a4.52,4.52,0,0,1,3.24,1.1A4.06,4.06,0,0,1,215.76,222.23Zm-1.88.05c0-1.83-.81-2.75-2.43-2.75h-1v5.55h.78C213,225.08,213.88,224.15,213.88,222.28Z"/><path class="cls-4" d="M222.44,226.58h-4.92v-8.53h4.92v1.48h-3.11v1.87h2.89v1.48h-2.89v2.2h3.11Z"/><path class="cls-4" d="M226,223.3v3.28h-1.81v-8.53h2.48a4.3,4.3,0,0,1,2.58.63,2.27,2.27,0,0,1,.83,1.92,2.31,2.31,0,0,1-.41,1.34,2.76,2.76,0,0,1-1.18.92c1.29,1.92,2.12,3.16,2.51,3.72h-2l-2-3.28Zm0-1.47h.58a2.22,2.22,0,0,0,1.26-.28,1,1,0,0,0,.41-.9.94.94,0,0,0-.41-.86,2.56,2.56,0,0,0-1.3-.26H226Z"/><path class="cls-4" d="M239.67,226.58h-2.3l-3.71-6.46h0c.07,1.14.11,2,.11,2.44v4H232.1v-8.53h2.29l3.7,6.39h0c-.06-1.11-.09-1.9-.09-2.36v-4h1.63Z"/><path class="cls-4" d="M241.82,226.58v-8.53h1.81v8.53Z"/><path class="cls-4" d="M251.33,226.58H245V225.4l4.09-5.86h-4v-1.49h6.12v1.16l-4.08,5.87h4.19Z"/><path class="cls-4" d="M257.91,226.58l-.61-2h-3.11l-.62,2h-1.95l3-8.57h2.21l3,8.57ZM256.86,223q-.86-2.76-1-3.12l-.16-.57c-.13.49-.49,1.73-1.1,3.69Z"/><path class="cls-4" d="M264.23,226.58h-1.81v-7H260.1v-1.5h6.44v1.5h-2.31Z"/><path class="cls-4" d="M267.86,226.58v-8.53h1.8v8.53Z"/><path class="cls-4" d="M279.55,222.3a4.65,4.65,0,0,1-1.05,3.26,4.57,4.57,0,0,1-6,0,4.66,4.66,0,0,1-1.05-3.27,4.59,4.59,0,0,1,1.05-3.25,4,4,0,0,1,3-1.13,3.9,3.9,0,0,1,3,1.13A4.67,4.67,0,0,1,279.55,222.3Zm-6.22,0a3.57,3.57,0,0,0,.54,2.15,1.88,1.88,0,0,0,1.62.73c1.44,0,2.17-1,2.17-2.88s-.72-2.88-2.16-2.88a1.88,1.88,0,0,0-1.62.73A3.5,3.5,0,0,0,273.33,222.3Z"/><path class="cls-4" d="M288.89,226.58h-2.3l-3.71-6.46h-.05c.07,1.14.11,2,.11,2.44v4h-1.62v-8.53h2.28l3.71,6.39h0c-.06-1.11-.09-1.9-.09-2.36v-4h1.63Z"/><path class="cls-5" d="M158.72,109.49c10.23,0,19.24,5.66,24.57,14.27l2.31,4.67.12,0a11.84,11.84,0,0,1,2.54-.28c7,0,12.62,6.17,12.62,13.79h3.49c12.2,0,22.09,10.81,22.09,24.14s-9.89,24.14-22.09,24.14h-91.3c-12.2,0-22.1-10.81-22.1-24.14,0-11.67,7.58-21.4,17.64-23.65l3.94-.43,0-.06c0-7.62,5.66-13.79,12.63-13.79a11.78,11.78,0,0,1,4.91,1.08l1.17.7.18-.63C135.92,117.64,146.45,109.49,158.72,109.49Z"/><path class="cls-6" d="M142.08,144l2.35-4.65H147l-3.74,6.89v4.4h-2.38v-4.32l-3.74-7h2.59Z"/><path class="cls-6" d="M158.68,145a6.12,6.12,0,0,1-1.39,4.31,6,6,0,0,1-8,0,6.16,6.16,0,0,1-1.39-4.33,6.09,6.09,0,0,1,1.39-4.3,5.24,5.24,0,0,1,4-1.49,5.13,5.13,0,0,1,4,1.5A6.13,6.13,0,0,1,158.68,145Zm-8.24,0a4.71,4.71,0,0,0,.72,2.85,2.51,2.51,0,0,0,2.15,1c1.9,0,2.86-1.27,2.86-3.81s-.95-3.82-2.85-3.82a2.5,2.5,0,0,0-2.15,1A4.64,4.64,0,0,0,150.44,145Z"/><path class="cls-6" d="M170.21,139.34v7.3a4.26,4.26,0,0,1-.56,2.2,3.73,3.73,0,0,1-1.62,1.44,5.72,5.72,0,0,1-2.5.5,4.8,4.8,0,0,1-3.38-1.11,4,4,0,0,1-1.21-3.06v-7.27h2.39v6.91a2.92,2.92,0,0,0,.52,1.92,2.21,2.21,0,0,0,1.74.61,2.13,2.13,0,0,0,1.7-.62,2.93,2.93,0,0,0,.53-1.93v-6.89Z"/><path class="cls-6" d="M175.36,146.3v4.33H173V139.34h3.29a5.6,5.6,0,0,1,3.4.84,3,3,0,0,1,1.11,2.54,2.93,2.93,0,0,1-.55,1.77,3.61,3.61,0,0,1-1.55,1.22c1.7,2.54,2.8,4.18,3.32,4.92h-2.66l-2.69-4.33Zm0-2h.78a3,3,0,0,0,1.67-.38,1.35,1.35,0,0,0,.54-1.19,1.23,1.23,0,0,0-.55-1.14,3.32,3.32,0,0,0-1.71-.34h-.73Z"/><path class="cls-6" d="M138.16,160.14a2.46,2.46,0,0,0-2.1,1,4.76,4.76,0,0,0-.74,2.83c0,2.52,1,3.77,2.84,3.77a8.86,8.86,0,0,0,2.88-.59v2a8.17,8.17,0,0,1-3.11.58,4.73,4.73,0,0,1-3.77-1.5,6.31,6.31,0,0,1-1.3-4.29,7,7,0,0,1,.64-3.08,4.66,4.66,0,0,1,1.84-2,5.47,5.47,0,0,1,2.82-.71,7.62,7.62,0,0,1,3.3.8l-.77,1.94a12.71,12.71,0,0,0-1.28-.52A3.72,3.72,0,0,0,138.16,160.14Z"/><path class="cls-6" d="M143.44,169.6V158.31h2.39v9.32h4.58v2Z"/><path class="cls-6" d="M162.62,163.94a6.15,6.15,0,0,1-1.39,4.31,6,6,0,0,1-8,0,7.39,7.39,0,0,1,0-8.63,6.1,6.1,0,0,1,8,0A6.15,6.15,0,0,1,162.62,163.94Zm-8.24,0a4.71,4.71,0,0,0,.72,2.85,2.49,2.49,0,0,0,2.14,1q2.87,0,2.87-3.81t-2.85-3.81a2.55,2.55,0,0,0-2.16,1A4.71,4.71,0,0,0,154.38,163.94Z"/><path class="cls-6" d="M174.14,158.31v7.31a4.15,4.15,0,0,1-.56,2.19,3.59,3.59,0,0,1-1.61,1.44,5.74,5.74,0,0,1-2.51.51,4.82,4.82,0,0,1-3.38-1.12,4,4,0,0,1-1.2-3v-7.28h2.38v6.91a2.92,2.92,0,0,0,.53,1.92,2.73,2.73,0,0,0,3.44,0,3,3,0,0,0,.53-1.93v-6.9Z"/><path class="cls-6" d="M186.27,163.85a5.58,5.58,0,0,1-1.58,4.27,6.48,6.48,0,0,1-4.59,1.48h-3.19V158.31h3.54a6,6,0,0,1,4.29,1.46A5.39,5.39,0,0,1,186.27,163.85Zm-2.48.06q0-3.63-3.22-3.63H179.3v7.35h1C182.63,167.63,183.79,166.39,183.79,163.91Z"/></svg>