<svg id="Layer_1" data-name="Layer 1" xmlns="http://www.w3.org/2000/svg" viewBox="0 0 600 600">
  <title>status_icon</title>
  <g>
    <path d="M300,577.5c153.26,0,277.5-124.24,277.5-277.5S453.26,22.5,300,22.5,22.5,146.74,22.5,300,146.74,577.5,300,577.5" style="fill: #f7f6f7"/>
    <path d="M399.91,329.33a47.65,47.65,0,0,0-42.58-37.66c0-.14,0-.28,0-.42a55.63,55.63,0,0,0-77.6-51.14,66.17,66.17,0,0,0-37.05-17.72,67.14,67.14,0,0,0-8.67-.63,66.43,66.43,0,0,0-14.83,1.72A66,66,0,0,1,319.36,213,55.65,55.65,0,0,1,397,264.18c0,.14,0,.28,0,.42a47.58,47.58,0,0,1-.67,94.86A47.17,47.17,0,0,0,401,339.14a47.94,47.94,0,0,0-1.07-9.81m-3-64.73c0-.14,0-.28,0-.42A55.65,55.65,0,0,0,319.36,213,66.14,66.14,0,0,0,250.23,199a66.18,66.18,0,0,1,103.94-16.33,55.66,55.66,0,0,1,77.61,51.14c0,.14,0,.28,0,.42a47.64,47.64,0,0,1,5.83,94.09,47.21,47.21,0,0,0-40.64-63.69M246.74,419.66a16,16,0,1,1,16,16,16,16,0,0,1-16-16m100.73,0H279m-32.33,0H178.1M262.78,387v16.65" style="fill: #fff"/>
    <path d="M262.78,440.47a20.84,20.84,0,0,1-20.26-16H178.1V414.9h64.42A20.88,20.88,0,0,1,258,399.41V387h9.53v12.44A20.87,20.87,0,0,1,283,414.9h64.43v9.53H283A20.83,20.83,0,0,1,262.78,440.47Zm0-32.08a11.28,11.28,0,1,0,11.29,11.28A11.29,11.29,0,0,0,262.78,408.39Zm125.69-43.61,3.49-7.36a42.34,42.34,0,0,0,4.26-18.29,43.17,43.17,0,0,0-39.29-42.71l-4.37-.37v-4.38a50.88,50.88,0,0,0-70.94-47.19l-2.89,1.25-2.28-2.17a61.07,61.07,0,0,0-34.39-16.45,58.13,58.13,0,0,0-21.81,1l-11.95,2.73,7-10.08a71,71,0,0,1,31.63-25.61,70.94,70.94,0,0,1,108.27-18A60.42,60.42,0,0,1,436.42,230a52.4,52.4,0,0,1,4.68,102.36,52.29,52.29,0,0,1-44.5,31.86ZM362,287.46a52.75,52.75,0,0,1,42.59,40.88h0a52.77,52.77,0,0,1,1.17,10.78,50.32,50.32,0,0,1-2.09,14.31,42.77,42.77,0,0,0,29.41-26.71l0-.08.33-.91a41.87,41.87,0,0,0,2.4-12.81c0-.29,0-.58,0-.86a43.12,43.12,0,0,0-39.29-42.72l-4.37-.36v-4.45a50.88,50.88,0,0,0-70.94-47.12l-2.89,1.24-2.28-2.17a61.38,61.38,0,0,0-64.15-13.06,60.55,60.55,0,0,0-21.19,13.64,66.39,66.39,0,0,1,12.58.59,70.63,70.63,0,0,1,37.43,16.91A60.44,60.44,0,0,1,362,287.46Zm83.38,24.61a48.2,48.2,0,0,1-.87,9.07A42.87,42.87,0,0,0,431.36,239l-4.37-.36,0-5a50.89,50.89,0,0,0-71-46.53l-2.89,1.24-2.28-2.17a61.37,61.37,0,0,0-89.47,4.9,68.9,68.9,0,0,1,10.46-1,71,71,0,0,1,48.49,17.56,60.44,60.44,0,0,1,81.25,52.88A52.74,52.74,0,0,1,445.37,312.07Z" style="fill: #2476ba"/>
    <path d="M166,303.89c1.24,0,2.45.08,3.67.19a66.27,66.27,0,0,1,110-64,55.65,55.65,0,0,1,77.6,51.14c0,.14,0,.28,0,.42a47.66,47.66,0,0,1-4,95.13H166a41.46,41.46,0,0,1,0-82.91" style="fill: #fff"/>
    <path d="M353.32,391.56H166a46.22,46.22,0,0,1-2.2-92.38,69.07,69.07,0,0,1-.92-11.1A71.31,71.31,0,0,1,234,217a68.86,68.86,0,0,1,9.29.68,70.54,70.54,0,0,1,37.43,16.9A60.44,60.44,0,0,1,362,287.46a52.69,52.69,0,0,1,43.76,51.67,51.89,51.89,0,0,1-5.18,22.38A52.62,52.62,0,0,1,353.32,391.56ZM166,308.66A36.69,36.69,0,1,0,166,382H353.32a43.36,43.36,0,0,0,42.9-42.9,43.16,43.16,0,0,0-39.29-42.71l-4.37-.37v-4.38a51,51,0,0,0-50.87-51.31,50.43,50.43,0,0,0-20.07,4.13l-2.89,1.24-2.28-2.17a61,61,0,0,0-34.39-16.45,61.32,61.32,0,0,0-67.73,75.82l1.61,6.51-6.67-.62C168.2,308.72,167.13,308.66,166,308.66Z" style="fill: #2476ba"/>
    <path d="M197.49,354.86H194v3.48h3.48Zm33.52,0h-3.48v3.48H231Zm100.54,0h-3.48v3.48h3.48Zm-67,0H261v3.48h3.48Zm33.52,0h-3.48v3.48H298ZM197.49,300.77H194v3.48h3.48Zm33.52,0h-3.48v3.48H231Zm100.54,0h-3.48v3.48h3.48Zm-67,0H261v3.48h3.48Zm33.52,0h-3.48v3.48H298ZM197.49,327.82H194v3.48h3.48Zm33.52,0h-3.48v3.48H231Zm100.54,0h-3.48v3.48h3.48Zm-67,0H261v3.48h3.48Zm33.52,0h-3.48v3.48H298Zm-67-54.09h-3.48v3.48H231Zm33.51,0H261v3.48h3.48Zm33.52,0h-3.48v3.48H298Z" style="fill: #fff"/>
    <path d="M336.32,363.1h-13v-13h13Zm-33.52,0h-13v-13h13Zm-33.51,0h-13v-13h13Zm-33.52,0h-13v-13h13Zm-33.51,0h-13v-13h13Zm134.06-27h-13v-13h13Zm-33.52,0h-13v-13h13Zm-33.51,0h-13v-13h13Zm-33.52,0h-13v-13h13Zm-33.51,0h-13v-13h13ZM336.32,309h-13V296h13Zm-33.52,0h-13V296h13Zm-33.51,0h-13V296h13Zm-33.52,0h-13V296h13Zm-33.51,0h-13V296h13ZM302.8,282h-13V269h13Zm-33.51,0h-13V269h13Zm-33.52,0h-13V269h13Z" style="fill: #2476ba"/>
  </g>
</svg>
