<svg id="Layer_1" data-name="Layer 1" xmlns="http://www.w3.org/2000/svg" viewBox="0 0 1346.77 734.28">
  <title>top_priorities</title>
  <line x1="81.29" y1="349.84" x2="1270.19" y2="349.84" style="fill: none;stroke: #524f59;stroke-miterlimit: 10"/>
  <text transform="translate(38.98 60.17)" style="font-size: 41.085365295410156px;fill: #2476ba;font-family: OpenSans-Bold, Open Sans;font-weight: 700">Organizations top Digital Transformation (DX) priorities based </text>
  <text transform="translate(38.98 111.52)" style="font-size: 41.085365295410156px;fill: #2476ba;font-family: OpenSans-Bold, Open Sans;font-weight: 700"><tspan xml:space="preserve">on its Digital Transformation  vision, strategy and roadmap?</tspan></text>
  <text transform="translate(63.41 241.43)" style="font-size: 57.26041793823242px;fill: #1d1d1b;font-family: OpenSans-Bold, Open Sans;font-weight: 700">45%</text>
  <text transform="translate(1170.06 241.43)" style="font-size: 57.26041793823242px;fill: #1d1d1b;font-family: OpenSans-Bold, Open Sans;font-weight: 700">41%</text>
  <text transform="translate(505.96 241.43)" style="font-size: 57.26041793823242px;fill: #1d1d1b;font-family: OpenSans-Bold, Open Sans;font-weight: 700">37%</text>
  <text transform="translate(284.43 241.43)" style="font-size: 57.26041793823242px;fill: #1d1d1b;font-family: OpenSans-Bold, Open Sans;font-weight: 700">43%</text>
  <text transform="translate(727.14 241.43)" style="font-size: 57.26041793823242px;fill: #1d1d1b;font-family: OpenSans-Bold, Open Sans;font-weight: 700">42%</text>
  <text transform="translate(948.71 241.43)" style="font-size: 57.26041793823242px;fill: #1d1d1b;font-family: OpenSans-Bold, Open Sans;font-weight: 700">40%</text>
  <text transform="translate(71.75 461.78)" style="font-size: 20.542682647705078px;fill: #1d1d1b;font-family: OpenSans-Bold, Open Sans;font-weight: 700">Customer </text>
  <text transform="translate(60.19 487.45)" style="font-size: 20.542682647705078px;fill: #1d1d1b;font-family: OpenSans-Bold, Open Sans;font-weight: 700">excellence – </text>
  <text transform="translate(58.37 520.41)" style="font-size: 20.542682647705078px;fill: #1d1d1b;font-family: OpenSans, Open Sans">Develop New </text>
  <text transform="translate(42.5 546.09)" style="font-size: 20.542682647705078px;fill: #1d1d1b;font-family: OpenSans, Open Sans">Digital Products/</text>
  <text transform="translate(83.63 571.77)" style="font-size: 20.542682647705078px;fill: #1d1d1b;font-family: OpenSans, Open Sans">services </text>
  <text transform="translate(1195.18 461.78)" style="font-size: 20.542682647705078px;fill: #1d1d1b;font-family: OpenSans-Bold, Open Sans;font-weight: 700"><tspan xml:space="preserve">Talent  </tspan></text>
  <text transform="translate(1166.46 487.45)" style="font-size: 20.542682647705078px;fill: #1d1d1b;font-family: OpenSans-Bold, Open Sans;font-weight: 700">Excellence – </text>
  <text transform="translate(1191.55 520.41)" style="font-size: 20.542682647705078px;fill: #1d1d1b;font-family: OpenSans, Open Sans">Change </text>
  <text transform="translate(1161.59 546.09)" style="font-size: 20.542682647705078px;fill: #1d1d1b;font-family: OpenSans, Open Sans">Management, </text>
  <text transform="translate(1163.02 571.77)" style="font-size: 20.542682647705078px;fill: #1d1d1b;font-family: OpenSans, Open Sans">Collaboration </text>
  <text transform="translate(1155.5 597.45)" style="font-size: 20.542682647705078px;fill: #1d1d1b;font-family: OpenSans, Open Sans">and Innovation </text>
  <text transform="translate(1192.48 623.13)" style="font-size: 20.542682647705078px;fill: #1d1d1b;font-family: OpenSans, Open Sans">Culture </text>
  <text transform="translate(944.56 461.78)" style="font-size: 20.542682647705078px;fill: #1d1d1b;font-family: OpenSans-Bold, Open Sans;font-weight: 700">Operational </text>
  <text transform="translate(944.93 487.45)" style="font-size: 20.542682647705078px;fill: #1d1d1b;font-family: OpenSans-Bold, Open Sans;font-weight: 700">Excellence – </text>
  <text transform="translate(949.64 520.41)" style="font-size: 20.542682647705078px;fill: #1d1d1b;font-family: OpenSans, Open Sans">Production/</text>
  <text transform="translate(952.98 546.09)" style="font-size: 20.542682647705078px;fill: #1d1d1b;font-family: OpenSans, Open Sans">Creation of<tspan x="0" y="25.96">Oferings </tspan></text>
  <text transform="translate(1050.57 571.77)" style="font-size: 20.542682647705078px;fill: #1d1d1b;font-family: OpenSans-Semibold, Open Sans;font-weight: 600"> </text>
  <text transform="translate(725.6 461.78)" style="font-size: 20.542682647705078px;fill: #1d1d1b;font-family: OpenSans-Bold, Open Sans;font-weight: 700">Operational </text>
  <text transform="translate(725.97 487.45)" style="font-size: 20.542682647705078px;fill: #1d1d1b;font-family: OpenSans-Bold, Open Sans;font-weight: 700">Excellence – </text>
  <text transform="translate(724.89 520.41)" style="font-size: 20.542682647705078px;fill: #1d1d1b;font-family: OpenSans, Open Sans">Supply Chain </text>
  <text transform="translate(705.77 546.09)" style="font-size: 20.542682647705078px;fill: #1d1d1b;font-family: OpenSans, Open Sans">and Distribution/</text>
  <text transform="translate(736.53 571.77)" style="font-size: 20.542682647705078px;fill: #1d1d1b;font-family: OpenSans, Open Sans">Ecosystem</text>
  <text transform="translate(540.82 461.78)" style="font-size: 20.542682647705078px;fill: #1d1d1b;font-family: OpenSans-Bold, Open Sans;font-weight: 700">Data </text>
  <text transform="translate(494.05 487.45)" style="font-size: 20.542682647705078px;fill: #1d1d1b;font-family: OpenSans-Bold, Open Sans;font-weight: 700">Capitalization </text>
  <text transform="translate(474.79 513.14)" style="font-size: 20.542682647705078px;fill: #1d1d1b;font-family: OpenSans-Bold, Open Sans;font-weight: 700">and Monetization </text>
  <text transform="translate(290.71 461.78)" style="font-size: 20.542682647705078px;fill: #1d1d1b;font-family: OpenSans-Bold, Open Sans;font-weight: 700">Customer </text>
  <text transform="translate(279.15 487.45)" style="font-size: 20.542682647705078px;fill: #1d1d1b;font-family: OpenSans-Bold, Open Sans;font-weight: 700">excellence – </text>
  <text transform="translate(285.05 520.41)" style="font-size: 20.542682647705078px;fill: #1d1d1b;font-family: OpenSans, Open Sans">Create New </text>
  <text transform="translate(293.72 546.09)" style="font-size: 20.542682647705078px;fill: #1d1d1b;font-family: OpenSans, Open Sans">Customer </text>
  <text transform="translate(275.85 571.77)" style="font-size: 20.542682647705078px;fill: #1d1d1b;font-family: OpenSans, Open Sans">Engagements </text>
  <text transform="translate(262.21 597.45)" style="font-size: 20.542682647705078px;fill: #1d1d1b;font-family: OpenSans, Open Sans">and Experiences </text>
  <path d="M121.9,270.42A79.25,79.25,0,0,1,146.39,425L121.9,349.67Z" style="fill: #d01317"/>
  <path d="M146.39,425A79.24,79.24,0,1,1,121.9,270.42v79.24Z" style="fill: #ededed"/>
  <path d="M122.07,412.77a62.94,62.94,0,1,0-62.94-62.93,62.94,62.94,0,0,0,62.94,62.93" style="fill: #fff"/>
  <path d="M160.08,377H130.19l-3.32,3.31h-8.3L115.25,377H83.7v1.66a6.63,6.63,0,0,0,6.64,6.63h63.1a6.63,6.63,0,0,0,6.64-6.63Zm-33.21-44.76,6.64,6.63L146.8,324m-36.53,19.89a6.63,6.63,0,0,0-6.64,6.6v1.73a6.64,6.64,0,0,0,13.28,0v-1.73a6.63,6.63,0,0,0-6.64-6.6m13.28,29.84v-2.66c0-4.63-9.58-7.28-13.28-7.28S97,366.42,97,371.05v2.66m13.29-33.15V319a5,5,0,0,1,5-5H155.1a5,5,0,0,1,5,5v26.52a5,5,0,0,1-5,5H141.82l-12.11,12.09a1.66,1.66,0,0,1-2.84-1.17V350.5h-6.64m34.87,3.32V377m-66.42,0V337.24A3.32,3.32,0,0,1,92,333.93h15" style="fill: #fff"/>
  <path d="M160.08,377H130.19l-3.32,3.31h-8.3L115.25,377H83.7v1.66a6.63,6.63,0,0,0,6.64,6.63h63.1a6.63,6.63,0,0,0,6.64-6.63Zm-33.21-44.76,6.64,6.63L146.8,324m-36.53,19.89a6.63,6.63,0,0,0-6.64,6.6v1.73a6.64,6.64,0,0,0,13.28,0v-1.73A6.63,6.63,0,0,0,110.27,343.87Zm13.28,29.84v-2.66c0-4.63-9.58-7.28-13.28-7.28S97,366.42,97,371.05v2.66m13.29-33.15V319a5,5,0,0,1,5-5H155.1a5,5,0,0,1,5,5v26.52a5,5,0,0,1-5,5H141.82l-12.11,12.09a1.66,1.66,0,0,1-2.84-1.17V350.5h-6.64m34.87,3.32V377m-66.42,0V337.24A3.32,3.32,0,0,1,92,333.93h15" style="fill: none;stroke: #d01317;stroke-miterlimit: 10;stroke-width: 0.8109999895095825px"/>
  <path d="M342.92,270.42a79.25,79.25,0,0,1,33.74,151l-33.74-71.7Z" style="fill: #d01317"/>
  <path d="M376.66,421.37a79.25,79.25,0,1,1-33.74-150.95v79.25Z" style="fill: #ededed"/>
  <path d="M343.66,412.77a62.94,62.94,0,1,0-62.94-62.93,62.94,62.94,0,0,0,62.94,62.93" style="fill: #fff"/>
  <path d="M371.55,373.28H354.5m9.3-4.55c0-4.89,3.24-9.18,6.46-12.91V352l-2.11-.68a2.54,2.54,0,0,1-1.77-2.4v-5.77a6.39,6.39,0,0,1,6.47-6.32,6.21,6.21,0,0,1,1.29.13,6.53,6.53,0,0,1,5.16,6.46,7.36,7.36,0,0,1-1.28,4.14l0,0a7.35,7.35,0,0,0-1.28,4.13v4.07a12.32,12.32,0,0,1,2.57,7.52v22.07M323.51,374.8v-5.64c0-4.88-3.24-9.61-6.45-13.34V352l2.1-.68a2.54,2.54,0,0,0,1.77-2.4v-5.77a6.39,6.39,0,0,0-6.47-6.32,6.21,6.21,0,0,0-1.29.13,6.52,6.52,0,0,0-5.15,6.46,7.35,7.35,0,0,0,1.27,4.14l0,0a7.35,7.35,0,0,1,1.28,4.13v4.07a12.32,12.32,0,0,0-2.57,7.52v22.07" style="fill: #fff"/>
  <path d="M371.55,373.28H354.5m9.3-4.55c0-4.89,3.24-9.18,6.46-12.91V352l-2.11-.68a2.54,2.54,0,0,1-1.77-2.4v-5.77a6.39,6.39,0,0,1,6.47-6.32,6.21,6.21,0,0,1,1.29.13,6.53,6.53,0,0,1,5.16,6.46,7.36,7.36,0,0,1-1.28,4.14l0,0a7.35,7.35,0,0,0-1.28,4.13v4.07a12.32,12.32,0,0,1,2.57,7.52v22.07M323.51,374.8v-5.64c0-4.88-3.24-9.61-6.45-13.34V352l2.1-.68a2.54,2.54,0,0,0,1.77-2.4v-5.77a6.39,6.39,0,0,0-6.47-6.32,6.21,6.21,0,0,0-1.29.13,6.52,6.52,0,0,0-5.15,6.46,7.35,7.35,0,0,0,1.27,4.14l0,0a7.35,7.35,0,0,1,1.28,4.13v4.07a12.32,12.32,0,0,0-2.57,7.52v22.07" style="fill: none;stroke: #d01317;stroke-miterlimit: 10;stroke-width: 0.8109999895095825px"/>
  <path d="M355.94,379.8l-6.14-17H334.44l6.14,17h32.24v2.83c-1.2,1.11-1.87,1.74-3.07,2.84H317.56c-1.2-1.1-1.87-1.73-3.07-2.84V379.8H336" style="fill: #fff"/>
  <path d="M355.94,379.8l-6.14-17H334.44l6.14,17h32.24v2.83c-1.2,1.11-1.87,1.74-3.07,2.84H317.56c-1.2-1.1-1.87-1.73-3.07-2.84V379.8H336" style="fill: none;stroke: #d01317;stroke-miterlimit: 10;stroke-width: 0.8109999895095825px"/>
  <path d="M360.7,346.6l-4.65-5.89h-7.74m31-8.84v-16.2a1.51,1.51,0,0,0-1.54-1.47h-34.1v26.51H331.32l-4.71,5.89M339,314.2H309.57a1.51,1.51,0,0,0-1.55,1.47v15" style="fill: #fff"/>
  <path d="M360.7,346.6l-4.65-5.89h-7.74m31-8.84v-16.2a1.51,1.51,0,0,0-1.54-1.47h-34.1v26.51H331.32l-4.71,5.89M339,314.2H309.57a1.51,1.51,0,0,0-1.55,1.47v15" style="fill: none;stroke: #d01317;stroke-miterlimit: 10;stroke-width: 0.8109999895095825px"/>
  <path d="M330.7,328.14h3.24m-9.71,0h3.23m-9.71,0H321m45.33,0h3.24m-9.71,0h3.23m-9.71,0h3.24" style="fill: none;stroke: #d01317;stroke-miterlimit: 10;stroke-width: 0.8109999895095825px"/>
  <path d="M564.44,270.42a79.42,79.42,0,0,1,57.89,133.79l-57.89-54.36Z" style="fill: #d01317"/>
  <path d="M622.33,404.21a79.42,79.42,0,1,1-57.9-133.79v79.42Z" style="fill: #ededed"/>
  <path d="M565.33,412.77a62.94,62.94,0,1,0-62.93-62.93,62.94,62.94,0,0,0,62.93,62.93" style="fill: #fff"/>
  <path d="M550.8,334.12v2.67m0-14.64v2.67M548,332.2v.57a1.85,1.85,0,0,0,1.91,1.78h1.54a1.85,1.85,0,0,0,1.91-1.78v-1.22a1.87,1.87,0,0,0-1.12-1.42l-2.78-1m3.9-2.18v-.57a1.85,1.85,0,0,0-1.91-1.78h-1.54a1.85,1.85,0,0,0-1.91,1.78v1.22a1.81,1.81,0,0,0,1.08,1.39l2.92,1m-1.31,9.8c-6.13,0-11.1-4.64-11.1-10.36s5-10.36,11.1-10.36,11.07,4.64,11.07,10.36-4.95,10.36-11.07,10.36m-25.21,42.95h77.89M525.49,323.9h6.39m-6.39,6.54h6.39M525.49,337h6.39m-6.39,6.54h6.39m-6.39,6.54h6.39m-6.39,6.54h6.39m-6.39,6.54h6.39m-6.39,6.55h6.39m-6.39,6.54h6.39m60-59.2-55.61,52.48m55.92-40.64v-12H579.51M552.44,376h-9.27v-6.4h9.27Zm32.81,0H576V347.52h9.28Zm16.4,0h-9.28v-39.4h9.28Zm-32.8,0h-9.28V360.7h9.28Z" style="fill: #fff"/>
  <path d="M550.8,334.12v2.67m0-14.64v2.67M548,332.2v.57a1.85,1.85,0,0,0,1.91,1.78h1.54a1.85,1.85,0,0,0,1.91-1.78v-1.22a1.87,1.87,0,0,0-1.12-1.42l-2.78-1m3.9-2.18v-.57a1.85,1.85,0,0,0-1.91-1.78h-1.54a1.85,1.85,0,0,0-1.91,1.78v1.22a1.81,1.81,0,0,0,1.08,1.39l2.92,1m-1.31,9.8c-6.13,0-11.1-4.64-11.1-10.36s5-10.36,11.1-10.36,11.07,4.64,11.07,10.36S556.82,339.83,550.7,339.83Zm-25.21,42.95h77.89M525.49,323.9h6.39m-6.39,6.54h6.39M525.49,337h6.39m-6.39,6.54h6.39m-6.39,6.54h6.39m-6.39,6.54h6.39m-6.39,6.54h6.39m-6.39,6.55h6.39m-6.39,6.54h6.39m60-59.2-55.61,52.48m55.92-40.64v-12H579.51M552.44,376h-9.27v-6.4h9.27Zm32.81,0H576V347.52h9.28Zm16.4,0h-9.28v-39.4h9.28Zm-32.8,0h-9.28V360.7h9.28Z" style="fill: none;stroke: #d01317;stroke-miterlimit: 10;stroke-width: 0.8109999895095825px"/>
  <path d="M785.63,270.42A79.25,79.25,0,0,1,823.8,419.11l-38.17-69.45Z" style="fill: #d01317"/>
  <path d="M823.81,419.11a79.25,79.25,0,1,1-38.18-148.69v79.25Z" style="fill: #ededed"/>
  <path d="M784.43,412.77a62.94,62.94,0,1,0-62.94-62.93,62.93,62.93,0,0,0,62.94,62.93" style="fill: #fff"/>
  <path d="M777.48,379.87l-.5,2.51c.86.17,1.75.31,2.62.42l.3-2.54c-.8-.09-1.62-.23-2.42-.39m-4.7-1.35-.91,2.39c.83.31,1.68.59,2.53.84l.7-2.46c-.78-.22-1.56-.48-2.32-.77m-4.43-2.09-1.27,2.22c.77.44,1.56.85,2.35,1.23l1.09-2.31c-.73-.35-1.47-.73-2.17-1.14m-4-2.77-1.61,2c.69.56,1.41,1.09,2.13,1.58l1.44-2.1c-.66-.46-1.32-.95-2-1.47m-3.2-3-1.87,1.74c.47.51,1,1,1.47,1.49l1.76-1.86c-.47-.44-.92-.9-1.36-1.37m-3-36.47-2.19-1.31c-.44.75-.87,1.53-1.26,2.34l2.29,1.13c.36-.75.76-1.47,1.16-2.16m2.84-4-2-1.64c-.57.69-1.11,1.4-1.61,2.11l2.08,1.47c.47-.66,1-1.31,1.5-1.94m1.64-1.81c.57-.58,1.17-1.15,1.78-1.69l-1.67-1.92c-.67.58-1.32,1.19-1.93,1.82Zm3.7-3.22c.66-.48,1.34-.95,2-1.37l-1.34-2.17c-.75.46-1.49,1-2.2,1.49Zm4.15-2.58c.73-.38,1.48-.72,2.22-1l-1-2.35c-.81.34-1.62.71-2.41,1.12Zm4.52-1.89c.77-.25,1.57-.48,2.35-.67l-.59-2.48c-.85.2-1.71.45-2.55.72Zm8.23,43.18h-1.44a2.83,2.83,0,0,0-.17-.4,5.24,5.24,0,0,0-.29-.64,5.45,5.45,0,0,0-.64-.95c-.15-.17-.28-.34-.45-.5a5,5,0,0,0-1-.68,5.29,5.29,0,0,0-.52-.29,4.81,4.81,0,0,0-3.7,0,11.49,11.49,0,0,0-1.54,1c-.17.16-.3.33-.45.5a5.51,5.51,0,0,0-.65.95c-.1.21-.2.42-.28.64a2.83,2.83,0,0,0-.17.4H761.29c0-.15-.13-.26-.18-.4a5.17,5.17,0,0,0-.28-.64,5.45,5.45,0,0,0-.64-.95c-.15-.17-.29-.34-.46-.5a5,5,0,0,0-1-.68,5.29,5.29,0,0,0-.52-.29,5.13,5.13,0,0,0-1.85-.37,5.21,5.21,0,0,0-1.85.37,5.14,5.14,0,0,0-.51.29,4.77,4.77,0,0,0-1,.68c-.17.16-.31.33-.46.5a5.45,5.45,0,0,0-.64.95,4,4,0,0,0-.28.64c-.05.14-.14.25-.18.4h-2.72v-6.39h21.71a1.27,1.27,0,0,0,1.27-1.27v-7.66h5.86l5.63,5.63Zm-14-8.94H748.68v-14h20.43v14Zm-15.32,10.21a2.56,2.56,0,1,1,2.55,2.56,2.56,2.56,0,0,1-2.55-2.56m20.43,0a2.55,2.55,0,1,1,2.55,2.56,2.55,2.55,0,0,1-2.55-2.56m11.11-12.39L779,346.38a1.26,1.26,0,0,0-.9-.37h-6.39v-6.39a1.27,1.27,0,0,0-1.27-1.27h-23a1.27,1.27,0,0,0-1.28,1.27v25.53a1.28,1.28,0,0,0,1.28,1.28h4.09a5,5,0,0,0,9.69,0h10.73a5,5,0,0,0,9.7,0h2.81a1.28,1.28,0,0,0,1.28-1.28V353.67a1.3,1.3,0,0,0-.38-.91m-5.65-33.2c.8-.12,1.62-.22,2.43-.28l-.19-2.55c-.88.07-1.77.17-2.63.31Zm7.33-.26.22-2.54c-.87-.07-1.77-.11-2.66-.12v2.55c.83,0,1.65.05,2.45.11m4.83.8.62-2.48c-.85-.21-1.72-.39-2.6-.54l-.41,2.52c.8.14,1.61.3,2.39.5m4.64,1.56,1-2.35c-.81-.35-1.65-.67-2.48-.95l-.81,2.42c.76.26,1.53.56,2.28.88m4.34,2.28,1.36-2.15c-.75-.48-1.52-.93-2.29-1.33l-1.19,2.25c.71.38,1.43.79,2.12,1.23m-11.28,13.13H787v3.83h2.56Zm10.21,0H797.2v3.83h2.55Zm10.21,0h-2.55v3.83H810Zm10.22,6.38h-5.11V333.24h5.11Zm0-12.76h-5.11v-16.6h5.11Zm-7.66,12.76h-7.66v-8.23l7.66-4.78v13Zm-10.22,0h-7.66v-8.23l7.66-4.78v13Zm-10.21,0h-7.66v-8.23l7.66-4.78v13Zm30.64,1.28V312.81a1.27,1.27,0,0,0-1.28-1.27h-7.66a1.27,1.27,0,0,0-1.27,1.27v14.61l-7.66,4.79v-4.08a1.28,1.28,0,0,0-2-1.08l-8.26,5.16v-4.08a1.27,1.27,0,0,0-1.95-1.08l-10.21,6.38a1.28,1.28,0,0,0-.6,1.08v10.22a1.28,1.28,0,0,0,1.27,1.28h38.3a1.28,1.28,0,0,0,1.28-1.28m-6.05,11.72c.21-.85.38-1.73.52-2.6l-2.52-.41c-.13.81-.29,1.62-.48,2.4Zm-1.61-7.89c0,.82,0,1.64-.1,2.45l2.55.2c.07-.87.1-1.76.1-2.65ZM815,361.49c.34-.81.66-1.65.94-2.49l-2.43-.8c-.26.77-.55,1.54-.86,2.29Zm-2.45,4.7c.47-.75.91-1.52,1.32-2.3l-2.27-1.18c-.37.72-.78,1.43-1.22,2.13ZM820.18,383H810v-2.56a2.56,2.56,0,0,1,2.56-2.55h5.1a2.56,2.56,0,0,1,2.56,2.55Zm-2.56-10.22a2.55,2.55,0,1,1-2.55-2.55,2.56,2.56,0,0,1,2.55,2.55m-10.21,12.77H797.2V383a2.56,2.56,0,0,1,2.55-2.56h5.11a2.56,2.56,0,0,1,2.55,2.56v2.55Zm-2.55-10.21a2.56,2.56,0,1,1-2.56-2.56,2.56,2.56,0,0,1,2.56,2.56M794.64,383H784.43v-2.56a2.56,2.56,0,0,1,2.55-2.55h5.11a2.55,2.55,0,0,1,2.55,2.55Zm-2.55-10.22a2.56,2.56,0,1,1-2.55-2.55,2.56,2.56,0,0,1,2.55,2.55m30.64,11.49v-3.83a5.05,5.05,0,0,0-3.55-4.79,5,5,0,0,0,1-2.87,5.11,5.11,0,0,0-10.22,0,5,5,0,0,0,1,2.87,5.18,5.18,0,0,0-3.29,3.2,5.94,5.94,0,0,0-1.25-.65,5,5,0,0,0,1-2.86,5.11,5.11,0,1,0-10.21,0,5,5,0,0,0,1,2.86,5.78,5.78,0,0,0-1.26.65,5.15,5.15,0,0,0-3.28-3.2,5,5,0,0,0,1-2.87,5.11,5.11,0,0,0-10.21,0,5,5,0,0,0,1,2.87,5.05,5.05,0,0,0-3.55,4.79v3.83a1.27,1.27,0,0,0,1.27,1.28h11.49v1.28a1.29,1.29,0,0,0,1.28,1.28h12.77a1.28,1.28,0,0,0,1.27-1.28v-1.28h11.49a1.28,1.28,0,0,0,1.28-1.28" style="fill: #d01317"/>
  <path d="M777.48,379.87l-.5,2.51c.86.17,1.75.31,2.62.42l.3-2.54C779.1,380.17,778.28,380,777.48,379.87Zm-4.7-1.35-.91,2.39c.83.31,1.68.59,2.53.84l.7-2.46C774.32,379.07,773.54,378.81,772.78,378.52Zm-4.43-2.09-1.27,2.22c.77.44,1.56.85,2.35,1.23l1.09-2.31C769.79,377.22,769.05,376.84,768.35,376.43Zm-4-2.77-1.61,2c.69.56,1.41,1.09,2.13,1.58l1.44-2.1C765.61,374.67,765,374.18,764.31,373.66Zm-3.2-3-1.87,1.74c.47.51,1,1,1.47,1.49l1.76-1.86C762,371.6,761.55,371.14,761.11,370.67Zm-3-36.47-2.19-1.31c-.44.75-.87,1.53-1.26,2.34l2.29,1.13C757.27,335.61,757.67,334.89,758.07,334.2Zm2.84-4-2-1.64c-.57.69-1.11,1.4-1.61,2.11l2.08,1.47C759.88,331.48,760.38,330.83,760.91,330.2Zm1.64-1.81c.57-.58,1.17-1.15,1.78-1.69l-1.67-1.92c-.67.58-1.32,1.19-1.93,1.82Zm3.7-3.22c.66-.48,1.34-.95,2-1.37l-1.34-2.17c-.75.46-1.49,1-2.2,1.49Zm4.15-2.58c.73-.38,1.48-.72,2.22-1l-1-2.35c-.81.34-1.62.71-2.41,1.12Zm4.52-1.89c.77-.25,1.57-.48,2.35-.67l-.59-2.48c-.85.2-1.71.45-2.55.72Zm8.23,43.18h-1.44a2.83,2.83,0,0,0-.17-.4,5.24,5.24,0,0,0-.29-.64,5.45,5.45,0,0,0-.64-.95c-.15-.17-.28-.34-.45-.5a5,5,0,0,0-1-.68,5.29,5.29,0,0,0-.52-.29,4.81,4.81,0,0,0-3.7,0,11.49,11.49,0,0,0-1.54,1c-.17.16-.3.33-.45.5a5.51,5.51,0,0,0-.65.95c-.1.21-.2.42-.28.64a2.83,2.83,0,0,0-.17.4H761.29c0-.15-.13-.26-.18-.4a5.17,5.17,0,0,0-.28-.64,5.45,5.45,0,0,0-.64-.95c-.15-.17-.29-.34-.46-.5a5,5,0,0,0-1-.68,5.29,5.29,0,0,0-.52-.29,5.13,5.13,0,0,0-1.85-.37,5.21,5.21,0,0,0-1.85.37,5.14,5.14,0,0,0-.51.29,4.77,4.77,0,0,0-1,.68c-.17.16-.31.33-.46.5a5.45,5.45,0,0,0-.64.95,4,4,0,0,0-.28.64c-.05.14-.14.25-.18.4h-2.72v-6.39h21.71a1.27,1.27,0,0,0,1.27-1.27v-7.66h5.86l5.63,5.63Zm-14-8.94H748.68v-14h20.43v14Zm-15.32,10.21a2.56,2.56,0,1,1,2.55,2.56A2.56,2.56,0,0,1,753.79,365.15Zm20.43,0a2.55,2.55,0,1,1,2.55,2.56A2.55,2.55,0,0,1,774.22,365.15Zm11.11-12.39L779,346.38a1.26,1.26,0,0,0-.9-.37h-6.39v-6.39a1.27,1.27,0,0,0-1.27-1.27h-23a1.27,1.27,0,0,0-1.28,1.27v25.53a1.28,1.28,0,0,0,1.28,1.28h4.09a5,5,0,0,0,9.69,0h10.73a5,5,0,0,0,9.7,0h2.81a1.28,1.28,0,0,0,1.28-1.28V353.67A1.3,1.3,0,0,0,785.33,352.76Zm-5.65-33.2c.8-.12,1.62-.22,2.43-.28l-.19-2.55c-.88.07-1.77.17-2.63.31Zm7.33-.26.22-2.54c-.87-.07-1.77-.11-2.66-.12v2.55C785.39,319.2,786.21,319.24,787,319.3Zm4.83.8.62-2.48c-.85-.21-1.72-.39-2.6-.54l-.41,2.52C790.25,319.74,791.06,319.9,791.84,320.1Zm4.64,1.56,1-2.35c-.81-.35-1.65-.67-2.48-.95l-.81,2.42C795,321,795.73,321.34,796.48,321.66Zm4.34,2.28,1.36-2.15c-.75-.48-1.52-.93-2.29-1.33l-1.19,2.25C799.41,323.09,800.13,323.5,800.82,323.94Zm-11.28,13.13H787v3.83h2.56Zm10.21,0H797.2v3.83h2.55Zm10.21,0h-2.55v3.83H810Zm10.22,6.38h-5.11V333.24h5.11Zm0-12.76h-5.11v-16.6h5.11Zm-7.66,12.76h-7.66v-8.23l7.66-4.78v13Zm-10.22,0h-7.66v-8.23l7.66-4.78v13Zm-10.21,0h-7.66v-8.23l7.66-4.78v13Zm30.64,1.28V312.81a1.27,1.27,0,0,0-1.28-1.27h-7.66a1.27,1.27,0,0,0-1.27,1.27v14.61l-7.66,4.79v-4.08a1.28,1.28,0,0,0-2-1.08l-8.26,5.16v-4.08a1.27,1.27,0,0,0-1.95-1.08l-10.21,6.38a1.28,1.28,0,0,0-.6,1.08v10.22a1.28,1.28,0,0,0,1.27,1.28h38.3A1.28,1.28,0,0,0,822.73,344.73Zm-6.05,11.72c.21-.85.38-1.73.52-2.6l-2.52-.41c-.13.81-.29,1.62-.48,2.4Zm-1.61-7.89c0,.82,0,1.64-.1,2.45l2.55.2c.07-.87.1-1.76.1-2.65ZM815,361.49c.34-.81.66-1.65.94-2.49l-2.43-.8c-.26.77-.55,1.54-.86,2.29Zm-2.45,4.7c.47-.75.91-1.52,1.32-2.3l-2.27-1.18c-.37.72-.78,1.43-1.22,2.13ZM820.18,383H810v-2.56a2.56,2.56,0,0,1,2.56-2.55h5.1a2.56,2.56,0,0,1,2.56,2.55Zm-2.56-10.22a2.55,2.55,0,1,1-2.55-2.55A2.56,2.56,0,0,1,817.62,372.81Zm-10.21,12.77H797.2V383a2.56,2.56,0,0,1,2.55-2.56h5.11a2.56,2.56,0,0,1,2.55,2.56v2.55Zm-2.55-10.21a2.56,2.56,0,1,1-2.56-2.56A2.56,2.56,0,0,1,804.86,375.37ZM794.64,383H784.43v-2.56a2.56,2.56,0,0,1,2.55-2.55h5.11a2.55,2.55,0,0,1,2.55,2.55Zm-2.55-10.22a2.56,2.56,0,1,1-2.55-2.55A2.56,2.56,0,0,1,792.09,372.81Zm30.64,11.49v-3.83a5.05,5.05,0,0,0-3.55-4.79,5,5,0,0,0,1-2.87,5.11,5.11,0,0,0-10.22,0,5,5,0,0,0,1,2.87,5.18,5.18,0,0,0-3.29,3.2,5.94,5.94,0,0,0-1.25-.65,5,5,0,0,0,1-2.86,5.11,5.11,0,1,0-10.21,0,5,5,0,0,0,1,2.86,5.78,5.78,0,0,0-1.26.65,5.15,5.15,0,0,0-3.28-3.2,5,5,0,0,0,1-2.87,5.11,5.11,0,0,0-10.21,0,5,5,0,0,0,1,2.87,5.05,5.05,0,0,0-3.55,4.79v3.83a1.27,1.27,0,0,0,1.27,1.28h11.49v1.28a1.29,1.29,0,0,0,1.28,1.28h12.77a1.28,1.28,0,0,0,1.27-1.28v-1.28h11.49A1.28,1.28,0,0,0,822.73,384.3Z" style="fill: none;stroke: #fff;stroke-miterlimit: 10;stroke-width: 0.20000000298023224px"/>
  <path d="M1007.19,270.41a79.4,79.4,0,0,1,46.67,143.64l-46.67-64.24Z" style="fill: #d01317"/>
  <path d="M1053.86,414.05a79.4,79.4,0,1,1-46.67-143.64v79.4Z" style="fill: #ededed"/>
  <path d="M1008.19,412.77a62.94,62.94,0,1,0-62.94-62.93,62.93,62.93,0,0,0,62.94,62.93" style="fill: #fff"/>
  <path d="M975.18,345.63v16.59m62.57-24.16v7.27m-6.25-3.41V346m-6.26-3.11v3.59m-6.26-9.39v15.07m-6.25-18v28m-6.26-19.33v19.33m-6.26-15.62v15.62M994,342.89v19.33M987.7,339v23.19m-6.26-20.3v20.3m-7.2-21.33,13.32-7.46,13.3,8.43,6.18-8.13,7.11-9.35,13.33,14.55,13.24-7.84m-73.6-13.82V368.2h45.44m25.58-4.58a5.2,5.2,0,0,1-2.9,6.85,5.41,5.41,0,0,1-7-2.83,5.2,5.2,0,0,1,2.9-6.85,5.41,5.41,0,0,1,7,2.83m11.07-2.18-1.67-3.93a.74.74,0,0,0-.91-.41l-3.75,1.2a.74.74,0,0,1-.79-.23,11.64,11.64,0,0,0-1.18-1.15.73.73,0,0,1-.23-.78l1.22-3.66a.71.71,0,0,0-.41-.89l-4-1.63a.75.75,0,0,0-.94.34l-1.78,3.43a.75.75,0,0,1-.72.4,11.64,11.64,0,0,0-1.67,0,.77.77,0,0,1-.73-.39l-1.78-3.44a.74.74,0,0,0-.94-.34l-4,1.63a.71.71,0,0,0-.42.89l1.23,3.66a.73.73,0,0,1-.24.78,14.25,14.25,0,0,0-1.18,1.15.76.76,0,0,1-.79.23l-3.74-1.2a.75.75,0,0,0-.92.41l-1.66,3.93a.71.71,0,0,0,.35.92l3.51,1.75a.72.72,0,0,1,.4.7,11.09,11.09,0,0,0,0,1.63.72.72,0,0,1-.4.71l-3.51,1.75a.71.71,0,0,0-.35.92l1.66,3.93a.75.75,0,0,0,.92.41l3.74-1.2a.76.76,0,0,1,.8.23,12.68,12.68,0,0,0,1.17,1.15.71.71,0,0,1,.23.78l-1.22,3.66a.71.71,0,0,0,.42.89l4,1.63a.73.73,0,0,0,.94-.34l1.78-3.44a.77.77,0,0,1,.73-.39,11.64,11.64,0,0,0,1.67,0,.75.75,0,0,1,.72.39l1.78,3.44a.74.74,0,0,0,.94.34l4-1.63a.71.71,0,0,0,.41-.89l-1.22-3.66a.72.72,0,0,1,.23-.78,11.66,11.66,0,0,0,1.18-1.15.76.76,0,0,1,.8-.23l3.74,1.2a.74.74,0,0,0,.91-.41l1.67-3.93a.73.73,0,0,0-.35-.92l-3.51-1.74a.74.74,0,0,1-.4-.71,11.09,11.09,0,0,0,0-1.63.72.72,0,0,1,.4-.71l3.52-1.75a.73.73,0,0,0,.35-.92" style="fill: #fff"/>
  <path d="M975.18,345.63v16.59m62.57-24.16v7.27m-6.25-3.41V346m-6.26-3.11v3.59m-6.26-9.39v15.07m-6.25-18v28m-6.26-19.33v19.33m-6.26-15.62v15.62M994,342.89v19.33M987.7,339v23.19m-6.26-20.3v20.3m-7.2-21.33,13.32-7.46,13.3,8.43,6.18-8.13,7.11-9.35,13.33,14.55,13.24-7.84m-73.6-13.82V368.2h45.44m25.58-4.58a5.2,5.2,0,0,1-2.9,6.85,5.41,5.41,0,0,1-7-2.83,5.2,5.2,0,0,1,2.9-6.85A5.41,5.41,0,0,1,1038.14,363.62Zm11.07-2.18-1.67-3.93a.74.74,0,0,0-.91-.41l-3.75,1.2a.74.74,0,0,1-.79-.23,11.64,11.64,0,0,0-1.18-1.15.73.73,0,0,1-.23-.78l1.22-3.66a.71.71,0,0,0-.41-.89l-4-1.63a.75.75,0,0,0-.94.34l-1.78,3.43a.75.75,0,0,1-.72.4,11.64,11.64,0,0,0-1.67,0,.77.77,0,0,1-.73-.39l-1.78-3.44a.74.74,0,0,0-.94-.34l-4,1.63a.71.71,0,0,0-.42.89l1.23,3.66a.73.73,0,0,1-.24.78,14.25,14.25,0,0,0-1.18,1.15.76.76,0,0,1-.79.23l-3.74-1.2a.75.75,0,0,0-.92.41l-1.66,3.93a.71.71,0,0,0,.35.92l3.51,1.75a.72.72,0,0,1,.4.7,11.09,11.09,0,0,0,0,1.63.72.72,0,0,1-.4.71l-3.51,1.75a.71.71,0,0,0-.35.92l1.66,3.93a.75.75,0,0,0,.92.41l3.74-1.2a.76.76,0,0,1,.8.23,12.68,12.68,0,0,0,1.17,1.15.71.71,0,0,1,.23.78l-1.22,3.66a.71.71,0,0,0,.42.89l4,1.63a.73.73,0,0,0,.94-.34l1.78-3.44a.77.77,0,0,1,.73-.39,11.64,11.64,0,0,0,1.67,0,.75.75,0,0,1,.72.39l1.78,3.44a.74.74,0,0,0,.94.34l4-1.63a.71.71,0,0,0,.41-.89l-1.22-3.66a.72.72,0,0,1,.23-.78,11.66,11.66,0,0,0,1.18-1.15.76.76,0,0,1,.8-.23l3.74,1.2a.74.74,0,0,0,.91-.41l1.67-3.93a.73.73,0,0,0-.35-.92l-3.51-1.74a.74.74,0,0,1-.4-.71,11.09,11.09,0,0,0,0-1.63.72.72,0,0,1,.4-.71l3.52-1.75A.73.73,0,0,0,1049.21,361.44Z" style="fill: none;stroke: #d01317;stroke-miterlimit: 10;stroke-width: 0.8109999895095825px"/>
  <path d="M1228.54,270.42A79.42,79.42,0,0,1,1271.1,416.9l-42.56-67Z" style="fill: #d01317"/>
  <path d="M1271.1,416.9a79.43,79.43,0,1,1-42.56-146.48v79.42Z" style="fill: #ededed"/>
  <path d="M1228.53,412.77a62.94,62.94,0,1,0-62.93-62.93,62.94,62.94,0,0,0,62.93,62.93" style="fill: #fff"/>
  <path d="M1226.66,367.3l4.44-4.22,4.44,4.22m-4.44-4.22v19.17m0-49.63H1220v49.63m-3.88-30.74h-7.21v30.74M1205,370.4h-7.22v11.85m51.84-35.92V349m0-7.9v2.63m7.84,13.75h6.27V340.06a7.24,7.24,0,0,0-2.3-5.26,8,8,0,0,0-5.54-2.18h-1.28l-5,4.74-5-4.74h-1.28a8,8,0,0,0-5.54,2.18,7.24,7.24,0,0,0-2.3,5.26v17.38h6.27m15.68,24.81V353.47m-15.68,0v28.78m7.84-20.84v20.84m7.32-61.54a7.33,7.33,0,1,1-7.32-6.95,7.15,7.15,0,0,1,7.32,6.95m-64.7,65.23h71.49" style="fill: #fff"/>
  <path d="M1226.66,367.3l4.44-4.22,4.44,4.22m-4.44-4.22v19.17m0-49.63H1220v49.63m-3.88-30.74h-7.21v30.74M1205,370.4h-7.22v11.85m51.84-35.92V349m0-7.9v2.63m7.84,13.75h6.27V340.06a7.24,7.24,0,0,0-2.3-5.26,8,8,0,0,0-5.54-2.18h-1.28l-5,4.74-5-4.74h-1.28a8,8,0,0,0-5.54,2.18,7.24,7.24,0,0,0-2.3,5.26v17.38h6.27m15.68,24.81V353.47m-15.68,0v28.78m7.84-20.84v20.84m7.32-61.54a7.33,7.33,0,1,1-7.32-6.95A7.15,7.15,0,0,1,1257,320.71Zm-64.7,65.23h71.49" style="fill: none;stroke: #d01317;stroke-miterlimit: 10;stroke-width: 0.8109999895095825px"/>
  <text transform="translate(38.98 669.93)" style="font-size: 20.542682647705078px;fill: #524f59;font-family: OpenSans-Semibold, Open Sans;font-weight: 600">Source: IDC DX Leaders’ Survey 2019; Europe, N=400</text>
</svg>
