<svg id="Layer_1" data-name="Layer 1" xmlns="http://www.w3.org/2000/svg" viewBox="0 0 600 600">
  <title>value_icon</title>
  <path d="M300,577.5c153.26,0,277.5-124.24,277.5-277.5S453.26,22.5,300,22.5,22.5,146.74,22.5,300,146.74,577.5,300,577.5" style="fill: #f7f6f7"/>
  <path d="M202.92,364.45V296.21H164.81v68.24m106.71,0V258.3H233.4V364.45M340.11,243.13V212.8H302V364.45M424,341.7l53.35,53.08M446.81,300a57.17,57.17,0,1,1-57.16-56.87A57,57,0,0,1,446.81,300m-221,125.11H378.21M324.86,387.2v37.91m-45.73,0V387.2m160.06,0H134.32a7.6,7.6,0,0,1-7.62-7.59V182.47a7.6,7.6,0,0,1,7.62-7.58H469.68a7.6,7.6,0,0,1,7.62,7.58v182" style="fill: #fff"/>
  <path d="M378.22,429.87H225.78v-9.52h48.59V392h-140a12.39,12.39,0,0,1-12.39-12.35V182.47a12.38,12.38,0,0,1,12.39-12.34H469.68a12.38,12.38,0,0,1,12.39,12.34v182h-9.53v-182a2.84,2.84,0,0,0-2.86-2.82H134.32a2.85,2.85,0,0,0-2.86,2.82V379.61a2.84,2.84,0,0,0,2.86,2.82H439.19V392H329.62v28.39h48.6Zm-94.32-9.52h36.2V392H283.9Zm190-22.19-48.28-48A61.75,61.75,0,1,1,433,344l47.66,47.43ZM389.65,247.9a52.11,52.11,0,1,0,52.4,52.1A52.3,52.3,0,0,0,389.65,247.9ZM306.76,364.45h-9.52V208h47.63v35.09h-9.53V217.57H306.76Zm-30.48,0h-9.53V263.06H238.17V364.45h-9.53V253.53h47.64Zm-68.6,0h-9.53V301H169.58v63.48h-9.53v-73h47.63Z" style="fill: #2476ba"/>
</svg>
