<svg id="Layer_1" data-name="Layer 1" xmlns="http://www.w3.org/2000/svg" viewBox="0 0 1393.3 662.42">
  <title>ww_cloud_adoption</title>
  <text transform="translate(62.26 643.95)" style="font-size: 20.7531681060791px;fill: #524f59;font-family: OpenSans-Semibold, Open Sans;font-weight: 600">Source: IDC Semiannual Software Tracker, 1H19</text>
  <line x1="117.96" y1="513.66" x2="1318.73" y2="513.66" style="fill: none;stroke: #c6c6c6;stroke-linecap: round;stroke-linejoin: round;stroke-width: 0.75px;stroke-dasharray: 0,2.252000093460083"/>
  <path d="M1321.65,513.66h0m-1209.54,0h0" style="fill: none;stroke: #c6c6c6;stroke-linecap: round;stroke-linejoin: round;stroke-width: 0.75px"/>
  <line x1="117.96" y1="467.68" x2="1318.73" y2="467.68" style="fill: none;stroke: #c6c6c6;stroke-linecap: round;stroke-linejoin: round;stroke-width: 0.75px;stroke-dasharray: 0,2.252000093460083"/>
  <path d="M1321.65,467.68h0m-1209.54,0h0" style="fill: none;stroke: #c6c6c6;stroke-linecap: round;stroke-linejoin: round;stroke-width: 0.75px"/>
  <line x1="117.96" y1="421.89" x2="1318.73" y2="421.89" style="fill: none;stroke: #c6c6c6;stroke-linecap: round;stroke-linejoin: round;stroke-width: 0.75px;stroke-dasharray: 0,2.252000093460083"/>
  <path d="M1321.65,421.89h0m-1209.54,0h0" style="fill: none;stroke: #c6c6c6;stroke-linecap: round;stroke-linejoin: round;stroke-width: 0.75px"/>
  <line x1="117.96" y1="375.91" x2="1318.73" y2="375.91" style="fill: none;stroke: #c6c6c6;stroke-linecap: round;stroke-linejoin: round;stroke-width: 0.75px;stroke-dasharray: 0,2.252000093460083"/>
  <path d="M1321.65,375.91h0m-1209.54,0h0" style="fill: none;stroke: #c6c6c6;stroke-linecap: round;stroke-linejoin: round;stroke-width: 0.75px"/>
  <line x1="117.96" y1="329.93" x2="1318.73" y2="329.93" style="fill: none;stroke: #c6c6c6;stroke-linecap: round;stroke-linejoin: round;stroke-width: 0.75px;stroke-dasharray: 0,2.252000093460083"/>
  <path d="M1321.65,329.93h0m-1209.54,0h0" style="fill: none;stroke: #c6c6c6;stroke-linecap: round;stroke-linejoin: round;stroke-width: 0.75px"/>
  <line x1="117.96" y1="283.96" x2="1318.73" y2="283.96" style="fill: none;stroke: #c6c6c6;stroke-linecap: round;stroke-linejoin: round;stroke-width: 0.75px;stroke-dasharray: 0,2.252000093460083"/>
  <path d="M1321.65,284h0M112.11,284h0" style="fill: none;stroke: #c6c6c6;stroke-linecap: round;stroke-linejoin: round;stroke-width: 0.75px"/>
  <line x1="117.96" y1="238.16" x2="1318.73" y2="238.16" style="fill: none;stroke: #c6c6c6;stroke-linecap: round;stroke-linejoin: round;stroke-width: 0.75px;stroke-dasharray: 0,2.252000093460083"/>
  <path d="M1321.65,238.16h0m-1209.54,0h0" style="fill: none;stroke: #c6c6c6;stroke-linecap: round;stroke-linejoin: round;stroke-width: 0.75px"/>
  <line x1="117.96" y1="192.19" x2="1318.73" y2="192.19" style="fill: none;stroke: #c6c6c6;stroke-linecap: round;stroke-linejoin: round;stroke-width: 0.75px;stroke-dasharray: 0,2.252000093460083"/>
  <path d="M1321.65,192.19h0m-1209.54,0h0" style="fill: none;stroke: #c6c6c6;stroke-linecap: round;stroke-linejoin: round;stroke-width: 0.75px"/>
  <line x1="117.96" y1="146.21" x2="1318.73" y2="146.21" style="fill: none;stroke: #c6c6c6;stroke-linecap: round;stroke-linejoin: round;stroke-width: 0.75px;stroke-dasharray: 0,2.252000093460083"/>
  <path d="M1321.65,146.21h0m-1209.54,0h0" style="fill: none;stroke: #c6c6c6;stroke-linecap: round;stroke-linejoin: round;stroke-width: 0.75px"/>
  <rect x="176.74" y="386.67" width="99.86" height="173.47" style="fill: #14437d"/>
  <rect x="426.39" y="381.25" width="99.86" height="178.89" style="fill: #14437d"/>
  <rect x="675.84" y="376.19" width="99.86" height="183.95" style="fill: #14437d"/>
  <rect x="925.49" y="371.67" width="99.65" height="188.47" style="fill: #14437d"/>
  <rect x="1174.94" y="367.52" width="99.86" height="192.63" style="fill: #14437d"/>
  <rect x="176.74" y="304.46" width="99.86" height="82.22" style="fill: #c1bebf"/>
  <rect x="426.39" y="281.87" width="99.86" height="99.38" style="fill: #c1bebf"/>
  <rect x="675.84" y="257.29" width="99.86" height="118.9" style="fill: #c1bebf"/>
  <rect x="925.49" y="230.91" width="99.65" height="140.76" style="fill: #c1bebf"/>
  <rect x="1174.94" y="202.36" width="99.86" height="165.16" style="fill: #c1bebf"/>
  <line x1="117.96" y1="559.74" x2="1318.73" y2="559.74" style="fill: none;stroke: #c6c6c6;stroke-linecap: round;stroke-linejoin: round;stroke-width: 0.75px;stroke-dasharray: 0,2.252000093460083"/>
  <path d="M1321.65,559.74h0m-1209.54,0h0" style="fill: none;stroke: #c6c6c6;stroke-linecap: round;stroke-linejoin: round;stroke-width: 0.75px"/>
  <polyline points="227.75 217.23 476.71 252.4 725.87 254.45 974.83 259.23 1223.79 258.21" style="fill: none;stroke: #d01317;stroke-width: 2px"/>
  <text transform="translate(197.06 597.71)" style="font-size: 25.94146156311035px;fill: #1d1d1b;font-family: OpenSans-Bold, Open Sans;font-weight: 700">2019</text>
  <text transform="translate(189.08 190.58)" style="font-size: 25.94146156311035px;fill: #d01317;font-family: OpenSans-Bold, Open Sans;font-weight: 700">10.0%</text>
  <text transform="translate(197.06 483.33)" style="font-size: 25.94146156311035px;fill: #fff;font-family: OpenSans-Bold, Open Sans;font-weight: 700">$377</text>
  <text transform="translate(446.71 480.62)" style="font-size: 25.94146156311035px;fill: #fff;font-family: OpenSans-Bold, Open Sans;font-weight: 700">$389</text>
  <text transform="translate(696.15 478.09)" style="font-size: 25.94146156311035px;fill: #fff;font-family: OpenSans-Bold, Open Sans;font-weight: 700">$400</text>
  <text transform="translate(945.7 475.83)" style="font-size: 25.94146156311035px;fill: #fff;font-family: OpenSans-Bold, Open Sans;font-weight: 700">$409</text>
  <text transform="translate(1195 473.76)" style="font-size: 25.94146156311035px;fill: #fff;font-family: OpenSans-Bold, Open Sans;font-weight: 700">$418</text>
  <text transform="translate(1195.25 309.7)" style="font-size: 25.94146156311035px;fill: #fff;font-family: OpenSans-Bold, Open Sans;font-weight: 700">$359</text>
  <text transform="translate(945.7 311.22)" style="font-size: 25.94146156311035px;fill: #fff;font-family: OpenSans-Bold, Open Sans;font-weight: 700">$306</text>
  <text transform="translate(696.15 326.67)" style="font-size: 25.94146156311035px;fill: #fff;font-family: OpenSans-Bold, Open Sans;font-weight: 700">$258</text>
  <text transform="translate(446.71 341.48)" style="font-size: 25.94146156311035px;fill: #fff;font-family: OpenSans-Bold, Open Sans;font-weight: 700">$216</text>
  <text transform="translate(197.06 358.24)" style="font-size: 25.94146156311035px;fill: #fff;font-family: OpenSans-Bold, Open Sans;font-weight: 700">$178</text>
  <text transform="translate(447.31 230.29)" style="font-size: 25.94146156311035px;fill: #d01317;font-family: OpenSans-Bold, Open Sans;font-weight: 700">8.9%</text>
  <text transform="translate(695.86 232.49)" style="font-size: 25.94146156311035px;fill: #d01317;font-family: OpenSans-Bold, Open Sans;font-weight: 700">8.8%</text>
  <text transform="translate(945.13 234.7)" style="font-size: 25.94146156311035px;fill: #d01317;font-family: OpenSans-Bold, Open Sans;font-weight: 700">8.7%</text>
  <text transform="translate(1195.89 234.7)" style="font-size: 25.94146156311035px;fill: #d01317;font-family: OpenSans-Bold, Open Sans;font-weight: 700">8.7%</text>
  <text transform="translate(446.71 597.71)" style="font-size: 25.94146156311035px;fill: #1d1d1b;font-family: OpenSans-Bold, Open Sans;font-weight: 700">2020</text>
  <text transform="translate(696.15 597.71)" style="font-size: 25.94146156311035px;fill: #1d1d1b;font-family: OpenSans-Bold, Open Sans;font-weight: 700">2021</text>
  <text transform="translate(945.7 597.71)" style="font-size: 25.94146156311035px;fill: #1d1d1b;font-family: OpenSans-Bold, Open Sans;font-weight: 700">2022</text>
  <text transform="translate(1195.25 597.71)" style="font-size: 25.94146156311035px;fill: #1d1d1b;font-family: OpenSans-Bold, Open Sans;font-weight: 700">2023</text>
  <path d="M228.41,225.94a8.42,8.42,0,1,0-8.42-8.42,8.42,8.42,0,0,0,8.42,8.42" style="fill: #d01317"/>
  <path d="M228.41,225.94a8.42,8.42,0,1,0-8.42-8.42A8.42,8.42,0,0,0,228.41,225.94Z" style="fill: none;stroke: #fff;stroke-miterlimit: 10;stroke-width: 2px"/>
  <path d="M476.22,261.24a8.42,8.42,0,1,0-8.42-8.42,8.42,8.42,0,0,0,8.42,8.42" style="fill: #d01317"/>
  <path d="M476.22,261.24a8.42,8.42,0,1,0-8.42-8.42A8.42,8.42,0,0,0,476.22,261.24Z" style="fill: none;stroke: #fff;stroke-miterlimit: 10;stroke-width: 2px"/>
  <path d="M727,263.44a8.42,8.42,0,1,0-8.41-8.41,8.42,8.42,0,0,0,8.41,8.41" style="fill: #d01317"/>
  <path d="M727,263.44a8.42,8.42,0,1,0-8.41-8.41A8.42,8.42,0,0,0,727,263.44Z" style="fill: none;stroke: #fff;stroke-miterlimit: 10;stroke-width: 2px"/>
  <path d="M975.52,269.33a8.42,8.42,0,1,0-8.42-8.42,8.42,8.42,0,0,0,8.42,8.42" style="fill: #d01317"/>
  <path d="M975.52,269.33a8.42,8.42,0,1,0-8.42-8.42A8.42,8.42,0,0,0,975.52,269.33Z" style="fill: none;stroke: #fff;stroke-miterlimit: 10;stroke-width: 2px"/>
  <path d="M1223.38,264.91a8.42,8.42,0,1,0-8.42-8.41,8.41,8.41,0,0,0,8.42,8.41" style="fill: #d01317"/>
  <path d="M1223.38,264.91a8.42,8.42,0,1,0-8.42-8.41A8.41,8.41,0,0,0,1223.38,264.91Z" style="fill: none;stroke: #fff;stroke-miterlimit: 10;stroke-width: 2px"/>
  <text transform="translate(62.26 151.78)" style="font-size: 18.159021377563477px;fill: #524f59;font-family: OpenSans-Light, Open Sans;font-weight: 300">$900</text>
  <text transform="translate(62.26 197.82)" style="font-size: 18.159021377563477px;fill: #524f59;font-family: OpenSans-Light, Open Sans;font-weight: 300">$800</text>
  <text transform="translate(62.26 243.87)" style="font-size: 18.159021377563477px;fill: #524f59;font-family: OpenSans-Light, Open Sans;font-weight: 300">$700</text>
  <text transform="translate(62.26 289.92)" style="font-size: 18.159021377563477px;fill: #524f59;font-family: OpenSans-Light, Open Sans;font-weight: 300">$600</text>
  <text transform="translate(62.26 335.96)" style="font-size: 18.159021377563477px;fill: #524f59;font-family: OpenSans-Light, Open Sans;font-weight: 300">$500</text>
  <text transform="translate(62.26 382.01)" style="font-size: 18.159021377563477px;fill: #524f59;font-family: OpenSans-Light, Open Sans;font-weight: 300">$400</text>
  <text transform="translate(62.26 428.05)" style="font-size: 18.159021377563477px;fill: #524f59;font-family: OpenSans-Light, Open Sans;font-weight: 300">$300</text>
  <text transform="translate(62.26 474.1)" style="font-size: 18.159021377563477px;fill: #524f59;font-family: OpenSans-Light, Open Sans;font-weight: 300">$200</text>
  <text transform="translate(62.26 520.15)" style="font-size: 18.159021377563477px;fill: #524f59;font-family: OpenSans-Light, Open Sans;font-weight: 300">$100</text>
  <text transform="translate(62.26 566.19)" style="font-size: 18.159021377563477px;fill: #524f59;font-family: OpenSans-Light, Open Sans;font-weight: 300">$0</text>
  <text transform="translate(46.72 363.78) rotate(-90)" style="font-size: 18.159021377563477px;fill: #524f59;font-family: OpenSans-Semibold, Open Sans;font-weight: 600">(B)</text>
  <text transform="translate(1329.98 151.78)" style="font-size: 18.159021377563477px;fill: #524f59;font-family: OpenSans-Light, Open Sans;font-weight: 300">12%</text>
  <text transform="translate(1329.98 220.52)" style="font-size: 18.159021377563477px;fill: #524f59;font-family: OpenSans-Light, Open Sans;font-weight: 300">10%</text>
  <text transform="translate(1329.98 289.27)" style="font-size: 18.159021377563477px;fill: #524f59;font-family: OpenSans-Light, Open Sans;font-weight: 300">8%</text>
  <text transform="translate(1329.98 358.01)" style="font-size: 18.159021377563477px;fill: #524f59;font-family: OpenSans-Light, Open Sans;font-weight: 300">6%</text>
  <text transform="translate(1329.98 426.76)" style="font-size: 18.159021377563477px;fill: #524f59;font-family: OpenSans-Light, Open Sans;font-weight: 300">4%</text>
  <text transform="translate(1329.98 495.5)" style="font-size: 18.159021377563477px;fill: #524f59;font-family: OpenSans-Light, Open Sans;font-weight: 300">2%</text>
  <text transform="translate(1329.98 564.25)" style="font-size: 18.159021377563477px;fill: #524f59;font-family: OpenSans-Light, Open Sans;font-weight: 300">0%</text>
  <text transform="translate(150.03 71.39)" style="font-size: 28.535606384277344px;fill: #524f59;font-family: OpenSans-Bold, Open Sans;font-weight: 700"><tspan xml:space="preserve">On-premises/Others                  Public Cloud Services (Own IP)                     Growth</tspan></text>
  <line x1="1056.06" y1="61.08" x2="1144.3" y2="61.08" style="fill: none;stroke: #d01317;stroke-width: 2px"/>
  <path d="M1100.18,69.49a8.41,8.41,0,1,0-8.41-8.41,8.41,8.41,0,0,0,8.41,8.41" style="fill: #d01317"/>
  <path d="M1100.18,69.49a8.41,8.41,0,1,0-8.41-8.41A8.41,8.41,0,0,0,1100.18,69.49Z" style="fill: none;stroke: #fff;stroke-miterlimit: 10;stroke-width: 2px"/>
  <path d="M100.8,97A38.55,38.55,0,1,0,62.26,58.49,38.54,38.54,0,0,0,100.8,97" style="fill: #14437d"/>
  <path d="M524.71,97a38.55,38.55,0,1,0-38.54-38.54A38.55,38.55,0,0,0,524.71,97" style="fill: #c1bebf"/>
  <path d="M514.72,48.25a8.54,8.54,0,0,1,8.49-8.57m15.48,24.2a9.08,9.08,0,0,0,0-18.15,8.69,8.69,0,0,0-3.15.59,12.46,12.46,0,0,0-24.79,1.5,8.45,8.45,0,0,0-1-.07,8.07,8.07,0,0,0,0,16.13h1m5.65,3.73A2.18,2.18,0,0,1,514,65.45V64.37a2.39,2.39,0,0,1,4.76,0v1.08A2.18,2.18,0,0,1,516.38,67.61ZM514,82V73.62m0,6c-1.16,0-2.38-.63-2.38-1.8V72.42c0-2,3.49-3,5.35-3l.6,0m15.48-1.83a2.18,2.18,0,0,0,2.37-2.16V64.36a2.39,2.39,0,0,0-4.76,0v1.09A2.19,2.19,0,0,0,533.05,67.61Zm-11.91,4.21V82m7.14,0V71.82M535.42,82V73.62m-10.71-7.81a2.19,2.19,0,0,0,2.38-2.17V62.56a2.39,2.39,0,0,0-4.76,0v1.08A2.19,2.19,0,0,0,524.71,65.81Zm10.71,13.82c1.16,0,2.39-.63,2.39-1.8V72.42c0-2-3.5-3-5.36-3l-.6,0m-3.57,9a2.51,2.51,0,0,0,2.38-2.4V70.62c0-2-3.88-3-5.95-3s-6,1-6,3V76a2.51,2.51,0,0,0,2.38,2.4" style="fill: none;stroke: #fff;stroke-width: 0.75px"/>
  <path d="M100.8,69.05v3.84m0-11.52V56.56m-10.56,0h21.12M94.08,65.21H96m1.92,0h9.6m2.88-3.84H91.2v7.68h19.2ZM94.08,76.73H96m1.92,0h9.6m2.88-3.84H91.2v7.69h19.2ZM91.2,48.4a8.16,8.16,0,0,1,8.16-8.16m14.89,23a8.65,8.65,0,0,0,0-17.29,8.77,8.77,0,0,0-3,.56A12,12,0,0,0,87.38,48a7.93,7.93,0,0,0-1-.07,7.69,7.69,0,1,0,0,15.37h1.92" style="fill: none;stroke: #fff;stroke-width: 0.75px"/>
</svg>
