<svg id="Layer_1" data-name="Layer 1" xmlns="http://www.w3.org/2000/svg" viewBox="0 0 481.89 297.64"><defs><style>.cls-1{fill:#fff;}.cls-11,.cls-2{font-size:10px;fill:#676767;}.cls-2{font-family:ArialMT, Arial;}.cls-3{font-size:12px;font-family:Arial-BoldMT, Arial;font-weight:700;}.cls-3,.cls-9{fill:#921941;}.cls-4,.cls-5,.cls-6,.cls-7,.cls-8{fill:#99999a;}.cls-4{opacity:0.1;}.cls-5{opacity:0.2;}.cls-6{opacity:0.3;}.cls-7{opacity:0.4;}.cls-8{opacity:0.5;}.cls-10{fill:#f1592f;}.cls-11{font-family:HelveticaNeueLT-Roman, HelveticaNeue LT 55 Roman;}</style></defs><title>overall_graph_bg</title><rect class="cls-1" width="481.89" height="297.64"/><text class="cls-2" transform="translate(162.62 25)">Figure 2: IDC Security Operational Readiness Assessment Results</text><text class="cls-3" transform="translate(19.22 99.63)">Overall Security<tspan x="31.35" y="14.4">Readiness</tspan></text><text class="cls-3" transform="translate(37.26 163.63)">Organization<tspan x="49.32" y="14.4">Size</tspan></text><rect class="cls-4" x="122.1" y="38" width="64.63" height="222.23"/><rect class="cls-5" x="190.14" y="38" width="64.63" height="222.23"/><rect class="cls-6" x="258.17" y="38" width="64.63" height="222.23"/><rect class="cls-7" x="326.2" y="38" width="64.63" height="222.23"/><rect class="cls-8" x="394.23" y="38" width="64.63" height="222.23"/><text class="cls-3" transform="translate(69.93 231)">Region</text><rect class="cls-9" x="270" y="269.15" width="12.85" height="12.85"/><rect class="cls-10" x="389.5" y="269.15" width="12.85" height="12.85"/><text class="cls-11" transform="translate(137.19 55.5)">Stage 1<tspan x="-8.06" y="12">Foundation</tspan></text><text class="cls-11" transform="translate(205.93 55.5)">Stage 2<tspan x="-7.87" y="12">Developing</tspan></text><text class="cls-11" transform="translate(274.67 55.5)">Stage 3<tspan x="4.72" y="12">Good</tspan></text><text class="cls-11" transform="translate(289.56 278.5)">Your Organization</text><text class="cls-11" transform="translate(408.87 278.5)">Your Peers</text><text class="cls-11" transform="translate(343.45 55.5)">Stage 4<tspan x="-9.07" y="12">Aspirational</tspan></text><text class="cls-11" transform="translate(409.32 55.5)">Stage 5<tspan x="-5.28" y="12">Advanced</tspan></text></svg>