<svg id="Layer_1" data-name="Layer 1" xmlns="http://www.w3.org/2000/svg" viewBox="0 0 415.08 279.58"><defs><style>.cls-1,.cls-10{font-size:10px;fill:#676767;}.cls-1{font-family:ArialMT, Arial;}.cls-2{font-size:12px;font-family:Arial-BoldMT, Arial;font-weight:700;}.cls-2,.cls-8{fill:#921941;}.cls-3,.cls-4,.cls-5,.cls-6,.cls-7{fill:#99999a;}.cls-3{opacity:0.1;}.cls-4{opacity:0.2;}.cls-5{opacity:0.3;}.cls-6{opacity:0.4;}.cls-7{opacity:0.5;}.cls-9{fill:#f1592f;}.cls-10{font-family:HelveticaNeueLT-Roman, HelveticaNeue LT 55 Roman;}</style></defs><title>section_graph_bg</title><text class="cls-1" transform="translate(289.46 8.58)">Figure 3: Section Readiness</text><text class="cls-2" transform="translate(19.3 81.21)">Security<tspan x="-14.64" y="14.4">Integration</tspan></text><text class="cls-2" transform="translate(19.3 143.21)">Security<tspan x="-19.3" y="14.4">Automation</tspan></text><text class="cls-2" transform="translate(25.99 209.58)">Unified<tspan x="-25.35" y="14.4">Intelligence</tspan></text><rect class="cls-3" x="78.16" y="18.58" width="64.63" height="226.5"/><rect class="cls-4" x="146.19" y="18.58" width="64.63" height="226.5"/><rect class="cls-5" x="214.22" y="18.58" width="64.63" height="226.5"/><rect class="cls-6" x="282.26" y="18.58" width="64.63" height="226.5"/><rect class="cls-7" x="350.29" y="18.58" width="64.63" height="226.5"/><rect class="cls-8" x="226.06" y="266.73" width="12.85" height="12.85"/><rect class="cls-9" x="345.56" y="266.73" width="12.85" height="12.85"/><text class="cls-10" transform="translate(93.25 36.08)">Stage 1<tspan x="-8.06" y="12">Foundation</tspan></text><text class="cls-10" transform="translate(161.28 36.08)">Stage 1<tspan x="-7.87" y="12">Developing</tspan></text><text class="cls-10" transform="translate(229.31 36.08)">Stage 3<tspan x="4.72" y="12">Good</tspan></text><text class="cls-10" transform="translate(245.62 276.08)">Your Organization</text><text class="cls-10" transform="translate(364.93 276.08)">Your Peers</text><text class="cls-10" transform="translate(297.38 36.08)">Stage 4<tspan x="-9.07" y="12">Aspirational</tspan></text><text class="cls-10" transform="translate(365.38 36.08)">Stage 5<tspan x="-5.28" y="12">Advanced</tspan></text></svg>