<svg id="Layer_1" data-name="Layer 1" xmlns="http://www.w3.org/2000/svg" viewBox="0 0 481.89 317.48"><defs><style>.cls-1{fill:#fff;}.cls-11,.cls-2{font-size:10px;fill:#676767;}.cls-2{font-family:ArialMT, Arial;}.cls-3{font-size:12px;font-family:Arial-BoldMT, Arial;font-weight:700;}.cls-3,.cls-9{fill:#921941;}.cls-4,.cls-5,.cls-6,.cls-7,.cls-8{fill:#99999a;}.cls-4{opacity:0.1;}.cls-5{opacity:0.2;}.cls-6{opacity:0.3;}.cls-7{opacity:0.4;}.cls-8{opacity:0.5;}.cls-10{fill:#f1592f;}.cls-11{font-family:HelveticaNeueLT-Roman, HelveticaNeue LT 55 Roman;}</style></defs><title>section_graph_bg</title><rect class="cls-1" width="481.89" height="317.48"/><text class="cls-2" transform="translate(333.4 26.79)">Figure 3: Section Readiness</text><text class="cls-3" transform="translate(63.24 99.42)">Security<tspan x="-14.64" y="14.4">Integration</tspan></text><text class="cls-3" transform="translate(63.24 161.42)">Security<tspan x="-19.3" y="14.4">Automation</tspan></text><text class="cls-3" transform="translate(69.94 227.79)">Unified<tspan x="-25.35" y="14.4">Intelligence</tspan></text><rect class="cls-4" x="122.1" y="36.79" width="64.63" height="226.5"/><rect class="cls-5" x="190.14" y="36.79" width="64.63" height="226.5"/><rect class="cls-6" x="258.17" y="36.79" width="64.63" height="226.5"/><rect class="cls-7" x="326.2" y="36.79" width="64.63" height="226.5"/><rect class="cls-8" x="394.23" y="36.79" width="64.63" height="226.5"/><rect class="cls-9" x="270" y="284.94" width="12.85" height="12.85"/><rect class="cls-10" x="389.5" y="284.94" width="12.85" height="12.85"/><text class="cls-11" transform="translate(137.19 54.29)">Stage 1<tspan x="-8.06" y="12">Foundation</tspan></text><text class="cls-11" transform="translate(205.23 54.29)">Stage 2<tspan x="-7.87" y="12">Developing</tspan></text><text class="cls-11" transform="translate(273.26 54.29)">Stage 3<tspan x="4.72" y="12">Good</tspan></text><text class="cls-11" transform="translate(289.56 294.29)">Your Organization</text><text class="cls-11" transform="translate(408.87 294.29)">Your Peers</text><text class="cls-11" transform="translate(341.32 54.29)">Stage 4<tspan x="-9.07" y="12">Aspirational</tspan></text><text class="cls-11" transform="translate(409.32 54.29)">Stage 5<tspan x="-5.28" y="12">Advanced</tspan></text></svg>