<svg id="Layer_1" data-name="Layer 1" xmlns="http://www.w3.org/2000/svg" viewBox="0 0 508 101"><defs><style>.cls-1,.cls-2{fill:#004a7c;}.cls-1{fill-rule:evenodd;}</style></defs><title>3ds-dark</title><path class="cls-1" d="M40.23,25.29c4.14-.18,9,.64,10,3.37,1.5,4.49-6.09,11-12.71,14.23a6.78,6.78,0,0,1-3,.95.43.43,0,0,1-.33-.66,11.28,11.28,0,0,1,2.73-2.48c7.45-5.44,9.86-9.43,8.46-11-.9-1-4.68-1.75-8.6-1.75-1.06,0-3.86.23-4.14-.69-.23-.76,3.52-1.74,7.63-1.92"/><path class="cls-1" d="M31,45.72c3.44-.18,7.63.36,10,2a3.58,3.58,0,0,1,1.52,4c-1.36,4.8-6.42,10.6-17.67,15-3.58,1.42-6.39,2-7,1.59s1.21-3.57,1.76-4.62a84.46,84.46,0,0,1,6.23-9.74c.81-1.12,2-3.05,3.18-2.9s-.17,2.19-.95,3.5c-1.3,2.19-4.9,8.28-3.71,8.65,2.62.81,14.92-7.58,13.11-12.25-.84-2.17-6.18-2.38-9.54-2.38-1.53,0-4.87.33-5.06-.73S27.9,45.88,31,45.72"/><path class="cls-1" d="M57.83,40.06c2.09.34,3.78.61,4.17,1.4s-1.83,1-3,1c-5.49.1-8.79.19-9,1.88-.22,2.17,2.35,4.35,4.87,7.41,2.3,2.79,4.93,5.55,4.18,8.12-.94,3.2-5.29,3.88-9.42,3.88a55.94,55.94,0,0,1-9.29-.86c-2-.35-1.67-1.23-1.15-1.51s3.92-.32,6.25-.44c1.91-.11,7.45-.1,8.32-1.39,1.06-1.57-1.54-4.26-3.92-7.08-3-3.52-6.24-7.15-4.51-9.8,2.24-3.43,8.79-3.19,12.44-2.6"/><path class="cls-2" d="M141.64,50c4.37,0,6-1.37,6.74-4.53l1-4.92c.07-.33-.14-.43-.42-.43h-2.11L146.3,43,146,44.47l-.28,1.31c-.39,1.78-1.65,2.58-3.79,2.58-2.35,0-3-.78-2.61-2.58,0,0,.08-.45.12-.58L139.9,43l.58-2.83h-2.11a.55.55,0,0,0-.6.43l-1,4.92C136,49,137.9,50,141.64,50M67.45,55.34c-.32,1.37.85,2,3.21,3.37,2.58,1.46,3.17,1.57,2.93,2.34-.19.62-.86.65-2,.65H67c-.52,0-.82.2-.91.62l-.19.86h5.8c2.65,0,4.32-.15,4.92-1.63a1.89,1.89,0,0,0-.42-2.21,6.4,6.4,0,0,0-1.65-1.09c-3.31-1.71-4.18-1.91-4-2.74C70.66,55,71,55,72.25,55h3.89c.52,0,.82-.2.92-.62l.19-.9H72.33c-2.79,0-4.46,0-4.89,1.84m25.58,0c-.32,1.37.84,2,3.2,3.37,2.59,1.46,3.18,1.57,2.94,2.34-.19.62-.87.65-2,.65h-4.6c-.52,0-.83.2-.92.62l-.18.86h5.8c2.66,0,4.32-.15,4.92-1.63a1.88,1.88,0,0,0-.43-2.21,6.34,6.34,0,0,0-1.65-1.09c-3.31-1.71-4.18-1.91-4-2.74.11-.47.47-.49,1.72-.49h3.89c.52,0,.83-.2.92-.62l.19-.9H97.91c-2.78,0-4.46,0-4.88,1.84m64.81,0c-.32,1.37.85,2,3.2,3.37,2.59,1.46,3.17,1.57,2.94,2.34-.19.62-.87.65-2,.65h-4.6c-.53,0-.83.2-.92.62l-.18.86H162c2.66,0,4.32-.15,4.92-1.63a1.88,1.88,0,0,0-.42-2.21,6.29,6.29,0,0,0-1.65-1.09c-3.31-1.71-4.18-1.91-4-2.74.12-.47.47-.49,1.72-.49h3.89c.52,0,.83-.2.92-.62l.19-.9h-4.92c-2.78,0-4.46,0-4.88,1.84m-38.27-7.18a1.88,1.88,0,0,0-.42-2.21,6.24,6.24,0,0,0-1.65-1.09c-3.32-1.72-4.18-1.91-4-2.75.12-.46.47-.48,1.72-.48h3.89c.52,0,.83-.2.92-.63l.19-.9h-4.92c-2.79,0-4.46,0-4.88,1.85-.32,1.35.84,2,3.21,3.35,2.58,1.47,3.17,1.58,2.93,2.36-.19.62-.87.65-2,.65h-4.6c-.52,0-.83.19-.91.62l-.18.86h5.8c2.65,0,4.32-.14,4.92-1.63m-12.35,0a1.89,1.89,0,0,0-.42-2.21,6.38,6.38,0,0,0-1.65-1.09c-3.32-1.72-4.18-1.91-4-2.75.12-.46.47-.48,1.72-.48h3.89c.52,0,.82-.2.92-.63l.19-.9H103c-2.79,0-4.46,0-4.88,1.85-.32,1.35.84,2,3.2,3.35,2.58,1.47,3.17,1.58,2.94,2.36-.19.62-.87.65-2,.65h-4.6c-.53,0-.83.19-.92.62l-.18.86h5.8c2.65,0,4.32-.14,4.92-1.63m53.94-8c-.52,0-.82.16-.9.53l-.21,1h4.16l-1.73,8.15h1.86a.82.82,0,0,0,.94-.68l1.59-7.47h3.47a.65.65,0,0,0,.75-.6l.19-.91Zm-90.6,2.69a.49.49,0,0,0-.49.33l-1.41,6.64h6.25c3.5,0,5.93-1.19,6.69-4.89.57-2.75-.74-4.77-4.31-4.77H69.71s0,.07,0,.13c-.17.65-.08,1.36,1.11,1.36h5.5c2.64,0,3,1.21,2.49,3.34s-1.42,3.17-3.41,3.34H71.61l1.16-5.48Zm89.12,6.07c.09-.43-.08-.59-.5-.59H153.5l1.67-7.84a.29.29,0,0,0-.32-.33h-2.26l-2,9.66h8.94Zm-16.87,4.63H140.4l-4.63,3.77-3-3.77h-2.39a.67.67,0,0,0-.69.62l-1.92,9h2a.67.67,0,0,0,.74-.55l1.44-6.77,2.34,3a.62.62,0,0,0,.56.3h1.05a1,1,0,0,0,.68-.3l3.62-3-1.43,6.77c-.08.36.08.55.51.55h2l1.93-9c.07-.39,0-.62-.43-.62m-25.3.62-1.92,9h9.76l.2-1c.09-.4,0-.53-.51-.53h-6.48l.55-2.59h5.73a.3.3,0,0,0,.31-.23l.22-1c0-.13,0-.22-.21-.22h-5.73L120,55h6.26c.3,0,.59,0,.67-.35l.24-1.14h-8.81a.73.73,0,0,0-.82.62m29,0-1.92,9h9.76l.2-1c.08-.4,0-.53-.51-.53h-6.48l.55-2.59h5.73a.3.3,0,0,0,.31-.23l.22-1c0-.13-.05-.22-.21-.22h-5.73l.55-2.6h6.25c.3,0,.59,0,.67-.35l.24-1.14h-8.8a.73.73,0,0,0-.82.62m-58.52-.29L87,58.25c-1.63.46-5.88,1.3-5.22-1.81l.62-2.92H80.18a.5.5,0,0,0-.5.33l-.56,2.65c-1.07,5,4.15,4.35,7.53,3.4L86,63.19h1.87a.82.82,0,0,0,.94-.68l1.9-9H88.4a.48.48,0,0,0-.46.33m27.87.58.2-.91H105.89c-.52,0-.82.17-.89.53l-.21,1h4.15l-1.73,8.16h1.86a.82.82,0,0,0,.94-.68L111.6,55h3.47a.64.64,0,0,0,.75-.59M86.72,44.2c.4-1.88,1.6-2.56,3.74-2.56s2.85.77,2.48,2.56c0,0-.09.44-.12.58a.75.75,0,0,1-.73.72H86.45Zm-3.19,5.6h2l.58-2.8h6.22l-.58,2.8h2a.52.52,0,0,0,.58-.42l1-4.88c.76-3.7-1.52-4.49-4.6-4.49-3.69,0-5.79.85-6.6,4.49l-1,4.88c-.07.33.14.42.4.42m42-5.6c.4-1.88,1.6-2.56,3.74-2.56s2.85.77,2.49,2.56c0,0-.09.44-.13.58a.75.75,0,0,1-.73.72h-5.64Zm-3.19,5.6h2l.58-2.8h6.22l-.58,2.8h2a.53.53,0,0,0,.58-.42l1-4.88c.77-3.7-1.52-4.49-4.6-4.49-3.69,0-5.8.85-6.6,4.49l-1,4.88c-.07.33.14.42.4.42"/><rect class="cls-2" x="177.91" y="45.13" width="0.83" height="13.17"/><polygon class="cls-2" points="198.22 43.06 198.22 44.36 192.56 44.36 192.56 59.28 191.1 59.28 191.1 44.36 185.44 44.36 185.44 43.06 198.22 43.06"/><path class="cls-2" d="M200.15,41.48h1.39v6.44q.83-.19,1.76-.35a11,11,0,0,1,1.85-.16,7.94,7.94,0,0,1,1.78.2,4.36,4.36,0,0,1,1.51.65,3.23,3.23,0,0,1,1,1.21,4.07,4.07,0,0,1,.39,1.88v8h-1.39V51.4a3,3,0,0,0-.27-1.34,2.25,2.25,0,0,0-.72-.85,2.92,2.92,0,0,0-1.09-.45,6.58,6.58,0,0,0-1.37-.13,10.84,10.84,0,0,0-1.83.16q-.93.16-1.68.35V59.28h-1.39Z"/><path class="cls-2" d="M213,53.67a8.81,8.81,0,0,0,.2,2,3.24,3.24,0,0,0,.71,1.44,3.2,3.2,0,0,0,1.39.89,7,7,0,0,0,2.24.3q.39,0,.84,0l.89-.1.84-.13.7-.15.12,1.2a12.27,12.27,0,0,1-1.52.3,12.83,12.83,0,0,1-1.87.13,11.23,11.23,0,0,1-2.5-.26,4.24,4.24,0,0,1-1.89-.94A4.37,4.37,0,0,1,212,56.43a9,9,0,0,1-.42-3,9.41,9.41,0,0,1,.35-2.76,5,5,0,0,1,1-1.88,3.92,3.92,0,0,1,1.61-1.07,6.36,6.36,0,0,1,2.15-.34,5.49,5.49,0,0,1,2,.34,4,4,0,0,1,1.45,1,4,4,0,0,1,.88,1.48,5.83,5.83,0,0,1,.29,1.9v1.59Zm6.85-1.2q0-3.85-3.23-3.85a3.26,3.26,0,0,0-2.62,1,5,5,0,0,0-1,2.88Z"/><path class="cls-2" d="M240.53,43.06v2.61l-4.2,4a8.82,8.82,0,0,1,1.84.41,4.28,4.28,0,0,1,1.44.82,3.64,3.64,0,0,1,.94,1.32,4.81,4.81,0,0,1,.34,1.91,5.93,5.93,0,0,1-.46,2.46,4.6,4.6,0,0,1-1.3,1.71,5.38,5.38,0,0,1-2,1,10.62,10.62,0,0,1-2.69.32,19.35,19.35,0,0,1-2.82-.18,15.09,15.09,0,0,1-2.26-.5l.34-2.93q1,.27,2.11.46a12.48,12.48,0,0,0,2.23.2,3.36,3.36,0,0,0,1.92-.5,2.06,2.06,0,0,0,.74-1.84,1.84,1.84,0,0,0-.71-1.65,3.57,3.57,0,0,0-2-.48h-2V49.77l3.8-3.83h-5.85V43.06Z"/><path class="cls-2" d="M249.87,43.06a10.1,10.1,0,0,1,3.18.46,6,6,0,0,1,2.37,1.41,6.18,6.18,0,0,1,1.48,2.44,10.88,10.88,0,0,1,.51,3.54,15.68,15.68,0,0,1-.35,3.41,6.75,6.75,0,0,1-1.28,2.76,6.17,6.17,0,0,1-2.57,1.84,11.36,11.36,0,0,1-4.23.67,23.23,23.23,0,0,1-2.51-.15q-1.34-.15-2.93-.46V43.06Zm-2.15,13.49.72.07.67,0a4.59,4.59,0,0,0,2-.36,2.87,2.87,0,0,0,1.22-1.09,4.72,4.72,0,0,0,.62-1.77,15.44,15.44,0,0,0,.17-2.44,11.59,11.59,0,0,0-.21-2.38,4.33,4.33,0,0,0-.62-1.56,2.35,2.35,0,0,0-1-.85,3.46,3.46,0,0,0-1.38-.26h-2.15Z"/><path class="cls-2" d="M269.92,43.06V45h-7.17v5h6.46v1.93h-6.46v3.51a1.69,1.69,0,0,0,.6,1.49,2.8,2.8,0,0,0,1.62.41h5.27v1.93h-5.37a5.7,5.7,0,0,1-3.44-.92,3.4,3.4,0,0,1-1.24-2.94V43.06Z"/><polygon class="cls-2" points="272.17 43.06 275.12 43.06 279.04 49.09 283.14 43.06 285.87 43.06 280.38 50.99 285.94 59.28 282.94 59.28 278.8 52.94 274.55 59.28 271.85 59.28 277.46 51.06 272.17 43.06"/><path class="cls-2" d="M293.4,43.06a12.55,12.55,0,0,1,2.69.26,4.78,4.78,0,0,1,1.93.87,3.7,3.7,0,0,1,1.17,1.59,6.59,6.59,0,0,1,.39,2.44,6.46,6.46,0,0,1-.41,2.45,3.91,3.91,0,0,1-1.2,1.63,5,5,0,0,1-1.9.9,10.17,10.17,0,0,1-2.49.28,16.84,16.84,0,0,1-2.85-.27v6.07h-2.56V43.06Zm-2.67,8.24a14.73,14.73,0,0,0,2.59.25,4,4,0,0,0,2.88-.83,3.4,3.4,0,0,0,.83-2.5,4.93,4.93,0,0,0-.21-1.55,2.11,2.11,0,0,0-.65-1,2.65,2.65,0,0,0-1.12-.53,7.32,7.32,0,0,0-1.63-.16h-2.68Z"/><path class="cls-2" d="M311.58,43.06V45h-7.17v5h6.46v1.93h-6.46v3.51a1.68,1.68,0,0,0,.6,1.49,2.8,2.8,0,0,0,1.62.41h5.27v1.93h-5.37a5.7,5.7,0,0,1-3.44-.92,3.41,3.41,0,0,1-1.24-2.94V43.06Z"/><path class="cls-2" d="M319.61,43.06a13.16,13.16,0,0,1,2.69.24,4.85,4.85,0,0,1,1.93.83,3.59,3.59,0,0,1,1.17,1.55,6.48,6.48,0,0,1,.39,2.4,5.32,5.32,0,0,1-.24,1.7,3.92,3.92,0,0,1-.66,1.23,3.72,3.72,0,0,1-1,.85,6,6,0,0,1-1.25.56,2.93,2.93,0,0,1,1.39,1,7.68,7.68,0,0,1,.9,1.83l1.44,4h-2.66l-1.27-3.44a10.64,10.64,0,0,0-.46-1.06,3.55,3.55,0,0,0-.58-.83,2.35,2.35,0,0,0-.83-.55,3.13,3.13,0,0,0-1.17-.2c-.39,0-.79,0-1.2,0a10.2,10.2,0,0,1-1.28-.16v6.27h-2.56V43.06Zm-2.67,8q.71.12,1.36.17c.43,0,.84,0,1.23,0a4.17,4.17,0,0,0,2.88-.78,3.23,3.23,0,0,0,.83-2.45,4.8,4.8,0,0,0-.21-1.53,2.07,2.07,0,0,0-.65-1,2.54,2.54,0,0,0-1.12-.49,8.6,8.6,0,0,0-1.63-.13h-2.68Z"/><rect class="cls-2" x="329.04" y="43.06" width="2.56" height="16.22"/><path class="cls-2" d="M344.69,43.06V45h-7.17v5H344v1.93h-6.46v3.51a1.69,1.69,0,0,0,.6,1.49,2.79,2.79,0,0,0,1.62.41H345v1.93h-5.37a5.71,5.71,0,0,1-3.44-.92A3.4,3.4,0,0,1,335,55.43V43.06Z"/><polygon class="cls-2" points="350.04 43.06 358.89 52.55 358.89 43.06 361.35 43.06 361.35 59.28 358.89 59.28 358.89 55.62 350.45 46.7 350.45 59.28 347.99 59.28 347.99 43.06 350.04 43.06"/><path class="cls-2" d="M374.45,45.19a19.09,19.09,0,0,0-3.9-.44,5.84,5.84,0,0,0-2,.31,3.06,3.06,0,0,0-1.4,1,5.06,5.06,0,0,0-.84,2,14.29,14.29,0,0,0-.28,3.08,14.49,14.49,0,0,0,.29,3.18,5,5,0,0,0,.87,2,3,3,0,0,0,1.44,1,6.26,6.26,0,0,0,2,.29,13.49,13.49,0,0,0,2-.16q1.06-.16,2-.35l.2,1.93a13.38,13.38,0,0,1-2.1.39,20.06,20.06,0,0,1-2.15.12,10.19,10.19,0,0,1-3-.42,5.26,5.26,0,0,1-2.28-1.39,6.27,6.27,0,0,1-1.43-2.58,14,14,0,0,1-.49-4,14,14,0,0,1,.49-4,6.18,6.18,0,0,1,1.43-2.57,5.23,5.23,0,0,1,2.3-1.37,11,11,0,0,1,3.1-.4,18.74,18.74,0,0,1,2.12.12q1.08.12,2,.29Z"/><path class="cls-2" d="M386.59,43.06V45h-7.17v5h6.46v1.93h-6.46v3.51a1.69,1.69,0,0,0,.6,1.49,2.8,2.8,0,0,0,1.62.41h5.27v1.93h-5.37a5.7,5.7,0,0,1-3.44-.92,3.4,3.4,0,0,1-1.24-2.94V43.06Z"/><path class="cls-2" d="M398.35,51.21a14.38,14.38,0,0,1,.49-4.08,6.31,6.31,0,0,1,1.39-2.57,4.93,4.93,0,0,1,2.18-1.34,9.89,9.89,0,0,1,2.89-.39,19.25,19.25,0,0,1,2.06.11q1,.11,1.94.28l-.2,1.29q-.93-.17-1.93-.28a17.52,17.52,0,0,0-1.9-.11,7.89,7.89,0,0,0-2.29.3,3.62,3.62,0,0,0-1.7,1.09,5.2,5.2,0,0,0-1,2.17,14.4,14.4,0,0,0-.35,3.49,14.13,14.13,0,0,0,.35,3.46,5.45,5.45,0,0,0,1,2.17,3.53,3.53,0,0,0,1.65,1.12,7.12,7.12,0,0,0,2.2.32,16.69,16.69,0,0,0,2-.13q1.09-.13,2.11-.33L409.4,59a17.91,17.91,0,0,1-2.19.37,19.64,19.64,0,0,1-2.1.12,9,9,0,0,1-2.78-.4,4.92,4.92,0,0,1-2.13-1.37,6.41,6.41,0,0,1-1.36-2.56,14.15,14.15,0,0,1-.48-4"/><path class="cls-2" d="M415.22,47.41a5.11,5.11,0,0,1,3.85,1.41q1.37,1.41,1.37,4.63t-1.37,4.62a6,6,0,0,1-7.71,0Q410,56.67,410,53.45t1.36-4.63a5.11,5.11,0,0,1,3.85-1.41m0,1.22a5.21,5.21,0,0,0-1.57.22,2.6,2.6,0,0,0-1.18.77,3.76,3.76,0,0,0-.76,1.48,10.5,10.5,0,0,0,0,4.73,3.76,3.76,0,0,0,.76,1.48,2.51,2.51,0,0,0,1.18.76,5.49,5.49,0,0,0,1.57.21,5.27,5.27,0,0,0,1.54-.21,2.53,2.53,0,0,0,1.17-.76,3.77,3.77,0,0,0,.76-1.48,10.58,10.58,0,0,0,0-4.73,3.77,3.77,0,0,0-.76-1.48,2.61,2.61,0,0,0-1.17-.77,5,5,0,0,0-1.54-.22"/><path class="cls-2" d="M430.17,51.41a3.32,3.32,0,0,0-.24-1.37,2.14,2.14,0,0,0-.67-.85,2.53,2.53,0,0,0-1-.44,5.55,5.55,0,0,0-1.17-.12,9.81,9.81,0,0,0-1.73.16c-.58.11-1.12.22-1.61.35V59.28h-1.39v-11q1-.27,2.27-.55a11.35,11.35,0,0,1,2.49-.28,6.72,6.72,0,0,1,1.88.26,3.75,3.75,0,0,1,1.51.84,9.87,9.87,0,0,1,2.08-.79,9.2,9.2,0,0,1,2.33-.3,7.52,7.52,0,0,1,1.68.18,3.61,3.61,0,0,1,1.41.65,3.31,3.31,0,0,1,1,1.22,4.3,4.3,0,0,1,.37,1.88v8H438V51.41a3.36,3.36,0,0,0-.24-1.37,2.15,2.15,0,0,0-.67-.85,2.53,2.53,0,0,0-1-.44,5.54,5.54,0,0,0-1.17-.12,7,7,0,0,0-2.11.3,12.53,12.53,0,0,0-1.57.6,4.36,4.36,0,0,1,.34,1.81v8h-1.39Z"/><path class="cls-2" d="M441.51,48.23q1.15-.34,2.41-.58a12.66,12.66,0,0,1,2.39-.24,6.59,6.59,0,0,1,2,.29,3.92,3.92,0,0,1,1.62,1,4.8,4.8,0,0,1,1.1,1.85,8.87,8.87,0,0,1,.4,2.87,9.21,9.21,0,0,1-.43,3.06,4.62,4.62,0,0,1-1.15,1.85,3.79,3.79,0,0,1-1.66.91,7.79,7.79,0,0,1-2,.24,13.24,13.24,0,0,1-1.72-.11l-1.62-.23v4.73h-1.39Zm1.39,9.66q.86.15,1.71.26a12.93,12.93,0,0,0,1.66.11,5.67,5.67,0,0,0,1.46-.18,2.47,2.47,0,0,0,1.18-.72,3.72,3.72,0,0,0,.78-1.49,9,9,0,0,0,.28-2.46,8.67,8.67,0,0,0-.27-2.37,3.55,3.55,0,0,0-.77-1.46,2.65,2.65,0,0,0-1.17-.74,5,5,0,0,0-1.48-.21,8.27,8.27,0,0,0-.84,0l-1,.12c-.32,0-.61.11-.89.17l-.71.17Z"/><path class="cls-2" d="M454.32,47.75q.57-.12,1.43-.23a13.46,13.46,0,0,1,1.68-.11,9.2,9.2,0,0,1,1.77.17,4.45,4.45,0,0,1,1.53.59,3.13,3.13,0,0,1,1.06,1.13,3.7,3.7,0,0,1,.4,1.82V58.7q-1,.27-2.15.52a12.07,12.07,0,0,1-2.61.26,7.19,7.19,0,0,1-1.71-.2,3.89,3.89,0,0,1-1.4-.63,3.12,3.12,0,0,1-1-1.13,3.75,3.75,0,0,1-.36-1.72,3.2,3.2,0,0,1,.39-1.66,3,3,0,0,1,1-1,4.33,4.33,0,0,1,1.47-.55,9.44,9.44,0,0,1,1.74-.16,16,16,0,0,1,1.74.09l1.4.18V51.14a2.4,2.4,0,0,0-.28-1.22,2.15,2.15,0,0,0-.76-.78,3.11,3.11,0,0,0-1.09-.4,7.28,7.28,0,0,0-1.27-.11,12.75,12.75,0,0,0-1.57.1q-.78.1-1.4.22Zm6.49,6.15q-.66-.12-1.49-.21a16.65,16.65,0,0,0-1.69-.08,8.33,8.33,0,0,0-1.21.08,2.86,2.86,0,0,0-1,.34,2,2,0,0,0-.71.71,2.3,2.3,0,0,0-.27,1.18,2.28,2.28,0,0,0,.25,1.11,1.92,1.92,0,0,0,.66.72,2.93,2.93,0,0,0,1,.39,5.39,5.39,0,0,0,1.16.12,11,11,0,0,0,1.87-.15c.57-.1,1.06-.2,1.48-.32Z"/><path class="cls-2" d="M464.27,48.23c.31-.1.66-.19,1.06-.29s.81-.19,1.24-.27.87-.15,1.33-.2a12.82,12.82,0,0,1,1.36-.07,8,8,0,0,1,1.78.2,4.34,4.34,0,0,1,1.51.65,3.23,3.23,0,0,1,1,1.21,4.06,4.06,0,0,1,.39,1.88v7.95h-1.39V51.4a3,3,0,0,0-.27-1.34,2.25,2.25,0,0,0-.72-.85,2.92,2.92,0,0,0-1.08-.45,6.6,6.6,0,0,0-1.37-.13,10.81,10.81,0,0,0-1.83.16c-.62.11-1.18.22-1.68.35V59.28h-1.39Z"/><path class="cls-2" d="M485.31,47.6V59.79A4.14,4.14,0,0,1,484.15,63a5.2,5.2,0,0,1-3.54,1,18.54,18.54,0,0,1-2.09-.13,12.75,12.75,0,0,1-2.11-.42l.22-1.23a14.85,14.85,0,0,0,2,.41,14.36,14.36,0,0,0,1.93.15,3.62,3.62,0,0,0,2.59-.75,3,3,0,0,0,.76-2.25v-.93q-.61.12-1.49.23a14.9,14.9,0,0,1-1.85.11,7.37,7.37,0,0,1-1.77-.21,4,4,0,0,1-1.48-.68,3.48,3.48,0,0,1-1-1.24,4.2,4.2,0,0,1-.39-1.91V47.6h1.39v7.56a3.1,3.1,0,0,0,.28,1.39,2.43,2.43,0,0,0,.73.89,2.93,2.93,0,0,0,1,.48,5.25,5.25,0,0,0,1.26.15,13.52,13.52,0,0,0,1.79-.12c.61-.08,1.11-.16,1.5-.24V47.6Z"/><path class="cls-2" d="M394.26,44.54a2.34,2.34,0,0,1-.71,1.82,3.4,3.4,0,0,1-4,0,2.67,2.67,0,0,1,0-3.63,3.4,3.4,0,0,1,4,0,2.34,2.34,0,0,1,.71,1.82m-.45,0a2,2,0,0,0-.58-1.54,2.89,2.89,0,0,0-3.34,0,2.33,2.33,0,0,0,0,3.08,2.9,2.9,0,0,0,3.34,0,2,2,0,0,0,.58-1.54m-2.23-1.42a1.24,1.24,0,0,1,.73.18.69.69,0,0,1,.26.61.76.76,0,0,1-.14.52.75.75,0,0,1-.34.21.56.56,0,0,1,.22.22,2.82,2.82,0,0,1,.16.34l.23.65h-.46l-.25-.66a.91.91,0,0,0-.16-.27.43.43,0,0,0-.36-.13h-.37v1.08h-.44V43.12Zm-.48,1.29.19,0h.21a1,1,0,0,0,.45-.08c.12-.05.17-.2.17-.43a.39.39,0,0,0-.14-.35.82.82,0,0,0-.45-.1h-.43Z"/></svg>