<svg id="Layer_1" data-name="Layer 1" xmlns="http://www.w3.org/2000/svg" viewBox="0 0 508 57">
  <title>dassault</title>
  <path d="M40.23,6.4c4.14-.18,9,.64,10,3.37,1.5,4.49-6.09,11-12.71,14.23a6.78,6.78,0,0,1-3,.95.43.43,0,0,1-.4-.46.48.48,0,0,1,.07-.2,11.31,11.31,0,0,1,2.73-2.48c7.45-5.44,9.86-9.43,8.46-11-.9-1-4.68-1.75-8.6-1.75-1.06,0-3.86.23-4.14-.69-.23-.76,3.52-1.74,7.63-1.92" style="fill: #004a7c;fill-rule: evenodd"/>
  <path d="M31,26.83c3.44-.18,7.63.36,10,2a3.58,3.58,0,0,1,1.52,4c-1.36,4.8-6.42,10.6-17.67,15-3.58,1.42-6.39,2-7,1.59s1.21-3.57,1.76-4.62a84.18,84.18,0,0,1,6.23-9.74c.81-1.12,2-3.05,3.18-2.9s-.17,2.19-.95,3.5c-1.3,2.19-4.9,8.28-3.71,8.65,2.62.81,14.92-7.58,13.11-12.25-.84-2.17-6.18-2.38-9.54-2.38-1.53,0-4.87.33-5.06-.73s5-2,8.13-2.12" style="fill: #004a7c;fill-rule: evenodd"/>
  <path d="M57.83,21.17c2.09.34,3.78.61,4.17,1.4s-1.83,1-3,1c-5.49.1-8.79.19-9,1.88-.22,2.17,2.35,4.35,4.87,7.41,2.3,2.79,4.93,5.55,4.18,8.12-.94,3.2-5.29,3.88-9.42,3.88A55.64,55.64,0,0,1,40.34,44c-2-.35-1.67-1.23-1.15-1.51s3.92-.32,6.25-.44c1.91-.11,7.45-.1,8.32-1.39,1.06-1.57-1.54-4.26-3.92-7.08-3-3.52-6.24-7.15-4.51-9.8,2.24-3.43,8.79-3.19,12.44-2.6" style="fill: #004a7c;fill-rule: evenodd"/>
  <path d="M141.64,31.11c4.37,0,6-1.37,6.74-4.53l1-4.92c.07-.33-.14-.43-.42-.43h-2.11l-.55,2.88-.3,1.47-.28,1.31c-.39,1.78-1.65,2.58-3.79,2.58-2.35,0-3-.78-2.61-2.58,0,0,.08-.45.12-.58l.46-2.2.58-2.83h-2.11a.55.55,0,0,0-.6.43l-1,4.92c-.77,3.48,1.13,4.48,4.87,4.48M67.45,36.45c-.32,1.37.85,2,3.21,3.37,2.58,1.46,3.17,1.57,2.93,2.34s-.86.65-2,.65H67c-.52,0-.82.2-.91.62l-.19.86h5.8c2.65,0,4.32-.15,4.92-1.63a1.89,1.89,0,0,0-.42-2.21,6.48,6.48,0,0,0-1.65-1.09c-3.31-1.71-4.18-1.91-4-2.74.11-.51.45-.51,1.7-.51h3.89c.52,0,.82-.2.92-.62l.19-.9H72.33c-2.79,0-4.46,0-4.89,1.84m25.58,0c-.32,1.37.84,2,3.2,3.37,2.59,1.46,3.18,1.57,2.94,2.34-.19.62-.87.65-2,.65h-4.6c-.52,0-.83.2-.92.62l-.18.86h5.8c2.66,0,4.32-.15,4.92-1.63a1.88,1.88,0,0,0-.43-2.21,6.48,6.48,0,0,0-1.65-1.09c-3.31-1.71-4.18-1.91-4-2.74.11-.47.47-.49,1.72-.49h3.89c.52,0,.83-.2.92-.62l.19-.9H97.91c-2.78,0-4.46,0-4.88,1.84m64.81,0c-.32,1.37.85,2,3.2,3.37,2.59,1.46,3.17,1.57,2.94,2.34-.19.62-.87.65-2,.65h-4.6c-.53,0-.83.2-.92.62l-.18.86H162c2.66,0,4.32-.15,4.92-1.63a1.89,1.89,0,0,0-.42-2.21,6.22,6.22,0,0,0-1.65-1.09c-3.31-1.71-4.18-1.91-4-2.74.12-.47.47-.49,1.72-.49h3.89c.52,0,.83-.2.92-.62l.19-.9h-4.92c-2.78,0-4.46,0-4.88,1.84M119.5,29.25a1.89,1.89,0,0,0-.42-2.21A6.22,6.22,0,0,0,117.43,26c-3.32-1.72-4.18-1.91-4-2.75.12-.46.47-.48,1.72-.48H119c.52,0,.83-.2.92-.63l.19-.9h-4.92c-2.79,0-4.46,0-4.88,1.85-.32,1.35.84,2,3.21,3.35,2.58,1.47,3.17,1.58,2.93,2.36-.19.62-.87.65-2,.65h-4.6c-.52,0-.83.19-.91.62l-.18.86h5.8c2.65,0,4.32-.14,4.92-1.63m-12.35,0a1.89,1.89,0,0,0-.42-2.21A6.48,6.48,0,0,0,105.1,26c-3.32-1.72-4.18-1.91-4-2.75.12-.46.47-.48,1.72-.48h3.89c.52,0,.82-.2.92-.63l.19-.9H103c-2.79,0-4.46,0-4.88,1.85-.32,1.35.84,2,3.2,3.35,2.58,1.47,3.17,1.58,2.94,2.36-.19.62-.87.65-2,.65h-4.6c-.53,0-.83.19-.92.62l-.18.86h5.8c2.65,0,4.32-.14,4.92-1.63m53.94-8c-.52,0-.82.16-.9.53l-.21,1h4.16l-1.73,8.15h1.86a.82.82,0,0,0,.94-.68h0l1.59-7.47h3.47a.65.65,0,0,0,.74-.54.13.13,0,0,0,0-.06l.19-.91Zm-90.6,2.69a.49.49,0,0,0-.49.33l-1.41,6.64H75c3.5,0,5.93-1.19,6.69-4.89.57-2.75-.74-4.77-4.31-4.77H69.71v.13c-.17.65-.08,1.36,1.11,1.36h5.5c2.64,0,3,1.21,2.49,3.34s-1.42,3.17-3.41,3.34H71.61l1.16-5.48ZM159.74,30c.09-.43-.08-.59-.5-.59H153.5l1.67-7.84a.29.29,0,0,0-.25-.33h-2.33l-2,9.66h8.94Zm-16.87,4.63H140.4l-4.63,3.77-3-3.77h-2.39a.67.67,0,0,0-.69.62l-1.92,9h2a.67.67,0,0,0,.74-.55L132,36.94l2.34,3a.61.61,0,0,0,.56.3h1.05a1,1,0,0,0,.68-.3l3.62-3-1.43,6.77c-.08.36.08.55.51.55h2l1.93-9c.07-.39,0-.62-.43-.62m-25.3.62-1.92,9h9.76l.2-1c.09-.4,0-.53-.51-.53h-6.48l.55-2.59h5.73a.29.29,0,0,0,.31-.23l.22-1c0-.13,0-.22-.21-.22H119.4l.6-2.58h6.26c.3,0,.59,0,.67-.35l.24-1.14h-8.81a.73.73,0,0,0-.82.62m29,0-1.92,9h9.76l.2-1c.08-.4,0-.53-.51-.53h-6.48l.55-2.59h5.73a.29.29,0,0,0,.31-.23l.22-1c0-.13-.05-.22-.21-.22h-5.73l.55-2.6h6.25c.3,0,.59,0,.67-.35l.24-1.14h-8.8a.73.73,0,0,0-.82.62M88,34.91l-1,4.45c-1.63.46-5.88,1.3-5.22-1.81l.62-2.92H80.18a.51.51,0,0,0-.5.33l-.56,2.65c-1.07,5,4.15,4.35,7.53,3.4L86,44.3h1.87a.82.82,0,0,0,.94-.68h0l1.9-9H88.4a.48.48,0,0,0-.46.33m27.87.58.2-.91H105.89c-.52,0-.82.17-.89.53l-.21,1h4.15l-1.73,8.16h1.86a.82.82,0,0,0,.94-.68h0l1.59-7.52h3.47a.64.64,0,0,0,.74-.52.17.17,0,0,0,0-.07M86.72,25.31c.4-1.88,1.6-2.56,3.74-2.56s2.85.77,2.48,2.56l-.12.58a.75.75,0,0,1-.73.72H86.45Zm-3.19,5.6h2l.58-2.8h6.22l-.58,2.8h2a.52.52,0,0,0,.58-.42l1-4.88c.76-3.7-1.52-4.49-4.6-4.49-3.69,0-5.79.85-6.6,4.49l-1,4.88c-.07.33.14.42.4.42m42-5.6c.4-1.88,1.6-2.56,3.74-2.56s2.85.77,2.49,2.56c0,0-.09.44-.13.58a.75.75,0,0,1-.73.72h-5.64Zm-3.19,5.6h2l.58-2.8h6.22l-.58,2.8h2a.54.54,0,0,0,.58-.42l1-4.88c.77-3.7-1.52-4.49-4.6-4.49-3.69,0-5.8.85-6.6,4.49l-1,4.88c-.07.33.14.42.4.42" style="fill: #004a7c"/>
  <rect x="177.91" y="26.24" width="0.83" height="13.17" style="fill: #004a7c"/>
  <polygon points="198.22 24.17 198.22 25.47 192.56 25.47 192.56 40.39 191.1 40.39 191.1 25.47 185.44 25.47 185.44 24.17 198.22 24.17" style="fill: #004a7c"/>
  <path d="M200.15,22.59h1.39V29c.55-.13,1.14-.24,1.76-.35a10.43,10.43,0,0,1,1.85-.16,8.16,8.16,0,0,1,1.78.2,4.41,4.41,0,0,1,1.51.65,3.26,3.26,0,0,1,1,1.21,4.07,4.07,0,0,1,.39,1.88v8h-1.39v-8a3.09,3.09,0,0,0-.27-1.34,2.19,2.19,0,0,0-.72-.85,2.9,2.9,0,0,0-1.09-.45,7,7,0,0,0-1.37-.13,11.21,11.21,0,0,0-1.83.16c-.62.11-1.18.22-1.68.35V40.39h-1.39Z" style="fill: #004a7c"/>
  <path d="M213,34.78a9,9,0,0,0,.2,2,3,3,0,0,0,2.1,2.33,7.08,7.08,0,0,0,2.24.3h.84l.89-.1.84-.13.7-.15.12,1.2a13.17,13.17,0,0,1-1.52.3,13,13,0,0,1-1.87.13,11.06,11.06,0,0,1-2.5-.26,4.22,4.22,0,0,1-1.89-.94A4.4,4.4,0,0,1,212,37.54a9,9,0,0,1-.42-3,9.55,9.55,0,0,1,.35-2.76,5,5,0,0,1,1-1.88,3.9,3.9,0,0,1,1.61-1.07,6.29,6.29,0,0,1,2.15-.34,5.47,5.47,0,0,1,2,.34A4.08,4.08,0,0,1,221,31.31a5.84,5.84,0,0,1,.29,1.9V34.8Zm6.85-1.2q0-3.85-3.23-3.85a3.26,3.26,0,0,0-2.62,1,5.06,5.06,0,0,0-1,2.88Z" style="fill: #004a7c"/>
  <path d="M240.53,24.17v2.61l-4.2,4a8.9,8.9,0,0,1,1.84.41,4.38,4.38,0,0,1,1.44.82,3.63,3.63,0,0,1,.94,1.32,4.82,4.82,0,0,1,.34,1.91,6,6,0,0,1-.46,2.46,4.64,4.64,0,0,1-1.3,1.71,5.38,5.38,0,0,1-2,1,10.59,10.59,0,0,1-2.69.32,19,19,0,0,1-2.82-.18,15.7,15.7,0,0,1-2.26-.5l.34-2.93c.67.18,1.37.33,2.11.46a12.84,12.84,0,0,0,2.23.2,3.33,3.33,0,0,0,1.92-.5,2.06,2.06,0,0,0,.74-1.84,1.82,1.82,0,0,0-.71-1.65,3.6,3.6,0,0,0-2-.48h-2V30.88l3.8-3.83h-5.85V24.17Z" style="fill: #004a7c"/>
  <path d="M249.87,24.17a10.08,10.08,0,0,1,3.18.46A6,6,0,0,1,255.42,26a6.19,6.19,0,0,1,1.48,2.44,10.88,10.88,0,0,1,.51,3.54,15.61,15.61,0,0,1-.35,3.41,6.72,6.72,0,0,1-1.28,2.76A6.13,6.13,0,0,1,253.21,40a11.27,11.27,0,0,1-4.23.67,21,21,0,0,1-2.51-.15c-.89-.1-1.87-.25-2.93-.46V24.17Zm-2.15,13.49.72.07h.67a4.56,4.56,0,0,0,2-.36,2.92,2.92,0,0,0,1.22-1.09,4.8,4.8,0,0,0,.62-1.77,15.32,15.32,0,0,0,.17-2.44,11.84,11.84,0,0,0-.21-2.38,4.16,4.16,0,0,0-.62-1.56,2.36,2.36,0,0,0-1-.85,3.45,3.45,0,0,0-1.38-.26h-2.15Z" style="fill: #004a7c"/>
  <path d="M269.92,24.17v1.94h-7.17v5h6.46V33h-6.46v3.51a1.69,1.69,0,0,0,.6,1.49,2.81,2.81,0,0,0,1.62.41h5.27v1.93h-5.37a5.66,5.66,0,0,1-3.44-.92,3.38,3.38,0,0,1-1.24-2.94V24.17Z" style="fill: #004a7c"/>
  <polygon points="272.17 24.17 275.12 24.17 279.04 30.2 283.14 24.17 285.87 24.17 280.38 32.1 285.94 40.39 282.94 40.39 278.8 34.05 274.55 40.39 271.85 40.39 277.46 32.17 272.17 24.17" style="fill: #004a7c"/>
  <path d="M293.4,24.17a12.78,12.78,0,0,1,2.69.26,4.76,4.76,0,0,1,1.93.87,3.64,3.64,0,0,1,1.17,1.59,6.54,6.54,0,0,1,.39,2.44,6.58,6.58,0,0,1-.41,2.45,3.88,3.88,0,0,1-1.2,1.63,5,5,0,0,1-1.9.9,10,10,0,0,1-2.49.28,17,17,0,0,1-2.85-.27v6.07h-2.56V24.17Zm-2.67,8.24a15,15,0,0,0,2.59.25,4,4,0,0,0,2.88-.83,3.41,3.41,0,0,0,.83-2.5,5.09,5.09,0,0,0-.21-1.55,2.1,2.1,0,0,0-.65-1,2.76,2.76,0,0,0-1.12-.53,7.45,7.45,0,0,0-1.63-.16h-2.68Z" style="fill: #004a7c"/>
  <path d="M311.58,24.17v1.94h-7.17v5h6.46V33h-6.46v3.51A1.66,1.66,0,0,0,305,38a2.81,2.81,0,0,0,1.62.41h5.27v1.93h-5.37a5.66,5.66,0,0,1-3.44-.92,3.41,3.41,0,0,1-1.24-2.94V24.17Z" style="fill: #004a7c"/>
  <path d="M319.61,24.17a13.53,13.53,0,0,1,2.69.24,4.83,4.83,0,0,1,1.93.83,3.66,3.66,0,0,1,1.17,1.55,6.54,6.54,0,0,1,.39,2.4,5.42,5.42,0,0,1-.24,1.7,3.85,3.85,0,0,1-.66,1.23,3.71,3.71,0,0,1-1,.85,6.12,6.12,0,0,1-1.25.56,3,3,0,0,1,1.39,1,7.78,7.78,0,0,1,.9,1.83l1.44,4h-2.66l-1.27-3.44a10,10,0,0,0-.46-1.06,3.65,3.65,0,0,0-.58-.83,2.32,2.32,0,0,0-.83-.55,3.1,3.1,0,0,0-1.17-.2h-1.2a10.92,10.92,0,0,1-1.28-.16v6.27h-2.56V24.17Zm-2.67,8c.47.08.93.14,1.36.17h1.23a4.18,4.18,0,0,0,2.88-.78,3.2,3.2,0,0,0,.83-2.45,5,5,0,0,0-.21-1.53,2,2,0,0,0-.65-1,2.57,2.57,0,0,0-1.12-.49,8.89,8.89,0,0,0-1.63-.13H317Z" style="fill: #004a7c"/>
  <rect x="329.04" y="24.17" width="2.56" height="16.22" style="fill: #004a7c"/>
  <path d="M344.69,24.17v1.94h-7.17v5H344V33h-6.46v3.51a1.69,1.69,0,0,0,.6,1.49,2.81,2.81,0,0,0,1.62.41H345v1.93h-5.37a5.66,5.66,0,0,1-3.44-.92A3.39,3.39,0,0,1,335,36.54V24.17Z" style="fill: #004a7c"/>
  <polygon points="350.04 24.17 358.89 33.66 358.89 24.17 361.35 24.17 361.35 40.39 358.89 40.39 358.89 36.73 350.45 27.81 350.45 40.39 347.99 40.39 347.99 24.17 350.04 24.17" style="fill: #004a7c"/>
  <path d="M374.45,26.3a19,19,0,0,0-3.9-.44,5.89,5.89,0,0,0-2,.31,3.05,3.05,0,0,0-1.4,1,5.06,5.06,0,0,0-.84,2,14.47,14.47,0,0,0-.28,3.08,14.77,14.77,0,0,0,.29,3.18,5,5,0,0,0,.87,2,3,3,0,0,0,1.44,1,6.46,6.46,0,0,0,2,.29,13.37,13.37,0,0,0,2-.16c.71-.11,1.37-.22,2-.35l.2,1.93a12.53,12.53,0,0,1-2.1.39,19.23,19.23,0,0,1-2.15.12,10.12,10.12,0,0,1-3-.42,5.28,5.28,0,0,1-2.28-1.39,6.15,6.15,0,0,1-1.43-2.58,13.84,13.84,0,0,1-.49-4,13.84,13.84,0,0,1,.49-4,6.11,6.11,0,0,1,1.43-2.57,5.21,5.21,0,0,1,2.3-1.37,11.18,11.18,0,0,1,3.1-.4,18.7,18.7,0,0,1,2.12.12c.72.08,1.39.18,2,.29Z" style="fill: #004a7c"/>
  <path d="M386.59,24.17v1.94h-7.17v5h6.46V33h-6.46v3.51A1.69,1.69,0,0,0,380,38a2.81,2.81,0,0,0,1.62.41h5.27v1.93h-5.37a5.66,5.66,0,0,1-3.44-.92,3.38,3.38,0,0,1-1.24-2.94V24.17Z" style="fill: #004a7c"/>
  <path d="M398.35,32.32a14.39,14.39,0,0,1,.49-4.08,6.38,6.38,0,0,1,1.39-2.57,5,5,0,0,1,2.18-1.34,10.08,10.08,0,0,1,2.89-.39,20.15,20.15,0,0,1,2.06.11c.67.07,1.31.17,1.94.28l-.2,1.29c-.62-.11-1.26-.21-1.93-.28a17.29,17.29,0,0,0-1.9-.11,8,8,0,0,0-2.29.3,3.55,3.55,0,0,0-1.7,1.09,5.19,5.19,0,0,0-1,2.17,14.12,14.12,0,0,0-.35,3.49,13.88,13.88,0,0,0,.35,3.46,5.45,5.45,0,0,0,1,2.17A3.56,3.56,0,0,0,402.93,39a7.1,7.1,0,0,0,2.2.32,16.65,16.65,0,0,0,2-.13c.73-.09,1.43-.2,2.11-.33l.16,1.22a17.88,17.88,0,0,1-2.19.37,18.48,18.48,0,0,1-2.1.12,9,9,0,0,1-2.78-.4,4.93,4.93,0,0,1-2.13-1.37,6.41,6.41,0,0,1-1.36-2.56,14.19,14.19,0,0,1-.48-4" style="fill: #004a7c"/>
  <path d="M415.22,28.52a5.1,5.1,0,0,1,3.85,1.41c.91.94,1.37,2.48,1.37,4.63s-.46,3.69-1.37,4.62a6,6,0,0,1-7.71,0c-.91-.93-1.36-2.47-1.36-4.62s.45-3.69,1.36-4.63a5.1,5.1,0,0,1,3.85-1.41m0,1.22a5.23,5.23,0,0,0-1.57.22,2.54,2.54,0,0,0-1.18.77,3.8,3.8,0,0,0-.76,1.48,10.49,10.49,0,0,0,0,4.73,3.8,3.8,0,0,0,.76,1.48,2.52,2.52,0,0,0,1.18.76,5.22,5.22,0,0,0,1.57.21,5,5,0,0,0,1.54-.21,2.54,2.54,0,0,0,1.17-.76,3.8,3.8,0,0,0,.76-1.48,10.49,10.49,0,0,0,0-4.73,3.8,3.8,0,0,0-.76-1.48,2.64,2.64,0,0,0-1.17-.77,5,5,0,0,0-1.54-.22" style="fill: #004a7c"/>
  <path d="M430.17,32.52a3.2,3.2,0,0,0-.24-1.37,2.15,2.15,0,0,0-.67-.85,2.49,2.49,0,0,0-1-.44,5.74,5.74,0,0,0-1.17-.12,10,10,0,0,0-1.73.16c-.58.11-1.12.22-1.61.35V40.39h-1.39v-11c.67-.18,1.42-.36,2.27-.55a11.59,11.59,0,0,1,2.49-.28,7,7,0,0,1,1.88.26,3.82,3.82,0,0,1,1.51.84,9.69,9.69,0,0,1,2.08-.79,9.14,9.14,0,0,1,2.33-.3,7.93,7.93,0,0,1,1.68.18,3.56,3.56,0,0,1,1.41.65,3.29,3.29,0,0,1,1,1.22,4.33,4.33,0,0,1,.37,1.88v8H438v-8a3.39,3.39,0,0,0-.24-1.37,2.15,2.15,0,0,0-.67-.85,2.49,2.49,0,0,0-1-.44,5.74,5.74,0,0,0-1.17-.12,6.86,6.86,0,0,0-2.11.3,12.39,12.39,0,0,0-1.57.6,4.32,4.32,0,0,1,.34,1.81v8h-1.39Z" style="fill: #004a7c"/>
  <path d="M441.51,29.34a24.27,24.27,0,0,1,2.41-.58,12,12,0,0,1,2.39-.24,6.46,6.46,0,0,1,2,.29,4,4,0,0,1,1.62,1,4.85,4.85,0,0,1,1.1,1.85,9,9,0,0,1,.4,2.87,9.33,9.33,0,0,1-.43,3.06,4.59,4.59,0,0,1-1.15,1.85,3.82,3.82,0,0,1-1.66.91,7.5,7.5,0,0,1-2,.24,14.06,14.06,0,0,1-1.72-.11l-1.62-.23V45h-1.39ZM442.9,39c.57.1,1.14.19,1.71.26a13.1,13.1,0,0,0,1.66.11,6,6,0,0,0,1.46-.18,2.46,2.46,0,0,0,1.18-.72,3.68,3.68,0,0,0,.78-1.49,8.85,8.85,0,0,0,.28-2.46,8.59,8.59,0,0,0-.27-2.37,3.55,3.55,0,0,0-.77-1.46,2.63,2.63,0,0,0-1.17-.74,5.29,5.29,0,0,0-1.48-.21h-.84l-1,.12a4.13,4.13,0,0,0-.89.17l-.71.17Z" style="fill: #004a7c"/>
  <path d="M454.32,28.86c.38-.08.86-.16,1.43-.23a13.54,13.54,0,0,1,1.68-.11,9.56,9.56,0,0,1,1.77.17,4.47,4.47,0,0,1,1.53.59,3.11,3.11,0,0,1,1.06,1.13,3.7,3.7,0,0,1,.4,1.82v7.58c-.67.18-1.38.35-2.15.52a12,12,0,0,1-2.61.26,7,7,0,0,1-1.71-.2,3.85,3.85,0,0,1-1.4-.63,3.2,3.2,0,0,1-1-1.13,3.8,3.8,0,0,1-.36-1.72,3.2,3.2,0,0,1,.39-1.66,3,3,0,0,1,1-1,4.29,4.29,0,0,1,1.47-.55,9.23,9.23,0,0,1,1.74-.16,16.9,16.9,0,0,1,1.74.09l1.4.18V32.25a2.36,2.36,0,0,0-.28-1.22,2.11,2.11,0,0,0-.76-.78,3,3,0,0,0-1.09-.4,7.69,7.69,0,0,0-1.27-.11,11.82,11.82,0,0,0-1.57.1c-.52.07-1,.14-1.4.22ZM460.81,35c-.44-.08-.94-.15-1.49-.21a15.93,15.93,0,0,0-1.69-.08,8.2,8.2,0,0,0-1.21.08,3,3,0,0,0-1,.34,2,2,0,0,0-.71.71,2.3,2.3,0,0,0-.27,1.18,2.23,2.23,0,0,0,.25,1.11,1.9,1.9,0,0,0,.66.72,3.06,3.06,0,0,0,1,.39,5.64,5.64,0,0,0,1.16.12,11.69,11.69,0,0,0,1.87-.15,14.85,14.85,0,0,0,1.48-.32Z" style="fill: #004a7c"/>
  <path d="M464.27,29.34c.31-.1.66-.19,1.06-.29s.81-.19,1.24-.27.87-.15,1.33-.2a12.39,12.39,0,0,1,1.36-.07,8.16,8.16,0,0,1,1.78.2,4.41,4.41,0,0,1,1.51.65,3.26,3.26,0,0,1,1,1.21,4.07,4.07,0,0,1,.39,1.88V40.4h-1.39V32.51a3.09,3.09,0,0,0-.27-1.34,2.19,2.19,0,0,0-.72-.85,3,3,0,0,0-1.08-.45,7,7,0,0,0-1.37-.13,11.21,11.21,0,0,0-1.83.16c-.62.11-1.18.22-1.68.35V40.39h-1.39Z" style="fill: #004a7c"/>
  <path d="M485.31,28.71V40.9a4.14,4.14,0,0,1-1.16,3.21,5.22,5.22,0,0,1-3.54,1,18.18,18.18,0,0,1-2.09-.13,12.71,12.71,0,0,1-2.11-.42l.22-1.23a15.09,15.09,0,0,0,2,.41,15.53,15.53,0,0,0,1.93.15,3.64,3.64,0,0,0,2.59-.75,3,3,0,0,0,.76-2.25V40c-.41.08-.9.16-1.49.23a14.25,14.25,0,0,1-1.85.11,7.52,7.52,0,0,1-1.77-.21,3.91,3.91,0,0,1-1.48-.68,3.45,3.45,0,0,1-1-1.24,4.2,4.2,0,0,1-.39-1.91V28.71h1.39v7.56a3,3,0,0,0,.28,1.39,2.43,2.43,0,0,0,.73.89,2.89,2.89,0,0,0,1,.48,5.36,5.36,0,0,0,1.26.15,13.34,13.34,0,0,0,1.79-.12q.92-.12,1.5-.24V28.71Z" style="fill: #004a7c"/>
  <path d="M394.26,25.65a2.34,2.34,0,0,1-.71,1.82,3.39,3.39,0,0,1-4,0,2.67,2.67,0,0,1,0-3.63,3.39,3.39,0,0,1,4,0,2.34,2.34,0,0,1,.71,1.82m-.45,0a2,2,0,0,0-.58-1.54,2.88,2.88,0,0,0-3.34,0,2.32,2.32,0,0,0,0,3.08,2.88,2.88,0,0,0,3.34,0,2,2,0,0,0,.58-1.54m-2.23-1.42a1.24,1.24,0,0,1,.73.18.69.69,0,0,1,.26.61.64.64,0,0,1-.48.73.58.58,0,0,1,.22.22,3.54,3.54,0,0,1,.16.34l.23.65h-.46l-.25-.66a.92.92,0,0,0-.16-.27.41.41,0,0,0-.36-.13h-.37V27h-.44V24.23Zm-.48,1.29h.4a1,1,0,0,0,.45-.08c.12-.05.17-.2.17-.43a.4.4,0,0,0-.14-.35.79.79,0,0,0-.45-.1h-.43Z" style="fill: #004a7c"/>
</svg>
