<svg id="Layer_1" data-name="Layer 1" xmlns="http://www.w3.org/2000/svg" viewBox="0 0 176 31">
  <title>vmware_logo</title>
  <g>
    <path d="M76,26.9,68.42,5.84a3.8,3.8,0,0,1-.24-1A1.84,1.84,0,0,1,70.06,3a2,2,0,0,1,1.88,1.54l6.27,18.15,6.31-18.2A1.91,1.91,0,0,1,86.35,3h.2a2,2,0,0,1,1.93,1.49l6.26,18.2,6.37-18.24A1.82,1.82,0,0,1,102.89,3a1.78,1.78,0,0,1,1.83,1.74,3.39,3.39,0,0,1-.24,1L96.87,26.9a2.21,2.21,0,0,1-2,1.68h-.15a2.09,2.09,0,0,1-2-1.68L86.45,9,80.18,26.9a2.06,2.06,0,0,1-2,1.68h-.1A2.2,2.2,0,0,1,76,26.9" style="fill: #787477"/>
    <path d="M131.14,4.88a1.86,1.86,0,1,1,3.72,0V9.16A10.15,10.15,0,0,1,143.45,3a1.79,1.79,0,0,1,1.84,1.88,1.85,1.85,0,0,1-1.64,1.89c-4.83.58-8.79,4.2-8.79,11.39v8.47a1.86,1.86,0,1,1-3.72,0V4.88" style="fill: #787477"/>
    <path d="M157.22,28.79c-6.72,0-12.21-5.21-12.21-12.86v-.1C145,8.72,150,3,156.75,3,164,3,168.1,9,168.1,15.5a1.71,1.71,0,0,1-1.71,1.72H148.71c.51,5.35,4.25,8.36,8.6,8.36a9.92,9.92,0,0,0,7.05-2.87,1.63,1.63,0,0,1,1-.42A1.6,1.6,0,0,1,167,23.87a1.56,1.56,0,0,1-.57,1.19,12.39,12.39,0,0,1-9.22,3.73m7.24-14.3c-.38-4.49-2.94-8.4-7.81-8.4-4.26,0-7.48,3.58-7.94,8.4Z" style="fill: #787477"/>
    <path d="M104.79,21.05V21c0-5.24,4.33-8,10.64-8A26.66,26.66,0,0,1,123.08,14V13.1c0-4.47-2.75-6.78-7.41-6.78a12.73,12.73,0,0,0-5.8,1.13,1.82,1.82,0,0,1-.67.15A1.66,1.66,0,0,1,107.56,6a1.53,1.53,0,0,1,1-1.54,16.41,16.41,0,0,1,7.47-1.42c3.51,0,6.21.91,8,2.74,1.68,1.69,2.55,4.09,2.55,7.27V26.79a1.76,1.76,0,0,1-1.78,1.83,1.71,1.71,0,0,1-1.78-1.73V24.51a10.88,10.88,0,0,1-9,4.29c-4.62,0-9.29-2.65-9.29-7.75m18.34-1.93v-2.4a25.94,25.94,0,0,0-7.32-1.07c-4.66,0-7.27,2-7.27,5.16v.09c0,3.13,2.89,5,6.26,5,4.57,0,8.33-2.79,8.33-6.74" style="fill: #787477"/>
    <path d="M8.56,4.61A3.5,3.5,0,0,0,3.85,2.85,3.44,3.44,0,0,0,2.12,7.56L10,24.73c1.24,2.69,2.55,4.1,5,4.1,2.62,0,3.77-1.54,5-4.1L27,9.57a1,1,0,0,1,1-.64A1.1,1.1,0,0,1,29.08,10V24.72c0,2.26,1.25,4.11,3.67,4.11s3.71-1.85,3.71-4.11v-12a3.7,3.7,0,0,1,3.92-3.82,3.6,3.6,0,0,1,3.77,3.82v12c0,2.26,1.26,4.11,3.67,4.11s3.72-1.85,3.72-4.11v-12a3.69,3.69,0,0,1,3.91-3.82,3.6,3.6,0,0,1,3.77,3.82v12c0,2.26,1.26,4.11,3.67,4.11s3.72-1.85,3.72-4.11V11.05a8.57,8.57,0,0,0-8.9-8.54,11.42,11.42,0,0,0-7.89,3.36C48.2,3.78,46,2.52,42.21,2.52c-4,0-7.46,3.35-7.46,3.35A8.94,8.94,0,0,0,28.1,2.52c-3.52,0-6.32,1.54-8,5.45L15,19.86,8.56,4.61" style="fill: #787477"/>
    <path d="M168.4,6.09v0a3.08,3.08,0,1,1,6.16,0h0a3.08,3.08,0,1,1-6.16,0m5.56,0h0a2.47,2.47,0,0,0-2.48-2.52A2.5,2.5,0,0,0,169,6.07v0a2.49,2.49,0,1,0,5,0" style="fill: #787477"/>
    <path d="M170.3,4.86a.32.32,0,0,1,.33-.33h1a1.2,1.2,0,0,1,.87.3.94.94,0,0,1,.26.68h0a.92.92,0,0,1-.6.91l.46.55a.39.39,0,0,1,.1.25.31.31,0,0,1-.31.31.41.41,0,0,1-.32-.17l-.64-.81H171v.65a.33.33,0,0,1-.33.33.33.33,0,0,1-.33-.33ZM171.62,6c.32,0,.5-.16.5-.42h0c0-.27-.19-.42-.51-.42H171V6Z" style="fill: #787477"/>
  </g>
</svg>
