<svg id="Layer_1" data-name="Layer 1" xmlns="http://www.w3.org/2000/svg" viewBox="0 0 445 91"><defs><style>.cls-1{fill:#4d4d4d;}.cls-2{fill:#e6e6e6;fill-rule:evenodd;}</style></defs><title>progress_sales_2</title><path class="cls-1" d="M197.59,38.35a5.85,5.85,0,0,1-3.15,5.18V30.93a5.85,5.85,0,0,1,3.1,5.17ZM189,24.85V62.43c-7.2-3.8-22.5-11.1-36-12V27.65c13-.95,28.68-8.3,36-12.06ZM158.61,77.51l-.34.18-.3.17a17.47,17.47,0,0,1-7.87,2.35V80l-8.35-24.32h8.67c1.05,0,2.14.05,3.24.15.32,10.54,3.21,17.81,4.79,20.28l.08.12h0a1.17,1.17,0,0,1,.09,1.26ZM130.95,39a11.29,11.29,0,0,1,11.24-11.29h5.49V50.33h-5.49A11.29,11.29,0,0,1,130.95,39Zm63.5-13.85V11.07a2.7,2.7,0,0,0-4-2.34c-.24.13-23.94,13.63-40,13.63H142.2a16.67,16.67,0,0,0-6.66,32l9.38,27.39a5.26,5.26,0,0,0,5,3.92,4.93,4.93,0,0,0,.72-.05,23.78,23.78,0,0,0,10.21-3.14,6.57,6.57,0,0,0,1.8-1.23,2.67,2.67,0,0,0,.29-.34,6.56,6.56,0,0,0,.05-7.66c-1-1.55-3.43-7.49-3.87-16.51,15.05,3.1,31.08,12.52,31.25,12.64A2.7,2.7,0,0,0,194.43,67V49.26a11.27,11.27,0,0,0,8.52-10.91V36.1a11.26,11.26,0,0,0-8.5-10.91Z"/><path class="cls-1" d="M249.11,68V47h9l9,15h3l16.11-26.84L293.32,47h15.79V68Zm60-48V41H296.72l-9-15h-3L268.61,52.84,261.51,41h-12.4V20Zm0-6h-60a6,6,0,0,0-6,6V68a6,6,0,0,0,6,6h27v6h-9a6,6,0,0,0-6,6h36a6,6,0,0,0-6-6h-9V74h27a6,6,0,0,0,6-6V20a6,6,0,0,0-6-6Z"/><rect class="cls-1" x="255.11" y="26" width="18" height="6"/><rect class="cls-1" x="297.11" y="56" width="6" height="6"/><rect class="cls-1" x="282.11" y="56" width="9" height="6"/><path class="cls-2" d="M84,78a2.65,2.65,0,0,1-2.82,1.66c-2.62-.07-5.24,0-7.86,0a2.21,2.21,0,0,1-2.46-2.45q0-16.84,0-33.68a2.2,2.2,0,0,1,2.46-2.44c2.62,0,5.24,0,7.86,0A2.64,2.64,0,0,1,84,42.72V78Z"/><path class="cls-2" d="M84,29.73A5.8,5.8,0,0,1,83,31a2.16,2.16,0,0,1-3.41-1.61c-.24-2.06-.47-4.12-.84-6.3a2.34,2.34,0,0,1-.16.34c-7.3,11.37-17.22,19.81-29.16,26A82.73,82.73,0,0,1,28.82,57,52.9,52.9,0,0,1,17.3,58.29a9.58,9.58,0,0,1-1.63-.13A2.35,2.35,0,0,1,14,56.54V55.45a2.74,2.74,0,0,1,3-1.58A42.25,42.25,0,0,0,28.26,52.6C43.6,48.93,57,41.76,67.86,30.2a61.49,61.49,0,0,0,7.35-9.59c.13-.21.25-.43.43-.74-.26,0-.42.07-.58.11-2.28.65-4.55,1.32-6.83,1.94a2.16,2.16,0,0,1-2.84-2.44,2,2,0,0,1,1.54-1.74q6.43-1.85,12.87-3.67A2.14,2.14,0,0,1,82.5,16c.47,4,.91,8,1.37,12a3.9,3.9,0,0,0,.13.52c0,.4,0,.81,0,1.22Z"/><path class="cls-2" d="M14,66.53a2.63,2.63,0,0,1,2.81-1.66c2.64.07,5.28,0,7.92,0a2.21,2.21,0,0,1,2.4,2.44q0,4.95,0,9.9a2.22,2.22,0,0,1-2.46,2.44c-2.62,0-5.24,0-7.85,0A2.64,2.64,0,0,1,14,78V66.53Z"/><path class="cls-2" d="M65,66.8V77.06c0,1.79-.8,2.6-2.57,2.6H54.37a2.23,2.23,0,0,1-2.49-2.5q0-10.39,0-20.79a2.22,2.22,0,0,1,2.42-2.43h8.21A2.22,2.22,0,0,1,65,56.47q0,5.16,0,10.33s0,0,0,0Z"/><path class="cls-2" d="M32.94,70.82q0-3.18,0-6.36A2.2,2.2,0,0,1,35.36,62h8.13a2.28,2.28,0,0,1,2.58,2.56q0,6.22,0,12.44c0,1.78-.83,2.61-2.58,2.61H35.35a2.19,2.19,0,0,1-2.41-2.41q0-3.21,0-6.42Z"/><path class="cls-1" d="M397,42a27,27,0,0,1-27,27h-3V63h3a21,21,0,0,0,21-21V36a3,3,0,1,1,6,0Z"/><path class="cls-1" d="M421,42a50.88,50.88,0,0,1-18.17,39H392.39A45,45,0,0,0,415,42V36a21,21,0,0,0-42,0v6a3,3,0,1,1-6,0V36a27,27,0,0,1,54,0Z"/><polygon class="cls-1" points="370 9 358 9 358 21 364 21 364 15 370 15 370 9"/><polygon class="cls-1" points="358 69 358 81 370 81 370 75 364 75 364 69 358 69"/><polygon class="cls-1" points="418 81 430 81 430 69 424 69 424 75 418 75 418 81"/><polygon class="cls-1" points="430 21 430 9 418 9 418 15 424 15 424 21 430 21"/><path class="cls-1" d="M394,21a15,15,0,0,0-15,15v6a9,9,0,0,1-9,9h-3v6h3a15,15,0,0,0,15-15V36a9,9,0,0,1,18,0v6a33,33,0,0,1-27,32.43v6.06A39,39,0,0,0,409,42V36a15,15,0,0,0-15-15Z"/></svg>