<svg id="Layer_1" data-name="Layer 1" xmlns="http://www.w3.org/2000/svg" viewBox="0 0 445 124"><defs><style>.cls-1{fill:#4d4d4d;}.cls-2{fill:#e6e6e6;}</style></defs><title>progress_sales</title><path class="cls-1" d="M201.3,50.39a6.5,6.5,0,0,1-3.5,5.76v-14a6.5,6.5,0,0,1,3.45,5.74Zm-9.5-15V77.15c-8-4.22-25-12.33-40-13.34V38.5c14.45-1.05,31.87-9.22,40-13.4ZM158,93.9l-.38.2-.33.19c-.73.48-3.49,2.1-8.75,2.61v-.2l-9.28-27h9.63c1.17,0,2.38.06,3.6.17.36,11.71,3.57,19.79,5.32,22.53l.09.13h0a1.31,1.31,0,0,1,.1,1.4ZM127.25,51.16a12.55,12.55,0,0,1,12.49-12.54h6.1V63.7h-6.1A12.55,12.55,0,0,1,127.25,51.16ZM197.8,35.77V20.08a3,3,0,0,0-4.49-2.6c-.26.15-26.6,15.14-44.46,15.14h-9.1a18.53,18.53,0,0,0-7.4,35.53l10.42,30.43a5.85,5.85,0,0,0,5.54,4.35,5.48,5.48,0,0,0,.8-.06,26.43,26.43,0,0,0,11.34-3.49,7.3,7.3,0,0,0,2-1.37,3,3,0,0,0,.32-.38,7.29,7.29,0,0,0,.06-8.51c-1.07-1.72-3.81-8.32-4.3-18.34,16.72,3.45,34.53,13.91,34.72,14a3,3,0,0,0,4.53-2.58V62.51a12.52,12.52,0,0,0,9.47-12.12v-2.5a12.51,12.51,0,0,0-9.45-12.12Z"/><path class="cls-2" d="M49.33,69.92c-9.6,0-17.42-10.21-17.42-22.75V40.51a2.75,2.75,0,0,1,2.42-2.73c1-.12,3.41-.41,4.28-5.71a2.75,2.75,0,0,1,2.66-2.3A2.78,2.78,0,0,1,44,32c1,5.07,1.77,5.79,4,5.79H64a2.75,2.75,0,0,1,2.75,2.75v6.67C66.75,59.72,58.94,69.92,49.33,69.92ZM37.42,42.65v4.52c0,9.51,5.34,17.25,11.92,17.25s11.92-7.74,11.92-17.25V43.26H48A7.86,7.86,0,0,1,41.15,40,9,9,0,0,1,37.42,42.65Z"/><path class="cls-2" d="M69.8,84.6,65.19,74.23a2.75,2.75,0,0,0-4.86-.31l-11,18.14-11-18.14a2.75,2.75,0,0,0-4.86.31L28.87,84.6a2.75,2.75,0,0,0,1,3.44l3.62,2.28a2.75,2.75,0,1,0,2.93-4.65l-1.61-1,1.5-3.39,9.75,16.09-.55.9A2.74,2.74,0,0,0,49.33,102a2.74,2.74,0,0,0,3.76-3.77l-.55-.9L62.3,81.28l1.55,3.48-1.42,1a2.75,2.75,0,1,0,3.14,4.52L68.86,88A2.75,2.75,0,0,0,69.8,84.6Z"/><path class="cls-2" d="M71.4,78.35a2.76,2.76,0,0,1-.64-.08,58.81,58.81,0,0,0-12.6-1.68,2.75,2.75,0,0,1-2.75-2.75V69.42a15,15,0,0,1-12.16,0v4.43a2.75,2.75,0,0,1-2.75,2.75,58.81,58.81,0,0,0-12.6,1.68,2.75,2.75,0,0,1-3.39-2.67V37.07a24.82,24.82,0,0,1,49.64,0V75.6a2.75,2.75,0,0,1-2.75,2.75ZM49.33,17.75A19.34,19.34,0,0,0,30,37.07V72.2a66.18,66.18,0,0,1,7.74-1V64.38a2.75,2.75,0,0,1,4.58-2.05,10.53,10.53,0,0,0,7,2.89,10.54,10.54,0,0,0,7-2.89,2.75,2.75,0,0,1,4.58,2.05V71.2a66.14,66.14,0,0,1,7.74,1V37.07A19.34,19.34,0,0,0,49.33,17.75Z"/><path class="cls-2" d="M86.13,80h0q-2-1.14-3.89-2.18a54.59,54.59,0,0,0-22.16-6.5V64.38a2.75,2.75,0,0,0-4.68-2,8.89,8.89,0,0,1-6.07,2.8,8.89,8.89,0,0,1-6.07-2.8,2.75,2.75,0,0,0-4.68,2v6.86a55.62,55.62,0,0,0-22.16,6.54q-1.92,1-3.89,2.19a9.58,9.58,0,0,0-4.62,8.32v12.05a2.75,2.75,0,0,0,2.75,2.75H88a2.75,2.75,0,0,0,2.75-2.75V88.28A9.59,9.59,0,0,0,86.13,80Zm-.88,17.62H75.08V94.45a2.75,2.75,0,0,0-5.5,0v3.13H29.08V94.45a2.75,2.75,0,0,0-5.5,0v3.13H13.42v-9.3a4.13,4.13,0,0,1,1.88-3.57q1.89-1.1,3.74-2.1a49.92,49.92,0,0,1,22.36-6,2.75,2.75,0,0,0,2.68-2.75V69.59a12.87,12.87,0,0,0,10.5,0v4.3a2.75,2.75,0,0,0,2.68,2.75,49.2,49.2,0,0,1,22.36,6q1.85,1,3.74,2.1h0a4.13,4.13,0,0,1,1.88,3.57Z"/><path class="cls-1" d="M282.44,54.66a30,30,0,0,1-30,30h-3.33V78h3.33a23.33,23.33,0,0,0,23.34-23.34V48a3.33,3.33,0,1,1,6.66,0Z"/><path class="cls-1" d="M309.11,54.66A56.53,56.53,0,0,1,288.92,98h-11.6a50,50,0,0,0,25.13-43.34V48a23.33,23.33,0,0,0-46.66,0v6.66a3.33,3.33,0,1,1-6.67,0V48a30,30,0,1,1,60,0Z"/><polygon class="cls-1" points="252.44 18 239.11 18 239.11 31.33 245.78 31.33 245.78 24.67 252.44 24.67 252.44 18"/><polygon class="cls-1" points="239.11 84.66 239.11 98 252.44 98 252.44 91.34 245.78 91.34 245.78 84.66 239.11 84.66"/><polygon class="cls-1" points="305.78 98 319.11 98 319.11 84.66 312.44 84.66 312.44 91.34 305.78 91.34 305.78 98"/><polygon class="cls-1" points="319.11 31.33 319.11 18 305.78 18 305.78 24.67 312.44 24.67 312.44 31.33 319.11 31.33"/><path class="cls-1" d="M279.11,31.33A16.67,16.67,0,0,0,262.44,48v6.66a10,10,0,0,1-10,10h-3.33v6.67h3.33a16.66,16.66,0,0,0,16.67-16.67V48a10,10,0,0,1,20,0v6.66a36.65,36.65,0,0,1-30,36v6.73a43.3,43.3,0,0,0,36.67-42.77V48a16.67,16.67,0,0,0-16.67-16.67Z"/><path class="cls-1" d="M360.67,83V59.67h10l10,16.66H384l17.9-29.82,7.89,13.16h17.55V83Zm66.66-53.33V53H413.56l-10-16.67h-3.33l-17.9,29.82L374.44,53H360.67V29.67Zm0-6.67H360.67A6.69,6.69,0,0,0,354,29.67V83a6.69,6.69,0,0,0,6.67,6.67h30v6.66h-10A6.67,6.67,0,0,0,374,103h40a6.67,6.67,0,0,0-6.67-6.67h-10V89.66h30A6.68,6.68,0,0,0,434,83V29.67A6.69,6.69,0,0,0,427.33,23Z"/><rect class="cls-1" x="367.33" y="36.33" width="20" height="6.67"/><rect class="cls-1" x="414" y="69.67" width="6.67" height="6.66"/><rect class="cls-1" x="397.33" y="69.67" width="10" height="6.66"/></svg>