<svg id="Layer_1" data-name="Layer 1" xmlns="http://www.w3.org/2000/svg" viewBox="0 0 445 124"><defs><style>.cls-1{fill:#4d4d4d;}.cls-2{fill:maroon;}.cls-3{fill:#e6e6e6;}</style></defs><title>progress_security</title><path class="cls-1" d="M201.3,50.39a6.5,6.5,0,0,1-3.5,5.76v-14a6.5,6.5,0,0,1,3.45,5.74Zm-9.5-15V77.15c-8-4.22-25-12.33-40-13.34V38.5c14.45-1.05,31.87-9.22,40-13.4ZM158,93.9l-.38.2-.33.19c-.73.48-3.49,2.1-8.75,2.61v-.2l-9.28-27h9.63c1.17,0,2.38.06,3.6.17.36,11.71,3.57,19.79,5.32,22.53l.09.13h0a1.31,1.31,0,0,1,.1,1.4ZM127.25,51.16a12.55,12.55,0,0,1,12.49-12.54h6.1V63.7h-6.1A12.55,12.55,0,0,1,127.25,51.16ZM197.8,35.77V20.08a3,3,0,0,0-4.49-2.6c-.26.15-26.6,15.14-44.46,15.14h-9.1a18.53,18.53,0,0,0-7.4,35.53l10.42,30.43a5.85,5.85,0,0,0,5.54,4.35,5.48,5.48,0,0,0,.8-.06,26.43,26.43,0,0,0,11.34-3.49,7.3,7.3,0,0,0,2-1.37,3,3,0,0,0,.32-.38,7.29,7.29,0,0,0,.06-8.51c-1.07-1.72-3.81-8.32-4.3-18.34,16.72,3.45,34.53,13.91,34.72,14a3,3,0,0,0,4.53-2.58V62.51a12.52,12.52,0,0,0,9.47-12.12v-2.5a12.51,12.51,0,0,0-9.45-12.12Z"/><path class="cls-2" d="M197.83,23.5l.34.68.07-.29C198.17,23.69,197.9,23.34,197.83,23.5Z"/><path class="cls-2" d="M196.93,23.7a1.28,1.28,0,0,1-.27-.42,3,3,0,0,0,.75,1.54c-.27-.69-.07-.46-.4-1.28.07-.15.34.06.48.3-.07-.19.28,0,.08-.42C197.07,23,196.86,23.16,196.93,23.7Z"/><path class="cls-2" d="M177.56,36a.16.16,0,0,0,0-.19C177.51,35.88,177.5,35.95,177.56,36Z"/><path class="cls-2" d="M175.88,36.35l.1,0C175.91,36.3,175.86,36.3,175.88,36.35Z"/><path class="cls-2" d="M184.59,30.71l-.33,0C184.4,30.87,184.46,30.73,184.59,30.71Z"/><path class="cls-2" d="M196.09,25.87a.47.47,0,0,0,0-.23.65.65,0,0,1-.05.13Z"/><path class="cls-2" d="M187.28,27.85l.06,0-.14-.28Z"/><path class="cls-2" d="M190,26.75c-.13-.23-.16-.36-.14-.44a3.5,3.5,0,0,0-.29-.35C189.52,26,189.88,26.51,190,26.75Z"/><path class="cls-2" d="M136,94.38s.09.07.1.05Z"/><path class="cls-2" d="M131.75,95.94v-.06l-.31-.18Z"/><path class="cls-2" d="M173.27,37.58h0C173.29,37.48,173.27,37.51,173.27,37.58Z"/><path class="cls-2" d="M155.86,56.06c.62.15.25.83,1,.92C156.66,56.85,156.37,56,155.86,56.06Z"/><path class="cls-2" d="M169.11,42.36a.9.9,0,0,0-.24-.16A1.36,1.36,0,0,0,169.11,42.36Z"/><path class="cls-2" d="M167.73,44.57c-.08,0-.16,0-.16.08l.07,0C167.61,44.6,167.61,44.55,167.73,44.57Z"/><path class="cls-2" d="M165.92,46.37l.12.06,0-.08Z"/><path class="cls-2" d="M139.63,87.69a3.72,3.72,0,0,1-.55-.19C139.49,87.7,139.44,88.09,139.63,87.69Z"/><path class="cls-2" d="M196,25.84l0-.08a.73.73,0,0,0-.14-.19C196,25.71,196,25.79,196,25.84Z"/><path class="cls-2" d="M171.19,48.23l-.35.21A.83.83,0,0,0,171.19,48.23Z"/><path class="cls-2" d="M149.4,72.68v.12S149.45,72.74,149.4,72.68Z"/><path class="cls-2" d="M170.08,49.33a1.16,1.16,0,0,0-.47-.15.83.83,0,0,0,.08.15Z"/><path class="cls-2" d="M196.37,24c.07-.08.34.4.34.54.07.53-.41,0-.55-.15l.07-.22c-.89-1-.49.59-.83.74l-.41-.86.14.86c-.21-.16-.55-.56-.49-.78-.49-.23,0,.41-.48.11a.18.18,0,0,1-.09-.14l-.05.38c-.07-.19-.42-.52-.21-.5-.7-.18-.21,1-.76.53v-.07c-.34.64.35.6.43,1.55l-1.26-1.2.35.6c-.07,0-.21.05-.35-.19.08.53.21.22.35.67-.63-.33-.54.75-1.25-.1.22.49.49.15.43.65-.78-.9-.2.4-.76.13-.29-.55.13-.45-.43-.72.47.94-.6.15-.68.46.48.67-.23.59-.4,1.07-.14-.24-.9.11-1.39.1l-.07-.12c.44.71,0,.82-.1,1.14a1.43,1.43,0,0,1-.38-.87l-.22.17a.67.67,0,0,1,0,.6l-.32-.54c-.27.25-.14,1-.76,1,.34.48,1.28,1.06,1.13,1.66-.21-.24-.55-.65-.53-.83,0,.06,0,.3-.11.24l-.17-.54c-.31-.05.18.42,0,.48-.27-.36-.3-.18-.49-.47,0-.06.23.06.18-.12a1,1,0,0,1-.82-.24c.17.19.37.48.3.61-.27.25-.43-.35-.74-.4.12.3-.26.19.15.72-.09.06-.29-.17-.44-.29,0,.35-.64.61,0,1h.07s0,0,0,0c-.07.9-1.24.5-1.54,1.11l-.14-.18c-.12.43-.54.63-.44,1.17-.08.07-.46-.16-.59-.39-.11.31,0,.52-.52.49,0-.48-.29-.21,0-.4-.4.08-.7-.14-.61.58-.26-.53-.67-.38-.7-.14l.46.15a.75.75,0,0,1-.42.33l-.41-.64c-1.17-.23,0,2.06-1.45,1.25.19.53.55,0,.81.61-.33.14-1.3-.45-1.39-.38-.63,0,.38,1.12-.18,1.23.22.16.74.67.63,1.1-.32.15-1.06-.58-1-.88,0-.07.13,0,.19,0a.36.36,0,0,0-.24-.46l.14.23c-.31-.1-.65.24-.85-.17,0,.36.21.41.44.39-.59,0-.53.44-1,.54.15.06.41.26.36.3-.72.19.11.57-.14,1-.46-.14-.58-.8-.69-.24-.39,0-.52-.5-.58-.73,0,.66-.8.26-1,.35l0-.31a.41.41,0,0,1-.18.32l.45.32c-.16,0-.24.09-.39-.08.14.35.67.6.8,1.13-.31-.09-.19.56-.71.07.56-.18-.53-.49-.26-.88,0,.12-.09.19-.25.21a.21.21,0,0,1-.09-.18c-.81-.13.37.76,0,1.1-.22-.34-.61-.48-.61-.36.16-.14.53.43.59.79-.46,0-.12.42-.27.52l.25,0c.22.34.06.42,0,.67-.23-.22,0-.3-.14-.35.29.7-.94-.14-.88.46-.31-.08-.53-.54-.76-.58.06.67-.7-.1-.72.52.46.31.39.2.53.79l.26-.77.21.89c.16-.14.1-.56.25-.58.14.47.07.36.45.62-.77-.39-.1.74-.72.57l-.91-1c-.78-.08-.19,1.12-.9,1.33l.32,0c.3.45-.24.34-.25.64a1.88,1.88,0,0,0-.76-.5c.24.23-.37.32.21,1l-.62-.22c-.55.2.45,1.34,0,1.59-.23-.46-.62-.52-.62-1-.13.12-.3.17-.08.39-.27-.13.09.77-.33.57.09.19.4.54.24.65a.7.7,0,0,1-.15-.16c.15.16,0,.43.47.66-1.36-.62-1,1.11-2.15.59a4.75,4.75,0,0,1-.58,1.07c-.08-.11-.16-.16-.08-.17-.62,0,.72,1.11,0,1.16-.71-.31-.08-.48-.4-.55-1.11-1-.3.6-1.17.26v-.12c-.55-.15-.06.87-.45,1.12a.74.74,0,0,0-.16-.16,2.33,2.33,0,0,1,0,1.79c-.33-.49-.09-.35-.57-.69-.07.2.72.6.58,1a3,3,0,0,1-1.19-.51l.22-.29c-.42-.25-.45-.07-.45.12a.41.41,0,0,1,0-.33l.32-.13c-.15-.05-.66.14-.44-.16.12-.06.32-.13.31-.19s-.68,0-.59-.21l.4-.08c.06-.77-1.29-.36-1.76-.69a1.52,1.52,0,0,0,.88-1.4l.13-.07c-.28-.69-1.36-.64-2.05-1,.71-.94-.38-1.45-.23-2.35a1.17,1.17,0,0,1-.81.36c.08-.24-.82,0,0-.47l0,.06c.69-.59.31-.74.19-1l-1,.62c1.1-1.52-1.5-1.1-.4-2.27-.34,0-.45-.14-.78-.1l.54-.35a1.6,1.6,0,0,0-.61-1.07l.44-.17c-.15-.28-1.76.72-1.95.51l.74-.61c-.32-.44.05-1.37-1-1.32.12-.07.36-.22.44-.17-.13-.22,0-1.19-1.06-.35.7-.5-.26-.5-.74-.52l.54-.33c-.8.27-1,.39-1.37.24,0-.11.37-.35.3-.17.11-.41-.61.18-.53-.29l.4-.14c-.12-.26-.29-.11-.76,0-.31,0-.18-.52.26-.9-.3.18-.77.33-.74.1a.75.75,0,0,1,.38-.19c.07-.63-1-.12-.7-.75a1.1,1.1,0,0,0,.27-.27c.21.31.36.57.31.57.47-.35.37-.65,1.16-.94-.5.07-1.51.3-1.47-.09l.14-.15H151c0-.09-.07-.11-.19-.09s0-.22,0-.3c.36-.32,0-.43-.07-.57-.5.4-.54.18-.85.64,0,0,.08,0,.16,0a.15.15,0,0,0,.09,0l-.05,0a3.38,3.38,0,0,1,.26.27c-.33.1-.62.17-.44-.18L149,34c.59-.7.73-1.31,1.13-1.68-.57-.15-.85-.71-2-.21-.2,0,.18-.33.3-.48s.18.07.34,0c-.4,0-.57-.54-1.26-.07.1-.49.72-.33.34-.6l.24-.11c.49-1.53-2.57.21-1.84-1.63a.54.54,0,0,1-.16.28c-.12-1.35-2-1.32-1.79-2.94,0-.4-.45-.08-.88,0l.48-.5-.81.26c-.74,0,.76-1.71-.46-1.44l-.3.36c-.07-.22-.65-.32-.22-.64-.08,0-.41.26-.28,0l.27-.24-.8,0c-.07-.47,1.11-.89.77-1.38a2.08,2.08,0,0,0-1.32.45c0,.08,0,.32-.28.56l-.27,0c-.81.68-1.72,1.28-2,2.13l.7-.18-.31.42-.21-.19c-.26.44.13.23.42.12a1.39,1.39,0,0,0-.33.48l1-.42c-.28.3-.71.43-.74.75.45-.19.6-.72,1-.73-.26.44-.58.66-.15.53a.89.89,0,0,1-.48.31c.36-.09.39.24.88-.06-.34.51.48.33-.29,1,.22-.12.79-.29.92-.2-1.09.57.32.48-.71,1.26,1-.54.85.26,1.54.15-.08,0-.24.12-.22.06.06.22-.15.47-.22.7.7-.55,1.06-.43,1.59-.65-.5.74-.9.55-1.48,1.14.55-.47.83-.12,1.24-.57a2.43,2.43,0,0,1-.6.84c.88-.68.26,0,.89-.29-.25.56-.76.72-.3.74a.88.88,0,0,1-.65.37c.18.25.73-.41,1.14-.66.42.14-.37.52-.62.89.32,0,1-.3,1.11-.15a.82.82,0,0,1-.28.23c.67-.23.48.55,1.32.25a1.07,1.07,0,0,1-.14.16,8.53,8.53,0,0,1,.87-.75c.1.1.58-.12.18.26,0-.08-.22.05-.38.13l.28,0c-.53.59-.34,0-.8.37.38.06,1.1-.08,1.07.23-.58.51-.53-.24-.88.41l0-.45c-.79,1-.06-.21-.93.78.1.49.62.14.72.64.4-.18.48-.42.88-.6,1,0-1.22,1.59-.13,1.32.48-.22,1.28-.78,1.08-.2l-.76.44c.2.39,1.15-.57,1,.15-.32.14-.44-.09-.48,0-.37.65.52-.14.66,0l-.59.51c.37.29,1.12.37,1.54.69-.2.11-.45.19-.56.43.69.29.75,1.15.74,1.93l.68-.2s-.18.26-.32.29c-.06.34.35-.24.63-.3.12.08-.2.37-.42.42.71,0,1.7.28,1.38,1.06l-.21,0c0,.44,1.35-.47,1,.16l-.13,0c.2.79,1.18,1.14.68,2.19.86-.45.07.86,1.21.15-.31.73-.58.77-.61,1.52,0,.17.83-.26,1.06-.17l-.58.39.76-.18-.62.58.25.06c0-.09.17-.31.35-.41.43.07,0,.87-.3,1.07l.88.26a1.11,1.11,0,0,1-.59.11c.8-.08-.58.46.15.39a1.92,1.92,0,0,1,.49-.28.54.54,0,0,0,.25.85l-.44.21c.18.5.78.79,1.09,1.29.08-.29.81-.7,1-.6l-.59.45c.45-.15.14-.3.74-.4,0,.23-.64.57-.91.59l.36.09a5.06,5.06,0,0,1-.56.27c.45-.15-.39.78.37.49l-.18.13c.3.5.65.59.93,1,.55-.32.53-.09,1-.24,0,.4-.22,1,0,1.33.42.09.51-.2.9-.28-.49.32-.23.65-.7.68a2.32,2.32,0,0,0,1.16.81c.17-.18.22-.3.41-.36s-.08.35-.33.48H158c.64.1.35.82.22,1.4a1.28,1.28,0,0,1-.34-.13c0,1-1.21.94-1.71,1.68,1.22.65-.14.22.95,1.09-.06.21-.13.26-.21.21h0l-1-.07c-.4-.15-.11-.35-.35-.54-.37.27-.57-.24-1-.25.42.28.44.58.13.66l.72.14c.16,1-1.24-.34-1.1.62l-.2-.44c0,.42-.79.92-.14,1.87-.16-.06-.5-.24-.49-.42-.63.5-.18,2.1-1.09,2.13l-.23-.26c0,.17.34.6,0,.52-.1-.1-.23-.26-.28-.22s.22.67-.06.7l-.19-.37c-.83.31,0,1.49-.22,2.13a1.5,1.5,0,0,0-1.72-.22l-.1-.1c-.64.62-.28,1.7-.47,2.58-1.17-.26-1.4,1.1-2.37,1.39.22,0,.61.48.61.66-.28,0,.24.84-.48.27l.06,0c-.81-.42-.85,0-1.06.27l.94.75c-1.88-.38-.71,2.08-2.24,1.52.13.33,0,.53.12.86l-.52-.38a2.21,2.21,0,0,0-.93,1.15l-.3-.38c-.25.29,1.25,1.45,1.08,1.76l-.85-.46c-.36.55-1.43.62-1.08,1.64-.11-.09-.33-.26-.3-.37-.2.24-1.21.62-.05,1.27-.72-.47-.44.52-.32,1l-.5-.4c.51.7.69.83.64,1.3-.12,0-.47-.21-.26-.23-.46.09.36.54-.14.69l-.26-.35c-.23.25,0,.35.26.76.09.31-.49.44-1,.18.27.23.56.64.31.72a.64.64,0,0,1-.3-.3c-.67.24.17,1.1-.56,1.09a.94.94,0,0,0-.35-.15c.26-.37.48-.66.5-.6-.49-.32-.77-.07-1.29-.75.21.49.75,1.42.33,1.57l-.2-.07,0-.07c-.09,0-.09.13,0,.24-.14,0-.24.07-.31.15-.43-.22-.44.21-.56.35.55.33.33.47.9.57-.05,0,0-.07,0-.18a.17.17,0,0,0,0-.1l0,0c0-.11.12-.25.21-.4.2.29.35.56-.06.54.3.3.6.61.74.76-.89-.27-1.54-.11-2-.35,0,.66-.48,1.23.36,2.16,0,.21-.39,0-.58-.07s0-.22-.1-.35c.1.43-.39.85.29,1.35-.53.14-.55-.59-.71-.05l-.18-.2c-1.7.24,1,2.58-1.13,2.72a.5.5,0,0,1,.33,0c-1.33.79-.77,2.75-2.46,3.32-.39.21.05.51.3.91l-.64-.26.5.73c.24.77-1.95,0-1.32,1.19l.45.14c-.2.18-.14.84-.59.55.06.06.38.3.13.27l-.32-.16.25.84c-.46.3-1.22-.74-1.62-.14,0,.3.57,1.15.83,1.17.07-.09.33-.13.65,0l.05.3c.92.53,1.79,1.19,2.72,1l-.38-.66.51.13-.13.31c.52.06.2-.25,0-.51a1.2,1.2,0,0,0,.58.12l-.7-.82c.39.15.64.54,1,.42-.33-.38-.9-.28-1-.7.51.06.83.29.58-.1a.76.76,0,0,1,.45.36c-.19-.33.13-.54-.32-.89.61.1.19-.67,1.06-.18-.18-.17-.52-.69-.46-.87.89.87.4-.57,1.48.13-.82-.74,0-1-.29-1.7.06.06.19.19.12.2.2-.18.52-.08.77-.12-.76-.46-.74-.9-1.12-1.36.9.16.82.68,1.58,1-.63-.34-.36-.82-.94-1a2.12,2.12,0,0,1,1,.21c-.95-.59-.06-.28-.55-.79.64,0,.95.44.84,0,.38,0,.56.5.56.5.2-.32-.62-.56-1-.87,0-.51.64.13,1.09.21-.05-.36-.61-.93-.47-1.09a.69.69,0,0,1,.32.18c-.42-.59.42-.78-.12-1.5l.2.07a7.06,7.06,0,0,1-1-.54c.07-.15-.29-.54.21-.32-.07.08.12.2.24.33l-.11-.28c.76.27.11.35.61.65,0-.43-.39-1.11-.07-1.23.69.35-.1.67.67.72l-.46.2c1.2.35-.2.17,1.06.59.47-.35,0-.72.44-1.07-.3-.33-.56-.29-.87-.62-.25-1.06,2,.5,1.39-.52-.36-.39-1.16-1-.51-1l.67.57c.35-.4-.91-.91-.12-1.07.24.26,0,.5.16.49.77.06-.29-.48-.14-.71l.68.36c.18-.54.05-1.35.27-1.95.18.15.32.37.6.38.1-.86,1-1.35,1.77-1.73l-.4-.6c0-.05.32.06.39.19.37-.1-.35-.24-.49-.51.05-.16.44,0,.55.23-.19-.74-.2-1.9.7-2l.11.2c.46-.2-.87-1.16-.13-1.14l.05.13c.76-.59.84-1.78,2.07-1.78-.71-.66.87-.5-.19-1.32.85,0,1,.22,1.75-.13.17-.12-.51-.72-.48-1l.57.4-.4-.7.78.35V72.8a.67.67,0,0,1-.52-.16c0-.48.9-.42,1.2-.22l0-1c.21.18.21.35.29.55-.31-.79.64.37.36-.35-.16-.05-.32-.27-.43-.36a.72.72,0,0,0,.81-.67l.35.34c.47-.43.61-1.19,1-1.75-.33.07-1-.49-.9-.7l.64.38c-.28-.38-.35,0-.63-.55.23-.16.77.37.88.64v-.41c.19.12.23.25.45.44-.29-.39.93,0,.41-.62l.19.12a13.31,13.31,0,0,0,.75-1.43c-.5-.4-.25-.49-.55-.95.42-.21,1.1-.26,1.37-.7,0-.47-.36-.42-.55-.78.47.34.75-.08.91.38a3.11,3.11,0,0,0,.52-1.57c-.24-.09-.38-.08-.5-.24s.39-.09.59.1l0,.07c-.12-1.23,2.56-.47,2.08-1.77l0,.07,0-1c.29-.19.21.43.64.48-.24-1.22.89-.84.81-1.74.84.39,1.09,0,1.31-.44.67.88.4,2.32.6,3.44.11.45,2-.71,1.38.23l-.74.19c1.22.4.79,1.68,1.86,2.14-.18,0-.38.12-.42,0-.41.41.28.64.68.45,0,.15-.35.2-.52.38s.83.13.39.45a.3.3,0,0,1-.24,0c.29,0,.19.54.7.17-.13.43.52.46.3.86.71-.14-.07.66.86.3-.94.41-.51.88,0,.87-.31.06-.22.3-.64.4.11.21.37.34.84.08-.94.91,1.27.41-.07,1.28a7.32,7.32,0,0,1,1.88,1.39c-1,.38-.38-.62-1.35-.16.63.39,1.58.37,1.59,1-.07.2-.44.09-.63.11.63.4.37,1.13,1.09,1.41a.55.55,0,0,1-.3,0c.07.09,0,.29.38.1l-.16,0c.56-.42,1.47-.14,1.81-.26-1.3.33-.11.63-1.78,1a1,1,0,0,0,.63-.1c0,.13-.2.23-.57.26.38.26.79-.05.91.28a4.28,4.28,0,0,1-.58.12c.47,0,.95,0,.88.35-.13,0-.28.13-.31,0,.25.44,1.41.37,1.22,1-1,.2-.23.29-1,.63l.34.19.34-.26c.08.25.74.24.56.55l-.4-.06.33.4.2-.37c.5.09,1-.41.9,0-.11,0,.08.25-.34.56h0c.3,0,.61.05.48.31s-.89.29-1,.38c.71-.13.4.51,1.16.4a2.52,2.52,0,0,0-.68.21l.58-.1c-.13.18-.21.23-.55.33,0,.38,1-.48.69.09-.06,0-.13,0-.24,0-.08.49.63.67.5,1.14-.76.4-.32-.26-.95.11.34.49,1.37.78,1.36,1.38l.05-.13c1.16-.32-.43.59.2.67a1.52,1.52,0,0,0-.53.11c-.06.42.54.64,1.08,1.07l-.32,0c-.19.3,0,.61,0,.89.32,0,.31.12.71-.1-1.43,1.26,1.34,1.07.16,2.16,0-.07-.32-.1-.3,0l.45.45c.49-.2.28-.17.63-.4.32,0,.6.05.64.19-.41-.14-.8.26-1,.45.15-.07.33-.08.48-.14-.8.56,1-.27.54.31l-.27.06c.18.1.57.13.54.31-.56.24-.32-.07-.8.07.1.21,1.23.09.72.47-.19,0-.24-.18-.42-.22-.61.43-.43.4-.49.59v0l-.2.47.16-.15c1.6-.18.44.48,1.55.55-1-.08-.56.1-1.23.27-.15.15-.32.35-.51.37.58,0-.33.42.52.43-.21.07,0,.19-.51.31.23.18.35-.16.63-.22.83.14-.64,1.08.5,1.3.54.32,1.28.2,1.75.51a1.09,1.09,0,0,1-.81.11c-.25.31-.15.46.15.6a1.21,1.21,0,0,0-.57.23c.1.15.81-.1.56.21a6.35,6.35,0,0,1-.9.07c.25.14.7.23,1,.38a1.59,1.59,0,0,1-.86,0,1.25,1.25,0,0,0,1.11.42l.17-.21c.05.08-.49.18-.62.15-.51-.07.13-.34.34-.41l.18.11c1.21-.49-.36-.53-.37-.85l.94-.13-.84-.09c.22-.13.71-.32.89-.21.39-.34-.38-.1.07-.42a.21.21,0,0,1,.16,0l-.33-.13c.2,0,.63-.22.54-.05.42-.52-.85-.41-.2-.74l.06,0c-.46-.43-.68.14-1.57,0l1.57-.73-.68.14c0-.06,0-.18.3-.24-.51-.07-.28.12-.74.13.53-.43-.49-.62.55-1-.53.06-.32.36-.75.19,1.12-.41-.29-.26.16-.64.61-.1.36.21.82-.18-1,.16.08-.52-.17-.66-.79.23-.46-.33-.82-.58.27-.06.24-.75.43-1.15l.14,0c-.81.19-.76-.17-1-.35a1.65,1.65,0,0,1,.93-.1l-.07-.22a.69.69,0,0,1-.56-.11l.61-.13c-.13-.28-.89-.36-.61-.85-.56.16-1.45.79-1.94.52a2.35,2.35,0,0,1,1-.23c-.05,0-.29,0-.18-.15h.55c.17-.24-.45,0-.44-.1.43-.14.27-.2.62-.29.05,0-.14.17,0,.17a1,1,0,0,1,.52-.61c-.24.09-.57.19-.66.1-.13-.28.48-.27.64-.51-.32,0-.07-.26-.71,0,0-.08.27-.2.43-.29-.33-.06-.31-.67-.93-.27l0,.05h0c-.79-.27,0-1.13-.42-1.51l.21-.07c-.34-.2-.36-.59-.89-.63,0-.08.32-.34.58-.39-.23-.16-.48-.1-.25-.54.45.09.3-.19.35.13.08-.35.4-.53-.29-.63.58-.09.6-.46.39-.54l-.31.34a.52.52,0,0,1-.14-.42l.74-.18c.65-.9-1.85-.51-.57-1.48-.55,0-.23.44-.86.52,0-.3.91-1,.88-1,.25-.51-1.16,0-1-.44-.23.14-.89.44-1.23.25,0-.3.93-.73,1.2-.64,0,.06,0,.12-.11.15a.4.4,0,0,0,.51-.09L174,77c.21-.23,0-.59.48-.66-.32-.11-.45.07-.52.27.23-.48-.2-.54-.09-1-.12.11-.39.28-.41.22.11-.64-.56,0-.81-.34.31-.35.94-.29.48-.51.17-.32.65-.31.89-.3-.61-.13.08-.72.09-.94l.27.09a.31.31,0,0,1-.22-.22l-.46.3c0-.13,0-.22.22-.3-.37,0-.8.41-1.33.39.2-.23-.43-.29.21-.6-.06.5.65-.32.9,0-.11,0-.14-.12-.09-.25a.24.24,0,0,1,.19,0c.43-.64-.82.12-1-.29.39-.1.67-.38.56-.42.06.17-.59.33-.94.3.18-.38-.33-.2-.36-.35l-.07.21c-.39.1-.4,0-.59-.18.28-.14.27.08.37,0-.74.07.49-.74-.07-.84.2-.24.69-.31.82-.49-.61-.11.37-.56-.17-.72-.46.31-.33.27-.91.25l.58.4-.87,0c.06.17.46.21.42.35-.48,0-.35,0-.73.22.66-.54-.62-.26-.23-.73l1.24-.52c.38-.63-.93-.42-.84-1.06l-.14.26c-.52.14-.2-.28-.47-.36a2.2,2.2,0,0,0,.75-.51c-.3.14-.14-.38-1-.07l.44-.46c0-.51-1.37.06-1.41-.39.5-.08.71-.39,1.14-.27-.05-.13,0-.28-.32-.16.22-.19-.71-.11-.38-.41-.2,0-.64.2-.67,0a.84.84,0,0,1,.2-.09c-.2.09-.38-.1-.77.23,1.09-1-.6-1.07.33-1.92a3.67,3.67,0,0,1-.71-.73c.13,0,.2-.09.18,0,.21-.53-1.27.34-1-.26.56-.52.46,0,.64-.2,1.3-.69-.41-.39.23-1l.11,0c.35-.42-.74-.26-.81-.64a.89.89,0,0,0,.2-.1,2.07,2.07,0,0,1-1.56-.45c.57-.16.35,0,.84-.31-.15-.11-.82.46-1.11.25a3.34,3.34,0,0,1,.92-.87l.17.25c.65-.5-.2-.34-.15-.54l.33-.14c-.31-.36-1.11,0-1.28-.44l-.22.17c-.91.16.34-.43-.37-.37l.76-.48a4.87,4.87,0,0,1-1.35-.37,4.72,4.72,0,0,1,1.6.06.66.66,0,0,0-.77-.39c.11,0,.35,0,.25.13-.73.13-1.16,0-1.31-.29,1.57-.75,0-1,1-1.88-.58-.17-.54-.66-.58-1.15l.5-.29c.45-.32-1.32-1.65-.15-1.49l.42.65c.08-1.43,1.55-1.61,1.75-2.91.08.17.24.32.17.4.55.22.6-.58.29-.9.15-.09.32.25.55.34.39.06-.1-.9.37-.6.08,0,.08.17.08.23-.09-.29.53-.45,0-.79.49-.08.34-.75.83-.71-.35-.64.73-.25.07-1,.7.75,1.08.09.93-.43.16.28.38.07.61.45.2-.21.25-.54-.15-.88,1.24.51.09-1.46,1.4-.54a9.26,9.26,0,0,1,1-2.53c.68.76-.56.67.21,1.42.25-.81,0-1.74.66-2.07.23,0,.22.4.3.57.25-.82,1.11-.9,1.22-1.76a.5.5,0,0,1,.08.3c.07-.11.32-.09,0-.43v.18c-.61-.36-.57-1.39-.79-1.67.73,1.14.71-.19,1.58,1.29a.85.85,0,0,0-.29-.58c.15,0,.31.09.45.44.17-.5-.28-.75,0-1,.15.17.14.29.29.52-.13-.47-.27-.94.12-1,.07.12.22.22.14.29.41-.46,0-1.57.79-1.7.5.87.39.09,1,.71l.11-.43-.38-.21c.25-.2.05-.85.44-.82l.05.42.34-.51-.46,0c0-.54-.73-.79-.25-.89,0,.12.25-.2.7.07h0c-.06-.31-.12-.63.2-.62.22.17.57.74.72.86-.34-.64.44-.63.1-1.33a2.1,2.1,0,0,0,.42.58l-.27-.52c.23,0,.3.1.52.39.4-.2-.8-.73-.1-.72,0,.06.07.12.06.24.55-.16.55-.93,1.1-1,.65.57-.19.43.39.88.44-.56.46-1.71,1.11-2h-.16c-.69-1,.77.15.67-.51a1.28,1.28,0,0,0,.27.47c.48-.14.55-.83.86-1.56l.12.3c.39,0,.66-.32,1-.39-.12-.3,0-.36-.32-.65,1.79.83.79-1.81,2.33-1.14-.07.06,0,.35,0,.31l.37-.64c-.36-.38-.26-.2-.63-.44-.12-.3-.11-.61,0-.71,0,.47.51.67.79.82-.11-.11-.19-.28-.29-.41.85.53-.59-.88.18-.67l.14.24c.06-.22,0-.62.19-.67.43.44,0,.34.3.75.2-.19-.25-1.25.31-.92,0,.21-.13.31-.12.52.65.41.56.24.79.21h0l.57,0-.21-.08c-.66-1.48.4-.65.16-1.76.21,1.06.27.5.65,1.08.21.08.48.15.55.34-.15-.58.55.14.33-.7.14.17.2-.12.49.36.13-.31-.28-.27-.42-.51-.08-.87,1.38.14,1.29-1.07.2-.67-.15-1.34.06-1.93.35.19.35.74.35.74.42.11.55-.06.62-.42a1,1,0,0,0,.41.45c.14-.17-.35-.74.07-.63a5.4,5.4,0,0,1,.34.85c.09-.31,0-.79.15-1.1.28.28.21.57.28.83a1.31,1.31,0,0,0,.14-1.26Zm-45.53,9.07c.13,0,.05.13,0,.22a.6.6,0,0,0-.17-.09l-.07,0A2.43,2.43,0,0,1,150.84,33.09Zm-3.14,3.23-.12-.1.13.09Zm.39.48a.77.77,0,0,0-.14-.23c.16-.15.36-.27.39-.21C148.2,36.42,148.19,36.62,148.09,36.8ZM137.81,80.3c0-.15.12-.12.24-.06a.81.81,0,0,0,0,.22l.06.05A2,2,0,0,1,137.81,80.3Zm4.14,1.85L142,82h0Zm.26-.55c-.2-.1-.38-.24-.33-.3.1.11.3,0,.52,0A1.12,1.12,0,0,0,142.2,81.59Z"/><path class="cls-2" d="M138.4,80.93s0,0,0,.07l.16,0-.15-.14Z"/><path class="cls-2" d="M184.72,30.72l.08.05-.06,0Z"/><polygon class="cls-2" points="149.18 73.53 149.04 73.44 149.12 73.57 149.18 73.53"/><path class="cls-2" d="M190.86,29l.34,0A1,1,0,0,0,190.86,29Z"/><path class="cls-2" d="M192.14,28.41a2.68,2.68,0,0,0-.14-.24h0Z"/><path class="cls-2" d="M175.89,42.71a.1.1,0,0,0,0,.06C175.87,42.94,175.9,42.85,175.89,42.71Z"/><path class="cls-2" d="M179.73,37.31a1.69,1.69,0,0,1,0,.36C179.89,37.64,180,37.59,179.73,37.31Z"/><path class="cls-2" d="M171.23,48.2h0l0,0Z"/><path class="cls-2" d="M179.54,37.87c.17,0,.22-.06.23-.19C179.67,37.71,179.54,37.73,179.54,37.87Z"/><path class="cls-2" d="M197.19,25.21l-.05-.09,0,.1Z"/><path class="cls-2" d="M197.14,25.12l0-.1S197.11,25.06,197.14,25.12Z"/><path class="cls-2" d="M197.2,24.8l0,.22S197.27,25,197.2,24.8Z"/><path class="cls-2" d="M195.07,26.38c.14,0,.55.22.62,0l-.09-.16C195.72,26.54,194.94,26,195.07,26.38Z"/><path class="cls-2" d="M191.53,25.39l.49-.12c-.21-.15-.49-.36-.35-.53C190.75,24.49,192.08,25.12,191.53,25.39Z"/><path class="cls-2" d="M190.15,26c.13-.24-.21-.29-.29-.41C189.87,25.83,189.87,25.9,190.15,26Z"/><path class="cls-2" d="M181.87,32.37l-.35-.47C181.43,32.09,181.67,32.08,181.87,32.37Z"/><polygon class="cls-2" points="182.25 35.95 182.63 36.1 182.35 35.64 182.25 35.95"/><polygon class="cls-2" points="178.71 33.41 178.59 33.79 178.69 33.53 178.71 33.41"/><path class="cls-2" d="M165.84,45.65l.55.46C166.39,45.93,165.84,45.35,165.84,45.65Z"/><polygon class="cls-2" points="145.59 68.63 145.7 68.54 145.59 68.28 145.59 68.63"/><path class="cls-2" d="M176.81,96.68c.2,0,.62-.14.51-.24l-.75.11Z"/><path class="cls-2" d="M176.26,95.79c.73-.05.45.06,1.32,0,.12.09-.18.26-.45.31.2,0-.11.22.36.16.52-.3.49-.5,0-.57a1.54,1.54,0,0,1,.49-.12A3.59,3.59,0,0,0,176.26,95.79Z"/><path class="cls-2" d="M173.62,77s.11,0,.18,0S173.68,77,173.62,77Z"/><path class="cls-2" d="M173.94,75.54a.59.59,0,0,0,0,.09C174,75.57,174,75.53,173.94,75.54Z"/><path class="cls-2" d="M175.85,83.74c-.24.07-.14.15-.16.26Z"/><path class="cls-2" d="M175.78,94.48a.48.48,0,0,0,.22,0l-.1-.07Z"/><path class="cls-2" d="M177.27,86.86l0,.06.31,0Z"/><path class="cls-2" d="M177.23,89.36a.84.84,0,0,1,.45,0l.43-.15A3.71,3.71,0,0,0,177.23,89.36Z"/><path class="cls-2" d="M139.61,28.28l.09-.07C139.64,28.23,139.6,28.26,139.61,28.28Z"/><path class="cls-2" d="M140.14,24.08h.05l.27-.23Z"/><path class="cls-2" d="M173.85,73.1h0C173.94,73.14,173.91,73.12,173.85,73.1Z"/><path class="cls-2" d="M171.21,68.53a1.06,1.06,0,0,0,.23-.16A1.6,1.6,0,0,0,171.21,68.53Z"/><path class="cls-2" d="M169.79,66.87c0-.07.1-.12,0-.15l-.06.05C169.81,66.76,169.86,66.77,169.79,66.87Z"/><path class="cls-2" d="M168.9,64.94l-.1.09.06,0Z"/><path class="cls-2" d="M143.84,32.91a4.42,4.42,0,0,1,.39-.43C143.9,32.79,143.58,32.65,143.84,32.91Z"/><path class="cls-2" d="M175.85,94.4l.05.06a.88.88,0,0,0,.23-.07A.52.52,0,0,1,175.85,94.4Z"/><path class="cls-2" d="M165.17,68.86l-.05-.34A.59.59,0,0,0,165.17,68.86Z"/><path class="cls-2" d="M152.62,44.85l-.11,0S152.55,44.87,152.62,44.85Z"/><path class="cls-2" d="M164.63,67.68a1.25,1.25,0,0,0,.32-.35l-.17,0Z"/><path class="cls-2" d="M150.07,33.45s0,0-.06,0l-.08.13.18-.09Z"/><path class="cls-2" d="M175.63,84.1l-.08.06.07,0Z"/><polygon class="cls-2" points="151.98 44.45 152.11 44.36 151.97 44.4 151.98 44.45"/><path class="cls-2" d="M174.9,89.51l-.16.27A.85.85,0,0,0,174.9,89.51Z"/><path class="cls-2" d="M174.93,90.68l.27-.06h0Z"/><path class="cls-2" d="M168.23,74l0,0C168,74,168.11,74,168.23,74Z"/><path class="cls-2" d="M171.58,78.47a1.68,1.68,0,0,1-.34-.05C171.23,78.52,171.24,78.59,171.58,78.47Z"/><path class="cls-2" d="M165.18,68.9h0l0,0Z"/><path class="cls-2" d="M171.16,78.17c-.08.13,0,.2.08.24S171.28,78.21,171.16,78.17Z"/><path class="cls-2" d="M176,95.53l.1,0-.09,0Z"/><path class="cls-2" d="M176.08,95.5l.09,0S176.15,95.49,176.08,95.5Z"/><path class="cls-2" d="M176.17,95.54s0,.1.19.08Z"/><path class="cls-2" d="M175.69,93.53c0,.12-.4.4-.22.5l.18,0C175.3,94,176.1,93.52,175.69,93.53Z"/><path class="cls-2" d="M177.91,90.9l-.07.42c.22-.13.51-.31.62-.16C179,90.49,178,91.41,177.91,90.9Z"/><path class="cls-2" d="M178.39,89.51c-.25-.06-.32-.08-.48.13C178.08,89.81,178.26,89.54,178.39,89.51Z"/><path class="cls-2" d="M175.22,81.39l.55-.17C175.65,81.09,175.56,81.29,175.22,81.39Z"/><polygon class="cls-2" points="171.84 80.85 171.55 81.12 172.08 81.01 171.84 80.85"/><polygon class="cls-2" points="175.39 78.51 175.49 78.55 175.2 78.37 175.39 78.51"/><path class="cls-2" d="M168.95,65.39c.16,0,.9-.27.63-.34Z"/><path class="cls-2" d="M166.2,59.26c0,.15-.16.4,0,.42C166.44,59.46,166.57,59.2,166.2,59.26Z"/><polygon class="cls-2" points="157.95 42.65 157.66 42.56 157.69 42.67 157.95 42.65"/><path class="cls-1" d="M49.33,69.92c-9.6,0-17.42-10.21-17.42-22.75V40.51a2.75,2.75,0,0,1,2.42-2.73c1-.12,3.41-.41,4.28-5.71a2.75,2.75,0,0,1,2.66-2.3A2.78,2.78,0,0,1,44,32c1,5.07,1.77,5.79,4,5.79H64a2.75,2.75,0,0,1,2.75,2.75v6.67C66.75,59.72,58.94,69.92,49.33,69.92ZM37.42,42.65v4.52c0,9.51,5.34,17.25,11.92,17.25s11.92-7.74,11.92-17.25V43.26H48A7.86,7.86,0,0,1,41.15,40,9,9,0,0,1,37.42,42.65Z"/><path class="cls-1" d="M69.8,84.6,65.19,74.23a2.75,2.75,0,0,0-4.86-.31l-11,18.14-11-18.14a2.75,2.75,0,0,0-4.86.31L28.87,84.6a2.75,2.75,0,0,0,1,3.44l3.62,2.28a2.75,2.75,0,1,0,2.93-4.65l-1.61-1,1.5-3.39,9.75,16.09-.55.9A2.74,2.74,0,0,0,49.33,102a2.74,2.74,0,0,0,3.76-3.77l-.55-.9L62.3,81.28l1.55,3.48-1.42,1a2.75,2.75,0,1,0,3.14,4.52L68.86,88A2.75,2.75,0,0,0,69.8,84.6Z"/><path class="cls-1" d="M71.4,78.35a2.76,2.76,0,0,1-.64-.08,58.81,58.81,0,0,0-12.6-1.68,2.75,2.75,0,0,1-2.75-2.75V69.42a15,15,0,0,1-12.16,0v4.43a2.75,2.75,0,0,1-2.75,2.75,58.81,58.81,0,0,0-12.6,1.68,2.75,2.75,0,0,1-3.39-2.67V37.07a24.82,24.82,0,0,1,49.64,0V75.6a2.75,2.75,0,0,1-2.75,2.75ZM49.33,17.75A19.34,19.34,0,0,0,30,37.07V72.2a66.18,66.18,0,0,1,7.74-1V64.38a2.75,2.75,0,0,1,4.58-2.05,10.53,10.53,0,0,0,7,2.89,10.54,10.54,0,0,0,7-2.89,2.75,2.75,0,0,1,4.58,2.05V71.2a66.14,66.14,0,0,1,7.74,1V37.07A19.34,19.34,0,0,0,49.33,17.75Z"/><path class="cls-1" d="M86.13,80h0q-2-1.14-3.89-2.18a54.59,54.59,0,0,0-22.16-6.5V64.38a2.75,2.75,0,0,0-4.68-2,8.89,8.89,0,0,1-6.07,2.8,8.89,8.89,0,0,1-6.07-2.8,2.75,2.75,0,0,0-4.68,2v6.86a55.62,55.62,0,0,0-22.16,6.54q-1.92,1-3.89,2.19a9.58,9.58,0,0,0-4.62,8.32v12.05a2.75,2.75,0,0,0,2.75,2.75H88a2.75,2.75,0,0,0,2.75-2.75V88.28A9.59,9.59,0,0,0,86.13,80Zm-.88,17.62H75.08V94.45a2.75,2.75,0,0,0-5.5,0v3.13H29.08V94.45a2.75,2.75,0,0,0-5.5,0v3.13H13.42v-9.3a4.13,4.13,0,0,1,1.88-3.57q1.89-1.1,3.74-2.1a49.92,49.92,0,0,1,22.36-6,2.75,2.75,0,0,0,2.68-2.75V69.59a12.87,12.87,0,0,0,10.5,0v4.3a2.75,2.75,0,0,0,2.68,2.75,49.2,49.2,0,0,1,22.36,6q1.85,1,3.74,2.1h0a4.13,4.13,0,0,1,1.88,3.57Z"/><path class="cls-2" d="M84.59,24.82l.34.68.07-.29C84.93,25,84.66,24.67,84.59,24.82Z"/><path class="cls-2" d="M83.69,25a1.28,1.28,0,0,1-.27-.42,3,3,0,0,0,.75,1.54c-.27-.69-.07-.46-.4-1.28.07-.15.34.06.48.3-.07-.19.28,0,.08-.42C83.84,24.37,83.63,24.49,83.69,25Z"/><path class="cls-2" d="M64.32,37.32a.16.16,0,0,0,0-.19C64.28,37.21,64.27,37.28,64.32,37.32Z"/><path class="cls-2" d="M62.64,37.68l.1,0C62.67,37.63,62.62,37.62,62.64,37.68Z"/><path class="cls-2" d="M71.35,32,71,32C71.16,32.19,71.23,32.06,71.35,32Z"/><path class="cls-2" d="M82.86,27.19a.47.47,0,0,0,0-.23.65.65,0,0,1-.05.13Z"/><path class="cls-2" d="M74,29.17l.06,0L74,28.85Z"/><path class="cls-2" d="M76.79,28.08c-.13-.23-.16-.36-.14-.44a3.5,3.5,0,0,0-.29-.35C76.28,27.31,76.64,27.84,76.79,28.08Z"/><path class="cls-2" d="M22.81,95.7s.09.07.1.05Z"/><path class="cls-2" d="M18.51,97.26v-.06L18.19,97Z"/><path class="cls-2" d="M60,38.91h0C60.06,38.8,60,38.84,60,38.91Z"/><path class="cls-2" d="M42.63,57.39c.62.15.25.83,1,.92C43.42,58.18,43.14,57.36,42.63,57.39Z"/><path class="cls-2" d="M55.87,43.69a.9.9,0,0,0-.24-.16A1.36,1.36,0,0,0,55.87,43.69Z"/><path class="cls-2" d="M54.49,45.89c-.08,0-.16,0-.16.08l.07,0C54.37,45.93,54.37,45.87,54.49,45.89Z"/><path class="cls-2" d="M52.69,47.7l.12.06,0-.08Z"/><path class="cls-2" d="M26.4,89a3.72,3.72,0,0,1-.55-.19C26.26,89,26.21,89.42,26.4,89Z"/><path class="cls-2" d="M82.75,27.17l0-.08a.73.73,0,0,0-.14-.19C82.73,27,82.76,27.12,82.75,27.17Z"/><path class="cls-2" d="M58,49.55l-.35.21A.83.83,0,0,0,58,49.55Z"/><path class="cls-2" d="M36.17,74v.12S36.21,74.06,36.17,74Z"/><path class="cls-2" d="M56.84,50.66a1.16,1.16,0,0,0-.47-.15.83.83,0,0,0,.08.15Z"/><path class="cls-2" d="M83.14,25.35c.07-.08.34.4.34.54.07.53-.41,0-.55-.15l.07-.22c-.89-1-.49.59-.83.74l-.41-.86.14.86c-.21-.16-.55-.56-.49-.78-.49-.23,0,.41-.48.11a.18.18,0,0,1-.09-.14l-.05.38c-.07-.19-.42-.52-.21-.5-.7-.18-.21,1-.76.53v-.07c-.34.64.35.6.43,1.55L79,26.14l.35.6c-.07,0-.21.05-.35-.19.08.53.21.22.35.67-.63-.33-.54.75-1.25-.1.22.49.49.15.43.65-.78-.9-.2.4-.76.13-.29-.55.13-.45-.43-.72.47.94-.6.15-.68.46.48.67-.23.59-.4,1.07-.14-.24-.9.11-1.39.1l-.07-.12c.44.71,0,.82-.1,1.14a1.43,1.43,0,0,1-.38-.87l-.22.17a.67.67,0,0,1,0,.6l-.32-.54c-.27.25-.14,1-.76,1,.34.48,1.28,1.06,1.13,1.66-.21-.24-.55-.65-.53-.83,0,.06,0,.3-.11.24l-.17-.54c-.31-.05.18.42,0,.48-.27-.36-.3-.18-.49-.47,0-.06.23.06.18-.12a1,1,0,0,1-.82-.24c.17.19.37.48.3.61-.27.25-.43-.35-.74-.4.12.3-.26.19.15.72-.09.06-.29-.17-.44-.29,0,.35-.64.61,0,1h.07s0,0,0,0c-.07.9-1.24.5-1.54,1.11L69.89,33c-.12.43-.54.63-.44,1.17-.08.07-.46-.16-.59-.39-.11.31,0,.52-.52.49,0-.48-.29-.21,0-.4-.4.08-.7-.14-.61.58-.26-.53-.67-.38-.7-.14l.46.15a.75.75,0,0,1-.42.33l-.41-.64c-1.17-.23,0,2.06-1.45,1.25.19.53.55,0,.81.61-.33.14-1.3-.45-1.39-.38-.63,0,.38,1.12-.18,1.23.22.16.74.67.63,1.1-.32.15-1.06-.58-1-.88,0-.07.13,0,.19,0a.36.36,0,0,0-.24-.46l.14.23c-.31-.1-.65.24-.85-.17,0,.36.21.41.44.39-.59,0-.53.44-1,.54.15.06.41.26.36.3-.72.19.11.57-.14,1-.46-.14-.58-.8-.69-.24-.39,0-.52-.5-.58-.73,0,.66-.8.26-1,.35l0-.31a.41.41,0,0,1-.18.32l.45.32c-.16,0-.24.09-.39-.08.14.35.67.6.8,1.13-.31-.09-.19.56-.71.07.56-.18-.53-.49-.26-.88,0,.12-.09.19-.25.21a.21.21,0,0,1-.09-.18c-.81-.13.37.76,0,1.1-.22-.34-.61-.48-.61-.36.16-.14.53.43.59.79-.46,0-.12.42-.27.52l.25,0c.22.34.06.42,0,.67-.23-.22,0-.3-.14-.35.29.7-.94-.14-.88.46-.31-.08-.53-.54-.76-.58.06.67-.7-.1-.72.52.46.31.39.2.53.79l.26-.77.21.89c.16-.14.1-.56.25-.58.14.47.07.36.45.62-.77-.39-.1.74-.72.57l-.91-1c-.78-.08-.19,1.12-.9,1.33l.32,0c.3.45-.24.34-.25.64a1.88,1.88,0,0,0-.76-.5c.24.23-.37.32.21,1l-.62-.22c-.55.2.45,1.34,0,1.59-.23-.46-.62-.52-.62-1-.13.12-.3.17-.08.39-.27-.13.09.77-.33.57.09.19.4.54.24.65a.7.7,0,0,1-.15-.16c.15.16,0,.43.47.66-1.36-.62-1,1.11-2.15.59a4.75,4.75,0,0,1-.58,1.07c-.08-.11-.16-.16-.08-.17-.62,0,.72,1.11,0,1.16-.71-.31-.08-.48-.4-.55-1.11-1-.3.6-1.17.26v-.12c-.55-.15-.06.87-.45,1.12a.74.74,0,0,0-.16-.16,2.33,2.33,0,0,1,0,1.79c-.33-.49-.09-.35-.57-.69-.07.2.72.6.58,1A3,3,0,0,1,48.78,52l.22-.29c-.42-.25-.45-.07-.45.12a.41.41,0,0,1,0-.33l.32-.13c-.15-.05-.66.14-.44-.16.12-.06.32-.13.31-.19s-.68,0-.59-.21l.4-.08c.06-.77-1.29-.36-1.76-.69a1.52,1.52,0,0,0,.88-1.4l.13-.07c-.28-.69-1.36-.64-2.05-1,.71-.94-.38-1.45-.23-2.35a1.17,1.17,0,0,1-.81.36c.08-.24-.82,0,0-.47l0,.06c.69-.59.31-.74.19-1l-1,.62c1.1-1.52-1.5-1.1-.4-2.27-.34,0-.45-.14-.78-.1l.54-.35A1.6,1.6,0,0,0,42.61,41l.44-.17c-.15-.28-1.76.72-1.95.51l.74-.61c-.32-.44.05-1.37-1-1.32.12-.07.36-.22.44-.17-.13-.22,0-1.19-1.06-.35.7-.5-.26-.5-.74-.52l.54-.33c-.8.27-1,.39-1.37.24,0-.11.37-.35.3-.17.11-.41-.61.18-.53-.29l.4-.14c-.12-.26-.29-.11-.76,0-.31,0-.18-.52.26-.9-.3.18-.77.33-.74.1A.75.75,0,0,1,38,36.7c.07-.63-1-.12-.7-.75a1.1,1.1,0,0,0,.27-.27c.21.31.36.57.31.57.47-.35.37-.65,1.16-.94-.5.07-1.51.3-1.47-.09l.14-.15h.07c0-.09-.07-.11-.19-.09s0-.22,0-.3c.36-.32,0-.43-.07-.57-.5.4-.54.18-.85.64,0,0,.08,0,.16,0a.15.15,0,0,0,.09,0l-.05,0a3.38,3.38,0,0,1,.26.27c-.33.1-.62.17-.44-.18l-.95.45c.59-.7.73-1.31,1.13-1.68-.57-.15-.85-.71-2-.21-.2,0,.18-.33.3-.48s.18.07.34,0c-.4,0-.57-.54-1.26-.07.1-.49.72-.33.34-.6l.24-.11c.49-1.53-2.57.21-1.84-1.63a.54.54,0,0,1-.16.28c-.12-1.35-2-1.32-1.79-2.94,0-.4-.45-.08-.88,0l.48-.5-.81.26c-.74,0,.76-1.71-.46-1.44l-.3.36c-.07-.22-.65-.32-.22-.64-.08,0-.41.26-.28,0l.27-.24-.8,0c-.07-.47,1.11-.89.77-1.38a2.08,2.08,0,0,0-1.32.45c0,.08,0,.32-.28.56l-.27,0c-.81.68-1.72,1.28-2,2.13l.7-.18-.31.42-.21-.19c-.26.44.13.23.42.12a1.39,1.39,0,0,0-.33.48l1-.42c-.28.3-.71.43-.74.75.45-.19.6-.72,1-.73-.26.44-.58.66-.15.53a.89.89,0,0,1-.48.31c.36-.09.39.24.88-.06-.34.51.48.33-.29,1,.22-.12.79-.29.92-.2-1.09.57.32.48-.71,1.26,1-.54.85.26,1.54.15-.08,0-.24.12-.22.06.06.22-.15.47-.22.7.7-.55,1.06-.43,1.59-.65-.5.74-.9.55-1.48,1.14.55-.47.83-.12,1.24-.57a2.43,2.43,0,0,1-.6.84c.88-.68.26,0,.89-.29-.25.56-.76.72-.3.74a.88.88,0,0,1-.65.37c.18.25.73-.41,1.14-.66.42.14-.37.52-.62.89.32,0,1-.3,1.11-.15a.82.82,0,0,1-.28.23c.67-.23.48.55,1.32.25a1.07,1.07,0,0,1-.14.16,8.53,8.53,0,0,1,.87-.75c.1.1.58-.12.18.26,0-.08-.22.05-.38.13l.28,0c-.53.59-.34,0-.8.37.38.06,1.1-.08,1.07.23-.58.51-.53-.24-.88.41l0-.45c-.79,1-.06-.21-.93.78.1.49.62.14.72.64.4-.18.48-.42.88-.6,1,0-1.22,1.59-.13,1.32.48-.22,1.28-.78,1.08-.2l-.76.44c.2.39,1.15-.57,1,.15-.32.14-.44-.09-.48,0-.37.65.52-.14.66,0l-.59.51c.37.29,1.12.37,1.54.69-.2.11-.45.19-.56.43.69.29.75,1.15.74,1.93l.68-.2s-.18.26-.32.29c-.06.34.35-.24.63-.3.12.08-.2.37-.42.42.71,0,1.7.28,1.38,1.06l-.21,0c0,.44,1.35-.47,1,.16l-.13,0c.2.79,1.18,1.14.68,2.19.86-.45.07.86,1.21.15-.31.73-.58.77-.61,1.52,0,.17.83-.26,1.06-.17l-.58.39.76-.18-.62.58.25.06c0-.09.17-.31.35-.41.43.07,0,.87-.3,1.07l.88.26a1.11,1.11,0,0,1-.59.11c.8-.08-.58.46.15.39a1.92,1.92,0,0,1,.49-.28.54.54,0,0,0,.25.85l-.44.21c.18.5.78.79,1.09,1.29.08-.29.81-.7,1-.6l-.59.45c.45-.15.14-.3.74-.4,0,.23-.64.57-.91.59l.36.09a5.06,5.06,0,0,1-.56.27c.45-.15-.39.78.37.49l-.18.13c.3.5.65.59.93,1,.55-.32.53-.09,1-.24,0,.4-.22,1,0,1.33.42.09.51-.2.9-.28-.49.32-.23.65-.7.68a2.32,2.32,0,0,0,1.16.81c.17-.18.22-.3.41-.36s-.08.35-.33.48h-.07c.64.1.35.82.22,1.4a1.28,1.28,0,0,1-.34-.13c0,1-1.21.94-1.71,1.68,1.22.65-.14.22.95,1.09-.06.21-.13.26-.21.21h0l-1-.07c-.4-.15-.11-.35-.35-.54-.37.27-.57-.24-1-.25.42.28.44.58.13.66l.72.14c.16,1-1.24-.34-1.1.62l-.2-.44c0,.42-.79.92-.14,1.87-.16-.06-.5-.24-.49-.42C39.51,60.39,40,62,39,62l-.23-.26c0,.17.34.6,0,.52-.1-.1-.23-.26-.28-.22s.22.67-.06.7l-.19-.37c-.83.31,0,1.49-.22,2.13a1.5,1.5,0,0,0-1.72-.22l-.1-.1c-.64.62-.28,1.7-.47,2.58-1.17-.26-1.4,1.1-2.37,1.39.22,0,.61.48.61.66-.28,0,.24.84-.48.27l.06,0c-.81-.42-.85,0-1.06.27l.94.75c-1.88-.38-.71,2.08-2.24,1.52.13.33,0,.53.12.86l-.52-.38a2.21,2.21,0,0,0-.93,1.15l-.3-.38c-.25.29,1.25,1.45,1.08,1.76l-.85-.46c-.36.55-1.43.62-1.08,1.64-.11-.09-.33-.26-.3-.37-.2.24-1.21.62-.05,1.27-.72-.47-.44.52-.32,1l-.5-.4c.51.7.69.83.64,1.3-.12,0-.47-.21-.26-.23-.46.09.36.54-.14.69l-.26-.35c-.23.25,0,.35.26.76.09.31-.49.44-1,.18.27.23.56.64.31.72a.64.64,0,0,1-.3-.3c-.67.24.17,1.1-.56,1.09a.94.94,0,0,0-.35-.15c.26-.37.48-.66.5-.6-.49-.32-.77-.07-1.29-.75.21.49.75,1.42.33,1.57l-.2-.07,0-.07c-.09,0-.09.13,0,.24-.14,0-.24.07-.31.15-.43-.22-.44.21-.56.35.55.33.33.47.9.57-.05,0,0-.07,0-.18a.17.17,0,0,0,0-.1l0,0c0-.11.12-.25.21-.4.2.29.35.56-.06.54.3.3.6.61.74.76-.89-.27-1.54-.11-2-.35,0,.66-.48,1.23.36,2.16,0,.21-.39,0-.58-.07s0-.22-.1-.35c.1.43-.39.85.29,1.35-.53.14-.55-.59-.71-.05l-.18-.2c-1.7.24,1,2.58-1.13,2.72a.5.5,0,0,1,.33,0c-1.33.79-.77,2.75-2.46,3.32-.39.21.05.51.3.91l-.64-.26L20,93c.24.77-1.95,0-1.32,1.19l.45.14c-.2.18-.14.84-.59.55.06.06.38.3.13.27L18.34,95l.25.84c-.46.3-1.22-.74-1.62-.14,0,.3.57,1.15.83,1.17.07-.09.33-.13.65,0l.05.3c.92.53,1.79,1.19,2.72,1l-.38-.66.51.13-.13.31c.52.06.2-.25,0-.51a1.2,1.2,0,0,0,.58.12l-.7-.82c.39.15.64.54,1,.42-.33-.38-.9-.28-1-.7.51.06.83.29.58-.1a.76.76,0,0,1,.45.36c-.19-.33.13-.54-.32-.89.61.1.19-.67,1.06-.18-.18-.17-.52-.69-.46-.87.89.87.4-.57,1.48.13-.82-.74,0-1-.29-1.7.06.06.19.19.12.2.2-.18.52-.08.77-.12-.76-.46-.74-.9-1.12-1.36.9.16.82.68,1.58,1-.63-.34-.36-.82-.94-1a2.12,2.12,0,0,1,1,.21c-.95-.59-.06-.28-.55-.79.64,0,.95.44.84,0,.38,0,.56.5.56.5.2-.32-.62-.56-1-.87,0-.51.64.13,1.09.21-.05-.36-.61-.93-.47-1.09a.69.69,0,0,1,.32.18c-.42-.59.42-.78-.12-1.5l.2.07a7.06,7.06,0,0,1-1-.54c.07-.15-.29-.54.21-.32-.07.08.12.2.24.33L25.16,88c.76.27.11.35.61.65,0-.43-.39-1.11-.07-1.23.69.35-.1.67.67.72l-.46.2c1.2.35-.2.17,1.06.59.47-.35,0-.72.44-1.07-.3-.33-.56-.29-.87-.62-.25-1.06,2,.5,1.39-.52-.36-.39-1.16-1-.51-1l.67.57c.35-.4-.91-.91-.12-1.07.24.26,0,.5.16.49.77.06-.29-.48-.14-.71l.68.36c.18-.54.05-1.35.27-1.95.18.15.32.37.6.38.1-.86,1-1.35,1.77-1.73l-.4-.6c0-.05.32.06.39.19.37-.1-.35-.24-.49-.51.05-.16.44,0,.55.23-.19-.74-.2-1.9.7-2l.11.2c.46-.2-.87-1.16-.13-1.14l.05.13c.76-.59.84-1.78,2.07-1.78-.71-.66.87-.5-.19-1.32.85,0,1,.22,1.75-.13.17-.12-.51-.72-.48-1l.57.4-.4-.7.78.35v-.29a.67.67,0,0,1-.52-.16c0-.48.9-.42,1.2-.22l0-1c.21.18.21.35.29.55-.31-.79.64.37.36-.35-.16-.05-.32-.27-.43-.36a.72.72,0,0,0,.81-.67l.35.34c.47-.43.61-1.19,1-1.75-.33.07-1-.49-.9-.7l.64.38c-.28-.38-.35,0-.63-.55.23-.16.77.37.88.64v-.41c.19.12.23.25.45.44-.29-.39.93,0,.41-.62l.19.12a13.31,13.31,0,0,0,.75-1.43c-.5-.4-.25-.49-.55-.95.42-.21,1.1-.26,1.37-.7,0-.47-.36-.42-.55-.78.47.34.75-.08.91.38a3.11,3.11,0,0,0,.52-1.57c-.24-.09-.38-.08-.5-.24s.39-.09.59.1l0,.07c-.12-1.23,2.56-.47,2.08-1.77l0,.07,0-1c.29-.19.21.43.64.48-.24-1.22.89-.84.81-1.74.84.39,1.09,0,1.31-.44.67.88.4,2.32.6,3.44.11.45,2-.71,1.38.23l-.74.19c1.22.4.79,1.68,1.86,2.14-.18,0-.38.12-.42,0-.41.41.28.64.68.45,0,.15-.35.2-.52.38s.83.13.39.45a.3.3,0,0,1-.24,0c.29,0,.19.54.7.17-.13.43.52.46.3.86.71-.14-.07.66.86.3-.94.41-.51.88,0,.87-.31.06-.22.3-.64.4.11.21.37.34.84.08-.94.91,1.27.41-.07,1.28A7.32,7.32,0,0,1,54.59,73c-1,.38-.38-.62-1.35-.16.63.39,1.58.37,1.59,1-.07.2-.44.09-.63.11.63.4.37,1.13,1.09,1.41a.55.55,0,0,1-.3,0c.07.09,0,.29.38.1l-.16,0c.56-.42,1.47-.14,1.81-.26-1.3.33-.11.63-1.78,1a1,1,0,0,0,.63-.1c0,.13-.2.23-.57.26.38.26.79-.05.91.28a4.28,4.28,0,0,1-.58.12c.47,0,.95,0,.88.35-.13,0-.28.13-.31,0,.25.44,1.41.37,1.22,1-1,.2-.23.29-1,.63l.34.19.34-.26c.08.25.74.24.56.55l-.4-.06.33.4.2-.37c.5.09,1-.41.9,0-.11,0,.08.25-.34.56h0c.3,0,.61.05.48.31s-.89.29-1,.38c.71-.13.4.51,1.16.4a2.52,2.52,0,0,0-.68.21l.58-.1c-.13.18-.21.23-.55.33,0,.38,1-.48.69.09-.06,0-.13,0-.24,0-.08.49.63.67.5,1.14-.76.4-.32-.26-.95.11.34.49,1.37.78,1.36,1.38l.05-.13c1.16-.32-.43.59.2.67a1.52,1.52,0,0,0-.53.11c-.06.42.54.64,1.08,1.07l-.32,0c-.19.3,0,.61,0,.89.32,0,.31.12.71-.1-1.43,1.26,1.34,1.07.16,2.16,0-.07-.32-.1-.3,0l.45.45c.49-.2.28-.17.63-.4.32,0,.6.05.64.19-.41-.14-.8.26-1,.45.15-.07.33-.08.48-.14-.8.56,1-.27.54.31l-.27.06c.18.1.57.13.54.31-.56.24-.32-.07-.8.07.1.21,1.23.09.72.47-.19,0-.24-.18-.42-.22-.61.43-.43.4-.49.59v0l-.2.47.16-.15c1.6-.18.44.48,1.55.55-1-.08-.56.1-1.23.27-.15.15-.32.35-.51.37.58,0-.33.42.52.43-.21.07,0,.19-.51.31.23.18.35-.16.63-.22.83.14-.64,1.08.5,1.3.54.32,1.28.2,1.75.51a1.09,1.09,0,0,1-.81.11c-.25.31-.15.46.15.6a1.21,1.21,0,0,0-.57.23c.1.15.81-.1.56.21a6.35,6.35,0,0,1-.9.07c.25.14.7.23,1,.38a1.59,1.59,0,0,1-.86,0,1.25,1.25,0,0,0,1.11.42l.17-.21c.05.08-.49.18-.62.15-.51-.07.13-.34.34-.41l.18.11c1.21-.49-.36-.53-.37-.85l.94-.13-.84-.09c.22-.13.71-.32.89-.21.39-.34-.38-.1.07-.42a.21.21,0,0,1,.16,0l-.33-.13c.2,0,.63-.22.54-.05.42-.52-.85-.41-.2-.74l.06,0c-.46-.43-.68.14-1.57,0L65,92.92l-.68.14c0-.06,0-.18.3-.24-.51-.07-.28.12-.74.13.53-.43-.49-.62.55-1-.53.06-.32.36-.75.19,1.12-.41-.29-.26.16-.64.61-.1.36.21.82-.18-1,.16.08-.52-.17-.66-.79.23-.46-.33-.82-.58.27-.06.24-.75.43-1.15l.14,0c-.81.19-.76-.17-1-.35a1.65,1.65,0,0,1,.93-.1l-.07-.22a.69.69,0,0,1-.56-.11L64.1,88c-.13-.28-.89-.36-.61-.85-.56.16-1.45.79-1.94.52a2.35,2.35,0,0,1,1-.23c-.05,0-.29,0-.18-.15h.55c.17-.24-.45,0-.44-.1.43-.14.27-.2.62-.29.05,0-.14.17,0,.17a1,1,0,0,1,.52-.61c-.24.09-.57.19-.66.1-.13-.28.48-.27.64-.51-.32,0-.07-.26-.71,0,0-.08.27-.2.43-.29-.33-.06-.31-.67-.93-.27l0,.05h0c-.79-.27,0-1.13-.42-1.51l.21-.07c-.34-.2-.36-.59-.89-.63,0-.08.32-.34.58-.39-.23-.16-.48-.1-.25-.54.45.09.3-.19.35.13.08-.35.4-.53-.29-.63.58-.09.6-.46.39-.54l-.31.34a.52.52,0,0,1-.14-.42L62.3,81c.65-.9-1.85-.51-.57-1.48-.55,0-.23.44-.86.52,0-.3.91-1,.88-1,.25-.51-1.16,0-1-.44-.23.14-.89.44-1.23.25,0-.3.93-.73,1.2-.64,0,.06,0,.12-.11.15a.4.4,0,0,0,.51-.09l-.27.06c.21-.23,0-.59.48-.66-.32-.11-.45.07-.52.27.23-.48-.2-.54-.09-1-.12.11-.39.28-.41.22.11-.64-.56,0-.81-.34.31-.35.94-.29.48-.51.17-.32.65-.31.89-.3-.61-.13.08-.72.09-.94l.27.09a.31.31,0,0,1-.22-.22l-.46.3c0-.13,0-.22.22-.3-.37,0-.8.41-1.33.39.2-.23-.43-.29.21-.6-.06.5.65-.32.9,0-.11,0-.14-.12-.09-.25a.24.24,0,0,1,.19,0c.43-.64-.82.12-1-.29.39-.1.67-.38.56-.42.06.17-.59.33-.94.3.18-.38-.33-.2-.36-.35l-.07.21c-.39.1-.4,0-.59-.18.28-.14.27.08.37,0-.74.07.49-.74-.07-.84.2-.24.69-.31.82-.49-.61-.11.37-.56-.17-.72-.46.31-.33.27-.91.25l.58.4-.87,0c.06.17.46.21.42.35-.48,0-.35,0-.73.22.66-.54-.62-.26-.23-.73l1.24-.52c.38-.63-.93-.42-.84-1.06l-.14.26c-.52.14-.2-.28-.47-.36a2.2,2.2,0,0,0,.75-.51c-.3.14-.14-.38-1-.07l.44-.46c0-.51-1.37.06-1.41-.39.5-.08.71-.39,1.14-.27-.05-.13,0-.28-.32-.16.22-.19-.71-.11-.38-.41-.2,0-.64.2-.67,0A.84.84,0,0,1,56,68c-.2.09-.38-.1-.77.23,1.09-1-.6-1.07.33-1.92a3.67,3.67,0,0,1-.71-.73c.13,0,.2-.09.18,0,.21-.53-1.27.34-1-.26.56-.52.46,0,.64-.2,1.3-.69-.41-.39.23-1l.11,0c.35-.42-.74-.26-.81-.64a.89.89,0,0,0,.2-.1,2.07,2.07,0,0,1-1.56-.45c.57-.16.35,0,.84-.31-.15-.11-.82.46-1.11.25a3.34,3.34,0,0,1,.92-.87l.17.25c.65-.5-.2-.34-.15-.54l.33-.14c-.31-.36-1.11,0-1.28-.44l-.22.17c-.91.16.34-.43-.37-.37l.76-.48a4.87,4.87,0,0,1-1.35-.37,4.72,4.72,0,0,1,1.6.06.66.66,0,0,0-.77-.39c.11,0,.35,0,.25.13-.73.13-1.16,0-1.31-.29,1.57-.75,0-1,1-1.88-.58-.17-.54-.66-.58-1.15l.5-.29c.45-.32-1.32-1.65-.15-1.49l.42.65c.08-1.43,1.55-1.61,1.75-2.91.08.17.24.32.17.4.55.22.6-.58.29-.9.15-.09.32.25.55.34.39.06-.1-.9.37-.6.08,0,.08.17.08.23-.09-.29.53-.45,0-.79.49-.08.34-.75.83-.71-.35-.64.73-.25.07-1,.7.75,1.08.09.93-.43.16.28.38.07.61.45.2-.21.25-.54-.15-.88,1.24.51.09-1.46,1.4-.54a9.26,9.26,0,0,1,1-2.53c.68.76-.56.67.21,1.42.25-.81,0-1.74.66-2.07.23,0,.22.4.3.57.25-.82,1.11-.9,1.22-1.76a.5.5,0,0,1,.08.3c.07-.11.32-.09,0-.43v.18c-.61-.36-.57-1.39-.79-1.67.73,1.14.71-.19,1.58,1.29a.85.85,0,0,0-.29-.58c.15,0,.31.09.45.44.17-.5-.28-.75,0-1,.15.17.14.29.29.52-.13-.47-.27-.94.12-1,.07.12.22.22.14.29.41-.46,0-1.57.79-1.7.5.87.39.09,1,.71l.11-.43-.38-.21c.25-.2.05-.85.44-.82l.05.42.34-.51-.46,0c0-.54-.73-.79-.25-.89,0,.12.25-.2.7.07h0c-.06-.31-.12-.63.2-.62.22.17.57.74.72.86-.34-.64.44-.63.1-1.33a2.1,2.1,0,0,0,.42.58l-.27-.52c.23,0,.3.1.52.39.4-.2-.8-.73-.1-.72,0,.06.07.12.06.24.55-.16.55-.93,1.1-1,.65.57-.19.43.39.88.44-.56.46-1.71,1.11-2h-.16c-.69-1,.77.15.67-.51a1.28,1.28,0,0,0,.27.47c.48-.14.55-.83.86-1.56l.12.3c.39,0,.66-.32,1-.39-.12-.3,0-.36-.32-.65,1.79.83.79-1.81,2.33-1.14-.07.06,0,.35,0,.31l.37-.64c-.36-.38-.26-.2-.63-.44-.12-.3-.11-.61,0-.71,0,.47.51.67.79.82-.11-.11-.19-.28-.29-.41.85.53-.59-.88.18-.67l.14.24c.06-.22,0-.62.19-.67.43.44,0,.34.3.75.2-.19-.25-1.25.31-.92,0,.21-.13.31-.12.52.65.41.56.24.79.21h0l.57,0L78,30.19c-.66-1.48.4-.65.16-1.76.21,1.06.27.5.65,1.08.21.08.48.15.55.34-.15-.58.55.14.33-.7.14.17.2-.12.49.36.13-.31-.28-.27-.42-.51-.08-.87,1.38.14,1.29-1.07.2-.67-.15-1.34.06-1.93.35.19.35.74.35.74.42.11.55-.06.62-.42a1,1,0,0,0,.41.45c.14-.17-.35-.74.07-.63a5.4,5.4,0,0,1,.34.85c.09-.31,0-.79.15-1.1.28.28.21.57.28.83a1.31,1.31,0,0,0,.14-1.26ZM37.61,34.42c.13,0,.05.13,0,.22a.6.6,0,0,0-.17-.09l-.07,0A2.43,2.43,0,0,1,37.61,34.42Zm-3.14,3.23-.12-.1.13.09Zm.39.48a.77.77,0,0,0-.14-.23c.16-.15.36-.27.39-.21C35,37.75,35,37.94,34.86,38.13ZM24.57,81.63c0-.15.12-.12.24-.06a.81.81,0,0,0,0,.22l.06.05A2,2,0,0,1,24.57,81.63Zm4.14,1.85.06-.18h0Zm.26-.55c-.2-.1-.38-.24-.33-.3.1.11.3,0,.52,0A1.12,1.12,0,0,0,29,82.92Z"/><path class="cls-2" d="M25.16,82.26s0,0,0,.07l.16,0-.15-.14Z"/><path class="cls-2" d="M71.48,32l.08.05-.06,0Z"/><polygon class="cls-2" points="35.94 74.86 35.81 74.76 35.88 74.9 35.94 74.86"/><path class="cls-2" d="M77.62,30.29l.34,0A1,1,0,0,0,77.62,30.29Z"/><path class="cls-2" d="M78.91,29.74a2.68,2.68,0,0,0-.14-.24h0Z"/><path class="cls-2" d="M62.66,44a.1.1,0,0,0,0,.06C62.63,44.27,62.66,44.18,62.66,44Z"/><path class="cls-2" d="M66.5,38.64a1.69,1.69,0,0,1,0,.36C66.65,39,66.73,38.92,66.5,38.64Z"/><path class="cls-2" d="M58,49.53h0l0,0Z"/><path class="cls-2" d="M66.3,39.19c.17,0,.22-.06.23-.19C66.44,39,66.31,39.06,66.3,39.19Z"/><path class="cls-2" d="M84,26.53l-.05-.09,0,.1Z"/><path class="cls-2" d="M83.91,26.45l0-.1S83.88,26.38,83.91,26.45Z"/><path class="cls-2" d="M84,26.12l0,.22S84,26.29,84,26.12Z"/><path class="cls-2" d="M81.83,27.71c.14,0,.55.22.62,0l-.09-.16C82.49,27.87,81.71,27.32,81.83,27.71Z"/><path class="cls-2" d="M78.29,26.72l.49-.12c-.21-.15-.49-.36-.35-.53C77.52,25.82,78.85,26.45,78.29,26.72Z"/><path class="cls-2" d="M76.91,27.29c.13-.24-.21-.29-.29-.41C76.63,27.16,76.63,27.22,76.91,27.29Z"/><path class="cls-2" d="M68.64,33.69l-.35-.47C68.19,33.42,68.43,33.4,68.64,33.69Z"/><polygon class="cls-2" points="69.02 37.27 69.39 37.43 69.12 36.97 69.02 37.27"/><polygon class="cls-2" points="65.47 34.74 65.36 35.11 65.46 34.86 65.47 34.74"/><path class="cls-2" d="M52.61,47l.55.46C53.16,47.26,52.61,46.67,52.61,47Z"/><polygon class="cls-2" points="32.35 69.96 32.46 69.87 32.36 69.6 32.35 69.96"/><path class="cls-2" d="M63.58,98c.2,0,.62-.14.51-.24l-.75.11Z"/><path class="cls-2" d="M63,97.11c.73-.05.45.06,1.32,0,.12.09-.18.26-.45.31.2,0-.11.22.36.16.52-.3.49-.5,0-.57a1.54,1.54,0,0,1,.49-.12A3.59,3.59,0,0,0,63,97.11Z"/><path class="cls-2" d="M60.38,78.33s.11,0,.18,0S60.44,78.29,60.38,78.33Z"/><path class="cls-2" d="M60.71,76.86a.59.59,0,0,0,0,.09C60.74,76.9,60.76,76.86,60.71,76.86Z"/><path class="cls-2" d="M62.62,85.07c-.24.07-.14.15-.16.26Z"/><path class="cls-2" d="M62.55,95.81a.48.48,0,0,0,.22,0l-.1-.07Z"/><path class="cls-2" d="M64,88.19l0,.06.31,0Z"/><path class="cls-2" d="M64,90.68a.84.84,0,0,1,.45,0l.43-.15A3.71,3.71,0,0,0,64,90.68Z"/><path class="cls-2" d="M26.38,29.6l.09-.07C26.41,29.56,26.37,29.59,26.38,29.6Z"/><path class="cls-2" d="M26.9,25.4H27l.27-.23Z"/><path class="cls-2" d="M60.62,74.43h0C60.7,74.47,60.68,74.44,60.62,74.43Z"/><path class="cls-2" d="M58,69.85a1.06,1.06,0,0,0,.23-.16A1.6,1.6,0,0,0,58,69.85Z"/><path class="cls-2" d="M56.56,68.19c0-.07.1-.12,0-.15l-.06.05C56.57,68.08,56.63,68.1,56.56,68.19Z"/><path class="cls-2" d="M55.67,66.27l-.1.09.06,0Z"/><path class="cls-2" d="M30.61,34.24a4.42,4.42,0,0,1,.39-.43C30.66,34.11,30.35,34,30.61,34.24Z"/><path class="cls-2" d="M62.61,95.72l.05.06a.88.88,0,0,0,.23-.07A.52.52,0,0,1,62.61,95.72Z"/><path class="cls-2" d="M51.94,70.19l-.05-.34A.59.59,0,0,0,51.94,70.19Z"/><path class="cls-2" d="M39.39,46.17l-.11,0S39.31,46.2,39.39,46.17Z"/><path class="cls-2" d="M51.39,69a1.25,1.25,0,0,0,.32-.35l-.17,0Z"/><path class="cls-2" d="M36.83,34.78s0,0-.06,0l-.08.13.18-.09Z"/><path class="cls-2" d="M62.4,85.43l-.08.06.07,0Z"/><polygon class="cls-2" points="38.74 45.78 38.88 45.69 38.73 45.72 38.74 45.78"/><path class="cls-2" d="M61.67,90.83l-.16.27A.85.85,0,0,0,61.67,90.83Z"/><path class="cls-2" d="M61.69,92l.27-.06h0Z"/><path class="cls-2" d="M55,75.37l0,0C54.8,75.29,54.87,75.34,55,75.37Z"/><path class="cls-2" d="M58.35,79.79a1.68,1.68,0,0,1-.34-.05C58,79.84,58,79.92,58.35,79.79Z"/><path class="cls-2" d="M51.94,70.23h0l0,0Z"/><path class="cls-2" d="M57.93,79.5c-.08.13,0,.2.08.24S58,79.54,57.93,79.5Z"/><path class="cls-2" d="M62.75,96.85l.1,0-.09,0Z"/><path class="cls-2" d="M62.85,96.83l.09,0S62.92,96.82,62.85,96.83Z"/><path class="cls-2" d="M62.93,96.87s0,.1.19.08Z"/><path class="cls-2" d="M62.46,94.85c0,.12-.4.4-.22.5l.18,0C62.07,95.34,62.86,94.85,62.46,94.85Z"/><path class="cls-2" d="M64.68,92.22l-.07.42c.22-.13.51-.31.62-.16C65.8,91.81,64.72,92.74,64.68,92.22Z"/><path class="cls-2" d="M65.16,90.84c-.25-.06-.32-.08-.48.13C64.85,91.14,65,90.87,65.16,90.84Z"/><path class="cls-2" d="M62,82.72l.55-.17C62.41,82.42,62.33,82.62,62,82.72Z"/><polygon class="cls-2" points="58.61 82.18 58.32 82.44 58.84 82.33 58.61 82.18"/><polygon class="cls-2" points="62.16 79.84 62.26 79.88 61.97 79.7 62.16 79.84"/><path class="cls-2" d="M55.71,66.72c.16,0,.9-.27.63-.34Z"/><path class="cls-2" d="M53,60.59c0,.15-.16.4,0,.42C53.21,60.79,53.33,60.53,53,60.59Z"/><polygon class="cls-2" points="44.72 43.98 44.42 43.88 44.45 44 44.72 43.98"/><path class="cls-1" d="M282.44,54.66a30,30,0,0,1-30,30h-3.33V78h3.33a23.33,23.33,0,0,0,23.34-23.34V48a3.33,3.33,0,1,1,6.66,0Z"/><path class="cls-1" d="M309.11,54.66A56.53,56.53,0,0,1,288.92,98h-11.6a50,50,0,0,0,25.13-43.34V48a23.33,23.33,0,0,0-46.66,0v6.66a3.33,3.33,0,1,1-6.67,0V48a30,30,0,1,1,60,0Z"/><polygon class="cls-1" points="252.44 18 239.11 18 239.11 31.33 245.78 31.33 245.78 24.67 252.44 24.67 252.44 18"/><polygon class="cls-1" points="239.11 84.66 239.11 98 252.44 98 252.44 91.34 245.78 91.34 245.78 84.66 239.11 84.66"/><polygon class="cls-1" points="305.78 98 319.11 98 319.11 84.66 312.44 84.66 312.44 91.34 305.78 91.34 305.78 98"/><polygon class="cls-1" points="319.11 31.33 319.11 18 305.78 18 305.78 24.67 312.44 24.67 312.44 31.33 319.11 31.33"/><path class="cls-1" d="M279.11,31.33A16.67,16.67,0,0,0,262.44,48v6.66a10,10,0,0,1-10,10h-3.33v6.67h3.33a16.66,16.66,0,0,0,16.67-16.67V48a10,10,0,0,1,20,0v6.66a36.65,36.65,0,0,1-30,36v6.73a43.3,43.3,0,0,0,36.67-42.77V48a16.67,16.67,0,0,0-16.67-16.67Z"/><path class="cls-2" d="M312.72,21.49l.34.68.07-.29C313.06,21.68,312.78,21.33,312.72,21.49Z"/><path class="cls-2" d="M311.82,21.69a1.28,1.28,0,0,1-.27-.42,3,3,0,0,0,.75,1.54c-.27-.69-.07-.46-.4-1.28.07-.15.34.06.48.3-.07-.19.28,0,.08-.42C312,21,311.75,21.15,311.82,21.69Z"/><path class="cls-2" d="M292.45,34a.16.16,0,0,0,0-.19C292.4,33.87,292.39,33.94,292.45,34Z"/><path class="cls-2" d="M290.77,34.34l.1,0C290.8,34.29,290.75,34.29,290.77,34.34Z"/><path class="cls-2" d="M299.48,28.7l-.33,0C299.29,28.86,299.35,28.73,299.48,28.7Z"/><path class="cls-2" d="M311,23.86a.47.47,0,0,0,0-.23.65.65,0,0,1-.05.13Z"/><path class="cls-2" d="M302.16,25.84l.06,0-.14-.28Z"/><path class="cls-2" d="M304.91,24.75c-.13-.23-.16-.36-.14-.44a3.5,3.5,0,0,0-.29-.35C304.41,24,304.77,24.51,304.91,24.75Z"/><path class="cls-2" d="M250.93,92.37s.09.07.1.05Z"/><path class="cls-2" d="M246.64,93.93v-.06l-.31-.18Z"/><path class="cls-2" d="M288.16,35.57h0C288.18,35.47,288.16,35.51,288.16,35.57Z"/><path class="cls-2" d="M270.75,54.06c.62.15.25.83,1,.92C271.55,54.84,271.26,54,270.75,54.06Z"/><path class="cls-2" d="M284,40.35a.9.9,0,0,0-.24-.16A1.36,1.36,0,0,0,284,40.35Z"/><path class="cls-2" d="M282.62,42.56c-.08,0-.16,0-.16.08l.07,0C282.49,42.6,282.5,42.54,282.62,42.56Z"/><path class="cls-2" d="M280.81,44.36l.12.06,0-.08Z"/><path class="cls-2" d="M254.52,85.68a3.72,3.72,0,0,1-.55-.19C254.38,85.69,254.33,86.09,254.52,85.68Z"/><path class="cls-2" d="M310.87,23.83l0-.08a.73.73,0,0,0-.14-.19C310.86,23.71,310.88,23.78,310.87,23.83Z"/><path class="cls-2" d="M286.08,46.22l-.35.21A.83.83,0,0,0,286.08,46.22Z"/><path class="cls-2" d="M264.29,70.67v.12S264.34,70.73,264.29,70.67Z"/><path class="cls-2" d="M285,47.32a1.16,1.16,0,0,0-.47-.15.83.83,0,0,0,.08.15Z"/><path class="cls-2" d="M311.26,22c.07-.08.34.4.34.54.07.53-.41,0-.55-.15l.07-.22c-.89-1-.49.59-.83.74l-.41-.86.14.86c-.21-.16-.55-.56-.49-.78-.49-.23,0,.41-.48.11a.18.18,0,0,1-.09-.14l-.05.38c-.07-.19-.42-.52-.21-.5-.7-.18-.21,1-.76.53v-.07c-.34.64.35.6.43,1.55l-1.26-1.2.35.6c-.07,0-.21.05-.35-.19.08.53.21.22.35.67-.63-.33-.54.75-1.25-.1.22.49.49.15.43.65-.78-.9-.2.4-.76.13-.29-.55.13-.45-.43-.72.47.94-.6.15-.68.46.48.67-.23.59-.4,1.07-.14-.24-.9.11-1.39.1l-.07-.12c.44.71,0,.82-.1,1.14a1.43,1.43,0,0,1-.38-.87l-.22.17a.67.67,0,0,1,0,.6l-.32-.54c-.27.25-.14,1-.76,1,.34.48,1.28,1.06,1.13,1.66-.21-.24-.55-.65-.53-.83,0,.06,0,.3-.11.24l-.17-.54c-.31-.05.18.42,0,.48-.27-.36-.3-.18-.49-.47,0-.06.23.06.18-.12a1,1,0,0,1-.82-.24c.17.19.37.48.3.61-.27.25-.43-.35-.74-.4.12.3-.26.19.15.72-.09.06-.29-.17-.44-.29,0,.35-.64.61,0,1h.07s0,0,0,0c-.07.9-1.24.5-1.54,1.11l-.14-.18c-.12.43-.54.63-.44,1.17-.08.07-.46-.16-.59-.39-.11.31,0,.52-.52.49,0-.48-.29-.21,0-.4-.4.08-.7-.14-.61.58-.26-.53-.67-.38-.7-.14l.46.15a.75.75,0,0,1-.42.33l-.41-.64c-1.17-.23,0,2.06-1.45,1.25.19.53.55,0,.81.61-.33.14-1.3-.45-1.39-.38-.63,0,.38,1.12-.18,1.23.22.16.74.67.63,1.1-.32.15-1.06-.58-1-.88,0-.07.13,0,.19,0a.36.36,0,0,0-.24-.46l.14.23c-.31-.1-.65.24-.85-.17,0,.36.21.41.44.39-.59,0-.53.44-1,.54.15.06.41.26.36.3-.72.19.11.57-.14,1-.46-.14-.58-.8-.69-.24-.39,0-.52-.5-.58-.73,0,.66-.8.26-1,.35l0-.31a.41.41,0,0,1-.18.32l.45.32c-.16,0-.24.09-.39-.08.14.35.67.6.8,1.13-.31-.09-.19.56-.71.07.56-.18-.53-.49-.26-.88,0,.12-.09.19-.25.21a.21.21,0,0,1-.09-.18c-.81-.13.37.76,0,1.1-.22-.34-.61-.48-.61-.36.16-.14.53.43.59.79-.46,0-.12.42-.27.52l.25,0c.22.34.06.42,0,.67-.23-.22,0-.3-.14-.35.29.7-.94-.14-.88.46-.31-.08-.53-.54-.76-.58.06.67-.7-.1-.72.52.46.31.39.2.53.79l.26-.77.21.89c.16-.14.1-.56.25-.58.14.47.07.36.45.62-.77-.39-.1.74-.72.57l-.91-1c-.78-.08-.19,1.12-.9,1.33l.32,0c.3.45-.24.34-.25.64a1.88,1.88,0,0,0-.76-.5c.24.23-.37.32.21,1l-.62-.22c-.55.2.45,1.34,0,1.59-.23-.46-.62-.52-.62-1-.13.12-.3.17-.08.39-.27-.13.09.77-.33.57.09.19.4.54.24.65a.7.7,0,0,1-.15-.16c.15.16,0,.43.47.66-1.36-.62-1,1.11-2.15.59a4.75,4.75,0,0,1-.58,1.07c-.08-.11-.16-.16-.08-.17-.62,0,.72,1.11,0,1.16-.71-.31-.08-.48-.4-.55-1.11-1-.3.6-1.17.26v-.12c-.55-.15-.06.87-.45,1.12a.74.74,0,0,0-.16-.16,2.33,2.33,0,0,1,0,1.79c-.33-.49-.09-.35-.57-.69-.07.2.72.6.58,1a3,3,0,0,1-1.19-.51l.22-.29c-.42-.25-.45-.07-.45.12a.41.41,0,0,1,0-.33L277,48c-.15-.05-.66.14-.44-.16.12-.06.32-.13.31-.19s-.68,0-.59-.21l.4-.08c.06-.77-1.29-.36-1.76-.69a1.52,1.52,0,0,0,.88-1.4l.13-.07c-.28-.69-1.36-.64-2.05-1,.71-.94-.38-1.45-.23-2.35a1.17,1.17,0,0,1-.81.36c.08-.24-.82,0,0-.47l0,.06c.69-.59.31-.74.19-1l-1,.62c1.1-1.52-1.5-1.1-.4-2.27-.34,0-.45-.14-.78-.1l.54-.35a1.6,1.6,0,0,0-.61-1.07l.44-.17c-.15-.28-1.76.72-1.95.51l.74-.61c-.32-.44.05-1.37-1-1.32.12-.07.36-.22.44-.17-.13-.22,0-1.19-1.06-.35.7-.5-.26-.5-.74-.52l.54-.33c-.8.27-1,.39-1.37.24,0-.11.37-.35.3-.17.11-.41-.61.18-.53-.29l.4-.14c-.12-.26-.29-.11-.76,0-.31,0-.18-.52.26-.9-.3.18-.77.33-.74.1a.75.75,0,0,1,.38-.19c.07-.63-1-.12-.7-.75a1.1,1.1,0,0,0,.27-.27c.21.31.36.57.31.57.47-.35.37-.65,1.16-.94-.5.07-1.51.3-1.47-.09l.14-.15h.07c0-.09-.07-.11-.19-.09s0-.22,0-.3c.36-.32,0-.43-.07-.57-.5.4-.54.18-.85.64,0,0,.08,0,.16,0a.15.15,0,0,0,.09,0l-.05,0a3.38,3.38,0,0,1,.26.27c-.33.1-.62.17-.44-.18l-.95.45c.59-.7.73-1.31,1.13-1.68-.57-.15-.85-.71-2-.21-.2,0,.18-.33.3-.48s.18.07.34,0c-.4,0-.57-.54-1.26-.07.1-.49.72-.33.34-.6l.24-.11c.49-1.53-2.57.21-1.84-1.63a.54.54,0,0,1-.16.28c-.12-1.35-2-1.32-1.79-2.94,0-.4-.45-.08-.88,0l.48-.5-.81.26c-.74,0,.76-1.71-.46-1.44l-.3.36c-.07-.22-.65-.32-.22-.64-.08,0-.41.26-.28,0l.27-.24-.8,0c-.07-.47,1.11-.89.77-1.38a2.08,2.08,0,0,0-1.32.45c0,.08,0,.32-.28.56l-.27,0c-.81.68-1.72,1.28-2,2.13l.7-.18-.31.42-.21-.19c-.26.44.13.23.42.12a1.39,1.39,0,0,0-.33.48l1-.42c-.28.3-.71.43-.74.75.45-.19.6-.72,1-.73-.26.44-.58.66-.15.53a.89.89,0,0,1-.48.31c.36-.09.39.24.88-.06-.34.51.48.33-.29,1,.22-.12.79-.29.92-.2-1.09.57.32.48-.71,1.26,1-.54.85.26,1.54.15-.08,0-.24.12-.22.06.06.22-.15.47-.22.7.7-.55,1.06-.43,1.59-.65-.5.74-.9.55-1.48,1.14.55-.47.83-.12,1.24-.57a2.43,2.43,0,0,1-.6.84c.88-.68.26,0,.89-.29-.25.56-.76.72-.3.74a.88.88,0,0,1-.65.37c.18.25.73-.41,1.14-.66.42.14-.37.52-.62.89.32,0,1-.3,1.11-.15a.82.82,0,0,1-.28.23c.67-.23.48.55,1.32.25a1.07,1.07,0,0,1-.14.16,8.53,8.53,0,0,1,.87-.75c.1.1.58-.12.18.26,0-.08-.22.05-.38.13l.28,0c-.53.59-.34,0-.8.37.38.06,1.1-.08,1.07.23-.58.51-.53-.24-.88.41l0-.45c-.79,1-.06-.21-.93.78.1.49.62.14.72.64.4-.18.48-.42.88-.6,1,0-1.22,1.59-.13,1.32.48-.22,1.28-.78,1.08-.2l-.76.44c.2.39,1.15-.57,1,.15-.32.14-.44-.09-.48,0-.37.65.52-.14.66,0l-.59.51c.37.29,1.12.37,1.54.69-.2.11-.45.19-.56.43.69.29.75,1.15.74,1.93l.68-.2s-.18.26-.32.29c-.06.34.35-.24.63-.3.12.08-.2.37-.42.42.71,0,1.7.28,1.38,1.06l-.21,0c0,.44,1.35-.47,1,.16l-.13,0c.2.79,1.18,1.14.68,2.19.86-.45.07.86,1.21.15-.31.73-.58.77-.61,1.52,0,.17.83-.26,1.06-.17l-.58.39.76-.18-.62.58.25.06c0-.09.17-.31.35-.41.43.07,0,.87-.3,1.07l.88.26a1.11,1.11,0,0,1-.59.11c.8-.08-.58.46.15.39a1.92,1.92,0,0,1,.49-.28.54.54,0,0,0,.25.85l-.44.21c.18.5.78.79,1.09,1.29.08-.29.81-.7,1-.6l-.59.45c.45-.15.14-.3.74-.4,0,.23-.64.57-.91.59l.36.09a5.06,5.06,0,0,1-.56.27c.45-.15-.39.78.37.49l-.18.13c.3.5.65.59.93,1,.55-.32.53-.09,1-.24,0,.4-.22,1,0,1.33.42.09.51-.2.9-.28-.49.32-.23.65-.7.68a2.32,2.32,0,0,0,1.16.81c.17-.18.22-.3.41-.36s-.08.35-.33.48h-.07c.64.1.35.82.22,1.4a1.28,1.28,0,0,1-.34-.13c0,1-1.21.94-1.71,1.68,1.22.65-.14.22.95,1.09-.06.21-.13.26-.21.21h0l-1-.07c-.4-.15-.11-.35-.35-.54-.37.27-.57-.24-1-.25.42.28.44.58.13.66l.72.14c.16,1-1.24-.34-1.1.62l-.2-.44c0,.42-.79.92-.14,1.87-.16-.06-.5-.24-.49-.42-.63.5-.18,2.1-1.09,2.13l-.23-.26c0,.17.34.6,0,.52-.1-.1-.23-.26-.28-.22s.22.67-.06.7l-.19-.37c-.83.31,0,1.49-.22,2.13a1.5,1.5,0,0,0-1.72-.22l-.1-.1c-.64.62-.28,1.7-.47,2.58-1.17-.26-1.4,1.1-2.37,1.39.22,0,.61.48.61.66-.28,0,.24.84-.48.27l.06,0c-.81-.42-.85,0-1.06.27l.94.75c-1.88-.38-.71,2.08-2.24,1.52.13.33,0,.53.12.86l-.52-.38a2.21,2.21,0,0,0-.93,1.15l-.3-.38c-.25.29,1.25,1.45,1.08,1.76l-.85-.46c-.36.55-1.43.62-1.08,1.64-.11-.09-.33-.26-.3-.37-.2.24-1.21.62-.05,1.27-.72-.47-.44.52-.32,1l-.5-.4c.51.7.69.83.64,1.3-.12,0-.47-.21-.26-.23-.46.09.36.54-.14.69l-.26-.35c-.23.25,0,.35.26.76.09.31-.49.44-1,.18.27.23.56.64.31.72a.64.64,0,0,1-.3-.3c-.67.24.17,1.1-.56,1.09a.94.94,0,0,0-.35-.15c.26-.37.48-.66.5-.6-.49-.32-.77-.07-1.29-.75.21.49.75,1.42.33,1.57l-.2-.07,0-.07c-.09,0-.09.13,0,.24-.14,0-.24.07-.31.15-.43-.22-.44.21-.56.35.55.33.33.47.9.57-.05,0,0-.07,0-.18a.17.17,0,0,0,0-.1l0,0c0-.11.12-.25.21-.4.2.29.35.56-.06.54.3.3.6.61.74.76-.89-.27-1.54-.11-2-.35,0,.66-.48,1.23.36,2.16,0,.21-.39,0-.58-.07s0-.22-.1-.35c.1.43-.39.85.29,1.35-.53.14-.55-.59-.71-.05l-.18-.2c-1.7.24,1,2.58-1.13,2.72a.5.5,0,0,1,.33,0c-1.33.79-.77,2.75-2.46,3.32-.39.21.05.51.3.91l-.64-.26.5.73c.24.77-1.95,0-1.32,1.19l.45.14c-.2.18-.14.84-.59.55.06.06.38.3.13.27l-.32-.16.25.84c-.46.3-1.22-.74-1.62-.14,0,.3.57,1.15.83,1.17.07-.09.33-.13.65,0l.05.3c.92.53,1.79,1.19,2.72,1l-.38-.66.51.13-.13.31c.52.06.2-.25,0-.51a1.2,1.2,0,0,0,.58.12l-.7-.82c.39.15.64.54,1,.42-.33-.38-.9-.28-1-.7.51.06.83.29.58-.1a.76.76,0,0,1,.45.36c-.19-.33.13-.54-.32-.89.61.1.19-.67,1.06-.18-.18-.17-.52-.69-.46-.87.89.87.4-.57,1.48.13-.82-.74,0-1-.29-1.7.06.06.19.19.12.2.2-.18.52-.08.77-.12-.76-.46-.74-.9-1.12-1.36.9.16.82.68,1.58,1-.63-.34-.36-.82-.94-1a2.12,2.12,0,0,1,1,.21c-.95-.59-.06-.28-.55-.79.64,0,.95.44.84,0,.38,0,.56.5.56.5.2-.32-.62-.56-1-.87,0-.51.64.13,1.09.21-.05-.36-.61-.93-.47-1.09a.69.69,0,0,1,.32.18c-.42-.59.42-.78-.12-1.5l.2.07a7.06,7.06,0,0,1-1-.54c.07-.15-.29-.54.21-.32-.07.08.12.2.24.33l-.11-.28c.76.27.11.35.61.65,0-.43-.39-1.11-.07-1.23.69.35-.1.67.67.72L254,85c1.2.35-.2.17,1.06.59.47-.35,0-.72.44-1.07-.3-.33-.56-.29-.87-.62-.25-1.06,2,.5,1.39-.52-.36-.39-1.16-1-.51-1l.67.57c.35-.4-.91-.91-.12-1.07.24.26,0,.5.16.49.77.06-.29-.48-.14-.71l.68.36c.18-.54.05-1.35.27-1.95.18.15.32.37.6.38.1-.86,1-1.35,1.77-1.73l-.4-.6c0-.05.32.06.39.19.37-.1-.35-.24-.49-.51.05-.16.44,0,.55.23-.19-.74-.2-1.9.7-2l.11.2c.46-.2-.87-1.16-.13-1.14l.05.13c.76-.59.84-1.78,2.07-1.78-.71-.66.87-.5-.19-1.32.85,0,1,.22,1.75-.13.17-.12-.51-.72-.48-1l.57.4-.4-.7.78.35v-.29a.67.67,0,0,1-.52-.16c0-.48.9-.42,1.2-.22l0-1c.21.18.21.35.29.55-.31-.79.64.37.36-.35-.16-.05-.32-.27-.43-.36a.72.72,0,0,0,.81-.67l.35.34c.47-.43.61-1.19,1-1.75-.33.07-1-.49-.9-.7l.64.38c-.28-.38-.35,0-.63-.55.23-.16.77.37.88.64v-.41c.19.12.23.25.45.44-.29-.39.93,0,.41-.62l.19.12a13.31,13.31,0,0,0,.75-1.43c-.5-.4-.25-.49-.55-.95.42-.21,1.1-.26,1.37-.7,0-.47-.36-.42-.55-.78.47.34.75-.08.91.38a3.11,3.11,0,0,0,.52-1.57c-.24-.09-.38-.08-.5-.24s.39-.09.59.1l0,.07c-.12-1.23,2.56-.47,2.08-1.77l0,.07,0-1c.29-.19.21.43.64.48-.24-1.22.89-.84.81-1.74.84.39,1.09,0,1.31-.44.67.88.4,2.32.6,3.44.11.45,2-.71,1.38.23l-.74.19c1.22.4.79,1.68,1.86,2.14-.18,0-.38.12-.42,0-.41.41.28.64.68.45,0,.15-.35.2-.52.38s.83.13.39.45a.3.3,0,0,1-.24,0c.29,0,.19.54.7.17-.13.43.52.46.3.86.71-.14-.07.66.86.3-.94.41-.51.88,0,.87-.31.06-.22.3-.64.4.11.21.37.34.84.08-.94.91,1.27.41-.07,1.28a7.32,7.32,0,0,1,1.88,1.39c-1,.38-.38-.62-1.35-.16.63.39,1.58.37,1.59,1-.07.2-.44.09-.63.11.63.4.37,1.13,1.09,1.41a.55.55,0,0,1-.3,0c.07.09,0,.29.38.1l-.16,0c.56-.42,1.47-.14,1.81-.26-1.3.33-.11.63-1.78,1a1,1,0,0,0,.63-.1c0,.13-.2.23-.57.26.38.26.79-.05.91.28a4.28,4.28,0,0,1-.58.12c.47,0,.95,0,.88.35-.13,0-.28.13-.31,0,.25.44,1.41.37,1.22,1-1,.2-.23.29-1,.63l.34.19.34-.26c.08.25.74.24.56.55l-.4-.06.33.4.2-.37c.5.09,1-.41.9,0-.11,0,.08.25-.34.56h0c.3,0,.61.05.48.31s-.89.29-1,.38c.71-.13.4.51,1.16.4a2.52,2.52,0,0,0-.68.21l.58-.1c-.13.18-.21.23-.55.33,0,.38,1-.48.69.09-.06,0-.13,0-.24,0-.08.49.63.67.5,1.14-.76.4-.32-.26-.95.11.34.49,1.37.78,1.36,1.38l.05-.13c1.16-.32-.43.59.2.67a1.52,1.52,0,0,0-.53.11c-.06.42.54.64,1.08,1.07l-.32,0c-.19.3,0,.61,0,.89.32,0,.31.12.71-.1-1.43,1.26,1.34,1.07.16,2.16,0-.07-.32-.1-.3,0l.45.45c.49-.2.28-.17.63-.4.32,0,.6.05.64.19-.41-.14-.8.26-1,.45.15-.07.33-.08.48-.14-.8.56,1-.27.54.31l-.27.06c.18.1.57.13.54.31-.56.24-.32-.07-.8.07.1.21,1.23.09.72.47-.19,0-.24-.18-.42-.22-.61.43-.43.4-.49.59v0l-.2.47.16-.15c1.6-.18.44.48,1.55.55-1-.08-.56.1-1.23.27-.15.15-.32.35-.51.37.58,0-.33.42.52.43-.21.07,0,.19-.51.31.23.18.35-.16.63-.22.83.14-.64,1.08.5,1.3.54.32,1.28.2,1.75.51a1.09,1.09,0,0,1-.81.11c-.25.31-.15.46.15.6a1.21,1.21,0,0,0-.57.23c.1.15.81-.1.56.21a6.35,6.35,0,0,1-.9.07c.25.14.7.23,1,.38a1.59,1.59,0,0,1-.86,0,1.25,1.25,0,0,0,1.11.42l.17-.21c.05.08-.49.18-.62.15-.51-.07.13-.34.34-.41l.18.11c1.21-.49-.36-.53-.37-.85l.94-.13-.84-.09c.22-.13.71-.32.89-.21.39-.34-.38-.1.07-.42a.21.21,0,0,1,.16,0l-.33-.13c.2,0,.63-.22.54-.05.42-.52-.85-.41-.2-.74l.06,0c-.46-.43-.68.14-1.57,0l1.57-.73-.68.14c0-.06,0-.18.3-.24-.51-.07-.28.12-.74.13.53-.43-.49-.62.55-1-.53.06-.32.36-.75.19,1.12-.41-.29-.26.16-.64.61-.1.36.21.82-.18-1,.16.08-.52-.17-.66-.79.23-.46-.33-.82-.58.27-.06.24-.75.43-1.15l.14,0c-.81.19-.76-.17-1-.35a1.65,1.65,0,0,1,.93-.1l-.07-.22a.69.69,0,0,1-.56-.11l.61-.13c-.13-.28-.89-.36-.61-.85-.56.16-1.45.79-1.94.52a2.35,2.35,0,0,1,1-.23c-.05,0-.29,0-.18-.15H291c.17-.24-.45,0-.44-.1.43-.14.27-.2.62-.29.05,0-.14.17,0,.17a1,1,0,0,1,.52-.61c-.24.09-.57.19-.66.1-.13-.28.48-.27.64-.51-.32,0-.07-.26-.71,0,0-.08.27-.2.43-.29-.33-.06-.31-.67-.93-.27l0,.05h0c-.79-.27,0-1.13-.42-1.51l.21-.07c-.34-.2-.36-.59-.89-.63,0-.08.32-.34.58-.39-.23-.16-.48-.1-.25-.54.45.09.3-.19.35.13.08-.35.4-.53-.29-.63.58-.09.6-.46.39-.54l-.31.34a.52.52,0,0,1-.14-.42l.74-.18c.65-.9-1.85-.51-.57-1.48-.55,0-.23.44-.86.52,0-.3.91-1,.88-1,.25-.51-1.16,0-1-.44-.23.14-.89.44-1.23.25,0-.3.93-.73,1.2-.64,0,.06,0,.12-.11.15a.4.4,0,0,0,.51-.09l-.27.06c.21-.23,0-.59.48-.66-.32-.11-.45.07-.52.27.23-.48-.2-.54-.09-1-.12.11-.39.28-.41.22.11-.64-.56,0-.81-.34.31-.35.94-.29.48-.51.17-.32.65-.31.89-.3-.61-.13.08-.72.09-.94l.27.09a.31.31,0,0,1-.22-.22l-.46.3c0-.13,0-.22.22-.3-.37,0-.8.41-1.33.39.2-.23-.43-.29.21-.6-.06.5.65-.32.9,0-.11,0-.14-.12-.09-.25a.24.24,0,0,1,.19,0c.43-.64-.82.12-1-.29.39-.1.67-.38.56-.42.06.17-.59.33-.94.3.18-.38-.33-.2-.36-.35l-.07.21c-.39.1-.4,0-.59-.18.28-.14.27.08.37,0-.74.07.49-.74-.07-.84.2-.24.69-.31.82-.49-.61-.11.37-.56-.17-.72-.46.31-.33.27-.91.25l.58.4-.87,0c.06.17.46.21.42.35-.48,0-.35,0-.73.22.66-.54-.62-.26-.23-.73l1.24-.52c.38-.63-.93-.42-.84-1.06l-.14.26c-.52.14-.2-.28-.47-.36a2.2,2.2,0,0,0,.75-.51c-.3.14-.14-.38-1-.07l.44-.46c0-.51-1.37.06-1.41-.39.5-.08.71-.39,1.14-.27-.05-.13,0-.28-.32-.16.22-.19-.71-.11-.38-.41-.2,0-.64.2-.67,0a.84.84,0,0,1,.2-.09c-.2.09-.38-.1-.77.23,1.09-1-.6-1.07.33-1.92a3.67,3.67,0,0,1-.71-.73c.13,0,.2-.09.18,0,.21-.53-1.27.34-1-.26.56-.52.46,0,.64-.2,1.3-.69-.41-.39.23-1l.11,0c.35-.42-.74-.26-.81-.64a.89.89,0,0,0,.2-.1,2.07,2.07,0,0,1-1.56-.45c.57-.16.35,0,.84-.31-.15-.11-.82.46-1.11.25a3.34,3.34,0,0,1,.92-.87l.17.25c.65-.5-.2-.34-.15-.54l.33-.14c-.31-.36-1.11,0-1.28-.44l-.22.17c-.91.16.34-.43-.37-.37l.76-.48a4.87,4.87,0,0,1-1.35-.37,4.72,4.72,0,0,1,1.6.06.66.66,0,0,0-.77-.39c.11,0,.35,0,.25.13-.73.13-1.16,0-1.31-.29,1.57-.75,0-1,1-1.88-.58-.17-.54-.66-.58-1.15l.5-.29c.45-.32-1.32-1.65-.15-1.49l.42.65c.08-1.43,1.55-1.61,1.75-2.91.08.17.24.32.17.4.55.22.6-.58.29-.9.15-.09.32.25.55.34.39.06-.1-.9.37-.6.08,0,.08.17.08.23-.09-.29.53-.45,0-.79.49-.08.34-.75.83-.71-.35-.64.73-.25.07-1,.7.75,1.08.09.93-.43.16.28.38.07.61.45.2-.21.25-.54-.15-.88,1.24.51.09-1.46,1.4-.54a9.26,9.26,0,0,1,1-2.53c.68.76-.56.67.21,1.42.25-.81,0-1.74.66-2.07.23,0,.22.4.3.57.25-.82,1.11-.9,1.22-1.76a.5.5,0,0,1,.08.3c.07-.11.32-.09,0-.43v.18c-.61-.36-.57-1.39-.79-1.67.73,1.14.71-.19,1.58,1.29a.85.85,0,0,0-.29-.58c.15,0,.31.09.45.44.17-.5-.28-.75,0-1,.15.17.14.29.29.52-.13-.47-.27-.94.12-1,.07.12.22.22.14.29.41-.46,0-1.57.79-1.7.5.87.39.09,1,.71l.11-.43-.38-.21c.25-.2.05-.85.44-.82l.05.42.34-.51-.46,0c0-.54-.73-.79-.25-.89,0,.12.25-.2.7.07h0c-.06-.31-.12-.63.2-.62.22.17.57.74.72.86-.34-.64.44-.63.1-1.33a2.1,2.1,0,0,0,.42.58l-.27-.52c.23,0,.3.1.52.39.4-.2-.8-.73-.1-.72,0,.06.07.12.06.24.55-.16.55-.93,1.1-1,.65.57-.19.43.39.88.44-.56.46-1.71,1.11-2h-.16c-.69-1,.77.15.67-.51a1.28,1.28,0,0,0,.27.47c.48-.14.55-.83.86-1.56l.12.3c.39,0,.66-.32,1-.39-.12-.3,0-.36-.32-.65,1.79.83.79-1.81,2.33-1.14-.07.06,0,.35,0,.31l.37-.64c-.36-.38-.26-.2-.63-.44-.12-.3-.11-.61,0-.71,0,.47.51.67.79.82-.11-.11-.19-.28-.29-.41.85.53-.59-.88.18-.67l.14.24c.06-.22,0-.62.19-.67.43.44,0,.34.3.75.2-.19-.25-1.25.31-.92,0,.21-.13.31-.12.52.65.41.56.24.79.21h0l.57,0-.21-.08c-.66-1.48.4-.65.16-1.76.21,1.06.27.5.65,1.08.21.08.48.15.55.34-.15-.58.55.14.33-.7.14.17.2-.12.49.36.13-.31-.28-.27-.42-.51-.08-.87,1.38.14,1.29-1.07.2-.67-.15-1.34.06-1.93.35.19.35.74.35.74.42.11.55-.06.62-.42a1,1,0,0,0,.41.45c.14-.17-.35-.74.07-.63a5.4,5.4,0,0,1,.34.85c.09-.31,0-.79.15-1.1.28.28.21.57.28.83a1.31,1.31,0,0,0,.14-1.26Zm-45.53,9.07c.13,0,.05.13,0,.22a.6.6,0,0,0-.17-.09l-.07,0A2.43,2.43,0,0,1,265.73,31.08Zm-3.14,3.23-.12-.1.13.09Zm.39.48a.77.77,0,0,0-.14-.23c.16-.15.36-.27.39-.21C263.09,34.42,263.08,34.61,263,34.79Zm-10.29,43.5c0-.15.12-.12.24-.06a.81.81,0,0,0,0,.22l.06.05A2,2,0,0,1,252.69,78.29Zm4.14,1.85.06-.18h0Zm.26-.55c-.2-.1-.38-.24-.33-.3.1.11.3,0,.52,0A1.12,1.12,0,0,0,257.09,79.58Z"/><path class="cls-2" d="M253.29,78.92s0,0,0,.07l.16,0-.15-.14Z"/><path class="cls-2" d="M299.6,28.71l.08.05-.06,0Z"/><polygon class="cls-2" points="264.06 71.52 263.93 71.43 264.01 71.56 264.06 71.52"/><path class="cls-2" d="M305.75,27l.34,0A1,1,0,0,0,305.75,27Z"/><path class="cls-2" d="M307,26.4a2.68,2.68,0,0,0-.14-.24h0Z"/><path class="cls-2" d="M290.78,40.7a.1.1,0,0,0,0,.06C290.76,40.93,290.79,40.84,290.78,40.7Z"/><path class="cls-2" d="M294.62,35.3a1.69,1.69,0,0,1,0,.36C294.78,35.63,294.85,35.58,294.62,35.3Z"/><path class="cls-2" d="M286.12,46.19h0l0,0Z"/><path class="cls-2" d="M294.42,35.86c.17,0,.22-.06.23-.19C294.56,35.7,294.43,35.72,294.42,35.86Z"/><path class="cls-2" d="M312.08,23.2l-.05-.09,0,.1Z"/><path class="cls-2" d="M312,23.11l0-.1S312,23,312,23.11Z"/><path class="cls-2" d="M312.08,22.79l0,.22S312.16,23,312.08,22.79Z"/><path class="cls-2" d="M310,24.37c.14,0,.55.22.62,0l-.09-.16C310.61,24.54,309.83,24,310,24.37Z"/><path class="cls-2" d="M306.41,23.39l.49-.12c-.21-.15-.49-.36-.35-.53C305.64,22.48,307,23.11,306.41,23.39Z"/><path class="cls-2" d="M305,24c.13-.24-.21-.29-.29-.41C304.75,23.82,304.76,23.89,305,24Z"/><path class="cls-2" d="M296.76,30.36l-.35-.47C296.32,30.08,296.55,30.07,296.76,30.36Z"/><polygon class="cls-2" points="297.14 33.94 297.52 34.1 297.24 33.63 297.14 33.94"/><polygon class="cls-2" points="293.59 31.41 293.48 31.78 293.58 31.53 293.59 31.41"/><path class="cls-2" d="M280.73,43.64l.55.46C281.28,43.92,280.73,43.34,280.73,43.64Z"/><polygon class="cls-2" points="260.48 66.62 260.59 66.53 260.48 66.27 260.48 66.62"/><path class="cls-2" d="M291.7,94.67c.2,0,.62-.14.51-.24l-.75.11Z"/><path class="cls-2" d="M291.15,93.78c.73-.05.45.06,1.32,0,.12.09-.18.26-.45.31.2,0-.11.22.36.16.52-.3.49-.5,0-.57a1.54,1.54,0,0,1,.49-.12A3.59,3.59,0,0,0,291.15,93.78Z"/><path class="cls-2" d="M288.51,75s.11,0,.18,0S288.56,75,288.51,75Z"/><path class="cls-2" d="M288.83,73.53a.59.59,0,0,0,0,.09C288.86,73.56,288.89,73.52,288.83,73.53Z"/><path class="cls-2" d="M290.74,81.73c-.24.07-.14.15-.16.26Z"/><path class="cls-2" d="M290.67,92.47a.48.48,0,0,0,.22,0l-.1-.07Z"/><path class="cls-2" d="M292.16,84.86l0,.06.31,0Z"/><path class="cls-2" d="M292.12,87.35a.84.84,0,0,1,.45,0l.43-.15A3.71,3.71,0,0,0,292.12,87.35Z"/><path class="cls-2" d="M254.5,26.27l.09-.07C254.53,26.23,254.49,26.25,254.5,26.27Z"/><path class="cls-2" d="M255,22.07h.05l.27-.23Z"/><path class="cls-2" d="M288.74,71.09h0C288.83,71.14,288.8,71.11,288.74,71.09Z"/><path class="cls-2" d="M286.1,66.52a1.06,1.06,0,0,0,.23-.16A1.6,1.6,0,0,0,286.1,66.52Z"/><path class="cls-2" d="M284.68,64.86c0-.07.1-.12,0-.15l-.06.05C284.7,64.75,284.75,64.76,284.68,64.86Z"/><path class="cls-2" d="M283.79,62.93l-.1.09.06,0Z"/><path class="cls-2" d="M258.73,30.9a4.42,4.42,0,0,1,.39-.43C258.79,30.78,258.47,30.64,258.73,30.9Z"/><path class="cls-2" d="M290.74,92.39l.05.06a.88.88,0,0,0,.23-.07A.52.52,0,0,1,290.74,92.39Z"/><path class="cls-2" d="M280.06,66.86l-.05-.34A.59.59,0,0,0,280.06,66.86Z"/><path class="cls-2" d="M267.51,42.84l-.11,0S267.44,42.86,267.51,42.84Z"/><path class="cls-2" d="M279.52,65.68a1.25,1.25,0,0,0,.32-.35l-.17,0Z"/><path class="cls-2" d="M265,31.44s0,0-.06,0l-.08.13.18-.09Z"/><path class="cls-2" d="M290.52,82.09l-.08.06.07,0Z"/><polygon class="cls-2" points="266.87 42.44 267 42.35 266.86 42.39 266.87 42.44"/><path class="cls-2" d="M289.79,87.5l-.16.27A.85.85,0,0,0,289.79,87.5Z"/><path class="cls-2" d="M289.82,88.67l.27-.06h0Z"/><path class="cls-2" d="M283.12,72l0,0C282.92,72,283,72,283.12,72Z"/><path class="cls-2" d="M286.47,76.46a1.68,1.68,0,0,1-.34-.05C286.12,76.51,286.13,76.58,286.47,76.46Z"/><path class="cls-2" d="M280.07,66.89h0l0,0Z"/><path class="cls-2" d="M286.05,76.17c-.08.13,0,.2.08.24S286.17,76.2,286.05,76.17Z"/><path class="cls-2" d="M290.87,93.52l.1,0-.09,0Z"/><path class="cls-2" d="M291,93.5l.09,0S291,93.49,291,93.5Z"/><path class="cls-2" d="M291.06,93.54s0,.1.19.08Z"/><path class="cls-2" d="M290.58,91.52c0,.12-.4.4-.22.5l.18,0C290.19,92,291,91.51,290.58,91.52Z"/><path class="cls-2" d="M292.8,88.89l-.07.42c.22-.13.51-.31.62-.16C293.92,88.48,292.85,89.4,292.8,88.89Z"/><path class="cls-2" d="M293.28,87.5c-.25-.06-.32-.08-.48.13C293,87.8,293.14,87.53,293.28,87.5Z"/><path class="cls-2" d="M290.11,79.38l.55-.17C290.53,79.08,290.45,79.28,290.11,79.38Z"/><polygon class="cls-2" points="286.73 78.84 286.44 79.11 286.97 79 286.73 78.84"/><polygon class="cls-2" points="290.28 76.5 290.38 76.54 290.09 76.36 290.28 76.5"/><path class="cls-2" d="M283.83,63.38c.16,0,.9-.27.63-.34Z"/><path class="cls-2" d="M281.09,57.25c0,.15-.16.4,0,.42C281.33,57.45,281.45,57.19,281.09,57.25Z"/><polygon class="cls-2" points="272.84 40.64 272.55 40.55 272.57 40.66 272.84 40.64"/><path class="cls-3" d="M360.67,83V59.67h10l10,16.66H384l17.9-29.82,7.89,13.16h17.55V83Zm66.66-53.33V53H413.56l-10-16.67h-3.33l-17.9,29.82L374.44,53H360.67V29.67Zm0-6.67H360.67A6.69,6.69,0,0,0,354,29.67V83a6.69,6.69,0,0,0,6.67,6.67h30v6.66h-10A6.67,6.67,0,0,0,374,103h40a6.67,6.67,0,0,0-6.67-6.67h-10V89.66h30A6.68,6.68,0,0,0,434,83V29.67A6.69,6.69,0,0,0,427.33,23Z"/><rect class="cls-3" x="367.33" y="36.33" width="20" height="6.67"/><rect class="cls-3" x="414" y="69.67" width="6.67" height="6.66"/><rect class="cls-3" x="397.33" y="69.67" width="10" height="6.66"/></svg>