<svg xmlns="http://www.w3.org/2000/svg" viewBox="0 0 483.62 224.84"><defs><style>.cls-1{font-size:13.53px;}.cls-1,.cls-2{fill:#0f4e83;}.cls-1,.cls-2,.cls-7{font-family:OpenSans-Bold, Open Sans;font-weight:700;}.cls-2{font-size:13.53px;}.cls-3{fill:#035b9b;}.cls-4{fill:#2279bc;}.cls-5{fill:#f9fbfc;}.cls-6{fill:#fafcfd;}.cls-7{font-size:60.56px;fill:#fff;}.cls-8{fill:#0496b3;}.cls-9{fill:#6ec7d8;}.cls-10{fill:#7caf42;}.cls-11{fill:#accb32;}.cls-12{fill:#fcfdf9;}.cls-13{fill:#842573;}.cls-14{fill:#9e3d90;}.cls-15{fill:#fcfafc;}.cls-16{fill:#f37921;}.cls-17{fill:#f8981d;}.cls-18{fill:#fefcf9;}</style></defs><title>stages</title><g id="Layer_2" data-name="Layer 2"><g id="Layer_1-2" data-name="Layer 1"><text class="cls-1" transform="translate(142.7 11.59)">The Five Stages: Overall Maturity</text><text class="cls-2" transform="translate(19.08 220.88)">Stage 1</text><text class="cls-2" transform="translate(117.7 220.88)">Stage 2</text><text class="cls-2" transform="translate(216.33 220.88)">Stage 3</text><text class="cls-2" transform="translate(314.96 220.88)">Stage 4</text><text class="cls-2" transform="translate(415.84 220.88)">Stage 5</text><rect class="cls-3" y="27.66" width="86.51" height="75.27"/><polygon class="cls-4" points="86.51 151.14 43.26 203.05 0 151.14 0 102.93 86.51 102.93 86.51 151.14"/><path class="cls-5" d="M49.91,151.86c-4.2.8-8.4,1.27-12.75-.44a9.54,9.54,0,0,0,1.64,3.45,2.23,2.23,0,0,1-.69,3.23,2,2,0,0,1-3.06-.7c-1.38-2-2.7-4.12-4-6.22a2.23,2.23,0,0,1,.79-3.22c1.08-.8,2.15-1.62,3.31-2.3a2,2,0,0,0,1.13-2c-.06-2.66,0-5.33,0-8.26L30,138.66c-1.6.82-2.91.53-3.59-.79s-.1-2.44,1.43-3.27c3-1.64,6-3.27,9-5a5,5,0,0,1,2.86-.77,8.5,8.5,0,0,0,2.18,0c7.16-1.43,12.68,2.56,18.47,5.6a2.23,2.23,0,0,1-1.95,4c-2-.85-4-1.8-5.93-2.77-.88-.43-1.19-.25-1.18.73,0,2.69,0,5.38,0,8.07a1.29,1.29,0,0,0,.8,1.31c1.19.61,2.36,1.28,3.52,2,1.63,1,1.92,2.24.84,3.79-1.35,1.92-2.73,3.83-4.15,5.7-1.08,1.42-2.32,1.64-3.45.73s-1.14-2.07-.22-3.43c.49-.73,1-1.45,1.49-2.17Zm-6-8.69c-1.34,0-2.69,0-4,0-.44,0-1.08-.28-1.22.48s.48.64.86.83c2.19,1.08,2.9,2.36,2.34,4.75-.21.88,0,1.06.76,1.17a9.17,9.17,0,0,0,2,0c.83-.06,1.15-.3,1-1.24a3.47,3.47,0,0,1,2.61-4.26c.64-.2.73-.58.7-1.13s-.56-.58-1-.58C46.56,143.17,45.21,143.18,43.87,143.18Z"/><path class="cls-6" d="M43.7,113.6a7.09,7.09,0,1,1-7.11,7A7.2,7.2,0,0,1,43.7,113.6Z"/><text class="cls-7" transform="translate(33.18 79.29) scale(0.58)">1</text><rect class="cls-8" x="98.63" y="27.66" width="86.51" height="75.27"/><polygon class="cls-9" points="185.14 151.14 141.88 203.05 98.63 151.14 98.63 102.93 185.14 102.93 185.14 151.14"/><path class="cls-6" d="M144.07,138.49l3.8,2.72c1.5,1.08,1.88,2.29,1.06,3.87q-2.53,4.87-5.18,9.68a2.46,2.46,0,0,1-3.47,1.24c-1.31-.7-1.67-2-.89-3.53,1.2-2.35,2.4-4.71,3.7-7,.54-1,.38-1.45-.51-2-1.46-.94-2.83-2-4.25-3-.31-.22-.66-.71-1.07-.35-.21.18-.21.65-.21,1,0,2.22-.06,4.45,0,6.67a3.12,3.12,0,0,1-2,3.25c-3.55,1.62-7.06,3.31-10.61,4.93-1.67.77-3,.34-3.67-1.06s0-2.54,1.57-3.32c2.7-1.31,5.37-2.7,8.15-3.81a2.45,2.45,0,0,0,1.78-2.81c-.1-2.7,0-5.41,0-8.11a4.89,4.89,0,0,1,2.49-4.69c6.79-3.7,13.87-6.07,21.73-3.95a4.93,4.93,0,0,1,4,5.24q0,10,0,20c0,1.83-.93,3-2.36,3s-2.59-1.18-2.6-3c0-4.5-.06-9,0-13.51,0-1.29-.26-1.81-1.68-1.76-3.22.11-6.45,0-9.67,0Z"/><path class="cls-6" d="M161.65,127.46a4.79,4.79,0,0,1,4.9-4.87,4.88,4.88,0,0,1,4.93,4.88,5.07,5.07,0,0,1-4.86,4.84A4.93,4.93,0,0,1,161.65,127.46Z"/><text class="cls-7" transform="translate(131.81 78.43) scale(0.58)">2</text><rect class="cls-10" x="197.25" y="27.66" width="86.51" height="75.27"/><polygon class="cls-11" points="283.77 151.14 240.51 203.05 197.25 151.14 197.25 102.93 283.77 102.93 283.77 151.14"/><path class="cls-12" d="M245.77,131.53c-.47,2.43-.92,4.74-1.38,7-.15.78.45,1.08.92,1.43,1.47,1.1,2.94,2.18,4.44,3.23a3.45,3.45,0,0,1,1.6,3.09c0,4.09,0,8.18,0,12.27,0,2.12-1,3.25-2.67,3.2s-2.37-1.09-2.38-3.25c0-3.42,0-6.84,0-10.26a2.22,2.22,0,0,0-1-2.14c-1.57-1.06-3.07-2.21-4.59-3.34-.74-.55-1.33-.77-1.39.49-.24,5.21-3,9.1-6.44,12.72-1.38,1.46-2.55,3.12-3.85,4.65-1.11,1.3-2.6,1.51-3.7.59s-1.24-2.33-.11-3.73c2.23-2.75,4.44-5.51,6.77-8.18a8.3,8.3,0,0,0,1.9-4.06c1.06-5.45,2.21-10.88,3.27-16.33.13-.65.82-1.74.08-1.93a2.19,2.19,0,0,0-2.5,1.39c-.57,1.41-1.1,2.84-1.66,4.26a14,14,0,0,1-.66,1.51,2.27,2.27,0,0,1-3,1.25,2.18,2.18,0,0,1-1.51-2.92c1-2.75,2.18-5.43,3.33-8.12a2.71,2.71,0,0,1,1.72-1.28c2.79-1.08,5.56-2.2,8.35-3.28a4.86,4.86,0,0,1,6.59,2.79c.83,1.83,1.75,3.64,2.39,5.54a4.29,4.29,0,0,0,3.38,3.14,25.4,25.4,0,0,1,4,1.29,2.38,2.38,0,0,1,1.67,3,2.54,2.54,0,0,1-3.36,1.66c-2.33-.72-4.63-1.55-7-2.29a3.31,3.31,0,0,1-2.06-1.93C246.67,132.59,246.6,131.94,245.77,131.53Z"/><path class="cls-12" d="M245.06,108.23a5,5,0,1,1-5,5A4.89,4.89,0,0,1,245.06,108.23Z"/><text class="cls-7" transform="translate(230.43 78.43) scale(0.58)">3</text><rect class="cls-13" x="295.88" y="27.66" width="86.51" height="75.27"/><polygon class="cls-14" points="382.39 151.14 339.14 203.05 295.88 151.14 295.88 102.93 382.39 102.93 382.39 151.14"/><path class="cls-15" d="M342.73,118.85c3.64-1,7.26.82,10.69,3.41,1.12.84,2.43,1.42,3.54,2.27s1.41.39,1.85-.56a20.75,20.75,0,0,1,1.66-3,2.23,2.23,0,0,1,3.19-.81,2.28,2.28,0,0,1,1,3.29c-1.09,2.18-2.19,4.36-3.38,6.49a2.41,2.41,0,0,1-3.73.93q-3-1.79-5.9-3.69c-.79-.52-1.27-.69-1.81.36q-2.46,4.8-5.12,9.51c-.59,1-.27,1.64.51,2.33,1.55,1.37,3,2.83,4.58,4.21a3.17,3.17,0,0,1,1.15,2.74c-.25,4.33-.42,8.66-.67,13-.1,1.73-1.17,2.71-2.68,2.55-1.67-.18-2.25-1.27-2.19-2.82.15-3.66.27-7.32.47-11a2.54,2.54,0,0,0-.91-2.24q-2.59-2.32-5.08-4.75c-.85-.83-1.31-.76-1.86.35-1.06,2.13-2.29,4.17-3.39,6.28a2.85,2.85,0,0,1-2.76,1.71c-3.72,0-7.45,0-11.17,0-1.81,0-2.78-.93-2.78-2.46s1-2.43,2.79-2.47c2.81-.06,5.62-.09,8.43,0a2.3,2.3,0,0,0,2.4-1.48q4.69-8.91,9.5-17.75c.58-1.07.53-1.44-.82-1.47s-2.41.21-3,1.68a35.24,35.24,0,0,1-2.36,4.34c-.92,1.55-2.25,2-3.51,1.2s-1.63-2.07-.8-3.65c1.22-2.32,2.48-4.62,3.73-6.93a2.6,2.6,0,0,1,2.51-1.51C338.49,118.88,340.2,118.85,342.73,118.85Z"/><path class="cls-15" d="M356.52,113.13a5,5,0,1,1-9.91.05,5,5,0,0,1,9.91-.05Z"/><text class="cls-7" transform="translate(329.06 78.43) scale(0.58)">4</text><rect class="cls-16" x="397.1" y="27.66" width="86.51" height="75.27"/><polygon class="cls-17" points="483.62 151.14 440.36 203.05 397.1 151.14 397.1 102.93 483.62 102.93 483.62 151.14"/><path class="cls-18" d="M431,132.18l-2.74,8.91c-.22.72.26,1,.77,1.3,1.67,1,3.32,2,5,3a3.36,3.36,0,0,1,1.83,3.22c-.07,3.76,0,7.52,0,11.28,0,1.8-.87,2.8-2.31,2.81s-2.3-1-2.31-2.8c0-3.13,0-6.27,0-9.4a1.91,1.91,0,0,0-1.06-2c-1.46-.8-2.87-1.69-4.3-2.55a.78.78,0,0,0,.17,1.13c2,2.26,2.12,4.68,1,7.45a68.47,68.47,0,0,0-2.11,7.2c-.4,1.47-1,2.66-2.8,2.28-1.51-.32-2.11-1.73-1.6-3.63.68-2.54,1.35-5.08,2.15-7.58a3.44,3.44,0,0,0-.44-3.32c-1.21-1.75-2.22-3.64-3.41-5.4a5,5,0,0,1-.66-4.45,98.86,98.86,0,0,0,2.34-10l-3.46,3.38c-1.81,1.76-3.12,1.69-4.66-.3q-2-2.52-3.83-5.11c-1-1.42-.94-3.18.22-3.83,1.43-.8,2.43-.16,3.34,1s1.57,3.18,2.84,3.21c1,0,2.18-1.69,3.09-2.79a4.19,4.19,0,0,1,5.17-1.35,61,61,0,0,0,7.39,2.13,6,6,0,0,1,4.41,3.37c.71,1.38,1.38,3.19,2.58,3.8s2.64-1,4-1.57,2.69-.34,3.4,1,0,2.53-1.33,3.22c-2,1-3.91,2-5.88,2.93a2.37,2.37,0,0,1-3.38-1C433.41,136,432.33,134.28,431,132.18Z"/><path class="cls-18" d="M464.7,121.84c.75,2.83,1.47,5.67,2.28,8.48a5.45,5.45,0,0,1-.34,4.18,1.8,1.8,0,0,1-.08.17c-3.24,5-3.3,10.31-2,15.84a8.16,8.16,0,0,1,.21,2.05,2.19,2.19,0,0,1-2,2.33,2.08,2.08,0,0,1-2.52-1.73c-.66-3.82-1.27-7.66-1.71-11.52-.16-1.41,1.16-2.56,1.5-4.42-2,1.32-3.67,2.45-5.37,3.54-.7.45-.52,1.08-.44,1.68.31,2.23.66,4.46,1,6.69a11.17,11.17,0,0,1,.18,1.87,2.2,2.2,0,0,1-2,2.33,2,2,0,0,1-2.46-1.57c-.67-3.88-1.22-7.79-1.7-11.7a2.5,2.5,0,0,1,1.43-2.28c1.9-1.22,3.74-2.53,5.67-3.7a1.62,1.62,0,0,0,.83-2.29c-.87-2.35-1.67-4.72-2.43-7.11-.29-.9-.63-1-1.24-.31a1.15,1.15,0,0,0-.13.14c-2.58,4.1-6.58,4.22-10.76,3.88-1.7-.14-2.87-1-2.77-2.41a2.25,2.25,0,0,1,2.66-2.3c3.84.61,6.63-.87,8.84-3.86a3.61,3.61,0,0,1,2.11-1.14c3-.84,5.93-1.58,8.84-2.55a3.9,3.9,0,0,1,4.16.71c1.09.93,2.27,2.25,3.52,2.38s2.11-1.72,3.17-2.65,2.26-1.39,3.5-.27,1,2.3-.23,3.61-2.66,2.66-4,4a2.69,2.69,0,0,1-3.88.29c-1.16-.84-2.3-1.7-3.45-2.56Z"/><path class="cls-18" d="M454.81,107a4.68,4.68,0,1,1-4.67,4.63A4.71,4.71,0,0,1,454.81,107Z"/><path class="cls-18" d="M435.24,119.47a4.67,4.67,0,1,1-9.34-.16,4.67,4.67,0,0,1,9.34.16Z"/><text class="cls-7" transform="translate(430.28 78.43) scale(0.58)">5</text></g></g></svg>