<svg id="Layer_1" data-name="Layer 1" xmlns="http://www.w3.org/2000/svg" xmlns:xlink="http://www.w3.org/1999/xlink" viewBox="0 0 391.01 129.02"><defs><style>.cls-1{fill:#004b85;}.cls-2{opacity:0.2;fill:url(#radial-gradient);}.cls-3{fill:url(#radial-gradient-2);}.cls-4{fill:#68acde;}</style><radialGradient id="radial-gradient" cx="242.24" cy="-377.18" r="23.33" gradientTransform="translate(-667.38 348.41) scale(3.05 0.62)" gradientUnits="userSpaceOnUse"><stop offset="0" stop-color="#0d4c84"/><stop offset="1" stop-color="#0d4c84" stop-opacity="0"/></radialGradient><radialGradient id="radial-gradient-2" cx="101.98" cy="57.49" r="29.52" gradientUnits="userSpaceOnUse"><stop offset="0" stop-color="#fff"/><stop offset="0.85" stop-color="#0d4c84"/></radialGradient></defs><title>idc-logo</title><path class="cls-1" d="M180.36,30.55c-.11-8.07-9-5.86-9-8.29,0-1,.22-1.21,1.11-1.21,4.09,0,8.07.44,12.16.44,3.43,0,6.85-.44,10.28-.44,1.77,0,2.1.22,2.1,1.1,0,2.65-8,.11-8,8.4V89.89c0,7.52,9.84,5,9.84,8.29,0,.77-.33,1.1-2.21,1.1-2.54,0-7.29-.44-12-.44-6.74,0-9.06.44-10.61.44-2,0-2.32-.55-2.32-1.65,0-3.21,8.62.44,8.62-10.5Z" transform="translate(-13.85 -18.56)"/><path class="cls-1" d="M213.37,32.87c0-11.27-9.06-7.73-9.06-10.72,0-.77.89-1.1,1.55-1.1,3.43,0,6.63.44,9.95.44,7.29,0,14.48-.44,24-.44,19.56,0,38.79,14.81,38.79,35.25,0,25.42-12,43-42.66,43-5.64,0-11.27-.44-16.91-.44-1,0-11.6.44-12.38.44s-1.1-.44-1.1-1.1c0-2.54,7.84.22,7.84-10.28Zm8.73,50.4c0,1.77-.33,7.07.67,8.07,3.65,3.64,12,5,17,5,15.69,0,30.61-8.4,30.61-33.93,0-24.53-16.36-38.46-37.36-38.57-10.5,0-10.94,1.77-10.94,7Z" transform="translate(-13.85 -18.56)"/><path class="cls-1" d="M325.91,20c20.78,0,26.52,8.51,29.73,8.51.88,0,1.55-1.1,2.65-1.1s1.22,1.77,1.55,9c.22,5.86,1.22,9.5-.66,9.5-1.33,0-2.1-2.87-2.54-3.64-6.85-11.83-14.69-19-29-19-21.55,0-31.94,14.37-31.94,34.92,0,19.23,11.05,38.46,32.27,38.46,17.35,0,28.18-11.05,29.84-16.13a1.87,1.87,0,0,1,1.55-1.43,1.11,1.11,0,0,1,1,1.21l-2.54,11.05c-.11.44-8,8.73-32.82,8.73-22.66,0-38.9-15.58-38.9-38.46S302.59,20,325.91,20Z" transform="translate(-13.85 -18.56)"/><ellipse class="cls-2" cx="71.13" cy="114.56" rx="71.13" ry="14.46"/><path class="cls-3" d="M132.6,60.45h23.49v1.64H132.71c0,.77.06,1.55.06,2.33a45.1,45.1,0,0,1-.23,4.62H13.88V67.4H38.65c0-1-.06-2.16-.06-3,0-1.71.21-1.38.14-4H132.6ZM101.36,21.17a48.15,48.15,0,0,0-41.71,5H13.88v1.64h100.2a47.41,47.41,0,0,0-8.6-5h50.6V21.17ZM90.49,33.5H50.83a53.93,53.93,0,0,0-4.87,6H13.88v1.64H65.75l60.72,0a49.89,49.89,0,0,0-4.2-5.95h33.82V33.5H90.49Zm0,14-48.6,0a44.85,44.85,0,0,0-2.2,7H13.88v1.64H132a39,39,0,0,0-2.16-7h26.23V47.47H90.49Zm0,26-51,0a44.81,44.81,0,0,0,2,6.89H13.88V82H129.27a39.15,39.15,0,0,0,2.66-6.89h24.15V73.5H90.49Zm0,11.88H42.93c2.42,3.3,4.67,6.36,7.15,9.14H13.88v1.64H119.76A51,51,0,0,0,127.09,87h29V85.39H90.49Zm0,13.09L54,98.48a48.28,48.28,0,0,0,61.59,1.64h40.46V98.48H90.49Z" transform="translate(-13.85 -18.56)"/><path class="cls-4" d="M175.42,128.56l-1.78,5.88h-3.91l6.65-20.74h4.83l6.74,20.74h-4.06L182,128.56Zm5.94-2.86-1.63-5.11c-.4-1.26-.74-2.68-1-3.88h-.06c-.31,1.2-.62,2.65-1,3.88L176,125.7Z" transform="translate(-13.85 -18.56)"/><path class="cls-4" d="M189.91,123.92c0-1.72,0-3.17-.12-4.46h3.32l.18,2.25h.09a5.4,5.4,0,0,1,4.77-2.58c2.62,0,5.32,1.69,5.32,6.43v8.89H199.7V126c0-2.15-.8-3.79-2.86-3.79a3.18,3.18,0,0,0-3,2.21,3.86,3.86,0,0,0-.15,1.23v8.8h-3.82Z" transform="translate(-13.85 -18.56)"/><path class="cls-4" d="M218.53,130.84a24,24,0,0,0,.22,3.6h-3.42l-.25-1.66H215a5.56,5.56,0,0,1-4.43,2,4.45,4.45,0,0,1-4.71-4.46c0-3.79,3.36-5.69,8.89-5.66v-.25c0-1-.4-2.62-3-2.62a7.94,7.94,0,0,0-4,1.11l-.74-2.46a10.79,10.79,0,0,1,5.42-1.32c4.8,0,6.19,3,6.19,6.31Zm-3.69-3.72c-2.68-.06-5.23.52-5.23,2.8a2,2,0,0,0,2.15,2.15,3.07,3.07,0,0,0,3-2.06,2.71,2.71,0,0,0,.12-.83Z" transform="translate(-13.85 -18.56)"/><path class="cls-4" d="M221.91,112.59h3.82v21.85h-3.82Z" transform="translate(-13.85 -18.56)"/><path class="cls-4" d="M231.58,119.45l2.71,8c.31.92.62,2.06.83,2.92h.09c.25-.86.52-2,.8-3l2.34-8h4.06l-3.75,10.22c-2.06,5.6-3.45,8.09-5.23,9.63a7.61,7.61,0,0,1-4,1.94l-.86-3.2a6.48,6.48,0,0,0,2.22-1,6.6,6.6,0,0,0,2.06-2.37,1.53,1.53,0,0,0,.25-.68,1.59,1.59,0,0,0-.22-.74l-5.48-13.76Z" transform="translate(-13.85 -18.56)"/><path class="cls-4" d="M242.56,132.26l5.63-7.2c.77-.92,1.42-1.66,2.22-2.52v-.06h-7.29v-3H255v2.31l-5.51,7c-.74.89-1.45,1.75-2.22,2.55v.06h7.91v3H242.56Z" transform="translate(-13.85 -18.56)"/><path class="cls-4" d="M259.67,128c.09,2.71,2.22,3.88,4.62,3.88a11.29,11.29,0,0,0,4.16-.68l.55,2.62a14.05,14.05,0,0,1-5.23,1c-4.86,0-7.72-3-7.72-7.6,0-4.16,2.52-8.06,7.33-8.06s6.46,4,6.46,7.29a9.33,9.33,0,0,1-.12,1.6Zm6.59-2.65c0-1.39-.58-3.66-3.11-3.66-2.34,0-3.32,2.12-3.48,3.66Z" transform="translate(-13.85 -18.56)"/><path class="cls-4" d="M280.82,115.61v3.85h3.6v2.83h-3.6v6.62c0,1.82.49,2.77,1.94,2.77a4.67,4.67,0,0,0,1.48-.18l.06,2.89a8.19,8.19,0,0,1-2.74.4,4.4,4.4,0,0,1-3.26-1.26c-.8-.86-1.17-2.22-1.17-4.19v-7H275v-2.83h2.15v-2.77Z" transform="translate(-13.85 -18.56)"/><path class="cls-4" d="M286.66,112.59h3.82v8.93h.06a5.07,5.07,0,0,1,1.88-1.72,5.14,5.14,0,0,1,2.59-.68c2.55,0,5.23,1.69,5.23,6.49v8.83h-3.79V126c0-2.18-.8-3.82-2.89-3.82a3.09,3.09,0,0,0-2.92,2.12,3.16,3.16,0,0,0-.15,1.14v9h-3.82Z" transform="translate(-13.85 -18.56)"/><path class="cls-4" d="M306.33,128c.09,2.71,2.22,3.88,4.62,3.88a11.29,11.29,0,0,0,4.16-.68l.55,2.62a14.05,14.05,0,0,1-5.23,1c-4.86,0-7.72-3-7.72-7.6,0-4.16,2.52-8.06,7.33-8.06s6.46,4,6.46,7.29a9.33,9.33,0,0,1-.12,1.6Zm6.59-2.65c0-1.39-.58-3.66-3.11-3.66-2.34,0-3.32,2.12-3.48,3.66Z" transform="translate(-13.85 -18.56)"/><path class="cls-4" d="M324.05,113.7h12v3.11h-8.19v5.72h7.63v3.11h-7.63v8.8h-3.79Z" transform="translate(-13.85 -18.56)"/><path class="cls-4" d="M351.41,129.95c0,1.79.06,3.26.12,4.49h-3.32l-.18-2.28H348a5.42,5.42,0,0,1-4.8,2.62c-2.74,0-5.23-1.63-5.23-6.52v-8.8h3.79v8.16c0,2.49.8,4.09,2.8,4.09a3.19,3.19,0,0,0,2.89-2,3.45,3.45,0,0,0,.21-1.17v-9h3.79Z" transform="translate(-13.85 -18.56)"/><path class="cls-4" d="M359.23,115.61v3.85h3.6v2.83h-3.6v6.62c0,1.82.49,2.77,1.94,2.77a4.67,4.67,0,0,0,1.48-.18l.06,2.89a8.19,8.19,0,0,1-2.74.4,4.4,4.4,0,0,1-3.26-1.26c-.8-.86-1.17-2.22-1.17-4.19v-7h-2.15v-2.83h2.15v-2.77Z" transform="translate(-13.85 -18.56)"/><path class="cls-4" d="M378.49,129.95c0,1.79.06,3.26.12,4.49h-3.32l-.18-2.28H375a5.42,5.42,0,0,1-4.8,2.62c-2.74,0-5.23-1.63-5.23-6.52v-8.8h3.79v8.16c0,2.49.8,4.09,2.8,4.09a3.19,3.19,0,0,0,2.89-2,3.45,3.45,0,0,0,.21-1.17v-9h3.79Z" transform="translate(-13.85 -18.56)"/><path class="cls-4" d="M382,124.29c0-2,0-3.48-.12-4.83h3.29l.12,2.86h.12a4.47,4.47,0,0,1,4.09-3.2,4,4,0,0,1,.89.09v3.57a5.26,5.26,0,0,0-1.11-.12,3.34,3.34,0,0,0-3.38,2.86,6.42,6.42,0,0,0-.12,1.17v7.76H382Z" transform="translate(-13.85 -18.56)"/><path class="cls-4" d="M394.71,128c.09,2.71,2.22,3.88,4.62,3.88a11.29,11.29,0,0,0,4.16-.68l.55,2.62a14.05,14.05,0,0,1-5.23,1c-4.86,0-7.72-3-7.72-7.6,0-4.16,2.52-8.06,7.33-8.06s6.46,4,6.46,7.29a9.33,9.33,0,0,1-.12,1.6Zm6.59-2.65c0-1.39-.59-3.66-3.11-3.66-2.34,0-3.32,2.12-3.48,3.66Z" transform="translate(-13.85 -18.56)"/></svg>