<svg id="Layer_1" data-name="Layer 1" xmlns="http://www.w3.org/2000/svg" viewBox="0 0 289 215">
  <title>build_icon</title>
  <g>
    <path d="M106.76,112.67h73.88v-36H106.76Zm76,4.18H104.67a2.07,2.07,0,0,1-2.09-2.09V74.56a2.07,2.07,0,0,1,2.09-2.09h78.06a2.07,2.07,0,0,1,2.09,2.09v40.2A2.12,2.12,0,0,1,182.73,116.85Z" style="fill: #006afb"/>
    <path d="M143.7,154.3a2.06,2.06,0,0,1-2.09-2.08V114.76a2.09,2.09,0,1,1,4.18,0v37.46A2.12,2.12,0,0,1,143.7,154.3Z" style="fill: #006afb"/>
    <path d="M213.57,154.3H73.79a2.09,2.09,0,1,1,0-4.17H213.57a2.09,2.09,0,0,1,0,4.17Z" style="fill: #006afb"/>
    <path d="M143.7,172a2.07,2.07,0,0,1-2.09-2.09V152.17a2.09,2.09,0,0,1,4.18,0v17.76A2.1,2.1,0,0,1,143.7,172Z" style="fill: #006afb"/>
    <path d="M213.57,172a2.07,2.07,0,0,1-2.09-2.09V152.17a2.09,2.09,0,1,1,4.17,0v17.76A2.06,2.06,0,0,1,213.57,172Z" style="fill: #006afb"/>
    <path d="M73.79,172a2.07,2.07,0,0,1-2.09-2.09V152.17a2.09,2.09,0,0,1,4.18,0v17.76A2.07,2.07,0,0,1,73.79,172Z" style="fill: #006afb"/>
    <path d="M66.73,184.48H80.89V172H66.73ZM83,188.65H64.64a2.07,2.07,0,0,1-2.09-2.09V169.93a2.07,2.07,0,0,1,2.09-2.09H83a2.07,2.07,0,0,1,2.09,2.09v16.63A2.1,2.1,0,0,1,83,188.65Z" style="fill: #006afb"/>
    <path d="M136.59,184.48h14.17V172H136.59Zm16.26,4.17H134.51a2.07,2.07,0,0,1-2.09-2.09V169.93a2.07,2.07,0,0,1,2.09-2.09h18.34a2.07,2.07,0,0,1,2.09,2.09v16.63A2.07,2.07,0,0,1,152.85,188.65Z" style="fill: #006afb"/>
    <path d="M206.5,184.48h14.17V172H206.5Zm16.26,4.17H204.41a2.06,2.06,0,0,1-2.08-2.09V169.93a2.06,2.06,0,0,1,2.08-2.09h18.35a2.07,2.07,0,0,1,2.09,2.09v16.63A2.1,2.1,0,0,1,222.76,188.65Z" style="fill: #006afb"/>
    <path d="M118.88,92.65a2,2,0,0,0-2,2,2,2,0,0,0,2,2,2,2,0,0,0,0-4Zm0,8.15A6.17,6.17,0,1,1,125,94.62,6.16,6.16,0,0,1,118.88,100.8Z" style="fill: #006afb"/>
    <path d="M143.7,92.65a2,2,0,1,0,0,4,2,2,0,0,0,0-4Zm0,8.15a6.17,6.17,0,1,1,6.14-6.18A6.2,6.2,0,0,1,143.7,100.8Z" style="fill: #006afb"/>
    <path d="M168.52,92.65a2,2,0,0,0-2,2,2,2,0,0,0,2,2,2,2,0,0,0,0-4Zm0,8.15a6.17,6.17,0,1,1,6.14-6.18A6.16,6.16,0,0,1,168.52,100.8Z" style="fill: #006afb"/>
    <path d="M222.86,65.22c-.67-19.22-17.3-34.64-37.65-34.64a38.66,38.66,0,0,0-20.43,5.73,55.29,55.29,0,0,0-44.63-21.94C90.36,14.37,66,37.06,65.37,65.23,49.16,70.66,38,85.45,38,102c0,21.52,18.43,39,41.08,39h25.18c-.19-1.35-.34-2.7-.4-4.08,0-.91,0-1.8,0-2.7H79c-18.85,0-34.19-14.49-34.19-32.25h0c0-14.33,10.24-27.07,24.91-31l2.63-.71-.13-3.47c0-.17,0-.33,0-.5,0-24.91,21.52-45.17,47.93-45.17,16.8,0,32.09,8.11,40.91,21.69l2,3.09L166,43.74a31.57,31.57,0,0,1,19.22-6.35c17,0,30.8,13,30.8,29a2.93,2.93,0,0,1,0,.59l-.17,3.38,2.68.71c14.66,3.89,24.9,16.63,24.9,31,0,17.76-15.38,32.22-34.22,32.22H184.59c.1.91.2,1.82.25,2.74a30.76,30.76,0,0,1-.11,4.08H209.2v0c22.65,0,41.07-17.51,41.07-39C250.27,85.49,239.12,70.7,222.86,65.22Z" style="fill: #006afb"/>
    <path d="M119.39,33.92A3.44,3.44,0,0,0,116,30.5c-18.84,0-34.18,13.41-34.18,29.91a3.43,3.43,0,1,0,6.85,0c0-12.7,12.25-23.06,27.33-23.06a3.45,3.45,0,0,0,3.43-3.43Z" style="fill: #006afb"/>
  </g>
</svg>
