<svg id="Layer_1" data-name="Layer 1" xmlns="http://www.w3.org/2000/svg" xmlns:xlink="http://www.w3.org/1999/xlink" viewBox="0 0 1614.51 764.87">
  <defs>
    <linearGradient id="linear-gradient" x1="331.16" y1="198.8" x2="1615.25" y2="198.8" gradientUnits="userSpaceOnUse">
      <stop offset="0" stop-color="#fff"/>
      <stop offset="1" stop-color="#ccc"/>
    </linearGradient>
    <linearGradient id="linear-gradient-2" x1="331.16" y1="341.05" x2="1615.25" y2="341.05" xlink:href="#linear-gradient"/>
    <linearGradient id="linear-gradient-3" x1="331.16" y1="483.3" x2="1615.25" y2="483.3" xlink:href="#linear-gradient"/>
    <linearGradient id="linear-gradient-4" x1="331.16" y1="625.55" x2="1615.25" y2="625.55" xlink:href="#linear-gradient"/>
  </defs>
  <title>comparisonbg_overall</title>
  <line x1="323.35" y1="-0.44" x2="323.35" y2="696.06" style="fill: none;stroke: gray;stroke-miterlimit: 10"/>
  <line x1="753.35" y1="-0.44" x2="753.35" y2="696.06" style="fill: none;stroke: gray;stroke-miterlimit: 10"/>
  <line x1="1185.35" y1="-0.44" x2="1185.35" y2="696.06" style="fill: none;stroke: gray;stroke-miterlimit: 10"/>
  <text transform="translate(110.47 180.78)" style="font-size: 31px;font-family: OpenSans, Open Sans">Your overall<tspan x="83.89" y="37.2">Result</tspan></text>
  <text transform="translate(209.72 491.95)" style="font-size: 31px;font-family: OpenSans, Open Sans">Build</text>
  <text transform="translate(203.87 349.7)" style="font-size: 31px;font-family: OpenSans, Open Sans">Move</text>
  <text transform="translate(167.64 652.8)" style="font-size: 31px;font-family: OpenSans, Open Sans">Manage</text>
  <line x1="0.75" y1="130.56" x2="1614.65" y2="130.56" style="fill: none;stroke: gray;stroke-miterlimit: 10"/>
  <line x1="0.26" y1="272.56" x2="1615.18" y2="272.56" style="fill: none;stroke: gray;stroke-miterlimit: 10"/>
  <line x1="115.76" y1="410.56" x2="1615.18" y2="410.56" style="fill: none;stroke: gray;stroke-miterlimit: 10"/>
  <line x1="115.76" y1="554.56" x2="1615.18" y2="554.56" style="fill: none;stroke: gray;stroke-miterlimit: 10"/>
  <line x1="115.76" y1="696.56" x2="1615.18" y2="696.56" style="fill: none;stroke: gray;stroke-miterlimit: 10"/>
  <text transform="translate(513.31 56.19)" style="font-size: 26.131669998168945px;fill: #999;font-family: OpenSans, Open Sans">Cloud<tspan style="font-size: 36.85363006591797px;fill!: #000"><tspan x="0" y="37.56">Experimenter</tspan></tspan></text>
  <text transform="translate(944.41 56.19)" style="font-size: 26.131669998168945px;fill: #999;font-family: OpenSans, Open Sans">Cloud<tspan style="font-size: 36.85363006591797px;fill!: #000"><tspan x="0" y="37.56">Optimizer</tspan></tspan></text>
  <text transform="translate(1357.5 56.19)" style="font-size: 26.131669998168945px;fill: #999;font-family: OpenSans, Open Sans">Cloud<tspan style="font-size: 36.85363006591797px;fill!: #000"><tspan x="0" y="37.56">Innovator</tspan></tspan></text>
  <rect x="331.16" y="140.06" width="1284.09" height="117.48" style="opacity: 0.5;fill: url(#linear-gradient)"/>
  <rect x="331.16" y="282.31" width="1284.09" height="117.48" style="opacity: 0.5;fill: url(#linear-gradient-2)"/>
  <rect x="331.16" y="424.56" width="1284.09" height="117.48" style="opacity: 0.5;fill: url(#linear-gradient-3)"/>
  <rect x="331.16" y="566.81" width="1284.09" height="117.48" style="opacity: 0.5;fill: url(#linear-gradient-4)"/>
  <line x1="115.26" y1="696.56" x2="115.26" y2="272.56" style="fill: none;stroke: gray;stroke-miterlimit: 10"/>
  <text transform="translate(67.57 704.31) rotate(-90)" style="font-size: 31px;fill: gray;font-family: OpenSans, Open Sans">Individual Dimensions Score </text>
  <g id="Share_cloud_cloud_computing_human_robot" data-name="Share cloud cloud computing human robot">
    <circle cx="1287.28" cy="84.68" r="7" style="fill: #fff"/>
    <path d="M1234.08,64.44a13.89,13.89,0,0,0,4.2.64h7v-5.6h28v5.6h7a14,14,0,0,0,3.55-27.52,11.19,11.19,0,0,0-14.26-6.85,13.24,13.24,0,0,0-1.45.63,16.78,16.78,0,0,0-31,5.8,14,14,0,0,0-3,27.3Zm11.2-21.76h28v11.2h-28Z" style="fill: #fff"/>
    <circle cx="1241.08" cy="90.28" r="2.8" style="fill: #fff"/>
    <path d="M1242.48,79.08a2.82,2.82,0,0,0-2.8-2.8h-11.2a2.81,2.81,0,0,0-2.8,2.8v2.8h16.8Z" style="fill: #fff"/>
    <circle cx="1227.08" cy="90.28" r="2.8" style="fill: #fff"/>
    <path d="M1287.28,88.88a4.2,4.2,0,1,0-4.2-4.2A4.2,4.2,0,0,0,1287.28,88.88Zm0-5.6a1.4,1.4,0,1,1-1.4,1.4A1.4,1.4,0,0,1,1287.28,83.28Z" style="fill: #006afb"/>
    <path d="M1287.28,69.35V64.79a15.38,15.38,0,0,0-2.4-28.39,12.58,12.58,0,0,0-16.22-6.84,18.35,18.35,0,0,0-15-7.88,18.13,18.13,0,0,0-17.74,14.18,15.39,15.39,0,0,0-3.26,29.56v4.11a4.23,4.23,0,0,0-2.8,4v1.4h-1.4a4.21,4.21,0,0,0-4.2,4.2v1.4h-2.8a4.21,4.21,0,0,0-4.2,4.2v16.8a4.2,4.2,0,0,0,4.2,4.2h25.2a4.21,4.21,0,0,0,4.2-4.2V84.68a4.23,4.23,0,0,0-4.2-4.2h-2.8v-1.4a4.23,4.23,0,0,0-4.2-4.2h-1.4v-1.4a4.23,4.23,0,0,0-2.8-4V66.22a15.44,15.44,0,0,0,2.8.26h5.6v4.2a1.39,1.39,0,0,0,1.4,1.4h28a1.4,1.4,0,0,0,1.4-1.4v-4.2h5.6a15,15,0,0,0,4.2-.6v3.47a15.42,15.42,0,0,0-14,15.09l-2.73,8.19a1.41,1.41,0,0,0,1.33,1.85h4.2v4.2a1.39,1.39,0,0,0,1.4,1.4h4.2v4.2a1.39,1.39,0,0,0,1.4,1.4h11.2a1.4,1.4,0,0,0,1.4-1.4V98.39a15.39,15.39,0,0,0-5.6-29Zm-54.6,4.13a1.4,1.4,0,0,1,2.8,0v1.4h-2.8Zm14,9.8a1.4,1.4,0,0,1,1.4,1.4v16.8a1.4,1.4,0,0,1-1.4,1.4h-25.2a1.39,1.39,0,0,1-1.4-1.4V84.68a1.4,1.4,0,0,1,1.4-1.4Zm-7-5.6a1.4,1.4,0,0,1,1.4,1.4v1.4h-14v-1.4a1.4,1.4,0,0,1,1.4-1.4Zm32.2-8.4h-25.2v-8.4h25.2Zm-25.2-16.8v-8.4h25.2v8.4Zm22.4,2.8v2.8h-19.6v-2.8Zm11.2,8.4h-5.6v-4.2a1.4,1.4,0,0,0-1.4-1.4h-1.4v-2.8h1.4a1.4,1.4,0,0,0,1.4-1.4V42.68a1.4,1.4,0,0,0-1.4-1.4h-28a1.4,1.4,0,0,0-1.4,1.4v11.2a1.39,1.39,0,0,0,1.4,1.4h1.4v2.8h-1.4a1.4,1.4,0,0,0-1.4,1.4v4.2h-5.6a12.6,12.6,0,0,1-1-25.14,1.4,1.4,0,0,0,1.26-1.18,15.38,15.38,0,0,1,28.42-5.3,1.4,1.4,0,0,0,1.85.53A9.74,9.74,0,0,1,1282.5,38a1.38,1.38,0,0,0,1,.88,12.6,12.6,0,0,1-3.19,24.78Zm12.6,21a5.6,5.6,0,1,1-5.6-5.6A5.6,5.6,0,0,1,1292.88,84.68Zm-2,11.55a1.39,1.39,0,0,0-.84,1.28v5.37h-8.4v-4.2a1.4,1.4,0,0,0-1.4-1.4h-4.2v-4.2a1.4,1.4,0,0,0-1.4-1.4H1271l2.19-6.55a2.34,2.34,0,0,0,.07-.45,12.62,12.62,0,0,1,12.6-12.6v4.33a8.4,8.4,0,1,0,2.8,0v-4a12.6,12.6,0,0,1,2.24,23.83Z" style="fill: #006afb"/>
    <path d="M1227.08,94.48a4.2,4.2,0,1,0-4.2-4.2A4.2,4.2,0,0,0,1227.08,94.48Zm0-5.6a1.4,1.4,0,1,1-1.4,1.4A1.4,1.4,0,0,1,1227.08,88.88Z" style="fill: #006afb"/>
    <path d="M1241.08,94.48a4.2,4.2,0,1,0-4.2-4.2A4.2,4.2,0,0,0,1241.08,94.48Zm0-5.6a1.4,1.4,0,1,1-1.4,1.4A1.4,1.4,0,0,1,1241.08,88.88Z" style="fill: #006afb"/>
    <rect x="1229.88" y="97.28" width="8.4" height="2.8" style="fill: #006afb"/>
    <rect x="1224.28" y="97.28" width="2.8" height="2.8" style="fill: #006afb"/>
    <rect x="1241.08" y="97.28" width="2.8" height="2.8" style="fill: #006afb"/>
    <rect x="1253.68" y="91.68" width="2.8" height="2.8" style="fill: #006afb"/>
    <rect x="1262.08" y="91.68" width="2.8" height="2.8" style="fill: #006afb"/>
    <path d="M1282.76,41.62l-.71,2.71a7,7,0,0,1-1.77,13.75v2.8a9.79,9.79,0,0,0,2.48-19.26Z" style="fill: #006afb"/>
    <path d="M1231.28,51.08a7,7,0,0,1,6.41-7l-.23-2.79a9.8,9.8,0,0,0,.82,19.55v-2.8A7,7,0,0,1,1231.28,51.08Z" style="fill: #006afb"/>
    <rect x="1249.48" y="46.88" width="2.8" height="2.8" style="fill: #006afb"/>
    <rect x="1257.88" y="46.88" width="2.8" height="2.8" style="fill: #006afb"/>
    <rect x="1266.28" y="46.88" width="2.8" height="2.8" style="fill: #006afb"/>
    <rect x="1249.48" y="63.68" width="2.8" height="2.8" style="fill: #006afb"/>
    <rect x="1257.88" y="63.68" width="2.8" height="2.8" style="fill: #006afb"/>
    <rect x="1266.28" y="63.68" width="2.8" height="2.8" style="fill: #006afb"/>
    <rect x="1236.88" y="21.68" width="2.8" height="2.8" style="fill: #006afb"/>
    <rect x="1231.28" y="21.68" width="2.8" height="2.8" style="fill: #006afb"/>
    <rect x="1225.68" y="21.68" width="2.8" height="2.8" style="fill: #006afb"/>
    <path d="M1220.08,24.48h2.8v-2.8h-4.2a1.4,1.4,0,0,0-1.4,1.4v4.2h2.8Z" style="fill: #006afb"/>
    <rect x="1217.28" y="30.08" width="2.8" height="2.8" style="fill: #006afb"/>
    <rect x="1217.28" y="35.68" width="2.8" height="2.8" style="fill: #006afb"/>
    <rect x="1217.28" y="41.28" width="2.8" height="2.8" style="fill: #006afb"/>
    <rect x="1217.28" y="46.88" width="2.8" height="2.8" style="fill: #006afb"/>
    <rect x="1217.28" y="52.48" width="2.8" height="2.8" style="fill: #006afb"/>
    <rect x="1217.28" y="58.08" width="2.8" height="2.8" style="fill: #006afb"/>
    <rect x="1217.28" y="63.68" width="2.8" height="2.8" style="fill: #006afb"/>
    <rect x="1217.28" y="69.28" width="2.8" height="2.8" style="fill: #006afb"/>
    <rect x="1217.28" y="74.88" width="2.8" height="2.8" style="fill: #006afb"/>
    <rect x="1278.88" y="21.68" width="2.8" height="2.8" style="fill: #006afb"/>
    <rect x="1284.48" y="21.68" width="2.8" height="2.8" style="fill: #006afb"/>
    <rect x="1290.08" y="21.68" width="2.8" height="2.8" style="fill: #006afb"/>
    <path d="M1299.88,21.68h-4.2v2.8h2.8v2.8h2.8v-4.2A1.4,1.4,0,0,0,1299.88,21.68Z" style="fill: #006afb"/>
    <rect x="1298.48" y="30.08" width="2.8" height="2.8" style="fill: #006afb"/>
    <rect x="1298.48" y="35.68" width="2.8" height="2.8" style="fill: #006afb"/>
    <rect x="1298.48" y="41.28" width="2.8" height="2.8" style="fill: #006afb"/>
    <rect x="1298.48" y="46.88" width="2.8" height="2.8" style="fill: #006afb"/>
    <rect x="1298.48" y="52.48" width="2.8" height="2.8" style="fill: #006afb"/>
    <rect x="1298.48" y="58.08" width="2.8" height="2.8" style="fill: #006afb"/>
    <rect x="1298.48" y="63.68" width="2.8" height="2.8" style="fill: #006afb"/>
    <rect x="1298.48" y="69.28" width="2.8" height="2.8" style="fill: #006afb"/>
    <rect x="1273.28" y="21.68" width="2.8" height="2.8" style="fill: #006afb"/>
    <rect x="1267.68" y="21.68" width="2.8" height="2.8" style="fill: #006afb"/>
  </g>
  <g id="Browser_web_cloud_computing_cloud_website" data-name="Browser web cloud computing cloud website">
    <path d="M459.22,76.76a11.25,11.25,0,0,0-6.36-6.67V34.28h-61.6a2.82,2.82,0,0,0-2.8,2.8v8.4h56V70.11c-.32.12-.64.28-.95.43a16.78,16.78,0,0,0-31,5.8,14,14,0,0,0,1.16,27.94h42a14,14,0,0,0,3.56-27.52Z" style="fill: #fff"/>
    <rect x="392.66" y="38.48" width="2.8" height="2.8" style="fill: #006afb"/>
    <rect x="398.26" y="38.48" width="2.8" height="2.8" style="fill: #006afb"/>
    <rect x="403.86" y="38.48" width="2.8" height="2.8" style="fill: #006afb"/>
    <rect x="437.46" y="38.48" width="2.8" height="2.8" style="fill: #006afb"/>
    <rect x="401.06" y="27.28" width="2.8" height="2.8" style="fill: #006afb"/>
    <rect x="406.66" y="27.28" width="2.8" height="2.8" style="fill: #006afb"/>
    <rect x="412.26" y="27.28" width="2.8" height="2.8" style="fill: #006afb"/>
    <rect x="445.86" y="27.28" width="2.8" height="2.8" style="fill: #006afb"/>
    <path d="M460.27,75.6a12.52,12.52,0,0,0-6-6.37V25.88a4.21,4.21,0,0,0-4.2-4.2h-50.4a4.23,4.23,0,0,0-4.2,4.2v7h-4.2a4.23,4.23,0,0,0-4.2,4.2v42a4.21,4.21,0,0,0,4.2,4.2H400a15.23,15.23,0,0,0-1.73,7,15.41,15.41,0,0,0,15.4,15.4h42a15.4,15.4,0,0,0,4.61-30.08Zm-62-49.72a1.4,1.4,0,0,1,1.4-1.4h50.4a1.4,1.4,0,0,1,1.4,1.4v7h-53.2Zm47.35,9.8h5.85V68.23a12,12,0,0,0-5.6,0V37.08A3.94,3.94,0,0,0,445.61,35.68Zm-55.75,1.4a1.4,1.4,0,0,1,1.4-1.4h50.4a1.4,1.4,0,0,1,1.4,1.4v7h-53.2Zm1.4,43.4a1.4,1.4,0,0,1-1.4-1.4V46.88h53.2V67.53a18.13,18.13,0,0,0-31.73,7.53,15.49,15.49,0,0,0-9.5,5.42Zm64.4,22.4h-42a12.6,12.6,0,0,1-1-25.14,1.4,1.4,0,0,0,1.26-1.18,15.38,15.38,0,0,1,28.42-5.3,1.4,1.4,0,0,0,1.85.53,9.66,9.66,0,0,1,4.5-1.11,9.81,9.81,0,0,1,9.23,6.54,1.38,1.38,0,0,0,1,.88,12.6,12.6,0,0,1-3.2,24.78Z" style="fill: #006afb"/>
    <path d="M458.15,80.82l-.71,2.71a7,7,0,0,1-1.78,13.75v2.8a9.79,9.79,0,0,0,2.49-19.26Z" style="fill: #006afb"/>
    <path d="M406.66,90.28a7,7,0,0,1,6.42-7l-.23-2.79a9.8,9.8,0,0,0,.81,19.55v-2.8A7,7,0,0,1,406.66,90.28Z" style="fill: #006afb"/>
    <rect x="416.46" y="97.28" width="5.6" height="2.8" style="fill: #006afb"/>
  </g>
  <g id="Idea_arrow_cloud_server_creative" data-name="Idea arrow cloud server creative">
    <path d="M844.09,104.28h42a14,14,0,0,0,3.56-27.52A11.25,11.25,0,0,0,886,71.68a5.6,5.6,0,0,1-9.45-2.1,11.13,11.13,0,0,0-2.62,1,16.78,16.78,0,0,0-31,5.8,11.38,11.38,0,0,0-1.64.24v15.1H830.16A14,14,0,0,0,844.09,104.28Z" style="fill: #fff"/>
    <polygon points="873.49 59.48 873.49 65.08 876.29 65.08 887.49 65.08 890.29 65.08 890.29 59.48 881.89 59.48 873.49 59.48" style="fill: #fff"/>
    <path d="M890.29,46.88h2.8a11.2,11.2,0,0,0-4.8-9.19l-1.6,2.3A8.41,8.41,0,0,1,890.29,46.88Z" style="fill: #006afb"/>
    <path d="M885.08,36.15a11.1,11.1,0,0,0-3.19-.47v2.8a8.5,8.5,0,0,1,2.4.35Z" style="fill: #006afb"/>
    <rect x="880.49" y="21.68" width="2.8" height="5.6" style="fill: #006afb"/>
    <rect x="864.65" y="28.24" width="2.8" height="5.6" transform="translate(231.76 621.54) rotate(-45.01)" style="fill: #006afb"/>
    <rect x="856.69" y="45.48" width="5.6" height="2.8" style="fill: #006afb"/>
    <rect x="901.49" y="45.48" width="5.6" height="2.8" style="fill: #006afb"/>
    <rect x="894.93" y="29.64" width="5.6" height="2.8" transform="translate(240.99 643.88) rotate(-45)" style="fill: #006afb"/>
    <path d="M890.7,75.61a12.37,12.37,0,0,0-2.83-4.13,7,7,0,0,0,1-3.6v-1.4h1.4a1.4,1.4,0,0,0,1.4-1.4v-4.9a16.13,16.13,0,0,0,7-13.3,16.8,16.8,0,0,0-33.6,0,16.13,16.13,0,0,0,7,13.3v4.9a1.4,1.4,0,0,0,1.4,1.4h1.4v1.4a5.85,5.85,0,0,0,.07.72l-.5.16a18.18,18.18,0,0,0-31.77,3.32v-9.8h4.2a1.39,1.39,0,0,0,1.26-.8A1.36,1.36,0,0,0,848,60l-11.2-14a1.44,1.44,0,0,0-2-.16l-.16.16L823.4,60a1.36,1.36,0,0,0-.17,1.47,1.39,1.39,0,0,0,1.26.8h4.2v28c0,.52,0,1,.07,1.54a15.34,15.34,0,0,0,15.33,13.86h42a15.39,15.39,0,0,0,4.61-30.07ZM874,58.08a13.44,13.44,0,0,1-6.06-11.2,14,14,0,1,1,28,0,13.44,13.44,0,0,1-6.06,11.2h-6.54v-8.4h4.2v-2.8h-11.2v2.8h4.2v8.4Zm.94,5.6v-2.8h14v2.8Zm11.2,2.8v1.4a4.2,4.2,0,0,1-8.4,0v-1.4Zm-56-7H827.4l8.29-10.36L844,59.48h-2.69a1.4,1.4,0,0,0-1.4,1.4v29.4h-8.4V60.88A1.4,1.4,0,0,0,830.09,59.48Zm56,43.4h-42a12.55,12.55,0,0,1-12.28-9.8h2.9a9.73,9.73,0,0,0,9.38,7v-2.8a6.9,6.9,0,0,1-6.38-4.2h3.58a1.4,1.4,0,0,0,1.4-1.4V77.78l.35,0a1.41,1.41,0,0,0,1.27-1.18,15.38,15.38,0,0,1,28.42-5.3,1.41,1.41,0,0,0,1.84.53,11.12,11.12,0,0,1,1.23-.53A6.93,6.93,0,0,0,886,73.54a9.79,9.79,0,0,1,2.35,3.68,1.41,1.41,0,0,0,1,.9,12.59,12.59,0,0,1-3.21,24.76Z" style="fill: #006afb"/>
    <path d="M888.58,80.82l-.71,2.71a7,7,0,0,1-1.78,13.75v2.8a9.79,9.79,0,0,0,2.49-19.26Z" style="fill: #006afb"/>
    <rect x="846.89" y="97.28" width="5.6" height="2.8" style="fill: #006afb"/>
  </g>
</svg>
