<svg id="Layer_1" data-name="Layer 1" xmlns="http://www.w3.org/2000/svg" viewBox="0 0 289 289">
  <title>conclusion_icon</title>
  <path d="M119.13,57.89l-9.55,9.55L80.05,37.92l9.55-9.54Zm82.18-7.53L181.63,70l-9.55-9.55L201.61,31l9.55,9.55ZM140.84,38.78h13.61V52.7H140.83Zm13.33-13.89H140.55V11h13.6ZM81.81,103.32H67.91V89.72h13.9Zm13.88-13.6h13.89v13.6H95.69Zm89.74,13.6V89.72h13.89v13.6Zm27.78-13.6h13.86v13.6H213.18Zm-9.55,118.06c-.29,3.47-1.44,13-16.2,13H117.67a11.75,11.75,0,0,1-11.87-11.62V148.47c2-.57,35-10.42,35-40.81V84.79c2.89-.29,6.65,0,9.54,2,3.19,2.31,4.92,7.23,4.92,14.17v36.18h46a11.73,11.73,0,0,1,11.87,11.6V149ZM92.28,215.31a1.27,1.27,0,0,1-1.15,1.16H72.54a1.28,1.28,0,0,1-1.15-1.16V146.15A1.28,1.28,0,0,1,72.54,145H91.07a1.28,1.28,0,0,1,1.15,1.15Zm108.84-91.45H168.61V101.28q0-17.36-10.42-25.17c-10.71-7.81-24.6-3.77-26.05-3.18l-4.63,1.44V108c0,20.26-24,27.49-25.18,27.79l.29,1.44a14.38,14.38,0,0,0-11.57-5.49H72.54a14.83,14.83,0,0,0-14.77,14.76v68.86a14.82,14.82,0,0,0,14.76,14.76H91.05a15.79,15.79,0,0,0,9-2.89,24.88,24.88,0,0,0,17.65,7.23h69.77c16.78,0,27.78-9.25,29.51-24.59l9.55-59.32v-1.16a25.55,25.55,0,0,0-25.46-25.46Z" style="fill: #006afb"/>
</svg>
