<svg id="Layer_1" data-name="Layer 1" xmlns="http://www.w3.org/2000/svg" viewBox="0 0 542.93 419.39">
  <title>evaluating</title>
  <rect x="45.3" y="27.39" width="445.62" height="33" style="fill: #cce2fd"/>
  <rect x="45.3" y="97.39" width="445.62" height="25.51" style="fill: #cce2fd"/>
  <rect x="26.85" y="47.39" width="156.62" height="43" style="fill: #353535"/>
  <rect x="26.73" y="115.94" width="156.62" height="293" transform="translate(0.72 -0.29) rotate(0.16)" style="fill: #bdccd4;opacity: 0.2"/>
  <rect x="192.85" y="47.39" width="156.62" height="43" style="fill: #262626"/>
  <rect x="192.73" y="116.39" width="156.62" height="293" transform="translate(0.72 -0.74) rotate(0.16)" style="fill: #bdccd4;opacity: 0.2"/>
  <rect x="358.85" y="47.39" width="156.62" height="43" style="fill: #161616"/>
  <rect x="358.73" y="116.85" width="156.62" height="293" transform="translate(0.72 -1.19) rotate(0.16)" style="fill: #bdccd4;opacity: 0.2"/>
  <text transform="translate(165.59 16.11)" style="font-size: 14px;font-family: OpenSans-Bold, Open Sans;font-weight: 700">Evaluating Your Cloud Journey</text>
  <text transform="translate(94.88 72.06)" style="font-size: 15.642120361328125px;fill: #fff;font-family: OpenSans-Light, Open Sans;font-weight: 300">Move</text>
  <text transform="translate(266.23 72.06)" style="font-size: 15.642120361328125px;fill: #fff;font-family: OpenSans-Light, Open Sans;font-weight: 300">Build</text>
  <text transform="translate(417.66 72.06)" style="font-size: 15.642120361328125px;fill: #fff;font-family: OpenSans-Light, Open Sans;font-weight: 300">Manage</text>
  <g>
    <path d="M235.16,71h10.3V66h-10.3Zm10.59.58H234.87a.29.29,0,0,1-.29-.29V65.72a.29.29,0,0,1,.29-.29h10.88a.29.29,0,0,1,.29.29v5.61A.3.3,0,0,1,245.75,71.62Z" style="fill: #006afb"/>
    <path d="M240.31,76.84a.29.29,0,0,1-.29-.29V71.33a.29.29,0,1,1,.58,0v5.22A.3.3,0,0,1,240.31,76.84Z" style="fill: #006afb"/>
    <path d="M250.05,76.84H230.57a.29.29,0,0,1-.29-.29.28.28,0,0,1,.29-.29h19.48a.28.28,0,0,1,.29.29A.29.29,0,0,1,250.05,76.84Z" style="fill: #006afb"/>
    <path d="M240.31,79.31A.29.29,0,0,1,240,79V76.54a.29.29,0,1,1,.58,0V79A.29.29,0,0,1,240.31,79.31Z" style="fill: #006afb"/>
    <path d="M250.05,79.31a.28.28,0,0,1-.29-.29V76.54a.28.28,0,0,1,.29-.29.29.29,0,0,1,.29.29V79A.29.29,0,0,1,250.05,79.31Z" style="fill: #006afb"/>
    <path d="M230.57,79.31a.29.29,0,0,1-.29-.29V76.54a.29.29,0,1,1,.58,0V79A.29.29,0,0,1,230.57,79.31Z" style="fill: #006afb"/>
    <path d="M229.58,81h2V79.31h-2Zm2.27.58h-2.56a.28.28,0,0,1-.29-.29V79a.29.29,0,0,1,.29-.3h2.56a.29.29,0,0,1,.29.3v2.31A.28.28,0,0,1,231.85,81.62Z" style="fill: #006afb"/>
    <path d="M239.32,81h2V79.31h-2Zm2.27.58H239a.28.28,0,0,1-.29-.29V79a.29.29,0,0,1,.29-.3h2.56a.29.29,0,0,1,.29.3v2.31A.28.28,0,0,1,241.59,81.62Z" style="fill: #006afb"/>
    <path d="M249.06,81h2V79.31h-2Zm2.27.58h-2.56a.28.28,0,0,1-.29-.29V79a.29.29,0,0,1,.29-.3h2.56a.29.29,0,0,1,.29.3v2.31A.28.28,0,0,1,251.33,81.62Z" style="fill: #006afb"/>
    <path d="M236.85,68.25a.27.27,0,0,0-.27.27.28.28,0,1,0,.27-.27Zm0,1.13a.86.86,0,0,1,0-1.72.86.86,0,1,1,0,1.72Z" style="fill: #006afb"/>
    <path d="M240.31,68.25a.28.28,0,1,0,0,.55.28.28,0,0,0,0-.55Zm0,1.13a.86.86,0,1,1,.86-.86A.86.86,0,0,1,240.31,69.38Z" style="fill: #006afb"/>
    <path d="M243.77,68.25a.27.27,0,0,0-.27.27.28.28,0,0,0,.27.28.28.28,0,0,0,0-.55Zm0,1.13a.86.86,0,1,1,.86-.86A.86.86,0,0,1,243.77,69.38Z" style="fill: #006afb"/>
    <path d="M251.34,64.42a5.13,5.13,0,0,0-5.24-4.82,5.41,5.41,0,0,0-2.85.79,7.7,7.7,0,0,0-6.22-3,7.46,7.46,0,0,0-7.63,7.08,5.49,5.49,0,0,0-3.82,5.13A5.6,5.6,0,0,0,231.31,75h3.51a5.51,5.51,0,0,1-.06-.57c0-.13,0-.25,0-.38H231.3a4.64,4.64,0,0,1-4.76-4.49h0A4.54,4.54,0,0,1,230,65.23l.36-.1v-.48s0-.05,0-.07A6.5,6.5,0,0,1,237,58.29a6.74,6.74,0,0,1,5.7,3l.28.43.41-.31a4.4,4.4,0,0,1,2.68-.88,4.17,4.17,0,0,1,4.29,4,.22.22,0,0,1,0,.08l0,.47.37.1a4.54,4.54,0,0,1,3.47,4.32A4.65,4.65,0,0,1,249.43,74H246c0,.12,0,.25,0,.38a5.42,5.42,0,0,1,0,.57h3.41a5.59,5.59,0,0,0,5.72-5.44A5.5,5.5,0,0,0,251.34,64.42Z" style="fill: #006afb"/>
    <path d="M236.92,60.06a.48.48,0,0,0-.47-.48c-2.63,0-4.77,1.87-4.77,4.17a.48.48,0,1,0,1,0c0-1.77,1.7-3.21,3.81-3.21a.48.48,0,0,0,.47-.48Z" style="fill: #006afb"/>
  </g>
  <g>
    <path d="M81.77,64.08a5.13,5.13,0,0,0-5.24-4.82,5.41,5.41,0,0,0-2.85.79,7.7,7.7,0,0,0-6.22-3,7.48,7.48,0,0,0-7.64,7.08A5.5,5.5,0,0,0,56,69.21a5.59,5.59,0,0,0,5.72,5.44h3.51c0-.19,0-.38,0-.57s0-.25,0-.38H61.73A4.64,4.64,0,0,1,57,69.21h0a4.54,4.54,0,0,1,3.47-4.32l.36-.1v-.48s0,0,0-.07A6.5,6.5,0,0,1,67.46,58a6.72,6.72,0,0,1,5.7,3l.28.43.41-.31a4.4,4.4,0,0,1,2.68-.89,4.18,4.18,0,0,1,4.29,4,.22.22,0,0,1,0,.08l0,.47.37.1a4.55,4.55,0,0,1,3.47,4.32,4.65,4.65,0,0,1-4.77,4.49H76.44c0,.12,0,.25,0,.38a5.42,5.42,0,0,1,0,.57h3.41a5.59,5.59,0,0,0,5.72-5.44A5.5,5.5,0,0,0,81.77,64.08Z" style="fill: #006afb"/>
    <path d="M67.35,59.72a.48.48,0,0,0-.48-.48c-2.62,0-4.76,1.87-4.76,4.17a.48.48,0,1,0,1,0,3.54,3.54,0,0,1,3.8-3.21.48.48,0,0,0,.48-.48Z" style="fill: #006afb"/>
    <polygon points="69.8 70.48 69.8 78.71 71.01 78.71 71.01 70.48 72.4 71.87 73.26 71.01 70.4 68.15 67.55 71.01 68.41 71.87 69.8 70.48" style="fill: #006afb"/>
  </g>
  <g>
    <path d="M394.31,76.21l-.74-.73-.3.16a5.78,5.78,0,0,1-.7.29l-.33.1v1h-1.91V76l-.33-.1a3.75,3.75,0,0,1-.69-.29l-.31-.16-.74.73-1.35-1.35.74-.74-.17-.3a4.52,4.52,0,0,1-.29-.7l-.1-.33h-1V70.88h1l.1-.33a3.75,3.75,0,0,1,.29-.69l.17-.31-.74-.74,1.35-1.35.74.74.31-.16a4.06,4.06,0,0,1,.69-.29l.33-.11v-1h1.91v1l.33.11a3.83,3.83,0,0,1,.7.29l.3.16.74-.74,1.35,1.35-.74.74.17.31a4.43,4.43,0,0,1,.29.69l.1.34h1V72.8h-1l-.1.33a4.06,4.06,0,0,1-.29.69l-.17.31.74.74Zm-16.87-6a4.55,4.55,0,0,1,3.47-4.32l.37-.1,0-.48v-.07a6.51,6.51,0,0,1,6.68-6.3,6.73,6.73,0,0,1,5.7,3l.28.43.41-.31a4.38,4.38,0,0,1,2.67-.89,4.19,4.19,0,0,1,4.3,4,.22.22,0,0,1,0,.08l0,.47.37.1a4.55,4.55,0,0,1,3.47,4.32,4.65,4.65,0,0,1-4.77,4.49H396.6a.92.92,0,0,0-.26-.52l-.26-.25.09-.2h.36a1,1,0,0,0,1-.95V70.88a1,1,0,0,0-1-1h-.36l-.08-.2.26-.25a1,1,0,0,0,0-1.35L395,66.77a1,1,0,0,0-1.35,0l-.26.26-.2-.09v-.36a1,1,0,0,0-.95-1h-1.91a1,1,0,0,0-1,1v.36l-.19.09-.26-.26a1,1,0,0,0-1.35,0l-1.35,1.35a1,1,0,0,0,0,1.35l.25.26c0,.06,0,.13-.08.2H386a1,1,0,0,0-.95.95v1.91a1,1,0,0,0,.95,1h.36c0,.06.05.13.08.19l-.25.26a.87.87,0,0,0-.26.51h-3.74a4.65,4.65,0,0,1-4.77-4.49Zm22.91,5.44a5.59,5.59,0,0,0,5.72-5.44,5.5,5.5,0,0,0-3.82-5.13A5.13,5.13,0,0,0,397,60.27a5.4,5.4,0,0,0-2.84.79A7.71,7.71,0,0,0,387.94,58a7.48,7.48,0,0,0-7.64,7.08,5.48,5.48,0,0,0-3.81,5.13,5.59,5.59,0,0,0,5.72,5.44h4.13l1.22,1.23a1,1,0,0,0,1.36,0l.25-.26.2.09v.36a1,1,0,0,0,.95,1h1.91a1,1,0,0,0,1-1v-.36l.2-.09.25.26a1,1,0,0,0,1.35,0l1.24-1.23Z" style="fill: #006afb"/>
    <path d="M388.35,60.88a.48.48,0,0,0-.48-.48c-2.62,0-4.76,1.87-4.76,4.17a.48.48,0,1,0,.95,0c0-1.77,1.71-3.22,3.81-3.22a.48.48,0,0,0,.48-.47Z" style="fill: #006afb"/>
    <path d="M391.28,74.22a2.39,2.39,0,1,1,2.39-2.39A2.39,2.39,0,0,1,391.28,74.22Zm0-5.73a3.35,3.35,0,1,0,3.34,3.35A3.35,3.35,0,0,0,391.28,68.49Z" style="fill: #006afb"/>
  </g>
  <text transform="translate(217.97 41.57)" style="font-size: 10px;font-family: OpenSans, Open Sans">Assessment Dimensions</text>
  <text transform="translate(191.33 110.57)" style="font-size: 10px;font-family: OpenSans, Open Sans">Best In Class Vision (Nirvana State)</text>
  <text transform="translate(37.33 138.57)" style="font-size: 9px;font-family: OpenSans, Open Sans">Automated workload migrations<tspan x="0" y="15.8">Application audit and </tspan><tspan x="0" y="26.6">classifcation </tspan><tspan x="0" y="42.4">Cloud-frst strategy in place by </tspan><tspan x="0" y="53.2">application class</tspan><tspan x="0" y="69">Defned application </tspan><tspan x="0" y="79.8">modernization strategy and </tspan><tspan x="0" y="90.6">execution road map</tspan><tspan x="0" y="106.4">Business-outcomes-driven </tspan><tspan x="0" y="117.2">digital strategy</tspan><tspan x="0" y="133">Clear digital platform vision</tspan></text>
  <text transform="translate(202.33 138.57)" style="font-size: 9px;font-family: OpenSans, Open Sans">Cloud-native technologies used <tspan x="0" y="10.8">for application development: </tspan><tspan x="0" y="21.6">containers and container </tspan><tspan x="0" y="32.4">platforms, API and microservices </tspan><tspan x="0" y="43.2">and serverless technology </tspan><tspan x="0" y="59">Modern application </tspan><tspan x="0" y="69.8">development skills, capabilities, </tspan><tspan x="0" y="80.6">and methodologies established </tspan><tspan x="0" y="91.4">(for example, DevOps and agile)</tspan><tspan x="0" y="107.2">CI/CD pipelines and/or value </tspan><tspan x="0" y="118">stream management practices in </tspan><tspan x="0" y="128.8">place</tspan><tspan x="0" y="144.6">Delivering infrastructure as code</tspan><tspan x="0" y="160.4">Secure by design through </tspan><tspan x="0" y="171.2">(DevSecOps)</tspan><tspan x="0" y="187">)Legacy application full</tspan><tspan x="0" y="197.8">y transformed and modernized</tspan><tspan x="0" y="213.6"> Accelerated deploymen</tspan><tspan x="0" y="224.4">t frequenc</tspan></text>
  <text transform="translate(367.33 138.57)" style="font-size: 9px;font-family: OpenSans, Open Sans">Prevalent use of microservices, <tspan x="0" y="10.8">containers, APIs, cloud-native </tspan><tspan x="0" y="21.6">technologies</tspan><tspan x="0" y="37.4">Hybrid/multicloud architecture</tspan><tspan x="0" y="53.2">Using vendor-agnostic </tspan><tspan x="0" y="64">integrated tools (&quot;single pane of </tspan><tspan x="0" y="74.8">glass&quot;)</tspan><tspan x="0" y="90.6">Transparency/visibility of </tspan><tspan x="0" y="101.4">workloads and datafows</tspan><tspan x="0" y="117.2">Highly dynamic — fully </tspan><tspan x="0" y="128">automated (workload </tspan><tspan x="0" y="138.8">portability)</tspan><tspan x="0" y="154.6">Governance structure in place </tspan><tspan x="0" y="165.4">for proper self-service use (and </tspan><tspan x="0" y="176.2">security)</tspan><tspan x="0" y="192">Organizational structures and </tspan><tspan x="0" y="202.8">competencies revolve around </tspan><tspan x="0" y="213.6">cloud</tspan><tspan x="0" y="229.4">Outcomes: beyond </tspan><tspan x="0" y="240.2">cost/resource utilization — i.e., </tspan><tspan x="0" y="251">business agility, time to market, </tspan><tspan x="0" y="261.8">pace of innovation</tspan></text>
</svg>
