<?xml version="1.0" encoding="utf-8"?>
<!-- Generator: Adobe Illustrator 24.0.1, SVG Export Plug-In . SVG Version: 6.00 Build 0)  -->
<svg version="1.1" id="Layer_1" xmlns="http://www.w3.org/2000/svg" xmlns:xlink="http://www.w3.org/1999/xlink" x="0px" y="0px"
	 viewBox="0 0 50 21" style="enable-background:new 0 0 50 21;" xml:space="preserve">
<style type="text/css">
	.st0{fill:#0062FF;}
</style>
<title>Group</title>
<desc>Created with Sketch.</desc>
<g id="Desktop">
	<g id="Icons-Copy-4" transform="translate(-352.000000, -869.000000)">
		<g id="Group" transform="translate(352.000000, 869.000000)">
			<polygon id="Rectangle-path" class="st0" points="0,18.8 9.7,18.8 9.7,20.2 0,20.2 			"/>
			<polygon id="Rectangle-path_1_" class="st0" points="0,16.1 9.7,16.1 9.7,17.5 0,17.5 			"/>
			<polygon id="Rectangle-path_2_" class="st0" points="2.8,13.4 6.9,13.4 6.9,14.8 2.8,14.8 			"/>
			<polygon id="Rectangle-path_3_" class="st0" points="2.8,10.7 6.9,10.7 6.9,12.2 2.8,12.2 			"/>
			<polygon id="Rectangle-path_4_" class="st0" points="2.8,8.1 6.9,8.1 6.9,9.5 2.8,9.5 			"/>
			<polygon id="Rectangle-path_5_" class="st0" points="2.8,5.4 6.9,5.4 6.9,6.8 2.8,6.8 			"/>
			<rect id="Rectangle-path_6_" y="2.7" class="st0" width="9.7" height="1.4"/>
			<rect id="Rectangle-path_7_" y="0" class="st0" width="9.7" height="1.4"/>
			<path id="Shape" class="st0" d="M11.1,17.5h14.9c0.3-0.4,0.4-0.9,0.6-1.4H11.1V17.5z"/>
			<path id="Shape_1_" class="st0" d="M24.9,10.7h-11v1.4h12.2C25.7,11.6,25.4,11.1,24.9,10.7z"/>
			<path id="Shape_2_" class="st0" d="M13.9,8.1v1.4h11c0.5-0.4,0.9-0.9,1.2-1.4H13.9z"/>
			<path id="Shape_3_" class="st0" d="M26.1,2.7H11.1v1.4h15.5C26.5,3.6,26.3,3.1,26.1,2.7z"/>
			<path id="Shape_4_" class="st0" d="M21.5,0H11.1v1.4H25C24.1,0.5,22.8,0,21.5,0z"/>
			<rect id="Rectangle-path_8_" x="13.9" y="5.4" class="st0" width="4.2" height="1.4"/>
			<path id="Shape_5_" class="st0" d="M22.2,6.8h4.4c0.1-0.4,0.2-0.9,0.2-1.4h-4.5V6.8z"/>
			<polygon id="Rectangle-path_9_" class="st0" points="13.9,13.4 18.1,13.4 18.1,14.8 13.9,14.8 			"/>
			<path id="Shape_6_" class="st0" d="M22.2,13.4v1.4h4.5c0-0.5-0.1-1-0.2-1.4H22.2z"/>
			<path id="Shape_7_" class="st0" d="M11.1,20.2l10.4,0c1.4,0,2.6-0.5,3.6-1.4H11.1V20.2z"/>
			<polygon id="Rectangle-path_10_" class="st0" points="27.8,18.8 34.7,18.8 34.7,20.2 27.8,20.2 			"/>
			<polygon id="Rectangle-path_11_" class="st0" points="27.8,16.1 34.7,16.1 34.7,17.5 27.8,17.5 			"/>
			<polygon id="Rectangle-path_12_" class="st0" points="30.6,13.4 34.7,13.4 34.7,14.8 30.6,14.8 			"/>
			<polygon id="Rectangle-path_13_" class="st0" points="30.6,10.7 34.7,10.7 34.7,12.2 30.6,12.2 			"/>
			<polygon id="Shape_8_" class="st0" points="36.7,2.7 27.8,2.7 27.8,4.1 37.1,4.1 			"/>
			<polygon id="Shape_9_" class="st0" points="35.7,0 27.8,0 27.8,1.4 36.2,1.4 			"/>
			<polygon id="Rectangle-path_14_" class="st0" points="43.1,18.8 50,18.8 50,20.2 43.1,20.2 			"/>
			<polygon id="Rectangle-path_15_" class="st0" points="43.1,16.1 50,16.1 50,17.5 43.1,17.5 			"/>
			<polygon id="Rectangle-path_16_" class="st0" points="43.1,13.4 47.2,13.4 47.2,14.8 43.1,14.8 			"/>
			<polygon id="Rectangle-path_17_" class="st0" points="43.1,10.7 47.2,10.7 47.2,12.2 43.1,12.2 			"/>
			<polygon id="Shape_10_" class="st0" points="43.1,9.5 47.2,9.5 47.2,8.1 43.1,8.1 43.1,8.1 39.3,8.1 38.9,9.2 38.5,8.1 34.7,8.1 
				34.7,8.1 30.6,8.1 30.6,9.5 34.7,9.5 34.7,8.2 35.2,9.5 42.6,9.5 43.1,8.2 			"/>
			<polygon id="Shape_11_" class="st0" points="47.2,5.4 40.2,5.4 39.7,6.8 47.2,6.8 			"/>
			<polygon id="Shape_12_" class="st0" points="42,0 41.6,1.4 50,1.4 50,0 			"/>
			<polygon id="Shape_13_" class="st0" points="38.9,20.2 39.4,18.8 38.4,18.8 			"/>
			<polygon id="Shape_14_" class="st0" points="38,17.5 39.8,17.5 40.3,16.1 37.5,16.1 			"/>
			<polygon id="Shape_15_" class="st0" points="37,14.8 40.7,14.8 41.2,13.4 36.5,13.4 			"/>
			<polygon id="Shape_16_" class="st0" points="36.1,12.2 41.7,12.2 42.2,10.7 35.6,10.7 			"/>
			<polygon id="Shape_17_" class="st0" points="30.6,6.8 38.1,6.8 37.6,5.4 30.6,5.4 			"/>
			<polygon id="Shape_18_" class="st0" points="40.6,4.1 50,4.1 50,2.7 41.1,2.7 			"/>
		</g>
	</g>
</g>
</svg>
