<svg id="Layer_1" data-name="Layer 1" xmlns="http://www.w3.org/2000/svg" viewBox="0 0 289 177">
  <title>manage_icon</title>
  <g>
    <path d="M165.91,141.84l-5.31-5.31-2.21,1.17a33.09,33.09,0,0,1-5,2.09l-2.38.75v7.52h-13.7v-7.52l-2.39-.75a26.55,26.55,0,0,1-5-2.09l-2.21-1.17-5.31,5.31-9.69-9.7,5.3-5.31-1.17-2.21a29,29,0,0,1-2.09-5l-.75-2.38h-7.52V103.56h7.52l.75-2.38a26.28,26.28,0,0,1,2.09-5L118.06,94l-5.3-5.31L122.45,79l5.31,5.35L130,83.17a29,29,0,0,1,5-2.09l2.39-.75V72.8H151v7.53l2.38.75a26.64,26.64,0,0,1,5,2.09l2.21,1.17L165.91,79l9.69,9.7L170.3,94l1.17,2.22a29.73,29.73,0,0,1,2.08,5l.76,2.38h7.52v13.71h-7.52l-.76,2.38a27.18,27.18,0,0,1-2.08,5l-1.17,2.22,5.3,5.3ZM44.85,98.8c0-14.34,10.24-27.08,24.91-31l2.63-.71-.12-3.47c0-.16,0-.33,0-.5C72.22,38.25,93.74,18,120.15,18c16.8,0,32.09,8.11,40.91,21.69l2,3.09L166,40.55a31.52,31.52,0,0,1,19.22-6.36c17,0,30.8,13,30.8,29a2.93,2.93,0,0,1,0,.59l-.17,3.38,2.68.71c14.66,3.89,24.9,16.63,24.9,31,0,17.76-15.38,32.22-34.22,32.22H182.33a6.93,6.93,0,0,0-1.88-3.68l-1.84-1.84c.21-.46.42-1,.59-1.42h2.59a6.85,6.85,0,0,0,6.85-6.85V103.52a6.88,6.88,0,0,0-6.85-6.85h-2.55c-.17-.46-.38-1-.59-1.42l1.84-1.84a6.86,6.86,0,0,0,0-9.7l-9.73-9.65a6.87,6.87,0,0,0-9.7,0l-1.84,1.84c-.46-.21-1-.42-1.42-.59V72.72A6.88,6.88,0,0,0,151,65.87H137.24a6.85,6.85,0,0,0-6.85,6.85v2.59c-.46.17-1,.38-1.42.59l-1.84-1.84a6.86,6.86,0,0,0-9.69,0l-9.7,9.69a6.87,6.87,0,0,0,0,9.7l1.84,1.84c-.21.46-.42,1-.58,1.42h-2.59a6.86,6.86,0,0,0-6.86,6.85v13.71a6.89,6.89,0,0,0,6.86,6.85H109c.16.46.37,1,.58,1.42l-1.84,1.84a6.66,6.66,0,0,0-1.88,3.68H79C60.19,131,44.85,116.56,44.85,98.8ZM209.2,137.87c22.65,0,41.07-17.51,41.07-39,0-16.55-11.15-31.34-27.41-36.81-.67-19.23-17.3-34.65-37.65-34.65a38.66,38.66,0,0,0-20.43,5.73,55.29,55.29,0,0,0-44.63-21.94C90.36,11.17,66,33.86,65.37,62,49.16,67.46,38,82.25,38,98.8c0,21.52,18.43,39,41.08,39h29.58l8.82,8.86a6.86,6.86,0,0,0,9.69,0l1.84-1.84c.46.21,1,.42,1.42.58V148a6.89,6.89,0,0,0,6.85,6.86H151a6.86,6.86,0,0,0,6.85-6.86v-2.59c.46-.16,1-.37,1.42-.58l1.84,1.84a6.87,6.87,0,0,0,9.7,0l8.86-8.86H209.2Z" style="fill: #006afb"/>
    <path d="M123.12,31.77a3.45,3.45,0,0,0-3.43-3.43c-18.84,0-34.18,13.42-34.18,29.92a3.43,3.43,0,1,0,6.85,0c0-12.7,12.25-23.06,27.33-23.06a3.45,3.45,0,0,0,3.43-3.43Z" style="fill: #006afb"/>
    <path d="M144.14,127.5a17.13,17.13,0,1,1,17.13-17.13A17.16,17.16,0,0,1,144.14,127.5Zm0-41.07a24,24,0,1,0,24,24A24,24,0,0,0,144.14,86.43Z" style="fill: #006afb"/>
  </g>
</svg>
