<svg id="Layer_1" data-name="Layer 1" xmlns="http://www.w3.org/2000/svg" viewBox="0 0 289 188">
  <title>move_icon</title>
  <g>
    <path d="M222.86,62.78c-.67-19.22-17.3-34.64-37.65-34.64a38.65,38.65,0,0,0-20.43,5.72,55.29,55.29,0,0,0-44.63-21.94C90.36,11.92,66,34.61,65.37,62.78,49.16,68.21,38,83,38,99.55c0,21.52,18.43,39,41.08,39h25.18c-.19-1.34-.34-2.7-.4-4.08,0-.9,0-1.8,0-2.69H79c-18.85,0-34.19-14.5-34.19-32.26h0c0-14.33,10.24-27.08,24.91-31l2.63-.71-.13-3.46c0-.17,0-.34,0-.51,0-24.9,21.52-45.17,47.93-45.17,16.8,0,32.09,8.11,40.91,21.69l2,3.09L166,41.3A31.51,31.51,0,0,1,185.21,35c17,0,30.8,13,30.8,29a2.88,2.88,0,0,1,0,.58l-.17,3.39,2.68.71c14.66,3.88,24.9,16.63,24.9,31,0,17.76-15.38,32.22-34.22,32.22H184.59c.1.91.2,1.81.25,2.73a30.71,30.71,0,0,1-.11,4.08H209.2v0c22.65,0,41.07-17.51,41.07-39C250.27,83,239.12,68.25,222.86,62.78Z" style="fill: #006afb"/>
    <path d="M119.39,31.48A3.45,3.45,0,0,0,116,28.05C97.12,28.05,81.78,41.46,81.78,58a3.43,3.43,0,1,0,6.85,0c0-12.7,12.25-23.07,27.33-23.07a3.44,3.44,0,0,0,3.43-3.42Z" style="fill: #006afb"/>
    <polygon points="136.93 108.65 136.93 167.72 145.63 167.72 145.63 108.65 155.61 118.63 161.76 112.47 141.28 91.99 120.79 112.47 126.95 118.63 136.93 108.65" style="fill: #006afb"/>
  </g>
</svg>
