<svg id="Layer_1" data-name="Layer 1" xmlns="http://www.w3.org/2000/svg" viewBox="0 0 543 404">
  <title>rankings</title>
  <text transform="translate(24.9 217.33)" style="font-size: 14px;font-family: OpenSans-Bold, Open Sans;font-weight: 700">Cloud Experimenter</text>
  <text transform="translate(193.84 156.42)" style="font-size: 14px;font-family: OpenSans-Bold, Open Sans;font-weight: 700">Cloud Optimizer</text>
  <text transform="translate(370.02 109.54)" style="font-size: 14px;font-family: OpenSans-Bold, Open Sans;font-weight: 700">Cloud Innovator</text>
  <g id="Share_cloud_cloud_computing_human_robot" data-name="Share cloud cloud computing human robot">
    <circle cx="459.69" cy="50.42" r="4.9" style="fill: #fff"/>
    <path d="M422.45,36.25a9.75,9.75,0,0,0,2.94.45h4.9V32.78h19.6V36.7h4.9a9.65,9.65,0,0,0,3.92-.83,9.79,9.79,0,0,0-1.43-18.44,7.83,7.83,0,0,0-10-4.79,7.65,7.65,0,0,0-1,.44,11.74,11.74,0,0,0-21.7,4.06,9.8,9.8,0,0,0-2.13,19.11ZM430.29,21h19.6v7.84h-19.6Z" style="fill: #fff"/>
    <circle cx="427.35" cy="54.34" r="1.96" style="fill: #fff"/>
    <path d="M428.33,46.5a2,2,0,0,0-2-2h-7.84a2,2,0,0,0-2,2v2h11.76Z" style="fill: #fff"/>
    <circle cx="417.55" cy="54.34" r="1.96" style="fill: #fff"/>
    <path d="M459.69,53.36a2.94,2.94,0,1,0-2.94-2.94A2.94,2.94,0,0,0,459.69,53.36Zm0-3.92a1,1,0,1,1-1,1A1,1,0,0,1,459.69,49.44Z" style="fill: #006afb"/>
    <path d="M459.69,39.69v-3.2A10.76,10.76,0,0,0,458,16.62a8.8,8.8,0,0,0-11.35-4.79,12.74,12.74,0,0,0-22.91,4.41,10.77,10.77,0,0,0-2.28,20.69v2.88a3,3,0,0,0-2,2.77v1h-1a2.94,2.94,0,0,0-2.94,2.94v1h-2a2.94,2.94,0,0,0-2.94,2.94V62.18a3,3,0,0,0,2.94,2.94h17.64a3,3,0,0,0,2.94-2.94V50.42a2.94,2.94,0,0,0-2.94-2.94h-2v-1a2.94,2.94,0,0,0-2.94-2.94h-1v-1a3,3,0,0,0-2-2.77V37.49a11.72,11.72,0,0,0,2,.19h3.92v2.94a1,1,0,0,0,1,1h19.6a1,1,0,0,0,1-1V37.68h3.92a10.88,10.88,0,0,0,2.94-.42v2.43a10.78,10.78,0,0,0-9.8,10.56L446,56a1,1,0,0,0,.93,1.3h2.94v2.94a1,1,0,0,0,1,1h2.94v2.94a1,1,0,0,0,1,1h7.84a1,1,0,0,0,1-1V60a10.77,10.77,0,0,0-3.92-20.32Zm-38.22,2.89a1,1,0,0,1,2,0v1h-2Zm9.8,6.86a1,1,0,0,1,1,1V62.18a1,1,0,0,1-1,1H413.63a1,1,0,0,1-1-1V50.42a1,1,0,0,1,1-1Zm-4.9-3.92a1,1,0,0,1,1,1v1h-9.8v-1a1,1,0,0,1,1-1Zm22.54-5.88H431.27V33.76h17.64ZM431.27,27.88V22h17.64v5.88Zm15.68,2v2H433.23v-2Zm7.84,5.88h-3.92V32.78a1,1,0,0,0-1-1h-1v-2h1a1,1,0,0,0,1-1V21a1,1,0,0,0-1-1h-19.6a1,1,0,0,0-1,1v7.84a1,1,0,0,0,1,1h1v2h-1a1,1,0,0,0-1,1v2.94h-3.92a8.82,8.82,0,0,1-.73-17.6,1,1,0,0,0,.89-.83,10.76,10.76,0,0,1,19.89-3.71,1,1,0,0,0,1.29.37,6.86,6.86,0,0,1,9.23,2.9,7.19,7.19,0,0,1,.39.9,1,1,0,0,0,.67.62,8.82,8.82,0,0,1-2.23,17.35Zm8.82,14.7a3.92,3.92,0,1,1-3.92-3.92A3.93,3.93,0,0,1,463.61,50.42Zm-1.37,8.08a1,1,0,0,0-.59.89v3.77h-5.88V60.22a1,1,0,0,0-1-1h-2.94V56.3a1,1,0,0,0-1-1h-2.56l1.53-4.59a1.12,1.12,0,0,0,.05-.31,8.83,8.83,0,0,1,8.82-8.82v3a5.88,5.88,0,1,0,2,0v-2.8a8.82,8.82,0,0,1,1.57,16.68Z" style="fill: #006afb"/>
    <path d="M417.55,57.28a2.94,2.94,0,1,0-2.94-2.94A2.94,2.94,0,0,0,417.55,57.28Zm0-3.92a1,1,0,1,1-1,1A1,1,0,0,1,417.55,53.36Z" style="fill: #006afb"/>
    <path d="M427.35,57.28a2.94,2.94,0,1,0-2.94-2.94A2.94,2.94,0,0,0,427.35,57.28Zm0-3.92a1,1,0,1,1-1,1A1,1,0,0,1,427.35,53.36Z" style="fill: #006afb"/>
    <rect x="419.51" y="59.24" width="5.88" height="1.96" style="fill: #006afb"/>
    <rect x="415.59" y="59.24" width="1.96" height="1.96" style="fill: #006afb"/>
    <rect x="427.35" y="59.24" width="1.96" height="1.96" style="fill: #006afb"/>
    <rect x="436.17" y="55.32" width="1.96" height="1.96" style="fill: #006afb"/>
    <rect x="442.05" y="55.32" width="1.96" height="1.96" style="fill: #006afb"/>
    <path d="M456.53,20.27l-.5,1.9a4.89,4.89,0,0,1-1.24,9.63v2a6.86,6.86,0,0,0,1.74-13.49Z" style="fill: #006afb"/>
    <path d="M420.49,26.9A4.92,4.92,0,0,1,425,22l-.16-1.95a6.86,6.86,0,0,0,.57,13.69v-2A4.91,4.91,0,0,1,420.49,26.9Z" style="fill: #006afb"/>
    <rect x="433.23" y="23.96" width="1.96" height="1.96" style="fill: #006afb"/>
    <rect x="439.11" y="23.96" width="1.96" height="1.96" style="fill: #006afb"/>
    <rect x="444.99" y="23.96" width="1.96" height="1.96" style="fill: #006afb"/>
    <rect x="433.23" y="35.72" width="1.96" height="1.96" style="fill: #006afb"/>
    <rect x="439.11" y="35.72" width="1.96" height="1.96" style="fill: #006afb"/>
    <rect x="444.99" y="35.72" width="1.96" height="1.96" style="fill: #006afb"/>
    <rect x="424.41" y="6.32" width="1.96" height="1.96" style="fill: #006afb"/>
    <rect x="420.49" y="6.32" width="1.96" height="1.96" style="fill: #006afb"/>
    <rect x="416.57" y="6.32" width="1.96" height="1.96" style="fill: #006afb"/>
    <path d="M412.65,8.28h2v-2h-2.94a1,1,0,0,0-1,1v2.94h2Z" style="fill: #006afb"/>
    <rect x="410.69" y="12.2" width="1.96" height="1.96" style="fill: #006afb"/>
    <rect x="410.69" y="16.12" width="1.96" height="1.96" style="fill: #006afb"/>
    <rect x="410.69" y="20.04" width="1.96" height="1.96" style="fill: #006afb"/>
    <rect x="410.69" y="23.96" width="1.96" height="1.96" style="fill: #006afb"/>
    <rect x="410.69" y="27.88" width="1.96" height="1.96" style="fill: #006afb"/>
    <rect x="410.69" y="31.8" width="1.96" height="1.96" style="fill: #006afb"/>
    <rect x="410.69" y="35.72" width="1.96" height="1.96" style="fill: #006afb"/>
    <rect x="410.69" y="39.64" width="1.96" height="1.96" style="fill: #006afb"/>
    <rect x="410.69" y="43.56" width="1.96" height="1.96" style="fill: #006afb"/>
    <rect x="453.81" y="6.32" width="1.96" height="1.96" style="fill: #006afb"/>
    <rect x="457.73" y="6.32" width="1.96" height="1.96" style="fill: #006afb"/>
    <rect x="461.65" y="6.32" width="1.96" height="1.96" style="fill: #006afb"/>
    <path d="M468.51,6.32h-2.94v2h2v2h2V7.3A1,1,0,0,0,468.51,6.32Z" style="fill: #006afb"/>
    <rect x="467.53" y="12.2" width="1.96" height="1.96" style="fill: #006afb"/>
    <rect x="467.53" y="16.12" width="1.96" height="1.96" style="fill: #006afb"/>
    <rect x="467.53" y="20.04" width="1.96" height="1.96" style="fill: #006afb"/>
    <rect x="467.53" y="23.96" width="1.96" height="1.96" style="fill: #006afb"/>
    <rect x="467.53" y="27.88" width="1.96" height="1.96" style="fill: #006afb"/>
    <rect x="467.53" y="31.8" width="1.96" height="1.96" style="fill: #006afb"/>
    <rect x="467.53" y="35.72" width="1.96" height="1.96" style="fill: #006afb"/>
    <rect x="467.53" y="39.64" width="1.96" height="1.96" style="fill: #006afb"/>
    <rect x="449.89" y="6.32" width="1.96" height="1.96" style="fill: #006afb"/>
    <rect x="445.97" y="6.32" width="1.96" height="1.96" style="fill: #006afb"/>
  </g>
  <g id="Browser_web_cloud_computing_cloud_website" data-name="Browser web cloud computing cloud website">
    <path d="M114,146.52a7.89,7.89,0,0,0-4.45-4.67V116.79H66.41a2,2,0,0,0-2,2v5.88h39.2v17.23c-.22.09-.45.2-.66.31a11.74,11.74,0,0,0-21.71,4.06,9.8,9.8,0,0,0,.81,19.56h29.4A9.8,9.8,0,0,0,114,146.52Z" style="fill: #fff"/>
    <rect x="67.39" y="119.73" width="1.96" height="1.96" style="fill: #006afb"/>
    <rect x="71.31" y="119.73" width="1.96" height="1.96" style="fill: #006afb"/>
    <rect x="75.23" y="119.73" width="1.96" height="1.96" style="fill: #006afb"/>
    <rect x="98.75" y="119.73" width="1.96" height="1.96" style="fill: #006afb"/>
    <rect x="73.27" y="111.89" width="1.96" height="1.96" style="fill: #006afb"/>
    <rect x="77.19" y="111.89" width="1.96" height="1.96" style="fill: #006afb"/>
    <rect x="81.11" y="111.89" width="1.96" height="1.96" style="fill: #006afb"/>
    <rect x="104.63" y="111.89" width="1.96" height="1.96" style="fill: #006afb"/>
    <path d="M114.72,145.71a8.8,8.8,0,0,0-4.21-4.46V110.91a2.94,2.94,0,0,0-2.94-2.94H72.29a2.94,2.94,0,0,0-2.94,2.94v4.9H66.41a2.94,2.94,0,0,0-2.94,2.94v29.4a3,3,0,0,0,2.94,2.94h6.11a10.73,10.73,0,0,0,9.57,15.68h29.4a10.78,10.78,0,0,0,3.23-21.06Zm-43.41-34.8a1,1,0,0,1,1-1h35.28a1,1,0,0,1,1,1v4.9H71.31Zm33.15,6.86h4.09v22.78a8.25,8.25,0,0,0-3.92,0V118.75A2.93,2.93,0,0,0,104.46,117.77Zm-39,1a1,1,0,0,1,1-1h35.28a1,1,0,0,1,1,1v4.9H65.43Zm1,30.38a1,1,0,0,1-1-1V125.61h37.24v14.45a12.7,12.7,0,0,0-22.21,5.27,10.87,10.87,0,0,0-6.65,3.8Zm45.08,15.68H82.09a8.82,8.82,0,0,1-.72-17.6,1,1,0,0,0,.88-.83,10.76,10.76,0,0,1,19.89-3.71,1,1,0,0,0,1.3.37,6.64,6.64,0,0,1,3.15-.77,6.85,6.85,0,0,1,6.46,4.57,1,1,0,0,0,.68.62,8.82,8.82,0,0,1-2.24,17.35Z" style="fill: #006afb"/>
    <path d="M113.23,149.36l-.49,1.9a4.9,4.9,0,0,1-1.25,9.63v2a6.86,6.86,0,0,0,1.74-13.49Z" style="fill: #006afb"/>
    <path d="M77.19,156a4.93,4.93,0,0,1,4.49-4.88l-.16-2a6.86,6.86,0,0,0,.57,13.69v-2A4.92,4.92,0,0,1,77.19,156Z" style="fill: #006afb"/>
    <rect x="84.05" y="160.89" width="3.92" height="1.96" style="fill: #006afb"/>
  </g>
  <g id="Idea_arrow_cloud_server_creative" data-name="Idea arrow cloud server creative">
    <path d="M249.2,107.78h29.4a9.8,9.8,0,0,0,2.49-19.27A7.91,7.91,0,0,0,278.54,85a3.91,3.91,0,0,1-6.61-1.47,7.9,7.9,0,0,0-1.83.68,11.74,11.74,0,0,0-21.71,4.06,8.84,8.84,0,0,0-1.15.16V99h-7.79A9.82,9.82,0,0,0,249.2,107.78Z" style="fill: #fff"/>
    <polygon points="269.78 76.42 269.78 80.34 271.74 80.34 279.58 80.34 281.54 80.34 281.54 76.42 275.66 76.42 269.78 76.42" style="fill: #fff"/>
    <path d="M281.54,67.6h2a7.84,7.84,0,0,0-3.36-6.44L279,62.77A5.88,5.88,0,0,1,281.54,67.6Z" style="fill: #006afb"/>
    <path d="M277.9,60.08a7.73,7.73,0,0,0-2.24-.32v2a6,6,0,0,1,1.68.24Z" style="fill: #006afb"/>
    <rect x="274.68" y="49.96" width="1.96" height="3.92" style="fill: #006afb"/>
    <rect x="263.6" y="54.55" width="1.96" height="3.92" transform="translate(37.55 203.65) rotate(-45.01)" style="fill: #006afb"/>
    <rect x="258.02" y="66.62" width="3.92" height="1.96" style="fill: #006afb"/>
    <rect x="289.38" y="66.62" width="3.92" height="1.96" style="fill: #006afb"/>
    <rect x="284.79" y="55.53" width="3.92" height="1.96" transform="translate(44.03 219.31) rotate(-45)" style="fill: #006afb"/>
    <path d="M281.83,87.71a8.75,8.75,0,0,0-2-2.9,4.81,4.81,0,0,0,.71-2.51v-1h1a1,1,0,0,0,1-1V76.91a11.29,11.29,0,0,0,4.9-9.31,11.76,11.76,0,1,0-23.52,0,11.32,11.32,0,0,0,4.9,9.31v3.43a1,1,0,0,0,1,1h1v1c0,.16,0,.33.05.5l-.35.11a12.72,12.72,0,0,0-22.24,2.33V78.38h2.94a1,1,0,0,0,.77-1.59L244.09,67a1,1,0,0,0-1.42-.11l-.11.11-7.84,9.8a1,1,0,0,0-.12,1,1,1,0,0,0,.88.56h2.94V98c0,.36,0,.71.05,1.07a10.75,10.75,0,0,0,10.73,9.71h29.4a10.77,10.77,0,0,0,3.23-21.05ZM270.11,75.44a9.43,9.43,0,0,1-4.25-7.84,9.8,9.8,0,1,1,19.6,0,9.42,9.42,0,0,1-4.24,7.84h-4.58V69.56h2.94v-2h-7.84v2h2.94v5.88Zm.65,3.92v-2h9.8v2Zm7.84,2v1a2.94,2.94,0,1,1-5.88,0v-1Zm-39.2-4.9h-1.88l5.8-7.26,5.8,7.26h-1.88a1,1,0,0,0-1,1V98h-5.88V77.4A1,1,0,0,0,239.4,76.42Zm39.2,30.38H249.2a8.78,8.78,0,0,1-8.59-6.86h2a6.82,6.82,0,0,0,6.56,4.9v-2a4.88,4.88,0,0,1-4.47-2.94h2.51a1,1,0,0,0,1-1V89.22l.25,0a1,1,0,0,0,.89-.83,10.76,10.76,0,0,1,19.89-3.71,1,1,0,0,0,1.29.37,9.28,9.28,0,0,1,.86-.37,4.83,4.83,0,0,0,6.56,2,4.73,4.73,0,0,0,.56-.35,6.8,6.8,0,0,1,1.65,2.57,1,1,0,0,0,.68.63,8.81,8.81,0,0,1-2.25,17.34Z" style="fill: #006afb"/>
    <path d="M280.34,91.35l-.49,1.9a4.9,4.9,0,0,1-1.25,9.63v2a6.86,6.86,0,0,0,1.74-13.49Z" style="fill: #006afb"/>
    <rect x="251.16" y="102.88" width="3.92" height="1.96" style="fill: #006afb"/>
  </g>
  <text transform="translate(23.87 241.03)" style="font-size: 10px;font-family: OpenSans, Open Sans">As a Cloud Experimenter, you <tspan x="0" y="13">are at the beginning of your </tspan><tspan x="0" y="26">cloud journey. You have </tspan><tspan x="0" y="39">diferent cloud services in </tspan><tspan x="0" y="52">place, but your </tspan><tspan x="0" y="65">business-critical applications </tspan><tspan x="0" y="78">are still running in a </tspan><tspan x="0" y="91">traditional model. You are </tspan><tspan x="0" y="104">starting to use cloud-native </tspan><tspan x="0" y="117">development tools, but don&apos;t </tspan><tspan x="0" y="130">have broad adoption yet. You </tspan><tspan x="0" y="143">are managing your diferent </tspan><tspan x="0" y="156">clouds in silos.</tspan></text>
  <text transform="translate(192.87 182.03)" style="font-size: 10px;font-family: OpenSans, Open Sans">As a Cloud Optimizer, you are <tspan x="0" y="13">well underway with your </tspan><tspan x="0" y="26">cloud journey. You have </tspan><tspan x="0" y="39">started to move some of </tspan><tspan x="0" y="52">your business-critical </tspan><tspan x="0" y="65">applications to the cloud. You </tspan><tspan x="0" y="78">have started to develop your </tspan><tspan x="0" y="91">own cloud-native </tspan><tspan x="0" y="104">applications and to </tspan><tspan x="0" y="117">implement DevOps </tspan><tspan x="0" y="130">methodologies. You are </tspan><tspan x="0" y="143">dealing with the complexity </tspan><tspan x="0" y="156">of hybrid and multicloud </tspan><tspan x="0" y="169">management by moving </tspan><tspan x="0" y="182">toward a cloud</tspan><tspan x="0" y="195">operating model.</tspan></text>
  <text transform="translate(370.87 132.03)" style="font-size: 10px;font-family: OpenSans, Open Sans">As a Cloud Innovator, you are <tspan x="0" y="13">mastering the cloud. You can </tspan><tspan x="0" y="26">move your applications and </tspan><tspan x="0" y="39">data seamlessly between </tspan><tspan x="0" y="52">on-premises and cloud </tspan><tspan x="0" y="65">environments. You are </tspan><tspan x="0" y="78">developing and deploying </tspan><tspan x="0" y="91">cloud-native applications </tspan><tspan x="0" y="104">using DevOps methodologies </tspan><tspan x="0" y="117">and you are managing your </tspan><tspan x="0" y="130">various clouds seamlessly </tspan><tspan x="0" y="143">from a single pane of glass.</tspan></text>
  <g>
    <polyline points="25 188 162 188 162 164.34" style="fill: none;stroke: #000;stroke-miterlimit: 10;stroke-width: 2px"/>
    <polygon points="169.18 166.44 162 154 154.82 166.44 169.18 166.44"/>
  </g>
  <g>
    <polyline points="193 126 330 126 330 102.33" style="fill: none;stroke: #000;stroke-miterlimit: 10;stroke-width: 2px"/>
    <polygon points="337.18 104.44 330 92 322.82 104.44 337.18 104.44"/>
  </g>
  <line x1="362" y1="79" x2="499" y2="79" style="fill: none;stroke: #000;stroke-miterlimit: 10;stroke-width: 2px"/>
</svg>
