<svg id="Layer_1" data-name="Layer 1" xmlns="http://www.w3.org/2000/svg" viewBox="0 0 222.34 58.62"><defs><style>.cls-1{fill:#231f20;}.cls-2{fill:#fdbb30;}</style></defs><title>symantec</title><path class="cls-1" d="M81.77,61.39a15.94,15.94,0,0,1-9.92-3.13l-.16-.12.11-.17,2.15-3.36.12-.19.19.14A12.71,12.71,0,0,0,81.69,57c3.06,0,4.82-1.33,4.82-3.65,0-2.55-2.07-3.28-5.81-4.59l-.44-.16C76.49,47.32,73,45.41,73,40.31c0-4.58,3.53-7.55,9-7.55a15,15,0,0,1,7.91,1.86l.17.1-.09.18-1.72,3.55-.1.2-.2-.1a12.84,12.84,0,0,0-5.91-1.42c-1.95,0-4.27.53-4.27,3.06s1.83,3.08,5.47,4.28c4,1.29,8.18,3.14,8.18,8.83,0,5.07-3.62,8.09-9.69,8.09Z" transform="translate(-16.57 -13.73)"/><path class="cls-1" d="M95.34,68.29a12.46,12.46,0,0,1-2.89-.35l-.2,0,0-.2.51-3.32,0-.21.21,0,.33,0a10.91,10.91,0,0,0,1.48.12A4,4,0,0,0,98.77,62L91.62,41l-.1-.29h5.3l0,.16L101,55.73l3.7-14.84,0-.16h5l-.08.28-6.36,20.79c-1.35,4.44-3.89,6.51-8,6.51Z" transform="translate(-16.57 -13.73)"/><path class="cls-1" d="M138.89,61h-5.11V47.45c0-1.7-.35-2.83-2-2.83a6.27,6.27,0,0,0-4,2V61h-5.11V47.45c0-1.7-.35-2.83-2-2.83a5.9,5.9,0,0,0-4,2.1V61h-5.11V40.72h3.22l0,.15.9,2.77c2.12-2.25,4.26-3.35,6.54-3.35A4.73,4.73,0,0,1,127,43.36a9.19,9.19,0,0,1,6.37-3.07c4.56,0,5.52,3.91,5.52,7.2V61Z" transform="translate(-16.57 -13.73)"/><path class="cls-1" d="M147.72,61.39c-3.75,0-6.38-2.41-6.38-5.87a5.41,5.41,0,0,1,2.43-4.9c1.69-1.15,4.51-2,8.84-2.62v-.52c0-2.23-.81-3.06-3-3.06A13.16,13.16,0,0,0,144.15,46l-.19.09-.1-.19-1.64-3.08-.09-.18.17-.11a14.06,14.06,0,0,1,7.76-2.29c5,0,7.67,2.6,7.67,7.51V61h-3.21l-.06-.13-.85-2a8.74,8.74,0,0,1-5.89,2.46Zm4.9-10c-3.35.65-5,1.26-5.66,2.09a2.21,2.21,0,0,0-.54,1.7,2.09,2.09,0,0,0,2.36,2.32,6.42,6.42,0,0,0,3.84-1.45V51.42Z" transform="translate(-16.57 -13.73)"/><path class="cls-1" d="M178.79,61h-5.11V47.45c0-2-.7-2.83-2.32-2.83a6.18,6.18,0,0,0-4.19,2.13V61h-5.11V40.72h3.22l0,.15.9,2.8c2.11-2.27,4.32-3.38,6.77-3.38,3.84,0,5.79,2.42,5.79,7.2V61Z" transform="translate(-16.57 -13.73)"/><path class="cls-1" d="M189.46,61.39c-4,0-5.95-2-5.95-6.07V44.39h-3V40.72h3.07l.91-5.52,0-.18h4.07v5.7h4.29v3.67h-4.29V55.05c0,1.74.3,2.36,2,2.36a8.1,8.1,0,0,0,2.08-.38l.23-.07,0,.24.59,3.24,0,.17-.16.07a10.76,10.76,0,0,1-3.94.71Z" transform="translate(-16.57 -13.73)"/><path class="cls-1" d="M203.57,61.39c-5.69,0-9.22-4-9.22-10.39s3.48-10.71,8.87-10.71,8.6,3.92,8.6,10.75v1.43H199.63c.28,3.29,1.61,4.76,4.29,4.76a9,9,0,0,0,5.19-1.8l.18-.12.12.18,1.87,2.92.11.17-.15.12a11,11,0,0,1-7.66,2.7Zm-3.9-12.29h6.92c-.12-3.36-1.22-5-3.36-5s-3.27,1.63-3.55,5Z" transform="translate(-16.57 -13.73)"/><path class="cls-1" d="M223.15,61.39C216.38,61.39,214,56,214,51s2.41-10.71,9.19-10.71a9.1,9.1,0,0,1,6.54,2.24l.14.13-.11.16-2.14,3.08-.13.18-.18-.13a6.2,6.2,0,0,0-4.08-1.4c-2.63,0-4,2.16-4,6.42s1.33,6.22,4.07,6.22a6,6,0,0,0,4.19-1.71l.17-.15.14.18L230,58.36l.12.15-.13.13a9,9,0,0,1-6.86,2.75Z" transform="translate(-16.57 -13.73)"/><path class="cls-2" d="M42,72.34A25.38,25.38,0,1,1,67.33,47,25.42,25.42,0,0,1,42,72.34Zm0-42.74a17.35,17.35,0,1,0,12.27,5.08A17.25,17.25,0,0,0,42,29.61Z" transform="translate(-16.57 -13.73)"/><path class="cls-1" d="M233.8,58.16H233v-.5h2.21v.5h-.78v2.56h-.63Zm2-.5h.95l.61,2.23.58-2.23h.95v3.06h-.62V58.38l-.65,2.34h-.57l-.64-2.34v2.34h-.6Z" transform="translate(-16.57 -13.73)"/><rect class="cls-2" x="53.03" y="3.94" width="1.98" height="1.98"/><rect class="cls-2" x="53.03" width="1.98" height="1.98"/><rect class="cls-2" x="47.46" y="5.91" width="1.85" height="1.93"/><rect class="cls-1" x="43.8" y="9.7" width="1.86" height="1.85"/><rect class="cls-1" x="49.31" y="7.84" width="2.07" height="1.86"/><rect class="cls-1" x="41.95" y="7.93" width="1.86" height="1.77"/><rect class="cls-1" x="47.46" y="9.7" width="1.85" height="1.85"/><rect class="cls-1" x="51.08" y="1.98" width="1.96" height="1.96"/><rect class="cls-1" x="47.46" y="3.94" width="3.61" height="1.96"/><rect class="cls-1" x="45.66" y="5.91" width="1.8" height="3.8"/><path class="cls-1" d="M62.23,25.28v1.86H60.37V25.28H57.28v1.34H55.62v1.66h1.85v1.84H55.62V28.27h-2v2.89H51.79V33H50.56v1.85H49.2a104.05,104.05,0,0,0-6.5,12.21c-4.16-5.79-7.39-8.09-9.94-8.92-1.37-.41-3,1.08-.75,3.44,5.24,5.76,6.89,10.53,8.48,14.34.84,2,4.62,2.32,5.38.28a61.78,61.78,0,0,1,6.72-13.16V41h1.48V39.12h1.55V37h1.86V34.89H55.6V33h1.88v1.89h1.84V33h1.47V30.76h1.66V29.2H64V25.28Z" transform="translate(-16.57 -13.73)"/></svg>