<?xml version="1.0" encoding="utf-8"?>
<!-- Generator: Adobe Illustrator 21.0.2, SVG Export Plug-In . SVG Version: 6.00 Build 0)  -->
<svg version="1.1" id="Layer_1" xmlns="http://www.w3.org/2000/svg" xmlns:xlink="http://www.w3.org/1999/xlink" x="0px" y="0px"
	 viewBox="0 0 476.5 314.3" style="enable-background:new 0 0 476.5 314.3;" xml:space="preserve">
<style type="text/css">
	.st0{fill:#69757D;}
	.st1{fill:#565D64;}
	.st2{fill:#2C353D;}
	.st3{fill:#21282E;}
	.st4{fill:#231F20;}
	.st5{fill:#FFFFFF;}
	.st6{font-family:'Helvetica';}
	.st7{font-size:10px;}
	.st8{fill:#414042;}
	.st9{font-size:12.7687px;}
	.st10{fill:#0D5E81;}
	.st11{fill:none;}
	.st12{fill:#B4BABE;}
	.st13{font-size:8.938px;}
</style>
<title>maturity</title>
<rect x="0" y="217" class="st0" width="91.4" height="97.3"/>
<rect x="96.2" y="181.5" class="st1" width="91.4" height="132.8"/>
<rect x="192.5" y="139" class="st2" width="91.4" height="175.3"/>
<rect x="288.7" y="106.7" class="st3" width="91.4" height="207.6"/>
<rect x="385" y="65" class="st4" width="91.4" height="249.3"/>
<text transform="matrix(1 0 0 1.0139 6.0685 234.8102)"><tspan x="0" y="0" class="st5 st6 st7">Stadium 1</tspan><tspan x="0" y="11.8" class="st5 st6 st7">Initiierung</tspan></text>
<text transform="matrix(1 0 0 1.0139 101.1945 195.714)"><tspan x="0" y="0" class="st5 st6 st7">Stadium 2</tspan><tspan x="0" y="11.8" class="st5 st6 st7">Beschleunigung</tspan></text>
<text transform="matrix(1 0 0 1.0139 197.8137 153.4175)"><tspan x="0" y="0" class="st5 st6 st7">Pragmatic</tspan><tspan x="0" y="11.8" class="st5 st6 st7">Compliance</tspan></text>
<text transform="matrix(1 0 0 1.0139 294.3867 123.6637)"><tspan x="0" y="0" class="st5 st6 st7">Stadium 4</tspan><tspan x="0" y="11.8" class="st5 st6 st7">Optimierung</tspan></text>
<text transform="matrix(1 0 0 1.0139 390.6494 79.2985)"><tspan x="0" y="0" class="st5 st6 st7">Compliance</tspan><tspan x="0" y="11.8" class="st5 st6 st7">Exemplar</tspan></text>
<text transform="matrix(1 0 0 1.0139 21.5536 162.7809)" class="st8 st6 st9">Ad hoc</text>
<text transform="matrix(1 0 0 1.0139 98.9993 121.2604)" class="st8 st6 st9">opportunistisch</text>
<text transform="matrix(1 0 0 1.0139 196.6825 91.6833)" class="st8 st6 st9">reproduzierbar</text>
<text transform="matrix(1 0 0 1.0139 306.067 46.9528)" class="st8 st6 st9">gemanagt</text>
<text transform="matrix(1 0 0 1.0139 406.2449 11.0817)" class="st8 st6 st9">optimiert</text>
<g>
	<path class="st10" d="M37,201.1c-1.4,0-2.5-1.1-2.5-2.5c0-1.4,1.1-2.5,2.5-2.5c1.4,0,2.5,1.1,2.5,2.5C39.5,200,38.4,201.1,37,201.1
		 M42,195.2l1.6-1.6L42,192l-1.6,1.6c-0.7-0.5-1.4-0.8-2.2-0.9v-2.2h-2.3v2.2c-0.8,0.2-1.6,0.5-2.2,0.9l-1.6-1.6l-1.6,1.6l1.6,1.6
		c-0.4,0.7-0.8,1.4-0.9,2.2h-2.2v2.3h2.2c0.2,0.8,0.5,1.6,0.9,2.2l-1.6,1.6l1.6,1.6l1.6-1.6c0.7,0.4,1.4,0.8,2.2,0.9v2.2h2.3v-2.2
		c0.8-0.2,1.6-0.5,2.2-0.9l1.6,1.6l1.6-1.6L42,202c0.5-0.7,0.8-1.4,0.9-2.2h2.2v-2.3h-2.2C42.8,196.6,42.5,195.9,42,195.2"/>
	<path class="st10" d="M54.5,199.4c-0.3,0.3-0.9,0.3-1.2,0c-0.3-0.3-0.3-0.9,0-1.2c0.3-0.3,0.9-0.3,1.2,0
		C54.8,198.5,54.8,199.1,54.5,199.4 M55.2,197.4L55.2,197.4l-11.1-11.2l0-5.3l-5.4-1.4l-0.6,0.6L41,183l-2.8,2.8l-2.9-2.8l-0.6,0.6
		l1.4,5.4l5.1,0l0,0l11.2,11.2l0,0c0.7,0.7,1.9,0.7,2.7,0C55.9,199.4,55.9,198.2,55.2,197.4"/>
</g>
<g>
	<path class="st10" d="M147.8,165.2c-3.1,0-5.7-2.6-5.7-5.7c0-3.1,2.6-5.7,5.7-5.7c3.1,0,5.7,2.5,5.7,5.7
		C153.5,162.6,151,165.2,147.8,165.2 M130.5,165.3v-23.1h11.6v5h5v5c-1.4,0.2-2.8,0.7-3.8,1.6h-11v1.7h9.5c-0.3,0.5-0.6,1.1-0.8,1.7
		h-8.7v1.7h8.3c0,0.3,0,0.5,0,0.8c0,2.3,1.1,4.4,2.8,5.8H130.5z M143.7,142.5l3,3h-3V142.5z M148.7,152.1v-7l-4.6-4.6h-15.2v26.4
		h19.8v0c3.7-0.4,6.6-3.6,6.6-7.4C155.3,155.7,152.4,152.5,148.7,152.1"/>
	<rect x="132.1" y="150.4" class="st10" width="13.2" height="1.7"/>
	<polygon class="st10" points="150.3,156.2 147,159.5 145.4,157.9 143.7,159.5 147,162.8 152,157.9 	"/>
</g>
<g>
	<path class="st10" d="M432.9,53.2c0,0.3-0.3,0.6-0.6,0.6H429c-0.4,0-0.6-0.3-0.6-0.6c0-0.3,0.3-0.6,0.6-0.6h3.3
		C432.6,52.6,432.9,52.8,432.9,53.2"/>
	<path class="st10" d="M428.2,53.1h4.9c0.1-0.1,0.2-0.2,0.4-0.4c0.3-0.3,0.4-0.5,0.5-0.6h-6.7c0,0,0,0.1,0,0.1
		C427.4,52.3,428,52.9,428.2,53.1"/>
	<path class="st10" d="M434.3,49.1c0,0.2-0.1,0.3-0.3,0.3h-6.6c-0.2,0-0.3-0.2-0.3-0.3c0-0.2,0.1-0.3,0.3-0.3h6.6
		C434.1,48.8,434.3,49,434.3,49.1"/>
	<path class="st10" d="M434.3,50.2c0,0.2-0.1,0.3-0.3,0.3h-6.6c-0.2,0-0.3-0.2-0.3-0.3c0-0.2,0.1-0.3,0.3-0.3h6.6
		C434.1,49.8,434.3,50,434.3,50.2"/>
	<path class="st10" d="M434.3,51.2c0,0.2-0.1,0.3-0.3,0.3h-6.6c-0.2,0-0.3-0.2-0.3-0.3c0-0.2,0.1-0.3,0.3-0.3h6.6
		C434.1,50.8,434.3,51,434.3,51.2"/>
	<path class="st10" d="M434.2,51.9c0,0.1-0.1,0.2-0.3,0.2h-6.5c-0.2,0-0.3-0.1-0.3-0.2c0-0.1,0.1-0.2,0.3-0.2h6.5
		C434.1,51.7,434.2,51.8,434.2,51.9"/>
	<path class="st10" d="M434.3,48.1c0,0.2-0.1,0.3-0.3,0.3h-6.7c-0.2,0-0.3-0.2-0.3-0.3c0-0.2,0.1-0.3,0.3-0.3h6.7
		C434.2,47.8,434.3,47.9,434.3,48.1"/>
	<path class="st10" d="M423.5,34.3c0.1,1.3,0.3,2.3,0.7,3.1c0.4,0.8,0.8,1.6,1.3,2.4l0.2,0.3c0.1,0.2,0.2,0.3,0.3,0.5
		c0.4,0.7,0.9,1.5,1.1,2.5c0.1,0.4,0.2,0.8,0.2,1.3c0,0.2,0.1,0.4,0.1,0.6c0,0.3,0.2,0.5,0.4,0.7c0.7,0,1.4,0,2.3,0
		c0.6,0,1.2,0,1.7,0c0.6,0,1.2,0,1.8,0c0.2-0.3,0.3-0.9,0.4-1.4c0.1-0.4,0.1-0.9,0.3-1.3c0.3-0.9,0.7-1.7,1.1-2.4
		c0.1-0.2,0.2-0.4,0.3-0.5c0.1-0.2,0.2-0.5,0.4-0.7c0.8-1.5,1.6-3,1.7-5.1V34c-0.1-2-0.7-3.6-2.1-4.9c-1.2-1.2-2.9-1.9-5-2h-0.5
		c-1.8,0.1-3.3,0.7-4.6,2c-0.5,0.5-1.1,1.1-1.4,1.9c-0.4,0.9-0.6,1.8-0.6,2.7V34.3z M427.5,47.1h-0.3L427,47c-0.5-0.4-1-1-1.1-1.8
		c0-0.2-0.1-0.5-0.1-0.7c0-0.4-0.1-0.7-0.2-1.1c-0.2-0.7-0.6-1.4-1-2.1c-0.1-0.2-0.2-0.4-0.3-0.5l-0.2-0.3c-0.4-0.8-0.9-1.6-1.3-2.5
		c-0.5-1-0.7-2.2-0.8-3.7l0,0l0-0.5c0-1.2,0.3-2.3,0.8-3.3c0.5-1,1.1-1.7,1.7-2.3c1.6-1.6,3.4-2.4,5.6-2.5h0h0.6
		c2.4,0.1,4.5,1,6,2.5c1.6,1.6,2.4,3.6,2.5,5.9v0v0.3c-0.1,2.4-1,4.1-1.9,5.8c-0.1,0.2-0.2,0.5-0.4,0.7c-0.1,0.2-0.2,0.4-0.3,0.5
		c-0.4,0.7-0.8,1.4-1,2.2c-0.1,0.3-0.2,0.6-0.2,1c-0.1,0.9-0.3,1.9-1.1,2.5l-0.2,0.1l-0.5,0c-0.6,0-1.2,0-1.8,0c-0.6,0-1.2,0-1.7,0
		C429.1,47.1,428.3,47.1,427.5,47.1L427.5,47.1z"/>
</g>
<g>
	<path class="st10" d="M349.1,64.6h-21c-0.8,0-1.4,0.6-1.4,1.4c0,0.5,0.3,0.9,0.6,1.2v1.2c0.1,0,0.2,0,0.3,0h1.5v-1h18.9v12.2h-12.7
		c-0.1,0.2-0.2,0.4-0.3,0.5c-0.1,0.2-0.1,0.3-0.2,0.5c-0.1,0.3-0.2,0.5-0.3,0.8H349c0.5,0,0.9-0.4,0.9-0.9V67.2
		c0.4-0.2,0.6-0.7,0.6-1.2C350.5,65.2,349.9,64.6,349.1,64.6"/>
	<path class="st10" d="M335.9,72.7c-0.2-0.1-0.5-0.1-0.7,0c0.2,0.6,0.3,1.3,0.4,2l0.2-0.2l4.1,1.8c0.4,0.2,0.8,0,1-0.3l2.5-3.4
		l0.2,1.5c0.1,0.4,0.4,0.7,0.8,0.7c0,0,0.1,0,0.1,0c0.5-0.1,0.8-0.5,0.7-0.9l-0.5-3.5c-0.1-0.5-0.5-0.8-0.9-0.7l-3.5,0.5
		c-0.5,0.1-0.8,0.5-0.7,0.9c0.1,0.5,0.5,0.8,0.9,0.7l1.6-0.2l-2.2,3L335.9,72.7z"/>
	<path class="st10" d="M335.2,83.4l-3.1-1c-0.1-0.2-0.2-0.4-0.5-0.6c0.3-0.3,0.5-0.6,0.6-0.8c0.4-0.6,0.7-1.2,0.9-1.8
		c0.1-0.2,0.2-0.5,0.3-0.7c0.3-0.3,0.5-0.6,0.5-1v-1c0-0.3-0.1-0.6-0.3-0.8v-1.4c0-2.4-2-4.4-4.4-4.4h-1.4c-2.4,0-4.4,2-4.4,4.4v1.4
		c-0.2,0.2-0.3,0.5-0.3,0.8v1c0,0.4,0.2,0.8,0.5,1c0.1,0.2,0.2,0.5,0.3,0.7c0.2,0.6,0.6,1.2,1,1.8c0.2,0.2,0.4,0.5,0.6,0.8
		c-0.2,0.2-0.4,0.4-0.5,0.6l-3.1,1c-2.2,0.6-3.5,10.2-3.5,10.2h0c0,0,0,0.1,0,0.1c0,0.5,0.4,0.8,0.8,0.8h18.7c0.5,0,0.8-0.4,0.8-0.8
		C338.7,93.4,337.4,84.1,335.2,83.4 M327.7,85.9c0,0.1-0.1,0.2-0.2,0.2c0,0-0.1,0-0.1,0c-0.1,0-0.2,0-0.2-0.1l-0.8-1
		c0,0-0.1-0.1-0.1-0.2l0-1.7c0-0.1,0.1-0.2,0.1-0.2c0.1-0.1,0.2-0.1,0.3,0c0.2,0.1,0.5,0.2,0.7,0.2c0.1,0,0.2,0.1,0.2,0.3v0.7
		c0,0,0.1,0,0.1,0.1c0.1,0.1,0.1,0.1,0.1,0.2L327.7,85.9z M330.7,85l-0.8,1c-0.1,0.1-0.1,0.1-0.2,0.1c0,0-0.1,0-0.1,0
		c-0.1,0-0.2-0.1-0.2-0.2l-0.2-1.5c0-0.1,0-0.2,0.1-0.2c0,0,0.1-0.1,0.1-0.1v-0.7c0-0.1,0.1-0.3,0.2-0.3c0.2,0,0.5-0.1,0.7-0.2
		c0.1,0,0.2,0,0.3,0c0.1,0.1,0.1,0.1,0.1,0.2v1.7C330.8,84.9,330.7,85,330.7,85 M329.3,81.7h-1.5c-0.3,0-1-0.4-1.7-1.4
		c-0.5-0.8-0.9-1.7-1-2.3l0-0.1l-0.3-0.2c-0.1-0.1-0.1-0.1-0.1-0.2v-0.5c0-0.2,0.1-0.3,0.3-0.3h0.1v-0.5c0-0.1,0.1-0.2,0.2-0.3
		c0.4-0.2,1.2-0.5,2-0.5c0.6,0,1.2,0.2,1.6,0.6c0.5,0.5,1.1,0.8,1.7,0.8c0.4,0,0.7-0.1,1.1-0.3c0.1,0,0.2,0,0.3,0
		c0,0,0.1,0.1,0.1,0.1h0.2c0.2,0,0.3,0.1,0.3,0.3v0.5c0,0.1,0,0.2-0.1,0.2l-0.3,0.2l0,0.1c-0.1,0.7-0.5,1.5-1,2.3
		C330.3,81.2,329.7,81.7,329.3,81.7"/>
</g>
<path class="st10" d="M250.9,110.2h-14.7l3.1-1.8c0.4-0.2,0.6-0.8,0.3-1.2c-0.2-0.4-0.8-0.6-1.2-0.3l-6,3.4
	c-0.3,0.2-0.4,0.5-0.4,0.8c0,0.3,0.2,0.6,0.4,0.8l6,3.4c0.1,0.1,0.3,0.1,0.4,0.1c0.3,0,0.6-0.2,0.8-0.4c0.2-0.4,0.1-1-0.3-1.2
	l-3.1-1.8h13.8v16.6h-29.2V112h6.5c0.5,0,0.9-0.4,0.9-0.9c0-0.5-0.4-0.9-0.9-0.9H220c-0.5,0-0.9,0.4-0.9,0.9v18.4
	c0,0.5,0.4,0.9,0.9,0.9h30.9c0.5,0,0.9-0.4,0.9-0.9v-18.4C251.8,110.6,251.4,110.2,250.9,110.2"/>
<rect x="6.1" y="258.5" class="st11" width="84" height="60.7"/>
<text transform="matrix(1 0 0 1.0139 6.0683 264.8932)"><tspan x="0" y="0" class="st12 st6 st13">Fehlendes Bewusst</tspan><tspan x="78" y="0" class="st12 st6 st13">-</tspan><tspan x="0" y="10.6" class="st12 st6 st13">sein hinsichtlich der </tspan><tspan x="0" y="21.2" class="st12 st6 st13">EU-DSGV oder ihrer </tspan><tspan x="0" y="31.7" class="st12 st6 st13">Anwendung auf das </tspan><tspan x="0" y="42.3" class="st12 st6 st13">Unternehmen</tspan></text>
<rect x="101.2" y="258.5" class="st11" width="84" height="60.7"/>
<text transform="matrix(1 0 0 1.0139 101.1943 264.8932)"><tspan x="0" y="0" class="st12 st6 st13">Es gibt einen Plan, </tspan><tspan x="0" y="10.6" class="st12 st6 st13">die Ausf체hrung hat </tspan><tspan x="0" y="21.2" class="st12 st6 st13">begonnen.</tspan></text>
<rect x="197.8" y="258.5" class="st11" width="84" height="60.7"/>
<text transform="matrix(1 0 0 1.0139 197.8135 264.8932)"><tspan x="0" y="0" class="st12 st6 st13">Prozesse sind </tspan><tspan x="0" y="10.6" class="st12 st6 st13">innerhalb akzepta</tspan><tspan x="70.6" y="10.6" class="st12 st6 st13">-</tspan><tspan x="0" y="21.2" class="st12 st6 st13">bler Risikolevel </tspan><tspan x="0" y="31.7" class="st12 st6 st13">regelkonform.</tspan></text>
<rect x="294.4" y="258.5" class="st11" width="84" height="60.7"/>
<text transform="matrix(1 0 0 1.0139 294.3867 264.8932)"><tspan x="0" y="0" class="st12 st6 st13">Regelkonformit채t ist </tspan><tspan x="0" y="10.6" class="st12 st6 st13">das Ergebnis </tspan><tspan x="0" y="21.2" class="st12 st6 st13">verbesserter </tspan><tspan x="0" y="31.7" class="st12 st6 st13">Gesch채ftsprozesse.</tspan></text>
<rect x="390.6" y="258.5" class="st11" width="84" height="60.7"/>
<text transform="matrix(1 0 0 1.0139 390.6494 264.8932)"><tspan x="0" y="0" class="st12 st6 st13">Regelkonformit채t </tspan><tspan x="0" y="10.6" class="st12 st6 st13">wird an andere </tspan><tspan x="0" y="21.2" class="st12 st6 st13">Unternehmen mit </tspan><tspan x="0" y="31.7" class="st12 st6 st13">geringerer EU-DS</tspan><tspan x="71" y="31.7" class="st12 st6 st13">-</tspan><tspan x="0" y="42.3" class="st12 st6 st13">GV-Reife verkauft.</tspan></text>
</svg>
