<svg id="Layer_1" data-name="Layer 1" xmlns="http://www.w3.org/2000/svg" viewBox="0 0 476.49 314.33"><defs><style>.cls-1{fill:#69757d;}.cls-2{fill:#565d64;}.cls-3{fill:#2c353d;}.cls-4{fill:#21282e;}.cls-5{fill:#231f20;}.cls-6{font-size:10px;fill:#fff;}.cls-13,.cls-6,.cls-7{font-family:Helvetica, Helvetica;}.cls-7{font-size:12.77px;fill:#414042;}.cls-8{letter-spacing:0.04em;}.cls-9{letter-spacing:0em;}.cls-10{letter-spacing:-0.02em;}.cls-11{letter-spacing:-0.01em;}.cls-12{fill:#0d5e81;}.cls-13{font-size:8.94px;fill:#b4babe;}</style></defs><title>maturity</title><rect class="cls-1" y="217.07" width="91.45" height="97.26"/><rect class="cls-2" x="96.26" y="181.5" width="91.45" height="132.83"/><rect class="cls-3" x="192.52" y="139.07" width="91.45" height="175.26"/><rect class="cls-4" x="288.78" y="106.72" width="91.45" height="207.62"/><rect class="cls-5" x="385.05" y="65.07" width="91.45" height="249.26"/><text class="cls-6" transform="translate(6.11 234.84) scale(1 1.01)">Blissfully<tspan x="0" y="11.84">Unaware</tspan></text><text class="cls-6" transform="translate(101.24 195.75) scale(1 1.01)">Dawning<tspan x="0" y="11.84">Realisation</tspan></text><text class="cls-6" transform="translate(197.86 153.45) scale(1 1.01)">Pragmatic<tspan x="0" y="11.84">Compliance</tspan></text><text class="cls-6" transform="translate(294.43 123.7) scale(1 1.01)">Beyond<tspan x="0" y="11.84">Compliance</tspan></text><text class="cls-6" transform="translate(390.69 79.33) scale(1 1.01)">Compliance<tspan x="0" y="11.84">Exemplar</tspan></text><text class="cls-7" transform="translate(21.6 162.82) scale(1 1.01)">Ad Hoc</text><text class="cls-7" transform="translate(99.65 121.3) scale(1 1.01)">Oppo<tspan class="cls-8" x="31.24" y="0">r</tspan><tspan class="cls-9" x="36" y="0">tunistic</tspan></text><text class="cls-7" transform="translate(203 91.72) scale(1 1.01)">Repeata<tspan class="cls-10" x="48.28" y="0">b</tspan><tspan x="55.13" y="0">le</tspan></text><text class="cls-7" transform="translate(307.9 46.99) scale(1 1.01)">Managed</text><text class="cls-7" transform="translate(401.8 11.12) scale(1 1.01)">Optimi<tspan class="cls-11" x="36.89" y="0">z</tspan><tspan class="cls-9" x="43.1" y="0">ed</tspan></text><path class="cls-12" d="M37.94,202.71a2.49,2.49,0,1,1,2.48-2.49,2.49,2.49,0,0,1-2.48,2.49m5-5.86,1.58-1.58-1.62-1.62-1.58,1.58a5.9,5.9,0,0,0-2.23-.92v-2.24H36.8v2.24a6,6,0,0,0-2.23.92L33,193.65l-1.62,1.62L33,196.85a6,6,0,0,0-.92,2.23H29.8v2.29H32A6.09,6.09,0,0,0,33,203.6l-1.58,1.58L33,206.79l1.58-1.58a6,6,0,0,0,2.23.92v2.24h2.28v-2.24a6.12,6.12,0,0,0,2.23-.92l1.58,1.58,1.62-1.61-1.58-1.58a5.87,5.87,0,0,0,.91-2.23h2.25v-2.28H43.85a5.91,5.91,0,0,0-.92-2.23" transform="translate(-0.88 -1.58)"/><path class="cls-12" d="M55.41,201a.85.85,0,1,1,0-1.19.85.85,0,0,1,0,1.19m.72-2h0L45,187.85l0-5.25-5.37-1.44-.57.57,2.86,2.85-2.78,2.79-2.86-2.85-.57.57,1.44,5.37,5.12,0,0,0,11.18,11.24,0,0a1.91,1.91,0,0,0,2.7-2.7" transform="translate(-0.88 -1.58)"/><path class="cls-12" d="M148.76,166.81a5.69,5.69,0,1,1,5.69-5.69,5.7,5.7,0,0,1-5.69,5.69m-17.35.1V143.77H143v5h5v5a7.42,7.42,0,0,0-3.85,1.61h-11V157h9.52a7.56,7.56,0,0,0-.82,1.65h-8.7v1.65h8.31c0,.27,0,.55,0,.82a7.43,7.43,0,0,0,2.77,5.79Zm13.22-22.8,3,3h-3Zm5,9.62v-7L145,142.11H129.75v26.45h19.83v0a7.44,7.44,0,0,0,0-14.78" transform="translate(-0.88 -1.58)"/><rect class="cls-12" x="132.18" y="150.45" width="13.22" height="1.65"/><polygon class="cls-12" points="150.36 156.24 147.06 159.54 145.4 157.89 143.75 159.54 147.06 162.85 152.01 157.89 150.36 156.24"/><path class="cls-12" d="M433.84,54.77a.62.62,0,0,1-.64.6h-3.25a.6.6,0,1,1,0-1.19h3.25a.62.62,0,0,1,.64.6" transform="translate(-0.88 -1.58)"/><path class="cls-12" d="M429.12,54.72H434l.4-.4a3.38,3.38,0,0,0,.51-.59h-6.72a.25.25,0,0,0,0,.08c.07.09.71.75.87.91" transform="translate(-0.88 -1.58)"/><path class="cls-12" d="M435.2,50.76a.33.33,0,0,1-.3.34h-6.6a.35.35,0,0,1,0-.69h6.6a.33.33,0,0,1,.3.34" transform="translate(-0.88 -1.58)"/><path class="cls-12" d="M435.2,51.77a.33.33,0,0,1-.3.34h-6.6a.35.35,0,0,1,0-.69h6.6a.33.33,0,0,1,.3.34" transform="translate(-0.88 -1.58)"/><path class="cls-12" d="M435.2,52.79a.33.33,0,0,1-.3.34h-6.6a.35.35,0,0,1,0-.69h6.6a.33.33,0,0,1,.3.34" transform="translate(-0.88 -1.58)"/><path class="cls-12" d="M435.14,53.56c0,.12-.14.22-.31.22h-6.54c-.17,0-.3-.1-.3-.22s.14-.22.3-.22h6.54c.17,0,.31.1.31.22" transform="translate(-0.88 -1.58)"/><path class="cls-12" d="M435.25,49.75a.33.33,0,0,1-.31.34h-6.7a.35.35,0,0,1,0-.69h6.7a.33.33,0,0,1,.31.35" transform="translate(-0.88 -1.58)"/><path class="cls-12" d="M424.41,35.88a8.28,8.28,0,0,0,.66,3.12c.38.82.82,1.6,1.25,2.36l.17.31.3.52a9.76,9.76,0,0,1,1.13,2.45,10.38,10.38,0,0,1,.2,1.25c0,.22.05.42.08.62a1.46,1.46,0,0,0,.45.73c.69,0,1.44,0,2.31,0h3.5a3.81,3.81,0,0,0,.38-1.41,7.3,7.3,0,0,1,.27-1.26,16,16,0,0,1,1.12-2.39l.29-.53.38-.7a11.32,11.32,0,0,0,1.75-5.1v-.18a6.93,6.93,0,0,0-2.08-4.9,7.33,7.33,0,0,0-5-2h-.54a7.35,7.35,0,0,0-6,3.94,7,7,0,0,0-.63,2.72Zm4,12.88h-.32l-.22-.19a3.16,3.16,0,0,1-1.15-1.82c0-.23-.06-.45-.09-.68a8.1,8.1,0,0,0-.17-1.05,8.3,8.3,0,0,0-1-2.07l-.31-.54L425,42.1c-.44-.78-.89-1.59-1.3-2.46a9.72,9.72,0,0,1-.8-3.7v-.58a8.45,8.45,0,0,1,.77-3.31,7.94,7.94,0,0,1,1.73-2.34A8.07,8.07,0,0,1,431,27.23h.65a8.93,8.93,0,0,1,6,2.47,8.39,8.39,0,0,1,2.52,5.93v.28a12.68,12.68,0,0,1-1.93,5.76l-.37.68-.29.55a14,14,0,0,0-1,2.16,6,6,0,0,0-.21,1,3.56,3.56,0,0,1-1.13,2.54l-.2.14H431c-1,0-1.79,0-2.55,0Z" transform="translate(-0.88 -1.58)"/><path class="cls-12" d="M350.05,66.23H329a1.4,1.4,0,0,0-.76,2.57V70h1.8V69H349V81.21H336.31a3.13,3.13,0,0,1-.35.51c-.06.17-.13.35-.21.52s-.21.51-.34.77h14.5a.9.9,0,0,0,.9-.9V68.8a1.4,1.4,0,0,0-.76-2.57" transform="translate(-0.88 -1.58)"/><path class="cls-12" d="M336.78,74.27a.82.82,0,0,0-.71,0,6.28,6.28,0,0,1,.36,2l.23-.24,4.12,1.81a.83.83,0,0,0,1-.27l2.53-3.44.21,1.48a.83.83,0,0,0,.82.71h.12a.82.82,0,0,0,.7-.93l-.5-3.5a.83.83,0,0,0-.93-.7l-3.5.5a.83.83,0,0,0,.24,1.64l1.57-.23-2.18,3Z" transform="translate(-0.88 -1.58)"/><path class="cls-12" d="M336.1,85.07l-3.14-1a1.22,1.22,0,0,0-.48-.6,8,8,0,0,0,.64-.82,8.72,8.72,0,0,0,.95-1.78,6.9,6.9,0,0,0,.28-.75,1.35,1.35,0,0,0,.49-1v-1a1.35,1.35,0,0,0-.25-.79V76a4.4,4.4,0,0,0-4.4-4.4h-1.43a4.4,4.4,0,0,0-4.4,4.4v1.38a1.36,1.36,0,0,0-.25.79v1a1.36,1.36,0,0,0,.49,1,7,7,0,0,0,.28.75,8.61,8.61,0,0,0,1,1.78,7.79,7.79,0,0,0,.64.82,1.22,1.22,0,0,0-.48.6l-3.14,1c-2.21.63-3.53,10.18-3.53,10.18h0a.85.85,0,0,0,0,.13.83.83,0,0,0,.83.83h18.66a.83.83,0,0,0,.83-.83c0-.4-1.33-9.67-3.54-10.31m-7.46,2.47a.28.28,0,0,1-.21.24h-.08a.28.28,0,0,1-.23-.12l-.79-1a.27.27,0,0,1-.06-.17V84.77a.28.28,0,0,1,.14-.24.28.28,0,0,1,.28,0,2.35,2.35,0,0,0,.68.24.28.28,0,0,1,.23.28v.7a.29.29,0,0,1,.18.29Zm3-.91-.79,1a.29.29,0,0,1-.23.11h-.08a.28.28,0,0,1-.21-.24l-.15-1.5a.28.28,0,0,1,.07-.22.3.3,0,0,1,.11-.07V85a.28.28,0,0,1,.23-.28,2.34,2.34,0,0,0,.68-.24.28.28,0,0,1,.41.25v1.68a.28.28,0,0,1-.06.17m-1.38-3.35h-1.51c-.34,0-1-.45-1.67-1.45a5.85,5.85,0,0,1-1-2.34l0-.12-.27-.18a.28.28,0,0,1-.13-.24v-.46a.28.28,0,0,1,.28-.28H326v-.5a.28.28,0,0,1,.15-.25,4.68,4.68,0,0,1,2-.52,2.1,2.1,0,0,1,1.57.63,2.35,2.35,0,0,0,1.73.78,2.73,2.73,0,0,0,1.12-.26.28.28,0,0,1,.27,0,.25.25,0,0,1,.09.09h.15a.28.28,0,0,1,.28.28V79a.28.28,0,0,1-.13.24l-.27.18,0,.12a5.83,5.83,0,0,1-1,2.34c-.69,1-1.34,1.45-1.67,1.45" transform="translate(-0.88 -1.58)"/><path class="cls-12" d="M251.87,111.85H237.14l3.08-1.78a.89.89,0,1,0-.89-1.54l-6,3.44a.89.89,0,0,0,0,1.54l6,3.44a.88.88,0,0,0,.45.12.89.89,0,0,0,.45-1.66l-3.08-1.78H251v16.6H221.81v-16.6h6.49a.89.89,0,0,0,0-1.78h-7.38a.89.89,0,0,0-.89.89v18.38a.89.89,0,0,0,.89.89h30.94a.89.89,0,0,0,.89-.89V112.73a.89.89,0,0,0-.89-.89" transform="translate(-0.88 -1.58)"/><text class="cls-13" transform="translate(6.11 270.93) scale(1 1.01)">Lack of awareness <tspan x="0" y="10.58">of GDPR, or it’s </tspan><tspan x="0" y="21.16">application to the </tspan><tspan x="0" y="31.74">business</tspan></text><text class="cls-13" transform="translate(101.24 270.93) scale(1 1.01)">A plan is in place <tspan x="0" y="10.58">and the process of </tspan><tspan x="0" y="21.16">execusion</tspan></text><text class="cls-13" transform="translate(197.86 270.93) scale(1 1.01)">Processes are <tspan x="0" y="10.58">compliant within an </tspan><tspan x="0" y="21.16">acceptable level of </tspan><tspan x="0" y="31.74">risk</tspan></text><text class="cls-13" transform="translate(294.43 270.93) scale(1 1.01)">Compliance is an <tspan x="0" y="10.58">outcome of improved </tspan><tspan x="0" y="21.16">business processes</tspan></text><text class="cls-13" transform="translate(390.69 270.93) scale(1 1.01)">Compliance is a <tspan x="0" y="10.58">product that is sold </tspan><tspan x="0" y="21.16">to others with less </tspan><tspan x="0" y="31.74">maturity</tspan></text></svg>