<?xml version="1.0" encoding="utf-8"?>
<!-- Generator: Adobe Illustrator 21.0.2, SVG Export Plug-In . SVG Version: 6.00 Build 0)  -->
<svg version="1.1" id="Layer_1" xmlns="http://www.w3.org/2000/svg" xmlns:xlink="http://www.w3.org/1999/xlink" x="0px" y="0px"
	 viewBox="0 0 476.5 314.3" style="enable-background:new 0 0 476.5 314.3;" xml:space="preserve">
<style type="text/css">
	.st0{fill:#69757D;}
	.st1{fill:#565D64;}
	.st2{fill:#2C353D;}
	.st3{fill:#21282E;}
	.st4{fill:#231F20;}
	.st5{enable-background:new    ;}
	.st6{fill:#FFFFFF;}
	.st7{font-family:'Helvetica';}
	.st8{font-size:9.5px;}
	.st9{fill:#414042;}
	.st10{font-size:12.8977px;}
	.st11{fill:#0D5E81;}
	.st12{fill:#B4BABE;}
	.st13{font-size:9.0294px;}
</style>
<title>maturity</title>
<rect y="217.1" class="st0" width="91.4" height="97.3"/>
<rect x="96.3" y="181.5" class="st1" width="91.4" height="132.8"/>
<rect x="192.5" y="139.1" class="st2" width="91.4" height="175.3"/>
<rect x="288.8" y="106.7" class="st3" width="91.4" height="207.6"/>
<rect x="385" y="65.1" class="st4" width="91.5" height="249.3"/>
<text transform="matrix(0.9901 0 0 1 5.1099 234.8402)" class="st5"><tspan x="0" y="0" class="st6 st7 st8">Stage 1</tspan><tspan x="0" y="11.4" class="st6 st7 st8">Time to Initiate</tspan></text>
<text transform="matrix(0.9901 0 0 1 100.2402 195.7498)" class="st5"><tspan x="0" y="0" class="st6 st7 st8">Stage 2</tspan><tspan x="0" y="11.4" class="st6 st7 st8">Time to Accelerate</tspan></text>
<text transform="matrix(0.9901 0 0 1 196.8599 153.45)" class="st5"><tspan x="0" y="0" class="st6 st7 st8">Stage 3</tspan><tspan x="0" y="11.4" class="st6 st7 st8">Time to Implement</tspan></text>
<text transform="matrix(0.9901 0 0 1 293.4302 123.7)" class="st5"><tspan x="0" y="0" class="st6 st7 st8">Stage 4</tspan><tspan x="0" y="11.4" class="st6 st7 st8">Time to Optimise</tspan></text>
<text transform="matrix(0.9901 0 0 1 389.6904 79.3299)" class="st5"><tspan x="0" y="0" class="st6 st7 st8">Stage 5</tspan><tspan x="0" y="11.4" class="st6 st7 st8">Time to Consolidate</tspan></text>
<text transform="matrix(0.9901 0 0 1 21.6001 162.8202)" class="st9 st7 st10">Ad Hoc</text>
<text transform="matrix(0.9901 0 0 1 99.6499 121.3001)" class="st9 st7 st10">Oppo</text>
<text transform="matrix(0.9901 0 0 1 130.8901 121.3001)" class="st9 st7 st10">r</text>
<text transform="matrix(0.9901 0 0 1 135.6499 121.3001)" class="st9 st7 st10">tunistic</text>
<text transform="matrix(0.9901 0 0 1 203 91.7201)" class="st9 st7 st10">Repeata</text>
<text transform="matrix(0.9901 0 0 1 251.2798 91.7201)" class="st9 st7 st10">b</text>
<text transform="matrix(0.9901 0 0 1 258.1299 91.7201)" class="st9 st7 st10">le</text>
<text transform="matrix(0.9901 0 0 1 307.8999 46.9901)" class="st9 st7 st10">Managed</text>
<text transform="matrix(0.9901 0 0 1 401.7998 11.12)" class="st9 st7 st10">Optimi</text>
<text transform="matrix(0.9901 0 0 1 438.6904 11.12)" class="st9 st7 st10">z</text>
<text transform="matrix(0.9901 0 0 1 444.9004 11.12)" class="st9 st7 st10">ed</text>
<path class="st11" d="M37.1,201.1c-1.4,0-2.5-1.1-2.5-2.5s1.1-2.5,2.5-2.5s2.5,1.1,2.5,2.5c0,0,0,0,0,0
	C39.5,200,38.4,201.1,37.1,201.1 M42.1,195.3l1.6-1.6l-1.6-1.6l-1.6,1.6c-0.7-0.5-1.4-0.8-2.2-0.9v-2.2h-2.3v2.2
	c-0.8,0.2-1.6,0.5-2.2,0.9l-1.6-1.6l-1.6,1.6l1.6,1.6c-0.5,0.7-0.8,1.4-0.9,2.2h-2.3v2.3h2.2c0.2,0.8,0.5,1.6,1,2.2l-1.6,1.6
	l1.6,1.6l1.6-1.6c0.7,0.5,1.4,0.8,2.2,0.9v2.2h2.3v-2.2c0.8-0.2,1.6-0.5,2.2-0.9l1.6,1.6l1.6-1.6l-1.6-1.6c0.5-0.7,0.8-1.4,0.9-2.2
	h2.2v-2.3H43C42.8,196.7,42.5,196,42.1,195.3"/>
<path class="st11" d="M54.5,199.4c-0.3,0.3-0.9,0.3-1.2,0c-0.3-0.3-0.3-0.9,0-1.2c0.3-0.3,0.9-0.3,1.2,0c0,0,0,0,0,0
	C54.9,198.6,54.9,199.1,54.5,199.4 M55.2,197.4L55.2,197.4l-11.1-11.1V181l-5.4-1.4l-0.6,0.6L41,183l-2.8,2.8l-2.9-2.9l-0.6,0.6
	l1.4,5.4h5.1l0,0l11.2,11.2l0,0c0.8,0.7,2,0.7,2.7-0.1C56,199.3,56,198.2,55.2,197.4"/>
<path class="st11" d="M147.9,165.2c-3.1,0-5.7-2.5-5.7-5.7s2.5-5.7,5.7-5.7s5.7,2.5,5.7,5.7C153.6,162.7,151,165.2,147.9,165.2
	 M130.5,165.3v-23.1h11.6v5h5v5c-1.4,0.2-2.7,0.7-3.9,1.6h-11v1.6h9.5c-0.3,0.5-0.6,1.1-0.8,1.6h-8.7v1.6h8.3c0,0.3,0,0.6,0,0.8
	c0,2.2,1,4.4,2.8,5.8L130.5,165.3z M143.7,142.5l3,3h-3V142.5z M148.7,152.2v-7l-4.6-4.6h-15.2V167h19.8l0,0c4.1-0.5,7-4.2,6.5-8.3
	C154.8,155.3,152.1,152.6,148.7,152.2"/>
<rect x="132.2" y="150.5" class="st11" width="13.2" height="1.6"/>
<polygon class="st11" points="150.4,156.2 147.1,159.5 145.4,157.9 143.8,159.5 147.1,162.9 152,157.9 "/>
<path class="st11" d="M433,53.2c0,0.3-0.3,0.6-0.6,0.6c0,0,0,0,0,0h-3.2c-0.3,0-0.6-0.2-0.7-0.5s0.2-0.6,0.5-0.7c0.1,0,0.1,0,0.2,0
	h3.2C432.7,52.6,432.9,52.9,433,53.2C433,53.2,433,53.2,433,53.2"/>
<path class="st11" d="M428.2,53.1h4.9l0.4-0.4c0.2-0.2,0.4-0.4,0.5-0.6h-6.7c0,0,0,0.1,0,0.1C427.4,52.3,428,53,428.2,53.1"/>
<path class="st11" d="M434.3,49.2c0,0.2-0.1,0.3-0.3,0.3h-6.6c-0.2,0-0.3-0.2-0.3-0.4c0-0.1,0.1-0.3,0.3-0.3h6.6
	C434.2,48.8,434.3,49,434.3,49.2"/>
<path class="st11" d="M434.3,50.2c0,0.2-0.1,0.3-0.3,0.3h-6.6c-0.2,0-0.3-0.2-0.3-0.4c0-0.1,0.1-0.3,0.3-0.3h6.6
	C434.2,49.9,434.3,50,434.3,50.2"/>
<path class="st11" d="M434.3,51.2c0,0.2-0.1,0.3-0.3,0.3h-6.6c-0.2,0-0.3-0.2-0.3-0.4c0-0.1,0.1-0.3,0.3-0.3h6.6
	C434.2,50.9,434.3,51,434.3,51.2"/>
<path class="st11" d="M434.3,52c0,0.1-0.1,0.2-0.3,0.2h-6.5c-0.2,0-0.3-0.1-0.3-0.2s0.1-0.2,0.3-0.2h6.5
	C434.1,51.8,434.3,51.9,434.3,52"/>
<path class="st11" d="M434.4,48.2c0,0.2-0.1,0.3-0.3,0.3h-6.7c-0.2,0-0.3-0.2-0.3-0.4c0-0.1,0.1-0.3,0.3-0.3h6.7
	C434.2,47.8,434.4,48,434.4,48.2C434.4,48.2,434.4,48.2,434.4,48.2"/>
<path class="st11" d="M423.5,34.3c0,1.1,0.2,2.1,0.7,3.1c0.4,0.8,0.8,1.6,1.2,2.4l0.2,0.3l0.3,0.5c0.5,0.8,0.9,1.6,1.1,2.5
	c0.1,0.4,0.2,0.8,0.2,1.2c0,0.2,0,0.4,0.1,0.6c0.1,0.3,0.2,0.5,0.5,0.7c0.7,0,1.4,0,2.3,0h3.5c0.2-0.4,0.3-0.9,0.4-1.4
	c0.1-0.4,0.1-0.8,0.3-1.3c0.3-0.8,0.7-1.6,1.1-2.4l0.3-0.5l0.4-0.7c1-1.5,1.6-3.3,1.8-5.1v-0.2c0-1.8-0.8-3.6-2.1-4.9
	c-1.4-1.3-3.1-2-5-2h-0.5c-2.5,0.2-4.8,1.7-6,3.9c-0.4,0.9-0.6,1.8-0.6,2.7L423.5,34.3z M427.5,47.2h-0.3L427,47
	c-0.6-0.5-1-1.1-1.1-1.8c0-0.2-0.1-0.5-0.1-0.7c0-0.4-0.1-0.7-0.2-1c-0.2-0.7-0.6-1.4-1-2.1l-0.3-0.5l-0.1-0.3
	c-0.4-0.8-0.9-1.6-1.3-2.5c-0.5-1.2-0.8-2.4-0.8-3.7v-0.6c0-1.1,0.3-2.3,0.8-3.3c0.4-0.9,1-1.7,1.7-2.3c1.5-1.5,3.5-2.4,5.6-2.5h0.6
	c2.2,0,4.4,0.9,6,2.5c1.6,1.6,2.5,3.7,2.5,5.9v0.3c-0.2,2-0.8,4-1.9,5.8l-0.4,0.7l-0.3,0.5c-0.4,0.7-0.7,1.4-1,2.2
	c-0.1,0.3-0.2,0.7-0.2,1c0,1-0.4,1.9-1.1,2.5l-0.2,0.1h-4C429.1,47.2,428.3,47.2,427.5,47.2L427.5,47.2z"/>
<path class="st11" d="M349.2,64.7h-21c-0.8,0-1.4,0.6-1.4,1.4c0,0.5,0.2,0.9,0.6,1.2v1.2h1.8v-1h19v12.2h-12.7
	c-0.1,0.2-0.2,0.4-0.4,0.5c-0.1,0.2-0.1,0.3-0.2,0.5s-0.2,0.5-0.3,0.8H349c0.5,0,0.9-0.4,0.9-0.9V67.2c0.6-0.4,0.8-1.3,0.4-1.9
	C350.1,64.9,349.6,64.7,349.2,64.7"/>
<path class="st11" d="M335.9,72.7c-0.2-0.1-0.5-0.1-0.7,0c0.2,0.6,0.3,1.3,0.4,2l0.2-0.2l4.1,1.8c0.4,0.2,0.8,0,1-0.3l2.5-3.4
	l0.2,1.5c0.1,0.4,0.4,0.7,0.8,0.7h0.1c0.4-0.1,0.8-0.5,0.7-0.9c0,0,0,0,0,0l-0.5-3.5c-0.1-0.4-0.5-0.8-0.9-0.7l-3.5,0.5
	c-0.4,0.1-0.7,0.5-0.6,1c0.1,0.4,0.5,0.7,0.9,0.7l1.6-0.2l-2.2,3L335.9,72.7z"/>
<path class="st11" d="M335.2,83.5l-3.1-1c-0.1-0.2-0.3-0.5-0.5-0.6c0.2-0.3,0.4-0.5,0.6-0.8c0.4-0.6,0.7-1.2,1-1.8
	c0.1-0.2,0.2-0.5,0.3-0.8c0.3-0.2,0.5-0.6,0.5-1v-1c0-0.3-0.1-0.6-0.2-0.8v-1.3c0-2.4-2-4.4-4.4-4.4h-1.4c-2.4,0-4.4,2-4.4,4.4v1.4
	c-0.2,0.2-0.3,0.5-0.2,0.8v1c0,0.4,0.2,0.8,0.5,1c0.1,0.3,0.2,0.5,0.3,0.8c0.3,0.6,0.6,1.2,1,1.8c0.2,0.3,0.4,0.6,0.6,0.8
	c-0.2,0.1-0.4,0.4-0.5,0.6l-3.1,1c-2.2,0.6-3.5,10.2-3.5,10.2l0,0c0,0,0,0.1,0,0.1c0,0.5,0.4,0.8,0.8,0.8H338c0.5,0,0.8-0.4,0.8-0.8
	C338.8,93.5,337.5,84.2,335.2,83.5 M327.8,86c0,0.1-0.1,0.2-0.2,0.2h-0.1c-0.1,0-0.2,0-0.2-0.1l-0.8-1c0,0-0.1-0.1-0.1-0.2v-1.8
	c0-0.1,0.1-0.2,0.1-0.2c0.1-0.1,0.2-0.1,0.3,0c0.2,0.1,0.4,0.2,0.7,0.2c0.1,0,0.2,0.1,0.2,0.3v0.7c0.1,0,0.2,0.2,0.2,0.3L327.8,86z
	 M330.8,85.1l-0.8,1c-0.1,0.1-0.1,0.1-0.2,0.1h-0.1c-0.1,0-0.2-0.1-0.2-0.2l-0.1-1.5c0-0.1,0-0.2,0.1-0.2c0,0,0.1-0.1,0.1-0.1v-0.8
	c0-0.1,0.1-0.3,0.2-0.3c0.2,0,0.5-0.1,0.7-0.2c0.1-0.1,0.3,0,0.4,0.1c0,0,0,0.1,0,0.1v1.7C330.8,84.9,330.8,85,330.8,85.1
	 M329.4,81.7h-1.5c-0.3,0-1-0.4-1.7-1.4c-0.5-0.7-0.8-1.5-1-2.3v-0.1l-0.3-0.2c-0.1-0.1-0.1-0.1-0.1-0.2v-0.5c0-0.2,0.1-0.3,0.3-0.3
	h0v-0.5c0-0.1,0.1-0.2,0.1-0.2c0.6-0.3,1.3-0.5,2-0.5c0.6,0,1.2,0.2,1.6,0.6c0.4,0.5,1.1,0.8,1.7,0.8c0.4,0,0.8-0.1,1.1-0.3
	c0.1,0,0.2,0,0.3,0c0,0,0.1,0.1,0.1,0.1h0.1c0.2,0,0.3,0.1,0.3,0.3v0.6c0,0.1,0,0.2-0.1,0.2l-0.3,0.2V78c-0.2,0.8-0.5,1.6-1,2.3
	C330.4,81.3,329.7,81.8,329.4,81.7"/>
<path class="st11" d="M251,110.3h-14.7l3.1-1.8c0.4-0.2,0.6-0.8,0.4-1.2c-0.2-0.4-0.8-0.6-1.2-0.4c0,0,0,0-0.1,0l-6,3.4
	c-0.4,0.2-0.6,0.8-0.3,1.2c0.1,0.1,0.2,0.2,0.3,0.3l6,3.4c0.1,0.1,0.3,0.1,0.4,0.1c0.5,0,0.9-0.4,0.9-0.9c0-0.3-0.2-0.6-0.4-0.8
	l-3.1-1.8h13.9v16.6h-29.2v-16.6h6.5c0.5,0,0.9-0.4,0.9-0.9c0-0.5-0.4-0.9-0.9-0.9H220c-0.5,0-0.9,0.4-0.9,0.9v18.4
	c0,0.5,0.4,0.9,0.9,0.9H251c0.5,0,0.9-0.4,0.9-0.9v-18.4C251.9,110.7,251.5,110.3,251,110.3"/>
<text transform="matrix(0.9901 0 0 1 6.1099 270.93)" class="st12 st7 st13">Lack of awareness </text>
<text transform="matrix(0.9901 0 0 1 6.1099 281.6161)" class="st12 st7 st13">of GDPR, or it’s </text>
<text transform="matrix(0.9901 0 0 1 6.1099 292.3016)" class="st12 st7 st13">application to the </text>
<text transform="matrix(0.9901 0 0 1 6.1099 302.9876)" class="st12 st7 st13">business</text>
<text transform="matrix(0.9901 0 0 1 101.2402 270.93)" class="st12 st7 st13">A plan is in place </text>
<text transform="matrix(0.9901 0 0 1 101.2402 281.6161)" class="st12 st7 st13">and the process of </text>
<text transform="matrix(0.9901 0 0 1 101.2402 292.3016)" class="st12 st7 st13">execusion</text>
<text transform="matrix(0.9901 0 0 1 197.8599 270.93)" class="st12 st7 st13">Processes are </text>
<text transform="matrix(0.9901 0 0 1 197.8599 281.6161)" class="st12 st7 st13">compliant within an </text>
<text transform="matrix(0.9901 0 0 1 197.8599 292.3016)" class="st12 st7 st13">acceptable level of </text>
<text transform="matrix(0.9901 0 0 1 197.8599 302.9876)" class="st12 st7 st13">risk</text>
<text transform="matrix(0.9901 0 0 1 294.4302 270.93)" class="st12 st7 st13">Compliance is an </text>
<text transform="matrix(0.9901 0 0 1 294.4302 281.6161)" class="st12 st7 st13">outcome of improved </text>
<text transform="matrix(0.9901 0 0 1 294.4302 292.3016)" class="st12 st7 st13">business processes</text>
<text transform="matrix(0.9901 0 0 1 390.6904 270.93)" class="st12 st7 st13">Compliance is a </text>
<text transform="matrix(0.9901 0 0 1 390.6904 281.6161)" class="st12 st7 st13">product that is sold </text>
<text transform="matrix(0.9901 0 0 1 390.6904 292.3016)" class="st12 st7 st13">to others with less </text>
<text transform="matrix(0.9901 0 0 1 390.6904 302.9876)" class="st12 st7 st13">maturity</text>
</svg>
