<svg id="Layer_1" data-name="Layer 1" xmlns="http://www.w3.org/2000/svg" viewBox="0 0 476.5 314.3"><defs><style>.cls-1{fill:#69757d;}.cls-2{fill:#565d64;}.cls-3{fill:#2c353d;}.cls-4{fill:#21282e;}.cls-5{fill:#231f20;}.cls-6{font-size:10px;fill:#fff;}.cls-6,.cls-7,.cls-9{font-family:Helvetica, Helvetica;}.cls-7{font-size:12.77px;fill:#414042;}.cls-8{fill:#0d5e81;}.cls-9{font-size:8.94px;fill:#b4babe;}</style></defs><title>maturity_it</title><rect class="cls-1" x="-0.12" y="217" width="91.45" height="97.26"/><rect class="cls-2" x="96.14" y="181.43" width="91.45" height="132.83"/><rect class="cls-3" x="192.4" y="139" width="91.45" height="175.26"/><rect class="cls-4" x="288.66" y="106.65" width="91.45" height="207.62"/><rect class="cls-5" x="384.92" y="65" width="91.45" height="249.26"/><text class="cls-6" transform="translate(5.99 234.77) scale(1 1.01)">Beata<tspan x="0" y="11.84">Ignoranza</tspan></text><text class="cls-6" transform="translate(101.12 195.68) scale(1 1.01)">Improvvisa<tspan x="0" y="11.84">realizzazione</tspan></text><text class="cls-6" transform="translate(197.74 153.38) scale(1 1.01)">Adempimento<tspan x="0" y="11.84">Pragmatico</tspan></text><text class="cls-6" transform="translate(294.31 123.63) scale(1 1.01)">Oltre il semplice<tspan x="0" y="11.84">Adempimento</tspan></text><text class="cls-6" transform="translate(390.57 79.26) scale(1 1.01)">Adempimento<tspan x="0" y="11.84">Esemplare</tspan></text><text class="cls-7" transform="translate(21.48 162.74) scale(1 1.01)">Ad hoc</text><text class="cls-7" transform="translate(99.53 121.22) scale(1 1.01)">Opportunistica</text><text class="cls-7" transform="translate(202.88 91.65) scale(1 1.01)">Ripetibile</text><text class="cls-7" transform="translate(307.77 46.91) scale(1 1.01)">Riuscita</text><text class="cls-7" transform="translate(401.68 11.04) scale(1 1.01)">Ottimizzata</text><path class="cls-8" d="M36.94,201.06a2.49,2.49,0,1,1,2.48-2.49,2.49,2.49,0,0,1-2.48,2.49m5-5.86,1.58-1.58L41.9,192l-1.58,1.58a5.9,5.9,0,0,0-2.23-.92v-2.24H35.8v2.24a6,6,0,0,0-2.23.92L32,192l-1.62,1.62L32,195.2a6,6,0,0,0-.92,2.23H28.8v2.29H31a6.09,6.09,0,0,0,.92,2.23l-1.58,1.58L32,205.14l1.58-1.58a6,6,0,0,0,2.23.92v2.24h2.28v-2.24a6.12,6.12,0,0,0,2.23-.92l1.58,1.58,1.62-1.61-1.58-1.58a5.87,5.87,0,0,0,.91-2.23h2.25v-2.28H42.85a5.91,5.91,0,0,0-.92-2.23"/><path class="cls-8" d="M54.41,199.35a.85.85,0,1,1,0-1.19.85.85,0,0,1,0,1.19m.72-2h0L44,186.19l0-5.25-5.37-1.44-.57.57,2.86,2.85-2.78,2.79-2.86-2.85-.57.57,1.44,5.37,5.12,0,0,0,11.18,11.24,0,0a1.91,1.91,0,0,0,2.7-2.7"/><path class="cls-8" d="M147.76,165.16a5.69,5.69,0,1,1,5.69-5.69,5.7,5.7,0,0,1-5.69,5.69m-17.35.1V142.11H142v5h5v5a7.42,7.42,0,0,0-3.85,1.61h-11v1.65h9.52a7.56,7.56,0,0,0-.82,1.65h-8.7v1.65h8.31c0,.27,0,.55,0,.82a7.43,7.43,0,0,0,2.77,5.79Zm13.22-22.8,3,3h-3Zm5,9.62v-7L144,140.46H128.75v26.45h19.83v0a7.44,7.44,0,0,0,0-14.78"/><rect class="cls-8" x="132.06" y="150.38" width="13.22" height="1.65"/><polygon class="cls-8" points="150.24 156.16 146.94 159.47 145.28 157.82 143.63 159.47 146.94 162.78 151.89 157.82 150.24 156.16"/><path class="cls-8" d="M432.84,53.12a.62.62,0,0,1-.64.6h-3.25a.6.6,0,1,1,0-1.19h3.25a.62.62,0,0,1,.64.6"/><path class="cls-8" d="M428.12,53.06H433l.4-.4a3.38,3.38,0,0,0,.51-.59h-6.72a.25.25,0,0,0,0,.08c.07.09.71.75.87.91"/><path class="cls-8" d="M434.2,49.11a.33.33,0,0,1-.3.34h-6.6a.35.35,0,0,1,0-.69h6.6a.33.33,0,0,1,.3.34"/><path class="cls-8" d="M434.2,50.12a.33.33,0,0,1-.3.34h-6.6a.35.35,0,0,1,0-.69h6.6a.33.33,0,0,1,.3.34"/><path class="cls-8" d="M434.2,51.13a.33.33,0,0,1-.3.34h-6.6a.35.35,0,0,1,0-.69h6.6a.33.33,0,0,1,.3.34"/><path class="cls-8" d="M434.14,51.91c0,.12-.14.22-.31.22h-6.54c-.17,0-.3-.1-.3-.22s.14-.22.3-.22h6.54c.17,0,.31.1.31.22"/><path class="cls-8" d="M434.25,48.1a.33.33,0,0,1-.31.34h-6.7a.35.35,0,0,1,0-.69h6.7a.33.33,0,0,1,.31.35"/><path class="cls-8" d="M423.41,34.23a8.28,8.28,0,0,0,.66,3.12c.38.82.82,1.6,1.25,2.36l.17.31.3.52A9.76,9.76,0,0,1,426.93,43a10.38,10.38,0,0,1,.2,1.25c0,.22.05.42.08.62a1.46,1.46,0,0,0,.45.73c.69,0,1.44,0,2.31,0h3.5a3.81,3.81,0,0,0,.38-1.41,7.3,7.3,0,0,1,.27-1.26,16,16,0,0,1,1.12-2.39l.29-.53.38-.7a11.32,11.32,0,0,0,1.75-5.1V34a6.93,6.93,0,0,0-2.08-4.9,7.33,7.33,0,0,0-5-2h-.54A7.35,7.35,0,0,0,424,31a7,7,0,0,0-.63,2.72Zm4,12.88h-.32l-.22-.19a3.16,3.16,0,0,1-1.15-1.82c0-.23-.06-.45-.09-.68a8.1,8.1,0,0,0-.17-1.05,8.3,8.3,0,0,0-1-2.07l-.31-.54-.17-.31c-.44-.78-.89-1.59-1.3-2.46a9.72,9.72,0,0,1-.8-3.7V33.7a8.45,8.45,0,0,1,.77-3.31,7.94,7.94,0,0,1,1.73-2.34A8.07,8.07,0,0,1,430,25.57h.65a8.93,8.93,0,0,1,6,2.47A8.39,8.39,0,0,1,439.16,34v.28A12.68,12.68,0,0,1,437.23,40l-.37.68-.29.55a14,14,0,0,0-1,2.16,6,6,0,0,0-.21,1,3.56,3.56,0,0,1-1.13,2.54l-.2.14H430c-1,0-1.79,0-2.55,0Z"/><path class="cls-8" d="M349.05,64.57H328a1.4,1.4,0,0,0-.76,2.57v1.25h1.8v-1H348V79.56H335.31a3.13,3.13,0,0,1-.35.51c-.06.17-.13.35-.21.52s-.21.51-.34.77h14.5a.9.9,0,0,0,.9-.9V67.15a1.4,1.4,0,0,0-.76-2.57"/><path class="cls-8" d="M335.78,72.62a.82.82,0,0,0-.71,0,6.28,6.28,0,0,1,.36,2l.23-.24,4.12,1.81a.83.83,0,0,0,1-.27l2.53-3.44.21,1.48a.83.83,0,0,0,.82.71h.12a.82.82,0,0,0,.7-.93l-.5-3.5a.83.83,0,0,0-.93-.7l-3.5.5a.83.83,0,0,0,.24,1.64l1.57-.23-2.18,3Z"/><path class="cls-8" d="M335.1,83.41l-3.14-1a1.22,1.22,0,0,0-.48-.6,8,8,0,0,0,.64-.82,8.72,8.72,0,0,0,.95-1.78,6.9,6.9,0,0,0,.28-.75,1.35,1.35,0,0,0,.49-1v-1a1.35,1.35,0,0,0-.25-.79V74.33a4.4,4.4,0,0,0-4.4-4.4h-1.43a4.4,4.4,0,0,0-4.4,4.4v1.38a1.36,1.36,0,0,0-.25.79v1a1.36,1.36,0,0,0,.49,1,7,7,0,0,0,.28.75,8.61,8.61,0,0,0,1,1.78,7.79,7.79,0,0,0,.64.82,1.22,1.22,0,0,0-.48.6l-3.14,1c-2.21.63-3.53,10.18-3.53,10.18h0a.85.85,0,0,0,0,.13.83.83,0,0,0,.83.83h18.66a.83.83,0,0,0,.83-.83c0-.4-1.33-9.67-3.54-10.31m-7.46,2.47a.28.28,0,0,1-.21.24h-.08a.28.28,0,0,1-.23-.12l-.79-1a.27.27,0,0,1-.06-.17V83.12a.28.28,0,0,1,.14-.24.28.28,0,0,1,.28,0,2.35,2.35,0,0,0,.68.24.28.28,0,0,1,.23.28v.7a.29.29,0,0,1,.18.29Zm3-.91-.79,1a.29.29,0,0,1-.23.11h-.08a.28.28,0,0,1-.21-.24l-.15-1.5a.28.28,0,0,1,.07-.22.3.3,0,0,1,.11-.07v-.7a.28.28,0,0,1,.23-.28,2.34,2.34,0,0,0,.68-.24.28.28,0,0,1,.41.25V84.8a.28.28,0,0,1-.06.17m-1.38-3.35h-1.51c-.34,0-1-.45-1.67-1.45a5.85,5.85,0,0,1-1-2.34l0-.12-.27-.18a.28.28,0,0,1-.13-.24v-.46a.28.28,0,0,1,.28-.28H325v-.5a.28.28,0,0,1,.15-.25,4.68,4.68,0,0,1,2-.52,2.1,2.1,0,0,1,1.57.63,2.35,2.35,0,0,0,1.73.78,2.73,2.73,0,0,0,1.12-.26.28.28,0,0,1,.27,0,.25.25,0,0,1,.09.09h.15a.28.28,0,0,1,.28.28v.46a.28.28,0,0,1-.13.24l-.27.18,0,.12a5.83,5.83,0,0,1-1,2.34c-.69,1-1.34,1.45-1.67,1.45"/><path class="cls-8" d="M250.87,110.19H236.14l3.08-1.78a.89.89,0,1,0-.89-1.54l-6,3.44a.89.89,0,0,0,0,1.54l6,3.44a.88.88,0,0,0,.45.12.89.89,0,0,0,.45-1.66L236.14,112H250v16.6H220.81V112h6.49a.89.89,0,0,0,0-1.78h-7.38a.89.89,0,0,0-.89.89v18.38a.89.89,0,0,0,.89.89h30.94a.89.89,0,0,0,.89-.89V111.08a.89.89,0,0,0-.89-.89"/><text class="cls-9" transform="translate(5.99 262.85) scale(1 1.01)">La mancanza di <tspan x="0" y="10.58">consapevolezza del </tspan><tspan x="0" y="21.16">GDPR o la sua </tspan><tspan x="0" y="31.74">applicazione </tspan><tspan x="0" y="42.31">all&apos;azienda</tspan></text><text class="cls-9" transform="translate(101.12 262.85) scale(1 1.01)">Sono in atto sia un <tspan x="0" y="10.58">piano che il suo </tspan><tspan x="0" y="21.16">processo esecutivo</tspan></text><text class="cls-9" transform="translate(197.74 262.85) scale(1 1.01)">I processi sono <tspan x="0" y="10.58">conformi entro un </tspan><tspan x="0" y="21.16">livello accettabile di </tspan><tspan x="0" y="31.74">rischio</tspan></text><text class="cls-9" transform="translate(294.31 262.85) scale(1 1.01)">La conformità è il <tspan x="0" y="10.58">risultato di processi </tspan><tspan x="0" y="21.16">aziendali migliorati</tspan></text><text class="cls-9" transform="translate(390.57 262.85) scale(1 1.01)">La conformità è un <tspan x="0" y="10.58">prodotto che viene </tspan><tspan x="0" y="21.16">venduto agli altri con </tspan><tspan x="0" y="31.74">meno maturità</tspan></text></svg>