<svg id="Layer_1" data-name="Layer 1" xmlns="http://www.w3.org/2000/svg" viewBox="0 0 800 237.31"><defs><style>.cls-1{fill:#99999a;}</style></defs><title>splunk-logo</title><path d="M85.36,144.15A32.57,32.57,0,0,1,82,158.88a33.15,33.15,0,0,1-9.41,11.47,45.56,45.56,0,0,1-14.35,7.37A59.69,59.69,0,0,1,40,180.36a64.94,64.94,0,0,1-21.23-3.24A64.28,64.28,0,0,1,0,166.42l10.37-16.86a66.92,66.92,0,0,0,13.5,9.16,28.07,28.07,0,0,0,12.3,2.89q7.71,0,12.41-4a13.35,13.35,0,0,0,4.71-10.74,17.16,17.16,0,0,0-.85-5.43,15.66,15.66,0,0,0-3.13-5.19,45.48,45.48,0,0,0-6.26-5.79q-4-3.14-10.23-7.72-4.82-3.38-9.39-7A69.32,69.32,0,0,1,15.11,108a35,35,0,0,1-6-9.17A27.94,27.94,0,0,1,6.81,87.28,29.7,29.7,0,0,1,9.93,73.64a31.62,31.62,0,0,1,8.54-10.49,39.65,39.65,0,0,1,13-6.76A53.87,53.87,0,0,1,47.93,54a65.91,65.91,0,0,1,18.2,2.52A61.29,61.29,0,0,1,82.4,63.8L73,78.94a34.79,34.79,0,0,0-20.26-6.75A16.63,16.63,0,0,0,42,75.57,10.4,10.4,0,0,0,37.8,84a12.21,12.21,0,0,0,3.73,8.7,122.87,122.87,0,0,0,12.85,10.86q9.2,6.77,15.25,11.83a66.59,66.59,0,0,1,9.56,9.54A26.84,26.84,0,0,1,84,134a36.47,36.47,0,0,1,1.34,10.14" transform="translate(0 -0.41)"/><path d="M192,115.74q0-19.79-8-31.26T162.13,73q-14.57,0-23.06,12.19t-8.5,33q0,20.28,8.37,31.87t23,11.59q8.74,0,14.44-4.46a33.68,33.68,0,0,0,9.23-11.35,53.55,53.55,0,0,0,5-15A85.81,85.81,0,0,0,192,115.74m33.7-1.22a75.76,75.76,0,0,1-4.36,26.18,65.89,65.89,0,0,1-12.1,20.86,54,54,0,0,1-41.38,18.81,53.36,53.36,0,0,1-10.41-1,34.26,34.26,0,0,1-9.2-3.26,46.54,46.54,0,0,1-8.59-5.92,84.91,84.91,0,0,1-8.83-8.94v76.44h-31V56.87h31l.17,17.6q8.46-10.61,18.36-15.56a50.79,50.79,0,0,1,23-4.94,51.5,51.5,0,0,1,21.62,4.46,50.7,50.7,0,0,1,16.91,12.42,55.83,55.83,0,0,1,11,19.06,74.47,74.47,0,0,1,3.86,24.6" transform="translate(0 -0.41)"/><rect x="239.5" width="31.8" height="176.98"/><path d="M375.34,177.44l-.08-16.15q-9.18,10.14-18.84,14.62T334,180.36q-14.25,0-24-5.66a32.39,32.39,0,0,1-14.13-16.79,25.88,25.88,0,0,1-1.81-5.56q-.61-2.9-1.09-6.64a84.54,84.54,0,0,1-.6-8.58q-.13-4.83-.13-11.84V56.69H324v69.08a87.09,87.09,0,0,0,.85,14,26.93,26.93,0,0,0,3,8.69q5.57,10.16,19.63,10.15,17.94,0,24.71-15a34.34,34.34,0,0,0,2.43-8.58,93.08,93.08,0,0,0,.73-13.4v-65h31.8V177.44Z" transform="translate(0 -0.41)"/><path d="M512.52,177.38v-68.9a85.76,85.76,0,0,0-.85-14,27.08,27.08,0,0,0-3-8.68Q503.07,75.72,489,75.72a30.11,30.11,0,0,0-15.39,3.73,22.79,22.79,0,0,0-9.57,11,34,34,0,0,0-2.31,8.79,109.82,109.82,0,0,0-.6,13.13v65H429.07V56.91h32.08l.06,16.15q9.19-10.13,18.85-14.61T502.52,54q14.26,0,24,5.91A33.64,33.64,0,0,1,540.7,76.63c.64,1.77,1.21,3.58,1.69,5.43a52.49,52.49,0,0,1,1.21,6.38,79,79,0,0,1,.6,8.56q.12,4.95.13,11.93v68.45Z" transform="translate(0 -0.41)"/><polygon points="646.36 179.42 598.38 112.87 598.38 177.01 566.31 177.01 566.31 0.03 598.38 0.03 598.38 103.95 601.76 103.95 644.43 54.52 668.54 64.89 627.55 108.77 676.02 169.05 646.36 179.42"/><polygon class="cls-1" points="703.56 173.71 703.56 152.52 778.3 115.68 703.56 79.31 703.56 57.64 800 106.04 800 125.79 703.56 173.71"/><path class="cls-1" d="M712.94,26.81a10.75,10.75,0,1,1-.05,0Zm-.05,1.68a8.92,8.92,0,0,0-8.66,9.14,8.91,8.91,0,0,0,8.72,9.19c4.81,0,8.65-4,8.65-9.14a8.9,8.9,0,0,0-8.65-9.19Zm-2,15.45h-1.93V31.86a21.6,21.6,0,0,1,3.42-.29,6.34,6.34,0,0,1,3.76.92,2.9,2.9,0,0,1,1.11,2.5,3,3,0,0,1-2.36,2.93V38c1.06.19,1.78,1.16,2,2.93a10.15,10.15,0,0,0,.76,3h-2a8.92,8.92,0,0,1-.82-3.08,2.26,2.26,0,0,0-2.6-2.12h-1.35Zm0-6.69h1.4c1.59,0,2.94-.58,2.94-2.07,0-1.06-.77-2.12-2.94-2.12a9.16,9.16,0,0,0-1.4.1Z" transform="translate(0 -0.41)"/></svg>