<svg id="Layer_1" data-name="Layer 1" xmlns="http://www.w3.org/2000/svg" viewBox="0 0 523.42 248.08">
  <title>5levels</title>
  <path d="M64.21,184.56a28.35,28.35,0,1,0-28.35-28.34,28.34,28.34,0,0,0,28.35,28.34" style="fill: #8db8a3"/>
  <path d="M82.7,168.75h-37a.6.6,0,0,1-.51-.29.62.62,0,0,1,0-.59L57.71,144a.56.56,0,0,1,.54-.32.59.59,0,0,1,.52.33l7.16,14.32a.59.59,0,1,1-1.06.53l-6.64-13.28-11.53,22H81.26L70.77,157.06l-9.13,9.13a.6.6,0,0,1-.84,0,.61.61,0,0,1,0-.85l9.55-9.54a.58.58,0,0,1,.84,0l11.93,11.93a.6.6,0,0,1-.42,1" style="fill: #fff"/>
  <path d="M167.06,156.21a28.35,28.35,0,1,0-28.34-28.35,28.35,28.35,0,0,0,28.34,28.35" style="fill: #8f89c0"/>
  <path d="M171.08,141.08l-1.14-4.6m-16.1-12.64,4.6,1.15m21.84,6.89-4.6-1.15M163,114.64l1.15,4.6m12.64,18.39-3.45-3.45m-16.09-16.09,3.45,3.45m6.5,3.25a2.55,2.55,0,0,1,0-3.61l5.78-5.79a2.56,2.56,0,0,1,3.62,0l2.89,2.89a2.56,2.56,0,0,1,0,3.62l-5.79,5.78a2.55,2.55,0,0,1-3.61,0m-3.24,3.25a2.55,2.55,0,0,1,0,3.61l-5.79,5.79a2.55,2.55,0,0,1-3.61,0l-2.9-2.89a2.56,2.56,0,0,1,0-3.62l5.79-5.79a2.55,2.55,0,0,1,3.61,0" style="fill: none;stroke: #fff;stroke-linecap: square;stroke-linejoin: round"/>
  <path d="M269,127.85A28.35,28.35,0,1,0,240.67,99.5,28.35,28.35,0,0,0,269,127.85" style="fill: #ebac7b"/>
  <path d="M285.21,92.83a2.59,2.59,0,1,1-2.59-2.59A2.59,2.59,0,0,1,285.21,92.83Zm-19.09,9.65L255,110.32m2.43,1.3,9.71-5.38m-.16,7,8.67-3.52a1.61,1.61,0,0,0,.82-2.38l-3.3-4.91,2.65-2.59a26.37,26.37,0,0,0,2.26,3h5.62m2.4-2.43-6.25-1-3.15-6.7s-3.05-3.19-4.4-3.19h-8.58m2.89,2.35,4.25.47,1.81,2.41s-2.51,2.63-3.87,4-.77,4.5,1.1,6.6l2.15,2.22-6.53,4.11M254.87,85.8h-1.48m4.44,0h-1.48m-4.44,14.06h10.36m8.88-14.06H259.31" style="fill: none;stroke: #fff;stroke-linecap: square;stroke-linejoin: round"/>
  <path d="M371.1,99.49a28.35,28.35,0,1,0-28.34-28.34A28.34,28.34,0,0,0,371.1,99.49" style="fill: #dd9393"/>
  <path d="M372.13,65.32a6.32,6.32,0,1,0,4.94,7.45m-8.72-2.52,2.53,2.53,7.58-7.58" style="fill: none;stroke: #fff;stroke-linecap: square;stroke-linejoin: round"/>
  <path d="M356,71.15a15.08,15.08,0,0,0,26.2,10.19l4-4.45m0,5.75V76.89h-5.74m5.74-5.74A15.08,15.08,0,0,0,360,61l-4,4.44m0-5.74V65.4h5.75" style="fill: none;stroke: #fff;stroke-linecap: square;stroke-linejoin: round"/>
  <path d="M474.06,71.14a28.35,28.35,0,1,0-28.34-28.35,28.35,28.35,0,0,0,28.34,28.35" style="fill: #ecdc79"/>
  <path d="M470.59,47.25l1.87-1.89m7.19-7.17L475,42.83m.58,1.28a1.88,1.88,0,1,1-1.87-1.87A1.88,1.88,0,0,1,475.58,44.11ZM466.21,41a8.12,8.12,0,0,1,11.87-3.72m5.62-1.9-2.5-2.5M480.58,36l1.87-1.87m-18.74,1.25,2.5-2.5m.63,3.12L465,34.12m5.63-5.62h6.24V31h-6.24Zm1.87,5V31m2.5,0v2.49m9.37,18.74,2.5,2.5-2.5,2.5m-23.74-2.5h6.87m11.87-1.61a10.62,10.62,0,1,0-5.62,1.61h13.12" style="fill: none;stroke: #fff;stroke-miterlimit: 10"/>
  <text transform="translate(28.55 19.51)" style="font-size: 12px;fill: #314041;font-family: OpenSans-Bold, Open Sans;font-weight: 700">The Path to Agility – The 5 Readiness Stages</text>
  <text transform="translate(50.06 201.25)" style="font-size: 8px;fill: #314041;font-family: OpenSans-Light, Open Sans;font-weight: 300">LEVEL 1</text>
  <text transform="translate(50.74 216.92)" style="font-size: 8px;fill: #314041;font-family: OpenSans-Bold, Open Sans;font-weight: 700">STATIC</text>
  <text transform="translate(152.91 172.9)" style="font-size: 8px;fill: #314041;font-family: OpenSans-Light, Open Sans;font-weight: 300">LEVEL 2</text>
  <text transform="translate(136.03 188.57)" style="font-size: 8px;fill: #314041;font-family: OpenSans-Bold, Open Sans;font-weight: 700">DISCONNECTED</text>
  <text transform="translate(254.87 144.56)" style="font-size: 8px;fill: #314041;font-family: OpenSans-Light, Open Sans;font-weight: 300">LEVEL 3</text>
  <text transform="translate(246.37 160.23)" style="font-size: 8px;fill: #314041;font-family: OpenSans-Bold, Open Sans;font-weight: 700">IN MOTION</text>
  <text transform="translate(356.95 115.6)" style="font-size: 8px;fill: #314041;font-family: OpenSans-Light, Open Sans;font-weight: 300">LEVEL 4</text>
  <text transform="translate(339.62 131.27)" style="font-size: 8px;fill: #314041;font-family: OpenSans-Bold, Open Sans;font-weight: 700">SYNCHRONIZED</text>
  <text transform="translate(459.91 86.73)" style="font-size: 8px;fill: #314041;font-family: OpenSans-Light, Open Sans;font-weight: 300">LEVEL 5</text>
  <text transform="translate(462.58 102.4)" style="font-size: 8px;fill: #314041;font-family: OpenSans-Bold, Open Sans;font-weight: 700">AGILE</text>
  <text transform="translate(125.96 204.08)" style="font-size: 8px;fill: #3d3d3b;font-family: OpenSans-Bold, Open Sans;font-weight: 700">Some</text>
  <text transform="translate(147.9 204.08)" style="font-size: 8px;fill: #3d3d3b;font-family: OpenSans-Light, Open Sans;font-weight: 300"><tspan xml:space="preserve"> increase in </tspan></text>
  <text transform="translate(125.96 214.08)" style="font-size: 8px;fill: #3d3d3b;font-family: OpenSans-Light, Open Sans;font-weight: 300">speed, </text>
  <text transform="translate(151.79 214.08)" style="font-size: 8px;fill: #3d3d3b;font-family: OpenSans-Bold, Open Sans;font-weight: 700">some</text>
  <text transform="translate(173.3 214.08)" style="font-size: 8px;fill: #3d3d3b;font-family: OpenSans-Light, Open Sans;font-weight: 300"><tspan xml:space="preserve"> increase </tspan></text>
  <text transform="translate(125.96 224.08)" style="font-size: 8px;fill: #3d3d3b;font-family: OpenSans-Light, Open Sans;font-weight: 300">in adaptability</text>
  <text transform="translate(330 146.78)" style="font-size: 8px;fill: #3d3d3b;font-family: OpenSans-Bold, Open Sans;font-weight: 700">Some</text>
  <text transform="translate(351.94 146.78)" style="font-size: 8px;fill: #3d3d3b;font-family: OpenSans-Light, Open Sans;font-weight: 300"><tspan xml:space="preserve"> increase in </tspan></text>
  <text transform="translate(330 156.78)" style="font-size: 8px;fill: #3d3d3b;font-family: OpenSans-Light, Open Sans;font-weight: 300">speed, </text>
  <text transform="translate(355.83 156.78)" style="font-size: 8px;fill: #3d3d3b;font-family: OpenSans-Bold, Open Sans;font-weight: 700">large</text>
  <text transform="translate(375.98 156.78)" style="font-size: 8px;fill: #3d3d3b;font-family: OpenSans-Light, Open Sans;font-weight: 300"><tspan xml:space="preserve"> increase </tspan></text>
  <text transform="translate(330 166.78)" style="font-size: 8px;fill: #3d3d3b;font-family: OpenSans-Light, Open Sans;font-weight: 300">in adaptability</text>
  <text transform="translate(228.98 175.74)" style="font-size: 8px;fill: #3d3d3b;font-family: OpenSans-Bold, Open Sans;font-weight: 700">Large </text>
  <text transform="translate(253.29 175.74)" style="font-size: 8px;fill: #3d3d3b;font-family: OpenSans-Light, Open Sans;font-weight: 300">increase in </text>
  <text transform="translate(228.98 185.74)" style="font-size: 8px;fill: #3d3d3b;font-family: OpenSans-Light, Open Sans;font-weight: 300">speed, </text>
  <text transform="translate(254.81 185.74)" style="font-size: 8px;fill: #3d3d3b;font-family: OpenSans-Bold, Open Sans;font-weight: 700">some </text>
  <text transform="translate(278.4 185.74)" style="font-size: 8px;fill: #3d3d3b;font-family: OpenSans-Light, Open Sans;font-weight: 300">increase </text>
  <text transform="translate(228.98 195.74)" style="font-size: 8px;fill: #3d3d3b;font-family: OpenSans-Light, Open Sans;font-weight: 300">in adaptability</text>
  <text transform="translate(434.02 117.91)" style="font-size: 8px;fill: #3d3d3b;font-family: OpenSans-Bold, Open Sans;font-weight: 700">Large</text>
  <text transform="translate(456.25 117.91)" style="font-size: 8px;fill: #3d3d3b;font-family: OpenSans-Light, Open Sans;font-weight: 300"><tspan xml:space="preserve"> increase in </tspan></text>
  <text transform="translate(434.02 127.91)" style="font-size: 8px;fill: #3d3d3b;font-family: OpenSans-Light, Open Sans;font-weight: 300">speed, </text>
  <text transform="translate(459.85 127.91)" style="font-size: 8px;fill: #3d3d3b;font-family: OpenSans-Bold, Open Sans;font-weight: 700">large</text>
  <text transform="translate(480 127.91)" style="font-size: 8px;fill: #3d3d3b;font-family: OpenSans-Light, Open Sans;font-weight: 300"><tspan xml:space="preserve"> increase </tspan></text>
  <text transform="translate(434.02 137.91)" style="font-size: 8px;fill: #3d3d3b;font-family: OpenSans-Light, Open Sans;font-weight: 300">in adaptability</text>
  <line x1="16.66" y1="228.33" x2="514.82" y2="228.33" style="fill: none;stroke: #b3b2b2;stroke-miterlimit: 10"/>
  <polyline points="510.82 224.6 514.82 228.33 510.82 232.05" style="fill: none;stroke: #b3b2b2;stroke-miterlimit: 10"/>
  <line x1="17.16" y1="10.44" x2="17.16" y2="228.69" style="fill: none;stroke: #b3b2b2;stroke-miterlimit: 10"/>
  <polyline points="13.44 14.44 17.16 10.44 20.88 14.44" style="fill: none;stroke: #b3b2b2;stroke-miterlimit: 10"/>
  <line x1="25.94" y1="206.18" x2="102.47" y2="206.18" style="fill: none;stroke: #b3b2b2;stroke-miterlimit: 10"/>
  <line x1="128.79" y1="177.84" x2="205.33" y2="177.84" style="fill: none;stroke: #b3b2b2;stroke-miterlimit: 10"/>
  <line x1="230.75" y1="149.49" x2="307.29" y2="149.49" style="fill: none;stroke: #b3b2b2;stroke-miterlimit: 10"/>
  <line x1="332.84" y1="120.54" x2="409.37" y2="120.54" style="fill: none;stroke: #b3b2b2;stroke-miterlimit: 10"/>
  <line x1="435.79" y1="91.66" x2="512.33" y2="91.66" style="fill: none;stroke: #b3b2b2;stroke-miterlimit: 10"/>
  <text transform="translate(233.23 241.08)" style="font-size: 8px;fill: #314041;font-family: OpenSans-Bold, Open Sans;font-weight: 700">ADAPTABILITY</text>
  <text transform="translate(13.83 131.26) rotate(-90)" style="font-size: 8px;fill: #314041;font-family: OpenSans-Bold, Open Sans;font-weight: 700">SPEED</text>
</svg>
