<svg id="Layer_1" data-name="Layer 1" xmlns="http://www.w3.org/2000/svg" viewBox="0 0 111.92 111.78">
  <title>72</title>
  <path d="M21,55.9a35,35,0,0,1,34.29-35V2.63A51.9,51.9,0,0,0,45,3.61,53.68,53.68,0,0,0,2.55,66.55l19.1-3.71A35.2,35.2,0,0,1,21,55.9Z" style="fill: #e3e2e3"/>
  <path d="M55.25,2.63V20.91l.71,0a35,35,0,1,1-34.31,42L2.55,66.55A53.07,53.07,0,0,0,55.25,110a53.68,53.68,0,0,0,0-107.36Z" style="fill: #8f89bf"/>
  <g>
    <path d="M41.12,62.45l5.34-11.68h-7V48.25h10.2v1.88L44.27,62.45Z" style="fill: #314041"/>
    <path d="M61,62.45H51.08v-2.1l3.57-3.6c1.06-1.09,1.75-1.84,2.07-2.26a4.47,4.47,0,0,0,.7-1.16,3,3,0,0,0,.22-1.11A1.59,1.59,0,0,0,57.16,51a1.8,1.8,0,0,0-1.25-.42,3.66,3.66,0,0,0-1.61.38A7.86,7.86,0,0,0,52.68,52L51,50.05a11.24,11.24,0,0,1,1.74-1.26,6.2,6.2,0,0,1,1.51-.57,7.89,7.89,0,0,1,1.83-.2,5.31,5.31,0,0,1,2.35.49,3.79,3.79,0,0,1,1.59,1.36,3.65,3.65,0,0,1,.56,2,4.94,4.94,0,0,1-.34,1.85,7.16,7.16,0,0,1-1.07,1.76,28.05,28.05,0,0,1-2.56,2.58l-1.82,1.72v.14H61Z" style="fill: #314041"/>
    <path d="M69,52.47a5.44,5.44,0,0,1-.87,3.36A3,3,0,0,1,65.62,57a2.93,2.93,0,0,1-2.48-1.15,5.46,5.46,0,0,1-.87-3.33c0-3,1.11-4.45,3.35-4.45a3,3,0,0,1,2.53,1.15A5.4,5.4,0,0,1,69,52.47Zm-4.31,0a5.69,5.69,0,0,0,.22,1.84c.14.4.38.61.7.61.62,0,.93-.82.93-2.45s-.31-2.44-.93-2.44c-.32,0-.56.2-.7.6A5.61,5.61,0,0,0,64.72,52.49Zm11-4.26L67.83,62.45H65.5l7.88-14.22ZM79,58.15a5.43,5.43,0,0,1-.86,3.35,3,3,0,0,1-2.54,1.12,2.92,2.92,0,0,1-2.48-1.15,5.45,5.45,0,0,1-.87-3.32c0-3,1.11-4.45,3.35-4.45a3,3,0,0,1,2.52,1.15A5.34,5.34,0,0,1,79,58.15Zm-4.3,0A6,6,0,0,0,74.89,60c.15.4.39.61.71.61.62,0,.93-.82.93-2.45s-.31-2.44-.93-2.44c-.32,0-.56.2-.71.6A6,6,0,0,0,74.68,58.17Z" style="fill: #314041"/>
  </g>
</svg>
