<svg id="Layer_1" data-name="Layer 1" xmlns="http://www.w3.org/2000/svg" viewBox="0 0 111.92 111.78">
  <title>72</title>
  <path d="M21,55.9a35,35,0,0,1,34.29-35V2.63A51.9,51.9,0,0,0,45,3.61,53.68,53.68,0,0,0,2.55,66.55l19.1-3.71A35.2,35.2,0,0,1,21,55.9Z" style="fill: #e3e2e3"/>
  <path d="M55.25,2.63V20.91l.71,0a35,35,0,1,1-34.31,42L2.55,66.55A53.07,53.07,0,0,0,55.25,110a53.68,53.68,0,0,0,0-107.36Z" style="fill: #8f89bf"/>
  <text transform="translate(38.91 62.45)" style="font-size: 19.918540954589844px;fill: #314041;font-family: OpenSans-Bold, Open Sans;font-weight: 700">72%</text>
</svg>
