<svg id="Layer_1" data-name="Layer 1" xmlns="http://www.w3.org/2000/svg" viewBox="0 0 111.92 111.78">
  <title>79</title>
  <g>
    <g>
      <path d="M39.62,61.52,45,49.8h-7V47.26H48.18v1.9l-5.4,12.36Z" style="fill: #314041"/>
      <path d="M59.54,53.34c0,2.81-.6,4.91-1.78,6.3a6.7,6.7,0,0,1-5.38,2.08,10,10,0,0,1-1.92-.14V59.16a7.35,7.35,0,0,0,1.71.2,6,6,0,0,0,2.49-.44,3.14,3.14,0,0,0,1.5-1.4,6.19,6.19,0,0,0,.59-2.62h-.11a3.42,3.42,0,0,1-1.31,1.29,4.11,4.11,0,0,1-1.86.37,3.76,3.76,0,0,1-2.94-1.2A4.8,4.8,0,0,1,49.46,52a5,5,0,0,1,1.3-3.63,4.74,4.74,0,0,1,3.55-1.33,5.14,5.14,0,0,1,2.77.74A4.72,4.72,0,0,1,58.9,50,8.07,8.07,0,0,1,59.54,53.34ZM54.37,49.5a1.78,1.78,0,0,0-1.46.64A2.88,2.88,0,0,0,52.38,52a2.56,2.56,0,0,0,.48,1.64,1.75,1.75,0,0,0,1.45.61,2.26,2.26,0,0,0,1.58-.6,1.86,1.86,0,0,0,.65-1.39,3.12,3.12,0,0,0-.61-2A1.9,1.9,0,0,0,54.37,49.5Z" style="fill: #314041"/>
      <path d="M67.63,51.5a5.5,5.5,0,0,1-.87,3.38A3,3,0,0,1,64.22,56a2.93,2.93,0,0,1-2.49-1.15,5.44,5.44,0,0,1-.88-3.35q0-4.45,3.37-4.46a3,3,0,0,1,2.53,1.16A5.34,5.34,0,0,1,67.63,51.5Zm-4.32,0a5.67,5.67,0,0,0,.22,1.85c.14.41.38.61.71.61q.93,0,.93-2.46c0-1.63-.31-2.44-.93-2.44a.75.75,0,0,0-.71.6A5.61,5.61,0,0,0,63.31,51.52Zm11-4.28L66.43,61.52H64.09L72,47.24Zm3.28,10a5.44,5.44,0,0,1-.87,3.36,3,3,0,0,1-2.54,1.13,2.93,2.93,0,0,1-2.49-1.16,5.39,5.39,0,0,1-.88-3.33q0-4.47,3.37-4.47a3,3,0,0,1,2.53,1.16A5.35,5.35,0,0,1,77.63,57.21Zm-4.32,0a5.79,5.79,0,0,0,.22,1.86c.14.4.38.61.71.61.62,0,.93-.82.93-2.47s-.31-2.44-.93-2.44a.75.75,0,0,0-.71.6A5.65,5.65,0,0,0,73.31,57.22Z" style="fill: #314041"/>
    </g>
    <path d="M56,20.48V3A52.5,52.5,0,0,0,4.6,43.08l17,4.24A35.41,35.41,0,0,1,56,20.48Z" style="fill: #e3e2e3"/>
    <path d="M56,3V20.48A35.4,35.4,0,1,1,21.61,47.32l-17-4.24A48.56,48.56,0,0,0,3,55.89,52.94,52.94,0,1,0,56,3Z" style="fill: #8cb8a2"/>
  </g>
</svg>
