<svg id="Layer_1" data-name="Layer 1" xmlns="http://www.w3.org/2000/svg" viewBox="0 0 523.42 248.08">
  <title>agility</title>
  <g>
    <path d="M426.09,64.64H317.94a10.57,10.57,0,1,1,0-21.14H426.09a10.57,10.57,0,1,1,0,21.14" style="fill: #6ca4b3"/>
    <path d="M426.09,64.64H317.94a10.57,10.57,0,1,1,0-21.14H426.09a10.57,10.57,0,1,1,0,21.14Z" style="fill: none;stroke: #fff;stroke-miterlimit: 10;stroke-width: 5px"/>
    <path d="M436.66,54.07A10.61,10.61,0,0,0,426.09,43.5H372V64.64h54.08a10.61,10.61,0,0,0,10.57-10.57" style="fill: #1d1d1b"/>
    <path d="M436.66,54.07A10.61,10.61,0,0,0,426.09,43.5H372V64.64h54.08A10.61,10.61,0,0,0,436.66,54.07Z" style="fill: none;stroke: #fff;stroke-miterlimit: 10;stroke-width: 5px"/>
    <path d="M426.09,136.34H317.94a10.57,10.57,0,1,1,0-21.14H426.09a10.57,10.57,0,1,1,0,21.14" style="fill: #de9393"/>
    <path d="M426.09,136.34H317.94a10.57,10.57,0,1,1,0-21.14H426.09a10.57,10.57,0,1,1,0,21.14Z" style="fill: none;stroke: #fff;stroke-miterlimit: 10;stroke-width: 5px"/>
    <path d="M436.66,125.77a10.61,10.61,0,0,0-10.57-10.57H372v21.14h54.08a10.6,10.6,0,0,0,10.57-10.57" style="fill: #1d1d1b"/>
    <path d="M436.66,125.77a10.61,10.61,0,0,0-10.57-10.57H372v21.14h54.08A10.6,10.6,0,0,0,436.66,125.77Z" style="fill: none;stroke: #fff;stroke-miterlimit: 10;stroke-width: 5px"/>
    <path d="M426.09,100.92H317.94a10.57,10.57,0,1,1,0-21.13H426.09a10.57,10.57,0,1,1,0,21.13" style="fill: #ebab7a"/>
    <path d="M426.09,100.92H317.94a10.57,10.57,0,1,1,0-21.13H426.09a10.57,10.57,0,1,1,0,21.13Z" style="fill: none;stroke: #fff;stroke-miterlimit: 10;stroke-width: 5px"/>
    <path d="M436.66,90.35a10.6,10.6,0,0,0-10.57-10.56H372v21.13h54.08a10.6,10.6,0,0,0,10.57-10.57" style="fill: #1d1d1b"/>
    <path d="M436.66,90.35a10.6,10.6,0,0,0-10.57-10.56H372v21.13h54.08A10.6,10.6,0,0,0,436.66,90.35Z" style="fill: none;stroke: #fff;stroke-miterlimit: 10;stroke-width: 5px"/>
    <path d="M426.09,172.62H317.94a10.57,10.57,0,1,1,0-21.13H426.09a10.57,10.57,0,1,1,0,21.13" style="fill: #8cb8a2"/>
    <path d="M426.09,172.62H317.94a10.57,10.57,0,1,1,0-21.13H426.09a10.57,10.57,0,1,1,0,21.13Z" style="fill: none;stroke: #fff;stroke-miterlimit: 10;stroke-width: 5px"/>
    <path d="M436.66,162.06a10.6,10.6,0,0,0-10.57-10.57H372v21.13h54.08a10.6,10.6,0,0,0,10.57-10.56" style="fill: #1d1d1b"/>
    <path d="M436.66,162.06a10.6,10.6,0,0,0-10.57-10.57H372v21.13h54.08A10.6,10.6,0,0,0,436.66,162.06Z" style="fill: none;stroke: #fff;stroke-miterlimit: 10;stroke-width: 5px"/>
    <path d="M426.09,207.51H317.94a10.57,10.57,0,0,1,0-21.14H426.09a10.57,10.57,0,1,1,0,21.14" style="fill: #8f89bf"/>
    <path d="M426.09,207.51H317.94a10.57,10.57,0,0,1,0-21.14H426.09a10.57,10.57,0,1,1,0,21.14Z" style="fill: none;stroke: #fff;stroke-miterlimit: 10;stroke-width: 5px"/>
    <path d="M436.66,196.94a10.6,10.6,0,0,0-10.57-10.57H372v21.14h54.08a10.61,10.61,0,0,0,10.57-10.57" style="fill: #1d1d1b"/>
    <path d="M436.66,196.94a10.6,10.6,0,0,0-10.57-10.57H372v21.14h54.08A10.61,10.61,0,0,0,436.66,196.94Z" style="fill: none;stroke: #fff;stroke-miterlimit: 10;stroke-width: 5px"/>
    <path d="M372,65.31a11.24,11.24,0,1,0-11.23-11.24A11.24,11.24,0,0,0,372,65.31" style="fill: #fff"/>
    <path d="M372,65.31a11.24,11.24,0,1,0-11.23-11.24A11.24,11.24,0,0,0,372,65.31Z" style="fill: none;stroke: #6ca4b3;stroke-miterlimit: 10;stroke-width: 3px"/>
    <path d="M372,137a11.24,11.24,0,1,0-11.23-11.24A11.24,11.24,0,0,0,372,137" style="fill: #fff"/>
    <path d="M372,137a11.24,11.24,0,1,0-11.23-11.24A11.24,11.24,0,0,0,372,137Z" style="fill: none;stroke: #de9393;stroke-miterlimit: 10;stroke-width: 3px"/>
    <path d="M372,101.59a11.24,11.24,0,1,0-11.23-11.23A11.23,11.23,0,0,0,372,101.59" style="fill: #fff"/>
    <path d="M372,101.59a11.24,11.24,0,1,0-11.23-11.23A11.23,11.23,0,0,0,372,101.59Z" style="fill: none;stroke: #ebab7a;stroke-miterlimit: 10;stroke-width: 3px"/>
    <path d="M372,173.29a11.24,11.24,0,1,0-11.23-11.23A11.23,11.23,0,0,0,372,173.29" style="fill: #fff"/>
    <path d="M372,173.29a11.24,11.24,0,1,0-11.23-11.23A11.23,11.23,0,0,0,372,173.29Z" style="fill: none;stroke: #8cb8a2;stroke-miterlimit: 10;stroke-width: 3px"/>
    <path d="M372,208.17a11.24,11.24,0,1,0-11.23-11.23A11.23,11.23,0,0,0,372,208.17" style="fill: #fff"/>
    <path d="M372,208.17a11.24,11.24,0,1,0-11.23-11.23A11.23,11.23,0,0,0,372,208.17Z" style="fill: none;stroke: #8f89bf;stroke-miterlimit: 10;stroke-width: 3px"/>
  </g>
  <text transform="translate(389.46 55.93)" style="font-size: 6px;fill: #fff;font-family: OpenSans-Semibold, Open Sans;font-weight: 600">LEADERSHIP</text>
  <text transform="translate(389.46 127.63)" style="font-size: 6px;fill: #fff;font-family: OpenSans-Semibold, Open Sans;font-weight: 600">PROCESS</text>
  <text transform="translate(389.46 92.21)" style="font-size: 6px;fill: #fff;font-family: OpenSans-Semibold, Open Sans;font-weight: 600">STRUCTURE</text>
  <text transform="translate(389.46 163.91)" style="font-size: 6px;fill: #fff;font-family: OpenSans-Semibold, Open Sans;font-weight: 600">PORTFOLIO</text>
  <text transform="translate(389.46 198.8)" style="font-size: 6px;fill: #fff;font-family: OpenSans-Semibold, Open Sans;font-weight: 600">ARCHITECTURE</text>
  <text transform="translate(255.98 52.13)" style="font-size: 8px;fill: #3c3c3b;font-family: OpenSans-Light, Open Sans;font-weight: 300">Non strategic </text>
  <text transform="translate(278.21 62.13)" style="font-size: 8px;fill: #3c3c3b;font-family: OpenSans-Light, Open Sans;font-weight: 300">priority</text>
  <text transform="translate(268.49 118.84)" style="font-size: 8px;fill: #3c3c3b;font-family: OpenSans-Light, Open Sans;font-weight: 300">Static and </text>
  <text transform="translate(266.91 128.84)" style="font-size: 8px;fill: #3c3c3b;font-family: OpenSans-Light, Open Sans;font-weight: 300">consistent </text>
  <text transform="translate(275.64 138.84)" style="font-size: 8px;fill: #3c3c3b;font-family: OpenSans-Light, Open Sans;font-weight: 300">process</text>
  <text transform="translate(253.47 88.42)" style="font-size: 8px;fill: #3c3c3b;font-family: OpenSans-Light, Open Sans;font-weight: 300">Hierarchical &amp; </text>
  <text transform="translate(282.03 98.42)" style="font-size: 8px;fill: #3c3c3b;font-family: OpenSans-Light, Open Sans;font-weight: 300">Siloed</text>
  <text transform="translate(255.18 160.12)" style="font-size: 8px;fill: #3c3c3b;font-family: OpenSans-Light, Open Sans;font-weight: 300">Standard and </text>
  <text transform="translate(248.12 170.12)" style="font-size: 8px;fill: #3c3c3b;font-family: OpenSans-Light, Open Sans;font-weight: 300">ridged portfolio</text>
  <text transform="translate(242.86 195)" style="font-size: 8px;fill: #3c3c3b;font-family: OpenSans-Light, Open Sans;font-weight: 300">Static technology </text>
  <text transform="translate(270.9 205)" style="font-size: 8px;fill: #3c3c3b;font-family: OpenSans-Light, Open Sans;font-weight: 300">structure</text>
  <text transform="translate(440.25 52.14)" style="font-size: 8px;fill: #3c3c3b;font-family: OpenSans-Light, Open Sans;font-weight: 300">Agile-led </text>
  <text transform="translate(440.25 62.14)" style="font-size: 8px;fill: #3c3c3b;font-family: OpenSans-Light, Open Sans;font-weight: 300">strategy</text>
  <text transform="translate(440.25 123.84)" style="font-size: 8px;fill: #3c3c3b;font-family: OpenSans-Light, Open Sans;font-weight: 300">Adaptive and<tspan x="0" y="9.6">fexible processes </tspan></text>
  <text transform="translate(440.25 88.43)" style="font-size: 8px;fill: #3c3c3b;font-family: OpenSans-Light, Open Sans;font-weight: 300">Fluid and organic </text>
  <text transform="translate(440.25 98.43)" style="font-size: 8px;fill: #3c3c3b;font-family: OpenSans-Light, Open Sans;font-weight: 300">adaptability</text>
  <text transform="translate(440.25 160.13)" style="font-size: 8px;fill: #3c3c3b;font-family: OpenSans-Light, Open Sans;font-weight: 300">Customer centric </text>
  <text transform="translate(440.25 170.13)" style="font-size: 8px;fill: #3c3c3b;font-family: OpenSans-Light, Open Sans;font-weight: 300">&amp; adaptable</text>
  <text transform="translate(440.25 195.01)" style="font-size: 8px;fill: #3c3c3b;font-family: OpenSans-Light, Open Sans;font-weight: 300">Digital </text>
  <text transform="translate(440.25 205.01)" style="font-size: 8px;fill: #3c3c3b;font-family: OpenSans-Light, Open Sans;font-weight: 300">platform</text>
  <g>
    <path d="M372,50.09a4,4,0,1,1-4,4,4,4,0,0,1,4-4" style="fill: #6ca4b3"/>
    <path d="M372,86.38a4,4,0,1,1-4,4,4,4,0,0,1,4-4" style="fill: #ebab7a"/>
    <path d="M372,121.8a4,4,0,1,1-4,4,4,4,0,0,1,4-4" style="fill: #de9393"/>
    <path d="M372,158.08a4,4,0,1,1-4,4,4,4,0,0,1,4-4" style="fill: #8cb8a2"/>
    <path d="M372,193a4,4,0,1,1-4,4,4,4,0,0,1,4-4" style="fill: #8f89bf"/>
    <path d="M26.81,160.14A106.72,106.72,0,0,0,232.63,141.7" style="fill: none;stroke: #c6c6c6;stroke-miterlimit: 10;stroke-width: 1.33200001716614px"/>
    <path d="M232.68,107.23A106.74,106.74,0,0,0,27.1,87.63" style="fill: none;stroke: #c6c6c6;stroke-miterlimit: 10;stroke-width: 1.33200001716614px"/>
    <path d="M127.35,201.2a75.56,75.56,0,1,1,75.56-75.56,75.56,75.56,0,0,1-75.56,75.56" style="fill: #f6f6f6"/>
  </g>
  <polygon points="127.35 86.69 90.35 113.57 104.48 157.07 150.22 157.07 164.35 113.57 127.35 86.69" style="fill: #314041"/>
  <text transform="translate(108.86 146.46)" style="font-size: 10px;fill: #fff;font-family: OpenSans-Semibold, Open Sans;font-weight: 600">AGILITY</text>
  <g>
    <path d="M127.25,72.55A22.76,22.76,0,1,0,104.5,49.79a22.76,22.76,0,0,0,22.75,22.76" style="fill: #6ca4b3"/>
    <path d="M98,56.19A71.89,71.89,0,0,0,71.48,74.05" style="fill: none;stroke: #c6c6c6;stroke-linecap: round;stroke-linejoin: round;stroke-width: 1.33200001716614px;stroke-dasharray: 0,2.5810000896453857"/>
    <path d="M70.59,75h0m29.86-19.68h0" style="fill: none;stroke: #c6c6c6;stroke-linecap: round;stroke-linejoin: round;stroke-width: 1.33200001716614px"/>
    <polyline points="95 52.9 100.45 55.31 97.66 60.57" style="fill: none;stroke: #c6c6c6;stroke-miterlimit: 10;stroke-width: 1.33200001716614px"/>
    <path d="M181.1,72a71.77,71.77,0,0,0-26.46-17" style="fill: none;stroke: #c6c6c6;stroke-linecap: round;stroke-linejoin: round;stroke-width: 1.33200001716614px;stroke-dasharray: 0,2.759000062942505"/>
    <path d="M153.34,54.45h0M183,74h0" style="fill: none;stroke: #c6c6c6;stroke-linecap: round;stroke-linejoin: round;stroke-width: 1.33200001716614px"/>
    <polyline points="183.06 68.02 183 73.97 177.06 73.48" style="fill: none;stroke: #c6c6c6;stroke-miterlimit: 10;stroke-width: 1.33200001716614px"/>
    <path d="M197.11,156a81.1,81.1,0,0,0,5.44-29.17" style="fill: none;stroke: #c6c6c6;stroke-linecap: round;stroke-linejoin: round;stroke-width: 1.33200001716614px;stroke-dasharray: 0,2.5950000286102295"/>
    <path d="M202.55,125c0,.08,0,.17,0,.25" style="fill: none;stroke: #c6c6c6;stroke-linecap: round;stroke-linejoin: round;stroke-width: 1.33200001716614px;stroke-dasharray: 0,0.5109999775886536"/>
    <path d="M202.55,125h0m0,.51h0m-6.43,32.87h0" style="fill: none;stroke: #c6c6c6;stroke-linecap: round;stroke-linejoin: round;stroke-width: 1.33200001716614px"/>
    <polyline points="201.58 155.95 196.13 158.36 194.12 152.76" style="fill: none;stroke: #c6c6c6;stroke-miterlimit: 10;stroke-width: 1.33200001716614px"/>
    <path d="M101.56,197.27a68.19,68.19,0,0,0,24.3,4.57" style="fill: none;stroke: #c6c6c6;stroke-linecap: round;stroke-linejoin: round;stroke-width: 1.33200001716614px;stroke-dasharray: 0,2.617000102996826"/>
    <path d="M129.79,201.81a73.11,73.11,0,0,0,24.28-5.08" style="fill: none;stroke: #c6c6c6;stroke-linecap: round;stroke-linejoin: round;stroke-width: 1.33200001716614px;stroke-dasharray: 0,2.622999906539917"/>
    <path d="M155.28,196.24h0m-28.11,5.61h0m-28-5.57h0" style="fill: none;stroke: #c6c6c6;stroke-linecap: round;stroke-linejoin: round;stroke-width: 1.33200001716614px"/>
    <polyline points="101.54 201.73 99.14 196.28 104.75 194.28" style="fill: none;stroke: #c6c6c6;stroke-miterlimit: 10;stroke-width: 1.33200001716614px"/>
    <path d="M52.29,129.59a84.2,84.2,0,0,0,5.56,27.83" style="fill: none;stroke: #c6c6c6;stroke-linecap: round;stroke-linejoin: round;stroke-width: 1.33200001716614px;stroke-dasharray: 0,2.7160000801086426"/>
    <path d="M58.34,158.69h0m-6.08-31.82h0" style="fill: none;stroke: #c6c6c6;stroke-linecap: round;stroke-linejoin: round;stroke-width: 1.33200001716614px"/>
    <polyline points="48.2 131.24 52.26 126.88 56.31 131.24" style="fill: none;stroke: #c6c6c6;stroke-miterlimit: 10;stroke-width: 1.33200001716614px"/>
  </g>
  <text transform="translate(111.2 60.07)" style="font-size: 6px;fill: #fff;font-family: OpenSans-Semibold, Open Sans;font-weight: 600">Leadership</text>
  <polygon points="124.22 13.38 130.47 17.55 124.22 21.72 124.22 13.38" style="fill: #c6c6c6"/>
  <polygon points="130.47 226.36 124.22 230.52 130.47 234.69 130.47 226.36" style="fill: #c6c6c6"/>
  <g>
    <path d="M177.62,202.69a22.76,22.76,0,1,0-22.76-22.76,22.76,22.76,0,0,0,22.76,22.76" style="fill: #de9393"/>
    <path d="M74,202.69a22.76,22.76,0,1,0-22.75-22.76A22.76,22.76,0,0,0,74,202.69" style="fill: #8cb8a2"/>
  </g>
  <text transform="translate(61.62 189.78)" style="font-size: 6px;fill: #fff;font-family: OpenSans-Semibold, Open Sans;font-weight: 600">Portfolio </text>
  <text transform="translate(65.25 197.78)" style="font-size: 6px;fill: #fff;font-family: OpenSans-Semibold, Open Sans;font-weight: 600">Agility</text>
  <text transform="translate(166.52 189.78)" style="font-size: 6px;fill: #fff;font-family: OpenSans-Semibold, Open Sans;font-weight: 600">Process</text>
  <text transform="translate(168.68 197.78)" style="font-size: 6px;fill: #fff;font-family: OpenSans-Semibold, Open Sans;font-weight: 600">Agility</text>
  <path d="M197.71,120A22.76,22.76,0,1,0,175,97.28,22.75,22.75,0,0,0,197.71,120" style="fill: #ebab7a"/>
  <text transform="translate(184.89 107.09)" style="font-size: 6px;fill: #fff;font-family: OpenSans-Semibold, Open Sans;font-weight: 600">Structural</text>
  <text transform="translate(190.41 115.09)" style="font-size: 6px;fill: #fff;font-family: OpenSans-Semibold, Open Sans;font-weight: 600">Agility</text>
  <text transform="translate(28.04 156.65) rotate(-106.18)" style="font-size: 8.000040054321289px;fill: #314041;font-family: OpenSans-Bold, Open Sans;font-weight: 700">A</text>
  <text transform="translate(26.27 150.53) rotate(-102)" style="font-size: 7.999969959259033px;fill: #314041;font-family: OpenSans-Bold, Open Sans;font-weight: 700">D</text>
  <text transform="translate(24.86 144.06) rotate(-99.19)" style="font-size: 8.000029563903809px;fill: #314041;font-family: OpenSans-Bold, Open Sans;font-weight: 700">A</text>
  <text transform="matrix(-0.11, -0.99, 0.99, -0.11, 23.91, 137.81)" style="font-size: 7.999959945678711px;fill: #314041;font-family: OpenSans-Bold, Open Sans;font-weight: 700">P</text>
  <text transform="translate(23.27 132.06) rotate(-92.12)" style="font-size: 8px;fill: #314041;font-family: OpenSans-Bold, Open Sans;font-weight: 700">T</text>
  <text transform="translate(22.97 126.6) rotate(-89.29)" style="font-size: 8.000009536743164px;fill: #314041;font-family: OpenSans-Bold, Open Sans;font-weight: 700">A</text>
  <text transform="translate(23.07 120.26) rotate(-86.46)" style="font-size: 7.999969959259033px;fill: #314041;font-family: OpenSans-Bold, Open Sans;font-weight: 700">B</text>
  <text transform="matrix(0.11, -0.99, 0.99, 0.11, 23.49, 114.07)" style="font-size: 7.999959945678711px;fill: #314041;font-family: OpenSans-Bold, Open Sans;font-weight: 700">I</text>
  <text transform="translate(23.84 110.65) rotate(-80.81)" style="font-size: 8.000029563903809px;fill: #314041;font-family: OpenSans-Bold, Open Sans;font-weight: 700">L</text>
  <text transform="translate(24.77 105.4) rotate(-78)" style="font-size: 7.999969959259033px;fill: #314041;font-family: OpenSans-Bold, Open Sans;font-weight: 700">I</text>
  <text transform="matrix(0.23, -0.97, 0.97, 0.23, 25.41, 102.02)" style="font-size: 8.000009536743164px;fill: #314041;font-family: OpenSans-Bold, Open Sans;font-weight: 700">T</text>
  <text transform="translate(26.72 96.8) rotate(-73.82)" style="font-size: 8.000040054321289px;fill: #314041;font-family: OpenSans-Bold, Open Sans;font-weight: 700">Y</text>
  <text transform="matrix(0.11, 0.99, -0.99, 0.11, 230.76, 110.57)" style="font-size: 7.999959945678711px;fill: #314041;font-family: OpenSans-Bold, Open Sans;font-weight: 700">S</text>
  <text transform="translate(231.34 115.75) rotate(86.46)" style="font-size: 7.999969959259033px;fill: #314041;font-family: OpenSans-Bold, Open Sans;font-weight: 700">P</text>
  <text transform="translate(231.66 121.55) rotate(89.29)" style="font-size: 8.000009536743164px;fill: #314041;font-family: OpenSans-Bold, Open Sans;font-weight: 700">E</text>
  <text transform="translate(231.7 126.88) rotate(92.12)" style="font-size: 8px;fill: #314041;font-family: OpenSans-Bold, Open Sans;font-weight: 700">E</text>
  <text transform="matrix(-0.11, 0.99, -0.99, -0.11, 231.47, 132.17)" style="font-size: 7.999959945678711px;fill: #314041;font-family: OpenSans-Bold, Open Sans;font-weight: 700">D</text>
  <path d="M56.16,120A22.76,22.76,0,1,0,33.4,97.28,22.74,22.74,0,0,0,56.16,120" style="fill: #8f89bf"/>
  <text transform="translate(39.19 101.55)" style="font-size: 6px;fill: #fff;font-family: OpenSans-Semibold, Open Sans;font-weight: 600">Technology </text>
  <text transform="translate(37.69 109.55)" style="font-size: 6px;fill: #fff;font-family: OpenSans-Semibold, Open Sans;font-weight: 600">Architecture </text>
  <text transform="translate(46.74 117.54)" style="font-size: 6px;fill: #fff;font-family: OpenSans-Semibold, Open Sans;font-weight: 600">Agility</text>
  <path d="M124.26,125.72l1.61-1.62M132,118l-4,4m.5,1.1a1.61,1.61,0,1,1-1.61-1.6A1.61,1.61,0,0,1,128.55,123Zm-8-2.68a7,7,0,0,1,10.17-3.18m4.82-1.63-2.15-2.13m-.53,2.67,1.6-1.61m-16.05,1.07,2.14-2.13m.53,2.67-1.6-1.61m4.81-4.81h5.36v2.14h-5.36Zm1.61,4.28V111.8m2.14,0v2.14m8,16,2.14,2.14L136,134.26m-20.34-2.14h5.89m10.17-1.37a9.11,9.11,0,1,0-4.82,1.37h11.24" style="fill: none;stroke: #fff;stroke-miterlimit: 10;stroke-width: 1.14800000190735px"/>
  <polyline points="176.53 173.93 177.61 174.95 180.86 171.9" style="fill: none;stroke: #fff;stroke-miterlimit: 10;stroke-width: 0.799000024795532px"/>
  <g>
    <path d="M178.33,171.07a3.39,3.39,0,1,0,2.66,4" style="fill: none;stroke: #fff;stroke-miterlimit: 10;stroke-width: 0.799000024795532px"/>
    <path d="M184.66,175.26v-1.91l-1.15-.24c-.06-.23-.13-.46-.21-.68l.86-.77-1-1.65-1.19.38a5.11,5.11,0,0,0-.48-.45l.38-1.15-1.67-.95-.85.92-.63-.16-.25-1.18h-1.93l-.25,1.18c-.23.05-.45.11-.67.18l-.79-.87-1.67,1,.36,1.08c-.2.17-.38.35-.56.53l-1-.33-1,1.65.76.68a5.8,5.8,0,0,0-.24.84l-.95.2v1.9l.91.19a5.75,5.75,0,0,0,.23.93l-.64.58,1,1.64.79-.25a8.5,8.5,0,0,0,.74.73l-.24.75,1.66,1,.55-.6a6.9,6.9,0,0,0,1,.25l.17.77h1.92l.18-.83a6.74,6.74,0,0,0,1-.29l.56.62,1.67-.95-.29-.89a6.56,6.56,0,0,0,.62-.67l.9.28,1-1.65-.78-.7a6.93,6.93,0,0,0,.17-.79Z" style="fill: none;stroke: #fff;stroke-miterlimit: 10;stroke-width: 0.799000024795532px"/>
    <path d="M76.61,176.43H71.42m-1.86,0h-.75a3.08,3.08,0,0,1-3.33-3V169H82.55v4.43a3.09,3.09,0,0,1-3.34,3h-.74M82.18,175v7H65.85v-7" style="fill: none;stroke: #fff;stroke-miterlimit: 10;stroke-width: 0.799000024795532px"/>
    <path d="M76.17,168.19v-.35a1.06,1.06,0,0,0-1.08-1.06H72.57a1.07,1.07,0,0,0-1.09,1.06v.35" style="fill: none;stroke: #fff;stroke-miterlimit: 10;stroke-width: 0.799000024795532px"/>
  </g>
  <path d="M78.42,177.48H76.59v-2.06h1.83Zm-7,0H69.61v-2.06h1.83Z" style="fill: none;stroke: #fff;stroke-miterlimit: 10;stroke-width: 0.799000024795532px"/>
  <g>
    <path d="M127.21,36.54h4.9V39m-11,11.38h4.09l2.45-2.44H128V52.4m1.64-8.54v.81l-2.45.81-3.28,3.26h-4.09m13.09-.82V52.4h-3.68m2-8.54v.81l2.28.8a1.61,1.61,0,0,1,1,1.49V52.4m-4.09-12.61h0a1.63,1.63,0,0,1,1.63,1.63v.81a1.64,1.64,0,0,1-3.27,0v-.81A1.63,1.63,0,0,1,130.48,39.79Z" style="fill: none;stroke: #fff;stroke-miterlimit: 10;stroke-width: 0.799000024795532px"/>
    <path d="M119.94,52.49V33.66h6.41a.81.81,0,0,1,.81.81V41" style="fill: none;stroke: #fff;stroke-miterlimit: 10;stroke-width: 0.799000024795532px"/>
    <path d="M122.31,42.56V40.24m5.6,3.1h-4.77a.78.78,0,1,1,0-1.55h3.29a.78.78,0,1,0,0-1.55h-6.59" style="fill: none;stroke: #fff;stroke-miterlimit: 10;stroke-width: 0.799000024795532px"/>
    <path d="M197.52,83.88v1.87m2.95-3.55c0,.92-1.32,1.68-2.95,1.68s-3-.76-3-1.68,1.33-1.69,3-1.69S200.47,81.27,200.47,82.2ZM202.32,94v3.36m-9.6-3.74V97h4.8V92.47h2.58m-5.54-4.86h-1.84V91m7.75-3.37h1.85V91m-7.39,2.61H190.5V91.35h4.43Zm7.39.38-2.22-1.5L202.32,91l2.22,1.49Zm-4.8-4.49-3-1.87,3-1.86,2.95,1.86Z" style="fill: none;stroke: #fff;stroke-miterlimit: 10;stroke-width: 0.799000024795532px"/>
    <path d="M56.16,93.13V91a.94.94,0,0,0,.7.35,1,1,0,0,0,0-2.1,1,1,0,0,0-.7.35v-2.1m-5.93,0h2.45a.94.94,0,0,0-.35.7,1,1,0,1,0,2.09,0,.94.94,0,0,0-.35-.7h2.09M62,85.44,63.46,84a1,1,0,0,1-.74-.24,1.08,1.08,0,0,1,0-1.49,1,1,0,0,1,1.48,0,1,1,0,0,1,.25.74l1.48-1.48-3.21-3.21a1,1,0,0,0-1.48,0L58,81.48Zm-5.82,2.09V85.44a1,1,0,0,1-.69.35,1.05,1.05,0,1,1,0-2.1,1,1,0,0,1,.69.35v-2.1H51.28a1,1,0,0,0-1.05,1v9.09a1,1,0,0,0,1.05,1H60.7a1,1,0,0,0,1-1V87.53h-2.1a1,1,0,0,0,.35-.7,1,1,0,0,0-2.09,0,.88.88,0,0,0,.35.7Z" style="fill: none;stroke: #fff;stroke-miterlimit: 10;stroke-width: 0.799000024795532px"/>
  </g>
</svg>
