<svg id="Layer_1" data-name="Layer 1" xmlns="http://www.w3.org/2000/svg" viewBox="0 0 222.14 48.11">
  <title>idc-logo-white</title>
  <path d="M171.63,5.44V40.87a.31.31,0,0,0,.62,0V5.44a.31.31,0,0,0-.62,0" style="fill: #fff"/>
  <path d="M88.83,40.36c-1.15,0-3.3-.2-5.46-.2-3.05,0-4.1.2-4.8.2-.91,0-1.06-.25-1.06-.75,0-1.46,3.91.2,3.91-4.76V9.21c0-3.66-4.06-2.66-4.06-3.76,0-.45.1-.55.51-.55,1.85,0,3.65.2,5.5.2,1.56,0,3.11-.2,4.66-.2.8,0,1,.1,1,.5,0,1.2-3.6,0-3.6,3.81V36.1c0,3.41,4.45,2.25,4.45,3.76,0,.35-.15.5-1,.5" style="fill: #fff"/>
  <path d="M105.29,6.15c-4.75,0-5,.8-5,3.16V33.1c0,.8-.15,3.2.31,3.65,1.65,1.65,5.45,2.26,7.71,2.26,7.11,0,13.87-3.81,13.87-15.38,0-11.12-7.41-17.43-16.93-17.48m1.31,34.21c-2.56,0-5.11-.2-7.67-.2-.45,0-5.26.2-5.61.2s-.5-.2-.5-.5c0-1.16,3.56.1,3.56-4.66V10.26c0-5.11-4.11-3.51-4.11-4.86,0-.35.4-.5.7-.5,1.56,0,3,.2,4.51.2,3.31,0,6.56-.2,10.87-.2,8.86,0,17.58,6.71,17.58,16,0,11.52-5.46,19.48-19.33,19.48" style="fill: #fff"/>
  <path d="M147,40.71c-10.27,0-17.63-7.06-17.63-17.43s7.46-18.83,18-18.83c9.41,0,12,3.86,13.47,3.86.4,0,.7-.5,1.2-.5s.55.8.7,4.05c.1,2.66.55,4.31-.3,4.31-.6,0-.95-1.3-1.15-1.65-3.1-5.36-6.66-8.62-13.12-8.62-9.77,0-14.48,6.51-14.48,15.83,0,8.71,5,17.43,14.63,17.43,7.86,0,12.77-5,13.52-7.32a.85.85,0,0,1,.7-.65.5.5,0,0,1,.45.55l-1.15,5c0,.2-3.61,4-14.87,4" style="fill: #fff"/>
  <path d="M67.72,10.84h-47a20.26,20.26,0,0,0-1.6,2.28H5.43a.45.45,0,1,0,0,.89H54.55a18.43,18.43,0,0,0-1.43-2.27h14.6a.45.45,0,0,0,0-.9" style="fill: #fff"/>
  <path d="M67.72,16.69H17.39a21.4,21.4,0,0,0-.71,2.4H5.43a.45.45,0,0,0,0,.9H56.65a21,21,0,0,0-.59-2.4H67.72a.45.45,0,0,0,0-.9" style="fill: #fff"/>
  <path d="M67.72,22.15H16.22c0,.5-.06,1-.06,1.52s0,.84,0,1.26H5.43a.45.45,0,1,0,0,.89H56.87c.07-.71.11-1.43.11-2.16,0-.21,0-.42,0-.63H67.72a.45.45,0,0,0,0-.9" style="fill: #fff"/>
  <path d="M67.72,27.75H16.57a19.29,19.29,0,0,0,.87,3h-12a.45.45,0,1,0,0,.9H55.35a19.62,19.62,0,0,0,1-3H67.72a.45.45,0,0,0,0-.9" style="fill: #fff"/>
  <path d="M67.72,33.34H18.59a21.08,21.08,0,0,0,2.22,3.29H5.43a.45.45,0,1,0,0,.89H51.56A21,21,0,0,0,54,34.24H67.72a.45.45,0,0,0,.44-.45.45.45,0,0,0-.44-.45" style="fill: #fff"/>
  <path d="M67.72,38.93H23a20.39,20.39,0,0,0,26,.89H67.72a.45.45,0,0,0,.44-.45.45.45,0,0,0-.44-.45" style="fill: #fff"/>
  <path d="M5.43,8.43H50.12a20.13,20.13,0,0,0-2.78-2.08H67.72a.45.45,0,0,0,0-.9h-22A20.41,20.41,0,0,0,24.1,7.53H5.43A.45.45,0,0,0,5,8a.45.45,0,0,0,.45.45" style="fill: #fff"/>
  <path d="M184.54,16.21h-3l-.5,1.28h-1l2.45-6.18h1.16l2.46,6.18h-1Zm-2.76-.83h2.49L183,12.11Z" style="fill: #fff"/>
  <polygon points="187.5 12.74 187.5 17.49 186.57 17.49 186.57 11.31 187.53 11.31 190.89 15.94 190.89 11.31 191.81 11.31 191.81 17.49 190.92 17.49 187.5 12.74" style="fill: #fff"/>
  <path d="M196.87,16.21h-3l-.5,1.28h-1l2.46-6.18h1.16l2.45,6.18h-1Zm-2.76-.83h2.49l-1.25-3.27Z" style="fill: #fff"/>
  <polygon points="198.91 11.31 199.83 11.31 199.83 16.67 202.64 16.67 202.64 17.49 198.91 17.49 198.91 11.31" style="fill: #fff"/>
  <polygon points="204.14 14.9 201.72 11.31 202.79 11.31 204.61 14.07 206.4 11.31 207.48 11.31 205.07 14.9 205.07 17.49 204.14 17.49 204.14 14.9" style="fill: #fff"/>
  <polygon points="207.87 16.73 211.18 12.12 207.87 12.12 207.87 11.31 212.38 11.31 212.38 12.07 209.06 16.67 212.44 16.67 212.44 17.49 207.87 17.49 207.87 16.73" style="fill: #fff"/>
  <polygon points="213.19 11.31 217.34 11.31 217.34 12.12 214.12 12.12 214.12 13.93 217.28 13.93 217.28 14.74 214.12 14.74 214.12 16.67 217.34 16.67 217.34 17.49 213.19 17.49 213.19 11.31" style="fill: #fff"/>
  <polygon points="182.14 20.15 180.22 20.15 180.22 19.34 184.97 19.34 184.97 20.15 183.06 20.15 183.06 25.52 182.14 25.52 182.14 20.15" style="fill: #fff"/>
  <polygon points="189.94 22.75 186.52 22.75 186.52 25.52 185.59 25.52 185.59 19.34 186.52 19.34 186.52 21.93 189.94 21.93 189.94 19.34 190.86 19.34 190.86 25.52 189.94 25.52 189.94 22.75" style="fill: #fff"/>
  <polygon points="192.06 19.34 196.21 19.34 196.21 20.15 192.98 20.15 192.98 21.96 196.14 21.96 196.14 22.77 192.98 22.77 192.98 24.7 196.21 24.7 196.21 25.52 192.06 25.52 192.06 19.34" style="fill: #fff"/>
  <polygon points="180.63 27.37 184.78 27.37 184.78 28.18 181.55 28.18 181.55 29.99 184.71 29.99 184.71 30.8 181.55 30.8 181.55 33.55 180.63 33.55 180.63 27.37" style="fill: #fff"/>
  <path d="M185.47,27.37h.93V31.1a1.67,1.67,0,1,0,3.33,0V27.37h.93v3.75a2.6,2.6,0,0,1-5.19,0Z" style="fill: #fff"/>
  <polygon points="193.21 28.18 191.29 28.18 191.29 27.37 196.04 27.37 196.04 28.18 194.13 28.18 194.13 33.55 193.21 33.55 193.21 28.18" style="fill: #fff"/>
  <path d="M196.66,27.37h.94V31.1a1.66,1.66,0,1,0,3.32,0V27.37h.94v3.75a2.6,2.6,0,0,1-5.2,0Z" style="fill: #fff"/>
  <path d="M205.12,31.16H204v2.38H203V27.37h2.6a1.84,1.84,0,0,1,2,1.89,1.73,1.73,0,0,1-1.54,1.81l1.58,2.47H206.6Zm.4-3H204v2.17h1.55a1.09,1.09,0,1,0,0-2.17" style="fill: #fff"/>
  <polygon points="208.54 27.37 212.69 27.37 212.69 28.18 209.47 28.18 209.47 29.99 212.63 29.99 212.63 30.8 209.47 30.8 209.47 32.73 212.69 32.73 212.69 33.55 208.54 33.55 208.54 27.37" style="fill: #fff"/>
</svg>
