<svg id="Layer_1" data-name="Layer 1" xmlns="http://www.w3.org/2000/svg" viewBox="0 0 374.33 160.63">
  <title>nugget_graph_2de</title>
  <g>
    <path d="M195.44,36.66h-1.71V39.6h-2.94V36.66h-6.07V34.57L191,25.38h2.77v8.94h1.71Zm-4.65-2.34V31.91c0-.4,0-1,.05-1.75s.06-1.21.08-1.33h-.08a11.25,11.25,0,0,1-.86,1.55l-2.61,3.94Z" style="fill: #314041"/>
    <path d="M206.81,36.66H205.1V39.6h-2.94V36.66h-6.07V34.57l6.24-9.19h2.77v8.94h1.71Zm-4.65-2.34V31.91c0-.4,0-1,.05-1.75s.06-1.21.08-1.33h-.08a10.35,10.35,0,0,1-.87,1.55l-2.6,3.94Z" style="fill: #314041"/>
    <path d="M214.49,29.63a5.44,5.44,0,0,1-.86,3.36,3,3,0,0,1-2.54,1.12A3,3,0,0,1,208.61,33a5.46,5.46,0,0,1-.87-3.33c0-3,1.11-4.45,3.35-4.45a3,3,0,0,1,2.52,1.15A5.34,5.34,0,0,1,214.49,29.63Zm-4.3,0a5.72,5.72,0,0,0,.22,1.85c.14.4.38.61.7.61q.93,0,.93-2.46t-.93-2.43c-.32,0-.56.2-.7.6A5.58,5.58,0,0,0,210.19,29.64Zm11-4.26L213.3,39.6H211l7.89-14.22Zm3.26,9.93a5.43,5.43,0,0,1-.86,3.35,3,3,0,0,1-2.54,1.12,2.92,2.92,0,0,1-2.48-1.15,5.45,5.45,0,0,1-.88-3.32q0-4.45,3.36-4.45A3,3,0,0,1,223.57,32,5.34,5.34,0,0,1,224.45,35.31Zm-4.3,0a6.07,6.07,0,0,0,.21,1.85c.15.4.39.61.71.61q.93,0,.93-2.46t-.93-2.43c-.32,0-.56.2-.71.6A5.92,5.92,0,0,0,220.15,35.32Z" style="fill: #314041"/>
  </g>
  <g>
    <path d="M191.84,65.45l-4.36-11.39h-.07q.12,1.35.12,3.21v8.18h-1.38V52.6h2.25l4.07,10.6h.07l4.1-10.6h2.24V65.45h-1.5V57.17c0-1,0-2,.13-3.09h-.08L193,65.45Z" style="fill: #314041"/>
    <path d="M203.55,55.82v6.24a2.49,2.49,0,0,0,.54,1.76,2.18,2.18,0,0,0,1.68.58,2.75,2.75,0,0,0,2.21-.82,4.2,4.2,0,0,0,.7-2.7V55.82h1.45v9.63h-1.2l-.21-1.29h-.08a3,3,0,0,1-1.24,1.09,4.23,4.23,0,0,1-1.82.37,3.66,3.66,0,0,1-2.63-.83,3.57,3.57,0,0,1-.87-2.67v-6.3Zm.09-2.61a.84.84,0,0,1,.23-.66.81.81,0,0,1,.56-.21.86.86,0,0,1,.58.21.81.81,0,0,1,.24.66.82.82,0,0,1-.24.65.87.87,0,0,1-.58.22.82.82,0,0,1-.56-.22A.86.86,0,0,1,203.64,53.21Zm3.35,0a.84.84,0,0,1,.23-.66.81.81,0,0,1,.56-.21.84.84,0,0,1,.57.21.81.81,0,0,1,.24.66.82.82,0,0,1-.24.65.85.85,0,0,1-.57.22.82.82,0,0,1-.56-.22A.86.86,0,0,1,207,53.21Z" style="fill: #314041"/>
    <path d="M219.44,62.82a2.39,2.39,0,0,1-1,2.07,4.67,4.67,0,0,1-2.81.73,6.16,6.16,0,0,1-3-.6V63.66a7.16,7.16,0,0,0,1.49.56,6.43,6.43,0,0,0,1.53.2,3.53,3.53,0,0,0,1.76-.36,1.26,1.26,0,0,0,.13-2.08,7.59,7.59,0,0,0-1.9-.94,10.69,10.69,0,0,1-1.92-.88,2.71,2.71,0,0,1-.84-.85,2.23,2.23,0,0,1-.28-1.13,2.15,2.15,0,0,1,1-1.86,4.51,4.51,0,0,1,2.63-.68,7.7,7.7,0,0,1,3,.63l-.52,1.19a6.92,6.92,0,0,0-2.63-.6,3,3,0,0,0-1.56.33,1,1,0,0,0-.53.89,1.1,1.1,0,0,0,.2.66,1.85,1.85,0,0,0,.64.52,14.6,14.6,0,0,0,1.68.71,6.34,6.34,0,0,1,2.32,1.26A2.21,2.21,0,0,1,219.44,62.82Z" style="fill: #314041"/>
    <path d="M228,62.82a2.39,2.39,0,0,1-1,2.07,4.69,4.69,0,0,1-2.81.73,6.16,6.16,0,0,1-3-.6V63.66a7.16,7.16,0,0,0,1.49.56,6.43,6.43,0,0,0,1.53.2,3.53,3.53,0,0,0,1.76-.36,1.27,1.27,0,0,0,.13-2.08,7.52,7.52,0,0,0-1.91-.94,10.86,10.86,0,0,1-1.91-.88,2.51,2.51,0,0,1-.84-.85,2.13,2.13,0,0,1-.28-1.13,2.15,2.15,0,0,1,1-1.86,4.49,4.49,0,0,1,2.63-.68,7.74,7.74,0,0,1,3,.63l-.52,1.19a7,7,0,0,0-2.63-.6,3,3,0,0,0-1.56.33,1,1,0,0,0-.53.89,1.1,1.1,0,0,0,.2.66,1.9,1.9,0,0,0,.63.52,15.9,15.9,0,0,0,1.69.71,6.42,6.42,0,0,1,2.32,1.26A2.21,2.21,0,0,1,228,62.82Z" style="fill: #314041"/>
    <path d="M234.47,65.62a4.41,4.41,0,0,1-3.37-1.3,5,5,0,0,1-1.23-3.61A5.6,5.6,0,0,1,231,57a3.83,3.83,0,0,1,3.08-1.37A3.65,3.65,0,0,1,237,56.83,4.57,4.57,0,0,1,238,60v.93h-6.63a3.78,3.78,0,0,0,.86,2.57,2.93,2.93,0,0,0,2.28.88,7.82,7.82,0,0,0,3.08-.65V65a6.88,6.88,0,0,1-3.13.62Zm-.39-8.76a2.36,2.36,0,0,0-1.85.76,3.52,3.52,0,0,0-.82,2.09h5a3.18,3.18,0,0,0-.62-2.11A2.15,2.15,0,0,0,234.08,56.86Z" style="fill: #314041"/>
    <path d="M247.09,65.45V59.22a2.55,2.55,0,0,0-.53-1.76,2.18,2.18,0,0,0-1.68-.58,2.76,2.76,0,0,0-2.22.82,4.09,4.09,0,0,0-.7,2.69v5.06H240.5V55.82h1.19l.23,1.31H242a2.92,2.92,0,0,1,1.25-1.1,4.1,4.1,0,0,1,1.8-.39,3.65,3.65,0,0,1,2.62.84,3.54,3.54,0,0,1,.88,2.68v6.29Z" style="fill: #314041"/>
    <path d="M264.09,65.45l-1.77-5.65c-.11-.35-.31-1.13-.62-2.36h-.07c-.23,1-.44,1.82-.62,2.37l-1.81,5.64h-1.69l-2.63-9.63h1.53q.93,3.63,1.42,5.52a24.88,24.88,0,0,1,.56,2.56h.07c.06-.33.17-.76.31-1.29s.27-1,.37-1.27l1.77-5.52h1.58l1.72,5.52a19.15,19.15,0,0,1,.67,2.54H265c0-.21.09-.53.19-1s.71-2.81,1.83-7.09h1.52l-2.67,9.63Z" style="fill: #314041"/>
    <path d="M274.3,65.62a4.44,4.44,0,0,1-3.38-1.3,5,5,0,0,1-1.23-3.61,5.55,5.55,0,0,1,1.15-3.7,3.81,3.81,0,0,1,3.08-1.37,3.64,3.64,0,0,1,2.86,1.19A4.52,4.52,0,0,1,277.84,60v.93H271.2a3.83,3.83,0,0,0,.86,2.57,2.94,2.94,0,0,0,2.29.88,7.8,7.8,0,0,0,3.07-.65V65a6.87,6.87,0,0,1-3.12.62Zm-.4-8.76a2.37,2.37,0,0,0-1.85.76,3.46,3.46,0,0,0-.81,2.09h5a3.18,3.18,0,0,0-.61-2.11A2.17,2.17,0,0,0,273.9,56.86Z" style="fill: #314041"/>
    <path d="M280.2,53.21a1,1,0,0,1,.25-.74.87.87,0,0,1,.61-.23.85.85,0,0,1,.61.24.94.94,0,0,1,.25.73,1,1,0,0,1-.25.73.85.85,0,0,1-.61.24.84.84,0,0,1-.61-.24A1,1,0,0,1,280.2,53.21Zm1.58,12.24h-1.46V55.82h1.46Z" style="fill: #314041"/>
    <path d="M288,64.42a4.56,4.56,0,0,0,.75-.06,3.67,3.67,0,0,0,.57-.12v1.12a2.53,2.53,0,0,1-.7.19,5.25,5.25,0,0,1-.83.07c-1.87,0-2.8-1-2.8-2.94V57H283.6v-.7l1.38-.61.62-2.06h.84v2.24h2.8V57h-2.8v5.67a2,2,0,0,0,.41,1.33A1.46,1.46,0,0,0,288,64.42Z" style="fill: #314041"/>
    <path d="M295.3,65.62a4.41,4.41,0,0,1-3.37-1.3,5,5,0,0,1-1.23-3.61,5.6,5.6,0,0,1,1.14-3.7,3.83,3.83,0,0,1,3.08-1.37,3.65,3.65,0,0,1,2.87,1.19,4.57,4.57,0,0,1,1,3.14v.93h-6.63a3.83,3.83,0,0,0,.85,2.57,3,3,0,0,0,2.29.88,7.82,7.82,0,0,0,3.08-.65V65a8.27,8.27,0,0,1-1.46.48A8.07,8.07,0,0,1,295.3,65.62Zm-.39-8.76a2.36,2.36,0,0,0-1.85.76,3.46,3.46,0,0,0-.82,2.09h5a3.18,3.18,0,0,0-.62-2.11A2.15,2.15,0,0,0,294.91,56.86Z" style="fill: #314041"/>
    <path d="M305.72,55.64a5.14,5.14,0,0,1,1.16.11l-.21,1.35a4.76,4.76,0,0,0-1.05-.13,2.54,2.54,0,0,0-2,1,3.47,3.47,0,0,0-.83,2.36v5.17h-1.46V55.82h1.2l.17,1.78h.07a4.27,4.27,0,0,1,1.29-1.45A2.93,2.93,0,0,1,305.72,55.64Z" style="fill: #314041"/>
    <path d="M315.27,65.45V59.22a2.51,2.51,0,0,0-.54-1.76,2.15,2.15,0,0,0-1.68-.58,2.7,2.7,0,0,0-2.21.83,4.14,4.14,0,0,0-.7,2.7v5h-1.46V51.77h1.46v4.14a10.29,10.29,0,0,1-.07,1.24h.08a3,3,0,0,1,1.23-1.09,4,4,0,0,1,1.82-.4,3.73,3.73,0,0,1,2.65.84,3.56,3.56,0,0,1,.88,2.66v6.29Z" style="fill: #314041"/>
    <path d="M319.6,53.21a1,1,0,0,1,.25-.74.87.87,0,0,1,.61-.23.85.85,0,0,1,.61.24.94.94,0,0,1,.26.73,1,1,0,0,1-.26.73.85.85,0,0,1-.61.24.84.84,0,0,1-.61-.24A1,1,0,0,1,319.6,53.21Zm1.58,12.24h-1.45V55.82h1.45Z" style="fill: #314041"/>
    <path d="M330.87,65.45V59.22a2.51,2.51,0,0,0-.54-1.76,2.14,2.14,0,0,0-1.67-.58,2.76,2.76,0,0,0-2.22.82,4.09,4.09,0,0,0-.7,2.69v5.06h-1.46V55.82h1.19l.23,1.31h.07A3,3,0,0,1,327,56a4.1,4.1,0,0,1,1.8-.39,3.67,3.67,0,0,1,2.62.84,3.54,3.54,0,0,1,.88,2.68v6.29Z" style="fill: #314041"/>
    <path d="M198.21,87.05V80.78a2.66,2.66,0,0,0-.49-1.73,1.92,1.92,0,0,0-1.53-.57,2.49,2.49,0,0,0-2,.78,3.75,3.75,0,0,0-.65,2.41v5.38h-1.46V80.78a2.61,2.61,0,0,0-.49-1.73,1.93,1.93,0,0,0-1.54-.57,2.36,2.36,0,0,0-2,.82,4.42,4.42,0,0,0-.64,2.69v5.06h-1.46V77.42h1.19l.23,1.31h.07a2.93,2.93,0,0,1,1.17-1.09,3.48,3.48,0,0,1,1.68-.4,2.85,2.85,0,0,1,2.95,1.63h.08a3,3,0,0,1,1.24-1.19,3.94,3.94,0,0,1,1.87-.44,3.24,3.24,0,0,1,2.44.84,3.71,3.71,0,0,1,.82,2.68v6.29Z" style="fill: #314041"/>
    <path d="M202.55,74.81a1,1,0,0,1,.25-.74.87.87,0,0,1,.61-.23.85.85,0,0,1,.61.24.94.94,0,0,1,.25.73,1,1,0,0,1-.25.73.85.85,0,0,1-.61.24.84.84,0,0,1-.61-.24A1,1,0,0,1,202.55,74.81Zm1.58,12.24h-1.46V77.42h1.46Z" style="fill: #314041"/>
    <path d="M210.34,86a4.52,4.52,0,0,0,.74-.06,4.13,4.13,0,0,0,.58-.12V87a2.64,2.64,0,0,1-.7.19,5.25,5.25,0,0,1-.83.07c-1.87,0-2.8-1-2.8-2.94V78.55H206v-.7l1.38-.61.62-2.06h.84v2.24h2.8v1.13h-2.8v5.67a2,2,0,0,0,.41,1.33A1.46,1.46,0,0,0,210.34,86Z" style="fill: #314041"/>
    <path d="M219.5,87.05l-.29-1.37h-.07a4.07,4.07,0,0,1-1.43,1.22,4.31,4.31,0,0,1-1.79.32,3.24,3.24,0,0,1-2.25-.73,2.72,2.72,0,0,1-.81-2.1q0-2.92,4.67-3.06l1.63-.06v-.59a2.43,2.43,0,0,0-.49-1.68,2,2,0,0,0-1.56-.54,6.37,6.37,0,0,0-2.72.74l-.45-1.12a7.11,7.11,0,0,1,1.56-.6,6.61,6.61,0,0,1,1.7-.22,3.7,3.7,0,0,1,2.56.76,3.21,3.21,0,0,1,.83,2.45v6.58Zm-3.29-1a3,3,0,0,0,2.14-.75,2.75,2.75,0,0,0,.78-2.09v-.87l-1.46.06a5.28,5.28,0,0,0-2.51.54,1.64,1.64,0,0,0-.77,1.49,1.52,1.52,0,0,0,.48,1.21A2,2,0,0,0,216.21,86Z" style="fill: #314041"/>
    <path d="M228,77.24a5.1,5.1,0,0,1,1.15.11l-.21,1.35a4.76,4.76,0,0,0-1.05-.13,2.54,2.54,0,0,0-2,1,3.47,3.47,0,0,0-.83,2.36v5.17h-1.46V77.42h1.21L225,79.2H225a4.27,4.27,0,0,1,1.29-1.45A2.93,2.93,0,0,1,228,77.24Z" style="fill: #314041"/>
    <path d="M235.42,77.26a3.59,3.59,0,0,1,3,1.29,6.95,6.95,0,0,1,0,7.36,3.55,3.55,0,0,1-2.94,1.31,4.19,4.19,0,0,1-1.72-.34,3.19,3.19,0,0,1-1.3-1.07h-.11L232,87.05h-1V73.37h1.46v3.32c0,.75,0,1.42-.07,2h.07A3.47,3.47,0,0,1,235.42,77.26Zm-.21,1.22a2.51,2.51,0,0,0-2.15.86,4.81,4.81,0,0,0-.66,2.88,4.85,4.85,0,0,0,.67,2.91,2.61,2.61,0,0,0,2.18.87,2.24,2.24,0,0,0,2-1,5,5,0,0,0,.66-2.81,4.86,4.86,0,0,0-.66-2.81A2.35,2.35,0,0,0,235.21,78.48Z" style="fill: #314041"/>
    <path d="M246,87.22a4.4,4.4,0,0,1-3.37-1.3,5,5,0,0,1-1.24-3.61,5.61,5.61,0,0,1,1.15-3.7,3.81,3.81,0,0,1,3.08-1.37,3.66,3.66,0,0,1,2.87,1.19,4.57,4.57,0,0,1,1.05,3.14v.93h-6.64a3.83,3.83,0,0,0,.86,2.57,3,3,0,0,0,2.29.88,7.85,7.85,0,0,0,3.08-.65v1.3a8.35,8.35,0,0,1-1.47.48A8,8,0,0,1,246,87.22Zm-.4-8.76a2.37,2.37,0,0,0-1.85.76,3.46,3.46,0,0,0-.81,2.09h5a3.18,3.18,0,0,0-.62-2.11A2.17,2.17,0,0,0,245.64,78.46Z" style="fill: #314041"/>
    <path d="M251.94,74.81a1,1,0,0,1,.25-.74.88.88,0,0,1,.62-.23.85.85,0,0,1,.6.24.94.94,0,0,1,.26.73,1,1,0,0,1-.26.73.9.9,0,0,1-1.22,0A1,1,0,0,1,251.94,74.81Zm1.59,12.24h-1.46V77.42h1.46Z" style="fill: #314041"/>
    <path d="M259.73,86a4.56,4.56,0,0,0,.75-.06,3.67,3.67,0,0,0,.57-.12V87a2.53,2.53,0,0,1-.7.19,5.16,5.16,0,0,1-.83.07q-2.79,0-2.79-2.94V78.55h-1.38v-.7l1.38-.61.61-2.06h.84v2.24H261v1.13h-2.8v5.67a1.91,1.91,0,0,0,.42,1.33A1.43,1.43,0,0,0,259.73,86Z" style="fill: #314041"/>
    <path d="M267,87.22a4.43,4.43,0,0,1-3.37-1.3,5,5,0,0,1-1.23-3.61,5.55,5.55,0,0,1,1.15-3.7,3.81,3.81,0,0,1,3.08-1.37,3.64,3.64,0,0,1,2.86,1.19,4.57,4.57,0,0,1,1.06,3.14v.93H264a3.83,3.83,0,0,0,.86,2.57,2.94,2.94,0,0,0,2.29.88,7.8,7.8,0,0,0,3.07-.65v1.3a6.88,6.88,0,0,1-3.13.62Zm-.39-8.76a2.37,2.37,0,0,0-1.85.76,3.46,3.46,0,0,0-.81,2.09h5a3.18,3.18,0,0,0-.61-2.11A2.17,2.17,0,0,0,266.65,78.46Z" style="fill: #314041"/>
    <path d="M277.47,77.24a5,5,0,0,1,1.15.11l-.2,1.35a4.84,4.84,0,0,0-1.06-.13,2.55,2.55,0,0,0-2,1,3.47,3.47,0,0,0-.83,2.36v5.17h-1.46V77.42h1.21l.16,1.78h.07a4.19,4.19,0,0,1,1.3-1.45A2.88,2.88,0,0,1,277.47,77.24Z" style="fill: #314041"/>
    <path d="M288.74,82.22a5.32,5.32,0,0,1-1.19,3.68,4.18,4.18,0,0,1-3.28,1.32,4.35,4.35,0,0,1-2.29-.6,4,4,0,0,1-1.55-1.74,6.13,6.13,0,0,1-.55-2.66,5.34,5.34,0,0,1,1.18-3.67,4.2,4.2,0,0,1,3.27-1.31,4.11,4.11,0,0,1,3.22,1.34A5.32,5.32,0,0,1,288.74,82.22Zm-7.34,0a4.62,4.62,0,0,0,.73,2.82,2.94,2.94,0,0,0,4.35,0,4.52,4.52,0,0,0,.74-2.82,4.46,4.46,0,0,0-.74-2.79,2.61,2.61,0,0,0-2.19-1,2.54,2.54,0,0,0-2.16.94A4.5,4.5,0,0,0,281.4,82.22Z" style="fill: #314041"/>
    <path d="M295.69,77.24a5,5,0,0,1,1.15.11l-.2,1.35a4.84,4.84,0,0,0-1.06-.13,2.55,2.55,0,0,0-2,1,3.47,3.47,0,0,0-.83,2.36v5.17h-1.46V77.42h1.21l.16,1.78h.07a4.19,4.19,0,0,1,1.3-1.45A2.88,2.88,0,0,1,295.69,77.24Z" style="fill: #314041"/>
    <path d="M298.52,74.81a1,1,0,0,1,.24-.74.9.9,0,0,1,.62-.23.87.87,0,0,1,.61.24.94.94,0,0,1,.25.73,1,1,0,0,1-.25.73.87.87,0,0,1-.61.24.86.86,0,0,1-.62-.24A1,1,0,0,1,298.52,74.81Zm1.58,12.24h-1.46V77.42h1.46Z" style="fill: #314041"/>
    <path d="M307.26,87.22a4.43,4.43,0,0,1-3.37-1.3,5,5,0,0,1-1.23-3.61,5.6,5.6,0,0,1,1.14-3.7,3.84,3.84,0,0,1,3.08-1.37,3.65,3.65,0,0,1,2.87,1.19,4.57,4.57,0,0,1,1.05,3.14v.93h-6.63a3.78,3.78,0,0,0,.86,2.57,2.94,2.94,0,0,0,2.29.88,7.8,7.8,0,0,0,3.07-.65v1.3a6.88,6.88,0,0,1-3.13.62Zm-.39-8.76a2.36,2.36,0,0,0-1.85.76,3.52,3.52,0,0,0-.82,2.09h5a3.18,3.18,0,0,0-.61-2.11A2.17,2.17,0,0,0,306.87,78.46Z" style="fill: #314041"/>
    <path d="M319.88,87.05V80.82a2.5,2.5,0,0,0-.53-1.76,2.18,2.18,0,0,0-1.68-.58,2.76,2.76,0,0,0-2.22.82,4.15,4.15,0,0,0-.7,2.69v5.06h-1.46V77.42h1.19l.24,1.31h.07a3,3,0,0,1,1.25-1.1,4.1,4.1,0,0,1,1.8-.39,3.63,3.63,0,0,1,2.62.84,3.54,3.54,0,0,1,.88,2.68v6.29Z" style="fill: #314041"/>
    <path d="M327.45,86a4.56,4.56,0,0,0,.75-.06,3.67,3.67,0,0,0,.57-.12V87a2.53,2.53,0,0,1-.7.19,5.16,5.16,0,0,1-.83.07q-2.79,0-2.79-2.94V78.55h-1.38v-.7l1.38-.61.61-2.06h.84v2.24h2.8v1.13h-2.8v5.67a1.91,1.91,0,0,0,.42,1.33A1.43,1.43,0,0,0,327.45,86Z" style="fill: #314041"/>
    <path d="M330.57,74.81a1,1,0,0,1,.25-.74.87.87,0,0,1,.61-.23.85.85,0,0,1,.61.24.94.94,0,0,1,.25.73,1,1,0,0,1-.25.73.85.85,0,0,1-.61.24.84.84,0,0,1-.61-.24A1,1,0,0,1,330.57,74.81Zm1.58,12.24h-1.46V77.42h1.46Z" style="fill: #314041"/>
    <path d="M339.32,87.22a4.4,4.4,0,0,1-3.37-1.3,5,5,0,0,1-1.24-3.61,5.55,5.55,0,0,1,1.15-3.7,3.81,3.81,0,0,1,3.08-1.37,3.63,3.63,0,0,1,2.86,1.19,4.52,4.52,0,0,1,1.06,3.14v.93h-6.64a3.83,3.83,0,0,0,.86,2.57,2.94,2.94,0,0,0,2.29.88,7.85,7.85,0,0,0,3.08-.65v1.3a8.35,8.35,0,0,1-1.47.48A8,8,0,0,1,339.32,87.22Zm-.4-8.76a2.37,2.37,0,0,0-1.85.76,3.46,3.46,0,0,0-.81,2.09h5a3.18,3.18,0,0,0-.61-2.11A2.17,2.17,0,0,0,338.92,78.46Z" style="fill: #314041"/>
    <path d="M349.74,77.24a5,5,0,0,1,1.15.11l-.2,1.35a4.84,4.84,0,0,0-1.06-.13,2.54,2.54,0,0,0-2,1,3.43,3.43,0,0,0-.84,2.36v5.17h-1.45V77.42h1.2l.17,1.78h.07a4.17,4.17,0,0,1,1.29-1.45A2.9,2.9,0,0,1,349.74,77.24Z" style="fill: #314041"/>
    <path d="M355.8,86a4.56,4.56,0,0,0,.75-.06,3.67,3.67,0,0,0,.57-.12V87a2.43,2.43,0,0,1-.7.19,5.07,5.07,0,0,1-.83.07q-2.79,0-2.79-2.94V78.55h-1.38v-.7l1.38-.61.61-2.06h.85v2.24h2.79v1.13h-2.79v5.67a2,2,0,0,0,.41,1.33A1.44,1.44,0,0,0,355.8,86Z" style="fill: #314041"/>
    <path d="M363.12,87.22a4.4,4.4,0,0,1-3.37-1.3,5,5,0,0,1-1.24-3.61,5.55,5.55,0,0,1,1.15-3.7,3.81,3.81,0,0,1,3.08-1.37,3.63,3.63,0,0,1,2.86,1.19,4.52,4.52,0,0,1,1.06,3.14v.93H360a3.83,3.83,0,0,0,.86,2.57,3,3,0,0,0,2.29.88,7.85,7.85,0,0,0,3.08-.65v1.3a8.35,8.35,0,0,1-1.47.48A8,8,0,0,1,363.12,87.22Zm-.4-8.76a2.37,2.37,0,0,0-1.85.76,3.46,3.46,0,0,0-.81,2.09h5a3.18,3.18,0,0,0-.61-2.11A2.17,2.17,0,0,0,362.72,78.46Z" style="fill: #314041"/>
    <path d="M194.3,99.54a3.62,3.62,0,0,1-1.33,3,6,6,0,0,1-3.81,1h-1.52v5.06h-1.49V95.8h3.33Q194.3,95.8,194.3,99.54Zm-6.66,2.77H189a5,5,0,0,0,2.87-.64,2.37,2.37,0,0,0,.89-2.06,2.24,2.24,0,0,0-.83-1.9,4.44,4.44,0,0,0-2.61-.62h-1.67Z" style="fill: #314041"/>
    <path d="M201.16,98.84a5.73,5.73,0,0,1,1.15.1l-.2,1.36a4.83,4.83,0,0,0-1.05-.13,2.54,2.54,0,0,0-2,1,3.42,3.42,0,0,0-.83,2.36v5.17h-1.46V99H198l.17,1.78h.07a4.27,4.27,0,0,1,1.29-1.45A2.9,2.9,0,0,1,201.16,98.84Z" style="fill: #314041"/>
    <path d="M212.43,103.82a5.32,5.32,0,0,1-1.19,3.68,4.18,4.18,0,0,1-3.28,1.32,4.37,4.37,0,0,1-2.29-.6,4.1,4.1,0,0,1-1.55-1.74,6.13,6.13,0,0,1-.54-2.66,5.29,5.29,0,0,1,1.18-3.67A4.17,4.17,0,0,1,208,98.84a4.11,4.11,0,0,1,3.21,1.34A5.32,5.32,0,0,1,212.43,103.82Zm-7.34,0a4.62,4.62,0,0,0,.74,2.82,2.93,2.93,0,0,0,4.34,0,4.52,4.52,0,0,0,.75-2.82,4.46,4.46,0,0,0-.75-2.79,2.61,2.61,0,0,0-2.19-1,2.57,2.57,0,0,0-2.16.94A4.5,4.5,0,0,0,205.09,103.82Z" style="fill: #314041"/>
    <path d="M221.15,108.65h-7v-1l5.26-7.5h-4.93V99H221v1.13l-5.19,7.36h5.32Z" style="fill: #314041"/>
    <path d="M227.48,108.82a4.4,4.4,0,0,1-3.37-1.3,5,5,0,0,1-1.24-3.61,5.55,5.55,0,0,1,1.15-3.7,3.81,3.81,0,0,1,3.08-1.37A3.64,3.64,0,0,1,230,100a4.52,4.52,0,0,1,1.06,3.14v.93h-6.64a3.83,3.83,0,0,0,.86,2.57,2.94,2.94,0,0,0,2.29.88,7.77,7.77,0,0,0,3.07-.65v1.3a8,8,0,0,1-1.46.48A8.72,8.72,0,0,1,227.48,108.82Zm-.4-8.76a2.37,2.37,0,0,0-1.85.76,3.46,3.46,0,0,0-.81,2.09h5a3.23,3.23,0,0,0-.61-2.12A2.2,2.2,0,0,0,227.08,100.06Z" style="fill: #314041"/>
    <path d="M239.72,106a2.41,2.41,0,0,1-1,2.07,4.71,4.71,0,0,1-2.82.73,6.14,6.14,0,0,1-3-.6v-1.36a7.16,7.16,0,0,0,1.49.56,6.43,6.43,0,0,0,1.53.2,3.53,3.53,0,0,0,1.76-.36,1.27,1.27,0,0,0,.13-2.08,7.52,7.52,0,0,0-1.91-.94,10.86,10.86,0,0,1-1.91-.88,2.51,2.51,0,0,1-.84-.85,2.13,2.13,0,0,1-.28-1.13,2.16,2.16,0,0,1,1-1.86,4.49,4.49,0,0,1,2.63-.68,7.74,7.74,0,0,1,3,.63l-.52,1.19a7,7,0,0,0-2.63-.6,3,3,0,0,0-1.56.33,1,1,0,0,0-.53.89,1,1,0,0,0,.2.66,1.9,1.9,0,0,0,.63.52,15.9,15.9,0,0,0,1.69.71,6.42,6.42,0,0,1,2.32,1.26A2.21,2.21,0,0,1,239.72,106Z" style="fill: #314041"/>
    <path d="M248.31,106a2.39,2.39,0,0,1-1,2.07,4.65,4.65,0,0,1-2.81.73,6.19,6.19,0,0,1-3-.6v-1.36a7.38,7.38,0,0,0,1.49.56,6.45,6.45,0,0,0,1.54.2,3.49,3.49,0,0,0,1.75-.36,1.23,1.23,0,0,0,.62-1.12,1.2,1.2,0,0,0-.49-1,7.41,7.41,0,0,0-1.9-.94,10.52,10.52,0,0,1-1.91-.88,2.65,2.65,0,0,1-.85-.85,2.22,2.22,0,0,1-.27-1.13,2.18,2.18,0,0,1,1-1.86,4.51,4.51,0,0,1,2.63-.68,7.7,7.7,0,0,1,3,.63l-.51,1.19a7,7,0,0,0-2.63-.6,3,3,0,0,0-1.57.33,1,1,0,0,0-.52.89,1.09,1.09,0,0,0,.19.66,2.06,2.06,0,0,0,.64.52,15,15,0,0,0,1.69.71,6.36,6.36,0,0,1,2.31,1.26A2.18,2.18,0,0,1,248.31,106Z" style="fill: #314041"/>
    <path d="M254.75,108.82a4.4,4.4,0,0,1-3.37-1.3,5,5,0,0,1-1.24-3.61,5.61,5.61,0,0,1,1.15-3.7,3.81,3.81,0,0,1,3.08-1.37,3.66,3.66,0,0,1,2.87,1.19,4.57,4.57,0,0,1,1.05,3.14v.93h-6.64a3.83,3.83,0,0,0,.86,2.57,3,3,0,0,0,2.29.88,7.85,7.85,0,0,0,3.08-.65v1.3a8.35,8.35,0,0,1-1.47.48A8.72,8.72,0,0,1,254.75,108.82Zm-.4-8.76a2.37,2.37,0,0,0-1.85.76,3.46,3.46,0,0,0-.81,2.09h5a3.23,3.23,0,0,0-.62-2.12A2.2,2.2,0,0,0,254.35,100.06Z" style="fill: #314041"/>
    <path d="M272,107.36h-.08a3.43,3.43,0,0,1-3,1.46,3.58,3.58,0,0,1-2.94-1.29,5.67,5.67,0,0,1-1.05-3.67,5.8,5.8,0,0,1,1.05-3.7,3.54,3.54,0,0,1,2.94-1.32,3.49,3.49,0,0,1,3,1.42H272l-.06-.69,0-.68V95h1.46v13.68H272.2Zm-2.92.24a2.67,2.67,0,0,0,2.17-.81,4.1,4.1,0,0,0,.67-2.62v-.31a4.84,4.84,0,0,0-.68-2.92,2.57,2.57,0,0,0-2.18-.88,2.22,2.22,0,0,0-2,1,5,5,0,0,0-.68,2.82,4.67,4.67,0,0,0,.68,2.78A2.28,2.28,0,0,0,269.09,107.6Z" style="fill: #314041"/>
    <path d="M276.36,96.4a1,1,0,0,1,.25-.73.87.87,0,0,1,.61-.23.85.85,0,0,1,.61.24.93.93,0,0,1,.25.72,1,1,0,0,1-.25.74.85.85,0,0,1-.61.24.84.84,0,0,1-.61-.24A1,1,0,0,1,276.36,96.4Zm1.58,12.25h-1.46V99h1.46Z" style="fill: #314041"/>
    <path d="M288.92,99v.92l-1.78.21a3.12,3.12,0,0,1,.44.8,3.29,3.29,0,0,1,.19,1.12,2.82,2.82,0,0,1-1,2.26,3.85,3.85,0,0,1-2.65.85,5.09,5.09,0,0,1-.81-.07,1.43,1.43,0,0,0-.93,1.24.64.64,0,0,0,.32.58,2.34,2.34,0,0,0,1.12.19h1.7a3.82,3.82,0,0,1,2.41.66,2.29,2.29,0,0,1,.84,1.91,2.73,2.73,0,0,1-1.29,2.44,6.84,6.84,0,0,1-3.74.84,5.09,5.09,0,0,1-2.91-.7,2.4,2.4,0,0,1-.47-3.51,2.88,2.88,0,0,1,1.59-.87,1.42,1.42,0,0,1-.62-.52,1.32,1.32,0,0,1-.25-.81,1.55,1.55,0,0,1,.28-.93,2.89,2.89,0,0,1,.89-.76,2.63,2.63,0,0,1-1.22-1.05,3.45,3.45,0,0,1,.48-4.12,3.83,3.83,0,0,1,2.69-.86,4.81,4.81,0,0,1,1.36.18Zm-7.68,11.25a1.3,1.3,0,0,0,.66,1.18,3.63,3.63,0,0,0,1.89.41,5.35,5.35,0,0,0,2.72-.55,1.69,1.69,0,0,0,.88-1.49,1.19,1.19,0,0,0-.48-1.09,3.79,3.79,0,0,0-1.82-.3h-1.75a2.35,2.35,0,0,0-1.55.47A1.7,1.7,0,0,0,281.24,110.27Zm.79-8.17a2,2,0,0,0,.57,1.53,2.26,2.26,0,0,0,1.59.52,1.86,1.86,0,0,0,2.14-2.08,1.92,1.92,0,0,0-2.16-2.17,2.15,2.15,0,0,0-1.59.56A2.21,2.21,0,0,0,282,102.1Z" style="fill: #314041"/>
    <path d="M290.77,96.4a1,1,0,0,1,.25-.73.88.88,0,0,1,.62-.23.85.85,0,0,1,.6.24.93.93,0,0,1,.26.72,1,1,0,0,1-.26.74.9.9,0,0,1-1.22,0A1,1,0,0,1,290.77,96.4Zm1.59,12.25H290.9V99h1.46Z" style="fill: #314041"/>
    <path d="M298.56,107.62a4.56,4.56,0,0,0,.75-.06,5.41,5.41,0,0,0,.57-.12v1.12a2.53,2.53,0,0,1-.7.19,5.16,5.16,0,0,1-.83.07q-2.79,0-2.79-2.94v-5.73h-1.38v-.7l1.38-.61.61-2.06H297V99h2.8v1.13H297v5.67a1.91,1.91,0,0,0,.42,1.33A1.43,1.43,0,0,0,298.56,107.62Z" style="fill: #314041"/>
    <path d="M307.73,108.65l-.29-1.37h-.07a4,4,0,0,1-1.44,1.22,4.28,4.28,0,0,1-1.79.32,3.21,3.21,0,0,1-2.24-.73,2.73,2.73,0,0,1-.82-2.11q0-2.91,4.67-3l1.64-.06v-.59a2.48,2.48,0,0,0-.49-1.68,2,2,0,0,0-1.56-.54,6.45,6.45,0,0,0-2.73.74l-.44-1.12a6.74,6.74,0,0,1,1.56-.6,6.56,6.56,0,0,1,1.7-.22,3.67,3.67,0,0,1,2.55.76,3.21,3.21,0,0,1,.83,2.45v6.58Zm-3.3-1a3,3,0,0,0,2.14-.75,2.75,2.75,0,0,0,.78-2.09v-.87l-1.46.06a5.31,5.31,0,0,0-2.51.54,1.64,1.64,0,0,0-.77,1.49,1.52,1.52,0,0,0,.48,1.21A2,2,0,0,0,304.43,107.62Z" style="fill: #314041"/>
    <path d="M313.27,108.65h-1.45V95h1.45Z" style="fill: #314041"/>
    <path d="M316.25,96.4a1,1,0,0,1,.24-.73.9.9,0,0,1,.62-.23.85.85,0,0,1,.6.24.93.93,0,0,1,.26.72,1,1,0,0,1-.26.74.85.85,0,0,1-.6.24.86.86,0,0,1-.62-.24A1,1,0,0,1,316.25,96.4Zm1.58,12.25h-1.46V99h1.46Z" style="fill: #314041"/>
    <path d="M327.13,106a2.39,2.39,0,0,1-1,2.07,4.65,4.65,0,0,1-2.81.73,6.19,6.19,0,0,1-3-.6v-1.36a7.38,7.38,0,0,0,1.49.56,6.45,6.45,0,0,0,1.54.2,3.49,3.49,0,0,0,1.75-.36,1.23,1.23,0,0,0,.62-1.12,1.2,1.2,0,0,0-.49-1,7.41,7.41,0,0,0-1.9-.94,10.19,10.19,0,0,1-1.91-.88,2.65,2.65,0,0,1-.85-.85,2.22,2.22,0,0,1-.27-1.13,2.18,2.18,0,0,1,.95-1.86,4.51,4.51,0,0,1,2.63-.68,7.7,7.7,0,0,1,3,.63l-.52,1.19a6.91,6.91,0,0,0-2.62-.6,3,3,0,0,0-1.57.33,1,1,0,0,0-.53.89,1.1,1.1,0,0,0,.2.66,2,2,0,0,0,.64.52,14.2,14.2,0,0,0,1.69.71,6.36,6.36,0,0,1,2.31,1.26A2.21,2.21,0,0,1,327.13,106Z" style="fill: #314041"/>
    <path d="M329.38,96.4a1,1,0,0,1,.25-.73.9.9,0,0,1,.62-.23.85.85,0,0,1,.6.24.93.93,0,0,1,.26.72,1,1,0,0,1-.26.74.85.85,0,0,1-.6.24.86.86,0,0,1-.62-.24A1,1,0,0,1,329.38,96.4ZM331,108.65h-1.46V99H331Z" style="fill: #314041"/>
    <path d="M338.13,108.82a4.41,4.41,0,0,1-3.37-1.3,5,5,0,0,1-1.24-3.61,5.61,5.61,0,0,1,1.15-3.7,3.83,3.83,0,0,1,3.08-1.37,3.66,3.66,0,0,1,2.87,1.19,4.57,4.57,0,0,1,1.05,3.14v.93H335a3.83,3.83,0,0,0,.85,2.57,3,3,0,0,0,2.29.88,7.82,7.82,0,0,0,3.08-.65v1.3a8.27,8.27,0,0,1-1.46.48A8.83,8.83,0,0,1,338.13,108.82Zm-.4-8.76a2.37,2.37,0,0,0-1.85.76,3.46,3.46,0,0,0-.81,2.09h5a3.23,3.23,0,0,0-.62-2.12A2.18,2.18,0,0,0,337.73,100.06Z" style="fill: #314041"/>
    <path d="M348.55,98.84a5.83,5.83,0,0,1,1.16.1l-.21,1.36a4.83,4.83,0,0,0-1.05-.13,2.54,2.54,0,0,0-2,1,3.47,3.47,0,0,0-.83,2.36v5.17h-1.46V99h1.2l.17,1.78h.07a4.27,4.27,0,0,1,1.29-1.45A2.93,2.93,0,0,1,348.55,98.84Z" style="fill: #314041"/>
    <path d="M355.58,108.82a4.4,4.4,0,0,1-3.37-1.3,5,5,0,0,1-1.24-3.61,5.55,5.55,0,0,1,1.15-3.7,3.81,3.81,0,0,1,3.08-1.37,3.63,3.63,0,0,1,2.86,1.19,4.52,4.52,0,0,1,1.06,3.14v.93h-6.64a3.83,3.83,0,0,0,.86,2.57,2.94,2.94,0,0,0,2.29.88,7.85,7.85,0,0,0,3.08-.65v1.3a8.35,8.35,0,0,1-1.47.48A8.72,8.72,0,0,1,355.58,108.82Zm-.4-8.76a2.37,2.37,0,0,0-1.85.76,3.46,3.46,0,0,0-.81,2.09h5a3.23,3.23,0,0,0-.61-2.12A2.2,2.2,0,0,0,355.18,100.06Z" style="fill: #314041"/>
    <path d="M368.2,108.65v-6.23a2.51,2.51,0,0,0-.54-1.76,2.18,2.18,0,0,0-1.68-.58,2.74,2.74,0,0,0-2.21.82,4.09,4.09,0,0,0-.71,2.69v5.06h-1.45V99h1.18l.24,1.31h.07a3,3,0,0,1,1.26-1.1,4.1,4.1,0,0,1,1.8-.39,3.67,3.67,0,0,1,2.62.84,3.58,3.58,0,0,1,.88,2.68v6.29Z" style="fill: #314041"/>
  </g>
  <path d="M67,78.44A37.41,37.41,0,0,1,104.42,41V16.2c-20.62,0-38.23,9-50.35,25.65a62.24,62.24,0,0,0,13.77,86.94L82.43,108.7A37.36,37.36,0,0,1,67,78.44Z" style="fill: #dfdfdf"/>
  <path d="M104.42,16.2V41a37.42,37.42,0,1,1-22,67.68L67.84,128.79a59.63,59.63,0,0,0,36.58,11.89,62.24,62.24,0,0,0,0-124.48Z" style="fill: #de9393"/>
  <path d="M122.59,69.48l-7.94-8.7a.87.87,0,0,0-1.46,0l-8,8.7a1.17,1.17,0,0,0-.16,1.06.9.9,0,0,0,1,.71h15.89c.33,0,.65-.18.82-.71C122.92,70.19,122.92,69.65,122.59,69.48Z" style="fill: #81b59f;fill-rule: evenodd"/>
  <path d="M96.43,86.47a3.62,3.62,0,1,1-3.62-3.7A3.69,3.69,0,0,1,96.43,86.47Zm5.27,12.77v-.67A8.35,8.35,0,0,0,96.76,91l-.33-.16.33-.34a5.92,5.92,0,0,0,1.65-4,5.6,5.6,0,1,0-11.2,0,5.92,5.92,0,0,0,1.65,4l.33.34-.33.16a8.35,8.35,0,0,0-4.94,7.57v.67a1,1,0,1,0,2,0v-.67a6.94,6.94,0,0,1,13.84,0v.67a1,1,0,1,0,2,0Zm11.53-21.18a1,1,0,0,0,0-2h-6.59a1,1,0,0,0,0,2Zm-12-14.46a.69.69,0,0,1,.33.68v.33l.16.51a1.05,1.05,0,0,0,1,.84h2.63a1,1,0,0,0,0-2h-1.81a2.74,2.74,0,0,0-.82-1.85,3.46,3.46,0,0,0-2.14-.84H93.47a1.19,1.19,0,0,0-1,1V77.72a1,1,0,1,0,2,0V63.27h5.92A1.26,1.26,0,0,1,101.21,63.6Zm23.71,6.9-3.79,17.31a3,3,0,0,1-3,2.35h-16.8a1,1,0,0,1,0-2h16.8a1.25,1.25,0,0,0,1.15-.84l3.46-16H99.23l-1.48,7.73a1,1,0,0,1-1.32.84,1.14,1.14,0,0,1-.66-1.18l1.65-8.57a.92.92,0,0,1,1-.84h25.52a1.26,1.26,0,0,1,.82.33A1.85,1.85,0,0,1,124.92,70.5Z" style="fill: #293e40;fill-rule: evenodd"/>
</svg>
