<svg id="Layer_1" data-name="Layer 1" xmlns="http://www.w3.org/2000/svg" viewBox="0 0 374.33 255.83">
  <title>nugget_graph_1fr</title>
  <rect x="202.35" y="13.6" width="50" height="199.97" style="fill: #ebac7b"/>
  <rect x="279.52" y="129.41" width="50" height="84.16" style="fill: #e3e2e3"/>
  <g>
    <path d="M146.51,63.06c0-2.81.6-4.91,1.79-6.28a6.67,6.67,0,0,1,5.34-2.07,9.48,9.48,0,0,1,1.91.15v2.4a7.79,7.79,0,0,0-1.71-.19,5.9,5.9,0,0,0-2.53.46,3.18,3.18,0,0,0-1.46,1.39,6.24,6.24,0,0,0-.58,2.59h.13a3.3,3.3,0,0,1,3.08-1.65,3.81,3.81,0,0,1,3,1.2,4.74,4.74,0,0,1,1.08,3.3A5,5,0,0,1,155.26,68a4.71,4.71,0,0,1-3.55,1.32,5.07,5.07,0,0,1-2.75-.73,4.65,4.65,0,0,1-1.81-2.13A8,8,0,0,1,146.51,63.06Zm5.14,3.83a1.77,1.77,0,0,0,1.48-.65,2.9,2.9,0,0,0,.51-1.84,2.56,2.56,0,0,0-.48-1.64,1.75,1.75,0,0,0-1.45-.6,2.25,2.25,0,0,0-1.57.6,1.8,1.8,0,0,0-.64,1.38,3.09,3.09,0,0,0,.61,2A1.82,1.82,0,0,0,151.65,66.89Z" style="fill: #314041"/>
    <path d="M163.15,60a4.56,4.56,0,0,1,3.28,1.16,4.14,4.14,0,0,1,1.23,3.17A4.62,4.62,0,0,1,166.19,68a6.17,6.17,0,0,1-4.2,1.28,8.3,8.3,0,0,1-3.84-.76v-2.6a8.14,8.14,0,0,0,1.79.66,7.57,7.57,0,0,0,1.94.26c1.83,0,2.75-.75,2.75-2.25s-.95-2.15-2.85-2.15a7,7,0,0,0-1.14.1,8.46,8.46,0,0,0-1,.22l-1.19-.64.53-7.25h7.71v2.55h-5.07l-.27,2.79.34-.07A6.78,6.78,0,0,1,163.15,60Z" style="fill: #314041"/>
    <path d="M175.92,59.12a5.51,5.51,0,0,1-.86,3.36,3,3,0,0,1-2.54,1.12A2.92,2.92,0,0,1,170,62.45a5.46,5.46,0,0,1-.88-3.33q0-4.44,3.36-4.44A3,3,0,0,1,175,55.83,5.3,5.3,0,0,1,175.92,59.12Zm-4.31,0a5.94,5.94,0,0,0,.22,1.84c.15.41.38.61.71.61.62,0,.93-.82.93-2.45s-.31-2.43-.93-2.43c-.33,0-.56.2-.71.6A5.82,5.82,0,0,0,171.61,59.14Zm11-4.26L174.73,69.1h-2.34l7.89-14.22Zm3.27,9.92a5.5,5.5,0,0,1-.86,3.35,3,3,0,0,1-2.54,1.12A2.92,2.92,0,0,1,180,68.12a5.43,5.43,0,0,1-.88-3.32q0-4.44,3.36-4.44A3,3,0,0,1,185,61.51,5.3,5.3,0,0,1,185.88,64.8Zm-4.31,0a5.94,5.94,0,0,0,.22,1.84c.15.41.38.61.71.61.62,0,.93-.82.93-2.45s-.31-2.43-.93-2.43c-.33,0-.56.2-.71.6A5.82,5.82,0,0,0,181.57,64.82Z" style="fill: #314041"/>
  </g>
  <g>
    <path d="M293.7,111.54a3.36,3.36,0,0,1-.8,2.26,4.15,4.15,0,0,1-2.27,1.29v.06a4.54,4.54,0,0,1,2.61,1,2.93,2.93,0,0,1,.88,2.24,3.78,3.78,0,0,1-1.49,3.2,6.85,6.85,0,0,1-4.25,1.14,10.17,10.17,0,0,1-4.1-.77v-2.55a10.26,10.26,0,0,0,1.82.68,7.88,7.88,0,0,0,2,.26,3.78,3.78,0,0,0,2.2-.51,1.84,1.84,0,0,0,.71-1.62,1.46,1.46,0,0,0-.82-1.42,6,6,0,0,0-2.6-.42h-1.08v-2.3h1.1a5.06,5.06,0,0,0,2.41-.44,1.55,1.55,0,0,0,.77-1.48c0-1.08-.68-1.61-2-1.61a4.48,4.48,0,0,0-1.42.23,6.55,6.55,0,0,0-1.61.81l-1.39-2.08a7.75,7.75,0,0,1,4.64-1.4,6,6,0,0,1,3.49.9A2.88,2.88,0,0,1,293.7,111.54Z" style="fill: #314041"/>
    <path d="M305.55,115.47a9.93,9.93,0,0,1-1.22,5.51,4.22,4.22,0,0,1-3.76,1.79,4.17,4.17,0,0,1-3.71-1.85,9.78,9.78,0,0,1-1.25-5.45,10,10,0,0,1,1.22-5.55,4.72,4.72,0,0,1,7.46.08A9.81,9.81,0,0,1,305.55,115.47Zm-6.95,0a11.15,11.15,0,0,0,.45,3.75,1.58,1.58,0,0,0,3,0,10.79,10.79,0,0,0,.46-3.73,10.58,10.58,0,0,0-.47-3.76,1.58,1.58,0,0,0-3,0A11.18,11.18,0,0,0,298.6,115.47Z" style="fill: #314041"/>
    <path d="M313.63,112.6a5.51,5.51,0,0,1-.86,3.36,3,3,0,0,1-2.54,1.12,2.92,2.92,0,0,1-2.48-1.15,5.46,5.46,0,0,1-.88-3.33c0-3,1.12-4.45,3.36-4.45a3,3,0,0,1,2.52,1.16A5.3,5.3,0,0,1,313.63,112.6Zm-4.31,0a5.94,5.94,0,0,0,.22,1.84c.15.41.38.61.71.61.62,0,.93-.82.93-2.45s-.31-2.43-.93-2.43c-.33,0-.56.2-.71.6A5.82,5.82,0,0,0,309.32,112.62Zm11-4.26-7.88,14.22H310.1L318,108.36Zm3.27,9.92a5.5,5.5,0,0,1-.86,3.35,3,3,0,0,1-2.54,1.12,2.92,2.92,0,0,1-2.48-1.15,5.38,5.38,0,0,1-.88-3.32c0-3,1.12-4.45,3.36-4.45a3,3,0,0,1,2.52,1.16A5.3,5.3,0,0,1,323.59,118.28Zm-4.31,0a5.94,5.94,0,0,0,.22,1.84c.15.41.38.61.71.61.62,0,.93-.82.93-2.45s-.31-2.43-.93-2.43c-.33,0-.56.2-.71.59A5.94,5.94,0,0,0,319.28,118.3Z" style="fill: #314041"/>
  </g>
  <g>
    <path d="M52.34,87.58a6.44,6.44,0,0,1-1.73,4.86,6.79,6.79,0,0,1-5,1.69H42.09V81.28H46a5.77,5.77,0,0,1,6.32,6.3Zm-1.58,0a5.19,5.19,0,0,0-1.26-3.79,5.05,5.05,0,0,0-3.75-1.27H43.58V92.83H45.4a5.53,5.53,0,0,0,4-1.31A5.23,5.23,0,0,0,50.76,87.63Z" style="fill: #314041"/>
    <path d="M59.06,94.3A4.4,4.4,0,0,1,55.69,93a5,5,0,0,1-1.24-3.61,5.55,5.55,0,0,1,1.15-3.7,3.81,3.81,0,0,1,3.08-1.37,3.59,3.59,0,0,1,2.86,1.19,4.52,4.52,0,0,1,1.06,3.14v.92H56a3.86,3.86,0,0,0,.86,2.58,3,3,0,0,0,2.29.88,7.85,7.85,0,0,0,3.08-.65v1.3a8.35,8.35,0,0,1-1.47.48A8.72,8.72,0,0,1,59.06,94.3Zm-.4-8.76a2.37,2.37,0,0,0-1.85.76A3.46,3.46,0,0,0,56,88.39h5a3.23,3.23,0,0,0-.61-2.12A2.17,2.17,0,0,0,58.66,85.54ZM57.58,83c.28-.36.58-.8.91-1.32s.58-1,.77-1.34H61v.18a12.4,12.4,0,0,1-1.15,1.41,15.22,15.22,0,0,1-1.32,1.29h-1Z" style="fill: #314041"/>
    <path d="M63.92,98.45a3.48,3.48,0,0,1-1.36-.22V97a4.26,4.26,0,0,0,1.2.18,1.23,1.23,0,0,0,1-.37,1.69,1.69,0,0,0,.33-1.14V84.49h1.46V95.6C66.55,97.5,65.67,98.45,63.92,98.45Zm1-16.57a1,1,0,0,1,.25-.73.83.83,0,0,1,.61-.23.89.89,0,0,1,.61.23,1.17,1.17,0,0,1,0,1.47.85.85,0,0,1-.61.24.84.84,0,0,1-.61-.24A1,1,0,0,1,65,81.88Z" style="fill: #314041"/>
    <path d="M75.56,94.13l-.29-1.37H75.2A4,4,0,0,1,73.76,94,4.23,4.23,0,0,1,72,94.3a3.18,3.18,0,0,1-2.25-.74,2.69,2.69,0,0,1-.81-2.1c0-1.94,1.55-3,4.67-3.06l1.63-.05v-.6a2.42,2.42,0,0,0-.49-1.67,2,2,0,0,0-1.56-.54,6.37,6.37,0,0,0-2.72.74L70,85.16a6.32,6.32,0,0,1,1.56-.6,6.56,6.56,0,0,1,1.7-.22,3.65,3.65,0,0,1,2.55.76,3.17,3.17,0,0,1,.83,2.45v6.58Zm-3.29-1a3,3,0,0,0,2.14-.75,2.75,2.75,0,0,0,.77-2.09v-.87l-1.45.06a5.28,5.28,0,0,0-2.51.54,1.62,1.62,0,0,0-.77,1.49,1.52,1.52,0,0,0,.48,1.21A2,2,0,0,0,72.27,93.1ZM74,83.22H73a14,14,0,0,1-1.35-1.3,11,11,0,0,1-1.14-1.4v-.18h1.79a14.41,14.41,0,0,0,.78,1.4A11.26,11.26,0,0,0,74,83Z" style="fill: #314041"/>
    <path d="M88.39,94.3A4.43,4.43,0,0,1,85,93a5,5,0,0,1-1.23-3.61,5.55,5.55,0,0,1,1.15-3.7A3.81,3.81,0,0,1,88,84.32a3.61,3.61,0,0,1,2.86,1.19,4.52,4.52,0,0,1,1.06,3.14v.92H85.3a3.86,3.86,0,0,0,.86,2.58,3,3,0,0,0,2.29.88,7.8,7.8,0,0,0,3.07-.65v1.3a8,8,0,0,1-1.46.48A8.75,8.75,0,0,1,88.39,94.3ZM88,85.54a2.37,2.37,0,0,0-1.85.76,3.46,3.46,0,0,0-.81,2.09h5a3.23,3.23,0,0,0-.61-2.12A2.17,2.17,0,0,0,88,85.54Z" style="fill: #314041"/>
    <path d="M101,94.13V87.9a2.49,2.49,0,0,0-.54-1.76,2.18,2.18,0,0,0-1.68-.58,2.76,2.76,0,0,0-2.21.81,4.14,4.14,0,0,0-.71,2.7v5.06H94.42V84.49h1.19l.24,1.32h.07a3,3,0,0,1,1.26-1.1,4,4,0,0,1,1.8-.39,3.67,3.67,0,0,1,2.62.84,3.58,3.58,0,0,1,.87,2.68v6.29Z" style="fill: #314041"/>
    <path d="M114.63,94.3a4.19,4.19,0,0,1-1.72-.34,3.28,3.28,0,0,1-1.3-1.07h-.11a12.92,12.92,0,0,1,.11,1.6v4h-1.46v-14h1.18l.21,1.32h.07a3.28,3.28,0,0,1,1.31-1.14,4,4,0,0,1,1.71-.35,3.55,3.55,0,0,1,3,1.31,7,7,0,0,1,0,7.36A3.59,3.59,0,0,1,114.63,94.3Zm-.21-8.74a2.6,2.6,0,0,0-2.14.81,4.23,4.23,0,0,0-.67,2.61v.32a4.87,4.87,0,0,0,.67,2.91,2.58,2.58,0,0,0,2.17.87,2.26,2.26,0,0,0,2-1,4.8,4.8,0,0,0,.71-2.79,4.61,4.61,0,0,0-.71-2.76A2.33,2.33,0,0,0,114.42,85.56Z" style="fill: #314041"/>
    <path d="M127.77,94.13V87.9a2.49,2.49,0,0,0-.54-1.76,2.15,2.15,0,0,0-1.68-.58,2.73,2.73,0,0,0-2.21.82,4.17,4.17,0,0,0-.7,2.71v5h-1.46V80.45h1.46v4.14a10.29,10.29,0,0,1-.07,1.24h.08a3,3,0,0,1,1.23-1.09,4,4,0,0,1,1.82-.4,3.73,3.73,0,0,1,2.64.83,3.54,3.54,0,0,1,.89,2.67v6.29Z" style="fill: #314041"/>
    <path d="M138.15,94.13l-.29-1.37h-.07A4,4,0,0,1,136.35,94a4.28,4.28,0,0,1-1.79.32,3.17,3.17,0,0,1-2.24-.74,2.69,2.69,0,0,1-.81-2.1q0-2.91,4.66-3.06l1.64-.05v-.6a2.47,2.47,0,0,0-.49-1.67,2,2,0,0,0-1.56-.54,6.45,6.45,0,0,0-2.73.74l-.44-1.12a6.32,6.32,0,0,1,1.56-.6,6.56,6.56,0,0,1,1.7-.22,3.65,3.65,0,0,1,2.55.76,3.21,3.21,0,0,1,.83,2.45v6.58Zm-3.3-1a3,3,0,0,0,2.14-.75,2.75,2.75,0,0,0,.78-2.09v-.87l-1.46.06a5.31,5.31,0,0,0-2.51.54,1.64,1.64,0,0,0-.77,1.49,1.52,1.52,0,0,0,.48,1.21A2,2,0,0,0,134.85,93.1Z" style="fill: #314041"/>
    <path d="M148.45,91.5a2.39,2.39,0,0,1-1,2.07,4.69,4.69,0,0,1-2.81.73,6.16,6.16,0,0,1-3-.6V92.34a7.16,7.16,0,0,0,1.49.56,6.43,6.43,0,0,0,1.53.2,3.42,3.42,0,0,0,1.76-.37,1.19,1.19,0,0,0,.61-1.11,1.22,1.22,0,0,0-.48-1,7.81,7.81,0,0,0-1.91-1,10.29,10.29,0,0,1-1.91-.87,2.51,2.51,0,0,1-.84-.85,2.13,2.13,0,0,1-.28-1.13,2.15,2.15,0,0,1,1-1.86,4.49,4.49,0,0,1,2.63-.68,7.74,7.74,0,0,1,3,.63l-.52,1.19a7,7,0,0,0-2.63-.6,3.08,3.08,0,0,0-1.56.32,1,1,0,0,0-.53.9,1.1,1.1,0,0,0,.2.66,1.9,1.9,0,0,0,.63.52,15.9,15.9,0,0,0,1.69.71,6.34,6.34,0,0,1,2.32,1.26A2.21,2.21,0,0,1,148.45,91.5Z" style="fill: #314041"/>
    <path d="M154.89,94.3a4.41,4.41,0,0,1-3.37-1.3,5,5,0,0,1-1.23-3.61,5.6,5.6,0,0,1,1.14-3.7,3.84,3.84,0,0,1,3.08-1.37,3.61,3.61,0,0,1,2.87,1.19,4.57,4.57,0,0,1,1.05,3.14v.92H151.8a3.81,3.81,0,0,0,.86,2.58A3,3,0,0,0,155,93a7.8,7.8,0,0,0,3.07-.65v1.3a8,8,0,0,1-1.46.48A8.83,8.83,0,0,1,154.89,94.3Zm-.39-8.76a2.36,2.36,0,0,0-1.85.76,3.52,3.52,0,0,0-.82,2.09h5a3.23,3.23,0,0,0-.61-2.12A2.18,2.18,0,0,0,154.5,85.54Z" style="fill: #314041"/>
    <path d="M172.15,92.83h-.07a3.45,3.45,0,0,1-3,1.47A3.58,3.58,0,0,1,166.11,93a7,7,0,0,1,0-7.37,3.91,3.91,0,0,1,5.94.1h.11l-.06-.69,0-.68V80.45h1.45V94.13h-1.18Zm-2.91.25a2.66,2.66,0,0,0,2.16-.81,4.11,4.11,0,0,0,.68-2.63v-.3a4.82,4.82,0,0,0-.69-2.93,2.57,2.57,0,0,0-2.17-.87,2.24,2.24,0,0,0-2,1,5,5,0,0,0-.68,2.81,4.78,4.78,0,0,0,.68,2.79A2.28,2.28,0,0,0,169.24,93.08Z" style="fill: #314041"/>
    <path d="M180.7,94.3a4.4,4.4,0,0,1-3.37-1.3,5,5,0,0,1-1.24-3.61,5.55,5.55,0,0,1,1.15-3.7,3.81,3.81,0,0,1,3.08-1.37,3.59,3.59,0,0,1,2.86,1.19,4.52,4.52,0,0,1,1.06,3.14v.92H177.6a3.86,3.86,0,0,0,.86,2.58,3,3,0,0,0,2.29.88,7.85,7.85,0,0,0,3.08-.65v1.3a8.35,8.35,0,0,1-1.47.48A8.72,8.72,0,0,1,180.7,94.3Zm-.4-8.76a2.37,2.37,0,0,0-1.85.76,3.46,3.46,0,0,0-.81,2.09h5a3.23,3.23,0,0,0-.62-2.12A2.17,2.17,0,0,0,180.3,85.54Z" style="fill: #314041"/>
    <path d="M39.06,105.92a5.73,5.73,0,0,1,1.15.1l-.2,1.36a4.83,4.83,0,0,0-1-.13,2.56,2.56,0,0,0-2,.94,3.46,3.46,0,0,0-.83,2.37v5.17H34.67v-9.64h1.2l.17,1.79h.07a4.27,4.27,0,0,1,1.29-1.45A2.9,2.9,0,0,1,39.06,105.92Z" style="fill: #314041"/>
    <path d="M46.08,115.9a4.43,4.43,0,0,1-3.37-1.3A5,5,0,0,1,41.48,111a5.55,5.55,0,0,1,1.15-3.7,3.81,3.81,0,0,1,3.08-1.37,3.64,3.64,0,0,1,2.86,1.19,4.57,4.57,0,0,1,1.06,3.14v.92H43a3.81,3.81,0,0,0,.86,2.58,2.94,2.94,0,0,0,2.29.88,7.8,7.8,0,0,0,3.07-.65v1.3a8,8,0,0,1-1.46.48A8.83,8.83,0,0,1,46.08,115.9Zm-.39-8.76a2.37,2.37,0,0,0-1.85.76A3.46,3.46,0,0,0,43,110h5a3.23,3.23,0,0,0-.61-2.12A2.17,2.17,0,0,0,45.69,107.14Zm-1.08-2.54c.28-.36.58-.8.91-1.32s.58-1,.77-1.34h1.77v.18a13.61,13.61,0,0,1-1.15,1.41,13.86,13.86,0,0,1-1.33,1.29h-1Z" style="fill: #314041"/>
    <path d="M55.22,114.7a4.56,4.56,0,0,0,.75-.06,5.41,5.41,0,0,0,.57-.12v1.12a2.94,2.94,0,0,1-.7.19,5.07,5.07,0,0,1-.83.07q-2.79,0-2.79-2.94v-5.73H50.84v-.71l1.38-.6.61-2.06h.85v2.23h2.79v1.14H53.68v5.67a2,2,0,0,0,.41,1.33A1.44,1.44,0,0,0,55.22,114.7Z" style="fill: #314041"/>
    <path d="M64.39,115.73l-.29-1.37H64a4,4,0,0,1-1.44,1.22,4.23,4.23,0,0,1-1.78.32,3.18,3.18,0,0,1-2.25-.74,2.69,2.69,0,0,1-.81-2.1q0-2.91,4.66-3l1.64-.06v-.6a2.42,2.42,0,0,0-.49-1.67,2,2,0,0,0-1.56-.54,6.37,6.37,0,0,0-2.72.74l-.45-1.12a6.32,6.32,0,0,1,1.56-.6,6.56,6.56,0,0,1,1.7-.22,3.65,3.65,0,0,1,2.55.76,3.17,3.17,0,0,1,.83,2.45v6.58Zm-3.29-1a3,3,0,0,0,2.14-.75,2.79,2.79,0,0,0,.77-2.09V111l-1.46.06a5.24,5.24,0,0,0-2.5.54,1.62,1.62,0,0,0-.77,1.49,1.52,1.52,0,0,0,.48,1.21A2,2,0,0,0,61.1,114.7Z" style="fill: #314041"/>
    <path d="M73,105.94a3.59,3.59,0,0,1,3,1.29,6.95,6.95,0,0,1,0,7.36A3.58,3.58,0,0,1,73,115.9a4.19,4.19,0,0,1-1.72-.34,3.28,3.28,0,0,1-1.3-1.07h-.11l-.31,1.24h-1V102.05h1.46v3.32c0,.75,0,1.42-.07,2h.07A3.47,3.47,0,0,1,73,105.94Zm-.21,1.22a2.54,2.54,0,0,0-2.15.85,6.66,6.66,0,0,0,0,5.8,2.61,2.61,0,0,0,2.18.87,2.26,2.26,0,0,0,2-1,5,5,0,0,0,.66-2.82,4.84,4.84,0,0,0-.66-2.8A2.33,2.33,0,0,0,72.75,107.16Z" style="fill: #314041"/>
    <path d="M81,115.73H79.51V102.05H81Z" style="fill: #314041"/>
    <path d="M83.94,103.48a1,1,0,0,1,.24-.73.85.85,0,0,1,.62-.23.91.91,0,0,1,.61.23,1.21,1.21,0,0,1,0,1.47.87.87,0,0,1-.61.24.86.86,0,0,1-.62-.24A1,1,0,0,1,83.94,103.48Zm1.58,12.25H84.06v-9.64h1.46Z" style="fill: #314041"/>
    <path d="M94.83,113.1a2.41,2.41,0,0,1-1,2.07,4.71,4.71,0,0,1-2.82.73,6.14,6.14,0,0,1-3-.6v-1.36a7.08,7.08,0,0,0,1.48.56,6.58,6.58,0,0,0,1.54.2,3.42,3.42,0,0,0,1.76-.37,1.25,1.25,0,0,0,.12-2.07,7.69,7.69,0,0,0-1.9-1,10,10,0,0,1-1.91-.87,2.51,2.51,0,0,1-.84-.85,2.13,2.13,0,0,1-.28-1.13,2.15,2.15,0,0,1,1-1.86,4.49,4.49,0,0,1,2.63-.68,7.74,7.74,0,0,1,3,.63l-.52,1.19a7,7,0,0,0-2.63-.6,3.08,3.08,0,0,0-1.56.32,1,1,0,0,0-.53.9,1,1,0,0,0,.2.66,1.9,1.9,0,0,0,.63.52,15.9,15.9,0,0,0,1.69.71,6.52,6.52,0,0,1,2.32,1.26A2.21,2.21,0,0,1,94.83,113.1Z" style="fill: #314041"/>
    <path d="M103.42,113.1a2.39,2.39,0,0,1-1,2.07,4.65,4.65,0,0,1-2.81.73,6.19,6.19,0,0,1-3-.6v-1.36a7.38,7.38,0,0,0,1.49.56,6.45,6.45,0,0,0,1.54.2,3.38,3.38,0,0,0,1.75-.37,1.25,1.25,0,0,0,.13-2.07,7.69,7.69,0,0,0-1.9-1,9.69,9.69,0,0,1-1.91-.87,2.65,2.65,0,0,1-.85-.85,2.22,2.22,0,0,1-.27-1.13,2.17,2.17,0,0,1,1-1.86,4.51,4.51,0,0,1,2.63-.68,7.7,7.7,0,0,1,3,.63l-.52,1.19a6.91,6.91,0,0,0-2.62-.6,3.12,3.12,0,0,0-1.57.32,1,1,0,0,0-.53.9,1.1,1.1,0,0,0,.2.66,2,2,0,0,0,.64.52,15,15,0,0,0,1.69.71,6.36,6.36,0,0,1,2.31,1.26A2.22,2.22,0,0,1,103.42,113.1Z" style="fill: #314041"/>
    <path d="M109.86,115.9a4.4,4.4,0,0,1-3.37-1.3,5,5,0,0,1-1.24-3.61,5.55,5.55,0,0,1,1.15-3.7,3.81,3.81,0,0,1,3.08-1.37,3.63,3.63,0,0,1,2.86,1.19,4.52,4.52,0,0,1,1.06,3.14v.92h-6.64a3.86,3.86,0,0,0,.86,2.58,3,3,0,0,0,2.29.88A7.85,7.85,0,0,0,113,114v1.3a8.35,8.35,0,0,1-1.47.48A8.72,8.72,0,0,1,109.86,115.9Zm-.4-8.76a2.37,2.37,0,0,0-1.85.76,3.46,3.46,0,0,0-.81,2.09h5a3.23,3.23,0,0,0-.62-2.12A2.17,2.17,0,0,0,109.46,107.14Z" style="fill: #314041"/>
    <path d="M128.17,115.73v-6.27a2.61,2.61,0,0,0-.5-1.73,1.91,1.91,0,0,0-1.53-.57,2.47,2.47,0,0,0-2,.78,3.73,3.73,0,0,0-.65,2.41v5.38H122v-6.27a2.61,2.61,0,0,0-.49-1.73,1.93,1.93,0,0,0-1.54-.57,2.39,2.39,0,0,0-2,.82,4.47,4.47,0,0,0-.63,2.69v5.06h-1.46v-9.64h1.18l.24,1.32h.07a2.89,2.89,0,0,1,1.17-1.1,3.59,3.59,0,0,1,1.68-.39,2.86,2.86,0,0,1,3,1.63h.07a3.12,3.12,0,0,1,1.25-1.19,3.81,3.81,0,0,1,1.86-.44,3.26,3.26,0,0,1,2.45.84,3.75,3.75,0,0,1,.81,2.68v6.29Z" style="fill: #314041"/>
    <path d="M136.7,115.9a4.41,4.41,0,0,1-3.37-1.3,5.05,5.05,0,0,1-1.24-3.61,5.61,5.61,0,0,1,1.15-3.7,3.83,3.83,0,0,1,3.08-1.37,3.66,3.66,0,0,1,2.87,1.19,4.57,4.57,0,0,1,1.05,3.14v.92h-6.63a3.8,3.8,0,0,0,.85,2.58,3,3,0,0,0,2.29.88,7.85,7.85,0,0,0,3.08-.65v1.3a8.35,8.35,0,0,1-1.47.48A8.72,8.72,0,0,1,136.7,115.9Zm-.4-8.76a2.37,2.37,0,0,0-1.85.76,3.46,3.46,0,0,0-.81,2.09h5a3.23,3.23,0,0,0-.62-2.12A2.15,2.15,0,0,0,136.3,107.14Z" style="fill: #314041"/>
    <path d="M149.32,115.73V109.5a2.49,2.49,0,0,0-.54-1.76,2.14,2.14,0,0,0-1.67-.58,2.79,2.79,0,0,0-2.22.81,4.14,4.14,0,0,0-.7,2.7v5.06h-1.46v-9.64h1.19l.23,1.32h.07a3,3,0,0,1,1.26-1.1,4.1,4.1,0,0,1,1.8-.39,3.67,3.67,0,0,1,2.62.84,3.54,3.54,0,0,1,.88,2.68v6.29Z" style="fill: #314041"/>
    <path d="M156.89,114.7a4.44,4.44,0,0,0,.74-.06,5.15,5.15,0,0,0,.58-.12v1.12a3.09,3.09,0,0,1-.7.19,5.25,5.25,0,0,1-.83.07c-1.87,0-2.8-1-2.8-2.94v-5.73H152.5v-.71l1.38-.6.62-2.06h.84v2.23h2.8v1.14h-2.8v5.67a2,2,0,0,0,.41,1.33A1.46,1.46,0,0,0,156.89,114.7Z" style="fill: #314041"/>
    <path d="M173.12,110.9a5.27,5.27,0,0,1-1.19,3.68,4.17,4.17,0,0,1-3.27,1.32,4.41,4.41,0,0,1-2.3-.6,4,4,0,0,1-1.54-1.74,6,6,0,0,1-.55-2.66,5.29,5.29,0,0,1,1.18-3.67,4.17,4.17,0,0,1,3.27-1.31,4.08,4.08,0,0,1,3.21,1.34A5.32,5.32,0,0,1,173.12,110.9Zm-7.34,0a4.57,4.57,0,0,0,.74,2.81,2.55,2.55,0,0,0,2.17,1,2.59,2.59,0,0,0,2.18-1,4.58,4.58,0,0,0,.74-2.82,4.53,4.53,0,0,0-.74-2.79,2.64,2.64,0,0,0-2.2-1,2.57,2.57,0,0,0-2.16.94A4.55,4.55,0,0,0,165.78,110.9Z" style="fill: #314041"/>
    <path d="M177.05,106.09v6.25a2.51,2.51,0,0,0,.54,1.76,2.14,2.14,0,0,0,1.67.58,2.7,2.7,0,0,0,2.21-.83,4.13,4.13,0,0,0,.7-2.69v-5.07h1.46v9.64h-1.2l-.21-1.3h-.08a2.83,2.83,0,0,1-1.25,1.09,4,4,0,0,1-1.81.38,3.7,3.7,0,0,1-2.63-.83,3.53,3.53,0,0,1-.88-2.67v-6.31Z" style="fill: #314041"/>
    <path d="M80.48,136h-.07a3.45,3.45,0,0,1-3,1.47,3.58,3.58,0,0,1-2.94-1.29,7,7,0,0,1,0-7.37,3.91,3.91,0,0,1,5.94.1h.11l-.06-.69,0-.68v-3.92h1.45v13.68H80.68Zm-2.91.25a2.66,2.66,0,0,0,2.16-.81,4.11,4.11,0,0,0,.68-2.63v-.3a4.82,4.82,0,0,0-.69-2.93,2.57,2.57,0,0,0-2.17-.87,2.24,2.24,0,0,0-2,1,5,5,0,0,0-.68,2.81,4.78,4.78,0,0,0,.68,2.79A2.28,2.28,0,0,0,77.57,136.28Z" style="fill: #314041"/>
    <path d="M89,137.5a4.4,4.4,0,0,1-3.37-1.3,5,5,0,0,1-1.24-3.61,5.55,5.55,0,0,1,1.15-3.7,3.78,3.78,0,0,1,3.08-1.37,3.63,3.63,0,0,1,2.86,1.19,4.52,4.52,0,0,1,1.06,3.14v.92H85.93a3.86,3.86,0,0,0,.86,2.58,3,3,0,0,0,2.29.88,7.85,7.85,0,0,0,3.08-.65v1.3a8.35,8.35,0,0,1-1.47.48A8.72,8.72,0,0,1,89,137.5Zm-.4-8.76a2.37,2.37,0,0,0-1.85.76,3.46,3.46,0,0,0-.81,2.09h5a3.23,3.23,0,0,0-.62-2.12A2.17,2.17,0,0,0,88.63,128.74Z" style="fill: #314041"/>
    <path d="M104.13,127.52a5.79,5.79,0,0,1,1.15.1l-.2,1.36a4.91,4.91,0,0,0-1.06-.14,2.59,2.59,0,0,0-2,.95,3.49,3.49,0,0,0-.83,2.37v5.17H99.73v-9.64h1.21l.16,1.79h.07a4.19,4.19,0,0,1,1.3-1.45A2.88,2.88,0,0,1,104.13,127.52Z" style="fill: #314041"/>
    <path d="M111.15,137.5a4.41,4.41,0,0,1-3.37-1.3,5.05,5.05,0,0,1-1.24-3.61,5.61,5.61,0,0,1,1.15-3.7,3.8,3.8,0,0,1,3.08-1.37,3.66,3.66,0,0,1,2.87,1.19,4.57,4.57,0,0,1,1,3.14v.92h-6.63a3.85,3.85,0,0,0,.85,2.58,3,3,0,0,0,2.29.88,7.85,7.85,0,0,0,3.08-.65v1.3a8.35,8.35,0,0,1-1.47.48A8.72,8.72,0,0,1,111.15,137.5Zm-.4-8.76a2.37,2.37,0,0,0-1.85.76,3.46,3.46,0,0,0-.81,2.09h5a3.23,3.23,0,0,0-.62-2.12A2.15,2.15,0,0,0,110.75,128.74Z" style="fill: #314041"/>
    <path d="M120.29,136.3a4.56,4.56,0,0,0,.75-.06,5.41,5.41,0,0,0,.57-.12v1.12a2.94,2.94,0,0,1-.7.19,5.16,5.16,0,0,1-.83.07c-1.86,0-2.8-1-2.8-2.94v-5.73H115.9v-.71l1.38-.6.62-2.06h.84v2.23h2.8v1.14h-2.8v5.67a1.91,1.91,0,0,0,.42,1.33A1.43,1.43,0,0,0,120.29,136.3Z" style="fill: #314041"/>
    <path d="M131.85,132.5a5.32,5.32,0,0,1-1.19,3.68,4.18,4.18,0,0,1-3.28,1.32,4.37,4.37,0,0,1-2.29-.6,4.1,4.1,0,0,1-1.55-1.74,6.16,6.16,0,0,1-.54-2.66,5.29,5.29,0,0,1,1.18-3.67,4.16,4.16,0,0,1,3.26-1.31,4.11,4.11,0,0,1,3.22,1.34A5.32,5.32,0,0,1,131.85,132.5Zm-7.34,0a4.57,4.57,0,0,0,.74,2.81,2.54,2.54,0,0,0,2.17,1,2.57,2.57,0,0,0,2.17-1,4.52,4.52,0,0,0,.75-2.82,4.46,4.46,0,0,0-.75-2.79,2.61,2.61,0,0,0-2.19-1,2.55,2.55,0,0,0-2.16.94A4.48,4.48,0,0,0,124.51,132.5Z" style="fill: #314041"/>
    <path d="M135.78,127.69v6.25a2.55,2.55,0,0,0,.53,1.76,2.18,2.18,0,0,0,1.68.58,2.7,2.7,0,0,0,2.21-.83,4.13,4.13,0,0,0,.7-2.69v-5.07h1.46v9.64h-1.2l-.22-1.3h-.07a2.89,2.89,0,0,1-1.25,1.09,4,4,0,0,1-1.81.38,3.73,3.73,0,0,1-2.64-.83,3.57,3.57,0,0,1-.87-2.67v-6.31Z" style="fill: #314041"/>
    <path d="M149.85,127.52a5.73,5.73,0,0,1,1.15.1l-.2,1.36a4.91,4.91,0,0,0-1.06-.14,2.59,2.59,0,0,0-2,.95,3.49,3.49,0,0,0-.83,2.37v5.17h-1.46v-9.64h1.21l.16,1.79h.07a4.19,4.19,0,0,1,1.3-1.45A2.88,2.88,0,0,1,149.85,127.52Z" style="fill: #314041"/>
    <path d="M163.4,137.33l-.29-1.37H163a4,4,0,0,1-1.44,1.22,4.41,4.41,0,0,1-1.79.32,3.17,3.17,0,0,1-2.24-.74,2.69,2.69,0,0,1-.81-2.1q0-2.91,4.66-3.06l1.64,0V131a2.47,2.47,0,0,0-.49-1.67,2,2,0,0,0-1.56-.54,6.37,6.37,0,0,0-2.72.74l-.45-1.12a6.32,6.32,0,0,1,1.56-.6,6.56,6.56,0,0,1,1.7-.22,3.65,3.65,0,0,1,2.55.76,3.21,3.21,0,0,1,.83,2.45v6.58Zm-3.3-1a2.94,2.94,0,0,0,2.14-.75,2.75,2.75,0,0,0,.78-2.09v-.87l-1.46.06a5.31,5.31,0,0,0-2.51.54,1.63,1.63,0,0,0-.76,1.49,1.48,1.48,0,0,0,.47,1.2A2,2,0,0,0,160.1,136.3Zm1.74-9.88h-1a14,14,0,0,1-1.35-1.3,10.18,10.18,0,0,1-1.14-1.4v-.18h1.79a11.12,11.12,0,0,0,.78,1.4,11.26,11.26,0,0,0,.89,1.26Z" style="fill: #314041"/>
    <path d="M173.62,137.33h-1.46V123.65h1.46Z" style="fill: #314041"/>
    <path d="M182.64,137.33l-.29-1.37h-.07a4,4,0,0,1-1.44,1.22,4.44,4.44,0,0,1-1.79.32,3.17,3.17,0,0,1-2.24-.74,2.69,2.69,0,0,1-.81-2.1q0-2.91,4.66-3.06l1.64,0V131a2.47,2.47,0,0,0-.49-1.67,2,2,0,0,0-1.56-.54,6.45,6.45,0,0,0-2.73.74l-.44-1.12a6.32,6.32,0,0,1,1.56-.6,6.56,6.56,0,0,1,1.7-.22,3.65,3.65,0,0,1,2.55.76,3.21,3.21,0,0,1,.83,2.45v6.58Zm-3.3-1a2.94,2.94,0,0,0,2.14-.75,2.75,2.75,0,0,0,.78-2.09v-.87l-1.46.06a5.31,5.31,0,0,0-2.51.54,1.64,1.64,0,0,0-.77,1.49,1.48,1.48,0,0,0,.48,1.2A2,2,0,0,0,179.34,136.3Z" style="fill: #314041"/>
    <path d="M102.33,159.1a4.15,4.15,0,0,1-3.24-1.28A5.34,5.34,0,0,1,98,154.17a5.48,5.48,0,0,1,1.16-3.73,4.21,4.21,0,0,1,3.32-1.32,6.57,6.57,0,0,1,1.39.15,4.36,4.36,0,0,1,1.09.35l-.45,1.24a6.16,6.16,0,0,0-1-.32,4.43,4.43,0,0,0-1-.13q-2.94,0-2.94,3.74a4.44,4.44,0,0,0,.72,2.73,2.48,2.48,0,0,0,2.12,1,6.41,6.41,0,0,0,2.47-.52v1.29A5.22,5.22,0,0,1,102.33,159.1Z" style="fill: #314041"/>
    <path d="M111.45,149.12a5.73,5.73,0,0,1,1.15.1l-.2,1.36a4.84,4.84,0,0,0-1.06-.13,2.58,2.58,0,0,0-2,.94,3.51,3.51,0,0,0-.83,2.37v5.17h-1.46v-9.64h1.21l.17,1.79h.07a4.07,4.07,0,0,1,1.29-1.45A2.88,2.88,0,0,1,111.45,149.12Z" style="fill: #314041"/>
    <path d="M122.72,154.1a5.32,5.32,0,0,1-1.19,3.68,4.18,4.18,0,0,1-3.28,1.32,4.37,4.37,0,0,1-2.29-.6,4,4,0,0,1-1.55-1.74,6.13,6.13,0,0,1-.54-2.66,5.34,5.34,0,0,1,1.17-3.67,4.2,4.2,0,0,1,3.27-1.31,4.08,4.08,0,0,1,3.21,1.34A5.27,5.27,0,0,1,122.72,154.1Zm-7.34,0a4.5,4.5,0,0,0,.74,2.81,2.54,2.54,0,0,0,2.17,1,2.57,2.57,0,0,0,2.17-1,4.52,4.52,0,0,0,.74-2.82,4.46,4.46,0,0,0-.74-2.79,2.61,2.61,0,0,0-2.19-.95,2.54,2.54,0,0,0-2.16.94A4.48,4.48,0,0,0,115.38,154.1Z" style="fill: #314041"/>
    <path d="M125.15,146.68a1,1,0,0,1,.25-.73.87.87,0,0,1,.61-.23.89.89,0,0,1,.61.23,1.21,1.21,0,0,1,0,1.47.85.85,0,0,1-.61.24.84.84,0,0,1-.61-.24A1,1,0,0,1,125.15,146.68Zm1.58,12.25h-1.46v-9.64h1.46Z" style="fill: #314041"/>
    <path d="M136,156.3a2.39,2.39,0,0,1-1,2.07,4.69,4.69,0,0,1-2.81.73,6.16,6.16,0,0,1-3-.6v-1.36a7.16,7.16,0,0,0,1.49.56,6.43,6.43,0,0,0,1.53.2,3.42,3.42,0,0,0,1.76-.37,1.19,1.19,0,0,0,.61-1.11,1.22,1.22,0,0,0-.48-1,7.81,7.81,0,0,0-1.91-1,10.29,10.29,0,0,1-1.91-.87,2.51,2.51,0,0,1-.84-.85,2.13,2.13,0,0,1-.28-1.13,2.15,2.15,0,0,1,1-1.86,4.49,4.49,0,0,1,2.63-.68,7.74,7.74,0,0,1,3,.63l-.52,1.19a7,7,0,0,0-2.63-.6,3,3,0,0,0-1.56.33,1,1,0,0,0-.53.89,1.1,1.1,0,0,0,.2.66,1.9,1.9,0,0,0,.63.52,15.9,15.9,0,0,0,1.69.71,6.42,6.42,0,0,1,2.32,1.26A2.21,2.21,0,0,1,136,156.3Z" style="fill: #314041"/>
    <path d="M144.63,156.3a2.41,2.41,0,0,1-1,2.07,4.71,4.71,0,0,1-2.82.73,6.21,6.21,0,0,1-3-.6v-1.36a7.38,7.38,0,0,0,1.49.56,6.51,6.51,0,0,0,1.54.2,3.42,3.42,0,0,0,1.76-.37,1.25,1.25,0,0,0,.12-2.07,7.69,7.69,0,0,0-1.9-1,10,10,0,0,1-1.91-.87,2.65,2.65,0,0,1-.85-.85,2.22,2.22,0,0,1-.27-1.13,2.15,2.15,0,0,1,1-1.86,4.46,4.46,0,0,1,2.62-.68,7.79,7.79,0,0,1,3.05.63l-.52,1.19a7,7,0,0,0-2.63-.6,3,3,0,0,0-1.57.33,1,1,0,0,0-.52.89,1.09,1.09,0,0,0,.19.66,2.06,2.06,0,0,0,.64.52,15,15,0,0,0,1.69.71,6.36,6.36,0,0,1,2.31,1.26A2.18,2.18,0,0,1,144.63,156.3Z" style="fill: #314041"/>
    <path d="M152.92,158.93l-.29-1.37h-.07a4.07,4.07,0,0,1-1.43,1.22,4.31,4.31,0,0,1-1.79.32,3.18,3.18,0,0,1-2.25-.74,2.69,2.69,0,0,1-.81-2.1q0-2.91,4.67-3l1.63-.06v-.6a2.42,2.42,0,0,0-.49-1.67,2,2,0,0,0-1.56-.54,6.37,6.37,0,0,0-2.72.74l-.45-1.12a6.48,6.48,0,0,1,1.56-.6,6.61,6.61,0,0,1,1.7-.22,3.65,3.65,0,0,1,2.55.76,3.17,3.17,0,0,1,.84,2.45v6.58Zm-3.29-1a3,3,0,0,0,2.14-.75,2.75,2.75,0,0,0,.78-2.09v-.87l-1.46.06a5.28,5.28,0,0,0-2.51.54,1.62,1.62,0,0,0-.77,1.49,1.52,1.52,0,0,0,.48,1.21A2,2,0,0,0,149.63,157.9Z" style="fill: #314041"/>
    <path d="M163.6,158.93V152.7a2.54,2.54,0,0,0-.53-1.76,2.18,2.18,0,0,0-1.68-.58,2.79,2.79,0,0,0-2.22.81,4.14,4.14,0,0,0-.7,2.7v5.06H157v-9.64h1.19l.23,1.32h.08a2.92,2.92,0,0,1,1.25-1.1,4.1,4.1,0,0,1,1.8-.39,3.65,3.65,0,0,1,2.62.84,3.54,3.54,0,0,1,.88,2.68v6.29Z" style="fill: #314041"/>
    <path d="M171.91,159.1a4.12,4.12,0,0,1-3.24-1.28,5.29,5.29,0,0,1-1.15-3.65,5.43,5.43,0,0,1,1.17-3.73,4.18,4.18,0,0,1,3.32-1.32,6.48,6.48,0,0,1,1.38.15,4.23,4.23,0,0,1,1.09.35l-.44,1.24a6.57,6.57,0,0,0-1.06-.32,4.43,4.43,0,0,0-1-.13q-2.94,0-2.94,3.74a4.44,4.44,0,0,0,.72,2.73,2.51,2.51,0,0,0,2.12,1,6.37,6.37,0,0,0,2.47-.52v1.29A5.15,5.15,0,0,1,171.91,159.1Z" style="fill: #314041"/>
    <path d="M180.7,159.1a4.4,4.4,0,0,1-3.37-1.3,5,5,0,0,1-1.24-3.61,5.55,5.55,0,0,1,1.15-3.7,3.81,3.81,0,0,1,3.08-1.37,3.63,3.63,0,0,1,2.86,1.19,4.52,4.52,0,0,1,1.06,3.14v.92H177.6a3.84,3.84,0,0,0,.86,2.58,3,3,0,0,0,2.29.88,7.85,7.85,0,0,0,3.08-.65v1.3a8.35,8.35,0,0,1-1.47.48A8.72,8.72,0,0,1,180.7,159.1Zm-.4-8.76a2.37,2.37,0,0,0-1.85.76,3.46,3.46,0,0,0-.81,2.09h5a3.23,3.23,0,0,0-.62-2.12A2.2,2.2,0,0,0,180.3,150.34Z" style="fill: #314041"/>
  </g>
  <g>
    <path d="M205.9,229.69h-4v-7.13h4v.73h-3.15v2.3h3v.74h-3V229h3.15Z" style="fill: #304041"/>
    <path d="M211,229.69v-3.46a1.37,1.37,0,0,0-.3-1,1.17,1.17,0,0,0-.93-.33,1.55,1.55,0,0,0-1.23.46,2.29,2.29,0,0,0-.39,1.5v2.8h-.81v-5.35H208l.13.74h0a1.69,1.69,0,0,1,.7-.62,2.33,2.33,0,0,1,1-.21,2,2,0,0,1,1.45.46,2,2,0,0,1,.49,1.49v3.49Z" style="fill: #304041"/>
    <path d="M215.23,229.12a2.73,2.73,0,0,0,.41,0L216,229v.62a1.8,1.8,0,0,1-.39.1,2.6,2.6,0,0,1-.46,0c-1,0-1.55-.54-1.55-1.63V225h-.77v-.39l.77-.33.34-1.15h.47v1.24h1.55V225h-1.55v3.15a1,1,0,0,0,.23.74A.77.77,0,0,0,215.23,229.12Z" style="fill: #304041"/>
    <path d="M219.47,224.25a4.06,4.06,0,0,1,.64.05l-.11.76a2.75,2.75,0,0,0-.59-.08,1.44,1.44,0,0,0-1.11.53,1.91,1.91,0,0,0-.46,1.31v2.87H217v-5.35h.67l.09,1h0a2.44,2.44,0,0,1,.72-.8A1.58,1.58,0,0,1,219.47,224.25Z" style="fill: #304041"/>
    <path d="M223.37,229.79a2.46,2.46,0,0,1-1.87-.72,2.79,2.79,0,0,1-.69-2,3.07,3.07,0,0,1,.64-2.05,2.11,2.11,0,0,1,1.71-.76,2,2,0,0,1,1.59.66,2.53,2.53,0,0,1,.59,1.74v.52h-3.69a2.17,2.17,0,0,0,.48,1.43,1.65,1.65,0,0,0,1.27.48,4.3,4.3,0,0,0,1.71-.36v.73a4.43,4.43,0,0,1-.81.26A4.24,4.24,0,0,1,223.37,229.79Zm-.22-4.87a1.33,1.33,0,0,0-1,.42,2,2,0,0,0-.45,1.17h2.8a1.79,1.79,0,0,0-.34-1.18A1.22,1.22,0,0,0,223.15,224.92Z" style="fill: #304041"/>
    <path d="M229.21,229.79a2.27,2.27,0,0,1-1-.19,1.89,1.89,0,0,1-.73-.59h-.06a7,7,0,0,1,.06.89v2.2h-.81v-7.76h.66l.11.74h0a1.83,1.83,0,0,1,.73-.64,2.21,2.21,0,0,1,1-.19,2,2,0,0,1,1.64.72,3.19,3.19,0,0,1,.58,2,3.13,3.13,0,0,1-.59,2.05A2,2,0,0,1,229.21,229.79Zm-.12-4.86a1.44,1.44,0,0,0-1.18.46,2.3,2.3,0,0,0-.38,1.44V227a2.7,2.7,0,0,0,.38,1.62,1.43,1.43,0,0,0,1.2.48,1.23,1.23,0,0,0,1.09-.56,2.67,2.67,0,0,0,.39-1.55,2.58,2.58,0,0,0-.39-1.53A1.29,1.29,0,0,0,229.09,224.93Z" style="fill: #304041"/>
    <path d="M235.29,224.25a4.06,4.06,0,0,1,.64.05l-.11.76a2.75,2.75,0,0,0-.59-.08,1.44,1.44,0,0,0-1.11.53,1.91,1.91,0,0,0-.46,1.31v2.87h-.81v-5.35h.67l.09,1h0a2.44,2.44,0,0,1,.72-.8A1.61,1.61,0,0,1,235.29,224.25Z" style="fill: #304041"/>
    <path d="M236.86,222.89a.52.52,0,0,1,.14-.4.45.45,0,0,1,.34-.13.48.48,0,0,1,.34.13.54.54,0,0,1,.14.4.55.55,0,0,1-.14.41.49.49,0,0,1-.34.14.46.46,0,0,1-.34-.14A.55.55,0,0,1,236.86,222.89Zm.88,6.8h-.81v-5.35h.81Z" style="fill: #304041"/>
    <path d="M242.91,228.23a1.35,1.35,0,0,1-.55,1.16,2.66,2.66,0,0,1-1.57.4,3.46,3.46,0,0,1-1.66-.33v-.76a3.94,3.94,0,0,0,.83.31,3.25,3.25,0,0,0,.85.11,1.89,1.89,0,0,0,1-.2.7.7,0,0,0,.07-1.15,4.36,4.36,0,0,0-1.06-.53,5.26,5.26,0,0,1-1.06-.48,1.5,1.5,0,0,1-.47-.47,1.28,1.28,0,0,1-.15-.63,1.23,1.23,0,0,1,.53-1,2.51,2.51,0,0,1,1.46-.37,4.16,4.16,0,0,1,1.69.35l-.29.66a3.92,3.92,0,0,0-1.46-.34,1.61,1.61,0,0,0-.87.19.56.56,0,0,0-.29.49.62.62,0,0,0,.11.37,1.06,1.06,0,0,0,.35.29,8.83,8.83,0,0,0,.94.39,3.59,3.59,0,0,1,1.29.7A1.25,1.25,0,0,1,242.91,228.23Z" style="fill: #304041"/>
    <path d="M246.49,229.79a2.46,2.46,0,0,1-1.87-.72,2.79,2.79,0,0,1-.69-2,3.07,3.07,0,0,1,.64-2.05,2.11,2.11,0,0,1,1.71-.76,2,2,0,0,1,1.59.66,2.53,2.53,0,0,1,.59,1.74v.52h-3.69a2.17,2.17,0,0,0,.48,1.43,1.65,1.65,0,0,0,1.27.48,4.3,4.3,0,0,0,1.71-.36v.73a4.43,4.43,0,0,1-.81.26A4.24,4.24,0,0,1,246.49,229.79Zm-.22-4.87a1.33,1.33,0,0,0-1,.42,2,2,0,0,0-.45,1.17h2.8a1.79,1.79,0,0,0-.34-1.18A1.22,1.22,0,0,0,246.27,224.92Z" style="fill: #304041"/>
    <path d="M253.29,228.23a1.35,1.35,0,0,1-.55,1.16,2.64,2.64,0,0,1-1.57.4,3.46,3.46,0,0,1-1.66-.33v-.76a3.94,3.94,0,0,0,.83.31,3.25,3.25,0,0,0,.85.11,1.89,1.89,0,0,0,1-.2.7.7,0,0,0,.07-1.15,4.36,4.36,0,0,0-1.06-.53,5.55,5.55,0,0,1-1.06-.48,1.61,1.61,0,0,1-.47-.47,1.28,1.28,0,0,1-.15-.63,1.23,1.23,0,0,1,.53-1,2.51,2.51,0,0,1,1.46-.37,4.16,4.16,0,0,1,1.69.35l-.29.66a3.88,3.88,0,0,0-1.46-.34,1.61,1.61,0,0,0-.87.19.56.56,0,0,0-.29.49.62.62,0,0,0,.11.37,1.06,1.06,0,0,0,.35.29,8.83,8.83,0,0,0,.94.39,3.5,3.5,0,0,1,1.29.7A1.25,1.25,0,0,1,253.29,228.23Z" style="fill: #304041"/>
    <path d="M206.37,241.79a2.3,2.3,0,0,1-1-.19,1.89,1.89,0,0,1-.73-.59h-.05a6.93,6.93,0,0,1,.05.89v2.2h-.81v-7.76h.66l.12.74h0a1.9,1.9,0,0,1,.73-.64,2.24,2.24,0,0,1,1-.19A2,2,0,0,1,208,237a3.26,3.26,0,0,1,.58,2,3.19,3.19,0,0,1-.59,2.05A2,2,0,0,1,206.37,241.79Zm-.11-4.86a1.44,1.44,0,0,0-1.19.46,2.36,2.36,0,0,0-.38,1.44V239a2.7,2.7,0,0,0,.38,1.62,1.44,1.44,0,0,0,1.21.48,1.23,1.23,0,0,0,1.08-.56,2.6,2.6,0,0,0,.4-1.55,2.51,2.51,0,0,0-.4-1.53A1.28,1.28,0,0,0,206.26,236.93Z" style="fill: #304041"/>
    <path d="M210.82,241.69H210V234.1h.81Z" style="fill: #304041"/>
    <path d="M213.3,236.34v3.48a1.37,1.37,0,0,0,.3,1,1.19,1.19,0,0,0,.93.32,1.52,1.52,0,0,0,1.23-.46,2.27,2.27,0,0,0,.39-1.49v-2.82H217v5.35h-.67l-.12-.71h0a1.68,1.68,0,0,1-.69.6,2.34,2.34,0,0,1-1,.21,2,2,0,0,1-1.46-.46,2,2,0,0,1-.49-1.49v-3.5Z" style="fill: #304041"/>
    <path d="M222.13,240.23a1.33,1.33,0,0,1-.56,1.16,2.61,2.61,0,0,1-1.56.4,3.46,3.46,0,0,1-1.66-.33v-.76a3.74,3.74,0,0,0,.83.31,3.2,3.2,0,0,0,.85.11,1.91,1.91,0,0,0,1-.2.7.7,0,0,0,.07-1.15,4.36,4.36,0,0,0-1.06-.53,5.26,5.26,0,0,1-1.06-.48,1.5,1.5,0,0,1-.47-.47,1.28,1.28,0,0,1-.15-.63,1.2,1.2,0,0,1,.53-1,2.48,2.48,0,0,1,1.46-.37,4.16,4.16,0,0,1,1.69.35l-.29.66a3.92,3.92,0,0,0-1.46-.34,1.61,1.61,0,0,0-.87.19.56.56,0,0,0-.29.49.62.62,0,0,0,.11.37,1.06,1.06,0,0,0,.35.29,8.83,8.83,0,0,0,.94.39,3.68,3.68,0,0,1,1.29.7A1.25,1.25,0,0,1,222.13,240.23Z" style="fill: #304041"/>
    <path d="M229.34,241.69l-.16-.76h0a2.18,2.18,0,0,1-.8.68,2.43,2.43,0,0,1-1,.18,1.76,1.76,0,0,1-1.25-.41,1.48,1.48,0,0,1-.45-1.16c0-1.09.86-1.65,2.59-1.7l.91,0v-.34a1.36,1.36,0,0,0-.27-.93,1.12,1.12,0,0,0-.87-.3,3.54,3.54,0,0,0-1.51.41l-.25-.62a3.91,3.91,0,0,1,1.81-.45,2.06,2.06,0,0,1,1.42.42,1.76,1.76,0,0,1,.46,1.36v3.65Zm-1.83-.57a1.64,1.64,0,0,0,1.19-.41,1.58,1.58,0,0,0,.43-1.16v-.49l-.81,0a2.91,2.91,0,0,0-1.4.3.9.9,0,0,0-.42.83.84.84,0,0,0,.26.66A1.09,1.09,0,0,0,227.51,241.12Z" style="fill: #304041"/>
    <path d="M236,236.34v.52l-1,.11a1.89,1.89,0,0,1,.24.45,1.71,1.71,0,0,1,.11.62,1.59,1.59,0,0,1-.54,1.26,2.18,2.18,0,0,1-1.47.47,3.14,3.14,0,0,1-.45,0,.79.79,0,0,0-.52.69.35.35,0,0,0,.18.32,1.31,1.31,0,0,0,.62.11h1a2.13,2.13,0,0,1,1.33.36,1.29,1.29,0,0,1,.47,1.07,1.52,1.52,0,0,1-.71,1.35,3.84,3.84,0,0,1-2.08.47,2.85,2.85,0,0,1-1.62-.39,1.27,1.27,0,0,1-.57-1.11,1.23,1.23,0,0,1,.31-.84,1.55,1.55,0,0,1,.88-.48.87.87,0,0,1-.34-.29.72.72,0,0,1-.14-.46.9.9,0,0,1,.15-.51,1.54,1.54,0,0,1,.5-.42,1.48,1.48,0,0,1-.68-.59,1.71,1.71,0,0,1-.26-.93,1.75,1.75,0,0,1,.53-1.36,2.13,2.13,0,0,1,1.49-.47,3,3,0,0,1,.76.09Zm-4.27,6.25a.72.72,0,0,0,.37.66,2,2,0,0,0,1,.23,2.86,2.86,0,0,0,1.51-.31.93.93,0,0,0,.49-.83.65.65,0,0,0-.27-.6,2.12,2.12,0,0,0-1-.17h-1a1.25,1.25,0,0,0-.86.27A.91.91,0,0,0,231.72,242.59Zm.44-4.53a1.12,1.12,0,0,0,.32.85,1.26,1.26,0,0,0,.88.28,1,1,0,0,0,1.19-1.15,1.06,1.06,0,0,0-1.2-1.2,1.2,1.2,0,0,0-.88.3A1.23,1.23,0,0,0,232.16,238.06Z" style="fill: #304041"/>
    <path d="M237,234.89a.49.49,0,0,1,.14-.4.45.45,0,0,1,.34-.13.44.44,0,0,1,.33.13.51.51,0,0,1,.15.4.51.51,0,0,1-.15.41.45.45,0,0,1-.33.14.46.46,0,0,1-.34-.14A.51.51,0,0,1,237,234.89Zm.88,6.8h-.81v-5.35h.81Z" style="fill: #304041"/>
    <path d="M240.43,241.69h-.81V234.1h.81Z" style="fill: #304041"/>
    <path d="M244.41,241.79a2.49,2.49,0,0,1-1.88-.72,2.83,2.83,0,0,1-.68-2,3.07,3.07,0,0,1,.64-2.05,2.09,2.09,0,0,1,1.71-.76,2,2,0,0,1,1.59.66,2.52,2.52,0,0,1,.58,1.74v.52h-3.68a2.12,2.12,0,0,0,.47,1.43,1.69,1.69,0,0,0,1.28.48,4.29,4.29,0,0,0,1.7-.36v.73a4,4,0,0,1-.81.26A4.09,4.09,0,0,1,244.41,241.79Zm-.22-4.87a1.32,1.32,0,0,0-1,.42,1.89,1.89,0,0,0-.45,1.17h2.8a1.79,1.79,0,0,0-.35-1.18A1.19,1.19,0,0,0,244.19,236.92Z" style="fill: #304041"/>
    <path d="M251.21,240.23a1.36,1.36,0,0,1-.56,1.16,2.61,2.61,0,0,1-1.56.4,3.46,3.46,0,0,1-1.66-.33v-.76a3.74,3.74,0,0,0,.83.31,3.2,3.2,0,0,0,.85.11,1.91,1.91,0,0,0,1-.2.68.68,0,0,0,.34-.62.66.66,0,0,0-.27-.53,4.8,4.8,0,0,0-1.06-.53,5.26,5.26,0,0,1-1.06-.48,1.5,1.5,0,0,1-.47-.47,1.28,1.28,0,0,1-.16-.63,1.21,1.21,0,0,1,.54-1,2.48,2.48,0,0,1,1.46-.37,4.2,4.2,0,0,1,1.69.35l-.29.66a4,4,0,0,0-1.46-.34,1.56,1.56,0,0,0-.87.19.54.54,0,0,0-.29.49.56.56,0,0,0,.11.37,1.06,1.06,0,0,0,.35.29,8,8,0,0,0,.94.39,3.52,3.52,0,0,1,1.28.7A1.21,1.21,0,0,1,251.21,240.23Z" style="fill: #304041"/>
  </g>
  <g>
    <path d="M283.07,229.69h-4v-7.13h4v.73h-3.14v2.3h2.95v.74h-2.95V229h3.14Z" style="fill: #304041"/>
    <path d="M288.2,229.69v-3.46a1.37,1.37,0,0,0-.3-1,1.2,1.2,0,0,0-.93-.33,1.55,1.55,0,0,0-1.23.46,2.23,2.23,0,0,0-.4,1.5v2.8h-.81v-5.35h.66l.14.74h0a1.69,1.69,0,0,1,.7-.62,2.33,2.33,0,0,1,1-.21,2,2,0,0,1,1.46.46,2,2,0,0,1,.49,1.49v3.49Z" style="fill: #304041"/>
    <path d="M292.4,229.12a3,3,0,0,0,.42,0l.31-.06v.62a1.65,1.65,0,0,1-.39.1,2.6,2.6,0,0,1-.46,0c-1,0-1.55-.54-1.55-1.63V225H290v-.39l.77-.33.34-1.15h.47v1.24h1.55V225h-1.55v3.15a1.09,1.09,0,0,0,.23.74A.77.77,0,0,0,292.4,229.12Z" style="fill: #304041"/>
    <path d="M296.64,224.25a4.06,4.06,0,0,1,.64.05l-.11.76a2.75,2.75,0,0,0-.58-.08,1.45,1.45,0,0,0-1.12.53,2,2,0,0,0-.46,1.31v2.87h-.81v-5.35h.67l.09,1h0a2.44,2.44,0,0,1,.72-.8A1.61,1.61,0,0,1,296.64,224.25Z" style="fill: #304041"/>
    <path d="M300.54,229.79a2.46,2.46,0,0,1-1.87-.72,2.78,2.78,0,0,1-.68-2,3.12,3.12,0,0,1,.63-2.05,2.13,2.13,0,0,1,1.72-.76,2,2,0,0,1,1.59.66,2.52,2.52,0,0,1,.58,1.74v.52h-3.68a2.12,2.12,0,0,0,.47,1.43,1.67,1.67,0,0,0,1.27.48,4.3,4.3,0,0,0,1.71-.36v.73a4,4,0,0,1-.81.26A4.18,4.18,0,0,1,300.54,229.79Zm-.21-4.87a1.32,1.32,0,0,0-1,.42,2,2,0,0,0-.46,1.17h2.8a1.79,1.79,0,0,0-.34-1.18A1.2,1.2,0,0,0,300.33,224.92Z" style="fill: #304041"/>
    <path d="M306.38,229.79a2.3,2.3,0,0,1-.95-.19,1.89,1.89,0,0,1-.73-.59h-.05c0,.31.05.61.05.89v2.2h-.81v-7.76h.66l.12.74h0a1.9,1.9,0,0,1,.73-.64,2.24,2.24,0,0,1,.95-.19A2,2,0,0,1,308,225a3.26,3.26,0,0,1,.58,2,3.19,3.19,0,0,1-.59,2.05A2,2,0,0,1,306.38,229.79Zm-.11-4.86a1.46,1.46,0,0,0-1.19.46,2.36,2.36,0,0,0-.38,1.44V227a2.7,2.7,0,0,0,.38,1.62,1.44,1.44,0,0,0,1.21.48,1.23,1.23,0,0,0,1.08-.56,2.6,2.6,0,0,0,.4-1.55,2.51,2.51,0,0,0-.4-1.53A1.28,1.28,0,0,0,306.27,224.93Z" style="fill: #304041"/>
    <path d="M312.46,224.25a4,4,0,0,1,.64.05l-.11.76a2.75,2.75,0,0,0-.58-.08,1.45,1.45,0,0,0-1.12.53,2,2,0,0,0-.46,1.31v2.87H310v-5.35h.67l.09,1h0a2.44,2.44,0,0,1,.72-.8A1.61,1.61,0,0,1,312.46,224.25Z" style="fill: #304041"/>
    <path d="M314,222.89a.52.52,0,0,1,.13-.4.51.51,0,0,1,.68,0,.5.5,0,0,1,.14.4.51.51,0,0,1-.14.41.48.48,0,0,1-.68,0A.55.55,0,0,1,314,222.89Zm.88,6.8h-.82v-5.35h.82Z" style="fill: #304041"/>
    <path d="M320.09,228.23a1.36,1.36,0,0,1-.56,1.16,2.61,2.61,0,0,1-1.56.4,3.44,3.44,0,0,1-1.66-.33v-.76a3.66,3.66,0,0,0,.82.31,3.27,3.27,0,0,0,.86.11,1.85,1.85,0,0,0,1-.2.7.7,0,0,0,.07-1.15,4.44,4.44,0,0,0-1-.53,5,5,0,0,1-1.06-.48,1.4,1.4,0,0,1-.47-.47,1.18,1.18,0,0,1-.16-.63,1.23,1.23,0,0,1,.53-1,2.53,2.53,0,0,1,1.46-.37,4.16,4.16,0,0,1,1.69.35l-.29.66a3.88,3.88,0,0,0-1.45-.34,1.56,1.56,0,0,0-.87.19.55.55,0,0,0-.3.49.62.62,0,0,0,.11.37,1.11,1.11,0,0,0,.36.29,7.61,7.61,0,0,0,.93.39,3.5,3.5,0,0,1,1.29.7A1.26,1.26,0,0,1,320.09,228.23Z" style="fill: #304041"/>
    <path d="M323.67,229.79a2.47,2.47,0,0,1-1.88-.72,2.83,2.83,0,0,1-.68-2,3.12,3.12,0,0,1,.63-2.05,2.12,2.12,0,0,1,1.71-.76,2,2,0,0,1,1.6.66,2.52,2.52,0,0,1,.58,1.74v.52H322a2.12,2.12,0,0,0,.47,1.43,1.67,1.67,0,0,0,1.27.48,4.3,4.3,0,0,0,1.71-.36v.73a4.2,4.2,0,0,1-.81.26A4.09,4.09,0,0,1,323.67,229.79Zm-.23-4.87a1.3,1.3,0,0,0-1,.42,1.89,1.89,0,0,0-.45,1.17h2.79a1.79,1.79,0,0,0-.34-1.18A1.21,1.21,0,0,0,323.44,224.92Z" style="fill: #304041"/>
    <path d="M330.47,228.23a1.36,1.36,0,0,1-.56,1.16,2.61,2.61,0,0,1-1.56.4,3.46,3.46,0,0,1-1.66-.33v-.76a3.66,3.66,0,0,0,.82.31,3.27,3.27,0,0,0,.86.11,1.85,1.85,0,0,0,1-.2.66.66,0,0,0,.34-.62.68.68,0,0,0-.26-.53,4.8,4.8,0,0,0-1.06-.53,5.26,5.26,0,0,1-1.06-.48,1.5,1.5,0,0,1-.47-.47,1.18,1.18,0,0,1-.16-.63,1.23,1.23,0,0,1,.53-1,2.54,2.54,0,0,1,1.47-.37,4.15,4.15,0,0,1,1.68.35l-.28.66a4,4,0,0,0-1.46-.34,1.56,1.56,0,0,0-.87.19.55.55,0,0,0-.3.49.62.62,0,0,0,.11.37,1.23,1.23,0,0,0,.36.29,7.61,7.61,0,0,0,.93.39,3.5,3.5,0,0,1,1.29.7A1.26,1.26,0,0,1,330.47,228.23Z" style="fill: #304041"/>
    <path d="M283.27,241.69v-3.48a1.48,1.48,0,0,0-.27-1,1.07,1.07,0,0,0-.85-.32,1.37,1.37,0,0,0-1.12.44,2.06,2.06,0,0,0-.36,1.34v3h-.81v-3.48a1.48,1.48,0,0,0-.27-1,1.09,1.09,0,0,0-.86-.32,1.35,1.35,0,0,0-1.12.46,2.51,2.51,0,0,0-.35,1.5v2.8h-.81v-5.35h.66l.13.74h0a1.53,1.53,0,0,1,.65-.61,1.93,1.93,0,0,1,.93-.22,1.58,1.58,0,0,1,1.64.9h0a1.66,1.66,0,0,1,.7-.66,2.15,2.15,0,0,1,1-.24,1.81,1.81,0,0,1,1.36.46,2.09,2.09,0,0,1,.45,1.49v3.49Z" style="fill: #304041"/>
    <path d="M290.37,239a3,3,0,0,1-.66,2.05,2.31,2.31,0,0,1-1.82.73,2.43,2.43,0,0,1-1.27-.33,2.26,2.26,0,0,1-.86-1,3.26,3.26,0,0,1-.31-1.48,2.9,2.9,0,0,1,.66-2,2.29,2.29,0,0,1,1.82-.73,2.25,2.25,0,0,1,1.78.74A2.94,2.94,0,0,1,290.37,239Zm-4.08,0a2.58,2.58,0,0,0,.41,1.57,1.46,1.46,0,0,0,1.21.53,1.43,1.43,0,0,0,1.21-.53,2.58,2.58,0,0,0,.41-1.57,2.53,2.53,0,0,0-.41-1.55,1.46,1.46,0,0,0-1.22-.53,1.43,1.43,0,0,0-1.2.53A2.47,2.47,0,0,0,286.29,239Z" style="fill: #304041"/>
    <path d="M291.72,234.89a.52.52,0,0,1,.14-.4.47.47,0,0,1,.34-.13.48.48,0,0,1,.34.13.54.54,0,0,1,.14.4.55.55,0,0,1-.14.41.49.49,0,0,1-.34.14.48.48,0,0,1-.34-.14A.55.55,0,0,1,291.72,234.89Zm.88,6.8h-.81v-5.35h.81Z" style="fill: #304041"/>
    <path d="M298,241.69v-3.46a1.37,1.37,0,0,0-.3-1,1.17,1.17,0,0,0-.93-.33,1.55,1.55,0,0,0-1.23.46,2.29,2.29,0,0,0-.39,1.5v2.8h-.81v-5.35H295l.13.74h0a1.69,1.69,0,0,1,.7-.62,2.33,2.33,0,0,1,1-.21,2,2,0,0,1,1.46.46,2,2,0,0,1,.48,1.49v3.49Z" style="fill: #304041"/>
    <path d="M303.91,240.23a1.33,1.33,0,0,1-.56,1.16,2.61,2.61,0,0,1-1.56.4,3.46,3.46,0,0,1-1.66-.33v-.76a3.94,3.94,0,0,0,.83.31,3.2,3.2,0,0,0,.85.11,1.91,1.91,0,0,0,1-.2.68.68,0,0,0,.34-.62.66.66,0,0,0-.27-.53,4.36,4.36,0,0,0-1.06-.53,5.26,5.26,0,0,1-1.06-.48,1.5,1.5,0,0,1-.47-.47,1.28,1.28,0,0,1-.15-.63,1.2,1.2,0,0,1,.53-1,2.48,2.48,0,0,1,1.46-.37,4.2,4.2,0,0,1,1.69.35l-.29.66a3.92,3.92,0,0,0-1.46-.34,1.61,1.61,0,0,0-.87.19.56.56,0,0,0-.29.49.62.62,0,0,0,.11.37,1.06,1.06,0,0,0,.35.29,8,8,0,0,0,.94.39,3.59,3.59,0,0,1,1.29.7A1.25,1.25,0,0,1,303.91,240.23Z" style="fill: #304041"/>
    <path d="M311.12,241.69l-.16-.76h0a2.18,2.18,0,0,1-.8.68,2.43,2.43,0,0,1-1,.18,1.75,1.75,0,0,1-1.25-.41,1.48,1.48,0,0,1-.45-1.16c0-1.09.86-1.65,2.59-1.7l.91,0v-.34a1.36,1.36,0,0,0-.27-.93,1.12,1.12,0,0,0-.87-.3,3.54,3.54,0,0,0-1.51.41l-.25-.62a3.91,3.91,0,0,1,1.81-.45,2.06,2.06,0,0,1,1.42.42,1.76,1.76,0,0,1,.46,1.36v3.65Zm-1.83-.57a1.64,1.64,0,0,0,1.19-.41,1.58,1.58,0,0,0,.43-1.16v-.49l-.81,0a2.91,2.91,0,0,0-1.4.3.9.9,0,0,0-.42.83.8.8,0,0,0,.26.66A1.09,1.09,0,0,0,309.29,241.12Z" style="fill: #304041"/>
    <path d="M317.77,236.34v.52l-1,.11a1.89,1.89,0,0,1,.24.45,1.71,1.71,0,0,1,.11.62,1.59,1.59,0,0,1-.54,1.26,2.18,2.18,0,0,1-1.47.47,3.14,3.14,0,0,1-.45,0,.79.79,0,0,0-.52.69.35.35,0,0,0,.18.32,1.31,1.31,0,0,0,.62.11h.95a2.13,2.13,0,0,1,1.33.36,1.29,1.29,0,0,1,.47,1.07,1.52,1.52,0,0,1-.71,1.35,3.84,3.84,0,0,1-2.08.47,2.85,2.85,0,0,1-1.62-.39,1.27,1.27,0,0,1-.57-1.11,1.23,1.23,0,0,1,.31-.84,1.55,1.55,0,0,1,.88-.48.87.87,0,0,1-.34-.29.72.72,0,0,1-.14-.46.9.9,0,0,1,.15-.51,1.54,1.54,0,0,1,.5-.42,1.48,1.48,0,0,1-.68-.59,1.71,1.71,0,0,1-.26-.93,1.75,1.75,0,0,1,.53-1.36,2.13,2.13,0,0,1,1.49-.47,3,3,0,0,1,.76.09Zm-4.27,6.25a.72.72,0,0,0,.37.66,2,2,0,0,0,1.05.23,2.86,2.86,0,0,0,1.51-.31.93.93,0,0,0,.49-.83.65.65,0,0,0-.27-.6,2.12,2.12,0,0,0-1-.17h-1a1.25,1.25,0,0,0-.86.27A.91.91,0,0,0,313.5,242.59Zm.44-4.53a1.12,1.12,0,0,0,.32.85,1.26,1.26,0,0,0,.88.28,1,1,0,0,0,1.19-1.15,1.06,1.06,0,0,0-1.2-1.2,1.2,1.2,0,0,0-.88.3A1.23,1.23,0,0,0,313.94,238.06Z" style="fill: #304041"/>
    <path d="M318.8,234.89a.52.52,0,0,1,.13-.4.49.49,0,0,1,.35-.13.44.44,0,0,1,.33.13.51.51,0,0,1,.15.4.51.51,0,0,1-.15.41.45.45,0,0,1-.33.14.5.5,0,0,1-.35-.14A.55.55,0,0,1,318.8,234.89Zm.88,6.8h-.81v-5.35h.81Z" style="fill: #304041"/>
    <path d="M322.21,241.69h-.81V234.1h.81Z" style="fill: #304041"/>
    <path d="M326.19,241.79a2.49,2.49,0,0,1-1.88-.72,2.83,2.83,0,0,1-.68-2,3.12,3.12,0,0,1,.63-2.05,2.13,2.13,0,0,1,1.72-.76,2,2,0,0,1,1.59.66,2.52,2.52,0,0,1,.58,1.74v.52h-3.68a2.12,2.12,0,0,0,.47,1.43,1.69,1.69,0,0,0,1.28.48,4.38,4.38,0,0,0,1.71-.36v.73a4.28,4.28,0,0,1-.82.26A4.09,4.09,0,0,1,326.19,241.79Zm-.22-4.87a1.32,1.32,0,0,0-1,.42,1.89,1.89,0,0,0-.45,1.17h2.79a1.79,1.79,0,0,0-.34-1.18A1.19,1.19,0,0,0,326,236.92Z" style="fill: #304041"/>
    <path d="M333,240.23a1.36,1.36,0,0,1-.56,1.16,2.61,2.61,0,0,1-1.56.4,3.46,3.46,0,0,1-1.66-.33v-.76a3.74,3.74,0,0,0,.83.31,3.15,3.15,0,0,0,.85.11,1.85,1.85,0,0,0,1-.2.69.69,0,0,0,.08-1.15,4.57,4.57,0,0,0-1.06-.53,5.26,5.26,0,0,1-1.06-.48,1.5,1.5,0,0,1-.47-.47,1.28,1.28,0,0,1-.16-.63,1.21,1.21,0,0,1,.54-1,2.48,2.48,0,0,1,1.46-.37,4.2,4.2,0,0,1,1.69.35l-.29.66a4,4,0,0,0-1.46-.34,1.56,1.56,0,0,0-.87.19.54.54,0,0,0-.29.49.56.56,0,0,0,.11.37,1.06,1.06,0,0,0,.35.29,8,8,0,0,0,.94.39,3.52,3.52,0,0,1,1.28.7A1.21,1.21,0,0,1,333,240.23Z" style="fill: #304041"/>
  </g>
</svg>
