<svg id="Layer_1" data-name="Layer 1" xmlns="http://www.w3.org/2000/svg" viewBox="0 0 360.19 209.57">
  <title>nugget_graph_3de</title>
  <g>
    <path d="M138.57,19.41a6.48,6.48,0,0,1-1.72,4.86,6.84,6.84,0,0,1-5,1.68h-3.56V13.11h3.94a6.27,6.27,0,0,1,4.65,1.66A6.24,6.24,0,0,1,138.57,19.41Zm-1.58.05a5.18,5.18,0,0,0-1.26-3.79A5.05,5.05,0,0,0,132,14.4h-2.17V24.66h1.82a5.57,5.57,0,0,0,4-1.31A5.23,5.23,0,0,0,137,19.46Z" style="fill: #314041"/>
    <path d="M141.1,13.71a1,1,0,0,1,.24-.73.86.86,0,0,1,.62-.24.85.85,0,0,1,.6.24,1,1,0,0,1,.26.73,1,1,0,0,1-.26.74.85.85,0,0,1-.6.24.86.86,0,0,1-.62-.24A1,1,0,0,1,141.1,13.71ZM142.68,26h-1.46V16.32h1.46Z" style="fill: #314041"/>
    <path d="M149.84,26.13a4.43,4.43,0,0,1-3.37-1.3,5,5,0,0,1-1.23-3.61,5.59,5.59,0,0,1,1.14-3.7,3.81,3.81,0,0,1,3.08-1.37,3.61,3.61,0,0,1,2.87,1.19,4.57,4.57,0,0,1,1,3.14v.92h-6.63a3.81,3.81,0,0,0,.86,2.58,3,3,0,0,0,2.28.88,7.82,7.82,0,0,0,3.08-.65v1.3a8,8,0,0,1-1.46.48A8.83,8.83,0,0,1,149.84,26.13Zm-.39-8.76a2.38,2.38,0,0,0-1.85.75,3.58,3.58,0,0,0-.82,2.1h5a3.23,3.23,0,0,0-.62-2.12A2.15,2.15,0,0,0,149.45,17.37Z" style="fill: #314041"/>
    <path d="M166.45,26l-4.36-11.39H162c.09.91.13,2,.13,3.22V26h-1.38V13.11H163l4.07,10.59h.07l4.1-10.59h2.23V26H172V17.68c0-.95,0-2,.12-3.1h-.07L167.66,26Z" style="fill: #314041"/>
    <path d="M182.72,26l-.29-1.37h-.07a4,4,0,0,1-1.43,1.23,4.48,4.48,0,0,1-1.79.32,3.23,3.23,0,0,1-2.25-.74,2.69,2.69,0,0,1-.81-2.1q0-2.91,4.66-3.06l1.64-.05v-.6a2.42,2.42,0,0,0-.49-1.67,2,2,0,0,0-1.56-.54,6.23,6.23,0,0,0-2.72.74L177.16,17a6.76,6.76,0,0,1,1.56-.61,7,7,0,0,1,1.7-.22,3.65,3.65,0,0,1,2.55.77,3.17,3.17,0,0,1,.83,2.45V26Zm-3.29-1a3,3,0,0,0,2.14-.75,2.76,2.76,0,0,0,.77-2.09v-.87l-1.45.06a5.25,5.25,0,0,0-2.51.54,1.62,1.62,0,0,0-.77,1.49,1.48,1.48,0,0,0,.48,1.2A2,2,0,0,0,179.43,24.93Z" style="fill: #314041"/>
    <path d="M191.2,16.15a5.73,5.73,0,0,1,1.15.1l-.2,1.36a4.91,4.91,0,0,0-1.05-.14,2.57,2.57,0,0,0-2,1,3.49,3.49,0,0,0-.83,2.37V26h-1.46V16.32H188l.17,1.79h.07a4.27,4.27,0,0,1,1.29-1.45A2.93,2.93,0,0,1,191.2,16.15Z" style="fill: #314041"/>
    <path d="M195.6,21a17.11,17.11,0,0,1,1.15-1.4l3.11-3.3h1.73l-3.9,4.11L201.86,26H200.1l-3.4-4.55-1.1,1V26h-1.44V12.28h1.44v7.25c0,.32,0,.82-.07,1.49Z" style="fill: #314041"/>
    <path d="M206.72,24.93a4.52,4.52,0,0,0,.74-.06,5.41,5.41,0,0,0,.57-.12v1.12a2.84,2.84,0,0,1-.69.19,5.25,5.25,0,0,1-.83.07c-1.87,0-2.8-1-2.8-2.94V17.46h-1.38v-.71l1.38-.6.62-2.06h.84v2.23H208v1.14h-2.79v5.66a2,2,0,0,0,.41,1.34A1.46,1.46,0,0,0,206.72,24.93Z" style="fill: #314041"/>
    <path d="M214,26.13a4.4,4.4,0,0,1-3.37-1.3,5.05,5.05,0,0,1-1.24-3.61,5.59,5.59,0,0,1,1.15-3.7,3.8,3.8,0,0,1,3.08-1.37,3.63,3.63,0,0,1,2.87,1.19,4.57,4.57,0,0,1,1,3.14v.92h-6.64a3.86,3.86,0,0,0,.86,2.58,3,3,0,0,0,2.29.88,7.85,7.85,0,0,0,3.08-.65v1.3a8.35,8.35,0,0,1-1.47.48A8.72,8.72,0,0,1,214,26.13Zm-.4-8.76a2.4,2.4,0,0,0-1.85.75,3.51,3.51,0,0,0-.81,2.1h5a3.23,3.23,0,0,0-.62-2.12A2.17,2.17,0,0,0,213.63,17.37Z" style="fill: #314041"/>
    <path d="M219.93,13.71a1,1,0,0,1,.25-.73.86.86,0,0,1,.62-.24.85.85,0,0,1,.6.24,1,1,0,0,1,.26.73,1,1,0,0,1-.26.74.85.85,0,0,1-.6.24.86.86,0,0,1-.62-.24A1,1,0,0,1,219.93,13.71ZM221.52,26h-1.46V16.32h1.46Z" style="fill: #314041"/>
    <path d="M231.2,26V19.72a2.53,2.53,0,0,0-.53-1.75,2.18,2.18,0,0,0-1.68-.58,2.79,2.79,0,0,0-2.22.81,4.14,4.14,0,0,0-.7,2.7V26h-1.46V16.32h1.19l.23,1.32h.07a3,3,0,0,1,1.26-1.1,4.1,4.1,0,0,1,1.8-.39,3.65,3.65,0,0,1,2.62.84,3.53,3.53,0,0,1,.88,2.68V26Z" style="fill: #314041"/>
    <path d="M240,17.46h-2.45V26h-1.46V17.46h-1.72V16.8l1.72-.53v-.54c0-2.36,1-3.55,3.1-3.55a6.53,6.53,0,0,1,1.79.31l-.37,1.17a5,5,0,0,0-1.44-.27,1.41,1.41,0,0,0-1.23.55,3.08,3.08,0,0,0-.39,1.76v.62H240Z" style="fill: #314041"/>
    <path d="M243.13,16.32v6.25a2.51,2.51,0,0,0,.54,1.76,2.14,2.14,0,0,0,1.67.58,2.73,2.73,0,0,0,2.21-.83,4.14,4.14,0,0,0,.7-2.7V16.32h1.46V26h-1.2l-.21-1.29h-.08A2.83,2.83,0,0,1,247,25.75a4.18,4.18,0,0,1-1.81.38,3.7,3.7,0,0,1-2.63-.83,3.54,3.54,0,0,1-.88-2.68v-6.3Zm.09-2.61a.87.87,0,0,1,.23-.66.85.85,0,0,1,.56-.2.88.88,0,0,1,.57.2.8.8,0,0,1,.25.66.79.79,0,0,1-.82.87.81.81,0,0,1-.56-.21A.9.9,0,0,1,243.22,13.71Zm3.35,0a.75.75,0,0,1,.79-.86.87.87,0,0,1,.56.2.8.8,0,0,1,.25.66.79.79,0,0,1-.81.87.79.79,0,0,1-.56-.21A.86.86,0,0,1,246.57,13.71Z" style="fill: #314041"/>
    <path d="M259.4,26V19.72a2.48,2.48,0,0,0-.54-1.75,2.18,2.18,0,0,0-1.68-.58,2.76,2.76,0,0,0-2.22.82,4.22,4.22,0,0,0-.7,2.71v5h-1.45V12.28h1.45v4.14a8.56,8.56,0,0,1-.07,1.24h.09a3.06,3.06,0,0,1,1.23-1.1,4,4,0,0,1,1.81-.4A3.7,3.7,0,0,1,260,17a3.54,3.54,0,0,1,.89,2.67V26Z" style="fill: #314041"/>
    <path d="M268.25,16.15a5.73,5.73,0,0,1,1.15.1l-.2,1.36a4.91,4.91,0,0,0-1.06-.14,2.59,2.59,0,0,0-2,1,3.49,3.49,0,0,0-.83,2.37V26h-1.46V16.32h1.21l.16,1.79h.08a4.07,4.07,0,0,1,1.29-1.45A2.88,2.88,0,0,1,268.25,16.15Z" style="fill: #314041"/>
    <path d="M272.57,16.32v6.25a2.51,2.51,0,0,0,.54,1.76,2.18,2.18,0,0,0,1.68.58,2.74,2.74,0,0,0,2.21-.83,4.2,4.2,0,0,0,.7-2.7V16.32h1.46V26H278l-.21-1.29h-.08a2.86,2.86,0,0,1-1.24,1.09,4.23,4.23,0,0,1-1.82.38A3.7,3.7,0,0,1,272,25.3a3.58,3.58,0,0,1-.87-2.68v-6.3Z" style="fill: #314041"/>
    <path d="M288.84,26V19.72A2.48,2.48,0,0,0,288.3,18a2.14,2.14,0,0,0-1.67-.58,2.79,2.79,0,0,0-2.22.81,4.14,4.14,0,0,0-.7,2.7V26h-1.46V16.32h1.19l.23,1.32h.07a3,3,0,0,1,1.26-1.1,4.1,4.1,0,0,1,1.8-.39,3.65,3.65,0,0,1,2.62.84,3.53,3.53,0,0,1,.88,2.68V26Z" style="fill: #314041"/>
    <path d="M301.18,16.32v.92l-1.78.22a3.12,3.12,0,0,1,.44.8,3,3,0,0,1,.19,1.12,2.84,2.84,0,0,1-1,2.26,3.9,3.9,0,0,1-2.65.84,4.14,4.14,0,0,1-.81-.07,1.44,1.44,0,0,0-.93,1.24.64.64,0,0,0,.32.59,2.47,2.47,0,0,0,1.12.19h1.7a3.89,3.89,0,0,1,2.41.65,2.3,2.3,0,0,1,.84,1.92,2.73,2.73,0,0,1-1.29,2.44,6.84,6.84,0,0,1-3.74.84,5.17,5.17,0,0,1-2.91-.7,2.26,2.26,0,0,1-1-2,2.21,2.21,0,0,1,.57-1.52,2.81,2.81,0,0,1,1.58-.87,1.55,1.55,0,0,1-.62-.52,1.35,1.35,0,0,1-.25-.82,1.52,1.52,0,0,1,.28-.92,2.89,2.89,0,0,1,.89-.76,2.63,2.63,0,0,1-1.22-1.05,3.09,3.09,0,0,1-.47-1.69A3.13,3.13,0,0,1,293.8,17a3.88,3.88,0,0,1,2.69-.85,4.78,4.78,0,0,1,1.36.17ZM293.5,27.57a1.31,1.31,0,0,0,.66,1.19,3.64,3.64,0,0,0,1.89.4,5.25,5.25,0,0,0,2.72-.55,1.67,1.67,0,0,0,.88-1.49,1.17,1.17,0,0,0-.48-1.08,3.79,3.79,0,0,0-1.82-.3H295.6a2.3,2.3,0,0,0-1.55.47A1.69,1.69,0,0,0,293.5,27.57Zm.79-8.16a2,2,0,0,0,.57,1.53,2.3,2.3,0,0,0,1.59.51,1.86,1.86,0,0,0,2.14-2.07,1.91,1.91,0,0,0-2.16-2.17,2.15,2.15,0,0,0-1.59.55A2.24,2.24,0,0,0,294.29,19.41Z" style="fill: #314041"/>
    <path d="M309.37,23.33a2.41,2.41,0,0,1-1,2.07,4.69,4.69,0,0,1-2.81.73,6,6,0,0,1-3-.61V24.17a6.62,6.62,0,0,0,1.49.55,6,6,0,0,0,1.53.21,3.52,3.52,0,0,0,1.76-.37,1.2,1.2,0,0,0,.62-1.11,1.22,1.22,0,0,0-.49-1,7.88,7.88,0,0,0-1.9-.95,10.14,10.14,0,0,1-1.92-.87,2.71,2.71,0,0,1-.84-.85,2.25,2.25,0,0,1-.28-1.13,2.15,2.15,0,0,1,1-1.86,4.44,4.44,0,0,1,2.63-.68,7.7,7.7,0,0,1,3,.63L308.65,18a7,7,0,0,0-2.63-.6,3.08,3.08,0,0,0-1.56.32,1,1,0,0,0-.53.9,1.1,1.1,0,0,0,.2.66,2,2,0,0,0,.64.52,14.6,14.6,0,0,0,1.68.71,6.19,6.19,0,0,1,2.32,1.26A2.21,2.21,0,0,1,309.37,23.33Z" style="fill: #314041"/>
    <path d="M317.91,26h-7V25l5.26-7.5h-4.94V16.32h6.53v1.14l-5.18,7.36h5.32Z" style="fill: #314041"/>
    <path d="M324.23,26.13a4.43,4.43,0,0,1-3.37-1.3,5,5,0,0,1-1.23-3.61,5.54,5.54,0,0,1,1.15-3.7,3.78,3.78,0,0,1,3.08-1.37,3.61,3.61,0,0,1,2.86,1.19,4.52,4.52,0,0,1,1.06,3.14v.92h-6.64A3.86,3.86,0,0,0,322,24a3,3,0,0,0,2.29.88,7.8,7.8,0,0,0,3.07-.65v1.3a8,8,0,0,1-1.46.48A8.75,8.75,0,0,1,324.23,26.13Zm-.39-8.76a2.4,2.4,0,0,0-1.85.75,3.51,3.51,0,0,0-.81,2.1h5a3.23,3.23,0,0,0-.61-2.12A2.17,2.17,0,0,0,323.84,17.37Z" style="fill: #314041"/>
    <path d="M330.14,13.71a.94.94,0,0,1,.25-.73.84.84,0,0,1,.61-.24.85.85,0,0,1,.61.24,1,1,0,0,1,.25.73,1,1,0,0,1-.25.74.85.85,0,0,1-.61.24.84.84,0,0,1-.61-.24A1,1,0,0,1,330.14,13.71ZM331.72,26h-1.46V16.32h1.46Z" style="fill: #314041"/>
    <path d="M337.93,24.93a4.65,4.65,0,0,0,.75-.06,5.41,5.41,0,0,0,.57-.12v1.12a2.94,2.94,0,0,1-.7.19,5.25,5.25,0,0,1-.83.07c-1.87,0-2.8-1-2.8-2.94V17.46h-1.38v-.71l1.38-.6.62-2.06h.84v2.23h2.8v1.14h-2.8v5.66a2,2,0,0,0,.41,1.34A1.46,1.46,0,0,0,337.93,24.93Z" style="fill: #314041"/>
    <path d="M15.31,42.62A13.78,13.78,0,0,1,16,38.26a10.9,10.9,0,0,1,2-3.56h1.43a12.55,12.55,0,0,0-1.91,3.73,14.07,14.07,0,0,0-.63,4.18,13.14,13.14,0,0,0,.65,4.12,12.85,12.85,0,0,0,1.87,3.67H18a10.48,10.48,0,0,1-2-3.49A13.3,13.3,0,0,1,15.31,42.62Z" style="fill: #314041"/>
    <path d="M25.64,47.55h-1.5V36H20.07V34.7H29.7V36H25.64Z" style="fill: #314041"/>
    <path d="M31.3,35.31a1,1,0,0,1,.24-.73.86.86,0,0,1,.62-.24.85.85,0,0,1,.6.24,1,1,0,0,1,.26.73,1,1,0,0,1-.26.74.85.85,0,0,1-.6.24.86.86,0,0,1-.62-.24A1,1,0,0,1,31.3,35.31Zm1.58,12.24H31.42V37.92h1.46Z" style="fill: #314041"/>
    <path d="M48.25,47.55V41.29a2.61,2.61,0,0,0-.49-1.73A1.92,1.92,0,0,0,46.23,39a2.46,2.46,0,0,0-2,.78,3.67,3.67,0,0,0-.66,2.41v5.37H42.11V41.29a2.61,2.61,0,0,0-.5-1.73A1.91,1.91,0,0,0,40.08,39a2.37,2.37,0,0,0-2,.82,4.4,4.4,0,0,0-.64,2.69v5H36V37.92h1.19l.23,1.32h.08a2.86,2.86,0,0,1,1.16-1.1,3.59,3.59,0,0,1,1.68-.39,2.87,2.87,0,0,1,3,1.63h.07a3,3,0,0,1,1.24-1.19,3.83,3.83,0,0,1,1.87-.44,3.28,3.28,0,0,1,2.45.84,3.75,3.75,0,0,1,.81,2.68v6.28Z" style="fill: #314041"/>
    <path d="M56.78,47.73a4.43,4.43,0,0,1-3.37-1.3,5,5,0,0,1-1.23-3.61,5.54,5.54,0,0,1,1.15-3.7,3.78,3.78,0,0,1,3.08-1.37,3.61,3.61,0,0,1,2.86,1.19,4.57,4.57,0,0,1,1.06,3.14V43H53.69a3.86,3.86,0,0,0,.86,2.58,3,3,0,0,0,2.29.88,7.8,7.8,0,0,0,3.07-.65v1.3a8,8,0,0,1-1.46.48A8.83,8.83,0,0,1,56.78,47.73ZM56.39,39a2.38,2.38,0,0,0-1.85.75,3.55,3.55,0,0,0-.82,2.1h5a3.23,3.23,0,0,0-.61-2.12A2.17,2.17,0,0,0,56.39,39Z" style="fill: #314041"/>
    <path d="M62,43.4V42.06h4.32V43.4Z" style="fill: #314041"/>
    <path d="M71.72,46.53a4.52,4.52,0,0,0,.74-.06,5.41,5.41,0,0,0,.57-.12v1.12a2.84,2.84,0,0,1-.69.19,5.25,5.25,0,0,1-.83.07c-1.87,0-2.8-1-2.8-2.94V39.06H67.33v-.71l1.38-.6.62-2.06h.84v2.23H73v1.14H70.17v5.66a2,2,0,0,0,.41,1.34A1.46,1.46,0,0,0,71.72,46.53Z" style="fill: #314041"/>
    <path d="M83.27,42.73a5.32,5.32,0,0,1-1.18,3.68,4.19,4.19,0,0,1-3.28,1.32,4.32,4.32,0,0,1-2.3-.61A4,4,0,0,1,75,45.38a6,6,0,0,1-.55-2.65,5.34,5.34,0,0,1,1.18-3.67,4.16,4.16,0,0,1,3.27-1.31,4,4,0,0,1,3.21,1.34A5.27,5.27,0,0,1,83.27,42.73Zm-7.34,0a4.57,4.57,0,0,0,.74,2.81,2.56,2.56,0,0,0,2.17,1,2.59,2.59,0,0,0,2.18-1,4.58,4.58,0,0,0,.74-2.82A4.51,4.51,0,0,0,81,39.94,2.6,2.6,0,0,0,78.83,39a2.57,2.57,0,0,0-2.17.94A4.55,4.55,0,0,0,75.93,42.73Z" style="fill: #314041"/>
    <path d="M85,43.4V42.06h4.32V43.4Z" style="fill: #314041"/>
    <path d="M97.53,47.55,93.17,36.16H93.1c.08.91.12,2,.12,3.22v8.17H91.84V34.7h2.25l4.07,10.6h.07l4.11-10.6h2.23V47.55h-1.49V39.28c0-1,0-2,.12-3.1h-.07l-4.4,11.37Z" style="fill: #314041"/>
    <path d="M113.8,47.55l-.29-1.37h-.07A4,4,0,0,1,112,47.41a4.44,4.44,0,0,1-1.79.32A3.22,3.22,0,0,1,108,47a2.7,2.7,0,0,1-.82-2.1q0-2.91,4.67-3.06l1.64,0v-.6a2.47,2.47,0,0,0-.49-1.67,2,2,0,0,0-1.56-.54,6.27,6.27,0,0,0-2.73.74l-.45-1.12a7,7,0,0,1,3.27-.83,3.67,3.67,0,0,1,2.55.77,3.21,3.21,0,0,1,.83,2.45v6.57Zm-3.3-1a3,3,0,0,0,2.14-.75,2.77,2.77,0,0,0,.78-2.09v-.87l-1.46.06a5.31,5.31,0,0,0-2.51.54,1.64,1.64,0,0,0-.77,1.49,1.48,1.48,0,0,0,.48,1.2A2,2,0,0,0,110.5,46.53Z" style="fill: #314041"/>
    <path d="M122.28,37.75a5.73,5.73,0,0,1,1.15.1l-.2,1.35a5.54,5.54,0,0,0-1.06-.13,2.55,2.55,0,0,0-2,1,3.45,3.45,0,0,0-.84,2.37v5.16h-1.45V37.92h1.2l.17,1.79h.07a4.07,4.07,0,0,1,1.29-1.45A2.9,2.9,0,0,1,122.28,37.75Z" style="fill: #314041"/>
    <path d="M126.67,42.62c.26-.35.64-.82,1.16-1.4l3.11-3.3h1.73L128.77,42l4.17,5.52h-1.77L127.77,43l-1.1,1v3.6h-1.44V33.88h1.44v7.25c0,.32,0,.82-.07,1.49Z" style="fill: #314041"/>
    <path d="M138.75,47.73a4.41,4.41,0,0,1-3.37-1.3,5.05,5.05,0,0,1-1.24-3.61,5.59,5.59,0,0,1,1.15-3.7,3.8,3.8,0,0,1,3.08-1.37,3.63,3.63,0,0,1,2.87,1.19,4.57,4.57,0,0,1,1,3.14V43h-6.63a3.85,3.85,0,0,0,.85,2.58,3,3,0,0,0,2.29.88,7.82,7.82,0,0,0,3.08-.65v1.3a8.27,8.27,0,0,1-1.46.48A8.83,8.83,0,0,1,138.75,47.73Zm-.4-8.76a2.37,2.37,0,0,0-1.84.75,3.49,3.49,0,0,0-.82,2.1h5a3.23,3.23,0,0,0-.62-2.12A2.15,2.15,0,0,0,138.35,39Z" style="fill: #314041"/>
    <path d="M147.89,46.53a4.56,4.56,0,0,0,.75-.06,5.41,5.41,0,0,0,.57-.12v1.12a2.94,2.94,0,0,1-.7.19,5.16,5.16,0,0,1-.83.07q-2.79,0-2.79-2.94V39.06h-1.38v-.71l1.38-.6.61-2.06h.84v2.23h2.8v1.14h-2.8v5.66a1.94,1.94,0,0,0,.42,1.34A1.43,1.43,0,0,0,147.89,46.53Z" style="fill: #314041"/>
    <path d="M154.19,42.62a13.11,13.11,0,0,1-.68,4.31,10.27,10.27,0,0,1-2,3.47h-1.41A12.35,12.35,0,0,0,152,46.73a13.14,13.14,0,0,0,.65-4.12,14.07,14.07,0,0,0-.63-4.18,12.55,12.55,0,0,0-1.91-3.73h1.43a11,11,0,0,1,2,3.58A13.65,13.65,0,0,1,154.19,42.62Z" style="fill: #314041"/>
    <path d="M161,35.31a1,1,0,0,1,.25-.73.84.84,0,0,1,.61-.24.85.85,0,0,1,.61.24,1,1,0,0,1,.26.73,1,1,0,0,1-.26.74.85.85,0,0,1-.61.24.84.84,0,0,1-.61-.24A1,1,0,0,1,161,35.31Zm1.59,12.24h-1.46V37.92h1.46Z" style="fill: #314041"/>
    <path d="M171.9,44.93a2.41,2.41,0,0,1-1,2.07,4.67,4.67,0,0,1-2.81.73,6,6,0,0,1-3-.61V45.77a7.14,7.14,0,0,0,1.49.55,6,6,0,0,0,1.53.21,3.39,3.39,0,0,0,1.76-.37,1.25,1.25,0,0,0,.13-2.07,7.88,7.88,0,0,0-1.9-1,10.14,10.14,0,0,1-1.92-.87,2.71,2.71,0,0,1-.84-.85,2.25,2.25,0,0,1-.28-1.13,2.15,2.15,0,0,1,1-1.86,4.44,4.44,0,0,1,2.63-.68,7.7,7.7,0,0,1,3,.63l-.52,1.19a6.92,6.92,0,0,0-2.63-.6,3.08,3.08,0,0,0-1.56.32,1,1,0,0,0-.53.9,1.1,1.1,0,0,0,.2.66,2,2,0,0,0,.64.52,14.6,14.6,0,0,0,1.68.71,6.05,6.05,0,0,1,2.32,1.26A2.21,2.21,0,0,1,171.9,44.93Z" style="fill: #314041"/>
    <path d="M177.39,46.53a4.52,4.52,0,0,0,.74-.06l.58-.12v1.12a3.09,3.09,0,0,1-.7.19,5.25,5.25,0,0,1-.83.07c-1.87,0-2.8-1-2.8-2.94V39.06H173v-.71l1.38-.6.62-2.06h.84v2.23h2.8v1.14h-2.8v5.66a2,2,0,0,0,.41,1.34A1.46,1.46,0,0,0,177.39,46.53Z" style="fill: #314041"/>
    <path d="M189.38,47.73a4.4,4.4,0,0,1-3.37-1.3,5,5,0,0,1-1.24-3.61,5.54,5.54,0,0,1,1.15-3.7A3.78,3.78,0,0,1,189,37.75a3.61,3.61,0,0,1,2.86,1.19,4.52,4.52,0,0,1,1.06,3.14V43h-6.64a3.86,3.86,0,0,0,.86,2.58,3,3,0,0,0,2.29.88,7.77,7.77,0,0,0,3.07-.65v1.3a8,8,0,0,1-1.46.48A8.72,8.72,0,0,1,189.38,47.73ZM189,39a2.4,2.4,0,0,0-1.85.75,3.49,3.49,0,0,0-.81,2.1h5a3.23,3.23,0,0,0-.61-2.12A2.17,2.17,0,0,0,189,39Z" style="fill: #314041"/>
    <path d="M195.28,35.31a.94.94,0,0,1,.25-.73.84.84,0,0,1,.61-.24.85.85,0,0,1,.61.24,1,1,0,0,1,.25.73,1,1,0,0,1-.25.74.85.85,0,0,1-.61.24.84.84,0,0,1-.61-.24A1,1,0,0,1,195.28,35.31Zm1.58,12.24H195.4V37.92h1.46Z" style="fill: #314041"/>
    <path d="M206.55,47.55V41.32a2.48,2.48,0,0,0-.54-1.75,2.15,2.15,0,0,0-1.68-.58,2.78,2.78,0,0,0-2.21.81,4.14,4.14,0,0,0-.7,2.7v5H200V37.92h1.18l.24,1.32h.07a3,3,0,0,1,1.26-1.1,4.1,4.1,0,0,1,1.8-.39,3.67,3.67,0,0,1,2.62.84,3.54,3.54,0,0,1,.88,2.68v6.28Z" style="fill: #314041"/>
    <path d="M220,39.06h-2.45v8.49h-1.46V39.06h-1.72V38.4l1.72-.53v-.54c0-2.36,1-3.55,3.1-3.55a6.29,6.29,0,0,1,1.8.31l-.38,1.17a4.84,4.84,0,0,0-1.44-.27,1.39,1.39,0,0,0-1.22.55,3,3,0,0,0-.4,1.76v.62H220Z" style="fill: #314041"/>
    <path d="M223.15,37.92v6.25a2.51,2.51,0,0,0,.54,1.76,2.17,2.17,0,0,0,1.68.58,2.76,2.76,0,0,0,2.21-.83,4.2,4.2,0,0,0,.7-2.7V37.92h1.45v9.63h-1.2l-.21-1.29h-.08A2.86,2.86,0,0,1,227,47.35a4.23,4.23,0,0,1-1.82.38,3.7,3.7,0,0,1-2.63-.83,3.58,3.58,0,0,1-.87-2.68v-6.3Z" style="fill: #314041"/>
    <path d="M239.42,47.55V41.32a2.48,2.48,0,0,0-.54-1.75,2.14,2.14,0,0,0-1.67-.58,2.79,2.79,0,0,0-2.22.81,4.14,4.14,0,0,0-.7,2.7v5h-1.46V37.92H234l.24,1.32h.07a3,3,0,0,1,1.26-1.1,4.1,4.1,0,0,1,1.8-.39,3.67,3.67,0,0,1,2.62.84,3.54,3.54,0,0,1,.88,2.68v6.28Z" style="fill: #314041"/>
    <path d="M250.43,46.26h-.08a3.42,3.42,0,0,1-3,1.47,3.58,3.58,0,0,1-2.94-1.29,5.7,5.7,0,0,1-1-3.68,5.82,5.82,0,0,1,1-3.7,3.59,3.59,0,0,1,2.94-1.31,3.5,3.5,0,0,1,3,1.42h.11l-.06-.69,0-.68V33.88h1.46V47.55h-1.18Zm-2.92.25a2.67,2.67,0,0,0,2.17-.81,4.13,4.13,0,0,0,.67-2.63v-.31a4.81,4.81,0,0,0-.68-2.92A2.58,2.58,0,0,0,247.5,39a2.24,2.24,0,0,0-2,1,5,5,0,0,0-.68,2.81,4.78,4.78,0,0,0,.68,2.79A2.28,2.28,0,0,0,247.51,46.51Z" style="fill: #314041"/>
    <path d="M260.83,47.55l-.29-1.37h-.07A4,4,0,0,1,259,47.41a4.41,4.41,0,0,1-1.79.32A3.22,3.22,0,0,1,255,47a2.69,2.69,0,0,1-.81-2.1q0-2.91,4.66-3.06l1.64,0v-.6a2.42,2.42,0,0,0-.49-1.67,2,2,0,0,0-1.56-.54,6.23,6.23,0,0,0-2.72.74l-.45-1.12a6.76,6.76,0,0,1,1.56-.61,7,7,0,0,1,1.7-.22,3.65,3.65,0,0,1,2.55.77,3.17,3.17,0,0,1,.83,2.45v6.57Zm-3.3-1a3,3,0,0,0,2.15-.75,2.8,2.8,0,0,0,.77-2.09v-.87l-1.46.06a5.31,5.31,0,0,0-2.51.54,1.63,1.63,0,0,0-.76,1.49,1.51,1.51,0,0,0,.47,1.2A2,2,0,0,0,257.53,46.53Z" style="fill: #314041"/>
    <path d="M277.2,47.55V41.29a2.61,2.61,0,0,0-.5-1.73,1.89,1.89,0,0,0-1.53-.57,2.49,2.49,0,0,0-2,.78,3.73,3.73,0,0,0-.65,2.41v5.37h-1.46V41.29a2.61,2.61,0,0,0-.49-1.73A1.93,1.93,0,0,0,269,39a2.39,2.39,0,0,0-2,.82,4.47,4.47,0,0,0-.63,2.69v5h-1.46V37.92h1.18l.24,1.32h.07a3,3,0,0,1,1.17-1.1,3.59,3.59,0,0,1,1.68-.39,2.86,2.86,0,0,1,2.95,1.63h.07a3.12,3.12,0,0,1,1.25-1.19,3.81,3.81,0,0,1,1.86-.44,3.26,3.26,0,0,1,2.45.84,3.75,3.75,0,0,1,.81,2.68v6.28Z" style="fill: #314041"/>
    <path d="M285.73,47.73a4.41,4.41,0,0,1-3.37-1.3,5.05,5.05,0,0,1-1.24-3.61,5.59,5.59,0,0,1,1.15-3.7,3.8,3.8,0,0,1,3.08-1.37,3.63,3.63,0,0,1,2.87,1.19,4.57,4.57,0,0,1,1,3.14V43h-6.63a3.85,3.85,0,0,0,.85,2.58,3,3,0,0,0,2.29.88,7.82,7.82,0,0,0,3.08-.65v1.3a8.27,8.27,0,0,1-1.46.48A8.83,8.83,0,0,1,285.73,47.73Zm-.4-8.76a2.4,2.4,0,0,0-1.85.75,3.49,3.49,0,0,0-.81,2.1h5a3.23,3.23,0,0,0-.62-2.12A2.15,2.15,0,0,0,285.33,39Z" style="fill: #314041"/>
    <path d="M298.35,47.55V41.32a2.48,2.48,0,0,0-.54-1.75,2.14,2.14,0,0,0-1.67-.58,2.79,2.79,0,0,0-2.22.81,4.14,4.14,0,0,0-.7,2.7v5h-1.46V37.92H293l.23,1.32h.07a3,3,0,0,1,1.26-1.1,4.1,4.1,0,0,1,1.8-.39,3.65,3.65,0,0,1,2.62.84,3.54,3.54,0,0,1,.88,2.68v6.28Z" style="fill: #314041"/>
    <path d="M305.92,46.53a4.56,4.56,0,0,0,.75-.06,5.41,5.41,0,0,0,.57-.12v1.12a2.94,2.94,0,0,1-.7.19,5.25,5.25,0,0,1-.83.07c-1.87,0-2.8-1-2.8-2.94V39.06h-1.38v-.71l1.38-.6.62-2.06h.84v2.23h2.8v1.14h-2.8v5.66a2,2,0,0,0,.41,1.34A1.46,1.46,0,0,0,305.92,46.53Z" style="fill: #314041"/>
    <path d="M315.09,47.55l-.29-1.37h-.08a3.93,3.93,0,0,1-1.43,1.23,4.48,4.48,0,0,1-1.79.32,3.25,3.25,0,0,1-2.25-.74,2.69,2.69,0,0,1-.81-2.1q0-2.91,4.67-3.06l1.63,0v-.6a2.47,2.47,0,0,0-.48-1.67,2,2,0,0,0-1.57-.54,6.23,6.23,0,0,0-2.72.74l-.45-1.12a7,7,0,0,1,3.26-.83,3.7,3.7,0,0,1,2.56.77,3.21,3.21,0,0,1,.83,2.45v6.57Zm-3.3-1a3,3,0,0,0,2.14-.75,2.77,2.77,0,0,0,.78-2.09v-.87l-1.46.06a5.28,5.28,0,0,0-2.51.54,1.64,1.64,0,0,0-.77,1.49,1.48,1.48,0,0,0,.48,1.2A2,2,0,0,0,311.79,46.53Z" style="fill: #314041"/>
    <path d="M320.63,47.55h-1.46V33.88h1.46Z" style="fill: #314041"/>
    <path d="M327.79,47.73a4.43,4.43,0,0,1-3.37-1.3,5,5,0,0,1-1.23-3.61,5.54,5.54,0,0,1,1.15-3.7,3.78,3.78,0,0,1,3.08-1.37,3.61,3.61,0,0,1,2.86,1.19,4.57,4.57,0,0,1,1.06,3.14V43H324.7a3.86,3.86,0,0,0,.86,2.58,3,3,0,0,0,2.29.88,7.8,7.8,0,0,0,3.07-.65v1.3a8,8,0,0,1-1.46.48A8.83,8.83,0,0,1,327.79,47.73ZM327.4,39a2.4,2.4,0,0,0-1.85.75,3.49,3.49,0,0,0-.81,2.1h5a3.23,3.23,0,0,0-.61-2.12A2.17,2.17,0,0,0,327.4,39Z" style="fill: #314041"/>
    <path d="M338.22,37.75a5.73,5.73,0,0,1,1.15.1l-.2,1.35a5.54,5.54,0,0,0-1.06-.13,2.59,2.59,0,0,0-2,1,3.49,3.49,0,0,0-.83,2.37v5.16h-1.46V37.92H335l.16,1.79h.07a4.19,4.19,0,0,1,1.3-1.45A2.88,2.88,0,0,1,338.22,37.75Z" style="fill: #314041"/>
    <path d="M94.6,69.16l-4.36-11.4h-.07c.09.91.13,2,.13,3.22v8.18H88.92V56.31h2.25l4.07,10.6h.07l4.1-10.6h2.23V69.16h-1.49V60.88c0-1,0-2,.12-3.1h-.07L95.81,69.16Z" style="fill: #314041"/>
    <path d="M110.87,69.16l-.29-1.38h-.07A4,4,0,0,1,109.07,69a4.39,4.39,0,0,1-1.78.32,3.23,3.23,0,0,1-2.25-.74,2.69,2.69,0,0,1-.81-2.1q0-2.91,4.66-3.06l1.64,0v-.6a2.42,2.42,0,0,0-.49-1.67,2,2,0,0,0-1.56-.54,6.23,6.23,0,0,0-2.72.74l-.45-1.12a6.76,6.76,0,0,1,1.56-.61,7,7,0,0,1,1.7-.22,3.65,3.65,0,0,1,2.55.77,3.17,3.17,0,0,1,.83,2.45v6.58Zm-3.29-1a3,3,0,0,0,2.14-.75,2.8,2.8,0,0,0,.77-2.09v-.87l-1.46.06a5.24,5.24,0,0,0-2.5.54,1.62,1.62,0,0,0-.77,1.49,1.48,1.48,0,0,0,.48,1.2A1.94,1.94,0,0,0,107.58,68.13Z" style="fill: #314041"/>
    <path d="M122.63,58a2.86,2.86,0,0,1-1.26,2.2,8.54,8.54,0,0,0-1,.91.91.91,0,0,0-.24.58.86.86,0,0,0,.12.47,2.14,2.14,0,0,0,.43.43c.21.17.54.4,1,.7a5.93,5.93,0,0,1,1.67,1.52,2.84,2.84,0,0,1,.45,1.58,2.72,2.72,0,0,1-.85,2.16,3.57,3.57,0,0,1-2.43.75,4.7,4.7,0,0,1-2.59-.61V67.37a5.18,5.18,0,0,0,1.24.55,4.53,4.53,0,0,0,1.32.21c1.26,0,1.89-.54,1.89-1.6A1.75,1.75,0,0,0,122,65.4a5.08,5.08,0,0,0-1.33-1.09,6.73,6.73,0,0,1-1.54-1.26,2,2,0,0,1-.42-1.28,1.78,1.78,0,0,1,.31-1,3.82,3.82,0,0,1,.92-.93,4.09,4.09,0,0,0,.94-.9,1.43,1.43,0,0,0,.28-.86,1.18,1.18,0,0,0-.59-1.07,3.25,3.25,0,0,0-1.72-.38c-1.61,0-2.42.66-2.42,2V69.16H115V58.59a3,3,0,0,1,1-2.39,4.43,4.43,0,0,1,2.91-.82,4.85,4.85,0,0,1,2.8.69A2.24,2.24,0,0,1,122.63,58Z" style="fill: #314041"/>
    <path d="M132.37,66.53a2.4,2.4,0,0,1-1,2.07,4.71,4.71,0,0,1-2.82.73,6,6,0,0,1-3-.61V67.37a6.62,6.62,0,0,0,1.49.55,6,6,0,0,0,1.53.21,3.42,3.42,0,0,0,1.76-.37,1.19,1.19,0,0,0,.61-1.11,1.21,1.21,0,0,0-.48-1,7.81,7.81,0,0,0-1.91-1,10.29,10.29,0,0,1-1.91-.87,2.51,2.51,0,0,1-.84-.85,2.33,2.33,0,0,1,.68-3,4.42,4.42,0,0,1,2.63-.68,7.74,7.74,0,0,1,3,.63l-.52,1.19a7,7,0,0,0-2.63-.6,3.08,3.08,0,0,0-1.56.32,1,1,0,0,0-.53.9,1.1,1.1,0,0,0,.2.66,2,2,0,0,0,.63.52,15.9,15.9,0,0,0,1.69.71,6.28,6.28,0,0,1,2.32,1.26A2.21,2.21,0,0,1,132.37,66.53Z" style="fill: #314041"/>
    <path d="M137.85,68.13a4.56,4.56,0,0,0,.75-.06,5.41,5.41,0,0,0,.57-.12v1.12a2.94,2.94,0,0,1-.7.19,5.07,5.07,0,0,1-.83.07q-2.79,0-2.79-2.94V60.66h-1.38V60l1.38-.6.61-2.06h.85v2.23h2.79v1.14h-2.79v5.67a1.91,1.91,0,0,0,.41,1.33A1.44,1.44,0,0,0,137.85,68.13Z" style="fill: #314041"/>
    <path d="M147,69.16l-.29-1.38h-.07A4,4,0,0,1,145.22,69a4.41,4.41,0,0,1-1.79.32,3.22,3.22,0,0,1-2.24-.74,2.69,2.69,0,0,1-.81-2.1q0-2.91,4.66-3.06l1.64,0v-.6a2.42,2.42,0,0,0-.49-1.67,2,2,0,0,0-1.56-.54,6.23,6.23,0,0,0-2.72.74l-.45-1.12a6.76,6.76,0,0,1,1.56-.61,7,7,0,0,1,1.7-.22,3.65,3.65,0,0,1,2.55.77,3.17,3.17,0,0,1,.83,2.45v6.58Zm-3.3-1a3,3,0,0,0,2.15-.75,2.8,2.8,0,0,0,.77-2.09v-.87l-1.46.06a5.24,5.24,0,0,0-2.5.54,1.62,1.62,0,0,0-.77,1.49,1.48,1.48,0,0,0,.48,1.2A1.93,1.93,0,0,0,143.72,68.13Z" style="fill: #314041"/>
    <path d="M155.59,59.36a3.59,3.59,0,0,1,2.95,1.3,5.71,5.71,0,0,1,1.05,3.67A5.73,5.73,0,0,1,158.53,68a3.59,3.59,0,0,1-2.94,1.31,4.2,4.2,0,0,1-1.72-.35,3.17,3.17,0,0,1-1.3-1.06h-.11l-.31,1.24h-1V55.48h1.46V58.8c0,.75,0,1.41-.07,2h.07A3.44,3.44,0,0,1,155.59,59.36Zm-.21,1.23a2.54,2.54,0,0,0-2.15.85,4.84,4.84,0,0,0-.66,2.89,4.87,4.87,0,0,0,.67,2.91,2.58,2.58,0,0,0,2.17.87,2.26,2.26,0,0,0,2-1,5,5,0,0,0,.66-2.82,4.82,4.82,0,0,0-.66-2.8A2.33,2.33,0,0,0,155.38,60.59Z" style="fill: #314041"/>
    <path d="M171.16,60.66H168.7v8.5h-1.46v-8.5h-1.72V60l1.72-.53v-.54c0-2.36,1-3.55,3.11-3.55a6.59,6.59,0,0,1,1.79.31l-.38,1.17a4.84,4.84,0,0,0-1.44-.27,1.39,1.39,0,0,0-1.22.55,3.07,3.07,0,0,0-.4,1.76v.62h2.46Z" style="fill: #314041"/>
    <path d="M174.28,59.52v6.25a2.51,2.51,0,0,0,.54,1.76,2.18,2.18,0,0,0,1.68.58,2.74,2.74,0,0,0,2.21-.83,4.14,4.14,0,0,0,.7-2.7V59.52h1.46v9.64h-1.21l-.21-1.3h-.08A2.86,2.86,0,0,1,178.13,69a4.23,4.23,0,0,1-1.82.38,3.72,3.72,0,0,1-2.63-.83,3.58,3.58,0,0,1-.87-2.68v-6.3Zm.09-2.61a.76.76,0,0,1,.79-.86.89.89,0,0,1,.58.2.83.83,0,0,1,.24.66.86.86,0,0,1-.24.66.84.84,0,0,1-.58.21.79.79,0,0,1-.55-.21A.86.86,0,0,1,174.37,56.91Zm3.35,0a.75.75,0,0,1,.79-.86.88.88,0,0,1,.57.2.83.83,0,0,1,.24.66.86.86,0,0,1-.24.66.87.87,0,0,1-1.13,0A.9.9,0,0,1,177.72,56.91Z" style="fill: #314041"/>
    <path d="M188.36,59.35a5.79,5.79,0,0,1,1.15.1l-.21,1.36a4.83,4.83,0,0,0-1.05-.14,2.57,2.57,0,0,0-2,.95,3.49,3.49,0,0,0-.83,2.37v5.17H184V59.52h1.21l.16,1.79h.07a4.27,4.27,0,0,1,1.29-1.45A2.93,2.93,0,0,1,188.36,59.35Z" style="fill: #314041"/>
    <path d="M202.54,67.86h-.08a3.42,3.42,0,0,1-3,1.47A3.58,3.58,0,0,1,196.5,68a5.69,5.69,0,0,1-1.05-3.67,5.83,5.83,0,0,1,1.05-3.71,3.58,3.58,0,0,1,2.94-1.31,3.47,3.47,0,0,1,3,1.42h.12l-.06-.69,0-.68V55.48h1.46V69.16h-1.19Zm-2.92.25a2.67,2.67,0,0,0,2.17-.81,4.13,4.13,0,0,0,.67-2.63v-.3a4.82,4.82,0,0,0-.68-2.93,2.58,2.58,0,0,0-2.17-.87,2.24,2.24,0,0,0-2,1,5,5,0,0,0-.68,2.81,4.78,4.78,0,0,0,.68,2.79A2.28,2.28,0,0,0,199.62,68.11Z" style="fill: #314041"/>
    <path d="M211.08,69.33a4.43,4.43,0,0,1-3.37-1.3,5,5,0,0,1-1.23-3.61,5.55,5.55,0,0,1,1.15-3.7,3.78,3.78,0,0,1,3.08-1.37,3.61,3.61,0,0,1,2.86,1.19,4.57,4.57,0,0,1,1.06,3.14v.92H208a3.86,3.86,0,0,0,.86,2.58,3,3,0,0,0,2.29.88,7.8,7.8,0,0,0,3.07-.65v1.3a8,8,0,0,1-1.46.48A8.83,8.83,0,0,1,211.08,69.33Zm-.39-8.76a2.4,2.4,0,0,0-1.85.75,3.51,3.51,0,0,0-.81,2.1h5a3.23,3.23,0,0,0-.61-2.12A2.17,2.17,0,0,0,210.69,60.57Z" style="fill: #314041"/>
    <path d="M223.71,69.16V62.92a2.48,2.48,0,0,0-.54-1.75,2.18,2.18,0,0,0-1.68-.58,2.76,2.76,0,0,0-2.21.81,4.14,4.14,0,0,0-.71,2.7v5.06h-1.46V59.52h1.19l.24,1.32h.07a3,3,0,0,1,1.25-1.1,4.11,4.11,0,0,1,1.81-.39,3.67,3.67,0,0,1,2.62.84,3.58,3.58,0,0,1,.87,2.68v6.29Z" style="fill: #314041"/>
    <path d="M238.76,69.16l-.29-1.38h-.07A4,4,0,0,1,237,69a4.39,4.39,0,0,1-1.78.32,3.23,3.23,0,0,1-2.25-.74,2.69,2.69,0,0,1-.81-2.1q0-2.91,4.66-3.06l1.64,0v-.6a2.42,2.42,0,0,0-.49-1.67,2,2,0,0,0-1.56-.54,6.23,6.23,0,0,0-2.72.74l-.45-1.12a6.76,6.76,0,0,1,1.56-.61,7,7,0,0,1,1.7-.22,3.65,3.65,0,0,1,2.55.77,3.17,3.17,0,0,1,.83,2.45v6.58Zm-3.29-1a3,3,0,0,0,2.14-.75,2.8,2.8,0,0,0,.77-2.09v-.87l-1.46.06a5.24,5.24,0,0,0-2.5.54,1.62,1.62,0,0,0-.77,1.49,1.48,1.48,0,0,0,.48,1.2A1.94,1.94,0,0,0,235.47,68.13Z" style="fill: #314041"/>
    <path d="M250.73,59.52v.93l-1.78.21a3.12,3.12,0,0,1,.44.8,3,3,0,0,1,.19,1.12,2.84,2.84,0,0,1-1,2.26,3.9,3.9,0,0,1-2.65.84,4.14,4.14,0,0,1-.81-.07,1.44,1.44,0,0,0-.93,1.24.64.64,0,0,0,.32.59,2.47,2.47,0,0,0,1.12.19h1.71a3.81,3.81,0,0,1,2.4.66,2.26,2.26,0,0,1,.84,1.91,2.74,2.74,0,0,1-1.28,2.44,6.9,6.9,0,0,1-3.75.84,5.17,5.17,0,0,1-2.91-.7,2.28,2.28,0,0,1-1-2,2.21,2.21,0,0,1,.57-1.52,2.81,2.81,0,0,1,1.58-.87,1.47,1.47,0,0,1-.62-.52,1.35,1.35,0,0,1-.25-.82,1.52,1.52,0,0,1,.28-.92,2.89,2.89,0,0,1,.89-.76,2.63,2.63,0,0,1-1.22-1,3.09,3.09,0,0,1-.47-1.69,3.13,3.13,0,0,1,.95-2.44,3.88,3.88,0,0,1,2.69-.85,5.16,5.16,0,0,1,1.36.17Zm-7.68,11.25a1.31,1.31,0,0,0,.66,1.19,3.64,3.64,0,0,0,1.89.4,5.25,5.25,0,0,0,2.72-.55,1.67,1.67,0,0,0,.88-1.49,1.17,1.17,0,0,0-.48-1.08,3.79,3.79,0,0,0-1.82-.3h-1.75a2.3,2.3,0,0,0-1.55.47A1.69,1.69,0,0,0,243.05,70.77Zm.79-8.16a2,2,0,0,0,.57,1.53,2.3,2.3,0,0,0,1.59.52,1.87,1.87,0,0,0,2.14-2.08A1.91,1.91,0,0,0,246,60.41a2.15,2.15,0,0,0-1.59.55A2.28,2.28,0,0,0,243.84,62.61Z" style="fill: #314041"/>
    <path d="M252.59,56.91a1,1,0,0,1,.24-.73.85.85,0,0,1,.62-.23.84.84,0,0,1,.6.23,1,1,0,0,1,.26.73,1,1,0,0,1-.26.74.85.85,0,0,1-.6.24.86.86,0,0,1-.62-.24A1,1,0,0,1,252.59,56.91Zm1.58,12.25h-1.46V59.52h1.46Z" style="fill: #314041"/>
    <path d="M258.72,69.16h-1.46V55.48h1.46Z" style="fill: #314041"/>
    <path d="M265.88,69.33a4.43,4.43,0,0,1-3.37-1.3,5,5,0,0,1-1.23-3.61,5.55,5.55,0,0,1,1.15-3.7,3.78,3.78,0,0,1,3.08-1.37,3.61,3.61,0,0,1,2.86,1.19,4.57,4.57,0,0,1,1.06,3.14v.92h-6.64a3.86,3.86,0,0,0,.86,2.58,3,3,0,0,0,2.29.88,7.8,7.8,0,0,0,3.07-.65v1.3a8,8,0,0,1-1.46.48A8.83,8.83,0,0,1,265.88,69.33Zm-.39-8.76a2.4,2.4,0,0,0-1.85.75,3.51,3.51,0,0,0-.81,2.1h5a3.23,3.23,0,0,0-.61-2.12A2.17,2.17,0,0,0,265.49,60.57Z" style="fill: #314041"/>
    <path d="M278.51,69.16V62.92a2.48,2.48,0,0,0-.54-1.75,2.18,2.18,0,0,0-1.68-.58,2.76,2.76,0,0,0-2.21.81,4.14,4.14,0,0,0-.71,2.7v5.06h-1.46V59.52h1.19l.24,1.32h.07a3,3,0,0,1,1.25-1.1,4.11,4.11,0,0,1,1.81-.39,3.67,3.67,0,0,1,2.62.84,3.58,3.58,0,0,1,.87,2.68v6.29Z" style="fill: #314041"/>
    <path d="M295,69.16h-7.16V56.31H295v1.32h-5.67v4.14h5.33v1.32h-5.33v4.73H295Z" style="fill: #314041"/>
    <path d="M302,59.35a5.73,5.73,0,0,1,1.15.1l-.2,1.36a4.91,4.91,0,0,0-1.05-.14,2.57,2.57,0,0,0-2,.95,3.45,3.45,0,0,0-.83,2.37v5.17h-1.46V59.52h1.2l.17,1.79h.07a4.27,4.27,0,0,1,1.29-1.45A2.93,2.93,0,0,1,302,59.35Z" style="fill: #314041"/>
    <path d="M309.34,60.66h-2.45v8.5h-1.46v-8.5H303.7V60l1.73-.53v-.54c0-2.36,1-3.55,3.1-3.55a6.53,6.53,0,0,1,1.79.31l-.38,1.17a4.84,4.84,0,0,0-1.44-.27,1.39,1.39,0,0,0-1.22.55,3.08,3.08,0,0,0-.39,1.76v.62h2.45Z" style="fill: #314041"/>
    <path d="M319.41,64.33A5.32,5.32,0,0,1,318.22,68a4.18,4.18,0,0,1-3.28,1.32,4.29,4.29,0,0,1-2.29-.61A4,4,0,0,1,311.1,67a6.09,6.09,0,0,1-.54-2.65,5.29,5.29,0,0,1,1.18-3.67A4.17,4.17,0,0,1,315,59.35a4.06,4.06,0,0,1,3.21,1.34A5.32,5.32,0,0,1,319.41,64.33Zm-7.34,0a4.57,4.57,0,0,0,.74,2.81,2.54,2.54,0,0,0,2.17,1,2.6,2.6,0,0,0,2.18-1,4.6,4.6,0,0,0,.74-2.82,4.53,4.53,0,0,0-.74-2.79,2.61,2.61,0,0,0-2.2-.95,2.57,2.57,0,0,0-2.16.94A4.48,4.48,0,0,0,312.07,64.33Z" style="fill: #314041"/>
    <path d="M323.43,69.16H322V55.48h1.46Z" style="fill: #314041"/>
    <path d="M334.4,59.52v.93l-1.78.21a3.12,3.12,0,0,1,.44.8,3,3,0,0,1,.19,1.12,2.86,2.86,0,0,1-1,2.26,3.93,3.93,0,0,1-2.66.84,4.14,4.14,0,0,1-.81-.07,1.44,1.44,0,0,0-.93,1.24.63.63,0,0,0,.33.59,2.39,2.39,0,0,0,1.11.19H331a3.81,3.81,0,0,1,2.4.66,2.26,2.26,0,0,1,.84,1.91A2.74,2.74,0,0,1,333,72.64a6.9,6.9,0,0,1-3.75.84,5.17,5.17,0,0,1-2.91-.7,2.28,2.28,0,0,1-1-2,2.2,2.2,0,0,1,.56-1.52,2.81,2.81,0,0,1,1.58-.87,1.47,1.47,0,0,1-.62-.52,1.35,1.35,0,0,1-.25-.82,1.52,1.52,0,0,1,.28-.92,2.89,2.89,0,0,1,.89-.76,2.63,2.63,0,0,1-1.22-1,3.09,3.09,0,0,1-.47-1.69A3.13,3.13,0,0,1,327,60.2a3.88,3.88,0,0,1,2.69-.85,5.16,5.16,0,0,1,1.36.17Zm-7.68,11.25a1.31,1.31,0,0,0,.66,1.19,3.64,3.64,0,0,0,1.89.4,5.22,5.22,0,0,0,2.72-.55,1.67,1.67,0,0,0,.88-1.49,1.17,1.17,0,0,0-.48-1.08,3.79,3.79,0,0,0-1.82-.3h-1.75a2.25,2.25,0,0,0-1.54.47A1.7,1.7,0,0,0,326.72,70.77Zm.79-8.16a2,2,0,0,0,.57,1.53,2.35,2.35,0,0,0,1.6.52,1.86,1.86,0,0,0,2.13-2.08,1.91,1.91,0,0,0-2.16-2.17,2.12,2.12,0,0,0-1.58.55A2.24,2.24,0,0,0,327.51,62.61Z" style="fill: #314041"/>
    <path d="M336.17,68.22a1.3,1.3,0,0,1,.27-.89,1,1,0,0,1,.77-.3,1,1,0,0,1,.79.3,1.5,1.5,0,0,1,0,1.77,1,1,0,0,1-.79.31,1,1,0,0,1-.74-.28A1.17,1.17,0,0,1,336.17,68.22Z" style="fill: #314041"/>
  </g>
  <path d="M323.9,135.48a11.32,11.32,0,0,0-5.72.3,5.1,5.1,0,0,0,.3-.91c2.23-7-1.27-13-8.26-15.12a14,14,0,0,0-11.32,1.57l-.79,7.17s15.13,28,21.27,29.28a11.37,11.37,0,0,0,4.52-22.29Z" style="fill: #293e40;fill-rule: evenodd"/>
  <path d="M274.35,122.79c3.92,6.44,16.58,21.62,16.58,21.62l5.42.3-.18,12-6-.73a7.07,7.07,0,0,1-5.3-3.46c-.06-.12-.12-.19-.18-.31l-18.92-30.72,4.4-.92A4.48,4.48,0,0,1,274.35,122.79Z" style="fill: #bc8860;fill-rule: evenodd"/>
  <polygon points="314.83 145.47 296.36 144.9 295.76 158.5 319.89 160.21 314.83 145.47" style="fill: #efecea;fill-rule: evenodd"/>
  <path d="M313.38,143.65l-5-8.76a2.9,2.9,0,0,0,2.36-2.86,3,3,0,0,0-6-.42l-3-1.31a4.74,4.74,0,0,1-2.78-4.29v-4.53c.06,0,.12-.06.18-.12a12.53,12.53,0,0,0-5.69,8.34l-1.4.72a.7.7,0,0,0-.3.29.66.66,0,0,0,.24.72l1.15.71c-.12,5.31,3.21,9.54,8.84,10.67a1.75,1.75,0,0,1,.55.12L306,150.2l11-4.83Z" style="fill: #bc8860;fill-rule: evenodd"/>
  <path d="M322.84,199.65,317,187.29Z" style="fill: #6ea0af;fill-rule: evenodd"/>
  <path d="M334.48,173.69l-10.22-24.5a9.41,9.41,0,0,0-6.61-5.69,9.09,9.09,0,0,0-4-.06,9.53,9.53,0,0,0-7.75,10.3l.36,3.83a6.4,6.4,0,0,0,2.22,11.57l8.71,18.15,21-9.47Z" style="fill: #efecea;fill-rule: evenodd"/>
  <path d="M338,177.87l-21,9.58,2.29,4.92,3.43,7.28h28.68C352.86,184.91,338,177.87,338,177.87Z" style="fill: #6ea0af;fill-rule: evenodd"/>
  <path d="M326.13,170.22l-11.53.48,9,27.58L318.44,200a2.25,2.25,0,0,0-1.22,2h13.31a2.26,2.26,0,0,0,2.25-2.4Z" style="fill: #bc8860;fill-rule: evenodd"/>
  <path d="M276.65,170.8l11.58,26h23a2.86,2.86,0,0,1,2.79,2.88h-26a2.66,2.66,0,0,1-2.43-1.62l-10.4-23.45A2.87,2.87,0,0,1,276.65,170.8Z" style="fill: #293e40;fill-rule: evenodd"/>
  <path d="M199.81,199.59,202,176.48a12.63,12.63,0,0,1,5.08-9.5c6.1-4.48,15.7-10,15.7-10l12.87-.55A17.94,17.94,0,0,1,253,167.58l9.37,21.18a7.82,7.82,0,0,1-7.13,10.89H249.1l-15.53-.06Z" style="fill: #83b7a2;fill-rule: evenodd"/>
  <path d="M227.38,194.68l16.21-4.45,1,9.42L234,199.59l-10.63-.17A5.29,5.29,0,0,1,227.38,194.68Z" style="fill: #c28c75;fill-rule: evenodd"/>
  <path d="M230.27,197.86H219.34L215,173.66a2.08,2.08,0,0,0-2.06-1.68H174.47a1,1,0,0,0-1,1.14L178,198.33a1.56,1.56,0,0,0,1.57,1.32H234C234,198,232,197.86,230.27,197.86Z" style="fill: #293e40;fill-rule: evenodd"/>
  <path d="M231,152.39a11.29,11.29,0,0,0-13.72-8.28,11,11,0,0,0-6.33,4.26l-.83-.72-1,4.62a5,5,0,0,0-.24.9v.06a12.19,12.19,0,0,0,.18,4.8,11.53,11.53,0,0,0,5.86,7.38,8.3,8.3,0,0,0,15.56-5.76A12,12,0,0,0,231,152.39Z" style="fill: #c28c75;fill-rule: evenodd"/>
  <path d="M222.18,152v.43a5.76,5.76,0,0,0,3.78,5.42,2.61,2.61,0,0,1,2-2.34,2.71,2.71,0,0,1,3.29,1.91v.37h.06l1.42-6.41Z" style="fill: #293e40;fill-rule: evenodd"/>
  <path d="M262.87,136.49,240.1,139,234,82.54l42.48-4.74,4,36.58A20,20,0,0,1,262.87,136.49Z" style="fill: #b9dbcc;fill-rule: evenodd"/>
  <path d="M131,140.05a12.71,12.71,0,0,0-2-5,5.84,5.84,0,0,0,.72-2.7,5.71,5.71,0,0,0-10.85-2.46,9.16,9.16,0,0,0-1.8.18A12.11,12.11,0,0,0,107,142.63h-.59A14.38,14.38,0,1,0,120.79,157a16.29,16.29,0,0,0-.3-2.94,2.25,2.25,0,0,0,.6-.06A12.1,12.1,0,0,0,131,140.05Z" style="fill: #293e40;fill-rule: evenodd"/>
  <path d="M132.77,199.65l-1.31-16.85a7.07,7.07,0,0,0,2-9.86l-5.86-8.49-11.49-8.36c-4.79,4.54-9.28,7.41-6.89,19.12l1,18.22-1.79,6.22Z" style="fill: #aed0db;fill-rule: evenodd"/>
  <path d="M165.94,170.22l-12,26.56H130.32a2.92,2.92,0,0,0-2.92,2.87h26.8a2.72,2.72,0,0,0,2.5-1.61l10.67-24A2.91,2.91,0,0,0,165.94,170.22Z" style="fill: #293e40;fill-rule: evenodd"/>
  <path d="M148.6,194.46a6.75,6.75,0,0,0-3.91-1.69l-6.9-.85-10.63-1.75-1.74-8.77-12.73,3.33,1.68,6.16c.72,4.06,1.68,8.41,5.7,10h-.48a18.3,18.3,0,0,0,7.69-.36l11.35-2.66,12.91-1.15Z" style="fill: #925a5d;fill-rule: evenodd"/>
  <path d="M134.86,141.16l-.18-.55.36-.36a.72.72,0,0,0,.24-.72,1,1,0,0,0-.77-.61l-.42-.12a13.2,13.2,0,0,0-4.65-5.67l-3.27,4.71.77,4.52a3,3,0,0,1-4.35,2.78s-4.58,9.47-6.37,10.74l11.44,8.45-1.91-4,1.67-5.8c.83-.48,1.61-1,2.2-1.38l1.13-.73A9.85,9.85,0,0,0,134.86,141.16Z" style="fill: #925a5d;fill-rule: evenodd"/>
  <circle cx="120.93" cy="145.49" r="2.94" style="fill: #925a5d"/>
  <path d="M123.57,139.75a4.87,4.87,0,1,1-4.69,8.54,4.87,4.87,0,1,1,4.69-8.54Z" style="fill: #fff;fill-rule: evenodd"/>
  <polygon points="122.11 142.28 119.66 143.73 112.1 131.56 114.54 130.19 122.11 142.28" style="fill: #fff;fill-rule: evenodd"/>
  <path d="M278.1,127.84l-3.67-4.72-.55.72a1.64,1.64,0,0,0-.24,1.67l2.2,5.85Z" style="fill: #bc8860;fill-rule: evenodd"/>
  <path d="M230.71,163.15c0-.11.3-5.3.3-5.3l-4.71,1.34Z" style="fill: #c28c75;fill-rule: evenodd"/>
  <path d="M208.7,149c-.06.06-.06.06-.06.12a4.16,4.16,0,0,0,4.27,4,4.35,4.35,0,0,0,4-2.55C214.47,150.15,210.86,149.42,208.7,149Z" style="fill: #293e40;fill-rule: evenodd"/>
  <path d="M203.78,146.76l6.46.12a11.44,11.44,0,0,1,13.65-8.82A11.68,11.68,0,0,1,232.57,152l-.6,2.92-29.81-6.81A1.67,1.67,0,0,1,203.78,146.76Z" style="fill: #749daa;fill-rule: evenodd"/>
</svg>
