<svg id="Layer_1" data-name="Layer 1" xmlns="http://www.w3.org/2000/svg" viewBox="0 0 374.33 255.83">
  <title>nugget_graph_1es</title>
  <rect x="202.35" y="13.6" width="50" height="199.97" style="fill: #ebac7b"/>
  <rect x="279.52" y="129.41" width="50" height="84.16" style="fill: #e3e2e3"/>
  <g>
    <path d="M146.51,63.06c0-2.81.6-4.91,1.79-6.28a6.67,6.67,0,0,1,5.34-2.07,9.48,9.48,0,0,1,1.91.15v2.4a7.79,7.79,0,0,0-1.71-.19,5.77,5.77,0,0,0-2.53.47,3.11,3.11,0,0,0-1.46,1.38,6.24,6.24,0,0,0-.58,2.59h.13a3.3,3.3,0,0,1,3.08-1.65,3.82,3.82,0,0,1,3,1.2,4.74,4.74,0,0,1,1.08,3.3A5,5,0,0,1,155.27,68a4.75,4.75,0,0,1-3.56,1.32,5.07,5.07,0,0,1-2.75-.73,4.65,4.65,0,0,1-1.81-2.13A8.14,8.14,0,0,1,146.51,63.06Zm5.14,3.83a1.77,1.77,0,0,0,1.48-.65,2.9,2.9,0,0,0,.51-1.84,2.56,2.56,0,0,0-.48-1.64,1.75,1.75,0,0,0-1.45-.6,2.21,2.21,0,0,0-1.56.6,1.78,1.78,0,0,0-.65,1.38,3.09,3.09,0,0,0,.61,2A1.84,1.84,0,0,0,151.65,66.89Z" style="fill: #314041"/>
    <path d="M163.15,60a4.6,4.6,0,0,1,3.29,1.15,4.17,4.17,0,0,1,1.22,3.17A4.62,4.62,0,0,1,166.19,68a6.17,6.17,0,0,1-4.2,1.28,8.25,8.25,0,0,1-3.83-.76v-2.6a7.87,7.87,0,0,0,1.78.66,7.57,7.57,0,0,0,1.94.26c1.83,0,2.75-.75,2.75-2.25s-.95-2.15-2.85-2.15a7,7,0,0,0-1.14.1,8.46,8.46,0,0,0-1,.22l-1.19-.64.53-7.25h7.71v2.55h-5.07l-.27,2.79.34-.07A6.85,6.85,0,0,1,163.15,60Z" style="fill: #314041"/>
    <path d="M175.92,59.12a5.44,5.44,0,0,1-.86,3.36,3,3,0,0,1-2.54,1.12A2.92,2.92,0,0,1,170,62.45a5.46,5.46,0,0,1-.88-3.33q0-4.44,3.36-4.44A3,3,0,0,1,175,55.83,5.3,5.3,0,0,1,175.92,59.12Zm-4.31,0a5.94,5.94,0,0,0,.22,1.84c.15.41.38.61.71.61.62,0,.93-.82.93-2.45s-.31-2.43-.93-2.43c-.33,0-.56.2-.71.6A5.87,5.87,0,0,0,171.61,59.14Zm11-4.26L174.73,69.1h-2.34l7.89-14.22Zm3.27,9.92a5.47,5.47,0,0,1-.86,3.35,3,3,0,0,1-2.54,1.12A2.92,2.92,0,0,1,180,68.12a5.36,5.36,0,0,1-.88-3.32q0-4.44,3.36-4.44A3,3,0,0,1,185,61.51,5.3,5.3,0,0,1,185.88,64.8Zm-4.31,0a5.94,5.94,0,0,0,.22,1.84c.15.41.38.61.71.61.62,0,.93-.82.93-2.45s-.31-2.43-.93-2.43c-.33,0-.56.2-.71.6A5.87,5.87,0,0,0,181.57,64.82Z" style="fill: #314041"/>
  </g>
  <g>
    <path d="M293.7,111.54a3.4,3.4,0,0,1-.8,2.27,4.2,4.2,0,0,1-2.27,1.28v.06a4.54,4.54,0,0,1,2.61,1,2.94,2.94,0,0,1,.88,2.25,3.78,3.78,0,0,1-1.49,3.19,6.87,6.87,0,0,1-4.25,1.14,10.17,10.17,0,0,1-4.1-.77v-2.55a9.54,9.54,0,0,0,1.82.68,7.82,7.82,0,0,0,2,.26,3.8,3.8,0,0,0,2.2-.51,1.84,1.84,0,0,0,.71-1.62,1.46,1.46,0,0,0-.82-1.42,6,6,0,0,0-2.6-.42h-1.08v-2.3h1.1a5.06,5.06,0,0,0,2.41-.44,1.55,1.55,0,0,0,.77-1.48c0-1.08-.68-1.61-2-1.61a4.48,4.48,0,0,0-1.42.23,6.92,6.92,0,0,0-1.61.81l-1.39-2.07a7.67,7.67,0,0,1,4.64-1.41,5.94,5.94,0,0,1,3.48.9A2.86,2.86,0,0,1,293.7,111.54Z" style="fill: #314041"/>
    <path d="M305.55,115.47a9.93,9.93,0,0,1-1.22,5.51,4.23,4.23,0,0,1-3.76,1.79,4.17,4.17,0,0,1-3.71-1.85,9.78,9.78,0,0,1-1.25-5.45q0-3.77,1.21-5.55a4.74,4.74,0,0,1,7.47.08A9.81,9.81,0,0,1,305.55,115.47Zm-6.95,0a11.15,11.15,0,0,0,.45,3.75,1.58,1.58,0,0,0,3,0,10.79,10.79,0,0,0,.46-3.73,10.58,10.58,0,0,0-.47-3.76,1.58,1.58,0,0,0-3,0A11.18,11.18,0,0,0,298.6,115.47Z" style="fill: #314041"/>
    <path d="M313.63,112.6a5.51,5.51,0,0,1-.86,3.36,3,3,0,0,1-2.54,1.12,2.92,2.92,0,0,1-2.48-1.15,5.39,5.39,0,0,1-.88-3.33c0-3,1.12-4.45,3.36-4.45a3,3,0,0,1,2.52,1.16A5.3,5.3,0,0,1,313.63,112.6Zm-4.31,0a5.94,5.94,0,0,0,.22,1.84c.15.41.38.61.71.61.62,0,.93-.82.93-2.45s-.31-2.43-.93-2.43c-.33,0-.56.2-.71.6A5.82,5.82,0,0,0,309.32,112.62Zm11-4.26-7.88,14.22H310.1L318,108.36Zm3.27,9.92a5.5,5.5,0,0,1-.86,3.35,3,3,0,0,1-2.54,1.12,2.92,2.92,0,0,1-2.48-1.15,5.36,5.36,0,0,1-.88-3.32c0-3,1.12-4.45,3.36-4.45a3,3,0,0,1,2.52,1.16A5.3,5.3,0,0,1,323.59,118.28Zm-4.31,0a5.94,5.94,0,0,0,.22,1.84c.15.41.38.61.71.61.62,0,.93-.82.93-2.45s-.31-2.43-.93-2.43c-.33,0-.56.2-.71.6A5.82,5.82,0,0,0,319.28,118.3Z" style="fill: #314041"/>
  </g>
  <g>
    <path d="M42.24,94.13H35.07V81.28h7.17V82.6H36.57v4.14h5.32v1.32H36.57v4.73h5.67Z" style="fill: #314041"/>
    <path d="M51.45,94.13V87.9a2.49,2.49,0,0,0-.53-1.76,2.18,2.18,0,0,0-1.68-.58,2.73,2.73,0,0,0-2.21.82,4.09,4.09,0,0,0-.71,2.69v5.06H44.86V84.49h1.19l.24,1.32h.07a3,3,0,0,1,1.25-1.1,4.11,4.11,0,0,1,1.81-.39,3.62,3.62,0,0,1,2.61.84,3.54,3.54,0,0,1,.88,2.68v6.29Z" style="fill: #314041"/>
    <path d="M65,84.32a5.73,5.73,0,0,1,1.15.1l-.2,1.36a4.83,4.83,0,0,0-1.05-.13,2.56,2.56,0,0,0-2,.94A3.46,3.46,0,0,0,62.05,89v5.17H60.59V84.49h1.2L62,86.28H62a4.27,4.27,0,0,1,1.29-1.45A2.9,2.9,0,0,1,65,84.32Z" style="fill: #314041"/>
    <path d="M72,94.3A4.43,4.43,0,0,1,68.63,93a5,5,0,0,1-1.23-3.61,5.6,5.6,0,0,1,1.14-3.7,3.85,3.85,0,0,1,3.09-1.37,3.64,3.64,0,0,1,2.86,1.19,4.57,4.57,0,0,1,1.06,3.14v.92H68.91a3.79,3.79,0,0,0,.86,2.58,2.94,2.94,0,0,0,2.29.88,7.8,7.8,0,0,0,3.07-.65v1.3a8,8,0,0,1-1.46.48A8.83,8.83,0,0,1,72,94.3Zm-.39-8.76a2.36,2.36,0,0,0-1.85.76A3.46,3.46,0,0,0,69,88.39h5a3.23,3.23,0,0,0-.61-2.12A2.17,2.17,0,0,0,71.61,85.54Z" style="fill: #314041"/>
    <path d="M81.88,94.3A4.15,4.15,0,0,1,78.64,93a5.34,5.34,0,0,1-1.14-3.65,5.43,5.43,0,0,1,1.16-3.73A4.19,4.19,0,0,1,82,84.32a6.57,6.57,0,0,1,1.39.15,4.51,4.51,0,0,1,1.09.35L84,86.06A6,6,0,0,0,83,85.74a4.37,4.37,0,0,0-1-.13Q79,85.61,79,89.35a4.51,4.51,0,0,0,.71,2.73,2.51,2.51,0,0,0,2.13,1,6.45,6.45,0,0,0,2.47-.52V93.8A5.22,5.22,0,0,1,81.88,94.3Z" style="fill: #314041"/>
    <path d="M88,84.49v6.25a2.51,2.51,0,0,0,.54,1.76,2.18,2.18,0,0,0,1.68.58,2.71,2.71,0,0,0,2.21-.83,4.19,4.19,0,0,0,.7-2.69V84.49h1.46v9.64H93.35l-.21-1.3h-.08a2.86,2.86,0,0,1-1.24,1.09A4.09,4.09,0,0,1,90,94.3a3.7,3.7,0,0,1-2.63-.83,3.57,3.57,0,0,1-.87-2.67V84.49Z" style="fill: #314041"/>
    <path d="M102.13,94.3a4.23,4.23,0,0,1-1.72-.34,3.35,3.35,0,0,1-1.3-1.07H99a12.92,12.92,0,0,1,.11,1.6v4H97.65v-14h1.19l.2,1.32h.07a3.36,3.36,0,0,1,1.31-1.14,4,4,0,0,1,1.71-.35,3.54,3.54,0,0,1,3,1.31,7,7,0,0,1,0,7.36A3.56,3.56,0,0,1,102.13,94.3Zm-.21-8.74a2.57,2.57,0,0,0-2.13.82,4.17,4.17,0,0,0-.68,2.6v.32a4.77,4.77,0,0,0,.68,2.91,2.57,2.57,0,0,0,2.17.87,2.26,2.26,0,0,0,2-1,4.8,4.8,0,0,0,.71-2.79,4.61,4.61,0,0,0-.71-2.76A2.32,2.32,0,0,0,101.92,85.56Z" style="fill: #314041"/>
    <path d="M112.75,94.3a4.41,4.41,0,0,1-3.37-1.3,5.05,5.05,0,0,1-1.24-3.61,5.61,5.61,0,0,1,1.15-3.7,3.83,3.83,0,0,1,3.08-1.37,3.66,3.66,0,0,1,2.87,1.19,4.57,4.57,0,0,1,1.05,3.14v.92h-6.63a3.83,3.83,0,0,0,.85,2.58,3,3,0,0,0,2.29.88,7.85,7.85,0,0,0,3.08-.65v1.3a8.35,8.35,0,0,1-1.47.48A8.72,8.72,0,0,1,112.75,94.3Zm-.4-8.76a2.37,2.37,0,0,0-1.85.76,3.46,3.46,0,0,0-.81,2.09h5a3.23,3.23,0,0,0-.62-2.12A2.15,2.15,0,0,0,112.35,85.54Z" style="fill: #314041"/>
    <path d="M123.17,84.32a5.66,5.66,0,0,1,1.15.1l-.2,1.36a4.83,4.83,0,0,0-1.05-.13,2.56,2.56,0,0,0-2,.94,3.46,3.46,0,0,0-.83,2.37v5.17h-1.46V84.49H120l.17,1.79h.07a4.27,4.27,0,0,1,1.29-1.45A2.93,2.93,0,0,1,123.17,84.32Z" style="fill: #314041"/>
    <path d="M132.05,94.13l-.29-1.37h-.07A4,4,0,0,1,130.25,94a4.25,4.25,0,0,1-1.79.32,3.17,3.17,0,0,1-2.24-.74,2.69,2.69,0,0,1-.81-2.1q0-2.91,4.66-3l1.64-.06v-.6a2.47,2.47,0,0,0-.49-1.67,2,2,0,0,0-1.56-.54,6.37,6.37,0,0,0-2.72.74l-.45-1.12a6.32,6.32,0,0,1,1.56-.6,6.56,6.56,0,0,1,1.7-.22,3.65,3.65,0,0,1,2.55.76,3.21,3.21,0,0,1,.83,2.45v6.58Zm-3.3-1a2.94,2.94,0,0,0,2.14-.75,2.75,2.75,0,0,0,.78-2.09v-.87l-1.46.06a5.31,5.31,0,0,0-2.51.54,1.63,1.63,0,0,0-.76,1.49,1.51,1.51,0,0,0,.47,1.21A2,2,0,0,0,128.75,93.1Z" style="fill: #314041"/>
    <path d="M140,94.3A4.12,4.12,0,0,1,136.75,93a5.29,5.29,0,0,1-1.15-3.65,5.43,5.43,0,0,1,1.17-3.73,4.17,4.17,0,0,1,3.31-1.32,6.5,6.5,0,0,1,1.39.15,4.23,4.23,0,0,1,1.09.35l-.45,1.24a6.16,6.16,0,0,0-1.05-.32,4.43,4.43,0,0,0-1-.13q-2.94,0-2.94,3.74a4.44,4.44,0,0,0,.72,2.73A2.5,2.5,0,0,0,140,93a6.41,6.41,0,0,0,2.47-.52V93.8A5.15,5.15,0,0,1,140,94.3Z" style="fill: #314041"/>
    <path d="M144.58,81.88a1,1,0,0,1,.25-.73.84.84,0,0,1,.62-.23.88.88,0,0,1,.6.23,1.17,1.17,0,0,1,0,1.47.9.9,0,0,1-1.22,0A1,1,0,0,1,144.58,81.88Zm1.59,12.25h-1.46V84.49h1.46Z" style="fill: #314041"/>
    <path d="M157.57,89.3A5.32,5.32,0,0,1,156.39,93a4.19,4.19,0,0,1-3.28,1.32,4.35,4.35,0,0,1-2.29-.6A4,4,0,0,1,149.27,92a6.13,6.13,0,0,1-.55-2.66,5.34,5.34,0,0,1,1.18-3.67,4.2,4.2,0,0,1,3.27-1.31,4.08,4.08,0,0,1,3.21,1.34A5.27,5.27,0,0,1,157.57,89.3Zm-7.33,0a4.57,4.57,0,0,0,.73,2.81,2.56,2.56,0,0,0,2.17,1,2.59,2.59,0,0,0,2.18-1,4.58,4.58,0,0,0,.74-2.82,4.53,4.53,0,0,0-.74-2.79,2.63,2.63,0,0,0-2.19-1,2.57,2.57,0,0,0-2.17.94A4.57,4.57,0,0,0,150.24,89.3Zm1.68-6.3a14.74,14.74,0,0,0,.91-1.32,14,14,0,0,0,.77-1.34h1.78v.18a13.61,13.61,0,0,1-1.15,1.41,13.8,13.8,0,0,1-1.33,1.29h-1Z" style="fill: #314041"/>
    <path d="M166.72,94.13V87.9a2.54,2.54,0,0,0-.53-1.76,2.18,2.18,0,0,0-1.68-.58,2.76,2.76,0,0,0-2.22.82,4.09,4.09,0,0,0-.7,2.69v5.06h-1.46V84.49h1.19l.24,1.32h.07a2.92,2.92,0,0,1,1.25-1.1,4.1,4.1,0,0,1,1.8-.39,3.65,3.65,0,0,1,2.62.84,3.54,3.54,0,0,1,.88,2.68v6.29Z" style="fill: #314041"/>
    <path d="M184.17,89.3A5.32,5.32,0,0,1,183,93a4.18,4.18,0,0,1-3.28,1.32,4.37,4.37,0,0,1-2.29-.6A4.1,4.1,0,0,1,175.86,92a6.13,6.13,0,0,1-.54-2.66,5.29,5.29,0,0,1,1.18-3.67,4.17,4.17,0,0,1,3.27-1.31A4.11,4.11,0,0,1,183,85.66,5.32,5.32,0,0,1,184.17,89.3Zm-7.34,0a4.57,4.57,0,0,0,.74,2.81,2.92,2.92,0,0,0,4.34,0,4.52,4.52,0,0,0,.75-2.82,4.46,4.46,0,0,0-.75-2.79,2.61,2.61,0,0,0-2.19-1,2.57,2.57,0,0,0-2.16.94A4.5,4.5,0,0,0,176.83,89.3Z" style="fill: #314041"/>
    <path d="M88.54,115.73l-3.66-9.64h1.56l2.08,5.72a24.84,24.84,0,0,1,.82,2.6h.07c.07-.31.27-1,.62-1.93s1.11-3.1,2.3-6.39H93.9l-3.66,9.64Z" style="fill: #314041"/>
    <path d="M103.76,110.9a5.32,5.32,0,0,1-1.19,3.68,4.18,4.18,0,0,1-3.28,1.32,4.37,4.37,0,0,1-2.29-.6,4.1,4.1,0,0,1-1.55-1.74,6.13,6.13,0,0,1-.54-2.66,5.29,5.29,0,0,1,1.18-3.67,4.17,4.17,0,0,1,3.27-1.31,4.11,4.11,0,0,1,3.21,1.34A5.32,5.32,0,0,1,103.76,110.9Zm-7.34,0a4.57,4.57,0,0,0,.74,2.81,2.54,2.54,0,0,0,2.17,1,2.57,2.57,0,0,0,2.17-1,4.52,4.52,0,0,0,.75-2.82,4.46,4.46,0,0,0-.75-2.79,2.61,2.61,0,0,0-2.19-1,2.57,2.57,0,0,0-2.16.94A4.5,4.5,0,0,0,96.42,110.9Z" style="fill: #314041"/>
    <path d="M107.78,115.73h-1.46V102.05h1.46Z" style="fill: #314041"/>
    <path d="M113,115.73l-3.66-9.64h1.57l2.07,5.72c.47,1.33.74,2.2.83,2.6h.07a17,17,0,0,1,.61-1.93c.34-1,1.11-3.1,2.31-6.39h1.56l-3.66,9.64Z" style="fill: #314041"/>
    <path d="M119.76,103.48a1,1,0,0,1,.25-.73.83.83,0,0,1,.61-.23.89.89,0,0,1,.61.23,1.17,1.17,0,0,1,0,1.47.85.85,0,0,1-.61.24.84.84,0,0,1-.61-.24A1,1,0,0,1,119.76,103.48Zm1.59,12.25h-1.46v-9.64h1.46Z" style="fill: #314041"/>
    <path d="M128.51,115.9a4.4,4.4,0,0,1-3.37-1.3A5,5,0,0,1,123.9,111a5.55,5.55,0,0,1,1.15-3.7,3.81,3.81,0,0,1,3.08-1.37,3.66,3.66,0,0,1,2.87,1.19,4.57,4.57,0,0,1,1.05,3.14v.92h-6.64a3.84,3.84,0,0,0,.86,2.58,3,3,0,0,0,2.29.88,7.85,7.85,0,0,0,3.08-.65v1.3a8.35,8.35,0,0,1-1.47.48A8.72,8.72,0,0,1,128.51,115.9Zm-.4-8.76a2.37,2.37,0,0,0-1.85.76,3.46,3.46,0,0,0-.81,2.09h5a3.23,3.23,0,0,0-.62-2.12A2.17,2.17,0,0,0,128.11,107.14Z" style="fill: #314041"/>
    <path d="M141.13,115.73V109.5a2.49,2.49,0,0,0-.54-1.76,2.15,2.15,0,0,0-1.68-.58,2.75,2.75,0,0,0-2.21.82,4.09,4.09,0,0,0-.7,2.69v5.06h-1.46v-9.64h1.18l.24,1.32H136a3,3,0,0,1,1.26-1.1,4.1,4.1,0,0,1,1.8-.39,3.67,3.67,0,0,1,2.62.84,3.54,3.54,0,0,1,.88,2.68v6.29Z" style="fill: #314041"/>
    <path d="M152.14,114.44h-.08a3.43,3.43,0,0,1-3,1.46,3.58,3.58,0,0,1-2.94-1.29,5.69,5.69,0,0,1-1-3.67,5.8,5.8,0,0,1,1-3.7,3.57,3.57,0,0,1,2.94-1.32,3.5,3.5,0,0,1,3,1.42h.11l-.06-.69,0-.68v-3.92h1.46v13.68h-1.18Zm-2.92.24a2.67,2.67,0,0,0,2.17-.81,4.11,4.11,0,0,0,.67-2.63v-.3a4.82,4.82,0,0,0-.68-2.93,2.58,2.58,0,0,0-2.17-.87,2.24,2.24,0,0,0-2,1,5,5,0,0,0-.68,2.81,4.76,4.76,0,0,0,.68,2.79A2.28,2.28,0,0,0,149.22,114.68Z" style="fill: #314041"/>
    <path d="M164.93,110.9a5.32,5.32,0,0,1-1.19,3.68,4.17,4.17,0,0,1-3.27,1.32,4.38,4.38,0,0,1-2.3-.6,4.1,4.1,0,0,1-1.55-1.74,6.13,6.13,0,0,1-.54-2.66,5.29,5.29,0,0,1,1.18-3.67,4.17,4.17,0,0,1,3.27-1.31,4.09,4.09,0,0,1,3.21,1.34A5.32,5.32,0,0,1,164.93,110.9Zm-7.34,0a4.57,4.57,0,0,0,.74,2.81,2.55,2.55,0,0,0,2.17,1,2.59,2.59,0,0,0,2.18-1,4.58,4.58,0,0,0,.74-2.82,4.53,4.53,0,0,0-.74-2.79,2.64,2.64,0,0,0-2.2-1,2.57,2.57,0,0,0-2.16.94A4.5,4.5,0,0,0,157.59,110.9Z" style="fill: #314041"/>
    <path d="M178.09,115.73l-.29-1.37h-.07a4,4,0,0,1-1.44,1.22,4.28,4.28,0,0,1-1.79.32,3.17,3.17,0,0,1-2.24-.74,2.66,2.66,0,0,1-.82-2.1q0-2.91,4.67-3l1.63-.06v-.59a2.48,2.48,0,0,0-.48-1.68,2,2,0,0,0-1.56-.54,6.41,6.41,0,0,0-2.73.74l-.45-1.12a7.12,7.12,0,0,1,3.26-.82,3.7,3.7,0,0,1,2.56.76,3.21,3.21,0,0,1,.83,2.45v6.58Zm-3.3-1a3,3,0,0,0,2.14-.75,2.75,2.75,0,0,0,.78-2.09V111l-1.46.06a5.28,5.28,0,0,0-2.51.54,1.64,1.64,0,0,0-.77,1.49,1.52,1.52,0,0,0,.48,1.21A2,2,0,0,0,174.79,114.7Z" style="fill: #314041"/>
    <path d="M183.63,115.73h-1.46V102.05h1.46Z" style="fill: #314041"/>
    <path d="M91.77,137.5a4.15,4.15,0,0,1-3.24-1.28,5.34,5.34,0,0,1-1.15-3.65,5.43,5.43,0,0,1,1.17-3.73,4.18,4.18,0,0,1,3.32-1.32,6.64,6.64,0,0,1,1.39.15,4.51,4.51,0,0,1,1.09.35l-.45,1.24a6.57,6.57,0,0,0-1.06-.32,4.43,4.43,0,0,0-1-.13c-2,0-2.93,1.25-2.93,3.74a4.44,4.44,0,0,0,.71,2.73,2.51,2.51,0,0,0,2.13.95,6.36,6.36,0,0,0,2.46-.52V137A5.15,5.15,0,0,1,91.77,137.5Z" style="fill: #314041"/>
    <path d="M100.88,127.52a5.83,5.83,0,0,1,1.16.1l-.21,1.36a4.76,4.76,0,0,0-1-.13,2.56,2.56,0,0,0-2,.94,3.51,3.51,0,0,0-.83,2.37v5.17H96.49v-9.64h1.2l.17,1.79h.07A4.27,4.27,0,0,1,99.22,128,2.93,2.93,0,0,1,100.88,127.52Z" style="fill: #314041"/>
    <path d="M107.91,137.5a4.4,4.4,0,0,1-3.37-1.3,5,5,0,0,1-1.24-3.61,5.55,5.55,0,0,1,1.15-3.7,3.81,3.81,0,0,1,3.08-1.37,3.63,3.63,0,0,1,2.86,1.19,4.52,4.52,0,0,1,1.06,3.14v.92h-6.64a3.86,3.86,0,0,0,.86,2.58,3,3,0,0,0,2.29.88,7.85,7.85,0,0,0,3.08-.65v1.3a8.35,8.35,0,0,1-1.47.48A8.72,8.72,0,0,1,107.91,137.5Zm-.4-8.76a2.37,2.37,0,0,0-1.85.76,3.46,3.46,0,0,0-.81,2.09h5a3.23,3.23,0,0,0-.61-2.12A2.17,2.17,0,0,0,107.51,128.74Z" style="fill: #314041"/>
    <path d="M117.79,137.5a4.12,4.12,0,0,1-3.24-1.28,5.29,5.29,0,0,1-1.15-3.65,5.48,5.48,0,0,1,1.16-3.73,4.21,4.21,0,0,1,3.32-1.32,6.5,6.5,0,0,1,1.39.15,4.36,4.36,0,0,1,1.09.35l-.45,1.24a6.16,6.16,0,0,0-1-.32,4.43,4.43,0,0,0-1-.13q-2.94,0-2.94,3.74a4.44,4.44,0,0,0,.72,2.73,2.5,2.5,0,0,0,2.12.95,6.41,6.41,0,0,0,2.47-.52V137A5.18,5.18,0,0,1,117.79,137.5Z" style="fill: #314041"/>
    <path d="M122.38,125.08a1,1,0,0,1,.25-.73.83.83,0,0,1,.61-.23.89.89,0,0,1,.61.23,1.17,1.17,0,0,1,0,1.47.85.85,0,0,1-.61.24.84.84,0,0,1-.61-.24A1,1,0,0,1,122.38,125.08ZM124,137.33h-1.45v-9.64H124Z" style="fill: #314041"/>
    <path d="M139.34,137.33v-6.27a2.61,2.61,0,0,0-.5-1.73,1.88,1.88,0,0,0-1.52-.57,2.49,2.49,0,0,0-2,.78,3.73,3.73,0,0,0-.65,2.41v5.38h-1.46v-6.27a2.61,2.61,0,0,0-.49-1.73,1.93,1.93,0,0,0-1.54-.57,2.39,2.39,0,0,0-2,.82,4.47,4.47,0,0,0-.63,2.69v5.06h-1.46v-9.64h1.18l.24,1.32h.07a3,3,0,0,1,1.17-1.1,3.59,3.59,0,0,1,1.68-.39,2.85,2.85,0,0,1,2.95,1.63h.07a3.12,3.12,0,0,1,1.25-1.19,3.81,3.81,0,0,1,1.86-.44,3.26,3.26,0,0,1,2.45.84,3.75,3.75,0,0,1,.82,2.68v6.29Z" style="fill: #314041"/>
    <path d="M143.68,125.08a1,1,0,0,1,.24-.73.85.85,0,0,1,.62-.23.91.91,0,0,1,.61.23,1.21,1.21,0,0,1,0,1.47.87.87,0,0,1-.61.24.86.86,0,0,1-.62-.24A1,1,0,0,1,143.68,125.08Zm1.58,12.25H143.8v-9.64h1.46Z" style="fill: #314041"/>
    <path d="M152.42,137.5a4.43,4.43,0,0,1-3.37-1.3,5,5,0,0,1-1.23-3.61,5.6,5.6,0,0,1,1.14-3.7,3.85,3.85,0,0,1,3.09-1.37,3.64,3.64,0,0,1,2.86,1.19,4.57,4.57,0,0,1,1.06,3.14v.92h-6.64a3.81,3.81,0,0,0,.86,2.58,2.94,2.94,0,0,0,2.29.88,7.8,7.8,0,0,0,3.07-.65v1.3a8,8,0,0,1-1.46.48A8.83,8.83,0,0,1,152.42,137.5Zm-.39-8.76a2.36,2.36,0,0,0-1.85.76,3.52,3.52,0,0,0-.82,2.09h5a3.23,3.23,0,0,0-.61-2.12A2.17,2.17,0,0,0,152,128.74Z" style="fill: #314041"/>
    <path d="M165,137.33V131.1a2.49,2.49,0,0,0-.53-1.76,2.18,2.18,0,0,0-1.68-.58,2.79,2.79,0,0,0-2.22.81,4.2,4.2,0,0,0-.7,2.7v5.06h-1.46v-9.64h1.19l.24,1.32H160a3,3,0,0,1,1.25-1.1,4.11,4.11,0,0,1,1.81-.39,3.62,3.62,0,0,1,2.61.84,3.54,3.54,0,0,1,.88,2.68v6.29Z" style="fill: #314041"/>
    <path d="M172.61,136.3a4.56,4.56,0,0,0,.75-.06,5.41,5.41,0,0,0,.57-.12v1.12a2.94,2.94,0,0,1-.7.19,5.16,5.16,0,0,1-.83.07q-2.79,0-2.79-2.94v-5.73h-1.38v-.71l1.38-.6.61-2.06h.85v2.23h2.79v1.14h-2.79v5.67a1.91,1.91,0,0,0,.41,1.33A1.43,1.43,0,0,0,172.61,136.3Z" style="fill: #314041"/>
    <path d="M184.17,132.5a5.32,5.32,0,0,1-1.19,3.68,4.18,4.18,0,0,1-3.28,1.32,4.37,4.37,0,0,1-2.29-.6,4.1,4.1,0,0,1-1.55-1.74,6.13,6.13,0,0,1-.54-2.66,5.29,5.29,0,0,1,1.18-3.67,4.17,4.17,0,0,1,3.27-1.31,4.11,4.11,0,0,1,3.21,1.34A5.32,5.32,0,0,1,184.17,132.5Zm-7.34,0a4.57,4.57,0,0,0,.74,2.81,2.92,2.92,0,0,0,4.34,0,4.52,4.52,0,0,0,.75-2.82,4.46,4.46,0,0,0-.75-2.79,2.61,2.61,0,0,0-2.19-1,2.57,2.57,0,0,0-2.16.94A4.48,4.48,0,0,0,176.83,132.5Z" style="fill: #314041"/>
  </g>
  <g>
    <path d="M198.69,226.12a3.9,3.9,0,0,1-.87,2.69,3,3,0,0,1-2.41,1,3.08,3.08,0,0,1-2.43-1,4.72,4.72,0,0,1,0-5.43,3.12,3.12,0,0,1,2.44-1,3.06,3.06,0,0,1,2.41,1A4,4,0,0,1,198.69,226.12Zm-5.69,0a3.41,3.41,0,0,0,.62,2.2,2.21,2.21,0,0,0,1.79.74,2.17,2.17,0,0,0,1.8-.74,4.32,4.32,0,0,0,0-4.39,2.15,2.15,0,0,0-1.79-.74,2.19,2.19,0,0,0-1.8.75A3.35,3.35,0,0,0,193,226.12Z" style="fill: #304041"/>
    <path d="M202.6,224.25a4.06,4.06,0,0,1,.64.05l-.11.76a2.75,2.75,0,0,0-.59-.08,1.44,1.44,0,0,0-1.11.53,2,2,0,0,0-.46,1.31v2.87h-.81v-5.35h.67l.09,1h0a2.44,2.44,0,0,1,.72-.8A1.61,1.61,0,0,1,202.6,224.25Z" style="fill: #304041"/>
    <path d="M208.62,224.34v.52l-1,.11a2.33,2.33,0,0,1,.25.45,1.72,1.72,0,0,1,.1.62,1.62,1.62,0,0,1-.53,1.26,2.19,2.19,0,0,1-1.48.47,3.14,3.14,0,0,1-.45,0,.8.8,0,0,0-.52.69.36.36,0,0,0,.19.32,1.29,1.29,0,0,0,.62.11h.94a2.16,2.16,0,0,1,1.34.36,1.28,1.28,0,0,1,.46,1.07,1.5,1.5,0,0,1-.71,1.35,3.81,3.81,0,0,1-2.08.47,2.85,2.85,0,0,1-1.62-.39,1.27,1.27,0,0,1-.57-1.11,1.24,1.24,0,0,1,.32-.84,1.58,1.58,0,0,1,.88-.49.8.8,0,0,1-.35-.28.78.78,0,0,1-.14-.46.84.84,0,0,1,.16-.51,1.49,1.49,0,0,1,.49-.42,1.53,1.53,0,0,1-.68-.59,1.71,1.71,0,0,1-.26-.93,1.75,1.75,0,0,1,.53-1.36,2.14,2.14,0,0,1,1.5-.47,2.86,2.86,0,0,1,.75.09Zm-4.26,6.25a.73.73,0,0,0,.36.66,2,2,0,0,0,1.05.23,2.84,2.84,0,0,0,1.51-.31.93.93,0,0,0,.49-.83.65.65,0,0,0-.27-.6,2.07,2.07,0,0,0-1-.17h-1a1.27,1.27,0,0,0-.86.27A.93.93,0,0,0,204.36,230.59Zm.43-4.53a1.12,1.12,0,0,0,.32.85,1.28,1.28,0,0,0,.89.28,1,1,0,0,0,1.18-1.15,1.06,1.06,0,0,0-1.2-1.2,1.22,1.22,0,0,0-.88.3A1.28,1.28,0,0,0,204.79,226.06Z" style="fill: #304041"/>
    <path d="M213,229.69l-.16-.76h0a2,2,0,0,1-.8.68,2.37,2.37,0,0,1-1,.18,1.76,1.76,0,0,1-1.25-.41,1.48,1.48,0,0,1-.45-1.16c0-1.09.87-1.65,2.59-1.7l.91,0v-.34a1.36,1.36,0,0,0-.27-.93,1.12,1.12,0,0,0-.87-.3,3.58,3.58,0,0,0-1.51.41l-.25-.62a3.92,3.92,0,0,1,.87-.33,3.79,3.79,0,0,1,.94-.12,2.06,2.06,0,0,1,1.42.42,1.76,1.76,0,0,1,.46,1.36v3.65Zm-1.83-.57a1.63,1.63,0,0,0,1.19-.41,1.54,1.54,0,0,0,.43-1.16v-.49l-.81,0a2.87,2.87,0,0,0-1.39.3.89.89,0,0,0-.43.83.81.81,0,0,0,.27.66A1,1,0,0,0,211.18,229.12Z" style="fill: #304041"/>
    <path d="M219,229.69v-3.46a1.37,1.37,0,0,0-.3-1,1.21,1.21,0,0,0-.94-.33,1.56,1.56,0,0,0-1.23.46,2.29,2.29,0,0,0-.39,1.5v2.8h-.81v-5.35h.66l.13.74h0a1.69,1.69,0,0,1,.7-.62,2.33,2.33,0,0,1,1-.21,2,2,0,0,1,1.46.46,2,2,0,0,1,.49,1.49v3.49Z" style="fill: #304041"/>
    <path d="M221.35,222.89a.52.52,0,0,1,.14-.4.45.45,0,0,1,.34-.13.48.48,0,0,1,.34.13.54.54,0,0,1,.14.4.55.55,0,0,1-.14.41.49.49,0,0,1-.34.14.46.46,0,0,1-.34-.14A.55.55,0,0,1,221.35,222.89Zm.88,6.8h-.81v-5.35h.81Z" style="fill: #304041"/>
    <path d="M227.37,229.69h-3.88v-.55l2.92-4.17h-2.74v-.63h3.63V225l-2.88,4.09h3Z" style="fill: #304041"/>
    <path d="M231.92,229.69l-.16-.76h0a2.11,2.11,0,0,1-.8.68,2.4,2.4,0,0,1-1,.18,1.76,1.76,0,0,1-1.25-.41,1.48,1.48,0,0,1-.45-1.16c0-1.09.86-1.65,2.59-1.7l.91,0v-.34a1.36,1.36,0,0,0-.27-.93,1.12,1.12,0,0,0-.87-.3,3.54,3.54,0,0,0-1.51.41l-.25-.62a3.91,3.91,0,0,1,1.81-.45,2.06,2.06,0,0,1,1.42.42,1.76,1.76,0,0,1,.46,1.36v3.65Zm-1.83-.57a1.64,1.64,0,0,0,1.19-.41,1.54,1.54,0,0,0,.43-1.16v-.49l-.81,0a2.91,2.91,0,0,0-1.4.3.9.9,0,0,0-.42.83.84.84,0,0,0,.26.66A1.09,1.09,0,0,0,230.09,229.12Z" style="fill: #304041"/>
    <path d="M236.33,229.79a2.29,2.29,0,0,1-1.8-.71,2.93,2.93,0,0,1-.64-2,3,3,0,0,1,.65-2.07,2.31,2.31,0,0,1,1.84-.73,3.3,3.3,0,0,1,.77.08,2.6,2.6,0,0,1,.61.19l-.25.69a4.12,4.12,0,0,0-.59-.18,3.05,3.05,0,0,0-.56-.07c-1.08,0-1.63.7-1.63,2.08a2.46,2.46,0,0,0,.4,1.52,1.38,1.38,0,0,0,1.18.52,3.65,3.65,0,0,0,1.37-.28v.71A2.87,2.87,0,0,1,236.33,229.79Z" style="fill: #304041"/>
    <path d="M238.88,222.89a.52.52,0,0,1,.14-.4.45.45,0,0,1,.34-.13.48.48,0,0,1,.34.13.54.54,0,0,1,.14.4.55.55,0,0,1-.14.41.49.49,0,0,1-.34.14.46.46,0,0,1-.34-.14A.55.55,0,0,1,238.88,222.89Zm.88,6.8H239v-5.35h.81Z" style="fill: #304041"/>
    <path d="M246.1,227a3,3,0,0,1-.66,2.05,2.32,2.32,0,0,1-1.82.73,2.46,2.46,0,0,1-1.28-.33,2.32,2.32,0,0,1-.86-1,3.4,3.4,0,0,1-.3-1.48,2.9,2.9,0,0,1,.66-2,2.29,2.29,0,0,1,1.81-.73,2.26,2.26,0,0,1,1.79.74A2.94,2.94,0,0,1,246.1,227ZM242,227a2.58,2.58,0,0,0,.41,1.57,1.44,1.44,0,0,0,1.21.53,1.43,1.43,0,0,0,1.21-.53,2.58,2.58,0,0,0,.41-1.57,2.53,2.53,0,0,0-.41-1.55,1.48,1.48,0,0,0-1.22-.53,1.43,1.43,0,0,0-1.2.53A2.47,2.47,0,0,0,242,227Z" style="fill: #304041"/>
    <path d="M251.18,229.69v-3.46a1.37,1.37,0,0,0-.3-1,1.18,1.18,0,0,0-.93-.33,1.55,1.55,0,0,0-1.23.46,2.29,2.29,0,0,0-.39,1.5v2.8h-.81v-5.35h.66l.13.74h0a1.69,1.69,0,0,1,.7-.62,2.33,2.33,0,0,1,1-.21,2,2,0,0,1,1.45.46,2,2,0,0,1,.49,1.49v3.49Z" style="fill: #304041"/>
    <path d="M255.92,229.79a2.45,2.45,0,0,1-1.87-.72,2.79,2.79,0,0,1-.69-2A3.07,3.07,0,0,1,254,225a2.09,2.09,0,0,1,1.71-.76,2,2,0,0,1,1.59.66,2.53,2.53,0,0,1,.59,1.74v.52H254.2a2.17,2.17,0,0,0,.47,1.43,1.69,1.69,0,0,0,1.28.48,4.38,4.38,0,0,0,1.71-.36v.73a4.28,4.28,0,0,1-.82.26A4.09,4.09,0,0,1,255.92,229.79Zm-.22-4.87a1.33,1.33,0,0,0-1,.42,1.89,1.89,0,0,0-.45,1.17H257a1.79,1.79,0,0,0-.35-1.18A1.19,1.19,0,0,0,255.7,224.92Z" style="fill: #304041"/>
    <path d="M262.72,228.23a1.36,1.36,0,0,1-.56,1.16,2.61,2.61,0,0,1-1.56.4,3.46,3.46,0,0,1-1.66-.33v-.76a3.74,3.74,0,0,0,.83.31,3.2,3.2,0,0,0,.85.11,1.91,1.91,0,0,0,1-.2.68.68,0,0,0,.34-.62.66.66,0,0,0-.27-.53,4.57,4.57,0,0,0-1.06-.53,5.26,5.26,0,0,1-1.06-.48,1.5,1.5,0,0,1-.47-.47,1.28,1.28,0,0,1-.15-.63,1.2,1.2,0,0,1,.53-1,2.48,2.48,0,0,1,1.46-.37,4.2,4.2,0,0,1,1.69.35l-.29.66a3.92,3.92,0,0,0-1.46-.34,1.61,1.61,0,0,0-.87.19.54.54,0,0,0-.29.49.56.56,0,0,0,.11.37,1.06,1.06,0,0,0,.35.29,8,8,0,0,0,.94.39,3.52,3.52,0,0,1,1.28.7A1.21,1.21,0,0,1,262.72,228.23Z" style="fill: #304041"/>
    <path d="M210.67,241.69v-3.48a1.48,1.48,0,0,0-.27-1,1.07,1.07,0,0,0-.85-.32,1.37,1.37,0,0,0-1.12.44,2.06,2.06,0,0,0-.36,1.34v3h-.81v-3.48a1.48,1.48,0,0,0-.27-1,1.09,1.09,0,0,0-.86-.32,1.35,1.35,0,0,0-1.12.46,2.51,2.51,0,0,0-.35,1.5v2.8h-.81v-5.35h.66l.13.74h0a1.53,1.53,0,0,1,.65-.61,1.93,1.93,0,0,1,.93-.22,1.58,1.58,0,0,1,1.64.9h0a1.66,1.66,0,0,1,.7-.66,2.15,2.15,0,0,1,1-.24,1.81,1.81,0,0,1,1.36.46,2.09,2.09,0,0,1,.45,1.49v3.49Z" style="fill: #304041"/>
    <path d="M216.44,241.69l-.16-.76h0a2.09,2.09,0,0,1-.79.68,2.45,2.45,0,0,1-1,.18,1.76,1.76,0,0,1-1.25-.41,1.48,1.48,0,0,1-.45-1.16c0-1.09.87-1.65,2.59-1.7l.91,0v-.34a1.36,1.36,0,0,0-.27-.93,1.12,1.12,0,0,0-.87-.3,3.58,3.58,0,0,0-1.51.41l-.25-.62a4.12,4.12,0,0,1,.87-.33,3.79,3.79,0,0,1,.94-.12,2,2,0,0,1,1.42.42A1.76,1.76,0,0,1,217,238v3.65Zm-1.83-.57a1.63,1.63,0,0,0,1.19-.41,1.54,1.54,0,0,0,.43-1.16v-.49l-.81,0a2.87,2.87,0,0,0-1.39.3.89.89,0,0,0-.43.83.81.81,0,0,0,.27.66A1,1,0,0,0,214.61,241.12Zm-.19-5.61a7.49,7.49,0,0,0,.51-.73,6.87,6.87,0,0,0,.42-.75h1v.11a7.47,7.47,0,0,1-.64.78,6.83,6.83,0,0,1-.74.72h-.54Z" style="fill: #304041"/>
    <path d="M222.17,240.23a1.36,1.36,0,0,1-.56,1.16,2.61,2.61,0,0,1-1.56.4,3.44,3.44,0,0,1-1.66-.33v-.76a3.66,3.66,0,0,0,.82.31,3.27,3.27,0,0,0,.86.11,1.85,1.85,0,0,0,1-.2.7.7,0,0,0,.07-1.15,4.44,4.44,0,0,0-1.05-.53,5.41,5.41,0,0,1-1.07-.48,1.46,1.46,0,0,1-.46-.47,1.18,1.18,0,0,1-.16-.63,1.23,1.23,0,0,1,.53-1,2.53,2.53,0,0,1,1.46-.37,4.16,4.16,0,0,1,1.69.35l-.28.66a4,4,0,0,0-1.46-.34,1.56,1.56,0,0,0-.87.19.55.55,0,0,0-.3.49.62.62,0,0,0,.11.37,1.11,1.11,0,0,0,.36.29,7.61,7.61,0,0,0,.93.39,3.5,3.5,0,0,1,1.29.7A1.26,1.26,0,0,1,222.17,240.23Z" style="fill: #304041"/>
    <path d="M229.37,241.69l-.16-.76h0a2,2,0,0,1-.8.68,2.37,2.37,0,0,1-1,.18,1.76,1.76,0,0,1-1.25-.41,1.48,1.48,0,0,1-.45-1.16c0-1.09.87-1.65,2.59-1.7l.91,0v-.34a1.36,1.36,0,0,0-.27-.93,1.12,1.12,0,0,0-.87-.3,3.58,3.58,0,0,0-1.51.41l-.25-.62a3.92,3.92,0,0,1,.87-.33,3.79,3.79,0,0,1,.94-.12,2.06,2.06,0,0,1,1.42.42A1.76,1.76,0,0,1,230,238v3.65Zm-1.83-.57a1.63,1.63,0,0,0,1.19-.41,1.54,1.54,0,0,0,.43-1.16v-.49l-.81,0a2.87,2.87,0,0,0-1.39.3.89.89,0,0,0-.43.83.81.81,0,0,0,.27.66A1,1,0,0,0,227.54,241.12Zm-.19-5.61a7.49,7.49,0,0,0,.51-.73,6.87,6.87,0,0,0,.42-.75h1v.11a7.47,7.47,0,0,1-.64.78,6.83,6.83,0,0,1-.74.72h-.54Z" style="fill: #304041"/>
    <path d="M236,236.34v.52l-1,.11a2.33,2.33,0,0,1,.25.45,1.72,1.72,0,0,1,.1.62,1.62,1.62,0,0,1-.53,1.26,2.19,2.19,0,0,1-1.48.47,3.14,3.14,0,0,1-.45,0,.79.79,0,0,0-.51.69.35.35,0,0,0,.18.32,1.29,1.29,0,0,0,.62.11h.94a2.16,2.16,0,0,1,1.34.36,1.28,1.28,0,0,1,.46,1.07,1.5,1.5,0,0,1-.71,1.35,3.81,3.81,0,0,1-2.08.47,2.85,2.85,0,0,1-1.62-.39,1.27,1.27,0,0,1-.57-1.11,1.24,1.24,0,0,1,.32-.84,1.58,1.58,0,0,1,.88-.49.8.8,0,0,1-.35-.28.78.78,0,0,1-.14-.46.84.84,0,0,1,.16-.51,1.49,1.49,0,0,1,.49-.42,1.46,1.46,0,0,1-.67-.59,1.64,1.64,0,0,1-.27-.93,1.75,1.75,0,0,1,.53-1.36,2.14,2.14,0,0,1,1.5-.47,2.86,2.86,0,0,1,.75.09Zm-4.26,6.25a.73.73,0,0,0,.36.66,2,2,0,0,0,1,.23,2.84,2.84,0,0,0,1.51-.31.93.93,0,0,0,.49-.83.66.66,0,0,0-.26-.6,2.14,2.14,0,0,0-1-.17h-1a1.27,1.27,0,0,0-.86.27A.93.93,0,0,0,231.76,242.59Zm.44-4.53a1.11,1.11,0,0,0,.31.85,1.28,1.28,0,0,0,.89.28,1,1,0,0,0,1.18-1.15,1.06,1.06,0,0,0-1.2-1.2,1.22,1.22,0,0,0-.88.3A1.27,1.27,0,0,0,232.2,238.06Z" style="fill: #304041"/>
    <path d="M237.05,234.89a.52.52,0,0,1,.14-.4.47.47,0,0,1,.34-.13.48.48,0,0,1,.34.13.54.54,0,0,1,.14.4.55.55,0,0,1-.14.41.49.49,0,0,1-.34.14.48.48,0,0,1-.34-.14A.55.55,0,0,1,237.05,234.89Zm.88,6.8h-.81v-5.35h.81Z" style="fill: #304041"/>
    <path d="M240.46,241.69h-.81V234.1h.81Z" style="fill: #304041"/>
    <path d="M244.44,241.79a2.46,2.46,0,0,1-1.87-.72,2.79,2.79,0,0,1-.69-2,3.07,3.07,0,0,1,.64-2.05,2.11,2.11,0,0,1,1.71-.76,2,2,0,0,1,1.59.66,2.53,2.53,0,0,1,.59,1.74v.52h-3.69a2.17,2.17,0,0,0,.48,1.43,1.65,1.65,0,0,0,1.27.48,4.3,4.3,0,0,0,1.71-.36v.73a4.43,4.43,0,0,1-.81.26A4.24,4.24,0,0,1,244.44,241.79Zm-.22-4.87a1.33,1.33,0,0,0-1,.42,2,2,0,0,0-.45,1.17h2.8a1.79,1.79,0,0,0-.34-1.18A1.22,1.22,0,0,0,244.22,236.92Z" style="fill: #304041"/>
    <path d="M251.24,240.23a1.35,1.35,0,0,1-.55,1.16,2.64,2.64,0,0,1-1.57.4,3.46,3.46,0,0,1-1.66-.33v-.76a3.94,3.94,0,0,0,.83.31,3.25,3.25,0,0,0,.85.11,1.89,1.89,0,0,0,1-.2.7.7,0,0,0,.07-1.15,4.36,4.36,0,0,0-1.06-.53,5.55,5.55,0,0,1-1.06-.48,1.5,1.5,0,0,1-.47-.47,1.28,1.28,0,0,1-.15-.63,1.23,1.23,0,0,1,.53-1,2.51,2.51,0,0,1,1.46-.37,4.16,4.16,0,0,1,1.69.35l-.29.66a3.88,3.88,0,0,0-1.46-.34,1.61,1.61,0,0,0-.87.19.56.56,0,0,0-.29.49.62.62,0,0,0,.11.37,1.06,1.06,0,0,0,.35.29,8.83,8.83,0,0,0,.94.39,3.5,3.5,0,0,1,1.29.7A1.25,1.25,0,0,1,251.24,240.23Z" style="fill: #304041"/>
  </g>
  <g>
    <path d="M275.86,226.12a4,4,0,0,1-.86,2.69,3,3,0,0,1-2.41,1,3.12,3.12,0,0,1-2.44-1,4,4,0,0,1-.85-2.72,3.89,3.89,0,0,1,.86-2.71,3.09,3.09,0,0,1,2.44-1,3.05,3.05,0,0,1,2.4,1A3.91,3.91,0,0,1,275.86,226.12Zm-5.68,0a3.41,3.41,0,0,0,.61,2.2,2.23,2.23,0,0,0,1.8.74,2.15,2.15,0,0,0,1.79-.74,4.25,4.25,0,0,0,0-4.39,2.13,2.13,0,0,0-1.78-.74,2.23,2.23,0,0,0-1.81.75A3.35,3.35,0,0,0,270.18,226.12Z" style="fill: #304041"/>
    <path d="M279.78,224.25a3.93,3.93,0,0,1,.63.05l-.11.76a2.67,2.67,0,0,0-.58-.08,1.41,1.41,0,0,0-1.11.53,1.91,1.91,0,0,0-.46,1.31v2.87h-.82v-5.35H278l.1,1h0a2.31,2.31,0,0,1,.71-.8A1.62,1.62,0,0,1,279.78,224.25Z" style="fill: #304041"/>
    <path d="M285.8,224.34v.52l-1,.11a1.89,1.89,0,0,1,.24.45,1.71,1.71,0,0,1,.11.62,1.59,1.59,0,0,1-.54,1.26,2.18,2.18,0,0,1-1.47.47,3,3,0,0,1-.45,0,.79.79,0,0,0-.52.69.35.35,0,0,0,.18.32,1.31,1.31,0,0,0,.62.11h.95a2.15,2.15,0,0,1,1.33.36,1.29,1.29,0,0,1,.47,1.07,1.51,1.51,0,0,1-.72,1.35,3.79,3.79,0,0,1-2.08.47,2.84,2.84,0,0,1-1.61-.39,1.27,1.27,0,0,1-.57-1.11,1.23,1.23,0,0,1,.31-.84,1.62,1.62,0,0,1,.88-.49.86.86,0,0,1-.35-.28.78.78,0,0,1-.13-.46.9.9,0,0,1,.15-.51,1.61,1.61,0,0,1,.49-.42,1.46,1.46,0,0,1-.67-.59,1.63,1.63,0,0,1-.26-.93,1.74,1.74,0,0,1,.52-1.36,2.16,2.16,0,0,1,1.5-.47,3,3,0,0,1,.76.09Zm-4.27,6.25a.72.72,0,0,0,.37.66,2,2,0,0,0,1,.23,2.88,2.88,0,0,0,1.52-.31,1,1,0,0,0,.49-.83.65.65,0,0,0-.27-.6,2.12,2.12,0,0,0-1-.17h-1a1.25,1.25,0,0,0-.86.27A.91.91,0,0,0,281.53,230.59Zm.44-4.53a1.08,1.08,0,0,0,.32.85,1.26,1.26,0,0,0,.88.28,1,1,0,0,0,1.19-1.15,1.06,1.06,0,0,0-1.2-1.2,1.19,1.19,0,0,0-.88.3A1.23,1.23,0,0,0,282,226.06Z" style="fill: #304041"/>
    <path d="M290.19,229.69l-.17-.76h0a2.18,2.18,0,0,1-.8.68,2.45,2.45,0,0,1-1,.18,1.74,1.74,0,0,1-1.24-.41,1.49,1.49,0,0,1-.46-1.16c0-1.09.87-1.65,2.6-1.7l.9,0v-.34a1.36,1.36,0,0,0-.26-.93,1.15,1.15,0,0,0-.87-.3,3.62,3.62,0,0,0-1.52.41l-.25-.62a4.12,4.12,0,0,1,.87-.33,3.87,3.87,0,0,1,1-.12,2,2,0,0,1,1.41.42,1.76,1.76,0,0,1,.47,1.36v3.65Zm-1.84-.57a1.61,1.61,0,0,0,1.19-.41,1.54,1.54,0,0,0,.44-1.16v-.49l-.82,0a2.9,2.9,0,0,0-1.39.3.91.91,0,0,0-.43.83.81.81,0,0,0,.27.66A1.08,1.08,0,0,0,288.35,229.12Z" style="fill: #304041"/>
    <path d="M296.12,229.69v-3.46a1.37,1.37,0,0,0-.3-1,1.2,1.2,0,0,0-.93-.33,1.55,1.55,0,0,0-1.23.46,2.29,2.29,0,0,0-.39,1.5v2.8h-.81v-5.35h.66l.13.74h0a1.57,1.57,0,0,1,.7-.62,2.29,2.29,0,0,1,1-.21,2,2,0,0,1,1.45.46,2,2,0,0,1,.49,1.49v3.49Z" style="fill: #304041"/>
    <path d="M298.53,222.89a.52.52,0,0,1,.13-.4.51.51,0,0,1,.68,0,.5.5,0,0,1,.14.4.51.51,0,0,1-.14.41.48.48,0,0,1-.68,0A.55.55,0,0,1,298.53,222.89Zm.88,6.8h-.82v-5.35h.82Z" style="fill: #304041"/>
    <path d="M304.55,229.69h-3.89v-.55l2.92-4.17h-2.74v-.63h3.63V225l-2.88,4.09h3Z" style="fill: #304041"/>
    <path d="M309.09,229.69l-.16-.76h0a2,2,0,0,1-.8.68,2.37,2.37,0,0,1-1,.18,1.76,1.76,0,0,1-1.25-.41,1.48,1.48,0,0,1-.45-1.16c0-1.09.86-1.65,2.59-1.7l.91,0v-.34a1.36,1.36,0,0,0-.27-.93,1.12,1.12,0,0,0-.87-.3,3.58,3.58,0,0,0-1.51.41l-.25-.62a3.74,3.74,0,0,1,.87-.33,3.79,3.79,0,0,1,.94-.12,2.06,2.06,0,0,1,1.42.42,1.76,1.76,0,0,1,.46,1.36v3.65Zm-1.83-.57a1.63,1.63,0,0,0,1.19-.41,1.54,1.54,0,0,0,.43-1.16v-.49l-.81,0a2.87,2.87,0,0,0-1.39.3.89.89,0,0,0-.43.83.81.81,0,0,0,.27.66A1,1,0,0,0,307.26,229.12Z" style="fill: #304041"/>
    <path d="M313.5,229.79a2.32,2.32,0,0,1-1.8-.71,3,3,0,0,1-.63-2,3,3,0,0,1,.64-2.07,2.33,2.33,0,0,1,1.85-.73,3.42,3.42,0,0,1,.77.08,2.5,2.5,0,0,1,.6.19l-.25.69a4.39,4.39,0,0,0-.58-.18,3.16,3.16,0,0,0-.56-.07c-1.09,0-1.63.7-1.63,2.08a2.53,2.53,0,0,0,.39,1.52,1.39,1.39,0,0,0,1.18.52,3.57,3.57,0,0,0,1.37-.28v.71A2.85,2.85,0,0,1,313.5,229.79Z" style="fill: #304041"/>
    <path d="M316.06,222.89a.52.52,0,0,1,.13-.4.51.51,0,0,1,.68,0,.5.5,0,0,1,.14.4.51.51,0,0,1-.14.41.48.48,0,0,1-.68,0A.55.55,0,0,1,316.06,222.89Zm.87,6.8h-.81v-5.35h.81Z" style="fill: #304041"/>
    <path d="M323.27,227a3,3,0,0,1-.66,2.05,2.31,2.31,0,0,1-1.82.73,2.43,2.43,0,0,1-1.27-.33,2.26,2.26,0,0,1-.86-1,3.4,3.4,0,0,1-.31-1.48,2.9,2.9,0,0,1,.66-2,2.3,2.3,0,0,1,1.81-.73,2.26,2.26,0,0,1,1.79.74A2.94,2.94,0,0,1,323.27,227Zm-4.08,0a2.58,2.58,0,0,0,.41,1.57,1.46,1.46,0,0,0,1.21.53,1.43,1.43,0,0,0,1.21-.53,2.58,2.58,0,0,0,.41-1.57,2.53,2.53,0,0,0-.41-1.55,1.46,1.46,0,0,0-1.22-.53,1.43,1.43,0,0,0-1.2.53A2.47,2.47,0,0,0,319.19,227Z" style="fill: #304041"/>
    <path d="M328.35,229.69v-3.46a1.42,1.42,0,0,0-.29-1,1.21,1.21,0,0,0-.94-.33,1.58,1.58,0,0,0-1.23.46,2.29,2.29,0,0,0-.39,1.5v2.8h-.81v-5.35h.66l.13.74h0a1.69,1.69,0,0,1,.7-.62,2.33,2.33,0,0,1,1-.21,2,2,0,0,1,1.46.46,2,2,0,0,1,.48,1.49v3.49Z" style="fill: #304041"/>
    <path d="M333.09,229.79a2.46,2.46,0,0,1-1.87-.72,2.79,2.79,0,0,1-.69-2,3.07,3.07,0,0,1,.64-2.05,2.09,2.09,0,0,1,1.71-.76,2,2,0,0,1,1.59.66,2.53,2.53,0,0,1,.59,1.74v.52h-3.69a2.17,2.17,0,0,0,.48,1.43,1.65,1.65,0,0,0,1.27.48,4.3,4.3,0,0,0,1.71-.36v.73a4.43,4.43,0,0,1-.81.26A4.24,4.24,0,0,1,333.09,229.79Zm-.22-4.87a1.33,1.33,0,0,0-1,.42,2,2,0,0,0-.45,1.17h2.8a1.84,1.84,0,0,0-.34-1.18A1.22,1.22,0,0,0,332.87,224.92Z" style="fill: #304041"/>
    <path d="M339.89,228.23a1.35,1.35,0,0,1-.55,1.16,2.64,2.64,0,0,1-1.57.4,3.46,3.46,0,0,1-1.66-.33v-.76a3.94,3.94,0,0,0,.83.31,3.25,3.25,0,0,0,.85.11,1.89,1.89,0,0,0,1-.2.7.7,0,0,0,.07-1.15,4.36,4.36,0,0,0-1.06-.53,5.55,5.55,0,0,1-1.06-.48,1.5,1.5,0,0,1-.47-.47,1.28,1.28,0,0,1-.15-.63,1.23,1.23,0,0,1,.53-1,2.51,2.51,0,0,1,1.46-.37,4.16,4.16,0,0,1,1.69.35l-.29.66a3.88,3.88,0,0,0-1.46-.34,1.61,1.61,0,0,0-.87.19.56.56,0,0,0-.29.49.62.62,0,0,0,.11.37,1.06,1.06,0,0,0,.35.29,8.83,8.83,0,0,0,.94.39,3.59,3.59,0,0,1,1.29.7A1.25,1.25,0,0,1,339.89,228.23Z" style="fill: #304041"/>
    <path d="M281.73,241.69v-3.48a1.48,1.48,0,0,0-.27-1,1.07,1.07,0,0,0-.85-.32,1.37,1.37,0,0,0-1.12.44,2.06,2.06,0,0,0-.36,1.34v3h-.81v-3.48a1.48,1.48,0,0,0-.27-1,1.09,1.09,0,0,0-.86-.32,1.35,1.35,0,0,0-1.12.46,2.51,2.51,0,0,0-.35,1.5v2.8h-.81v-5.35h.66l.13.74h0a1.53,1.53,0,0,1,.65-.61,1.93,1.93,0,0,1,.93-.22,1.58,1.58,0,0,1,1.64.9h0a1.66,1.66,0,0,1,.7-.66,2.15,2.15,0,0,1,1-.24,1.81,1.81,0,0,1,1.36.46,2.09,2.09,0,0,1,.45,1.49v3.49Z" style="fill: #304041"/>
    <path d="M286.47,241.79a2.46,2.46,0,0,1-1.87-.72,2.79,2.79,0,0,1-.69-2,3.12,3.12,0,0,1,.64-2.05,2.12,2.12,0,0,1,1.71-.76,2,2,0,0,1,1.59.66,2.53,2.53,0,0,1,.59,1.74v.52h-3.69a2.17,2.17,0,0,0,.48,1.43,1.67,1.67,0,0,0,1.27.48,4.3,4.3,0,0,0,1.71-.36v.73a4.43,4.43,0,0,1-.81.26A4.24,4.24,0,0,1,286.47,241.79Zm-.22-4.87a1.3,1.3,0,0,0-1,.42,2,2,0,0,0-.46,1.17h2.8a1.79,1.79,0,0,0-.34-1.18A1.21,1.21,0,0,0,286.25,236.92Z" style="fill: #304041"/>
    <path d="M293.49,241.69v-3.46a1.37,1.37,0,0,0-.3-1,1.21,1.21,0,0,0-.94-.33,1.55,1.55,0,0,0-1.23.46,2.29,2.29,0,0,0-.39,1.5v2.8h-.81v-5.35h.66l.13.74h0a1.69,1.69,0,0,1,.7-.62,2.33,2.33,0,0,1,1-.21,2,2,0,0,1,1.46.46,2,2,0,0,1,.49,1.49v3.49Z" style="fill: #304041"/>
    <path d="M300.58,239a3,3,0,0,1-.66,2.05,2.32,2.32,0,0,1-1.82.73,2.49,2.49,0,0,1-1.28-.33,2.24,2.24,0,0,1-.85-1,3.26,3.26,0,0,1-.31-1.48,2.9,2.9,0,0,1,.66-2,2.29,2.29,0,0,1,1.81-.73,2.26,2.26,0,0,1,1.79.74A2.94,2.94,0,0,1,300.58,239Zm-4.08,0a2.58,2.58,0,0,0,.41,1.57,1.46,1.46,0,0,0,1.21.53,1.43,1.43,0,0,0,1.21-.53,2.58,2.58,0,0,0,.41-1.57,2.53,2.53,0,0,0-.41-1.55,1.46,1.46,0,0,0-1.22-.53,1.43,1.43,0,0,0-1.2.53A2.47,2.47,0,0,0,296.5,239Z" style="fill: #304041"/>
    <path d="M305.45,240.23a1.35,1.35,0,0,1-.55,1.16,2.66,2.66,0,0,1-1.57.4,3.46,3.46,0,0,1-1.66-.33v-.76a3.94,3.94,0,0,0,.83.31,3.25,3.25,0,0,0,.85.11,1.89,1.89,0,0,0,1-.2.7.7,0,0,0,.07-1.15,4.36,4.36,0,0,0-1.06-.53,5.26,5.26,0,0,1-1.06-.48,1.5,1.5,0,0,1-.47-.47,1.28,1.28,0,0,1-.15-.63,1.23,1.23,0,0,1,.53-1,2.51,2.51,0,0,1,1.46-.37,4.16,4.16,0,0,1,1.69.35l-.29.66a3.92,3.92,0,0,0-1.46-.34,1.61,1.61,0,0,0-.87.19.56.56,0,0,0-.29.49.62.62,0,0,0,.11.37,1.06,1.06,0,0,0,.35.29,8.83,8.83,0,0,0,.94.39,3.5,3.5,0,0,1,1.29.7A1.25,1.25,0,0,1,305.45,240.23Z" style="fill: #304041"/>
    <path d="M312.66,241.69l-.16-.76h0a2.11,2.11,0,0,1-.8.68,2.37,2.37,0,0,1-1,.18,1.76,1.76,0,0,1-1.25-.41,1.48,1.48,0,0,1-.45-1.16c0-1.09.86-1.65,2.59-1.7l.91,0v-.34a1.36,1.36,0,0,0-.27-.93,1.12,1.12,0,0,0-.87-.3,3.58,3.58,0,0,0-1.51.41l-.25-.62a3.84,3.84,0,0,1,.86-.33,3.93,3.93,0,0,1,.95-.12,2.06,2.06,0,0,1,1.42.42,1.76,1.76,0,0,1,.46,1.36v3.65Zm-1.83-.57a1.64,1.64,0,0,0,1.19-.41,1.54,1.54,0,0,0,.43-1.16v-.49l-.81,0a2.91,2.91,0,0,0-1.4.3.9.9,0,0,0-.42.83.84.84,0,0,0,.26.66A1.09,1.09,0,0,0,310.83,241.12Zm-.19-5.61c.15-.2.32-.44.5-.73a7.16,7.16,0,0,0,.43-.75h1v.11a9,9,0,0,1-.64.78,7.88,7.88,0,0,1-.74.72h-.54Z" style="fill: #304041"/>
    <path d="M319.31,236.34v.52l-1,.11a1.89,1.89,0,0,1,.24.45,1.71,1.71,0,0,1,.11.62,1.59,1.59,0,0,1-.54,1.26,2.18,2.18,0,0,1-1.47.47,3.14,3.14,0,0,1-.45,0,.79.79,0,0,0-.52.69.35.35,0,0,0,.18.32,1.31,1.31,0,0,0,.62.11h.95a2.18,2.18,0,0,1,1.34.36,1.28,1.28,0,0,1,.46,1.07,1.52,1.52,0,0,1-.71,1.35,3.84,3.84,0,0,1-2.08.47,2.85,2.85,0,0,1-1.62-.39,1.27,1.27,0,0,1-.57-1.11,1.28,1.28,0,0,1,.31-.84,1.62,1.62,0,0,1,.88-.49.83.83,0,0,1-.34-.28.78.78,0,0,1-.14-.46.84.84,0,0,1,.16-.51,1.4,1.4,0,0,1,.49-.42,1.48,1.48,0,0,1-.68-.59,1.71,1.71,0,0,1-.26-.93,1.75,1.75,0,0,1,.53-1.36,2.13,2.13,0,0,1,1.49-.47,2.93,2.93,0,0,1,.76.09ZM315,242.59a.72.72,0,0,0,.37.66,2,2,0,0,0,1,.23,2.86,2.86,0,0,0,1.51-.31.93.93,0,0,0,.49-.83.65.65,0,0,0-.27-.6,2.09,2.09,0,0,0-1-.17h-1a1.27,1.27,0,0,0-.86.27A.94.94,0,0,0,315,242.59Zm.44-4.53a1.12,1.12,0,0,0,.32.85,1.27,1.27,0,0,0,.88.28,1,1,0,0,0,1.19-1.15,1.06,1.06,0,0,0-1.2-1.2,1.2,1.2,0,0,0-.88.3A1.23,1.23,0,0,0,315.48,238.06Z" style="fill: #304041"/>
    <path d="M320.34,234.89a.52.52,0,0,1,.14-.4.45.45,0,0,1,.34-.13.48.48,0,0,1,.34.13.54.54,0,0,1,.14.4.55.55,0,0,1-.14.41.49.49,0,0,1-.34.14.46.46,0,0,1-.34-.14A.55.55,0,0,1,320.34,234.89Zm.88,6.8h-.81v-5.35h.81Z" style="fill: #304041"/>
    <path d="M323.75,241.69h-.81V234.1h.81Z" style="fill: #304041"/>
    <path d="M327.73,241.79a2.45,2.45,0,0,1-1.87-.72,2.79,2.79,0,0,1-.69-2,3.07,3.07,0,0,1,.64-2.05,2.09,2.09,0,0,1,1.71-.76,2,2,0,0,1,1.59.66,2.53,2.53,0,0,1,.59,1.74v.52H326a2.12,2.12,0,0,0,.48,1.43,1.65,1.65,0,0,0,1.27.48,4.38,4.38,0,0,0,1.71-.36v.73a4.28,4.28,0,0,1-.82.26A4.09,4.09,0,0,1,327.73,241.79Zm-.22-4.87a1.33,1.33,0,0,0-1,.42,2,2,0,0,0-.45,1.17h2.8a1.84,1.84,0,0,0-.34-1.18A1.22,1.22,0,0,0,327.51,236.92Z" style="fill: #304041"/>
    <path d="M334.53,240.23a1.36,1.36,0,0,1-.56,1.16,2.61,2.61,0,0,1-1.56.4,3.46,3.46,0,0,1-1.66-.33v-.76a3.74,3.74,0,0,0,.83.31,3.2,3.2,0,0,0,.85.11,1.91,1.91,0,0,0,1-.2.68.68,0,0,0,.34-.62.66.66,0,0,0-.27-.53,4.57,4.57,0,0,0-1.06-.53,5.26,5.26,0,0,1-1.06-.48,1.5,1.5,0,0,1-.47-.47,1.28,1.28,0,0,1-.15-.63,1.2,1.2,0,0,1,.53-1,2.48,2.48,0,0,1,1.46-.37,4.2,4.2,0,0,1,1.69.35l-.29.66a3.92,3.92,0,0,0-1.46-.34,1.58,1.58,0,0,0-.87.19.54.54,0,0,0-.29.49.56.56,0,0,0,.11.37,1.06,1.06,0,0,0,.35.29,8,8,0,0,0,.94.39,3.52,3.52,0,0,1,1.28.7A1.21,1.21,0,0,1,334.53,240.23Z" style="fill: #304041"/>
  </g>
</svg>
