<svg xmlns="http://www.w3.org/2000/svg" viewBox="0 0 374.33 255.83">
  <title>nugget_graph_1</title>
  <rect x="202.35" y="13.6" width="50" height="199.97" style="fill: #ebac7b"/>
  <rect x="279.52" y="157.46" width="50" height="56.11" style="fill: #e3e2e3"/>
  <g>
    <path d="M146.51,63.06c0-2.81.6-4.91,1.79-6.28a6.67,6.67,0,0,1,5.34-2.07,9.48,9.48,0,0,1,1.91.15v2.4a7.79,7.79,0,0,0-1.71-.19,5.77,5.77,0,0,0-2.53.47,3.11,3.11,0,0,0-1.46,1.38,6.25,6.25,0,0,0-.57,2.59h.12a3.3,3.3,0,0,1,3.09-1.65,3.8,3.8,0,0,1,3,1.2,4.74,4.74,0,0,1,1.08,3.3A5,5,0,0,1,155.27,68a4.75,4.75,0,0,1-3.56,1.32,5.07,5.07,0,0,1-2.75-.73,4.71,4.71,0,0,1-1.81-2.13A8.14,8.14,0,0,1,146.51,63.06Zm5.14,3.83a1.77,1.77,0,0,0,1.48-.65,2.9,2.9,0,0,0,.51-1.84,2.56,2.56,0,0,0-.48-1.64,1.74,1.74,0,0,0-1.45-.6,2.21,2.21,0,0,0-1.56.6,1.78,1.78,0,0,0-.65,1.38,3.09,3.09,0,0,0,.61,2A1.84,1.84,0,0,0,151.65,66.89Z" style="fill: #314041"/>
    <path d="M163.15,60a4.6,4.6,0,0,1,3.29,1.15,4.17,4.17,0,0,1,1.22,3.17A4.62,4.62,0,0,1,166.19,68a6.17,6.17,0,0,1-4.2,1.28,8.25,8.25,0,0,1-3.83-.76v-2.6a7.78,7.78,0,0,0,1.79.66,7.5,7.5,0,0,0,1.93.26c1.84,0,2.75-.75,2.75-2.25s-.95-2.15-2.85-2.15a6.74,6.74,0,0,0-1.13.1,8.25,8.25,0,0,0-1,.22l-1.19-.64.53-7.25h7.72v2.55h-5.08l-.26,2.79.34-.07A6.69,6.69,0,0,1,163.15,60Z" style="fill: #314041"/>
    <path d="M175.92,59.12a5.44,5.44,0,0,1-.86,3.36,3,3,0,0,1-2.54,1.12A2.92,2.92,0,0,1,170,62.45a5.46,5.46,0,0,1-.87-3.33c0-3,1.11-4.44,3.35-4.44A3,3,0,0,1,175,55.83,5.3,5.3,0,0,1,175.92,59.12Zm-4.3,0a5.65,5.65,0,0,0,.22,1.84c.14.41.38.61.7.61.62,0,.93-.82.93-2.45s-.31-2.43-.93-2.43c-.32,0-.56.2-.7.6A5.58,5.58,0,0,0,171.62,59.14Zm11-4.26L174.73,69.1h-2.34l7.89-14.22Zm3.26,9.92a5.41,5.41,0,0,1-.86,3.35,3,3,0,0,1-2.54,1.12A2.92,2.92,0,0,1,180,68.12a5.43,5.43,0,0,1-.88-3.32q0-4.44,3.36-4.44A3,3,0,0,1,185,61.51,5.3,5.3,0,0,1,185.88,64.8Zm-4.3,0a6,6,0,0,0,.21,1.84c.15.41.39.61.71.61.62,0,.93-.82.93-2.45s-.31-2.43-.93-2.43c-.32,0-.56.2-.71.6A5.92,5.92,0,0,0,181.58,64.82Z" style="fill: #314041"/>
  </g>
  <g>
    <path d="M294.26,147.31h-9.94v-2.09l3.57-3.61c1.05-1.08,1.75-1.84,2.07-2.25a5,5,0,0,0,.7-1.17,3,3,0,0,0,.21-1.1,1.61,1.61,0,0,0-.47-1.28,1.81,1.81,0,0,0-1.26-.42,3.65,3.65,0,0,0-1.6.38,9.16,9.16,0,0,0-1.63,1.08l-1.63-1.93a10.77,10.77,0,0,1,1.74-1.27,7,7,0,0,1,1.51-.57,7.83,7.83,0,0,1,1.83-.2,5.48,5.48,0,0,1,2.35.49,3.79,3.79,0,0,1,1.59,1.36,3.68,3.68,0,0,1,.56,2,4.94,4.94,0,0,1-.35,1.84,6.86,6.86,0,0,1-1.07,1.76,24.3,24.3,0,0,1-2.55,2.58l-1.83,1.72v.14h6.2Z" style="fill: #314041"/>
    <path d="M305.55,140.2a9.93,9.93,0,0,1-1.22,5.51,4.22,4.22,0,0,1-3.76,1.79,4.17,4.17,0,0,1-3.71-1.85,9.78,9.78,0,0,1-1.25-5.45,10,10,0,0,1,1.22-5.55,4.72,4.72,0,0,1,7.46.08A9.81,9.81,0,0,1,305.55,140.2Zm-6.95,0a11.15,11.15,0,0,0,.45,3.75,1.58,1.58,0,0,0,3,0,10.79,10.79,0,0,0,.46-3.73,10.58,10.58,0,0,0-.47-3.76,1.58,1.58,0,0,0-3,0A11.18,11.18,0,0,0,298.6,140.2Z" style="fill: #314041"/>
    <path d="M313.63,137.33a5.51,5.51,0,0,1-.86,3.36,3,3,0,0,1-2.54,1.12,2.92,2.92,0,0,1-2.48-1.15,5.39,5.39,0,0,1-.88-3.33c0-3,1.12-4.45,3.36-4.45a3,3,0,0,1,2.52,1.16A5.3,5.3,0,0,1,313.63,137.33Zm-4.31,0a5.94,5.94,0,0,0,.22,1.84c.15.41.38.61.71.61.62,0,.93-.82.93-2.45s-.31-2.43-.93-2.43c-.33,0-.56.2-.71.6A5.78,5.78,0,0,0,309.32,137.35Zm11-4.26-7.88,14.22H310.1L318,133.09Zm3.27,9.92a5.5,5.5,0,0,1-.86,3.35,3,3,0,0,1-2.54,1.12,2.92,2.92,0,0,1-2.48-1.15,5.38,5.38,0,0,1-.88-3.32c0-3,1.12-4.45,3.36-4.45a3,3,0,0,1,2.52,1.16A5.28,5.28,0,0,1,323.59,143Zm-4.31,0a5.94,5.94,0,0,0,.22,1.84c.15.41.38.61.71.61.62,0,.93-.82.93-2.45s-.31-2.43-.93-2.43c-.33,0-.56.2-.71.59A5.94,5.94,0,0,0,319.28,143Z" style="fill: #314041"/>
  </g>
  <g>
    <path d="M38,94.13,36.44,90H31.28L29.7,94.13H28.19l5.08-12.91h1.26l5,12.91ZM36,88.69l-1.49-4a17.66,17.66,0,0,1-.6-1.85,16.93,16.93,0,0,1-.56,1.85l-1.51,4Z" style="fill: #314041"/>
    <path d="M42.59,94.13H41.13V80.45h1.46Z" style="fill: #314041"/>
    <path d="M50.08,84.32a5.79,5.79,0,0,1,1.15.1L51,85.78A4.76,4.76,0,0,0,50,85.65a2.56,2.56,0,0,0-2,.94A3.51,3.51,0,0,0,47.14,89v5.17H45.68V84.49h1.21l.16,1.79h.07a4.27,4.27,0,0,1,1.29-1.45A2.93,2.93,0,0,1,50.08,84.32Z" style="fill: #314041"/>
    <path d="M57.1,94.3A4.4,4.4,0,0,1,53.73,93a5,5,0,0,1-1.24-3.61,5.61,5.61,0,0,1,1.15-3.7,3.78,3.78,0,0,1,3.08-1.37,3.63,3.63,0,0,1,2.87,1.19,4.57,4.57,0,0,1,1,3.14v.92H54a3.86,3.86,0,0,0,.86,2.58,3,3,0,0,0,2.29.88,7.85,7.85,0,0,0,3.08-.65v1.3a8.35,8.35,0,0,1-1.47.48A8.72,8.72,0,0,1,57.1,94.3Zm-.4-8.76a2.37,2.37,0,0,0-1.85.76A3.46,3.46,0,0,0,54,88.39h5a3.23,3.23,0,0,0-.62-2.12A2.17,2.17,0,0,0,56.7,85.54Z" style="fill: #314041"/>
    <path d="M69.05,94.13l-.29-1.37h-.07A4,4,0,0,1,67.25,94a4.23,4.23,0,0,1-1.78.32,3.18,3.18,0,0,1-2.25-.74,2.69,2.69,0,0,1-.81-2.1q0-2.91,4.66-3.06l1.64-.05v-.6a2.42,2.42,0,0,0-.49-1.67,2,2,0,0,0-1.56-.54,6.37,6.37,0,0,0-2.72.74l-.45-1.12a6.32,6.32,0,0,1,1.56-.6,6.56,6.56,0,0,1,1.7-.22,3.65,3.65,0,0,1,2.55.76,3.17,3.17,0,0,1,.83,2.45v6.58Zm-3.29-1a3,3,0,0,0,2.14-.75,2.79,2.79,0,0,0,.77-2.09v-.87l-1.46.06a5.24,5.24,0,0,0-2.5.54,1.62,1.62,0,0,0-.77,1.49,1.52,1.52,0,0,0,.48,1.21A2,2,0,0,0,65.76,93.1Z" style="fill: #314041"/>
    <path d="M79.69,92.83h-.07a3.45,3.45,0,0,1-3,1.47A3.58,3.58,0,0,1,73.65,93a7,7,0,0,1,0-7.37,3.91,3.91,0,0,1,5.94.1h.11l-.06-.69,0-.68V80.45h1.45V94.13H79.89Zm-2.91.25a2.64,2.64,0,0,0,2.16-.81,4.11,4.11,0,0,0,.68-2.63v-.3a4.82,4.82,0,0,0-.69-2.93,2.57,2.57,0,0,0-2.17-.87,2.24,2.24,0,0,0-2,1,5,5,0,0,0-.68,2.81,4.78,4.78,0,0,0,.68,2.79A2.28,2.28,0,0,0,76.78,93.08Z" style="fill: #314041"/>
    <path d="M82.64,84.49H84.2L86.31,90a19.67,19.67,0,0,1,.86,2.71h.07q.12-.45.48-1.53c.25-.72,1-3,2.39-6.68h1.56l-4.14,11a5.39,5.39,0,0,1-1.43,2.31,3.08,3.08,0,0,1-2,.68,5.94,5.94,0,0,1-1.32-.15V97.13a5.05,5.05,0,0,0,1.08.11A2.23,2.23,0,0,0,86,95.55l.53-1.37Z" style="fill: #314041"/>
    <path d="M102.31,84.32a5.73,5.73,0,0,1,1.15.1l-.2,1.36a4.84,4.84,0,0,0-1.06-.13,2.58,2.58,0,0,0-2,.94A3.51,3.51,0,0,0,99.37,89v5.17H97.91V84.49h1.21l.17,1.79h.07a4.07,4.07,0,0,1,1.29-1.45A2.9,2.9,0,0,1,102.31,84.32Z" style="fill: #314041"/>
    <path d="M109.33,94.3A4.41,4.41,0,0,1,106,93a5,5,0,0,1-1.23-3.61,5.6,5.6,0,0,1,1.14-3.7A3.8,3.8,0,0,1,109,84.32a3.61,3.61,0,0,1,2.87,1.19,4.57,4.57,0,0,1,1.05,3.14v.92h-6.63a3.85,3.85,0,0,0,.85,2.58,3,3,0,0,0,2.29.88,7.82,7.82,0,0,0,3.08-.65v1.3a8.27,8.27,0,0,1-1.46.48A8.83,8.83,0,0,1,109.33,94.3Zm-.39-8.76a2.36,2.36,0,0,0-1.85.76,3.46,3.46,0,0,0-.82,2.09h5a3.23,3.23,0,0,0-.62-2.12A2.15,2.15,0,0,0,108.94,85.54Z" style="fill: #314041"/>
    <path d="M119.21,94.3A4.12,4.12,0,0,1,116,93a5.3,5.3,0,0,1-1.15-3.64A5.43,5.43,0,0,1,116,85.64a4.19,4.19,0,0,1,3.32-1.32,6.64,6.64,0,0,1,1.39.15,4.51,4.51,0,0,1,1.09.35l-.45,1.24a6.27,6.27,0,0,0-1.06-.32,4.43,4.43,0,0,0-1-.13c-2,0-2.93,1.25-2.93,3.74a4.51,4.51,0,0,0,.71,2.73,2.51,2.51,0,0,0,2.13,1,6.45,6.45,0,0,0,2.47-.52V93.8A5.22,5.22,0,0,1,119.21,94.3Z" style="fill: #314041"/>
    <path d="M132.24,89.3A5.32,5.32,0,0,1,131.06,93a4.19,4.19,0,0,1-3.28,1.32,4.35,4.35,0,0,1-2.29-.6A4,4,0,0,1,123.94,92a6.16,6.16,0,0,1-.55-2.66,5.34,5.34,0,0,1,1.18-3.67,4.2,4.2,0,0,1,3.27-1.31,4.08,4.08,0,0,1,3.21,1.34A5.27,5.27,0,0,1,132.24,89.3Zm-7.33,0a4.57,4.57,0,0,0,.73,2.81,2.93,2.93,0,0,0,4.35,0,4.52,4.52,0,0,0,.74-2.82,4.46,4.46,0,0,0-.74-2.79,2.62,2.62,0,0,0-2.19-1,2.54,2.54,0,0,0-2.16.94A4.48,4.48,0,0,0,124.91,89.3Z" style="fill: #314041"/>
    <path d="M136.91,94.13l-3.65-9.64h1.56l2.07,5.72a25.88,25.88,0,0,1,.83,2.6h.07a18.67,18.67,0,0,1,.61-1.93q.51-1.47,2.31-6.39h1.56l-3.65,9.64Z" style="fill: #314041"/>
    <path d="M147.89,94.3a4.41,4.41,0,0,1-3.37-1.3,5.05,5.05,0,0,1-1.24-3.61,5.61,5.61,0,0,1,1.15-3.7,3.8,3.8,0,0,1,3.08-1.37,3.63,3.63,0,0,1,2.87,1.19,4.57,4.57,0,0,1,1.05,3.14v.92H144.8a3.8,3.8,0,0,0,.85,2.58,3,3,0,0,0,2.29.88,7.85,7.85,0,0,0,3.08-.65v1.3a8.35,8.35,0,0,1-1.47.48A8.72,8.72,0,0,1,147.89,94.3Zm-.4-8.76a2.37,2.37,0,0,0-1.85.76,3.46,3.46,0,0,0-.81,2.09h5a3.23,3.23,0,0,0-.62-2.12A2.15,2.15,0,0,0,147.49,85.54Z" style="fill: #314041"/>
    <path d="M158.31,84.32a5.73,5.73,0,0,1,1.15.1l-.2,1.36a4.83,4.83,0,0,0-1-.13,2.56,2.56,0,0,0-2,.94,3.46,3.46,0,0,0-.83,2.37v5.17h-1.46V84.49h1.2l.17,1.79h.07a4.27,4.27,0,0,1,1.29-1.45A2.93,2.93,0,0,1,158.31,84.32Z" style="fill: #314041"/>
    <path d="M161.14,81.88a1,1,0,0,1,.25-.73.83.83,0,0,1,.61-.23.89.89,0,0,1,.61.23,1.17,1.17,0,0,1,0,1.47.85.85,0,0,1-.61.24.84.84,0,0,1-.61-.24A1,1,0,0,1,161.14,81.88Zm1.59,12.25h-1.46V84.49h1.46Z" style="fill: #314041"/>
    <path d="M172.41,94.13V87.9a2.49,2.49,0,0,0-.54-1.76,2.14,2.14,0,0,0-1.67-.58,2.79,2.79,0,0,0-2.22.81,4.14,4.14,0,0,0-.7,2.7v5.06h-1.46V84.49H167l.23,1.32h.07a3,3,0,0,1,1.26-1.1,4.1,4.1,0,0,1,1.8-.39,3.67,3.67,0,0,1,2.62.84,3.54,3.54,0,0,1,.88,2.68v6.29Z" style="fill: #314041"/>
    <path d="M184.75,84.49v.93l-1.78.21a3.12,3.12,0,0,1,.44.8,3.29,3.29,0,0,1,.19,1.12,2.82,2.82,0,0,1-1,2.26,3.9,3.9,0,0,1-2.65.84,4.14,4.14,0,0,1-.81-.07,1.45,1.45,0,0,0-.93,1.24.64.64,0,0,0,.32.59,2.47,2.47,0,0,0,1.12.19h1.7a3.82,3.82,0,0,1,2.41.66,2.28,2.28,0,0,1,.84,1.91,2.73,2.73,0,0,1-1.29,2.44,6.84,6.84,0,0,1-3.74.84,5.09,5.09,0,0,1-2.91-.7,2.26,2.26,0,0,1-1-2,2.23,2.23,0,0,1,.57-1.52,2.81,2.81,0,0,1,1.58-.87,1.42,1.42,0,0,1-.62-.52,1.33,1.33,0,0,1-.25-.82,1.54,1.54,0,0,1,.28-.92,2.89,2.89,0,0,1,.89-.76,2.63,2.63,0,0,1-1.22-1,3.47,3.47,0,0,1,.48-4.13,3.88,3.88,0,0,1,2.69-.85,5.16,5.16,0,0,1,1.36.17Zm-7.68,11.25a1.3,1.3,0,0,0,.66,1.19,3.64,3.64,0,0,0,1.89.4,5.36,5.36,0,0,0,2.72-.54,1.69,1.69,0,0,0,.88-1.49,1.18,1.18,0,0,0-.48-1.09,3.79,3.79,0,0,0-1.82-.3h-1.75a2.3,2.3,0,0,0-1.55.47A1.69,1.69,0,0,0,177.07,95.74Zm.79-8.16a2,2,0,0,0,.57,1.53,2.3,2.3,0,0,0,1.59.52,1.86,1.86,0,0,0,2.14-2.08A1.92,1.92,0,0,0,180,85.38a2.15,2.15,0,0,0-1.59.56A2.2,2.2,0,0,0,177.86,87.58Z" style="fill: #314041"/>
    <path d="M71.54,110.9a5.32,5.32,0,0,1-1.19,3.68,4.18,4.18,0,0,1-3.28,1.32,4.37,4.37,0,0,1-2.29-.6,4.1,4.1,0,0,1-1.55-1.74,6.13,6.13,0,0,1-.54-2.66,5.29,5.29,0,0,1,1.18-3.67,4.17,4.17,0,0,1,3.27-1.31,4.11,4.11,0,0,1,3.21,1.34A5.32,5.32,0,0,1,71.54,110.9Zm-7.34,0a4.57,4.57,0,0,0,.74,2.81,2.54,2.54,0,0,0,2.17,1,2.57,2.57,0,0,0,2.17-1A4.52,4.52,0,0,0,70,110.9a4.46,4.46,0,0,0-.75-2.79,2.61,2.61,0,0,0-2.19-1,2.57,2.57,0,0,0-2.16.94A4.48,4.48,0,0,0,64.2,110.9Z" style="fill: #314041"/>
    <path d="M78.49,105.92a5.73,5.73,0,0,1,1.15.1l-.2,1.36a4.83,4.83,0,0,0-1-.13,2.56,2.56,0,0,0-2,.94,3.46,3.46,0,0,0-.83,2.37v5.17H74.1v-9.64h1.2l.17,1.79h.07a4.27,4.27,0,0,1,1.29-1.45A2.9,2.9,0,0,1,78.49,105.92Z" style="fill: #314041"/>
    <path d="M90.51,105.92a5.83,5.83,0,0,1,1.16.1l-.21,1.36a4.83,4.83,0,0,0-1-.13,2.56,2.56,0,0,0-2,.94,3.51,3.51,0,0,0-.83,2.37v5.17H86.12v-9.64h1.2l.17,1.79h.07a4.27,4.27,0,0,1,1.29-1.45A2.93,2.93,0,0,1,90.51,105.92Z" style="fill: #314041"/>
    <path d="M97.54,115.9a4.4,4.4,0,0,1-3.37-1.3A5,5,0,0,1,92.93,111a5.55,5.55,0,0,1,1.15-3.7,3.81,3.81,0,0,1,3.08-1.37,3.59,3.59,0,0,1,2.86,1.19,4.52,4.52,0,0,1,1.06,3.14v.92H94.44a3.86,3.86,0,0,0,.86,2.58,3,3,0,0,0,2.29.88,7.85,7.85,0,0,0,3.08-.65v1.3a8.35,8.35,0,0,1-1.47.48A8.72,8.72,0,0,1,97.54,115.9Zm-.4-8.76a2.37,2.37,0,0,0-1.85.76,3.46,3.46,0,0,0-.81,2.09h5a3.23,3.23,0,0,0-.61-2.12A2.17,2.17,0,0,0,97.14,107.14Z" style="fill: #314041"/>
    <path d="M106.68,114.7a4.44,4.44,0,0,0,.74-.06l.58-.12v1.12a3.09,3.09,0,0,1-.7.19,5.25,5.25,0,0,1-.83.07c-1.87,0-2.8-1-2.8-2.94v-5.73h-1.38v-.71l1.38-.6.62-2.06h.84v2.23h2.8v1.14h-2.8v5.67a2,2,0,0,0,.41,1.33A1.46,1.46,0,0,0,106.68,114.7Z" style="fill: #314041"/>
    <path d="M111.29,106.09v6.25a2.51,2.51,0,0,0,.54,1.76,2.17,2.17,0,0,0,1.68.58,2.73,2.73,0,0,0,2.21-.83,4.19,4.19,0,0,0,.7-2.69v-5.07h1.45v9.64h-1.2l-.21-1.3h-.08a2.86,2.86,0,0,1-1.24,1.09,4.09,4.09,0,0,1-1.82.38,3.7,3.7,0,0,1-2.63-.83,3.57,3.57,0,0,1-.88-2.67v-6.31Z" style="fill: #314041"/>
    <path d="M125.36,105.92a5.73,5.73,0,0,1,1.15.1l-.2,1.36a4.83,4.83,0,0,0-1-.13,2.56,2.56,0,0,0-2,.94,3.46,3.46,0,0,0-.83,2.37v5.17H121v-9.64h1.2l.17,1.79h.07a4.27,4.27,0,0,1,1.29-1.45A2.93,2.93,0,0,1,125.36,105.92Z" style="fill: #314041"/>
    <path d="M134.91,115.73V109.5a2.49,2.49,0,0,0-.54-1.76,2.18,2.18,0,0,0-1.68-.58,2.78,2.78,0,0,0-2.21.81,4.14,4.14,0,0,0-.71,2.7v5.06h-1.45v-9.64h1.18l.24,1.32h.07a3,3,0,0,1,1.26-1.1,4.1,4.1,0,0,1,1.8-.39,3.67,3.67,0,0,1,2.62.84,3.58,3.58,0,0,1,.88,2.68v6.29Z" style="fill: #314041"/>
    <path d="M139.24,103.48a.94.94,0,0,1,.25-.73.83.83,0,0,1,.61-.23.89.89,0,0,1,.61.23,1.21,1.21,0,0,1,0,1.47.85.85,0,0,1-.61.24.84.84,0,0,1-.61-.24A1,1,0,0,1,139.24,103.48Zm1.58,12.25h-1.46v-9.64h1.46Z" style="fill: #314041"/>
    <path d="M150.51,115.73V109.5a2.49,2.49,0,0,0-.54-1.76,2.17,2.17,0,0,0-1.68-.58,2.78,2.78,0,0,0-2.21.81,4.14,4.14,0,0,0-.7,2.7v5.06h-1.46v-9.64h1.18l.24,1.32h.07a3,3,0,0,1,1.26-1.1,4.1,4.1,0,0,1,1.8-.39,3.67,3.67,0,0,1,2.62.84,3.58,3.58,0,0,1,.88,2.68v6.29Z" style="fill: #314041"/>
    <path d="M162.85,106.09V107l-1.79.21a2.85,2.85,0,0,1,.44.8,3.06,3.06,0,0,1,.2,1.12,2.85,2.85,0,0,1-1,2.26,3.9,3.9,0,0,1-2.65.84,4.14,4.14,0,0,1-.81-.07,1.45,1.45,0,0,0-.93,1.24.63.63,0,0,0,.32.59,2.47,2.47,0,0,0,1.12.19h1.7a3.84,3.84,0,0,1,2.41.66,2.28,2.28,0,0,1,.84,1.91,2.73,2.73,0,0,1-1.29,2.44,6.84,6.84,0,0,1-3.74.84,5.15,5.15,0,0,1-2.92-.7,2.41,2.41,0,0,1-.46-3.51,2.88,2.88,0,0,1,1.58-.87,1.45,1.45,0,0,1-.61-.52,1.34,1.34,0,0,1-.26-.82,1.55,1.55,0,0,1,.29-.92,2.84,2.84,0,0,1,.88-.76,2.66,2.66,0,0,1-1.21-1,3,3,0,0,1-.47-1.69,3.11,3.11,0,0,1,.95-2.44,3.85,3.85,0,0,1,2.68-.85,5.24,5.24,0,0,1,1.37.17Zm-7.68,11.25a1.3,1.3,0,0,0,.66,1.19,3.64,3.64,0,0,0,1.89.4,5.36,5.36,0,0,0,2.72-.54,1.71,1.71,0,0,0,.88-1.49,1.18,1.18,0,0,0-.48-1.09,3.82,3.82,0,0,0-1.82-.3h-1.75a2.33,2.33,0,0,0-1.55.47A1.69,1.69,0,0,0,155.17,117.34Zm.79-8.16a2,2,0,0,0,.57,1.53,2.3,2.3,0,0,0,1.59.52,1.87,1.87,0,0,0,2.14-2.08,1.92,1.92,0,0,0-2.17-2.17,2.14,2.14,0,0,0-1.58.56A2.2,2.2,0,0,0,156,109.18Z" style="fill: #314041"/>
    <path d="M172.61,114.7a4.56,4.56,0,0,0,.75-.06,5.41,5.41,0,0,0,.57-.12v1.12a2.94,2.94,0,0,1-.7.19,5.16,5.16,0,0,1-.83.07q-2.79,0-2.79-2.94v-5.73h-1.38v-.71l1.38-.6.61-2.06h.85v2.23h2.79v1.14h-2.79v5.67a1.91,1.91,0,0,0,.41,1.33A1.43,1.43,0,0,0,172.61,114.7Z" style="fill: #314041"/>
    <path d="M184.17,110.9a5.32,5.32,0,0,1-1.19,3.68,4.17,4.17,0,0,1-3.27,1.32,4.38,4.38,0,0,1-2.3-.6,4.1,4.1,0,0,1-1.55-1.74,6.13,6.13,0,0,1-.54-2.66,5.29,5.29,0,0,1,1.18-3.67,4.17,4.17,0,0,1,3.27-1.31,4.09,4.09,0,0,1,3.21,1.34A5.32,5.32,0,0,1,184.17,110.9Zm-7.34,0a4.57,4.57,0,0,0,.74,2.81,2.55,2.55,0,0,0,2.17,1,2.59,2.59,0,0,0,2.18-1,4.58,4.58,0,0,0,.74-2.82,4.53,4.53,0,0,0-.74-2.79,2.64,2.64,0,0,0-2.2-1,2.57,2.57,0,0,0-2.16.94A4.48,4.48,0,0,0,176.83,110.9Z" style="fill: #314041"/>
    <path d="M135.13,127.69v.93l-1.79.21a2.85,2.85,0,0,1,.44.8,3.06,3.06,0,0,1,.2,1.12,2.85,2.85,0,0,1-1,2.26,3.93,3.93,0,0,1-2.66.84,4.11,4.11,0,0,1-.8-.07,1.46,1.46,0,0,0-.94,1.24.63.63,0,0,0,.33.59,2.47,2.47,0,0,0,1.12.19h1.7a3.84,3.84,0,0,1,2.41.66,2.3,2.3,0,0,1,.83,1.91,2.72,2.72,0,0,1-1.28,2.44,6.84,6.84,0,0,1-3.74.84,5.15,5.15,0,0,1-2.92-.7,2.41,2.41,0,0,1-.46-3.51,2.85,2.85,0,0,1,1.58-.87,1.54,1.54,0,0,1-.62-.52,1.42,1.42,0,0,1-.25-.82,1.55,1.55,0,0,1,.29-.92,2.84,2.84,0,0,1,.88-.76,2.61,2.61,0,0,1-1.21-1.05,3,3,0,0,1-.47-1.69,3.11,3.11,0,0,1,.94-2.43,3.85,3.85,0,0,1,2.69-.86,5.24,5.24,0,0,1,1.37.17Zm-7.68,11.25a1.33,1.33,0,0,0,.65,1.19,3.64,3.64,0,0,0,1.89.4,5.2,5.2,0,0,0,2.72-.55,1.67,1.67,0,0,0,.89-1.48,1.16,1.16,0,0,0-.49-1.09,3.74,3.74,0,0,0-1.81-.3h-1.75a2.28,2.28,0,0,0-1.55.47A1.69,1.69,0,0,0,127.45,138.94Zm.79-8.16a2,2,0,0,0,.57,1.53,2.3,2.3,0,0,0,1.59.52,1.86,1.86,0,0,0,2.13-2.08,1.91,1.91,0,0,0-2.16-2.17,2.18,2.18,0,0,0-1.58.55A2.24,2.24,0,0,0,128.24,130.78Z" style="fill: #314041"/>
    <path d="M141.5,127.52a5.73,5.73,0,0,1,1.15.1l-.2,1.36a4.91,4.91,0,0,0-1.06-.14,2.59,2.59,0,0,0-2,.95,3.49,3.49,0,0,0-.83,2.37v5.17H137.1v-9.64h1.21l.17,1.79h.07a4.07,4.07,0,0,1,1.29-1.45A2.9,2.9,0,0,1,141.5,127.52Z" style="fill: #314041"/>
    <path d="M152.77,132.5a5.32,5.32,0,0,1-1.19,3.68,4.18,4.18,0,0,1-3.28,1.32,4.37,4.37,0,0,1-2.29-.6,4,4,0,0,1-1.55-1.74,6.16,6.16,0,0,1-.54-2.66,5.34,5.34,0,0,1,1.17-3.67,4.2,4.2,0,0,1,3.27-1.31,4.11,4.11,0,0,1,3.22,1.34A5.32,5.32,0,0,1,152.77,132.5Zm-7.34,0a4.5,4.5,0,0,0,.74,2.81,2.54,2.54,0,0,0,2.17,1,2.57,2.57,0,0,0,2.17-1,4.52,4.52,0,0,0,.75-2.82,4.46,4.46,0,0,0-.75-2.79,2.61,2.61,0,0,0-2.19-1,2.54,2.54,0,0,0-2.16.94A4.48,4.48,0,0,0,145.43,132.5Z" style="fill: #314041"/>
    <path d="M163.19,137.33l-1.77-5.66c-.11-.34-.32-1.13-.62-2.35h-.07c-.23,1-.44,1.82-.62,2.37l-1.81,5.64h-1.69L154,127.69h1.53c.62,2.42,1.09,4.27,1.42,5.53a24.88,24.88,0,0,1,.56,2.56h.07c.06-.33.17-.77.31-1.3s.27-.95.37-1.26l1.77-5.53h1.58l1.72,5.53a19.15,19.15,0,0,1,.67,2.54h.07c0-.21.09-.53.19-1s.71-2.81,1.83-7.1h1.52l-2.67,9.64Z" style="fill: #314041"/>
    <path d="M172.44,136.3a4.52,4.52,0,0,0,.74-.06l.58-.12v1.12a3.09,3.09,0,0,1-.7.19,5.25,5.25,0,0,1-.83.07c-1.87,0-2.8-1-2.8-2.94v-5.73h-1.38v-.71l1.38-.6.62-2.06h.84v2.23h2.8v1.14h-2.8v5.67a2,2,0,0,0,.41,1.33A1.46,1.46,0,0,0,172.44,136.3Z" style="fill: #314041"/>
    <path d="M182.27,137.33v-6.24a2.53,2.53,0,0,0-.53-1.75,2.18,2.18,0,0,0-1.68-.58,2.74,2.74,0,0,0-2.22.82,4.17,4.17,0,0,0-.7,2.71v5h-1.46V123.65h1.46v4.14a8.56,8.56,0,0,1-.07,1.24h.09a2.88,2.88,0,0,1,1.22-1.09,4,4,0,0,1,1.82-.4,3.71,3.71,0,0,1,2.65.84,3.49,3.49,0,0,1,.88,2.66v6.29Z" style="fill: #314041"/>
  </g>
  <g>
    <path d="M207,229.69l-2.42-6.32h0c0,.5.07,1.09.07,1.78v4.54h-.77v-7.13H205l2.27,5.88h0l2.28-5.88h1.25v7.13H210V225.1c0-.53,0-1.1.06-1.72h0l-2.44,6.31Z" style="fill: #304041"/>
    <path d="M217.32,227a3,3,0,0,1-.66,2.05,2.32,2.32,0,0,1-1.82.73,2.43,2.43,0,0,1-1.27-.33,2.2,2.2,0,0,1-.86-1,3.26,3.26,0,0,1-.31-1.48,2.9,2.9,0,0,1,.66-2,2.29,2.29,0,0,1,1.81-.73,2.26,2.26,0,0,1,1.79.74A2.94,2.94,0,0,1,217.32,227Zm-4.08,0a2.58,2.58,0,0,0,.41,1.57,1.46,1.46,0,0,0,1.21.53,1.43,1.43,0,0,0,1.21-.53,2.58,2.58,0,0,0,.41-1.57,2.53,2.53,0,0,0-.41-1.55,1.46,1.46,0,0,0-1.22-.53,1.43,1.43,0,0,0-1.2.53A2.47,2.47,0,0,0,213.24,227Z" style="fill: #304041"/>
    <path d="M221.18,224.25a4.06,4.06,0,0,1,.64.05l-.11.76a2.75,2.75,0,0,0-.59-.08,1.44,1.44,0,0,0-1.11.53,2,2,0,0,0-.46,1.31v2.87h-.81v-5.35h.67l.09,1h0a2.44,2.44,0,0,1,.72-.8A1.61,1.61,0,0,1,221.18,224.25Z" style="fill: #304041"/>
    <path d="M225.08,229.79a2.46,2.46,0,0,1-1.87-.72,2.78,2.78,0,0,1-.68-2,3.12,3.12,0,0,1,.63-2.05,2.12,2.12,0,0,1,1.71-.76,2,2,0,0,1,1.6.66,2.52,2.52,0,0,1,.58,1.74v.52h-3.68a2.12,2.12,0,0,0,.47,1.43,1.67,1.67,0,0,0,1.27.48,4.3,4.3,0,0,0,1.71-.36v.73a4,4,0,0,1-1.74.34Zm-.22-4.87a1.3,1.3,0,0,0-1,.42,2,2,0,0,0-.46,1.17h2.8a1.79,1.79,0,0,0-.34-1.18A1.21,1.21,0,0,0,224.86,224.92Z" style="fill: #304041"/>
    <path d="M234.32,229.69l-.16-.76h0a2,2,0,0,1-.8.68,2.37,2.37,0,0,1-1,.18,1.76,1.76,0,0,1-1.25-.41,1.48,1.48,0,0,1-.45-1.16c0-1.09.87-1.65,2.59-1.7l.91,0v-.34a1.36,1.36,0,0,0-.27-.93,1.12,1.12,0,0,0-.87-.3,3.58,3.58,0,0,0-1.51.41l-.25-.62a3.92,3.92,0,0,1,.87-.33,3.79,3.79,0,0,1,.94-.12,2.06,2.06,0,0,1,1.42.42,1.76,1.76,0,0,1,.46,1.36v3.65Zm-1.83-.57a1.63,1.63,0,0,0,1.19-.41,1.54,1.54,0,0,0,.43-1.16v-.49l-.81,0a2.87,2.87,0,0,0-1.39.3.89.89,0,0,0-.43.83.81.81,0,0,0,.27.66A1,1,0,0,0,232.49,229.12Z" style="fill: #304041"/>
    <path d="M241,224.34v.52l-1,.11a2.33,2.33,0,0,1,.25.45,1.72,1.72,0,0,1,.1.62,1.62,1.62,0,0,1-.53,1.26,2.19,2.19,0,0,1-1.48.47,3.14,3.14,0,0,1-.45,0,.8.8,0,0,0-.52.69.36.36,0,0,0,.19.32,1.29,1.29,0,0,0,.62.11h.94a2.16,2.16,0,0,1,1.34.36,1.28,1.28,0,0,1,.46,1.07,1.5,1.5,0,0,1-.71,1.35,3.81,3.81,0,0,1-2.08.47,2.85,2.85,0,0,1-1.62-.39,1.27,1.27,0,0,1-.57-1.11,1.24,1.24,0,0,1,.32-.84,1.58,1.58,0,0,1,.88-.49.8.8,0,0,1-.35-.28.78.78,0,0,1-.14-.46.84.84,0,0,1,.16-.51,1.49,1.49,0,0,1,.49-.42,1.48,1.48,0,0,1-.68-.59,1.71,1.71,0,0,1-.26-.93,1.75,1.75,0,0,1,.53-1.36,2.14,2.14,0,0,1,1.5-.47,2.86,2.86,0,0,1,.75.09Zm-4.26,6.25a.73.73,0,0,0,.36.66,2,2,0,0,0,1.05.23,2.84,2.84,0,0,0,1.51-.31.93.93,0,0,0,.49-.83.65.65,0,0,0-.27-.6,2.07,2.07,0,0,0-1-.17h-1a1.27,1.27,0,0,0-.86.27A.93.93,0,0,0,236.71,230.59Zm.43-4.53a1.12,1.12,0,0,0,.32.85,1.28,1.28,0,0,0,.89.28,1,1,0,0,0,1.18-1.15,1.06,1.06,0,0,0-1.2-1.2,1.22,1.22,0,0,0-.88.3A1.28,1.28,0,0,0,237.14,226.06Z" style="fill: #304041"/>
    <path d="M242,222.89a.52.52,0,0,1,.14-.4.45.45,0,0,1,.34-.13.48.48,0,0,1,.34.13.54.54,0,0,1,.14.4.55.55,0,0,1-.14.41.49.49,0,0,1-.34.14.46.46,0,0,1-.34-.14A.55.55,0,0,1,242,222.89Zm.88,6.8h-.81v-5.35h.81Z" style="fill: #304041"/>
    <path d="M245.41,229.69h-.81V222.1h.81Z" style="fill: #304041"/>
    <path d="M249.39,229.79a2.46,2.46,0,0,1-1.87-.72,2.79,2.79,0,0,1-.69-2,3.07,3.07,0,0,1,.64-2.05,2.09,2.09,0,0,1,1.71-.76,2,2,0,0,1,1.59.66,2.53,2.53,0,0,1,.59,1.74v.52h-3.69a2.17,2.17,0,0,0,.48,1.43,1.65,1.65,0,0,0,1.27.48,4.3,4.3,0,0,0,1.71-.36v.73a4.43,4.43,0,0,1-.81.26A4.24,4.24,0,0,1,249.39,229.79Zm-.22-4.87a1.33,1.33,0,0,0-1,.42,2,2,0,0,0-.45,1.17h2.8a1.79,1.79,0,0,0-.34-1.18A1.22,1.22,0,0,0,249.17,224.92Z" style="fill: #304041"/>
    <path d="M201.29,239a3,3,0,0,1-.66,2.05,2.32,2.32,0,0,1-1.82.73,2.46,2.46,0,0,1-1.28-.33,2.32,2.32,0,0,1-.86-1,3.4,3.4,0,0,1-.3-1.48,2.9,2.9,0,0,1,.66-2,2.29,2.29,0,0,1,1.81-.73,2.26,2.26,0,0,1,1.79.74A2.94,2.94,0,0,1,201.29,239Zm-4.08,0a2.58,2.58,0,0,0,.41,1.57,1.44,1.44,0,0,0,1.21.53,1.43,1.43,0,0,0,1.21-.53,2.58,2.58,0,0,0,.41-1.57,2.53,2.53,0,0,0-.41-1.55,1.48,1.48,0,0,0-1.22-.53,1.43,1.43,0,0,0-1.2.53A2.47,2.47,0,0,0,197.21,239Z" style="fill: #304041"/>
    <path d="M205.15,236.25a4.06,4.06,0,0,1,.64.05l-.11.76a2.75,2.75,0,0,0-.59-.08,1.44,1.44,0,0,0-1.11.53,1.91,1.91,0,0,0-.46,1.31v2.87h-.81v-5.35h.67l.09,1h0a2.44,2.44,0,0,1,.72-.8A1.61,1.61,0,0,1,205.15,236.25Z" style="fill: #304041"/>
    <path d="M211.17,236.34v.52l-1,.11a1.89,1.89,0,0,1,.24.45,1.52,1.52,0,0,1,.11.62,1.59,1.59,0,0,1-.54,1.26,2.16,2.16,0,0,1-1.47.47,3.14,3.14,0,0,1-.45,0,.8.8,0,0,0-.52.69.35.35,0,0,0,.18.32,1.31,1.31,0,0,0,.62.11h1a2.16,2.16,0,0,1,1.34.36,1.28,1.28,0,0,1,.46,1.07,1.5,1.5,0,0,1-.71,1.35,3.84,3.84,0,0,1-2.08.47,2.85,2.85,0,0,1-1.62-.39,1.27,1.27,0,0,1-.57-1.11,1.28,1.28,0,0,1,.31-.84,1.65,1.65,0,0,1,.88-.49A.83.83,0,0,1,207,241a.78.78,0,0,1-.14-.46A.84.84,0,0,1,207,240a1.4,1.4,0,0,1,.49-.42,1.48,1.48,0,0,1-.68-.59,1.71,1.71,0,0,1-.26-.93,1.75,1.75,0,0,1,.53-1.36,2.13,2.13,0,0,1,1.49-.47,2.93,2.93,0,0,1,.76.09Zm-4.27,6.25a.74.74,0,0,0,.37.66,2,2,0,0,0,1,.23,2.86,2.86,0,0,0,1.51-.31.93.93,0,0,0,.49-.83.65.65,0,0,0-.27-.6,2.09,2.09,0,0,0-1-.17h-1a1.27,1.27,0,0,0-.86.27A.94.94,0,0,0,206.9,242.59Zm.44-4.53a1.12,1.12,0,0,0,.32.85,1.27,1.27,0,0,0,.88.28,1,1,0,0,0,1.19-1.15,1.06,1.06,0,0,0-1.2-1.2,1.22,1.22,0,0,0-.88.3A1.28,1.28,0,0,0,207.34,238.06Z" style="fill: #304041"/>
    <path d="M215.56,241.69l-.16-.76h0a2.11,2.11,0,0,1-.8.68,2.37,2.37,0,0,1-1,.18,1.76,1.76,0,0,1-1.25-.41,1.48,1.48,0,0,1-.45-1.16c0-1.09.86-1.65,2.59-1.7l.91,0v-.34a1.36,1.36,0,0,0-.27-.93,1.12,1.12,0,0,0-.87-.3,3.58,3.58,0,0,0-1.51.41l-.25-.62a3.74,3.74,0,0,1,.87-.33,3.79,3.79,0,0,1,.94-.12,2.06,2.06,0,0,1,1.42.42,1.76,1.76,0,0,1,.46,1.36v3.65Zm-1.83-.57a1.64,1.64,0,0,0,1.19-.41,1.54,1.54,0,0,0,.43-1.16v-.49l-.81,0a2.87,2.87,0,0,0-1.39.3.89.89,0,0,0-.43.83.84.84,0,0,0,.26.66A1.09,1.09,0,0,0,213.73,241.12Z" style="fill: #304041"/>
    <path d="M221.49,241.69v-3.46a1.42,1.42,0,0,0-.29-1,1.21,1.21,0,0,0-.94-.33,1.55,1.55,0,0,0-1.23.46,2.29,2.29,0,0,0-.39,1.5v2.8h-.81v-5.35h.66l.13.74h0a1.69,1.69,0,0,1,.7-.62,2.33,2.33,0,0,1,1-.21,2.06,2.06,0,0,1,1.46.46,2,2,0,0,1,.48,1.49v3.49Z" style="fill: #304041"/>
    <path d="M223.9,234.89a.52.52,0,0,1,.14-.4.45.45,0,0,1,.34-.13.48.48,0,0,1,.34.13.54.54,0,0,1,.14.4.55.55,0,0,1-.14.41.49.49,0,0,1-.34.14.46.46,0,0,1-.34-.14A.55.55,0,0,1,223.9,234.89Zm.88,6.8H224v-5.35h.81Z" style="fill: #304041"/>
    <path d="M229.92,241.69H226v-.55L229,237h-2.74v-.63h3.63V237L227,241.06h2.95Z" style="fill: #304041"/>
    <path d="M234.47,241.69l-.16-.76h0a2.18,2.18,0,0,1-.8.68,2.45,2.45,0,0,1-1,.18,1.74,1.74,0,0,1-1.24-.41,1.48,1.48,0,0,1-.45-1.16c0-1.09.86-1.65,2.59-1.7l.91,0v-.34a1.36,1.36,0,0,0-.27-.93,1.13,1.13,0,0,0-.87-.3,3.62,3.62,0,0,0-1.52.41l-.24-.62a3.91,3.91,0,0,1,1.81-.45,2.06,2.06,0,0,1,1.42.42,1.8,1.8,0,0,1,.46,1.36v3.65Zm-1.83-.57a1.6,1.6,0,0,0,1.18-.41,1.54,1.54,0,0,0,.44-1.16v-.49l-.81,0a2.91,2.91,0,0,0-1.4.3.91.91,0,0,0-.43.83.81.81,0,0,0,.27.66A1.09,1.09,0,0,0,232.64,241.12Z" style="fill: #304041"/>
    <path d="M238.47,241.12a2.73,2.73,0,0,0,.41,0l.32-.06v.62a1.8,1.8,0,0,1-.39.1,2.6,2.6,0,0,1-.46,0c-1,0-1.55-.54-1.55-1.63V237H236v-.39l.77-.33.34-1.15h.47v1.24h1.55V237h-1.55v3.15a1,1,0,0,0,.23.74A.77.77,0,0,0,238.47,241.12Z" style="fill: #304041"/>
    <path d="M240.2,234.89a.52.52,0,0,1,.14-.4.45.45,0,0,1,.34-.13.44.44,0,0,1,.33.13.51.51,0,0,1,.15.4.51.51,0,0,1-.15.41.45.45,0,0,1-.33.14.46.46,0,0,1-.34-.14A.55.55,0,0,1,240.2,234.89Zm.88,6.8h-.81v-5.35h.81Z" style="fill: #304041"/>
    <path d="M247.42,239a3,3,0,0,1-.66,2.05,2.32,2.32,0,0,1-1.82.73,2.46,2.46,0,0,1-1.28-.33,2.26,2.26,0,0,1-.86-1,3.4,3.4,0,0,1-.3-1.48,3,3,0,0,1,.65-2,2.32,2.32,0,0,1,1.82-.73,2.24,2.24,0,0,1,1.78.74A2.9,2.9,0,0,1,247.42,239Zm-4.08,0a2.58,2.58,0,0,0,.41,1.57,1.43,1.43,0,0,0,1.21.53,1.4,1.4,0,0,0,1.2-.53,2.51,2.51,0,0,0,.42-1.57,2.47,2.47,0,0,0-.42-1.55,1.65,1.65,0,0,0-2.42,0A2.48,2.48,0,0,0,243.34,239Z" style="fill: #304041"/>
    <path d="M252.5,241.69v-3.46a1.37,1.37,0,0,0-.3-1,1.2,1.2,0,0,0-.93-.33,1.55,1.55,0,0,0-1.23.46,2.29,2.29,0,0,0-.39,1.5v2.8h-.81v-5.35h.66l.13.74h0a1.63,1.63,0,0,1,.7-.62,2.33,2.33,0,0,1,1-.21,2,2,0,0,1,1.45.46,2,2,0,0,1,.49,1.49v3.49Z" style="fill: #304041"/>
    <path d="M258.43,240.23a1.36,1.36,0,0,1-.56,1.16,2.61,2.61,0,0,1-1.56.4,3.44,3.44,0,0,1-1.66-.33v-.76a3.66,3.66,0,0,0,.82.31,3.27,3.27,0,0,0,.86.11,1.85,1.85,0,0,0,1-.2.67.67,0,0,0,.35-.62.69.69,0,0,0-.27-.53,4.8,4.8,0,0,0-1.06-.53,5,5,0,0,1-1.06-.48,1.4,1.4,0,0,1-.47-.47,1.18,1.18,0,0,1-.16-.63,1.21,1.21,0,0,1,.54-1,2.47,2.47,0,0,1,1.45-.37,4.16,4.16,0,0,1,1.69.35l-.28.66a4,4,0,0,0-1.46-.34,1.56,1.56,0,0,0-.87.19.55.55,0,0,0-.3.49.62.62,0,0,0,.11.37,1.23,1.23,0,0,0,.36.29,7.28,7.28,0,0,0,.94.39,3.52,3.52,0,0,1,1.28.7A1.21,1.21,0,0,1,258.43,240.23Z" style="fill: #304041"/>
  </g>
  <g>
    <path d="M283.18,229.69v-7.13H284v6.38h3.15v.75Z" style="fill: #304041"/>
    <path d="M290.51,229.79a2.49,2.49,0,0,1-1.88-.72,2.83,2.83,0,0,1-.68-2,3.07,3.07,0,0,1,.64-2.05,2.09,2.09,0,0,1,1.71-.76,2,2,0,0,1,1.59.66,2.52,2.52,0,0,1,.58,1.74v.52h-3.68a2.12,2.12,0,0,0,.47,1.43,1.69,1.69,0,0,0,1.28.48,4.38,4.38,0,0,0,1.71-.36v.73a4.28,4.28,0,0,1-.82.26A4.09,4.09,0,0,1,290.51,229.79Zm-.22-4.87a1.32,1.32,0,0,0-1,.42,1.89,1.89,0,0,0-.45,1.17h2.8a1.79,1.79,0,0,0-.35-1.18A1.19,1.19,0,0,0,290.29,224.92Z" style="fill: #304041"/>
    <path d="M297.31,228.23a1.36,1.36,0,0,1-.56,1.16,2.61,2.61,0,0,1-1.56.4,3.46,3.46,0,0,1-1.66-.33v-.76a3.74,3.74,0,0,0,.83.31,3.2,3.2,0,0,0,.85.11,1.91,1.91,0,0,0,1-.2.68.68,0,0,0,.34-.62.66.66,0,0,0-.27-.53,4.57,4.57,0,0,0-1.06-.53,5.26,5.26,0,0,1-1.06-.48,1.5,1.5,0,0,1-.47-.47,1.28,1.28,0,0,1-.16-.63,1.21,1.21,0,0,1,.54-1,2.48,2.48,0,0,1,1.46-.37,4.2,4.2,0,0,1,1.69.35l-.29.66a4,4,0,0,0-1.46-.34,1.56,1.56,0,0,0-.87.19.54.54,0,0,0-.29.49.56.56,0,0,0,.11.37,1.06,1.06,0,0,0,.35.29,8,8,0,0,0,.94.39,3.52,3.52,0,0,1,1.28.7A1.21,1.21,0,0,1,297.31,228.23Z" style="fill: #304041"/>
    <path d="M302.08,228.23a1.36,1.36,0,0,1-.56,1.16,2.61,2.61,0,0,1-1.56.4,3.46,3.46,0,0,1-1.66-.33v-.76a3.74,3.74,0,0,0,.83.31,3.2,3.2,0,0,0,.85.11,1.91,1.91,0,0,0,1-.2.68.68,0,0,0,.34-.62.66.66,0,0,0-.27-.53,4.57,4.57,0,0,0-1.06-.53,5.26,5.26,0,0,1-1.06-.48,1.5,1.5,0,0,1-.47-.47,1.28,1.28,0,0,1-.15-.63,1.2,1.2,0,0,1,.53-1,2.48,2.48,0,0,1,1.46-.37,4.2,4.2,0,0,1,1.69.35l-.29.66a3.92,3.92,0,0,0-1.46-.34,1.56,1.56,0,0,0-.87.19.54.54,0,0,0-.29.49.56.56,0,0,0,.11.37,1.06,1.06,0,0,0,.35.29,8,8,0,0,0,.94.39,3.52,3.52,0,0,1,1.28.7A1.21,1.21,0,0,1,302.08,228.23Z" style="fill: #304041"/>
    <path d="M309.29,229.69l-.17-.76h0a2.18,2.18,0,0,1-.8.68,2.45,2.45,0,0,1-1,.18,1.74,1.74,0,0,1-1.24-.41,1.49,1.49,0,0,1-.46-1.16c0-1.09.87-1.65,2.6-1.7l.91,0v-.34a1.41,1.41,0,0,0-.27-.93,1.13,1.13,0,0,0-.87-.3,3.62,3.62,0,0,0-1.52.41l-.24-.62a3.91,3.91,0,0,1,1.81-.45,2,2,0,0,1,1.41.42,1.76,1.76,0,0,1,.47,1.36v3.65Zm-1.83-.57a1.6,1.6,0,0,0,1.18-.41,1.54,1.54,0,0,0,.44-1.16v-.49l-.81,0a2.91,2.91,0,0,0-1.4.3.91.91,0,0,0-.43.83.81.81,0,0,0,.27.66A1.09,1.09,0,0,0,307.46,229.12Z" style="fill: #304041"/>
    <path d="M315.94,224.34v.52l-1,.11a1.89,1.89,0,0,1,.24.45,1.71,1.71,0,0,1,.11.62,1.59,1.59,0,0,1-.54,1.26,2.18,2.18,0,0,1-1.47.47,3.14,3.14,0,0,1-.45,0,.79.79,0,0,0-.52.69.35.35,0,0,0,.18.32,1.31,1.31,0,0,0,.62.11h.95a2.13,2.13,0,0,1,1.33.36,1.29,1.29,0,0,1,.47,1.07,1.52,1.52,0,0,1-.71,1.35,3.84,3.84,0,0,1-2.08.47,2.85,2.85,0,0,1-1.62-.39,1.27,1.27,0,0,1-.57-1.11,1.23,1.23,0,0,1,.31-.84,1.62,1.62,0,0,1,.88-.49.86.86,0,0,1-.35-.28.78.78,0,0,1-.13-.46.9.9,0,0,1,.15-.51,1.54,1.54,0,0,1,.5-.42,1.44,1.44,0,0,1-.68-.59,1.63,1.63,0,0,1-.26-.93,1.74,1.74,0,0,1,.52-1.36,2.16,2.16,0,0,1,1.5-.47,3,3,0,0,1,.76.09Zm-4.27,6.25a.72.72,0,0,0,.37.66,2,2,0,0,0,1,.23,2.88,2.88,0,0,0,1.52-.31,1,1,0,0,0,.49-.83.65.65,0,0,0-.27-.6,2.12,2.12,0,0,0-1-.17h-1a1.25,1.25,0,0,0-.86.27A.91.91,0,0,0,311.67,230.59Zm.44-4.53a1.08,1.08,0,0,0,.32.85,1.26,1.26,0,0,0,.88.28A1,1,0,0,0,314.5,226a1.06,1.06,0,0,0-1.21-1.2,1.18,1.18,0,0,0-.87.3A1.23,1.23,0,0,0,312.11,226.06Z" style="fill: #304041"/>
    <path d="M317,222.89a.52.52,0,0,1,.13-.4.48.48,0,0,1,.35-.13.44.44,0,0,1,.33.13.5.5,0,0,1,.14.4.51.51,0,0,1-.14.41.45.45,0,0,1-.33.14.48.48,0,0,1-.35-.14A.55.55,0,0,1,317,222.89Zm.88,6.8H317v-5.35h.81Z" style="fill: #304041"/>
    <path d="M320.38,229.69h-.82V222.1h.82Z" style="fill: #304041"/>
    <path d="M324.35,229.79a2.46,2.46,0,0,1-1.87-.72,2.78,2.78,0,0,1-.68-2,3.12,3.12,0,0,1,.63-2.05,2.12,2.12,0,0,1,1.71-.76,2,2,0,0,1,1.6.66,2.52,2.52,0,0,1,.58,1.74v.52h-3.68a2.12,2.12,0,0,0,.47,1.43,1.67,1.67,0,0,0,1.27.48,4.3,4.3,0,0,0,1.71-.36v.73a4,4,0,0,1-.81.26A4.18,4.18,0,0,1,324.35,229.79Zm-.22-4.87a1.31,1.31,0,0,0-1,.42,1.89,1.89,0,0,0-.45,1.17h2.79a1.79,1.79,0,0,0-.34-1.18A1.21,1.21,0,0,0,324.13,224.92Z" style="fill: #304041"/>
    <path d="M278.46,239a3,3,0,0,1-.66,2.05,2.32,2.32,0,0,1-1.82.73,2.43,2.43,0,0,1-1.27-.33,2.2,2.2,0,0,1-.86-1,3.26,3.26,0,0,1-.31-1.48,2.9,2.9,0,0,1,.66-2,2.29,2.29,0,0,1,1.81-.73,2.26,2.26,0,0,1,1.79.74A2.94,2.94,0,0,1,278.46,239Zm-4.08,0a2.58,2.58,0,0,0,.41,1.57,1.46,1.46,0,0,0,1.21.53,1.43,1.43,0,0,0,1.21-.53,2.58,2.58,0,0,0,.41-1.57,2.53,2.53,0,0,0-.41-1.55,1.46,1.46,0,0,0-1.22-.53,1.43,1.43,0,0,0-1.2.53A2.47,2.47,0,0,0,274.38,239Z" style="fill: #304041"/>
    <path d="M282.32,236.25a4.06,4.06,0,0,1,.64.05l-.11.76a2.75,2.75,0,0,0-.59-.08,1.44,1.44,0,0,0-1.11.53,2,2,0,0,0-.46,1.31v2.87h-.81v-5.35h.67l.09,1h0a2.44,2.44,0,0,1,.72-.8A1.61,1.61,0,0,1,282.32,236.25Z" style="fill: #304041"/>
    <path d="M288.34,236.34v.52l-1,.11a1.9,1.9,0,0,1,.25.45,1.72,1.72,0,0,1,.1.62,1.58,1.58,0,0,1-.53,1.26,2.19,2.19,0,0,1-1.48.47,3.14,3.14,0,0,1-.45,0,.79.79,0,0,0-.51.69.35.35,0,0,0,.18.32,1.29,1.29,0,0,0,.62.11h.94a2.16,2.16,0,0,1,1.34.36,1.29,1.29,0,0,1,.47,1.07,1.51,1.51,0,0,1-.72,1.35,3.81,3.81,0,0,1-2.08.47,2.85,2.85,0,0,1-1.62-.39,1.27,1.27,0,0,1-.57-1.11,1.24,1.24,0,0,1,.32-.84,1.62,1.62,0,0,1,.88-.49.86.86,0,0,1-.35-.28.78.78,0,0,1-.14-.46.84.84,0,0,1,.16-.51,1.49,1.49,0,0,1,.49-.42A1.46,1.46,0,0,1,284,239a1.64,1.64,0,0,1-.27-.93,1.75,1.75,0,0,1,.53-1.36,2.14,2.14,0,0,1,1.5-.47,2.86,2.86,0,0,1,.75.09Zm-4.26,6.25a.73.73,0,0,0,.36.66,2,2,0,0,0,1.05.23,2.84,2.84,0,0,0,1.51-.31.93.93,0,0,0,.49-.83.66.66,0,0,0-.26-.6,2.14,2.14,0,0,0-1-.17h-1a1.28,1.28,0,0,0-.86.27A.93.93,0,0,0,284.08,242.59Zm.44-4.53a1.11,1.11,0,0,0,.31.85,1.28,1.28,0,0,0,.89.28A1,1,0,0,0,286.9,238a1.06,1.06,0,0,0-1.2-1.2,1.22,1.22,0,0,0-.88.3A1.27,1.27,0,0,0,284.52,238.06Z" style="fill: #304041"/>
    <path d="M292.73,241.69l-.16-.76h0a2.09,2.09,0,0,1-.79.68,2.45,2.45,0,0,1-1,.18,1.76,1.76,0,0,1-1.25-.41,1.48,1.48,0,0,1-.45-1.16c0-1.09.87-1.65,2.59-1.7l.91,0v-.34a1.36,1.36,0,0,0-.27-.93,1.11,1.11,0,0,0-.86-.3,3.62,3.62,0,0,0-1.52.41l-.25-.62a4.12,4.12,0,0,1,.87-.33,3.79,3.79,0,0,1,.94-.12,2,2,0,0,1,1.42.42,1.76,1.76,0,0,1,.46,1.36v3.65Zm-1.83-.57a1.63,1.63,0,0,0,1.19-.41,1.54,1.54,0,0,0,.43-1.16v-.49l-.81,0a2.87,2.87,0,0,0-1.39.3.89.89,0,0,0-.43.83.81.81,0,0,0,.27.66A1,1,0,0,0,290.9,241.12Z" style="fill: #304041"/>
    <path d="M298.67,241.69v-3.46a1.37,1.37,0,0,0-.3-1,1.2,1.2,0,0,0-.93-.33,1.55,1.55,0,0,0-1.23.46,2.23,2.23,0,0,0-.4,1.5v2.8H295v-5.35h.66l.13.74h0a1.69,1.69,0,0,1,.7-.62,2.36,2.36,0,0,1,1-.21,2,2,0,0,1,1.46.46,2,2,0,0,1,.49,1.49v3.49Z" style="fill: #304041"/>
    <path d="M301.07,234.89a.52.52,0,0,1,.14-.4.47.47,0,0,1,.34-.13.48.48,0,0,1,.34.13.54.54,0,0,1,.14.4.55.55,0,0,1-.14.41.49.49,0,0,1-.34.14.48.48,0,0,1-.34-.14A.55.55,0,0,1,301.07,234.89Zm.88,6.8h-.81v-5.35H302Z" style="fill: #304041"/>
    <path d="M307.09,241.69h-3.88v-.55l2.92-4.17h-2.74v-.63H307V237l-2.88,4.09h2.95Z" style="fill: #304041"/>
    <path d="M311.64,241.69l-.16-.76h0a2.11,2.11,0,0,1-.8.68,2.4,2.4,0,0,1-1,.18,1.76,1.76,0,0,1-1.25-.41,1.48,1.48,0,0,1-.45-1.16c0-1.09.86-1.65,2.59-1.7l.91,0v-.34a1.36,1.36,0,0,0-.27-.93,1.12,1.12,0,0,0-.87-.3,3.58,3.58,0,0,0-1.51.41l-.25-.62a4,4,0,0,1,1.81-.45,2.06,2.06,0,0,1,1.42.42,1.76,1.76,0,0,1,.46,1.36v3.65Zm-1.83-.57a1.64,1.64,0,0,0,1.19-.41,1.54,1.54,0,0,0,.43-1.16v-.49l-.81,0a2.84,2.84,0,0,0-1.39.3.89.89,0,0,0-.43.83.84.84,0,0,0,.26.66A1.09,1.09,0,0,0,309.81,241.12Z" style="fill: #304041"/>
    <path d="M315.64,241.12a2.73,2.73,0,0,0,.41,0l.32-.06v.62a1.8,1.8,0,0,1-.39.1,2.6,2.6,0,0,1-.46,0c-1,0-1.55-.54-1.55-1.63V237h-.77v-.39l.77-.33.34-1.15h.47v1.24h1.55V237h-1.55v3.15a1.09,1.09,0,0,0,.23.74A.77.77,0,0,0,315.64,241.12Z" style="fill: #304041"/>
    <path d="M317.37,234.89a.52.52,0,0,1,.14-.4.45.45,0,0,1,.34-.13.48.48,0,0,1,.34.13.54.54,0,0,1,.14.4.55.55,0,0,1-.14.41.49.49,0,0,1-.34.14.46.46,0,0,1-.34-.14A.55.55,0,0,1,317.37,234.89Zm.88,6.8h-.81v-5.35h.81Z" style="fill: #304041"/>
    <path d="M324.59,239a3,3,0,0,1-.66,2.05,2.32,2.32,0,0,1-1.82.73,2.49,2.49,0,0,1-1.28-.33,2.32,2.32,0,0,1-.86-1,3.4,3.4,0,0,1-.3-1.48,2.9,2.9,0,0,1,.66-2,2.29,2.29,0,0,1,1.81-.73,2.26,2.26,0,0,1,1.79.74A2.94,2.94,0,0,1,324.59,239Zm-4.08,0a2.58,2.58,0,0,0,.41,1.57,1.46,1.46,0,0,0,1.21.53,1.43,1.43,0,0,0,1.21-.53,2.58,2.58,0,0,0,.41-1.57,2.53,2.53,0,0,0-.41-1.55,1.46,1.46,0,0,0-1.22-.53,1.43,1.43,0,0,0-1.2.53A2.47,2.47,0,0,0,320.51,239Z" style="fill: #304041"/>
    <path d="M329.67,241.69v-3.46a1.37,1.37,0,0,0-.3-1,1.18,1.18,0,0,0-.93-.33,1.55,1.55,0,0,0-1.23.46,2.29,2.29,0,0,0-.39,1.5v2.8H326v-5.35h.66l.13.74h0a1.69,1.69,0,0,1,.7-.62,2.33,2.33,0,0,1,1-.21,2,2,0,0,1,1.45.46,2,2,0,0,1,.49,1.49v3.49Z" style="fill: #304041"/>
    <path d="M335.6,240.23a1.36,1.36,0,0,1-.56,1.16,2.61,2.61,0,0,1-1.56.4,3.46,3.46,0,0,1-1.66-.33v-.76a3.74,3.74,0,0,0,.83.31,3.2,3.2,0,0,0,.85.11,1.91,1.91,0,0,0,1-.2.68.68,0,0,0,.34-.62.66.66,0,0,0-.27-.53,4.57,4.57,0,0,0-1.06-.53,5.26,5.26,0,0,1-1.06-.48,1.5,1.5,0,0,1-.47-.47,1.28,1.28,0,0,1-.15-.63,1.2,1.2,0,0,1,.53-1,2.48,2.48,0,0,1,1.46-.37,4.2,4.2,0,0,1,1.69.35l-.29.66a3.92,3.92,0,0,0-1.46-.34,1.61,1.61,0,0,0-.87.19.54.54,0,0,0-.29.49.56.56,0,0,0,.11.37,1.06,1.06,0,0,0,.35.29,8,8,0,0,0,.94.39,3.52,3.52,0,0,1,1.28.7A1.21,1.21,0,0,1,335.6,240.23Z" style="fill: #304041"/>
  </g>
</svg>
