<svg id="Layer_1" data-name="Layer 1" xmlns="http://www.w3.org/2000/svg" viewBox="0 0 374.33 255.83">
  <title>nugget_graph_4de</title>
  <rect x="202.35" y="27.31" width="50" height="186.26" style="fill: #8f89bf"/>
  <rect x="279.52" y="73.06" width="50" height="140.51" style="fill: #e3e2e3"/>
  <g>
    <path d="M151.79,60a4.59,4.59,0,0,1,3.28,1.16,4.17,4.17,0,0,1,1.22,3.17A4.62,4.62,0,0,1,154.82,68a6.17,6.17,0,0,1-4.2,1.28,8.12,8.12,0,0,1-3.83-.77V65.93a7.78,7.78,0,0,0,1.79.66,7.5,7.5,0,0,0,1.93.26c1.84,0,2.75-.75,2.75-2.25s-.95-2.15-2.85-2.15a6.74,6.74,0,0,0-1.13.1,8.25,8.25,0,0,0-1,.22l-1.19-.64.53-7.25h7.72v2.55h-5.08L150,60.22l.34-.07A6.65,6.65,0,0,1,151.79,60Z" style="fill: #314041"/>
    <path d="M159.39,69.1l5.34-11.67h-7V54.9h10.2v1.89L162.54,69.1Z" style="fill: #314041"/>
    <path d="M175.92,59.12a5.44,5.44,0,0,1-.86,3.36,3,3,0,0,1-2.54,1.12A2.92,2.92,0,0,1,170,62.45a5.46,5.46,0,0,1-.87-3.33c0-3,1.11-4.44,3.35-4.44a3,3,0,0,1,2.53,1.15A5.37,5.37,0,0,1,175.92,59.12Zm-4.3,0a5.65,5.65,0,0,0,.22,1.84c.14.41.38.61.7.61.62,0,.93-.82.93-2.45s-.31-2.43-.93-2.43c-.32,0-.56.2-.7.6A5.54,5.54,0,0,0,171.62,59.14Zm11-4.26L174.73,69.1h-2.34l7.89-14.22Zm3.26,9.92a5.43,5.43,0,0,1-.86,3.35,3,3,0,0,1-2.54,1.12A2.92,2.92,0,0,1,180,68.12a5.43,5.43,0,0,1-.88-3.32c0-3,1.12-4.45,3.36-4.45A3,3,0,0,1,185,61.51,5.3,5.3,0,0,1,185.88,64.8Zm-4.3,0a6,6,0,0,0,.21,1.84c.15.41.38.61.71.61.62,0,.93-.82.93-2.45s-.31-2.43-.93-2.43c-.33,0-.56.2-.71.6A5.92,5.92,0,0,0,181.58,64.82Z" style="fill: #314041"/>
  </g>
  <g>
    <path d="M294.58,144.36h-1.71v2.95h-2.94v-2.95h-6.07v-2.09l6.24-9.18h2.77V142h1.71ZM289.93,142v-2.42c0-.4,0-1,.05-1.75s.06-1.21.08-1.33H290a11,11,0,0,1-.87,1.56l-2.6,3.94Z" style="fill: #314041"/>
    <path d="M305.07,136.27a3.36,3.36,0,0,1-.8,2.26,4.15,4.15,0,0,1-2.27,1.29v.06a4.54,4.54,0,0,1,2.61,1,2.93,2.93,0,0,1,.88,2.24,3.78,3.78,0,0,1-1.49,3.2,6.87,6.87,0,0,1-4.25,1.14,10.17,10.17,0,0,1-4.1-.77v-2.55a10.26,10.26,0,0,0,1.82.68,7.82,7.82,0,0,0,2,.26,3.8,3.8,0,0,0,2.2-.51,1.85,1.85,0,0,0,.71-1.62,1.46,1.46,0,0,0-.82-1.42,6,6,0,0,0-2.6-.42h-1.08v-2.3h1.1a5.06,5.06,0,0,0,2.41-.44,1.55,1.55,0,0,0,.77-1.48c0-1.08-.68-1.61-2-1.61a4.48,4.48,0,0,0-1.42.23,6.55,6.55,0,0,0-1.61.81l-1.39-2.08a7.75,7.75,0,0,1,4.64-1.4,5.94,5.94,0,0,1,3.48.9A2.86,2.86,0,0,1,305.07,136.27Z" style="fill: #314041"/>
    <path d="M313.63,137.33a5.51,5.51,0,0,1-.86,3.36,3,3,0,0,1-2.54,1.12,2.92,2.92,0,0,1-2.48-1.15,5.39,5.39,0,0,1-.88-3.33c0-3,1.12-4.45,3.36-4.45a3,3,0,0,1,2.52,1.16A5.3,5.3,0,0,1,313.63,137.33Zm-4.31,0a5.94,5.94,0,0,0,.22,1.84c.15.41.38.61.71.61.62,0,.93-.82.93-2.45s-.31-2.43-.93-2.43c-.33,0-.56.2-.71.59A5.89,5.89,0,0,0,309.32,137.35Zm11-4.26-7.88,14.22H310.1L318,133.09Zm3.27,9.92a5.5,5.5,0,0,1-.86,3.35,3,3,0,0,1-2.54,1.12,2.92,2.92,0,0,1-2.48-1.15,5.38,5.38,0,0,1-.88-3.32c0-3,1.12-4.45,3.36-4.45a3,3,0,0,1,2.52,1.16A5.28,5.28,0,0,1,323.59,143Zm-4.31,0a5.94,5.94,0,0,0,.22,1.84c.15.41.38.61.71.61.62,0,.93-.82.93-2.45s-.31-2.43-.93-2.43c-.33,0-.56.2-.71.59A5.94,5.94,0,0,0,319.28,143Z" style="fill: #314041"/>
  </g>
  <g>
    <path d="M91.71,90.71a3.14,3.14,0,0,1-1.23,2.64,5.28,5.28,0,0,1-3.34,1,8.28,8.28,0,0,1-3.52-.59V92.27a9.72,9.72,0,0,0,1.73.53,8.91,8.91,0,0,0,1.84.19,3.77,3.77,0,0,0,2.25-.56,1.86,1.86,0,0,0,.76-1.58,2,2,0,0,0-.27-1.1A2.53,2.53,0,0,0,89,89a11.89,11.89,0,0,0-1.91-.82,6.09,6.09,0,0,1-2.56-1.52,3.37,3.37,0,0,1-.77-2.29A2.86,2.86,0,0,1,84.91,82a4.67,4.67,0,0,1,3-.88,8.65,8.65,0,0,1,3.52.71l-.46,1.3a7.87,7.87,0,0,0-3.09-.67,3,3,0,0,0-1.86.51,1.69,1.69,0,0,0-.67,1.41,2.13,2.13,0,0,0,.25,1.1,2.33,2.33,0,0,0,.83.78,10.43,10.43,0,0,0,1.79.79A7.09,7.09,0,0,1,91,88.56,3,3,0,0,1,91.71,90.71Z" style="fill: #314041"/>
    <path d="M102.43,89.3A5.32,5.32,0,0,1,101.25,93,4.19,4.19,0,0,1,98,94.3a4.41,4.41,0,0,1-2.3-.6A4.08,4.08,0,0,1,94.13,92a6,6,0,0,1-.55-2.66,5.29,5.29,0,0,1,1.18-3.67A4.18,4.18,0,0,1,98,84.32a4.08,4.08,0,0,1,3.21,1.34A5.27,5.27,0,0,1,102.43,89.3Zm-7.34,0a4.57,4.57,0,0,0,.74,2.81,2.55,2.55,0,0,0,2.17,1,2.59,2.59,0,0,0,2.18-1,4.58,4.58,0,0,0,.74-2.82,4.53,4.53,0,0,0-.74-2.79,2.6,2.6,0,0,0-2.19-1,2.57,2.57,0,0,0-2.17.94A4.55,4.55,0,0,0,95.09,89.3Z" style="fill: #314041"/>
    <path d="M109.33,85.63h-2.45v8.5h-1.46v-8.5H103.7V85l1.72-.53V83.9c0-2.36,1-3.55,3.1-3.55a6.66,6.66,0,0,1,1.8.31l-.38,1.17a4.84,4.84,0,0,0-1.44-.27,1.39,1.39,0,0,0-1.22.55,3,3,0,0,0-.4,1.76v.62h2.45Z" style="fill: #314041"/>
    <path d="M114.2,93.1A4.56,4.56,0,0,0,115,93a5.41,5.41,0,0,0,.57-.12V94a2.94,2.94,0,0,1-.7.19,5.16,5.16,0,0,1-.83.07q-2.79,0-2.79-2.94V85.63h-1.38v-.71l1.38-.6.61-2.06h.84v2.23h2.8v1.14h-2.8V91.3a1.91,1.91,0,0,0,.42,1.33A1.43,1.43,0,0,0,114.2,93.1Z" style="fill: #314041"/>
    <path d="M125.31,94.13l-1.77-5.66c-.11-.34-.32-1.13-.62-2.35h-.07c-.23,1-.44,1.82-.62,2.37l-1.81,5.64h-1.69l-2.63-9.64h1.53c.62,2.42,1.09,4.27,1.42,5.53a24.88,24.88,0,0,1,.56,2.56h.07c.06-.33.16-.77.31-1.3s.27-1,.37-1.26l1.77-5.53h1.58L125.43,90a19.15,19.15,0,0,1,.67,2.54h.07c0-.21.09-.53.19-1s.71-2.81,1.83-7.1h1.52L127,94.13Z" style="fill: #314041"/>
    <path d="M137.37,94.13l-.29-1.37H137A4,4,0,0,1,135.57,94a4.44,4.44,0,0,1-1.79.32,3.17,3.17,0,0,1-2.24-.74,2.7,2.7,0,0,1-.82-2.1q0-2.91,4.67-3.06l1.64-.05v-.6a2.47,2.47,0,0,0-.49-1.67,2,2,0,0,0-1.56-.54,6.45,6.45,0,0,0-2.73.74l-.44-1.12a6.32,6.32,0,0,1,1.56-.6,6.56,6.56,0,0,1,1.7-.22,3.65,3.65,0,0,1,2.55.76,3.21,3.21,0,0,1,.83,2.45v6.58Zm-3.3-1a3,3,0,0,0,2.14-.75,2.75,2.75,0,0,0,.78-2.09v-.87l-1.46.06A5.31,5.31,0,0,0,133,90a1.64,1.64,0,0,0-.77,1.49,1.48,1.48,0,0,0,.48,1.2A2,2,0,0,0,134.07,93.1Z" style="fill: #314041"/>
    <path d="M145.85,84.32a5.73,5.73,0,0,1,1.15.1l-.2,1.36a4.91,4.91,0,0,0-1.05-.14,2.57,2.57,0,0,0-2,1,3.45,3.45,0,0,0-.83,2.37v5.17h-1.46V84.49h1.2l.17,1.79h.07a4.27,4.27,0,0,1,1.29-1.45A2.9,2.9,0,0,1,145.85,84.32Z" style="fill: #314041"/>
    <path d="M152.87,94.3A4.43,4.43,0,0,1,149.5,93a5,5,0,0,1-1.23-3.61,5.6,5.6,0,0,1,1.14-3.7,3.82,3.82,0,0,1,3.09-1.37,3.61,3.61,0,0,1,2.86,1.19,4.57,4.57,0,0,1,1.06,3.14v.92h-6.64a3.81,3.81,0,0,0,.86,2.58,3,3,0,0,0,2.29.88,7.8,7.8,0,0,0,3.07-.65v1.3a8,8,0,0,1-1.46.48A8.83,8.83,0,0,1,152.87,94.3Zm-.39-8.76a2.36,2.36,0,0,0-1.85.76,3.52,3.52,0,0,0-.82,2.09h5a3.23,3.23,0,0,0-.61-2.12A2.17,2.17,0,0,0,152.48,85.54Z" style="fill: #314041"/>
    <path d="M169.5,94.13l-.29-1.37h-.07A4,4,0,0,1,167.7,94a4.39,4.39,0,0,1-1.78.32,3.18,3.18,0,0,1-2.25-.74,2.69,2.69,0,0,1-.81-2.1q0-2.91,4.66-3.06l1.64-.05v-.6a2.42,2.42,0,0,0-.49-1.67,2,2,0,0,0-1.56-.54,6.37,6.37,0,0,0-2.72.74l-.45-1.12a6.32,6.32,0,0,1,1.56-.6,6.56,6.56,0,0,1,1.7-.22,3.65,3.65,0,0,1,2.55.76,3.17,3.17,0,0,1,.83,2.45v6.58Zm-3.29-1a3,3,0,0,0,2.14-.75,2.79,2.79,0,0,0,.77-2.09v-.87l-1.45.06a5.28,5.28,0,0,0-2.51.54,1.62,1.62,0,0,0-.77,1.49,1.48,1.48,0,0,0,.48,1.2A1.94,1.94,0,0,0,166.21,93.1Z" style="fill: #314041"/>
    <path d="M175.05,94.13h-1.46V80.45h1.46Z" style="fill: #314041"/>
    <path d="M184.36,91.5a2.41,2.41,0,0,1-1,2.07,4.65,4.65,0,0,1-2.81.73,6.19,6.19,0,0,1-3-.6V92.34a7.38,7.38,0,0,0,1.49.56,6.45,6.45,0,0,0,1.54.2,3.38,3.38,0,0,0,1.75-.37,1.25,1.25,0,0,0,.13-2.07,7.69,7.69,0,0,0-1.9-1,9.69,9.69,0,0,1-1.91-.87,2.65,2.65,0,0,1-.85-.85,2.22,2.22,0,0,1-.27-1.13,2.17,2.17,0,0,1,.95-1.86,4.44,4.44,0,0,1,2.63-.68,7.7,7.7,0,0,1,3,.63l-.52,1.19a6.91,6.91,0,0,0-2.62-.6,3.12,3.12,0,0,0-1.57.32,1,1,0,0,0-.52.9,1.09,1.09,0,0,0,.19.66,2.08,2.08,0,0,0,.64.52,15,15,0,0,0,1.69.71,6.36,6.36,0,0,1,2.31,1.26A2.22,2.22,0,0,1,184.36,91.5Z" style="fill: #314041"/>
    <path d="M103.27,115.73l-1.77-5.66c-.11-.34-.32-1.13-.62-2.35h-.07c-.24,1-.44,1.82-.62,2.37l-1.82,5.64H96.68l-2.62-9.64h1.53c.62,2.42,1.09,4.27,1.42,5.53a21.58,21.58,0,0,1,.55,2.56h.07c.07-.33.17-.77.32-1.3s.26-.95.37-1.26l1.77-5.53h1.58l1.72,5.53a19.15,19.15,0,0,1,.67,2.54h.07a9.18,9.18,0,0,1,.19-1q.15-.66,1.83-7.1h1.51L105,115.73Z" style="fill: #314041"/>
    <path d="M109.28,103.48a.94.94,0,0,1,.25-.73.81.81,0,0,1,.61-.23.89.89,0,0,1,.61.23,1,1,0,0,1,.25.73,1,1,0,0,1-.25.74.85.85,0,0,1-.61.24.82.82,0,0,1-.61-.24A1,1,0,0,1,109.28,103.48Zm1.58,12.25H109.4v-9.64h1.46Z" style="fill: #314041"/>
    <path d="M117.8,115.9a4.09,4.09,0,0,1-3.23-1.29,5.25,5.25,0,0,1-1.15-3.64,5.46,5.46,0,0,1,1.16-3.73,4.21,4.21,0,0,1,3.32-1.32,6.57,6.57,0,0,1,1.39.15,4.36,4.36,0,0,1,1.09.35l-.45,1.24a6.16,6.16,0,0,0-1.05-.32,4.43,4.43,0,0,0-1-.13q-2.94,0-2.94,3.74a4.44,4.44,0,0,0,.72,2.73,2.48,2.48,0,0,0,2.12.95,6.6,6.6,0,0,0,2.47-.52v1.29A5.35,5.35,0,0,1,117.8,115.9Z" style="fill: #314041"/>
    <path d="M129.12,115.73v-6.24a2.48,2.48,0,0,0-.54-1.75,2.18,2.18,0,0,0-1.68-.58,2.76,2.76,0,0,0-2.22.82,4.23,4.23,0,0,0-.7,2.71v5h-1.46V102.05H124v4.14a8.56,8.56,0,0,1-.07,1.24H124a3,3,0,0,1,1.23-1.09,3.92,3.92,0,0,1,1.81-.41,3.76,3.76,0,0,1,2.65.84,3.54,3.54,0,0,1,.89,2.67v6.29Z" style="fill: #314041"/>
    <path d="M136.68,114.7a4.56,4.56,0,0,0,.75-.06,5.41,5.41,0,0,0,.57-.12v1.12a2.94,2.94,0,0,1-.7.19,5.07,5.07,0,0,1-.83.07q-2.79,0-2.79-2.94v-5.73H132.3v-.71l1.38-.6.61-2.06h.85v2.23h2.79v1.14h-2.79v5.67a1.91,1.91,0,0,0,.41,1.33A1.44,1.44,0,0,0,136.68,114.7Z" style="fill: #314041"/>
    <path d="M139.8,103.48a1,1,0,0,1,.25-.73.84.84,0,0,1,.62-.23.88.88,0,0,1,.6.23,1,1,0,0,1,.26.73,1,1,0,0,1-.26.74.9.9,0,0,1-1.22,0A1,1,0,0,1,139.8,103.48Zm1.59,12.25h-1.46v-9.64h1.46Z" style="fill: #314041"/>
    <path d="M152.36,106.09V107l-1.78.21a3.12,3.12,0,0,1,.44.8,3.06,3.06,0,0,1,.19,1.12,2.85,2.85,0,0,1-1,2.26,3.93,3.93,0,0,1-2.66.84,4.14,4.14,0,0,1-.81-.07,1.45,1.45,0,0,0-.93,1.24.63.63,0,0,0,.33.59,2.39,2.39,0,0,0,1.11.19H149a3.81,3.81,0,0,1,2.4.66,2.28,2.28,0,0,1,.84,1.91,2.74,2.74,0,0,1-1.28,2.44,6.9,6.9,0,0,1-3.75.84,5.09,5.09,0,0,1-2.91-.7,2.28,2.28,0,0,1-1-2,2.2,2.2,0,0,1,.56-1.52,2.81,2.81,0,0,1,1.58-.87,1.47,1.47,0,0,1-.62-.52,1.35,1.35,0,0,1-.25-.82,1.52,1.52,0,0,1,.28-.92,2.89,2.89,0,0,1,.89-.76,2.63,2.63,0,0,1-1.22-1,3.09,3.09,0,0,1-.47-1.69,3.15,3.15,0,0,1,.95-2.44,3.88,3.88,0,0,1,2.69-.85,5.16,5.16,0,0,1,1.36.17Zm-7.68,11.25a1.31,1.31,0,0,0,.66,1.19,3.64,3.64,0,0,0,1.89.4,5.34,5.34,0,0,0,2.72-.54,1.69,1.69,0,0,0,.88-1.5,1.17,1.17,0,0,0-.48-1.08,3.79,3.79,0,0,0-1.82-.3h-1.75a2.25,2.25,0,0,0-1.54.47A1.7,1.7,0,0,0,144.68,117.34Zm.79-8.16a2,2,0,0,0,.57,1.53,2.32,2.32,0,0,0,1.59.52,1.87,1.87,0,0,0,2.14-2.08,1.91,1.91,0,0,0-2.16-2.17,2.17,2.17,0,0,0-1.58.55A2.24,2.24,0,0,0,145.47,109.18Z" style="fill: #314041"/>
    <path d="M160.55,113.1a2.4,2.4,0,0,1-1,2.07,4.67,4.67,0,0,1-2.81.73,6.19,6.19,0,0,1-3-.6v-1.36a7.38,7.38,0,0,0,1.49.56,6.45,6.45,0,0,0,1.54.2,3.38,3.38,0,0,0,1.75-.37,1.25,1.25,0,0,0,.13-2.07,7.69,7.69,0,0,0-1.9-1,9.69,9.69,0,0,1-1.91-.87,2.65,2.65,0,0,1-.85-.85,2.25,2.25,0,0,1-.27-1.13,2.17,2.17,0,0,1,1-1.86,4.44,4.44,0,0,1,2.63-.68,7.7,7.7,0,0,1,3,.63l-.52,1.19a6.91,6.91,0,0,0-2.62-.6,3.1,3.1,0,0,0-1.57.32,1,1,0,0,0-.53.9,1.1,1.1,0,0,0,.2.66,2.08,2.08,0,0,0,.64.52,14.2,14.2,0,0,0,1.69.71,6.36,6.36,0,0,1,2.31,1.26A2.21,2.21,0,0,1,160.55,113.1Z" style="fill: #314041"/>
    <path d="M166,114.7a4.56,4.56,0,0,0,.75-.06,5.41,5.41,0,0,0,.57-.12v1.12a2.94,2.94,0,0,1-.7.19,5.25,5.25,0,0,1-.83.07c-1.86,0-2.8-1-2.8-2.94v-5.73h-1.38v-.71l1.38-.6.62-2.06h.84v2.23h2.8v1.14h-2.8v5.67a1.91,1.91,0,0,0,.42,1.33A1.43,1.43,0,0,0,166,114.7Z" style="fill: #314041"/>
    <path d="M173.35,115.9a4.41,4.41,0,0,1-3.37-1.3,5,5,0,0,1-1.23-3.61,5.6,5.6,0,0,1,1.14-3.7,3.8,3.8,0,0,1,3.08-1.37,3.61,3.61,0,0,1,2.87,1.19,4.57,4.57,0,0,1,1,3.14v.92h-6.63a3.85,3.85,0,0,0,.85,2.58,3,3,0,0,0,2.29.88,7.82,7.82,0,0,0,3.08-.65v1.3a8,8,0,0,1-1.46.48A8.83,8.83,0,0,1,173.35,115.9Zm-.39-8.76a2.38,2.38,0,0,0-1.85.75,3.58,3.58,0,0,0-.82,2.1h5a3.23,3.23,0,0,0-.62-2.12A2.15,2.15,0,0,0,173,107.14Z" style="fill: #314041"/>
    <path d="M183.78,105.92a5.79,5.79,0,0,1,1.15.1l-.21,1.36a4.83,4.83,0,0,0-1.05-.14,2.57,2.57,0,0,0-2,1,3.49,3.49,0,0,0-.83,2.37v5.17h-1.46v-9.64h1.21l.16,1.79h.07a4.27,4.27,0,0,1,1.29-1.45A2.93,2.93,0,0,1,183.78,105.92Z" style="fill: #314041"/>
    <path d="M37.67,137.33H36.18V125.8H32.11v-1.32h9.63v1.32H37.67Z" style="fill: #314041"/>
    <path d="M47.53,137.5a4.4,4.4,0,0,1-3.37-1.3,5,5,0,0,1-1.24-3.61,5.55,5.55,0,0,1,1.15-3.7,3.78,3.78,0,0,1,3.08-1.37A3.63,3.63,0,0,1,50,128.71a4.52,4.52,0,0,1,1.06,3.14v.92H44.43a3.86,3.86,0,0,0,.86,2.58,3,3,0,0,0,2.29.88,7.85,7.85,0,0,0,3.08-.65v1.3a8.35,8.35,0,0,1-1.47.48A8.72,8.72,0,0,1,47.53,137.5Zm-.4-8.76a2.37,2.37,0,0,0-1.85.76,3.46,3.46,0,0,0-.81,2.09h5a3.23,3.23,0,0,0-.62-2.12A2.17,2.17,0,0,0,47.13,128.74Z" style="fill: #314041"/>
    <path d="M57.41,137.5a4.12,4.12,0,0,1-3.24-1.28A5.29,5.29,0,0,1,53,132.57a5.48,5.48,0,0,1,1.16-3.73,4.21,4.21,0,0,1,3.32-1.32,6.5,6.5,0,0,1,1.39.15A4.36,4.36,0,0,1,60,128l-.45,1.24a6.16,6.16,0,0,0-1.05-.32,4.43,4.43,0,0,0-1-.13q-2.94,0-2.94,3.74a4.44,4.44,0,0,0,.72,2.73,2.5,2.5,0,0,0,2.12.95,6.41,6.41,0,0,0,2.47-.52V137A5.18,5.18,0,0,1,57.41,137.5Z" style="fill: #314041"/>
    <path d="M68.72,137.33V131.1a2.49,2.49,0,0,0-.54-1.76,2.18,2.18,0,0,0-1.68-.58,2.76,2.76,0,0,0-2.22.82,4.24,4.24,0,0,0-.69,2.71v5H62.13V123.65h1.46v4.14a8.39,8.39,0,0,1-.08,1.24h.09a3,3,0,0,1,1.23-1.09,3.92,3.92,0,0,1,1.81-.4,3.71,3.71,0,0,1,2.65.84,3.5,3.5,0,0,1,.89,2.66v6.29Z" style="fill: #314041"/>
    <path d="M79.77,137.33V131.1a2.49,2.49,0,0,0-.54-1.76,2.18,2.18,0,0,0-1.68-.58,2.76,2.76,0,0,0-2.21.81,4.14,4.14,0,0,0-.71,2.7v5.06H73.17v-9.64h1.19L74.6,129h.07a3,3,0,0,1,1.25-1.1,4.11,4.11,0,0,1,1.81-.39,3.67,3.67,0,0,1,2.62.84,3.58,3.58,0,0,1,.87,2.68v6.29Z" style="fill: #314041"/>
    <path d="M92.54,132.5a5.32,5.32,0,0,1-1.19,3.68,4.18,4.18,0,0,1-3.28,1.32,4.37,4.37,0,0,1-2.29-.6,4,4,0,0,1-1.55-1.74,6.16,6.16,0,0,1-.54-2.66,5.34,5.34,0,0,1,1.17-3.67,4.2,4.2,0,0,1,3.27-1.31,4.08,4.08,0,0,1,3.21,1.34A5.27,5.27,0,0,1,92.54,132.5Zm-7.34,0a4.5,4.5,0,0,0,.74,2.81,2.54,2.54,0,0,0,2.17,1,2.57,2.57,0,0,0,2.17-1A4.52,4.52,0,0,0,91,132.5a4.46,4.46,0,0,0-.74-2.79,2.61,2.61,0,0,0-2.19-1,2.54,2.54,0,0,0-2.16.94A4.48,4.48,0,0,0,85.2,132.5Z" style="fill: #314041"/>
    <path d="M96.55,137.33H95.09V123.65h1.46Z" style="fill: #314041"/>
    <path d="M108,132.5a5.27,5.27,0,0,1-1.19,3.68,4.17,4.17,0,0,1-3.27,1.32,4.38,4.38,0,0,1-2.3-.6,4,4,0,0,1-1.54-1.74,6,6,0,0,1-.55-2.66,5.29,5.29,0,0,1,1.18-3.67,4.17,4.17,0,0,1,3.27-1.31,4.08,4.08,0,0,1,3.21,1.34A5.32,5.32,0,0,1,108,132.5Zm-7.34,0a4.57,4.57,0,0,0,.74,2.81,2.55,2.55,0,0,0,2.17,1,2.59,2.59,0,0,0,2.18-1,4.58,4.58,0,0,0,.74-2.82,4.53,4.53,0,0,0-.74-2.79,2.64,2.64,0,0,0-2.2-1,2.57,2.57,0,0,0-2.16.94A4.55,4.55,0,0,0,100.62,132.5Z" style="fill: #314041"/>
    <path d="M118.4,127.69v.93l-1.78.21a3.12,3.12,0,0,1,.44.8,3.06,3.06,0,0,1,.19,1.12,2.82,2.82,0,0,1-1,2.26,3.88,3.88,0,0,1-2.65.84,4.14,4.14,0,0,1-.81-.07,1.45,1.45,0,0,0-.93,1.24.63.63,0,0,0,.33.59,2.39,2.39,0,0,0,1.11.19H115a3.81,3.81,0,0,1,2.4.66,2.28,2.28,0,0,1,.84,1.91,2.74,2.74,0,0,1-1.28,2.44,6.9,6.9,0,0,1-3.75.84,5.09,5.09,0,0,1-2.91-.7,2.28,2.28,0,0,1-1-2,2.23,2.23,0,0,1,.57-1.52,2.81,2.81,0,0,1,1.58-.87,1.47,1.47,0,0,1-.62-.52,1.33,1.33,0,0,1-.25-.82,1.54,1.54,0,0,1,.28-.92,2.89,2.89,0,0,1,.89-.76,2.63,2.63,0,0,1-1.22-1.05,3.45,3.45,0,0,1,.48-4.12,3.83,3.83,0,0,1,2.69-.86,5.16,5.16,0,0,1,1.36.17Zm-7.68,11.25a1.3,1.3,0,0,0,.66,1.19,3.64,3.64,0,0,0,1.89.4A5.25,5.25,0,0,0,116,140a1.66,1.66,0,0,0,.88-1.48,1.18,1.18,0,0,0-.48-1.09,3.79,3.79,0,0,0-1.82-.3h-1.75a2.3,2.3,0,0,0-1.55.47A1.73,1.73,0,0,0,110.72,138.94Zm.79-8.16a2,2,0,0,0,.57,1.53,2.3,2.3,0,0,0,1.59.52,1.86,1.86,0,0,0,2.14-2.08,1.92,1.92,0,0,0-2.16-2.17,2.11,2.11,0,0,0-1.58.56A2.2,2.2,0,0,0,111.51,130.78Z" style="fill: #314041"/>
    <path d="M120.26,125.08a1,1,0,0,1,.24-.73.85.85,0,0,1,.62-.23.88.88,0,0,1,.6.23,1.17,1.17,0,0,1,0,1.47.85.85,0,0,1-.6.24.86.86,0,0,1-.62-.24A1,1,0,0,1,120.26,125.08Zm1.58,12.25h-1.46v-9.64h1.46Z" style="fill: #314041"/>
    <path d="M129,137.5a4.41,4.41,0,0,1-3.37-1.3,5,5,0,0,1-1.23-3.61,5.6,5.6,0,0,1,1.14-3.7,3.81,3.81,0,0,1,3.08-1.37,3.65,3.65,0,0,1,2.87,1.19,4.57,4.57,0,0,1,1,3.14v.92h-6.63a3.85,3.85,0,0,0,.85,2.58,3,3,0,0,0,2.29.88,7.82,7.82,0,0,0,3.08-.65v1.3a8,8,0,0,1-1.46.48A8.83,8.83,0,0,1,129,137.5Zm-.39-8.76a2.36,2.36,0,0,0-1.85.76,3.52,3.52,0,0,0-.82,2.09h5a3.23,3.23,0,0,0-.62-2.12A2.15,2.15,0,0,0,128.61,128.74Z" style="fill: #314041"/>
    <path d="M139.51,127.54a3.59,3.59,0,0,1,3,1.29,6.95,6.95,0,0,1,0,7.36,3.56,3.56,0,0,1-2.94,1.31,4,4,0,0,1-1.71-.35,3.2,3.2,0,0,1-1.31-1.06h-.11l-.3,1.24H135V123.65h1.46V127c0,.75,0,1.42-.07,2h.07A3.47,3.47,0,0,1,139.51,127.54Zm-.21,1.22a2.55,2.55,0,0,0-2.15.85,6.61,6.61,0,0,0,0,5.8,2.57,2.57,0,0,0,2.17.87,2.26,2.26,0,0,0,2-1,5,5,0,0,0,.66-2.82,4.84,4.84,0,0,0-.66-2.8A2.33,2.33,0,0,0,139.3,128.76Z" style="fill: #314041"/>
    <path d="M150.13,137.5a4.41,4.41,0,0,1-3.37-1.3,5,5,0,0,1-1.23-3.61,5.6,5.6,0,0,1,1.14-3.7,3.8,3.8,0,0,1,3.08-1.37,3.65,3.65,0,0,1,2.87,1.19,4.57,4.57,0,0,1,1,3.14v.92H147a3.85,3.85,0,0,0,.85,2.58,3,3,0,0,0,2.29.88,7.82,7.82,0,0,0,3.08-.65v1.3a8.27,8.27,0,0,1-1.46.48A8.83,8.83,0,0,1,150.13,137.5Zm-.39-8.76a2.38,2.38,0,0,0-1.86.76,3.46,3.46,0,0,0-.81,2.09h5a3.23,3.23,0,0,0-.62-2.12A2.15,2.15,0,0,0,149.74,128.74Z" style="fill: #314041"/>
    <path d="M160.55,127.52a5.83,5.83,0,0,1,1.16.1L161.5,129a4.76,4.76,0,0,0-1.05-.13,2.56,2.56,0,0,0-2,.94,3.51,3.51,0,0,0-.83,2.37v5.17h-1.46v-9.64h1.2l.17,1.79h.07a4.27,4.27,0,0,1,1.29-1.45A2.93,2.93,0,0,1,160.55,127.52Z" style="fill: #314041"/>
    <path d="M167.58,137.5a4.4,4.4,0,0,1-3.37-1.3,5,5,0,0,1-1.24-3.61,5.55,5.55,0,0,1,1.15-3.7,3.78,3.78,0,0,1,3.08-1.37,3.63,3.63,0,0,1,2.86,1.19,4.52,4.52,0,0,1,1.06,3.14v.92h-6.64a3.86,3.86,0,0,0,.86,2.58,3,3,0,0,0,2.29.88,7.85,7.85,0,0,0,3.08-.65v1.3a8.35,8.35,0,0,1-1.47.48A8.72,8.72,0,0,1,167.58,137.5Zm-.4-8.76a2.37,2.37,0,0,0-1.85.76,3.46,3.46,0,0,0-.81,2.09h5a3.23,3.23,0,0,0-.61-2.12A2.17,2.17,0,0,0,167.18,128.74Z" style="fill: #314041"/>
    <path d="M173.48,125.08a1,1,0,0,1,.25-.73.83.83,0,0,1,.61-.23.89.89,0,0,1,.61.23,1.17,1.17,0,0,1,0,1.47.85.85,0,0,1-.61.24.84.84,0,0,1-.61-.24A1,1,0,0,1,173.48,125.08Zm1.59,12.25h-1.46v-9.64h1.46Z" style="fill: #314041"/>
    <path d="M182,137.5a4.12,4.12,0,0,1-3.24-1.28,5.34,5.34,0,0,1-1.15-3.65,5.43,5.43,0,0,1,1.17-3.73,4.18,4.18,0,0,1,3.32-1.32,6.48,6.48,0,0,1,1.38.15,4.23,4.23,0,0,1,1.09.35l-.44,1.24a6.57,6.57,0,0,0-1.06-.32,4.43,4.43,0,0,0-1-.13q-2.94,0-2.94,3.74a4.44,4.44,0,0,0,.72,2.73,2.51,2.51,0,0,0,2.12.95,6.37,6.37,0,0,0,2.47-.52V137A5.15,5.15,0,0,1,182,137.5Z" style="fill: #314041"/>
    <path d="M30.24,158.93v-6.24a2.48,2.48,0,0,0-.54-1.75,2.15,2.15,0,0,0-1.68-.58,2.76,2.76,0,0,0-2.22.82,4.24,4.24,0,0,0-.69,2.71v5H23.65V145.25h1.46v4.14a10.29,10.29,0,0,1-.07,1.24h.08a3,3,0,0,1,1.23-1.09,4,4,0,0,1,1.82-.4,3.73,3.73,0,0,1,2.64.83,3.54,3.54,0,0,1,.89,2.67v6.29Z" style="fill: #314041"/>
    <path d="M45.53,158.93h-7v-1l5.25-7.5H38.87v-1.14H45.4v1.14l-5.18,7.36h5.31Z" style="fill: #314041"/>
    <path d="M49.16,149.29v6.25a2.51,2.51,0,0,0,.54,1.76,2.18,2.18,0,0,0,1.68.58,2.76,2.76,0,0,0,2.21-.83,4.19,4.19,0,0,0,.7-2.69v-5.07h1.46v9.64H54.54l-.21-1.3h-.08A2.86,2.86,0,0,1,53,158.72a4.09,4.09,0,0,1-1.82.38,3.7,3.7,0,0,1-2.63-.83,3.57,3.57,0,0,1-.87-2.67v-6.31Z" style="fill: #314041"/>
    <path d="M63.23,149.12a5.66,5.66,0,0,1,1.15.1l-.2,1.36a4.91,4.91,0,0,0-1.05-.14,2.57,2.57,0,0,0-2,.95,3.45,3.45,0,0,0-.83,2.37v5.17H58.84v-9.64H60l.17,1.79h.07a4.27,4.27,0,0,1,1.29-1.45A2.93,2.93,0,0,1,63.23,149.12Z" style="fill: #314041"/>
    <path d="M78.42,146.08H80L75.4,158.93H73.92l-4.6-12.85H70.9l2.95,8.31a23.36,23.36,0,0,1,.81,2.79,22.9,22.9,0,0,1,.83-2.84Z" style="fill: #314041"/>
    <path d="M85.65,159.1a4.44,4.44,0,0,1-3.38-1.3A5,5,0,0,1,81,154.19a5.55,5.55,0,0,1,1.15-3.7,3.78,3.78,0,0,1,3.08-1.37,3.61,3.61,0,0,1,2.86,1.19,4.52,4.52,0,0,1,1.06,3.14v.92H82.55a3.86,3.86,0,0,0,.86,2.58,3,3,0,0,0,2.29.88,7.77,7.77,0,0,0,3.07-.65v1.3a8,8,0,0,1-1.46.48A8.72,8.72,0,0,1,85.65,159.1Zm-.4-8.76a2.37,2.37,0,0,0-1.85.76,3.46,3.46,0,0,0-.81,2.09h5a3.23,3.23,0,0,0-.61-2.12A2.17,2.17,0,0,0,85.25,150.34Z" style="fill: #314041"/>
    <path d="M96.07,149.12a5.73,5.73,0,0,1,1.15.1l-.2,1.36a4.91,4.91,0,0,0-1.06-.14,2.59,2.59,0,0,0-2,.95,3.49,3.49,0,0,0-.83,2.37v5.17H91.67v-9.64h1.21l.17,1.79h.07a4.07,4.07,0,0,1,1.29-1.45A2.9,2.9,0,0,1,96.07,149.12Z" style="fill: #314041"/>
    <path d="M103.51,149.14a3.58,3.58,0,0,1,2.94,1.29,6.95,6.95,0,0,1,0,7.36,3.56,3.56,0,0,1-2.93,1.31,4,4,0,0,1-1.72-.35,3.2,3.2,0,0,1-1.31-1.06h-.1l-.31,1.24H99V145.25h1.46v3.32c0,.75,0,1.41-.07,2h.07A3.47,3.47,0,0,1,103.51,149.14Zm-.22,1.22a2.55,2.55,0,0,0-2.15.85,6.61,6.61,0,0,0,0,5.8,2.57,2.57,0,0,0,2.17.87,2.25,2.25,0,0,0,2-1,5,5,0,0,0,.66-2.82,4.82,4.82,0,0,0-.66-2.8A2.33,2.33,0,0,0,103.29,150.36Z" style="fill: #314041"/>
    <path d="M114.12,159.1a4.41,4.41,0,0,1-3.37-1.3,5,5,0,0,1-1.23-3.61,5.6,5.6,0,0,1,1.14-3.7,3.81,3.81,0,0,1,3.08-1.37,3.61,3.61,0,0,1,2.87,1.19,4.57,4.57,0,0,1,1,3.14v.92H111a3.85,3.85,0,0,0,.85,2.58,3,3,0,0,0,2.29.88,7.82,7.82,0,0,0,3.08-.65v1.3a8,8,0,0,1-1.46.48A8.83,8.83,0,0,1,114.12,159.1Zm-.39-8.76a2.36,2.36,0,0,0-1.85.76,3.52,3.52,0,0,0-.82,2.09h5a3.23,3.23,0,0,0-.62-2.12A2.15,2.15,0,0,0,113.73,150.34Z" style="fill: #314041"/>
    <path d="M126.37,156.3a2.41,2.41,0,0,1-1,2.07,4.65,4.65,0,0,1-2.81.73,6.19,6.19,0,0,1-3-.6v-1.36a7.38,7.38,0,0,0,1.49.56,6.45,6.45,0,0,0,1.54.2,3.38,3.38,0,0,0,1.75-.37,1.25,1.25,0,0,0,.13-2.07,7.69,7.69,0,0,0-1.9-1,9.69,9.69,0,0,1-1.91-.87,2.65,2.65,0,0,1-.85-.85,2.25,2.25,0,0,1-.27-1.13,2.17,2.17,0,0,1,.95-1.86,4.51,4.51,0,0,1,2.63-.68,7.7,7.7,0,0,1,3,.63l-.52,1.19a6.91,6.91,0,0,0-2.62-.6,3.12,3.12,0,0,0-1.57.32,1,1,0,0,0-.53.9,1.1,1.1,0,0,0,.2.66,2.08,2.08,0,0,0,.64.52,15,15,0,0,0,1.69.71,6.36,6.36,0,0,1,2.31,1.26A2.22,2.22,0,0,1,126.37,156.3Z" style="fill: #314041"/>
    <path d="M135,156.3a2.4,2.4,0,0,1-1,2.07,4.69,4.69,0,0,1-2.81.73,6.16,6.16,0,0,1-3-.6v-1.36a7.16,7.16,0,0,0,1.49.56,6.43,6.43,0,0,0,1.53.2,3.42,3.42,0,0,0,1.76-.37,1.2,1.2,0,0,0,.62-1.11,1.23,1.23,0,0,0-.49-1,7.88,7.88,0,0,0-1.9-1,10.14,10.14,0,0,1-1.92-.87,2.61,2.61,0,0,1-.84-.85,2.25,2.25,0,0,1-.28-1.13,2.15,2.15,0,0,1,1-1.86,4.51,4.51,0,0,1,2.63-.68,7.7,7.7,0,0,1,3,.63l-.52,1.19a7,7,0,0,0-2.63-.6,3.08,3.08,0,0,0-1.56.32,1,1,0,0,0-.53.9,1.1,1.1,0,0,0,.2.66,2,2,0,0,0,.64.52,14.6,14.6,0,0,0,1.68.71,6.34,6.34,0,0,1,2.32,1.26A2.21,2.21,0,0,1,135,156.3Z" style="fill: #314041"/>
    <path d="M141.39,159.1a4.43,4.43,0,0,1-3.37-1.3,5,5,0,0,1-1.23-3.61,5.55,5.55,0,0,1,1.15-3.7,3.78,3.78,0,0,1,3.08-1.37,3.61,3.61,0,0,1,2.86,1.19,4.52,4.52,0,0,1,1.06,3.14v.92H138.3a3.86,3.86,0,0,0,.86,2.58,3,3,0,0,0,2.29.88,7.8,7.8,0,0,0,3.07-.65v1.3a8,8,0,0,1-1.46.48A8.75,8.75,0,0,1,141.39,159.1Zm-.39-8.76a2.37,2.37,0,0,0-1.85.76,3.46,3.46,0,0,0-.81,2.09h5a3.23,3.23,0,0,0-.61-2.12A2.17,2.17,0,0,0,141,150.34Z" style="fill: #314041"/>
    <path d="M151.82,149.12a5.73,5.73,0,0,1,1.15.1l-.2,1.36a4.91,4.91,0,0,0-1.06-.14,2.59,2.59,0,0,0-2,.95,3.49,3.49,0,0,0-.83,2.37v5.17h-1.46v-9.64h1.21l.17,1.79h.07a4.07,4.07,0,0,1,1.29-1.45A2.9,2.9,0,0,1,151.82,149.12Z" style="fill: #314041"/>
    <path d="M156.14,149.29v6.25a2.51,2.51,0,0,0,.54,1.76,2.18,2.18,0,0,0,1.68.58,2.74,2.74,0,0,0,2.21-.83,4.19,4.19,0,0,0,.7-2.69v-5.07h1.46v9.64h-1.21l-.21-1.3h-.08a2.86,2.86,0,0,1-1.24,1.09,4.09,4.09,0,0,1-1.82.38,3.7,3.7,0,0,1-2.63-.83,3.57,3.57,0,0,1-.87-2.67v-6.31Z" style="fill: #314041"/>
    <path d="M172.41,158.93v-6.24a2.53,2.53,0,0,0-.53-1.75,2.18,2.18,0,0,0-1.68-.58,2.79,2.79,0,0,0-2.22.81,4.14,4.14,0,0,0-.7,2.7v5.06h-1.46v-9.64H167l.23,1.32h.07a3,3,0,0,1,1.26-1.1,4.1,4.1,0,0,1,1.8-.39A3.65,3.65,0,0,1,173,150a3.54,3.54,0,0,1,.88,2.68v6.29Z" style="fill: #314041"/>
    <path d="M184.75,149.29v.93l-1.78.21a3.12,3.12,0,0,1,.44.8,3.06,3.06,0,0,1,.19,1.12,2.82,2.82,0,0,1-1,2.26,3.9,3.9,0,0,1-2.65.84,4.14,4.14,0,0,1-.81-.07,1.45,1.45,0,0,0-.93,1.24.64.64,0,0,0,.32.59,2.47,2.47,0,0,0,1.12.19h1.7a3.82,3.82,0,0,1,2.41.66,2.28,2.28,0,0,1,.84,1.91,2.73,2.73,0,0,1-1.29,2.44,6.84,6.84,0,0,1-3.74.84,5.09,5.09,0,0,1-2.91-.7,2.26,2.26,0,0,1-1-2,2.21,2.21,0,0,1,.57-1.52,2.81,2.81,0,0,1,1.58-.87,1.42,1.42,0,0,1-.62-.52,1.35,1.35,0,0,1-.25-.82,1.54,1.54,0,0,1,.28-.92,2.89,2.89,0,0,1,.89-.76,2.63,2.63,0,0,1-1.22-1.05,3.09,3.09,0,0,1-.47-1.69,3.15,3.15,0,0,1,1-2.44,3.88,3.88,0,0,1,2.69-.85,5.16,5.16,0,0,1,1.36.17Zm-7.68,11.25a1.31,1.31,0,0,0,.66,1.19,3.64,3.64,0,0,0,1.89.4,5.25,5.25,0,0,0,2.72-.55,1.66,1.66,0,0,0,.88-1.48,1.18,1.18,0,0,0-.48-1.09,3.79,3.79,0,0,0-1.82-.3h-1.75a2.3,2.3,0,0,0-1.55.47A1.69,1.69,0,0,0,177.07,160.54Zm.79-8.16a2,2,0,0,0,.57,1.53,2.3,2.3,0,0,0,1.59.52,1.87,1.87,0,0,0,2.14-2.08,1.91,1.91,0,0,0-2.16-2.17,2.19,2.19,0,0,0-1.59.55A2.28,2.28,0,0,0,177.86,152.38Z" style="fill: #314041"/>
    <path d="M102.5,179.23h-.08a3.42,3.42,0,0,1-3,1.47,3.58,3.58,0,0,1-2.94-1.29,7,7,0,0,1,0-7.37,3.91,3.91,0,0,1,5.94.1h.11l-.06-.69,0-.68v-3.92h1.46v13.68H102.7Zm-2.91.25a2.66,2.66,0,0,0,2.16-.81,4.11,4.11,0,0,0,.67-2.63v-.3a4.82,4.82,0,0,0-.68-2.93,2.58,2.58,0,0,0-2.17-.87,2.24,2.24,0,0,0-2,1,5,5,0,0,0-.68,2.81,4.78,4.78,0,0,0,.68,2.79A2.28,2.28,0,0,0,99.59,179.48Z" style="fill: #314041"/>
    <path d="M111.05,180.7a4.44,4.44,0,0,1-3.38-1.3,5,5,0,0,1-1.23-3.61,5.55,5.55,0,0,1,1.15-3.7,3.81,3.81,0,0,1,3.08-1.37,3.63,3.63,0,0,1,2.86,1.19,4.52,4.52,0,0,1,1.06,3.14V176H108a3.86,3.86,0,0,0,.86,2.58,2.94,2.94,0,0,0,2.29.88,7.77,7.77,0,0,0,3.07-.65v1.3a8,8,0,0,1-1.46.48A8.72,8.72,0,0,1,111.05,180.7Zm-.4-8.76a2.37,2.37,0,0,0-1.85.76,3.46,3.46,0,0,0-.81,2.09h5a3.23,3.23,0,0,0-.61-2.12A2.17,2.17,0,0,0,110.65,171.94Z" style="fill: #314041"/>
    <path d="M121.47,170.72a5.73,5.73,0,0,1,1.15.1l-.2,1.36a4.84,4.84,0,0,0-1.06-.13,2.59,2.59,0,0,0-2,.94,3.51,3.51,0,0,0-.83,2.37v5.17h-1.45v-9.64h1.2l.17,1.79h.07a4.07,4.07,0,0,1,1.29-1.45A2.9,2.9,0,0,1,121.47,170.72Z" style="fill: #314041"/>
    <path d="M137.4,180.53l-1.6-4.09h-5.15l-1.59,4.09h-1.51l5.08-12.91h1.26l5.05,12.91Zm-2.07-5.43-1.49-4a17.66,17.66,0,0,1-.6-1.85,16.93,16.93,0,0,1-.56,1.85l-1.51,4Z" style="fill: #314041"/>
    <path d="M148.37,170.89v.93l-1.78.21a3.12,3.12,0,0,1,.44.8,3.06,3.06,0,0,1,.19,1.12,2.85,2.85,0,0,1-1,2.26,3.93,3.93,0,0,1-2.66.85,4.12,4.12,0,0,1-.81-.08,1.45,1.45,0,0,0-.93,1.24.63.63,0,0,0,.33.59,2.39,2.39,0,0,0,1.11.19H145a3.81,3.81,0,0,1,2.4.66,2.28,2.28,0,0,1,.84,1.91A2.74,2.74,0,0,1,147,184a6.9,6.9,0,0,1-3.75.84,5.09,5.09,0,0,1-2.91-.7,2.28,2.28,0,0,1-1-2,2.22,2.22,0,0,1,.56-1.52,2.81,2.81,0,0,1,1.58-.87,1.47,1.47,0,0,1-.62-.52,1.33,1.33,0,0,1-.25-.82,1.54,1.54,0,0,1,.28-.92,2.89,2.89,0,0,1,.89-.76,2.63,2.63,0,0,1-1.22-1.05,3.45,3.45,0,0,1,.48-4.12,3.83,3.83,0,0,1,2.69-.86,5.16,5.16,0,0,1,1.36.17Zm-7.68,11.25a1.3,1.3,0,0,0,.66,1.19,3.64,3.64,0,0,0,1.89.4,5.22,5.22,0,0,0,2.72-.55,1.66,1.66,0,0,0,.88-1.48,1.18,1.18,0,0,0-.48-1.09,3.79,3.79,0,0,0-1.82-.3h-1.75a2.3,2.3,0,0,0-1.54.47A1.7,1.7,0,0,0,140.69,182.14Zm.79-8.16a2,2,0,0,0,.57,1.53,2.32,2.32,0,0,0,1.59.52,1.86,1.86,0,0,0,2.14-2.08,1.92,1.92,0,0,0-2.16-2.17,2.13,2.13,0,0,0-1.58.56A2.2,2.2,0,0,0,141.48,174Z" style="fill: #314041"/>
    <path d="M150.23,168.28a1,1,0,0,1,.24-.73.85.85,0,0,1,.62-.23.91.91,0,0,1,.61.23,1.21,1.21,0,0,1,0,1.47.87.87,0,0,1-.61.24.86.86,0,0,1-.62-.24A1,1,0,0,1,150.23,168.28Zm1.58,12.25h-1.46v-9.64h1.46Z" style="fill: #314041"/>
    <path d="M156.36,180.53H154.9V166.85h1.46Z" style="fill: #314041"/>
    <path d="M159.33,168.28a1,1,0,0,1,.25-.73.83.83,0,0,1,.61-.23.89.89,0,0,1,.61.23,1.17,1.17,0,0,1,0,1.47.85.85,0,0,1-.61.24.84.84,0,0,1-.61-.24A1,1,0,0,1,159.33,168.28Zm1.59,12.25h-1.46v-9.64h1.46Z" style="fill: #314041"/>
    <path d="M167.12,179.5a4.56,4.56,0,0,0,.75-.06,5.41,5.41,0,0,0,.57-.12v1.12a2.94,2.94,0,0,1-.7.19,5.16,5.16,0,0,1-.83.07c-1.86,0-2.8-1-2.8-2.94V172h-1.38v-.71l1.38-.6.62-2.06h.84v2.23h2.8V172h-2.8v5.67A1.91,1.91,0,0,0,166,179,1.43,1.43,0,0,0,167.12,179.5Z" style="fill: #314041"/>
    <path d="M176.29,180.53l-.29-1.37h-.07a4,4,0,0,1-1.44,1.22,4.28,4.28,0,0,1-1.79.32,3.17,3.17,0,0,1-2.24-.74,2.66,2.66,0,0,1-.82-2.1q0-2.91,4.67-3.05l1.63-.06v-.6a2.47,2.47,0,0,0-.48-1.67,2,2,0,0,0-1.56-.54,6.41,6.41,0,0,0-2.73.74l-.45-1.12a7.12,7.12,0,0,1,3.26-.82,3.7,3.7,0,0,1,2.56.76,3.21,3.21,0,0,1,.83,2.45v6.58Zm-3.3-1a3,3,0,0,0,2.14-.75,2.75,2.75,0,0,0,.78-2.09v-.87l-1.46.06a5.28,5.28,0,0,0-2.51.54,1.64,1.64,0,0,0-.77,1.49,1.52,1.52,0,0,0,.48,1.21A2,2,0,0,0,173,179.5Zm-1.72-11.22a.87.87,0,0,1,.23-.66.85.85,0,0,1,.56-.2.88.88,0,0,1,.57.2,1,1,0,0,1,0,1.32.84.84,0,0,1-.57.21.81.81,0,0,1-.56-.21A.87.87,0,0,1,171.27,168.28Zm3.35,0a.83.83,0,0,1,.23-.66.88.88,0,0,1,1.12,0,.87.87,0,1,1-1.12,1.32A.83.83,0,0,1,174.62,168.28Z" style="fill: #314041"/>
    <path d="M183.49,179.5a4.52,4.52,0,0,0,.74-.06,5.41,5.41,0,0,0,.57-.12v1.12a2.81,2.81,0,0,1-.7.19,5.07,5.07,0,0,1-.83.07q-2.79,0-2.79-2.94V172H179.1v-.71l1.38-.6.61-2.06h.85v2.23h2.79V172h-2.79v5.67a2,2,0,0,0,.41,1.33A1.46,1.46,0,0,0,183.49,179.5Z" style="fill: #314041"/>
  </g>
  <g>
    <path d="M211.62,227.8a1.74,1.74,0,0,1-.69,1.46,2.89,2.89,0,0,1-1.85.53,4.75,4.75,0,0,1-2-.32v-.81a4.59,4.59,0,0,0,1,.3,5.21,5.21,0,0,0,1,.1,2.08,2.08,0,0,0,1.25-.31,1,1,0,0,0,.42-.88,1.09,1.09,0,0,0-.15-.6,1.37,1.37,0,0,0-.5-.44,6.92,6.92,0,0,0-1.06-.46,3.25,3.25,0,0,1-1.42-.84,1.84,1.84,0,0,1-.43-1.27,1.61,1.61,0,0,1,.62-1.32,2.6,2.6,0,0,1,1.64-.49,4.86,4.86,0,0,1,2,.39l-.26.73a4.37,4.37,0,0,0-1.72-.37,1.66,1.66,0,0,0-1,.28.92.92,0,0,0-.37.78,1.1,1.1,0,0,0,.14.61,1.22,1.22,0,0,0,.46.44,4.91,4.91,0,0,0,1,.43,4.14,4.14,0,0,1,1.55.86A1.72,1.72,0,0,1,211.62,227.8Z" style="fill: #304041"/>
    <path d="M217.58,227a3,3,0,0,1-.66,2.05,2.33,2.33,0,0,1-1.83.73,2.45,2.45,0,0,1-1.27-.33,2.26,2.26,0,0,1-.86-1,3.4,3.4,0,0,1-.3-1.48,3,3,0,0,1,.65-2,2.31,2.31,0,0,1,1.82-.73,2.24,2.24,0,0,1,1.78.74A3,3,0,0,1,217.58,227Zm-4.08,0a2.51,2.51,0,0,0,.41,1.57,1.63,1.63,0,0,0,2.41,0,2.51,2.51,0,0,0,.42-1.57,2.47,2.47,0,0,0-.42-1.55,1.45,1.45,0,0,0-1.22-.53,1.43,1.43,0,0,0-1.2.53A2.5,2.5,0,0,0,213.5,227Z" style="fill: #304041"/>
    <path d="M221.41,225h-1.36v4.72h-.81V225h-1v-.36l1-.3V224c0-1.32.57-2,1.72-2a3.79,3.79,0,0,1,1,.17l-.21.65a2.75,2.75,0,0,0-.81-.15.75.75,0,0,0-.67.31,1.67,1.67,0,0,0-.22,1v.34h1.36Z" style="fill: #304041"/>
    <path d="M224.11,229.12a2.86,2.86,0,0,0,.42,0l.32-.06v.62a1.8,1.8,0,0,1-.39.1,2.68,2.68,0,0,1-.46,0c-1,0-1.56-.54-1.56-1.63V225h-.76v-.39l.76-.33.35-1.15h.46v1.24h1.56V225h-1.56v3.15a1.09,1.09,0,0,0,.23.74A.79.79,0,0,0,224.11,229.12Z" style="fill: #304041"/>
    <path d="M230.29,229.69l-1-3.13c-.06-.2-.17-.63-.34-1.31h0c-.13.57-.25,1-.34,1.31l-1,3.13h-.94l-1.46-5.35H226c.34,1.35.61,2.37.79,3.07a13.65,13.65,0,0,1,.31,1.43h0a7,7,0,0,1,.17-.72c.08-.3.15-.53.21-.71l1-3.07h.88l.95,3.07a8.58,8.58,0,0,1,.37,1.42h0c0-.12.05-.3.11-.55s.39-1.55,1-3.94h.84l-1.48,5.35Z" style="fill: #304041"/>
    <path d="M237,229.69l-.16-.76h0a2.09,2.09,0,0,1-.79.68,2.45,2.45,0,0,1-1,.18,1.78,1.78,0,0,1-1.25-.41,1.48,1.48,0,0,1-.45-1.16c0-1.08.87-1.65,2.6-1.7l.9,0v-.34a1.38,1.38,0,0,0-.27-.93,1.11,1.11,0,0,0-.86-.3,3.62,3.62,0,0,0-1.52.41l-.25-.62a4.12,4.12,0,0,1,.87-.33,3.81,3.81,0,0,1,1-.12,2,2,0,0,1,1.41.42,1.76,1.76,0,0,1,.47,1.36v3.65Zm-1.83-.57a1.63,1.63,0,0,0,1.19-.41,1.54,1.54,0,0,0,.43-1.16v-.49l-.81,0a2.87,2.87,0,0,0-1.39.3.9.9,0,0,0-.43.82.82.82,0,0,0,.27.67A1.06,1.06,0,0,0,235.15,229.12Z" style="fill: #304041"/>
    <path d="M241.7,224.25a3.2,3.2,0,0,1,.64.05l-.12.76a2.67,2.67,0,0,0-.58-.08,1.44,1.44,0,0,0-1.11.53,1.91,1.91,0,0,0-.46,1.31v2.87h-.81v-5.35h.66l.1,1h0a2.31,2.31,0,0,1,.71-.8A1.62,1.62,0,0,1,241.7,224.25Z" style="fill: #304041"/>
    <path d="M245.6,229.79a2.45,2.45,0,0,1-1.87-.72,2.79,2.79,0,0,1-.69-2,3.05,3.05,0,0,1,.64-2.05,2.09,2.09,0,0,1,1.71-.76,2,2,0,0,1,1.59.66,2.53,2.53,0,0,1,.59,1.74v.52h-3.69a2.17,2.17,0,0,0,.47,1.43,1.69,1.69,0,0,0,1.28.48,4.38,4.38,0,0,0,1.71-.36v.73a4.28,4.28,0,0,1-.82.26A4.09,4.09,0,0,1,245.6,229.79Zm-.22-4.87a1.33,1.33,0,0,0-1,.42,1.89,1.89,0,0,0-.45,1.17h2.8a1.79,1.79,0,0,0-.35-1.18A1.19,1.19,0,0,0,245.38,224.92Z" style="fill: #304041"/>
  </g>
  <g>
    <path d="M271.33,229.69l-.89-2.27h-2.86l-.88,2.27h-.84l2.83-7.16h.69l2.81,7.16Zm-1.14-3-.83-2.21c-.11-.28-.22-.63-.34-1a9.5,9.5,0,0,1-.3,1l-.84,2.21Z" style="fill: #304041"/>
    <path d="M276.71,229.69v-3.46a1.42,1.42,0,0,0-.29-1,1.21,1.21,0,0,0-.94-.33,1.55,1.55,0,0,0-1.23.46,2.29,2.29,0,0,0-.39,1.5v2.8h-.81v-5.35h.66l.13.74h0a1.69,1.69,0,0,1,.7-.62,2.33,2.33,0,0,1,1-.21,2,2,0,0,1,1.46.46,2,2,0,0,1,.48,1.49v3.49Z" style="fill: #304041"/>
    <path d="M282.83,229h0a1.92,1.92,0,0,1-1.68.81,2,2,0,0,1-1.64-.72,3.87,3.87,0,0,1,0-4.09,2.17,2.17,0,0,1,3.3.06h.06l0-.39,0-.38V222.1h.81v7.59h-.66Zm-1.62.13a1.46,1.46,0,0,0,1.2-.45,2.26,2.26,0,0,0,.38-1.46V227a2.7,2.7,0,0,0-.38-1.62,1.44,1.44,0,0,0-1.21-.49,1.25,1.25,0,0,0-1.09.56,2.77,2.77,0,0,0-.38,1.56,2.64,2.64,0,0,0,.38,1.55A1.27,1.27,0,0,0,281.21,229.11Z" style="fill: #304041"/>
    <path d="M287.58,229.79a2.45,2.45,0,0,1-1.87-.72,2.79,2.79,0,0,1-.69-2,3.05,3.05,0,0,1,.64-2.05,2.09,2.09,0,0,1,1.71-.76,2,2,0,0,1,1.59.66,2.53,2.53,0,0,1,.59,1.74v.52h-3.69a2.12,2.12,0,0,0,.48,1.43,1.65,1.65,0,0,0,1.27.48,4.38,4.38,0,0,0,1.71-.36v.73a4.28,4.28,0,0,1-.82.26A4.09,4.09,0,0,1,287.58,229.79Zm-.22-4.87a1.33,1.33,0,0,0-1,.42,2,2,0,0,0-.45,1.17h2.8a1.84,1.84,0,0,0-.34-1.18A1.22,1.22,0,0,0,287.36,224.92Z" style="fill: #304041"/>
    <path d="M293.37,224.25a3.14,3.14,0,0,1,.64.05l-.11.76a2.84,2.84,0,0,0-.59-.08,1.44,1.44,0,0,0-1.11.53,1.91,1.91,0,0,0-.46,1.31v2.87h-.81v-5.35h.67l.09,1h0a2.44,2.44,0,0,1,.72-.8A1.58,1.58,0,0,1,293.37,224.25Z" style="fill: #304041"/>
    <path d="M297.27,229.79a2.46,2.46,0,0,1-1.87-.72,2.79,2.79,0,0,1-.69-2,3.05,3.05,0,0,1,.64-2.05,2.09,2.09,0,0,1,1.71-.76,2,2,0,0,1,1.59.66,2.53,2.53,0,0,1,.59,1.74v.52h-3.69a2.17,2.17,0,0,0,.48,1.43,1.65,1.65,0,0,0,1.27.48,4.3,4.3,0,0,0,1.71-.36v.73a4.43,4.43,0,0,1-.81.26A4.24,4.24,0,0,1,297.27,229.79Zm-.22-4.87a1.33,1.33,0,0,0-1,.42,2,2,0,0,0-.45,1.17h2.8a1.79,1.79,0,0,0-.34-1.18A1.22,1.22,0,0,0,297.05,224.92Z" style="fill: #304041"/>
    <path d="M303.34,222.56h2a3.83,3.83,0,0,1,2.05.42,1.48,1.48,0,0,1,.64,1.34,1.52,1.52,0,0,1-.36,1.05,1.71,1.71,0,0,1-1,.54v0c1.08.19,1.63.76,1.63,1.71a1.85,1.85,0,0,1-.65,1.5,2.75,2.75,0,0,1-1.81.53h-2.49Zm.83,3.05h1.37a2.24,2.24,0,0,0,1.26-.27,1.07,1.07,0,0,0,.39-.93,1,1,0,0,0-.43-.87,2.66,2.66,0,0,0-1.37-.27h-1.22Zm0,.71V229h1.49a2.06,2.06,0,0,0,1.3-.34,1.24,1.24,0,0,0,.44-1.05,1.1,1.1,0,0,0-.45-1,2.38,2.38,0,0,0-1.36-.31Z" style="fill: #304041"/>
    <path d="M312,229.79a2.45,2.45,0,0,1-1.87-.72,2.79,2.79,0,0,1-.69-2A3.05,3.05,0,0,1,310,225a2.09,2.09,0,0,1,1.71-.76,2,2,0,0,1,1.59.66,2.53,2.53,0,0,1,.59,1.74v.52h-3.69a2.12,2.12,0,0,0,.48,1.43,1.65,1.65,0,0,0,1.27.48,4.38,4.38,0,0,0,1.71-.36v.73a4.28,4.28,0,0,1-.82.26A4.09,4.09,0,0,1,312,229.79Zm-.22-4.87a1.33,1.33,0,0,0-1,.42,2,2,0,0,0-.45,1.17h2.8a1.84,1.84,0,0,0-.34-1.18A1.22,1.22,0,0,0,311.74,224.92Z" style="fill: #304041"/>
    <path d="M317.75,224.25a3.14,3.14,0,0,1,.64.05l-.11.76a2.84,2.84,0,0,0-.59-.08,1.44,1.44,0,0,0-1.11.53,1.91,1.91,0,0,0-.46,1.31v2.87h-.81v-5.35H316l.09,1h0a2.44,2.44,0,0,1,.72-.8A1.58,1.58,0,0,1,317.75,224.25Z" style="fill: #304041"/>
    <path d="M321.65,229.79a2.46,2.46,0,0,1-1.87-.72,2.79,2.79,0,0,1-.69-2,3.05,3.05,0,0,1,.64-2.05,2.09,2.09,0,0,1,1.71-.76,2,2,0,0,1,1.59.66,2.53,2.53,0,0,1,.59,1.74v.52h-3.69a2.17,2.17,0,0,0,.48,1.43,1.65,1.65,0,0,0,1.27.48,4.3,4.3,0,0,0,1.71-.36v.73a4.43,4.43,0,0,1-.81.26A4.24,4.24,0,0,1,321.65,229.79Zm-.22-4.87a1.33,1.33,0,0,0-1,.42,2,2,0,0,0-.45,1.17h2.8a1.84,1.84,0,0,0-.34-1.18A1.22,1.22,0,0,0,321.43,224.92Z" style="fill: #304041"/>
    <path d="M324.93,222.89a.52.52,0,0,1,.14-.4.45.45,0,0,1,.34-.13.48.48,0,0,1,.34.13.54.54,0,0,1,.14.4.55.55,0,0,1-.14.41.48.48,0,0,1-.34.13.45.45,0,0,1-.34-.13A.55.55,0,0,1,324.93,222.89Zm.88,6.8H325v-5.35h.81Z" style="fill: #304041"/>
    <path d="M329.67,229.79a2.29,2.29,0,0,1-1.8-.71,2.93,2.93,0,0,1-.64-2,3,3,0,0,1,.65-2.07,2.31,2.31,0,0,1,1.84-.73,3.3,3.3,0,0,1,.77.08,2.6,2.6,0,0,1,.61.19l-.25.69a4.12,4.12,0,0,0-.59-.18,3.05,3.05,0,0,0-.56-.07c-1.08,0-1.63.7-1.63,2.08a2.46,2.46,0,0,0,.4,1.52,1.38,1.38,0,0,0,1.18.52,3.65,3.65,0,0,0,1.37-.28v.71A2.87,2.87,0,0,1,329.67,229.79Z" style="fill: #304041"/>
    <path d="M336,229.69v-3.46a1.37,1.37,0,0,0-.3-1,1.18,1.18,0,0,0-.93-.33,1.55,1.55,0,0,0-1.23.46,2.34,2.34,0,0,0-.39,1.51v2.79h-.81V222.1h.81v2.3a4.58,4.58,0,0,1,0,.69h.05a1.68,1.68,0,0,1,.68-.61,2.21,2.21,0,0,1,1-.22,2.07,2.07,0,0,1,1.47.46,2,2,0,0,1,.49,1.48v3.49Z" style="fill: #304041"/>
    <path d="M340.69,229.79a2.45,2.45,0,0,1-1.87-.72,2.79,2.79,0,0,1-.69-2,3.05,3.05,0,0,1,.64-2.05,2.09,2.09,0,0,1,1.71-.76,2,2,0,0,1,1.59.66,2.53,2.53,0,0,1,.59,1.74v.52H339a2.12,2.12,0,0,0,.48,1.43,1.65,1.65,0,0,0,1.27.48,4.38,4.38,0,0,0,1.71-.36v.73a4.28,4.28,0,0,1-.82.26A4.09,4.09,0,0,1,340.69,229.79Zm-.22-4.87a1.33,1.33,0,0,0-1,.42,2,2,0,0,0-.45,1.17h2.8a1.84,1.84,0,0,0-.34-1.18A1.22,1.22,0,0,0,340.47,224.92Z" style="fill: #304041"/>
  </g>
</svg>
