<svg id="Layer_1" data-name="Layer 1" xmlns="http://www.w3.org/2000/svg" viewBox="0 0 374.33 160.63">
  <title>nugget_graph_2it</title>
  <g>
    <path d="M195.44,36.66h-1.71V39.6h-2.94V36.66h-6.06V34.57L191,25.38h2.77v8.94h1.71Zm-4.65-2.34V31.91c0-.4,0-1,.05-1.75s.06-1.21.08-1.33h-.08a11.25,11.25,0,0,1-.86,1.55l-2.61,3.94Z" style="fill: #314041"/>
    <path d="M206.81,36.66H205.1V39.6h-2.94V36.66H196.1V34.57l6.23-9.19h2.77v8.94h1.71Zm-4.65-2.34V31.91c0-.4,0-1,.05-1.75s.06-1.21.08-1.33h-.08a11.25,11.25,0,0,1-.86,1.55l-2.61,3.94Z" style="fill: #314041"/>
    <path d="M214.5,29.63a5.44,5.44,0,0,1-.87,3.36,3,3,0,0,1-2.54,1.12A3,3,0,0,1,208.61,33a5.46,5.46,0,0,1-.87-3.33q0-4.45,3.35-4.45a3,3,0,0,1,2.53,1.15A5.4,5.4,0,0,1,214.5,29.63Zm-4.31,0a5.72,5.72,0,0,0,.22,1.85c.14.4.38.61.7.61.62,0,.94-.82.94-2.46s-.32-2.43-.94-2.43c-.32,0-.56.2-.7.6A5.58,5.58,0,0,0,210.19,29.64Zm11-4.26L213.3,39.6H211l7.88-14.22Zm3.27,9.93a5.43,5.43,0,0,1-.87,3.35,3,3,0,0,1-2.54,1.12,2.92,2.92,0,0,1-2.48-1.15,5.45,5.45,0,0,1-.87-3.32c0-3,1.11-4.45,3.35-4.45A3,3,0,0,1,223.58,32,5.4,5.4,0,0,1,224.46,35.31Zm-4.31,0a5.72,5.72,0,0,0,.22,1.85c.14.4.38.61.7.61q.93,0,.93-2.46t-.93-2.43c-.32,0-.56.2-.7.6A5.58,5.58,0,0,0,220.15,35.32Z" style="fill: #314041"/>
  </g>
  <g>
    <path d="M196.41,58.9a6.52,6.52,0,0,1-1.73,4.87,6.84,6.84,0,0,1-5,1.68h-3.56V52.6h3.94a5.77,5.77,0,0,1,6.32,6.3Zm-1.58.05a5.15,5.15,0,0,0-1.26-3.78,5.09,5.09,0,0,0-3.75-1.28h-2.17V64.16h1.81a5.5,5.5,0,0,0,4-1.32A5.18,5.18,0,0,0,194.83,59Z" style="fill: #314041"/>
    <path d="M203.12,65.62a4.43,4.43,0,0,1-3.37-1.3,5,5,0,0,1-1.23-3.61,5.6,5.6,0,0,1,1.14-3.7,3.85,3.85,0,0,1,3.09-1.37,3.64,3.64,0,0,1,2.86,1.19A4.57,4.57,0,0,1,206.67,60v.93H200a3.78,3.78,0,0,0,.86,2.57,2.94,2.94,0,0,0,2.29.88,7.8,7.8,0,0,0,3.07-.65V65a6.88,6.88,0,0,1-3.13.62Zm-.39-8.76a2.36,2.36,0,0,0-1.85.76,3.52,3.52,0,0,0-.82,2.09h5a3.18,3.18,0,0,0-.61-2.11A2.17,2.17,0,0,0,202.73,56.86Z" style="fill: #314041"/>
    <path d="M211.26,65.45l-3.65-9.63h1.56l2.07,5.71a25.88,25.88,0,0,1,.83,2.6h.07a19.5,19.5,0,0,1,.61-1.93q.51-1.46,2.31-6.38h1.56L213,65.45Z" style="fill: #314041"/>
    <path d="M226.48,60.62a5.32,5.32,0,0,1-1.18,3.68A4.19,4.19,0,0,1,222,65.62a4.35,4.35,0,0,1-2.29-.6,4,4,0,0,1-1.55-1.74,6.13,6.13,0,0,1-.55-2.66A5.34,5.34,0,0,1,218.81,57a4.2,4.2,0,0,1,3.27-1.31A4.08,4.08,0,0,1,225.29,57,5.27,5.27,0,0,1,226.48,60.62Zm-7.33,0a4.62,4.62,0,0,0,.73,2.82,2.94,2.94,0,0,0,4.35,0,4.52,4.52,0,0,0,.74-2.82,4.46,4.46,0,0,0-.74-2.79,2.62,2.62,0,0,0-2.19-.95,2.57,2.57,0,0,0-2.17.94A4.57,4.57,0,0,0,219.15,60.62Z" style="fill: #314041"/>
    <path d="M235.63,65.45V59.22a2.55,2.55,0,0,0-.53-1.76,2.18,2.18,0,0,0-1.68-.58,2.76,2.76,0,0,0-2.22.82,4.15,4.15,0,0,0-.7,2.69v5.06H229V55.82h1.19l.24,1.31h.07a3,3,0,0,1,1.25-1.1,4.11,4.11,0,0,1,1.81-.39,3.62,3.62,0,0,1,2.61.84,3.54,3.54,0,0,1,.88,2.68v6.29Z" style="fill: #314041"/>
    <path d="M248.4,60.62a5.32,5.32,0,0,1-1.18,3.68,4.19,4.19,0,0,1-3.28,1.32,4.35,4.35,0,0,1-2.29-.6,4,4,0,0,1-1.55-1.74,6.13,6.13,0,0,1-.55-2.66A5.34,5.34,0,0,1,240.73,57,4.2,4.2,0,0,1,244,55.64,4.08,4.08,0,0,1,247.21,57,5.27,5.27,0,0,1,248.4,60.62Zm-7.33,0a4.62,4.62,0,0,0,.73,2.82,2.94,2.94,0,0,0,4.35,0,4.52,4.52,0,0,0,.74-2.82,4.46,4.46,0,0,0-.74-2.79,2.63,2.63,0,0,0-2.19-.95,2.57,2.57,0,0,0-2.17.94A4.57,4.57,0,0,0,241.07,60.62Z" style="fill: #314041"/>
    <path d="M261.56,65.45l-.29-1.37h-.07a4,4,0,0,1-1.44,1.22,4.23,4.23,0,0,1-1.78.32,3.22,3.22,0,0,1-2.25-.73,2.72,2.72,0,0,1-.81-2.1q0-2.92,4.66-3.06l1.64-.06v-.59a2.43,2.43,0,0,0-.49-1.68,2,2,0,0,0-1.56-.54,6.37,6.37,0,0,0-2.72.74L256,56.48a6.74,6.74,0,0,1,1.56-.6,6.56,6.56,0,0,1,1.7-.22,3.65,3.65,0,0,1,2.55.76,3.17,3.17,0,0,1,.83,2.45v6.58Zm-3.29-1a3,3,0,0,0,2.14-.75,2.79,2.79,0,0,0,.77-2.09v-.87l-1.46.06a5.24,5.24,0,0,0-2.5.54,1.62,1.62,0,0,0-.77,1.49,1.52,1.52,0,0,0,.48,1.21A2,2,0,0,0,258.27,64.42Z" style="fill: #314041"/>
    <path d="M272.24,65.45V59.22a2.51,2.51,0,0,0-.54-1.76,2.14,2.14,0,0,0-1.67-.58,2.76,2.76,0,0,0-2.22.82,4.09,4.09,0,0,0-.7,2.69v5.06h-1.46V55.82h1.19l.23,1.31h.07A3,3,0,0,1,268.4,56a4.1,4.1,0,0,1,1.8-.39,3.67,3.67,0,0,1,2.62.84,3.54,3.54,0,0,1,.88,2.68v6.29Z" style="fill: #314041"/>
    <path d="M280.55,65.62a4.12,4.12,0,0,1-3.24-1.28,5.29,5.29,0,0,1-1.15-3.65A5.48,5.48,0,0,1,277.32,57a4.21,4.21,0,0,1,3.32-1.32,6.5,6.5,0,0,1,1.39.15,4.82,4.82,0,0,1,1.09.35l-.45,1.24a6.16,6.16,0,0,0-1.05-.32,4.43,4.43,0,0,0-1-.13q-2.94,0-2.94,3.75a4.43,4.43,0,0,0,.72,2.72,2.5,2.5,0,0,0,2.12.95,6.41,6.41,0,0,0,2.47-.52v1.29A5.15,5.15,0,0,1,280.55,65.62Z" style="fill: #314041"/>
    <path d="M293.58,60.62a5.27,5.27,0,0,1-1.19,3.68,4.18,4.18,0,0,1-3.28,1.32,4.37,4.37,0,0,1-2.29-.6,4,4,0,0,1-1.54-1.74,6,6,0,0,1-.55-2.66A5.29,5.29,0,0,1,285.91,57a4.17,4.17,0,0,1,3.27-1.31A4.08,4.08,0,0,1,292.39,57,5.32,5.32,0,0,1,293.58,60.62Zm-7.34,0a4.62,4.62,0,0,0,.74,2.82,2.56,2.56,0,0,0,2.17,1,2.59,2.59,0,0,0,2.18-1,4.58,4.58,0,0,0,.74-2.82,4.53,4.53,0,0,0-.74-2.79,2.64,2.64,0,0,0-2.2-.95,2.57,2.57,0,0,0-2.16.94A4.5,4.5,0,0,0,286.24,60.62Z" style="fill: #314041"/>
    <path d="M300.53,55.64a5,5,0,0,1,1.15.11l-.2,1.35a4.83,4.83,0,0,0-1.05-.13,2.54,2.54,0,0,0-2,1,3.42,3.42,0,0,0-.83,2.36v5.17h-1.46V55.82h1.2l.17,1.78h.07a4.27,4.27,0,0,1,1.29-1.45A2.9,2.9,0,0,1,300.53,55.64Z" style="fill: #314041"/>
    <path d="M309.41,65.45l-.29-1.37h-.07a4,4,0,0,1-1.44,1.22,4.28,4.28,0,0,1-1.79.32,3.21,3.21,0,0,1-2.24-.73,2.72,2.72,0,0,1-.81-2.1q0-2.92,4.66-3.06l1.64-.06v-.59a2.48,2.48,0,0,0-.49-1.68,2,2,0,0,0-1.56-.54,6.45,6.45,0,0,0-2.73.74l-.44-1.12a6.74,6.74,0,0,1,1.56-.6,6.56,6.56,0,0,1,1.7-.22,3.65,3.65,0,0,1,2.55.76,3.21,3.21,0,0,1,.83,2.45v6.58Zm-3.3-1a2.94,2.94,0,0,0,2.14-.75,2.75,2.75,0,0,0,.78-2.09v-.87l-1.46.06a5.31,5.31,0,0,0-2.51.54,1.64,1.64,0,0,0-.77,1.49,1.52,1.52,0,0,0,.48,1.21A2,2,0,0,0,306.11,64.42Z" style="fill: #314041"/>
    <path d="M192.49,85.76h-.08a3.43,3.43,0,0,1-3,1.46,3.58,3.58,0,0,1-2.94-1.29,5.67,5.67,0,0,1-1-3.67,5.8,5.8,0,0,1,1-3.7,3.54,3.54,0,0,1,2.94-1.32,3.5,3.5,0,0,1,3,1.42h.12l-.07-.69,0-.68V73.37h1.46V87.05h-1.19Zm-2.92.24a2.67,2.67,0,0,0,2.17-.81,4.1,4.1,0,0,0,.67-2.62v-.31a4.84,4.84,0,0,0-.68-2.92,2.58,2.58,0,0,0-2.18-.88,2.22,2.22,0,0,0-2,1,4.9,4.9,0,0,0-.68,2.82,4.73,4.73,0,0,0,.67,2.78A2.29,2.29,0,0,0,189.57,86Z" style="fill: #314041"/>
    <path d="M196.84,74.81a1,1,0,0,1,.25-.74.91.91,0,0,1,1.22,0,.94.94,0,0,1,.25.73,1,1,0,0,1-.25.73.85.85,0,0,1-.61.24.82.82,0,0,1-.61-.24A1,1,0,0,1,196.84,74.81Zm1.58,12.24H197V77.42h1.46Z" style="fill: #314041"/>
    <path d="M209.4,77.42v.92l-1.79.21a2.62,2.62,0,0,1,.44.8,3.06,3.06,0,0,1,.2,1.12,2.82,2.82,0,0,1-1,2.26,3.85,3.85,0,0,1-2.65.85,5.09,5.09,0,0,1-.81-.07,1.43,1.43,0,0,0-.93,1.24.62.62,0,0,0,.32.58,2.34,2.34,0,0,0,1.12.19H206a3.82,3.82,0,0,1,2.41.66,2.29,2.29,0,0,1,.84,1.91A2.73,2.73,0,0,1,208,90.53a6.84,6.84,0,0,1-3.74.84,5.15,5.15,0,0,1-2.92-.7,2.41,2.41,0,0,1-.46-3.51,2.88,2.88,0,0,1,1.58-.87,1.45,1.45,0,0,1-.61-.52,1.32,1.32,0,0,1-.25-.81,1.57,1.57,0,0,1,.28-.93,3,3,0,0,1,.88-.76,2.6,2.6,0,0,1-1.21-1,3,3,0,0,1-.47-1.68,3.09,3.09,0,0,1,1-2.44,3.85,3.85,0,0,1,2.68-.86,4.84,4.84,0,0,1,1.37.18Zm-7.68,11.25a1.3,1.3,0,0,0,.66,1.18,3.61,3.61,0,0,0,1.89.41,5.35,5.35,0,0,0,2.72-.55,1.71,1.71,0,0,0,.88-1.49,1.19,1.19,0,0,0-.48-1.09,3.82,3.82,0,0,0-1.82-.3h-1.75a2.35,2.35,0,0,0-1.55.47A1.7,1.7,0,0,0,201.72,88.67Zm.79-8.17a2,2,0,0,0,.57,1.53,2.26,2.26,0,0,0,1.59.52,1.87,1.87,0,0,0,2.14-2.08,1.92,1.92,0,0,0-2.17-2.17,2.14,2.14,0,0,0-1.58.56A2.21,2.21,0,0,0,202.51,80.5Z" style="fill: #314041"/>
    <path d="M211.25,74.81a1,1,0,0,1,.25-.74.87.87,0,0,1,.61-.23.85.85,0,0,1,.61.24.94.94,0,0,1,.26.73,1,1,0,0,1-.26.73.85.85,0,0,1-.61.24.84.84,0,0,1-.61-.24A1,1,0,0,1,211.25,74.81Zm1.59,12.24h-1.46V77.42h1.46Z" style="fill: #314041"/>
    <path d="M219,86a4.56,4.56,0,0,0,.75-.06,3.67,3.67,0,0,0,.57-.12V87a2.53,2.53,0,0,1-.7.19,5.16,5.16,0,0,1-.83.07c-1.86,0-2.8-1-2.8-2.94V78.55h-1.38v-.7l1.38-.61.62-2.06h.84v2.24h2.8v1.13h-2.8v5.67a1.91,1.91,0,0,0,.42,1.33A1.43,1.43,0,0,0,219,86Z" style="fill: #314041"/>
    <path d="M228.21,87.05l-.29-1.37h-.07a4,4,0,0,1-1.44,1.22,4.28,4.28,0,0,1-1.79.32,3.21,3.21,0,0,1-2.24-.73,2.69,2.69,0,0,1-.82-2.1q0-2.92,4.67-3.06l1.63-.06v-.59a2.48,2.48,0,0,0-.48-1.68,2,2,0,0,0-1.56-.54,6.41,6.41,0,0,0-2.73.74l-.45-1.12a7.11,7.11,0,0,1,1.56-.6,6.67,6.67,0,0,1,1.7-.22,3.7,3.7,0,0,1,2.56.76,3.21,3.21,0,0,1,.83,2.45v6.58Zm-3.3-1a3,3,0,0,0,2.14-.75,2.75,2.75,0,0,0,.78-2.09v-.87l-1.46.06a5.28,5.28,0,0,0-2.51.54,1.64,1.64,0,0,0-.77,1.49,1.52,1.52,0,0,0,.48,1.21A2,2,0,0,0,224.91,86Z" style="fill: #314041"/>
    <path d="M233.75,87.05h-1.46V73.37h1.46Z" style="fill: #314041"/>
    <path d="M236.72,74.81a1,1,0,0,1,.25-.74.88.88,0,0,1,.62-.23.85.85,0,0,1,.6.24.94.94,0,0,1,.26.73,1,1,0,0,1-.26.73.9.9,0,0,1-1.22,0A1,1,0,0,1,236.72,74.81Zm1.59,12.24h-1.46V77.42h1.46Z" style="fill: #314041"/>
    <path d="M247.56,87.05h-7v-1l5.26-7.51H240.9V77.42h6.53v1.13l-5.19,7.36h5.32Z" style="fill: #314041"/>
    <path d="M256,87.05h-7v-1l5.26-7.51h-4.93V77.42h6.53v1.13l-5.19,7.36H256Z" style="fill: #314041"/>
    <path d="M264.16,87.05l-.29-1.37h-.07a4.07,4.07,0,0,1-1.43,1.22,4.31,4.31,0,0,1-1.79.32,3.22,3.22,0,0,1-2.25-.73,2.72,2.72,0,0,1-.81-2.1c0-2,1.55-3,4.67-3.06l1.63-.06v-.59a2.43,2.43,0,0,0-.49-1.68,2,2,0,0,0-1.56-.54,6.37,6.37,0,0,0-2.72.74l-.45-1.12a6.74,6.74,0,0,1,1.56-.6,6.61,6.61,0,0,1,1.7-.22,3.65,3.65,0,0,1,2.55.76,3.17,3.17,0,0,1,.83,2.45v6.58Zm-3.29-1a3,3,0,0,0,2.14-.75,2.75,2.75,0,0,0,.77-2.09v-.87l-1.45.06a5.28,5.28,0,0,0-2.51.54,1.62,1.62,0,0,0-.77,1.49,1.52,1.52,0,0,0,.48,1.21A2,2,0,0,0,260.87,86Z" style="fill: #314041"/>
    <path d="M272.64,77.24a5.14,5.14,0,0,1,1.16.11l-.21,1.35a4.83,4.83,0,0,0-1-.13,2.54,2.54,0,0,0-2,1,3.47,3.47,0,0,0-.83,2.36v5.17h-1.46V77.42h1.2l.17,1.78h.07A4.27,4.27,0,0,1,271,77.75,2.93,2.93,0,0,1,272.64,77.24Z" style="fill: #314041"/>
    <path d="M279.67,87.22a4.4,4.4,0,0,1-3.37-1.3,5,5,0,0,1-1.24-3.61,5.55,5.55,0,0,1,1.15-3.7,3.81,3.81,0,0,1,3.08-1.37,3.63,3.63,0,0,1,2.86,1.19,4.52,4.52,0,0,1,1.06,3.14v.93h-6.64a3.83,3.83,0,0,0,.86,2.57,3,3,0,0,0,2.29.88,7.85,7.85,0,0,0,3.08-.65v1.3a8.35,8.35,0,0,1-1.47.48A8,8,0,0,1,279.67,87.22Zm-.4-8.76a2.37,2.37,0,0,0-1.85.76,3.46,3.46,0,0,0-.81,2.09h5A3.18,3.18,0,0,0,281,79.2,2.17,2.17,0,0,0,279.27,78.46Z" style="fill: #314041"/>
    <path d="M290.25,74.81a1,1,0,0,1,.25-.74.91.91,0,0,1,1.22,0,.94.94,0,0,1,.25.73,1,1,0,0,1-.25.73.85.85,0,0,1-.61.24.82.82,0,0,1-.61-.24A1,1,0,0,1,290.25,74.81Zm1.58,12.24h-1.46V77.42h1.46Z" style="fill: #314041"/>
    <path d="M304.08,87.22a4.23,4.23,0,0,1-1.72-.34,3.26,3.26,0,0,1-1.3-1.07H301a11.23,11.23,0,0,1,.11,1.6v4H299.6v-14h1.19l.2,1.31h.07a3.52,3.52,0,0,1,1.31-1.14,4,4,0,0,1,1.71-.35,3.56,3.56,0,0,1,3,1.31,7,7,0,0,1,0,7.36A3.54,3.54,0,0,1,304.08,87.22Zm-.21-8.74a2.57,2.57,0,0,0-2.13.82,4.17,4.17,0,0,0-.68,2.6v.32a4.77,4.77,0,0,0,.68,2.91,2.57,2.57,0,0,0,2.17.87,2.23,2.23,0,0,0,1.95-1,4.78,4.78,0,0,0,.71-2.78,4.62,4.62,0,0,0-.71-2.77A2.32,2.32,0,0,0,303.87,78.48Z" style="fill: #314041"/>
    <path d="M315,77.24a5.1,5.1,0,0,1,1.15.11L316,78.7a4.76,4.76,0,0,0-1.05-.13,2.54,2.54,0,0,0-2,1,3.47,3.47,0,0,0-.83,2.36v5.17h-1.46V77.42h1.21L312,79.2h.07a4.27,4.27,0,0,1,1.29-1.45A2.93,2.93,0,0,1,315,77.24Z" style="fill: #314041"/>
    <path d="M326.29,82.22a5.32,5.32,0,0,1-1.18,3.68,4.19,4.19,0,0,1-3.28,1.32,4.41,4.41,0,0,1-2.3-.6A4.08,4.08,0,0,1,318,84.88a6,6,0,0,1-.55-2.66,5.34,5.34,0,0,1,1.18-3.67,4.2,4.2,0,0,1,3.27-1.31,4.08,4.08,0,0,1,3.21,1.34A5.27,5.27,0,0,1,326.29,82.22Zm-7.34,0a4.62,4.62,0,0,0,.74,2.82A2.94,2.94,0,0,0,324,85a4.58,4.58,0,0,0,.74-2.82,4.53,4.53,0,0,0-.74-2.79,2.63,2.63,0,0,0-2.19-1,2.57,2.57,0,0,0-2.17.94A4.57,4.57,0,0,0,319,82.22Z" style="fill: #314041"/>
    <path d="M332.7,87.22a4.15,4.15,0,0,1-3.24-1.28,5.34,5.34,0,0,1-1.15-3.65,5.43,5.43,0,0,1,1.17-3.73,4.19,4.19,0,0,1,3.32-1.32,6.64,6.64,0,0,1,1.39.15,5,5,0,0,1,1.09.35L334.83,79a6.27,6.27,0,0,0-1.06-.32,4.43,4.43,0,0,0-1-.13c-2,0-2.93,1.25-2.93,3.75a4.5,4.5,0,0,0,.71,2.72,2.51,2.51,0,0,0,2.13,1,6.36,6.36,0,0,0,2.46-.52v1.29A5.15,5.15,0,0,1,332.7,87.22Z" style="fill: #314041"/>
    <path d="M341.49,87.22a4.41,4.41,0,0,1-3.37-1.3,5,5,0,0,1-1.24-3.61,5.61,5.61,0,0,1,1.15-3.7,3.83,3.83,0,0,1,3.08-1.37A3.66,3.66,0,0,1,344,78.43a4.57,4.57,0,0,1,1,3.14v.93H338.4a3.83,3.83,0,0,0,.85,2.57,3,3,0,0,0,2.29.88,7.82,7.82,0,0,0,3.08-.65v1.3a8.35,8.35,0,0,1-1.47.48A8,8,0,0,1,341.49,87.22Zm-.4-8.76a2.37,2.37,0,0,0-1.85.76,3.46,3.46,0,0,0-.81,2.09h5a3.18,3.18,0,0,0-.62-2.11A2.16,2.16,0,0,0,341.09,78.46Z" style="fill: #314041"/>
    <path d="M353.73,84.42a2.39,2.39,0,0,1-1,2.07,4.69,4.69,0,0,1-2.81.73,6.16,6.16,0,0,1-3-.6V85.26a7.16,7.16,0,0,0,1.49.56A6.43,6.43,0,0,0,350,86a3.53,3.53,0,0,0,1.76-.36,1.26,1.26,0,0,0,.13-2.08,7.59,7.59,0,0,0-1.9-.94,10.69,10.69,0,0,1-1.92-.88,2.61,2.61,0,0,1-.84-.85,2.23,2.23,0,0,1-.28-1.13,2.16,2.16,0,0,1,1-1.86,4.51,4.51,0,0,1,2.63-.68,7.7,7.7,0,0,1,3,.63L353,79.06a7,7,0,0,0-2.63-.6,3,3,0,0,0-1.56.33,1,1,0,0,0-.53.89,1.1,1.1,0,0,0,.2.66,1.85,1.85,0,0,0,.64.52,14.6,14.6,0,0,0,1.68.71,6.34,6.34,0,0,1,2.32,1.26A2.21,2.21,0,0,1,353.73,84.42Z" style="fill: #314041"/>
    <path d="M362.32,84.42a2.39,2.39,0,0,1-1,2.07,4.69,4.69,0,0,1-2.81.73,6.16,6.16,0,0,1-3-.6V85.26a7.16,7.16,0,0,0,1.49.56,6.43,6.43,0,0,0,1.53.2,3.53,3.53,0,0,0,1.76-.36,1.27,1.27,0,0,0,.13-2.08,7.52,7.52,0,0,0-1.91-.94,10.86,10.86,0,0,1-1.91-.88,2.51,2.51,0,0,1-.84-.85,2.13,2.13,0,0,1-.28-1.13,2.16,2.16,0,0,1,1-1.86,4.49,4.49,0,0,1,2.63-.68,7.74,7.74,0,0,1,3,.63l-.52,1.19a7,7,0,0,0-2.63-.6,3,3,0,0,0-1.56.33,1,1,0,0,0-.53.89,1,1,0,0,0,.2.66,1.9,1.9,0,0,0,.63.52,15.9,15.9,0,0,0,1.69.71,6.42,6.42,0,0,1,2.32,1.26A2.21,2.21,0,0,1,362.32,84.42Z" style="fill: #314041"/>
    <path d="M364.57,74.81a1,1,0,0,1,.25-.74.87.87,0,0,1,.61-.23.85.85,0,0,1,.61.24.94.94,0,0,1,.25.73,1,1,0,0,1-.25.73.85.85,0,0,1-.61.24.84.84,0,0,1-.61-.24A1,1,0,0,1,364.57,74.81Zm1.58,12.24h-1.46V77.42h1.46Z" style="fill: #314041"/>
    <path d="M190.33,98.84a5.79,5.79,0,0,1,1.15.1l-.2,1.36a4.84,4.84,0,0,0-1.06-.13,2.55,2.55,0,0,0-2,1,3.47,3.47,0,0,0-.83,2.36v5.17h-1.46V99h1.21l.16,1.78h.07a4.19,4.19,0,0,1,1.3-1.45A2.88,2.88,0,0,1,190.33,98.84Z" style="fill: #314041"/>
    <path d="M193.16,96.4a1,1,0,0,1,.24-.73.9.9,0,0,1,.62-.23.85.85,0,0,1,.6.24.93.93,0,0,1,.26.72,1,1,0,0,1-.26.74.85.85,0,0,1-.6.24.86.86,0,0,1-.62-.24A1,1,0,0,1,193.16,96.4Zm1.58,12.25h-1.46V99h1.46Z" style="fill: #314041"/>
    <path d="M199.94,108.65,196.28,99h1.57l2.07,5.71a25.88,25.88,0,0,1,.83,2.6h.07a19.5,19.5,0,0,1,.61-1.93q.51-1.45,2.31-6.38h1.56l-3.65,9.63Z" style="fill: #314041"/>
    <path d="M215.16,103.82A5.32,5.32,0,0,1,214,107.5a4.19,4.19,0,0,1-3.28,1.32,4.35,4.35,0,0,1-2.29-.6,4,4,0,0,1-1.55-1.74,6.13,6.13,0,0,1-.55-2.66,5.34,5.34,0,0,1,1.18-3.67,4.2,4.2,0,0,1,3.27-1.31,4.08,4.08,0,0,1,3.21,1.34A5.27,5.27,0,0,1,215.16,103.82Zm-7.33,0a4.62,4.62,0,0,0,.73,2.82,2.94,2.94,0,0,0,4.35,0,4.58,4.58,0,0,0,.74-2.82,4.53,4.53,0,0,0-.74-2.79,2.63,2.63,0,0,0-2.19-1,2.57,2.57,0,0,0-2.17.94A4.57,4.57,0,0,0,207.83,103.82Z" style="fill: #314041"/>
    <path d="M219.18,108.65h-1.46V95h1.46Z" style="fill: #314041"/>
    <path d="M225.39,107.62a4.52,4.52,0,0,0,.74-.06,5.41,5.41,0,0,0,.57-.12v1.12a2.45,2.45,0,0,1-.69.19,5.25,5.25,0,0,1-.83.07c-1.87,0-2.8-1-2.8-2.94v-5.73H221v-.7l1.38-.61.62-2.06h.84V99h2.79v1.13h-2.79v5.67a2,2,0,0,0,.41,1.33A1.46,1.46,0,0,0,225.39,107.62Z" style="fill: #314041"/>
    <path d="M228.51,96.4a1,1,0,0,1,.24-.73.9.9,0,0,1,.62-.23.85.85,0,0,1,.6.24.93.93,0,0,1,.26.72,1,1,0,0,1-.26.74.85.85,0,0,1-.6.24.86.86,0,0,1-.62-.24A1,1,0,0,1,228.51,96.4Zm1.58,12.25h-1.46V99h1.46Z" style="fill: #314041"/>
    <path d="M243.78,108.65l-.29-1.37h-.07A4,4,0,0,1,242,108.5a4.25,4.25,0,0,1-1.79.32,3.21,3.21,0,0,1-2.24-.73,2.73,2.73,0,0,1-.81-2.11q0-2.91,4.66-3l1.64-.06v-.59a2.43,2.43,0,0,0-.49-1.68,2,2,0,0,0-1.56-.54,6.37,6.37,0,0,0-2.72.74l-.45-1.12a6.74,6.74,0,0,1,1.56-.6,6.56,6.56,0,0,1,1.7-.22,3.65,3.65,0,0,1,2.55.76,3.17,3.17,0,0,1,.83,2.45v6.58Zm-3.29-1a3,3,0,0,0,2.14-.75,2.79,2.79,0,0,0,.77-2.09v-.87l-1.46.06a5.24,5.24,0,0,0-2.5.54,1.62,1.62,0,0,0-.77,1.49,1.52,1.52,0,0,0,.48,1.21A2,2,0,0,0,240.49,107.62Z" style="fill: #314041"/>
    <path d="M247.75,96.4a1,1,0,0,1,.24-.73.9.9,0,0,1,.62-.23.85.85,0,0,1,.6.24.93.93,0,0,1,.26.72,1,1,0,0,1-.26.74.85.85,0,0,1-.6.24.86.86,0,0,1-.62-.24A1,1,0,0,1,247.75,96.4Zm1.58,12.25h-1.46V99h1.46Z" style="fill: #314041"/>
    <path d="M263.65,107.36h-.08a3.43,3.43,0,0,1-3,1.46,3.58,3.58,0,0,1-2.94-1.29,5.67,5.67,0,0,1-1.05-3.67,5.8,5.8,0,0,1,1.05-3.7,3.57,3.57,0,0,1,2.94-1.32,3.5,3.5,0,0,1,3,1.42h.11l-.06-.69,0-.68V95H265v13.68h-1.18Zm-2.91.24a2.66,2.66,0,0,0,2.16-.81,4.1,4.1,0,0,0,.67-2.62v-.31a4.77,4.77,0,0,0-.68-2.92,2.56,2.56,0,0,0-2.17-.88,2.24,2.24,0,0,0-2,1,5,5,0,0,0-.68,2.82,4.75,4.75,0,0,0,.68,2.78A2.28,2.28,0,0,0,260.74,107.6Z" style="fill: #314041"/>
    <path d="M268,96.4a1,1,0,0,1,.25-.73.87.87,0,0,1,.61-.23.85.85,0,0,1,.61.24.93.93,0,0,1,.26.72,1,1,0,0,1-.26.74.85.85,0,0,1-.61.24.84.84,0,0,1-.61-.24A1,1,0,0,1,268,96.4Zm1.59,12.25h-1.46V99h1.46Z" style="fill: #314041"/>
    <path d="M277.16,108.82a4.19,4.19,0,0,1-1.72-.34,3.26,3.26,0,0,1-1.3-1.07H274a12.92,12.92,0,0,1,.11,1.6v4h-1.46V99h1.19l.2,1.31h.07a3.44,3.44,0,0,1,1.31-1.14,4,4,0,0,1,1.71-.35,3.56,3.56,0,0,1,3,1.31,7,7,0,0,1,0,7.36A3.54,3.54,0,0,1,277.16,108.82Zm-.21-8.74a2.57,2.57,0,0,0-2.13.82,4.17,4.17,0,0,0-.68,2.6v.32a4.75,4.75,0,0,0,.68,2.91,2.57,2.57,0,0,0,2.17.87,2.23,2.23,0,0,0,1.95-1,4.78,4.78,0,0,0,.71-2.78,4.62,4.62,0,0,0-.71-2.77A2.32,2.32,0,0,0,277,100.08Z" style="fill: #314041"/>
    <path d="M287.78,108.82a4.41,4.41,0,0,1-3.37-1.3,5,5,0,0,1-1.24-3.61,5.61,5.61,0,0,1,1.15-3.7,3.83,3.83,0,0,1,3.08-1.37,3.66,3.66,0,0,1,2.87,1.19,4.57,4.57,0,0,1,1.05,3.14v.93h-6.63a3.77,3.77,0,0,0,.85,2.57,3,3,0,0,0,2.29.88,7.85,7.85,0,0,0,3.08-.65v1.3a8.35,8.35,0,0,1-1.47.48A8.64,8.64,0,0,1,287.78,108.82Zm-.4-8.76a2.37,2.37,0,0,0-1.85.76,3.46,3.46,0,0,0-.81,2.09h5a3.23,3.23,0,0,0-.62-2.12A2.18,2.18,0,0,0,287.38,100.06Z" style="fill: #314041"/>
    <path d="M300.4,108.65v-6.23a2.51,2.51,0,0,0-.54-1.76,2.14,2.14,0,0,0-1.67-.58,2.76,2.76,0,0,0-2.22.82,4.09,4.09,0,0,0-.7,2.69v5.06h-1.46V99H295l.23,1.31h.07a3,3,0,0,1,1.26-1.1,4.1,4.1,0,0,1,1.8-.39,3.67,3.67,0,0,1,2.62.84,3.54,3.54,0,0,1,.88,2.68v6.29Z" style="fill: #314041"/>
    <path d="M311.41,107.36h-.08a3.43,3.43,0,0,1-3,1.46,3.58,3.58,0,0,1-2.94-1.29,5.67,5.67,0,0,1-1.05-3.67,5.8,5.8,0,0,1,1.05-3.7,3.57,3.57,0,0,1,2.94-1.32,3.5,3.5,0,0,1,3,1.42h.11l-.06-.69,0-.68V95h1.46v13.68h-1.18Zm-2.91.24a2.66,2.66,0,0,0,2.16-.81,4.1,4.1,0,0,0,.67-2.62v-.31a4.77,4.77,0,0,0-.68-2.92,2.56,2.56,0,0,0-2.17-.88,2.24,2.24,0,0,0-2,1,5,5,0,0,0-.68,2.82,4.75,4.75,0,0,0,.68,2.78A2.28,2.28,0,0,0,308.5,107.6Z" style="fill: #314041"/>
    <path d="M320,108.82a4.4,4.4,0,0,1-3.37-1.3,5,5,0,0,1-1.24-3.61,5.55,5.55,0,0,1,1.15-3.7,3.81,3.81,0,0,1,3.08-1.37,3.64,3.64,0,0,1,2.86,1.19,4.52,4.52,0,0,1,1.06,3.14v.93h-6.64a3.83,3.83,0,0,0,.86,2.57,3,3,0,0,0,2.29.88,7.85,7.85,0,0,0,3.08-.65v1.3a8.35,8.35,0,0,1-1.47.48A8.72,8.72,0,0,1,320,108.82Zm-.4-8.76a2.37,2.37,0,0,0-1.85.76,3.46,3.46,0,0,0-.81,2.09h5a3.23,3.23,0,0,0-.61-2.12A2.2,2.2,0,0,0,319.56,100.06Z" style="fill: #314041"/>
    <path d="M332.58,108.65v-6.23a2.51,2.51,0,0,0-.54-1.76,2.18,2.18,0,0,0-1.68-.58,2.75,2.75,0,0,0-2.21.82,4.09,4.09,0,0,0-.71,2.69v5.06H326V99h1.18l.24,1.31h.07a3,3,0,0,1,1.26-1.1,4.1,4.1,0,0,1,1.8-.39,3.67,3.67,0,0,1,2.62.84,3.58,3.58,0,0,1,.88,2.68v6.29Z" style="fill: #314041"/>
    <path d="M340.14,107.62a4.56,4.56,0,0,0,.75-.06,5.41,5.41,0,0,0,.57-.12v1.12a2.53,2.53,0,0,1-.7.19,5.07,5.07,0,0,1-.83.07q-2.79,0-2.79-2.94v-5.73h-1.38v-.7l1.38-.61.61-2.06h.85V99h2.79v1.13H338.6v5.67a2,2,0,0,0,.41,1.33A1.44,1.44,0,0,0,340.14,107.62Z" style="fill: #314041"/>
    <path d="M343.27,96.4a1,1,0,0,1,.24-.73.9.9,0,0,1,.62-.23.85.85,0,0,1,.6.24.93.93,0,0,1,.26.72,1,1,0,0,1-.26.74.85.85,0,0,1-.6.24.86.86,0,0,1-.62-.24A1,1,0,0,1,343.27,96.4Zm1.58,12.25h-1.46V99h1.46Z" style="fill: #314041"/>
  </g>
  <path d="M67,78.44A37.41,37.41,0,0,1,104.42,41V16.2c-20.62,0-38.23,9-50.35,25.65a62.24,62.24,0,0,0,13.77,86.94L82.43,108.7A37.36,37.36,0,0,1,67,78.44Z" style="fill: #dfdfdf"/>
  <path d="M104.42,16.2V41a37.42,37.42,0,1,1-22,67.68L67.84,128.79a59.63,59.63,0,0,0,36.58,11.89,62.24,62.24,0,0,0,0-124.48Z" style="fill: #de9393"/>
  <path d="M122.59,69.48l-7.94-8.7a.87.87,0,0,0-1.46,0l-8,8.7a1.17,1.17,0,0,0-.16,1.06.9.9,0,0,0,1,.71h15.89c.33,0,.65-.18.82-.71C122.92,70.19,122.92,69.65,122.59,69.48Z" style="fill: #81b59f;fill-rule: evenodd"/>
  <path d="M96.43,86.47a3.62,3.62,0,1,1-3.62-3.7A3.69,3.69,0,0,1,96.43,86.47Zm5.27,12.77v-.67A8.35,8.35,0,0,0,96.76,91l-.33-.16.33-.34a5.92,5.92,0,0,0,1.65-4,5.6,5.6,0,1,0-11.2,0,5.92,5.92,0,0,0,1.65,4l.33.34-.33.16a8.35,8.35,0,0,0-4.94,7.57v.67a1,1,0,1,0,2,0v-.67a6.94,6.94,0,0,1,13.84,0v.67a1,1,0,1,0,2,0Zm11.53-21.18a1,1,0,0,0,0-2h-6.59a1,1,0,0,0,0,2Zm-12-14.46a.69.69,0,0,1,.33.68v.33l.16.51a1.05,1.05,0,0,0,1,.84h2.63a1,1,0,0,0,0-2h-1.81a2.74,2.74,0,0,0-.82-1.85,3.46,3.46,0,0,0-2.14-.84H93.47a1.19,1.19,0,0,0-1,1V77.72a1,1,0,1,0,2,0V63.27h5.92A1.26,1.26,0,0,1,101.21,63.6Zm23.71,6.9-3.79,17.31a3,3,0,0,1-3,2.35h-16.8a1,1,0,0,1,0-2h16.8a1.25,1.25,0,0,0,1.15-.84l3.46-16H99.23l-1.48,7.73a1,1,0,0,1-1.32.84,1.14,1.14,0,0,1-.66-1.18l1.65-8.57a.92.92,0,0,1,1-.84h25.52a1.26,1.26,0,0,1,.82.33A1.85,1.85,0,0,1,124.92,70.5Z" style="fill: #293e40;fill-rule: evenodd"/>
</svg>
