<svg xmlns="http://www.w3.org/2000/svg" viewBox="0 0 374.33 160.63">
  <title>nugget_graph_2</title>
  <g>
    <path d="M195.44,36.66h-1.71V39.6h-2.94V36.66h-6.07V34.57L191,25.38h2.77v8.94h1.71Zm-4.65-2.34V31.91c0-.4,0-1,.05-1.75s.06-1.21.08-1.33h-.08a10.35,10.35,0,0,1-.87,1.55l-2.6,3.94Z" style="fill: #314041"/>
    <path d="M206.81,36.66H205.1V39.6h-2.94V36.66h-6.07V34.57l6.24-9.19h2.77v8.94h1.71Zm-4.65-2.34V31.91c0-.4,0-1,.05-1.75s.06-1.21.08-1.33h-.08a10.35,10.35,0,0,1-.87,1.55l-2.6,3.94Z" style="fill: #314041"/>
    <path d="M214.49,29.63a5.51,5.51,0,0,1-.86,3.36,3,3,0,0,1-2.54,1.12A3,3,0,0,1,208.61,33a5.39,5.39,0,0,1-.88-3.33q0-4.45,3.36-4.45a3,3,0,0,1,2.52,1.15A5.34,5.34,0,0,1,214.49,29.63Zm-4.31,0a6,6,0,0,0,.22,1.85c.15.4.38.61.71.61q.93,0,.93-2.46t-.93-2.43c-.33,0-.56.2-.71.6A5.87,5.87,0,0,0,210.18,29.64Zm11-4.26L213.3,39.6H211l7.89-14.22Zm3.27,9.93a5.5,5.5,0,0,1-.86,3.35,3,3,0,0,1-2.54,1.12,2.92,2.92,0,0,1-2.48-1.15,5.38,5.38,0,0,1-.88-3.32q0-4.45,3.36-4.45A3,3,0,0,1,223.57,32,5.34,5.34,0,0,1,224.45,35.31Zm-4.31,0a6,6,0,0,0,.22,1.85c.15.4.38.61.71.61q.93,0,.93-2.46t-.93-2.43c-.33,0-.56.2-.71.6A5.87,5.87,0,0,0,220.14,35.32Z" style="fill: #314041"/>
  </g>
  <g>
    <path d="M193.4,62a3.14,3.14,0,0,1-1.23,2.64,5.28,5.28,0,0,1-3.34,1,8.46,8.46,0,0,1-3.52-.58V63.59a9.43,9.43,0,0,0,3.57.72,3.7,3.7,0,0,0,2.25-.56,1.86,1.86,0,0,0,.76-1.58,2,2,0,0,0-.27-1.09,2.46,2.46,0,0,0-.9-.79,12.88,12.88,0,0,0-1.91-.82A6.09,6.09,0,0,1,186.25,58a3.36,3.36,0,0,1-.77-2.29,2.86,2.86,0,0,1,1.12-2.37,4.67,4.67,0,0,1,3-.88,8.65,8.65,0,0,1,3.52.71l-.46,1.3a7.88,7.88,0,0,0-3.1-.67,3,3,0,0,0-1.85.51,1.69,1.69,0,0,0-.67,1.41,2.13,2.13,0,0,0,.25,1.1,2.33,2.33,0,0,0,.83.78,10.08,10.08,0,0,0,1.79.79,7.09,7.09,0,0,1,2.78,1.54A3.06,3.06,0,0,1,193.4,62Z" style="fill: #314041"/>
    <path d="M198.92,64.42a4.56,4.56,0,0,0,.75-.06,3.67,3.67,0,0,0,.57-.12v1.12a2.53,2.53,0,0,1-.7.19,5.25,5.25,0,0,1-.83.07c-1.87,0-2.8-1-2.8-2.94V57h-1.38v-.7l1.38-.61.62-2.06h.84v2.24h2.8V57h-2.8v5.67a1.91,1.91,0,0,0,.42,1.33A1.43,1.43,0,0,0,198.92,64.42Z" style="fill: #314041"/>
    <path d="M202,53.21a1,1,0,0,1,.25-.74.91.91,0,0,1,1.22,0,.94.94,0,0,1,.25.73,1,1,0,0,1-.25.73.85.85,0,0,1-.61.24.82.82,0,0,1-.61-.24A1,1,0,0,1,202,53.21Zm1.58,12.24h-1.46V55.82h1.46Z" style="fill: #314041"/>
    <path d="M208.17,65.45h-1.45V51.77h1.45Z" style="fill: #314041"/>
    <path d="M212.73,65.45h-1.46V51.77h1.46Z" style="fill: #314041"/>
    <path d="M227.09,65.45V59.22a2.51,2.51,0,0,0-.54-1.76,2.17,2.17,0,0,0-1.68-.58,2.75,2.75,0,0,0-2.21.82,4.09,4.09,0,0,0-.7,2.69v5.06H220.5V55.82h1.18l.24,1.31H222a3,3,0,0,1,1.26-1.1,4.1,4.1,0,0,1,1.8-.39,3.67,3.67,0,0,1,2.62.84,3.58,3.58,0,0,1,.88,2.68v6.29Z" style="fill: #314041"/>
    <path d="M235.61,65.62a4.43,4.43,0,0,1-3.37-1.3A5,5,0,0,1,231,60.71a5.6,5.6,0,0,1,1.14-3.7,3.85,3.85,0,0,1,3.09-1.37,3.64,3.64,0,0,1,2.86,1.19A4.57,4.57,0,0,1,239.16,60v.93h-6.64a3.78,3.78,0,0,0,.86,2.57,2.94,2.94,0,0,0,2.29.88,7.8,7.8,0,0,0,3.07-.65V65a6.88,6.88,0,0,1-3.13.62Zm-.39-8.76a2.36,2.36,0,0,0-1.85.76,3.52,3.52,0,0,0-.82,2.09h5A3.18,3.18,0,0,0,237,57.6,2.17,2.17,0,0,0,235.22,56.86Z" style="fill: #314041"/>
    <path d="M245.71,65.62a4.41,4.41,0,0,1-3.37-1.3,5,5,0,0,1-1.23-3.61,5.6,5.6,0,0,1,1.14-3.7,3.84,3.84,0,0,1,3.08-1.37,3.65,3.65,0,0,1,2.87,1.19A4.57,4.57,0,0,1,249.25,60v.93h-6.63a3.83,3.83,0,0,0,.85,2.57,3,3,0,0,0,2.29.88,7.82,7.82,0,0,0,3.08-.65V65a6.88,6.88,0,0,1-3.13.62Zm-.39-8.76a2.36,2.36,0,0,0-1.85.76,3.52,3.52,0,0,0-.82,2.09h5a3.18,3.18,0,0,0-.62-2.11A2.15,2.15,0,0,0,245.32,56.86Z" style="fill: #314041"/>
    <path d="M258.3,64.16h-.08a3.43,3.43,0,0,1-3,1.46,3.58,3.58,0,0,1-2.94-1.29,5.61,5.61,0,0,1-1-3.67,5.8,5.8,0,0,1,1-3.7,3.54,3.54,0,0,1,2.94-1.32,3.5,3.5,0,0,1,3,1.42h.12l-.07-.69,0-.68V51.77h1.46V65.45h-1.19Zm-2.92.24a2.67,2.67,0,0,0,2.17-.81,4.16,4.16,0,0,0,.67-2.62v-.31a4.84,4.84,0,0,0-.68-2.92,2.58,2.58,0,0,0-2.18-.88,2.22,2.22,0,0,0-2,1,4.9,4.9,0,0,0-.68,2.82,4.75,4.75,0,0,0,.67,2.78A2.29,2.29,0,0,0,255.38,64.4Z" style="fill: #314041"/>
    <path d="M270.56,64.42a4.56,4.56,0,0,0,.75-.06,3.67,3.67,0,0,0,.57-.12v1.12a2.53,2.53,0,0,1-.7.19,5.25,5.25,0,0,1-.83.07c-1.87,0-2.8-1-2.8-2.94V57h-1.38v-.7l1.38-.61.62-2.06H269v2.24h2.8V57H269v5.67a1.91,1.91,0,0,0,.42,1.33A1.43,1.43,0,0,0,270.56,64.42Z" style="fill: #314041"/>
    <path d="M282.12,60.62a5.32,5.32,0,0,1-1.19,3.68,4.18,4.18,0,0,1-3.28,1.32,4.37,4.37,0,0,1-2.29-.6,4,4,0,0,1-1.55-1.74,6.13,6.13,0,0,1-.54-2.66A5.34,5.34,0,0,1,274.44,57a4.2,4.2,0,0,1,3.27-1.31A4.11,4.11,0,0,1,280.93,57,5.32,5.32,0,0,1,282.12,60.62Zm-7.34,0a4.56,4.56,0,0,0,.74,2.82,2.93,2.93,0,0,0,4.34,0,4.52,4.52,0,0,0,.74-2.82,4.46,4.46,0,0,0-.74-2.79,2.61,2.61,0,0,0-2.19-.95,2.54,2.54,0,0,0-2.16.94A4.5,4.5,0,0,0,274.78,60.62Z" style="fill: #314041"/>
    <path d="M295.91,64.16h-.08a3.45,3.45,0,0,1-3,1.46,3.58,3.58,0,0,1-2.94-1.29,5.67,5.67,0,0,1-1.05-3.67,5.8,5.8,0,0,1,1.06-3.7,3.91,3.91,0,0,1,5.94.1h.11l-.06-.69,0-.68V51.77h1.46V65.45H296.1ZM293,64.4a2.64,2.64,0,0,0,2.16-.81,4.09,4.09,0,0,0,.68-2.62v-.31a4.84,4.84,0,0,0-.68-2.92,2.58,2.58,0,0,0-2.18-.88,2.22,2.22,0,0,0-2,1,4.9,4.9,0,0,0-.68,2.82,4.75,4.75,0,0,0,.67,2.78A2.29,2.29,0,0,0,293,64.4Z" style="fill: #314041"/>
    <path d="M300.26,53.21a1,1,0,0,1,.24-.74.9.9,0,0,1,.62-.23.85.85,0,0,1,.6.24.94.94,0,0,1,.26.73,1,1,0,0,1-.26.73.85.85,0,0,1-.6.24.86.86,0,0,1-.62-.24A1,1,0,0,1,300.26,53.21Zm1.58,12.24h-1.46V55.82h1.46Z" style="fill: #314041"/>
    <path d="M312.82,55.82v.92L311,57a2.85,2.85,0,0,1,.44.8,3.06,3.06,0,0,1,.2,1.12,2.85,2.85,0,0,1-1,2.26A3.88,3.88,0,0,1,308,62a5.07,5.07,0,0,1-.8-.07,1.42,1.42,0,0,0-.94,1.24.63.63,0,0,0,.33.58,2.34,2.34,0,0,0,1.12.19h1.7a3.81,3.81,0,0,1,2.4.66,2.29,2.29,0,0,1,.84,1.91,2.72,2.72,0,0,1-1.28,2.44,6.86,6.86,0,0,1-3.74.84,5.12,5.12,0,0,1-2.92-.7,2.41,2.41,0,0,1-.46-3.51,2.85,2.85,0,0,1,1.58-.87,1.54,1.54,0,0,1-.62-.52,1.39,1.39,0,0,1-.25-.81,1.62,1.62,0,0,1,.28-.93,3.17,3.17,0,0,1,.89-.76A2.62,2.62,0,0,1,305,60.62a3.08,3.08,0,0,1-.47-1.68,3.12,3.12,0,0,1,.95-2.44,3.9,3.9,0,0,1,2.69-.86,4.84,4.84,0,0,1,1.37.18Zm-7.68,11.25a1.29,1.29,0,0,0,.65,1.18,3.63,3.63,0,0,0,1.89.41,5.32,5.32,0,0,0,2.72-.55,1.7,1.7,0,0,0,.89-1.49,1.17,1.17,0,0,0-.49-1.09,3.76,3.76,0,0,0-1.82-.3h-1.74a2.33,2.33,0,0,0-1.55.47A1.7,1.7,0,0,0,305.14,67.07Zm.79-8.17a2,2,0,0,0,.57,1.53,2.26,2.26,0,0,0,1.59.52,1.86,1.86,0,0,0,2.13-2.08,1.92,1.92,0,0,0-2.16-2.17,2.14,2.14,0,0,0-1.58.56A2.21,2.21,0,0,0,305.93,58.9Z" style="fill: #314041"/>
    <path d="M314.67,53.21a1,1,0,0,1,.25-.74.87.87,0,0,1,.61-.23.85.85,0,0,1,.61.24.94.94,0,0,1,.25.73,1,1,0,0,1-.25.73.85.85,0,0,1-.61.24.84.84,0,0,1-.61-.24A1,1,0,0,1,314.67,53.21Zm1.58,12.24h-1.46V55.82h1.46Z" style="fill: #314041"/>
    <path d="M322.46,64.42a4.56,4.56,0,0,0,.75-.06,3.67,3.67,0,0,0,.57-.12v1.12a2.53,2.53,0,0,1-.7.19,5.25,5.25,0,0,1-.83.07c-1.87,0-2.8-1-2.8-2.94V57h-1.38v-.7l1.38-.61.62-2.06h.84v2.24h2.8V57h-2.8v5.67a2,2,0,0,0,.41,1.33A1.46,1.46,0,0,0,322.46,64.42Z" style="fill: #314041"/>
    <path d="M325.58,53.21a1,1,0,0,1,.24-.74.9.9,0,0,1,.62-.23.87.87,0,0,1,.61.24.94.94,0,0,1,.25.73,1,1,0,0,1-.25.73.87.87,0,0,1-.61.24.86.86,0,0,1-.62-.24A1,1,0,0,1,325.58,53.21Zm1.58,12.24H325.7V55.82h1.46Z" style="fill: #314041"/>
    <path d="M336.42,65.45h-7v-1L334.68,57h-4.93V55.82h6.53V57l-5.18,7.36h5.32Z" style="fill: #314041"/>
    <path d="M342.74,65.62a4.43,4.43,0,0,1-3.37-1.3,5,5,0,0,1-1.23-3.61,5.6,5.6,0,0,1,1.14-3.7,3.85,3.85,0,0,1,3.09-1.37,3.64,3.64,0,0,1,2.86,1.19A4.57,4.57,0,0,1,346.29,60v.93h-6.64a3.78,3.78,0,0,0,.86,2.57,2.94,2.94,0,0,0,2.29.88,7.8,7.8,0,0,0,3.07-.65V65a6.88,6.88,0,0,1-3.13.62Zm-.39-8.76a2.36,2.36,0,0,0-1.85.76,3.52,3.52,0,0,0-.82,2.09h5a3.18,3.18,0,0,0-.61-2.11A2.17,2.17,0,0,0,342.35,56.86Z" style="fill: #314041"/>
    <path d="M190,87.22a4.4,4.4,0,0,1-3.37-1.3,5,5,0,0,1-1.24-3.61,5.55,5.55,0,0,1,1.15-3.7,3.81,3.81,0,0,1,3.08-1.37,3.66,3.66,0,0,1,2.87,1.19,4.57,4.57,0,0,1,1,3.14v.93H186.9a3.83,3.83,0,0,0,.86,2.57,3,3,0,0,0,2.29.88,7.85,7.85,0,0,0,3.08-.65v1.3a8.35,8.35,0,0,1-1.47.48A8,8,0,0,1,190,87.22Zm-.4-8.76a2.37,2.37,0,0,0-1.85.76,3.46,3.46,0,0,0-.81,2.09h5a3.18,3.18,0,0,0-.62-2.11A2.17,2.17,0,0,0,189.6,78.46Z" style="fill: #314041"/>
    <path d="M208.31,87.05V80.78a2.61,2.61,0,0,0-.5-1.73,1.89,1.89,0,0,0-1.53-.57,2.49,2.49,0,0,0-2,.78,3.75,3.75,0,0,0-.65,2.41v5.38h-1.46V80.78a2.61,2.61,0,0,0-.49-1.73,1.93,1.93,0,0,0-1.54-.57,2.39,2.39,0,0,0-2,.82,4.49,4.49,0,0,0-.63,2.69v5.06H196V77.42h1.18l.24,1.31h.07a2.87,2.87,0,0,1,1.17-1.09,3.48,3.48,0,0,1,1.68-.4,2.85,2.85,0,0,1,2.95,1.63h.07a3.12,3.12,0,0,1,1.25-1.19,3.93,3.93,0,0,1,1.86-.44,3.26,3.26,0,0,1,2.45.84,3.75,3.75,0,0,1,.81,2.68v6.29Z" style="fill: #314041"/>
    <path d="M217.25,87.22a4.23,4.23,0,0,1-1.72-.34,3.26,3.26,0,0,1-1.3-1.07h-.11a12.92,12.92,0,0,1,.11,1.6v4h-1.46v-14H214l.2,1.31h.07a3.44,3.44,0,0,1,1.31-1.14,4,4,0,0,1,1.71-.35,3.56,3.56,0,0,1,3,1.31,5.79,5.79,0,0,1,1,3.67,5.71,5.71,0,0,1-1.06,3.69A3.54,3.54,0,0,1,217.25,87.22ZM217,78.48a2.57,2.57,0,0,0-2.13.82,4.17,4.17,0,0,0-.68,2.6v.32a4.85,4.85,0,0,0,.68,2.91,2.57,2.57,0,0,0,2.17.87A2.23,2.23,0,0,0,219,85a4.78,4.78,0,0,0,.71-2.78,4.62,4.62,0,0,0-.71-2.77A2.32,2.32,0,0,0,217,78.48Z" style="fill: #314041"/>
    <path d="M225.26,87.05H223.8V73.37h1.46Z" style="fill: #314041"/>
    <path d="M236.67,82.22a5.32,5.32,0,0,1-1.19,3.68,4.18,4.18,0,0,1-3.28,1.32,4.37,4.37,0,0,1-2.29-.6,4.1,4.1,0,0,1-1.55-1.74,6.13,6.13,0,0,1-.54-2.66A5.29,5.29,0,0,1,229,78.55a4.16,4.16,0,0,1,3.26-1.31,4.11,4.11,0,0,1,3.22,1.34A5.32,5.32,0,0,1,236.67,82.22Zm-7.34,0a4.62,4.62,0,0,0,.74,2.82,2.93,2.93,0,0,0,4.34,0,4.52,4.52,0,0,0,.75-2.82,4.46,4.46,0,0,0-.75-2.79,2.61,2.61,0,0,0-2.19-1,2.57,2.57,0,0,0-2.16.94A4.5,4.5,0,0,0,229.33,82.22Z" style="fill: #314041"/>
    <path d="M237.7,77.42h1.56l2.11,5.49a21.22,21.22,0,0,1,.86,2.71h.07c.08-.29.24-.81.48-1.53s1-3,2.39-6.67h1.56l-4.14,11a5.4,5.4,0,0,1-1.44,2.31,3,3,0,0,1-2,.68,5.81,5.81,0,0,1-1.32-.15V90.05a5.05,5.05,0,0,0,1.08.11,2.23,2.23,0,0,0,2.15-1.69l.53-1.37Z" style="fill: #314041"/>
    <path d="M252.37,87.22a4.44,4.44,0,0,1-3.38-1.3,5,5,0,0,1-1.23-3.61,5.55,5.55,0,0,1,1.15-3.7A3.81,3.81,0,0,1,252,77.24a3.64,3.64,0,0,1,2.86,1.19,4.52,4.52,0,0,1,1.06,3.14v.93h-6.64a3.83,3.83,0,0,0,.86,2.57,2.94,2.94,0,0,0,2.29.88,7.77,7.77,0,0,0,3.07-.65v1.3a6.87,6.87,0,0,1-3.12.62Zm-.4-8.76a2.37,2.37,0,0,0-1.85.76,3.46,3.46,0,0,0-.81,2.09h5a3.18,3.18,0,0,0-.61-2.11A2.17,2.17,0,0,0,252,78.46Z" style="fill: #314041"/>
    <path d="M262.46,87.22a4.43,4.43,0,0,1-3.37-1.3,5,5,0,0,1-1.23-3.61,5.55,5.55,0,0,1,1.15-3.7,3.81,3.81,0,0,1,3.08-1.37A3.64,3.64,0,0,1,265,78.43,4.57,4.57,0,0,1,266,81.57v.93h-6.64a3.78,3.78,0,0,0,.86,2.57,2.94,2.94,0,0,0,2.29.88,7.8,7.8,0,0,0,3.07-.65v1.3a6.88,6.88,0,0,1-3.13.62Zm-.39-8.76a2.37,2.37,0,0,0-1.85.76,3.46,3.46,0,0,0-.81,2.09h5a3.18,3.18,0,0,0-.61-2.11A2.17,2.17,0,0,0,262.07,78.46Z" style="fill: #314041"/>
    <path d="M267.68,82.89V81.56H272v1.33Z" style="fill: #314041"/>
    <path d="M278.63,78.55h-2.45v8.5h-1.46v-8.5H273v-.66l1.73-.53v-.53q0-3.56,3.1-3.55a6.48,6.48,0,0,1,1.79.3l-.38,1.17a4.84,4.84,0,0,0-1.44-.27,1.39,1.39,0,0,0-1.22.55,3.1,3.1,0,0,0-.39,1.76v.63h2.45Z" style="fill: #314041"/>
    <path d="M286.31,87.05,286,85.68H286a4,4,0,0,1-1.44,1.22,4.28,4.28,0,0,1-1.79.32,3.21,3.21,0,0,1-2.24-.73,2.69,2.69,0,0,1-.82-2.1q0-2.92,4.67-3.06l1.64-.06v-.59a2.48,2.48,0,0,0-.49-1.68,2,2,0,0,0-1.56-.54,6.45,6.45,0,0,0-2.73.74l-.44-1.12a6.84,6.84,0,0,1,1.55-.6,6.69,6.69,0,0,1,1.71-.22,3.67,3.67,0,0,1,2.55.76,3.21,3.21,0,0,1,.83,2.45v6.58ZM283,86a3,3,0,0,0,2.14-.75,2.75,2.75,0,0,0,.78-2.09v-.87l-1.46.06a5.28,5.28,0,0,0-2.51.54,1.64,1.64,0,0,0-.77,1.49,1.52,1.52,0,0,0,.48,1.21A2,2,0,0,0,283,86Z" style="fill: #314041"/>
    <path d="M294.25,87.22A4.12,4.12,0,0,1,291,85.94a5.29,5.29,0,0,1-1.15-3.65A5.48,5.48,0,0,1,291,78.56a4.21,4.21,0,0,1,3.32-1.32,6.57,6.57,0,0,1,1.39.15,4.82,4.82,0,0,1,1.09.35L296.37,79a6.16,6.16,0,0,0-1.05-.32,4.43,4.43,0,0,0-1-.13q-2.94,0-2.94,3.75a4.43,4.43,0,0,0,.72,2.72,2.48,2.48,0,0,0,2.12,1,6.41,6.41,0,0,0,2.47-.52v1.29A5.18,5.18,0,0,1,294.25,87.22Z" style="fill: #314041"/>
    <path d="M298.84,74.81a1,1,0,0,1,.25-.74.87.87,0,0,1,.61-.23.85.85,0,0,1,.61.24.94.94,0,0,1,.25.73,1,1,0,0,1-.25.73.85.85,0,0,1-.61.24.84.84,0,0,1-.61-.24A1,1,0,0,1,298.84,74.81Zm1.58,12.24H299V77.42h1.45Z" style="fill: #314041"/>
    <path d="M310.11,87.05V80.82a2.51,2.51,0,0,0-.54-1.76,2.15,2.15,0,0,0-1.68-.58,2.75,2.75,0,0,0-2.21.82A4.09,4.09,0,0,0,305,82v5.06h-1.46V77.42h1.18l.24,1.31H305a3,3,0,0,1,1.26-1.1,4.1,4.1,0,0,1,1.8-.39,3.67,3.67,0,0,1,2.62.84,3.54,3.54,0,0,1,.88,2.68v6.29Z" style="fill: #314041"/>
    <path d="M322.45,77.42v.92l-1.78.21a2.84,2.84,0,0,1,.43.8,3.06,3.06,0,0,1,.2,1.12,2.82,2.82,0,0,1-1,2.26,3.85,3.85,0,0,1-2.65.85,5.09,5.09,0,0,1-.81-.07,1.43,1.43,0,0,0-.93,1.24.64.64,0,0,0,.32.58,2.34,2.34,0,0,0,1.12.19h1.7a3.82,3.82,0,0,1,2.41.66,2.29,2.29,0,0,1,.84,1.91A2.73,2.73,0,0,1,321,90.53a6.84,6.84,0,0,1-3.74.84,5.09,5.09,0,0,1-2.91-.7,2.4,2.4,0,0,1-.47-3.51,2.88,2.88,0,0,1,1.59-.87,1.42,1.42,0,0,1-.62-.52,1.32,1.32,0,0,1-.25-.81,1.57,1.57,0,0,1,.28-.93,3,3,0,0,1,.88-.76,2.6,2.6,0,0,1-1.21-1,3,3,0,0,1-.47-1.68,3.09,3.09,0,0,1,.95-2.44,3.88,3.88,0,0,1,2.69-.86,4.81,4.81,0,0,1,1.36.18Zm-7.68,11.25a1.3,1.3,0,0,0,.66,1.18,3.63,3.63,0,0,0,1.89.41,5.35,5.35,0,0,0,2.72-.55,1.69,1.69,0,0,0,.88-1.49,1.19,1.19,0,0,0-.48-1.09,3.82,3.82,0,0,0-1.82-.3h-1.75a2.35,2.35,0,0,0-1.55.47A1.7,1.7,0,0,0,314.77,88.67Zm.79-8.17a2,2,0,0,0,.57,1.53,2.26,2.26,0,0,0,1.59.52,1.87,1.87,0,0,0,2.14-2.08,1.92,1.92,0,0,0-2.17-2.17,2.14,2.14,0,0,0-1.58.56A2.21,2.21,0,0,0,315.56,80.5Z" style="fill: #314041"/>
    <path d="M190.41,108.82a4.19,4.19,0,0,1-1.72-.34,3.19,3.19,0,0,1-1.3-1.07h-.11a12.92,12.92,0,0,1,.11,1.6v4h-1.46V99h1.19l.2,1.31h.07a3.44,3.44,0,0,1,1.31-1.14,4,4,0,0,1,1.71-.35,3.58,3.58,0,0,1,3,1.31,7,7,0,0,1,0,7.36A3.55,3.55,0,0,1,190.41,108.82Zm-.21-8.74a2.59,2.59,0,0,0-2.14.82,4.24,4.24,0,0,0-.67,2.6v.32a4.83,4.83,0,0,0,.67,2.91,2.61,2.61,0,0,0,2.18.87,2.23,2.23,0,0,0,1.95-1,4.78,4.78,0,0,0,.71-2.78,4.62,4.62,0,0,0-.71-2.77A2.32,2.32,0,0,0,190.2,100.08Z" style="fill: #314041"/>
    <path d="M201.35,98.84a5.83,5.83,0,0,1,1.16.1l-.21,1.36a4.83,4.83,0,0,0-1.05-.13,2.54,2.54,0,0,0-2,1,3.42,3.42,0,0,0-.83,2.36v5.17H197V99h1.2l.17,1.78h.07a4.27,4.27,0,0,1,1.29-1.45A2.93,2.93,0,0,1,201.35,98.84Z" style="fill: #314041"/>
    <path d="M212.62,103.82a5.27,5.27,0,0,1-1.19,3.68,4.17,4.17,0,0,1-3.27,1.32,4.41,4.41,0,0,1-2.3-.6,4,4,0,0,1-1.54-1.74,6,6,0,0,1-.55-2.66,5.29,5.29,0,0,1,1.18-3.67,4.17,4.17,0,0,1,3.27-1.31,4.08,4.08,0,0,1,3.21,1.34A5.32,5.32,0,0,1,212.62,103.82Zm-7.34,0a4.62,4.62,0,0,0,.74,2.82,2.94,2.94,0,0,0,4.35,0,4.58,4.58,0,0,0,.74-2.82,4.53,4.53,0,0,0-.74-2.79,2.64,2.64,0,0,0-2.2-1A2.57,2.57,0,0,0,206,101,4.57,4.57,0,0,0,205.28,103.82Z" style="fill: #314041"/>
    <path d="M219,108.82a4.09,4.09,0,0,1-3.24-1.28,5.29,5.29,0,0,1-1.15-3.65,5.43,5.43,0,0,1,1.17-3.73,4.18,4.18,0,0,1,3.32-1.32,6.48,6.48,0,0,1,1.38.15,4.65,4.65,0,0,1,1.09.35l-.44,1.24a6.57,6.57,0,0,0-1.06-.32,4.43,4.43,0,0,0-1-.13q-2.94,0-2.94,3.75a4.43,4.43,0,0,0,.72,2.72,2.51,2.51,0,0,0,2.12,1,6.37,6.37,0,0,0,2.47-.52v1.29A5.15,5.15,0,0,1,219,108.82Z" style="fill: #314041"/>
    <path d="M227.82,108.82a4.4,4.4,0,0,1-3.37-1.3,5,5,0,0,1-1.24-3.61,5.55,5.55,0,0,1,1.15-3.7,3.81,3.81,0,0,1,3.08-1.37A3.63,3.63,0,0,1,230.3,100a4.52,4.52,0,0,1,1.06,3.14v.93h-6.64a3.83,3.83,0,0,0,.86,2.57,3,3,0,0,0,2.29.88,7.85,7.85,0,0,0,3.08-.65v1.3a8.35,8.35,0,0,1-1.47.48A8.72,8.72,0,0,1,227.82,108.82Zm-.4-8.76a2.37,2.37,0,0,0-1.85.76,3.46,3.46,0,0,0-.81,2.09h5a3.23,3.23,0,0,0-.62-2.12A2.2,2.2,0,0,0,227.42,100.06Z" style="fill: #314041"/>
    <path d="M240.06,106a2.39,2.39,0,0,1-1,2.07,4.69,4.69,0,0,1-2.81.73,6.16,6.16,0,0,1-3-.6v-1.36a7.16,7.16,0,0,0,1.49.56,6.43,6.43,0,0,0,1.53.2,3.53,3.53,0,0,0,1.76-.36,1.27,1.27,0,0,0,.13-2.08,7.52,7.52,0,0,0-1.91-.94,10.86,10.86,0,0,1-1.91-.88,2.51,2.51,0,0,1-.84-.85,2.13,2.13,0,0,1-.28-1.13,2.16,2.16,0,0,1,1-1.86,4.49,4.49,0,0,1,2.63-.68,7.74,7.74,0,0,1,3,.63l-.52,1.19a7,7,0,0,0-2.63-.6,3,3,0,0,0-1.56.33,1,1,0,0,0-.53.89,1.1,1.1,0,0,0,.2.66,1.85,1.85,0,0,0,.64.52,14.6,14.6,0,0,0,1.68.71,6.34,6.34,0,0,1,2.32,1.26A2.21,2.21,0,0,1,240.06,106Z" style="fill: #314041"/>
    <path d="M248.65,106a2.41,2.41,0,0,1-1,2.07,4.71,4.71,0,0,1-2.82.73,6.21,6.21,0,0,1-3-.6v-1.36a7.38,7.38,0,0,0,1.49.56,6.51,6.51,0,0,0,1.54.2,3.53,3.53,0,0,0,1.76-.36,1.22,1.22,0,0,0,.61-1.12,1.2,1.2,0,0,0-.49-1,7.41,7.41,0,0,0-1.9-.94,10.52,10.52,0,0,1-1.91-.88,2.65,2.65,0,0,1-.85-.85,2.22,2.22,0,0,1-.27-1.13,2.16,2.16,0,0,1,1-1.86,4.48,4.48,0,0,1,2.62-.68,7.75,7.75,0,0,1,3,.63l-.52,1.19a7,7,0,0,0-2.63-.6,3,3,0,0,0-1.57.33,1,1,0,0,0-.52.89,1.09,1.09,0,0,0,.19.66,2.06,2.06,0,0,0,.64.52,15.9,15.9,0,0,0,1.69.71,6.52,6.52,0,0,1,2.32,1.26A2.21,2.21,0,0,1,248.65,106Z" style="fill: #314041"/>
    <path d="M255.09,108.82a4.41,4.41,0,0,1-3.37-1.3,5,5,0,0,1-1.24-3.61,5.61,5.61,0,0,1,1.15-3.7,3.83,3.83,0,0,1,3.08-1.37,3.66,3.66,0,0,1,2.87,1.19,4.57,4.57,0,0,1,1.05,3.14v.93H252a3.83,3.83,0,0,0,.85,2.57,3,3,0,0,0,2.29.88,7.82,7.82,0,0,0,3.08-.65v1.3a8.27,8.27,0,0,1-1.46.48A8.83,8.83,0,0,1,255.09,108.82Zm-.4-8.76a2.37,2.37,0,0,0-1.85.76,3.46,3.46,0,0,0-.81,2.09h5a3.23,3.23,0,0,0-.62-2.12A2.18,2.18,0,0,0,254.69,100.06Z" style="fill: #314041"/>
    <path d="M267.33,106a2.39,2.39,0,0,1-1,2.07,4.67,4.67,0,0,1-2.81.73,6.19,6.19,0,0,1-3-.6v-1.36a7.16,7.16,0,0,0,1.49.56,6.43,6.43,0,0,0,1.53.2,3.5,3.5,0,0,0,1.76-.36,1.26,1.26,0,0,0,.13-2.08,7.59,7.59,0,0,0-1.9-.94,10.69,10.69,0,0,1-1.92-.88,2.71,2.71,0,0,1-.84-.85,2.23,2.23,0,0,1-.28-1.13,2.16,2.16,0,0,1,1-1.86,4.51,4.51,0,0,1,2.63-.68,7.7,7.7,0,0,1,3,.63l-.52,1.19a6.92,6.92,0,0,0-2.63-.6,3,3,0,0,0-1.56.33,1,1,0,0,0-.53.89,1.1,1.1,0,0,0,.2.66,1.85,1.85,0,0,0,.64.52,14.2,14.2,0,0,0,1.69.71,6.36,6.36,0,0,1,2.31,1.26A2.21,2.21,0,0,1,267.33,106Z" style="fill: #314041"/>
  </g>
  <path d="M67,78.44A37.41,37.41,0,0,1,104.42,41V16.2c-20.62,0-38.23,9-50.35,25.65a62.24,62.24,0,0,0,13.77,86.94L82.43,108.7A37.36,37.36,0,0,1,67,78.44Z" style="fill: #dfdfdf"/>
  <path d="M104.42,16.2V41a37.42,37.42,0,1,1-22,67.68L67.84,128.79a59.63,59.63,0,0,0,36.58,11.89,62.24,62.24,0,0,0,0-124.48Z" style="fill: #de9393"/>
  <path d="M122.59,69.48l-7.94-8.7a.87.87,0,0,0-1.46,0l-8,8.7a1.17,1.17,0,0,0-.16,1.06.9.9,0,0,0,1,.71h15.89c.33,0,.65-.18.82-.71C122.92,70.19,122.92,69.65,122.59,69.48Z" style="fill: #81b59f;fill-rule: evenodd"/>
  <path d="M96.43,86.47a3.62,3.62,0,1,1-3.62-3.7A3.69,3.69,0,0,1,96.43,86.47Zm5.27,12.77v-.67A8.35,8.35,0,0,0,96.76,91l-.33-.16.33-.34a5.92,5.92,0,0,0,1.65-4,5.6,5.6,0,1,0-11.2,0,5.92,5.92,0,0,0,1.65,4l.33.34-.33.16a8.35,8.35,0,0,0-4.94,7.57v.67a1,1,0,1,0,2,0v-.67a6.94,6.94,0,0,1,13.84,0v.67a1,1,0,1,0,2,0Zm11.53-21.18a1,1,0,0,0,0-2h-6.59a1,1,0,0,0,0,2Zm-12-14.46a.69.69,0,0,1,.33.68v.33l.16.51a1.05,1.05,0,0,0,1,.84h2.63a1,1,0,0,0,0-2h-1.81a2.74,2.74,0,0,0-.82-1.85,3.46,3.46,0,0,0-2.14-.84H93.47a1.19,1.19,0,0,0-1,1V77.72a1,1,0,1,0,2,0V63.27h5.92A1.26,1.26,0,0,1,101.21,63.6Zm23.71,6.9-3.79,17.31a3,3,0,0,1-3,2.35h-16.8a1,1,0,0,1,0-2h16.8a1.25,1.25,0,0,0,1.15-.84l3.46-16H99.23l-1.48,7.73a1,1,0,0,1-1.32.84,1.14,1.14,0,0,1-.66-1.18l1.65-8.57a.92.92,0,0,1,1-.84h25.52a1.26,1.26,0,0,1,.82.33A1.85,1.85,0,0,1,124.92,70.5Z" style="fill: #293e40;fill-rule: evenodd"/>
</svg>
