<svg id="Layer_1" data-name="Layer 1" xmlns="http://www.w3.org/2000/svg" viewBox="0 0 374.33 255.83">
  <title>nugget_graph_4fr</title>
  <rect x="202.35" y="27.31" width="50" height="186.26" style="fill: #8f89bf"/>
  <rect x="279.52" y="73.06" width="50" height="140.51" style="fill: #e3e2e3"/>
  <g>
    <path d="M151.79,60a4.59,4.59,0,0,1,3.28,1.16,4.17,4.17,0,0,1,1.22,3.17A4.62,4.62,0,0,1,154.82,68a6.17,6.17,0,0,1-4.2,1.28,8.12,8.12,0,0,1-3.83-.77V65.93a8,8,0,0,0,1.79.66,7.5,7.5,0,0,0,1.93.26c1.84,0,2.75-.75,2.75-2.25s-.95-2.15-2.85-2.15a6.74,6.74,0,0,0-1.13.1,8.25,8.25,0,0,0-1,.22l-1.19-.64.53-7.25h7.72v2.55h-5.08L150,60.22l.34-.07A6.65,6.65,0,0,1,151.79,60Z" style="fill: #314041"/>
    <path d="M159.39,69.1l5.34-11.67h-7V54.9h10.2v1.89L162.54,69.1Z" style="fill: #314041"/>
    <path d="M175.93,59.12a5.44,5.44,0,0,1-.87,3.36,3,3,0,0,1-2.54,1.12A2.92,2.92,0,0,1,170,62.45a5.46,5.46,0,0,1-.87-3.33q0-4.44,3.35-4.44a3,3,0,0,1,2.53,1.15A5.37,5.37,0,0,1,175.93,59.12Zm-4.31,0a5.65,5.65,0,0,0,.22,1.84c.14.41.38.61.7.61.62,0,.93-.82.93-2.45s-.31-2.43-.93-2.43c-.32,0-.56.2-.7.6A5.54,5.54,0,0,0,171.62,59.14Zm11-4.26L174.73,69.1H172.4l7.88-14.22Zm3.26,9.92a5.43,5.43,0,0,1-.86,3.35,3,3,0,0,1-2.54,1.12A2.92,2.92,0,0,1,180,68.12a5.43,5.43,0,0,1-.88-3.32c0-3,1.12-4.45,3.36-4.45A3,3,0,0,1,185,61.51,5.3,5.3,0,0,1,185.88,64.8Zm-4.3,0a6,6,0,0,0,.21,1.84c.15.41.39.61.71.61.62,0,.93-.82.93-2.45s-.31-2.43-.93-2.43c-.32,0-.56.2-.71.6A5.92,5.92,0,0,0,181.58,64.82Z" style="fill: #314041"/>
  </g>
  <g>
    <path d="M294.58,144.36h-1.71v2.95h-2.94v-2.95h-6.07v-2.09l6.24-9.18h2.77V142h1.71ZM289.93,142v-2.42c0-.4,0-1,.05-1.75s.06-1.21.08-1.33H290a11,11,0,0,1-.87,1.56l-2.6,3.94Z" style="fill: #314041"/>
    <path d="M305.07,136.27a3.31,3.31,0,0,1-.8,2.26,4.15,4.15,0,0,1-2.27,1.29v.06a4.54,4.54,0,0,1,2.61,1,2.93,2.93,0,0,1,.88,2.24,3.78,3.78,0,0,1-1.49,3.2,6.85,6.85,0,0,1-4.25,1.14,10.17,10.17,0,0,1-4.1-.77v-2.55a10.26,10.26,0,0,0,1.82.68,7.88,7.88,0,0,0,2,.26,3.78,3.78,0,0,0,2.2-.51,1.85,1.85,0,0,0,.71-1.62,1.46,1.46,0,0,0-.82-1.42,6,6,0,0,0-2.6-.42h-1.08v-2.3h1.1a5.06,5.06,0,0,0,2.41-.44,1.55,1.55,0,0,0,.77-1.48c0-1.08-.68-1.61-2-1.61a4.48,4.48,0,0,0-1.42.23,6.55,6.55,0,0,0-1.61.81l-1.39-2.08a7.75,7.75,0,0,1,4.64-1.4,5.94,5.94,0,0,1,3.48.9A2.86,2.86,0,0,1,305.07,136.27Z" style="fill: #314041"/>
    <path d="M313.63,137.33a5.51,5.51,0,0,1-.86,3.36,3,3,0,0,1-2.54,1.12,2.92,2.92,0,0,1-2.48-1.15,5.39,5.39,0,0,1-.88-3.33c0-3,1.12-4.45,3.36-4.45a3,3,0,0,1,2.52,1.16A5.3,5.3,0,0,1,313.63,137.33Zm-4.31,0a5.94,5.94,0,0,0,.22,1.84c.15.41.38.61.71.61.62,0,.93-.82.93-2.45s-.31-2.43-.93-2.43c-.33,0-.56.2-.71.59A5.89,5.89,0,0,0,309.32,137.35Zm11-4.26-7.88,14.22H310.1L318,133.09Zm3.27,9.92a5.5,5.5,0,0,1-.86,3.35,3,3,0,0,1-2.54,1.12,2.92,2.92,0,0,1-2.48-1.15,5.38,5.38,0,0,1-.88-3.32c0-3,1.12-4.45,3.36-4.45a3,3,0,0,1,2.52,1.16A5.28,5.28,0,0,1,323.59,143Zm-4.31,0a5.94,5.94,0,0,0,.22,1.84c.15.41.38.61.71.61.62,0,.93-.82.93-2.45s-.31-2.43-.93-2.43c-.33,0-.56.2-.71.59A5.94,5.94,0,0,0,319.28,143Z" style="fill: #314041"/>
  </g>
  <g>
    <path d="M18.59,94.13V81.28h1.5V92.77h5.67v1.36Z" style="fill: #314041"/>
    <path d="M31.79,94.3A4.4,4.4,0,0,1,28.42,93a5,5,0,0,1-1.24-3.61,5.55,5.55,0,0,1,1.15-3.7,3.78,3.78,0,0,1,3.08-1.37,3.59,3.59,0,0,1,2.86,1.19,4.52,4.52,0,0,1,1.06,3.14v.92H28.69a3.86,3.86,0,0,0,.86,2.58,3,3,0,0,0,2.29.88,7.77,7.77,0,0,0,3.07-.65v1.3a8,8,0,0,1-1.46.48A8.72,8.72,0,0,1,31.79,94.3Zm-.4-8.76a2.37,2.37,0,0,0-1.85.76,3.46,3.46,0,0,0-.81,2.09h5a3.23,3.23,0,0,0-.61-2.12A2.17,2.17,0,0,0,31.39,85.54Z" style="fill: #314041"/>
    <path d="M44,91.5a2.4,2.4,0,0,1-1,2.07,4.71,4.71,0,0,1-2.82.73,6.14,6.14,0,0,1-3-.6V92.34a7.16,7.16,0,0,0,1.49.56,6.43,6.43,0,0,0,1.53.2A3.42,3.42,0,0,0,42,92.73a1.19,1.19,0,0,0,.61-1.11,1.22,1.22,0,0,0-.48-1,7.81,7.81,0,0,0-1.91-1,10.29,10.29,0,0,1-1.91-.87,2.51,2.51,0,0,1-.84-.85,2.13,2.13,0,0,1-.28-1.13,2.15,2.15,0,0,1,1-1.86,4.42,4.42,0,0,1,2.63-.68,7.74,7.74,0,0,1,3,.63l-.52,1.19a7,7,0,0,0-2.63-.6,3.08,3.08,0,0,0-1.56.32,1,1,0,0,0-.53.9,1.1,1.1,0,0,0,.2.66,2,2,0,0,0,.63.52,15.9,15.9,0,0,0,1.69.71,6.42,6.42,0,0,1,2.32,1.26A2.21,2.21,0,0,1,44,91.5Z" style="fill: #314041"/>
    <path d="M52.54,94.13H51.08V80.45h1.46Z" style="fill: #314041"/>
    <path d="M64,89.3A5.32,5.32,0,0,1,62.76,93a4.19,4.19,0,0,1-3.28,1.32,4.35,4.35,0,0,1-2.29-.6A4,4,0,0,1,55.64,92a6.16,6.16,0,0,1-.55-2.66,5.34,5.34,0,0,1,1.18-3.67,4.2,4.2,0,0,1,3.27-1.31,4.08,4.08,0,0,1,3.21,1.34A5.27,5.27,0,0,1,64,89.3Zm-7.34,0a4.57,4.57,0,0,0,.73,2.81,2.93,2.93,0,0,0,4.35,0,4.52,4.52,0,0,0,.74-2.82,4.46,4.46,0,0,0-.74-2.79,2.59,2.59,0,0,0-2.19-1,2.54,2.54,0,0,0-2.16.94A4.48,4.48,0,0,0,56.61,89.3Z" style="fill: #314041"/>
    <path d="M74.39,84.49v.93l-1.79.21a2.85,2.85,0,0,1,.44.8,3.06,3.06,0,0,1,.2,1.12,2.85,2.85,0,0,1-1,2.26,3.93,3.93,0,0,1-2.66.84,4.11,4.11,0,0,1-.8-.07,1.44,1.44,0,0,0-.94,1.24.63.63,0,0,0,.33.59,2.47,2.47,0,0,0,1.12.19H71a3.79,3.79,0,0,1,2.4.66,2.28,2.28,0,0,1,.84,1.91A2.72,2.72,0,0,1,73,97.61a6.86,6.86,0,0,1-3.74.84,5.15,5.15,0,0,1-2.92-.7,2.41,2.41,0,0,1-.46-3.51,2.85,2.85,0,0,1,1.58-.87,1.54,1.54,0,0,1-.62-.52,1.4,1.4,0,0,1-.25-.82,1.61,1.61,0,0,1,.28-.92,3,3,0,0,1,.89-.76,2.61,2.61,0,0,1-1.21-1,3,3,0,0,1-.48-1.69,3.15,3.15,0,0,1,1-2.44,3.89,3.89,0,0,1,2.69-.85,5.24,5.24,0,0,1,1.37.17ZM66.71,95.74a1.31,1.31,0,0,0,.65,1.19,3.64,3.64,0,0,0,1.89.4A5.2,5.2,0,0,0,72,96.78a1.67,1.67,0,0,0,.89-1.48,1.16,1.16,0,0,0-.49-1.09,3.76,3.76,0,0,0-1.82-.3H68.81a2.28,2.28,0,0,0-1.55.47A1.69,1.69,0,0,0,66.71,95.74Zm.79-8.16a2,2,0,0,0,.57,1.53,2.3,2.3,0,0,0,1.59.52,1.86,1.86,0,0,0,2.13-2.08,1.91,1.91,0,0,0-2.16-2.17,2.18,2.18,0,0,0-1.58.55A2.24,2.24,0,0,0,67.5,87.58Z" style="fill: #314041"/>
    <path d="M76.24,81.88a.94.94,0,0,1,.25-.73.83.83,0,0,1,.61-.23.89.89,0,0,1,.61.23,1.21,1.21,0,0,1,0,1.47.85.85,0,0,1-.61.24.84.84,0,0,1-.61-.24A1,1,0,0,1,76.24,81.88Zm1.58,12.25H76.36V84.49h1.46Z" style="fill: #314041"/>
    <path d="M84.77,94.3A4.1,4.1,0,0,1,81.53,93a5.25,5.25,0,0,1-1.15-3.64,5.42,5.42,0,0,1,1.17-3.73,4.17,4.17,0,0,1,3.31-1.32,6.5,6.5,0,0,1,1.39.15,4.36,4.36,0,0,1,1.09.35l-.45,1.24a6.16,6.16,0,0,0-1-.32,4.43,4.43,0,0,0-1-.13q-2.94,0-2.94,3.74a4.44,4.44,0,0,0,.72,2.73,2.5,2.5,0,0,0,2.12,1,6.6,6.6,0,0,0,2.47-.52V93.8A5.15,5.15,0,0,1,84.77,94.3Z" style="fill: #314041"/>
    <path d="M89.36,81.88a1,1,0,0,1,.25-.73.83.83,0,0,1,.61-.23.89.89,0,0,1,.61.23,1.17,1.17,0,0,1,0,1.47.85.85,0,0,1-.61.24.84.84,0,0,1-.61-.24A1,1,0,0,1,89.36,81.88ZM91,94.13H89.49V84.49H91Z" style="fill: #314041"/>
    <path d="M98.11,94.3A4.4,4.4,0,0,1,94.74,93a5,5,0,0,1-1.24-3.61,5.61,5.61,0,0,1,1.15-3.7,3.78,3.78,0,0,1,3.08-1.37,3.63,3.63,0,0,1,2.87,1.19,4.57,4.57,0,0,1,1.05,3.14v.92H95a3.86,3.86,0,0,0,.86,2.58,3,3,0,0,0,2.29.88,7.85,7.85,0,0,0,3.08-.65v1.3a8.35,8.35,0,0,1-1.47.48A8.72,8.72,0,0,1,98.11,94.3Zm-.4-8.76a2.37,2.37,0,0,0-1.85.76,3.46,3.46,0,0,0-.81,2.09h5a3.23,3.23,0,0,0-.62-2.12A2.17,2.17,0,0,0,97.71,85.54Z" style="fill: #314041"/>
    <path d="M105.6,94.13h-1.46V80.45h1.46Z" style="fill: #314041"/>
    <path d="M114.9,91.5a2.4,2.4,0,0,1-1,2.07,4.67,4.67,0,0,1-2.81.73,6.19,6.19,0,0,1-3-.6V92.34a7.16,7.16,0,0,0,1.49.56,6.43,6.43,0,0,0,1.53.2,3.39,3.39,0,0,0,1.76-.37,1.25,1.25,0,0,0,.13-2.07,7.69,7.69,0,0,0-1.9-1,9.69,9.69,0,0,1-1.91-.87,2.65,2.65,0,0,1-.85-.85,2.22,2.22,0,0,1-.27-1.13A2.14,2.14,0,0,1,109,85a4.44,4.44,0,0,1,2.63-.68,7.7,7.7,0,0,1,3,.63l-.52,1.19a6.91,6.91,0,0,0-2.62-.6,3.1,3.1,0,0,0-1.57.32,1,1,0,0,0-.53.9,1.1,1.1,0,0,0,.2.66,2.08,2.08,0,0,0,.64.52,14.2,14.2,0,0,0,1.69.71,6.36,6.36,0,0,1,2.31,1.26A2.21,2.21,0,0,1,114.9,91.5Z" style="fill: #314041"/>
    <path d="M128.17,91.5a2.41,2.41,0,0,1-1,2.07,4.65,4.65,0,0,1-2.81.73,6.21,6.21,0,0,1-3-.6V92.34a7.38,7.38,0,0,0,1.49.56,6.51,6.51,0,0,0,1.54.2,3.42,3.42,0,0,0,1.76-.37,1.25,1.25,0,0,0,.12-2.07,7.69,7.69,0,0,0-1.9-1,10,10,0,0,1-1.91-.87,2.51,2.51,0,0,1-.84-.85,2.13,2.13,0,0,1-.28-1.13,2.15,2.15,0,0,1,1-1.86,4.38,4.38,0,0,1,2.62-.68,7.7,7.7,0,0,1,3,.63l-.51,1.19a7,7,0,0,0-2.63-.6,3.15,3.15,0,0,0-1.57.32,1,1,0,0,0-.52.9,1.09,1.09,0,0,0,.19.66,2.21,2.21,0,0,0,.64.52,15,15,0,0,0,1.69.71,6.52,6.52,0,0,1,2.32,1.26A2.21,2.21,0,0,1,128.17,91.5Z" style="fill: #314041"/>
    <path d="M138.85,89.3A5.32,5.32,0,0,1,137.67,93a4.19,4.19,0,0,1-3.28,1.32,4.35,4.35,0,0,1-2.29-.6A4,4,0,0,1,130.55,92,6.16,6.16,0,0,1,130,89.3a5.34,5.34,0,0,1,1.18-3.67,4.2,4.2,0,0,1,3.27-1.31,4.08,4.08,0,0,1,3.21,1.34A5.27,5.27,0,0,1,138.85,89.3Zm-7.33,0a4.57,4.57,0,0,0,.73,2.81,2.93,2.93,0,0,0,4.35,0,4.52,4.52,0,0,0,.74-2.82,4.46,4.46,0,0,0-.74-2.79,2.59,2.59,0,0,0-2.19-1,2.54,2.54,0,0,0-2.16.94A4.48,4.48,0,0,0,131.52,89.3Z" style="fill: #314041"/>
    <path d="M148,94.13V87.89a2.48,2.48,0,0,0-.53-1.75,2.18,2.18,0,0,0-1.68-.58,2.79,2.79,0,0,0-2.22.81,4.2,4.2,0,0,0-.7,2.7v5.06h-1.46V84.49h1.19l.24,1.32h.07a3,3,0,0,1,1.25-1.1,4.1,4.1,0,0,1,1.8-.39,3.65,3.65,0,0,1,2.62.84,3.54,3.54,0,0,1,.88,2.68v6.29Z" style="fill: #314041"/>
    <path d="M155.57,93.1a4.56,4.56,0,0,0,.75-.06,5.41,5.41,0,0,0,.57-.12V94a2.94,2.94,0,0,1-.7.19,5.16,5.16,0,0,1-.83.07q-2.79,0-2.79-2.94V85.63h-1.38v-.71l1.38-.6.61-2.06H154v2.23h2.8v1.14H154V91.3a1.91,1.91,0,0,0,.42,1.33A1.43,1.43,0,0,0,155.57,93.1Z" style="fill: #314041"/>
    <path d="M165,94.13h-1.46V80.45H165Z" style="fill: #314041"/>
    <path d="M172.11,94.3a4.43,4.43,0,0,1-3.37-1.3,5,5,0,0,1-1.23-3.61,5.6,5.6,0,0,1,1.14-3.7,3.81,3.81,0,0,1,3.08-1.37,3.61,3.61,0,0,1,2.87,1.19,4.57,4.57,0,0,1,1.05,3.14v.92H169a3.81,3.81,0,0,0,.86,2.58,3,3,0,0,0,2.28.88,7.82,7.82,0,0,0,3.08-.65v1.3a8,8,0,0,1-1.46.48A8.83,8.83,0,0,1,172.11,94.3Zm-.39-8.76a2.36,2.36,0,0,0-1.85.76,3.52,3.52,0,0,0-.82,2.09h5a3.23,3.23,0,0,0-.62-2.12A2.15,2.15,0,0,0,171.72,85.54Z" style="fill: #314041"/>
    <path d="M184.36,91.5a2.41,2.41,0,0,1-1,2.07,4.65,4.65,0,0,1-2.81.73,6.19,6.19,0,0,1-3-.6V92.34a7.38,7.38,0,0,0,1.49.56,6.45,6.45,0,0,0,1.54.2,3.38,3.38,0,0,0,1.75-.37,1.25,1.25,0,0,0,.13-2.07,7.69,7.69,0,0,0-1.9-1,10,10,0,0,1-1.91-.87,2.65,2.65,0,0,1-.85-.85,2.22,2.22,0,0,1-.27-1.13,2.17,2.17,0,0,1,.95-1.86,4.44,4.44,0,0,1,2.63-.68,7.7,7.7,0,0,1,3,.63l-.52,1.19a6.91,6.91,0,0,0-2.62-.6,3.12,3.12,0,0,0-1.57.32,1,1,0,0,0-.53.9,1.1,1.1,0,0,0,.2.66,2.21,2.21,0,0,0,.64.52,15,15,0,0,0,1.69.71,6.36,6.36,0,0,1,2.31,1.26A2.18,2.18,0,0,1,184.36,91.5Z" style="fill: #314041"/>
    <path d="M39.17,115.73v-6.27a2.66,2.66,0,0,0-.49-1.73,1.92,1.92,0,0,0-1.53-.57,2.49,2.49,0,0,0-2,.78,3.73,3.73,0,0,0-.65,2.41v5.38H33v-6.27a2.61,2.61,0,0,0-.5-1.73,1.91,1.91,0,0,0-1.53-.57,2.37,2.37,0,0,0-2,.82,4.4,4.4,0,0,0-.64,2.69v5.06H26.89v-9.64h1.19l.23,1.32h.07a3,3,0,0,1,1.17-1.1,3.59,3.59,0,0,1,1.68-.39,2.87,2.87,0,0,1,3,1.63h.07a3,3,0,0,1,1.24-1.19,3.83,3.83,0,0,1,1.87-.44,3.28,3.28,0,0,1,2.45.84,3.75,3.75,0,0,1,.81,2.68v6.29Z" style="fill: #314041"/>
    <path d="M47.7,115.9a4.43,4.43,0,0,1-3.37-1.3A5,5,0,0,1,43.1,111a5.55,5.55,0,0,1,1.15-3.7,3.78,3.78,0,0,1,3.08-1.37,3.61,3.61,0,0,1,2.86,1.19,4.57,4.57,0,0,1,1.06,3.14v.92H44.61a3.81,3.81,0,0,0,.86,2.58,3,3,0,0,0,2.29.88,7.8,7.8,0,0,0,3.07-.65v1.3a8,8,0,0,1-1.46.48A8.83,8.83,0,0,1,47.7,115.9Zm-.39-8.76a2.38,2.38,0,0,0-1.85.75,3.58,3.58,0,0,0-.82,2.1h5a3.23,3.23,0,0,0-.61-2.12A2.17,2.17,0,0,0,47.31,107.14Z" style="fill: #314041"/>
    <path d="M53.61,103.48a.94.94,0,0,1,.25-.73.81.81,0,0,1,.61-.23.89.89,0,0,1,.61.23,1,1,0,0,1,.25.73,1,1,0,0,1-.25.74.85.85,0,0,1-.61.24.82.82,0,0,1-.61-.24A1,1,0,0,1,53.61,103.48Zm1.58,12.25H53.73v-9.64h1.46Z" style="fill: #314041"/>
    <path d="M59.74,115.73H58.29V102.05h1.45Z" style="fill: #314041"/>
    <path d="M64.3,115.73H62.84V102.05H64.3Z" style="fill: #314041"/>
    <path d="M71.46,115.9a4.41,4.41,0,0,1-3.37-1.3A5.05,5.05,0,0,1,66.85,111a5.61,5.61,0,0,1,1.15-3.7,3.8,3.8,0,0,1,3.08-1.37A3.63,3.63,0,0,1,74,107.11a4.57,4.57,0,0,1,1,3.14v.92H68.37a3.85,3.85,0,0,0,.85,2.58,3,3,0,0,0,2.29.88,7.82,7.82,0,0,0,3.08-.65v1.3a8.27,8.27,0,0,1-1.46.48A8.83,8.83,0,0,1,71.46,115.9Zm-.4-8.76a2.4,2.4,0,0,0-1.85.75,3.51,3.51,0,0,0-.81,2.1h5a3.23,3.23,0,0,0-.62-2.12A2.15,2.15,0,0,0,71.06,107.14Z" style="fill: #314041"/>
    <path d="M78.86,106.09v6.25a2.51,2.51,0,0,0,.54,1.76,2.15,2.15,0,0,0,1.68.58,2.76,2.76,0,0,0,2.21-.83,4.19,4.19,0,0,0,.69-2.69v-5.07h1.46v9.64h-1.2l-.21-1.3H84a2.86,2.86,0,0,1-1.24,1.09,4.09,4.09,0,0,1-1.82.38,3.7,3.7,0,0,1-2.63-.83,3.58,3.58,0,0,1-.88-2.68v-6.3Z" style="fill: #314041"/>
    <path d="M92.93,105.92a5.73,5.73,0,0,1,1.15.1l-.2,1.36a4.91,4.91,0,0,0-1-.14,2.57,2.57,0,0,0-2,1,3.45,3.45,0,0,0-.83,2.37v5.17H88.54v-9.64h1.2l.17,1.79H90a4.27,4.27,0,0,1,1.29-1.45A2.9,2.9,0,0,1,92.93,105.92Z" style="fill: #314041"/>
    <path d="M102.1,113.1a2.42,2.42,0,0,1-1,2.07,4.71,4.71,0,0,1-2.82.73,6.14,6.14,0,0,1-3-.6v-1.36a7.16,7.16,0,0,0,1.49.56,6.43,6.43,0,0,0,1.53.2,3.42,3.42,0,0,0,1.76-.37,1.19,1.19,0,0,0,.61-1.11,1.22,1.22,0,0,0-.48-1,7.81,7.81,0,0,0-1.91-1,10.29,10.29,0,0,1-1.91-.87,2.51,2.51,0,0,1-.84-.85,2.33,2.33,0,0,1,.68-3,4.42,4.42,0,0,1,2.63-.68,7.74,7.74,0,0,1,3,.63l-.52,1.19a7,7,0,0,0-2.63-.6,3.08,3.08,0,0,0-1.56.32,1,1,0,0,0-.53.9,1,1,0,0,0,.2.66,2,2,0,0,0,.63.52,15.9,15.9,0,0,0,1.69.71,6.42,6.42,0,0,1,2.32,1.26A2.21,2.21,0,0,1,102.1,113.1Z" style="fill: #314041"/>
    <path d="M113.22,115.9a4.4,4.4,0,0,1-3.37-1.3,5,5,0,0,1-1.24-3.61,5.55,5.55,0,0,1,1.15-3.7,3.78,3.78,0,0,1,3.08-1.37,3.59,3.59,0,0,1,2.86,1.19,4.52,4.52,0,0,1,1.06,3.14v.92h-6.64a3.86,3.86,0,0,0,.86,2.58,3,3,0,0,0,2.29.88,7.85,7.85,0,0,0,3.08-.65v1.3a8.35,8.35,0,0,1-1.47.48A8.72,8.72,0,0,1,113.22,115.9Zm-.4-8.76a2.4,2.4,0,0,0-1.85.75,3.51,3.51,0,0,0-.81,2.1h5a3.23,3.23,0,0,0-.61-2.12A2.17,2.17,0,0,0,112.82,107.14Zm-1.08-2.54a14.74,14.74,0,0,0,.91-1.32,15.3,15.3,0,0,0,.77-1.34h1.77v.18a12.4,12.4,0,0,1-1.15,1.41,15.22,15.22,0,0,1-1.32,1.29h-1Z" style="fill: #314041"/>
    <path d="M120.71,115.73h-1.46V102.05h1.46Z" style="fill: #314041"/>
    <path d="M127.87,115.9a4.4,4.4,0,0,1-3.37-1.3,5,5,0,0,1-1.24-3.61,5.61,5.61,0,0,1,1.15-3.7,3.78,3.78,0,0,1,3.08-1.37,3.63,3.63,0,0,1,2.87,1.19,4.57,4.57,0,0,1,1,3.14v.92h-6.64a3.86,3.86,0,0,0,.86,2.58,3,3,0,0,0,2.29.88A7.85,7.85,0,0,0,131,114v1.3a8.35,8.35,0,0,1-1.47.48A8.72,8.72,0,0,1,127.87,115.9Zm-.4-8.76a2.4,2.4,0,0,0-1.85.75,3.51,3.51,0,0,0-.81,2.1h5a3.23,3.23,0,0,0-.62-2.12A2.17,2.17,0,0,0,127.47,107.14Zm-1.08-2.54a14.74,14.74,0,0,0,.91-1.32,15.3,15.3,0,0,0,.77-1.34h1.78v.18a13.92,13.92,0,0,1-1.16,1.41,15.22,15.22,0,0,1-1.32,1.29h-1Z" style="fill: #314041"/>
    <path d="M146.18,115.73v-6.27a2.61,2.61,0,0,0-.5-1.73,1.89,1.89,0,0,0-1.53-.57,2.49,2.49,0,0,0-2,.78,3.73,3.73,0,0,0-.65,2.41v5.38H140v-6.27a2.61,2.61,0,0,0-.49-1.73,1.93,1.93,0,0,0-1.54-.57,2.39,2.39,0,0,0-2,.82,4.47,4.47,0,0,0-.63,2.69v5.06H133.9v-9.64h1.18l.24,1.32h.07a3,3,0,0,1,1.17-1.1,3.59,3.59,0,0,1,1.68-.39,2.85,2.85,0,0,1,2.95,1.63h.07a3.12,3.12,0,0,1,1.25-1.19,3.81,3.81,0,0,1,1.86-.44,3.26,3.26,0,0,1,2.45.84,3.75,3.75,0,0,1,.81,2.68v6.29Z" style="fill: #314041"/>
    <path d="M154.71,115.9a4.41,4.41,0,0,1-3.37-1.3A5.05,5.05,0,0,1,150.1,111a5.61,5.61,0,0,1,1.15-3.7,3.8,3.8,0,0,1,3.08-1.37,3.63,3.63,0,0,1,2.87,1.19,4.57,4.57,0,0,1,1.05,3.14v.92h-6.63a3.85,3.85,0,0,0,.85,2.58,3,3,0,0,0,2.29.88,7.82,7.82,0,0,0,3.08-.65v1.3a8.27,8.27,0,0,1-1.46.48A8.83,8.83,0,0,1,154.71,115.9Zm-.4-8.76a2.4,2.4,0,0,0-1.85.75,3.51,3.51,0,0,0-.81,2.1h5a3.23,3.23,0,0,0-.62-2.12A2.15,2.15,0,0,0,154.31,107.14Z" style="fill: #314041"/>
    <path d="M167.33,115.73v-6.24a2.48,2.48,0,0,0-.54-1.75,2.14,2.14,0,0,0-1.67-.58,2.79,2.79,0,0,0-2.22.81,4.14,4.14,0,0,0-.7,2.7v5.06h-1.46v-9.64h1.19l.23,1.32h.07a3,3,0,0,1,1.26-1.1,4.1,4.1,0,0,1,1.8-.39,3.65,3.65,0,0,1,2.62.84,3.54,3.54,0,0,1,.88,2.68v6.29Z" style="fill: #314041"/>
    <path d="M174.9,114.7a4.56,4.56,0,0,0,.75-.06,5.41,5.41,0,0,0,.57-.12v1.12a2.94,2.94,0,0,1-.7.19,5.25,5.25,0,0,1-.83.07c-1.87,0-2.8-1-2.8-2.94v-5.73h-1.38v-.71l1.38-.6.62-2.06h.84v2.23h2.8v1.14h-2.8v5.67a2,2,0,0,0,.41,1.33A1.46,1.46,0,0,0,174.9,114.7Z" style="fill: #314041"/>
    <path d="M184.36,113.1a2.41,2.41,0,0,1-1,2.07,4.65,4.65,0,0,1-2.81.73,6.19,6.19,0,0,1-3-.6v-1.36a7.38,7.38,0,0,0,1.49.56,6.45,6.45,0,0,0,1.54.2,3.38,3.38,0,0,0,1.75-.37,1.25,1.25,0,0,0,.13-2.07,7.69,7.69,0,0,0-1.9-1,10,10,0,0,1-1.91-.87,2.65,2.65,0,0,1-.85-.85,2.25,2.25,0,0,1-.27-1.13,2.17,2.17,0,0,1,.95-1.86,4.44,4.44,0,0,1,2.63-.68,7.7,7.7,0,0,1,3,.63l-.52,1.19a6.91,6.91,0,0,0-2.62-.6,3.12,3.12,0,0,0-1.57.32,1,1,0,0,0-.53.9,1.1,1.1,0,0,0,.2.66,2.21,2.21,0,0,0,.64.52,15,15,0,0,0,1.69.71,6.36,6.36,0,0,1,2.31,1.26A2.18,2.18,0,0,1,184.36,113.1Z" style="fill: #314041"/>
    <path d="M61.25,136.3a4.52,4.52,0,0,0,.74-.06l.58-.12v1.12a3.09,3.09,0,0,1-.7.19,5.25,5.25,0,0,1-.83.07c-1.87,0-2.8-1-2.8-2.94v-5.73H56.86v-.71l1.38-.6.62-2.06h.84v2.23h2.8v1.14H59.7v5.67a2,2,0,0,0,.41,1.33A1.46,1.46,0,0,0,61.25,136.3Z" style="fill: #314041"/>
    <path d="M68.56,137.5a4.41,4.41,0,0,1-3.37-1.3A5.05,5.05,0,0,1,64,132.59a5.61,5.61,0,0,1,1.15-3.7,3.8,3.8,0,0,1,3.08-1.37,3.66,3.66,0,0,1,2.87,1.19,4.57,4.57,0,0,1,1,3.14v.92H65.47a3.85,3.85,0,0,0,.85,2.58,3,3,0,0,0,2.29.88,7.85,7.85,0,0,0,3.08-.65v1.3a8.27,8.27,0,0,1-1.46.48A8.83,8.83,0,0,1,68.56,137.5Zm-.4-8.76a2.37,2.37,0,0,0-1.85.76,3.46,3.46,0,0,0-.81,2.09h5a3.23,3.23,0,0,0-.62-2.12A2.15,2.15,0,0,0,68.16,128.74Z" style="fill: #314041"/>
    <path d="M78.44,137.5a4.12,4.12,0,0,1-3.24-1.28,5.34,5.34,0,0,1-1.15-3.65,5.43,5.43,0,0,1,1.17-3.73,4.18,4.18,0,0,1,3.32-1.32,6.48,6.48,0,0,1,1.38.15A4.23,4.23,0,0,1,81,128l-.44,1.24a6.57,6.57,0,0,0-1.06-.32,4.43,4.43,0,0,0-1-.13q-2.94,0-2.94,3.74a4.44,4.44,0,0,0,.72,2.73,2.51,2.51,0,0,0,2.12.95,6.37,6.37,0,0,0,2.47-.52V137A5.15,5.15,0,0,1,78.44,137.5Z" style="fill: #314041"/>
    <path d="M89.75,137.33V131.1a2.49,2.49,0,0,0-.54-1.76,2.14,2.14,0,0,0-1.67-.58,2.74,2.74,0,0,0-2.22.82,4.17,4.17,0,0,0-.7,2.71v5H83.16V123.65h1.46v4.14a10.29,10.29,0,0,1-.07,1.24h.08a3,3,0,0,1,1.23-1.09,4,4,0,0,1,1.82-.4,3.73,3.73,0,0,1,2.65.84,3.53,3.53,0,0,1,.88,2.66v6.29Z" style="fill: #314041"/>
    <path d="M100.8,137.33V131.1a2.49,2.49,0,0,0-.54-1.76,2.18,2.18,0,0,0-1.68-.58,2.78,2.78,0,0,0-2.21.81,4.14,4.14,0,0,0-.71,2.7v5.06H94.21v-9.64h1.18l.24,1.32h.07a3,3,0,0,1,1.26-1.1,4.1,4.1,0,0,1,1.8-.39,3.67,3.67,0,0,1,2.62.84,3.58,3.58,0,0,1,.88,2.68v6.29Z" style="fill: #314041"/>
    <path d="M113.57,132.5a5.32,5.32,0,0,1-1.19,3.68,4.18,4.18,0,0,1-3.28,1.32,4.37,4.37,0,0,1-2.29-.6,4.1,4.1,0,0,1-1.55-1.74,6.16,6.16,0,0,1-.54-2.66,5.29,5.29,0,0,1,1.18-3.67,4.16,4.16,0,0,1,3.26-1.31,4.11,4.11,0,0,1,3.22,1.34A5.32,5.32,0,0,1,113.57,132.5Zm-7.34,0a4.57,4.57,0,0,0,.74,2.81,2.54,2.54,0,0,0,2.17,1,2.57,2.57,0,0,0,2.17-1,4.52,4.52,0,0,0,.75-2.82,4.46,4.46,0,0,0-.75-2.79,2.61,2.61,0,0,0-2.19-1,2.57,2.57,0,0,0-2.16.94A4.48,4.48,0,0,0,106.23,132.5Z" style="fill: #314041"/>
    <path d="M117.58,137.33h-1.45V123.65h1.45Z" style="fill: #314041"/>
    <path d="M129,132.5a5.32,5.32,0,0,1-1.18,3.68,4.19,4.19,0,0,1-3.28,1.32,4.41,4.41,0,0,1-2.3-.6,4.08,4.08,0,0,1-1.54-1.74,6,6,0,0,1-.55-2.66,5.34,5.34,0,0,1,1.18-3.67,4.2,4.2,0,0,1,3.27-1.31,4.08,4.08,0,0,1,3.21,1.34A5.27,5.27,0,0,1,129,132.5Zm-7.34,0a4.57,4.57,0,0,0,.74,2.81,2.55,2.55,0,0,0,2.17,1,2.59,2.59,0,0,0,2.18-1,4.58,4.58,0,0,0,.74-2.82,4.53,4.53,0,0,0-.74-2.79,2.63,2.63,0,0,0-2.19-1,2.57,2.57,0,0,0-2.17.94A4.55,4.55,0,0,0,121.65,132.5Z" style="fill: #314041"/>
    <path d="M139.43,127.69v.93l-1.78.21a3.12,3.12,0,0,1,.44.8,3.06,3.06,0,0,1,.19,1.12,2.85,2.85,0,0,1-1,2.26,3.93,3.93,0,0,1-2.66.84,4.21,4.21,0,0,1-.81-.07,1.45,1.45,0,0,0-.93,1.24.63.63,0,0,0,.33.59,2.42,2.42,0,0,0,1.11.19h1.71a3.81,3.81,0,0,1,2.4.66,2.28,2.28,0,0,1,.84,1.91,2.74,2.74,0,0,1-1.28,2.44,6.9,6.9,0,0,1-3.75.84,5.09,5.09,0,0,1-2.91-.7,2.28,2.28,0,0,1-1-2,2.22,2.22,0,0,1,.56-1.52,2.81,2.81,0,0,1,1.58-.87,1.54,1.54,0,0,1-.62-.52,1.4,1.4,0,0,1-.25-.82,1.54,1.54,0,0,1,.28-.92,3,3,0,0,1,.89-.76,2.68,2.68,0,0,1-1.22-1.05,3.45,3.45,0,0,1,.48-4.12,3.83,3.83,0,0,1,2.69-.86,5.11,5.11,0,0,1,1.36.17Zm-7.68,11.25a1.3,1.3,0,0,0,.66,1.19,3.64,3.64,0,0,0,1.89.4A5.22,5.22,0,0,0,137,140a1.67,1.67,0,0,0,.89-1.48,1.18,1.18,0,0,0-.49-1.09,3.79,3.79,0,0,0-1.82-.3h-1.75a2.27,2.27,0,0,0-1.54.47A1.7,1.7,0,0,0,131.75,138.94Zm.79-8.16a2,2,0,0,0,.58,1.53,2.3,2.3,0,0,0,1.59.52,1.86,1.86,0,0,0,2.13-2.08,1.92,1.92,0,0,0-2.16-2.17,2.13,2.13,0,0,0-1.58.56A2.2,2.2,0,0,0,132.54,130.78Z" style="fill: #314041"/>
    <path d="M141.29,125.08a1,1,0,0,1,.25-.73.81.81,0,0,1,.61-.23.91.91,0,0,1,.61.23,1.21,1.21,0,0,1,0,1.47.87.87,0,0,1-.61.24.82.82,0,0,1-.61-.24A1,1,0,0,1,141.29,125.08Zm1.58,12.25h-1.46v-9.64h1.46Z" style="fill: #314041"/>
    <path d="M149.38,137.5a3.5,3.5,0,0,1-2.91-1.31,7,7,0,0,1,0-7.34,3.88,3.88,0,0,1,6,.16h.08l.21-1.32h1.15v14h-1.46v-4.12a9.15,9.15,0,0,1,.1-1.5h-.12A3.43,3.43,0,0,1,149.38,137.5Zm.22-1.22a2.64,2.64,0,0,0,2.13-.78,4.21,4.21,0,0,0,.71-2.64v-.32a4.87,4.87,0,0,0-.68-2.91,2.58,2.58,0,0,0-2.17-.89,2.24,2.24,0,0,0-2,1,5,5,0,0,0-.68,2.81,4.8,4.8,0,0,0,.67,2.78A2.29,2.29,0,0,0,149.6,136.28Z" style="fill: #314041"/>
    <path d="M158.37,127.69v6.25a2.5,2.5,0,0,0,.53,1.76,2.18,2.18,0,0,0,1.68.58,2.7,2.7,0,0,0,2.21-.83,4.13,4.13,0,0,0,.7-2.69v-5.07H165v9.64h-1.2l-.22-1.3h-.07a2.89,2.89,0,0,1-1.25,1.09,4,4,0,0,1-1.81.38,3.73,3.73,0,0,1-2.64-.83,3.57,3.57,0,0,1-.87-2.67v-6.31Z" style="fill: #314041"/>
    <path d="M172.11,137.5a4.43,4.43,0,0,1-3.37-1.3,5,5,0,0,1-1.23-3.61,5.6,5.6,0,0,1,1.14-3.7,3.81,3.81,0,0,1,3.08-1.37,3.65,3.65,0,0,1,2.87,1.19,4.57,4.57,0,0,1,1.05,3.14v.92H169a3.81,3.81,0,0,0,.86,2.58,3,3,0,0,0,2.28.88,7.82,7.82,0,0,0,3.08-.65v1.3a8,8,0,0,1-1.46.48A8.83,8.83,0,0,1,172.11,137.5Zm-.39-8.76a2.36,2.36,0,0,0-1.85.76,3.52,3.52,0,0,0-.82,2.09h5a3.23,3.23,0,0,0-.62-2.12A2.15,2.15,0,0,0,171.72,128.74Z" style="fill: #314041"/>
    <path d="M184.36,134.7a2.39,2.39,0,0,1-1,2.07,4.65,4.65,0,0,1-2.81.73,6.19,6.19,0,0,1-3-.6v-1.36a7.38,7.38,0,0,0,1.49.56,6.45,6.45,0,0,0,1.54.2,3.38,3.38,0,0,0,1.75-.37,1.25,1.25,0,0,0,.13-2.07,7.69,7.69,0,0,0-1.9-1,10,10,0,0,1-1.91-.87,2.65,2.65,0,0,1-.85-.85,2.22,2.22,0,0,1-.27-1.13,2.17,2.17,0,0,1,.95-1.86,4.51,4.51,0,0,1,2.63-.68,7.7,7.7,0,0,1,3,.63l-.52,1.19a6.91,6.91,0,0,0-2.62-.6,3.12,3.12,0,0,0-1.57.32,1,1,0,0,0-.53.9,1.1,1.1,0,0,0,.2.66,2.21,2.21,0,0,0,.64.52,15,15,0,0,0,1.69.71,6.36,6.36,0,0,1,2.31,1.26A2.18,2.18,0,0,1,184.36,134.7Z" style="fill: #314041"/>
    <path d="M60.76,159.1a4,4,0,0,1-1.71-.35,3.2,3.2,0,0,1-1.31-1.06h-.11a11.23,11.23,0,0,1,.11,1.6v4H56.28v-14h1.19l.2,1.32h.07a3.35,3.35,0,0,1,1.31-1.14,3.9,3.9,0,0,1,1.71-.35,3.54,3.54,0,0,1,3,1.31,7,7,0,0,1,0,7.36A3.56,3.56,0,0,1,60.76,159.1Zm-.21-8.74a2.59,2.59,0,0,0-2.13.81,4.23,4.23,0,0,0-.68,2.61v.32a4.87,4.87,0,0,0,.68,2.91,2.57,2.57,0,0,0,2.17.87,2.26,2.26,0,0,0,1.95-1,4.72,4.72,0,0,0,.71-2.79,4.54,4.54,0,0,0-.71-2.76A2.32,2.32,0,0,0,60.55,150.36Z" style="fill: #314041"/>
    <path d="M75.63,154.1a5.32,5.32,0,0,1-1.19,3.68,4.18,4.18,0,0,1-3.28,1.32,4.37,4.37,0,0,1-2.29-.6,4,4,0,0,1-1.55-1.74,6.16,6.16,0,0,1-.54-2.66A5.34,5.34,0,0,1,68,150.43a4.2,4.2,0,0,1,3.27-1.31,4.11,4.11,0,0,1,3.22,1.34A5.32,5.32,0,0,1,75.63,154.1Zm-7.34,0a4.5,4.5,0,0,0,.74,2.81,2.54,2.54,0,0,0,2.17,1,2.57,2.57,0,0,0,2.17-1,4.52,4.52,0,0,0,.74-2.82,4.46,4.46,0,0,0-.74-2.79,2.61,2.61,0,0,0-2.19-.95,2.54,2.54,0,0,0-2.16.94A4.48,4.48,0,0,0,68.29,154.1Z" style="fill: #314041"/>
    <path d="M79.55,149.29v6.25a2.51,2.51,0,0,0,.54,1.76,2.18,2.18,0,0,0,1.68.58,2.74,2.74,0,0,0,2.21-.83,4.13,4.13,0,0,0,.7-2.69v-5.07h1.46v9.64H84.93l-.21-1.3h-.08a2.86,2.86,0,0,1-1.24,1.09,4.09,4.09,0,0,1-1.82.38,3.72,3.72,0,0,1-2.63-.83,3.57,3.57,0,0,1-.87-2.67v-6.31Z" style="fill: #314041"/>
    <path d="M93.63,149.12a5.79,5.79,0,0,1,1.15.1l-.2,1.36a4.91,4.91,0,0,0-1.06-.14,2.59,2.59,0,0,0-2,.95,3.49,3.49,0,0,0-.83,2.37v5.17H89.23v-9.64h1.21l.16,1.79h.07A4.27,4.27,0,0,1,92,149.63,2.93,2.93,0,0,1,93.63,149.12Z" style="fill: #314041"/>
    <path d="M105.74,159.1a4,4,0,0,1-1.72-.35,3.26,3.26,0,0,1-1.31-1.06h-.1a12.84,12.84,0,0,1,.1,1.6v4h-1.46v-14h1.19l.2,1.32h.07a3.42,3.42,0,0,1,1.31-1.14,3.92,3.92,0,0,1,1.72-.35,3.56,3.56,0,0,1,3,1.31,7,7,0,0,1,0,7.36A3.59,3.59,0,0,1,105.74,159.1Zm-.21-8.74a2.6,2.6,0,0,0-2.14.81,4.29,4.29,0,0,0-.68,2.61v.32a4.87,4.87,0,0,0,.68,2.91,2.58,2.58,0,0,0,2.17.87,2.27,2.27,0,0,0,2-1,4.8,4.8,0,0,0,.7-2.79,4.61,4.61,0,0,0-.7-2.76A2.33,2.33,0,0,0,105.53,150.36Z" style="fill: #314041"/>
    <path d="M116.35,159.1a4.43,4.43,0,0,1-3.37-1.3,5,5,0,0,1-1.23-3.61,5.55,5.55,0,0,1,1.15-3.7,3.78,3.78,0,0,1,3.08-1.37,3.61,3.61,0,0,1,2.86,1.19,4.57,4.57,0,0,1,1.06,3.14v.92h-6.64a3.86,3.86,0,0,0,.86,2.58,3,3,0,0,0,2.29.88,7.8,7.8,0,0,0,3.07-.65v1.3A8,8,0,0,1,118,159,8.83,8.83,0,0,1,116.35,159.1Zm-.39-8.76a2.37,2.37,0,0,0-1.85.76,3.46,3.46,0,0,0-.81,2.09h5a3.23,3.23,0,0,0-.61-2.12A2.17,2.17,0,0,0,116,150.34Z" style="fill: #314041"/>
    <path d="M126.78,149.12a5.73,5.73,0,0,1,1.15.1l-.2,1.36a4.91,4.91,0,0,0-1.06-.14,2.59,2.59,0,0,0-2,.95,3.49,3.49,0,0,0-.83,2.37v5.17h-1.46v-9.64h1.21l.16,1.79h.08a4.07,4.07,0,0,1,1.29-1.45A2.88,2.88,0,0,1,126.78,149.12Z" style="fill: #314041"/>
    <path d="M142,158.93v-6.27a2.61,2.61,0,0,0-.49-1.73,1.92,1.92,0,0,0-1.53-.57,2.46,2.46,0,0,0-2,.78,3.67,3.67,0,0,0-.65,2.41v5.38h-1.46v-6.27a2.61,2.61,0,0,0-.5-1.73,1.91,1.91,0,0,0-1.53-.57,2.37,2.37,0,0,0-2,.82,4.4,4.4,0,0,0-.64,2.69v5.06h-1.46v-9.64h1.19l.24,1.32h.07a2.86,2.86,0,0,1,1.16-1.1,3.59,3.59,0,0,1,1.68-.39,2.87,2.87,0,0,1,3,1.63h.07a3,3,0,0,1,1.24-1.19,3.83,3.83,0,0,1,1.87-.44,3.28,3.28,0,0,1,2.45.84,3.75,3.75,0,0,1,.81,2.68v6.29Z" style="fill: #314041"/>
    <path d="M150.54,159.1a4.43,4.43,0,0,1-3.37-1.3,5,5,0,0,1-1.23-3.61,5.55,5.55,0,0,1,1.15-3.7,3.78,3.78,0,0,1,3.08-1.37,3.61,3.61,0,0,1,2.86,1.19,4.57,4.57,0,0,1,1.06,3.14v.92h-6.64a3.86,3.86,0,0,0,.86,2.58,3,3,0,0,0,2.29.88,7.8,7.8,0,0,0,3.07-.65v1.3a8,8,0,0,1-1.46.48A8.83,8.83,0,0,1,150.54,159.1Zm-.39-8.76a2.36,2.36,0,0,0-1.85.76,3.46,3.46,0,0,0-.81,2.09h5a3.23,3.23,0,0,0-.61-2.12A2.17,2.17,0,0,0,150.15,150.34Z" style="fill: #314041"/>
    <path d="M159.68,157.9a4.56,4.56,0,0,0,.75-.06,5.41,5.41,0,0,0,.57-.12v1.12a2.94,2.94,0,0,1-.7.19,5.07,5.07,0,0,1-.83.07q-2.79,0-2.79-2.94v-5.73H155.3v-.71l1.38-.6.61-2.06h.85v2.23h2.79v1.14h-2.79v5.67a2,2,0,0,0,.41,1.33A1.44,1.44,0,0,0,159.68,157.9Z" style="fill: #314041"/>
    <path d="M166,157.9a4.56,4.56,0,0,0,.75-.06,5.41,5.41,0,0,0,.57-.12v1.12a2.94,2.94,0,0,1-.7.19,5.25,5.25,0,0,1-.83.07c-1.87,0-2.8-1-2.8-2.94v-5.73h-1.38v-.71l1.38-.6.62-2.06h.84v2.23h2.8v1.14h-2.8v5.67a1.91,1.91,0,0,0,.42,1.33A1.43,1.43,0,0,0,166,157.9Z" style="fill: #314041"/>
    <path d="M173.68,149.12a5.79,5.79,0,0,1,1.15.1l-.2,1.36a4.91,4.91,0,0,0-1.06-.14,2.59,2.59,0,0,0-2,.95,3.49,3.49,0,0,0-.83,2.37v5.17h-1.46v-9.64h1.21l.16,1.79h.07a4.19,4.19,0,0,1,1.3-1.45A2.88,2.88,0,0,1,173.68,149.12Z" style="fill: #314041"/>
    <path d="M180.7,159.1a4.41,4.41,0,0,1-3.37-1.3,5.05,5.05,0,0,1-1.24-3.61,5.61,5.61,0,0,1,1.15-3.7,3.8,3.8,0,0,1,3.08-1.37,3.63,3.63,0,0,1,2.87,1.19,4.57,4.57,0,0,1,1.05,3.14v.92h-6.63a3.8,3.8,0,0,0,.85,2.58,3,3,0,0,0,2.29.88,7.85,7.85,0,0,0,3.08-.65v1.3a8.27,8.27,0,0,1-1.46.48A8.83,8.83,0,0,1,180.7,159.1Zm-.4-8.76a2.37,2.37,0,0,0-1.85.76,3.46,3.46,0,0,0-.81,2.09h5a3.23,3.23,0,0,0-.62-2.12A2.15,2.15,0,0,0,180.3,150.34Z" style="fill: #314041"/>
    <path d="M33.46,179.23h-.08a3.44,3.44,0,0,1-3,1.47,3.58,3.58,0,0,1-2.94-1.29,7,7,0,0,1,0-7.37,3.54,3.54,0,0,1,2.93-1.32,3.5,3.5,0,0,1,3,1.42h.11l-.06-.69,0-.68v-3.92h1.46v13.68H33.65Zm-2.92.25a2.68,2.68,0,0,0,2.17-.81,4.17,4.17,0,0,0,.67-2.63v-.3a4.9,4.9,0,0,0-.68-2.93,2.61,2.61,0,0,0-2.18-.87,2.21,2.21,0,0,0-2,1,4.88,4.88,0,0,0-.69,2.81,4.78,4.78,0,0,0,.68,2.79A2.28,2.28,0,0,0,30.54,179.48Z" style="fill: #314041"/>
    <path d="M39.19,167.68l-.36,4.64h-.92l-.36-4.64Z" style="fill: #314041"/>
    <path d="M47.83,180.53l-.29-1.37h-.07A4,4,0,0,1,46,180.38a4.31,4.31,0,0,1-1.79.32A3.2,3.2,0,0,1,42,180a2.69,2.69,0,0,1-.81-2.1q0-2.91,4.67-3.05l1.63-.06v-.6a2.42,2.42,0,0,0-.49-1.67,2,2,0,0,0-1.56-.54,6.37,6.37,0,0,0-2.72.74l-.45-1.12a7.12,7.12,0,0,1,3.26-.82,3.7,3.7,0,0,1,2.56.76,3.21,3.21,0,0,1,.83,2.45v6.58Zm-3.29-1a3,3,0,0,0,2.14-.75,2.75,2.75,0,0,0,.78-2.09v-.87l-1.46.06a5.28,5.28,0,0,0-2.51.54,1.64,1.64,0,0,0-.77,1.49,1.52,1.52,0,0,0,.48,1.21A2,2,0,0,0,44.54,179.5Z" style="fill: #314041"/>
    <path d="M64.2,180.53v-6.27a2.61,2.61,0,0,0-.49-1.73,1.92,1.92,0,0,0-1.53-.57,2.46,2.46,0,0,0-2,.78,3.67,3.67,0,0,0-.65,2.41v5.38H58.06v-6.27a2.61,2.61,0,0,0-.5-1.73A1.91,1.91,0,0,0,56,172a2.37,2.37,0,0,0-2,.82,4.4,4.4,0,0,0-.64,2.69v5.06H51.92v-9.64h1.19l.24,1.32h.07a2.86,2.86,0,0,1,1.16-1.1,3.59,3.59,0,0,1,1.68-.39,2.87,2.87,0,0,1,3,1.63h.07a3,3,0,0,1,1.25-1.19,3.76,3.76,0,0,1,1.86-.44,3.28,3.28,0,0,1,2.45.84,3.75,3.75,0,0,1,.81,2.68v6.29Z" style="fill: #314041"/>
    <path d="M72.73,180.7a4.43,4.43,0,0,1-3.37-1.3,5,5,0,0,1-1.23-3.61,5.55,5.55,0,0,1,1.15-3.7,3.81,3.81,0,0,1,3.08-1.37,3.64,3.64,0,0,1,2.86,1.19,4.57,4.57,0,0,1,1.06,3.14V176H69.64a3.86,3.86,0,0,0,.86,2.58,2.94,2.94,0,0,0,2.29.88,7.8,7.8,0,0,0,3.07-.65v1.3a8,8,0,0,1-1.46.48A8.83,8.83,0,0,1,72.73,180.7Zm-.39-8.76a2.37,2.37,0,0,0-1.85.76,3.46,3.46,0,0,0-.81,2.09h5a3.23,3.23,0,0,0-.61-2.12A2.17,2.17,0,0,0,72.34,171.94Zm-1.08-2.54c.28-.36.58-.8.91-1.32s.58-1,.77-1.34h1.77v.18a13.61,13.61,0,0,1-1.15,1.41,13.86,13.86,0,0,1-1.33,1.29h-1Z" style="fill: #314041"/>
    <path d="M80.22,180.53H78.76V166.85h1.46Z" style="fill: #314041"/>
    <path d="M83.19,168.28a1,1,0,0,1,.25-.73.83.83,0,0,1,.61-.23.89.89,0,0,1,.61.23,1.17,1.17,0,0,1,0,1.47.85.85,0,0,1-.61.24.84.84,0,0,1-.61-.24A1,1,0,0,1,83.19,168.28Zm1.59,12.25H83.32v-9.64h1.46Z" style="fill: #314041"/>
    <path d="M96.18,175.7A5.32,5.32,0,0,1,95,179.38a4.19,4.19,0,0,1-3.28,1.32,4.41,4.41,0,0,1-2.3-.6,4.08,4.08,0,0,1-1.54-1.74,6,6,0,0,1-.55-2.66A5.34,5.34,0,0,1,88.51,172a4.2,4.2,0,0,1,3.27-1.31A4.08,4.08,0,0,1,95,172.06,5.27,5.27,0,0,1,96.18,175.7Zm-7.34,0a4.57,4.57,0,0,0,.74,2.81,2.56,2.56,0,0,0,2.17,1,2.59,2.59,0,0,0,2.18-1,4.58,4.58,0,0,0,.74-2.82,4.53,4.53,0,0,0-.74-2.79,2.63,2.63,0,0,0-2.19-.95,2.57,2.57,0,0,0-2.17.94A4.55,4.55,0,0,0,88.84,175.7Z" style="fill: #314041"/>
    <path d="M103.14,170.72a5.79,5.79,0,0,1,1.15.1l-.21,1.36a4.76,4.76,0,0,0-1-.13,2.56,2.56,0,0,0-2,.94,3.51,3.51,0,0,0-.83,2.37v5.17H98.74v-9.64H100l.16,1.79h.07a4.27,4.27,0,0,1,1.29-1.45A2.93,2.93,0,0,1,103.14,170.72Z" style="fill: #314041"/>
    <path d="M110.16,180.7a4.4,4.4,0,0,1-3.37-1.3,5,5,0,0,1-1.24-3.61,5.61,5.61,0,0,1,1.15-3.7,3.81,3.81,0,0,1,3.08-1.37,3.66,3.66,0,0,1,2.87,1.19,4.57,4.57,0,0,1,1,3.14V176h-6.64a3.86,3.86,0,0,0,.86,2.58,3,3,0,0,0,2.29.88,7.85,7.85,0,0,0,3.08-.65v1.3a8.35,8.35,0,0,1-1.47.48A8.72,8.72,0,0,1,110.16,180.7Zm-.4-8.76a2.37,2.37,0,0,0-1.85.76,3.46,3.46,0,0,0-.81,2.09h5a3.23,3.23,0,0,0-.62-2.12A2.17,2.17,0,0,0,109.76,171.94Z" style="fill: #314041"/>
    <path d="M120.58,170.72a5.73,5.73,0,0,1,1.15.1l-.2,1.36a4.83,4.83,0,0,0-1-.13,2.56,2.56,0,0,0-2,.94,3.46,3.46,0,0,0-.83,2.37v5.17h-1.46v-9.64h1.2l.17,1.79h.07a4.27,4.27,0,0,1,1.29-1.45A2.9,2.9,0,0,1,120.58,170.72Z" style="fill: #314041"/>
    <path d="M129.67,180.53h-1.46V166.85h1.46Z" style="fill: #314041"/>
    <path d="M134,167.68l-.35,4.64h-.92l-.36-4.64Z" style="fill: #314041"/>
    <path d="M142.67,180.53l-.29-1.37h-.07a4,4,0,0,1-1.44,1.22,4.28,4.28,0,0,1-1.79.32,3.17,3.17,0,0,1-2.24-.74,2.7,2.7,0,0,1-.82-2.1q0-2.91,4.67-3.05l1.64-.06v-.6a2.47,2.47,0,0,0-.49-1.67,2,2,0,0,0-1.56-.54,6.45,6.45,0,0,0-2.73.74l-.44-1.12a6.32,6.32,0,0,1,1.56-.6,6.56,6.56,0,0,1,1.7-.22,3.67,3.67,0,0,1,2.55.76,3.21,3.21,0,0,1,.83,2.45v6.58Zm-3.3-1a2.94,2.94,0,0,0,2.14-.75,2.75,2.75,0,0,0,.78-2.09v-.87l-1.46.06a5.31,5.31,0,0,0-2.51.54,1.64,1.64,0,0,0-.77,1.49,1.52,1.52,0,0,0,.48,1.21A2,2,0,0,0,139.37,179.5Z" style="fill: #314041"/>
    <path d="M154.64,170.89v.93l-1.78.21a2.84,2.84,0,0,1,.43.8,3.06,3.06,0,0,1,.2,1.12,2.82,2.82,0,0,1-1,2.26,3.9,3.9,0,0,1-2.65.85,4.12,4.12,0,0,1-.81-.08,1.45,1.45,0,0,0-.93,1.24.64.64,0,0,0,.32.59,2.47,2.47,0,0,0,1.12.19h1.7a3.82,3.82,0,0,1,2.41.66,2.28,2.28,0,0,1,.84,1.91,2.73,2.73,0,0,1-1.29,2.44,6.84,6.84,0,0,1-3.74.84,5.09,5.09,0,0,1-2.91-.7,2.4,2.4,0,0,1-.47-3.51,2.88,2.88,0,0,1,1.59-.87,1.42,1.42,0,0,1-.62-.52,1.33,1.33,0,0,1-.25-.82,1.54,1.54,0,0,1,.28-.92,2.78,2.78,0,0,1,.89-.76,2.63,2.63,0,0,1-1.22-1.05,3,3,0,0,1-.47-1.69,3.08,3.08,0,0,1,.95-2.43,3.83,3.83,0,0,1,2.69-.86,5.22,5.22,0,0,1,1.36.17ZM147,182.14a1.3,1.3,0,0,0,.66,1.19,3.64,3.64,0,0,0,1.89.4,5.25,5.25,0,0,0,2.72-.55,1.66,1.66,0,0,0,.88-1.48,1.18,1.18,0,0,0-.48-1.09,3.82,3.82,0,0,0-1.82-.3h-1.75a2.35,2.35,0,0,0-1.55.47A1.69,1.69,0,0,0,147,182.14Zm.79-8.16a2,2,0,0,0,.57,1.53,2.3,2.3,0,0,0,1.59.52,1.87,1.87,0,0,0,2.14-2.08,1.92,1.92,0,0,0-2.17-2.17,2.14,2.14,0,0,0-1.58.56A2.2,2.2,0,0,0,147.75,174Z" style="fill: #314041"/>
    <path d="M156.49,168.28a1,1,0,0,1,.25-.73.84.84,0,0,1,.62-.23.88.88,0,0,1,.6.23,1.17,1.17,0,0,1,0,1.47.9.9,0,0,1-1.22,0A1,1,0,0,1,156.49,168.28Zm1.59,12.25h-1.46v-9.64h1.46Z" style="fill: #314041"/>
    <path d="M162.63,180.53h-1.46V166.85h1.46Z" style="fill: #314041"/>
    <path d="M165.6,168.28a1,1,0,0,1,.25-.73.81.81,0,0,1,.61-.23.89.89,0,0,1,.61.23,1.21,1.21,0,0,1,0,1.47.85.85,0,0,1-.61.24.82.82,0,0,1-.61-.24A1,1,0,0,1,165.6,168.28Zm1.58,12.25h-1.46v-9.64h1.46Z" style="fill: #314041"/>
    <path d="M173.39,179.5a4.52,4.52,0,0,0,.74-.06l.58-.12v1.12a3.09,3.09,0,0,1-.7.19,5.25,5.25,0,0,1-.83.07c-1.87,0-2.8-1-2.8-2.94V172H169v-.71l1.38-.6.62-2.06h.84v2.23h2.79V172h-2.79v5.67a2,2,0,0,0,.41,1.33A1.46,1.46,0,0,0,173.39,179.5Z" style="fill: #314041"/>
    <path d="M180.7,180.7a4.41,4.41,0,0,1-3.37-1.3,5.05,5.05,0,0,1-1.24-3.61,5.61,5.61,0,0,1,1.15-3.7,3.83,3.83,0,0,1,3.08-1.37,3.66,3.66,0,0,1,2.87,1.19,4.57,4.57,0,0,1,1.05,3.14V176h-6.63a3.8,3.8,0,0,0,.85,2.58,3,3,0,0,0,2.29.88,7.85,7.85,0,0,0,3.08-.65v1.3a8.27,8.27,0,0,1-1.46.48A8.83,8.83,0,0,1,180.7,180.7Zm-.4-8.76a2.37,2.37,0,0,0-1.85.76,3.46,3.46,0,0,0-.81,2.09h5a3.23,3.23,0,0,0-.62-2.12A2.15,2.15,0,0,0,180.3,171.94Zm-1.08-2.54a14.74,14.74,0,0,0,.91-1.32,14,14,0,0,0,.77-1.34h1.78v.18a13.61,13.61,0,0,1-1.15,1.41,15.13,15.13,0,0,1-1.33,1.29h-1Z" style="fill: #314041"/>
  </g>
  <g>
    <path d="M208.61,229.69v-7.13h.83v6.38h3.15v.75Z" style="fill: #304041"/>
    <path d="M218.3,227a3,3,0,0,1-.66,2.05,2.32,2.32,0,0,1-1.82.73,2.46,2.46,0,0,1-1.28-.33,2.32,2.32,0,0,1-.86-1,3.4,3.4,0,0,1-.3-1.48,2.9,2.9,0,0,1,.66-2,2.29,2.29,0,0,1,1.81-.73,2.26,2.26,0,0,1,1.79.74A2.94,2.94,0,0,1,218.3,227Zm-4.08,0a2.58,2.58,0,0,0,.41,1.57,1.44,1.44,0,0,0,1.21.53,1.43,1.43,0,0,0,1.21-.53,2.58,2.58,0,0,0,.41-1.57,2.53,2.53,0,0,0-.41-1.55,1.48,1.48,0,0,0-1.22-.53,1.43,1.43,0,0,0-1.2.53A2.49,2.49,0,0,0,214.22,227Z" style="fill: #304041"/>
    <path d="M224.1,224.34v.52l-1,.11a1.89,1.89,0,0,1,.24.45,1.71,1.71,0,0,1,.11.62,1.59,1.59,0,0,1-.54,1.26,2.18,2.18,0,0,1-1.47.47,3.14,3.14,0,0,1-.45,0,.79.79,0,0,0-.52.69.35.35,0,0,0,.18.32,1.31,1.31,0,0,0,.62.11h.95a2.13,2.13,0,0,1,1.33.36,1.29,1.29,0,0,1,.47,1.07,1.52,1.52,0,0,1-.71,1.35,3.84,3.84,0,0,1-2.08.47,2.85,2.85,0,0,1-1.62-.39,1.27,1.27,0,0,1-.57-1.11,1.23,1.23,0,0,1,.31-.84,1.62,1.62,0,0,1,.88-.49.77.77,0,0,1-.34-.28.72.72,0,0,1-.14-.46.9.9,0,0,1,.15-.51,1.54,1.54,0,0,1,.5-.42,1.48,1.48,0,0,1-.68-.59,1.71,1.71,0,0,1-.26-.93,1.75,1.75,0,0,1,.53-1.36,2.13,2.13,0,0,1,1.49-.47,3,3,0,0,1,.76.09Zm-4.27,6.25a.72.72,0,0,0,.37.66,2,2,0,0,0,1.05.23,2.86,2.86,0,0,0,1.51-.31.93.93,0,0,0,.49-.83.66.66,0,0,0-.27-.6,2.12,2.12,0,0,0-1-.17h-1a1.25,1.25,0,0,0-.86.27A.91.91,0,0,0,219.83,230.59Zm.44-4.53a1.1,1.1,0,0,0,.32.85,1.26,1.26,0,0,0,.88.28,1,1,0,0,0,1.19-1.15,1.06,1.06,0,0,0-1.2-1.2,1.2,1.2,0,0,0-.88.3A1.23,1.23,0,0,0,220.27,226.06Z" style="fill: #304041"/>
    <path d="M225.13,222.89a.49.49,0,0,1,.14-.4.45.45,0,0,1,.34-.13.44.44,0,0,1,.33.13.51.51,0,0,1,.15.4.51.51,0,0,1-.15.41.44.44,0,0,1-.33.13.45.45,0,0,1-.34-.13A.51.51,0,0,1,225.13,222.89Zm.88,6.8h-.81v-5.35H226Z" style="fill: #304041"/>
    <path d="M229.87,229.79a2.29,2.29,0,0,1-1.8-.71,2.93,2.93,0,0,1-.64-2,3,3,0,0,1,.65-2.07,2.31,2.31,0,0,1,1.84-.73,3.36,3.36,0,0,1,.77.08,2.6,2.6,0,0,1,.61.19l-.25.69a4.55,4.55,0,0,0-.59-.18,3.16,3.16,0,0,0-.56-.07c-1.09,0-1.63.7-1.63,2.08a2.46,2.46,0,0,0,.4,1.52,1.38,1.38,0,0,0,1.18.52,3.65,3.65,0,0,0,1.37-.28v.71A2.87,2.87,0,0,1,229.87,229.79Z" style="fill: #304041"/>
    <path d="M232.42,222.89a.49.49,0,0,1,.14-.4.45.45,0,0,1,.34-.13.44.44,0,0,1,.33.13.51.51,0,0,1,.15.4.51.51,0,0,1-.15.41.44.44,0,0,1-.33.13.45.45,0,0,1-.34-.13A.51.51,0,0,1,232.42,222.89Zm.88,6.8h-.81v-5.35h.81Z" style="fill: #304041"/>
    <path d="M237.28,229.79a2.45,2.45,0,0,1-1.87-.72,2.79,2.79,0,0,1-.69-2,3.05,3.05,0,0,1,.64-2.05,2.09,2.09,0,0,1,1.71-.76,2,2,0,0,1,1.59.66,2.53,2.53,0,0,1,.59,1.74v.52h-3.69a2.17,2.17,0,0,0,.47,1.43,1.69,1.69,0,0,0,1.28.48,4.38,4.38,0,0,0,1.71-.36v.73a4.28,4.28,0,0,1-.82.26A4.09,4.09,0,0,1,237.28,229.79Zm-.22-4.87a1.33,1.33,0,0,0-1,.42,1.89,1.89,0,0,0-.45,1.17h2.8a1.79,1.79,0,0,0-.35-1.18A1.19,1.19,0,0,0,237.06,224.92Z" style="fill: #304041"/>
    <path d="M241.44,229.69h-.81V222.1h.81Z" style="fill: #304041"/>
    <path d="M246.61,228.23a1.36,1.36,0,0,1-.56,1.16,2.61,2.61,0,0,1-1.56.4,3.46,3.46,0,0,1-1.66-.33v-.76a3.74,3.74,0,0,0,.83.31,3.2,3.2,0,0,0,.85.11,1.91,1.91,0,0,0,1-.2.7.7,0,0,0,.07-1.15,4.8,4.8,0,0,0-1.06-.53,5.26,5.26,0,0,1-1.06-.48,1.5,1.5,0,0,1-.47-.47,1.28,1.28,0,0,1-.16-.63,1.21,1.21,0,0,1,.54-1,2.48,2.48,0,0,1,1.46-.37,4.2,4.2,0,0,1,1.69.35l-.29.66a4,4,0,0,0-1.46-.34,1.66,1.66,0,0,0-.87.18.61.61,0,0,0-.18.87,1.06,1.06,0,0,0,.35.29,8,8,0,0,0,.94.39,3.52,3.52,0,0,1,1.28.7A1.21,1.21,0,0,1,246.61,228.23Z" style="fill: #304041"/>
  </g>
  <g>
    <path d="M271.91,229.69l-.89-2.27h-2.86l-.88,2.27h-.84l2.83-7.16H270l2.81,7.16Zm-1.15-3-.83-2.21c-.1-.28-.21-.63-.33-1a7.85,7.85,0,0,1-.31,1l-.83,2.21Z" style="fill: #304041"/>
    <path d="M274.39,224.34v3.47a1.39,1.39,0,0,0,.3,1,1.19,1.19,0,0,0,.93.32,1.52,1.52,0,0,0,1.23-.46,2.27,2.27,0,0,0,.39-1.49v-2.82h.81v5.35h-.67l-.12-.71h0a1.68,1.68,0,0,1-.69.6,2.34,2.34,0,0,1-1,.21,2,2,0,0,1-1.46-.46,2,2,0,0,1-.49-1.49v-3.5Z" style="fill: #304041"/>
    <path d="M281.5,229.12a2.73,2.73,0,0,0,.41,0l.32-.06v.62a1.8,1.8,0,0,1-.39.1,2.6,2.6,0,0,1-.46,0c-1,0-1.55-.54-1.55-1.63V225h-.77v-.39l.77-.33.34-1.15h.47v1.24h1.55V225h-1.55v3.15a1,1,0,0,0,.23.74A.77.77,0,0,0,281.5,229.12Z" style="fill: #304041"/>
    <path d="M285.74,224.25a3.14,3.14,0,0,1,.64.05l-.11.76a2.75,2.75,0,0,0-.59-.08,1.44,1.44,0,0,0-1.11.53,1.91,1.91,0,0,0-.46,1.31v2.87h-.81v-5.35H284l.09,1h0a2.44,2.44,0,0,1,.72-.8A1.61,1.61,0,0,1,285.74,224.25Z" style="fill: #304041"/>
    <path d="M289.64,229.79a2.46,2.46,0,0,1-1.87-.72,2.79,2.79,0,0,1-.69-2,3.05,3.05,0,0,1,.64-2.05,2.11,2.11,0,0,1,1.71-.76,2,2,0,0,1,1.59.66,2.53,2.53,0,0,1,.59,1.74v.52h-3.69a2.17,2.17,0,0,0,.48,1.43,1.65,1.65,0,0,0,1.27.48,4.3,4.3,0,0,0,1.71-.36v.73a4.43,4.43,0,0,1-.81.26A4.24,4.24,0,0,1,289.64,229.79Zm-.22-4.87a1.33,1.33,0,0,0-1,.42,2,2,0,0,0-.45,1.17h2.8a1.79,1.79,0,0,0-.34-1.18A1.22,1.22,0,0,0,289.42,224.92Z" style="fill: #304041"/>
    <path d="M296.44,228.23a1.35,1.35,0,0,1-.55,1.16,2.62,2.62,0,0,1-1.57.4,3.46,3.46,0,0,1-1.66-.33v-.76a3.94,3.94,0,0,0,.83.31,3.25,3.25,0,0,0,.85.11,1.89,1.89,0,0,0,1-.2.66.66,0,0,0,.34-.62.68.68,0,0,0-.27-.53,4.36,4.36,0,0,0-1.06-.53,5.55,5.55,0,0,1-1.06-.48,1.61,1.61,0,0,1-.47-.47,1.28,1.28,0,0,1-.15-.63,1.23,1.23,0,0,1,.53-1,2.51,2.51,0,0,1,1.46-.37,4.16,4.16,0,0,1,1.69.35l-.29.66a3.88,3.88,0,0,0-1.46-.34,1.71,1.71,0,0,0-.87.18.58.58,0,0,0-.29.5.62.62,0,0,0,.11.37,1.06,1.06,0,0,0,.35.29,8.83,8.83,0,0,0,.94.39,3.5,3.5,0,0,1,1.29.7A1.25,1.25,0,0,1,296.44,228.23Z" style="fill: #304041"/>
    <path d="M302.62,229.79a2.46,2.46,0,0,1-1.87-.72,2.79,2.79,0,0,1-.69-2,3.05,3.05,0,0,1,.64-2.05,2.09,2.09,0,0,1,1.71-.76,2,2,0,0,1,1.59.66,2.53,2.53,0,0,1,.59,1.74v.52H300.9a2.17,2.17,0,0,0,.48,1.43,1.65,1.65,0,0,0,1.27.48,4.34,4.34,0,0,0,1.71-.36v.73a4.28,4.28,0,0,1-.82.26A4.09,4.09,0,0,1,302.62,229.79Zm-.22-4.87a1.33,1.33,0,0,0-1,.42,2,2,0,0,0-.45,1.17h2.8a1.84,1.84,0,0,0-.34-1.18A1.22,1.22,0,0,0,302.4,224.92Zm-.6-1.41a7.56,7.56,0,0,0,.5-.73,5.72,5.72,0,0,0,.43-.75h1v.11a7.47,7.47,0,0,1-.64.78,6.83,6.83,0,0,1-.74.72h-.54Z" style="fill: #304041"/>
    <path d="M306.78,229.69H306V222.1h.81Z" style="fill: #304041"/>
    <path d="M310.76,229.79a2.45,2.45,0,0,1-1.87-.72,2.79,2.79,0,0,1-.69-2,3.05,3.05,0,0,1,.64-2.05,2.09,2.09,0,0,1,1.71-.76,2,2,0,0,1,1.59.66,2.53,2.53,0,0,1,.59,1.74v.52H309a2.17,2.17,0,0,0,.48,1.43,1.65,1.65,0,0,0,1.27.48,4.34,4.34,0,0,0,1.71-.36v.73a4.28,4.28,0,0,1-.82.26A4.09,4.09,0,0,1,310.76,229.79Zm-.22-4.87a1.33,1.33,0,0,0-1,.42,2,2,0,0,0-.45,1.17h2.8a1.84,1.84,0,0,0-.34-1.18A1.22,1.22,0,0,0,310.54,224.92Zm-.6-1.41a7.56,7.56,0,0,0,.5-.73,5.72,5.72,0,0,0,.43-.75h1v.11a9,9,0,0,1-.64.78,6.83,6.83,0,0,1-.74.72h-.54Z" style="fill: #304041"/>
    <path d="M320.93,229.69v-3.48a1.48,1.48,0,0,0-.27-1,1.09,1.09,0,0,0-.85-.32,1.37,1.37,0,0,0-1.12.44,2.06,2.06,0,0,0-.36,1.34v3h-.81v-3.48a1.43,1.43,0,0,0-.28-1,1.06,1.06,0,0,0-.85-.32,1.35,1.35,0,0,0-1.12.46,2.51,2.51,0,0,0-.35,1.5v2.8h-.81v-5.35h.66l.13.74h0a1.53,1.53,0,0,1,.65-.61,1.93,1.93,0,0,1,.93-.22,1.58,1.58,0,0,1,1.64.9h0a1.69,1.69,0,0,1,.69-.66,2.21,2.21,0,0,1,1-.24,1.81,1.81,0,0,1,1.36.46,2.09,2.09,0,0,1,.45,1.49v3.49Z" style="fill: #304041"/>
    <path d="M325.67,229.79a2.46,2.46,0,0,1-1.87-.72,2.79,2.79,0,0,1-.69-2,3.1,3.1,0,0,1,.64-2.05,2.11,2.11,0,0,1,1.71-.76,2,2,0,0,1,1.59.66,2.53,2.53,0,0,1,.59,1.74v.52H324a2.17,2.17,0,0,0,.48,1.43,1.65,1.65,0,0,0,1.27.48,4.3,4.3,0,0,0,1.71-.36v.73a4.43,4.43,0,0,1-.81.26A4.24,4.24,0,0,1,325.67,229.79Zm-.22-4.87a1.33,1.33,0,0,0-1,.42,2,2,0,0,0-.45,1.17h2.8a1.79,1.79,0,0,0-.34-1.18A1.22,1.22,0,0,0,325.45,224.92Z" style="fill: #304041"/>
    <path d="M332.68,229.69v-3.46a1.42,1.42,0,0,0-.29-1,1.21,1.21,0,0,0-.94-.33,1.55,1.55,0,0,0-1.23.46,2.29,2.29,0,0,0-.39,1.5v2.8H329v-5.35h.66l.13.74h0a1.69,1.69,0,0,1,.7-.62,2.33,2.33,0,0,1,1-.21,2,2,0,0,1,1.46.46,2,2,0,0,1,.48,1.49v3.49Z" style="fill: #304041"/>
    <path d="M336.89,229.12a2.73,2.73,0,0,0,.41,0l.32-.06v.62a1.8,1.8,0,0,1-.39.1,2.6,2.6,0,0,1-.46,0c-1,0-1.55-.54-1.55-1.63V225h-.77v-.39l.77-.33.34-1.15H336v1.24h1.55V225H336v3.15a1,1,0,0,0,.23.74A.77.77,0,0,0,336.89,229.12Z" style="fill: #304041"/>
    <path d="M342.14,228.23a1.33,1.33,0,0,1-.56,1.16,2.61,2.61,0,0,1-1.56.4,3.46,3.46,0,0,1-1.66-.33v-.76a3.94,3.94,0,0,0,.83.31,3.2,3.2,0,0,0,.85.11,1.91,1.91,0,0,0,1-.2.66.66,0,0,0,.34-.62.68.68,0,0,0-.27-.53,4.36,4.36,0,0,0-1.06-.53,5.26,5.26,0,0,1-1.06-.48,1.5,1.5,0,0,1-.47-.47,1.28,1.28,0,0,1-.15-.63,1.23,1.23,0,0,1,.53-1,2.48,2.48,0,0,1,1.46-.37,4.16,4.16,0,0,1,1.69.35l-.29.66a3.92,3.92,0,0,0-1.46-.34,1.71,1.71,0,0,0-.87.18.58.58,0,0,0-.29.5.62.62,0,0,0,.11.37,1.06,1.06,0,0,0,.35.29,8.83,8.83,0,0,0,.94.39,3.59,3.59,0,0,1,1.29.7A1.25,1.25,0,0,1,342.14,228.23Z" style="fill: #304041"/>
  </g>
</svg>
