<svg id="Layer_1" data-name="Layer 1" xmlns="http://www.w3.org/2000/svg" viewBox="0 0 374.33 255.83">
  <title>nugget_graph_1de</title>
  <rect x="202.35" y="13.6" width="50" height="199.97" style="fill: #ebac7b"/>
  <rect x="279.52" y="129.41" width="50" height="84.16" style="fill: #e3e2e3"/>
  <g>
    <path d="M146.51,63.06c0-2.81.6-4.91,1.79-6.28a6.67,6.67,0,0,1,5.34-2.07,9.48,9.48,0,0,1,1.91.15v2.4a7.79,7.79,0,0,0-1.71-.19,5.8,5.8,0,0,0-2.53.47,3.11,3.11,0,0,0-1.46,1.38,6.25,6.25,0,0,0-.57,2.59h.12a3.3,3.3,0,0,1,3.09-1.65,3.8,3.8,0,0,1,3,1.2,4.74,4.74,0,0,1,1.08,3.3A5,5,0,0,1,155.27,68a4.75,4.75,0,0,1-3.56,1.32,5.07,5.07,0,0,1-2.75-.73,4.71,4.71,0,0,1-1.81-2.13A8.14,8.14,0,0,1,146.51,63.06Zm5.14,3.83a1.77,1.77,0,0,0,1.48-.65,2.9,2.9,0,0,0,.51-1.84,2.56,2.56,0,0,0-.48-1.64,1.74,1.74,0,0,0-1.45-.6,2.21,2.21,0,0,0-1.56.6,1.81,1.81,0,0,0-.65,1.38,3.09,3.09,0,0,0,.61,2A1.84,1.84,0,0,0,151.65,66.89Z" style="fill: #314041"/>
    <path d="M163.15,60a4.6,4.6,0,0,1,3.29,1.15,4.17,4.17,0,0,1,1.22,3.17A4.62,4.62,0,0,1,166.19,68a6.17,6.17,0,0,1-4.2,1.28,8.25,8.25,0,0,1-3.83-.76v-2.6a7.78,7.78,0,0,0,1.79.66,7.5,7.5,0,0,0,1.93.26c1.84,0,2.75-.75,2.75-2.25s-.95-2.15-2.85-2.15a6.74,6.74,0,0,0-1.13.1,8.25,8.25,0,0,0-1,.22l-1.19-.64.53-7.25h7.71v2.55h-5.07l-.26,2.79.34-.07A6.69,6.69,0,0,1,163.15,60Z" style="fill: #314041"/>
    <path d="M175.93,59.12a5.44,5.44,0,0,1-.87,3.36,3,3,0,0,1-2.54,1.12A2.92,2.92,0,0,1,170,62.45a5.46,5.46,0,0,1-.87-3.33c0-3,1.11-4.44,3.35-4.44a3,3,0,0,1,2.53,1.15A5.37,5.37,0,0,1,175.93,59.12Zm-4.31,0a5.65,5.65,0,0,0,.22,1.84c.14.41.38.61.7.61.62,0,.93-.82.93-2.45s-.31-2.43-.93-2.43c-.32,0-.56.2-.7.6A5.58,5.58,0,0,0,171.62,59.14Zm11-4.26L174.73,69.1h-2.34l7.89-14.22Zm3.26,9.92a5.41,5.41,0,0,1-.86,3.35,3,3,0,0,1-2.54,1.12A2.92,2.92,0,0,1,180,68.12a5.43,5.43,0,0,1-.88-3.32q0-4.44,3.36-4.44A3,3,0,0,1,185,61.51,5.3,5.3,0,0,1,185.88,64.8Zm-4.3,0a6,6,0,0,0,.21,1.84c.15.41.39.61.71.61.62,0,.93-.82.93-2.45s-.31-2.43-.93-2.43c-.32,0-.56.2-.71.6A5.92,5.92,0,0,0,181.58,64.82Z" style="fill: #314041"/>
  </g>
  <g>
    <path d="M293.7,111.54a3.35,3.35,0,0,1-.8,2.27,4.2,4.2,0,0,1-2.27,1.28v.06a4.54,4.54,0,0,1,2.61,1,2.94,2.94,0,0,1,.88,2.25,3.8,3.8,0,0,1-1.48,3.19,6.9,6.9,0,0,1-4.26,1.14,10.17,10.17,0,0,1-4.1-.77v-2.55a9.54,9.54,0,0,0,1.82.68,7.88,7.88,0,0,0,2,.26,3.78,3.78,0,0,0,2.2-.51,1.84,1.84,0,0,0,.71-1.62,1.46,1.46,0,0,0-.82-1.42,6,6,0,0,0-2.6-.42h-1.08v-2.3h1.1a5.06,5.06,0,0,0,2.41-.44,1.55,1.55,0,0,0,.77-1.48c0-1.08-.68-1.61-2-1.61a4.48,4.48,0,0,0-1.42.23,6.92,6.92,0,0,0-1.61.81l-1.39-2.07a7.69,7.69,0,0,1,4.64-1.41,6,6,0,0,1,3.49.9A2.88,2.88,0,0,1,293.7,111.54Z" style="fill: #314041"/>
    <path d="M305.55,115.47a9.93,9.93,0,0,1-1.22,5.51,4.22,4.22,0,0,1-3.76,1.79,4.17,4.17,0,0,1-3.71-1.85,9.78,9.78,0,0,1-1.25-5.45,10,10,0,0,1,1.22-5.55,4.73,4.73,0,0,1,7.46.08A9.81,9.81,0,0,1,305.55,115.47Zm-6.95,0a11.15,11.15,0,0,0,.45,3.75,1.58,1.58,0,0,0,3,0,10.79,10.79,0,0,0,.46-3.73,10.58,10.58,0,0,0-.47-3.76,1.58,1.58,0,0,0-3,0A11.18,11.18,0,0,0,298.6,115.47Z" style="fill: #314041"/>
    <path d="M313.63,112.6a5.51,5.51,0,0,1-.86,3.36,3,3,0,0,1-2.54,1.12,2.92,2.92,0,0,1-2.48-1.15,5.46,5.46,0,0,1-.88-3.33c0-3,1.12-4.45,3.36-4.45a3,3,0,0,1,2.52,1.16A5.3,5.3,0,0,1,313.63,112.6Zm-4.31,0a5.94,5.94,0,0,0,.22,1.84c.15.41.38.61.71.61.62,0,.93-.82.93-2.45s-.31-2.43-.93-2.43c-.33,0-.56.2-.71.6A5.82,5.82,0,0,0,309.32,112.62Zm11-4.26-7.88,14.22H310.1L318,108.36Zm3.27,9.92a5.5,5.5,0,0,1-.86,3.35,3,3,0,0,1-2.54,1.12,2.92,2.92,0,0,1-2.48-1.15,5.36,5.36,0,0,1-.88-3.32c0-3,1.12-4.45,3.36-4.45a3,3,0,0,1,2.52,1.16A5.3,5.3,0,0,1,323.59,118.28Zm-4.31,0a5.94,5.94,0,0,0,.22,1.84c.15.41.38.61.71.61.62,0,.93-.82.93-2.45s-.31-2.43-.93-2.43c-.33,0-.56.2-.71.6A5.82,5.82,0,0,0,319.28,118.3Z" style="fill: #314041"/>
  </g>
  <g>
    <path d="M91.7,94.13H84.54V81.28H91.7V82.6H86v4.14h5.33v1.32H86v4.73H91.7Z" style="fill: #314041"/>
    <path d="M98.72,84.32a5.73,5.73,0,0,1,1.15.1l-.2,1.36a4.83,4.83,0,0,0-1-.13,2.56,2.56,0,0,0-2,.94A3.46,3.46,0,0,0,95.79,89v5.17H94.33V84.49h1.2l.17,1.79h.07a4.27,4.27,0,0,1,1.29-1.45A2.93,2.93,0,0,1,98.72,84.32Z" style="fill: #314041"/>
    <path d="M108.27,94.13V87.9a2.49,2.49,0,0,0-.54-1.76,2.18,2.18,0,0,0-1.68-.58,2.76,2.76,0,0,0-2.22.82,4.24,4.24,0,0,0-.69,2.71v5h-1.46V80.45h1.46v4.14a8.39,8.39,0,0,1-.08,1.24h.09a3,3,0,0,1,1.23-1.09,3.92,3.92,0,0,1,1.81-.4,3.74,3.74,0,0,1,2.65.83,3.54,3.54,0,0,1,.89,2.67v6.29Z" style="fill: #314041"/>
    <path d="M121,89.3A5.32,5.32,0,0,1,119.85,93a4.18,4.18,0,0,1-3.28,1.32,4.37,4.37,0,0,1-2.29-.6A4.1,4.1,0,0,1,112.73,92a6.16,6.16,0,0,1-.54-2.66,5.29,5.29,0,0,1,1.18-3.67,4.17,4.17,0,0,1,3.27-1.31,4.11,4.11,0,0,1,3.21,1.34A5.32,5.32,0,0,1,121,89.3Zm-7.34,0a4.57,4.57,0,0,0,.74,2.81,2.54,2.54,0,0,0,2.17,1,2.57,2.57,0,0,0,2.17-1,4.52,4.52,0,0,0,.75-2.82,4.46,4.46,0,0,0-.75-2.79,2.61,2.61,0,0,0-2.19-1,2.57,2.57,0,0,0-2.16.94A4.48,4.48,0,0,0,113.7,89.3Z" style="fill: #314041"/>
    <path d="M125.05,94.13H123.6V80.45h1.45Z" style="fill: #314041"/>
    <path d="M132.22,94.3a4.4,4.4,0,0,1-3.37-1.3,5,5,0,0,1-1.24-3.61,5.61,5.61,0,0,1,1.15-3.7,3.78,3.78,0,0,1,3.08-1.37,3.63,3.63,0,0,1,2.87,1.19,4.57,4.57,0,0,1,1,3.14v.92h-6.64a3.86,3.86,0,0,0,.86,2.58,3,3,0,0,0,2.29.88,7.85,7.85,0,0,0,3.08-.65v1.3a8.35,8.35,0,0,1-1.47.48A8.72,8.72,0,0,1,132.22,94.3Zm-.4-8.76a2.37,2.37,0,0,0-1.85.76,3.46,3.46,0,0,0-.81,2.09h5a3.23,3.23,0,0,0-.62-2.12A2.17,2.17,0,0,0,131.82,85.54Z" style="fill: #314041"/>
    <path d="M144.84,94.13V87.9a2.49,2.49,0,0,0-.54-1.76,2.15,2.15,0,0,0-1.68-.58,2.78,2.78,0,0,0-2.21.81,4.14,4.14,0,0,0-.7,2.7v5.06h-1.46V84.49h1.18l.24,1.32h.07a3,3,0,0,1,1.26-1.1,4.1,4.1,0,0,1,1.8-.39,3.67,3.67,0,0,1,2.62.84,3.54,3.54,0,0,1,.88,2.68v6.29Z" style="fill: #314041"/>
    <path d="M160.18,91.5a2.39,2.39,0,0,1-1,2.07,4.67,4.67,0,0,1-2.81.73,6.19,6.19,0,0,1-3-.6V92.34a7.38,7.38,0,0,0,1.49.56,6.45,6.45,0,0,0,1.54.2,3.38,3.38,0,0,0,1.75-.37,1.25,1.25,0,0,0,.13-2.07,7.69,7.69,0,0,0-1.9-1,9.69,9.69,0,0,1-1.91-.87,2.65,2.65,0,0,1-.85-.85,2.22,2.22,0,0,1-.27-1.13,2.17,2.17,0,0,1,.95-1.86,4.44,4.44,0,0,1,2.63-.68,7.7,7.7,0,0,1,3,.63l-.52,1.19a6.91,6.91,0,0,0-2.62-.6,3.1,3.1,0,0,0-1.57.32,1,1,0,0,0-.53.9,1.1,1.1,0,0,0,.2.66,2.08,2.08,0,0,0,.64.52,14.2,14.2,0,0,0,1.69.71,6.36,6.36,0,0,1,2.31,1.26A2.21,2.21,0,0,1,160.18,91.5Z" style="fill: #314041"/>
    <path d="M162.43,81.88a1,1,0,0,1,.25-.73.85.85,0,0,1,.62-.23.88.88,0,0,1,.6.23,1.17,1.17,0,0,1,0,1.47.85.85,0,0,1-.6.24.86.86,0,0,1-.62-.24A1,1,0,0,1,162.43,81.88ZM164,94.13h-1.46V84.49H164Z" style="fill: #314041"/>
    <path d="M171,94.3A4.12,4.12,0,0,1,167.72,93a5.3,5.3,0,0,1-1.15-3.64,5.43,5.43,0,0,1,1.17-3.73,4.19,4.19,0,0,1,3.32-1.32,6.64,6.64,0,0,1,1.39.15,4.51,4.51,0,0,1,1.09.35l-.45,1.24a6.57,6.57,0,0,0-1.06-.32,4.43,4.43,0,0,0-1-.13c-2,0-2.93,1.25-2.93,3.74a4.51,4.51,0,0,0,.71,2.73,2.51,2.51,0,0,0,2.13,1,6.36,6.36,0,0,0,2.46-.52V93.8A5.15,5.15,0,0,1,171,94.3Z" style="fill: #314041"/>
    <path d="M182.27,94.13V87.9a2.54,2.54,0,0,0-.53-1.76,2.18,2.18,0,0,0-1.68-.58,2.74,2.74,0,0,0-2.22.82,4.17,4.17,0,0,0-.7,2.71v5h-1.46V80.45h1.46v4.14a8.56,8.56,0,0,1-.07,1.24h.09a2.88,2.88,0,0,1,1.22-1.09,4,4,0,0,1,1.82-.4,3.76,3.76,0,0,1,2.65.83,3.53,3.53,0,0,1,.88,2.67v6.29Z" style="fill: #314041"/>
    <path d="M89.12,105.94a3.6,3.6,0,0,1,2.95,1.29,5.71,5.71,0,0,1,1.05,3.67,5.79,5.79,0,0,1-1.06,3.69,3.59,3.59,0,0,1-2.94,1.31,4.19,4.19,0,0,1-1.72-.34,3.3,3.3,0,0,1-1.31-1.07H86l-.31,1.24H84.63V102.05h1.46v3.32c0,.75,0,1.42-.07,2h.07A3.47,3.47,0,0,1,89.12,105.94Zm-.21,1.22a2.56,2.56,0,0,0-2.16.85,6.61,6.61,0,0,0,0,5.8,2.57,2.57,0,0,0,2.17.87,2.24,2.24,0,0,0,2-1,5,5,0,0,0,.66-2.82,4.84,4.84,0,0,0-.66-2.8A2.29,2.29,0,0,0,88.91,107.16Z" style="fill: #314041"/>
    <path d="M99.73,115.9a4.43,4.43,0,0,1-3.37-1.3A5,5,0,0,1,95.13,111a5.55,5.55,0,0,1,1.15-3.7,3.81,3.81,0,0,1,3.08-1.37,3.61,3.61,0,0,1,2.86,1.19,4.57,4.57,0,0,1,1.06,3.14v.92H96.64a3.86,3.86,0,0,0,.86,2.58,3,3,0,0,0,2.29.88,7.8,7.8,0,0,0,3.07-.65v1.3a8,8,0,0,1-1.46.48A8.83,8.83,0,0,1,99.73,115.9Zm-.39-8.76a2.36,2.36,0,0,0-1.85.76,3.46,3.46,0,0,0-.81,2.09h5a3.23,3.23,0,0,0-.61-2.12A2.17,2.17,0,0,0,99.34,107.14Z" style="fill: #314041"/>
    <path d="M110.16,105.92a5.73,5.73,0,0,1,1.15.1l-.2,1.36a4.84,4.84,0,0,0-1.06-.13,2.58,2.58,0,0,0-2,.94,3.51,3.51,0,0,0-.83,2.37v5.17h-1.46v-9.64H107l.16,1.79h.07a4.19,4.19,0,0,1,1.3-1.45A2.88,2.88,0,0,1,110.16,105.92Z" style="fill: #314041"/>
    <path d="M117.18,115.9a4.41,4.41,0,0,1-3.37-1.3,5.05,5.05,0,0,1-1.24-3.61,5.61,5.61,0,0,1,1.15-3.7,3.83,3.83,0,0,1,3.08-1.37,3.63,3.63,0,0,1,2.87,1.19,4.57,4.57,0,0,1,1,3.14v.92h-6.63a3.85,3.85,0,0,0,.85,2.58,3,3,0,0,0,2.29.88,7.82,7.82,0,0,0,3.08-.65v1.3a8.27,8.27,0,0,1-1.46.48A8.83,8.83,0,0,1,117.18,115.9Zm-.4-8.76a2.37,2.37,0,0,0-1.85.76,3.46,3.46,0,0,0-.81,2.09h5a3.23,3.23,0,0,0-.62-2.12A2.15,2.15,0,0,0,116.78,107.14Z" style="fill: #314041"/>
    <path d="M123.09,103.48a1,1,0,0,1,.24-.73.85.85,0,0,1,.62-.23.88.88,0,0,1,.6.23,1.17,1.17,0,0,1,0,1.47.85.85,0,0,1-.6.24.86.86,0,0,1-.62-.24A1,1,0,0,1,123.09,103.48Zm1.58,12.25h-1.46v-9.64h1.46Z" style="fill: #314041"/>
    <path d="M130.87,114.7a4.56,4.56,0,0,0,.75-.06,5.41,5.41,0,0,0,.57-.12v1.12a2.94,2.94,0,0,1-.7.19,5.07,5.07,0,0,1-.83.07q-2.79,0-2.79-2.94v-5.73h-1.38v-.71l1.38-.6.61-2.06h.85v2.23h2.79v1.14h-2.79v5.67a1.91,1.91,0,0,0,.41,1.33A1.43,1.43,0,0,0,130.87,114.7Z" style="fill: #314041"/>
    <path d="M140.33,113.1a2.39,2.39,0,0,1-1,2.07,4.69,4.69,0,0,1-2.81.73,6.16,6.16,0,0,1-3-.6v-1.36a7.16,7.16,0,0,0,1.49.56,6.43,6.43,0,0,0,1.53.2,3.42,3.42,0,0,0,1.76-.37,1.19,1.19,0,0,0,.61-1.11,1.22,1.22,0,0,0-.48-1,7.81,7.81,0,0,0-1.91-1,10.29,10.29,0,0,1-1.91-.87,2.51,2.51,0,0,1-.84-.85,2.13,2.13,0,0,1-.28-1.13,2.15,2.15,0,0,1,1-1.86,4.49,4.49,0,0,1,2.63-.68,7.74,7.74,0,0,1,3,.63l-.52,1.19a7,7,0,0,0-2.63-.6,3.08,3.08,0,0,0-1.56.32,1,1,0,0,0-.53.9,1.1,1.1,0,0,0,.2.66,1.9,1.9,0,0,0,.63.52,15.9,15.9,0,0,0,1.69.71,6.42,6.42,0,0,1,2.32,1.26A2.21,2.21,0,0,1,140.33,113.1Z" style="fill: #314041"/>
    <path d="M155.69,110.9a5.32,5.32,0,0,1-1.18,3.68,4.19,4.19,0,0,1-3.28,1.32,4.41,4.41,0,0,1-2.3-.6,4.08,4.08,0,0,1-1.54-1.74,6,6,0,0,1-.55-2.66,5.34,5.34,0,0,1,1.18-3.67,4.2,4.2,0,0,1,3.27-1.31,4.08,4.08,0,0,1,3.21,1.34A5.27,5.27,0,0,1,155.69,110.9Zm-7.34,0a4.57,4.57,0,0,0,.74,2.81,2.56,2.56,0,0,0,2.17,1,2.59,2.59,0,0,0,2.18-1,4.58,4.58,0,0,0,.74-2.82,4.53,4.53,0,0,0-.74-2.79,2.63,2.63,0,0,0-2.19-1,2.57,2.57,0,0,0-2.17.94A4.55,4.55,0,0,0,148.35,110.9Z" style="fill: #314041"/>
    <path d="M164.81,114.43h-.08a3.43,3.43,0,0,1-3,1.47,3.58,3.58,0,0,1-2.94-1.29,5.69,5.69,0,0,1-1.05-3.67,5.8,5.8,0,0,1,1.05-3.7,3.54,3.54,0,0,1,2.94-1.32,3.5,3.5,0,0,1,3,1.42h.12l-.07-.69,0-.68v-3.92h1.46v13.68H165Zm-2.92.25a2.67,2.67,0,0,0,2.17-.81,4.11,4.11,0,0,0,.67-2.63v-.3a4.9,4.9,0,0,0-.68-2.93,2.61,2.61,0,0,0-2.18-.87,2.22,2.22,0,0,0-2,1,4.88,4.88,0,0,0-.68,2.81,4.79,4.79,0,0,0,.67,2.79A2.29,2.29,0,0,0,161.89,114.68Z" style="fill: #314041"/>
    <path d="M173.35,115.9a4.41,4.41,0,0,1-3.37-1.3,5,5,0,0,1-1.23-3.61,5.6,5.6,0,0,1,1.14-3.7,3.83,3.83,0,0,1,3.08-1.37,3.61,3.61,0,0,1,2.87,1.19,4.57,4.57,0,0,1,1,3.14v.92h-6.63a3.85,3.85,0,0,0,.85,2.58,3,3,0,0,0,2.29.88,7.82,7.82,0,0,0,3.08-.65v1.3a8.27,8.27,0,0,1-1.46.48A8.83,8.83,0,0,1,173.35,115.9Zm-.39-8.76a2.36,2.36,0,0,0-1.85.76,3.46,3.46,0,0,0-.82,2.09h5a3.23,3.23,0,0,0-.62-2.12A2.15,2.15,0,0,0,173,107.14Z" style="fill: #314041"/>
    <path d="M183.77,105.92a5.83,5.83,0,0,1,1.16.1l-.21,1.36a4.76,4.76,0,0,0-1.05-.13,2.56,2.56,0,0,0-2,.94,3.51,3.51,0,0,0-.83,2.37v5.17h-1.46v-9.64h1.2l.17,1.79h.07a4.27,4.27,0,0,1,1.29-1.45A2.93,2.93,0,0,1,183.77,105.92Z" style="fill: #314041"/>
    <path d="M59.43,137.33l-1.77-5.66c-.11-.34-.32-1.13-.62-2.35H57c-.24,1-.44,1.82-.62,2.37l-1.82,5.64H52.84l-2.62-9.64h1.53c.62,2.42,1.09,4.27,1.42,5.53a21.58,21.58,0,0,1,.55,2.56h.07c.07-.33.17-.77.32-1.3s.26-.95.37-1.26l1.77-5.53h1.58l1.72,5.53a19.15,19.15,0,0,1,.67,2.54h.07a9.18,9.18,0,0,1,.19-1q.15-.66,1.83-7.1h1.51l-2.66,9.64Z" style="fill: #314041"/>
    <path d="M71.49,137.33,71.2,136h-.07a4.09,4.09,0,0,1-1.44,1.22,4.48,4.48,0,0,1-1.79.32,3.2,3.2,0,0,1-2.25-.74,2.69,2.69,0,0,1-.81-2.1q0-2.91,4.67-3.06l1.63,0V131a2.47,2.47,0,0,0-.48-1.67,2,2,0,0,0-1.56-.54,6.37,6.37,0,0,0-2.73.74l-.45-1.12a6.8,6.8,0,0,1,3.26-.82,3.7,3.7,0,0,1,2.56.76,3.21,3.21,0,0,1,.83,2.45v6.58Zm-3.3-1a3,3,0,0,0,2.14-.75,2.75,2.75,0,0,0,.78-2.09v-.87l-1.46.06a5.28,5.28,0,0,0-2.51.54,1.64,1.64,0,0,0-.77,1.49,1.48,1.48,0,0,0,.48,1.2A2,2,0,0,0,68.19,136.3Z" style="fill: #314041"/>
    <path d="M79.42,137.5a4.12,4.12,0,0,1-3.24-1.29A5.29,5.29,0,0,1,75,132.57a5.46,5.46,0,0,1,1.16-3.73,4.19,4.19,0,0,1,3.32-1.32,6.64,6.64,0,0,1,1.39.15A4.51,4.51,0,0,1,82,128l-.45,1.24a6,6,0,0,0-1.06-.32,4.37,4.37,0,0,0-1-.13q-2.92,0-2.93,3.74a4.51,4.51,0,0,0,.71,2.73,2.51,2.51,0,0,0,2.13.95,6.64,6.64,0,0,0,2.47-.52V137A5.35,5.35,0,0,1,79.42,137.5Z" style="fill: #314041"/>
    <path d="M90.73,137.33v-6.24a2.53,2.53,0,0,0-.53-1.75,2.18,2.18,0,0,0-1.68-.58,2.76,2.76,0,0,0-2.22.82,4.17,4.17,0,0,0-.7,2.71v5H84.14V123.65H85.6v4.14a8.56,8.56,0,0,1-.07,1.24h.09a2.91,2.91,0,0,1,1.23-1.09,3.92,3.92,0,0,1,1.81-.4,3.71,3.71,0,0,1,2.65.84,3.49,3.49,0,0,1,.88,2.66v6.29Z" style="fill: #314041"/>
    <path d="M101.4,134.7a2.4,2.4,0,0,1-1,2.07,4.67,4.67,0,0,1-2.81.73,6.19,6.19,0,0,1-3-.6v-1.36a7.16,7.16,0,0,0,1.49.56,6.43,6.43,0,0,0,1.53.2,3.39,3.39,0,0,0,1.76-.37,1.25,1.25,0,0,0,.13-2.07,7.88,7.88,0,0,0-1.9-1A9.69,9.69,0,0,1,95.7,132a2.65,2.65,0,0,1-.85-.85,2.23,2.23,0,0,1-.28-1.13,2.15,2.15,0,0,1,1-1.86,4.51,4.51,0,0,1,2.63-.68,7.7,7.7,0,0,1,3,.63l-.52,1.19a6.92,6.92,0,0,0-2.63-.6,3.08,3.08,0,0,0-1.56.32,1,1,0,0,0-.53.9,1.1,1.1,0,0,0,.2.66,2.08,2.08,0,0,0,.64.52,14.2,14.2,0,0,0,1.69.71,6.36,6.36,0,0,1,2.31,1.26A2.21,2.21,0,0,1,101.4,134.7Z" style="fill: #314041"/>
    <path d="M107.85,137.5a4.4,4.4,0,0,1-3.37-1.3,5,5,0,0,1-1.24-3.61,5.55,5.55,0,0,1,1.15-3.7,3.78,3.78,0,0,1,3.08-1.37,3.63,3.63,0,0,1,2.86,1.19,4.52,4.52,0,0,1,1.06,3.14v.92h-6.64a3.86,3.86,0,0,0,.86,2.58,3,3,0,0,0,2.29.88,7.77,7.77,0,0,0,3.07-.65v1.3a8,8,0,0,1-1.46.48A8.72,8.72,0,0,1,107.85,137.5Zm-.4-8.76a2.37,2.37,0,0,0-1.85.76,3.46,3.46,0,0,0-.81,2.09h5a3.23,3.23,0,0,0-.61-2.12A2.17,2.17,0,0,0,107.45,128.74Z" style="fill: #314041"/>
    <path d="M120.47,137.33v-6.24a2.48,2.48,0,0,0-.54-1.75,2.18,2.18,0,0,0-1.68-.58,2.77,2.77,0,0,0-2.21.81,4.14,4.14,0,0,0-.71,2.7v5.06h-1.45v-9.64h1.18l.24,1.32h.07a3,3,0,0,1,1.26-1.1,4.1,4.1,0,0,1,1.8-.39,3.67,3.67,0,0,1,2.62.84,3.58,3.58,0,0,1,.88,2.68v6.29Z" style="fill: #314041"/>
    <path d="M137.47,137.33l-1.77-5.66c-.11-.34-.32-1.13-.63-2.35H135c-.23,1-.44,1.82-.61,2.37l-1.82,5.64h-1.69l-2.63-9.64h1.53c.62,2.42,1.1,4.27,1.42,5.53a22.35,22.35,0,0,1,.56,2.56h.07c.07-.33.17-.77.31-1.3s.27-.95.38-1.26l1.76-5.53h1.59l1.72,5.53a19.15,19.15,0,0,1,.67,2.54h.07a7.14,7.14,0,0,1,.19-1q.15-.66,1.83-7.1h1.51l-2.66,9.64Z" style="fill: #314041"/>
    <path d="M143.48,125.08a1,1,0,0,1,.24-.73.85.85,0,0,1,.62-.23.88.88,0,0,1,.6.23,1,1,0,0,1,.26.73,1,1,0,0,1-.26.74.85.85,0,0,1-.6.24.86.86,0,0,1-.62-.24A1,1,0,0,1,143.48,125.08Zm1.58,12.25H143.6v-9.64h1.46Z" style="fill: #314041"/>
    <path d="M152.22,137.5a4.43,4.43,0,0,1-3.37-1.3,5,5,0,0,1-1.23-3.61,5.6,5.6,0,0,1,1.14-3.7,3.8,3.8,0,0,1,3.08-1.37,3.65,3.65,0,0,1,2.87,1.19,4.57,4.57,0,0,1,1,3.14v.92h-6.63a3.81,3.81,0,0,0,.86,2.58,3,3,0,0,0,2.28.88,7.82,7.82,0,0,0,3.08-.65v1.3a8,8,0,0,1-1.46.48A8.83,8.83,0,0,1,152.22,137.5Zm-.39-8.76a2.36,2.36,0,0,0-1.85.76,3.52,3.52,0,0,0-.82,2.09h5a3.23,3.23,0,0,0-.62-2.12A2.15,2.15,0,0,0,151.83,128.74Z" style="fill: #314041"/>
    <path d="M164.81,136h-.08a3.43,3.43,0,0,1-3,1.47,3.58,3.58,0,0,1-2.94-1.29,5.69,5.69,0,0,1-1.05-3.67,5.78,5.78,0,0,1,1.05-3.7,3.54,3.54,0,0,1,2.94-1.32,3.5,3.5,0,0,1,3,1.42h.12l-.07-.69,0-.68v-3.92h1.46v13.68H165Zm-2.92.25a2.67,2.67,0,0,0,2.17-.81,4.11,4.11,0,0,0,.67-2.63v-.3a4.9,4.9,0,0,0-.68-2.93,2.61,2.61,0,0,0-2.18-.87,2.22,2.22,0,0,0-2,1,4.88,4.88,0,0,0-.68,2.81,4.79,4.79,0,0,0,.67,2.79A2.29,2.29,0,0,0,161.89,136.28Z" style="fill: #314041"/>
    <path d="M173.35,137.5a4.41,4.41,0,0,1-3.37-1.3,5,5,0,0,1-1.23-3.61,5.6,5.6,0,0,1,1.14-3.7,3.8,3.8,0,0,1,3.08-1.37,3.65,3.65,0,0,1,2.87,1.19,4.57,4.57,0,0,1,1,3.14v.92h-6.63a3.85,3.85,0,0,0,.85,2.58,3,3,0,0,0,2.29.88,7.82,7.82,0,0,0,3.08-.65v1.3a8.27,8.27,0,0,1-1.46.48A8.83,8.83,0,0,1,173.35,137.5Zm-.39-8.76a2.36,2.36,0,0,0-1.85.76,3.46,3.46,0,0,0-.82,2.09h5a3.23,3.23,0,0,0-.62-2.12A2.15,2.15,0,0,0,173,128.74Z" style="fill: #314041"/>
    <path d="M183.77,127.52a5.83,5.83,0,0,1,1.16.1l-.21,1.36a4.83,4.83,0,0,0-1.05-.14,2.57,2.57,0,0,0-2,.95,3.49,3.49,0,0,0-.83,2.37v5.17h-1.46v-9.64h1.2l.17,1.79h.07a4.27,4.27,0,0,1,1.29-1.45A2.93,2.93,0,0,1,183.77,127.52Z" style="fill: #314041"/>
  </g>
  <g>
    <path d="M216.73,229.69l-.89-2.27H213l-.88,2.27h-.84l2.83-7.16h.69l2.81,7.16Zm-1.14-3-.83-2.21c-.11-.28-.22-.63-.34-1a10.06,10.06,0,0,1-.3,1l-.84,2.21Z" style="fill: #304041"/>
    <path d="M222.83,224.34v.52l-1,.11a1.89,1.89,0,0,1,.24.45,1.52,1.52,0,0,1,.11.62,1.59,1.59,0,0,1-.54,1.26,2.16,2.16,0,0,1-1.47.47,3.14,3.14,0,0,1-.45,0,.8.8,0,0,0-.52.69.35.35,0,0,0,.18.32,1.31,1.31,0,0,0,.62.11h1a2.16,2.16,0,0,1,1.34.36,1.28,1.28,0,0,1,.46,1.07,1.5,1.5,0,0,1-.71,1.35,3.84,3.84,0,0,1-2.08.47,2.85,2.85,0,0,1-1.62-.39,1.27,1.27,0,0,1-.57-1.11,1.24,1.24,0,0,1,.32-.84,1.59,1.59,0,0,1,.87-.49.83.83,0,0,1-.34-.28.78.78,0,0,1-.14-.46.84.84,0,0,1,.16-.51,1.49,1.49,0,0,1,.49-.42,1.48,1.48,0,0,1-.68-.59,1.71,1.71,0,0,1-.26-.93,1.75,1.75,0,0,1,.53-1.36,2.13,2.13,0,0,1,1.49-.47,2.93,2.93,0,0,1,.76.09Zm-4.27,6.25a.74.74,0,0,0,.37.66,2,2,0,0,0,1,.23,2.86,2.86,0,0,0,1.51-.31.93.93,0,0,0,.49-.83.65.65,0,0,0-.27-.6,2.09,2.09,0,0,0-1-.17h-1a1.27,1.27,0,0,0-.86.27A.94.94,0,0,0,218.56,230.59Zm.44-4.53a1.12,1.12,0,0,0,.32.85,1.27,1.27,0,0,0,.88.28c.8,0,1.19-.38,1.19-1.15a1.06,1.06,0,0,0-1.2-1.2,1.22,1.22,0,0,0-.88.3A1.28,1.28,0,0,0,219,226.06Z" style="fill: #304041"/>
    <path d="M223.86,222.89a.52.52,0,0,1,.14-.4.45.45,0,0,1,.34-.13.48.48,0,0,1,.34.13.54.54,0,0,1,.14.4.55.55,0,0,1-.14.41.49.49,0,0,1-.34.14.46.46,0,0,1-.34-.14A.55.55,0,0,1,223.86,222.89Zm.88,6.8h-.81v-5.35h.81Z" style="fill: #304041"/>
    <path d="M227.27,229.69h-.81V222.1h.81Z" style="fill: #304041"/>
    <path d="M231.25,229.79a2.45,2.45,0,0,1-1.87-.72,2.79,2.79,0,0,1-.69-2,3.07,3.07,0,0,1,.64-2.05,2.09,2.09,0,0,1,1.71-.76,2,2,0,0,1,1.59.66,2.53,2.53,0,0,1,.59,1.74v.52h-3.69a2.17,2.17,0,0,0,.48,1.43,1.65,1.65,0,0,0,1.27.48,4.38,4.38,0,0,0,1.71-.36v.73a4.28,4.28,0,0,1-.82.26A4.09,4.09,0,0,1,231.25,229.79Zm-.22-4.87a1.33,1.33,0,0,0-1,.42,2,2,0,0,0-.45,1.17h2.8a1.84,1.84,0,0,0-.34-1.18A1.22,1.22,0,0,0,231,224.92Z" style="fill: #304041"/>
    <path d="M237,224.25a4.06,4.06,0,0,1,.64.05l-.11.76A2.75,2.75,0,0,0,237,225a1.44,1.44,0,0,0-1.11.53,1.91,1.91,0,0,0-.46,1.31v2.87h-.81v-5.35h.67l.09,1h0a2.44,2.44,0,0,1,.72-.8A1.61,1.61,0,0,1,237,224.25Z" style="fill: #304041"/>
    <path d="M240.94,229.79a2.46,2.46,0,0,1-1.87-.72,2.79,2.79,0,0,1-.69-2A3.12,3.12,0,0,1,239,225a2.11,2.11,0,0,1,1.71-.76,2,2,0,0,1,1.59.66,2.53,2.53,0,0,1,.59,1.74v.52h-3.69a2.17,2.17,0,0,0,.48,1.43,1.65,1.65,0,0,0,1.27.48,4.3,4.3,0,0,0,1.71-.36v.73a4.43,4.43,0,0,1-.81.26A4.24,4.24,0,0,1,240.94,229.79Zm-.22-4.87a1.33,1.33,0,0,0-1,.42,2,2,0,0,0-.45,1.17H242a1.79,1.79,0,0,0-.34-1.18A1.22,1.22,0,0,0,240.72,224.92Z" style="fill: #304041"/>
    <path d="M200.93,234.56v4.62a2.46,2.46,0,0,1-.74,1.91,2.79,2.79,0,0,1-2,.7,2.71,2.71,0,0,1-2-.7,2.6,2.6,0,0,1-.7-1.93v-4.6h.83v4.65a1.83,1.83,0,0,0,.49,1.38,1.94,1.94,0,0,0,1.43.47,1.89,1.89,0,0,0,1.39-.48,1.83,1.83,0,0,0,.49-1.38v-4.64Z" style="fill: #304041"/>
    <path d="M206.36,241.69v-3.46a1.37,1.37,0,0,0-.3-1,1.18,1.18,0,0,0-.93-.33,1.55,1.55,0,0,0-1.23.46,2.29,2.29,0,0,0-.39,1.5v2.8h-.81v-5.35h.66l.13.74h0a1.69,1.69,0,0,1,.7-.62,2.33,2.33,0,0,1,1-.21,2,2,0,0,1,1.45.46,2,2,0,0,1,.49,1.49v3.49Z" style="fill: #304041"/>
    <path d="M210.57,241.12a2.73,2.73,0,0,0,.41,0l.32-.06v.62a1.8,1.8,0,0,1-.39.1,2.6,2.6,0,0,1-.46,0c-1,0-1.55-.54-1.55-1.63V237h-.77v-.39l.77-.33.34-1.15h.47v1.24h1.55V237h-1.55v3.15a1,1,0,0,0,.23.74A.77.77,0,0,0,210.57,241.12Z" style="fill: #304041"/>
    <path d="M214.63,241.79a2.45,2.45,0,0,1-1.87-.72,2.79,2.79,0,0,1-.69-2,3.07,3.07,0,0,1,.64-2.05,2.09,2.09,0,0,1,1.71-.76,2,2,0,0,1,1.59.66,2.53,2.53,0,0,1,.59,1.74v.52h-3.69a2.12,2.12,0,0,0,.48,1.43,1.65,1.65,0,0,0,1.27.48,4.38,4.38,0,0,0,1.71-.36v.73a4.28,4.28,0,0,1-.82.26A4.09,4.09,0,0,1,214.63,241.79Zm-.22-4.87a1.33,1.33,0,0,0-1,.42,2,2,0,0,0-.45,1.17h2.8a1.84,1.84,0,0,0-.34-1.18A1.22,1.22,0,0,0,214.41,236.92Z" style="fill: #304041"/>
    <path d="M220.42,236.25a4.06,4.06,0,0,1,.64.05l-.11.76a2.84,2.84,0,0,0-.59-.08,1.44,1.44,0,0,0-1.11.53,1.91,1.91,0,0,0-.46,1.31v2.87H218v-5.35h.67l.09,1h0a2.44,2.44,0,0,1,.72-.8A1.58,1.58,0,0,1,220.42,236.25Z" style="fill: #304041"/>
    <path d="M225.72,241.69v-3.46a1.37,1.37,0,0,0-.3-1,1.18,1.18,0,0,0-.93-.33,1.55,1.55,0,0,0-1.23.46,2.29,2.29,0,0,0-.39,1.5v2.8h-.81v-5.35h.66l.13.74h0a1.69,1.69,0,0,1,.7-.62,2.33,2.33,0,0,1,1-.21,2,2,0,0,1,1.45.46,2,2,0,0,1,.49,1.49v3.49Z" style="fill: #304041"/>
    <path d="M230.46,241.79a2.45,2.45,0,0,1-1.87-.72,2.79,2.79,0,0,1-.69-2,3.07,3.07,0,0,1,.64-2.05,2.09,2.09,0,0,1,1.71-.76,2,2,0,0,1,1.59.66,2.53,2.53,0,0,1,.59,1.74v.52h-3.69a2.12,2.12,0,0,0,.48,1.43,1.65,1.65,0,0,0,1.27.48,4.38,4.38,0,0,0,1.71-.36v.73a4.28,4.28,0,0,1-.82.26A4.09,4.09,0,0,1,230.46,241.79Zm-.22-4.87a1.33,1.33,0,0,0-1,.42,2,2,0,0,0-.45,1.17h2.8a1.84,1.84,0,0,0-.34-1.18A1.22,1.22,0,0,0,230.24,236.92Z" style="fill: #304041"/>
    <path d="M237.47,241.69v-3.46a1.37,1.37,0,0,0-.3-1,1.2,1.2,0,0,0-.93-.33,1.53,1.53,0,0,0-1.23.46,2.34,2.34,0,0,0-.39,1.51v2.79h-.81V234.1h.81v2.3a4.58,4.58,0,0,1,0,.69h0a1.62,1.62,0,0,1,.68-.61,2.18,2.18,0,0,1,1-.22,2.07,2.07,0,0,1,1.47.46,2,2,0,0,1,.49,1.48v3.49Z" style="fill: #304041"/>
    <path d="M246.77,241.69v-3.48a1.43,1.43,0,0,0-.28-1,1.06,1.06,0,0,0-.85-.32,1.36,1.36,0,0,0-1.11.44,2,2,0,0,0-.37,1.34v3h-.81v-3.48a1.48,1.48,0,0,0-.27-1,1.07,1.07,0,0,0-.85-.32,1.35,1.35,0,0,0-1.12.46,2.44,2.44,0,0,0-.35,1.5v2.8H240v-5.35h.65l.14.74h0a1.51,1.51,0,0,1,.64-.61,2,2,0,0,1,.94-.22,1.6,1.6,0,0,1,1.64.9h0a1.69,1.69,0,0,1,.69-.66,2.19,2.19,0,0,1,1-.24,1.84,1.84,0,0,1,1.36.46,2.09,2.09,0,0,1,.45,1.49v3.49Z" style="fill: #304041"/>
    <path d="M251.51,241.79a2.45,2.45,0,0,1-1.87-.72,2.79,2.79,0,0,1-.69-2,3.07,3.07,0,0,1,.64-2.05,2.09,2.09,0,0,1,1.71-.76,2,2,0,0,1,1.59.66,2.53,2.53,0,0,1,.59,1.74v.52h-3.69a2.17,2.17,0,0,0,.47,1.43,1.69,1.69,0,0,0,1.28.48,4.38,4.38,0,0,0,1.71-.36v.73a4.28,4.28,0,0,1-.82.26A4.09,4.09,0,0,1,251.51,241.79Zm-.22-4.87a1.33,1.33,0,0,0-1,.42,2,2,0,0,0-.45,1.17h2.8a1.79,1.79,0,0,0-.35-1.18A1.19,1.19,0,0,0,251.29,236.92Z" style="fill: #304041"/>
    <path d="M258.52,241.69v-3.46a1.37,1.37,0,0,0-.3-1,1.2,1.2,0,0,0-.93-.33,1.55,1.55,0,0,0-1.23.46,2.29,2.29,0,0,0-.39,1.5v2.8h-.81v-5.35h.66l.13.74h0a1.63,1.63,0,0,1,.7-.62,2.33,2.33,0,0,1,1-.21,2,2,0,0,1,1.45.46,2,2,0,0,1,.49,1.49v3.49Z" style="fill: #304041"/>
  </g>
  <g>
    <path d="M280.23,229.69h-.82L278,224.91c-.07-.21-.15-.47-.23-.8a5.54,5.54,0,0,1-.14-.58,10.19,10.19,0,0,1-.34,1.41l-1.39,4.75h-.82l-1.9-7.13H274l1.13,4.41a14.3,14.3,0,0,1,.34,1.68,11.39,11.39,0,0,1,.4-1.75l1.27-4.34H278l1.35,4.38a14.59,14.59,0,0,1,.39,1.71,14.25,14.25,0,0,1,.35-1.69l1.13-4.4h.88Z" style="fill: #304041"/>
    <path d="M285.39,229.79a2.46,2.46,0,0,1-1.87-.72,2.79,2.79,0,0,1-.69-2,3.12,3.12,0,0,1,.64-2.05,2.11,2.11,0,0,1,1.71-.76,2,2,0,0,1,1.59.66,2.53,2.53,0,0,1,.59,1.74v.52h-3.69a2.17,2.17,0,0,0,.48,1.43,1.65,1.65,0,0,0,1.27.48,4.3,4.3,0,0,0,1.71-.36v.73a4.43,4.43,0,0,1-.81.26A4.24,4.24,0,0,1,285.39,229.79Zm-.22-4.87a1.33,1.33,0,0,0-1,.42,2,2,0,0,0-.45,1.17h2.8a1.79,1.79,0,0,0-.34-1.18A1.21,1.21,0,0,0,285.17,224.92Z" style="fill: #304041"/>
    <path d="M292.4,229.69v-3.46a1.42,1.42,0,0,0-.29-1,1.21,1.21,0,0,0-.94-.33,1.55,1.55,0,0,0-1.23.46,2.29,2.29,0,0,0-.39,1.5v2.8h-.81v-5.35h.66l.13.74h0a1.69,1.69,0,0,1,.7-.62,2.33,2.33,0,0,1,1-.21,2,2,0,0,1,1.46.46,2,2,0,0,1,.48,1.49v3.49Z" style="fill: #304041"/>
    <path d="M294.81,222.89a.52.52,0,0,1,.14-.4.45.45,0,0,1,.34-.13.48.48,0,0,1,.34.13.54.54,0,0,1,.14.4.55.55,0,0,1-.14.41.49.49,0,0,1-.34.14.46.46,0,0,1-.34-.14A.55.55,0,0,1,294.81,222.89Zm.88,6.8h-.81v-5.35h.81Z" style="fill: #304041"/>
    <path d="M301.79,224.34v.52l-1,.11a1.89,1.89,0,0,1,.24.45,1.71,1.71,0,0,1,.11.62,1.59,1.59,0,0,1-.54,1.26,2.18,2.18,0,0,1-1.47.47,3.14,3.14,0,0,1-.45,0,.79.79,0,0,0-.52.69.35.35,0,0,0,.18.32,1.31,1.31,0,0,0,.62.11h.95a2.13,2.13,0,0,1,1.33.36,1.29,1.29,0,0,1,.47,1.07,1.52,1.52,0,0,1-.71,1.35,3.84,3.84,0,0,1-2.08.47,2.85,2.85,0,0,1-1.62-.39,1.27,1.27,0,0,1-.57-1.11,1.23,1.23,0,0,1,.31-.84,1.62,1.62,0,0,1,.88-.49.77.77,0,0,1-.34-.28.72.72,0,0,1-.14-.46.9.9,0,0,1,.15-.51,1.54,1.54,0,0,1,.5-.42,1.48,1.48,0,0,1-.68-.59,1.71,1.71,0,0,1-.26-.93,1.75,1.75,0,0,1,.53-1.36,2.13,2.13,0,0,1,1.49-.47,3,3,0,0,1,.76.09Zm-4.27,6.25a.72.72,0,0,0,.37.66,2,2,0,0,0,1.05.23,2.86,2.86,0,0,0,1.51-.31.93.93,0,0,0,.49-.83.65.65,0,0,0-.27-.6,2.12,2.12,0,0,0-1-.17h-1a1.25,1.25,0,0,0-.86.27A.91.91,0,0,0,297.52,230.59Zm.44-4.53a1.12,1.12,0,0,0,.32.85,1.26,1.26,0,0,0,.88.28,1,1,0,0,0,1.19-1.15,1.06,1.06,0,0,0-1.2-1.2,1.2,1.2,0,0,0-.88.3A1.23,1.23,0,0,0,298,226.06Z" style="fill: #304041"/>
    <path d="M305.15,229.79a2.45,2.45,0,0,1-1.87-.72,2.79,2.79,0,0,1-.69-2,3.07,3.07,0,0,1,.64-2.05,2.09,2.09,0,0,1,1.71-.76,2,2,0,0,1,1.59.66,2.53,2.53,0,0,1,.59,1.74v.52h-3.69a2.17,2.17,0,0,0,.47,1.43,1.69,1.69,0,0,0,1.28.48,4.38,4.38,0,0,0,1.71-.36v.73a4.28,4.28,0,0,1-.82.26A4.09,4.09,0,0,1,305.15,229.79Zm-.22-4.87a1.33,1.33,0,0,0-1,.42,1.89,1.89,0,0,0-.45,1.17h2.8a1.79,1.79,0,0,0-.35-1.18A1.19,1.19,0,0,0,304.93,224.92Z" style="fill: #304041"/>
    <path d="M310.94,224.25a4.06,4.06,0,0,1,.64.05l-.11.76a2.84,2.84,0,0,0-.59-.08,1.44,1.44,0,0,0-1.11.53,1.91,1.91,0,0,0-.46,1.31v2.87h-.81v-5.35h.67l.09,1h0a2.44,2.44,0,0,1,.72-.8A1.58,1.58,0,0,1,310.94,224.25Z" style="fill: #304041"/>
    <path d="M318.47,229.69l-.16-.76h0a2.18,2.18,0,0,1-.8.68,2.43,2.43,0,0,1-1,.18,1.76,1.76,0,0,1-1.25-.41,1.48,1.48,0,0,1-.45-1.16c0-1.09.86-1.65,2.59-1.7l.91,0v-.34a1.36,1.36,0,0,0-.27-.93,1.12,1.12,0,0,0-.87-.3,3.54,3.54,0,0,0-1.51.41l-.25-.62a3.91,3.91,0,0,1,1.81-.45,2.06,2.06,0,0,1,1.42.42,1.76,1.76,0,0,1,.46,1.36v3.65Zm-1.83-.57a1.64,1.64,0,0,0,1.19-.41,1.58,1.58,0,0,0,.43-1.16v-.49l-.81,0a2.91,2.91,0,0,0-1.4.3.9.9,0,0,0-.42.83.84.84,0,0,0,.26.66A1.09,1.09,0,0,0,316.64,229.12Z" style="fill: #304041"/>
    <path d="M325.12,224.34v.52l-1,.11a1.89,1.89,0,0,1,.24.45,1.71,1.71,0,0,1,.11.62,1.59,1.59,0,0,1-.54,1.26,2.18,2.18,0,0,1-1.47.47,3.14,3.14,0,0,1-.45,0,.79.79,0,0,0-.52.69.35.35,0,0,0,.18.32,1.31,1.31,0,0,0,.62.11h.95a2.13,2.13,0,0,1,1.33.36,1.29,1.29,0,0,1,.47,1.07,1.52,1.52,0,0,1-.71,1.35,3.84,3.84,0,0,1-2.08.47,2.85,2.85,0,0,1-1.62-.39,1.27,1.27,0,0,1-.57-1.11,1.23,1.23,0,0,1,.31-.84,1.62,1.62,0,0,1,.88-.49.77.77,0,0,1-.34-.28.72.72,0,0,1-.14-.46.9.9,0,0,1,.15-.51,1.54,1.54,0,0,1,.5-.42,1.48,1.48,0,0,1-.68-.59,1.71,1.71,0,0,1-.26-.93,1.75,1.75,0,0,1,.53-1.36,2.13,2.13,0,0,1,1.49-.47,3,3,0,0,1,.76.09Zm-4.27,6.25a.72.72,0,0,0,.37.66,2,2,0,0,0,1,.23,2.86,2.86,0,0,0,1.51-.31.93.93,0,0,0,.49-.83.65.65,0,0,0-.27-.6,2.12,2.12,0,0,0-1-.17h-1a1.25,1.25,0,0,0-.86.27A.91.91,0,0,0,320.85,230.59Zm.44-4.53a1.12,1.12,0,0,0,.32.85,1.26,1.26,0,0,0,.88.28,1,1,0,0,0,1.19-1.15,1.06,1.06,0,0,0-1.2-1.2,1.2,1.2,0,0,0-.88.3A1.23,1.23,0,0,0,321.29,226.06Z" style="fill: #304041"/>
    <path d="M326.15,222.89a.49.49,0,0,1,.14-.4.45.45,0,0,1,.34-.13.44.44,0,0,1,.33.13.51.51,0,0,1,.15.4.51.51,0,0,1-.15.41.45.45,0,0,1-.33.14.46.46,0,0,1-.34-.14A.51.51,0,0,1,326.15,222.89Zm.88,6.8h-.81v-5.35H327Z" style="fill: #304041"/>
    <path d="M329.56,229.69h-.81V222.1h.81Z" style="fill: #304041"/>
    <path d="M333.54,229.79a2.49,2.49,0,0,1-1.88-.72,2.83,2.83,0,0,1-.68-2,3.07,3.07,0,0,1,.64-2.05,2.09,2.09,0,0,1,1.71-.76,2,2,0,0,1,1.59.66,2.52,2.52,0,0,1,.58,1.74v.52h-3.68a2.12,2.12,0,0,0,.47,1.43,1.69,1.69,0,0,0,1.28.48,4.29,4.29,0,0,0,1.7-.36v.73a4,4,0,0,1-.81.26A4.09,4.09,0,0,1,333.54,229.79Zm-.22-4.87a1.32,1.32,0,0,0-1,.42,1.89,1.89,0,0,0-.45,1.17h2.8a1.79,1.79,0,0,0-.35-1.18A1.19,1.19,0,0,0,333.32,224.92Z" style="fill: #304041"/>
    <path d="M278.1,234.56v4.62a2.49,2.49,0,0,1-.73,1.91,2.81,2.81,0,0,1-2,.7,2.68,2.68,0,0,1-2-.7,2.61,2.61,0,0,1-.71-1.93v-4.6h.83v4.65a1.83,1.83,0,0,0,.49,1.38,1.94,1.94,0,0,0,1.43.47,1.92,1.92,0,0,0,1.4-.48,1.87,1.87,0,0,0,.48-1.38v-4.64Z" style="fill: #304041"/>
    <path d="M283.53,241.69v-3.46a1.42,1.42,0,0,0-.29-1,1.21,1.21,0,0,0-.94-.33,1.55,1.55,0,0,0-1.23.46,2.29,2.29,0,0,0-.39,1.5v2.8h-.81v-5.35h.66l.13.74h0a1.69,1.69,0,0,1,.7-.62,2.33,2.33,0,0,1,1-.21,2,2,0,0,1,1.46.46,2,2,0,0,1,.49,1.49v3.49Z" style="fill: #304041"/>
    <path d="M287.74,241.12a2.73,2.73,0,0,0,.41,0l.32-.06v.62a1.8,1.8,0,0,1-.39.1,2.6,2.6,0,0,1-.46,0c-1,0-1.55-.54-1.55-1.63V237h-.77v-.39l.77-.33.34-1.15h.47v1.24h1.55V237h-1.55v3.15a1.09,1.09,0,0,0,.23.74A.77.77,0,0,0,287.74,241.12Z" style="fill: #304041"/>
    <path d="M291.8,241.79a2.46,2.46,0,0,1-1.87-.72,2.79,2.79,0,0,1-.69-2,3.07,3.07,0,0,1,.64-2.05,2.11,2.11,0,0,1,1.71-.76,2,2,0,0,1,1.59.66,2.53,2.53,0,0,1,.59,1.74v.52h-3.69a2.17,2.17,0,0,0,.48,1.43,1.65,1.65,0,0,0,1.27.48,4.3,4.3,0,0,0,1.71-.36v.73a4.43,4.43,0,0,1-.81.26A4.24,4.24,0,0,1,291.8,241.79Zm-.22-4.87a1.33,1.33,0,0,0-1,.42,2,2,0,0,0-.45,1.17h2.8a1.79,1.79,0,0,0-.34-1.18A1.22,1.22,0,0,0,291.58,236.92Z" style="fill: #304041"/>
    <path d="M297.59,236.25a4.06,4.06,0,0,1,.64.05l-.11.76a2.75,2.75,0,0,0-.59-.08,1.44,1.44,0,0,0-1.11.53,2,2,0,0,0-.46,1.31v2.87h-.81v-5.35h.67l.09,1h0a2.44,2.44,0,0,1,.72-.8A1.61,1.61,0,0,1,297.59,236.25Z" style="fill: #304041"/>
    <path d="M302.89,241.69v-3.46a1.37,1.37,0,0,0-.29-1,1.21,1.21,0,0,0-.94-.33,1.55,1.55,0,0,0-1.23.46,2.29,2.29,0,0,0-.39,1.5v2.8h-.81v-5.35h.66l.13.74h0a1.69,1.69,0,0,1,.7-.62,2.33,2.33,0,0,1,1-.21,2,2,0,0,1,1.46.46,2,2,0,0,1,.49,1.49v3.49Z" style="fill: #304041"/>
    <path d="M307.63,241.79a2.46,2.46,0,0,1-1.87-.72,2.79,2.79,0,0,1-.69-2,3.07,3.07,0,0,1,.64-2.05,2.11,2.11,0,0,1,1.71-.76,2,2,0,0,1,1.59.66,2.53,2.53,0,0,1,.59,1.74v.52h-3.69a2.17,2.17,0,0,0,.48,1.43,1.65,1.65,0,0,0,1.27.48,4.3,4.3,0,0,0,1.71-.36v.73a4.43,4.43,0,0,1-.81.26A4.24,4.24,0,0,1,307.63,241.79Zm-.22-4.87a1.33,1.33,0,0,0-1,.42,2,2,0,0,0-.45,1.17h2.8a1.79,1.79,0,0,0-.34-1.18A1.22,1.22,0,0,0,307.41,236.92Z" style="fill: #304041"/>
    <path d="M314.64,241.69v-3.46a1.42,1.42,0,0,0-.29-1,1.21,1.21,0,0,0-.94-.33,1.55,1.55,0,0,0-1.23.46,2.34,2.34,0,0,0-.39,1.51v2.79H311V234.1h.81v2.3a4.58,4.58,0,0,1,0,.69h.05a1.68,1.68,0,0,1,.68-.61,2.21,2.21,0,0,1,1-.22,2.06,2.06,0,0,1,1.47.46,2,2,0,0,1,.49,1.48v3.49Z" style="fill: #304041"/>
    <path d="M323.94,241.69v-3.48a1.48,1.48,0,0,0-.27-1,1.09,1.09,0,0,0-.85-.32,1.37,1.37,0,0,0-1.12.44,2.06,2.06,0,0,0-.36,1.34v3h-.81v-3.48a1.43,1.43,0,0,0-.28-1,1.06,1.06,0,0,0-.85-.32,1.35,1.35,0,0,0-1.12.46,2.51,2.51,0,0,0-.35,1.5v2.8h-.81v-5.35h.66l.13.74h0a1.53,1.53,0,0,1,.65-.61,1.91,1.91,0,0,1,.93-.22,1.59,1.59,0,0,1,1.64.9h0a1.69,1.69,0,0,1,.69-.66,2.21,2.21,0,0,1,1-.24,1.82,1.82,0,0,1,1.36.46,2.09,2.09,0,0,1,.45,1.49v3.49Z" style="fill: #304041"/>
    <path d="M328.68,241.79a2.46,2.46,0,0,1-1.87-.72,2.79,2.79,0,0,1-.69-2,3.07,3.07,0,0,1,.64-2.05,2.11,2.11,0,0,1,1.71-.76,2,2,0,0,1,1.59.66,2.53,2.53,0,0,1,.59,1.74v.52H327a2.17,2.17,0,0,0,.48,1.43,1.65,1.65,0,0,0,1.27.48,4.3,4.3,0,0,0,1.71-.36v.73a4.43,4.43,0,0,1-.81.26A4.24,4.24,0,0,1,328.68,241.79Zm-.22-4.87a1.33,1.33,0,0,0-1,.42,2,2,0,0,0-.45,1.17h2.8a1.79,1.79,0,0,0-.34-1.18A1.22,1.22,0,0,0,328.46,236.92Z" style="fill: #304041"/>
    <path d="M335.69,241.69v-3.46a1.37,1.37,0,0,0-.3-1,1.17,1.17,0,0,0-.93-.33,1.55,1.55,0,0,0-1.23.46,2.29,2.29,0,0,0-.39,1.5v2.8H332v-5.35h.66l.13.74h0a1.69,1.69,0,0,1,.7-.62,2.33,2.33,0,0,1,1-.21,2,2,0,0,1,1.45.46,2,2,0,0,1,.49,1.49v3.49Z" style="fill: #304041"/>
  </g>
</svg>
