<svg id="Layer_1" data-name="Layer 1" xmlns="http://www.w3.org/2000/svg" viewBox="0 0 360.19 209.57">
  <title>nugget_graph_3it</title>
  <g>
    <path d="M32.72,26V13.11h1.49V26Z" style="fill: #314041"/>
    <path d="M39,26H37.52V12.28H39Z" style="fill: #314041"/>
    <path d="M49.86,24.93a4.44,4.44,0,0,0,.74-.06,5.69,5.69,0,0,0,.58-.12v1.12a3.09,3.09,0,0,1-.7.19,5.25,5.25,0,0,1-.83.07c-1.87,0-2.8-1-2.8-2.94V17.46H45.47v-.71l1.38-.6.62-2.06h.84v2.23h2.8v1.14h-2.8v5.66a2,2,0,0,0,.41,1.34A1.46,1.46,0,0,0,49.86,24.93Z" style="fill: #314041"/>
    <path d="M53,13.71a1,1,0,0,1,.24-.73.86.86,0,0,1,.62-.24.87.87,0,0,1,.61.24,1,1,0,0,1,.25.73,1,1,0,0,1-.25.74.87.87,0,0,1-.61.24.86.86,0,0,1-.62-.24A1,1,0,0,1,53,13.71ZM54.56,26H53.1V16.32h1.46Z" style="fill: #314041"/>
    <path d="M69.93,26V19.69A2.59,2.59,0,0,0,69.44,18a1.92,1.92,0,0,0-1.53-.57,2.46,2.46,0,0,0-2,.78,3.67,3.67,0,0,0-.65,2.41V26H63.79V19.69A2.64,2.64,0,0,0,63.3,18a1.93,1.93,0,0,0-1.54-.57,2.37,2.37,0,0,0-2,.82,4.38,4.38,0,0,0-.64,2.69V26H57.65V16.32h1.19l.24,1.32h.07a2.86,2.86,0,0,1,1.16-1.1A3.59,3.59,0,0,1,62,16.15a2.87,2.87,0,0,1,3,1.63H65a3.06,3.06,0,0,1,1.25-1.19,3.76,3.76,0,0,1,1.86-.44,3.26,3.26,0,0,1,2.45.84,3.74,3.74,0,0,1,.81,2.68V26Z" style="fill: #314041"/>
    <path d="M78.47,26.13a4.4,4.4,0,0,1-3.37-1.3,5,5,0,0,1-1.24-3.61A5.54,5.54,0,0,1,75,17.52a3.78,3.78,0,0,1,3.08-1.37A3.59,3.59,0,0,1,81,17.34,4.52,4.52,0,0,1,82,20.48v.92H75.37A3.86,3.86,0,0,0,76.23,24a3,3,0,0,0,2.29.88,7.77,7.77,0,0,0,3.07-.65v1.3a8,8,0,0,1-1.46.48A8.72,8.72,0,0,1,78.47,26.13Zm-.4-8.76a2.4,2.4,0,0,0-1.85.75,3.51,3.51,0,0,0-.81,2.1h5a3.23,3.23,0,0,0-.61-2.12A2.17,2.17,0,0,0,78.07,17.37Z" style="fill: #314041"/>
    <path d="M83.69,21.8V20.46H88V21.8Z" style="fill: #314041"/>
    <path d="M93.4,24.93a4.65,4.65,0,0,0,.75-.06,5.41,5.41,0,0,0,.57-.12v1.12a2.94,2.94,0,0,1-.7.19,5.25,5.25,0,0,1-.83.07c-1.87,0-2.8-1-2.8-2.94V17.46H89v-.71l1.38-.6L91,14.09h.84v2.23h2.8v1.14h-2.8v5.66a2,2,0,0,0,.41,1.34A1.46,1.46,0,0,0,93.4,24.93Z" style="fill: #314041"/>
    <path d="M105,21.13a5.32,5.32,0,0,1-1.19,3.68,4.18,4.18,0,0,1-3.28,1.32,4.29,4.29,0,0,1-2.29-.61,3.93,3.93,0,0,1-1.55-1.74,6.09,6.09,0,0,1-.54-2.65,5.34,5.34,0,0,1,1.17-3.67,4.16,4.16,0,0,1,3.27-1.31,4.08,4.08,0,0,1,3.22,1.34A5.32,5.32,0,0,1,105,21.13Zm-7.34,0a4.5,4.5,0,0,0,.74,2.81,2.54,2.54,0,0,0,2.17,1,2.57,2.57,0,0,0,2.17-1,4.54,4.54,0,0,0,.74-2.82,4.44,4.44,0,0,0-.74-2.79,2.58,2.58,0,0,0-2.19-.95,2.54,2.54,0,0,0-2.16.94A4.48,4.48,0,0,0,97.62,21.13Z" style="fill: #314041"/>
    <path d="M106.71,21.8V20.46H111V21.8Z" style="fill: #314041"/>
    <path d="M125.58,26V19.69a2.59,2.59,0,0,0-.49-1.73,1.92,1.92,0,0,0-1.53-.57,2.46,2.46,0,0,0-2,.78,3.73,3.73,0,0,0-.65,2.41V26h-1.46V19.69A2.59,2.59,0,0,0,119,18a1.93,1.93,0,0,0-1.54-.57,2.39,2.39,0,0,0-2,.82,4.45,4.45,0,0,0-.64,2.69V26h-1.45V16.32h1.18l.24,1.32h.07a2.86,2.86,0,0,1,1.16-1.1,3.66,3.66,0,0,1,1.69-.39,2.86,2.86,0,0,1,2.95,1.63h.07a3.06,3.06,0,0,1,1.25-1.19,3.76,3.76,0,0,1,1.86-.44,3.26,3.26,0,0,1,2.45.84,3.74,3.74,0,0,1,.81,2.68V26Z" style="fill: #314041"/>
    <path d="M136,26l-.29-1.37h-.07a4,4,0,0,1-1.43,1.23,4.48,4.48,0,0,1-1.79.32,3.23,3.23,0,0,1-2.25-.74,2.69,2.69,0,0,1-.81-2.1q0-2.91,4.66-3.06l1.64-.05v-.6a2.42,2.42,0,0,0-.49-1.67,2,2,0,0,0-1.56-.54,6.23,6.23,0,0,0-2.72.74L130.41,17a6.76,6.76,0,0,1,1.56-.61,7,7,0,0,1,1.7-.22,3.65,3.65,0,0,1,2.55.77,3.17,3.17,0,0,1,.83,2.45V26Zm-3.29-1a3,3,0,0,0,2.14-.75,2.76,2.76,0,0,0,.77-2.09v-.87l-1.45.06a5.28,5.28,0,0,0-2.51.54,1.62,1.62,0,0,0-.77,1.49,1.48,1.48,0,0,0,.48,1.2A2,2,0,0,0,132.68,24.93Z" style="fill: #314041"/>
    <path d="M144.45,16.15a5.83,5.83,0,0,1,1.16.1l-.21,1.36a4.91,4.91,0,0,0-1.05-.14,2.57,2.57,0,0,0-2,1,3.49,3.49,0,0,0-.83,2.37V26h-1.46V16.32h1.2l.17,1.79h.07a4.27,4.27,0,0,1,1.29-1.45A2.93,2.93,0,0,1,144.45,16.15Z" style="fill: #314041"/>
    <path d="M148.85,21a17.11,17.11,0,0,1,1.15-1.4l3.11-3.3h1.73l-3.9,4.11L155.12,26h-1.77L150,21.4l-1.1,1V26h-1.44V12.28h1.44v7.25c0,.32,0,.82-.07,1.49Z" style="fill: #314041"/>
    <path d="M160.92,26.13a4.43,4.43,0,0,1-3.37-1.3,5,5,0,0,1-1.23-3.61,5.54,5.54,0,0,1,1.15-3.7,3.78,3.78,0,0,1,3.08-1.37,3.61,3.61,0,0,1,2.86,1.19,4.52,4.52,0,0,1,1.06,3.14v.92h-6.64a3.86,3.86,0,0,0,.86,2.58,3,3,0,0,0,2.29.88,7.8,7.8,0,0,0,3.07-.65v1.3a8,8,0,0,1-1.46.48A8.83,8.83,0,0,1,160.92,26.13Zm-.39-8.76a2.4,2.4,0,0,0-1.85.75,3.51,3.51,0,0,0-.81,2.1h5a3.23,3.23,0,0,0-.61-2.12A2.17,2.17,0,0,0,160.53,17.37Z" style="fill: #314041"/>
    <path d="M170.07,24.93a4.52,4.52,0,0,0,.74-.06,5.41,5.41,0,0,0,.57-.12v1.12a2.84,2.84,0,0,1-.69.19,5.27,5.27,0,0,1-.84.07q-2.79,0-2.79-2.94V17.46h-1.38v-.71l1.38-.6.61-2.06h.85v2.23h2.79v1.14h-2.79v5.66a2,2,0,0,0,.41,1.34A1.45,1.45,0,0,0,170.07,24.93Z" style="fill: #314041"/>
    <path d="M182.05,26.13a4.43,4.43,0,0,1-3.37-1.3,5,5,0,0,1-1.23-3.61,5.54,5.54,0,0,1,1.15-3.7,3.78,3.78,0,0,1,3.08-1.37,3.61,3.61,0,0,1,2.86,1.19,4.57,4.57,0,0,1,1.06,3.14v.92H179a3.86,3.86,0,0,0,.86,2.58,3,3,0,0,0,2.29.88,7.8,7.8,0,0,0,3.07-.65v1.3a8,8,0,0,1-1.46.48A8.83,8.83,0,0,1,182.05,26.13Zm-.39-8.76a2.4,2.4,0,0,0-1.85.75,3.58,3.58,0,0,0-.82,2.1h5a3.23,3.23,0,0,0-.61-2.12A2.17,2.17,0,0,0,181.66,17.37Zm1-2.32h-1a14,14,0,0,1-1.35-1.3,10.82,10.82,0,0,1-1.14-1.4v-.19H181a11.76,11.76,0,0,0,.78,1.41,11.26,11.26,0,0,0,.89,1.26Z" style="fill: #314041"/>
    <path d="M194.13,16.32v6.25a2.51,2.51,0,0,0,.54,1.76,2.14,2.14,0,0,0,1.67.58,2.77,2.77,0,0,0,2.22-.83,4.21,4.21,0,0,0,.69-2.7V16.32h1.46V26h-1.2l-.21-1.29h-.08A2.86,2.86,0,0,1,198,25.75a4.26,4.26,0,0,1-1.82.38,3.7,3.7,0,0,1-2.63-.83,3.54,3.54,0,0,1-.88-2.68v-6.3Z" style="fill: #314041"/>
    <path d="M210.4,26V19.72a2.48,2.48,0,0,0-.54-1.75,2.17,2.17,0,0,0-1.68-.58,2.78,2.78,0,0,0-2.21.81,4.14,4.14,0,0,0-.7,2.7V26h-1.46V16.32H205l.24,1.32h.07a3,3,0,0,1,1.26-1.1,4.1,4.1,0,0,1,1.8-.39A3.67,3.67,0,0,1,211,17a3.53,3.53,0,0,1,.88,2.68V26Z" style="fill: #314041"/>
    <path d="M220.78,26l-.29-1.37h-.07A4,4,0,0,1,219,25.81a4.44,4.44,0,0,1-1.79.32,3.22,3.22,0,0,1-2.24-.74,2.66,2.66,0,0,1-.82-2.1q0-2.91,4.67-3.06l1.64-.05v-.6a2.47,2.47,0,0,0-.49-1.67,2,2,0,0,0-1.56-.54,6.27,6.27,0,0,0-2.73.74L215.22,17a6.76,6.76,0,0,1,1.56-.61,7,7,0,0,1,1.7-.22,3.67,3.67,0,0,1,2.55.77,3.21,3.21,0,0,1,.83,2.45V26Zm-3.3-1a3,3,0,0,0,2.14-.75,2.77,2.77,0,0,0,.78-2.09v-.87l-1.46.06a5.28,5.28,0,0,0-2.51.54,1.64,1.64,0,0,0-.77,1.49,1.48,1.48,0,0,0,.48,1.2A2,2,0,0,0,217.48,24.93Z" style="fill: #314041"/>
    <path d="M25.85,47.55V41.29a2.61,2.61,0,0,0-.49-1.73A1.92,1.92,0,0,0,23.83,39a2.46,2.46,0,0,0-2,.78,3.73,3.73,0,0,0-.65,2.41v5.37H19.71V41.29a2.61,2.61,0,0,0-.49-1.73A1.93,1.93,0,0,0,17.68,39a2.39,2.39,0,0,0-2,.82A4.47,4.47,0,0,0,15,42.5v5H13.58V37.92h1.18L15,39.24h.07a2.93,2.93,0,0,1,1.16-1.1,3.66,3.66,0,0,1,1.69-.39,2.86,2.86,0,0,1,2.95,1.63h.07a3.12,3.12,0,0,1,1.25-1.19,3.79,3.79,0,0,1,1.86-.44,3.26,3.26,0,0,1,2.45.84,3.75,3.75,0,0,1,.81,2.68v6.28Z" style="fill: #314041"/>
    <path d="M30.2,35.31a1,1,0,0,1,.24-.73.86.86,0,0,1,.62-.24.85.85,0,0,1,.6.24,1,1,0,0,1,.26.73,1,1,0,0,1-.26.74.85.85,0,0,1-.6.24.86.86,0,0,1-.62-.24A1,1,0,0,1,30.2,35.31Zm1.58,12.24H30.32V37.92h1.46Z" style="fill: #314041"/>
    <path d="M41.09,44.93a2.42,2.42,0,0,1-1,2.07,4.65,4.65,0,0,1-2.81.73,6.06,6.06,0,0,1-3-.61V45.77a7.36,7.36,0,0,0,1.49.55,6.06,6.06,0,0,0,1.54.21,3.44,3.44,0,0,0,1.76-.37,1.19,1.19,0,0,0,.61-1.11,1.18,1.18,0,0,0-.49-1,7.69,7.69,0,0,0-1.9-1,10,10,0,0,1-1.91-.87,2.65,2.65,0,0,1-.85-.85,2.25,2.25,0,0,1-.27-1.13,2.15,2.15,0,0,1,1-1.86,4.38,4.38,0,0,1,2.62-.68,7.7,7.7,0,0,1,3,.63l-.51,1.19a7,7,0,0,0-2.63-.6,3.12,3.12,0,0,0-1.57.32,1,1,0,0,0-.52.9,1.09,1.09,0,0,0,.19.66,2.21,2.21,0,0,0,.64.52,15,15,0,0,0,1.69.71,6.07,6.07,0,0,1,2.31,1.26A2.18,2.18,0,0,1,41.09,44.93Z" style="fill: #314041"/>
    <path d="M44.83,37.92v6.25a2.51,2.51,0,0,0,.54,1.76,2.15,2.15,0,0,0,1.68.58,2.76,2.76,0,0,0,2.21-.83A4.21,4.21,0,0,0,50,43V37.92h1.46v9.63h-1.2L50,46.26h-.08a2.86,2.86,0,0,1-1.24,1.09,4.23,4.23,0,0,1-1.82.38,3.7,3.7,0,0,1-2.63-.83,3.58,3.58,0,0,1-.88-2.68v-6.3Z" style="fill: #314041"/>
    <path d="M58.9,37.75a5.73,5.73,0,0,1,1.15.1l-.2,1.35a5.54,5.54,0,0,0-1.05-.13,2.57,2.57,0,0,0-2,1A3.45,3.45,0,0,0,56,42.39v5.16H54.51V37.92h1.2l.17,1.79H56a4.27,4.27,0,0,1,1.29-1.45A2.9,2.9,0,0,1,58.9,37.75Z" style="fill: #314041"/>
    <path d="M67.78,47.55l-.29-1.37h-.07A4,4,0,0,1,66,47.41a4.44,4.44,0,0,1-1.79.32A3.22,3.22,0,0,1,62,47a2.66,2.66,0,0,1-.82-2.1q0-2.91,4.67-3.06l1.64,0v-.6A2.47,2.47,0,0,0,67,39.51,2,2,0,0,0,65.39,39a6.27,6.27,0,0,0-2.73.74l-.44-1.12A6.76,6.76,0,0,1,63.78,38a7,7,0,0,1,1.7-.22,3.67,3.67,0,0,1,2.55.77A3.21,3.21,0,0,1,68.86,41v6.57Zm-3.3-1a3,3,0,0,0,2.14-.75,2.77,2.77,0,0,0,.78-2.09v-.87l-1.46.06a5.28,5.28,0,0,0-2.51.54,1.64,1.64,0,0,0-.77,1.49,1.48,1.48,0,0,0,.48,1.2A2,2,0,0,0,64.48,46.53Z" style="fill: #314041"/>
    <path d="M80.88,39.06H78.43v8.49H77V39.06H75.25V38.4L77,37.87v-.54c0-2.36,1-3.55,3.1-3.55a6.29,6.29,0,0,1,1.8.31l-.38,1.17A4.84,4.84,0,0,0,80.05,35a1.39,1.39,0,0,0-1.22.55,3,3,0,0,0-.4,1.76v.62h2.45Z" style="fill: #314041"/>
    <path d="M91,42.73a5.32,5.32,0,0,1-1.19,3.68,4.18,4.18,0,0,1-3.28,1.32,4.26,4.26,0,0,1-2.29-.61,3.93,3.93,0,0,1-1.55-1.74,6.09,6.09,0,0,1-.55-2.65,5.34,5.34,0,0,1,1.18-3.67,4.16,4.16,0,0,1,3.27-1.31,4,4,0,0,1,3.21,1.34A5.27,5.27,0,0,1,91,42.73Zm-7.34,0a4.57,4.57,0,0,0,.73,2.81,2.93,2.93,0,0,0,4.35,0,4.52,4.52,0,0,0,.74-2.82,4.44,4.44,0,0,0-.74-2.79A2.58,2.58,0,0,0,86.51,39a2.54,2.54,0,0,0-2.16.94A4.48,4.48,0,0,0,83.62,42.73Z" style="fill: #314041"/>
    <path d="M100.1,47.55V41.32a2.48,2.48,0,0,0-.53-1.75A2.18,2.18,0,0,0,97.89,39a2.79,2.79,0,0,0-2.22.81,4.2,4.2,0,0,0-.7,2.7v5H93.51V37.92H94.7l.24,1.32H95a3,3,0,0,1,1.25-1.1,4.11,4.11,0,0,1,1.81-.39,3.62,3.62,0,0,1,2.61.84,3.54,3.54,0,0,1,.88,2.68v6.28Z" style="fill: #314041"/>
    <path d="M111.12,46.26H111a3.44,3.44,0,0,1-3,1.47,3.59,3.59,0,0,1-2.94-1.29,5.7,5.7,0,0,1-1-3.68,5.82,5.82,0,0,1,1.06-3.7A3.56,3.56,0,0,1,108,37.75a3.5,3.5,0,0,1,3,1.42h.12l-.07-.69,0-.68V33.88h1.46V47.55h-1.19Zm-2.92.25a2.67,2.67,0,0,0,2.17-.81,4.19,4.19,0,0,0,.67-2.63v-.31a4.88,4.88,0,0,0-.68-2.92,2.61,2.61,0,0,0-2.18-.87,2.22,2.22,0,0,0-2,1,4.88,4.88,0,0,0-.68,2.81,4.79,4.79,0,0,0,.67,2.79A2.29,2.29,0,0,0,108.2,46.51Z" style="fill: #314041"/>
    <path d="M121.51,47.55l-.28-1.37h-.08a4,4,0,0,1-1.43,1.23,4.48,4.48,0,0,1-1.79.32,3.25,3.25,0,0,1-2.25-.74,2.69,2.69,0,0,1-.81-2.1q0-2.91,4.67-3.06l1.63,0v-.6a2.42,2.42,0,0,0-.49-1.67,2,2,0,0,0-1.56-.54,6.23,6.23,0,0,0-2.72.74L116,38.59a7,7,0,0,1,3.26-.83,3.7,3.7,0,0,1,2.56.77A3.21,3.21,0,0,1,122.6,41v6.57Zm-3.29-1a3,3,0,0,0,2.14-.75,2.77,2.77,0,0,0,.78-2.09v-.87l-1.46.06a5.28,5.28,0,0,0-2.51.54,1.64,1.64,0,0,0-.77,1.49,1.48,1.48,0,0,0,.48,1.2A2,2,0,0,0,118.22,46.53Z" style="fill: #314041"/>
    <path d="M137.88,47.55V41.29a2.61,2.61,0,0,0-.49-1.73,1.92,1.92,0,0,0-1.53-.57,2.46,2.46,0,0,0-2,.78,3.67,3.67,0,0,0-.65,2.41v5.37h-1.46V41.29a2.61,2.61,0,0,0-.5-1.73,1.91,1.91,0,0,0-1.53-.57,2.37,2.37,0,0,0-2,.82,4.4,4.4,0,0,0-.64,2.69v5H125.6V37.92h1.19l.24,1.32h.07a2.86,2.86,0,0,1,1.16-1.1,3.59,3.59,0,0,1,1.68-.39,2.87,2.87,0,0,1,3,1.63H133a3,3,0,0,1,1.25-1.19,3.76,3.76,0,0,1,1.86-.44,3.28,3.28,0,0,1,2.45.84,3.75,3.75,0,0,1,.81,2.68v6.28Z" style="fill: #314041"/>
    <path d="M146.41,47.73a4.43,4.43,0,0,1-3.37-1.3,5,5,0,0,1-1.23-3.61,5.54,5.54,0,0,1,1.15-3.7A3.78,3.78,0,0,1,146,37.75a3.61,3.61,0,0,1,2.86,1.19A4.57,4.57,0,0,1,150,42.08V43h-6.64a3.86,3.86,0,0,0,.86,2.58,3,3,0,0,0,2.29.88,7.8,7.8,0,0,0,3.07-.65v1.3a8,8,0,0,1-1.46.48A8.75,8.75,0,0,1,146.41,47.73ZM146,39a2.38,2.38,0,0,0-1.85.75,3.49,3.49,0,0,0-.81,2.1h5a3.23,3.23,0,0,0-.61-2.12A2.17,2.17,0,0,0,146,39Z" style="fill: #314041"/>
    <path d="M159,47.55V41.32a2.48,2.48,0,0,0-.54-1.75,2.18,2.18,0,0,0-1.68-.58,2.76,2.76,0,0,0-2.21.81,4.14,4.14,0,0,0-.71,2.7v5h-1.46V37.92h1.19l.24,1.32h.07a3,3,0,0,1,1.25-1.1,4.11,4.11,0,0,1,1.81-.39,3.67,3.67,0,0,1,2.62.84,3.58,3.58,0,0,1,.87,2.68v6.28Z" style="fill: #314041"/>
    <path d="M166.6,46.53a4.56,4.56,0,0,0,.75-.06,5.41,5.41,0,0,0,.57-.12v1.12a2.94,2.94,0,0,1-.7.19,5.16,5.16,0,0,1-.83.07q-2.79,0-2.79-2.94V39.06h-1.38v-.71l1.38-.6.61-2.06h.85v2.23h2.79v1.14h-2.79v5.66a1.94,1.94,0,0,0,.41,1.34A1.43,1.43,0,0,0,166.6,46.53Z" style="fill: #314041"/>
    <path d="M175.77,47.55l-.29-1.37h-.07A4,4,0,0,1,174,47.41a4.44,4.44,0,0,1-1.79.32,3.22,3.22,0,0,1-2.24-.74,2.69,2.69,0,0,1-.81-2.1q0-2.91,4.66-3.06l1.64,0v-.6a2.47,2.47,0,0,0-.49-1.67,2,2,0,0,0-1.56-.54,6.3,6.3,0,0,0-2.73.74l-.44-1.12a6.76,6.76,0,0,1,1.56-.61,7,7,0,0,1,1.7-.22,3.65,3.65,0,0,1,2.55.77,3.21,3.21,0,0,1,.83,2.45v6.57Zm-3.3-1a2.94,2.94,0,0,0,2.14-.75,2.77,2.77,0,0,0,.78-2.09v-.87l-1.46.06a5.31,5.31,0,0,0-2.51.54,1.64,1.64,0,0,0-.77,1.49,1.48,1.48,0,0,0,.48,1.2A2,2,0,0,0,172.47,46.53Z" style="fill: #314041"/>
    <path d="M181.32,47.55h-1.46V33.88h1.46Z" style="fill: #314041"/>
    <path d="M188.48,47.73a4.41,4.41,0,0,1-3.37-1.3,5,5,0,0,1-1.24-3.61,5.59,5.59,0,0,1,1.15-3.7,3.78,3.78,0,0,1,3.08-1.37A3.63,3.63,0,0,1,191,38.94,4.57,4.57,0,0,1,192,42.08V43h-6.63a3.8,3.8,0,0,0,.85,2.58,3,3,0,0,0,2.29.88,7.85,7.85,0,0,0,3.08-.65v1.3a8.35,8.35,0,0,1-1.47.48A8.72,8.72,0,0,1,188.48,47.73Zm-.4-8.76a2.4,2.4,0,0,0-1.85.75,3.49,3.49,0,0,0-.81,2.1h5a3.23,3.23,0,0,0-.62-2.12A2.17,2.17,0,0,0,188.08,39Z" style="fill: #314041"/>
    <path d="M205.74,46.26h-.08a3.42,3.42,0,0,1-3,1.47,3.58,3.58,0,0,1-2.94-1.29,5.7,5.7,0,0,1-1-3.68,5.82,5.82,0,0,1,1-3.7,3.56,3.56,0,0,1,2.94-1.31,3.49,3.49,0,0,1,3,1.42h.12l-.06-.69,0-.68V33.88h1.46V47.55h-1.19Zm-2.92.25A2.67,2.67,0,0,0,205,45.7a4.13,4.13,0,0,0,.67-2.63v-.31a4.88,4.88,0,0,0-.68-2.92,2.58,2.58,0,0,0-2.17-.87,2.22,2.22,0,0,0-2,1,5,5,0,0,0-.68,2.81,4.78,4.78,0,0,0,.68,2.79A2.28,2.28,0,0,0,202.82,46.51Z" style="fill: #314041"/>
    <path d="M214.28,47.73a4.43,4.43,0,0,1-3.37-1.3,5,5,0,0,1-1.23-3.61,5.59,5.59,0,0,1,1.14-3.7,3.81,3.81,0,0,1,3.08-1.37,3.61,3.61,0,0,1,2.87,1.19,4.57,4.57,0,0,1,1,3.14V43h-6.63a3.81,3.81,0,0,0,.86,2.58,3,3,0,0,0,2.29.88,7.8,7.8,0,0,0,3.07-.65v1.3a8,8,0,0,1-1.46.48A8.83,8.83,0,0,1,214.28,47.73ZM213.89,39a2.38,2.38,0,0,0-1.85.75,3.49,3.49,0,0,0-.81,2.1h5a3.23,3.23,0,0,0-.61-2.12A2.18,2.18,0,0,0,213.89,39Z" style="fill: #314041"/>
    <path d="M221.77,47.55h-1.46V33.88h1.46Z" style="fill: #314041"/>
    <path d="M107.62,66.53a2.4,2.4,0,0,1-1,2.07,4.69,4.69,0,0,1-2.81.73,6,6,0,0,1-3-.61V67.37a6.62,6.62,0,0,0,1.49.55,6,6,0,0,0,1.53.21,3.42,3.42,0,0,0,1.76-.37,1.19,1.19,0,0,0,.61-1.11,1.21,1.21,0,0,0-.48-1,7.81,7.81,0,0,0-1.91-1,10.29,10.29,0,0,1-1.91-.87,2.51,2.51,0,0,1-.84-.85,2.33,2.33,0,0,1,.68-3,4.42,4.42,0,0,1,2.63-.68,7.74,7.74,0,0,1,3,.63l-.52,1.19a7,7,0,0,0-2.63-.6,3.08,3.08,0,0,0-1.56.32,1,1,0,0,0-.53.9,1,1,0,0,0,.2.66A2,2,0,0,0,103,63a15.9,15.9,0,0,0,1.69.71A6.28,6.28,0,0,1,107,64.94,2.21,2.21,0,0,1,107.62,66.53Z" style="fill: #314041"/>
    <path d="M111.36,59.52v6.25a2.51,2.51,0,0,0,.54,1.76,2.18,2.18,0,0,0,1.68.58,2.74,2.74,0,0,0,2.21-.83,4.2,4.2,0,0,0,.7-2.7V59.52H118v9.64h-1.21l-.21-1.3h-.08A2.86,2.86,0,0,1,115.21,69a4.23,4.23,0,0,1-1.82.38,3.7,3.7,0,0,1-2.63-.83,3.58,3.58,0,0,1-.87-2.68v-6.3Z" style="fill: #314041"/>
    <path d="M124.89,69.33A4.11,4.11,0,0,1,121.65,68a5.3,5.3,0,0,1-1.15-3.64,5.46,5.46,0,0,1,1.17-3.74A4.21,4.21,0,0,1,125,59.35a6.64,6.64,0,0,1,1.39.15,4.51,4.51,0,0,1,1.09.35L127,61.09a6.57,6.57,0,0,0-1.06-.32,4.43,4.43,0,0,0-1-.13c-2,0-2.93,1.25-2.93,3.74a4.46,4.46,0,0,0,.71,2.73,2.51,2.51,0,0,0,2.12,1,6.56,6.56,0,0,0,2.47-.52v1.29A5.28,5.28,0,0,1,124.89,69.33Z" style="fill: #314041"/>
    <path d="M133.46,69.33A4.11,4.11,0,0,1,130.22,68a5.3,5.3,0,0,1-1.15-3.64,5.46,5.46,0,0,1,1.17-3.74,4.21,4.21,0,0,1,3.32-1.31,6.48,6.48,0,0,1,1.38.15,4.23,4.23,0,0,1,1.09.35l-.44,1.24a6.57,6.57,0,0,0-1.06-.32,4.43,4.43,0,0,0-1-.13q-2.94,0-2.94,3.74a4.46,4.46,0,0,0,.72,2.73,2.51,2.51,0,0,0,2.12,1,6.56,6.56,0,0,0,2.47-.52v1.29A5.28,5.28,0,0,1,133.46,69.33Z" style="fill: #314041"/>
    <path d="M142.25,69.33a4.4,4.4,0,0,1-3.37-1.3,5,5,0,0,1-1.24-3.61,5.61,5.61,0,0,1,1.15-3.7,3.78,3.78,0,0,1,3.08-1.37,3.59,3.59,0,0,1,2.86,1.19,4.52,4.52,0,0,1,1.06,3.14v.92h-6.64a3.86,3.86,0,0,0,.86,2.58,3,3,0,0,0,2.29.88,7.85,7.85,0,0,0,3.08-.65v1.3a8.35,8.35,0,0,1-1.47.48A8.72,8.72,0,0,1,142.25,69.33Zm-.4-8.76a2.4,2.4,0,0,0-1.85.75,3.51,3.51,0,0,0-.81,2.1h5a3.23,3.23,0,0,0-.62-2.12A2.17,2.17,0,0,0,141.85,60.57Z" style="fill: #314041"/>
    <path d="M154.49,66.53a2.4,2.4,0,0,1-1,2.07,4.69,4.69,0,0,1-2.81.73,6,6,0,0,1-3-.61V67.37a6.62,6.62,0,0,0,1.49.55,6,6,0,0,0,1.53.21,3.42,3.42,0,0,0,1.76-.37,1.19,1.19,0,0,0,.61-1.11,1.21,1.21,0,0,0-.48-1,7.81,7.81,0,0,0-1.91-1,10.29,10.29,0,0,1-1.91-.87,2.51,2.51,0,0,1-.84-.85,2.33,2.33,0,0,1,.68-3,4.44,4.44,0,0,1,2.63-.68,7.7,7.7,0,0,1,3,.63l-.52,1.19a7,7,0,0,0-2.63-.6,3.08,3.08,0,0,0-1.56.32,1,1,0,0,0-.53.9,1.1,1.1,0,0,0,.2.66,2,2,0,0,0,.64.52,14.6,14.6,0,0,0,1.68.71,6.19,6.19,0,0,1,2.32,1.26A2.21,2.21,0,0,1,154.49,66.53Z" style="fill: #314041"/>
    <path d="M163.08,66.53a2.42,2.42,0,0,1-1,2.07,4.71,4.71,0,0,1-2.82.73,6,6,0,0,1-3-.61V67.37a6.45,6.45,0,0,0,1.49.55,6,6,0,0,0,1.53.21,3.42,3.42,0,0,0,1.76-.37,1.25,1.25,0,0,0,.12-2.07,7.5,7.5,0,0,0-1.9-1,10.29,10.29,0,0,1-1.91-.87,2.51,2.51,0,0,1-.84-.85,2.33,2.33,0,0,1,.68-3,4.4,4.4,0,0,1,2.62-.68,7.75,7.75,0,0,1,3,.63l-.52,1.19a7,7,0,0,0-2.63-.6,3.15,3.15,0,0,0-1.57.32,1,1,0,0,0-.52.9,1,1,0,0,0,.2.66,2,2,0,0,0,.63.52,15.9,15.9,0,0,0,1.69.71,6.36,6.36,0,0,1,2.32,1.26A2.21,2.21,0,0,1,163.08,66.53Z" style="fill: #314041"/>
    <path d="M173.77,64.33A5.32,5.32,0,0,1,172.58,68a4.18,4.18,0,0,1-3.28,1.32,4.26,4.26,0,0,1-2.29-.61A3.93,3.93,0,0,1,165.46,67a6.09,6.09,0,0,1-.55-2.65,5.34,5.34,0,0,1,1.18-3.67,4.2,4.2,0,0,1,3.27-1.31,4,4,0,0,1,3.21,1.34A5.27,5.27,0,0,1,173.77,64.33Zm-7.34,0a4.57,4.57,0,0,0,.73,2.81,2.93,2.93,0,0,0,4.35,0,4.54,4.54,0,0,0,.74-2.82,4.46,4.46,0,0,0-.74-2.79,2.58,2.58,0,0,0-2.19-.95,2.54,2.54,0,0,0-2.16.94A4.48,4.48,0,0,0,166.43,64.33Z" style="fill: #314041"/>
    <path d="M186.92,69.16l-.29-1.38h-.07A4,4,0,0,1,185.13,69a4.48,4.48,0,0,1-1.79.32,3.23,3.23,0,0,1-2.25-.74,2.69,2.69,0,0,1-.81-2.1c0-1.94,1.55-3,4.67-3.06l1.63,0v-.6a2.42,2.42,0,0,0-.49-1.67,2,2,0,0,0-1.56-.54,6.23,6.23,0,0,0-2.72.74l-.45-1.12a6.76,6.76,0,0,1,1.56-.61,7,7,0,0,1,1.7-.22,3.65,3.65,0,0,1,2.55.77,3.17,3.17,0,0,1,.83,2.45v6.58Zm-3.29-1a3,3,0,0,0,2.14-.75,2.77,2.77,0,0,0,.78-2.09v-.87l-1.46.06a5.28,5.28,0,0,0-2.51.54,1.62,1.62,0,0,0-.77,1.49,1.48,1.48,0,0,0,.48,1.2A2,2,0,0,0,183.63,68.13Z" style="fill: #314041"/>
    <path d="M198.89,59.52v.93l-1.78.21a3.12,3.12,0,0,1,.44.8,3,3,0,0,1,.19,1.12,2.86,2.86,0,0,1-1,2.26,3.93,3.93,0,0,1-2.66.84,4.21,4.21,0,0,1-.81-.07,1.44,1.44,0,0,0-.93,1.24.63.63,0,0,0,.33.59,2.42,2.42,0,0,0,1.11.19h1.71a3.81,3.81,0,0,1,2.4.66,2.26,2.26,0,0,1,.84,1.91,2.74,2.74,0,0,1-1.28,2.44,6.9,6.9,0,0,1-3.75.84,5.17,5.17,0,0,1-2.91-.7,2.28,2.28,0,0,1-1-2,2.2,2.2,0,0,1,.56-1.52A2.81,2.81,0,0,1,192,68.4a1.47,1.47,0,0,1-.62-.52,1.35,1.35,0,0,1-.25-.82,1.52,1.52,0,0,1,.28-.92,2.89,2.89,0,0,1,.89-.76,2.68,2.68,0,0,1-1.22-1,3.09,3.09,0,0,1-.47-1.69,3.13,3.13,0,0,1,.95-2.44,3.88,3.88,0,0,1,2.69-.85,5.16,5.16,0,0,1,1.36.17Zm-7.68,11.25a1.31,1.31,0,0,0,.66,1.19,3.64,3.64,0,0,0,1.89.4,5.25,5.25,0,0,0,2.72-.55,1.67,1.67,0,0,0,.88-1.49,1.17,1.17,0,0,0-.48-1.08,3.79,3.79,0,0,0-1.82-.3h-1.75a2.27,2.27,0,0,0-1.54.47A1.7,1.7,0,0,0,191.21,70.77Zm.79-8.16a2,2,0,0,0,.57,1.53,2.32,2.32,0,0,0,1.59.52,1.87,1.87,0,0,0,2.14-2.08,1.91,1.91,0,0,0-2.16-2.17,2.12,2.12,0,0,0-1.58.55A2.24,2.24,0,0,0,192,62.61Z" style="fill: #314041"/>
    <path d="M200.75,56.91a1,1,0,0,1,.24-.73.94.94,0,0,1,1.23,0,1,1,0,0,1,.25.73,1,1,0,0,1-.25.74.87.87,0,0,1-.61.24.86.86,0,0,1-.62-.24A1,1,0,0,1,200.75,56.91Zm1.58,12.25h-1.46V59.52h1.46Z" style="fill: #314041"/>
    <path d="M206.88,69.16h-1.46V55.48h1.46Z" style="fill: #314041"/>
    <path d="M214.05,69.33a4.4,4.4,0,0,1-3.37-1.3,5,5,0,0,1-1.24-3.61,5.55,5.55,0,0,1,1.15-3.7,3.78,3.78,0,0,1,3.08-1.37,3.59,3.59,0,0,1,2.86,1.19,4.52,4.52,0,0,1,1.06,3.14v.92H211a3.86,3.86,0,0,0,.86,2.58,3,3,0,0,0,2.29.88,7.77,7.77,0,0,0,3.07-.65v1.3a8,8,0,0,1-1.46.48A8.72,8.72,0,0,1,214.05,69.33Zm-.4-8.76a2.4,2.4,0,0,0-1.85.75,3.51,3.51,0,0,0-.81,2.1h5a3.23,3.23,0,0,0-.61-2.12A2.17,2.17,0,0,0,213.65,60.57Z" style="fill: #314041"/>
    <path d="M219.86,68.22a1.3,1.3,0,0,1,.27-.89,1,1,0,0,1,.77-.3,1.06,1.06,0,0,1,.8.3,1.25,1.25,0,0,1,.28.89,1.2,1.2,0,0,1-.29.88,1.14,1.14,0,0,1-1.53,0A1.17,1.17,0,0,1,219.86,68.22Z" style="fill: #314041"/>
  </g>
  <path d="M323.9,135.48a11.32,11.32,0,0,0-5.72.3,5.1,5.1,0,0,0,.3-.91c2.23-7-1.27-13-8.26-15.12a14,14,0,0,0-11.32,1.57l-.79,7.17s15.13,28,21.27,29.28a11.37,11.37,0,0,0,4.52-22.29Z" style="fill: #293e40;fill-rule: evenodd"/>
  <path d="M274.35,122.79c3.92,6.44,16.58,21.62,16.58,21.62l5.42.3-.18,12-6-.73a7.07,7.07,0,0,1-5.3-3.46c-.06-.12-.12-.19-.18-.31l-18.92-30.72,4.4-.92A4.48,4.48,0,0,1,274.35,122.79Z" style="fill: #bc8860;fill-rule: evenodd"/>
  <polygon points="314.83 145.47 296.36 144.9 295.76 158.5 319.89 160.21 314.83 145.47" style="fill: #efecea;fill-rule: evenodd"/>
  <path d="M313.38,143.65l-5-8.76a2.9,2.9,0,0,0,2.36-2.86,3,3,0,0,0-6-.42l-3-1.31a4.74,4.74,0,0,1-2.78-4.29v-4.53c.06,0,.12-.06.18-.12a12.53,12.53,0,0,0-5.69,8.34l-1.4.72a.7.7,0,0,0-.3.29.66.66,0,0,0,.24.72l1.15.71c-.12,5.31,3.21,9.54,8.84,10.67a1.75,1.75,0,0,1,.55.12L306,150.2l11-4.83Z" style="fill: #bc8860;fill-rule: evenodd"/>
  <path d="M322.84,199.65,317,187.29Z" style="fill: #6ea0af;fill-rule: evenodd"/>
  <path d="M334.48,173.69l-10.22-24.5a9.41,9.41,0,0,0-6.61-5.69,9.09,9.09,0,0,0-4-.06,9.53,9.53,0,0,0-7.75,10.3l.36,3.83a6.4,6.4,0,0,0,2.22,11.57l8.71,18.15,21-9.47Z" style="fill: #efecea;fill-rule: evenodd"/>
  <path d="M338,177.87l-21,9.58,2.29,4.92,3.43,7.28h28.68C352.86,184.91,338,177.87,338,177.87Z" style="fill: #6ea0af;fill-rule: evenodd"/>
  <path d="M326.13,170.22l-11.53.48,9,27.58L318.44,200a2.25,2.25,0,0,0-1.22,2h13.31a2.26,2.26,0,0,0,2.25-2.4Z" style="fill: #bc8860;fill-rule: evenodd"/>
  <path d="M276.65,170.8l11.58,26h23a2.86,2.86,0,0,1,2.79,2.88h-26a2.66,2.66,0,0,1-2.43-1.62l-10.4-23.45A2.87,2.87,0,0,1,276.65,170.8Z" style="fill: #293e40;fill-rule: evenodd"/>
  <path d="M199.81,199.59,202,176.48a12.63,12.63,0,0,1,5.08-9.5c6.1-4.48,15.7-10,15.7-10l12.87-.55A17.94,17.94,0,0,1,253,167.58l9.37,21.18a7.82,7.82,0,0,1-7.13,10.89H249.1l-15.53-.06Z" style="fill: #83b7a2;fill-rule: evenodd"/>
  <path d="M227.38,194.68l16.21-4.45,1,9.42L234,199.59l-10.63-.17A5.29,5.29,0,0,1,227.38,194.68Z" style="fill: #c28c75;fill-rule: evenodd"/>
  <path d="M230.27,197.86H219.34L215,173.66a2.08,2.08,0,0,0-2.06-1.68H174.47a1,1,0,0,0-1,1.14L178,198.33a1.56,1.56,0,0,0,1.57,1.32H234C234,198,232,197.86,230.27,197.86Z" style="fill: #293e40;fill-rule: evenodd"/>
  <path d="M231,152.39a11.29,11.29,0,0,0-13.72-8.28,11,11,0,0,0-6.33,4.26l-.83-.72-1,4.62a5,5,0,0,0-.24.9v.06a12.19,12.19,0,0,0,.18,4.8,11.53,11.53,0,0,0,5.86,7.38,8.3,8.3,0,0,0,15.56-5.76A12,12,0,0,0,231,152.39Z" style="fill: #c28c75;fill-rule: evenodd"/>
  <path d="M222.18,152v.43a5.76,5.76,0,0,0,3.78,5.42,2.61,2.61,0,0,1,2-2.34,2.71,2.71,0,0,1,3.29,1.91v.37h.06l1.42-6.41Z" style="fill: #293e40;fill-rule: evenodd"/>
  <path d="M262.87,136.49,240.1,139,234,82.54l42.48-4.74,4,36.58A20,20,0,0,1,262.87,136.49Z" style="fill: #b9dbcc;fill-rule: evenodd"/>
  <path d="M131,140.05a12.71,12.71,0,0,0-2-5,5.84,5.84,0,0,0,.72-2.7,5.71,5.71,0,0,0-10.85-2.46,9.16,9.16,0,0,0-1.8.18A12.11,12.11,0,0,0,107,142.63h-.59A14.38,14.38,0,1,0,120.79,157a16.29,16.29,0,0,0-.3-2.94,2.25,2.25,0,0,0,.6-.06A12.1,12.1,0,0,0,131,140.05Z" style="fill: #293e40;fill-rule: evenodd"/>
  <path d="M132.77,199.65l-1.31-16.85a7.07,7.07,0,0,0,2-9.86l-5.86-8.49-11.49-8.36c-4.79,4.54-9.28,7.41-6.89,19.12l1,18.22-1.79,6.22Z" style="fill: #aed0db;fill-rule: evenodd"/>
  <path d="M165.94,170.22l-12,26.56H130.32a2.92,2.92,0,0,0-2.92,2.87h26.8a2.72,2.72,0,0,0,2.5-1.61l10.67-24A2.91,2.91,0,0,0,165.94,170.22Z" style="fill: #293e40;fill-rule: evenodd"/>
  <path d="M148.6,194.46a6.75,6.75,0,0,0-3.91-1.69l-6.9-.85-10.63-1.75-1.74-8.77-12.73,3.33,1.68,6.16c.72,4.06,1.68,8.41,5.7,10h-.48a18.3,18.3,0,0,0,7.69-.36l11.35-2.66,12.91-1.15Z" style="fill: #925a5d;fill-rule: evenodd"/>
  <path d="M134.86,141.16l-.18-.55.36-.36a.72.72,0,0,0,.24-.72,1,1,0,0,0-.77-.61l-.42-.12a13.2,13.2,0,0,0-4.65-5.67l-3.27,4.71.77,4.52a3,3,0,0,1-4.35,2.78s-4.58,9.47-6.37,10.74l11.44,8.45-1.91-4,1.67-5.8c.83-.48,1.61-1,2.2-1.38l1.13-.73A9.85,9.85,0,0,0,134.86,141.16Z" style="fill: #925a5d;fill-rule: evenodd"/>
  <circle cx="120.93" cy="145.49" r="2.94" style="fill: #925a5d"/>
  <path d="M123.57,139.75a4.87,4.87,0,1,1-4.69,8.54,4.87,4.87,0,1,1,4.69-8.54Z" style="fill: #fff;fill-rule: evenodd"/>
  <polygon points="122.11 142.28 119.66 143.73 112.1 131.56 114.54 130.19 122.11 142.28" style="fill: #fff;fill-rule: evenodd"/>
  <path d="M278.1,127.84l-3.67-4.72-.55.72a1.64,1.64,0,0,0-.24,1.67l2.2,5.85Z" style="fill: #bc8860;fill-rule: evenodd"/>
  <path d="M230.71,163.15c0-.11.3-5.3.3-5.3l-4.71,1.34Z" style="fill: #c28c75;fill-rule: evenodd"/>
  <path d="M208.7,149c-.06.06-.06.06-.06.12a4.16,4.16,0,0,0,4.27,4,4.35,4.35,0,0,0,4-2.55C214.47,150.15,210.86,149.42,208.7,149Z" style="fill: #293e40;fill-rule: evenodd"/>
  <path d="M203.78,146.76l6.46.12a11.44,11.44,0,0,1,13.65-8.82A11.68,11.68,0,0,1,232.57,152l-.6,2.92-29.81-6.81A1.67,1.67,0,0,1,203.78,146.76Z" style="fill: #749daa;fill-rule: evenodd"/>
</svg>
