<svg id="Layer_1" data-name="Layer 1" xmlns="http://www.w3.org/2000/svg" viewBox="0 0 360.19 209.57">
  <title>nugget_graph_3</title>
  <text transform="translate(45.74 41.96)" style="font-size: 18px;fill: #314041;font-family: OpenSans, Open Sans">Time to market is a <tspan x="52.39" y="21.6">fundamental </tspan><tspan x="21.1" y="43.2">measure of agile </tspan><tspan x="91.6" y="64.8">success.</tspan></text>
  <path d="M323.9,135.48a11.32,11.32,0,0,0-5.72.3,5.1,5.1,0,0,0,.3-.91c2.23-7-1.27-13-8.26-15.12a14,14,0,0,0-11.32,1.57l-.79,7.17s15.13,28,21.27,29.28a11.37,11.37,0,0,0,4.52-22.29Z" style="fill: #293e40;fill-rule: evenodd"/>
  <path d="M274.35,122.79c3.92,6.44,16.58,21.62,16.58,21.62l5.42.3-.18,12-6-.73a7.07,7.07,0,0,1-5.3-3.46c-.06-.12-.12-.19-.18-.31l-18.92-30.72,4.4-.92A4.48,4.48,0,0,1,274.35,122.79Z" style="fill: #bc8860;fill-rule: evenodd"/>
  <polygon points="314.83 145.47 296.36 144.9 295.76 158.5 319.89 160.21 314.83 145.47" style="fill: #efecea;fill-rule: evenodd"/>
  <path d="M313.38,143.65l-5-8.76a2.9,2.9,0,0,0,2.36-2.86,3,3,0,0,0-6-.42l-3-1.31a4.74,4.74,0,0,1-2.78-4.29v-4.53c.06,0,.12-.06.18-.12a12.53,12.53,0,0,0-5.69,8.34l-1.4.72a.7.7,0,0,0-.3.29.66.66,0,0,0,.24.72l1.15.71c-.12,5.31,3.21,9.54,8.84,10.67a1.75,1.75,0,0,1,.55.12L306,150.2l11-4.83Z" style="fill: #bc8860;fill-rule: evenodd"/>
  <path d="M322.84,199.65,317,187.29Z" style="fill: #6ea0af;fill-rule: evenodd"/>
  <path d="M334.48,173.69l-10.22-24.5a9.41,9.41,0,0,0-6.61-5.69,9.09,9.09,0,0,0-4-.06,9.53,9.53,0,0,0-7.75,10.3l.36,3.83a6.4,6.4,0,0,0,2.22,11.57l8.71,18.15,21-9.47Z" style="fill: #efecea;fill-rule: evenodd"/>
  <path d="M338,177.87l-21,9.58,2.29,4.92,3.43,7.28h28.68C352.86,184.91,338,177.87,338,177.87Z" style="fill: #6ea0af;fill-rule: evenodd"/>
  <path d="M326.13,170.22l-11.53.48,9,27.58L318.44,200a2.25,2.25,0,0,0-1.22,2h13.31a2.26,2.26,0,0,0,2.25-2.4Z" style="fill: #bc8860;fill-rule: evenodd"/>
  <path d="M276.65,170.8l11.58,26h23a2.86,2.86,0,0,1,2.79,2.88h-26a2.66,2.66,0,0,1-2.43-1.62l-10.4-23.45A2.87,2.87,0,0,1,276.65,170.8Z" style="fill: #293e40;fill-rule: evenodd"/>
  <path d="M199.81,199.59,202,176.48a12.63,12.63,0,0,1,5.08-9.5c6.1-4.48,15.7-10,15.7-10l12.87-.55A17.94,17.94,0,0,1,253,167.58l9.37,21.18a7.82,7.82,0,0,1-7.13,10.89H249.1l-15.53-.06Z" style="fill: #83b7a2;fill-rule: evenodd"/>
  <path d="M227.38,194.68l16.21-4.45,1,9.42L234,199.59l-10.63-.17A5.29,5.29,0,0,1,227.38,194.68Z" style="fill: #c28c75;fill-rule: evenodd"/>
  <path d="M230.27,197.86H219.34L215,173.66a2.08,2.08,0,0,0-2.06-1.68H174.47a1,1,0,0,0-1,1.14L178,198.33a1.56,1.56,0,0,0,1.57,1.32H234C234,198,232,197.86,230.27,197.86Z" style="fill: #293e40;fill-rule: evenodd"/>
  <path d="M231,152.39a11.29,11.29,0,0,0-13.72-8.28,11,11,0,0,0-6.33,4.26l-.83-.72-1,4.62a5,5,0,0,0-.24.9v.06a12.19,12.19,0,0,0,.18,4.8,11.53,11.53,0,0,0,5.86,7.38,8.3,8.3,0,0,0,15.56-5.76A12,12,0,0,0,231,152.39Z" style="fill: #c28c75;fill-rule: evenodd"/>
  <path d="M222.18,152v.43a5.76,5.76,0,0,0,3.78,5.42,2.61,2.61,0,0,1,2-2.34,2.71,2.71,0,0,1,3.29,1.91v.37h.06l1.42-6.41Z" style="fill: #293e40;fill-rule: evenodd"/>
  <path d="M262.87,136.49,240.1,139,234,82.54l42.48-4.74,4,36.58A20,20,0,0,1,262.87,136.49Z" style="fill: #b9dbcc;fill-rule: evenodd"/>
  <path d="M131,140.05a12.71,12.71,0,0,0-2-5,5.84,5.84,0,0,0,.72-2.7,5.71,5.71,0,0,0-10.85-2.46,9.16,9.16,0,0,0-1.8.18A12.11,12.11,0,0,0,107,142.63h-.59A14.38,14.38,0,1,0,120.79,157a16.29,16.29,0,0,0-.3-2.94,2.25,2.25,0,0,0,.6-.06A12.1,12.1,0,0,0,131,140.05Z" style="fill: #293e40;fill-rule: evenodd"/>
  <path d="M132.77,199.65l-1.31-16.85a7.07,7.07,0,0,0,2-9.86l-5.86-8.49-11.49-8.36c-4.79,4.54-9.28,7.41-6.89,19.12l1,18.22-1.79,6.22Z" style="fill: #aed0db;fill-rule: evenodd"/>
  <path d="M165.94,170.22l-12,26.56H130.32a2.92,2.92,0,0,0-2.92,2.87h26.8a2.72,2.72,0,0,0,2.5-1.61l10.67-24A2.91,2.91,0,0,0,165.94,170.22Z" style="fill: #293e40;fill-rule: evenodd"/>
  <path d="M148.6,194.46a6.75,6.75,0,0,0-3.91-1.69l-6.9-.85-10.63-1.75-1.74-8.77-12.73,3.33,1.68,6.16c.72,4.06,1.68,8.41,5.7,10h-.48a18.3,18.3,0,0,0,7.69-.36l11.35-2.66,12.91-1.15Z" style="fill: #925a5d;fill-rule: evenodd"/>
  <path d="M134.86,141.16l-.18-.55.36-.36a.72.72,0,0,0,.24-.72,1,1,0,0,0-.77-.61l-.42-.12a13.2,13.2,0,0,0-4.65-5.67l-3.27,4.71.77,4.52a3,3,0,0,1-4.35,2.78s-4.58,9.47-6.37,10.74l11.44,8.45-1.91-4,1.67-5.8c.83-.48,1.61-1,2.2-1.38l1.13-.73A9.85,9.85,0,0,0,134.86,141.16Z" style="fill: #925a5d;fill-rule: evenodd"/>
  <circle cx="120.93" cy="145.49" r="2.94" style="fill: #925a5d"/>
  <path d="M123.57,139.75a4.87,4.87,0,1,1-4.69,8.54,4.87,4.87,0,1,1,4.69-8.54Z" style="fill: #fff;fill-rule: evenodd"/>
  <polygon points="122.11 142.28 119.66 143.73 112.1 131.56 114.54 130.19 122.11 142.28" style="fill: #fff;fill-rule: evenodd"/>
  <path d="M278.1,127.84l-3.67-4.72-.55.72a1.64,1.64,0,0,0-.24,1.67l2.2,5.85Z" style="fill: #bc8860;fill-rule: evenodd"/>
  <path d="M230.71,163.15c0-.11.3-5.3.3-5.3l-4.71,1.34Z" style="fill: #c28c75;fill-rule: evenodd"/>
  <path d="M208.7,149c-.06.06-.06.06-.06.12a4.16,4.16,0,0,0,4.27,4,4.35,4.35,0,0,0,4-2.55C214.47,150.15,210.86,149.42,208.7,149Z" style="fill: #293e40;fill-rule: evenodd"/>
  <path d="M203.78,146.76l6.46.12a11.44,11.44,0,0,1,13.65-8.82A11.68,11.68,0,0,1,232.57,152l-.6,2.92-29.81-6.81A1.67,1.67,0,0,1,203.78,146.76Z" style="fill: #749daa;fill-rule: evenodd"/>
</svg>
