<svg id="Layer_1" data-name="Layer 1" xmlns="http://www.w3.org/2000/svg" viewBox="0 0 374.33 160.63">
  <title>nugget_graph_2es</title>
  <g>
    <path d="M195.44,36.66h-1.71V39.6h-2.94V36.66h-6.07V34.57L191,25.38h2.77v8.94h1.71Zm-4.65-2.34V31.91c0-.4,0-1,.05-1.75s.06-1.21.08-1.33h-.08a11.25,11.25,0,0,1-.86,1.55l-2.61,3.94Z" style="fill: #314041"/>
    <path d="M206.81,36.66H205.1V39.6h-2.94V36.66h-6.07V34.57l6.24-9.19h2.77v8.94h1.71Zm-4.65-2.34V31.91c0-.4,0-1,.05-1.75s.06-1.21.08-1.33h-.08a11.25,11.25,0,0,1-.86,1.55l-2.61,3.94Z" style="fill: #314041"/>
    <path d="M214.49,29.63a5.44,5.44,0,0,1-.86,3.36,3,3,0,0,1-2.54,1.12A3,3,0,0,1,208.61,33a5.46,5.46,0,0,1-.88-3.33q0-4.45,3.36-4.45a3,3,0,0,1,2.52,1.15A5.34,5.34,0,0,1,214.49,29.63Zm-4.3,0a6.07,6.07,0,0,0,.21,1.85c.15.4.38.61.71.61q.93,0,.93-2.46t-.93-2.43c-.33,0-.56.2-.71.6A5.92,5.92,0,0,0,210.19,29.64Zm11-4.26L213.3,39.6H211l7.89-14.22Zm3.26,9.93a5.43,5.43,0,0,1-.86,3.35,3,3,0,0,1-2.54,1.12,2.92,2.92,0,0,1-2.48-1.15,5.45,5.45,0,0,1-.88-3.32q0-4.45,3.36-4.45A3,3,0,0,1,223.57,32,5.34,5.34,0,0,1,224.45,35.31Zm-4.3,0a6.07,6.07,0,0,0,.21,1.85c.15.4.38.61.71.61q.93,0,.93-2.46t-.93-2.43c-.33,0-.56.2-.71.6A5.92,5.92,0,0,0,220.15,35.32Z" style="fill: #314041"/>
  </g>
  <g>
    <path d="M194.23,65.45l-1.6-4.09h-5.15l-1.58,4.09h-1.52l5.08-12.9h1.26l5.05,12.9ZM192.16,60l-1.49-4a18.74,18.74,0,0,1-.6-1.86,17.51,17.51,0,0,1-.55,1.86L188,60Z" style="fill: #314041"/>
    <path d="M198.69,55.82v6.24a2.49,2.49,0,0,0,.54,1.76,2.18,2.18,0,0,0,1.68.58,2.75,2.75,0,0,0,2.21-.82,4.2,4.2,0,0,0,.7-2.7V55.82h1.45v9.63h-1.2l-.21-1.29h-.08a3,3,0,0,1-1.24,1.09,4.23,4.23,0,0,1-1.82.37,3.66,3.66,0,0,1-2.63-.83,3.57,3.57,0,0,1-.87-2.67v-6.3Zm1.53-1.5a14.74,14.74,0,0,0,.91-1.32,14,14,0,0,0,.77-1.34h1.78v.18a13.92,13.92,0,0,1-1.16,1.41,12.74,12.74,0,0,1-1.32,1.29h-1Z" style="fill: #314041"/>
    <path d="M215,65.45V59.22a2.51,2.51,0,0,0-.54-1.76,2.14,2.14,0,0,0-1.67-.58,2.76,2.76,0,0,0-2.22.82,4.09,4.09,0,0,0-.7,2.69v5.06h-1.46V55.82h1.19l.23,1.31h.07a3,3,0,0,1,1.26-1.1,4.1,4.1,0,0,1,1.8-.39,3.67,3.67,0,0,1,2.62.84,3.54,3.54,0,0,1,.88,2.68v6.29Z" style="fill: #314041"/>
    <path d="M228.16,65.62a4.41,4.41,0,0,1-3.37-1.3,5,5,0,0,1-1.23-3.61A5.6,5.6,0,0,1,224.7,57a3.83,3.83,0,0,1,3.08-1.37,3.65,3.65,0,0,1,2.87,1.19,4.57,4.57,0,0,1,1,3.14v.93h-6.63a3.83,3.83,0,0,0,.85,2.57,3,3,0,0,0,2.29.88,7.82,7.82,0,0,0,3.08-.65V65a8.27,8.27,0,0,1-1.46.48A8.07,8.07,0,0,1,228.16,65.62Zm-.39-8.76a2.36,2.36,0,0,0-1.85.76,3.52,3.52,0,0,0-.82,2.09h5a3.18,3.18,0,0,0-.62-2.11A2.15,2.15,0,0,0,227.77,56.86Z" style="fill: #314041"/>
    <path d="M240.4,62.82a2.39,2.39,0,0,1-1,2.07,4.67,4.67,0,0,1-2.81.73,6.19,6.19,0,0,1-3-.6V63.66a7.16,7.16,0,0,0,1.49.56,6.45,6.45,0,0,0,1.54.2,3.49,3.49,0,0,0,1.75-.36,1.23,1.23,0,0,0,.62-1.12,1.2,1.2,0,0,0-.49-1,7.41,7.41,0,0,0-1.9-.94,10.19,10.19,0,0,1-1.91-.88,2.65,2.65,0,0,1-.85-.85,2.22,2.22,0,0,1-.27-1.13,2.17,2.17,0,0,1,.95-1.86,4.51,4.51,0,0,1,2.63-.68,7.7,7.7,0,0,1,3,.63l-.52,1.19a6.91,6.91,0,0,0-2.62-.6,3,3,0,0,0-1.57.33,1,1,0,0,0-.53.89,1.1,1.1,0,0,0,.2.66,2,2,0,0,0,.64.52,14.2,14.2,0,0,0,1.69.71,6.36,6.36,0,0,1,2.31,1.26A2.21,2.21,0,0,1,240.4,62.82Z" style="fill: #314041"/>
    <path d="M254.05,65.45V59.22a2.51,2.51,0,0,0-.54-1.76,2.18,2.18,0,0,0-1.68-.58,2.73,2.73,0,0,0-2.21.82,4.09,4.09,0,0,0-.71,2.69v5.06h-1.46V55.82h1.19l.24,1.31H249A3,3,0,0,1,250.2,56a4.11,4.11,0,0,1,1.81-.39,3.67,3.67,0,0,1,2.62.84,3.58,3.58,0,0,1,.87,2.68v6.29Z" style="fill: #314041"/>
    <path d="M262.57,65.62a4.41,4.41,0,0,1-3.37-1.3A5,5,0,0,1,258,60.71a5.6,5.6,0,0,1,1.14-3.7,3.83,3.83,0,0,1,3.08-1.37,3.65,3.65,0,0,1,2.87,1.19A4.57,4.57,0,0,1,266.11,60v.93h-6.63a3.83,3.83,0,0,0,.85,2.57,3,3,0,0,0,2.29.88,7.82,7.82,0,0,0,3.08-.65V65a8.27,8.27,0,0,1-1.46.48A8.07,8.07,0,0,1,262.57,65.62Zm-.39-8.76a2.38,2.38,0,0,0-1.86.76,3.46,3.46,0,0,0-.81,2.09h5a3.18,3.18,0,0,0-.62-2.11A2.15,2.15,0,0,0,262.18,56.86Z" style="fill: #314041"/>
    <path d="M272.45,65.62a4.15,4.15,0,0,1-3.24-1.28,5.34,5.34,0,0,1-1.15-3.65A5.43,5.43,0,0,1,269.23,57a4.18,4.18,0,0,1,3.32-1.32,6.64,6.64,0,0,1,1.39.15,4.71,4.71,0,0,1,1.08.35l-.44,1.24a6.57,6.57,0,0,0-1.06-.32,4.43,4.43,0,0,0-1-.13c-2,0-2.93,1.25-2.93,3.75a4.43,4.43,0,0,0,.71,2.72,2.51,2.51,0,0,0,2.12.95,6.37,6.37,0,0,0,2.47-.52v1.29A5.15,5.15,0,0,1,272.45,65.62Z" style="fill: #314041"/>
    <path d="M281.24,65.62a4.4,4.4,0,0,1-3.37-1.3,5,5,0,0,1-1.24-3.61,5.61,5.61,0,0,1,1.15-3.7,3.81,3.81,0,0,1,3.08-1.37,3.66,3.66,0,0,1,2.87,1.19,4.57,4.57,0,0,1,1,3.14v.93h-6.63a3.77,3.77,0,0,0,.85,2.57,3,3,0,0,0,2.29.88,7.85,7.85,0,0,0,3.08-.65V65a8.35,8.35,0,0,1-1.47.48A8,8,0,0,1,281.24,65.62Zm-.4-8.76a2.37,2.37,0,0,0-1.85.76,3.46,3.46,0,0,0-.81,2.09h5a3.18,3.18,0,0,0-.62-2.11A2.16,2.16,0,0,0,280.84,56.86Z" style="fill: #314041"/>
    <path d="M293.48,62.82a2.39,2.39,0,0,1-1,2.07,4.69,4.69,0,0,1-2.81.73,6.16,6.16,0,0,1-3-.6V63.66a7.16,7.16,0,0,0,1.49.56,6.43,6.43,0,0,0,1.53.2,3.53,3.53,0,0,0,1.76-.36,1.26,1.26,0,0,0,.13-2.08,7.59,7.59,0,0,0-1.9-.94,10.69,10.69,0,0,1-1.92-.88,2.61,2.61,0,0,1-.84-.85,2.13,2.13,0,0,1-.28-1.13,2.15,2.15,0,0,1,1-1.86,4.51,4.51,0,0,1,2.63-.68,7.7,7.7,0,0,1,3,.63l-.52,1.19a7,7,0,0,0-2.63-.6,3,3,0,0,0-1.56.33,1,1,0,0,0-.53.89,1.1,1.1,0,0,0,.2.66,1.85,1.85,0,0,0,.64.52,14.6,14.6,0,0,0,1.68.71,6.34,6.34,0,0,1,2.32,1.26A2.21,2.21,0,0,1,293.48,62.82Z" style="fill: #314041"/>
    <path d="M301.78,65.45l-.29-1.37h-.07A4,4,0,0,1,300,65.3a4.28,4.28,0,0,1-1.79.32,3.21,3.21,0,0,1-2.24-.73,2.69,2.69,0,0,1-.82-2.1q0-2.92,4.67-3.06l1.64-.06v-.59A2.48,2.48,0,0,0,301,57.4a2,2,0,0,0-1.56-.54,6.45,6.45,0,0,0-2.73.74l-.44-1.12a6.84,6.84,0,0,1,1.55-.6,6.69,6.69,0,0,1,1.71-.22,3.67,3.67,0,0,1,2.55.76,3.21,3.21,0,0,1,.83,2.45v6.58Zm-3.3-1a3,3,0,0,0,2.14-.75,2.75,2.75,0,0,0,.78-2.09v-.87l-1.46.06a5.28,5.28,0,0,0-2.51.54,1.64,1.64,0,0,0-.77,1.49,1.52,1.52,0,0,0,.48,1.21A2,2,0,0,0,298.48,64.42Z" style="fill: #314041"/>
    <path d="M310.26,55.64a5,5,0,0,1,1.15.11l-.2,1.35a4.84,4.84,0,0,0-1.06-.13,2.57,2.57,0,0,0-2,1,3.47,3.47,0,0,0-.83,2.36v5.17h-1.45V55.82h1.2l.17,1.78h.07a4.17,4.17,0,0,1,1.29-1.45A2.9,2.9,0,0,1,310.26,55.64Z" style="fill: #314041"/>
    <path d="M313.09,53.21a1,1,0,0,1,.25-.74.87.87,0,0,1,.61-.23.85.85,0,0,1,.61.24.94.94,0,0,1,.25.73,1,1,0,0,1-.25.73.85.85,0,0,1-.61.24.84.84,0,0,1-.61-.24A1,1,0,0,1,313.09,53.21Zm1.58,12.24h-1.46V55.82h1.46Z" style="fill: #314041"/>
    <path d="M326.08,60.62a5.27,5.27,0,0,1-1.19,3.68,4.17,4.17,0,0,1-3.27,1.32,4.38,4.38,0,0,1-2.3-.6,4.1,4.1,0,0,1-1.55-1.74,6.13,6.13,0,0,1-.54-2.66A5.29,5.29,0,0,1,318.41,57a4.17,4.17,0,0,1,3.27-1.31A4.09,4.09,0,0,1,324.89,57,5.32,5.32,0,0,1,326.08,60.62Zm-7.34,0a4.62,4.62,0,0,0,.74,2.82,2.94,2.94,0,0,0,4.35,0,4.58,4.58,0,0,0,.74-2.82,4.53,4.53,0,0,0-.74-2.79,2.64,2.64,0,0,0-2.2-.95,2.57,2.57,0,0,0-2.16.94A4.5,4.5,0,0,0,318.74,60.62Z" style="fill: #314041"/>
    <path d="M192.49,85.76h-.08a3.45,3.45,0,0,1-3,1.46,3.58,3.58,0,0,1-2.94-1.29,5.67,5.67,0,0,1-1.05-3.67,5.8,5.8,0,0,1,1.06-3.7,3.91,3.91,0,0,1,5.94.1h.11l-.06-.69,0-.68V73.37h1.46V87.05h-1.19Zm-2.92.24a2.64,2.64,0,0,0,2.16-.81,4.09,4.09,0,0,0,.68-2.62v-.31a4.84,4.84,0,0,0-.68-2.92,2.58,2.58,0,0,0-2.18-.88,2.22,2.22,0,0,0-2,1,4.9,4.9,0,0,0-.68,2.82,4.73,4.73,0,0,0,.67,2.78A2.29,2.29,0,0,0,189.57,86Z" style="fill: #314041"/>
    <path d="M196.84,74.81a1,1,0,0,1,.24-.74.9.9,0,0,1,.62-.23.87.87,0,0,1,.61.24.94.94,0,0,1,.25.73,1,1,0,0,1-.25.73.87.87,0,0,1-.61.24.86.86,0,0,1-.62-.24A1,1,0,0,1,196.84,74.81Zm1.58,12.24H197V77.42h1.46Z" style="fill: #314041"/>
    <path d="M209.4,77.42v.92l-1.79.21a2.85,2.85,0,0,1,.44.8,3.06,3.06,0,0,1,.2,1.12,2.85,2.85,0,0,1-1,2.26,3.88,3.88,0,0,1-2.66.85,5.07,5.07,0,0,1-.8-.07,1.42,1.42,0,0,0-.94,1.24.63.63,0,0,0,.33.58,2.34,2.34,0,0,0,1.12.19H206a3.81,3.81,0,0,1,2.4.66,2.29,2.29,0,0,1,.84,1.91A2.72,2.72,0,0,1,208,90.53a6.84,6.84,0,0,1-3.74.84,5.15,5.15,0,0,1-2.92-.7,2.41,2.41,0,0,1-.46-3.51,2.85,2.85,0,0,1,1.58-.87,1.54,1.54,0,0,1-.62-.52,1.39,1.39,0,0,1-.25-.81,1.65,1.65,0,0,1,.28-.93,3.17,3.17,0,0,1,.89-.76,2.62,2.62,0,0,1-1.22-1,3.08,3.08,0,0,1-.47-1.68A3.12,3.12,0,0,1,202,78.1a3.9,3.9,0,0,1,2.69-.86,4.84,4.84,0,0,1,1.37.18Zm-7.68,11.25a1.31,1.31,0,0,0,.65,1.18,3.63,3.63,0,0,0,1.89.41,5.3,5.3,0,0,0,2.72-.55,1.7,1.7,0,0,0,.89-1.49,1.17,1.17,0,0,0-.49-1.09,3.76,3.76,0,0,0-1.82-.3h-1.74a2.33,2.33,0,0,0-1.55.47A1.7,1.7,0,0,0,201.72,88.67Zm.79-8.17a2,2,0,0,0,.57,1.53,2.26,2.26,0,0,0,1.59.52,1.86,1.86,0,0,0,2.13-2.08,1.92,1.92,0,0,0-2.16-2.17,2.14,2.14,0,0,0-1.58.56A2.21,2.21,0,0,0,202.51,80.5Z" style="fill: #314041"/>
    <path d="M211.25,74.81a1,1,0,0,1,.25-.74.87.87,0,0,1,.61-.23.85.85,0,0,1,.61.24.94.94,0,0,1,.25.73,1,1,0,0,1-.25.73.85.85,0,0,1-.61.24.84.84,0,0,1-.61-.24A1,1,0,0,1,211.25,74.81Zm1.58,12.24h-1.46V77.42h1.46Z" style="fill: #314041"/>
    <path d="M219,86a4.56,4.56,0,0,0,.75-.06,3.67,3.67,0,0,0,.57-.12V87a2.53,2.53,0,0,1-.7.19,5.25,5.25,0,0,1-.83.07c-1.87,0-2.8-1-2.8-2.94V78.55h-1.38v-.7l1.38-.61.62-2.06h.84v2.24h2.8v1.13h-2.8v5.67a2,2,0,0,0,.41,1.33A1.46,1.46,0,0,0,219,86Z" style="fill: #314041"/>
    <path d="M228.21,87.05l-.29-1.37h-.07a4.09,4.09,0,0,1-1.44,1.22,4.31,4.31,0,0,1-1.79.32,3.24,3.24,0,0,1-2.25-.73,2.72,2.72,0,0,1-.81-2.1q0-2.92,4.67-3.06l1.63-.06v-.59a2.43,2.43,0,0,0-.49-1.68,2,2,0,0,0-1.56-.54,6.37,6.37,0,0,0-2.72.74l-.45-1.12a7.11,7.11,0,0,1,1.56-.6,6.61,6.61,0,0,1,1.7-.22,3.7,3.7,0,0,1,2.56.76,3.21,3.21,0,0,1,.83,2.45v6.58Zm-3.3-1a3,3,0,0,0,2.14-.75,2.75,2.75,0,0,0,.78-2.09v-.87l-1.46.06a5.28,5.28,0,0,0-2.51.54,1.64,1.64,0,0,0-.77,1.49,1.52,1.52,0,0,0,.48,1.21A2,2,0,0,0,224.91,86Z" style="fill: #314041"/>
    <path d="M233.75,87.05h-1.46V73.37h1.46Z" style="fill: #314041"/>
    <path d="M236.72,74.81a1,1,0,0,1,.25-.74.87.87,0,0,1,.61-.23.85.85,0,0,1,.61.24.94.94,0,0,1,.25.73,1,1,0,0,1-.25.73.85.85,0,0,1-.61.24.84.84,0,0,1-.61-.24A1,1,0,0,1,236.72,74.81Zm1.58,12.24h-1.45V77.42h1.45Z" style="fill: #314041"/>
    <path d="M247.56,87.05h-7v-1l5.26-7.51H240.9V77.42h6.53v1.13l-5.19,7.36h5.32Z" style="fill: #314041"/>
    <path d="M255.74,87.05l-.29-1.37h-.07a4,4,0,0,1-1.44,1.22,4.23,4.23,0,0,1-1.78.32,3.22,3.22,0,0,1-2.25-.73,2.72,2.72,0,0,1-.81-2.1q0-2.92,4.66-3.06l1.64-.06v-.59a2.43,2.43,0,0,0-.49-1.68,2,2,0,0,0-1.56-.54,6.37,6.37,0,0,0-2.72.74l-.45-1.12a6.74,6.74,0,0,1,1.56-.6,6.56,6.56,0,0,1,1.7-.22A3.65,3.65,0,0,1,256,78a3.17,3.17,0,0,1,.83,2.45v6.58Zm-3.29-1a3,3,0,0,0,2.14-.75,2.79,2.79,0,0,0,.77-2.09v-.87l-1.46.06a5.24,5.24,0,0,0-2.5.54,1.62,1.62,0,0,0-.77,1.49,1.52,1.52,0,0,0,.48,1.21A2,2,0,0,0,252.45,86Z" style="fill: #314041"/>
    <path d="M264.22,77.24a5,5,0,0,1,1.15.11l-.2,1.35a4.83,4.83,0,0,0-1.05-.13,2.54,2.54,0,0,0-2,1,3.42,3.42,0,0,0-.83,2.36v5.17h-1.46V77.42H261l.17,1.78h.07a4.27,4.27,0,0,1,1.29-1.45A2.93,2.93,0,0,1,264.22,77.24Z" style="fill: #314041"/>
    <path d="M273.31,87.05h-1.46V73.37h1.46Z" style="fill: #314041"/>
    <path d="M284.72,82.22a5.32,5.32,0,0,1-1.19,3.68,4.18,4.18,0,0,1-3.28,1.32,4.37,4.37,0,0,1-2.29-.6,4.1,4.1,0,0,1-1.55-1.74,6.13,6.13,0,0,1-.54-2.66,5.29,5.29,0,0,1,1.18-3.67,4.17,4.17,0,0,1,3.27-1.31,4.11,4.11,0,0,1,3.21,1.34A5.32,5.32,0,0,1,284.72,82.22Zm-7.34,0a4.62,4.62,0,0,0,.74,2.82,2.93,2.93,0,0,0,4.34,0,4.52,4.52,0,0,0,.75-2.82,4.46,4.46,0,0,0-.75-2.79,2.61,2.61,0,0,0-2.19-1,2.57,2.57,0,0,0-2.16.94A4.5,4.5,0,0,0,277.38,82.22Z" style="fill: #314041"/>
    <path d="M293.49,84.42a2.39,2.39,0,0,1-1,2.07,4.69,4.69,0,0,1-2.81.73,6.16,6.16,0,0,1-3-.6V85.26a7.16,7.16,0,0,0,1.49.56,6.43,6.43,0,0,0,1.53.2,3.53,3.53,0,0,0,1.76-.36,1.27,1.27,0,0,0,.13-2.08,7.52,7.52,0,0,0-1.91-.94,10.86,10.86,0,0,1-1.91-.88,2.51,2.51,0,0,1-.84-.85,2.13,2.13,0,0,1-.28-1.13,2.16,2.16,0,0,1,1-1.86,4.49,4.49,0,0,1,2.63-.68,7.74,7.74,0,0,1,3,.63l-.52,1.19a7,7,0,0,0-2.63-.6,3,3,0,0,0-1.56.33,1,1,0,0,0-.53.89,1.1,1.1,0,0,0,.2.66,1.85,1.85,0,0,0,.64.52,14.6,14.6,0,0,0,1.68.71,6.34,6.34,0,0,1,2.32,1.26A2.21,2.21,0,0,1,293.49,84.42Z" style="fill: #314041"/>
    <path d="M190.41,108.82a4.23,4.23,0,0,1-1.72-.34,3.26,3.26,0,0,1-1.3-1.07h-.11a12.92,12.92,0,0,1,.11,1.6v4h-1.46V99h1.19l.2,1.31h.07a3.44,3.44,0,0,1,1.31-1.14,4,4,0,0,1,1.71-.35,3.56,3.56,0,0,1,3,1.31,7,7,0,0,1,0,7.36A3.54,3.54,0,0,1,190.41,108.82Zm-.21-8.74a2.57,2.57,0,0,0-2.13.82,4.17,4.17,0,0,0-.68,2.6v.32a4.75,4.75,0,0,0,.68,2.91,2.57,2.57,0,0,0,2.17.87,2.23,2.23,0,0,0,1.95-1,4.78,4.78,0,0,0,.71-2.78,4.62,4.62,0,0,0-.71-2.77A2.32,2.32,0,0,0,190.2,100.08Z" style="fill: #314041"/>
    <path d="M201.36,98.84a5.79,5.79,0,0,1,1.15.1l-.21,1.36a4.76,4.76,0,0,0-1.05-.13,2.54,2.54,0,0,0-2,1,3.47,3.47,0,0,0-.83,2.36v5.17H197V99h1.2l.17,1.78h.07a4.27,4.27,0,0,1,1.29-1.45A2.93,2.93,0,0,1,201.36,98.84Z" style="fill: #314041"/>
    <path d="M212.62,103.82a5.32,5.32,0,0,1-1.18,3.68,4.19,4.19,0,0,1-3.28,1.32,4.41,4.41,0,0,1-2.3-.6,4.08,4.08,0,0,1-1.54-1.74,6,6,0,0,1-.55-2.66,5.29,5.29,0,0,1,1.18-3.67,4.17,4.17,0,0,1,3.27-1.31,4.08,4.08,0,0,1,3.21,1.34A5.27,5.27,0,0,1,212.62,103.82Zm-7.34,0a4.62,4.62,0,0,0,.74,2.82,2.94,2.94,0,0,0,4.35,0,4.58,4.58,0,0,0,.74-2.82,4.53,4.53,0,0,0-.74-2.79,2.63,2.63,0,0,0-2.19-1A2.57,2.57,0,0,0,206,101,4.57,4.57,0,0,0,205.28,103.82Z" style="fill: #314041"/>
    <path d="M219,108.82a4.12,4.12,0,0,1-3.24-1.28,5.34,5.34,0,0,1-1.15-3.65,5.43,5.43,0,0,1,1.17-3.73,4.18,4.18,0,0,1,3.32-1.32,6.64,6.64,0,0,1,1.39.15,5,5,0,0,1,1.09.35l-.45,1.24a6.57,6.57,0,0,0-1.06-.32,4.43,4.43,0,0,0-1-.13c-2,0-2.93,1.25-2.93,3.75a4.43,4.43,0,0,0,.71,2.72,2.51,2.51,0,0,0,2.12,1,6.37,6.37,0,0,0,2.47-.52v1.29A5.15,5.15,0,0,1,219,108.82Z" style="fill: #314041"/>
    <path d="M227.82,108.82a4.41,4.41,0,0,1-3.37-1.3,5,5,0,0,1-1.24-3.61,5.61,5.61,0,0,1,1.15-3.7,3.81,3.81,0,0,1,3.08-1.37,3.66,3.66,0,0,1,2.87,1.19,4.57,4.57,0,0,1,1.05,3.14v.93h-6.63a3.77,3.77,0,0,0,.85,2.57,3,3,0,0,0,2.29.88,7.85,7.85,0,0,0,3.08-.65v1.3a8.35,8.35,0,0,1-1.47.48A8.72,8.72,0,0,1,227.82,108.82Zm-.4-8.76a2.37,2.37,0,0,0-1.85.76,3.46,3.46,0,0,0-.81,2.09h5a3.23,3.23,0,0,0-.62-2.12A2.18,2.18,0,0,0,227.42,100.06Z" style="fill: #314041"/>
    <path d="M240.06,106a2.39,2.39,0,0,1-1,2.07,4.69,4.69,0,0,1-2.81.73,6.16,6.16,0,0,1-3-.6v-1.36a7.16,7.16,0,0,0,1.49.56,6.43,6.43,0,0,0,1.53.2,3.53,3.53,0,0,0,1.76-.36,1.26,1.26,0,0,0,.13-2.08,7.59,7.59,0,0,0-1.9-.94,10.69,10.69,0,0,1-1.92-.88,2.61,2.61,0,0,1-.84-.85,2.13,2.13,0,0,1-.28-1.13,2.16,2.16,0,0,1,1-1.86,4.51,4.51,0,0,1,2.63-.68,7.7,7.7,0,0,1,3,.63l-.52,1.19a7,7,0,0,0-2.63-.6,3,3,0,0,0-1.56.33,1,1,0,0,0-.53.89,1.1,1.1,0,0,0,.2.66,1.85,1.85,0,0,0,.64.52,14.6,14.6,0,0,0,1.68.71,6.34,6.34,0,0,1,2.32,1.26A2.21,2.21,0,0,1,240.06,106Z" style="fill: #314041"/>
    <path d="M250.75,103.82a5.32,5.32,0,0,1-1.19,3.68,4.18,4.18,0,0,1-3.28,1.32,4.37,4.37,0,0,1-2.29-.6,4.1,4.1,0,0,1-1.55-1.74,6.13,6.13,0,0,1-.54-2.66,5.29,5.29,0,0,1,1.18-3.67,4.17,4.17,0,0,1,3.27-1.31,4.11,4.11,0,0,1,3.21,1.34A5.32,5.32,0,0,1,250.75,103.82Zm-7.34,0a4.62,4.62,0,0,0,.74,2.82,2.93,2.93,0,0,0,4.34,0,4.52,4.52,0,0,0,.75-2.82,4.46,4.46,0,0,0-.75-2.79,2.61,2.61,0,0,0-2.19-1,2.57,2.57,0,0,0-2.16.94A4.5,4.5,0,0,0,243.41,103.82Z" style="fill: #314041"/>
    <path d="M259.52,106a2.39,2.39,0,0,1-1,2.07,4.69,4.69,0,0,1-2.81.73,6.16,6.16,0,0,1-3-.6v-1.36a7.16,7.16,0,0,0,1.49.56,6.43,6.43,0,0,0,1.53.2,3.53,3.53,0,0,0,1.76-.36,1.27,1.27,0,0,0,.13-2.08,7.52,7.52,0,0,0-1.91-.94,10.86,10.86,0,0,1-1.91-.88,2.51,2.51,0,0,1-.84-.85,2.13,2.13,0,0,1-.28-1.13,2.16,2.16,0,0,1,1-1.86,4.49,4.49,0,0,1,2.63-.68,7.74,7.74,0,0,1,3,.63l-.52,1.19a7,7,0,0,0-2.63-.6,3,3,0,0,0-1.56.33,1,1,0,0,0-.53.89,1.1,1.1,0,0,0,.2.66,1.85,1.85,0,0,0,.64.52,14.6,14.6,0,0,0,1.68.71,6.34,6.34,0,0,1,2.32,1.26A2.21,2.21,0,0,1,259.52,106Z" style="fill: #314041"/>
    <path d="M273.13,107.36h-.08a3.45,3.45,0,0,1-3,1.46,3.58,3.58,0,0,1-2.94-1.29,5.67,5.67,0,0,1-1.05-3.67,5.8,5.8,0,0,1,1.06-3.7,3.91,3.91,0,0,1,5.94.1h.11l-.06-.69,0-.68V95h1.46v13.68h-1.19Zm-2.92.24a2.64,2.64,0,0,0,2.16-.81,4.09,4.09,0,0,0,.68-2.62v-.31a4.84,4.84,0,0,0-.68-2.92,2.58,2.58,0,0,0-2.18-.88,2.22,2.22,0,0,0-2,1,4.9,4.9,0,0,0-.68,2.82,4.75,4.75,0,0,0,.67,2.78A2.29,2.29,0,0,0,270.21,107.6Z" style="fill: #314041"/>
    <path d="M281.67,108.82a4.41,4.41,0,0,1-3.37-1.3,5,5,0,0,1-1.24-3.61,5.61,5.61,0,0,1,1.15-3.7,3.83,3.83,0,0,1,3.08-1.37,3.66,3.66,0,0,1,2.87,1.19,4.57,4.57,0,0,1,1,3.14v.93h-6.63a3.83,3.83,0,0,0,.85,2.57,3,3,0,0,0,2.29.88,7.85,7.85,0,0,0,3.08-.65v1.3a8.35,8.35,0,0,1-1.47.48A8.72,8.72,0,0,1,281.67,108.82Zm-.4-8.76a2.37,2.37,0,0,0-1.85.76,3.46,3.46,0,0,0-.81,2.09h5a3.23,3.23,0,0,0-.62-2.12A2.18,2.18,0,0,0,281.27,100.06Z" style="fill: #314041"/>
    <path d="M296.22,108.82a4.12,4.12,0,0,1-3.24-1.28,5.34,5.34,0,0,1-1.14-3.65,5.48,5.48,0,0,1,1.16-3.73,4.21,4.21,0,0,1,3.32-1.32,6.57,6.57,0,0,1,1.39.15,4.82,4.82,0,0,1,1.09.35l-.45,1.24a6.16,6.16,0,0,0-1.05-.32,4.43,4.43,0,0,0-1-.13q-2.94,0-2.94,3.75a4.43,4.43,0,0,0,.72,2.72,2.48,2.48,0,0,0,2.12,1,6.45,6.45,0,0,0,2.47-.52v1.29A5.22,5.22,0,0,1,296.22,108.82Z" style="fill: #314041"/>
    <path d="M306.87,108.65l-.29-1.37h-.07a4,4,0,0,1-1.44,1.22,4.28,4.28,0,0,1-1.79.32,3.21,3.21,0,0,1-2.24-.73,2.7,2.7,0,0,1-.82-2.11q0-2.91,4.67-3l1.63-.06v-.59a2.48,2.48,0,0,0-.48-1.68,2,2,0,0,0-1.56-.54,6.41,6.41,0,0,0-2.73.74l-.45-1.12a7.11,7.11,0,0,1,1.56-.6,6.67,6.67,0,0,1,1.7-.22,3.7,3.7,0,0,1,2.56.76,3.21,3.21,0,0,1,.83,2.45v6.58Zm-3.3-1a3,3,0,0,0,2.14-.75,2.75,2.75,0,0,0,.78-2.09v-.87L305,104a5.28,5.28,0,0,0-2.51.54,1.64,1.64,0,0,0-.77,1.49,1.52,1.52,0,0,0,.48,1.21A2,2,0,0,0,303.57,107.62Z" style="fill: #314041"/>
    <path d="M315.35,98.84a5.73,5.73,0,0,1,1.15.1l-.2,1.36a4.84,4.84,0,0,0-1.06-.13,2.55,2.55,0,0,0-2,1,3.47,3.47,0,0,0-.83,2.36v5.17H311V99h1.21l.17,1.78h.07a4.07,4.07,0,0,1,1.29-1.45A2.9,2.9,0,0,1,315.35,98.84Z" style="fill: #314041"/>
    <path d="M324.23,108.65l-.29-1.37h-.07a4,4,0,0,1-1.44,1.22,4.28,4.28,0,0,1-1.79.32,3.26,3.26,0,0,1-2.25-.73,2.73,2.73,0,0,1-.81-2.11q0-2.91,4.67-3l1.63-.06v-.59a2.48,2.48,0,0,0-.48-1.68,2,2,0,0,0-1.56-.54,6.37,6.37,0,0,0-2.73.74l-.45-1.12a7.11,7.11,0,0,1,1.56-.6,6.67,6.67,0,0,1,1.7-.22,3.7,3.7,0,0,1,2.56.76,3.21,3.21,0,0,1,.83,2.45v6.58Zm-3.3-1a3,3,0,0,0,2.14-.75,2.75,2.75,0,0,0,.78-2.09v-.87l-1.46.06a5.28,5.28,0,0,0-2.51.54,1.64,1.64,0,0,0-.77,1.49,1.52,1.52,0,0,0,.48,1.21A2,2,0,0,0,320.93,107.62Z" style="fill: #314041"/>
    <path d="M191.85,130.25l-.29-1.37h-.07a4.07,4.07,0,0,1-1.43,1.22,4.31,4.31,0,0,1-1.79.32,3.22,3.22,0,0,1-2.25-.73,2.72,2.72,0,0,1-.81-2.1q0-2.93,4.67-3.06l1.63-.06v-.59a2.43,2.43,0,0,0-.49-1.68,2,2,0,0,0-1.56-.54,6.37,6.37,0,0,0-2.72.74l-.45-1.12a6.92,6.92,0,0,1,1.56-.6,6.61,6.61,0,0,1,1.7-.22,3.65,3.65,0,0,1,2.55.76,3.17,3.17,0,0,1,.84,2.45v6.58Zm-3.29-1a3,3,0,0,0,2.14-.75,2.74,2.74,0,0,0,.78-2.09v-.87l-1.46.06a5.28,5.28,0,0,0-2.51.54,1.62,1.62,0,0,0-.77,1.49,1.52,1.52,0,0,0,.48,1.21A2,2,0,0,0,188.56,129.22Z" style="fill: #314041"/>
    <path d="M202.08,130.25h-1.46V116.57h1.46Z" style="fill: #314041"/>
    <path d="M213.48,125.42a5.32,5.32,0,0,1-1.18,3.68,4.19,4.19,0,0,1-3.28,1.32,4.35,4.35,0,0,1-2.29-.6,4,4,0,0,1-1.55-1.74,6,6,0,0,1-.55-2.66,5.34,5.34,0,0,1,1.18-3.67,4.2,4.2,0,0,1,3.27-1.31,4.08,4.08,0,0,1,3.21,1.34A5.27,5.27,0,0,1,213.48,125.42Zm-7.33,0a4.62,4.62,0,0,0,.73,2.82,2.94,2.94,0,0,0,4.35,0,4.58,4.58,0,0,0,.74-2.82,4.53,4.53,0,0,0-.74-2.79,2.63,2.63,0,0,0-2.19-.95,2.57,2.57,0,0,0-2.17.94A4.57,4.57,0,0,0,206.15,125.42Z" style="fill: #314041"/>
    <path d="M222.26,127.62a2.39,2.39,0,0,1-1,2.07,4.65,4.65,0,0,1-2.81.73,6.19,6.19,0,0,1-3-.6v-1.36a7.38,7.38,0,0,0,1.49.56,6.45,6.45,0,0,0,1.54.2,3.49,3.49,0,0,0,1.75-.36,1.23,1.23,0,0,0,.62-1.12,1.2,1.2,0,0,0-.49-1,7.76,7.76,0,0,0-1.9-.94,10.19,10.19,0,0,1-1.91-.88,2.65,2.65,0,0,1-.85-.85,2.22,2.22,0,0,1-.27-1.13,2.18,2.18,0,0,1,.95-1.86,4.51,4.51,0,0,1,2.63-.68,7.7,7.7,0,0,1,3,.63l-.52,1.19a6.91,6.91,0,0,0-2.62-.6,3,3,0,0,0-1.57.33,1,1,0,0,0-.53.89,1.1,1.1,0,0,0,.2.66,2,2,0,0,0,.64.52,13.29,13.29,0,0,0,1.69.71,6.36,6.36,0,0,1,2.31,1.26A2.22,2.22,0,0,1,222.26,127.62Z" style="fill: #314041"/>
    <path d="M233.37,130.42a4.43,4.43,0,0,1-3.37-1.3,5,5,0,0,1-1.23-3.61,5.62,5.62,0,0,1,1.14-3.7,3.85,3.85,0,0,1,3.09-1.37,3.64,3.64,0,0,1,2.86,1.19,4.59,4.59,0,0,1,1.06,3.14v.93h-6.64a3.76,3.76,0,0,0,.86,2.57,2.94,2.94,0,0,0,2.29.88,7.8,7.8,0,0,0,3.07-.65v1.3a6.88,6.88,0,0,1-3.13.62Zm-.39-8.76a2.36,2.36,0,0,0-1.85.76,3.52,3.52,0,0,0-.82,2.09h5a3.2,3.2,0,0,0-.61-2.11A2.17,2.17,0,0,0,233,121.66Z" style="fill: #314041"/>
    <path d="M251.68,130.25V124a2.61,2.61,0,0,0-.49-1.73,1.92,1.92,0,0,0-1.53-.57,2.46,2.46,0,0,0-2,.78,3.69,3.69,0,0,0-.65,2.41v5.38h-1.46V124a2.66,2.66,0,0,0-.49-1.73,1.94,1.94,0,0,0-1.54-.57,2.37,2.37,0,0,0-2,.82,4.42,4.42,0,0,0-.64,2.69v5.06H239.4v-9.63h1.19l.24,1.31h.07a2.84,2.84,0,0,1,1.16-1.09,3.48,3.48,0,0,1,1.68-.4,2.87,2.87,0,0,1,3,1.63h.07a3.06,3.06,0,0,1,1.25-1.19,3.87,3.87,0,0,1,1.86-.44,3.28,3.28,0,0,1,2.45.84,3.75,3.75,0,0,1,.81,2.68v6.29Z" style="fill: #314041"/>
    <path d="M260.63,130.42a4.19,4.19,0,0,1-1.72-.34,3.19,3.19,0,0,1-1.3-1.07h-.11a13,13,0,0,1,.11,1.6v4h-1.46V120.62h1.18l.2,1.31h.08a3.49,3.49,0,0,1,1.3-1.14,4.06,4.06,0,0,1,1.72-.35,3.58,3.58,0,0,1,3,1.31,7,7,0,0,1,0,7.36A3.56,3.56,0,0,1,260.63,130.42Zm-.21-8.74a2.57,2.57,0,0,0-2.14.82,4.18,4.18,0,0,0-.67,2.6v.32a4.83,4.83,0,0,0,.67,2.91,2.58,2.58,0,0,0,2.17.87,2.25,2.25,0,0,0,2-1,4.78,4.78,0,0,0,.71-2.78,4.62,4.62,0,0,0-.71-2.77A2.33,2.33,0,0,0,260.42,121.68Z" style="fill: #314041"/>
    <path d="M268.64,130.25h-1.46V116.57h1.46Z" style="fill: #314041"/>
    <path d="M275.8,130.42a4.4,4.4,0,0,1-3.37-1.3,5,5,0,0,1-1.24-3.61,5.57,5.57,0,0,1,1.15-3.7,3.81,3.81,0,0,1,3.08-1.37,3.66,3.66,0,0,1,2.87,1.19,4.58,4.58,0,0,1,1,3.14v.93H272.7a3.81,3.81,0,0,0,.86,2.57,3,3,0,0,0,2.29.88,7.85,7.85,0,0,0,3.08-.65v1.3a8.35,8.35,0,0,1-1.47.48A8,8,0,0,1,275.8,130.42Zm-.4-8.76a2.37,2.37,0,0,0-1.85.76,3.46,3.46,0,0,0-.81,2.09h5a3.2,3.2,0,0,0-.62-2.11A2.17,2.17,0,0,0,275.4,121.66Z" style="fill: #314041"/>
    <path d="M287.75,130.25l-.29-1.37h-.07A4,4,0,0,1,286,130.1a4.23,4.23,0,0,1-1.78.32,3.22,3.22,0,0,1-2.25-.73,2.72,2.72,0,0,1-.81-2.1q0-2.93,4.66-3.06l1.64-.06v-.59a2.43,2.43,0,0,0-.49-1.68,2,2,0,0,0-1.56-.54,6.37,6.37,0,0,0-2.72.74l-.45-1.12a6.74,6.74,0,0,1,1.56-.6,6.56,6.56,0,0,1,1.7-.22,3.65,3.65,0,0,1,2.55.76,3.17,3.17,0,0,1,.83,2.45v6.58Zm-3.29-1a3,3,0,0,0,2.14-.75,2.77,2.77,0,0,0,.77-2.09v-.87l-1.46.06a5.31,5.31,0,0,0-2.51.54,1.63,1.63,0,0,0-.76,1.49,1.54,1.54,0,0,0,.47,1.21A2,2,0,0,0,284.46,129.22Z" style="fill: #314041"/>
    <path d="M298.4,129h-.08a3.44,3.44,0,0,1-3,1.46,3.58,3.58,0,0,1-2.94-1.29,5.67,5.67,0,0,1-1.05-3.67,5.74,5.74,0,0,1,1.06-3.7,3.91,3.91,0,0,1,5.94.1h.11l-.06-.69,0-.68v-3.92h1.45v13.68h-1.18Zm-2.92.24a2.66,2.66,0,0,0,2.16-.81,4.09,4.09,0,0,0,.68-2.62v-.31a4.76,4.76,0,0,0-.69-2.92,2.55,2.55,0,0,0-2.17-.88,2.24,2.24,0,0,0-2,1,5,5,0,0,0-.68,2.82,4.73,4.73,0,0,0,.68,2.78A2.28,2.28,0,0,0,295.48,129.2Z" style="fill: #314041"/>
    <path d="M311.18,125.42A5.32,5.32,0,0,1,310,129.1a4.19,4.19,0,0,1-3.28,1.32,4.41,4.41,0,0,1-2.3-.6,4.08,4.08,0,0,1-1.54-1.74,6,6,0,0,1-.55-2.66,5.34,5.34,0,0,1,1.18-3.67,4.2,4.2,0,0,1,3.27-1.31,4.08,4.08,0,0,1,3.21,1.34A5.27,5.27,0,0,1,311.18,125.42Zm-7.34,0a4.62,4.62,0,0,0,.74,2.82,2.94,2.94,0,0,0,4.35,0,4.58,4.58,0,0,0,.74-2.82,4.53,4.53,0,0,0-.74-2.79,2.63,2.63,0,0,0-2.19-.95,2.57,2.57,0,0,0-2.17.94A4.57,4.57,0,0,0,303.84,125.42Z" style="fill: #314041"/>
    <path d="M320,127.62a2.39,2.39,0,0,1-1,2.07,4.67,4.67,0,0,1-2.81.73,6.19,6.19,0,0,1-3-.6v-1.36a7.16,7.16,0,0,0,1.49.56,6.45,6.45,0,0,0,1.54.2,3.49,3.49,0,0,0,1.75-.36,1.23,1.23,0,0,0,.62-1.12,1.2,1.2,0,0,0-.49-1,8,8,0,0,0-1.9-.94,10.19,10.19,0,0,1-1.91-.88,2.65,2.65,0,0,1-.85-.85,2.22,2.22,0,0,1-.27-1.13,2.15,2.15,0,0,1,.95-1.86,4.51,4.51,0,0,1,2.63-.68,7.7,7.7,0,0,1,3,.63l-.52,1.19a6.91,6.91,0,0,0-2.62-.6A3,3,0,0,0,315,122a1,1,0,0,0-.53.89,1.1,1.1,0,0,0,.2.66,2,2,0,0,0,.64.52,12.65,12.65,0,0,0,1.69.71,6.36,6.36,0,0,1,2.31,1.26A2.21,2.21,0,0,1,320,127.62Z" style="fill: #314041"/>
  </g>
  <path d="M67,78.44A37.41,37.41,0,0,1,104.42,41V16.2c-20.62,0-38.23,9-50.35,25.65a62.24,62.24,0,0,0,13.77,86.94L82.43,108.7A37.36,37.36,0,0,1,67,78.44Z" style="fill: #dfdfdf"/>
  <path d="M104.42,16.2V41a37.42,37.42,0,1,1-22,67.68L67.84,128.79a59.63,59.63,0,0,0,36.58,11.89,62.24,62.24,0,0,0,0-124.48Z" style="fill: #de9393"/>
  <path d="M122.59,69.48l-7.94-8.7a.87.87,0,0,0-1.46,0l-8,8.7a1.17,1.17,0,0,0-.16,1.06.9.9,0,0,0,1,.71h15.89c.33,0,.65-.18.82-.71C122.92,70.19,122.92,69.65,122.59,69.48Z" style="fill: #81b59f;fill-rule: evenodd"/>
  <path d="M96.43,86.47a3.62,3.62,0,1,1-3.62-3.7A3.69,3.69,0,0,1,96.43,86.47Zm5.27,12.77v-.67A8.35,8.35,0,0,0,96.76,91l-.33-.16.33-.34a5.92,5.92,0,0,0,1.65-4,5.6,5.6,0,1,0-11.2,0,5.92,5.92,0,0,0,1.65,4l.33.34-.33.16a8.35,8.35,0,0,0-4.94,7.57v.67a1,1,0,1,0,2,0v-.67a6.94,6.94,0,0,1,13.84,0v.67a1,1,0,1,0,2,0Zm11.53-21.18a1,1,0,0,0,0-2h-6.59a1,1,0,0,0,0,2Zm-12-14.46a.69.69,0,0,1,.33.68v.33l.16.51a1.05,1.05,0,0,0,1,.84h2.63a1,1,0,0,0,0-2h-1.81a2.74,2.74,0,0,0-.82-1.85,3.46,3.46,0,0,0-2.14-.84H93.47a1.19,1.19,0,0,0-1,1V77.72a1,1,0,1,0,2,0V63.27h5.92A1.26,1.26,0,0,1,101.21,63.6Zm23.71,6.9-3.79,17.31a3,3,0,0,1-3,2.35h-16.8a1,1,0,0,1,0-2h16.8a1.25,1.25,0,0,0,1.15-.84l3.46-16H99.23l-1.48,7.73a1,1,0,0,1-1.32.84,1.14,1.14,0,0,1-.66-1.18l1.65-8.57a.92.92,0,0,1,1-.84h25.52a1.26,1.26,0,0,1,.82.33A1.85,1.85,0,0,1,124.92,70.5Z" style="fill: #293e40;fill-rule: evenodd"/>
</svg>
