<svg id="Layer_1" data-name="Layer 1" xmlns="http://www.w3.org/2000/svg" viewBox="0 0 374.33 255.83">
  <title>nugget_graph_1it</title>
  <rect x="202.35" y="13.6" width="50" height="199.97" style="fill: #ebac7b"/>
  <rect x="279.52" y="129.41" width="50" height="84.16" style="fill: #e3e2e3"/>
  <g>
    <path d="M146.51,63.06c0-2.81.6-4.91,1.79-6.28a6.67,6.67,0,0,1,5.34-2.07,9.48,9.48,0,0,1,1.91.15v2.4a7.79,7.79,0,0,0-1.71-.19,5.9,5.9,0,0,0-2.53.46,3.18,3.18,0,0,0-1.46,1.39,6.24,6.24,0,0,0-.58,2.59h.13a3.3,3.3,0,0,1,3.08-1.65,3.82,3.82,0,0,1,3,1.2,4.74,4.74,0,0,1,1.08,3.3A5,5,0,0,1,155.27,68a4.75,4.75,0,0,1-3.56,1.32,5,5,0,0,1-2.75-.73,4.65,4.65,0,0,1-1.81-2.13A8,8,0,0,1,146.51,63.06Zm5.14,3.83a1.77,1.77,0,0,0,1.48-.65,2.9,2.9,0,0,0,.51-1.84,2.56,2.56,0,0,0-.48-1.64,1.75,1.75,0,0,0-1.45-.6,2.21,2.21,0,0,0-1.56.6,1.78,1.78,0,0,0-.65,1.38,3.09,3.09,0,0,0,.61,2A1.82,1.82,0,0,0,151.65,66.89Z" style="fill: #314041"/>
    <path d="M163.15,60a4.6,4.6,0,0,1,3.29,1.16,4.17,4.17,0,0,1,1.22,3.17A4.62,4.62,0,0,1,166.19,68a6.17,6.17,0,0,1-4.2,1.28,8.3,8.3,0,0,1-3.84-.76v-2.6a8.14,8.14,0,0,0,1.79.66,7.57,7.57,0,0,0,1.94.26c1.83,0,2.75-.75,2.75-2.25s-.95-2.15-2.85-2.15a7,7,0,0,0-1.14.1,8.46,8.46,0,0,0-1,.22l-1.19-.64.53-7.25h7.71v2.55h-5.07l-.27,2.79.34-.07A6.78,6.78,0,0,1,163.15,60Z" style="fill: #314041"/>
    <path d="M175.92,59.12a5.51,5.51,0,0,1-.86,3.36,3,3,0,0,1-2.54,1.12A2.92,2.92,0,0,1,170,62.45a5.46,5.46,0,0,1-.88-3.33q0-4.44,3.36-4.44A3,3,0,0,1,175,55.83,5.3,5.3,0,0,1,175.92,59.12Zm-4.31,0a5.94,5.94,0,0,0,.22,1.84c.15.41.38.61.71.61.62,0,.93-.82.93-2.45s-.31-2.43-.93-2.43c-.33,0-.56.2-.71.6A5.82,5.82,0,0,0,171.61,59.14Zm11-4.26L174.73,69.1h-2.34l7.89-14.22Zm3.27,9.92a5.5,5.5,0,0,1-.86,3.35,3,3,0,0,1-2.54,1.12A2.92,2.92,0,0,1,180,68.12a5.36,5.36,0,0,1-.88-3.32q0-4.44,3.36-4.44A3,3,0,0,1,185,61.51,5.3,5.3,0,0,1,185.88,64.8Zm-4.31,0a5.94,5.94,0,0,0,.22,1.84c.15.41.38.61.71.61.62,0,.93-.82.93-2.45s-.31-2.43-.93-2.43c-.33,0-.56.2-.71.6A5.82,5.82,0,0,0,181.57,64.82Z" style="fill: #314041"/>
  </g>
  <g>
    <path d="M293.7,111.54a3.31,3.31,0,0,1-.8,2.26,4.15,4.15,0,0,1-2.27,1.29v.06a4.54,4.54,0,0,1,2.61,1,2.93,2.93,0,0,1,.88,2.24,3.78,3.78,0,0,1-1.49,3.2,6.85,6.85,0,0,1-4.25,1.14,10.17,10.17,0,0,1-4.1-.77v-2.55a10.26,10.26,0,0,0,1.82.68,7.82,7.82,0,0,0,2,.26,3.78,3.78,0,0,0,2.2-.51,1.84,1.84,0,0,0,.71-1.62,1.46,1.46,0,0,0-.82-1.42,6,6,0,0,0-2.6-.42h-1.08v-2.3h1.1a5,5,0,0,0,2.41-.44,1.55,1.55,0,0,0,.77-1.48c0-1.08-.68-1.61-2-1.61a4.48,4.48,0,0,0-1.42.23,6.55,6.55,0,0,0-1.61.81l-1.39-2.08a7.75,7.75,0,0,1,4.64-1.4,5.94,5.94,0,0,1,3.48.9A2.86,2.86,0,0,1,293.7,111.54Z" style="fill: #314041"/>
    <path d="M305.55,115.47a9.93,9.93,0,0,1-1.22,5.51,4.22,4.22,0,0,1-3.76,1.79,4.17,4.17,0,0,1-3.71-1.85,9.78,9.78,0,0,1-1.25-5.45,10,10,0,0,1,1.22-5.55,4.72,4.72,0,0,1,7.46.08A9.81,9.81,0,0,1,305.55,115.47Zm-6.95,0a11.15,11.15,0,0,0,.45,3.75,1.58,1.58,0,0,0,3,0,10.74,10.74,0,0,0,.47-3.73,10.53,10.53,0,0,0-.48-3.76,1.58,1.58,0,0,0-3,0A11.18,11.18,0,0,0,298.6,115.47Z" style="fill: #314041"/>
    <path d="M313.63,112.6a5.51,5.51,0,0,1-.86,3.36,3,3,0,0,1-2.54,1.12,2.92,2.92,0,0,1-2.48-1.15,5.39,5.39,0,0,1-.88-3.33c0-3,1.12-4.45,3.36-4.45a3,3,0,0,1,2.52,1.16A5.3,5.3,0,0,1,313.63,112.6Zm-4.31,0a5.94,5.94,0,0,0,.22,1.84c.15.41.38.61.71.61.62,0,.93-.82.93-2.45s-.31-2.43-.93-2.43c-.33,0-.56.2-.71.6A5.82,5.82,0,0,0,309.32,112.62Zm11-4.26-7.88,14.22H310.1L318,108.36Zm3.27,9.92a5.5,5.5,0,0,1-.86,3.35,3,3,0,0,1-2.54,1.12,2.92,2.92,0,0,1-2.48-1.15,5.38,5.38,0,0,1-.88-3.32c0-3,1.12-4.45,3.36-4.45a3,3,0,0,1,2.52,1.16A5.3,5.3,0,0,1,323.59,118.28Zm-4.31,0a5.94,5.94,0,0,0,.22,1.84c.15.41.38.61.71.61.62,0,.93-.82.93-2.45s-.31-2.43-.93-2.43c-.33,0-.56.2-.71.59A5.94,5.94,0,0,0,319.28,118.3Z" style="fill: #314041"/>
  </g>
  <g>
    <path d="M30.06,94.13V81.28h1.5V94.13Z" style="fill: #314041"/>
    <path d="M41.45,94.13V87.9a2.54,2.54,0,0,0-.53-1.76,2.18,2.18,0,0,0-1.68-.58,2.79,2.79,0,0,0-2.22.81,4.14,4.14,0,0,0-.7,2.7v5.06H34.86V84.49h1.19l.23,1.32h.07a3,3,0,0,1,1.26-1.1,4.1,4.1,0,0,1,1.8-.39,3.65,3.65,0,0,1,2.62.84,3.54,3.54,0,0,1,.88,2.68v6.29Z" style="fill: #314041"/>
    <path d="M54.93,85.63H52.47v8.5H51v-8.5H49.29V85L51,84.44V83.9c0-2.36,1-3.55,3.11-3.55a6.59,6.59,0,0,1,1.79.31l-.38,1.17a4.84,4.84,0,0,0-1.44-.27,1.39,1.39,0,0,0-1.22.55,3.07,3.07,0,0,0-.4,1.76v.62h2.46Z" style="fill: #314041"/>
    <path d="M62.61,94.13l-.29-1.37h-.07A4,4,0,0,1,60.81,94,4.28,4.28,0,0,1,59,94.3a3.17,3.17,0,0,1-2.24-.74,2.66,2.66,0,0,1-.82-2.1q0-2.91,4.67-3.06l1.63-.05v-.6a2.47,2.47,0,0,0-.48-1.67,2,2,0,0,0-1.56-.54,6.41,6.41,0,0,0-2.73.74L57,85.16a7.12,7.12,0,0,1,3.26-.82,3.7,3.7,0,0,1,2.56.76,3.21,3.21,0,0,1,.83,2.45v6.58Zm-3.3-1a3,3,0,0,0,2.14-.75,2.75,2.75,0,0,0,.78-2.09v-.87l-1.46.06a5.28,5.28,0,0,0-2.51.54,1.64,1.64,0,0,0-.77,1.49A1.52,1.52,0,0,0,58,92.69,2,2,0,0,0,59.31,93.1Z" style="fill: #314041"/>
    <path d="M72.91,91.5a2.41,2.41,0,0,1-1,2.07,4.71,4.71,0,0,1-2.82.73,6.14,6.14,0,0,1-3-.6V92.34a7.16,7.16,0,0,0,1.49.56,6.43,6.43,0,0,0,1.53.2,3.42,3.42,0,0,0,1.76-.37A1.25,1.25,0,0,0,71,90.66a7.69,7.69,0,0,0-1.9-1,10,10,0,0,1-1.91-.87,2.51,2.51,0,0,1-.84-.85,2.13,2.13,0,0,1-.28-1.13A2.15,2.15,0,0,1,67,85a4.48,4.48,0,0,1,2.62-.68,7.75,7.75,0,0,1,3,.63l-.52,1.19a7,7,0,0,0-2.63-.6,3.15,3.15,0,0,0-1.57.32,1,1,0,0,0-.52.9,1,1,0,0,0,.2.66,1.9,1.9,0,0,0,.63.52,15.9,15.9,0,0,0,1.69.71,6.52,6.52,0,0,1,2.32,1.26A2.21,2.21,0,0,1,72.91,91.5Z" style="fill: #314041"/>
    <path d="M79.35,94.3A4.41,4.41,0,0,1,76,93a5.05,5.05,0,0,1-1.24-3.61,5.61,5.61,0,0,1,1.15-3.7A3.83,3.83,0,0,1,79,84.32a3.63,3.63,0,0,1,2.87,1.19,4.57,4.57,0,0,1,1,3.14v.92H76.26a3.85,3.85,0,0,0,.85,2.58A3,3,0,0,0,79.4,93a7.82,7.82,0,0,0,3.08-.65v1.3a8.27,8.27,0,0,1-1.46.48A8.83,8.83,0,0,1,79.35,94.3ZM79,85.54a2.35,2.35,0,0,0-1.84.76,3.46,3.46,0,0,0-.82,2.09h5a3.23,3.23,0,0,0-.62-2.12A2.15,2.15,0,0,0,79,85.54Z" style="fill: #314041"/>
    <path d="M96.61,92.83h-.08a3.42,3.42,0,0,1-3,1.47A3.58,3.58,0,0,1,90.57,93a5.69,5.69,0,0,1-1-3.67,5.8,5.8,0,0,1,1-3.7,3.57,3.57,0,0,1,2.94-1.32,3.5,3.5,0,0,1,3,1.42h.11l-.06-.69,0-.68V80.45H98V94.13H96.81Zm-2.92.25a2.67,2.67,0,0,0,2.17-.81,4.11,4.11,0,0,0,.67-2.63v-.3a4.82,4.82,0,0,0-.68-2.93,2.58,2.58,0,0,0-2.17-.87,2.24,2.24,0,0,0-2,1A5,5,0,0,0,91,89.35a4.78,4.78,0,0,0,.68,2.79A2.28,2.28,0,0,0,93.69,93.08Z" style="fill: #314041"/>
    <path d="M101,81.88a.94.94,0,0,1,.25-.73.83.83,0,0,1,.61-.23.89.89,0,0,1,.61.23,1.17,1.17,0,0,1,0,1.47.85.85,0,0,1-.61.24.84.84,0,0,1-.61-.24A1,1,0,0,1,101,81.88Zm1.58,12.25h-1.45V84.49h1.45Z" style="fill: #314041"/>
    <path d="M114.71,84.32a5.73,5.73,0,0,1,1.15.1l-.2,1.36a4.84,4.84,0,0,0-1.06-.13,2.58,2.58,0,0,0-2,.94,3.51,3.51,0,0,0-.83,2.37v5.17h-1.46V84.49h1.21l.17,1.79h.07a4.07,4.07,0,0,1,1.29-1.45A2.9,2.9,0,0,1,114.71,84.32Z" style="fill: #314041"/>
    <path d="M121.73,94.3a4.41,4.41,0,0,1-3.37-1.3,5,5,0,0,1-1.23-3.61,5.6,5.6,0,0,1,1.14-3.7,3.83,3.83,0,0,1,3.08-1.37,3.61,3.61,0,0,1,2.87,1.19,4.57,4.57,0,0,1,1,3.14v.92h-6.63a3.85,3.85,0,0,0,.85,2.58,3,3,0,0,0,2.29.88,7.82,7.82,0,0,0,3.08-.65v1.3a8.27,8.27,0,0,1-1.46.48A8.83,8.83,0,0,1,121.73,94.3Zm-.39-8.76a2.36,2.36,0,0,0-1.85.76,3.46,3.46,0,0,0-.82,2.09h5a3.23,3.23,0,0,0-.62-2.12A2.15,2.15,0,0,0,121.34,85.54Z" style="fill: #314041"/>
    <path d="M131.61,94.3A4.12,4.12,0,0,1,128.37,93a5.3,5.3,0,0,1-1.15-3.64,5.43,5.43,0,0,1,1.17-3.73,4.19,4.19,0,0,1,3.32-1.32,6.64,6.64,0,0,1,1.39.15,4.51,4.51,0,0,1,1.09.35l-.45,1.24a6.57,6.57,0,0,0-1.06-.32,4.43,4.43,0,0,0-1-.13c-2,0-2.93,1.25-2.93,3.74a4.51,4.51,0,0,0,.71,2.73,2.51,2.51,0,0,0,2.12,1,6.37,6.37,0,0,0,2.47-.52V93.8A5.15,5.15,0,0,1,131.61,94.3Z" style="fill: #314041"/>
    <path d="M137.7,84.49v6.25a2.51,2.51,0,0,0,.54,1.76,2.15,2.15,0,0,0,1.68.58,2.73,2.73,0,0,0,2.21-.83,4.19,4.19,0,0,0,.69-2.69V84.49h1.46v9.64h-1.2l-.21-1.3h-.08a2.86,2.86,0,0,1-1.24,1.09,4.09,4.09,0,0,1-1.82.38,3.7,3.7,0,0,1-2.63-.83,3.57,3.57,0,0,1-.88-2.67V84.49Z" style="fill: #314041"/>
    <path d="M151.86,94.3a4.19,4.19,0,0,1-1.72-.34,3.28,3.28,0,0,1-1.3-1.07h-.11a12.92,12.92,0,0,1,.11,1.6v4h-1.46v-14h1.18l.21,1.32h.07a3.28,3.28,0,0,1,1.31-1.14,4,4,0,0,1,1.71-.35,3.55,3.55,0,0,1,3,1.31,7,7,0,0,1,0,7.36A3.59,3.59,0,0,1,151.86,94.3Zm-.21-8.74a2.6,2.6,0,0,0-2.14.81,4.23,4.23,0,0,0-.67,2.61v.32a4.87,4.87,0,0,0,.67,2.91,2.58,2.58,0,0,0,2.17.87,2.26,2.26,0,0,0,2-1,4.8,4.8,0,0,0,.71-2.79,4.61,4.61,0,0,0-.71-2.76A2.33,2.33,0,0,0,151.65,85.56Z" style="fill: #314041"/>
    <path d="M162.48,94.3a4.4,4.4,0,0,1-3.37-1.3,5,5,0,0,1-1.24-3.61,5.55,5.55,0,0,1,1.15-3.7,3.81,3.81,0,0,1,3.08-1.37A3.59,3.59,0,0,1,165,85.51,4.52,4.52,0,0,1,166,88.65v.92h-6.64a3.86,3.86,0,0,0,.86,2.58,3,3,0,0,0,2.29.88,7.85,7.85,0,0,0,3.08-.65v1.3a8.35,8.35,0,0,1-1.47.48A8.72,8.72,0,0,1,162.48,94.3Zm-.4-8.76a2.37,2.37,0,0,0-1.85.76,3.46,3.46,0,0,0-.81,2.09h5a3.23,3.23,0,0,0-.61-2.12A2.17,2.17,0,0,0,162.08,85.54Z" style="fill: #314041"/>
    <path d="M172.9,84.32a5.73,5.73,0,0,1,1.15.1l-.2,1.36a4.83,4.83,0,0,0-1-.13,2.56,2.56,0,0,0-2,.94A3.46,3.46,0,0,0,170,89v5.17h-1.46V84.49h1.2l.17,1.79H170a4.27,4.27,0,0,1,1.29-1.45A2.9,2.9,0,0,1,172.9,84.32Z" style="fill: #314041"/>
    <path d="M184.17,89.3A5.32,5.32,0,0,1,183,93a4.18,4.18,0,0,1-3.28,1.32,4.37,4.37,0,0,1-2.29-.6A4.1,4.1,0,0,1,175.86,92a6.13,6.13,0,0,1-.54-2.66,5.29,5.29,0,0,1,1.18-3.67,4.17,4.17,0,0,1,3.27-1.31A4.11,4.11,0,0,1,183,85.66,5.32,5.32,0,0,1,184.17,89.3Zm-7.34,0a4.57,4.57,0,0,0,.74,2.81,2.54,2.54,0,0,0,2.17,1,2.57,2.57,0,0,0,2.17-1,4.52,4.52,0,0,0,.75-2.82,4.46,4.46,0,0,0-.75-2.79,2.61,2.61,0,0,0-2.19-1,2.57,2.57,0,0,0-2.16.94A4.48,4.48,0,0,0,176.83,89.3Z" style="fill: #314041"/>
    <path d="M55.34,110.9a5.32,5.32,0,0,1-1.19,3.68,4.18,4.18,0,0,1-3.28,1.32,4.37,4.37,0,0,1-2.29-.6A4.1,4.1,0,0,1,47,113.56a6.13,6.13,0,0,1-.54-2.66,5.29,5.29,0,0,1,1.18-3.67,4.17,4.17,0,0,1,3.27-1.31,4.11,4.11,0,0,1,3.21,1.34A5.32,5.32,0,0,1,55.34,110.9Zm-7.34,0a4.57,4.57,0,0,0,.74,2.81,2.54,2.54,0,0,0,2.17,1,2.57,2.57,0,0,0,2.17-1,4.52,4.52,0,0,0,.75-2.82,4.46,4.46,0,0,0-.75-2.79,2.61,2.61,0,0,0-2.19-1,2.57,2.57,0,0,0-2.16.94A4.48,4.48,0,0,0,48,110.9Z" style="fill: #314041"/>
    <path d="M69.13,114.43h-.08a3.42,3.42,0,0,1-3,1.47,3.58,3.58,0,0,1-2.94-1.29A5.69,5.69,0,0,1,62,110.94a5.8,5.8,0,0,1,1.05-3.7A3.54,3.54,0,0,1,66,105.92a3.5,3.5,0,0,1,3,1.42h.12l-.07-.69,0-.68v-3.92h1.46v13.68H69.32Zm-2.92.25a2.67,2.67,0,0,0,2.17-.81,4.11,4.11,0,0,0,.67-2.63v-.3a4.9,4.9,0,0,0-.68-2.93,2.61,2.61,0,0,0-2.18-.87,2.22,2.22,0,0,0-2,1,5,5,0,0,0-.68,2.81,4.79,4.79,0,0,0,.67,2.79A2.31,2.31,0,0,0,66.21,114.68Z" style="fill: #314041"/>
    <path d="M73.48,103.48a.94.94,0,0,1,.25-.73.81.81,0,0,1,.61-.23.91.91,0,0,1,.61.23,1.21,1.21,0,0,1,0,1.47.87.87,0,0,1-.61.24.82.82,0,0,1-.61-.24A1,1,0,0,1,73.48,103.48Zm1.58,12.25H73.6v-9.64h1.46Z" style="fill: #314041"/>
    <path d="M87.23,105.92a5.79,5.79,0,0,1,1.15.1l-.21,1.36a4.76,4.76,0,0,0-1-.13,2.56,2.56,0,0,0-2,.94,3.51,3.51,0,0,0-.83,2.37v5.17H82.83v-9.64H84l.17,1.79h.07a4.27,4.27,0,0,1,1.29-1.45A2.93,2.93,0,0,1,87.23,105.92Z" style="fill: #314041"/>
    <path d="M90.06,103.48a1,1,0,0,1,.24-.73.85.85,0,0,1,.62-.23.88.88,0,0,1,.6.23,1.17,1.17,0,0,1,0,1.47.85.85,0,0,1-.6.24.86.86,0,0,1-.62-.24A1,1,0,0,1,90.06,103.48Zm1.58,12.25H90.18v-9.64h1.46Z" style="fill: #314041"/>
    <path d="M99.21,115.9a4.14,4.14,0,0,1-1.71-.34,3.3,3.3,0,0,1-1.31-1.07h-.11a12.92,12.92,0,0,1,.11,1.6v4H94.73v-14h1.19l.2,1.32h.07a3.35,3.35,0,0,1,1.31-1.14,4,4,0,0,1,1.71-.35,3.54,3.54,0,0,1,3,1.31,7,7,0,0,1,0,7.36A3.56,3.56,0,0,1,99.21,115.9ZM99,107.16a2.59,2.59,0,0,0-2.13.81,4.23,4.23,0,0,0-.68,2.61v.32a4.85,4.85,0,0,0,.68,2.91,2.57,2.57,0,0,0,2.17.87,2.26,2.26,0,0,0,1.95-1,4.72,4.72,0,0,0,.71-2.79,4.54,4.54,0,0,0-.71-2.76A2.32,2.32,0,0,0,99,107.16Z" style="fill: #314041"/>
    <path d="M110.16,105.92a5.79,5.79,0,0,1,1.15.1l-.2,1.36a4.84,4.84,0,0,0-1.06-.13,2.58,2.58,0,0,0-2,.94,3.51,3.51,0,0,0-.83,2.37v5.17h-1.46v-9.64H107l.16,1.79h.07a4.27,4.27,0,0,1,1.29-1.45A2.93,2.93,0,0,1,110.16,105.92Z" style="fill: #314041"/>
    <path d="M117.18,115.9a4.4,4.4,0,0,1-3.37-1.3,5,5,0,0,1-1.24-3.61,5.61,5.61,0,0,1,1.15-3.7,3.81,3.81,0,0,1,3.08-1.37,3.66,3.66,0,0,1,2.87,1.19,4.57,4.57,0,0,1,1,3.14v.92h-6.64a3.86,3.86,0,0,0,.86,2.58,3,3,0,0,0,2.29.88,7.85,7.85,0,0,0,3.08-.65v1.3a8.35,8.35,0,0,1-1.47.48A8.72,8.72,0,0,1,117.18,115.9Zm-.4-8.76a2.37,2.37,0,0,0-1.85.76,3.46,3.46,0,0,0-.81,2.09h5a3.23,3.23,0,0,0-.62-2.12A2.17,2.17,0,0,0,116.78,107.14Z" style="fill: #314041"/>
    <path d="M129.42,113.1a2.39,2.39,0,0,1-1,2.07,4.69,4.69,0,0,1-2.81.73,6.16,6.16,0,0,1-3-.6v-1.36a7.16,7.16,0,0,0,1.49.56,6.43,6.43,0,0,0,1.53.2,3.42,3.42,0,0,0,1.76-.37,1.2,1.2,0,0,0,.62-1.11,1.23,1.23,0,0,0-.49-1,7.81,7.81,0,0,0-1.91-1,10.29,10.29,0,0,1-1.91-.87,2.61,2.61,0,0,1-.84-.85,2.23,2.23,0,0,1-.28-1.13,2.15,2.15,0,0,1,1-1.86,4.51,4.51,0,0,1,2.63-.68,7.7,7.7,0,0,1,3,.63l-.52,1.19a7,7,0,0,0-2.63-.6,3.08,3.08,0,0,0-1.56.32,1,1,0,0,0-.53.9,1.1,1.1,0,0,0,.2.66,1.85,1.85,0,0,0,.64.52,14.6,14.6,0,0,0,1.68.71,6.34,6.34,0,0,1,2.32,1.26A2.21,2.21,0,0,1,129.42,113.1Z" style="fill: #314041"/>
    <path d="M137.72,115.73l-.29-1.37h-.07a4,4,0,0,1-1.44,1.22,4.28,4.28,0,0,1-1.79.32,3.17,3.17,0,0,1-2.24-.74,2.7,2.7,0,0,1-.82-2.1q0-2.91,4.67-3l1.64-.06v-.6a2.47,2.47,0,0,0-.49-1.67,2,2,0,0,0-1.56-.54,6.45,6.45,0,0,0-2.73.74l-.45-1.12a7.2,7.2,0,0,1,3.27-.82,3.67,3.67,0,0,1,2.55.76,3.21,3.21,0,0,1,.83,2.45v6.58Zm-3.3-1a3,3,0,0,0,2.14-.75,2.75,2.75,0,0,0,.78-2.09V111l-1.46.06a5.31,5.31,0,0,0-2.51.54,1.64,1.64,0,0,0-.77,1.49,1.52,1.52,0,0,0,.48,1.21A2,2,0,0,0,134.42,114.7Z" style="fill: #314041"/>
    <path d="M153,114.43H153a3.43,3.43,0,0,1-3,1.47,3.58,3.58,0,0,1-2.94-1.29,5.69,5.69,0,0,1-1.06-3.67,5.8,5.8,0,0,1,1.06-3.7,3.54,3.54,0,0,1,2.94-1.32,3.5,3.5,0,0,1,3,1.42h.12l-.07-.69,0-.68v-3.92h1.46v13.68h-1.19Zm-2.92.25a2.67,2.67,0,0,0,2.17-.81,4.17,4.17,0,0,0,.67-2.63v-.3a4.9,4.9,0,0,0-.68-2.93,2.61,2.61,0,0,0-2.18-.87,2.22,2.22,0,0,0-2,1,4.88,4.88,0,0,0-.68,2.81,4.79,4.79,0,0,0,.67,2.79A2.29,2.29,0,0,0,150.12,114.68Z" style="fill: #314041"/>
    <path d="M161.58,115.9a4.41,4.41,0,0,1-3.37-1.3A5,5,0,0,1,157,111a5.6,5.6,0,0,1,1.14-3.7,3.83,3.83,0,0,1,3.08-1.37,3.66,3.66,0,0,1,2.87,1.19,4.57,4.57,0,0,1,1.05,3.14v.92h-6.63a3.85,3.85,0,0,0,.85,2.58,3,3,0,0,0,2.29.88,7.82,7.82,0,0,0,3.08-.65v1.3a8.27,8.27,0,0,1-1.46.48A8.83,8.83,0,0,1,161.58,115.9Zm-.39-8.76a2.36,2.36,0,0,0-1.85.76,3.46,3.46,0,0,0-.82,2.09h5a3.23,3.23,0,0,0-.62-2.12A2.15,2.15,0,0,0,161.19,107.14Z" style="fill: #314041"/>
    <path d="M169.07,115.73h-1.46V102.05h1.46Z" style="fill: #314041"/>
    <path d="M173.62,115.73h-1.46V102.05h1.46Z" style="fill: #314041"/>
    <path d="M182.64,115.73l-.29-1.37h-.07a4,4,0,0,1-1.44,1.22,4.28,4.28,0,0,1-1.79.32,3.17,3.17,0,0,1-2.24-.74,2.7,2.7,0,0,1-.82-2.1q0-2.91,4.67-3l1.64-.06v-.6a2.47,2.47,0,0,0-.49-1.67,2,2,0,0,0-1.56-.54,6.45,6.45,0,0,0-2.73.74l-.44-1.12a6.32,6.32,0,0,1,1.56-.6,6.56,6.56,0,0,1,1.7-.22,3.67,3.67,0,0,1,2.55.76,3.21,3.21,0,0,1,.83,2.45v6.58Zm-3.3-1a2.94,2.94,0,0,0,2.14-.75,2.75,2.75,0,0,0,.78-2.09V111l-1.46.06a5.31,5.31,0,0,0-2.51.54,1.64,1.64,0,0,0-.77,1.49,1.52,1.52,0,0,0,.48,1.21A2,2,0,0,0,179.34,114.7Z" style="fill: #314041"/>
    <path d="M126.49,137.5a4.1,4.1,0,0,1-3.24-1.29,5.25,5.25,0,0,1-1.15-3.64,5.42,5.42,0,0,1,1.17-3.73,4.17,4.17,0,0,1,3.31-1.32,6.5,6.5,0,0,1,1.39.15,4.36,4.36,0,0,1,1.09.35l-.45,1.24a6.16,6.16,0,0,0-1.05-.32,4.43,4.43,0,0,0-1-.13q-2.94,0-2.94,3.74a4.44,4.44,0,0,0,.72,2.73,2.5,2.5,0,0,0,2.12.95,6.6,6.6,0,0,0,2.47-.52V137A5.18,5.18,0,0,1,126.49,137.5Z" style="fill: #314041"/>
    <path d="M135.6,127.52a5.73,5.73,0,0,1,1.15.1l-.2,1.36a4.91,4.91,0,0,0-1.06-.14,2.57,2.57,0,0,0-2,.95,3.45,3.45,0,0,0-.84,2.37v5.17h-1.45v-9.64h1.2l.17,1.79h.07a4.17,4.17,0,0,1,1.29-1.45A2.9,2.9,0,0,1,135.6,127.52Z" style="fill: #314041"/>
    <path d="M142.62,137.5a4.43,4.43,0,0,1-3.37-1.3,5,5,0,0,1-1.23-3.61,5.6,5.6,0,0,1,1.14-3.7,3.81,3.81,0,0,1,3.08-1.37,3.65,3.65,0,0,1,2.87,1.19,4.57,4.57,0,0,1,1,3.14v.92h-6.63a3.81,3.81,0,0,0,.86,2.58,3,3,0,0,0,2.29.88,7.8,7.8,0,0,0,3.07-.65v1.3a8,8,0,0,1-1.46.48A8.83,8.83,0,0,1,142.62,137.5Zm-.39-8.76a2.36,2.36,0,0,0-1.85.76,3.52,3.52,0,0,0-.82,2.09h5a3.17,3.17,0,0,0-.62-2.12A2.15,2.15,0,0,0,142.23,128.74Z" style="fill: #314041"/>
    <path d="M154.87,134.7a2.41,2.41,0,0,1-1,2.07,4.65,4.65,0,0,1-2.81.73,6.19,6.19,0,0,1-3-.6v-1.36a7.38,7.38,0,0,0,1.49.56,6.45,6.45,0,0,0,1.54.2,3.38,3.38,0,0,0,1.75-.37,1.25,1.25,0,0,0,.13-2.07,7.69,7.69,0,0,0-1.9-1,10,10,0,0,1-1.91-.87,2.65,2.65,0,0,1-.85-.85,2.22,2.22,0,0,1-.27-1.13,2.17,2.17,0,0,1,1-1.86,4.51,4.51,0,0,1,2.63-.68,7.7,7.7,0,0,1,3,.63l-.51,1.19a7,7,0,0,0-2.63-.6,3.12,3.12,0,0,0-1.57.32,1,1,0,0,0-.52.9,1.09,1.09,0,0,0,.19.66,2.21,2.21,0,0,0,.64.52,15,15,0,0,0,1.69.71,6.36,6.36,0,0,1,2.31,1.26A2.18,2.18,0,0,1,154.87,134.7Z" style="fill: #314041"/>
    <path d="M161.09,137.5a4.1,4.1,0,0,1-3.24-1.29,5.3,5.3,0,0,1-1.15-3.64,5.42,5.42,0,0,1,1.17-3.73,4.18,4.18,0,0,1,3.32-1.32,6.48,6.48,0,0,1,1.38.15,4.23,4.23,0,0,1,1.09.35l-.44,1.24a6.57,6.57,0,0,0-1.06-.32,4.43,4.43,0,0,0-1-.13q-2.94,0-2.94,3.74a4.44,4.44,0,0,0,.72,2.73,2.51,2.51,0,0,0,2.12.95,6.56,6.56,0,0,0,2.47-.52V137A5.15,5.15,0,0,1,161.09,137.5Z" style="fill: #314041"/>
    <path d="M165.69,125.08a1,1,0,0,1,.24-.73.85.85,0,0,1,.62-.23.88.88,0,0,1,.6.23,1.17,1.17,0,0,1,0,1.47.85.85,0,0,1-.6.24.86.86,0,0,1-.62-.24A1,1,0,0,1,165.69,125.08Zm1.58,12.25h-1.46v-9.64h1.46Z" style="fill: #314041"/>
    <path d="M173.47,136.3a4.56,4.56,0,0,0,.75-.06,5.41,5.41,0,0,0,.57-.12v1.12a2.94,2.94,0,0,1-.7.19,5.16,5.16,0,0,1-.83.07q-2.79,0-2.79-2.94v-5.73h-1.38v-.71l1.38-.6.61-2.06h.85v2.23h2.79v1.14h-2.79v5.67a1.91,1.91,0,0,0,.41,1.33A1.43,1.43,0,0,0,173.47,136.3Z" style="fill: #314041"/>
    <path d="M182.64,137.33l-.29-1.37h-.07a4,4,0,0,1-1.44,1.22,4.44,4.44,0,0,1-1.79.32,3.17,3.17,0,0,1-2.24-.74,2.7,2.7,0,0,1-.82-2.1q0-2.91,4.67-3.06l1.64,0V131a2.47,2.47,0,0,0-.49-1.67,2,2,0,0,0-1.56-.54,6.45,6.45,0,0,0-2.73.74l-.44-1.12a6.32,6.32,0,0,1,1.56-.6,6.56,6.56,0,0,1,1.7-.22,3.67,3.67,0,0,1,2.55.76,3.21,3.21,0,0,1,.83,2.45v6.58Zm-3.3-1a2.94,2.94,0,0,0,2.14-.75,2.75,2.75,0,0,0,.78-2.09v-.87l-1.46.06a5.31,5.31,0,0,0-2.51.54,1.64,1.64,0,0,0-.77,1.49,1.48,1.48,0,0,0,.48,1.2A2,2,0,0,0,179.34,136.3Z" style="fill: #314041"/>
  </g>
  <g>
    <path d="M200.32,226.12a3.9,3.9,0,0,1-.87,2.69,3,3,0,0,1-2.41,1,3.08,3.08,0,0,1-2.43-1,4.72,4.72,0,0,1,0-5.43,3.11,3.11,0,0,1,2.44-1,3.06,3.06,0,0,1,2.41,1A4,4,0,0,1,200.32,226.12Zm-5.69,0a3.41,3.41,0,0,0,.62,2.2,2.19,2.19,0,0,0,1.79.75,2.16,2.16,0,0,0,1.79-.75,3.39,3.39,0,0,0,.61-2.2,3.44,3.44,0,0,0-.6-2.19,2.15,2.15,0,0,0-1.79-.74,2.19,2.19,0,0,0-1.8.75A3.35,3.35,0,0,0,194.63,226.12Z" style="fill: #304041"/>
    <path d="M204.23,224.25a4.06,4.06,0,0,1,.64.05l-.11.76a2.75,2.75,0,0,0-.59-.08,1.44,1.44,0,0,0-1.11.53,1.91,1.91,0,0,0-.46,1.31v2.87h-.81v-5.35h.67l.09,1h0a2.44,2.44,0,0,1,.72-.8A1.61,1.61,0,0,1,204.23,224.25Z" style="fill: #304041"/>
    <path d="M210.25,224.34v.52l-1,.11a1.89,1.89,0,0,1,.24.45,1.71,1.71,0,0,1,.11.62,1.59,1.59,0,0,1-.54,1.26,2.14,2.14,0,0,1-1.47.47,3.14,3.14,0,0,1-.45,0,.8.8,0,0,0-.52.69.35.35,0,0,0,.18.32,1.31,1.31,0,0,0,.62.11h.95a2.18,2.18,0,0,1,1.34.36,1.28,1.28,0,0,1,.46,1.07,1.5,1.5,0,0,1-.71,1.35,3.84,3.84,0,0,1-2.08.47,2.85,2.85,0,0,1-1.62-.39,1.27,1.27,0,0,1-.57-1.11,1.28,1.28,0,0,1,.31-.84,1.58,1.58,0,0,1,.88-.48.94.94,0,0,1-.34-.29.78.78,0,0,1-.14-.46.84.84,0,0,1,.16-.51,1.4,1.4,0,0,1,.49-.42,1.48,1.48,0,0,1-.68-.59,1.71,1.71,0,0,1-.26-.93,1.75,1.75,0,0,1,.53-1.36,2.13,2.13,0,0,1,1.49-.47,2.93,2.93,0,0,1,.76.09ZM206,230.59a.74.74,0,0,0,.37.66,2,2,0,0,0,1.05.23,2.86,2.86,0,0,0,1.51-.31.93.93,0,0,0,.49-.83.65.65,0,0,0-.27-.6,2.09,2.09,0,0,0-1-.17h-1a1.27,1.27,0,0,0-.86.27A.94.94,0,0,0,206,230.59Zm.44-4.53a1.12,1.12,0,0,0,.32.85,1.27,1.27,0,0,0,.88.28,1,1,0,0,0,1.19-1.15,1.06,1.06,0,0,0-1.2-1.2,1.22,1.22,0,0,0-.88.3A1.28,1.28,0,0,0,206.42,226.06Z" style="fill: #304041"/>
    <path d="M214.64,229.69l-.16-.76h0a2.11,2.11,0,0,1-.8.68,2.37,2.37,0,0,1-1,.18,1.76,1.76,0,0,1-1.25-.41,1.48,1.48,0,0,1-.45-1.16c0-1.09.86-1.65,2.59-1.7l.91,0v-.34a1.36,1.36,0,0,0-.27-.93,1.12,1.12,0,0,0-.87-.3,3.58,3.58,0,0,0-1.51.41l-.25-.62a3.74,3.74,0,0,1,.87-.33,3.79,3.79,0,0,1,.94-.12,2.06,2.06,0,0,1,1.42.42,1.76,1.76,0,0,1,.46,1.36v3.65Zm-1.83-.57a1.63,1.63,0,0,0,1.19-.41,1.54,1.54,0,0,0,.43-1.16v-.49l-.81,0a2.87,2.87,0,0,0-1.39.3.89.89,0,0,0-.43.83.81.81,0,0,0,.27.66A1,1,0,0,0,212.81,229.12Z" style="fill: #304041"/>
    <path d="M220.57,229.69v-3.46a1.42,1.42,0,0,0-.29-1,1.21,1.21,0,0,0-.94-.33,1.55,1.55,0,0,0-1.23.46,2.29,2.29,0,0,0-.39,1.5v2.8h-.81v-5.35h.66l.13.74h0a1.69,1.69,0,0,1,.7-.62,2.33,2.33,0,0,1,1-.21,2.06,2.06,0,0,1,1.46.46,2,2,0,0,1,.48,1.49v3.49Z" style="fill: #304041"/>
    <path d="M223,222.89a.52.52,0,0,1,.14-.4.45.45,0,0,1,.34-.13.48.48,0,0,1,.34.13.54.54,0,0,1,.14.4.55.55,0,0,1-.14.41.49.49,0,0,1-.34.14.46.46,0,0,1-.34-.14A.55.55,0,0,1,223,222.89Zm.88,6.8h-.81v-5.35h.81Z" style="fill: #304041"/>
    <path d="M229,229.69h-3.88v-.55L228,225H225.3v-.63h3.63V225l-2.88,4.1H229Z" style="fill: #304041"/>
    <path d="M233.68,229.69H229.8v-.55l2.92-4.17H230v-.63h3.63V225l-2.88,4.1h3Z" style="fill: #304041"/>
    <path d="M238.23,229.69l-.17-.76h0a2.09,2.09,0,0,1-.79.68,2.45,2.45,0,0,1-1,.18,1.78,1.78,0,0,1-1.25-.41,1.48,1.48,0,0,1-.45-1.16c0-1.09.87-1.65,2.6-1.7l.9,0v-.34a1.36,1.36,0,0,0-.27-.93,1.11,1.11,0,0,0-.86-.3,3.62,3.62,0,0,0-1.52.41l-.25-.62a4.12,4.12,0,0,1,.87-.33,3.87,3.87,0,0,1,.95-.12,2,2,0,0,1,1.41.42,1.76,1.76,0,0,1,.46,1.36v3.65Zm-1.84-.57a1.61,1.61,0,0,0,1.19-.41,1.54,1.54,0,0,0,.43-1.16v-.49l-.81,0a2.87,2.87,0,0,0-1.39.3.91.91,0,0,0-.43.83.81.81,0,0,0,.27.66A1.06,1.06,0,0,0,236.39,229.12Z" style="fill: #304041"/>
    <path d="M243.92,229.69H240v-.55L243,225h-2.74v-.63h3.62V225l-2.88,4.1h3Z" style="fill: #304041"/>
    <path d="M245.1,222.89a.52.52,0,0,1,.14-.4.47.47,0,0,1,.34-.13.48.48,0,0,1,.34.13.54.54,0,0,1,.14.4.55.55,0,0,1-.14.41.49.49,0,0,1-.34.14.48.48,0,0,1-.34-.14A.55.55,0,0,1,245.1,222.89Zm.88,6.8h-.81v-5.35H246Z" style="fill: #304041"/>
    <path d="M252.32,227a3,3,0,0,1-.66,2.05,2.31,2.31,0,0,1-1.82.73,2.43,2.43,0,0,1-1.27-.33,2.26,2.26,0,0,1-.86-1,3.26,3.26,0,0,1-.31-1.48,2.9,2.9,0,0,1,.66-2,2.29,2.29,0,0,1,1.82-.73,2.25,2.25,0,0,1,1.78.74A2.94,2.94,0,0,1,252.32,227Zm-4.08,0a2.58,2.58,0,0,0,.41,1.57,1.46,1.46,0,0,0,1.21.53,1.43,1.43,0,0,0,1.21-.53,2.58,2.58,0,0,0,.41-1.57,2.53,2.53,0,0,0-.41-1.55,1.46,1.46,0,0,0-1.22-.53,1.43,1.43,0,0,0-1.2.53A2.47,2.47,0,0,0,248.24,227Z" style="fill: #304041"/>
    <path d="M257.4,229.69v-3.46a1.37,1.37,0,0,0-.29-1,1.21,1.21,0,0,0-.94-.33,1.55,1.55,0,0,0-1.23.46,2.29,2.29,0,0,0-.39,1.5v2.8h-.81v-5.35h.66l.13.74h0a1.69,1.69,0,0,1,.7-.62,2.33,2.33,0,0,1,1-.21,2,2,0,0,1,1.46.46,2,2,0,0,1,.49,1.49v3.49Z" style="fill: #304041"/>
    <path d="M259.81,222.89a.52.52,0,0,1,.14-.4.45.45,0,0,1,.34-.13.48.48,0,0,1,.34.13.54.54,0,0,1,.14.4.55.55,0,0,1-.14.41.49.49,0,0,1-.34.14.46.46,0,0,1-.34-.14A.55.55,0,0,1,259.81,222.89Zm.88,6.8h-.81v-5.35h.81Z" style="fill: #304041"/>
    <path d="M212.68,241.79a2.3,2.3,0,0,1-1-.19A1.89,1.89,0,0,1,211,241H211c0,.31.05.61.05.89v2.2h-.81v-7.76h.66l.12.74h0a1.9,1.9,0,0,1,.73-.64,2.24,2.24,0,0,1,1-.19,2,2,0,0,1,1.65.72,3.26,3.26,0,0,1,.58,2,3.19,3.19,0,0,1-.59,2.05A2,2,0,0,1,212.68,241.79Zm-.11-4.86a1.46,1.46,0,0,0-1.19.46,2.36,2.36,0,0,0-.38,1.44V239a2.7,2.7,0,0,0,.38,1.62,1.44,1.44,0,0,0,1.21.48,1.23,1.23,0,0,0,1.08-.56,2.6,2.6,0,0,0,.4-1.55,2.51,2.51,0,0,0-.4-1.53A1.28,1.28,0,0,0,212.57,236.93Z" style="fill: #304041"/>
    <path d="M216.25,234.89a.52.52,0,0,1,.14-.4.51.51,0,0,1,.68,0,.54.54,0,0,1,.14.4.55.55,0,0,1-.14.41.48.48,0,0,1-.68,0A.55.55,0,0,1,216.25,234.89Zm.88,6.8h-.81v-5.35h.81Z" style="fill: #304041"/>
    <path d="M219.61,236.34v3.48a1.37,1.37,0,0,0,.3,1,1.19,1.19,0,0,0,.93.32,1.52,1.52,0,0,0,1.23-.46,2.27,2.27,0,0,0,.39-1.49v-2.82h.81v5.35h-.67l-.12-.71h0a1.68,1.68,0,0,1-.69.6,2.31,2.31,0,0,1-1,.21,2,2,0,0,1-1.46-.46,2,2,0,0,1-.49-1.49v-3.5Zm1.93-.7H221a7,7,0,0,1-.75-.73,6,6,0,0,1-.63-.77V234h1a6.4,6.4,0,0,0,.43.78,5.67,5.67,0,0,0,.5.7Z" style="fill: #304041"/>
    <path d="M230.88,241.69l-.16-.76h0a2.11,2.11,0,0,1-.8.68,2.43,2.43,0,0,1-1,.18,1.76,1.76,0,0,1-1.25-.41,1.48,1.48,0,0,1-.45-1.16c0-1.09.86-1.65,2.59-1.7l.91,0v-.34a1.36,1.36,0,0,0-.27-.93,1.13,1.13,0,0,0-.87-.3,3.54,3.54,0,0,0-1.51.41l-.25-.62a3.91,3.91,0,0,1,1.81-.45,2.06,2.06,0,0,1,1.42.42,1.8,1.8,0,0,1,.46,1.36v3.65Zm-1.83-.57a1.6,1.6,0,0,0,1.18-.41,1.54,1.54,0,0,0,.44-1.16v-.49l-.81,0a2.91,2.91,0,0,0-1.4.3.9.9,0,0,0-.42.83.84.84,0,0,0,.26.66A1.09,1.09,0,0,0,229.05,241.12Z" style="fill: #304041"/>
    <path d="M237.53,236.34v.52l-1,.11a1.89,1.89,0,0,1,.24.45,1.71,1.71,0,0,1,.11.62,1.59,1.59,0,0,1-.54,1.26,2.18,2.18,0,0,1-1.47.47,3.14,3.14,0,0,1-.45,0,.79.79,0,0,0-.52.69.35.35,0,0,0,.18.32,1.31,1.31,0,0,0,.62.11h.95a2.13,2.13,0,0,1,1.33.36,1.26,1.26,0,0,1,.47,1.07,1.52,1.52,0,0,1-.71,1.35,3.84,3.84,0,0,1-2.08.47,2.85,2.85,0,0,1-1.62-.39,1.27,1.27,0,0,1-.57-1.11,1.23,1.23,0,0,1,.31-.84,1.55,1.55,0,0,1,.88-.48.87.87,0,0,1-.34-.29.72.72,0,0,1-.14-.46.9.9,0,0,1,.15-.51,1.54,1.54,0,0,1,.5-.42,1.44,1.44,0,0,1-.68-.59,1.92,1.92,0,0,1,.27-2.29,2.13,2.13,0,0,1,1.49-.47,3,3,0,0,1,.76.09Zm-4.27,6.25a.72.72,0,0,0,.37.66,2,2,0,0,0,1.05.23,2.86,2.86,0,0,0,1.51-.31.93.93,0,0,0,.49-.83.65.65,0,0,0-.27-.6,2.09,2.09,0,0,0-1-.17h-1a1.25,1.25,0,0,0-.86.27A.91.91,0,0,0,233.26,242.59Zm.44-4.53a1.12,1.12,0,0,0,.32.85,1.26,1.26,0,0,0,.88.28,1,1,0,0,0,1.19-1.15,1.06,1.06,0,0,0-1.2-1.2,1.2,1.2,0,0,0-.88.3A1.23,1.23,0,0,0,233.7,238.06Z" style="fill: #304041"/>
    <path d="M238.56,234.89a.49.49,0,0,1,.14-.4.45.45,0,0,1,.34-.13.44.44,0,0,1,.33.13.51.51,0,0,1,.15.4.51.51,0,0,1-.15.41.45.45,0,0,1-.33.14.46.46,0,0,1-.34-.14A.51.51,0,0,1,238.56,234.89Zm.88,6.8h-.81v-5.35h.81Z" style="fill: #304041"/>
    <path d="M242,241.69h-.81V234.1H242Z" style="fill: #304041"/>
    <path d="M243.62,234.89a.52.52,0,0,1,.13-.4.48.48,0,0,1,.35-.13.44.44,0,0,1,.33.13.5.5,0,0,1,.14.4.51.51,0,0,1-.14.41.45.45,0,0,1-.33.14.48.48,0,0,1-.35-.14A.55.55,0,0,1,243.62,234.89Zm.88,6.8h-.81v-5.35h.81Z" style="fill: #304041"/>
  </g>
  <g>
    <path d="M277.49,226.12a4,4,0,0,1-.86,2.69,3,3,0,0,1-2.41,1,3.09,3.09,0,0,1-2.44-1,4.76,4.76,0,0,1,0-5.43,3.13,3.13,0,0,1,2.45-1,3.05,3.05,0,0,1,2.4,1A4,4,0,0,1,277.49,226.12Zm-5.69,0a3.41,3.41,0,0,0,.62,2.2,2.19,2.19,0,0,0,1.8.75,2.16,2.16,0,0,0,1.79-.75,4.32,4.32,0,0,0,0-4.39,2.15,2.15,0,0,0-1.78-.74,2.21,2.21,0,0,0-1.81.75A3.35,3.35,0,0,0,271.8,226.12Z" style="fill: #304041"/>
    <path d="M281.4,224.25a4,4,0,0,1,.64.05l-.11.76a2.75,2.75,0,0,0-.58-.08,1.45,1.45,0,0,0-1.12.53,2,2,0,0,0-.46,1.31v2.87H279v-5.35h.67l.09,1h0a2.44,2.44,0,0,1,.72-.8A1.61,1.61,0,0,1,281.4,224.25Z" style="fill: #304041"/>
    <path d="M287.42,224.34v.52l-1,.11a1.9,1.9,0,0,1,.25.45,1.72,1.72,0,0,1,.1.62,1.58,1.58,0,0,1-.53,1.26,2.19,2.19,0,0,1-1.48.47,3.14,3.14,0,0,1-.45,0,.79.79,0,0,0-.51.69.35.35,0,0,0,.18.32,1.29,1.29,0,0,0,.62.11h.94a2.16,2.16,0,0,1,1.34.36,1.29,1.29,0,0,1,.47,1.07,1.51,1.51,0,0,1-.72,1.35,3.81,3.81,0,0,1-2.08.47,2.85,2.85,0,0,1-1.62-.39,1.28,1.28,0,0,1-.56-1.11,1.23,1.23,0,0,1,.31-.84,1.55,1.55,0,0,1,.88-.48,1,1,0,0,1-.35-.29.78.78,0,0,1-.14-.46.91.91,0,0,1,.16-.51,1.49,1.49,0,0,1,.49-.42,1.46,1.46,0,0,1-.67-.59,1.63,1.63,0,0,1-.26-.93,1.74,1.74,0,0,1,.52-1.36,2.14,2.14,0,0,1,1.5-.47,2.86,2.86,0,0,1,.75.09Zm-4.26,6.25a.73.73,0,0,0,.36.66,2,2,0,0,0,1.05.23,2.84,2.84,0,0,0,1.51-.31.93.93,0,0,0,.49-.83.66.66,0,0,0-.26-.6,2.12,2.12,0,0,0-1-.17h-1a1.28,1.28,0,0,0-.86.27A.93.93,0,0,0,283.16,230.59Zm.44-4.53a1.11,1.11,0,0,0,.31.85,1.3,1.3,0,0,0,.89.28A1,1,0,0,0,286,226a1.06,1.06,0,0,0-1.2-1.2,1.22,1.22,0,0,0-.88.3A1.27,1.27,0,0,0,283.6,226.06Z" style="fill: #304041"/>
    <path d="M291.81,229.69l-.16-.76h0a2.09,2.09,0,0,1-.79.68,2.45,2.45,0,0,1-1,.18,1.78,1.78,0,0,1-1.25-.41,1.48,1.48,0,0,1-.45-1.16c0-1.09.87-1.65,2.6-1.7l.9,0v-.34a1.36,1.36,0,0,0-.27-.93,1.11,1.11,0,0,0-.86-.3,3.62,3.62,0,0,0-1.52.41l-.25-.62a4.12,4.12,0,0,1,.87-.33,3.79,3.79,0,0,1,.94-.12,2,2,0,0,1,1.42.42,1.76,1.76,0,0,1,.46,1.36v3.65Zm-1.83-.57a1.63,1.63,0,0,0,1.19-.41,1.54,1.54,0,0,0,.43-1.16v-.49l-.81,0a2.87,2.87,0,0,0-1.39.3.89.89,0,0,0-.43.83.81.81,0,0,0,.27.66A1.06,1.06,0,0,0,290,229.12Z" style="fill: #304041"/>
    <path d="M297.75,229.69v-3.46a1.37,1.37,0,0,0-.3-1,1.2,1.2,0,0,0-.93-.33,1.55,1.55,0,0,0-1.23.46,2.29,2.29,0,0,0-.39,1.5v2.8h-.82v-5.35h.66l.14.74h0a1.69,1.69,0,0,1,.7-.62,2.36,2.36,0,0,1,1-.21,2,2,0,0,1,1.46.46,2,2,0,0,1,.49,1.49v3.49Z" style="fill: #304041"/>
    <path d="M300.15,222.89a.52.52,0,0,1,.14-.4.47.47,0,0,1,.34-.13.48.48,0,0,1,.34.13.54.54,0,0,1,.14.4.55.55,0,0,1-.14.41.49.49,0,0,1-.34.14.48.48,0,0,1-.34-.14A.55.55,0,0,1,300.15,222.89Zm.88,6.8h-.81v-5.35H301Z" style="fill: #304041"/>
    <path d="M306.17,229.69h-3.88v-.55l2.92-4.17h-2.74v-.63h3.63V225l-2.88,4.1h2.95Z" style="fill: #304041"/>
    <path d="M310.85,229.69H307v-.55l2.92-4.17h-2.74v-.63h3.63V225l-2.88,4.1h3Z" style="fill: #304041"/>
    <path d="M315.4,229.69l-.16-.76h0a2.18,2.18,0,0,1-.8.68,2.43,2.43,0,0,1-1,.18,1.76,1.76,0,0,1-1.25-.41,1.48,1.48,0,0,1-.45-1.16c0-1.09.86-1.65,2.59-1.7l.91,0v-.34a1.36,1.36,0,0,0-.27-.93,1.12,1.12,0,0,0-.87-.3,3.54,3.54,0,0,0-1.51.41l-.25-.62a3.91,3.91,0,0,1,1.81-.45,2.06,2.06,0,0,1,1.42.42A1.76,1.76,0,0,1,316,226v3.65Zm-1.83-.57a1.64,1.64,0,0,0,1.19-.41,1.58,1.58,0,0,0,.43-1.16v-.49l-.81,0a2.91,2.91,0,0,0-1.4.3.9.9,0,0,0-.42.83.84.84,0,0,0,.26.66A1.09,1.09,0,0,0,313.57,229.12Z" style="fill: #304041"/>
    <path d="M321.09,229.69h-3.88v-.55l2.92-4.17h-2.74v-.63H321V225l-2.88,4.1h2.95Z" style="fill: #304041"/>
    <path d="M322.28,222.89a.52.52,0,0,1,.13-.4.49.49,0,0,1,.35-.13.44.44,0,0,1,.33.13.5.5,0,0,1,.14.4.51.51,0,0,1-.14.41.45.45,0,0,1-.33.14.5.5,0,0,1-.35-.14A.55.55,0,0,1,322.28,222.89Zm.88,6.8h-.81v-5.35h.81Z" style="fill: #304041"/>
    <path d="M329.49,227a3,3,0,0,1-.65,2.05,2.33,2.33,0,0,1-1.83.73,2.45,2.45,0,0,1-1.27-.33,2.26,2.26,0,0,1-.86-1,3.4,3.4,0,0,1-.3-1.48,3,3,0,0,1,.65-2,2.31,2.31,0,0,1,1.82-.73,2.24,2.24,0,0,1,1.78.74A2.94,2.94,0,0,1,329.49,227Zm-4.07,0a2.51,2.51,0,0,0,.41,1.57,1.63,1.63,0,0,0,2.41,0,2.51,2.51,0,0,0,.41-1.57,2.47,2.47,0,0,0-.41-1.55,1.45,1.45,0,0,0-1.22-.53,1.43,1.43,0,0,0-1.2.53A2.48,2.48,0,0,0,325.42,227Z" style="fill: #304041"/>
    <path d="M334.58,229.69v-3.46a1.37,1.37,0,0,0-.3-1,1.2,1.2,0,0,0-.93-.33,1.55,1.55,0,0,0-1.23.46,2.29,2.29,0,0,0-.39,1.5v2.8h-.81v-5.35h.65l.14.74h0a1.6,1.6,0,0,1,.69-.62,2.36,2.36,0,0,1,1-.21,2,2,0,0,1,1.46.46,2,2,0,0,1,.49,1.49v3.49Z" style="fill: #304041"/>
    <path d="M337,222.89a.52.52,0,0,1,.14-.4.51.51,0,0,1,.68,0,.5.5,0,0,1,.14.4.51.51,0,0,1-.14.41.48.48,0,0,1-.68,0A.55.55,0,0,1,337,222.89Zm.88,6.8h-.81v-5.35h.81Z" style="fill: #304041"/>
    <path d="M288,241.69v-3.48a1.48,1.48,0,0,0-.27-1,1.07,1.07,0,0,0-.85-.32,1.37,1.37,0,0,0-1.12.44,2.06,2.06,0,0,0-.36,1.34v3h-.81v-3.48a1.48,1.48,0,0,0-.27-1,1.09,1.09,0,0,0-.86-.32,1.32,1.32,0,0,0-1.11.46,2.43,2.43,0,0,0-.36,1.5v2.8h-.81v-5.35h.66l.13.74h0a1.53,1.53,0,0,1,.65-.61,1.93,1.93,0,0,1,.93-.22,1.58,1.58,0,0,1,1.64.9h0a1.66,1.66,0,0,1,.7-.66,2.15,2.15,0,0,1,1-.24,1.81,1.81,0,0,1,1.36.46,2.09,2.09,0,0,1,.45,1.49v3.49Z" style="fill: #304041"/>
    <path d="M292.78,241.79a2.46,2.46,0,0,1-1.87-.72,2.78,2.78,0,0,1-.68-2,3.12,3.12,0,0,1,.63-2.05,2.12,2.12,0,0,1,1.71-.76,2,2,0,0,1,1.6.66,2.52,2.52,0,0,1,.58,1.74v.52h-3.68a2.12,2.12,0,0,0,.47,1.43,1.67,1.67,0,0,0,1.27.48,4.3,4.3,0,0,0,1.71-.36v.73a4,4,0,0,1-1.74.34Zm-.22-4.87a1.3,1.3,0,0,0-1,.42,2,2,0,0,0-.46,1.17h2.8a1.79,1.79,0,0,0-.34-1.18A1.21,1.21,0,0,0,292.56,236.92Z" style="fill: #304041"/>
    <path d="M299.8,241.69v-3.46a1.37,1.37,0,0,0-.3-1,1.2,1.2,0,0,0-.93-.33,1.58,1.58,0,0,0-1.24.46,2.29,2.29,0,0,0-.39,1.5v2.8h-.81v-5.35h.66l.13.74h0a1.69,1.69,0,0,1,.7-.62,2.33,2.33,0,0,1,1-.21,2,2,0,0,1,1.46.46,2,2,0,0,1,.49,1.49v3.49Z" style="fill: #304041"/>
    <path d="M306.89,239a3,3,0,0,1-.66,2.05,2.32,2.32,0,0,1-1.82.73,2.43,2.43,0,0,1-1.27-.33,2.2,2.2,0,0,1-.86-1A3.26,3.26,0,0,1,302,239a2.9,2.9,0,0,1,.66-2,2.29,2.29,0,0,1,1.81-.73,2.26,2.26,0,0,1,1.79.74A2.94,2.94,0,0,1,306.89,239Zm-4.08,0a2.58,2.58,0,0,0,.41,1.57,1.46,1.46,0,0,0,1.21.53,1.43,1.43,0,0,0,1.21-.53,2.58,2.58,0,0,0,.41-1.57,2.53,2.53,0,0,0-.41-1.55,1.46,1.46,0,0,0-1.22-.53,1.43,1.43,0,0,0-1.2.53A2.47,2.47,0,0,0,302.81,239Z" style="fill: #304041"/>
    <path d="M314.2,241.69l-.16-.76h0a2.11,2.11,0,0,1-.8.68,2.37,2.37,0,0,1-1,.18,1.76,1.76,0,0,1-1.25-.41,1.48,1.48,0,0,1-.45-1.16c0-1.09.86-1.65,2.59-1.7l.91,0v-.34a1.36,1.36,0,0,0-.27-.93,1.12,1.12,0,0,0-.87-.3,3.58,3.58,0,0,0-1.51.41l-.25-.62a3.74,3.74,0,0,1,.87-.33,3.79,3.79,0,0,1,.94-.12,2.06,2.06,0,0,1,1.42.42,1.76,1.76,0,0,1,.46,1.36v3.65Zm-1.83-.57a1.64,1.64,0,0,0,1.19-.41,1.54,1.54,0,0,0,.43-1.16v-.49l-.81,0a2.84,2.84,0,0,0-1.39.3.89.89,0,0,0-.43.83.84.84,0,0,0,.26.66A1.09,1.09,0,0,0,312.37,241.12Z" style="fill: #304041"/>
    <path d="M320.85,236.34v.52l-1,.11a1.89,1.89,0,0,1,.24.45,1.71,1.71,0,0,1,.11.62,1.59,1.59,0,0,1-.54,1.26,2.16,2.16,0,0,1-1.47.47,3.14,3.14,0,0,1-.45,0,.79.79,0,0,0-.52.69.35.35,0,0,0,.18.32,1.31,1.31,0,0,0,.62.11h1a2.18,2.18,0,0,1,1.34.36,1.28,1.28,0,0,1,.46,1.07,1.52,1.52,0,0,1-.71,1.35,3.84,3.84,0,0,1-2.08.47,2.85,2.85,0,0,1-1.62-.39,1.27,1.27,0,0,1-.57-1.11,1.28,1.28,0,0,1,.31-.84,1.55,1.55,0,0,1,.88-.48.94.94,0,0,1-.34-.29.78.78,0,0,1-.14-.46.84.84,0,0,1,.16-.51,1.4,1.4,0,0,1,.49-.42,1.48,1.48,0,0,1-.68-.59,1.71,1.71,0,0,1-.26-.93,1.75,1.75,0,0,1,.53-1.36,2.13,2.13,0,0,1,1.49-.47,2.93,2.93,0,0,1,.76.09Zm-4.27,6.25a.72.72,0,0,0,.37.66,2,2,0,0,0,1.05.23,2.86,2.86,0,0,0,1.51-.31.93.93,0,0,0,.49-.83.65.65,0,0,0-.27-.6,2.09,2.09,0,0,0-1-.17h-1a1.27,1.27,0,0,0-.86.27A.94.94,0,0,0,316.58,242.59Zm.44-4.53a1.12,1.12,0,0,0,.32.85,1.27,1.27,0,0,0,.88.28,1,1,0,0,0,1.19-1.15,1.06,1.06,0,0,0-1.2-1.2,1.2,1.2,0,0,0-.88.3A1.23,1.23,0,0,0,317,238.06Z" style="fill: #304041"/>
    <path d="M321.88,234.89a.52.52,0,0,1,.14-.4.45.45,0,0,1,.34-.13.48.48,0,0,1,.34.13.54.54,0,0,1,.14.4.55.55,0,0,1-.14.41.49.49,0,0,1-.34.14.46.46,0,0,1-.34-.14A.55.55,0,0,1,321.88,234.89Zm.88,6.8H322v-5.35h.81Z" style="fill: #304041"/>
    <path d="M325.29,241.69h-.81V234.1h.81Z" style="fill: #304041"/>
    <path d="M326.94,234.89a.49.49,0,0,1,.14-.4.45.45,0,0,1,.34-.13.44.44,0,0,1,.33.13.51.51,0,0,1,.15.4.51.51,0,0,1-.15.41.45.45,0,0,1-.33.14.46.46,0,0,1-.34-.14A.51.51,0,0,1,326.94,234.89Zm.88,6.8H327v-5.35h.81Z" style="fill: #304041"/>
  </g>
</svg>
