<svg id="Layer_1" data-name="Layer 1" xmlns="http://www.w3.org/2000/svg" viewBox="0 0 374.33 255.83">
  <title>nugget_graph_4es</title>
  <rect x="202.35" y="27.31" width="50" height="186.26" style="fill: #8f89bf"/>
  <rect x="279.52" y="73.06" width="50" height="140.51" style="fill: #e3e2e3"/>
  <g>
    <path d="M151.78,60a4.6,4.6,0,0,1,3.29,1.16,4.17,4.17,0,0,1,1.22,3.17A4.62,4.62,0,0,1,154.82,68a6.17,6.17,0,0,1-4.2,1.28,8.12,8.12,0,0,1-3.83-.77V65.93a7.78,7.78,0,0,0,1.79.66,7.5,7.5,0,0,0,1.93.26c1.84,0,2.75-.75,2.75-2.25s-.95-2.15-2.85-2.15a7,7,0,0,0-1.14.1,8.46,8.46,0,0,0-1,.22l-1.19-.64.53-7.25h7.71v2.55h-5.07L150,60.22l.34-.07A6.62,6.62,0,0,1,151.78,60Z" style="fill: #314041"/>
    <path d="M159.39,69.1l5.34-11.67h-7V54.9h10.2v1.89L162.54,69.1Z" style="fill: #314041"/>
    <path d="M175.92,59.12a5.44,5.44,0,0,1-.86,3.36,3,3,0,0,1-2.54,1.12A2.92,2.92,0,0,1,170,62.45a5.46,5.46,0,0,1-.87-3.33c0-3,1.11-4.44,3.35-4.44A3,3,0,0,1,175,55.83,5.3,5.3,0,0,1,175.92,59.12Zm-4.3,0a5.65,5.65,0,0,0,.22,1.84c.14.41.38.61.7.61.62,0,.93-.82.93-2.45s-.31-2.43-.93-2.43c-.32,0-.56.2-.7.6A5.54,5.54,0,0,0,171.62,59.14Zm11-4.26L174.73,69.1h-2.34l7.89-14.22Zm3.26,9.92a5.43,5.43,0,0,1-.86,3.35,3,3,0,0,1-2.54,1.12A2.92,2.92,0,0,1,180,68.12a5.43,5.43,0,0,1-.88-3.32c0-3,1.12-4.45,3.36-4.45A3,3,0,0,1,185,61.51,5.3,5.3,0,0,1,185.88,64.8Zm-4.3,0a6,6,0,0,0,.21,1.84c.15.41.39.61.71.61.62,0,.93-.82.93-2.45s-.31-2.43-.93-2.43c-.32,0-.56.2-.71.6A5.92,5.92,0,0,0,181.58,64.82Z" style="fill: #314041"/>
  </g>
  <g>
    <path d="M294.58,144.36h-1.71v2.95h-2.94v-2.95h-6.07v-2.09l6.24-9.18h2.77V142h1.71ZM289.93,142v-2.42c0-.4,0-1,.05-1.75s.06-1.21.08-1.33H290a11,11,0,0,1-.87,1.56l-2.6,3.94Z" style="fill: #314041"/>
    <path d="M305.07,136.27a3.36,3.36,0,0,1-.8,2.26,4.15,4.15,0,0,1-2.27,1.29v.06a4.54,4.54,0,0,1,2.61,1,2.93,2.93,0,0,1,.88,2.24,3.78,3.78,0,0,1-1.49,3.2,6.87,6.87,0,0,1-4.25,1.14,10.17,10.17,0,0,1-4.1-.77v-2.55a10.26,10.26,0,0,0,1.82.68,7.82,7.82,0,0,0,2,.26,3.8,3.8,0,0,0,2.2-.51,1.85,1.85,0,0,0,.71-1.62,1.46,1.46,0,0,0-.82-1.42,6,6,0,0,0-2.6-.42h-1.08v-2.3h1.1a5.06,5.06,0,0,0,2.41-.44,1.55,1.55,0,0,0,.77-1.48c0-1.08-.68-1.61-2-1.61a4.48,4.48,0,0,0-1.42.23,6.55,6.55,0,0,0-1.61.81l-1.39-2.08a7.73,7.73,0,0,1,4.64-1.4,5.94,5.94,0,0,1,3.48.9A2.86,2.86,0,0,1,305.07,136.27Z" style="fill: #314041"/>
    <path d="M313.63,137.33a5.51,5.51,0,0,1-.86,3.36,3,3,0,0,1-2.54,1.12,2.92,2.92,0,0,1-2.48-1.15,5.39,5.39,0,0,1-.88-3.33c0-3,1.12-4.45,3.36-4.45a3,3,0,0,1,2.52,1.16A5.3,5.3,0,0,1,313.63,137.33Zm-4.31,0a5.94,5.94,0,0,0,.22,1.84c.15.41.38.61.71.61.62,0,.93-.82.93-2.45s-.31-2.43-.93-2.43c-.33,0-.56.2-.71.59A5.89,5.89,0,0,0,309.32,137.35Zm11-4.26-7.88,14.22H310.1L318,133.09Zm3.27,9.92a5.5,5.5,0,0,1-.86,3.35,3,3,0,0,1-2.54,1.12,2.92,2.92,0,0,1-2.48-1.15,5.38,5.38,0,0,1-.88-3.32c0-3,1.12-4.45,3.36-4.45a3,3,0,0,1,2.52,1.16A5.28,5.28,0,0,1,323.59,143Zm-4.31,0a5.94,5.94,0,0,0,.22,1.84c.15.41.38.61.71.61.62,0,.93-.82.93-2.45s-.31-2.43-.93-2.43c-.33,0-.56.2-.71.59A5.94,5.94,0,0,0,319.28,143Z" style="fill: #314041"/>
  </g>
  <g>
    <path d="M48.48,90.71a3.14,3.14,0,0,1-1.23,2.64,5.3,5.3,0,0,1-3.34,1,8.25,8.25,0,0,1-3.52-.59V92.27a9.61,9.61,0,0,0,1.72.53A9,9,0,0,0,44,93a3.81,3.81,0,0,0,2.25-.56A1.88,1.88,0,0,0,47,90.85a2.13,2.13,0,0,0-.26-1.1,2.53,2.53,0,0,0-.9-.78,12.31,12.31,0,0,0-1.91-.82,6,6,0,0,1-2.56-1.52,3.32,3.32,0,0,1-.77-2.29A2.88,2.88,0,0,1,41.67,82a4.7,4.7,0,0,1,3-.88,8.68,8.68,0,0,1,3.52.71l-.46,1.3a8,8,0,0,0-3.1-.67,3,3,0,0,0-1.85.51,1.66,1.66,0,0,0-.67,1.41,2.24,2.24,0,0,0,.24,1.1,2.46,2.46,0,0,0,.84.78,9.92,9.92,0,0,0,1.78.79,7.14,7.14,0,0,1,2.79,1.54A3.08,3.08,0,0,1,48.48,90.71Z" style="fill: #314041"/>
    <path d="M59.2,89.3A5.32,5.32,0,0,1,58,93a4.18,4.18,0,0,1-3.28,1.32,4.37,4.37,0,0,1-2.29-.6A4.1,4.1,0,0,1,50.89,92a6.16,6.16,0,0,1-.54-2.66,5.29,5.29,0,0,1,1.18-3.67,4.17,4.17,0,0,1,3.27-1.31A4.11,4.11,0,0,1,58,85.66,5.32,5.32,0,0,1,59.2,89.3Zm-7.34,0a4.57,4.57,0,0,0,.74,2.81,2.54,2.54,0,0,0,2.17,1,2.57,2.57,0,0,0,2.17-1,4.52,4.52,0,0,0,.75-2.82,4.46,4.46,0,0,0-.75-2.79,3,3,0,0,0-4.35,0A4.48,4.48,0,0,0,51.86,89.3Z" style="fill: #314041"/>
    <path d="M66.1,85.63H63.65v8.5H62.19v-8.5H60.46V85l1.73-.53V83.9c0-2.36,1-3.55,3.1-3.55a6.53,6.53,0,0,1,1.79.31l-.38,1.17a4.84,4.84,0,0,0-1.44-.27,1.4,1.4,0,0,0-1.22.55,3.08,3.08,0,0,0-.39,1.76v.62H66.1Z" style="fill: #314041"/>
    <path d="M71,93.1a4.44,4.44,0,0,0,.74-.06,5.69,5.69,0,0,0,.58-.12V94a3.09,3.09,0,0,1-.7.19,5.25,5.25,0,0,1-.83.07c-1.87,0-2.8-1-2.8-2.94V85.63H66.58v-.71l1.38-.6.62-2.06h.84v2.23h2.8v1.14h-2.8V91.3a2,2,0,0,0,.41,1.33A1.46,1.46,0,0,0,71,93.1Z" style="fill: #314041"/>
    <path d="M82.08,94.13l-1.77-5.66c-.11-.34-.32-1.13-.62-2.35h-.07c-.24,1-.44,1.82-.62,2.37l-1.82,5.64H75.49l-2.62-9.64H74.4c.62,2.42,1.09,4.27,1.41,5.53a20.28,20.28,0,0,1,.56,2.56h.07c.07-.33.17-.77.31-1.3s.27-1,.38-1.26l1.77-5.53h1.58L82.2,90a19.15,19.15,0,0,1,.67,2.54h.07a7.14,7.14,0,0,1,.19-1q.15-.66,1.83-7.1h1.51l-2.66,9.64Z" style="fill: #314041"/>
    <path d="M94.14,94.13l-.29-1.37h-.08A4.07,4.07,0,0,1,92.34,94a4.48,4.48,0,0,1-1.79.32,3.2,3.2,0,0,1-2.25-.74,2.69,2.69,0,0,1-.81-2.1q0-2.91,4.67-3.06l1.63-.05v-.6a2.42,2.42,0,0,0-.49-1.67,2,2,0,0,0-1.56-.54,6.37,6.37,0,0,0-2.72.74l-.45-1.12a7.12,7.12,0,0,1,3.26-.82,3.7,3.7,0,0,1,2.56.76,3.21,3.21,0,0,1,.83,2.45v6.58Zm-3.3-1A3,3,0,0,0,93,92.35a2.75,2.75,0,0,0,.78-2.09v-.87l-1.46.06a5.28,5.28,0,0,0-2.51.54A1.64,1.64,0,0,0,89,91.48a1.48,1.48,0,0,0,.48,1.2A2,2,0,0,0,90.84,93.1Z" style="fill: #314041"/>
    <path d="M102.62,84.32a5.79,5.79,0,0,1,1.15.1l-.2,1.36a4.91,4.91,0,0,0-1.06-.14,2.57,2.57,0,0,0-2,1A3.49,3.49,0,0,0,99.68,89v5.17H98.22V84.49h1.21l.16,1.79h.07a4.19,4.19,0,0,1,1.3-1.45A2.88,2.88,0,0,1,102.62,84.32Z" style="fill: #314041"/>
    <path d="M109.64,94.3a4.41,4.41,0,0,1-3.37-1.3A5,5,0,0,1,105,89.39a5.61,5.61,0,0,1,1.15-3.7,3.78,3.78,0,0,1,3.08-1.37,3.63,3.63,0,0,1,2.87,1.19,4.57,4.57,0,0,1,1.05,3.14v.92h-6.63a3.8,3.8,0,0,0,.85,2.58,3,3,0,0,0,2.29.88,7.85,7.85,0,0,0,3.08-.65v1.3a8.35,8.35,0,0,1-1.47.48A8.72,8.72,0,0,1,109.64,94.3Zm-.4-8.76a2.37,2.37,0,0,0-1.85.76,3.46,3.46,0,0,0-.81,2.09h5a3.23,3.23,0,0,0-.62-2.12A2.15,2.15,0,0,0,109.24,85.54Z" style="fill: #314041"/>
    <path d="M124.19,94.3A4.12,4.12,0,0,1,121,93a5.29,5.29,0,0,1-1.14-3.64A5.46,5.46,0,0,1,121,85.64a4.21,4.21,0,0,1,3.32-1.32,6.57,6.57,0,0,1,1.39.15,4.36,4.36,0,0,1,1.09.35l-.45,1.24a6.16,6.16,0,0,0-1-.32,4.43,4.43,0,0,0-1-.13q-2.94,0-2.94,3.74a4.44,4.44,0,0,0,.72,2.73,2.48,2.48,0,0,0,2.12,1,6.64,6.64,0,0,0,2.47-.52V93.8A5.22,5.22,0,0,1,124.19,94.3Z" style="fill: #314041"/>
    <path d="M137.23,89.3A5.32,5.32,0,0,1,136,93a4.18,4.18,0,0,1-3.28,1.32,4.37,4.37,0,0,1-2.29-.6A4.1,4.1,0,0,1,128.92,92a6.16,6.16,0,0,1-.54-2.66,5.29,5.29,0,0,1,1.18-3.67,4.16,4.16,0,0,1,3.26-1.31A4.11,4.11,0,0,1,136,85.66,5.32,5.32,0,0,1,137.23,89.3Zm-7.34,0a4.57,4.57,0,0,0,.74,2.81,2.54,2.54,0,0,0,2.17,1,2.57,2.57,0,0,0,2.17-1,4.52,4.52,0,0,0,.75-2.82,4.46,4.46,0,0,0-.75-2.79,3,3,0,0,0-4.35,0A4.48,4.48,0,0,0,129.89,89.3Z" style="fill: #314041"/>
    <path d="M152.06,94.13V87.86a2.61,2.61,0,0,0-.49-1.73,1.92,1.92,0,0,0-1.53-.57,2.46,2.46,0,0,0-2,.78,3.73,3.73,0,0,0-.65,2.41v5.38h-1.46V87.86a2.61,2.61,0,0,0-.49-1.73,1.93,1.93,0,0,0-1.54-.57,2.39,2.39,0,0,0-2,.82,4.47,4.47,0,0,0-.64,2.69v5.06h-1.45V84.49H141l.24,1.32h.07a2.93,2.93,0,0,1,1.16-1.1,3.63,3.63,0,0,1,1.69-.39,2.86,2.86,0,0,1,3,1.63h.07a3.06,3.06,0,0,1,1.25-1.19,3.76,3.76,0,0,1,1.86-.44,3.26,3.26,0,0,1,2.45.84,3.75,3.75,0,0,1,.81,2.68v6.29Z" style="fill: #314041"/>
    <path d="M164.84,89.3A5.32,5.32,0,0,1,163.66,93a4.19,4.19,0,0,1-3.28,1.32,4.41,4.41,0,0,1-2.3-.6A4.08,4.08,0,0,1,156.54,92,6,6,0,0,1,156,89.3a5.34,5.34,0,0,1,1.18-3.67,4.2,4.2,0,0,1,3.27-1.31,4.08,4.08,0,0,1,3.21,1.34A5.27,5.27,0,0,1,164.84,89.3Zm-7.34,0a4.57,4.57,0,0,0,.74,2.81,2.55,2.55,0,0,0,2.17,1,2.59,2.59,0,0,0,2.18-1,4.58,4.58,0,0,0,.74-2.82,4.53,4.53,0,0,0-.74-2.79,2.6,2.6,0,0,0-2.19-1,2.57,2.57,0,0,0-2.17.94A4.55,4.55,0,0,0,157.5,89.3Z" style="fill: #314041"/>
    <path d="M176.15,94.3a4.44,4.44,0,0,1-3.38-1.3,5,5,0,0,1-1.23-3.61,5.55,5.55,0,0,1,1.15-3.7,3.78,3.78,0,0,1,3.08-1.37,3.59,3.59,0,0,1,2.86,1.19,4.52,4.52,0,0,1,1.06,3.14v.92h-6.64a3.86,3.86,0,0,0,.86,2.58,3,3,0,0,0,2.29.88,7.77,7.77,0,0,0,3.07-.65v1.3a8,8,0,0,1-1.46.48A8.72,8.72,0,0,1,176.15,94.3Zm-.4-8.76a2.37,2.37,0,0,0-1.85.76,3.46,3.46,0,0,0-.81,2.09h5a3.23,3.23,0,0,0-.61-2.12A2.17,2.17,0,0,0,175.75,85.54Z" style="fill: #314041"/>
    <path d="M183.63,94.13h-1.45V80.45h1.45Z" style="fill: #314041"/>
    <path d="M26.23,115.73l-.29-1.38h-.07a4,4,0,0,1-1.44,1.23,4.23,4.23,0,0,1-1.78.32,3.18,3.18,0,0,1-2.25-.74,2.69,2.69,0,0,1-.81-2.1q0-2.91,4.66-3.06l1.64,0v-.6a2.42,2.42,0,0,0-.49-1.67,2,2,0,0,0-1.56-.54,6.37,6.37,0,0,0-2.72.74l-.45-1.12a6.76,6.76,0,0,1,1.56-.61,7,7,0,0,1,1.7-.22,3.65,3.65,0,0,1,2.55.77,3.21,3.21,0,0,1,.83,2.45v6.58Zm-3.29-1a2.93,2.93,0,0,0,2.13-.75,2.75,2.75,0,0,0,.78-2.09V111l-1.46.06a5.31,5.31,0,0,0-2.51.54,1.63,1.63,0,0,0-.76,1.49,1.48,1.48,0,0,0,.47,1.2A2,2,0,0,0,22.94,114.7Z" style="fill: #314041"/>
    <path d="M36.53,113.1a2.4,2.4,0,0,1-1,2.07,4.69,4.69,0,0,1-2.81.73,6.16,6.16,0,0,1-3-.6v-1.36a7.16,7.16,0,0,0,1.49.56,6.43,6.43,0,0,0,1.53.2,3.42,3.42,0,0,0,1.76-.37,1.2,1.2,0,0,0,.62-1.11,1.23,1.23,0,0,0-.49-1,7.81,7.81,0,0,0-1.91-1,10.29,10.29,0,0,1-1.91-.87,2.51,2.51,0,0,1-.84-.85,2.33,2.33,0,0,1,.68-3,4.44,4.44,0,0,1,2.63-.68,7.7,7.7,0,0,1,3,.63l-.52,1.19a7,7,0,0,0-2.63-.6,3.08,3.08,0,0,0-1.56.32,1,1,0,0,0-.53.9,1.1,1.1,0,0,0,.2.66,2,2,0,0,0,.64.52,14.6,14.6,0,0,0,1.68.71,6.34,6.34,0,0,1,2.32,1.26A2.21,2.21,0,0,1,36.53,113.1Z" style="fill: #314041"/>
    <path d="M43.39,115.9a4.19,4.19,0,0,1-1.72-.34,3.38,3.38,0,0,1-1.31-1.07h-.1a12.84,12.84,0,0,1,.1,1.6v4H38.9v-14h1.19l.2,1.32h.07a3.42,3.42,0,0,1,1.31-1.14,3.92,3.92,0,0,1,1.72-.35,3.53,3.53,0,0,1,3,1.31,5.71,5.71,0,0,1,1,3.67,5.79,5.79,0,0,1-1.06,3.69A3.59,3.59,0,0,1,43.39,115.9Zm-.21-8.74A2.6,2.6,0,0,0,41,108a4.29,4.29,0,0,0-.68,2.61v.32a4.87,4.87,0,0,0,.68,2.91,2.58,2.58,0,0,0,2.17.87,2.29,2.29,0,0,0,2-1,4.8,4.8,0,0,0,.7-2.79,4.61,4.61,0,0,0-.7-2.76A2.34,2.34,0,0,0,43.18,107.16Z" style="fill: #314041"/>
    <path d="M54,115.9a4.43,4.43,0,0,1-3.37-1.3A5,5,0,0,1,49.4,111a5.55,5.55,0,0,1,1.15-3.7,3.78,3.78,0,0,1,3.08-1.37,3.61,3.61,0,0,1,2.86,1.19,4.57,4.57,0,0,1,1.06,3.14v.92H50.91a3.86,3.86,0,0,0,.86,2.58,3,3,0,0,0,2.29.88,7.8,7.8,0,0,0,3.07-.65v1.3a8,8,0,0,1-1.46.48A8.83,8.83,0,0,1,54,115.9Zm-.39-8.76a2.4,2.4,0,0,0-1.85.75A3.51,3.51,0,0,0,51,110h5a3.23,3.23,0,0,0-.61-2.12A2.17,2.17,0,0,0,53.61,107.14Z" style="fill: #314041"/>
    <path d="M63.88,115.9a4.12,4.12,0,0,1-3.24-1.29A5.29,5.29,0,0,1,59.5,111a5.46,5.46,0,0,1,1.16-3.73A4.19,4.19,0,0,1,64,105.92a6.57,6.57,0,0,1,1.39.15,4.51,4.51,0,0,1,1.09.35L66,107.66a6.16,6.16,0,0,0-1.05-.32,4.51,4.51,0,0,0-1-.13Q61,107.21,61,111a4.44,4.44,0,0,0,.72,2.73,2.48,2.48,0,0,0,2.12.95,6.64,6.64,0,0,0,2.47-.52v1.29A5.35,5.35,0,0,1,63.88,115.9Z" style="fill: #314041"/>
    <path d="M71.71,114.7a4.56,4.56,0,0,0,.75-.06,5.41,5.41,0,0,0,.57-.12v1.12a2.94,2.94,0,0,1-.7.19,5.07,5.07,0,0,1-.83.07q-2.79,0-2.79-2.94v-5.73H67.33v-.71l1.38-.6.61-2.06h.85v2.23H73v1.14H70.17v5.67a2,2,0,0,0,.41,1.33A1.44,1.44,0,0,0,71.71,114.7Z" style="fill: #314041"/>
    <path d="M83.27,110.9a5.32,5.32,0,0,1-1.18,3.68,4.21,4.21,0,0,1-3.28,1.32,4.41,4.41,0,0,1-2.3-.6A4.08,4.08,0,0,1,75,113.56a6,6,0,0,1-.55-2.66,5.29,5.29,0,0,1,1.18-3.67,4.17,4.17,0,0,1,3.27-1.31,4.08,4.08,0,0,1,3.21,1.34A5.32,5.32,0,0,1,83.27,110.9Zm-7.34,0a4.57,4.57,0,0,0,.74,2.81,2.55,2.55,0,0,0,2.17,1,2.59,2.59,0,0,0,2.18-1,4.58,4.58,0,0,0,.74-2.82,4.53,4.53,0,0,0-.74-2.79,2.61,2.61,0,0,0-2.2-1,2.57,2.57,0,0,0-2.16.94A4.55,4.55,0,0,0,75.93,110.9Z" style="fill: #314041"/>
    <path d="M93.62,114.7a4.52,4.52,0,0,0,.74-.06l.58-.12v1.12a3.09,3.09,0,0,1-.7.19,5.25,5.25,0,0,1-.83.07c-1.87,0-2.8-1-2.8-2.94v-5.73H89.23v-.71l1.38-.6.62-2.06h.84v2.23h2.79v1.14H92.07v5.67a2,2,0,0,0,.41,1.33A1.46,1.46,0,0,0,93.62,114.7Z" style="fill: #314041"/>
    <path d="M100.93,115.9a4.41,4.41,0,0,1-3.37-1.3A5,5,0,0,1,96.32,111a5.61,5.61,0,0,1,1.15-3.7,3.78,3.78,0,0,1,3.08-1.37,3.63,3.63,0,0,1,2.87,1.19,4.57,4.57,0,0,1,1,3.14v.92H97.84a3.8,3.8,0,0,0,.85,2.58,3,3,0,0,0,2.29.88,7.85,7.85,0,0,0,3.08-.65v1.3a8.35,8.35,0,0,1-1.47.48A8.72,8.72,0,0,1,100.93,115.9Zm-.4-8.76a2.4,2.4,0,0,0-1.85.75,3.51,3.51,0,0,0-.81,2.1h5a3.23,3.23,0,0,0-.62-2.12A2.15,2.15,0,0,0,100.53,107.14Z" style="fill: #314041"/>
    <path d="M110.81,115.9a4.1,4.1,0,0,1-3.24-1.29,5.25,5.25,0,0,1-1.15-3.64,5.42,5.42,0,0,1,1.17-3.73,4.17,4.17,0,0,1,3.31-1.32,6.5,6.5,0,0,1,1.39.15,4.23,4.23,0,0,1,1.09.35l-.44,1.24a6.57,6.57,0,0,0-1.06-.32,4.43,4.43,0,0,0-1-.13q-2.94,0-2.94,3.74a4.44,4.44,0,0,0,.72,2.73,2.51,2.51,0,0,0,2.12.95,6.56,6.56,0,0,0,2.47-.52v1.29A5.28,5.28,0,0,1,110.81,115.9Z" style="fill: #314041"/>
    <path d="M122.12,115.73v-6.24a2.48,2.48,0,0,0-.54-1.75,2.15,2.15,0,0,0-1.68-.58,2.78,2.78,0,0,0-2.21.81,4.14,4.14,0,0,0-.7,2.7v5.06h-1.46v-9.64h1.18l.24,1.32H117a3,3,0,0,1,1.26-1.1,4.1,4.1,0,0,1,1.8-.39,3.67,3.67,0,0,1,2.62.84,3.54,3.54,0,0,1,.88,2.68v6.29Z" style="fill: #314041"/>
    <path d="M134.89,110.9a5.32,5.32,0,0,1-1.19,3.68,4.17,4.17,0,0,1-3.27,1.32,4.38,4.38,0,0,1-2.3-.6,4.1,4.1,0,0,1-1.55-1.74,6.16,6.16,0,0,1-.54-2.66,5.29,5.29,0,0,1,1.18-3.67,4.17,4.17,0,0,1,3.27-1.31,4.11,4.11,0,0,1,3.21,1.34A5.32,5.32,0,0,1,134.89,110.9Zm-7.34,0a4.57,4.57,0,0,0,.74,2.81,2.55,2.55,0,0,0,2.17,1,2.59,2.59,0,0,0,2.18-1,4.58,4.58,0,0,0,.74-2.82,4.53,4.53,0,0,0-.74-2.79,2.61,2.61,0,0,0-2.2-1,2.57,2.57,0,0,0-2.16.94A4.48,4.48,0,0,0,127.55,110.9Z" style="fill: #314041"/>
    <path d="M138.91,115.73h-1.46V102.05h1.46Z" style="fill: #314041"/>
    <path d="M150.31,110.9a5.32,5.32,0,0,1-1.18,3.68,4.19,4.19,0,0,1-3.28,1.32,4.35,4.35,0,0,1-2.29-.6,4,4,0,0,1-1.55-1.74,6.16,6.16,0,0,1-.55-2.66,5.34,5.34,0,0,1,1.18-3.67,4.2,4.2,0,0,1,3.27-1.31,4.08,4.08,0,0,1,3.21,1.34A5.27,5.27,0,0,1,150.31,110.9Zm-7.33,0a4.57,4.57,0,0,0,.73,2.81,2.93,2.93,0,0,0,4.35,0,4.52,4.52,0,0,0,.74-2.82,4.46,4.46,0,0,0-.74-2.79,2.6,2.6,0,0,0-2.19-1,2.54,2.54,0,0,0-2.16.94A4.48,4.48,0,0,0,143,110.9Zm1.68-6.3a14.74,14.74,0,0,0,.91-1.32,15.3,15.3,0,0,0,.77-1.34h1.78v.18a13.61,13.61,0,0,1-1.15,1.41,15.13,15.13,0,0,1-1.33,1.29h-1Z" style="fill: #314041"/>
    <path d="M160.76,106.09V107l-1.79.21a2.85,2.85,0,0,1,.44.8,3.06,3.06,0,0,1,.2,1.12,2.85,2.85,0,0,1-1,2.26,3.93,3.93,0,0,1-2.66.84,4.11,4.11,0,0,1-.8-.07,1.44,1.44,0,0,0-.94,1.24.63.63,0,0,0,.33.59,2.47,2.47,0,0,0,1.12.19h1.7a3.81,3.81,0,0,1,2.4.66,2.28,2.28,0,0,1,.84,1.91,2.72,2.72,0,0,1-1.28,2.44,6.86,6.86,0,0,1-3.74.84,5.12,5.12,0,0,1-2.92-.7,2.28,2.28,0,0,1-1-2,2.25,2.25,0,0,1,.56-1.52,2.85,2.85,0,0,1,1.58-.87,1.54,1.54,0,0,1-.62-.52,1.42,1.42,0,0,1-.25-.82,1.59,1.59,0,0,1,.28-.92,3,3,0,0,1,.89-.76,2.68,2.68,0,0,1-1.22-1,3.09,3.09,0,0,1-.47-1.69,3.15,3.15,0,0,1,1-2.44,3.89,3.89,0,0,1,2.69-.85,5.24,5.24,0,0,1,1.37.17Zm-7.69,11.25a1.31,1.31,0,0,0,.66,1.19,3.64,3.64,0,0,0,1.89.4,5.34,5.34,0,0,0,2.72-.54,1.7,1.7,0,0,0,.89-1.5,1.16,1.16,0,0,0-.49-1.08,3.79,3.79,0,0,0-1.82-.3h-1.74a2.28,2.28,0,0,0-1.55.47A1.7,1.7,0,0,0,153.07,117.34Zm.8-8.16a2,2,0,0,0,.57,1.53,2.3,2.3,0,0,0,1.59.52,1.86,1.86,0,0,0,2.13-2.08A1.91,1.91,0,0,0,156,107a2.18,2.18,0,0,0-1.58.55A2.24,2.24,0,0,0,153.87,109.18Z" style="fill: #314041"/>
    <path d="M162.61,103.48a.94.94,0,0,1,.25-.73.83.83,0,0,1,.61-.23.89.89,0,0,1,.61.23,1,1,0,0,1,.25.73,1,1,0,0,1-.25.74.85.85,0,0,1-.61.24.84.84,0,0,1-.61-.24A1,1,0,0,1,162.61,103.48Zm1.58,12.25h-1.46v-9.64h1.46Z" style="fill: #314041"/>
    <path d="M171.14,115.9a4.1,4.1,0,0,1-3.24-1.29,5.25,5.25,0,0,1-1.15-3.64,5.46,5.46,0,0,1,1.16-3.73,4.21,4.21,0,0,1,3.32-1.32,6.5,6.5,0,0,1,1.39.15,4.36,4.36,0,0,1,1.09.35l-.45,1.24a6.16,6.16,0,0,0-1-.32,4.43,4.43,0,0,0-1-.13q-2.94,0-2.94,3.74a4.44,4.44,0,0,0,.72,2.73,2.5,2.5,0,0,0,2.12.95,6.6,6.6,0,0,0,2.47-.52v1.29A5.31,5.31,0,0,1,171.14,115.9Z" style="fill: #314041"/>
    <path d="M184.17,110.9a5.32,5.32,0,0,1-1.19,3.68,4.17,4.17,0,0,1-3.27,1.32,4.38,4.38,0,0,1-2.3-.6,4.1,4.1,0,0,1-1.55-1.74,6.16,6.16,0,0,1-.54-2.66,5.29,5.29,0,0,1,1.18-3.67,4.17,4.17,0,0,1,3.27-1.31,4.09,4.09,0,0,1,3.21,1.34A5.32,5.32,0,0,1,184.17,110.9Zm-7.34,0a4.57,4.57,0,0,0,.74,2.81,2.55,2.55,0,0,0,2.17,1,2.59,2.59,0,0,0,2.18-1,4.58,4.58,0,0,0,.74-2.82,4.53,4.53,0,0,0-.74-2.79,2.61,2.61,0,0,0-2.2-1,2.57,2.57,0,0,0-2.16.94A4.48,4.48,0,0,0,176.83,110.9Z" style="fill: #314041"/>
    <path d="M35.49,137.33v-6.27a2.61,2.61,0,0,0-.49-1.73,1.92,1.92,0,0,0-1.53-.57,2.46,2.46,0,0,0-2,.78,3.73,3.73,0,0,0-.65,2.41v5.38H29.35v-6.27a2.61,2.61,0,0,0-.49-1.73,1.93,1.93,0,0,0-1.54-.57,2.39,2.39,0,0,0-2,.82,4.47,4.47,0,0,0-.63,2.69v5.06H23.22v-9.64H24.4l.24,1.32h.07a2.93,2.93,0,0,1,1.16-1.1,3.66,3.66,0,0,1,1.69-.39,2.86,2.86,0,0,1,3,1.63h.07A3.06,3.06,0,0,1,31.83,128a3.79,3.79,0,0,1,1.86-.44,3.26,3.26,0,0,1,2.45.84A3.75,3.75,0,0,1,37,131v6.29Z" style="fill: #314041"/>
    <path d="M45.88,137.33,45.59,136h-.07a4.07,4.07,0,0,1-1.43,1.22,4.48,4.48,0,0,1-1.79.32,3.18,3.18,0,0,1-2.25-.74,2.69,2.69,0,0,1-.81-2.1c0-1.94,1.55-3,4.67-3.06l1.63,0V131a2.42,2.42,0,0,0-.49-1.67,2,2,0,0,0-1.56-.54,6.37,6.37,0,0,0-2.72.74l-.45-1.12a6.32,6.32,0,0,1,1.56-.6,6.56,6.56,0,0,1,1.7-.22,3.65,3.65,0,0,1,2.55.76,3.17,3.17,0,0,1,.83,2.45v6.58Zm-3.29-1a3,3,0,0,0,2.14-.75,2.75,2.75,0,0,0,.78-2.09v-.87l-1.46.06a5.28,5.28,0,0,0-2.51.54,1.62,1.62,0,0,0-.77,1.49,1.52,1.52,0,0,0,.48,1.21A2,2,0,0,0,42.59,136.3Zm-.35-10.1a12.91,12.91,0,0,0,.91-1.32,12.11,12.11,0,0,0,.77-1.34H45.7v.18a13.61,13.61,0,0,1-1.15,1.41,13.86,13.86,0,0,1-1.33,1.29h-1Z" style="fill: #314041"/>
    <path d="M56.18,134.7a2.39,2.39,0,0,1-1,2.07,4.67,4.67,0,0,1-2.81.73,6.19,6.19,0,0,1-3-.6v-1.36a7.16,7.16,0,0,0,1.49.56,6.43,6.43,0,0,0,1.53.2,3.39,3.39,0,0,0,1.76-.37,1.2,1.2,0,0,0,.62-1.11,1.23,1.23,0,0,0-.49-1,7.88,7.88,0,0,0-1.9-1,9.69,9.69,0,0,1-1.91-.87,2.65,2.65,0,0,1-.85-.85,2.22,2.22,0,0,1-.27-1.13,2.14,2.14,0,0,1,1-1.86,4.51,4.51,0,0,1,2.63-.68,7.7,7.7,0,0,1,3,.63l-.52,1.19a6.91,6.91,0,0,0-2.62-.6,3.1,3.1,0,0,0-1.57.32,1,1,0,0,0-.53.9,1.1,1.1,0,0,0,.2.66,2.08,2.08,0,0,0,.64.52,14.2,14.2,0,0,0,1.69.71,6.36,6.36,0,0,1,2.31,1.26A2.21,2.21,0,0,1,56.18,134.7Z" style="fill: #314041"/>
    <path d="M69.16,137.33,68.87,136H68.8a4,4,0,0,1-1.44,1.22,4.44,4.44,0,0,1-1.79.32,3.21,3.21,0,0,1-2.25-.74,2.69,2.69,0,0,1-.81-2.1q0-2.91,4.67-3.06l1.63,0V131a2.47,2.47,0,0,0-.48-1.67,2,2,0,0,0-1.56-.54,6.41,6.41,0,0,0-2.73.74l-.45-1.12a7.12,7.12,0,0,1,3.26-.82,3.7,3.7,0,0,1,2.56.76,3.21,3.21,0,0,1,.83,2.45v6.58Zm-3.3-1a3,3,0,0,0,2.14-.75,2.75,2.75,0,0,0,.78-2.09v-.87l-1.46.06a5.28,5.28,0,0,0-2.51.54,1.64,1.64,0,0,0-.77,1.49,1.52,1.52,0,0,0,.48,1.21A2,2,0,0,0,65.86,136.3Z" style="fill: #314041"/>
    <path d="M75.35,137.33l-3.65-9.64h1.56l2.08,5.72c.46,1.33.74,2.2.82,2.6h.07c.07-.31.27-.95.61-1.93S78,131,79.15,127.69h1.56l-3.65,9.64Z" style="fill: #314041"/>
    <path d="M88.19,137.33,87.9,136h-.08a4.07,4.07,0,0,1-1.43,1.22,4.48,4.48,0,0,1-1.79.32,3.2,3.2,0,0,1-2.25-.74,2.69,2.69,0,0,1-.81-2.1q0-2.91,4.67-3.06l1.63,0V131a2.42,2.42,0,0,0-.49-1.67,2,2,0,0,0-1.56-.54,6.37,6.37,0,0,0-2.72.74l-.45-1.12a7.12,7.12,0,0,1,3.26-.82,3.7,3.7,0,0,1,2.56.76,3.21,3.21,0,0,1,.83,2.45v6.58Zm-3.3-1a3,3,0,0,0,2.14-.75,2.75,2.75,0,0,0,.78-2.09v-.87l-1.46.06a5.28,5.28,0,0,0-2.51.54,1.64,1.64,0,0,0-.77,1.49,1.52,1.52,0,0,0,.48,1.21A2,2,0,0,0,84.89,136.3Z" style="fill: #314041"/>
    <path d="M98.86,137.33V131.1a2.49,2.49,0,0,0-.53-1.76,2.18,2.18,0,0,0-1.68-.58,2.79,2.79,0,0,0-2.22.81,4.2,4.2,0,0,0-.7,2.7v5.06H92.27v-9.64h1.19L93.7,129h.07a2.92,2.92,0,0,1,1.25-1.1,4.1,4.1,0,0,1,1.8-.39,3.65,3.65,0,0,1,2.62.84,3.54,3.54,0,0,1,.88,2.68v6.29Z" style="fill: #314041"/>
    <path d="M109.48,137.33h-7v-1l5.26-7.5h-4.93v-1.14h6.53v1.14l-5.19,7.36h5.32Z" style="fill: #314041"/>
    <path d="M117.66,137.33l-.29-1.37h-.07a4.07,4.07,0,0,1-1.43,1.22,4.48,4.48,0,0,1-1.79.32,3.18,3.18,0,0,1-2.25-.74,2.69,2.69,0,0,1-.81-2.1c0-1.94,1.55-3,4.67-3.06l1.63,0V131a2.42,2.42,0,0,0-.49-1.67,2,2,0,0,0-1.56-.54,6.37,6.37,0,0,0-2.72.74l-.45-1.12a6.32,6.32,0,0,1,1.56-.6,6.61,6.61,0,0,1,1.7-.22,3.65,3.65,0,0,1,2.55.76,3.17,3.17,0,0,1,.83,2.45v6.58Zm-3.29-1a3,3,0,0,0,2.14-.75,2.75,2.75,0,0,0,.78-2.09v-.87l-1.46.06a5.28,5.28,0,0,0-2.51.54,1.62,1.62,0,0,0-.77,1.49,1.52,1.52,0,0,0,.48,1.21A2,2,0,0,0,114.37,136.3Z" style="fill: #314041"/>
    <path d="M128.31,136h-.08a3.44,3.44,0,0,1-3,1.47,3.58,3.58,0,0,1-2.94-1.29,5.69,5.69,0,0,1-1.05-3.67,5.8,5.8,0,0,1,1.06-3.7,3.91,3.91,0,0,1,5.94.1h.11l-.06-.69,0-.68v-3.92h1.46v13.68H128.5Zm-2.92.25a2.67,2.67,0,0,0,2.17-.81,4.17,4.17,0,0,0,.67-2.63v-.3a4.9,4.9,0,0,0-.68-2.93,2.61,2.61,0,0,0-2.18-.87,2.22,2.22,0,0,0-2,1,4.88,4.88,0,0,0-.68,2.81,4.79,4.79,0,0,0,.67,2.79A2.29,2.29,0,0,0,125.39,136.28Z" style="fill: #314041"/>
    <path d="M141.1,132.5a5.32,5.32,0,0,1-1.19,3.68,4.19,4.19,0,0,1-3.28,1.32,4.35,4.35,0,0,1-2.29-.6,4,4,0,0,1-1.55-1.74,6.16,6.16,0,0,1-.55-2.66,5.34,5.34,0,0,1,1.18-3.67,4.2,4.2,0,0,1,3.27-1.31,4.08,4.08,0,0,1,3.21,1.34A5.27,5.27,0,0,1,141.1,132.5Zm-7.34,0a4.57,4.57,0,0,0,.73,2.81,2.93,2.93,0,0,0,4.35,0,4.52,4.52,0,0,0,.74-2.82,4.46,4.46,0,0,0-.74-2.79,2.62,2.62,0,0,0-2.19-1,2.54,2.54,0,0,0-2.16.94A4.48,4.48,0,0,0,133.76,132.5Z" style="fill: #314041"/>
    <path d="M152.81,137.5a4,4,0,0,1-1.72-.35,3.17,3.17,0,0,1-1.3-1.06h-.11a12.92,12.92,0,0,1,.11,1.6v4h-1.46v-14h1.19l.2,1.32h.07a3.28,3.28,0,0,1,1.31-1.14,4,4,0,0,1,1.71-.35,3.55,3.55,0,0,1,3,1.31,7,7,0,0,1,0,7.36A3.59,3.59,0,0,1,152.81,137.5Zm-.21-8.74a2.61,2.61,0,0,0-2.14.81,4.23,4.23,0,0,0-.67,2.61v.32a4.87,4.87,0,0,0,.67,2.91,2.61,2.61,0,0,0,2.18.87,2.26,2.26,0,0,0,2-1,4.8,4.8,0,0,0,.71-2.79,4.61,4.61,0,0,0-.71-2.76A2.32,2.32,0,0,0,152.6,128.76Z" style="fill: #314041"/>
    <path d="M165.28,137.33,165,136h-.07a4,4,0,0,1-1.44,1.22,4.39,4.39,0,0,1-1.78.32,3.18,3.18,0,0,1-2.25-.74,2.69,2.69,0,0,1-.81-2.1c0-1.94,1.55-3,4.67-3.06l1.63,0V131a2.42,2.42,0,0,0-.49-1.67,2,2,0,0,0-1.56-.54,6.37,6.37,0,0,0-2.72.74l-.45-1.12a6.32,6.32,0,0,1,1.56-.6,6.56,6.56,0,0,1,1.7-.22,3.65,3.65,0,0,1,2.55.76,3.17,3.17,0,0,1,.83,2.45v6.58Zm-3.29-1a3,3,0,0,0,2.14-.75,2.75,2.75,0,0,0,.77-2.09v-.87l-1.45.06a5.28,5.28,0,0,0-2.51.54,1.62,1.62,0,0,0-.77,1.49,1.52,1.52,0,0,0,.48,1.21A2,2,0,0,0,162,136.3Z" style="fill: #314041"/>
    <path d="M173.76,127.52a5.83,5.83,0,0,1,1.16.1l-.21,1.36a4.83,4.83,0,0,0-1.05-.13,2.56,2.56,0,0,0-2,.94,3.51,3.51,0,0,0-.83,2.37v5.17h-1.46v-9.64h1.2l.17,1.79h.07A4.27,4.27,0,0,1,172.1,128,2.93,2.93,0,0,1,173.76,127.52Z" style="fill: #314041"/>
    <path d="M182.64,137.33l-.29-1.37h-.07a4,4,0,0,1-1.44,1.22,4.39,4.39,0,0,1-1.78.32,3.18,3.18,0,0,1-2.25-.74,2.69,2.69,0,0,1-.81-2.1q0-2.91,4.66-3.06l1.64,0V131a2.42,2.42,0,0,0-.49-1.67,2,2,0,0,0-1.56-.54,6.37,6.37,0,0,0-2.72.74l-.45-1.12a6.32,6.32,0,0,1,1.56-.6,6.56,6.56,0,0,1,1.7-.22,3.65,3.65,0,0,1,2.55.76,3.21,3.21,0,0,1,.83,2.45v6.58Zm-3.29-1a2.93,2.93,0,0,0,2.13-.75,2.75,2.75,0,0,0,.78-2.09v-.87l-1.46.06a5.31,5.31,0,0,0-2.51.54,1.63,1.63,0,0,0-.76,1.49,1.54,1.54,0,0,0,.47,1.21A2,2,0,0,0,179.35,136.3Z" style="fill: #314041"/>
    <path d="M42.52,158.93v-6.27a2.61,2.61,0,0,0-.5-1.73,1.88,1.88,0,0,0-1.52-.57,2.49,2.49,0,0,0-2,.78,3.73,3.73,0,0,0-.65,2.41v5.38H36.37v-6.27a2.61,2.61,0,0,0-.49-1.73,1.93,1.93,0,0,0-1.54-.57,2.39,2.39,0,0,0-2,.82,4.47,4.47,0,0,0-.63,2.69v5.06H30.24v-9.64h1.19l.23,1.32h.07a3,3,0,0,1,1.17-1.1,3.59,3.59,0,0,1,1.68-.39,2.85,2.85,0,0,1,3,1.63h.07a3.12,3.12,0,0,1,1.25-1.19,3.83,3.83,0,0,1,1.87-.44,3.24,3.24,0,0,1,2.44.84,3.75,3.75,0,0,1,.82,2.68v6.29Z" style="fill: #314041"/>
    <path d="M51.05,159.1a4.41,4.41,0,0,1-3.37-1.3,5,5,0,0,1-1.23-3.61,5.6,5.6,0,0,1,1.14-3.7,3.8,3.8,0,0,1,3.08-1.37,3.61,3.61,0,0,1,2.87,1.19,4.57,4.57,0,0,1,1.05,3.14v.92H48a3.85,3.85,0,0,0,.85,2.58,3,3,0,0,0,2.29.88,7.82,7.82,0,0,0,3.08-.65v1.3a8.27,8.27,0,0,1-1.46.48A8.83,8.83,0,0,1,51.05,159.1Zm-.39-8.76a2.36,2.36,0,0,0-1.85.76,3.46,3.46,0,0,0-.82,2.09h5a3.23,3.23,0,0,0-.62-2.12A2.15,2.15,0,0,0,50.66,150.34Z" style="fill: #314041"/>
    <path d="M55.91,163.25a3.43,3.43,0,0,1-1.35-.22v-1.19a4.14,4.14,0,0,0,1.19.18,1.28,1.28,0,0,0,1-.37,1.74,1.74,0,0,0,.32-1.14V149.29h1.46V160.4C58.54,162.3,57.66,163.25,55.91,163.25ZM57,146.68a1,1,0,0,1,.24-.73.85.85,0,0,1,.62-.23.91.91,0,0,1,.61.23,1,1,0,0,1,.25.73,1,1,0,0,1-.25.74.87.87,0,0,1-.61.24.86.86,0,0,1-.62-.24A1,1,0,0,1,57,146.68Z" style="fill: #314041"/>
    <path d="M70,154.1a5.32,5.32,0,0,1-1.19,3.68,4.18,4.18,0,0,1-3.28,1.32,4.37,4.37,0,0,1-2.29-.6,4.1,4.1,0,0,1-1.55-1.74,6.16,6.16,0,0,1-.54-2.66,5.34,5.34,0,0,1,1.17-3.67,4.2,4.2,0,0,1,3.27-1.31,4.11,4.11,0,0,1,3.22,1.34A5.32,5.32,0,0,1,70,154.1Zm-7.34,0a4.57,4.57,0,0,0,.74,2.81,2.54,2.54,0,0,0,2.17,1,2.57,2.57,0,0,0,2.17-1,4.52,4.52,0,0,0,.75-2.82,4.46,4.46,0,0,0-.75-2.79,2.61,2.61,0,0,0-2.19-.95,2.55,2.55,0,0,0-2.16.94A4.48,4.48,0,0,0,62.61,154.1Z" style="fill: #314041"/>
    <path d="M76.9,149.12a5.73,5.73,0,0,1,1.15.1l-.2,1.36a4.91,4.91,0,0,0-1.06-.14,2.6,2.6,0,0,0-2,.95,3.49,3.49,0,0,0-.83,2.37v5.17H72.51v-9.64h1.2l.17,1.79H74a4.07,4.07,0,0,1,1.29-1.45A2.9,2.9,0,0,1,76.9,149.12Z" style="fill: #314041"/>
    <path d="M85.78,158.93l-.29-1.37h-.07A4,4,0,0,1,84,158.78a4.44,4.44,0,0,1-1.79.32,3.21,3.21,0,0,1-2.25-.74,2.69,2.69,0,0,1-.81-2.1q0-2.91,4.67-3.06l1.63,0v-.6a2.47,2.47,0,0,0-.48-1.67,2,2,0,0,0-1.56-.54,6.41,6.41,0,0,0-2.73.74L80.21,150a6.8,6.8,0,0,1,3.26-.82,3.7,3.7,0,0,1,2.56.76,3.21,3.21,0,0,1,.83,2.45v6.58Zm-3.3-1a3,3,0,0,0,2.14-.75,2.75,2.75,0,0,0,.78-2.09v-.87l-1.46.06a5.28,5.28,0,0,0-2.51.54,1.64,1.64,0,0,0-.77,1.49,1.48,1.48,0,0,0,.48,1.2A2,2,0,0,0,82.48,157.9Z" style="fill: #314041"/>
    <path d="M94.26,149.12a5.73,5.73,0,0,1,1.15.1l-.2,1.36a4.91,4.91,0,0,0-1.06-.14,2.59,2.59,0,0,0-2,.95,3.49,3.49,0,0,0-.83,2.37v5.17H89.86v-9.64h1.21l.16,1.79h.08a4.07,4.07,0,0,1,1.29-1.45A2.88,2.88,0,0,1,94.26,149.12Z" style="fill: #314041"/>
    <path d="M103.35,158.93h-1.46V145.25h1.46Z" style="fill: #314041"/>
    <path d="M112.36,158.93l-.29-1.37H112a4.07,4.07,0,0,1-1.43,1.22,4.48,4.48,0,0,1-1.79.32,3.18,3.18,0,0,1-2.25-.74,2.69,2.69,0,0,1-.81-2.1c0-1.94,1.55-3,4.67-3.06l1.63,0v-.6a2.42,2.42,0,0,0-.49-1.67,2,2,0,0,0-1.56-.54,6.37,6.37,0,0,0-2.72.74L106.8,150a6.76,6.76,0,0,1,1.56-.61,7.06,7.06,0,0,1,1.7-.21,3.65,3.65,0,0,1,2.55.76,3.17,3.17,0,0,1,.83,2.45v6.58Zm-3.29-1a3,3,0,0,0,2.14-.75,2.75,2.75,0,0,0,.78-2.09v-.87l-1.46.06a5.28,5.28,0,0,0-2.51.54,1.62,1.62,0,0,0-.77,1.49,1.48,1.48,0,0,0,.48,1.2A2,2,0,0,0,109.07,157.9Z" style="fill: #314041"/>
    <path d="M127.05,158.93l-.29-1.37h-.07a4,4,0,0,1-1.44,1.22,4.44,4.44,0,0,1-1.79.32,3.17,3.17,0,0,1-2.24-.74,2.69,2.69,0,0,1-.81-2.1q0-2.91,4.66-3.06l1.64,0v-.6a2.47,2.47,0,0,0-.49-1.67,2,2,0,0,0-1.56-.54,6.37,6.37,0,0,0-2.72.74l-.45-1.12a6.76,6.76,0,0,1,1.56-.61,7,7,0,0,1,1.7-.21,3.65,3.65,0,0,1,2.55.76,3.21,3.21,0,0,1,.83,2.45v6.58Zm-3.3-1a2.94,2.94,0,0,0,2.14-.75,2.75,2.75,0,0,0,.78-2.09v-.87l-1.46.06a5.31,5.31,0,0,0-2.51.54,1.63,1.63,0,0,0-.76,1.49,1.48,1.48,0,0,0,.47,1.2A2,2,0,0,0,123.75,157.9Z" style="fill: #314041"/>
    <path d="M139,149.29v.93l-1.78.21a3.12,3.12,0,0,1,.44.8,3.06,3.06,0,0,1,.19,1.12,2.82,2.82,0,0,1-1,2.26,3.9,3.9,0,0,1-2.65.84,4.14,4.14,0,0,1-.81-.07,1.45,1.45,0,0,0-.93,1.24.64.64,0,0,0,.32.59,2.47,2.47,0,0,0,1.12.19h1.7a3.82,3.82,0,0,1,2.41.66,2.28,2.28,0,0,1,.84,1.91,2.73,2.73,0,0,1-1.29,2.44,6.84,6.84,0,0,1-3.74.84,5.09,5.09,0,0,1-2.91-.7,2.26,2.26,0,0,1-1-2,2.21,2.21,0,0,1,.57-1.52,2.81,2.81,0,0,1,1.58-.87,1.42,1.42,0,0,1-.62-.52,1.35,1.35,0,0,1-.25-.82,1.54,1.54,0,0,1,.28-.92,2.89,2.89,0,0,1,.89-.76,2.63,2.63,0,0,1-1.22-1.05,3.09,3.09,0,0,1-.47-1.69,3.15,3.15,0,0,1,.95-2.44,3.88,3.88,0,0,1,2.69-.85,5.16,5.16,0,0,1,1.36.17Zm-7.68,11.25a1.31,1.31,0,0,0,.66,1.19,3.64,3.64,0,0,0,1.89.4,5.25,5.25,0,0,0,2.72-.55,1.66,1.66,0,0,0,.88-1.48A1.18,1.18,0,0,0,137,159a3.79,3.79,0,0,0-1.82-.3h-1.75a2.3,2.3,0,0,0-1.55.47A1.69,1.69,0,0,0,131.34,160.54Zm.79-8.16a2,2,0,0,0,.57,1.53,2.3,2.3,0,0,0,1.59.52,1.87,1.87,0,0,0,2.14-2.08,1.91,1.91,0,0,0-2.16-2.17,2.19,2.19,0,0,0-1.59.55A2.24,2.24,0,0,0,132.13,152.38Z" style="fill: #314041"/>
    <path d="M140.88,146.68a1,1,0,0,1,.24-.73.85.85,0,0,1,.62-.23.88.88,0,0,1,.6.23,1,1,0,0,1,.26.73,1,1,0,0,1-.26.74.85.85,0,0,1-.6.24.86.86,0,0,1-.62-.24A1,1,0,0,1,140.88,146.68Zm1.58,12.25H141v-9.64h1.46Z" style="fill: #314041"/>
    <path d="M147,158.93h-1.46V145.25H147Z" style="fill: #314041"/>
    <path d="M150,146.68a.94.94,0,0,1,.25-.73.83.83,0,0,1,.61-.23.89.89,0,0,1,.61.23,1,1,0,0,1,.25.73,1,1,0,0,1-.25.74.85.85,0,0,1-.61.24.84.84,0,0,1-.61-.24A1,1,0,0,1,150,146.68Zm1.58,12.25H150.1v-9.64h1.46Z" style="fill: #314041"/>
    <path d="M161.21,157.63h-.08a3.42,3.42,0,0,1-3,1.47,3.58,3.58,0,0,1-2.94-1.29,7,7,0,0,1,0-7.37,3.91,3.91,0,0,1,5.94.1h.11l-.06-.69,0-.68v-3.92h1.46v13.68h-1.18Zm-2.91.25a2.66,2.66,0,0,0,2.16-.81,4.11,4.11,0,0,0,.67-2.63v-.3a4.82,4.82,0,0,0-.68-2.93,2.58,2.58,0,0,0-2.17-.87,2.24,2.24,0,0,0-2,1,5,5,0,0,0-.68,2.81,4.78,4.78,0,0,0,.68,2.79A2.28,2.28,0,0,0,158.3,157.88Z" style="fill: #314041"/>
    <path d="M171.61,158.93l-.29-1.37h-.07a4,4,0,0,1-1.44,1.22,4.41,4.41,0,0,1-1.79.32,3.17,3.17,0,0,1-2.24-.74,2.69,2.69,0,0,1-.81-2.1q0-2.91,4.66-3.06l1.64,0v-.6a2.42,2.42,0,0,0-.49-1.67,2,2,0,0,0-1.56-.54,6.37,6.37,0,0,0-2.72.74l-.45-1.12a6.76,6.76,0,0,1,1.56-.61,7,7,0,0,1,1.7-.21,3.65,3.65,0,0,1,2.55.76,3.21,3.21,0,0,1,.83,2.45v6.58Zm-3.3-1a2.94,2.94,0,0,0,2.14-.75,2.75,2.75,0,0,0,.78-2.09v-.87l-1.46.06a5.31,5.31,0,0,0-2.51.54,1.63,1.63,0,0,0-.76,1.49,1.48,1.48,0,0,0,.47,1.2A2,2,0,0,0,168.31,157.9Z" style="fill: #314041"/>
    <path d="M182.25,157.63h-.07a3.45,3.45,0,0,1-3,1.47,3.58,3.58,0,0,1-2.94-1.29,7,7,0,0,1,0-7.37,3.91,3.91,0,0,1,5.94.1h.11l-.06-.69,0-.68v-3.92h1.45v13.68h-1.18Zm-2.91.25a2.66,2.66,0,0,0,2.16-.81,4.11,4.11,0,0,0,.68-2.63v-.3a4.82,4.82,0,0,0-.69-2.93,2.58,2.58,0,0,0-2.17-.87,2.24,2.24,0,0,0-2,1,5,5,0,0,0-.68,2.81,4.78,4.78,0,0,0,.68,2.79A2.28,2.28,0,0,0,179.34,157.88Z" style="fill: #314041"/>
  </g>
  <g>
    <path d="M211.62,227.8a1.74,1.74,0,0,1-.69,1.46,2.89,2.89,0,0,1-1.85.53,4.75,4.75,0,0,1-2-.32v-.81a4.59,4.59,0,0,0,1,.3,5.21,5.21,0,0,0,1,.1,2.08,2.08,0,0,0,1.25-.31,1,1,0,0,0,.42-.88,1.09,1.09,0,0,0-.15-.6,1.37,1.37,0,0,0-.5-.44,7.4,7.4,0,0,0-1.06-.46,3.19,3.19,0,0,1-1.42-.84,1.84,1.84,0,0,1-.43-1.27,1.61,1.61,0,0,1,.62-1.32,2.6,2.6,0,0,1,1.64-.49,4.86,4.86,0,0,1,2,.39l-.26.73a4.37,4.37,0,0,0-1.72-.37,1.66,1.66,0,0,0-1,.28.92.92,0,0,0-.37.78,1.2,1.2,0,0,0,.13.61,1.34,1.34,0,0,0,.47.44,4.91,4.91,0,0,0,1,.43,4.14,4.14,0,0,1,1.55.86A1.72,1.72,0,0,1,211.62,227.8Z" style="fill: #304041"/>
    <path d="M217.57,227a3,3,0,0,1-.65,2.05,2.33,2.33,0,0,1-1.83.73,2.45,2.45,0,0,1-1.27-.33,2.26,2.26,0,0,1-.86-1,3.4,3.4,0,0,1-.3-1.48,3,3,0,0,1,.65-2,2.31,2.31,0,0,1,1.82-.73,2.24,2.24,0,0,1,1.78.74A2.94,2.94,0,0,1,217.57,227Zm-4.07,0a2.51,2.51,0,0,0,.41,1.57,1.63,1.63,0,0,0,2.41,0,2.51,2.51,0,0,0,.41-1.57,2.47,2.47,0,0,0-.41-1.55,1.45,1.45,0,0,0-1.22-.53,1.43,1.43,0,0,0-1.2.53A2.5,2.5,0,0,0,213.5,227Z" style="fill: #304041"/>
    <path d="M221.41,225h-1.36v4.72h-.82V225h-.95v-.36l.95-.3V224c0-1.32.58-2,1.73-2a3.67,3.67,0,0,1,1,.17l-.21.65a2.64,2.64,0,0,0-.8-.15.75.75,0,0,0-.67.31,1.67,1.67,0,0,0-.22,1v.34h1.36Z" style="fill: #304041"/>
    <path d="M224.11,229.12a2.86,2.86,0,0,0,.42,0l.32-.06v.62a1.8,1.8,0,0,1-.39.1,2.68,2.68,0,0,1-.46,0c-1,0-1.56-.54-1.56-1.63V225h-.76v-.39l.76-.33.34-1.15h.47v1.24h1.56V225h-1.56v3.15a1.09,1.09,0,0,0,.23.74A.79.79,0,0,0,224.11,229.12Z" style="fill: #304041"/>
    <path d="M230.28,229.69l-1-3.13c-.06-.2-.17-.63-.34-1.31h0c-.13.57-.25,1-.34,1.31l-1,3.13h-.93l-1.46-5.35H226c.34,1.35.61,2.37.79,3.07a13.65,13.65,0,0,1,.31,1.43h0q.06-.28.18-.72c.08-.3.15-.53.21-.71l1-3.07h.88l.95,3.07a8.58,8.58,0,0,1,.37,1.42h0c0-.12.05-.3.11-.55s.39-1.55,1-3.94h.84l-1.48,5.35Z" style="fill: #304041"/>
    <path d="M237,229.69l-.16-.76h0a2.09,2.09,0,0,1-.79.68,2.45,2.45,0,0,1-1,.18,1.78,1.78,0,0,1-1.25-.41,1.48,1.48,0,0,1-.45-1.16c0-1.08.87-1.65,2.6-1.7l.9,0v-.34a1.38,1.38,0,0,0-.27-.93,1.11,1.11,0,0,0-.86-.3,3.62,3.62,0,0,0-1.52.41l-.25-.62a4.12,4.12,0,0,1,.87-.33,3.79,3.79,0,0,1,.94-.12,2,2,0,0,1,1.42.42,1.76,1.76,0,0,1,.46,1.36v3.65Zm-1.83-.57a1.63,1.63,0,0,0,1.19-.41,1.54,1.54,0,0,0,.43-1.16v-.49l-.81,0a2.87,2.87,0,0,0-1.39.3.88.88,0,0,0-.43.82.82.82,0,0,0,.27.67A1.06,1.06,0,0,0,235.15,229.12Z" style="fill: #304041"/>
    <path d="M241.7,224.25a3.2,3.2,0,0,1,.64.05l-.12.76a2.67,2.67,0,0,0-.58-.08,1.41,1.41,0,0,0-1.11.53,1.91,1.91,0,0,0-.47,1.31v2.87h-.81v-5.35h.67l.1,1h0a2.31,2.31,0,0,1,.71-.8A1.62,1.62,0,0,1,241.7,224.25Z" style="fill: #304041"/>
    <path d="M245.6,229.79a2.45,2.45,0,0,1-1.87-.72,2.79,2.79,0,0,1-.69-2,3.05,3.05,0,0,1,.64-2.05,2.09,2.09,0,0,1,1.71-.76,2,2,0,0,1,1.59.66,2.52,2.52,0,0,1,.58,1.74v.52h-3.68a2.17,2.17,0,0,0,.47,1.43,1.69,1.69,0,0,0,1.28.48,4.38,4.38,0,0,0,1.71-.36v.73a4.28,4.28,0,0,1-.82.26A4.09,4.09,0,0,1,245.6,229.79Zm-.22-4.87a1.33,1.33,0,0,0-1,.42,1.89,1.89,0,0,0-.45,1.17h2.8a1.79,1.79,0,0,0-.35-1.18A1.19,1.19,0,0,0,245.38,224.92Z" style="fill: #304041"/>
  </g>
  <g>
    <path d="M276.71,226.12a3.9,3.9,0,0,1-.87,2.69,3,3,0,0,1-2.41,1,3.08,3.08,0,0,1-2.43-1,4,4,0,0,1-.86-2.72,3.93,3.93,0,0,1,.86-2.71,3.11,3.11,0,0,1,2.44-1,3,3,0,0,1,2.4,1A3.91,3.91,0,0,1,276.71,226.12Zm-5.69,0a3.41,3.41,0,0,0,.62,2.2,2.21,2.21,0,0,0,1.79.74,2.15,2.15,0,0,0,1.79-.74,3.39,3.39,0,0,0,.61-2.2,3.44,3.44,0,0,0-.6-2.19,2.17,2.17,0,0,0-1.79-.74,2.19,2.19,0,0,0-1.8.75A3.33,3.33,0,0,0,271,226.12Z" style="fill: #304041"/>
    <path d="M279.91,229.12a2.73,2.73,0,0,0,.41,0l.32-.06v.62a1.8,1.8,0,0,1-.39.1,2.6,2.6,0,0,1-.46,0c-1,0-1.55-.54-1.55-1.63V225h-.77v-.39l.77-.33.34-1.15h.47v1.24h1.55V225h-1.55v3.15a1,1,0,0,0,.23.74A.77.77,0,0,0,279.91,229.12Z" style="fill: #304041"/>
    <path d="M284.15,224.25a3.14,3.14,0,0,1,.64.05l-.11.76a2.75,2.75,0,0,0-.59-.08,1.44,1.44,0,0,0-1.11.53,1.91,1.91,0,0,0-.46,1.31v2.87h-.81v-5.35h.67l.09,1h0a2.44,2.44,0,0,1,.72-.8A1.58,1.58,0,0,1,284.15,224.25Z" style="fill: #304041"/>
    <path d="M290.41,227a3,3,0,0,1-.66,2.05,2.32,2.32,0,0,1-1.82.73,2.49,2.49,0,0,1-1.28-.33,2.24,2.24,0,0,1-.85-1,3.26,3.26,0,0,1-.31-1.48,2.9,2.9,0,0,1,.66-2,2.29,2.29,0,0,1,1.81-.73,2.26,2.26,0,0,1,1.79.74A2.94,2.94,0,0,1,290.41,227Zm-4.08,0a2.58,2.58,0,0,0,.41,1.57,1.46,1.46,0,0,0,1.21.53,1.43,1.43,0,0,0,1.21-.53,2.58,2.58,0,0,0,.41-1.57,2.53,2.53,0,0,0-.41-1.55,1.46,1.46,0,0,0-1.22-.53,1.43,1.43,0,0,0-1.2.53A2.49,2.49,0,0,0,286.33,227Z" style="fill: #304041"/>
    <path d="M295.28,228.23a1.35,1.35,0,0,1-.55,1.16,2.64,2.64,0,0,1-1.57.4,3.46,3.46,0,0,1-1.66-.33v-.76a3.94,3.94,0,0,0,.83.31,3.25,3.25,0,0,0,.85.11,1.89,1.89,0,0,0,1-.2.66.66,0,0,0,.34-.62.68.68,0,0,0-.27-.53,4.36,4.36,0,0,0-1.06-.53,5.55,5.55,0,0,1-1.06-.48,1.5,1.5,0,0,1-.47-.47,1.28,1.28,0,0,1-.15-.63,1.23,1.23,0,0,1,.53-1,2.51,2.51,0,0,1,1.46-.37,4.16,4.16,0,0,1,1.69.35l-.29.66a3.88,3.88,0,0,0-1.46-.34,1.71,1.71,0,0,0-.87.18.58.58,0,0,0-.29.5.62.62,0,0,0,.11.37,1.06,1.06,0,0,0,.35.29,8.83,8.83,0,0,0,.94.39,3.5,3.5,0,0,1,1.29.7A1.25,1.25,0,0,1,295.28,228.23Z" style="fill: #304041"/>
    <path d="M302.49,229.69l-.16-.76h0a2.11,2.11,0,0,1-.8.68,2.37,2.37,0,0,1-1,.18,1.76,1.76,0,0,1-1.25-.41,1.48,1.48,0,0,1-.45-1.16c0-1.08.86-1.65,2.59-1.7l.91,0v-.34a1.38,1.38,0,0,0-.27-.93,1.12,1.12,0,0,0-.87-.3,3.58,3.58,0,0,0-1.51.41l-.25-.62a3.74,3.74,0,0,1,.87-.33,3.79,3.79,0,0,1,.94-.12,2.06,2.06,0,0,1,1.42.42,1.76,1.76,0,0,1,.46,1.36v3.65Zm-1.83-.57a1.64,1.64,0,0,0,1.19-.41,1.54,1.54,0,0,0,.43-1.16v-.49l-.81,0a2.84,2.84,0,0,0-1.39.3.88.88,0,0,0-.43.82.84.84,0,0,0,.26.67A1.09,1.09,0,0,0,300.66,229.12Z" style="fill: #304041"/>
    <path d="M308.21,228.23a1.35,1.35,0,0,1-.55,1.16,2.66,2.66,0,0,1-1.57.4,3.46,3.46,0,0,1-1.66-.33v-.76a3.94,3.94,0,0,0,.83.31,3.25,3.25,0,0,0,.85.11,1.89,1.89,0,0,0,1-.2.66.66,0,0,0,.34-.62.68.68,0,0,0-.27-.53,4.36,4.36,0,0,0-1.06-.53,5.55,5.55,0,0,1-1.06-.48,1.5,1.5,0,0,1-.47-.47,1.28,1.28,0,0,1-.15-.63,1.23,1.23,0,0,1,.53-1,2.51,2.51,0,0,1,1.46-.37,4.16,4.16,0,0,1,1.69.35l-.29.66a3.92,3.92,0,0,0-1.46-.34,1.71,1.71,0,0,0-.87.18.58.58,0,0,0-.29.5.62.62,0,0,0,.11.37,1.06,1.06,0,0,0,.35.29,8.83,8.83,0,0,0,.94.39,3.59,3.59,0,0,1,1.29.7A1.25,1.25,0,0,1,308.21,228.23Z" style="fill: #304041"/>
    <path d="M312,229.79a2.27,2.27,0,0,1-.95-.19,1.89,1.89,0,0,1-.73-.59h-.06a7,7,0,0,1,.06.88v2.21h-.81v-7.76h.66l.11.74h0a1.83,1.83,0,0,1,.73-.64,2.21,2.21,0,0,1,.95-.19,2,2,0,0,1,1.64.72,3.19,3.19,0,0,1,.58,2,3.13,3.13,0,0,1-.59,2.05A2,2,0,0,1,312,229.79Zm-.12-4.86a1.44,1.44,0,0,0-1.18.46,2.3,2.3,0,0,0-.38,1.44V227a2.7,2.7,0,0,0,.38,1.62,1.43,1.43,0,0,0,1.2.48,1.23,1.23,0,0,0,1.09-.56,2.67,2.67,0,0,0,.39-1.55,2.58,2.58,0,0,0-.39-1.53A1.29,1.29,0,0,0,311.9,224.93Z" style="fill: #304041"/>
    <path d="M317.92,229.79a2.45,2.45,0,0,1-1.87-.72,2.79,2.79,0,0,1-.69-2A3.05,3.05,0,0,1,316,225a2.09,2.09,0,0,1,1.71-.76,2,2,0,0,1,1.59.66,2.53,2.53,0,0,1,.59,1.74v.52H316.2a2.17,2.17,0,0,0,.48,1.43,1.65,1.65,0,0,0,1.27.48,4.38,4.38,0,0,0,1.71-.36v.73a4.28,4.28,0,0,1-.82.26A4.09,4.09,0,0,1,317.92,229.79Zm-.22-4.87a1.33,1.33,0,0,0-1,.42,2,2,0,0,0-.45,1.17H319a1.84,1.84,0,0,0-.34-1.18A1.22,1.22,0,0,0,317.7,224.92Z" style="fill: #304041"/>
    <path d="M323.41,229.79a2.29,2.29,0,0,1-1.8-.71,2.93,2.93,0,0,1-.64-2,3,3,0,0,1,.65-2.07,2.31,2.31,0,0,1,1.84-.73,3.3,3.3,0,0,1,.77.08,2.6,2.6,0,0,1,.61.19l-.25.69A4.12,4.12,0,0,0,324,225a3.05,3.05,0,0,0-.56-.07c-1.08,0-1.63.7-1.63,2.08a2.46,2.46,0,0,0,.4,1.52,1.38,1.38,0,0,0,1.18.52,3.65,3.65,0,0,0,1.37-.28v.71A2.87,2.87,0,0,1,323.41,229.79Z" style="fill: #304041"/>
    <path d="M327.76,229.12a2.73,2.73,0,0,0,.41,0l.32-.06v.62a1.8,1.8,0,0,1-.39.1,2.6,2.6,0,0,1-.46,0c-1,0-1.55-.54-1.55-1.63V225h-.77v-.39l.77-.33.34-1.15h.47v1.24h1.55V225H326.9v3.15a1.09,1.09,0,0,0,.23.74A.77.77,0,0,0,327.76,229.12Z" style="fill: #304041"/>
    <path d="M334.18,227a3,3,0,0,1-.66,2.05,2.32,2.32,0,0,1-1.82.73,2.49,2.49,0,0,1-1.28-.33,2.32,2.32,0,0,1-.86-1,3.4,3.4,0,0,1-.3-1.48,2.9,2.9,0,0,1,.66-2,2.29,2.29,0,0,1,1.81-.73,2.26,2.26,0,0,1,1.79.74A2.94,2.94,0,0,1,334.18,227Zm-4.08,0a2.58,2.58,0,0,0,.41,1.57,1.46,1.46,0,0,0,1.21.53,1.43,1.43,0,0,0,1.21-.53,2.58,2.58,0,0,0,.41-1.57,2.53,2.53,0,0,0-.41-1.55,1.46,1.46,0,0,0-1.22-.53,1.43,1.43,0,0,0-1.2.53A2.49,2.49,0,0,0,330.1,227Z" style="fill: #304041"/>
    <path d="M339.05,228.23a1.35,1.35,0,0,1-.55,1.16,2.66,2.66,0,0,1-1.57.4,3.46,3.46,0,0,1-1.66-.33v-.76a3.94,3.94,0,0,0,.83.31,3.25,3.25,0,0,0,.85.11,1.89,1.89,0,0,0,1-.2.66.66,0,0,0,.34-.62.68.68,0,0,0-.27-.53,4.36,4.36,0,0,0-1.06-.53,5.26,5.26,0,0,1-1.06-.48,1.5,1.5,0,0,1-.47-.47,1.28,1.28,0,0,1-.15-.63,1.23,1.23,0,0,1,.53-1,2.51,2.51,0,0,1,1.46-.37,4.16,4.16,0,0,1,1.69.35l-.29.66a3.92,3.92,0,0,0-1.46-.34,1.71,1.71,0,0,0-.87.18.58.58,0,0,0-.29.5.62.62,0,0,0,.11.37,1.06,1.06,0,0,0,.35.29,8.83,8.83,0,0,0,.94.39,3.59,3.59,0,0,1,1.29.7A1.25,1.25,0,0,1,339.05,228.23Z" style="fill: #304041"/>
  </g>
</svg>
