<svg id="Layer_1" data-name="Layer 1" xmlns="http://www.w3.org/2000/svg" viewBox="0 0 360.19 209.57">
  <title>nugget_graph_3es</title>
  <g>
    <path d="M39.7,26H32.53V13.11H39.7v1.32H34v4.14h5.32v1.32H34v4.73H39.7Z" style="fill: #314041"/>
    <path d="M43.78,26H42.32V12.28h1.46Z" style="fill: #314041"/>
    <path d="M54.66,24.93a4.56,4.56,0,0,0,.75-.06,5.41,5.41,0,0,0,.57-.12v1.12a2.94,2.94,0,0,1-.7.19,5.07,5.07,0,0,1-.83.07q-2.79,0-2.79-2.94V17.46H50.28v-.71l1.38-.6.61-2.06h.85v2.23h2.79v1.14H53.12v5.66a2,2,0,0,0,.41,1.34A1.44,1.44,0,0,0,54.66,24.93Z" style="fill: #314041"/>
    <path d="M57.79,13.71A1,1,0,0,1,58,13a.86.86,0,0,1,.62-.24.85.85,0,0,1,.6.24,1,1,0,0,1,.26.73,1,1,0,0,1-.26.74.85.85,0,0,1-.6.24.86.86,0,0,1-.62-.24A1,1,0,0,1,57.79,13.71ZM59.37,26H57.91V16.32h1.46Z" style="fill: #314041"/>
    <path d="M66.53,26.13a4.41,4.41,0,0,1-3.37-1.3,5.05,5.05,0,0,1-1.24-3.61,5.59,5.59,0,0,1,1.15-3.7,3.8,3.8,0,0,1,3.08-1.37A3.61,3.61,0,0,1,69,17.34a4.57,4.57,0,0,1,1,3.14v.92H63.44A3.85,3.85,0,0,0,64.29,24a3,3,0,0,0,2.29.88,7.82,7.82,0,0,0,3.08-.65v1.3A8.27,8.27,0,0,1,68.2,26,8.83,8.83,0,0,1,66.53,26.13Zm-.39-8.76a2.4,2.4,0,0,0-1.86.75,3.51,3.51,0,0,0-.81,2.1h5a3.23,3.23,0,0,0-.62-2.12A2.15,2.15,0,0,0,66.14,17.37Z" style="fill: #314041"/>
    <path d="M84.84,26V19.69A2.64,2.64,0,0,0,84.35,18a1.92,1.92,0,0,0-1.53-.57,2.49,2.49,0,0,0-2,.78,3.73,3.73,0,0,0-.65,2.41V26H78.69V19.69A2.59,2.59,0,0,0,78.2,18a1.93,1.93,0,0,0-1.54-.57,2.36,2.36,0,0,0-2,.82A4.38,4.38,0,0,0,74,20.9V26H72.56V16.32h1.19L74,17.64h.07a3,3,0,0,1,1.17-1.1,3.59,3.59,0,0,1,1.68-.39,2.85,2.85,0,0,1,2.95,1.63h.07a3.12,3.12,0,0,1,1.25-1.19A3.83,3.83,0,0,1,83,16.15a3.24,3.24,0,0,1,2.44.84,3.69,3.69,0,0,1,.82,2.68V26Z" style="fill: #314041"/>
    <path d="M93.79,26.13a4.2,4.2,0,0,1-1.72-.35,3.2,3.2,0,0,1-1.31-1.06h-.1a12.84,12.84,0,0,1,.1,1.6v4H89.3v-14h1.19l.2,1.32h.07a3.35,3.35,0,0,1,1.31-1.14,3.92,3.92,0,0,1,1.72-.35,3.53,3.53,0,0,1,2.95,1.31,5.71,5.71,0,0,1,1,3.67,5.79,5.79,0,0,1-1,3.69A3.59,3.59,0,0,1,93.79,26.13Zm-.22-8.74a2.59,2.59,0,0,0-2.13.81,4.21,4.21,0,0,0-.68,2.6v.33a4.81,4.81,0,0,0,.68,2.9,2.55,2.55,0,0,0,2.17.88,2.29,2.29,0,0,0,2-1,4.82,4.82,0,0,0,.7-2.79,4.61,4.61,0,0,0-.7-2.76A2.35,2.35,0,0,0,93.57,17.39Z" style="fill: #314041"/>
    <path d="M108.65,21.13a5.32,5.32,0,0,1-1.19,3.68,4.18,4.18,0,0,1-3.28,1.32,4.29,4.29,0,0,1-2.29-.61,4,4,0,0,1-1.55-1.74,6.09,6.09,0,0,1-.54-2.65A5.29,5.29,0,0,1,101,17.46a4.13,4.13,0,0,1,3.26-1.31,4.08,4.08,0,0,1,3.22,1.34A5.32,5.32,0,0,1,108.65,21.13Zm-7.34,0a4.57,4.57,0,0,0,.74,2.81,2.54,2.54,0,0,0,2.17,1,2.57,2.57,0,0,0,2.17-1,4.54,4.54,0,0,0,.75-2.82,4.44,4.44,0,0,0-.75-2.79,2.58,2.58,0,0,0-2.19-.95,2.54,2.54,0,0,0-2.16.94A4.48,4.48,0,0,0,101.31,21.13Z" style="fill: #314041"/>
    <path d="M122.44,24.66h-.08a3.44,3.44,0,0,1-3,1.47,3.56,3.56,0,0,1-2.93-1.29,5.7,5.7,0,0,1-1.06-3.68,5.82,5.82,0,0,1,1.06-3.7,3.56,3.56,0,0,1,2.93-1.31,3.5,3.5,0,0,1,3,1.42h.12l-.07-.69,0-.68V12.28h1.46V26h-1.19Zm-2.92.25a2.67,2.67,0,0,0,2.17-.81,4.19,4.19,0,0,0,.67-2.63v-.31a4.88,4.88,0,0,0-.68-2.92,2.61,2.61,0,0,0-2.18-.87,2.22,2.22,0,0,0-2,1,4.88,4.88,0,0,0-.68,2.81,4.79,4.79,0,0,0,.67,2.79A2.31,2.31,0,0,0,119.52,24.91Z" style="fill: #314041"/>
    <path d="M131,26.13a4.41,4.41,0,0,1-3.37-1.3,5,5,0,0,1-1.23-3.61,5.59,5.59,0,0,1,1.14-3.7,3.8,3.8,0,0,1,3.08-1.37,3.63,3.63,0,0,1,2.87,1.19,4.57,4.57,0,0,1,1.05,3.14v.92h-6.63a3.85,3.85,0,0,0,.85,2.58,3,3,0,0,0,2.29.88,7.82,7.82,0,0,0,3.08-.65v1.3a8.27,8.27,0,0,1-1.46.48A8.83,8.83,0,0,1,131,26.13Zm-.4-8.76a2.37,2.37,0,0,0-1.84.75,3.52,3.52,0,0,0-.82,2.1h5a3.23,3.23,0,0,0-.62-2.12A2.15,2.15,0,0,0,130.58,17.37Z" style="fill: #314041"/>
    <path d="M145.54,26.13a4.1,4.1,0,0,1-3.24-1.29,5.26,5.26,0,0,1-1.15-3.64,5.51,5.51,0,0,1,1.16-3.74,4.24,4.24,0,0,1,3.32-1.31,6.57,6.57,0,0,1,1.39.15,4.36,4.36,0,0,1,1.09.35l-.45,1.24a6.16,6.16,0,0,0-1-.32,4.43,4.43,0,0,0-1-.13q-2.94,0-2.94,3.74a4.46,4.46,0,0,0,.72,2.73,2.5,2.5,0,0,0,2.12.95,6.6,6.6,0,0,0,2.47-.52v1.29A5.34,5.34,0,0,1,145.54,26.13Z" style="fill: #314041"/>
    <path d="M158.57,21.13a5.32,5.32,0,0,1-1.19,3.68,4.18,4.18,0,0,1-3.28,1.32,4.29,4.29,0,0,1-2.29-.61,4,4,0,0,1-1.55-1.74,6.09,6.09,0,0,1-.54-2.65,5.29,5.29,0,0,1,1.18-3.67,4.14,4.14,0,0,1,3.27-1.31,4.07,4.07,0,0,1,3.21,1.34A5.32,5.32,0,0,1,158.57,21.13Zm-7.34,0a4.57,4.57,0,0,0,.74,2.81,2.54,2.54,0,0,0,2.17,1,2.6,2.6,0,0,0,2.18-1,4.6,4.6,0,0,0,.74-2.82,4.51,4.51,0,0,0-.74-2.79,2.61,2.61,0,0,0-2.2-.95,2.57,2.57,0,0,0-2.16.94A4.48,4.48,0,0,0,151.23,21.13Z" style="fill: #314041"/>
    <path d="M173.41,26V19.69a2.59,2.59,0,0,0-.5-1.73,1.92,1.92,0,0,0-1.53-.57,2.49,2.49,0,0,0-2,.78,3.73,3.73,0,0,0-.65,2.41V26h-1.46V19.69a2.59,2.59,0,0,0-.49-1.73,1.93,1.93,0,0,0-1.54-.57,2.39,2.39,0,0,0-2,.82,4.45,4.45,0,0,0-.63,2.69V26h-1.46V16.32h1.18l.24,1.32h.07a2.89,2.89,0,0,1,1.17-1.1,3.59,3.59,0,0,1,1.68-.39,2.85,2.85,0,0,1,2.95,1.63h.07a3.12,3.12,0,0,1,1.25-1.19,3.81,3.81,0,0,1,1.86-.44,3.26,3.26,0,0,1,2.45.84,3.74,3.74,0,0,1,.81,2.68V26Z" style="fill: #314041"/>
    <path d="M181.94,26.13a4.41,4.41,0,0,1-3.37-1.3,5.05,5.05,0,0,1-1.24-3.61,5.59,5.59,0,0,1,1.15-3.7,3.8,3.8,0,0,1,3.08-1.37,3.63,3.63,0,0,1,2.87,1.19,4.57,4.57,0,0,1,1,3.14v.92h-6.63A3.85,3.85,0,0,0,179.7,24a3,3,0,0,0,2.29.88,7.82,7.82,0,0,0,3.08-.65v1.3a8.27,8.27,0,0,1-1.46.48A8.83,8.83,0,0,1,181.94,26.13Zm-.4-8.76a2.4,2.4,0,0,0-1.85.75,3.51,3.51,0,0,0-.81,2.1h5a3.23,3.23,0,0,0-.62-2.12A2.15,2.15,0,0,0,181.54,17.37Z" style="fill: #314041"/>
    <path d="M192.36,16.15a5.73,5.73,0,0,1,1.15.1l-.2,1.36a4.91,4.91,0,0,0-1.05-.14,2.57,2.57,0,0,0-2,1,3.45,3.45,0,0,0-.83,2.37V26H188V16.32h1.2l.17,1.79h.07a4.27,4.27,0,0,1,1.29-1.45A2.93,2.93,0,0,1,192.36,16.15Z" style="fill: #314041"/>
    <path d="M199.17,26.13a4.1,4.1,0,0,1-3.24-1.29,5.26,5.26,0,0,1-1.15-3.64A5.46,5.46,0,0,1,196,17.46a4.2,4.2,0,0,1,3.31-1.31,6.5,6.5,0,0,1,1.39.15,4.36,4.36,0,0,1,1.09.35l-.45,1.24a6.16,6.16,0,0,0-1-.32,4.43,4.43,0,0,0-1-.13q-2.94,0-2.94,3.74a4.46,4.46,0,0,0,.72,2.73,2.5,2.5,0,0,0,2.12.95,6.6,6.6,0,0,0,2.47-.52v1.29A5.28,5.28,0,0,1,199.17,26.13Z" style="fill: #314041"/>
    <path d="M203.76,13.71A.94.94,0,0,1,204,13a.84.84,0,0,1,.61-.24.85.85,0,0,1,.61.24,1,1,0,0,1,.26.73,1,1,0,0,1-.26.74.85.85,0,0,1-.61.24.84.84,0,0,1-.61-.24A1,1,0,0,1,203.76,13.71ZM205.34,26h-1.45V16.32h1.45Z" style="fill: #314041"/>
    <path d="M214.36,26l-.29-1.37H214a4,4,0,0,1-1.43,1.23,4.48,4.48,0,0,1-1.79.32,3.23,3.23,0,0,1-2.25-.74,2.69,2.69,0,0,1-.81-2.1c0-1.94,1.55-3,4.67-3.06l1.63-.05v-.6a2.42,2.42,0,0,0-.49-1.67,2,2,0,0,0-1.56-.54,6.23,6.23,0,0,0-2.72.74L208.8,17a6.76,6.76,0,0,1,1.56-.61,7,7,0,0,1,1.7-.22,3.65,3.65,0,0,1,2.55.77,3.17,3.17,0,0,1,.83,2.45V26Zm-3.29-1a3,3,0,0,0,2.14-.75,2.77,2.77,0,0,0,.78-2.09v-.87l-1.46.06a5.28,5.28,0,0,0-2.51.54,1.62,1.62,0,0,0-.77,1.49,1.48,1.48,0,0,0,.48,1.2A2,2,0,0,0,211.07,24.93Z" style="fill: #314041"/>
    <path d="M219.91,26h-1.46V12.28h1.46Z" style="fill: #314041"/>
    <path d="M222.88,13.71a.94.94,0,0,1,.25-.73.82.82,0,0,1,.61-.24.85.85,0,0,1,.61.24,1,1,0,0,1,.25.73,1,1,0,0,1-.25.74.85.85,0,0,1-.61.24.82.82,0,0,1-.61-.24A1,1,0,0,1,222.88,13.71ZM224.46,26H223V16.32h1.46Z" style="fill: #314041"/>
    <path d="M233.72,26h-7V25l5.26-7.5h-4.94V16.32h6.53v1.14l-5.18,7.36h5.32Z" style="fill: #314041"/>
    <path d="M241.9,26l-.29-1.37h-.07a4,4,0,0,1-1.44,1.23,4.44,4.44,0,0,1-1.79.32,3.22,3.22,0,0,1-2.24-.74,2.7,2.7,0,0,1-.82-2.1q0-2.91,4.67-3.06l1.64-.05v-.6a2.47,2.47,0,0,0-.49-1.67,2,2,0,0,0-1.56-.54,6.3,6.3,0,0,0-2.73.74L236.33,17a7,7,0,0,1,3.27-.83,3.67,3.67,0,0,1,2.55.77,3.21,3.21,0,0,1,.83,2.45V26Zm-3.3-1a3,3,0,0,0,2.14-.75,2.77,2.77,0,0,0,.78-2.09v-.87l-1.46.06a5.31,5.31,0,0,0-2.51.54,1.64,1.64,0,0,0-.77,1.49,1.48,1.48,0,0,0,.48,1.2A2,2,0,0,0,238.6,24.93Z" style="fill: #314041"/>
    <path d="M249.83,26.13a4.09,4.09,0,0,1-3.23-1.29,5.26,5.26,0,0,1-1.15-3.64,5.51,5.51,0,0,1,1.16-3.74,4.24,4.24,0,0,1,3.32-1.31,6.5,6.5,0,0,1,1.39.15,4.36,4.36,0,0,1,1.09.35L252,17.89a6.16,6.16,0,0,0-1.05-.32,4.43,4.43,0,0,0-1-.13q-2.94,0-2.94,3.74a4.46,4.46,0,0,0,.72,2.73,2.5,2.5,0,0,0,2.12.95,6.6,6.6,0,0,0,2.47-.52v1.29A5.32,5.32,0,0,1,249.83,26.13Z" style="fill: #314041"/>
    <path d="M254.43,13.71a.94.94,0,0,1,.25-.73.84.84,0,0,1,.61-.24.85.85,0,0,1,.61.24,1,1,0,0,1,.26.73,1,1,0,0,1-.26.74.85.85,0,0,1-.61.24.84.84,0,0,1-.61-.24A1,1,0,0,1,254.43,13.71ZM256,26h-1.45V16.32H256Z" style="fill: #314041"/>
    <path d="M267.42,21.13a5.32,5.32,0,0,1-1.18,3.68A4.21,4.21,0,0,1,263,26.13a4.32,4.32,0,0,1-2.3-.61,3.91,3.91,0,0,1-1.54-1.74,6,6,0,0,1-.55-2.65,5.29,5.29,0,0,1,1.18-3.67A4.14,4.14,0,0,1,263,16.15a4,4,0,0,1,3.21,1.34A5.27,5.27,0,0,1,267.42,21.13Zm-7.34,0a4.57,4.57,0,0,0,.74,2.81,2.55,2.55,0,0,0,2.17,1,2.59,2.59,0,0,0,2.18-1,4.6,4.6,0,0,0,.74-2.82,4.51,4.51,0,0,0-.74-2.79,2.6,2.6,0,0,0-2.19-.95,2.57,2.57,0,0,0-2.17.94A4.55,4.55,0,0,0,260.08,21.13Zm1.69-6.3c.28-.37.59-.8.91-1.32a14,14,0,0,0,.77-1.35h1.78v.19a13.92,13.92,0,0,1-1.16,1.41,15.22,15.22,0,0,1-1.32,1.29h-1Z" style="fill: #314041"/>
    <path d="M276.57,26V19.72A2.53,2.53,0,0,0,276,18a2.18,2.18,0,0,0-1.68-.58,2.79,2.79,0,0,0-2.22.81,4.14,4.14,0,0,0-.7,2.7V26H270V16.32h1.19l.23,1.32h.07a3,3,0,0,1,1.26-1.1,4.1,4.1,0,0,1,1.8-.39,3.65,3.65,0,0,1,2.62.84,3.53,3.53,0,0,1,.88,2.68V26Z" style="fill: #314041"/>
    <path d="M289.77,26.13a4.43,4.43,0,0,1-3.37-1.3,5,5,0,0,1-1.23-3.61,5.59,5.59,0,0,1,1.14-3.7,3.82,3.82,0,0,1,3.09-1.37,3.61,3.61,0,0,1,2.86,1.19,4.57,4.57,0,0,1,1.06,3.14v.92h-6.64a3.81,3.81,0,0,0,.86,2.58,3,3,0,0,0,2.28.88,7.82,7.82,0,0,0,3.08-.65v1.3a8,8,0,0,1-1.46.48A8.83,8.83,0,0,1,289.77,26.13Zm-.39-8.76a2.38,2.38,0,0,0-1.85.75,3.58,3.58,0,0,0-.82,2.1h5a3.23,3.23,0,0,0-.61-2.12A2.17,2.17,0,0,0,289.38,17.37Z" style="fill: #314041"/>
    <path d="M302,23.33a2.42,2.42,0,0,1-1,2.07,4.65,4.65,0,0,1-2.81.73,6.06,6.06,0,0,1-3-.61V24.17a6.81,6.81,0,0,0,1.49.55,6,6,0,0,0,1.54.21,3.48,3.48,0,0,0,1.75-.37,1.25,1.25,0,0,0,.13-2.07,7.69,7.69,0,0,0-1.9-.95,10,10,0,0,1-1.91-.87,2.65,2.65,0,0,1-.85-.85,2.25,2.25,0,0,1-.27-1.13,2.15,2.15,0,0,1,1-1.86,4.38,4.38,0,0,1,2.62-.68,7.7,7.7,0,0,1,3,.63L301.3,18a7,7,0,0,0-2.63-.6,3.12,3.12,0,0,0-1.57.32,1,1,0,0,0-.53.9,1.1,1.1,0,0,0,.2.66,2.21,2.21,0,0,0,.64.52,15,15,0,0,0,1.69.71,6.21,6.21,0,0,1,2.31,1.26A2.18,2.18,0,0,1,302,23.33Z" style="fill: #314041"/>
    <path d="M310.44,16.32v6.25a2.5,2.5,0,0,0,.53,1.76,2.18,2.18,0,0,0,1.68.58,2.73,2.73,0,0,0,2.21-.83,4.14,4.14,0,0,0,.7-2.7V16.32H317V26h-1.2l-.22-1.29h-.08a2.8,2.8,0,0,1-1.24,1.09,4.18,4.18,0,0,1-1.81.38,3.73,3.73,0,0,1-2.64-.83,3.58,3.58,0,0,1-.87-2.68v-6.3Z" style="fill: #314041"/>
    <path d="M326.7,26V19.72a2.48,2.48,0,0,0-.53-1.75,2.18,2.18,0,0,0-1.68-.58,2.79,2.79,0,0,0-2.22.81,4.2,4.2,0,0,0-.7,2.7V26h-1.46V16.32h1.19l.24,1.32h.07a3,3,0,0,1,1.25-1.1,4.1,4.1,0,0,1,1.8-.39,3.65,3.65,0,0,1,2.62.84,3.53,3.53,0,0,1,.88,2.68V26Z" style="fill: #314041"/>
    <path d="M337.08,26l-.29-1.37h-.07a4,4,0,0,1-1.43,1.23,4.48,4.48,0,0,1-1.79.32,3.23,3.23,0,0,1-2.25-.74,2.69,2.69,0,0,1-.81-2.1c0-1.94,1.55-3,4.67-3.06l1.63-.05v-.6a2.42,2.42,0,0,0-.49-1.67,2,2,0,0,0-1.56-.54,6.23,6.23,0,0,0-2.72.74L331.52,17a6.76,6.76,0,0,1,1.56-.61,7.08,7.08,0,0,1,1.7-.22,3.65,3.65,0,0,1,2.55.77,3.17,3.17,0,0,1,.83,2.45V26Zm-3.29-1a3,3,0,0,0,2.14-.75,2.77,2.77,0,0,0,.78-2.09v-.87l-1.46.06a5.28,5.28,0,0,0-2.51.54,1.64,1.64,0,0,0-.77,1.49,1.48,1.48,0,0,0,.48,1.2A2,2,0,0,0,333.79,24.93Z" style="fill: #314041"/>
    <path d="M36.14,47.55V41.29a2.66,2.66,0,0,0-.49-1.73A1.92,1.92,0,0,0,34.12,39a2.49,2.49,0,0,0-2,.78,3.73,3.73,0,0,0-.65,2.41v5.37H30V41.29a2.61,2.61,0,0,0-.49-1.73A1.93,1.93,0,0,0,28,39a2.36,2.36,0,0,0-2,.82,4.4,4.4,0,0,0-.64,2.69v5H23.86V37.92h1.19l.23,1.32h.07a3,3,0,0,1,1.17-1.1,3.59,3.59,0,0,1,1.68-.39,2.87,2.87,0,0,1,3,1.63h.07a3,3,0,0,1,1.24-1.19,3.83,3.83,0,0,1,1.87-.44,3.24,3.24,0,0,1,2.44.84,3.71,3.71,0,0,1,.82,2.68v6.28Z" style="fill: #314041"/>
    <path d="M44.67,47.73a4.41,4.41,0,0,1-3.37-1.3,5,5,0,0,1-1.23-3.61,5.59,5.59,0,0,1,1.14-3.7,3.8,3.8,0,0,1,3.08-1.37,3.61,3.61,0,0,1,2.87,1.19,4.57,4.57,0,0,1,1.05,3.14V43H41.58a3.81,3.81,0,0,0,.86,2.58,3,3,0,0,0,2.29.88,7.8,7.8,0,0,0,3.07-.65v1.3a8,8,0,0,1-1.46.48A8.83,8.83,0,0,1,44.67,47.73ZM44.28,39a2.38,2.38,0,0,0-1.85.75,3.55,3.55,0,0,0-.82,2.1h5A3.23,3.23,0,0,0,46,39.7,2.15,2.15,0,0,0,44.28,39Z" style="fill: #314041"/>
    <path d="M57.26,46.26h-.08a3.43,3.43,0,0,1-3,1.47,3.58,3.58,0,0,1-2.94-1.29,5.7,5.7,0,0,1-1.06-3.68,5.82,5.82,0,0,1,1.06-3.7,3.56,3.56,0,0,1,2.94-1.31,3.5,3.5,0,0,1,3,1.42h.12l-.07-.69,0-.68V33.88h1.46V47.55H57.45Zm-2.92.25a2.67,2.67,0,0,0,2.17-.81,4.19,4.19,0,0,0,.67-2.63v-.31a4.88,4.88,0,0,0-.68-2.92A2.61,2.61,0,0,0,54.32,39a2.22,2.22,0,0,0-2,1,4.88,4.88,0,0,0-.68,2.81,4.79,4.79,0,0,0,.67,2.79A2.31,2.31,0,0,0,54.34,46.51Z" style="fill: #314041"/>
    <path d="M61.61,35.31a1,1,0,0,1,.24-.73.86.86,0,0,1,.62-.24.87.87,0,0,1,.61.24,1,1,0,0,1,.25.73,1,1,0,0,1-.25.74.87.87,0,0,1-.61.24.86.86,0,0,1-.62-.24A1,1,0,0,1,61.61,35.31Zm1.58,12.24H61.73V37.92h1.46Z" style="fill: #314041"/>
    <path d="M72.84,46.26h-.08a3.42,3.42,0,0,1-3,1.47,3.58,3.58,0,0,1-2.94-1.29,5.7,5.7,0,0,1-1-3.68,5.82,5.82,0,0,1,1-3.7,3.59,3.59,0,0,1,2.94-1.31,3.47,3.47,0,0,1,3,1.42h.12l-.06-.69,0-.68V33.88h1.46V47.55H73Zm-2.92.25a2.67,2.67,0,0,0,2.17-.81,4.13,4.13,0,0,0,.67-2.63v-.31a4.88,4.88,0,0,0-.68-2.92A2.58,2.58,0,0,0,69.91,39a2.24,2.24,0,0,0-2,1,5,5,0,0,0-.68,2.81,4.78,4.78,0,0,0,.68,2.79A2.28,2.28,0,0,0,69.92,46.51Z" style="fill: #314041"/>
    <path d="M83.24,47.55,83,46.18h-.07a4,4,0,0,1-1.44,1.23,4.44,4.44,0,0,1-1.79.32A3.22,3.22,0,0,1,77.41,47a2.66,2.66,0,0,1-.82-2.1q0-2.91,4.67-3.06l1.64,0v-.6a2.47,2.47,0,0,0-.49-1.67A2,2,0,0,0,80.85,39a6.3,6.3,0,0,0-2.73.74l-.45-1.12a7,7,0,0,1,3.27-.83,3.67,3.67,0,0,1,2.55.77A3.21,3.21,0,0,1,84.32,41v6.57Zm-3.3-1a3,3,0,0,0,2.14-.75,2.77,2.77,0,0,0,.78-2.09v-.87l-1.46.06a5.31,5.31,0,0,0-2.51.54,1.64,1.64,0,0,0-.77,1.49,1.48,1.48,0,0,0,.48,1.2A2,2,0,0,0,79.94,46.53Z" style="fill: #314041"/>
    <path d="M96.34,39.06H93.89v8.49H92.43V39.06H90.71V38.4l1.72-.53v-.54c0-2.36,1-3.55,3.1-3.55a6.29,6.29,0,0,1,1.8.31L97,35.26A4.84,4.84,0,0,0,95.51,35a1.39,1.39,0,0,0-1.22.55,3,3,0,0,0-.4,1.76v.62h2.45Z" style="fill: #314041"/>
    <path d="M99.47,37.92v6.25a2.51,2.51,0,0,0,.54,1.76,2.17,2.17,0,0,0,1.68.58,2.76,2.76,0,0,0,2.21-.83,4.2,4.2,0,0,0,.7-2.7V37.92h1.46v9.63h-1.21l-.21-1.29h-.08a2.86,2.86,0,0,1-1.24,1.09,4.23,4.23,0,0,1-1.82.38,3.7,3.7,0,0,1-2.63-.83A3.58,3.58,0,0,1,98,44.22v-6.3Z" style="fill: #314041"/>
    <path d="M115.74,47.55V41.32a2.48,2.48,0,0,0-.54-1.75,2.14,2.14,0,0,0-1.67-.58,2.79,2.79,0,0,0-2.22.81,4.14,4.14,0,0,0-.7,2.7v5h-1.46V37.92h1.18l.24,1.32h.07a3,3,0,0,1,1.26-1.1,4.1,4.1,0,0,1,1.8-.39,3.65,3.65,0,0,1,2.62.84,3.54,3.54,0,0,1,.88,2.68v6.28Z" style="fill: #314041"/>
    <path d="M126.75,46.26h-.08a3.42,3.42,0,0,1-3,1.47,3.58,3.58,0,0,1-2.94-1.29,5.7,5.7,0,0,1-1-3.68,5.76,5.76,0,0,1,1.06-3.7,3.56,3.56,0,0,1,2.93-1.31,3.5,3.5,0,0,1,3,1.42h.11l-.06-.69,0-.68V33.88h1.46V47.55H127Zm-2.92.25A2.67,2.67,0,0,0,126,45.7a4.13,4.13,0,0,0,.67-2.63v-.31a4.81,4.81,0,0,0-.68-2.92,2.58,2.58,0,0,0-2.17-.87,2.24,2.24,0,0,0-2,1,5,5,0,0,0-.68,2.81,4.78,4.78,0,0,0,.68,2.79A2.28,2.28,0,0,0,123.83,46.51Z" style="fill: #314041"/>
    <path d="M137.15,47.55l-.29-1.37h-.07a4,4,0,0,1-1.44,1.23,4.39,4.39,0,0,1-1.78.32,3.23,3.23,0,0,1-2.25-.74,2.69,2.69,0,0,1-.81-2.1q0-2.91,4.66-3.06l1.64,0v-.6a2.42,2.42,0,0,0-.49-1.67,2,2,0,0,0-1.56-.54,6.23,6.23,0,0,0-2.72.74l-.45-1.12a6.76,6.76,0,0,1,1.56-.61,7,7,0,0,1,1.7-.22,3.65,3.65,0,0,1,2.55.77,3.21,3.21,0,0,1,.83,2.45v6.57Zm-3.3-1a2.94,2.94,0,0,0,2.14-.75,2.77,2.77,0,0,0,.78-2.09v-.87l-1.46.06a5.31,5.31,0,0,0-2.51.54,1.63,1.63,0,0,0-.76,1.49,1.51,1.51,0,0,0,.47,1.2A2,2,0,0,0,133.85,46.53Z" style="fill: #314041"/>
    <path d="M153.52,47.55V41.29a2.61,2.61,0,0,0-.5-1.73,1.89,1.89,0,0,0-1.53-.57,2.47,2.47,0,0,0-2,.78,3.73,3.73,0,0,0-.65,2.41v5.37h-1.46V41.29a2.61,2.61,0,0,0-.49-1.73,1.93,1.93,0,0,0-1.54-.57,2.39,2.39,0,0,0-2,.82,4.47,4.47,0,0,0-.63,2.69v5h-1.46V37.92h1.18l.24,1.32h.07a3,3,0,0,1,1.17-1.1,3.59,3.59,0,0,1,1.68-.39,2.86,2.86,0,0,1,2.95,1.63h.07a3.12,3.12,0,0,1,1.25-1.19,3.81,3.81,0,0,1,1.86-.44,3.26,3.26,0,0,1,2.45.84,3.75,3.75,0,0,1,.82,2.68v6.28Z" style="fill: #314041"/>
    <path d="M162.05,47.73a4.41,4.41,0,0,1-3.37-1.3,5.05,5.05,0,0,1-1.24-3.61,5.59,5.59,0,0,1,1.15-3.7,3.8,3.8,0,0,1,3.08-1.37,3.63,3.63,0,0,1,2.87,1.19,4.57,4.57,0,0,1,1.05,3.14V43H159a3.85,3.85,0,0,0,.85,2.58,3,3,0,0,0,2.29.88,7.85,7.85,0,0,0,3.08-.65v1.3a8.27,8.27,0,0,1-1.46.48A8.83,8.83,0,0,1,162.05,47.73ZM161.66,39a2.4,2.4,0,0,0-1.86.75,3.49,3.49,0,0,0-.81,2.1h5a3.23,3.23,0,0,0-.62-2.12A2.15,2.15,0,0,0,161.66,39Z" style="fill: #314041"/>
    <path d="M174.67,47.55V41.32a2.53,2.53,0,0,0-.53-1.75,2.18,2.18,0,0,0-1.68-.58,2.79,2.79,0,0,0-2.22.81,4.14,4.14,0,0,0-.7,2.7v5h-1.46V37.92h1.19l.23,1.32h.07a3,3,0,0,1,1.26-1.1,4.1,4.1,0,0,1,1.8-.39,3.67,3.67,0,0,1,2.62.84,3.54,3.54,0,0,1,.88,2.68v6.28Z" style="fill: #314041"/>
    <path d="M182.24,46.53a4.65,4.65,0,0,0,.75-.06,5.41,5.41,0,0,0,.57-.12v1.12a2.94,2.94,0,0,1-.7.19,5.25,5.25,0,0,1-.83.07c-1.87,0-2.8-1-2.8-2.94V39.06h-1.38v-.71l1.38-.6.62-2.06h.84v2.23h2.8v1.14h-2.8v5.66a2,2,0,0,0,.41,1.34A1.46,1.46,0,0,0,182.24,46.53Z" style="fill: #314041"/>
    <path d="M191.41,47.55l-.29-1.37h-.07a4,4,0,0,1-1.44,1.23,4.48,4.48,0,0,1-1.79.32,3.25,3.25,0,0,1-2.25-.74,2.69,2.69,0,0,1-.81-2.1q0-2.91,4.67-3.06l1.63,0v-.6a2.42,2.42,0,0,0-.49-1.67A2,2,0,0,0,189,39a6.23,6.23,0,0,0-2.72.74l-.45-1.12a7,7,0,0,1,3.26-.83,3.7,3.7,0,0,1,2.56.77,3.21,3.21,0,0,1,.83,2.45v6.57Zm-3.3-1a3,3,0,0,0,2.14-.75,2.77,2.77,0,0,0,.78-2.09v-.87l-1.46.06a5.28,5.28,0,0,0-2.51.54,1.64,1.64,0,0,0-.77,1.49,1.48,1.48,0,0,0,.48,1.2A2,2,0,0,0,188.11,46.53Z" style="fill: #314041"/>
    <path d="M197,47.55h-1.46V33.88H197Z" style="fill: #314041"/>
    <path d="M211.28,46.26h-.08a3.44,3.44,0,0,1-3,1.47,3.56,3.56,0,0,1-2.93-1.29,5.64,5.64,0,0,1-1.06-3.68,5.82,5.82,0,0,1,1.06-3.7,3.56,3.56,0,0,1,2.93-1.31,3.5,3.5,0,0,1,3,1.42h.12l-.07-.69,0-.68V33.88h1.46V47.55h-1.19Zm-2.92.25a2.67,2.67,0,0,0,2.17-.81,4.19,4.19,0,0,0,.67-2.63v-.31a4.88,4.88,0,0,0-.68-2.92,2.61,2.61,0,0,0-2.18-.87,2.22,2.22,0,0,0-2,1,4.88,4.88,0,0,0-.68,2.81,4.79,4.79,0,0,0,.67,2.79A2.29,2.29,0,0,0,208.36,46.51Z" style="fill: #314041"/>
    <path d="M219.82,47.73a4.41,4.41,0,0,1-3.37-1.3,5,5,0,0,1-1.23-3.61,5.59,5.59,0,0,1,1.14-3.7,3.8,3.8,0,0,1,3.08-1.37,3.63,3.63,0,0,1,2.87,1.19,4.57,4.57,0,0,1,1.05,3.14V43h-6.63a3.85,3.85,0,0,0,.85,2.58,3,3,0,0,0,2.29.88,7.82,7.82,0,0,0,3.08-.65v1.3a8.27,8.27,0,0,1-1.46.48A8.83,8.83,0,0,1,219.82,47.73Zm-.4-8.76a2.4,2.4,0,0,0-1.85.75,3.49,3.49,0,0,0-.81,2.1h5a3.23,3.23,0,0,0-.62-2.12A2.15,2.15,0,0,0,219.42,39Z" style="fill: #314041"/>
    <path d="M232,47.55h-1.46V33.88H232Z" style="fill: #314041"/>
    <path d="M241,47.55l-.29-1.37h-.07a4,4,0,0,1-1.44,1.23,4.39,4.39,0,0,1-1.78.32,3.23,3.23,0,0,1-2.25-.74,2.69,2.69,0,0,1-.81-2.1q0-2.91,4.66-3.06l1.64,0v-.6a2.42,2.42,0,0,0-.49-1.67,2,2,0,0,0-1.56-.54,6.23,6.23,0,0,0-2.72.74l-.45-1.12A6.76,6.76,0,0,1,237,38a7,7,0,0,1,1.7-.22,3.65,3.65,0,0,1,2.55.77,3.17,3.17,0,0,1,.83,2.45v6.57Zm-3.29-1a3,3,0,0,0,2.14-.75,2.8,2.8,0,0,0,.77-2.09v-.87l-1.46.06a5.24,5.24,0,0,0-2.5.54,1.62,1.62,0,0,0-.77,1.49,1.48,1.48,0,0,0,.48,1.2A2,2,0,0,0,237.71,46.53Z" style="fill: #314041"/>
    <path d="M255.69,47.55l-.29-1.37h-.07a4,4,0,0,1-1.44,1.23,4.44,4.44,0,0,1-1.79.32,3.22,3.22,0,0,1-2.24-.74,2.7,2.7,0,0,1-.82-2.1q0-2.91,4.67-3.06l1.64,0v-.6a2.47,2.47,0,0,0-.49-1.67A2,2,0,0,0,253.3,39a6.27,6.27,0,0,0-2.73.74l-.44-1.12a6.76,6.76,0,0,1,1.56-.61,7,7,0,0,1,1.7-.22,3.67,3.67,0,0,1,2.55.77,3.21,3.21,0,0,1,.83,2.45v6.57Zm-3.3-1a3,3,0,0,0,2.14-.75,2.77,2.77,0,0,0,.78-2.09v-.87l-1.46.06a5.31,5.31,0,0,0-2.51.54,1.64,1.64,0,0,0-.77,1.49,1.48,1.48,0,0,0,.48,1.2A2,2,0,0,0,252.39,46.53Z" style="fill: #314041"/>
    <path d="M267.66,37.92v.92l-1.78.22a3.12,3.12,0,0,1,.44.8,3.24,3.24,0,0,1,.19,1.12,2.84,2.84,0,0,1-1,2.26,3.9,3.9,0,0,1-2.65.84,4.14,4.14,0,0,1-.81-.07,1.44,1.44,0,0,0-.93,1.24.63.63,0,0,0,.32.59,2.47,2.47,0,0,0,1.12.19h1.7a3.82,3.82,0,0,1,2.41.65,2.3,2.3,0,0,1,.84,1.92A2.73,2.73,0,0,1,266.25,51a6.84,6.84,0,0,1-3.74.84,5.17,5.17,0,0,1-2.91-.7,2.27,2.27,0,0,1-1-2,2.25,2.25,0,0,1,.56-1.52,2.88,2.88,0,0,1,1.59-.87,1.49,1.49,0,0,1-.62-.52,1.35,1.35,0,0,1-.25-.82,1.52,1.52,0,0,1,.28-.92,3,3,0,0,1,.88-.76,2.66,2.66,0,0,1-1.21-1.05,3,3,0,0,1-.47-1.69,3.1,3.1,0,0,1,.95-2.44,3.88,3.88,0,0,1,2.69-.85,4.82,4.82,0,0,1,1.36.17ZM260,49.17a1.31,1.31,0,0,0,.66,1.19,3.64,3.64,0,0,0,1.89.4,5.25,5.25,0,0,0,2.72-.55,1.67,1.67,0,0,0,.88-1.49,1.17,1.17,0,0,0-.48-1.08,3.79,3.79,0,0,0-1.82-.31h-1.75a2.3,2.3,0,0,0-1.55.48A1.69,1.69,0,0,0,260,49.17Zm.79-8.16a2,2,0,0,0,.57,1.53,2.3,2.3,0,0,0,1.59.51A1.86,1.86,0,0,0,265.07,41a1.91,1.91,0,0,0-2.16-2.17,2.15,2.15,0,0,0-1.59.55A2.24,2.24,0,0,0,260.77,41Z" style="fill: #314041"/>
    <path d="M269.51,35.31a1,1,0,0,1,.25-.73.9.9,0,0,1,1.22,0,1,1,0,0,1,.26.73,1,1,0,0,1-.26.74.9.9,0,0,1-1.22,0A1,1,0,0,1,269.51,35.31Zm1.59,12.24h-1.46V37.92h1.46Z" style="fill: #314041"/>
    <path d="M275.65,47.55h-1.46V33.88h1.46Z" style="fill: #314041"/>
    <path d="M278.62,35.31a.94.94,0,0,1,.25-.73.84.84,0,0,1,.61-.24.85.85,0,0,1,.61.24,1,1,0,0,1,.25.73,1,1,0,0,1-.25.74.85.85,0,0,1-.61.24.84.84,0,0,1-.61-.24A1,1,0,0,1,278.62,35.31Zm1.58,12.24h-1.46V37.92h1.46Z" style="fill: #314041"/>
    <path d="M289.85,46.26h-.08a3.42,3.42,0,0,1-3,1.47,3.58,3.58,0,0,1-2.94-1.29,5.7,5.7,0,0,1-1.05-3.68,5.82,5.82,0,0,1,1.05-3.7,3.58,3.58,0,0,1,2.94-1.31,3.47,3.47,0,0,1,3,1.42h.12l-.06-.69,0-.68V33.88h1.46V47.55h-1.18Zm-2.92.25a2.67,2.67,0,0,0,2.17-.81,4.13,4.13,0,0,0,.67-2.63v-.31a4.81,4.81,0,0,0-.68-2.92,2.58,2.58,0,0,0-2.17-.87,2.24,2.24,0,0,0-2,1,5,5,0,0,0-.68,2.81,4.78,4.78,0,0,0,.68,2.79A2.28,2.28,0,0,0,286.93,46.51Z" style="fill: #314041"/>
    <path d="M300.25,47.55,300,46.18h-.07a4,4,0,0,1-1.44,1.23,4.44,4.44,0,0,1-1.79.32,3.22,3.22,0,0,1-2.24-.74,2.7,2.7,0,0,1-.82-2.1q0-2.91,4.67-3.06l1.64,0v-.6a2.47,2.47,0,0,0-.49-1.67,2,2,0,0,0-1.56-.54,6.3,6.3,0,0,0-2.73.74l-.44-1.12a6.76,6.76,0,0,1,1.56-.61,7,7,0,0,1,1.7-.22,3.67,3.67,0,0,1,2.55.77,3.21,3.21,0,0,1,.83,2.45v6.57Zm-3.3-1a3,3,0,0,0,2.14-.75,2.77,2.77,0,0,0,.78-2.09v-.87l-1.46.06a5.31,5.31,0,0,0-2.51.54,1.64,1.64,0,0,0-.77,1.49,1.48,1.48,0,0,0,.48,1.2A2,2,0,0,0,297,46.53Z" style="fill: #314041"/>
    <path d="M310.89,46.26h-.08a3.42,3.42,0,0,1-3,1.47,3.58,3.58,0,0,1-2.94-1.29,5.7,5.7,0,0,1-1.05-3.68,5.82,5.82,0,0,1,1.05-3.7,3.59,3.59,0,0,1,2.94-1.31,3.5,3.5,0,0,1,3,1.42h.11l-.06-.69,0-.68V33.88h1.46V47.55h-1.18Zm-2.91.25a2.66,2.66,0,0,0,2.16-.81,4.13,4.13,0,0,0,.67-2.63v-.31a4.81,4.81,0,0,0-.68-2.92A2.58,2.58,0,0,0,308,39a2.24,2.24,0,0,0-2,1,5,5,0,0,0-.68,2.81,4.78,4.78,0,0,0,.68,2.79A2.28,2.28,0,0,0,308,46.51Z" style="fill: #314041"/>
    <path d="M326.6,46.26h-.08a3.42,3.42,0,0,1-3,1.47,3.58,3.58,0,0,1-2.94-1.29,5.7,5.7,0,0,1-1.05-3.68,5.82,5.82,0,0,1,1.05-3.7,3.56,3.56,0,0,1,2.94-1.31,3.49,3.49,0,0,1,3,1.42h.12l-.06-.69,0-.68V33.88H328V47.55h-1.19Zm-2.92.25a2.67,2.67,0,0,0,2.17-.81,4.13,4.13,0,0,0,.67-2.63v-.31a4.88,4.88,0,0,0-.68-2.92,2.61,2.61,0,0,0-2.18-.87,2.22,2.22,0,0,0-2,1,4.88,4.88,0,0,0-.68,2.81,4.79,4.79,0,0,0,.67,2.79A2.31,2.31,0,0,0,323.68,46.51Z" style="fill: #314041"/>
    <path d="M335.14,47.73a4.41,4.41,0,0,1-3.37-1.3,5,5,0,0,1-1.23-3.61,5.59,5.59,0,0,1,1.14-3.7,3.81,3.81,0,0,1,3.08-1.37,3.61,3.61,0,0,1,2.87,1.19,4.57,4.57,0,0,1,1.05,3.14V43h-6.63a3.81,3.81,0,0,0,.86,2.58,3,3,0,0,0,2.28.88,7.82,7.82,0,0,0,3.08-.65v1.3a8.27,8.27,0,0,1-1.46.48A8.83,8.83,0,0,1,335.14,47.73ZM334.75,39a2.38,2.38,0,0,0-1.85.75,3.49,3.49,0,0,0-.82,2.1h5a3.23,3.23,0,0,0-.62-2.12A2.15,2.15,0,0,0,334.75,39Z" style="fill: #314041"/>
    <path d="M184.16,69.16H182.7V55.48h1.46Z" style="fill: #314041"/>
    <path d="M193.18,69.16l-.29-1.38h-.07A4,4,0,0,1,191.38,69a4.41,4.41,0,0,1-1.79.32,3.22,3.22,0,0,1-2.24-.74,2.69,2.69,0,0,1-.81-2.1q0-2.91,4.66-3.06l1.64,0v-.6a2.42,2.42,0,0,0-.49-1.67,2,2,0,0,0-1.56-.54,6.23,6.23,0,0,0-2.72.74l-.45-1.12a6.76,6.76,0,0,1,1.56-.61,7,7,0,0,1,1.7-.22,3.65,3.65,0,0,1,2.55.77,3.17,3.17,0,0,1,.83,2.45v6.58Zm-3.29-1a3,3,0,0,0,2.14-.75,2.8,2.8,0,0,0,.77-2.09v-.87l-1.46.06a5.31,5.31,0,0,0-2.51.54,1.63,1.63,0,0,0-.76,1.49,1.51,1.51,0,0,0,.47,1.2A2,2,0,0,0,189.89,68.13Z" style="fill: #314041"/>
    <path d="M203.48,66.53a2.4,2.4,0,0,1-1,2.07,4.69,4.69,0,0,1-2.81.73,6,6,0,0,1-3-.61V67.37a6.62,6.62,0,0,0,1.49.55,6,6,0,0,0,1.53.21,3.42,3.42,0,0,0,1.76-.37,1.19,1.19,0,0,0,.61-1.11,1.21,1.21,0,0,0-.48-1,7.81,7.81,0,0,0-1.91-1,10.29,10.29,0,0,1-1.91-.87,2.61,2.61,0,0,1-.84-.85,2.33,2.33,0,0,1,.68-3,4.44,4.44,0,0,1,2.63-.68,7.7,7.7,0,0,1,3,.63l-.52,1.19a7,7,0,0,0-2.63-.6,3.08,3.08,0,0,0-1.56.32,1,1,0,0,0-.53.9,1.1,1.1,0,0,0,.2.66,2,2,0,0,0,.64.52,14.6,14.6,0,0,0,1.68.71,6.19,6.19,0,0,1,2.32,1.26A2.21,2.21,0,0,1,203.48,66.53Z" style="fill: #314041"/>
    <path d="M218.84,64.33A5.32,5.32,0,0,1,217.66,68a4.19,4.19,0,0,1-3.28,1.32,4.26,4.26,0,0,1-2.29-.61A3.93,3.93,0,0,1,210.54,67a6.09,6.09,0,0,1-.55-2.65,5.34,5.34,0,0,1,1.18-3.67,4.2,4.2,0,0,1,3.27-1.31,4,4,0,0,1,3.21,1.34A5.27,5.27,0,0,1,218.84,64.33Zm-7.33,0a4.57,4.57,0,0,0,.73,2.81,2.93,2.93,0,0,0,4.35,0,4.54,4.54,0,0,0,.74-2.82,4.46,4.46,0,0,0-.74-2.79,2.59,2.59,0,0,0-2.19-.95,2.54,2.54,0,0,0-2.16.94A4.48,4.48,0,0,0,211.51,64.33Z" style="fill: #314041"/>
    <path d="M225.8,59.35a5.73,5.73,0,0,1,1.15.1l-.2,1.36a4.91,4.91,0,0,0-1.06-.14,2.59,2.59,0,0,0-2,.95,3.49,3.49,0,0,0-.83,2.37v5.17H221.4V59.52h1.21l.16,1.79h.07a4.19,4.19,0,0,1,1.3-1.45A2.88,2.88,0,0,1,225.8,59.35Z" style="fill: #314041"/>
    <path d="M236.63,59.52v.93l-1.78.21a3.12,3.12,0,0,1,.44.8,3,3,0,0,1,.19,1.12,2.86,2.86,0,0,1-1,2.26,3.93,3.93,0,0,1-2.66.84,4.21,4.21,0,0,1-.81-.07,1.44,1.44,0,0,0-.93,1.24.63.63,0,0,0,.33.59,2.42,2.42,0,0,0,1.11.19h1.71a3.81,3.81,0,0,1,2.4.66,2.26,2.26,0,0,1,.84,1.91,2.74,2.74,0,0,1-1.28,2.44,6.9,6.9,0,0,1-3.75.84,5.17,5.17,0,0,1-2.91-.7,2.28,2.28,0,0,1-1-2,2.2,2.2,0,0,1,.56-1.52,2.81,2.81,0,0,1,1.58-.87,1.47,1.47,0,0,1-.62-.52,1.35,1.35,0,0,1-.25-.82,1.52,1.52,0,0,1,.28-.92,2.89,2.89,0,0,1,.89-.76,2.68,2.68,0,0,1-1.22-1,3.09,3.09,0,0,1-.47-1.69,3.13,3.13,0,0,1,.95-2.44,3.88,3.88,0,0,1,2.69-.85,5.16,5.16,0,0,1,1.36.17ZM229,70.77a1.31,1.31,0,0,0,.66,1.19,3.64,3.64,0,0,0,1.89.4,5.22,5.22,0,0,0,2.72-.55,1.67,1.67,0,0,0,.88-1.49,1.17,1.17,0,0,0-.48-1.08,3.79,3.79,0,0,0-1.82-.3h-1.75a2.27,2.27,0,0,0-1.54.47A1.7,1.7,0,0,0,229,70.77Zm.79-8.16a2,2,0,0,0,.58,1.53,2.3,2.3,0,0,0,1.59.52A1.86,1.86,0,0,0,234,62.58a1.91,1.91,0,0,0-2.16-2.17,2.12,2.12,0,0,0-1.58.55A2.24,2.24,0,0,0,229.74,62.61Z" style="fill: #314041"/>
    <path d="M244.54,69.16l-.3-1.38h-.07A3.93,3.93,0,0,1,242.74,69a4.48,4.48,0,0,1-1.79.32,3.25,3.25,0,0,1-2.25-.74,2.69,2.69,0,0,1-.81-2.1q0-2.91,4.67-3.06l1.63,0v-.6a2.42,2.42,0,0,0-.49-1.67,2,2,0,0,0-1.55-.54,6.23,6.23,0,0,0-2.73.74L239,60.19a7,7,0,0,1,3.26-.83,3.7,3.7,0,0,1,2.56.77,3.21,3.21,0,0,1,.83,2.45v6.58Zm-3.3-1a3,3,0,0,0,2.14-.75,2.77,2.77,0,0,0,.78-2.09v-.87l-1.46.06a5.28,5.28,0,0,0-2.51.54,1.64,1.64,0,0,0-.77,1.49,1.48,1.48,0,0,0,.48,1.2A2,2,0,0,0,241.24,68.13Z" style="fill: #314041"/>
    <path d="M255.21,69.16V62.92a2.48,2.48,0,0,0-.53-1.75,2.18,2.18,0,0,0-1.68-.58,2.79,2.79,0,0,0-2.22.81,4.2,4.2,0,0,0-.7,2.7v5.06h-1.46V59.52h1.19l.24,1.32h.07a2.92,2.92,0,0,1,1.25-1.1,4.1,4.1,0,0,1,1.8-.39,3.65,3.65,0,0,1,2.62.84,3.54,3.54,0,0,1,.88,2.68v6.29Z" style="fill: #314041"/>
    <path d="M259.55,56.91a1,1,0,0,1,.24-.73.85.85,0,0,1,.62-.23.84.84,0,0,1,.6.23,1,1,0,0,1,.26.73,1,1,0,0,1-.26.74.85.85,0,0,1-.6.24.86.86,0,0,1-.62-.24A1,1,0,0,1,259.55,56.91Zm1.58,12.25h-1.46V59.52h1.46Z" style="fill: #314041"/>
    <path d="M270.38,69.16h-7v-1l5.25-7.5h-4.93V59.52h6.53v1.14L265.07,68h5.31Z" style="fill: #314041"/>
    <path d="M278.57,69.16l-.29-1.38h-.07A4,4,0,0,1,276.77,69a4.44,4.44,0,0,1-1.79.32,3.22,3.22,0,0,1-2.24-.74,2.66,2.66,0,0,1-.82-2.1q0-2.91,4.67-3.06l1.63,0v-.6a2.47,2.47,0,0,0-.48-1.67,2,2,0,0,0-1.56-.54,6.27,6.27,0,0,0-2.73.74L273,60.19a7,7,0,0,1,3.26-.83,3.7,3.7,0,0,1,2.56.77,3.21,3.21,0,0,1,.83,2.45v6.58Zm-3.3-1a3,3,0,0,0,2.14-.75,2.77,2.77,0,0,0,.78-2.09v-.87l-1.46.06a5.28,5.28,0,0,0-2.51.54,1.64,1.64,0,0,0-.77,1.49,1.48,1.48,0,0,0,.48,1.2A2,2,0,0,0,275.27,68.13Z" style="fill: #314041"/>
    <path d="M286.5,69.33A4.12,4.12,0,0,1,283.26,68a5.29,5.29,0,0,1-1.14-3.64,5.51,5.51,0,0,1,1.16-3.74,4.22,4.22,0,0,1,3.32-1.31,6.57,6.57,0,0,1,1.39.15,4.36,4.36,0,0,1,1.09.35l-.45,1.24a6,6,0,0,0-1.06-.32,4.36,4.36,0,0,0-1-.13q-2.94,0-2.94,3.74a4.46,4.46,0,0,0,.72,2.73,2.48,2.48,0,0,0,2.12,1,6.64,6.64,0,0,0,2.47-.52v1.29A5.35,5.35,0,0,1,286.5,69.33Z" style="fill: #314041"/>
    <path d="M291.1,56.91a.94.94,0,0,1,.25-.73A.83.83,0,0,1,292,56a.84.84,0,0,1,.61.23,1,1,0,0,1,.25.73,1,1,0,0,1-.25.74.85.85,0,0,1-.61.24.84.84,0,0,1-.61-.24A1,1,0,0,1,291.1,56.91Zm1.58,12.25h-1.46V59.52h1.46Z" style="fill: #314041"/>
    <path d="M304.09,64.33A5.32,5.32,0,0,1,302.9,68a4.17,4.17,0,0,1-3.27,1.32,4.3,4.3,0,0,1-2.3-.61A4,4,0,0,1,295.78,67a6.09,6.09,0,0,1-.54-2.65,5.29,5.29,0,0,1,1.18-3.67,4.17,4.17,0,0,1,3.27-1.31,4.06,4.06,0,0,1,3.21,1.34A5.32,5.32,0,0,1,304.09,64.33Zm-7.34,0a4.57,4.57,0,0,0,.74,2.81,2.55,2.55,0,0,0,2.17,1,2.59,2.59,0,0,0,2.18-1,4.6,4.6,0,0,0,.74-2.82,4.53,4.53,0,0,0-.74-2.79,2.61,2.61,0,0,0-2.2-.95,2.57,2.57,0,0,0-2.16.94A4.48,4.48,0,0,0,296.75,64.33Z" style="fill: #314041"/>
    <path d="M313.24,69.16V62.92a2.48,2.48,0,0,0-.54-1.75,2.15,2.15,0,0,0-1.68-.58,2.78,2.78,0,0,0-2.21.81,4.14,4.14,0,0,0-.7,2.7v5.06h-1.46V59.52h1.18l.24,1.32h.07a3,3,0,0,1,1.26-1.1,4.1,4.1,0,0,1,1.8-.39,3.67,3.67,0,0,1,2.62.84,3.54,3.54,0,0,1,.88,2.68v6.29Z" style="fill: #314041"/>
    <path d="M321.76,69.33a4.43,4.43,0,0,1-3.37-1.3,5,5,0,0,1-1.23-3.61,5.55,5.55,0,0,1,1.15-3.7,3.78,3.78,0,0,1,3.08-1.37,3.61,3.61,0,0,1,2.86,1.19,4.52,4.52,0,0,1,1.06,3.14v.92h-6.64a3.86,3.86,0,0,0,.86,2.58,3,3,0,0,0,2.29.88,7.8,7.8,0,0,0,3.07-.65v1.3a8,8,0,0,1-1.46.48A8.83,8.83,0,0,1,321.76,69.33Zm-.39-8.76a2.4,2.4,0,0,0-1.85.75,3.51,3.51,0,0,0-.81,2.1h5a3.23,3.23,0,0,0-.61-2.12A2.17,2.17,0,0,0,321.37,60.57Z" style="fill: #314041"/>
    <path d="M334,66.53a2.42,2.42,0,0,1-1,2.07,4.71,4.71,0,0,1-2.82.73,6,6,0,0,1-3-.61V67.37a6.54,6.54,0,0,0,1.48.55,6.12,6.12,0,0,0,1.54.21,3.42,3.42,0,0,0,1.76-.37,1.25,1.25,0,0,0,.12-2.07,7.5,7.5,0,0,0-1.9-1,10.29,10.29,0,0,1-1.91-.87,2.51,2.51,0,0,1-.84-.85,2.33,2.33,0,0,1,.68-3,4.4,4.4,0,0,1,2.62-.68,7.75,7.75,0,0,1,3.05.63l-.52,1.19a7,7,0,0,0-2.63-.6,3.15,3.15,0,0,0-1.57.32,1,1,0,0,0-.52.9,1.09,1.09,0,0,0,.19.66,2.21,2.21,0,0,0,.64.52,15.9,15.9,0,0,0,1.69.71,6.36,6.36,0,0,1,2.32,1.26A2.21,2.21,0,0,1,334,66.53Z" style="fill: #314041"/>
    <path d="M336.17,68.22a1.3,1.3,0,0,1,.27-.89,1,1,0,0,1,.77-.3,1,1,0,0,1,.79.3,1.5,1.5,0,0,1,0,1.77,1,1,0,0,1-.79.31,1,1,0,0,1-.74-.28A1.17,1.17,0,0,1,336.17,68.22Z" style="fill: #314041"/>
  </g>
  <path d="M323.9,135.48a11.32,11.32,0,0,0-5.72.3,5.1,5.1,0,0,0,.3-.91c2.23-7-1.27-13-8.26-15.12a14,14,0,0,0-11.32,1.57l-.79,7.17s15.13,28,21.27,29.28a11.37,11.37,0,0,0,4.52-22.29Z" style="fill: #293e40;fill-rule: evenodd"/>
  <path d="M274.35,122.79c3.92,6.44,16.58,21.62,16.58,21.62l5.42.3-.18,12-6-.73a7.07,7.07,0,0,1-5.3-3.46c-.06-.12-.12-.19-.18-.31l-18.92-30.72,4.4-.92A4.48,4.48,0,0,1,274.35,122.79Z" style="fill: #bc8860;fill-rule: evenodd"/>
  <polygon points="314.83 145.47 296.36 144.9 295.76 158.5 319.89 160.21 314.83 145.47" style="fill: #efecea;fill-rule: evenodd"/>
  <path d="M313.38,143.65l-5-8.76a2.9,2.9,0,0,0,2.36-2.86,3,3,0,0,0-6-.42l-3-1.31a4.74,4.74,0,0,1-2.78-4.29v-4.53c.06,0,.12-.06.18-.12a12.53,12.53,0,0,0-5.69,8.34l-1.4.72a.7.7,0,0,0-.3.29.66.66,0,0,0,.24.72l1.15.71c-.12,5.31,3.21,9.54,8.84,10.67a1.75,1.75,0,0,1,.55.12L306,150.2l11-4.83Z" style="fill: #bc8860;fill-rule: evenodd"/>
  <path d="M322.84,199.65,317,187.29Z" style="fill: #6ea0af;fill-rule: evenodd"/>
  <path d="M334.48,173.69l-10.22-24.5a9.41,9.41,0,0,0-6.61-5.69,9.09,9.09,0,0,0-4-.06,9.53,9.53,0,0,0-7.75,10.3l.36,3.83a6.4,6.4,0,0,0,2.22,11.57l8.71,18.15,21-9.47Z" style="fill: #efecea;fill-rule: evenodd"/>
  <path d="M338,177.87l-21,9.58,2.29,4.92,3.43,7.28h28.68C352.86,184.91,338,177.87,338,177.87Z" style="fill: #6ea0af;fill-rule: evenodd"/>
  <path d="M326.13,170.22l-11.53.48,9,27.58L318.44,200a2.25,2.25,0,0,0-1.22,2h13.31a2.26,2.26,0,0,0,2.25-2.4Z" style="fill: #bc8860;fill-rule: evenodd"/>
  <path d="M276.65,170.8l11.58,26h23a2.86,2.86,0,0,1,2.79,2.88h-26a2.66,2.66,0,0,1-2.43-1.62l-10.4-23.45A2.87,2.87,0,0,1,276.65,170.8Z" style="fill: #293e40;fill-rule: evenodd"/>
  <path d="M199.81,199.59,202,176.48a12.63,12.63,0,0,1,5.08-9.5c6.1-4.48,15.7-10,15.7-10l12.87-.55A17.94,17.94,0,0,1,253,167.58l9.37,21.18a7.82,7.82,0,0,1-7.13,10.89H249.1l-15.53-.06Z" style="fill: #83b7a2;fill-rule: evenodd"/>
  <path d="M227.38,194.68l16.21-4.45,1,9.42L234,199.59l-10.63-.17A5.29,5.29,0,0,1,227.38,194.68Z" style="fill: #c28c75;fill-rule: evenodd"/>
  <path d="M230.27,197.86H219.34L215,173.66a2.08,2.08,0,0,0-2.06-1.68H174.47a1,1,0,0,0-1,1.14L178,198.33a1.56,1.56,0,0,0,1.57,1.32H234C234,198,232,197.86,230.27,197.86Z" style="fill: #293e40;fill-rule: evenodd"/>
  <path d="M231,152.39a11.29,11.29,0,0,0-13.72-8.28,11,11,0,0,0-6.33,4.26l-.83-.72-1,4.62a5,5,0,0,0-.24.9v.06a12.19,12.19,0,0,0,.18,4.8,11.53,11.53,0,0,0,5.86,7.38,8.3,8.3,0,0,0,15.56-5.76A12,12,0,0,0,231,152.39Z" style="fill: #c28c75;fill-rule: evenodd"/>
  <path d="M222.18,152v.43a5.76,5.76,0,0,0,3.78,5.42,2.61,2.61,0,0,1,2-2.34,2.71,2.71,0,0,1,3.29,1.91v.37h.06l1.42-6.41Z" style="fill: #293e40;fill-rule: evenodd"/>
  <path d="M262.87,136.49,240.1,139,234,82.54l42.48-4.74,4,36.58A20,20,0,0,1,262.87,136.49Z" style="fill: #b9dbcc;fill-rule: evenodd"/>
  <path d="M131,140.05a12.71,12.71,0,0,0-2-5,5.84,5.84,0,0,0,.72-2.7,5.71,5.71,0,0,0-10.85-2.46,9.16,9.16,0,0,0-1.8.18A12.11,12.11,0,0,0,107,142.63h-.59A14.38,14.38,0,1,0,120.79,157a16.29,16.29,0,0,0-.3-2.94,2.25,2.25,0,0,0,.6-.06A12.1,12.1,0,0,0,131,140.05Z" style="fill: #293e40;fill-rule: evenodd"/>
  <path d="M132.77,199.65l-1.31-16.85a7.07,7.07,0,0,0,2-9.86l-5.86-8.49-11.49-8.36c-4.79,4.54-9.28,7.41-6.89,19.12l1,18.22-1.79,6.22Z" style="fill: #aed0db;fill-rule: evenodd"/>
  <path d="M165.94,170.22l-12,26.56H130.32a2.92,2.92,0,0,0-2.92,2.87h26.8a2.72,2.72,0,0,0,2.5-1.61l10.67-24A2.91,2.91,0,0,0,165.94,170.22Z" style="fill: #293e40;fill-rule: evenodd"/>
  <path d="M148.6,194.46a6.75,6.75,0,0,0-3.91-1.69l-6.9-.85-10.63-1.75-1.74-8.77-12.73,3.33,1.68,6.16c.72,4.06,1.68,8.41,5.7,10h-.48a18.3,18.3,0,0,0,7.69-.36l11.35-2.66,12.91-1.15Z" style="fill: #925a5d;fill-rule: evenodd"/>
  <path d="M134.86,141.16l-.18-.55.36-.36a.72.72,0,0,0,.24-.72,1,1,0,0,0-.77-.61l-.42-.12a13.2,13.2,0,0,0-4.65-5.67l-3.27,4.71.77,4.52a3,3,0,0,1-4.35,2.78s-4.58,9.47-6.37,10.74l11.44,8.45-1.91-4,1.67-5.8c.83-.48,1.61-1,2.2-1.38l1.13-.73A9.85,9.85,0,0,0,134.86,141.16Z" style="fill: #925a5d;fill-rule: evenodd"/>
  <circle cx="120.93" cy="145.49" r="2.94" style="fill: #925a5d"/>
  <path d="M123.57,139.75a4.87,4.87,0,1,1-4.69,8.54,4.87,4.87,0,1,1,4.69-8.54Z" style="fill: #fff;fill-rule: evenodd"/>
  <polygon points="122.11 142.28 119.66 143.73 112.1 131.56 114.54 130.19 122.11 142.28" style="fill: #fff;fill-rule: evenodd"/>
  <path d="M278.1,127.84l-3.67-4.72-.55.72a1.64,1.64,0,0,0-.24,1.67l2.2,5.85Z" style="fill: #bc8860;fill-rule: evenodd"/>
  <path d="M230.71,163.15c0-.11.3-5.3.3-5.3l-4.71,1.34Z" style="fill: #c28c75;fill-rule: evenodd"/>
  <path d="M208.7,149c-.06.06-.06.06-.06.12a4.16,4.16,0,0,0,4.27,4,4.35,4.35,0,0,0,4-2.55C214.47,150.15,210.86,149.42,208.7,149Z" style="fill: #293e40;fill-rule: evenodd"/>
  <path d="M203.78,146.76l6.46.12a11.44,11.44,0,0,1,13.65-8.82A11.68,11.68,0,0,1,232.57,152l-.6,2.92-29.81-6.81A1.67,1.67,0,0,1,203.78,146.76Z" style="fill: #749daa;fill-rule: evenodd"/>
</svg>
