<svg id="Layer_1" data-name="Layer 1" xmlns="http://www.w3.org/2000/svg" viewBox="0 0 374.33 255.83">
  <title>nugget_graph_4it</title>
  <rect x="202.35" y="27.31" width="50" height="186.26" style="fill: #8f89bf"/>
  <rect x="279.52" y="73.06" width="50" height="140.51" style="fill: #e3e2e3"/>
  <g>
    <path d="M151.79,60a4.59,4.59,0,0,1,3.28,1.16,4.17,4.17,0,0,1,1.22,3.17A4.62,4.62,0,0,1,154.82,68a6.17,6.17,0,0,1-4.2,1.28,8.12,8.12,0,0,1-3.83-.77V65.93a8,8,0,0,0,1.79.66,7.5,7.5,0,0,0,1.93.26c1.84,0,2.75-.75,2.75-2.25s-.95-2.15-2.85-2.15a6.74,6.74,0,0,0-1.13.1,7.65,7.65,0,0,0-1,.22l-1.2-.64.53-7.25h7.72v2.55h-5.08L150,60.22l.34-.07A6.65,6.65,0,0,1,151.79,60Z" style="fill: #314041"/>
    <path d="M159.39,69.1l5.34-11.67h-7V54.9h10.2v1.89L162.54,69.1Z" style="fill: #314041"/>
    <path d="M175.93,59.12a5.44,5.44,0,0,1-.87,3.36,3,3,0,0,1-2.54,1.12A2.92,2.92,0,0,1,170,62.45a5.46,5.46,0,0,1-.87-3.33c0-3,1.11-4.44,3.35-4.44a3,3,0,0,1,2.53,1.15A5.37,5.37,0,0,1,175.93,59.12Zm-4.31,0a5.65,5.65,0,0,0,.22,1.84c.14.41.38.61.7.61.62,0,.93-.82.93-2.45s-.31-2.43-.93-2.43c-.32,0-.56.2-.7.6A5.54,5.54,0,0,0,171.62,59.14Zm11-4.26L174.73,69.1H172.4l7.88-14.22Zm3.26,9.92a5.43,5.43,0,0,1-.86,3.35,3,3,0,0,1-2.54,1.12A2.92,2.92,0,0,1,180,68.12a5.43,5.43,0,0,1-.88-3.32c0-3,1.12-4.45,3.36-4.45A3,3,0,0,1,185,61.51,5.3,5.3,0,0,1,185.88,64.8Zm-4.3,0a6,6,0,0,0,.21,1.84c.15.41.39.61.71.61.62,0,.93-.82.93-2.45s-.31-2.43-.93-2.43c-.32,0-.56.2-.71.6A5.92,5.92,0,0,0,181.58,64.82Z" style="fill: #314041"/>
  </g>
  <g>
    <path d="M294.58,144.36h-1.71v2.95h-2.94v-2.95h-6.07v-2.09l6.24-9.18h2.77V142h1.71ZM289.93,142v-2.42c0-.4,0-1,.05-1.75s.06-1.21.08-1.33H290a11,11,0,0,1-.87,1.56l-2.6,3.94Z" style="fill: #314041"/>
    <path d="M305.07,136.27a3.31,3.31,0,0,1-.8,2.26,4.15,4.15,0,0,1-2.27,1.29v.06a4.54,4.54,0,0,1,2.61,1,2.93,2.93,0,0,1,.88,2.24,3.78,3.78,0,0,1-1.49,3.2,6.85,6.85,0,0,1-4.25,1.14,10.17,10.17,0,0,1-4.1-.77v-2.55a10.26,10.26,0,0,0,1.82.68,7.82,7.82,0,0,0,2,.26,3.78,3.78,0,0,0,2.2-.51,1.83,1.83,0,0,0,.71-1.62,1.46,1.46,0,0,0-.82-1.42,6,6,0,0,0-2.6-.42h-1.08v-2.3h1.1a5,5,0,0,0,2.41-.44,1.55,1.55,0,0,0,.77-1.48c0-1.08-.68-1.61-2-1.61a4.48,4.48,0,0,0-1.42.23,6.55,6.55,0,0,0-1.61.81l-1.39-2.08a7.75,7.75,0,0,1,4.64-1.4,5.94,5.94,0,0,1,3.48.9A2.86,2.86,0,0,1,305.07,136.27Z" style="fill: #314041"/>
    <path d="M313.63,137.33a5.51,5.51,0,0,1-.86,3.36,3,3,0,0,1-2.54,1.12,2.92,2.92,0,0,1-2.48-1.15,5.46,5.46,0,0,1-.88-3.33c0-3,1.12-4.45,3.36-4.45a3,3,0,0,1,2.52,1.16A5.3,5.3,0,0,1,313.63,137.33Zm-4.31,0a5.94,5.94,0,0,0,.22,1.84c.15.41.38.61.71.61.62,0,.93-.82.93-2.45s-.31-2.43-.93-2.43c-.33,0-.56.2-.71.59A5.89,5.89,0,0,0,309.32,137.35Zm11-4.26-7.88,14.22H310.1L318,133.09Zm3.27,9.92a5.5,5.5,0,0,1-.86,3.35,3,3,0,0,1-2.54,1.12,2.92,2.92,0,0,1-2.48-1.15,5.38,5.38,0,0,1-.88-3.32c0-3,1.12-4.45,3.36-4.45a3,3,0,0,1,2.52,1.16A5.28,5.28,0,0,1,323.59,143Zm-4.31,0a5.94,5.94,0,0,0,.22,1.84c.15.41.38.61.71.61.62,0,.93-.82.93-2.45s-.31-2.43-.93-2.43c-.33,0-.56.2-.71.59A5.94,5.94,0,0,0,319.28,143Z" style="fill: #314041"/>
  </g>
  <g>
    <path d="M65.32,94.13V81.28h1.49V94.13Z" style="fill: #314041"/>
    <path d="M71.57,94.13H70.11V80.45h1.46Z" style="fill: #314041"/>
    <path d="M85.56,91.5a2.42,2.42,0,0,1-1,2.07,4.71,4.71,0,0,1-2.82.73,6.14,6.14,0,0,1-3-.6V92.34a7.08,7.08,0,0,0,1.48.56,6.58,6.58,0,0,0,1.54.2,3.42,3.42,0,0,0,1.76-.37,1.25,1.25,0,0,0,.12-2.07,7.69,7.69,0,0,0-1.9-1,10,10,0,0,1-1.91-.87A2.51,2.51,0,0,1,79,88a2.13,2.13,0,0,1-.28-1.13,2.15,2.15,0,0,1,1-1.86,4.4,4.4,0,0,1,2.62-.68,7.79,7.79,0,0,1,3,.63l-.52,1.19a7,7,0,0,0-2.63-.6,3.15,3.15,0,0,0-1.57.32,1,1,0,0,0-.52.9,1,1,0,0,0,.2.66,2,2,0,0,0,.63.52,15.9,15.9,0,0,0,1.69.71A6.52,6.52,0,0,1,85,89.91,2.21,2.21,0,0,1,85.56,91.5Z" style="fill: #314041"/>
    <path d="M96.25,89.3A5.32,5.32,0,0,1,95.06,93a4.18,4.18,0,0,1-3.28,1.32,4.35,4.35,0,0,1-2.29-.6A4,4,0,0,1,87.94,92a6.16,6.16,0,0,1-.55-2.66,5.34,5.34,0,0,1,1.18-3.67,4.2,4.2,0,0,1,3.27-1.31,4.08,4.08,0,0,1,3.21,1.34A5.27,5.27,0,0,1,96.25,89.3Zm-7.34,0a4.57,4.57,0,0,0,.73,2.81,2.93,2.93,0,0,0,4.35,0,4.52,4.52,0,0,0,.74-2.82A4.46,4.46,0,0,0,94,86.51a2.58,2.58,0,0,0-2.19-1,2.54,2.54,0,0,0-2.16.94A4.48,4.48,0,0,0,88.91,89.3Z" style="fill: #314041"/>
    <path d="M103.14,85.63h-2.45v8.5H99.23v-8.5H97.51V85l1.72-.53V83.9c0-2.36,1-3.55,3.11-3.55a6.59,6.59,0,0,1,1.79.31l-.38,1.17a4.84,4.84,0,0,0-1.44-.27,1.39,1.39,0,0,0-1.22.55,3,3,0,0,0-.4,1.76v.62h2.45Z" style="fill: #314041"/>
    <path d="M108,93.1a4.56,4.56,0,0,0,.75-.06,5.41,5.41,0,0,0,.57-.12V94a2.94,2.94,0,0,1-.7.19,5.07,5.07,0,0,1-.83.07q-2.79,0-2.79-2.94V85.63h-1.38v-.71l1.38-.6.61-2.06h.85v2.23h2.79v1.14h-2.79V91.3a2,2,0,0,0,.41,1.33A1.44,1.44,0,0,0,108,93.1Z" style="fill: #314041"/>
    <path d="M119.12,94.13l-1.76-5.66c-.11-.34-.32-1.13-.63-2.35h-.07c-.23,1-.44,1.82-.61,2.37l-1.82,5.64h-1.69l-2.63-9.64h1.53c.62,2.42,1.1,4.27,1.42,5.53a22.35,22.35,0,0,1,.56,2.56h.07c.06-.33.17-.77.31-1.3s.27-1,.38-1.26l1.76-5.53h1.58L119.25,90a18.9,18.9,0,0,1,.66,2.54H120c0-.21.09-.53.19-1s.72-2.81,1.84-7.1h1.51l-2.66,9.64Z" style="fill: #314041"/>
    <path d="M131.18,94.13l-.29-1.37h-.07A4,4,0,0,1,129.38,94a4.39,4.39,0,0,1-1.78.32,3.18,3.18,0,0,1-2.25-.74,2.69,2.69,0,0,1-.81-2.1q0-2.91,4.66-3.06l1.64-.05v-.6a2.42,2.42,0,0,0-.49-1.67,2,2,0,0,0-1.56-.54,6.37,6.37,0,0,0-2.72.74l-.45-1.12a6.32,6.32,0,0,1,1.56-.6,6.56,6.56,0,0,1,1.7-.22,3.65,3.65,0,0,1,2.55.76,3.17,3.17,0,0,1,.83,2.45v6.58Zm-3.29-1a3,3,0,0,0,2.14-.75,2.79,2.79,0,0,0,.77-2.09v-.87l-1.45.06a5.28,5.28,0,0,0-2.51.54,1.62,1.62,0,0,0-.77,1.49,1.48,1.48,0,0,0,.48,1.2A1.94,1.94,0,0,0,127.89,93.1Z" style="fill: #314041"/>
    <path d="M139.66,84.32a5.73,5.73,0,0,1,1.15.1l-.2,1.36a4.91,4.91,0,0,0-1.05-.14,2.57,2.57,0,0,0-2,1,3.45,3.45,0,0,0-.83,2.37v5.17h-1.46V84.49h1.2l.17,1.79h.07A4.27,4.27,0,0,1,138,84.83,2.93,2.93,0,0,1,139.66,84.32Z" style="fill: #314041"/>
    <path d="M146.69,94.3a4.4,4.4,0,0,1-3.37-1.3,5,5,0,0,1-1.24-3.61,5.55,5.55,0,0,1,1.15-3.7,3.78,3.78,0,0,1,3.08-1.37,3.59,3.59,0,0,1,2.86,1.19,4.52,4.52,0,0,1,1.06,3.14v.92h-6.64a3.86,3.86,0,0,0,.86,2.58,3,3,0,0,0,2.29.88,7.77,7.77,0,0,0,3.07-.65v1.3a8,8,0,0,1-1.46.48A8.72,8.72,0,0,1,146.69,94.3Zm-.4-8.76a2.37,2.37,0,0,0-1.85.76,3.46,3.46,0,0,0-.81,2.09h5a3.23,3.23,0,0,0-.61-2.12A2.17,2.17,0,0,0,146.29,85.54Z" style="fill: #314041"/>
    <path d="M161.46,94.3a4.41,4.41,0,0,1-3.37-1.3,5,5,0,0,1-1.23-3.61,5.6,5.6,0,0,1,1.14-3.7,3.8,3.8,0,0,1,3.08-1.37A3.63,3.63,0,0,1,164,85.51,4.57,4.57,0,0,1,165,88.65v.92h-6.63a3.85,3.85,0,0,0,.85,2.58,3,3,0,0,0,2.29.88,7.82,7.82,0,0,0,3.08-.65v1.3a8.27,8.27,0,0,1-1.46.48A8.83,8.83,0,0,1,161.46,94.3Zm-.4-8.76a2.37,2.37,0,0,0-1.85.76,3.46,3.46,0,0,0-.81,2.09h5a3.23,3.23,0,0,0-.62-2.12A2.15,2.15,0,0,0,161.06,85.54Zm1-2.32h-1a13.9,13.9,0,0,1-1.36-1.3,10,10,0,0,1-1.13-1.4v-.18h1.78a14.41,14.41,0,0,0,.78,1.4,14.67,14.67,0,0,0,.89,1.26Z" style="fill: #314041"/>
    <path d="M173.62,94.13h-1.45V80.45h1.45Z" style="fill: #314041"/>
    <path d="M182.64,94.13l-.29-1.37h-.07A4,4,0,0,1,180.84,94a4.39,4.39,0,0,1-1.78.32,3.18,3.18,0,0,1-2.25-.74,2.69,2.69,0,0,1-.81-2.1q0-2.91,4.66-3.06l1.64-.05v-.6a2.42,2.42,0,0,0-.49-1.67,2,2,0,0,0-1.56-.54,6.37,6.37,0,0,0-2.72.74l-.45-1.12a6.32,6.32,0,0,1,1.56-.6,6.56,6.56,0,0,1,1.7-.22,3.65,3.65,0,0,1,2.55.76,3.17,3.17,0,0,1,.83,2.45v6.58Zm-3.29-1a3,3,0,0,0,2.14-.75,2.79,2.79,0,0,0,.77-2.09v-.87l-1.46.06a5.24,5.24,0,0,0-2.5.54,1.62,1.62,0,0,0-.77,1.49,1.48,1.48,0,0,0,.48,1.2A1.94,1.94,0,0,0,179.35,93.1Z" style="fill: #314041"/>
    <path d="M66.28,115.9a4.16,4.16,0,0,1-1.72-.34,3.3,3.3,0,0,1-1.31-1.07h-.1a12.84,12.84,0,0,1,.1,1.6v4H61.79v-14H63l.2,1.32h.07a3.35,3.35,0,0,1,1.31-1.14,3.92,3.92,0,0,1,1.72-.35,3.53,3.53,0,0,1,3,1.31,7,7,0,0,1,0,7.36A3.56,3.56,0,0,1,66.28,115.9Zm-.22-8.74a2.59,2.59,0,0,0-2.13.81,4.23,4.23,0,0,0-.68,2.61v.32a4.87,4.87,0,0,0,.68,2.91,2.57,2.57,0,0,0,2.17.87,2.26,2.26,0,0,0,2-1,4.72,4.72,0,0,0,.71-2.79,4.54,4.54,0,0,0-.71-2.76A2.32,2.32,0,0,0,66.06,107.16Z" style="fill: #314041"/>
    <path d="M77.22,105.92a5.79,5.79,0,0,1,1.15.1l-.2,1.36a4.91,4.91,0,0,0-1.06-.14,2.59,2.59,0,0,0-2,1,3.49,3.49,0,0,0-.83,2.37v5.17H72.82v-9.64H74l.16,1.79h.07a4.19,4.19,0,0,1,1.3-1.45A2.88,2.88,0,0,1,77.22,105.92Z" style="fill: #314041"/>
    <path d="M80.05,103.48a1,1,0,0,1,.24-.73.85.85,0,0,1,.62-.23.91.91,0,0,1,.61.23,1,1,0,0,1,.25.73,1,1,0,0,1-.25.74.87.87,0,0,1-.61.24.86.86,0,0,1-.62-.24A1,1,0,0,1,80.05,103.48Zm1.58,12.25H80.17v-9.64h1.46Z" style="fill: #314041"/>
    <path d="M91.31,115.73v-6.24a2.48,2.48,0,0,0-.53-1.75,2.18,2.18,0,0,0-1.68-.58,2.79,2.79,0,0,0-2.22.81,4.2,4.2,0,0,0-.7,2.7v5.06H84.72v-9.64h1.19l.24,1.32h.07a3,3,0,0,1,1.25-1.1,4.11,4.11,0,0,1,1.81-.39,3.62,3.62,0,0,1,2.61.84,3.54,3.54,0,0,1,.88,2.68v6.29Z" style="fill: #314041"/>
    <path d="M99.62,115.9a4.12,4.12,0,0,1-3.24-1.29A5.3,5.3,0,0,1,95.23,111a5.42,5.42,0,0,1,1.17-3.73,4.19,4.19,0,0,1,3.32-1.32,6.64,6.64,0,0,1,1.39.15,4.27,4.27,0,0,1,1.08.35l-.44,1.24a6.27,6.27,0,0,0-1.06-.32,4.43,4.43,0,0,0-1-.13c-2,0-2.93,1.25-2.93,3.74a4.51,4.51,0,0,0,.71,2.73,2.51,2.51,0,0,0,2.13.95,6.55,6.55,0,0,0,2.46-.52v1.29A5.28,5.28,0,0,1,99.62,115.9Z" style="fill: #314041"/>
    <path d="M104.22,103.48a1,1,0,0,1,.24-.73.85.85,0,0,1,.62-.23.91.91,0,0,1,.61.23,1,1,0,0,1,.25.73,1,1,0,0,1-.25.74.87.87,0,0,1-.61.24.86.86,0,0,1-.62-.24A1,1,0,0,1,104.22,103.48Zm1.58,12.25h-1.46v-9.64h1.46Z" style="fill: #314041"/>
    <path d="M113.37,115.9a4.18,4.18,0,0,1-1.71-.34,3.3,3.3,0,0,1-1.31-1.07h-.1a12.84,12.84,0,0,1,.1,1.6v4h-1.46v-14h1.19l.2,1.32h.07a3.35,3.35,0,0,1,1.31-1.14,3.9,3.9,0,0,1,1.71-.35,3.54,3.54,0,0,1,3,1.31,5.71,5.71,0,0,1,1,3.67,5.79,5.79,0,0,1-1.05,3.69A3.6,3.6,0,0,1,113.37,115.9Zm-.21-8.74A2.59,2.59,0,0,0,111,108a4.23,4.23,0,0,0-.68,2.61v.32a4.87,4.87,0,0,0,.68,2.91,2.57,2.57,0,0,0,2.17.87,2.26,2.26,0,0,0,2-1,4.72,4.72,0,0,0,.71-2.79,4.54,4.54,0,0,0-.71-2.76A2.32,2.32,0,0,0,113.16,107.16Z" style="fill: #314041"/>
    <path d="M125.85,115.73l-.29-1.38h-.07a4,4,0,0,1-1.44,1.23,4.28,4.28,0,0,1-1.79.32,3.17,3.17,0,0,1-2.24-.74,2.66,2.66,0,0,1-.82-2.1q0-2.91,4.67-3.06l1.63,0v-.6a2.47,2.47,0,0,0-.48-1.67,2,2,0,0,0-1.56-.54,6.41,6.41,0,0,0-2.73.74l-.45-1.12a7,7,0,0,1,3.26-.83,3.7,3.7,0,0,1,2.56.77,3.21,3.21,0,0,1,.83,2.45v6.58Zm-3.3-1a3,3,0,0,0,2.14-.75,2.75,2.75,0,0,0,.78-2.09V111l-1.46.06a5.28,5.28,0,0,0-2.51.54,1.64,1.64,0,0,0-.77,1.49,1.48,1.48,0,0,0,.48,1.2A2,2,0,0,0,122.55,114.7Z" style="fill: #314041"/>
    <path d="M131.39,115.73h-1.46V102.05h1.46Z" style="fill: #314041"/>
    <path d="M138.56,115.9a4.4,4.4,0,0,1-3.37-1.3A5,5,0,0,1,134,111a5.55,5.55,0,0,1,1.15-3.7,3.78,3.78,0,0,1,3.08-1.37,3.61,3.61,0,0,1,2.86,1.19,4.52,4.52,0,0,1,1.06,3.14v.92h-6.64a3.86,3.86,0,0,0,.86,2.58,3,3,0,0,0,2.29.88,7.85,7.85,0,0,0,3.08-.65v1.3a8.35,8.35,0,0,1-1.47.48A8.72,8.72,0,0,1,138.56,115.9Zm-.4-8.76a2.4,2.4,0,0,0-1.85.75,3.51,3.51,0,0,0-.81,2.1h5a3.23,3.23,0,0,0-.61-2.12A2.17,2.17,0,0,0,138.16,107.14Z" style="fill: #314041"/>
    <path d="M155.19,115.73l-.3-1.38h-.07a4,4,0,0,1-1.43,1.23,4.31,4.31,0,0,1-1.79.32,3.2,3.2,0,0,1-2.25-.74,2.69,2.69,0,0,1-.81-2.1q0-2.91,4.67-3.06l1.63,0v-.6a2.42,2.42,0,0,0-.49-1.67,2,2,0,0,0-1.56-.54,6.37,6.37,0,0,0-2.72.74l-.45-1.12a7,7,0,0,1,3.26-.83,3.7,3.7,0,0,1,2.56.77,3.21,3.21,0,0,1,.83,2.45v6.58Zm-3.3-1A3,3,0,0,0,154,114a2.75,2.75,0,0,0,.78-2.09V111l-1.46.06a5.28,5.28,0,0,0-2.51.54,1.64,1.64,0,0,0-.77,1.49,1.48,1.48,0,0,0,.48,1.2A2,2,0,0,0,151.89,114.7Z" style="fill: #314041"/>
    <path d="M163.67,105.92a5.79,5.79,0,0,1,1.15.1l-.21,1.36a4.83,4.83,0,0,0-1.05-.14,2.57,2.57,0,0,0-2,1,3.49,3.49,0,0,0-.83,2.37v5.17h-1.46v-9.64h1.21l.16,1.79h.07a4.19,4.19,0,0,1,1.3-1.45A2.88,2.88,0,0,1,163.67,105.92Z" style="fill: #314041"/>
    <path d="M170.69,115.9a4.41,4.41,0,0,1-3.37-1.3,5,5,0,0,1-1.24-3.61,5.61,5.61,0,0,1,1.15-3.7,3.78,3.78,0,0,1,3.08-1.37,3.63,3.63,0,0,1,2.87,1.19,4.57,4.57,0,0,1,1,3.14v.92H167.6a3.8,3.8,0,0,0,.85,2.58,3,3,0,0,0,2.29.88,7.85,7.85,0,0,0,3.08-.65v1.3a8.35,8.35,0,0,1-1.47.48A8.72,8.72,0,0,1,170.69,115.9Zm-.4-8.76a2.4,2.4,0,0,0-1.85.75,3.51,3.51,0,0,0-.81,2.1h5a3.23,3.23,0,0,0-.62-2.12A2.17,2.17,0,0,0,170.29,107.14Z" style="fill: #314041"/>
    <path d="M182.64,115.73l-.29-1.38h-.07a4,4,0,0,1-1.44,1.23,4.23,4.23,0,0,1-1.78.32,3.18,3.18,0,0,1-2.25-.74,2.69,2.69,0,0,1-.81-2.1q0-2.91,4.66-3.06l1.64,0v-.6a2.42,2.42,0,0,0-.49-1.67,2,2,0,0,0-1.56-.54,6.37,6.37,0,0,0-2.72.74l-.45-1.12a6.76,6.76,0,0,1,1.56-.61,7,7,0,0,1,1.7-.22,3.65,3.65,0,0,1,2.55.77,3.17,3.17,0,0,1,.83,2.45v6.58Zm-3.29-1a3,3,0,0,0,2.14-.75,2.79,2.79,0,0,0,.77-2.09V111l-1.46.06a5.24,5.24,0,0,0-2.5.54,1.62,1.62,0,0,0-.77,1.49,1.48,1.48,0,0,0,.48,1.2A1.94,1.94,0,0,0,179.35,114.7Z" style="fill: #314041"/>
    <path d="M41.32,136.3a4.56,4.56,0,0,0,.75-.06,5.41,5.41,0,0,0,.57-.12v1.12a2.94,2.94,0,0,1-.7.19,5.16,5.16,0,0,1-.83.07q-2.79,0-2.79-2.94v-5.73H36.94v-.71l1.38-.6.61-2.06h.85v2.23h2.79v1.14H39.78v5.67a1.91,1.91,0,0,0,.41,1.33A1.43,1.43,0,0,0,41.32,136.3Z" style="fill: #314041"/>
    <path d="M48.63,137.5a4.43,4.43,0,0,1-3.37-1.3A5,5,0,0,1,44,132.59a5.55,5.55,0,0,1,1.15-3.7,3.78,3.78,0,0,1,3.08-1.37,3.64,3.64,0,0,1,2.86,1.19,4.52,4.52,0,0,1,1.06,3.14v.92H45.54a3.86,3.86,0,0,0,.86,2.58,3,3,0,0,0,2.29.88,7.8,7.8,0,0,0,3.07-.65v1.3a8,8,0,0,1-1.46.48A8.83,8.83,0,0,1,48.63,137.5Zm-.39-8.76a2.37,2.37,0,0,0-1.85.76,3.46,3.46,0,0,0-.81,2.09h5a3.23,3.23,0,0,0-.61-2.12A2.17,2.17,0,0,0,48.24,128.74Z" style="fill: #314041"/>
    <path d="M58.51,137.5a4.12,4.12,0,0,1-3.23-1.28,5.29,5.29,0,0,1-1.15-3.65,5.48,5.48,0,0,1,1.16-3.73,4.21,4.21,0,0,1,3.32-1.32,6.57,6.57,0,0,1,1.39.15,4.36,4.36,0,0,1,1.09.35l-.45,1.24a6.16,6.16,0,0,0-1-.32,4.5,4.5,0,0,0-1-.13q-2.94,0-2.94,3.74a4.44,4.44,0,0,0,.72,2.73,2.48,2.48,0,0,0,2.12.95,6.41,6.41,0,0,0,2.47-.52V137A5.22,5.22,0,0,1,58.51,137.5Z" style="fill: #314041"/>
    <path d="M69.83,137.33V131.1a2.49,2.49,0,0,0-.54-1.76,2.18,2.18,0,0,0-1.68-.58,2.76,2.76,0,0,0-2.21.81,4.14,4.14,0,0,0-.71,2.7v5.06H63.23v-9.64h1.19l.24,1.32h.07a3,3,0,0,1,1.25-1.1,4.11,4.11,0,0,1,1.81-.39,3.67,3.67,0,0,1,2.62.84,3.58,3.58,0,0,1,.87,2.68v6.29Z" style="fill: #314041"/>
    <path d="M82.6,132.5a5.32,5.32,0,0,1-1.19,3.68,4.18,4.18,0,0,1-3.28,1.32,4.37,4.37,0,0,1-2.29-.6,4,4,0,0,1-1.55-1.74,6.16,6.16,0,0,1-.54-2.66,5.34,5.34,0,0,1,1.17-3.67,4.2,4.2,0,0,1,3.27-1.31,4.08,4.08,0,0,1,3.21,1.34A5.27,5.27,0,0,1,82.6,132.5Zm-7.34,0a4.5,4.5,0,0,0,.74,2.81,2.54,2.54,0,0,0,2.17,1,2.57,2.57,0,0,0,2.17-1,4.52,4.52,0,0,0,.74-2.82,4.46,4.46,0,0,0-.74-2.79,2.62,2.62,0,0,0-2.19-1,2.54,2.54,0,0,0-2.16.94A4.48,4.48,0,0,0,75.26,132.5Z" style="fill: #314041"/>
    <path d="M86.61,137.33H85.15V123.65h1.46Z" style="fill: #314041"/>
    <path d="M98,132.5a5.32,5.32,0,0,1-1.19,3.68,4.17,4.17,0,0,1-3.27,1.32,4.38,4.38,0,0,1-2.3-.6,4.1,4.1,0,0,1-1.55-1.74,6.16,6.16,0,0,1-.54-2.66,5.29,5.29,0,0,1,1.18-3.67,4.17,4.17,0,0,1,3.27-1.31,4.09,4.09,0,0,1,3.21,1.34A5.32,5.32,0,0,1,98,132.5Zm-7.34,0a4.57,4.57,0,0,0,.74,2.81,2.55,2.55,0,0,0,2.17,1,2.59,2.59,0,0,0,2.18-1,4.58,4.58,0,0,0,.74-2.82,4.53,4.53,0,0,0-.74-2.79,2.64,2.64,0,0,0-2.2-1,2.57,2.57,0,0,0-2.16.94A4.55,4.55,0,0,0,90.68,132.5Z" style="fill: #314041"/>
    <path d="M108.46,127.69v.93l-1.78.21a3.12,3.12,0,0,1,.44.8,3.06,3.06,0,0,1,.19,1.12,2.82,2.82,0,0,1-1,2.26,3.9,3.9,0,0,1-2.65.84,4.14,4.14,0,0,1-.81-.07A1.45,1.45,0,0,0,102,135a.63.63,0,0,0,.33.59,2.39,2.39,0,0,0,1.11.19h1.71a3.81,3.81,0,0,1,2.4.66,2.28,2.28,0,0,1,.84,1.91,2.74,2.74,0,0,1-1.28,2.44,6.9,6.9,0,0,1-3.75.84,5.09,5.09,0,0,1-2.91-.7,2.28,2.28,0,0,1-1-2,2.23,2.23,0,0,1,.57-1.52,2.81,2.81,0,0,1,1.58-.87,1.47,1.47,0,0,1-.62-.52,1.33,1.33,0,0,1-.25-.82,1.54,1.54,0,0,1,.28-.92,2.89,2.89,0,0,1,.89-.76,2.63,2.63,0,0,1-1.22-1.05,3.45,3.45,0,0,1,.48-4.12,3.83,3.83,0,0,1,2.69-.86,5.16,5.16,0,0,1,1.36.17Zm-7.68,11.25a1.3,1.3,0,0,0,.66,1.19,3.64,3.64,0,0,0,1.89.4,5.25,5.25,0,0,0,2.72-.55,1.66,1.66,0,0,0,.88-1.48,1.18,1.18,0,0,0-.48-1.09,3.79,3.79,0,0,0-1.82-.3h-1.75a2.3,2.3,0,0,0-1.55.47A1.69,1.69,0,0,0,100.78,138.94Zm.79-8.16a2,2,0,0,0,.57,1.53,2.3,2.3,0,0,0,1.59.52,1.86,1.86,0,0,0,2.14-2.08,1.92,1.92,0,0,0-2.16-2.17,2.15,2.15,0,0,0-1.59.56A2.24,2.24,0,0,0,101.57,130.78Z" style="fill: #314041"/>
    <path d="M110.32,125.08a1,1,0,0,1,.24-.73.85.85,0,0,1,.62-.23.88.88,0,0,1,.6.23,1.17,1.17,0,0,1,0,1.47.85.85,0,0,1-.6.24.86.86,0,0,1-.62-.24A1,1,0,0,1,110.32,125.08Zm1.58,12.25h-1.46v-9.64h1.46Z" style="fill: #314041"/>
    <path d="M118.84,137.5a4.15,4.15,0,0,1-3.24-1.28,5.34,5.34,0,0,1-1.14-3.65,5.43,5.43,0,0,1,1.16-3.73,4.19,4.19,0,0,1,3.32-1.32,6.64,6.64,0,0,1,1.39.15,4.51,4.51,0,0,1,1.09.35l-.45,1.24a6.27,6.27,0,0,0-1.06-.32,4.37,4.37,0,0,0-1-.13q-2.93,0-2.93,3.74a4.51,4.51,0,0,0,.71,2.73,2.51,2.51,0,0,0,2.13.95,6.45,6.45,0,0,0,2.47-.52V137A5.22,5.22,0,0,1,118.84,137.5Z" style="fill: #314041"/>
    <path d="M129.49,137.33l-.3-1.37h-.07a4,4,0,0,1-1.43,1.22,4.48,4.48,0,0,1-1.79.32,3.2,3.2,0,0,1-2.25-.74,2.69,2.69,0,0,1-.81-2.1q0-2.91,4.67-3.06l1.63,0V131a2.42,2.42,0,0,0-.49-1.67,2,2,0,0,0-1.55-.54,6.37,6.37,0,0,0-2.73.74l-.45-1.12a7.12,7.12,0,0,1,3.26-.82,3.7,3.7,0,0,1,2.56.76,3.21,3.21,0,0,1,.83,2.45v6.58Zm-3.3-1a3,3,0,0,0,2.14-.75,2.75,2.75,0,0,0,.78-2.09v-.87l-1.46.06a5.28,5.28,0,0,0-2.51.54,1.64,1.64,0,0,0-.77,1.49,1.52,1.52,0,0,0,.48,1.21A2,2,0,0,0,126.19,136.3Z" style="fill: #314041"/>
    <path d="M144.46,134.7a2.39,2.39,0,0,1-1,2.07,4.67,4.67,0,0,1-2.81.73,6.16,6.16,0,0,1-3-.6v-1.36a7.16,7.16,0,0,0,1.49.56,6.43,6.43,0,0,0,1.53.2,3.42,3.42,0,0,0,1.76-.37,1.2,1.2,0,0,0,.62-1.11,1.23,1.23,0,0,0-.49-1,7.88,7.88,0,0,0-1.9-1,10.14,10.14,0,0,1-1.92-.87,2.61,2.61,0,0,1-.84-.85,2.23,2.23,0,0,1-.28-1.13,2.15,2.15,0,0,1,1-1.86,4.51,4.51,0,0,1,2.63-.68,7.7,7.7,0,0,1,3,.63l-.52,1.19a6.92,6.92,0,0,0-2.63-.6,3.08,3.08,0,0,0-1.56.32,1,1,0,0,0-.53.9,1.1,1.1,0,0,0,.2.66,2,2,0,0,0,.64.52,14.6,14.6,0,0,0,1.68.71,6.34,6.34,0,0,1,2.32,1.26A2.21,2.21,0,0,1,144.46,134.7Z" style="fill: #314041"/>
    <path d="M148.21,127.69v6.25a2.5,2.5,0,0,0,.53,1.76,2.18,2.18,0,0,0,1.68.58,2.7,2.7,0,0,0,2.21-.83,4.13,4.13,0,0,0,.7-2.69v-5.07h1.46v9.64h-1.2l-.22-1.3h-.08a2.8,2.8,0,0,1-1.24,1.09,4,4,0,0,1-1.81.38,3.73,3.73,0,0,1-2.64-.83,3.57,3.57,0,0,1-.87-2.67v-6.31Z" style="fill: #314041"/>
    <path d="M166.41,137.5a4.12,4.12,0,0,1-3.24-1.28,5.29,5.29,0,0,1-1.15-3.65,5.43,5.43,0,0,1,1.17-3.73,4.18,4.18,0,0,1,3.32-1.32,6.48,6.48,0,0,1,1.38.15A4.23,4.23,0,0,1,169,128l-.45,1.24a6.16,6.16,0,0,0-1.05-.32,4.43,4.43,0,0,0-1-.13q-2.94,0-2.94,3.74a4.44,4.44,0,0,0,.72,2.73,2.51,2.51,0,0,0,2.12.95,6.37,6.37,0,0,0,2.47-.52V137A5.15,5.15,0,0,1,166.41,137.5Z" style="fill: #314041"/>
    <path d="M172.5,127.69v6.25a2.55,2.55,0,0,0,.53,1.76,2.18,2.18,0,0,0,1.68.58,2.7,2.7,0,0,0,2.21-.83,4.13,4.13,0,0,0,.7-2.69v-5.07h1.46v9.64h-1.2l-.21-1.3h-.08a2.89,2.89,0,0,1-1.25,1.09,4,4,0,0,1-1.81.38,3.7,3.7,0,0,1-2.63-.83A3.53,3.53,0,0,1,171,134v-6.31Z" style="fill: #314041"/>
    <path d="M182.05,125.08a1,1,0,0,1,.25-.73.83.83,0,0,1,.61-.23.89.89,0,0,1,.61.23,1.17,1.17,0,0,1,0,1.47.85.85,0,0,1-.61.24.84.84,0,0,1-.61-.24A1,1,0,0,1,182.05,125.08Zm1.58,12.25h-1.45v-9.64h1.45Z" style="fill: #314041"/>
    <path d="M27,158.93l-.29-1.37h-.07a4.07,4.07,0,0,1-1.43,1.22,4.48,4.48,0,0,1-1.79.32,3.18,3.18,0,0,1-2.25-.74,2.69,2.69,0,0,1-.81-2.1q0-2.91,4.67-3.06l1.63,0v-.6a2.42,2.42,0,0,0-.49-1.67,2,2,0,0,0-1.56-.54,6.37,6.37,0,0,0-2.72.74L21.45,150a6.94,6.94,0,0,1,1.56-.61,7.06,7.06,0,0,1,1.7-.21,3.65,3.65,0,0,1,2.55.76,3.17,3.17,0,0,1,.84,2.45v6.58Zm-3.29-1a3,3,0,0,0,2.14-.75,2.75,2.75,0,0,0,.78-2.09v-.87l-1.46.06a5.28,5.28,0,0,0-2.51.54,1.62,1.62,0,0,0-.77,1.49,1.48,1.48,0,0,0,.48,1.2A2,2,0,0,0,23.72,157.9Z" style="fill: #314041"/>
    <path d="M39,149.29v.93l-1.78.21a3.12,3.12,0,0,1,.44.8,3.06,3.06,0,0,1,.19,1.12,2.85,2.85,0,0,1-1,2.26,3.93,3.93,0,0,1-2.66.84,4.28,4.28,0,0,1-.81-.07,1.45,1.45,0,0,0-.93,1.24.63.63,0,0,0,.33.59,2.42,2.42,0,0,0,1.11.19h1.71a3.81,3.81,0,0,1,2.4.66,2.28,2.28,0,0,1,.84,1.91,2.74,2.74,0,0,1-1.28,2.44,6.9,6.9,0,0,1-3.75.84,5.09,5.09,0,0,1-2.91-.7,2.28,2.28,0,0,1-1-2,2.2,2.2,0,0,1,.56-1.52,2.81,2.81,0,0,1,1.58-.87,1.47,1.47,0,0,1-.62-.52,1.35,1.35,0,0,1-.25-.82,1.61,1.61,0,0,1,.28-.92,3,3,0,0,1,.89-.76,2.68,2.68,0,0,1-1.22-1.05,3.09,3.09,0,0,1-.47-1.69,3.15,3.15,0,0,1,1-2.44,3.88,3.88,0,0,1,2.69-.85,5.16,5.16,0,0,1,1.36.17ZM31.3,160.54a1.31,1.31,0,0,0,.66,1.19,3.64,3.64,0,0,0,1.89.4,5.22,5.22,0,0,0,2.72-.55,1.66,1.66,0,0,0,.88-1.48A1.18,1.18,0,0,0,37,159a3.79,3.79,0,0,0-1.82-.3H33.4a2.27,2.27,0,0,0-1.54.47A1.7,1.7,0,0,0,31.3,160.54Zm.79-8.16a2,2,0,0,0,.58,1.53,2.3,2.3,0,0,0,1.59.52,1.86,1.86,0,0,0,2.13-2.08,1.91,1.91,0,0,0-2.16-2.17,2.17,2.17,0,0,0-1.58.55A2.24,2.24,0,0,0,32.09,152.38Z" style="fill: #314041"/>
    <path d="M40.84,146.68a.94.94,0,0,1,.25-.73.81.81,0,0,1,.61-.23.89.89,0,0,1,.61.23,1,1,0,0,1,.25.73,1,1,0,0,1-.25.74.85.85,0,0,1-.61.24.82.82,0,0,1-.61-.24A1,1,0,0,1,40.84,146.68Zm1.58,12.25H41v-9.64h1.46Z" style="fill: #314041"/>
    <path d="M49.91,149.12a5.73,5.73,0,0,1,1.15.1l-.2,1.36a4.91,4.91,0,0,0-1.06-.14,2.6,2.6,0,0,0-2,.95,3.49,3.49,0,0,0-.83,2.37v5.17H45.52v-9.64h1.2l.17,1.79H47a4.07,4.07,0,0,1,1.29-1.45A2.9,2.9,0,0,1,49.91,149.12Z" style="fill: #314041"/>
    <path d="M56.93,159.1a4.41,4.41,0,0,1-3.37-1.3,5,5,0,0,1-1.23-3.61,5.6,5.6,0,0,1,1.14-3.7,3.81,3.81,0,0,1,3.08-1.37,3.61,3.61,0,0,1,2.87,1.19,4.57,4.57,0,0,1,1,3.14v.92H53.84a3.85,3.85,0,0,0,.85,2.58,3,3,0,0,0,2.29.88,7.82,7.82,0,0,0,3.08-.65v1.3a8.27,8.27,0,0,1-1.46.48A8.83,8.83,0,0,1,56.93,159.1Zm-.39-8.76a2.36,2.36,0,0,0-1.85.76,3.46,3.46,0,0,0-.82,2.09h5a3.23,3.23,0,0,0-.62-2.12A2.15,2.15,0,0,0,56.54,150.34Z" style="fill: #314041"/>
    <path d="M72.12,159.1a4,4,0,0,1-1.72-.35,3.17,3.17,0,0,1-1.3-1.06H69a12.92,12.92,0,0,1,.11,1.6v4H67.64v-14h1.18l.21,1.32h.07a3.28,3.28,0,0,1,1.31-1.14,3.84,3.84,0,0,1,1.71-.35,3.55,3.55,0,0,1,3,1.31,7,7,0,0,1,0,7.36A3.59,3.59,0,0,1,72.12,159.1Zm-.21-8.74a2.6,2.6,0,0,0-2.14.81,4.23,4.23,0,0,0-.67,2.61v.32a4.87,4.87,0,0,0,.67,2.91,2.58,2.58,0,0,0,2.17.87,2.26,2.26,0,0,0,2-1,4.8,4.8,0,0,0,.71-2.79,4.61,4.61,0,0,0-.71-2.76A2.33,2.33,0,0,0,71.91,150.36Z" style="fill: #314041"/>
    <path d="M82.74,159.1a4.4,4.4,0,0,1-3.37-1.3,5,5,0,0,1-1.24-3.61,5.55,5.55,0,0,1,1.15-3.7,3.78,3.78,0,0,1,3.08-1.37,3.59,3.59,0,0,1,2.86,1.19,4.52,4.52,0,0,1,1.06,3.14v.92H79.64A3.86,3.86,0,0,0,80.5,157a3,3,0,0,0,2.29.88,7.77,7.77,0,0,0,3.07-.65v1.3a8,8,0,0,1-1.46.48A8.72,8.72,0,0,1,82.74,159.1Zm-.4-8.76a2.37,2.37,0,0,0-1.85.76,3.46,3.46,0,0,0-.81,2.09h5a3.23,3.23,0,0,0-.61-2.12A2.17,2.17,0,0,0,82.34,150.34Z" style="fill: #314041"/>
    <path d="M93.16,149.12a5.73,5.73,0,0,1,1.15.1l-.2,1.36a4.91,4.91,0,0,0-1.06-.14,2.57,2.57,0,0,0-2,.95,3.45,3.45,0,0,0-.84,2.37v5.17H88.77v-9.64H90l.17,1.79h.07a4.17,4.17,0,0,1,1.29-1.45A2.9,2.9,0,0,1,93.16,149.12Z" style="fill: #314041"/>
    <path d="M113.07,158.93v-6.27a2.66,2.66,0,0,0-.49-1.73,1.92,1.92,0,0,0-1.53-.57,2.49,2.49,0,0,0-2,.78,3.73,3.73,0,0,0-.65,2.41v5.38h-1.46v-6.27a2.61,2.61,0,0,0-.49-1.73,1.93,1.93,0,0,0-1.54-.57,2.36,2.36,0,0,0-2,.82,4.4,4.4,0,0,0-.64,2.69v5.06h-1.46v-9.64H102l.23,1.32h.07a3,3,0,0,1,1.17-1.1,3.59,3.59,0,0,1,1.68-.39,2.85,2.85,0,0,1,3,1.63h.07a3.12,3.12,0,0,1,1.25-1.19,3.83,3.83,0,0,1,1.87-.44,3.24,3.24,0,0,1,2.44.84,3.71,3.71,0,0,1,.82,2.68v6.29Z" style="fill: #314041"/>
    <path d="M117.41,146.68a.94.94,0,0,1,.25-.73.83.83,0,0,1,.61-.23.89.89,0,0,1,.61.23,1,1,0,0,1,.25.73,1,1,0,0,1-.25.74.85.85,0,0,1-.61.24.84.84,0,0,1-.61-.24A1,1,0,0,1,117.41,146.68ZM119,158.93h-1.46v-9.64H119Z" style="fill: #314041"/>
    <path d="M130,149.29v.93l-1.78.21a2.84,2.84,0,0,1,.43.8,3.06,3.06,0,0,1,.2,1.12,2.82,2.82,0,0,1-1,2.26,3.9,3.9,0,0,1-2.65.84,4.14,4.14,0,0,1-.81-.07,1.45,1.45,0,0,0-.93,1.24.63.63,0,0,0,.32.59,2.47,2.47,0,0,0,1.12.19h1.7a3.82,3.82,0,0,1,2.41.66,2.28,2.28,0,0,1,.84,1.91,2.73,2.73,0,0,1-1.29,2.44,6.84,6.84,0,0,1-3.74.84,5.15,5.15,0,0,1-2.92-.7,2.28,2.28,0,0,1-1-2,2.25,2.25,0,0,1,.56-1.52,2.88,2.88,0,0,1,1.59-.87,1.42,1.42,0,0,1-.62-.52,1.35,1.35,0,0,1-.25-.82,1.54,1.54,0,0,1,.28-.92,2.84,2.84,0,0,1,.88-.76,2.66,2.66,0,0,1-1.21-1.05,3,3,0,0,1-.47-1.69,3.11,3.11,0,0,1,1-2.44,3.86,3.86,0,0,1,2.69-.85,5.22,5.22,0,0,1,1.36.17Zm-7.68,11.25a1.31,1.31,0,0,0,.66,1.19,3.64,3.64,0,0,0,1.89.4,5.25,5.25,0,0,0,2.72-.55,1.66,1.66,0,0,0,.88-1.48A1.18,1.18,0,0,0,128,159a3.82,3.82,0,0,0-1.82-.3h-1.75a2.3,2.3,0,0,0-1.55.47A1.69,1.69,0,0,0,122.29,160.54Zm.79-8.16a2,2,0,0,0,.57,1.53,2.3,2.3,0,0,0,1.59.52,1.87,1.87,0,0,0,2.14-2.08,1.92,1.92,0,0,0-2.17-2.17,2.18,2.18,0,0,0-1.58.55A2.24,2.24,0,0,0,123.08,152.38Z" style="fill: #314041"/>
    <path d="M133.41,158.93H132V145.25h1.46Z" style="fill: #314041"/>
    <path d="M136.38,146.68a1,1,0,0,1,.24-.73.85.85,0,0,1,.62-.23.88.88,0,0,1,.6.23,1,1,0,0,1,.26.73,1,1,0,0,1-.26.74.85.85,0,0,1-.6.24.86.86,0,0,1-.62-.24A1,1,0,0,1,136.38,146.68ZM138,158.93H136.5v-9.64H138Z" style="fill: #314041"/>
    <path d="M149.37,154.1a5.32,5.32,0,0,1-1.19,3.68,4.18,4.18,0,0,1-3.28,1.32,4.37,4.37,0,0,1-2.29-.6,4,4,0,0,1-1.55-1.74,6.16,6.16,0,0,1-.54-2.66,5.34,5.34,0,0,1,1.17-3.67,4.2,4.2,0,0,1,3.27-1.31,4.11,4.11,0,0,1,3.22,1.34A5.32,5.32,0,0,1,149.37,154.1Zm-7.34,0a4.5,4.5,0,0,0,.74,2.81,2.54,2.54,0,0,0,2.17,1,2.57,2.57,0,0,0,2.17-1,4.52,4.52,0,0,0,.75-2.82,4.46,4.46,0,0,0-.75-2.79,2.61,2.61,0,0,0-2.19-.95,2.54,2.54,0,0,0-2.16.94A4.48,4.48,0,0,0,142,154.1Z" style="fill: #314041"/>
    <path d="M156.32,149.12a5.73,5.73,0,0,1,1.15.1l-.2,1.36a4.91,4.91,0,0,0-1.06-.14,2.59,2.59,0,0,0-2,.95,3.49,3.49,0,0,0-.83,2.37v5.17h-1.46v-9.64h1.21l.16,1.79h.07a4.19,4.19,0,0,1,1.3-1.45A2.88,2.88,0,0,1,156.32,149.12Z" style="fill: #314041"/>
    <path d="M165.19,158.93l-.28-1.37h-.07a4,4,0,0,1-1.44,1.22,4.48,4.48,0,0,1-1.79.32,3.2,3.2,0,0,1-2.25-.74,2.69,2.69,0,0,1-.81-2.1q0-2.91,4.67-3.06l1.63,0v-.6a2.42,2.42,0,0,0-.49-1.67,2,2,0,0,0-1.56-.54,6.37,6.37,0,0,0-2.72.74l-.45-1.12a6.8,6.8,0,0,1,3.26-.82,3.7,3.7,0,0,1,2.56.76,3.21,3.21,0,0,1,.83,2.45v6.58Zm-3.29-1a3,3,0,0,0,2.14-.75,2.75,2.75,0,0,0,.78-2.09v-.87l-1.46.06a5.28,5.28,0,0,0-2.51.54,1.64,1.64,0,0,0-.77,1.49,1.48,1.48,0,0,0,.48,1.2A2,2,0,0,0,161.9,157.9Z" style="fill: #314041"/>
    <path d="M173.68,149.12a5.73,5.73,0,0,1,1.15.1l-.2,1.36a4.91,4.91,0,0,0-1.06-.14,2.59,2.59,0,0,0-2,.95,3.49,3.49,0,0,0-.83,2.37v5.17h-1.46v-9.64h1.21l.16,1.79h.07a4.19,4.19,0,0,1,1.3-1.45A2.88,2.88,0,0,1,173.68,149.12Z" style="fill: #314041"/>
    <path d="M180.7,159.1a4.41,4.41,0,0,1-3.37-1.3,5.05,5.05,0,0,1-1.24-3.61,5.61,5.61,0,0,1,1.15-3.7,3.8,3.8,0,0,1,3.08-1.37,3.63,3.63,0,0,1,2.87,1.19,4.57,4.57,0,0,1,1.05,3.14v.92h-6.63a3.8,3.8,0,0,0,.85,2.58,3,3,0,0,0,2.29.88,7.85,7.85,0,0,0,3.08-.65v1.3a8.35,8.35,0,0,1-1.47.48A8.72,8.72,0,0,1,180.7,159.1Zm-.4-8.76a2.37,2.37,0,0,0-1.85.76,3.46,3.46,0,0,0-.81,2.09h5a3.23,3.23,0,0,0-.62-2.12A2.15,2.15,0,0,0,180.3,150.34Z" style="fill: #314041"/>
    <path d="M129.76,180.53H128.3V166.85h1.46Z" style="fill: #314041"/>
    <path d="M134.11,167.68l-.35,4.64h-.93l-.36-4.64Z" style="fill: #314041"/>
    <path d="M142.76,180.53l-.29-1.37h-.07a4,4,0,0,1-1.44,1.22,4.28,4.28,0,0,1-1.79.32,3.17,3.17,0,0,1-2.24-.74,2.66,2.66,0,0,1-.82-2.1q0-2.91,4.67-3.05l1.63-.06v-.6a2.47,2.47,0,0,0-.48-1.67,2,2,0,0,0-1.56-.54,6.41,6.41,0,0,0-2.73.74l-.45-1.12a7.12,7.12,0,0,1,3.26-.82,3.7,3.7,0,0,1,2.56.76,3.21,3.21,0,0,1,.83,2.45v6.58Zm-3.3-1a3,3,0,0,0,2.14-.75,2.75,2.75,0,0,0,.78-2.09v-.87l-1.46.06a5.28,5.28,0,0,0-2.51.54,1.64,1.64,0,0,0-.77,1.49,1.52,1.52,0,0,0,.48,1.21A2,2,0,0,0,139.46,179.5Z" style="fill: #314041"/>
    <path d="M154.73,170.89v.93l-1.79.21a2.85,2.85,0,0,1,.44.8,3.06,3.06,0,0,1,.2,1.12,2.85,2.85,0,0,1-1,2.26,3.93,3.93,0,0,1-2.66.85,4.09,4.09,0,0,1-.8-.08,1.46,1.46,0,0,0-.94,1.24.63.63,0,0,0,.33.59,2.47,2.47,0,0,0,1.12.19h1.7a3.84,3.84,0,0,1,2.41.66,2.3,2.3,0,0,1,.84,1.91,2.73,2.73,0,0,1-1.29,2.44,6.84,6.84,0,0,1-3.74.84,5.15,5.15,0,0,1-2.92-.7,2.41,2.41,0,0,1-.46-3.51,2.88,2.88,0,0,1,1.58-.87,1.54,1.54,0,0,1-.62-.52,1.4,1.4,0,0,1-.25-.82,1.61,1.61,0,0,1,.28-.92,3,3,0,0,1,.89-.76,2.66,2.66,0,0,1-1.21-1.05,3,3,0,0,1-.47-1.69,3.08,3.08,0,0,1,.95-2.43,3.81,3.81,0,0,1,2.68-.86,5.24,5.24,0,0,1,1.37.17Zm-7.68,11.25a1.31,1.31,0,0,0,.65,1.19,3.68,3.68,0,0,0,1.9.4,5.25,5.25,0,0,0,2.72-.55,1.68,1.68,0,0,0,.88-1.48,1.16,1.16,0,0,0-.49-1.09,3.74,3.74,0,0,0-1.81-.3h-1.75a2.33,2.33,0,0,0-1.55.47A1.69,1.69,0,0,0,147.05,182.14Zm.79-8.16a2,2,0,0,0,.57,1.53A2.3,2.3,0,0,0,150,176a1.86,1.86,0,0,0,2.13-2.08,1.92,1.92,0,0,0-2.16-2.17,2.14,2.14,0,0,0-1.58.56A2.2,2.2,0,0,0,147.84,174Z" style="fill: #314041"/>
    <path d="M156.58,168.28a1,1,0,0,1,.25-.73.83.83,0,0,1,.61-.23.89.89,0,0,1,.61.23,1.21,1.21,0,0,1,0,1.47.85.85,0,0,1-.61.24.84.84,0,0,1-.61-.24A1,1,0,0,1,156.58,168.28Zm1.58,12.25H156.7v-9.64h1.46Z" style="fill: #314041"/>
    <path d="M162.72,180.53h-1.46V166.85h1.46Z" style="fill: #314041"/>
    <path d="M165.69,168.28a1,1,0,0,1,.24-.73.85.85,0,0,1,.62-.23.91.91,0,0,1,.61.23,1.21,1.21,0,0,1,0,1.47.87.87,0,0,1-.61.24.86.86,0,0,1-.62-.24A1,1,0,0,1,165.69,168.28Zm1.58,12.25h-1.46v-9.64h1.46Z" style="fill: #314041"/>
    <path d="M173.47,179.5a4.56,4.56,0,0,0,.75-.06,5.41,5.41,0,0,0,.57-.12v1.12a2.94,2.94,0,0,1-.7.19,5.07,5.07,0,0,1-.83.07q-2.79,0-2.79-2.94V172h-1.38v-.71l1.38-.6.61-2.06h.85v2.23h2.79V172h-2.79v5.67a2,2,0,0,0,.41,1.33A1.44,1.44,0,0,0,173.47,179.5Z" style="fill: #314041"/>
    <path d="M182.64,180.53l-.29-1.37h-.07a4,4,0,0,1-1.44,1.22,4.23,4.23,0,0,1-1.78.32,3.18,3.18,0,0,1-2.25-.74,2.69,2.69,0,0,1-.81-2.1q0-2.91,4.66-3.05l1.64-.06v-.6a2.42,2.42,0,0,0-.49-1.67,2,2,0,0,0-1.56-.54,6.37,6.37,0,0,0-2.72.74l-.45-1.12a6.32,6.32,0,0,1,1.56-.6,6.56,6.56,0,0,1,1.7-.22,3.65,3.65,0,0,1,2.55.76,3.17,3.17,0,0,1,.83,2.45v6.58Zm-3.29-1a3,3,0,0,0,2.14-.75,2.79,2.79,0,0,0,.77-2.09v-.87l-1.46.06a5.24,5.24,0,0,0-2.5.54,1.62,1.62,0,0,0-.77,1.49,1.52,1.52,0,0,0,.48,1.21A2,2,0,0,0,179.35,179.5Zm1.73-9.88h-1a14,14,0,0,1-1.35-1.3,11,11,0,0,1-1.14-1.4v-.18h1.79a14.41,14.41,0,0,0,.78,1.4,11.26,11.26,0,0,0,.89,1.26Z" style="fill: #314041"/>
  </g>
  <g>
    <path d="M211.62,227.8a1.75,1.75,0,0,1-.68,1.46,2.94,2.94,0,0,1-1.86.53,4.75,4.75,0,0,1-2-.32v-.81a4.59,4.59,0,0,0,1,.3,5.21,5.21,0,0,0,1,.1,2.08,2.08,0,0,0,1.25-.31,1,1,0,0,0,.42-.88,1.09,1.09,0,0,0-.15-.6,1.37,1.37,0,0,0-.5-.44,6.92,6.92,0,0,0-1.06-.46,3.25,3.25,0,0,1-1.42-.84,1.84,1.84,0,0,1-.43-1.27,1.61,1.61,0,0,1,.62-1.32,2.6,2.6,0,0,1,1.64-.49,4.86,4.86,0,0,1,2,.39l-.26.73a4.37,4.37,0,0,0-1.72-.37,1.66,1.66,0,0,0-1,.28.92.92,0,0,0-.37.78,1.2,1.2,0,0,0,.14.61,1.22,1.22,0,0,0,.46.44,4.91,4.91,0,0,0,1,.43,4.14,4.14,0,0,1,1.55.86A1.72,1.72,0,0,1,211.62,227.8Z" style="fill: #304041"/>
    <path d="M217.58,227a3,3,0,0,1-.66,2.05,2.32,2.32,0,0,1-1.82.73,2.46,2.46,0,0,1-1.28-.33,2.26,2.26,0,0,1-.86-1,3.4,3.4,0,0,1-.3-1.48,3,3,0,0,1,.65-2,2.32,2.32,0,0,1,1.82-.73,2.24,2.24,0,0,1,1.78.74A2.9,2.9,0,0,1,217.58,227Zm-4.08,0a2.58,2.58,0,0,0,.41,1.57,1.43,1.43,0,0,0,1.2.53,1.41,1.41,0,0,0,1.21-.53,2.51,2.51,0,0,0,.42-1.57,2.47,2.47,0,0,0-.42-1.55,1.65,1.65,0,0,0-2.42,0A2.5,2.5,0,0,0,213.5,227Z" style="fill: #304041"/>
    <path d="M221.41,225h-1.36v4.72h-.81V225h-1v-.36l1-.3V224c0-1.32.57-2,1.72-2a3.79,3.79,0,0,1,1,.17l-.21.65a2.75,2.75,0,0,0-.81-.15.75.75,0,0,0-.67.31,1.67,1.67,0,0,0-.22,1v.34h1.36Z" style="fill: #304041"/>
    <path d="M224.11,229.12a2.77,2.77,0,0,0,.42,0l.32-.06v.62a1.8,1.8,0,0,1-.39.1,2.68,2.68,0,0,1-.46,0c-1,0-1.56-.54-1.56-1.63V225h-.76v-.39l.76-.33.35-1.15h.46v1.24h1.56V225h-1.56v3.15a1.09,1.09,0,0,0,.23.74A.79.79,0,0,0,224.11,229.12Z" style="fill: #304041"/>
    <path d="M230.29,229.69l-1-3.13c-.06-.2-.17-.63-.34-1.31h0c-.13.57-.25,1-.34,1.31l-1,3.13h-.94l-1.46-5.35H226c.34,1.35.61,2.37.79,3.07a13.65,13.65,0,0,1,.31,1.43h0a7,7,0,0,1,.17-.72c.08-.3.15-.53.21-.71l1-3.07h.88l.95,3.07a9.92,9.92,0,0,1,.38,1.42h0c0-.12.05-.3.11-.55l1-3.94h.84l-1.48,5.35Z" style="fill: #304041"/>
    <path d="M237,229.69l-.17-.76h0a2.09,2.09,0,0,1-.79.68,2.45,2.45,0,0,1-1,.18,1.78,1.78,0,0,1-1.25-.41,1.48,1.48,0,0,1-.45-1.16c0-1.08.87-1.65,2.6-1.7l.9,0v-.34a1.38,1.38,0,0,0-.27-.93,1.11,1.11,0,0,0-.86-.3,3.62,3.62,0,0,0-1.52.41l-.25-.62a4.12,4.12,0,0,1,.87-.33,3.81,3.81,0,0,1,1-.12,2,2,0,0,1,1.41.42,1.76,1.76,0,0,1,.47,1.36v3.65Zm-1.84-.57a1.61,1.61,0,0,0,1.19-.41,1.54,1.54,0,0,0,.44-1.16v-.49l-.82,0a2.9,2.9,0,0,0-1.39.3.9.9,0,0,0-.43.82.82.82,0,0,0,.27.67A1.06,1.06,0,0,0,235.15,229.12Z" style="fill: #304041"/>
    <path d="M241.7,224.25a3.2,3.2,0,0,1,.64.05l-.12.76a2.67,2.67,0,0,0-.58-.08,1.44,1.44,0,0,0-1.11.53,1.91,1.91,0,0,0-.46,1.31v2.87h-.81v-5.35h.66l.1,1h0a2.31,2.31,0,0,1,.71-.8A1.62,1.62,0,0,1,241.7,224.25Z" style="fill: #304041"/>
    <path d="M245.6,229.79a2.45,2.45,0,0,1-1.87-.72,2.79,2.79,0,0,1-.69-2,3.05,3.05,0,0,1,.64-2.05,2.09,2.09,0,0,1,1.71-.76,2,2,0,0,1,1.59.66,2.53,2.53,0,0,1,.59,1.74v.52h-3.69a2.12,2.12,0,0,0,.48,1.43,1.65,1.65,0,0,0,1.27.48,4.38,4.38,0,0,0,1.71-.36v.73a4.28,4.28,0,0,1-.82.26A4.09,4.09,0,0,1,245.6,229.79Zm-.22-4.87a1.33,1.33,0,0,0-1,.42,2,2,0,0,0-.45,1.17h2.8a1.84,1.84,0,0,0-.34-1.18A1.22,1.22,0,0,0,245.38,224.92Z" style="fill: #304041"/>
  </g>
  <g>
    <path d="M287.22,229.69l-.89-2.27h-2.86l-.88,2.27h-.84l2.82-7.16h.7l2.81,7.16Zm-1.15-3-.83-2.21c-.1-.28-.21-.63-.33-1a7.85,7.85,0,0,1-.31,1l-.84,2.21Z" style="fill: #304041"/>
    <path d="M289.75,229.69h-.81V222.1h.81Z" style="fill: #304041"/>
    <path d="M293.2,229.12a2.73,2.73,0,0,0,.41,0l.32-.06v.62a1.8,1.8,0,0,1-.39.1,2.6,2.6,0,0,1-.46,0c-1,0-1.55-.54-1.55-1.63V225h-.77v-.39l.77-.33.34-1.15h.47v1.24h1.55V225h-1.55v3.15a1,1,0,0,0,.23.74A.77.77,0,0,0,293.2,229.12Z" style="fill: #304041"/>
    <path d="M297.44,224.25a3.14,3.14,0,0,1,.64.05l-.11.76a2.75,2.75,0,0,0-.59-.08,1.44,1.44,0,0,0-1.11.53,1.91,1.91,0,0,0-.46,1.31v2.87H295v-5.35h.67l.09,1h0a2.44,2.44,0,0,1,.72-.8A1.61,1.61,0,0,1,297.44,224.25Z" style="fill: #304041"/>
    <path d="M301.34,229.79a2.46,2.46,0,0,1-1.87-.72,2.79,2.79,0,0,1-.69-2,3.05,3.05,0,0,1,.64-2.05,2.11,2.11,0,0,1,1.71-.76,2,2,0,0,1,1.59.66,2.53,2.53,0,0,1,.59,1.74v.52h-3.69a2.17,2.17,0,0,0,.48,1.43,1.65,1.65,0,0,0,1.27.48,4.3,4.3,0,0,0,1.71-.36v.73a4.43,4.43,0,0,1-.81.26A4.24,4.24,0,0,1,301.34,229.79Zm-.22-4.87a1.33,1.33,0,0,0-1,.42,2,2,0,0,0-.45,1.17h2.8a1.79,1.79,0,0,0-.34-1.18A1.22,1.22,0,0,0,301.12,224.92Z" style="fill: #304041"/>
    <path d="M310.58,229.69l-.16-.76h0a2.11,2.11,0,0,1-.8.68,2.37,2.37,0,0,1-1,.18,1.76,1.76,0,0,1-1.25-.41,1.48,1.48,0,0,1-.45-1.16c0-1.08.86-1.65,2.59-1.7l.91,0v-.34a1.38,1.38,0,0,0-.27-.93,1.12,1.12,0,0,0-.87-.3,3.58,3.58,0,0,0-1.51.41l-.25-.62a3.74,3.74,0,0,1,.87-.33,3.79,3.79,0,0,1,.94-.12,2.06,2.06,0,0,1,1.42.42,1.76,1.76,0,0,1,.46,1.36v3.65Zm-1.83-.57a1.64,1.64,0,0,0,1.19-.41,1.54,1.54,0,0,0,.43-1.16v-.49l-.81,0a2.84,2.84,0,0,0-1.39.3.88.88,0,0,0-.43.82.84.84,0,0,0,.26.67A1.09,1.09,0,0,0,308.75,229.12Z" style="fill: #304041"/>
    <path d="M315.29,224.25a3.14,3.14,0,0,1,.64.05l-.11.76a2.75,2.75,0,0,0-.59-.08,1.44,1.44,0,0,0-1.11.53,2,2,0,0,0-.46,1.31v2.87h-.81v-5.35h.67l.09,1h0a2.44,2.44,0,0,1,.72-.8A1.61,1.61,0,0,1,315.29,224.25Z" style="fill: #304041"/>
    <path d="M319.19,229.79a2.46,2.46,0,0,1-1.87-.72,2.79,2.79,0,0,1-.69-2,3.1,3.1,0,0,1,.64-2.05,2.12,2.12,0,0,1,1.71-.76,2,2,0,0,1,1.59.66,2.48,2.48,0,0,1,.59,1.74v.52h-3.69a2.17,2.17,0,0,0,.48,1.43,1.67,1.67,0,0,0,1.27.48,4.3,4.3,0,0,0,1.71-.36v.73a4,4,0,0,1-1.74.34Zm-.22-4.87a1.3,1.3,0,0,0-1,.42,2,2,0,0,0-.46,1.17h2.8a1.79,1.79,0,0,0-.34-1.18A1.21,1.21,0,0,0,319,224.92Z" style="fill: #304041"/>
    <path d="M324.8,229.79a2.46,2.46,0,0,1-1.87-.72,2.79,2.79,0,0,1-.69-2,3.1,3.1,0,0,1,.64-2.05,2.12,2.12,0,0,1,1.71-.76,2.05,2.05,0,0,1,1.6.66,2.52,2.52,0,0,1,.58,1.74v.52h-3.69a2.17,2.17,0,0,0,.48,1.43,1.67,1.67,0,0,0,1.27.48,4.3,4.3,0,0,0,1.71-.36v.73a4,4,0,0,1-1.74.34Zm-.22-4.87a1.3,1.3,0,0,0-1,.42,2,2,0,0,0-.46,1.17h2.8a1.79,1.79,0,0,0-.34-1.18A1.21,1.21,0,0,0,324.58,224.92Z" style="fill: #304041"/>
  </g>
</svg>
