<svg id="Layer_1" data-name="Layer 1" xmlns="http://www.w3.org/2000/svg" viewBox="0 0 374.33 160.63">
  <title>nugget_graph_2fr</title>
  <g>
    <path d="M195.44,36.66h-1.71V39.6h-2.94V36.66h-6.06V34.57L191,25.38h2.77v8.94h1.71Zm-4.65-2.34V31.91c0-.4,0-1,.05-1.75s.06-1.21.08-1.33h-.08a11.25,11.25,0,0,1-.86,1.55l-2.61,3.94Z" style="fill: #314041"/>
    <path d="M206.81,36.66H205.1V39.6h-2.94V36.66h-6.07V34.57l6.24-9.19h2.77v8.94h1.71Zm-4.65-2.34V31.91c0-.4,0-1,.05-1.75s.06-1.21.08-1.33h-.08a11.25,11.25,0,0,1-.86,1.55l-2.61,3.94Z" style="fill: #314041"/>
    <path d="M214.5,29.63a5.44,5.44,0,0,1-.87,3.36,3,3,0,0,1-2.54,1.12A3,3,0,0,1,208.61,33a5.46,5.46,0,0,1-.87-3.33q0-4.45,3.35-4.45a3,3,0,0,1,2.53,1.15A5.4,5.4,0,0,1,214.5,29.63Zm-4.31,0a5.72,5.72,0,0,0,.22,1.85c.14.4.38.61.7.61.62,0,.94-.82.94-2.46s-.32-2.43-.94-2.43c-.32,0-.56.2-.7.6A5.58,5.58,0,0,0,210.19,29.64Zm11-4.26L213.3,39.6H211l7.88-14.22Zm3.27,9.93a5.43,5.43,0,0,1-.87,3.35,3,3,0,0,1-2.54,1.12,2.93,2.93,0,0,1-2.48-1.15,5.45,5.45,0,0,1-.87-3.32c0-3,1.11-4.45,3.35-4.45A3,3,0,0,1,223.58,32,5.4,5.4,0,0,1,224.46,35.31Zm-4.31,0a5.72,5.72,0,0,0,.22,1.85c.14.4.38.61.7.61q.93,0,.93-2.46t-.93-2.43c-.32,0-.56.2-.7.6A5.58,5.58,0,0,0,220.15,35.32Z" style="fill: #314041"/>
  </g>
  <g>
    <path d="M186.15,52.6h3.63a6.84,6.84,0,0,1,3.7.76,2.71,2.71,0,0,1,1.14,2.42,2.84,2.84,0,0,1-.63,1.89,3.14,3.14,0,0,1-1.86,1v.09c2,.33,2.92,1.36,2.92,3.07a3.28,3.28,0,0,1-1.16,2.69,4.93,4.93,0,0,1-3.26,1h-4.48Zm1.5,5.5h2.46a3.91,3.91,0,0,0,2.27-.5,1.9,1.9,0,0,0,.7-1.67,1.69,1.69,0,0,0-.78-1.56,4.79,4.79,0,0,0-2.46-.48h-2.19Zm0,1.27v4.8h2.68a3.85,3.85,0,0,0,2.34-.6,2.23,2.23,0,0,0,.79-1.88,2,2,0,0,0-.81-1.76,4.25,4.25,0,0,0-2.45-.56Z" style="fill: #314041"/>
    <path d="M201.66,65.62a4.43,4.43,0,0,1-3.37-1.3,5,5,0,0,1-1.23-3.61,5.55,5.55,0,0,1,1.15-3.7,3.81,3.81,0,0,1,3.08-1.37,3.64,3.64,0,0,1,2.86,1.19A4.57,4.57,0,0,1,205.21,60v.93h-6.64a3.83,3.83,0,0,0,.86,2.57,2.94,2.94,0,0,0,2.29.88,7.8,7.8,0,0,0,3.07-.65V65a6.88,6.88,0,0,1-3.13.62Zm-.39-8.76a2.37,2.37,0,0,0-1.85.76,3.46,3.46,0,0,0-.81,2.09h5A3.18,3.18,0,0,0,203,57.6,2.17,2.17,0,0,0,201.27,56.86Z" style="fill: #314041"/>
    <path d="M213.91,62.82a2.41,2.41,0,0,1-1,2.07,4.71,4.71,0,0,1-2.82.73,6.21,6.21,0,0,1-3-.6V63.66a7.38,7.38,0,0,0,1.49.56,6.51,6.51,0,0,0,1.54.2,3.53,3.53,0,0,0,1.76-.36,1.22,1.22,0,0,0,.61-1.12,1.2,1.2,0,0,0-.49-1,7.41,7.41,0,0,0-1.9-.94,10.52,10.52,0,0,1-1.91-.88,2.51,2.51,0,0,1-.84-.85,2.13,2.13,0,0,1-.28-1.13,2.15,2.15,0,0,1,1-1.86,4.46,4.46,0,0,1,2.62-.68,7.79,7.79,0,0,1,3.05.63l-.52,1.19a7,7,0,0,0-2.63-.6,3,3,0,0,0-1.57.33,1,1,0,0,0-.52.89,1.09,1.09,0,0,0,.19.66,2.06,2.06,0,0,0,.64.52A15,15,0,0,0,211,60a6.52,6.52,0,0,1,2.32,1.26A2.21,2.21,0,0,1,213.91,62.82Z" style="fill: #314041"/>
    <path d="M224.59,60.62a5.32,5.32,0,0,1-1.18,3.68,4.19,4.19,0,0,1-3.28,1.32,4.35,4.35,0,0,1-2.29-.6,4,4,0,0,1-1.55-1.74,6.13,6.13,0,0,1-.55-2.66A5.34,5.34,0,0,1,216.92,57a4.2,4.2,0,0,1,3.27-1.31A4.08,4.08,0,0,1,223.4,57,5.27,5.27,0,0,1,224.59,60.62Zm-7.33,0a4.62,4.62,0,0,0,.73,2.82,2.94,2.94,0,0,0,4.35,0,4.52,4.52,0,0,0,.74-2.82,4.46,4.46,0,0,0-.74-2.79,2.62,2.62,0,0,0-2.19-.95,2.54,2.54,0,0,0-2.16.94A4.5,4.5,0,0,0,217.26,60.62Z" style="fill: #314041"/>
    <path d="M227,53.21a1,1,0,0,1,.25-.74.85.85,0,0,1,.61-.23.87.87,0,0,1,.61.24.94.94,0,0,1,.25.73,1,1,0,0,1-.25.73.87.87,0,0,1-.61.24.82.82,0,0,1-.61-.24A1,1,0,0,1,227,53.21Zm1.58,12.24h-1.46V55.82h1.46Z" style="fill: #314041"/>
    <path d="M238.3,65.45V59.22a2.51,2.51,0,0,0-.54-1.76,2.18,2.18,0,0,0-1.68-.58,2.74,2.74,0,0,0-2.21.82,4.09,4.09,0,0,0-.71,2.69v5.06h-1.45V55.82h1.18l.24,1.31h.07a3,3,0,0,1,1.26-1.1,4.1,4.1,0,0,1,1.8-.39,3.67,3.67,0,0,1,2.62.84,3.58,3.58,0,0,1,.88,2.68v6.29Z" style="fill: #314041"/>
    <path d="M254,64.16h-.08a3.46,3.46,0,0,1-3,1.46,3.58,3.58,0,0,1-2.94-1.29,5.67,5.67,0,0,1-1.05-3.67A5.74,5.74,0,0,1,248,57a3.91,3.91,0,0,1,5.94.1H254l-.06-.69,0-.68V51.77h1.46V65.45h-1.19Zm-2.92.24a2.64,2.64,0,0,0,2.16-.81,4.09,4.09,0,0,0,.68-2.62v-.31a4.84,4.84,0,0,0-.68-2.92,2.58,2.58,0,0,0-2.18-.88,2.21,2.21,0,0,0-2,1,4.9,4.9,0,0,0-.69,2.82,4.75,4.75,0,0,0,.68,2.78A2.28,2.28,0,0,0,251.07,64.4Z" style="fill: #314041"/>
    <path d="M262.53,65.62a4.4,4.4,0,0,1-3.37-1.3,5,5,0,0,1-1.24-3.61,5.61,5.61,0,0,1,1.15-3.7,3.81,3.81,0,0,1,3.08-1.37A3.66,3.66,0,0,1,265,56.83,4.57,4.57,0,0,1,266.07,60v.93h-6.64a3.83,3.83,0,0,0,.86,2.57,3,3,0,0,0,2.29.88,7.85,7.85,0,0,0,3.08-.65V65a8.35,8.35,0,0,1-1.47.48A8,8,0,0,1,262.53,65.62Zm-.4-8.76a2.37,2.37,0,0,0-1.85.76,3.46,3.46,0,0,0-.81,2.09h5a3.18,3.18,0,0,0-.62-2.11A2.17,2.17,0,0,0,262.13,56.86Z" style="fill: #314041"/>
    <path d="M279.83,65.45V59.22a2.51,2.51,0,0,0-.54-1.76,2.18,2.18,0,0,0-1.68-.58,2.73,2.73,0,0,0-2.21.82,4.09,4.09,0,0,0-.71,2.69v5.06h-1.46V55.82h1.19l.24,1.31h.07A3,3,0,0,1,276,56a4.11,4.11,0,0,1,1.81-.39,3.67,3.67,0,0,1,2.62.84,3.58,3.58,0,0,1,.87,2.68v6.29Z" style="fill: #314041"/>
    <path d="M285.65,55.82v6.24a2.49,2.49,0,0,0,.54,1.76,2.18,2.18,0,0,0,1.68.58,2.75,2.75,0,0,0,2.21-.82,4.2,4.2,0,0,0,.7-2.7V55.82h1.46v9.63H291l-.21-1.29h-.08a3,3,0,0,1-1.24,1.09,4.23,4.23,0,0,1-1.82.37,3.66,3.66,0,0,1-2.63-.83,3.57,3.57,0,0,1-.87-2.67v-6.3Z" style="fill: #314041"/>
    <path d="M307.61,65.45V59.18a2.66,2.66,0,0,0-.49-1.73,1.92,1.92,0,0,0-1.53-.57,2.49,2.49,0,0,0-2,.78,3.75,3.75,0,0,0-.65,2.41v5.38h-1.46V59.18a2.61,2.61,0,0,0-.49-1.73,1.93,1.93,0,0,0-1.54-.57,2.36,2.36,0,0,0-2,.82,4.42,4.42,0,0,0-.64,2.69v5.06h-1.46V55.82h1.19l.23,1.31h.07A2.93,2.93,0,0,1,298,56a3.48,3.48,0,0,1,1.68-.4,2.85,2.85,0,0,1,2.95,1.63h.07a3.12,3.12,0,0,1,1.25-1.19,3.94,3.94,0,0,1,1.87-.44,3.24,3.24,0,0,1,2.44.84,3.71,3.71,0,0,1,.82,2.68v6.29Z" style="fill: #314041"/>
    <path d="M316.14,65.62a4.41,4.41,0,0,1-3.37-1.3,5,5,0,0,1-1.23-3.61,5.6,5.6,0,0,1,1.14-3.7,3.83,3.83,0,0,1,3.08-1.37,3.65,3.65,0,0,1,2.87,1.19A4.57,4.57,0,0,1,319.68,60v.93h-6.63a3.78,3.78,0,0,0,.86,2.57,2.93,2.93,0,0,0,2.28.88,7.82,7.82,0,0,0,3.08-.65V65a8.27,8.27,0,0,1-1.46.48A8.07,8.07,0,0,1,316.14,65.62Zm-.39-8.76a2.36,2.36,0,0,0-1.85.76,3.46,3.46,0,0,0-.82,2.09h5a3.18,3.18,0,0,0-.62-2.11A2.15,2.15,0,0,0,315.75,56.86Zm-1.09-2.54a14.64,14.64,0,0,0,.92-1.32,13.63,13.63,0,0,0,.76-1.34h1.78v.18A13.61,13.61,0,0,1,317,53.25a11.78,11.78,0,0,1-1.33,1.29h-1Z" style="fill: #314041"/>
    <path d="M326.57,55.64a5.1,5.1,0,0,1,1.15.11l-.21,1.35a4.76,4.76,0,0,0-1.05-.13,2.54,2.54,0,0,0-2,1,3.47,3.47,0,0,0-.83,2.36v5.17h-1.46V55.82h1.2l.17,1.78h.07a4.27,4.27,0,0,1,1.29-1.45A2.93,2.93,0,0,1,326.57,55.64Z" style="fill: #314041"/>
    <path d="M329.4,53.21a1,1,0,0,1,.24-.74.9.9,0,0,1,.62-.23.85.85,0,0,1,.6.24.94.94,0,0,1,.26.73,1,1,0,0,1-.26.73.85.85,0,0,1-.6.24.86.86,0,0,1-.62-.24A1,1,0,0,1,329.4,53.21ZM331,65.45h-1.46V55.82H331Z" style="fill: #314041"/>
    <path d="M340.29,62.82a2.39,2.39,0,0,1-1,2.07,4.65,4.65,0,0,1-2.81.73,6.19,6.19,0,0,1-3-.6V63.66a7.38,7.38,0,0,0,1.49.56,6.45,6.45,0,0,0,1.54.2,3.49,3.49,0,0,0,1.75-.36,1.23,1.23,0,0,0,.62-1.12,1.2,1.2,0,0,0-.49-1,7.41,7.41,0,0,0-1.9-.94,10.52,10.52,0,0,1-1.91-.88,2.65,2.65,0,0,1-.85-.85,2.22,2.22,0,0,1-.27-1.13,2.17,2.17,0,0,1,1-1.86,4.51,4.51,0,0,1,2.63-.68,7.7,7.7,0,0,1,3,.63l-.52,1.19a6.91,6.91,0,0,0-2.62-.6,3,3,0,0,0-1.57.33,1,1,0,0,0-.53.89,1.1,1.1,0,0,0,.2.66,2,2,0,0,0,.64.52,15,15,0,0,0,1.69.71,6.36,6.36,0,0,1,2.31,1.26A2.22,2.22,0,0,1,340.29,62.82Z" style="fill: #314041"/>
    <path d="M346.73,65.62a4.4,4.4,0,0,1-3.37-1.3,5,5,0,0,1-1.24-3.61,5.55,5.55,0,0,1,1.15-3.7,3.81,3.81,0,0,1,3.08-1.37,3.63,3.63,0,0,1,2.86,1.19A4.52,4.52,0,0,1,350.27,60v.93h-6.64a3.83,3.83,0,0,0,.86,2.57,3,3,0,0,0,2.29.88,7.85,7.85,0,0,0,3.08-.65V65a8.35,8.35,0,0,1-1.47.48A8,8,0,0,1,346.73,65.62Zm-.4-8.76a2.37,2.37,0,0,0-1.85.76,3.46,3.46,0,0,0-.81,2.09h5a3.18,3.18,0,0,0-.62-2.11A2.17,2.17,0,0,0,346.33,56.86Z" style="fill: #314041"/>
    <path d="M357.15,55.64a5,5,0,0,1,1.15.11l-.2,1.35a4.83,4.83,0,0,0-1.05-.13,2.54,2.54,0,0,0-2,1,3.42,3.42,0,0,0-.83,2.36v5.17h-1.46V55.82H354l.17,1.78h.07a4.27,4.27,0,0,1,1.29-1.45A2.9,2.9,0,0,1,357.15,55.64Z" style="fill: #314041"/>
    <path d="M187.39,87.05h-1.46V73.37h1.46Z" style="fill: #314041"/>
    <path d="M194.55,87.22a4.43,4.43,0,0,1-3.37-1.3A5,5,0,0,1,190,82.31a5.55,5.55,0,0,1,1.15-3.7,3.81,3.81,0,0,1,3.08-1.37A3.64,3.64,0,0,1,197,78.43a4.57,4.57,0,0,1,1.06,3.14v.93h-6.64a3.83,3.83,0,0,0,.86,2.57,2.94,2.94,0,0,0,2.29.88,7.8,7.8,0,0,0,3.07-.65v1.3a6.88,6.88,0,0,1-3.13.62Zm-.39-8.76a2.36,2.36,0,0,0-1.85.76,3.46,3.46,0,0,0-.81,2.09h5a3.18,3.18,0,0,0-.61-2.11A2.17,2.17,0,0,0,194.16,78.46Z" style="fill: #314041"/>
    <path d="M206.8,84.42a2.39,2.39,0,0,1-1,2.07,4.65,4.65,0,0,1-2.81.73,6.21,6.21,0,0,1-3-.6V85.26a7.38,7.38,0,0,0,1.49.56A6.51,6.51,0,0,0,203,86a3.53,3.53,0,0,0,1.76-.36,1.22,1.22,0,0,0,.61-1.12,1.2,1.2,0,0,0-.49-1,7.41,7.41,0,0,0-1.9-.94,10.52,10.52,0,0,1-1.91-.88,2.51,2.51,0,0,1-.84-.85,2.13,2.13,0,0,1-.28-1.13,2.16,2.16,0,0,1,1-1.86,4.46,4.46,0,0,1,2.62-.68,7.7,7.7,0,0,1,3,.63l-.51,1.19a7,7,0,0,0-2.63-.6,3,3,0,0,0-1.57.33,1,1,0,0,0-.52.89,1.09,1.09,0,0,0,.19.66,2.06,2.06,0,0,0,.64.52,15,15,0,0,0,1.69.71,6.52,6.52,0,0,1,2.32,1.26A2.21,2.21,0,0,1,206.8,84.42Z" style="fill: #314041"/>
    <path d="M218.33,87.22a4.19,4.19,0,0,1-1.72-.34,3.29,3.29,0,0,1-1.31-1.07h-.1a12.84,12.84,0,0,1,.1,1.6v4h-1.45v-14H215l.2,1.31h.07a3.59,3.59,0,0,1,1.31-1.14,4.06,4.06,0,0,1,1.72-.35,3.58,3.58,0,0,1,3,1.31,7,7,0,0,1,0,7.36A3.56,3.56,0,0,1,218.33,87.22Zm-.21-8.74a2.57,2.57,0,0,0-2.14.82,4.24,4.24,0,0,0-.68,2.6v.32a4.85,4.85,0,0,0,.68,2.91,2.58,2.58,0,0,0,2.17.87,2.25,2.25,0,0,0,2-1,4.78,4.78,0,0,0,.71-2.78,4.62,4.62,0,0,0-.71-2.77A2.33,2.33,0,0,0,218.12,78.48Z" style="fill: #314041"/>
    <path d="M229.27,77.24a5,5,0,0,1,1.15.11l-.2,1.35a4.84,4.84,0,0,0-1.06-.13,2.54,2.54,0,0,0-2,1,3.43,3.43,0,0,0-.84,2.36v5.17h-1.45V77.42h1.2l.17,1.78h.07a4.17,4.17,0,0,1,1.29-1.45A2.9,2.9,0,0,1,229.27,77.24Z" style="fill: #314041"/>
    <path d="M240.54,82.22a5.32,5.32,0,0,1-1.19,3.68,4.18,4.18,0,0,1-3.28,1.32,4.37,4.37,0,0,1-2.29-.6,4.1,4.1,0,0,1-1.55-1.74,6.13,6.13,0,0,1-.54-2.66,5.29,5.29,0,0,1,1.18-3.67,4.16,4.16,0,0,1,3.26-1.31,4.11,4.11,0,0,1,3.22,1.34A5.32,5.32,0,0,1,240.54,82.22Zm-7.34,0a4.62,4.62,0,0,0,.74,2.82,2.93,2.93,0,0,0,4.34,0,4.52,4.52,0,0,0,.75-2.82,4.46,4.46,0,0,0-.75-2.79,2.61,2.61,0,0,0-2.19-1,2.55,2.55,0,0,0-2.16.94A4.5,4.5,0,0,0,233.2,82.22Z" style="fill: #314041"/>
    <path d="M247,87.22a4.12,4.12,0,0,1-3.24-1.28,5.29,5.29,0,0,1-1.15-3.65,5.48,5.48,0,0,1,1.16-3.73A4.21,4.21,0,0,1,247,77.24a6.57,6.57,0,0,1,1.39.15,4.82,4.82,0,0,1,1.09.35L249.07,79a6.16,6.16,0,0,0-1-.32,4.43,4.43,0,0,0-1-.13q-2.94,0-2.94,3.75a4.43,4.43,0,0,0,.72,2.72,2.5,2.5,0,0,0,2.12,1,6.41,6.41,0,0,0,2.47-.52v1.29A5.18,5.18,0,0,1,247,87.22Z" style="fill: #314041"/>
    <path d="M255.73,87.22a4.43,4.43,0,0,1-3.37-1.3,5,5,0,0,1-1.23-3.61,5.55,5.55,0,0,1,1.15-3.7,3.81,3.81,0,0,1,3.08-1.37,3.64,3.64,0,0,1,2.86,1.19,4.57,4.57,0,0,1,1.06,3.14v.93h-6.64a3.83,3.83,0,0,0,.86,2.57,2.94,2.94,0,0,0,2.29.88,7.8,7.8,0,0,0,3.07-.65v1.3a6.88,6.88,0,0,1-3.13.62Zm-.39-8.76a2.37,2.37,0,0,0-1.85.76,3.46,3.46,0,0,0-.81,2.09h5a3.18,3.18,0,0,0-.61-2.11A2.17,2.17,0,0,0,255.34,78.46Z" style="fill: #314041"/>
    <path d="M268,84.42a2.41,2.41,0,0,1-1,2.07,4.71,4.71,0,0,1-2.82.73,6.21,6.21,0,0,1-3-.6V85.26a7.38,7.38,0,0,0,1.49.56,6.58,6.58,0,0,0,1.54.2,3.53,3.53,0,0,0,1.76-.36,1.22,1.22,0,0,0,.61-1.12,1.2,1.2,0,0,0-.49-1,7.41,7.41,0,0,0-1.9-.94,10.52,10.52,0,0,1-1.91-.88,2.51,2.51,0,0,1-.84-.85,2.13,2.13,0,0,1-.28-1.13,2.16,2.16,0,0,1,1-1.86,4.48,4.48,0,0,1,2.62-.68,7.75,7.75,0,0,1,3,.63l-.52,1.19a7,7,0,0,0-2.63-.6,3,3,0,0,0-1.57.33,1,1,0,0,0-.52.89,1,1,0,0,0,.2.66,1.9,1.9,0,0,0,.63.52,15,15,0,0,0,1.69.71,6.52,6.52,0,0,1,2.32,1.26A2.21,2.21,0,0,1,268,84.42Z" style="fill: #314041"/>
    <path d="M276.56,84.42a2.39,2.39,0,0,1-1,2.07,4.67,4.67,0,0,1-2.81.73,6.19,6.19,0,0,1-3-.6V85.26a7.16,7.16,0,0,0,1.49.56,6.45,6.45,0,0,0,1.54.2,3.49,3.49,0,0,0,1.75-.36,1.23,1.23,0,0,0,.62-1.12,1.2,1.2,0,0,0-.49-1,7.41,7.41,0,0,0-1.9-.94,10.19,10.19,0,0,1-1.91-.88,2.65,2.65,0,0,1-.85-.85,2.22,2.22,0,0,1-.27-1.13,2.15,2.15,0,0,1,.95-1.86,4.51,4.51,0,0,1,2.63-.68,7.7,7.7,0,0,1,3,.63l-.52,1.19a6.91,6.91,0,0,0-2.62-.6,3,3,0,0,0-1.57.33,1,1,0,0,0-.53.89,1.1,1.1,0,0,0,.2.66,2,2,0,0,0,.64.52,14.2,14.2,0,0,0,1.69.71A6.36,6.36,0,0,1,276,82.83,2.21,2.21,0,0,1,276.56,84.42Z" style="fill: #314041"/>
    <path d="M280.31,77.42v6.24a2.54,2.54,0,0,0,.53,1.76,2.18,2.18,0,0,0,1.68.58,2.73,2.73,0,0,0,2.21-.82,4.14,4.14,0,0,0,.7-2.7V77.42h1.46v9.63h-1.2l-.21-1.29h-.08a3,3,0,0,1-1.25,1.09,4.18,4.18,0,0,1-1.81.37,3.66,3.66,0,0,1-2.63-.83,3.53,3.53,0,0,1-.88-2.67v-6.3Z" style="fill: #314041"/>
    <path d="M296.2,84.42a2.39,2.39,0,0,1-1,2.07,4.71,4.71,0,0,1-2.82.73,6.14,6.14,0,0,1-3-.6V85.26a7.16,7.16,0,0,0,1.49.56,6.43,6.43,0,0,0,1.53.2,3.53,3.53,0,0,0,1.76-.36,1.27,1.27,0,0,0,.13-2.08,7.52,7.52,0,0,0-1.91-.94,10.86,10.86,0,0,1-1.91-.88,2.51,2.51,0,0,1-.84-.85,2.13,2.13,0,0,1-.28-1.13,2.16,2.16,0,0,1,1-1.86,4.49,4.49,0,0,1,2.63-.68,7.74,7.74,0,0,1,3,.63l-.52,1.19a7,7,0,0,0-2.63-.6,3,3,0,0,0-1.56.33,1,1,0,0,0-.53.89,1.1,1.1,0,0,0,.2.66,1.9,1.9,0,0,0,.63.52,15.9,15.9,0,0,0,1.69.71,6.42,6.42,0,0,1,2.32,1.26A2.21,2.21,0,0,1,296.2,84.42Z" style="fill: #314041"/>
    <path d="M309.8,85.76h-.07a3.46,3.46,0,0,1-3,1.46,3.58,3.58,0,0,1-2.94-1.29,5.67,5.67,0,0,1-1.05-3.67,5.74,5.74,0,0,1,1.06-3.7,3.91,3.91,0,0,1,5.94.1h.11l-.06-.69,0-.68V73.37h1.45V87.05H310Zm-2.91.24a2.64,2.64,0,0,0,2.16-.81,4.09,4.09,0,0,0,.68-2.62v-.31a4.76,4.76,0,0,0-.69-2.92,2.55,2.55,0,0,0-2.17-.88,2.21,2.21,0,0,0-2,1,4.9,4.9,0,0,0-.69,2.82,4.73,4.73,0,0,0,.68,2.78A2.28,2.28,0,0,0,306.89,86Z" style="fill: #314041"/>
    <path d="M318.35,87.22a4.4,4.4,0,0,1-3.37-1.3,5,5,0,0,1-1.24-3.61,5.55,5.55,0,0,1,1.15-3.7A3.81,3.81,0,0,1,318,77.24a3.63,3.63,0,0,1,2.86,1.19,4.52,4.52,0,0,1,1.06,3.14v.93h-6.64a3.83,3.83,0,0,0,.86,2.57,3,3,0,0,0,2.29.88,7.85,7.85,0,0,0,3.08-.65v1.3a8.35,8.35,0,0,1-1.47.48A8,8,0,0,1,318.35,87.22Zm-.4-8.76a2.37,2.37,0,0,0-1.85.76,3.46,3.46,0,0,0-.81,2.09h5a3.18,3.18,0,0,0-.62-2.11A2.17,2.17,0,0,0,318,78.46Z" style="fill: #314041"/>
    <path d="M189.78,108.82a4.12,4.12,0,0,1-3.24-1.28,5.34,5.34,0,0,1-1.14-3.65,5.43,5.43,0,0,1,1.16-3.73,4.19,4.19,0,0,1,3.32-1.32,6.64,6.64,0,0,1,1.39.15,5,5,0,0,1,1.09.35l-.45,1.24a6.27,6.27,0,0,0-1.06-.32,4.37,4.37,0,0,0-1-.13q-2.93,0-2.93,3.75a4.5,4.5,0,0,0,.71,2.72,2.51,2.51,0,0,0,2.13,1,6.45,6.45,0,0,0,2.47-.52v1.29A5.22,5.22,0,0,1,189.78,108.82Z" style="fill: #314041"/>
    <path d="M202.82,103.82a5.32,5.32,0,0,1-1.19,3.68,4.18,4.18,0,0,1-3.28,1.32,4.35,4.35,0,0,1-2.29-.6,4,4,0,0,1-1.55-1.74,6.13,6.13,0,0,1-.55-2.66,5.34,5.34,0,0,1,1.18-3.67,4.2,4.2,0,0,1,3.27-1.31,4.08,4.08,0,0,1,3.21,1.34A5.27,5.27,0,0,1,202.82,103.82Zm-7.34,0a4.62,4.62,0,0,0,.73,2.82,2.94,2.94,0,0,0,4.35,0,4.52,4.52,0,0,0,.74-2.82,4.46,4.46,0,0,0-.74-2.79,2.62,2.62,0,0,0-2.19-1,2.54,2.54,0,0,0-2.16.94A4.5,4.5,0,0,0,195.48,103.82Z" style="fill: #314041"/>
    <path d="M212,108.65v-6.23a2.5,2.5,0,0,0-.53-1.76,2.18,2.18,0,0,0-1.68-.58,2.73,2.73,0,0,0-2.21.82,4.09,4.09,0,0,0-.71,2.69v5.06h-1.46V99h1.19l.24,1.31h.07a3,3,0,0,1,1.25-1.1,4.11,4.11,0,0,1,1.81-.39,3.62,3.62,0,0,1,2.61.84,3.54,3.54,0,0,1,.88,2.68v6.29Z" style="fill: #314041"/>
    <path d="M219.53,107.62a4.56,4.56,0,0,0,.75-.06,5.41,5.41,0,0,0,.57-.12v1.12a2.53,2.53,0,0,1-.7.19,5.16,5.16,0,0,1-.83.07q-2.79,0-2.79-2.94v-5.73h-1.38v-.7l1.38-.61.61-2.06H218V99h2.79v1.13H218v5.67a1.91,1.91,0,0,0,.41,1.33A1.43,1.43,0,0,0,219.53,107.62Z" style="fill: #314041"/>
    <path d="M228.7,108.65l-.29-1.37h-.07a4,4,0,0,1-1.44,1.22,4.28,4.28,0,0,1-1.79.32,3.21,3.21,0,0,1-2.24-.73,2.73,2.73,0,0,1-.82-2.11q0-2.91,4.67-3l1.64-.06v-.59a2.48,2.48,0,0,0-.49-1.68,2,2,0,0,0-1.56-.54,6.45,6.45,0,0,0-2.73.74l-.44-1.12a6.74,6.74,0,0,1,1.56-.6,6.56,6.56,0,0,1,1.7-.22,3.67,3.67,0,0,1,2.55.76,3.21,3.21,0,0,1,.83,2.45v6.58Zm-3.3-1a2.94,2.94,0,0,0,2.14-.75,2.75,2.75,0,0,0,.78-2.09v-.87l-1.46.06a5.31,5.31,0,0,0-2.51.54,1.64,1.64,0,0,0-.77,1.49,1.52,1.52,0,0,0,.48,1.21A2,2,0,0,0,225.4,107.62Z" style="fill: #314041"/>
    <path d="M236.64,108.82a4.09,4.09,0,0,1-3.24-1.28,5.29,5.29,0,0,1-1.15-3.65,5.48,5.48,0,0,1,1.16-3.73,4.21,4.21,0,0,1,3.32-1.32,6.5,6.5,0,0,1,1.39.15,4.82,4.82,0,0,1,1.09.35l-.45,1.24a6.16,6.16,0,0,0-1-.32,4.43,4.43,0,0,0-1-.13q-2.94,0-2.94,3.75a4.43,4.43,0,0,0,.72,2.72,2.5,2.5,0,0,0,2.12,1,6.41,6.41,0,0,0,2.47-.52v1.29A5.18,5.18,0,0,1,236.64,108.82Z" style="fill: #314041"/>
    <path d="M244.47,107.62a4.52,4.52,0,0,0,.74-.06l.58-.12v1.12a2.64,2.64,0,0,1-.7.19,5.25,5.25,0,0,1-.83.07c-1.87,0-2.8-1-2.8-2.94v-5.73h-1.38v-.7l1.38-.61.62-2.06h.84V99h2.79v1.13h-2.79v5.67a2,2,0,0,0,.41,1.33A1.46,1.46,0,0,0,244.47,107.62Z" style="fill: #314041"/>
    <path d="M258.31,108.65l-.29-1.37H258a4,4,0,0,1-1.44,1.22,4.25,4.25,0,0,1-1.79.32,3.21,3.21,0,0,1-2.24-.73,2.73,2.73,0,0,1-.82-2.11q0-2.91,4.67-3l1.64-.06v-.59a2.48,2.48,0,0,0-.49-1.68,2,2,0,0,0-1.56-.54,6.45,6.45,0,0,0-2.73.74l-.44-1.12a6.74,6.74,0,0,1,1.56-.6,6.56,6.56,0,0,1,1.7-.22,3.65,3.65,0,0,1,2.55.76,3.21,3.21,0,0,1,.83,2.45v6.58Zm-3.3-1a2.94,2.94,0,0,0,2.14-.75,2.75,2.75,0,0,0,.78-2.09v-.87l-1.46.06a5.31,5.31,0,0,0-2.51.54,1.64,1.64,0,0,0-.77,1.49,1.52,1.52,0,0,0,.48,1.21A2,2,0,0,0,255,107.62Z" style="fill: #314041"/>
    <path d="M264.51,108.65,260.85,99h1.56l2.08,5.71a24.84,24.84,0,0,1,.82,2.6h.07c.07-.31.27-1,.62-1.93s1.11-3.1,2.3-6.38h1.57l-3.66,9.63Z" style="fill: #314041"/>
    <path d="M275.48,108.82a4.43,4.43,0,0,1-3.37-1.3,5,5,0,0,1-1.23-3.61,5.55,5.55,0,0,1,1.15-3.7,3.81,3.81,0,0,1,3.08-1.37A3.64,3.64,0,0,1,278,100a4.57,4.57,0,0,1,1.06,3.14v.93h-6.64a3.83,3.83,0,0,0,.86,2.57,2.94,2.94,0,0,0,2.29.88,7.8,7.8,0,0,0,3.07-.65v1.3a8,8,0,0,1-1.46.48A8.83,8.83,0,0,1,275.48,108.82Zm-.39-8.76a2.36,2.36,0,0,0-1.85.76,3.52,3.52,0,0,0-.82,2.09h5a3.23,3.23,0,0,0-.61-2.12A2.2,2.2,0,0,0,275.09,100.06Z" style="fill: #314041"/>
    <path d="M285.36,108.82a4.12,4.12,0,0,1-3.24-1.28,5.34,5.34,0,0,1-1.14-3.65,5.48,5.48,0,0,1,1.16-3.73,4.19,4.19,0,0,1,3.32-1.32,6.64,6.64,0,0,1,1.39.15,5,5,0,0,1,1.09.35l-.45,1.24a6,6,0,0,0-1.06-.32,4.37,4.37,0,0,0-1-.13q-2.93,0-2.93,3.75a4.43,4.43,0,0,0,.72,2.72,2.48,2.48,0,0,0,2.12,1,6.45,6.45,0,0,0,2.47-.52v1.29A5.22,5.22,0,0,1,285.36,108.82Z" style="fill: #314041"/>
    <path d="M296.22,108.65h-1.46V95h1.46Z" style="fill: #314041"/>
    <path d="M303.38,108.82a4.41,4.41,0,0,1-3.37-1.3,5,5,0,0,1-1.24-3.61,5.61,5.61,0,0,1,1.15-3.7A3.83,3.83,0,0,1,303,98.84a3.66,3.66,0,0,1,2.87,1.19,4.57,4.57,0,0,1,1.05,3.14v.93h-6.63a3.83,3.83,0,0,0,.85,2.57,3,3,0,0,0,2.29.88,7.82,7.82,0,0,0,3.08-.65v1.3a8.27,8.27,0,0,1-1.46.48A8.83,8.83,0,0,1,303.38,108.82Zm-.4-8.76a2.37,2.37,0,0,0-1.85.76,3.46,3.46,0,0,0-.81,2.09h5a3.23,3.23,0,0,0-.62-2.12A2.18,2.18,0,0,0,303,100.06Z" style="fill: #314041"/>
    <path d="M315.62,106a2.39,2.39,0,0,1-1,2.07,4.67,4.67,0,0,1-2.81.73,6.19,6.19,0,0,1-3-.6v-1.36a7.16,7.16,0,0,0,1.49.56,6.43,6.43,0,0,0,1.53.2,3.5,3.5,0,0,0,1.76-.36,1.26,1.26,0,0,0,.13-2.08,7.59,7.59,0,0,0-1.9-.94,10.69,10.69,0,0,1-1.92-.88,2.71,2.71,0,0,1-.84-.85,2.23,2.23,0,0,1-.28-1.13,2.16,2.16,0,0,1,1-1.86,4.51,4.51,0,0,1,2.63-.68,7.7,7.7,0,0,1,3,.63l-.52,1.19a6.92,6.92,0,0,0-2.63-.6,3,3,0,0,0-1.56.33,1,1,0,0,0-.53.89,1.1,1.1,0,0,0,.2.66,1.85,1.85,0,0,0,.64.52,14.2,14.2,0,0,0,1.69.71,6.36,6.36,0,0,1,2.31,1.26A2.21,2.21,0,0,1,315.62,106Z" style="fill: #314041"/>
    <path d="M190,130.42a4.41,4.41,0,0,1-3.37-1.3,5,5,0,0,1-1.23-3.61,5.62,5.62,0,0,1,1.14-3.7,3.83,3.83,0,0,1,3.08-1.37,3.65,3.65,0,0,1,2.87,1.19,4.58,4.58,0,0,1,1,3.14v.93h-6.63a3.81,3.81,0,0,0,.85,2.57,3,3,0,0,0,2.29.88,7.82,7.82,0,0,0,3.08-.65v1.3a8.27,8.27,0,0,1-1.46.48A8.07,8.07,0,0,1,190,130.42Zm-.39-8.76a2.36,2.36,0,0,0-1.85.76,3.46,3.46,0,0,0-.82,2.09h5a3.2,3.2,0,0,0-.62-2.11A2.15,2.15,0,0,0,189.61,121.66Z" style="fill: #314041"/>
    <path d="M208.31,130.25V124a2.66,2.66,0,0,0-.49-1.73,1.92,1.92,0,0,0-1.53-.57,2.49,2.49,0,0,0-2,.78,3.75,3.75,0,0,0-.65,2.41v5.38h-1.46V124a2.61,2.61,0,0,0-.49-1.73,1.93,1.93,0,0,0-1.54-.57,2.36,2.36,0,0,0-2,.82,4.42,4.42,0,0,0-.64,2.69v5.06H196v-9.63h1.19l.23,1.31h.07a2.93,2.93,0,0,1,1.17-1.09,3.48,3.48,0,0,1,1.68-.4,2.87,2.87,0,0,1,3,1.63h.07a3,3,0,0,1,1.24-1.19,3.94,3.94,0,0,1,1.87-.44,3.28,3.28,0,0,1,2.45.84,3.75,3.75,0,0,1,.81,2.68v6.29Z" style="fill: #314041"/>
    <path d="M217.26,130.42a4.19,4.19,0,0,1-1.72-.34,3.22,3.22,0,0,1-1.31-1.07h-.1a13,13,0,0,1,.1,1.6v4h-1.46V120.62H214l.2,1.31h.07a3.52,3.52,0,0,1,1.31-1.14,4.06,4.06,0,0,1,1.72-.35,3.56,3.56,0,0,1,3,1.31,7,7,0,0,1,0,7.36A3.56,3.56,0,0,1,217.26,130.42Zm-.22-8.74a2.57,2.57,0,0,0-2.13.82,4.17,4.17,0,0,0-.68,2.6v.32a4.83,4.83,0,0,0,.68,2.91,2.57,2.57,0,0,0,2.17.87,2.26,2.26,0,0,0,2-1,4.79,4.79,0,0,0,.7-2.78,4.62,4.62,0,0,0-.7-2.77A2.35,2.35,0,0,0,217,121.68Z" style="fill: #314041"/>
    <path d="M225.26,130.25H223.8V116.57h1.46Z" style="fill: #314041"/>
    <path d="M236.67,125.42a5.27,5.27,0,0,1-1.19,3.68,4.17,4.17,0,0,1-3.27,1.32,4.38,4.38,0,0,1-2.3-.6,4,4,0,0,1-1.54-1.74,6,6,0,0,1-.55-2.66,5.29,5.29,0,0,1,1.18-3.67,4.17,4.17,0,0,1,3.27-1.31,4.08,4.08,0,0,1,3.21,1.34A5.32,5.32,0,0,1,236.67,125.42Zm-7.34,0a4.62,4.62,0,0,0,.74,2.82,2.94,2.94,0,0,0,4.35,0,4.58,4.58,0,0,0,.74-2.82,4.53,4.53,0,0,0-.74-2.79,2.64,2.64,0,0,0-2.2-.95,2.57,2.57,0,0,0-2.16.94A4.57,4.57,0,0,0,229.33,125.42Z" style="fill: #314041"/>
    <path d="M237.7,120.62h1.56l2.11,5.49a19.67,19.67,0,0,1,.86,2.71h.07q.12-.44.48-1.53c.25-.72,1-3,2.39-6.67h1.56l-4.14,11a5.39,5.39,0,0,1-1.43,2.31,3,3,0,0,1-2,.68,5.94,5.94,0,0,1-1.32-.15v-1.17a5.05,5.05,0,0,0,1.08.11,2.23,2.23,0,0,0,2.15-1.69l.53-1.37Z" style="fill: #314041"/>
    <path d="M252.37,130.42a4.4,4.4,0,0,1-3.37-1.3,5,5,0,0,1-1.24-3.61,5.63,5.63,0,0,1,1.15-3.7,3.81,3.81,0,0,1,3.08-1.37,3.66,3.66,0,0,1,2.87,1.19,4.58,4.58,0,0,1,1,3.14v.93h-6.64a3.81,3.81,0,0,0,.86,2.57,3,3,0,0,0,2.29.88,7.85,7.85,0,0,0,3.08-.65v1.3a8.35,8.35,0,0,1-1.47.48A8,8,0,0,1,252.37,130.42Zm-.4-8.76a2.37,2.37,0,0,0-1.85.76,3.46,3.46,0,0,0-.81,2.09h5a3.2,3.2,0,0,0-.62-2.11A2.17,2.17,0,0,0,252,121.66Zm-1.08-2.54a14.74,14.74,0,0,0,.91-1.32,14,14,0,0,0,.77-1.34h1.78v.18a13.92,13.92,0,0,1-1.16,1.41,12.74,12.74,0,0,1-1.32,1.29h-1Z" style="fill: #314041"/>
    <path d="M264.61,127.62a2.39,2.39,0,0,1-1,2.07,4.69,4.69,0,0,1-2.81.73,6.16,6.16,0,0,1-3-.6v-1.36a7.16,7.16,0,0,0,1.49.56,6.43,6.43,0,0,0,1.53.2,3.53,3.53,0,0,0,1.76-.36,1.26,1.26,0,0,0,.13-2.08,7.88,7.88,0,0,0-1.91-.94,10.86,10.86,0,0,1-1.91-.88,2.61,2.61,0,0,1-.84-.85,2.13,2.13,0,0,1-.28-1.13,2.16,2.16,0,0,1,1-1.86,4.49,4.49,0,0,1,2.63-.68,7.7,7.7,0,0,1,3,.63l-.52,1.19a7,7,0,0,0-2.63-.6,3,3,0,0,0-1.56.33,1,1,0,0,0-.53.89,1.1,1.1,0,0,0,.2.66,1.85,1.85,0,0,0,.64.52,13,13,0,0,0,1.68.71A6.34,6.34,0,0,1,264,126,2.21,2.21,0,0,1,264.61,127.62Z" style="fill: #314041"/>
  </g>
  <path d="M67,78.44A37.41,37.41,0,0,1,104.42,41V16.2c-20.62,0-38.23,9-50.35,25.65a62.24,62.24,0,0,0,13.77,86.94L82.43,108.7A37.36,37.36,0,0,1,67,78.44Z" style="fill: #dfdfdf"/>
  <path d="M104.42,16.2V41a37.42,37.42,0,1,1-22,67.68L67.84,128.79a59.63,59.63,0,0,0,36.58,11.89,62.24,62.24,0,0,0,0-124.48Z" style="fill: #de9393"/>
  <path d="M122.59,69.48l-7.94-8.7a.87.87,0,0,0-1.46,0l-8,8.7a1.17,1.17,0,0,0-.16,1.06.9.9,0,0,0,1,.71h15.89c.33,0,.65-.18.82-.71C122.92,70.19,122.92,69.65,122.59,69.48Z" style="fill: #81b59f;fill-rule: evenodd"/>
  <path d="M96.43,86.47a3.62,3.62,0,1,1-3.62-3.7A3.69,3.69,0,0,1,96.43,86.47Zm5.27,12.77v-.67A8.35,8.35,0,0,0,96.76,91l-.33-.16.33-.34a5.92,5.92,0,0,0,1.65-4,5.6,5.6,0,1,0-11.2,0,5.92,5.92,0,0,0,1.65,4l.33.34-.33.16a8.35,8.35,0,0,0-4.94,7.57v.67a1,1,0,1,0,2,0v-.67a6.94,6.94,0,0,1,13.84,0v.67a1,1,0,1,0,2,0Zm11.53-21.18a1,1,0,0,0,0-2h-6.59a1,1,0,0,0,0,2Zm-12-14.46a.69.69,0,0,1,.33.68v.33l.16.51a1.05,1.05,0,0,0,1,.84h2.63a1,1,0,0,0,0-2h-1.81a2.74,2.74,0,0,0-.82-1.85,3.46,3.46,0,0,0-2.14-.84H93.47a1.19,1.19,0,0,0-1,1V77.72a1,1,0,1,0,2,0V63.27h5.92A1.26,1.26,0,0,1,101.21,63.6Zm23.71,6.9-3.79,17.31a3,3,0,0,1-3,2.35h-16.8a1,1,0,0,1,0-2h16.8a1.25,1.25,0,0,0,1.15-.84l3.46-16H99.23l-1.48,7.73a1,1,0,0,1-1.32.84,1.14,1.14,0,0,1-.66-1.18l1.65-8.57a.92.92,0,0,1,1-.84h25.52a1.26,1.26,0,0,1,.82.33A1.85,1.85,0,0,1,124.92,70.5Z" style="fill: #293e40;fill-rule: evenodd"/>
</svg>
