<svg id="Layer_1" data-name="Layer 1" xmlns="http://www.w3.org/2000/svg" viewBox="0 0 90 90">
  <title>automation</title>
  <g>
    <path d="M45,85.62A40.62,40.62,0,1,0,4.38,45,40.61,40.61,0,0,0,45,85.62" style="fill: #2476ba"/>
    <path d="M28,52l-2.77-.62-1.3,5.83.56.89,1.93-1.22a22,22,0,0,0,21.66,10M61,37.76l3.82.86,1.31-5.83-.56-.89L63.6,33.12A22.05,22.05,0,0,0,38.14,24" style="fill: none;stroke: #fff;stroke-miterlimit: 10;stroke-width: 1.25600004196167px"/>
    <path d="M45,38.57a6.71,6.71,0,1,1-6.71,6.7A6.71,6.71,0,0,1,45,38.57Zm0,3.83a2.88,2.88,0,1,1-2.87,2.87A2.87,2.87,0,0,1,45,42.4ZM41.17,30.77l1.41-4h4.84l1.41,4,3.52,1.46,3.81-1.81,3.42,3.42-1.81,3.81,1.46,3.52,4,1.41v4.84l-4,1.41-1.46,3.52,1.81,3.81-3.42,3.42-3.81-1.81-3.52,1.46-1.41,4H42.58l-1.41-4-3.52-1.46-3.81,1.81-3.42-3.42,1.81-3.81-1.46-3.52-4-1.41V42.58l4-1.41,1.46-3.52-1.81-3.81,3.42-3.42,3.81,1.81Z" style="fill: none;stroke: #fff;stroke-miterlimit: 10;stroke-width: 1.25600004196167px"/>
  </g>
</svg>
