<svg id="Layer_1" data-name="Layer 1" xmlns="http://www.w3.org/2000/svg" xmlns:xlink="http://www.w3.org/1999/xlink" viewBox="0 0 1615.75 498.9">
  <defs>
    <linearGradient id="linear-gradient" x1="310.13" y1="304.12" x2="1614.92" y2="304.12" gradientUnits="userSpaceOnUse">
      <stop offset="0" stop-color="#cbd5e0" stop-opacity="0"/>
      <stop offset="1" stop-color="#cbd5e0"/>
    </linearGradient>
  </defs>
  <title>automation_stage2</title>
  <line x1="283.02" y1="19.54" x2="283.02" y2="611.54" style="fill: none;stroke: gray;stroke-miterlimit: 10"/>
  <rect x="310.13" y="131.23" width="1304.79" height="345.77" style="opacity: 0.5;fill: url(#linear-gradient)"/>
  <line x1="609.63" y1="20" x2="609.63" y2="612" style="fill: none;stroke: gray;stroke-miterlimit: 10"/>
  <line x1="963.63" y1="20" x2="963.63" y2="612" style="fill: none;stroke: gray;stroke-miterlimit: 10"/>
  <line x1="0.42" y1="111.44" x2="1614.31" y2="111.44" style="fill: none;stroke: gray;stroke-miterlimit: 10"/>
  <g>
    <path d="M375,27.93h7.5a7,7,0,0,1,5.91,2.74A10.16,10.16,0,0,1,390.32,37a12.78,12.78,0,0,1-1.11,5.4,6.83,6.83,0,0,1-6.71,4.26H375Zm7,16.57a6.69,6.69,0,0,0,2.07-.26,4.58,4.58,0,0,0,2.37-1.92,7.94,7.94,0,0,0,1.06-2.91,10.8,10.8,0,0,0,.19-2A9.25,9.25,0,0,0,386.36,32,4.93,4.93,0,0,0,382,30.11h-4.4V44.5Z"/>
    <path d="M393.49,27.93h2.33v2.6h-2.33Zm0,5.14h2.33v13.6h-2.33Z"/>
    <path d="M406.89,33.56a6.16,6.16,0,0,1,1.32,1.3V33.14h2.12V45.56a9.3,9.3,0,0,1-.76,4.11c-.95,1.86-2.75,2.78-5.38,2.78a6.57,6.57,0,0,1-3.7-1,3.8,3.8,0,0,1-1.68-3.09h2.33a2.62,2.62,0,0,0,.66,1.42,3.37,3.37,0,0,0,2.44.76c1.75,0,2.89-.62,3.44-1.86a10.51,10.51,0,0,0,.44-3.92,4.53,4.53,0,0,1-1.65,1.56,5.52,5.52,0,0,1-2.56.51A5.46,5.46,0,0,1,400,45.26c-1.1-1-1.66-2.78-1.66-5.21a7.9,7.9,0,0,1,1.68-5.36,5.16,5.16,0,0,1,4-1.92A4.94,4.94,0,0,1,406.89,33.56Zm.28,2.46a3.33,3.33,0,0,0-2.65-1.23,3.29,3.29,0,0,0-3.31,2.28,9,9,0,0,0-.46,3.17,5.7,5.7,0,0,0,.93,3.52,3,3,0,0,0,2.51,1.2,3.51,3.51,0,0,0,3.46-2.23,7.25,7.25,0,0,0,.56-2.95A5.74,5.74,0,0,0,407.17,36Z"/>
    <path d="M413.82,27.93h2.34v2.6h-2.34Zm0,5.14h2.34v13.6h-2.34Z"/>
    <path d="M420.09,29.19h2.32V33h2.18v1.87h-2.18V43.8a1,1,0,0,0,.49,1,2.1,2.1,0,0,0,.89.14h.36a4.2,4.2,0,0,0,.44,0v1.82a4.26,4.26,0,0,1-.82.17,8.7,8.7,0,0,1-.93,0,2.5,2.5,0,0,1-2.18-.82,3.68,3.68,0,0,1-.57-2.14v-9h-1.85V33h1.85Z"/>
    <path d="M434.21,38.4a1.22,1.22,0,0,0,1.06-.66,2,2,0,0,0,.15-.88,1.86,1.86,0,0,0-.83-1.71,4.39,4.39,0,0,0-2.39-.53,3,3,0,0,0-2.54,1,3.16,3.16,0,0,0-.55,1.6H427a3.94,3.94,0,0,1,1.63-3.52,6.72,6.72,0,0,1,3.65-1,7.36,7.36,0,0,1,3.92.92,3.11,3.11,0,0,1,1.49,2.85v7.88a1,1,0,0,0,.15.57.7.7,0,0,0,.61.22l.35,0,.41-.06v1.7a7.72,7.72,0,0,1-.82.19,7.15,7.15,0,0,1-.77,0,1.88,1.88,0,0,1-1.72-.85,3,3,0,0,1-.39-1.26,5.87,5.87,0,0,1-2,1.6,6.25,6.25,0,0,1-2.9.67,4.29,4.29,0,0,1-3.1-1.15,3.81,3.81,0,0,1-1.21-2.89,3.73,3.73,0,0,1,1.19-2.94,5.62,5.62,0,0,1,3.11-1.29Zm-4.83,6.21a2.7,2.7,0,0,0,1.72.57,5.31,5.31,0,0,0,2.35-.56,3.15,3.15,0,0,0,1.91-3V39.73a3.9,3.9,0,0,1-1.08.45,8.75,8.75,0,0,1-1.3.25l-1.39.18a5.44,5.44,0,0,0-1.87.52A2,2,0,0,0,428.65,43,1.88,1.88,0,0,0,429.38,44.61Z"/>
    <path d="M441.49,27.93h2.29V46.67h-2.29Z"/>
    <path d="M454.49,27.93h2.33v2.6h-2.33Zm0,5.14h2.33v13.6h-2.33Z"/>
    <path d="M460.29,33h2.19V35a6,6,0,0,1,2-1.72,5.46,5.46,0,0,1,2.41-.53c1.94,0,3.25.68,3.93,2a7.13,7.13,0,0,1,.56,3.18v8.76H469.1V38.06a4.83,4.83,0,0,0-.37-2,2.24,2.24,0,0,0-2.22-1.27,4.54,4.54,0,0,0-1.34.16,3.51,3.51,0,0,0-1.66,1.13,3.43,3.43,0,0,0-.75,1.4,9.69,9.69,0,0,0-.17,2.06v7.15h-2.3Z"/>
    <path d="M474.83,33H477V35a6.05,6.05,0,0,1,2.05-1.72,5.51,5.51,0,0,1,2.42-.53c1.94,0,3.24.68,3.93,2a7.28,7.28,0,0,1,.56,3.18v8.76h-2.34V38.06a4.67,4.67,0,0,0-.37-2A2.24,2.24,0,0,0,481,34.77a4.59,4.59,0,0,0-1.34.16A3.51,3.51,0,0,0,478,36.06a3.29,3.29,0,0,0-.74,1.4,9,9,0,0,0-.18,2.06v7.15h-2.29Z"/>
    <path d="M499.26,34.37a6.89,6.89,0,0,1,1.81,5.18A8.91,8.91,0,0,1,499.48,45a5.77,5.77,0,0,1-5,2.16,5.57,5.57,0,0,1-4.44-1.91,7.54,7.54,0,0,1-1.65-5.12,8.17,8.17,0,0,1,1.74-5.48,5.8,5.8,0,0,1,4.66-2A6.13,6.13,0,0,1,499.26,34.37Zm-1.42,9.08a8.65,8.65,0,0,0,.83-3.84,7,7,0,0,0-.6-3.11,3.41,3.41,0,0,0-3.31-1.88,3.24,3.24,0,0,0-3,1.6,7.42,7.42,0,0,0-.95,3.88,6.45,6.45,0,0,0,.95,3.63,3.31,3.31,0,0,0,3,1.45A3.12,3.12,0,0,0,497.84,43.45Z"/>
    <path d="M505,33l3.65,11.12L512.47,33H515l-5.15,13.66H507.4l-5-13.66Z"/>
    <path d="M524.28,38.4a1.22,1.22,0,0,0,1.06-.66,2,2,0,0,0,.16-.88,1.86,1.86,0,0,0-.84-1.71,4.39,4.39,0,0,0-2.39-.53,3,3,0,0,0-2.54,1,3.16,3.16,0,0,0-.55,1.6H517a3.94,3.94,0,0,1,1.63-3.52,6.73,6.73,0,0,1,3.66-1,7.35,7.35,0,0,1,3.91.92,3.11,3.11,0,0,1,1.49,2.85v7.88a1,1,0,0,0,.15.57.7.7,0,0,0,.61.22l.35,0,.41-.06v1.7a7.72,7.72,0,0,1-.82.19,7.09,7.09,0,0,1-.76,0,1.88,1.88,0,0,1-1.73-.85,3,3,0,0,1-.39-1.26,5.87,5.87,0,0,1-2,1.6,6.22,6.22,0,0,1-2.9.67,4.29,4.29,0,0,1-3.1-1.15,3.81,3.81,0,0,1-1.21-2.89,3.73,3.73,0,0,1,1.19-2.94,5.62,5.62,0,0,1,3.11-1.29Zm-4.83,6.21a2.7,2.7,0,0,0,1.72.57,5.31,5.31,0,0,0,2.35-.56,3.15,3.15,0,0,0,1.91-3V39.73a3.9,3.9,0,0,1-1.08.45,8.75,8.75,0,0,1-1.3.25l-1.39.18a5.5,5.5,0,0,0-1.87.52A2,2,0,0,0,518.72,43,1.88,1.88,0,0,0,519.45,44.61Z"/>
    <path d="M532,29.19h2.32V33h2.19v1.87h-2.19V43.8a1,1,0,0,0,.49,1,2.13,2.13,0,0,0,.89.14H536a4.14,4.14,0,0,0,.45,0v1.82a4.52,4.52,0,0,1-.83.17,8.65,8.65,0,0,1-.92,0,2.48,2.48,0,0,1-2.18-.82,3.61,3.61,0,0,1-.58-2.14v-9H530.1V33H532Z"/>
    <path d="M538.75,27.93h2.34v2.6h-2.34Zm0,5.14h2.34v13.6h-2.34Z"/>
    <path d="M554.46,34.37a6.89,6.89,0,0,1,1.81,5.18A8.91,8.91,0,0,1,554.68,45a5.77,5.77,0,0,1-5,2.16,5.59,5.59,0,0,1-4.45-1.91,7.59,7.59,0,0,1-1.64-5.12,8.22,8.22,0,0,1,1.73-5.48,5.82,5.82,0,0,1,4.67-2A6.14,6.14,0,0,1,554.46,34.37ZM553,43.45a8.65,8.65,0,0,0,.84-3.84,7,7,0,0,0-.6-3.11A3.41,3.41,0,0,0,550,34.62a3.26,3.26,0,0,0-3,1.6A7.51,7.51,0,0,0,546,40.1a6.53,6.53,0,0,0,.94,3.63,3.34,3.34,0,0,0,3,1.45A3.11,3.11,0,0,0,553,43.45Z"/>
    <path d="M559.09,33h2.18V35a6,6,0,0,1,2.06-1.72,5.43,5.43,0,0,1,2.41-.53c1.94,0,3.25.68,3.93,2a7.28,7.28,0,0,1,.56,3.18v8.76H567.9V38.06a4.83,4.83,0,0,0-.37-2,2.24,2.24,0,0,0-2.22-1.27,4.54,4.54,0,0,0-1.34.16,3.47,3.47,0,0,0-1.66,1.13,3.32,3.32,0,0,0-.75,1.4,9.69,9.69,0,0,0-.17,2.06v7.15h-2.3Z"/>
    <path d="M376.08,57.8h19.18V61H379.57v8h14.5v3.06h-14.5v9h16v3.15H376.08Z"/>
    <path d="M398.05,65h4.19l4.43,6.78L411.15,65l3.94.09-6.5,9.3,6.79,9.88h-4.14L406.45,77l-4.64,7.24h-4.1l6.78-9.88Z"/>
    <path d="M418,65.06h3.17v2.55a8,8,0,0,1,2.13-2,6.85,6.85,0,0,1,3.86-1.08A7.22,7.22,0,0,1,432.77,67q2.3,2.51,2.3,7.17,0,6.3-3.31,9a7.49,7.49,0,0,1-4.88,1.71,6.62,6.62,0,0,1-3.67-1,8.47,8.47,0,0,1-1.93-1.85v9.84H418Zm12.19,15.1a9,9,0,0,0,1.51-5.67,10.65,10.65,0,0,0-.67-4,4.9,4.9,0,0,0-9.25.18,13.43,13.43,0,0,0-.66,4.57,9.74,9.74,0,0,0,.66,3.79,4.92,4.92,0,0,0,8.41,1.09Z"/>
    <path d="M450.71,65.5A7.28,7.28,0,0,1,453.63,68a8.73,8.73,0,0,1,1.29,3.4,22.58,22.58,0,0,1,.28,4.25h-14a8.33,8.33,0,0,0,1.38,4.72,4.59,4.59,0,0,0,4,1.77,5.12,5.12,0,0,0,4-1.68,5.78,5.78,0,0,0,1.19-2.26h3.18a6.53,6.53,0,0,1-.84,2.37,8.43,8.43,0,0,1-1.58,2.13,7.45,7.45,0,0,1-3.63,1.94,10.45,10.45,0,0,1-2.62.29,8,8,0,0,1-6.06-2.62c-1.66-1.74-2.49-4.19-2.49-7.33a11.17,11.17,0,0,1,2.5-7.54,8.26,8.26,0,0,1,6.55-2.9A8.57,8.57,0,0,1,450.71,65.5Zm1.16,7.56A8.36,8.36,0,0,0,451,69.7a4.65,4.65,0,0,0-4.4-2.34A4.89,4.89,0,0,0,442.84,69a6.1,6.1,0,0,0-1.58,4.09Z"/>
    <path d="M459.4,65h3.07v3.32a7.35,7.35,0,0,1,1.86-2.36,4.79,4.79,0,0,1,3.4-1.4l.3,0,.74.07V68c-.19,0-.37-.06-.53-.07l-.53,0A4.62,4.62,0,0,0,464,69.53a5.48,5.48,0,0,0-1.32,3.62V84.24H459.4Z"/>
    <path d="M471.58,57.8h3.29v3.67h-3.29Zm0,7.26h3.29V84.24h-3.29Z"/>
    <path d="M479.76,65H483V67.7a10.55,10.55,0,0,1,2.09-2.07,6.25,6.25,0,0,1,3.63-1.1,5.71,5.71,0,0,1,3.71,1.14,6,6,0,0,1,1.44,1.91,7,7,0,0,1,2.53-2.3,7.1,7.1,0,0,1,3.28-.75q3.89,0,5.29,2.81a9.23,9.23,0,0,1,.76,4.07V84.24h-3.37V70.85a3.1,3.1,0,0,0-1-2.64,3.82,3.82,0,0,0-2.35-.72,4.64,4.64,0,0,0-3.28,1.27c-.92.85-1.38,2.28-1.38,4.27V84.24h-3.29V71.66a6.55,6.55,0,0,0-.47-2.86,2.86,2.86,0,0,0-2.76-1.35,4.72,4.72,0,0,0-3.33,1.42c-1,.95-1.51,2.66-1.51,5.15V84.24h-3.24Z"/>
    <path d="M522.37,65.5A7.25,7.25,0,0,1,525.28,68a8.43,8.43,0,0,1,1.29,3.4,22.38,22.38,0,0,1,.29,4.25h-14a8.41,8.41,0,0,0,1.37,4.72,4.61,4.61,0,0,0,4,1.77,5.11,5.11,0,0,0,4-1.68,5.65,5.65,0,0,0,1.19-2.26h3.19a6.72,6.72,0,0,1-.84,2.37,8.43,8.43,0,0,1-1.58,2.13,7.45,7.45,0,0,1-3.63,1.94,10.51,10.51,0,0,1-2.62.29,8,8,0,0,1-6.07-2.62c-1.65-1.74-2.48-4.19-2.48-7.33a11.12,11.12,0,0,1,2.5-7.54,8.25,8.25,0,0,1,6.55-2.9A8.6,8.6,0,0,1,522.37,65.5Zm1.16,7.56a8.52,8.52,0,0,0-.91-3.36,4.66,4.66,0,0,0-4.41-2.34A4.88,4.88,0,0,0,514.5,69a6.11,6.11,0,0,0-1.59,4.09Z"/>
    <path d="M531,65H534V67.7a8.64,8.64,0,0,1,2.89-2.43,7.79,7.79,0,0,1,3.41-.74q4.1,0,5.54,2.87a10.1,10.1,0,0,1,.79,4.48V84.24h-3.29V72.09a6.7,6.7,0,0,0-.52-2.84,3.17,3.17,0,0,0-3.14-1.8,6.68,6.68,0,0,0-1.89.23,4.87,4.87,0,0,0-2.33,1.59,4.71,4.71,0,0,0-1.06,2,13.37,13.37,0,0,0-.24,2.9v10.1H531Z"/>
    <path d="M552.1,59.58h3.28V65h3.08v2.64h-3.08V80.19a1.37,1.37,0,0,0,.68,1.35,3,3,0,0,0,1.26.2h.51l.63-.06v2.57a7.44,7.44,0,0,1-1.16.23,10.8,10.8,0,0,1-1.31.07c-1.51,0-2.54-.38-3.07-1.16a5.06,5.06,0,0,1-.82-3V67.61h-2.6V65h2.6Z"/>
    <path d="M573.6,65.5A7.28,7.28,0,0,1,576.52,68a8.57,8.57,0,0,1,1.28,3.4,22.38,22.38,0,0,1,.29,4.25h-14a8.33,8.33,0,0,0,1.38,4.72,4.58,4.58,0,0,0,4,1.77,5.12,5.12,0,0,0,4-1.68,5.76,5.76,0,0,0,1.18-2.26h3.19a6.53,6.53,0,0,1-.84,2.37,8.43,8.43,0,0,1-1.58,2.13,7.45,7.45,0,0,1-3.63,1.94,10.51,10.51,0,0,1-2.62.29,8,8,0,0,1-6.07-2.62c-1.65-1.74-2.48-4.19-2.48-7.33a11.12,11.12,0,0,1,2.5-7.54,8.25,8.25,0,0,1,6.55-2.9A8.6,8.6,0,0,1,573.6,65.5Zm1.16,7.56a8.36,8.36,0,0,0-.91-3.36,4.66,4.66,0,0,0-4.41-2.34A4.88,4.88,0,0,0,565.73,69a6.11,6.11,0,0,0-1.59,4.09Z"/>
    <path d="M582.28,65h3.08v3.32a7.44,7.44,0,0,1,1.85-2.36,4.82,4.82,0,0,1,3.4-1.4l.31,0,.74.07V68c-.19,0-.37-.06-.53-.07l-.53,0a4.64,4.64,0,0,0-3.77,1.58,5.52,5.52,0,0,0-1.31,3.62V84.24h-3.24Z"/>
  </g>
  <g>
    <path d="M726.13,27.93h7.49a7,7,0,0,1,5.92,2.74A10.22,10.22,0,0,1,741.42,37a12.78,12.78,0,0,1-1.11,5.4,6.83,6.83,0,0,1-6.71,4.26h-7.47Zm7,16.57a6.74,6.74,0,0,0,2.07-.26,4.58,4.58,0,0,0,2.37-1.92,7.94,7.94,0,0,0,1.06-2.91,11.7,11.7,0,0,0,.18-2A9.32,9.32,0,0,0,737.46,32a4.94,4.94,0,0,0-4.36-1.93h-4.4V44.5Z"/>
    <path d="M744.58,27.93h2.34v2.6h-2.34Zm0,5.14h2.34v13.6h-2.34Z"/>
    <path d="M758,33.56a6,6,0,0,1,1.33,1.3V33.14h2.11V45.56a9.16,9.16,0,0,1-.76,4.11c-.95,1.86-2.74,2.78-5.38,2.78a6.57,6.57,0,0,1-3.7-1,3.85,3.85,0,0,1-1.68-3.09h2.34a2.62,2.62,0,0,0,.66,1.42,3.32,3.32,0,0,0,2.43.76c1.75,0,2.9-.62,3.44-1.86a10.68,10.68,0,0,0,.45-3.92,4.48,4.48,0,0,1-1.66,1.56,5.89,5.89,0,0,1-6.42-1.07c-1.11-1-1.66-2.78-1.66-5.21a8,8,0,0,1,1.67-5.36,5.18,5.18,0,0,1,4-1.92A4.91,4.91,0,0,1,758,33.56Zm.28,2.46a3.5,3.5,0,0,0-6,1,8.94,8.94,0,0,0-.47,3.17,5.7,5.7,0,0,0,.93,3.52,3,3,0,0,0,2.51,1.2,3.52,3.52,0,0,0,3.47-2.23,7.25,7.25,0,0,0,.56-2.95A5.68,5.68,0,0,0,758.26,36Z"/>
    <path d="M764.92,27.93h2.33v2.6h-2.33Zm0,5.14h2.33v13.6h-2.33Z"/>
    <path d="M771.18,29.19h2.33V33h2.18v1.87h-2.18V43.8a1,1,0,0,0,.48,1,2.13,2.13,0,0,0,.89.14h.36a4.14,4.14,0,0,0,.45,0v1.82a4.59,4.59,0,0,1-.82.17,9,9,0,0,1-.93,0,2.48,2.48,0,0,1-2.18-.82,3.68,3.68,0,0,1-.58-2.14v-9h-1.85V33h1.85Z"/>
    <path d="M785.31,38.4a1.22,1.22,0,0,0,1.06-.66,2,2,0,0,0,.15-.88,1.88,1.88,0,0,0-.83-1.71,4.41,4.41,0,0,0-2.39-.53,3,3,0,0,0-2.55,1,3.17,3.17,0,0,0-.54,1.6h-2.15a4,4,0,0,1,1.64-3.52,6.72,6.72,0,0,1,3.65-1,7.33,7.33,0,0,1,3.91.92,3.09,3.09,0,0,1,1.49,2.85v7.88a1,1,0,0,0,.15.57.73.73,0,0,0,.62.22l.35,0,.4-.06v1.7a7.66,7.66,0,0,1-.81.19,7.31,7.31,0,0,1-.77,0,1.88,1.88,0,0,1-1.72-.85,3.16,3.16,0,0,1-.4-1.26,5.83,5.83,0,0,1-2,1.6,6.25,6.25,0,0,1-2.9.67A4.32,4.32,0,0,1,778.55,46a3.84,3.84,0,0,1-1.2-2.89,3.69,3.69,0,0,1,1.19-2.94,5.59,5.59,0,0,1,3.11-1.29Zm-4.84,6.21a2.73,2.73,0,0,0,1.73.57,5.26,5.26,0,0,0,2.34-.56,3.15,3.15,0,0,0,1.92-3V39.73a3.9,3.9,0,0,1-1.08.45,9.27,9.27,0,0,1-1.3.25l-1.39.18a5.57,5.57,0,0,0-1.88.52A2,2,0,0,0,779.75,43,1.9,1.9,0,0,0,780.47,44.61Z"/>
    <path d="M792.58,27.93h2.3V46.67h-2.3Z"/>
    <path d="M805.58,27.93h2.34v2.6h-2.34Zm0,5.14h2.34v13.6h-2.34Z"/>
    <path d="M811.39,33h2.18V35a6,6,0,0,1,2.06-1.72A5.43,5.43,0,0,1,818,32.7c1.94,0,3.25.68,3.93,2a7.28,7.28,0,0,1,.56,3.18v8.76h-2.34V38.06a4.67,4.67,0,0,0-.37-2,2.23,2.23,0,0,0-2.22-1.27,4.59,4.59,0,0,0-1.34.16,3.44,3.44,0,0,0-1.65,1.13,3.21,3.21,0,0,0-.75,1.4,9.07,9.07,0,0,0-.17,2.06v7.15h-2.3Z"/>
    <path d="M825.92,33h2.19V35a6,6,0,0,1,2-1.72,5.46,5.46,0,0,1,2.41-.53c1.94,0,3.25.68,3.93,2a7.13,7.13,0,0,1,.56,3.18v8.76h-2.33V38.06a4.83,4.83,0,0,0-.37-2,2.24,2.24,0,0,0-2.22-1.27,4.54,4.54,0,0,0-1.34.16,3.51,3.51,0,0,0-1.66,1.13,3.43,3.43,0,0,0-.75,1.4,9.69,9.69,0,0,0-.17,2.06v7.15h-2.3Z"/>
    <path d="M850.36,34.37a6.89,6.89,0,0,1,1.81,5.18,8.85,8.85,0,0,1-1.6,5.45,5.74,5.74,0,0,1-5,2.16,5.59,5.59,0,0,1-4.45-1.91,7.53,7.53,0,0,1-1.64-5.12,8.16,8.16,0,0,1,1.73-5.48,5.81,5.81,0,0,1,4.66-2A6.15,6.15,0,0,1,850.36,34.37Zm-1.43,9.08a8.65,8.65,0,0,0,.84-3.84,7,7,0,0,0-.6-3.11,3.42,3.42,0,0,0-3.31-1.88,3.25,3.25,0,0,0-3,1.6,7.51,7.51,0,0,0-.94,3.88,6.53,6.53,0,0,0,.94,3.63,3.31,3.31,0,0,0,3,1.45A3.12,3.12,0,0,0,848.93,43.45Z"/>
    <path d="M856.12,33l3.65,11.12L863.57,33h2.51l-5.14,13.66h-2.45l-5-13.66Z"/>
    <path d="M875.38,38.4a1.22,1.22,0,0,0,1.06-.66,2,2,0,0,0,.15-.88,1.88,1.88,0,0,0-.83-1.71,4.41,4.41,0,0,0-2.39-.53,3,3,0,0,0-2.55,1,3.17,3.17,0,0,0-.54,1.6h-2.15a3.94,3.94,0,0,1,1.64-3.52,6.72,6.72,0,0,1,3.65-1,7.33,7.33,0,0,1,3.91.92,3.09,3.09,0,0,1,1.49,2.85v7.88a1,1,0,0,0,.15.57.73.73,0,0,0,.62.22l.34,0,.41-.06v1.7a7.66,7.66,0,0,1-.81.19,7.31,7.31,0,0,1-.77,0,1.88,1.88,0,0,1-1.72-.85,3.16,3.16,0,0,1-.4-1.26,5.93,5.93,0,0,1-2,1.6,6.25,6.25,0,0,1-2.9.67A4.32,4.32,0,0,1,868.62,46a3.84,3.84,0,0,1-1.2-2.89,3.72,3.72,0,0,1,1.18-2.94,5.65,5.65,0,0,1,3.12-1.29Zm-4.84,6.21a2.73,2.73,0,0,0,1.73.57,5.26,5.26,0,0,0,2.34-.56,3.15,3.15,0,0,0,1.92-3V39.73a3.9,3.9,0,0,1-1.08.45,9.27,9.27,0,0,1-1.3.25l-1.39.18a5.57,5.57,0,0,0-1.88.52A2,2,0,0,0,869.82,43,1.9,1.9,0,0,0,870.54,44.61Z"/>
    <path d="M883.05,29.19h2.32V33h2.18v1.87h-2.18V43.8a1,1,0,0,0,.49,1,2.06,2.06,0,0,0,.89.14h.36a4.2,4.2,0,0,0,.44,0v1.82a4.42,4.42,0,0,1-.82.17,8.85,8.85,0,0,1-.93,0,2.48,2.48,0,0,1-2.18-.82,3.68,3.68,0,0,1-.57-2.14v-9H881.2V33h1.85Z"/>
    <path d="M889.85,27.93h2.33v2.6h-2.33Zm0,5.14h2.33v13.6h-2.33Z"/>
    <path d="M905.56,34.37a6.93,6.93,0,0,1,1.81,5.18,8.85,8.85,0,0,1-1.6,5.45,5.74,5.74,0,0,1-4.95,2.16,5.59,5.59,0,0,1-4.45-1.91,7.54,7.54,0,0,1-1.65-5.12,8.17,8.17,0,0,1,1.74-5.48,5.81,5.81,0,0,1,4.66-2A6.15,6.15,0,0,1,905.56,34.37Zm-1.43,9.08a8.65,8.65,0,0,0,.84-3.84,6.83,6.83,0,0,0-.61-3.11,3.4,3.4,0,0,0-3.3-1.88,3.25,3.25,0,0,0-3,1.6,7.51,7.51,0,0,0-.95,3.88,6.53,6.53,0,0,0,.95,3.63,3.31,3.31,0,0,0,3,1.45A3.12,3.12,0,0,0,904.13,43.45Z"/>
    <path d="M910.19,33h2.18V35a6.05,6.05,0,0,1,2-1.72,5.51,5.51,0,0,1,2.42-.53c1.94,0,3.24.68,3.93,2a7.28,7.28,0,0,1,.56,3.18v8.76H919V38.06a4.67,4.67,0,0,0-.37-2,2.24,2.24,0,0,0-2.22-1.27,4.59,4.59,0,0,0-1.34.16,3.51,3.51,0,0,0-1.66,1.13,3.29,3.29,0,0,0-.74,1.4,9.07,9.07,0,0,0-.17,2.06v7.15h-2.3Z"/>
    <path d="M748.61,61.58a14.6,14.6,0,0,1,2.62,9,15.76,15.76,0,0,1-3,9.85Q744.71,85,738.17,85a12,12,0,0,1-9.59-4,15.18,15.18,0,0,1-3.12-9.82A15.59,15.59,0,0,1,728.13,62q3.42-4.89,10.11-4.9Q745.24,57.08,748.61,61.58Zm-3.16,16.85a14.43,14.43,0,0,0,2.11-7.81,11.08,11.08,0,0,0-2.44-7.5,8.29,8.29,0,0,0-6.66-2.85,8.69,8.69,0,0,0-6.7,2.82c-1.72,1.88-2.59,4.65-2.59,8.31a12.15,12.15,0,0,0,2.22,7.41q2.24,3,7.21,3Q743.34,81.83,745.45,78.43Z"/>
    <path d="M754.8,65.06H758v2.55a8,8,0,0,1,2.13-2A6.87,6.87,0,0,1,764,64.5,7.26,7.26,0,0,1,769.53,67q2.29,2.51,2.29,7.17,0,6.3-3.31,9a7.46,7.46,0,0,1-4.87,1.71,6.62,6.62,0,0,1-3.67-1A8.27,8.27,0,0,1,758,82.08v9.84H754.8ZM767,80.16c1-1.26,1.51-3.16,1.51-5.67a10.45,10.45,0,0,0-.67-4,4.9,4.9,0,0,0-9.24.18,13.17,13.17,0,0,0-.67,4.57,9.55,9.55,0,0,0,.67,3.79,4.91,4.91,0,0,0,8.4,1.09Z"/>
    <path d="M776.21,59.58h3.28V65h3.07v2.64h-3.07V80.19a1.36,1.36,0,0,0,.68,1.35,2.92,2.92,0,0,0,1.26.2h.5l.63-.06v2.57a7.22,7.22,0,0,1-1.16.23,10.52,10.52,0,0,1-1.3.07c-1.51,0-2.54-.38-3.08-1.16a5.13,5.13,0,0,1-.81-3V67.61H773.6V65h2.61Z"/>
    <path d="M785.8,57.8h3.29v3.67H785.8Zm0,7.26h3.29V84.24H785.8Z"/>
    <path d="M794,65h3.2V67.7a10.82,10.82,0,0,1,2.09-2.07,6.3,6.3,0,0,1,3.64-1.1,5.68,5.68,0,0,1,3.7,1.14,5.86,5.86,0,0,1,1.44,1.91,6.72,6.72,0,0,1,5.81-3c2.59,0,4.36.94,5.29,2.81a9.09,9.09,0,0,1,.76,4.07V84.24h-3.36V70.85a3.11,3.11,0,0,0-1-2.64,3.8,3.8,0,0,0-2.35-.72A4.66,4.66,0,0,0,810,68.76c-.92.85-1.38,2.28-1.38,4.27V84.24h-3.29V71.66a6.55,6.55,0,0,0-.47-2.86,2.85,2.85,0,0,0-2.75-1.35,4.75,4.75,0,0,0-3.34,1.42c-1,.95-1.5,2.66-1.5,5.15V84.24H794Z"/>
    <path d="M824.69,57.8H828v3.67h-3.29Zm0,7.26H828V84.24h-3.29Z"/>
    <path d="M831.44,81.68l11.44-13.82h-10.6V65h15v2.64L835.87,81.34h11.71v2.9H831.44Z"/>
    <path d="M863.21,65.5A7.25,7.25,0,0,1,866.12,68a8.43,8.43,0,0,1,1.29,3.4,22.38,22.38,0,0,1,.29,4.25h-14a8.41,8.41,0,0,0,1.37,4.72,4.61,4.61,0,0,0,4,1.77,5.11,5.11,0,0,0,4-1.68,5.65,5.65,0,0,0,1.19-2.26h3.19a6.93,6.93,0,0,1-.84,2.37A8.22,8.22,0,0,1,865,82.69a7.38,7.38,0,0,1-3.62,1.94,10.53,10.53,0,0,1-2.63.29,8,8,0,0,1-6.06-2.62c-1.65-1.74-2.48-4.19-2.48-7.33a11.12,11.12,0,0,1,2.5-7.54,8.25,8.25,0,0,1,6.55-2.9A8.6,8.6,0,0,1,863.21,65.5Zm1.16,7.56a8.52,8.52,0,0,0-.91-3.36,4.66,4.66,0,0,0-4.41-2.34A4.88,4.88,0,0,0,855.34,69a6.11,6.11,0,0,0-1.59,4.09Z"/>
    <path d="M871.89,65H875v3.32a7.44,7.44,0,0,1,1.85-2.36,4.81,4.81,0,0,1,3.4-1.4l.31,0,.74.07V68c-.2,0-.37-.06-.54-.07l-.53,0a4.63,4.63,0,0,0-3.76,1.58,5.52,5.52,0,0,0-1.31,3.62V84.24h-3.24Z"/>
  </g>
  <g>
    <path d="M1103.23,27.93h7.49a7,7,0,0,1,5.92,2.74,10.22,10.22,0,0,1,1.87,6.34,12.78,12.78,0,0,1-1.11,5.4,6.82,6.82,0,0,1-6.71,4.26h-7.46Zm7,16.57a6.69,6.69,0,0,0,2.07-.26,4.58,4.58,0,0,0,2.37-1.92,7.94,7.94,0,0,0,1.06-2.91,10.8,10.8,0,0,0,.19-2,9.25,9.25,0,0,0-1.36-5.41,4.93,4.93,0,0,0-4.36-1.93h-4.4V44.5Z"/>
    <path d="M1121.68,27.93H1124v2.6h-2.33Zm0,5.14H1124v13.6h-2.33Z"/>
    <path d="M1135.08,33.56a6.16,6.16,0,0,1,1.32,1.3V33.14h2.12V45.56a9.15,9.15,0,0,1-.77,4.11c-.94,1.86-2.74,2.78-5.37,2.78a6.57,6.57,0,0,1-3.7-1,3.82,3.82,0,0,1-1.68-3.09h2.33a2.62,2.62,0,0,0,.66,1.42,3.37,3.37,0,0,0,2.44.76c1.75,0,2.9-.62,3.44-1.86a10.51,10.51,0,0,0,.44-3.92,4.53,4.53,0,0,1-1.65,1.56,5.52,5.52,0,0,1-2.56.51,5.46,5.46,0,0,1-3.87-1.58c-1.1-1-1.65-2.78-1.65-5.21a7.89,7.89,0,0,1,1.67-5.36,5.16,5.16,0,0,1,4-1.92A4.94,4.94,0,0,1,1135.08,33.56Zm.28,2.46a3.32,3.32,0,0,0-2.65-1.23,3.27,3.27,0,0,0-3.3,2.28,8.72,8.72,0,0,0-.47,3.17,5.7,5.7,0,0,0,.93,3.52,3,3,0,0,0,2.51,1.2,3.51,3.51,0,0,0,3.46-2.23,7.25,7.25,0,0,0,.56-2.95A5.74,5.74,0,0,0,1135.36,36Z"/>
    <path d="M1142,27.93h2.34v2.6H1142Zm0,5.14h2.34v13.6H1142Z"/>
    <path d="M1148.28,29.19h2.32V33h2.18v1.87h-2.18V43.8a1,1,0,0,0,.49,1,2.06,2.06,0,0,0,.89.14h.36a4.2,4.2,0,0,0,.44,0v1.82a4.26,4.26,0,0,1-.82.17,8.65,8.65,0,0,1-.92,0,2.5,2.5,0,0,1-2.19-.82,3.68,3.68,0,0,1-.57-2.14v-9h-1.85V33h1.85Z"/>
    <path d="M1162.41,38.4a1.2,1.2,0,0,0,1-.66,1.89,1.89,0,0,0,.16-.88,1.86,1.86,0,0,0-.84-1.71,4.37,4.37,0,0,0-2.38-.53,3,3,0,0,0-2.55,1,3.26,3.26,0,0,0-.55,1.6h-2.14a4,4,0,0,1,1.63-3.52,6.73,6.73,0,0,1,3.66-1,7.35,7.35,0,0,1,3.91.92,3.11,3.11,0,0,1,1.49,2.85v7.88a1,1,0,0,0,.15.57.71.71,0,0,0,.62.22l.34,0,.41-.06v1.7a7.72,7.72,0,0,1-.82.19,7.09,7.09,0,0,1-.76,0,1.89,1.89,0,0,1-1.73-.85,3.17,3.17,0,0,1-.39-1.26,5.87,5.87,0,0,1-2,1.6,6.21,6.21,0,0,1-2.89.67,4.3,4.3,0,0,1-3.11-1.15,3.81,3.81,0,0,1-1.21-2.89,3.73,3.73,0,0,1,1.19-2.94,5.62,5.62,0,0,1,3.11-1.29Zm-4.84,6.21a2.7,2.7,0,0,0,1.72.57,5.31,5.31,0,0,0,2.35-.56,3.14,3.14,0,0,0,1.91-3V39.73a3.9,3.9,0,0,1-1.08.45,8.75,8.75,0,0,1-1.3.25l-1.39.18a5.5,5.5,0,0,0-1.87.52,2,2,0,0,0-1.07,1.91A1.88,1.88,0,0,0,1157.57,44.61Z"/>
    <path d="M1169.68,27.93H1172V46.67h-2.29Z"/>
    <path d="M1182.68,27.93H1185v2.6h-2.33Zm0,5.14H1185v13.6h-2.33Z"/>
    <path d="M1188.49,33h2.18V35a6,6,0,0,1,2-1.72,5.46,5.46,0,0,1,2.41-.53c1.94,0,3.25.68,3.93,2a7.13,7.13,0,0,1,.56,3.18v8.76h-2.33V38.06a4.67,4.67,0,0,0-.37-2,2.24,2.24,0,0,0-2.22-1.27,4.54,4.54,0,0,0-1.34.16,3.51,3.51,0,0,0-1.66,1.13,3.43,3.43,0,0,0-.75,1.4,9.69,9.69,0,0,0-.17,2.06v7.15h-2.29Z"/>
    <path d="M1203,33h2.18V35a6.05,6.05,0,0,1,2-1.72,5.51,5.51,0,0,1,2.42-.53c1.94,0,3.25.68,3.93,2a7.28,7.28,0,0,1,.56,3.18v8.76h-2.34V38.06a4.67,4.67,0,0,0-.37-2,2.24,2.24,0,0,0-2.22-1.27,4.59,4.59,0,0,0-1.34.16,3.51,3.51,0,0,0-1.66,1.13,3.29,3.29,0,0,0-.74,1.4,9.07,9.07,0,0,0-.17,2.06v7.15H1203Z"/>
    <path d="M1227.45,34.37a6.89,6.89,0,0,1,1.81,5.18,8.91,8.91,0,0,1-1.59,5.45,5.77,5.77,0,0,1-5,2.16,5.58,5.58,0,0,1-4.44-1.91,7.54,7.54,0,0,1-1.65-5.12,8.17,8.17,0,0,1,1.74-5.48,5.8,5.8,0,0,1,4.66-2A6.11,6.11,0,0,1,1227.45,34.37ZM1226,43.45a8.65,8.65,0,0,0,.84-3.84,7,7,0,0,0-.61-3.11,3.4,3.4,0,0,0-3.3-1.88,3.25,3.25,0,0,0-3,1.6,7.51,7.51,0,0,0-1,3.88,6.53,6.53,0,0,0,1,3.63,3.31,3.31,0,0,0,3,1.45A3.12,3.12,0,0,0,1226,43.45Z"/>
    <path d="M1233.21,33l3.65,11.12L1240.67,33h2.51L1238,46.67h-2.44l-5-13.66Z"/>
    <path d="M1252.47,38.4a1.22,1.22,0,0,0,1.06-.66,2,2,0,0,0,.16-.88,1.86,1.86,0,0,0-.84-1.71,4.39,4.39,0,0,0-2.39-.53,3,3,0,0,0-2.54,1,3.26,3.26,0,0,0-.55,1.6h-2.14a4,4,0,0,1,1.63-3.52,6.73,6.73,0,0,1,3.66-1,7.35,7.35,0,0,1,3.91.92,3.11,3.11,0,0,1,1.49,2.85v7.88a1,1,0,0,0,.15.57.7.7,0,0,0,.61.22l.35,0,.41-.06v1.7a7.72,7.72,0,0,1-.82.19,7.09,7.09,0,0,1-.76,0,1.88,1.88,0,0,1-1.73-.85,3.17,3.17,0,0,1-.39-1.26,5.87,5.87,0,0,1-2,1.6,6.24,6.24,0,0,1-2.89.67,4.3,4.3,0,0,1-3.11-1.15,3.81,3.81,0,0,1-1.21-2.89,3.73,3.73,0,0,1,1.19-2.94,5.62,5.62,0,0,1,3.11-1.29Zm-4.83,6.21a2.7,2.7,0,0,0,1.72.57,5.31,5.31,0,0,0,2.35-.56,3.15,3.15,0,0,0,1.91-3V39.73a3.9,3.9,0,0,1-1.08.45,8.75,8.75,0,0,1-1.3.25l-1.39.18a5.5,5.5,0,0,0-1.87.52,2,2,0,0,0-1.07,1.91A1.88,1.88,0,0,0,1247.64,44.61Z"/>
    <path d="M1260.14,29.19h2.32V33h2.19v1.87h-2.19V43.8a1,1,0,0,0,.49,1,2.13,2.13,0,0,0,.89.14h.36a4.14,4.14,0,0,0,.45,0v1.82a4.52,4.52,0,0,1-.83.17,8.65,8.65,0,0,1-.92,0,2.48,2.48,0,0,1-2.18-.82,3.61,3.61,0,0,1-.58-2.14v-9h-1.85V33h1.85Z"/>
    <path d="M1266.94,27.93h2.34v2.6h-2.34Zm0,5.14h2.34v13.6h-2.34Z"/>
    <path d="M1282.65,34.37a6.89,6.89,0,0,1,1.81,5.18,8.91,8.91,0,0,1-1.59,5.45,5.77,5.77,0,0,1-5,2.16,5.6,5.6,0,0,1-4.45-1.91,7.59,7.59,0,0,1-1.64-5.12,8.22,8.22,0,0,1,1.73-5.48,5.83,5.83,0,0,1,4.67-2A6.14,6.14,0,0,1,1282.65,34.37Zm-1.43,9.08a8.65,8.65,0,0,0,.84-3.84,7,7,0,0,0-.6-3.11,3.41,3.41,0,0,0-3.31-1.88,3.23,3.23,0,0,0-3,1.6,7.42,7.42,0,0,0-1,3.88,6.45,6.45,0,0,0,1,3.63,3.31,3.31,0,0,0,3,1.45A3.1,3.1,0,0,0,1281.22,43.45Z"/>
    <path d="M1287.28,33h2.18V35a6.08,6.08,0,0,1,2.06-1.72,5.46,5.46,0,0,1,2.41-.53c1.94,0,3.25.68,3.93,2a7.28,7.28,0,0,1,.56,3.18v8.76h-2.33V38.06a4.83,4.83,0,0,0-.37-2,2.24,2.24,0,0,0-2.22-1.27,4.54,4.54,0,0,0-1.34.16,3.47,3.47,0,0,0-1.66,1.13,3.43,3.43,0,0,0-.75,1.4,9.69,9.69,0,0,0-.17,2.06v7.15h-2.3Z"/>
    <path d="M1104.74,57.8h3.61V84.24h-3.61Z"/>
    <path d="M1113.73,65h3.08V67.7a8.57,8.57,0,0,1,2.9-2.43,7.74,7.74,0,0,1,3.4-.74c2.74,0,4.58,1,5.54,2.87a10.1,10.1,0,0,1,.79,4.48V84.24h-3.29V72.09a6.55,6.55,0,0,0-.52-2.84,3.17,3.17,0,0,0-3.13-1.8,6.58,6.58,0,0,0-1.89.23,4.85,4.85,0,0,0-2.34,1.59,4.69,4.69,0,0,0-1,2,12.66,12.66,0,0,0-.25,2.9v10.1h-3.24Z"/>
    <path d="M1134.23,65h3.08V67.7a8.57,8.57,0,0,1,2.9-2.43,7.71,7.71,0,0,1,3.4-.74q4.1,0,5.54,2.87a10.1,10.1,0,0,1,.79,4.48V84.24h-3.29V72.09a6.7,6.7,0,0,0-.52-2.84,3.17,3.17,0,0,0-3.14-1.8,6.68,6.68,0,0,0-1.89.23,5.34,5.34,0,0,0-3.39,3.56,13.37,13.37,0,0,0-.24,2.9v10.1h-3.24Z"/>
    <path d="M1168.69,66.89c1.7,1.65,2.56,4.09,2.56,7.3a12.51,12.51,0,0,1-2.26,7.69c-1.5,2-3.82,3-7,3a7.84,7.84,0,0,1-6.27-2.69,10.63,10.63,0,0,1-2.33-7.21,11.57,11.57,0,0,1,2.45-7.74,8.22,8.22,0,0,1,6.58-2.87A8.65,8.65,0,0,1,1168.69,66.89Zm-2,12.81a12.24,12.24,0,0,0,1.18-5.42,9.75,9.75,0,0,0-.85-4.39,4.8,4.8,0,0,0-4.66-2.66,4.59,4.59,0,0,0-4.27,2.27,10.57,10.57,0,0,0-1.34,5.46,9.18,9.18,0,0,0,1.34,5.12,4.67,4.67,0,0,0,4.23,2A4.42,4.42,0,0,0,1166.68,79.7Z"/>
    <path d="M1176.82,65,1182,80.66,1187.32,65h3.55l-7.26,19.27h-3.45L1173.05,65Z"/>
    <path d="M1204,72.58a1.76,1.76,0,0,0,1.49-.94,2.77,2.77,0,0,0,.22-1.25,2.64,2.64,0,0,0-1.18-2.41,6.26,6.26,0,0,0-3.37-.75,4.27,4.27,0,0,0-3.59,1.38,4.57,4.57,0,0,0-.77,2.26h-3q.09-3.57,2.31-5a9.38,9.38,0,0,1,5.15-1.4,10.48,10.48,0,0,1,5.51,1.29,4.4,4.4,0,0,1,2.11,4V80.93a1.52,1.52,0,0,0,.2.81,1,1,0,0,0,.88.3l.48,0,.58-.08v2.39a11.24,11.24,0,0,1-1.15.27,10,10,0,0,1-1.08.05,2.64,2.64,0,0,1-2.43-1.19,4.49,4.49,0,0,1-.56-1.78,8.14,8.14,0,0,1-2.84,2.25,8.77,8.77,0,0,1-4.09,1,6.08,6.08,0,0,1-4.38-1.63,5.4,5.4,0,0,1-1.7-4.07,5.24,5.24,0,0,1,1.67-4.15,8,8,0,0,1,4.39-1.82Zm-6.82,8.75a3.84,3.84,0,0,0,2.43.8,7.36,7.36,0,0,0,3.31-.79,4.44,4.44,0,0,0,2.7-4.29V74.44a5.46,5.46,0,0,1-1.53.64,15.55,15.55,0,0,1-1.83.36l-2,.25a7.54,7.54,0,0,0-2.64.73,2.87,2.87,0,0,0-1.51,2.7A2.66,2.66,0,0,0,1197.16,81.33Z"/>
    <path d="M1214.79,59.58h3.28V65h3.08v2.64h-3.08V80.19a1.37,1.37,0,0,0,.68,1.35,2.92,2.92,0,0,0,1.26.2h.51l.63-.06v2.57a7.44,7.44,0,0,1-1.16.23,10.8,10.8,0,0,1-1.31.07c-1.51,0-2.54-.38-3.08-1.16a5.13,5.13,0,0,1-.81-3V67.61h-2.61V65h2.61Z"/>
    <path d="M1238.35,66.89c1.7,1.65,2.55,4.09,2.55,7.3a12.57,12.57,0,0,1-2.25,7.69q-2.25,3-7,3a7.85,7.85,0,0,1-6.28-2.69,10.68,10.68,0,0,1-2.32-7.21,11.57,11.57,0,0,1,2.45-7.74,8.2,8.2,0,0,1,6.57-2.87A8.65,8.65,0,0,1,1238.35,66.89Zm-2,12.81a12.24,12.24,0,0,0,1.18-5.42,9.75,9.75,0,0,0-.85-4.39,4.8,4.8,0,0,0-4.66-2.66,4.59,4.59,0,0,0-4.27,2.27A10.57,10.57,0,0,0,1226.4,75a9.18,9.18,0,0,0,1.34,5.12,4.67,4.67,0,0,0,4.23,2A4.42,4.42,0,0,0,1236.34,79.7Z"/>
    <path d="M1245,65h3.08v3.32a7.44,7.44,0,0,1,1.85-2.36,4.82,4.82,0,0,1,3.4-1.4l.31,0,.74.07V68c-.2,0-.37-.06-.53-.07l-.53,0a4.64,4.64,0,0,0-3.77,1.58,5.52,5.52,0,0,0-1.31,3.62V84.24H1245Z"/>
  </g>
  <rect x="311.13" y="215.4" width="558" height="181" style="fill: #12457b"/>
  <g>
    <path d="M518.62,303.82l5.71-10.7H527l-7.15,13.11v8.3h-2.52v-8.19l-7.13-13.22H513Z" style="fill: #fff"/>
    <path d="M543.46,306.49a8.89,8.89,0,0,1-2,6.13,7,7,0,0,1-5.47,2.21,7.18,7.18,0,0,1-3.82-1,6.64,6.64,0,0,1-2.58-2.9,10,10,0,0,1-.91-4.42,8.89,8.89,0,0,1,2-6.12,7,7,0,0,1,5.45-2.19,6.78,6.78,0,0,1,5.36,2.25A8.81,8.81,0,0,1,543.46,306.49Zm-12.23,0a7.64,7.64,0,0,0,1.23,4.69,4.89,4.89,0,0,0,7.25,0,7.58,7.58,0,0,0,1.23-4.69,7.49,7.49,0,0,0-1.23-4.65,4.37,4.37,0,0,0-3.66-1.59,4.26,4.26,0,0,0-3.6,1.57A7.53,7.53,0,0,0,531.23,306.49Z" style="fill: #fff"/>
    <path d="M550,298.48v10.41a4.16,4.16,0,0,0,.9,2.93,3.59,3.59,0,0,0,2.79,1,4.58,4.58,0,0,0,3.69-1.38,7,7,0,0,0,1.16-4.49v-8.44H561v16h-2l-.36-2.15h-.13a4.83,4.83,0,0,1-2.07,1.82,6.94,6.94,0,0,1-3,.63,6.12,6.12,0,0,1-4.39-1.4,5.91,5.91,0,0,1-1.46-4.45v-10.5Z" style="fill: #fff"/>
    <path d="M583.81,314.53l-.49-2.28h-.12a6.79,6.79,0,0,1-2.39,2,7.25,7.25,0,0,1-3,.54,5.31,5.31,0,0,1-3.74-1.24,4.46,4.46,0,0,1-1.36-3.5q0-4.86,7.78-5.09l2.72-.09v-1a4.08,4.08,0,0,0-.81-2.79,3.34,3.34,0,0,0-2.6-.9,10.59,10.59,0,0,0-4.54,1.23l-.75-1.86a11.25,11.25,0,0,1,2.6-1,11.53,11.53,0,0,1,2.84-.37,6.1,6.1,0,0,1,4.25,1.28,5.29,5.29,0,0,1,1.39,4.09v10.95Zm-5.5-1.71a5,5,0,0,0,3.57-1.25,4.61,4.61,0,0,0,1.29-3.48v-1.45l-2.43.1a8.91,8.91,0,0,0-4.18.9,2.72,2.72,0,0,0-1.28,2.48,2.52,2.52,0,0,0,.8,2A3.29,3.29,0,0,0,578.31,312.82Z" style="fill: #fff"/>
    <path d="M597.94,298.18a9.35,9.35,0,0,1,1.92.18l-.34,2.26a8,8,0,0,0-1.76-.22,4.28,4.28,0,0,0-3.33,1.58,5.77,5.77,0,0,0-1.38,3.94v8.61h-2.43v-16h2l.28,3H593a7.08,7.08,0,0,1,2.15-2.42A4.89,4.89,0,0,1,597.94,298.18Z" style="fill: #fff"/>
    <path d="M609.65,314.83a7.39,7.39,0,0,1-5.62-2.17,8.41,8.41,0,0,1-2.06-6,9.33,9.33,0,0,1,1.91-6.17,6.37,6.37,0,0,1,5.13-2.29,6.06,6.06,0,0,1,4.78,2,7.62,7.62,0,0,1,1.76,5.24v1.53H604.49a6.36,6.36,0,0,0,1.43,4.3,4.94,4.94,0,0,0,3.81,1.46,13,13,0,0,0,5.13-1.08v2.17a12.75,12.75,0,0,1-2.44.79A13,13,0,0,1,609.65,314.83ZM609,300.22a4,4,0,0,0-3.09,1.26,5.8,5.8,0,0,0-1.35,3.49h8.39a5.38,5.38,0,0,0-1-3.53A3.65,3.65,0,0,0,609,300.22Z" style="fill: #fff"/>
    <path d="M638.47,314.53V304.15a4.21,4.21,0,0,0-.89-2.93,3.63,3.63,0,0,0-2.8-1,4.59,4.59,0,0,0-3.7,1.38,7,7,0,0,0-1.16,4.51v8.39h-2.43V291.74h2.43v6.9a14.53,14.53,0,0,1-.12,2.06H630a5,5,0,0,1,2-1.82,6.72,6.72,0,0,1,3-.67,6.19,6.19,0,0,1,4.41,1.4,5.92,5.92,0,0,1,1.48,4.45v10.47Z" style="fill: #fff"/>
    <path d="M652.68,314.83a7.42,7.42,0,0,1-5.62-2.17,8.4,8.4,0,0,1-2-6,9.28,9.28,0,0,1,1.91-6.17,6.35,6.35,0,0,1,5.13-2.29,6.08,6.08,0,0,1,4.78,2,7.61,7.61,0,0,1,1.75,5.24v1.53H647.53a6.4,6.4,0,0,0,1.42,4.3,5,5,0,0,0,3.82,1.46,13,13,0,0,0,5.13-1.08v2.17a12,12,0,0,1-5.22,1ZM652,300.22a4,4,0,0,0-3.08,1.26,5.81,5.81,0,0,0-1.36,3.49H656a5.33,5.33,0,0,0-1-3.53A3.62,3.62,0,0,0,652,300.22Z" style="fill: #fff"/>
    <path d="M670.06,298.18a9.19,9.19,0,0,1,1.91.18l-.33,2.26a8.11,8.11,0,0,0-1.76-.22,4.25,4.25,0,0,0-3.33,1.58,5.73,5.73,0,0,0-1.39,3.94v8.61h-2.43v-16h2l.28,3h.11a7.21,7.21,0,0,1,2.16-2.42A4.89,4.89,0,0,1,670.06,298.18Z" style="fill: #fff"/>
    <path d="M681.76,314.83a7.4,7.4,0,0,1-5.62-2.17,8.41,8.41,0,0,1-2.06-6,9.28,9.28,0,0,1,1.92-6.17,6.35,6.35,0,0,1,5.13-2.29,6.09,6.09,0,0,1,4.78,2,7.61,7.61,0,0,1,1.75,5.24v1.53H676.6a6.41,6.41,0,0,0,1.43,4.3,5,5,0,0,0,3.82,1.46,12.94,12.94,0,0,0,5.12-1.08v2.17a12.9,12.9,0,0,1-2.43.79A13.13,13.13,0,0,1,681.76,314.83Zm-.66-14.61a4,4,0,0,0-3.08,1.26,5.81,5.81,0,0,0-1.36,3.49h8.4a5.38,5.38,0,0,0-1-3.53A3.62,3.62,0,0,0,681.1,300.22Z" style="fill: #fff"/>
  </g>
  <g>
    <line x1="884.13" y1="305.5" x2="908.54" y2="305.5" style="fill: none;stroke: #c1272d;stroke-miterlimit: 10;stroke-width: 7px"/>
    <polygon points="943.63 305.5 894.18 325.7 905.91 305.5 894.18 285.3 943.63 305.5" style="fill: #c1272d"/>
  </g>
  <g>
    <path d="M1052.46,236.3H1050V226.22h-11.28V236.3h-2.49V214.88h2.49V224H1050v-9.11h2.49Z"/>
    <path d="M1057.76,215.89a1.63,1.63,0,0,1,.41-1.22,1.44,1.44,0,0,1,1-.39,1.42,1.42,0,0,1,1,.4,1.59,1.59,0,0,1,.42,1.21,1.64,1.64,0,0,1-.42,1.23,1.46,1.46,0,0,1-1,.4,1.44,1.44,0,0,1-1-.4A1.67,1.67,0,0,1,1057.76,215.89Zm2.64,20.41H1058V220.24h2.43Z"/>
    <path d="M1078.69,220.24v1.54l-3,.35a5.22,5.22,0,0,1,1,3.21,4.71,4.71,0,0,1-1.61,3.76,6.48,6.48,0,0,1-4.42,1.41,7.21,7.21,0,0,1-1.35-.12,2.41,2.41,0,0,0-1.55,2.07,1,1,0,0,0,.54,1,3.94,3.94,0,0,0,1.86.32h2.84a6.32,6.32,0,0,1,4,1.1,3.81,3.81,0,0,1,1.4,3.19,4.56,4.56,0,0,1-2.14,4.07,11.5,11.5,0,0,1-6.24,1.39,8.55,8.55,0,0,1-4.86-1.17,3.79,3.79,0,0,1-1.7-3.31,3.69,3.69,0,0,1,.94-2.53,4.68,4.68,0,0,1,2.63-1.45,2.6,2.6,0,0,1-1-.87,2.26,2.26,0,0,1-.42-1.36,2.62,2.62,0,0,1,.47-1.54,4.93,4.93,0,0,1,1.48-1.27,4.31,4.31,0,0,1-2-1.74,5.79,5.79,0,0,1,.8-6.88,6.46,6.46,0,0,1,4.48-1.43,8.33,8.33,0,0,1,2.27.29ZM1065.89,239a2.19,2.19,0,0,0,1.1,2,6,6,0,0,0,3.15.67,8.78,8.78,0,0,0,4.53-.91,2.81,2.81,0,0,0,1.48-2.48,2,2,0,0,0-.81-1.81,6.22,6.22,0,0,0-3-.51h-2.92a3.85,3.85,0,0,0-2.58.79A2.85,2.85,0,0,0,1065.89,239Zm1.32-13.61a3.27,3.27,0,0,0,1,2.55,3.8,3.8,0,0,0,2.65.87c2.38,0,3.56-1.15,3.56-3.46s-1.2-3.62-3.6-3.62a3.57,3.57,0,0,0-2.64.93A3.71,3.71,0,0,0,1067.21,225.38Z"/>
    <path d="M1093,236.3V225.91a4.18,4.18,0,0,0-.9-2.93,3.65,3.65,0,0,0-2.8-1,4.58,4.58,0,0,0-3.7,1.37,7,7,0,0,0-1.16,4.51v8.4H1082V213.5h2.43v6.9a14.79,14.79,0,0,1-.12,2.07h.15a5,5,0,0,1,2-1.82,6.62,6.62,0,0,1,3-.67,6.19,6.19,0,0,1,4.41,1.4,5.84,5.84,0,0,1,1.48,4.44V236.3Z"/>
    <path d="M1115.67,220a6,6,0,0,1,4.91,2.16,9.47,9.47,0,0,1,1.75,6.12,9.59,9.59,0,0,1-1.76,6.14,6,6,0,0,1-4.9,2.19,6.91,6.91,0,0,1-2.87-.58,5.32,5.32,0,0,1-2.17-1.78h-.18l-.51,2.07h-1.74V213.5h2.43V219c0,1.24,0,2.36-.12,3.34h.12A5.77,5.77,0,0,1,1115.67,220Zm-.35,2a4.25,4.25,0,0,0-3.59,1.42c-.74,1-1.1,2.56-1.1,4.82s.37,3.87,1.12,4.84a4.31,4.31,0,0,0,3.62,1.45,3.74,3.74,0,0,0,3.34-1.63,8.32,8.32,0,0,0,1.1-4.69,8,8,0,0,0-1.1-4.68A3.89,3.89,0,0,0,1115.32,222Z"/>
    <path d="M1128.86,220.24v10.42a4.18,4.18,0,0,0,.9,2.93,3.65,3.65,0,0,0,2.8,1,4.55,4.55,0,0,0,3.68-1.37,6.94,6.94,0,0,0,1.17-4.5v-8.44h2.43V236.3h-2l-.35-2.16h-.13a4.79,4.79,0,0,1-2.08,1.82,6.94,6.94,0,0,1-3,.63,6.14,6.14,0,0,1-4.39-1.39,5.93,5.93,0,0,1-1.46-4.45V220.24Z"/>
    <path d="M1155.35,231.92a4,4,0,0,1-1.67,3.45,7.79,7.79,0,0,1-4.69,1.22,10.23,10.23,0,0,1-5-1v-2.26a12.31,12.31,0,0,0,2.49.93,10.5,10.5,0,0,0,2.55.33,5.85,5.85,0,0,0,2.93-.6,2,2,0,0,0,1-1.86,2,2,0,0,0-.81-1.6,12.7,12.7,0,0,0-3.17-1.58,17.72,17.72,0,0,1-3.19-1.45,4.49,4.49,0,0,1-1.4-1.42,3.91,3.91,0,0,1,1.13-5,7.51,7.51,0,0,1,4.38-1.13A12.87,12.87,0,0,1,1155,221l-.86,2a11.68,11.68,0,0,0-4.38-1,5.08,5.08,0,0,0-2.61.54,1.69,1.69,0,0,0-.88,1.49,1.82,1.82,0,0,0,.33,1.1,3.21,3.21,0,0,0,1.06.86,23,23,0,0,0,2.82,1.19,10.4,10.4,0,0,1,3.86,2.1A3.71,3.71,0,0,1,1155.35,231.92Z"/>
    <path d="M1159.1,215.89a1.63,1.63,0,0,1,.41-1.22,1.41,1.41,0,0,1,1-.39,1.44,1.44,0,0,1,1,.4,1.59,1.59,0,0,1,.42,1.21,1.64,1.64,0,0,1-.42,1.23,1.49,1.49,0,0,1-1,.4,1.42,1.42,0,0,1-1-.4A1.67,1.67,0,0,1,1159.1,215.89Zm2.64,20.41h-2.44V220.24h2.44Z"/>
    <path d="M1177.88,236.3V225.91A4.23,4.23,0,0,0,1177,223a3.67,3.67,0,0,0-2.8-1,4.6,4.6,0,0,0-3.69,1.36c-.79.91-1.18,2.4-1.18,4.49v8.43h-2.43V220.24h2l.39,2.2h.12a5,5,0,0,1,2.1-1.84,6.87,6.87,0,0,1,3-.65,6.09,6.09,0,0,1,4.36,1.4,5.93,5.93,0,0,1,1.47,4.47V236.3Z"/>
    <path d="M1192.09,236.59a7.35,7.35,0,0,1-5.62-2.17,8.39,8.39,0,0,1-2.06-6,9.35,9.35,0,0,1,1.91-6.17,6.37,6.37,0,0,1,5.14-2.28,6,6,0,0,1,4.77,2,7.59,7.59,0,0,1,1.76,5.24v1.54h-11.06a6.4,6.4,0,0,0,1.43,4.29,4.91,4.91,0,0,0,3.81,1.47,13,13,0,0,0,5.13-1.09v2.17a12.82,12.82,0,0,1-2.44.8A13.72,13.72,0,0,1,1192.09,236.59Zm-.66-14.6a4,4,0,0,0-3.09,1.26,5.86,5.86,0,0,0-1.35,3.48h8.39a5.35,5.35,0,0,0-1-3.52A3.6,3.6,0,0,0,1191.43,222Z"/>
    <path d="M1212.49,231.92a4,4,0,0,1-1.67,3.45,7.75,7.75,0,0,1-4.68,1.22,10.23,10.23,0,0,1-5-1v-2.26a12.22,12.22,0,0,0,2.48.93,10.5,10.5,0,0,0,2.55.33,5.85,5.85,0,0,0,2.93-.6,2,2,0,0,0,1-1.86,2,2,0,0,0-.82-1.6,12.59,12.59,0,0,0-3.16-1.58,17.06,17.06,0,0,1-3.19-1.45,4.43,4.43,0,0,1-1.41-1.42,3.9,3.9,0,0,1,1.14-5,7.47,7.47,0,0,1,4.38-1.13,12.9,12.9,0,0,1,5.07,1.05l-.87,2a11.68,11.68,0,0,0-4.38-1,5.08,5.08,0,0,0-2.61.54,1.69,1.69,0,0,0-.88,1.49,1.82,1.82,0,0,0,.33,1.1,3.26,3.26,0,0,0,1.07.86,22.68,22.68,0,0,0,2.81,1.19,10.4,10.4,0,0,1,3.86,2.1A3.67,3.67,0,0,1,1212.49,231.92Z"/>
    <path d="M1226.8,231.92a4,4,0,0,1-1.67,3.45,7.75,7.75,0,0,1-4.68,1.22,10.23,10.23,0,0,1-5-1v-2.26a12.44,12.44,0,0,0,2.48.93,10.5,10.5,0,0,0,2.55.33,5.85,5.85,0,0,0,2.93-.6,2.1,2.1,0,0,0,.22-3.46,12.7,12.7,0,0,0-3.17-1.58,17.06,17.06,0,0,1-3.19-1.45,4.43,4.43,0,0,1-1.41-1.42,3.73,3.73,0,0,1-.46-1.89,3.6,3.6,0,0,1,1.6-3.1,7.47,7.47,0,0,1,4.38-1.13,12.87,12.87,0,0,1,5.07,1.05l-.87,2a11.68,11.68,0,0,0-4.38-1,5,5,0,0,0-2.6.54,1.67,1.67,0,0,0-.88,1.49,1.82,1.82,0,0,0,.33,1.1,3.21,3.21,0,0,0,1.06.86,22.68,22.68,0,0,0,2.81,1.19,10.4,10.4,0,0,1,3.86,2.1A3.67,3.67,0,0,1,1226.8,231.92Z"/>
    <path d="M1248.42,236.3l-.48-2.29h-.11a6.83,6.83,0,0,1-2.4,2.05,7.43,7.43,0,0,1-3,.53,5.35,5.35,0,0,1-3.74-1.23,4.47,4.47,0,0,1-1.36-3.5q0-4.86,7.78-5.1l2.72-.09v-1a4.08,4.08,0,0,0-.81-2.79,3.34,3.34,0,0,0-2.6-.9,10.59,10.59,0,0,0-4.54,1.23l-.75-1.86a11.25,11.25,0,0,1,2.6-1,11,11,0,0,1,2.84-.37,6.1,6.1,0,0,1,4.25,1.27,5.35,5.35,0,0,1,1.39,4.09v11Zm-5.49-1.72a4.94,4.94,0,0,0,3.57-1.24,4.62,4.62,0,0,0,1.3-3.49V228.4l-2.44.1a8.91,8.91,0,0,0-4.18.9,2.75,2.75,0,0,0-1.28,2.49,2.52,2.52,0,0,0,.8,2A3.36,3.36,0,0,0,1242.93,234.58Z"/>
    <path d="M1268.38,220.24v1.54l-3,.35a5.07,5.07,0,0,1,.74,1.34,5.24,5.24,0,0,1,.32,1.87,4.74,4.74,0,0,1-1.61,3.76,6.51,6.51,0,0,1-4.43,1.41,7.11,7.11,0,0,1-1.34-.12,2.4,2.4,0,0,0-1.56,2.07,1,1,0,0,0,.54,1,4,4,0,0,0,1.86.32h2.85a6.31,6.31,0,0,1,4,1.1,3.81,3.81,0,0,1,1.4,3.19,4.56,4.56,0,0,1-2.14,4.07,11.45,11.45,0,0,1-6.24,1.39,8.5,8.5,0,0,1-4.85-1.17,3.77,3.77,0,0,1-1.71-3.31,3.69,3.69,0,0,1,.94-2.53,4.68,4.68,0,0,1,2.63-1.45,2.6,2.6,0,0,1-1-.87,2.26,2.26,0,0,1-.42-1.36,2.62,2.62,0,0,1,.47-1.54,5.06,5.06,0,0,1,1.48-1.27,4.36,4.36,0,0,1-2-1.74,5.15,5.15,0,0,1-.78-2.82,5.21,5.21,0,0,1,1.58-4.06,6.48,6.48,0,0,1,4.48-1.43,8.46,8.46,0,0,1,2.28.29ZM1255.57,239a2.19,2.19,0,0,0,1.1,2,6.07,6.07,0,0,0,3.15.67,8.85,8.85,0,0,0,4.54-.91,2.8,2.8,0,0,0,1.47-2.48,2,2,0,0,0-.81-1.81,6.19,6.19,0,0,0-3-.51h-2.91a3.81,3.81,0,0,0-2.58.79A2.83,2.83,0,0,0,1255.57,239Zm1.32-13.61a3.27,3.27,0,0,0,.95,2.55,3.81,3.81,0,0,0,2.66.87q3.55,0,3.56-3.46c0-2.41-1.21-3.62-3.61-3.62a3.53,3.53,0,0,0-2.63.93A3.67,3.67,0,0,0,1256.89,225.38Z"/>
    <path d="M1271.47,215.89a1.59,1.59,0,0,1,.41-1.22,1.5,1.5,0,0,1,2,0,1.55,1.55,0,0,1,.43,1.21,1.6,1.6,0,0,1-.43,1.23,1.45,1.45,0,0,1-1,.4,1.42,1.42,0,0,1-1-.4A1.63,1.63,0,0,1,1271.47,215.89Zm2.63,20.41h-2.43V220.24h2.43Z"/>
    <path d="M1281.69,236.3h-2.43V213.5h2.43Z"/>
    <path d="M1286.64,215.89a1.63,1.63,0,0,1,.41-1.22,1.45,1.45,0,0,1,1-.39,1.4,1.4,0,0,1,1,.4,1.59,1.59,0,0,1,.42,1.21,1.64,1.64,0,0,1-.42,1.23,1.5,1.5,0,0,1-2,0A1.67,1.67,0,0,1,1286.64,215.89Zm2.64,20.41h-2.43V220.24h2.43Z"/>
    <path d="M1299.62,234.58a8.45,8.45,0,0,0,1.25-.09,7.25,7.25,0,0,0,1-.2v1.86a4.52,4.52,0,0,1-1.16.32,9.21,9.21,0,0,1-1.39.12c-3.1,0-4.66-1.64-4.66-4.91v-9.55h-2.3V221l2.3-1,1-3.43h1.4v3.72h4.66v1.89H1297v9.45a3.25,3.25,0,0,0,.69,2.23A2.42,2.42,0,0,0,1299.62,234.58Z"/>
    <path d="M1302.48,220.24h2.6l3.52,9.16a36.44,36.44,0,0,1,1.44,4.52h.11c.13-.49.4-1.35.8-2.55s1.73-4.92,4-11.13h2.61l-6.9,18.28a9.14,9.14,0,0,1-2.4,3.85,5.06,5.06,0,0,1-3.36,1.13,10.22,10.22,0,0,1-2.2-.24v-1.95a9.06,9.06,0,0,0,1.81.17c1.67,0,2.86-.93,3.57-2.81l.89-2.28Z"/>
    <path d="M1337.81,236.3l-.48-2.29h-.12a6.75,6.75,0,0,1-2.4,2.05,7.39,7.39,0,0,1-3,.53,5.35,5.35,0,0,1-3.74-1.23,4.5,4.5,0,0,1-1.35-3.5q0-4.86,7.77-5.1l2.73-.09v-1a4,4,0,0,0-.82-2.79,3.32,3.32,0,0,0-2.59-.9,10.63,10.63,0,0,0-4.55,1.23l-.74-1.86a11.07,11.07,0,0,1,2.6-1A10.94,10.94,0,0,1,1334,220a6.13,6.13,0,0,1,4.26,1.27,5.34,5.34,0,0,1,1.38,4.09v11Zm-5.49-1.72a4.92,4.92,0,0,0,3.56-1.24,4.59,4.59,0,0,0,1.3-3.49V228.4l-2.43.1a8.88,8.88,0,0,0-4.18.9,2.74,2.74,0,0,0-1.29,2.49,2.52,2.52,0,0,0,.8,2A3.37,3.37,0,0,0,1332.32,234.58Z"/>
    <path d="M1355.61,236.3V225.91a4.18,4.18,0,0,0-.9-2.93,3.63,3.63,0,0,0-2.79-1,4.6,4.6,0,0,0-3.69,1.36c-.79.91-1.18,2.4-1.18,4.49v8.43h-2.43V220.24h2l.4,2.2h.11a5,5,0,0,1,2.1-1.84,6.84,6.84,0,0,1,3-.65,6.13,6.13,0,0,1,4.37,1.4,6,6,0,0,1,1.46,4.47V236.3Z"/>
    <path d="M1374,234.14h-.13a5.71,5.71,0,0,1-5,2.45,6,6,0,0,1-4.9-2.15,9.48,9.48,0,0,1-1.75-6.13,9.63,9.63,0,0,1,1.76-6.16,5.9,5.9,0,0,1,4.89-2.2,5.84,5.84,0,0,1,5,2.37h.19l-.1-1.15-.06-1.13V213.5h2.43v22.8h-2Zm-4.86.41a4.44,4.44,0,0,0,3.61-1.35,6.82,6.82,0,0,0,1.12-4.37v-.52q0-3.41-1.14-4.87a4.29,4.29,0,0,0-3.62-1.45,3.7,3.7,0,0,0-3.27,1.66,8.23,8.23,0,0,0-1.14,4.69,8,8,0,0,0,1.13,4.65A3.82,3.82,0,0,0,1369.1,234.55Z"/>
    <path d="M1396.54,220a9.19,9.19,0,0,1,1.91.18l-.33,2.25a8.11,8.11,0,0,0-1.76-.22,4.28,4.28,0,0,0-3.33,1.58,5.75,5.75,0,0,0-1.39,3.94v8.62h-2.43V220.24h2l.28,3h.11a7.11,7.11,0,0,1,2.16-2.42A4.82,4.82,0,0,1,1396.54,220Z"/>
    <path d="M1408.24,236.59a7.37,7.37,0,0,1-5.62-2.17,8.39,8.39,0,0,1-2.06-6,9.3,9.3,0,0,1,1.92-6.17,6.34,6.34,0,0,1,5.13-2.28,6.09,6.09,0,0,1,4.78,2,7.63,7.63,0,0,1,1.75,5.24v1.54h-11.06a6.4,6.4,0,0,0,1.43,4.29,5,5,0,0,0,3.82,1.47,13,13,0,0,0,5.12-1.09v2.17a13,13,0,0,1-2.43.8A13.9,13.9,0,0,1,1408.24,236.59Zm-.66-14.6a4,4,0,0,0-3.08,1.26,5.8,5.8,0,0,0-1.36,3.48h8.4a5.35,5.35,0,0,0-1-3.52A3.59,3.59,0,0,0,1407.58,222Z"/>
    <path d="M1428.65,231.92a4,4,0,0,1-1.67,3.45,7.81,7.81,0,0,1-4.69,1.22,10.23,10.23,0,0,1-5-1v-2.26a12.44,12.44,0,0,0,2.48.93,10.58,10.58,0,0,0,2.56.33,5.88,5.88,0,0,0,2.93-.6,2,2,0,0,0,1-1.86,2,2,0,0,0-.81-1.6,12.7,12.7,0,0,0-3.17-1.58,17.06,17.06,0,0,1-3.19-1.45,4.43,4.43,0,0,1-1.41-1.42,3.73,3.73,0,0,1-.46-1.89,3.62,3.62,0,0,1,1.6-3.1,7.47,7.47,0,0,1,4.38-1.13,12.87,12.87,0,0,1,5.07,1.05l-.87,2a11.68,11.68,0,0,0-4.38-1,5,5,0,0,0-2.6.54,1.67,1.67,0,0,0-.88,1.49,1.82,1.82,0,0,0,.33,1.1,3.21,3.21,0,0,0,1.06.86,23.41,23.41,0,0,0,2.81,1.19,10.31,10.31,0,0,1,3.86,2.1A3.68,3.68,0,0,1,1428.65,231.92Z"/>
    <path d="M1432.4,215.89a1.59,1.59,0,0,1,.41-1.22,1.5,1.5,0,0,1,2,0,1.59,1.59,0,0,1,.43,1.21,1.64,1.64,0,0,1-.43,1.23,1.45,1.45,0,0,1-1,.4,1.42,1.42,0,0,1-1-.4A1.63,1.63,0,0,1,1432.4,215.89ZM1435,236.3h-2.43V220.24H1435Z"/>
    <path d="M1442.62,236.3h-2.43V213.5h2.43Z"/>
    <path d="M1447.57,215.89a1.63,1.63,0,0,1,.41-1.22,1.44,1.44,0,0,1,1-.39,1.42,1.42,0,0,1,1,.4,1.59,1.59,0,0,1,.42,1.21,1.64,1.64,0,0,1-.42,1.23,1.46,1.46,0,0,1-1,.4,1.44,1.44,0,0,1-1-.4A1.67,1.67,0,0,1,1447.57,215.89Zm2.64,20.41h-2.43V220.24h2.43Z"/>
    <path d="M1462.15,236.59a7.35,7.35,0,0,1-5.62-2.17,8.39,8.39,0,0,1-2.06-6,9.35,9.35,0,0,1,1.91-6.17,6.37,6.37,0,0,1,5.14-2.28,6,6,0,0,1,4.77,2,7.63,7.63,0,0,1,1.76,5.24v1.54H1457a6.35,6.35,0,0,0,1.43,4.29,4.91,4.91,0,0,0,3.81,1.47,13,13,0,0,0,5.13-1.09v2.17a12.82,12.82,0,0,1-2.44.8A13.72,13.72,0,0,1,1462.15,236.59Zm-.66-14.6a4,4,0,0,0-3.09,1.26,5.8,5.8,0,0,0-1.35,3.48h8.39a5.35,5.35,0,0,0-1-3.52A3.6,3.6,0,0,0,1461.49,222Z"/>
    <path d="M1483.18,236.3V225.91a4.23,4.23,0,0,0-.89-2.93,3.67,3.67,0,0,0-2.8-1,4.6,4.6,0,0,0-3.69,1.36c-.78.91-1.17,2.4-1.17,4.49v8.43h-2.44V220.24h2l.4,2.2h.11a5,5,0,0,1,2.1-1.84,6.87,6.87,0,0,1,3-.65,6.12,6.12,0,0,1,4.37,1.4,6,6,0,0,1,1.46,4.47V236.3Z"/>
    <path d="M1497,236.59a6.81,6.81,0,0,1-5.39-2.15,8.79,8.79,0,0,1-1.92-6.07,9.06,9.06,0,0,1,2-6.22,7,7,0,0,1,5.52-2.2,10.7,10.7,0,0,1,2.32.25,7.65,7.65,0,0,1,1.82.58l-.75,2.07a13,13,0,0,0-1.76-.54,7.92,7.92,0,0,0-1.68-.21q-4.91,0-4.9,6.24a7.37,7.37,0,0,0,1.2,4.54,4.13,4.13,0,0,0,3.54,1.59,10.77,10.77,0,0,0,4.11-.87v2.16A8.83,8.83,0,0,1,1497,236.59Z"/>
    <path d="M1511.67,236.59a7.38,7.38,0,0,1-5.62-2.17,8.39,8.39,0,0,1-2-6,9.29,9.29,0,0,1,1.91-6.17A6.34,6.34,0,0,1,1511,220a6.07,6.07,0,0,1,4.78,2,7.63,7.63,0,0,1,1.76,5.24v1.54h-11.06a6.39,6.39,0,0,0,1.42,4.29,5,5,0,0,0,3.82,1.47,13,13,0,0,0,5.13-1.09v2.17a13.06,13.06,0,0,1-2.44.8A13.83,13.83,0,0,1,1511.67,236.59ZM1511,222a4,4,0,0,0-3.08,1.26,5.73,5.73,0,0,0-1.35,3.48H1515a5.3,5.3,0,0,0-1-3.52A3.59,3.59,0,0,0,1511,222Z"/>
    <path d="M1540.44,234.14h-.13a5.71,5.71,0,0,1-5,2.45,6,6,0,0,1-4.9-2.15,9.48,9.48,0,0,1-1.75-6.13,9.63,9.63,0,0,1,1.76-6.16,5.9,5.9,0,0,1,4.89-2.2,5.84,5.84,0,0,1,5,2.37h.19l-.1-1.15-.06-1.13V213.5h2.43v22.8h-2Zm-4.86.41a4.44,4.44,0,0,0,3.61-1.35,6.82,6.82,0,0,0,1.12-4.37v-.52q0-3.41-1.14-4.87a4.29,4.29,0,0,0-3.62-1.45,3.7,3.7,0,0,0-3.27,1.66,8.23,8.23,0,0,0-1.14,4.69,8,8,0,0,0,1.13,4.65A3.82,3.82,0,0,0,1535.58,234.55Z"/>
    <path d="M1550.18,220.24v10.42a4.18,4.18,0,0,0,.9,2.93,3.63,3.63,0,0,0,2.79,1,4.57,4.57,0,0,0,3.69-1.37,7,7,0,0,0,1.16-4.5v-8.44h2.44V236.3h-2l-.35-2.16h-.13a4.79,4.79,0,0,1-2.08,1.82,6.94,6.94,0,0,1-3,.63,6.12,6.12,0,0,1-4.39-1.39,5.93,5.93,0,0,1-1.46-4.45V220.24Z"/>
    <path d="M1573.09,236.59a7.34,7.34,0,0,1-5.61-2.17,8.35,8.35,0,0,1-2.06-6,9.35,9.35,0,0,1,1.91-6.17,6.35,6.35,0,0,1,5.13-2.28,6.06,6.06,0,0,1,4.78,2,7.63,7.63,0,0,1,1.76,5.24v1.54h-11.06a6.35,6.35,0,0,0,1.43,4.29,4.91,4.91,0,0,0,3.81,1.47,13,13,0,0,0,5.13-1.09v2.17a12.82,12.82,0,0,1-2.44.8A13.83,13.83,0,0,1,1573.09,236.59Zm-.66-14.6a4,4,0,0,0-3.08,1.26,5.73,5.73,0,0,0-1.35,3.48h8.39a5.3,5.3,0,0,0-1-3.52A3.59,3.59,0,0,0,1572.43,222Z"/>
    <path d="M1041,266.58a8.45,8.45,0,0,0,1.25-.09,7.25,7.25,0,0,0,1-.2v1.86a4.5,4.5,0,0,1-1.17.32,9,9,0,0,1-1.38.12q-4.66,0-4.66-4.91v-9.55h-2.3V253l2.3-1,1-3.43h1.4v3.72h4.66v1.89h-4.66v9.45a3.25,3.25,0,0,0,.69,2.23A2.42,2.42,0,0,0,1041,266.58Z"/>
    <path d="M1060.23,260.26a8.86,8.86,0,0,1-2,6.13,7,7,0,0,1-5.47,2.2,7.27,7.27,0,0,1-3.82-1,6.7,6.7,0,0,1-2.58-2.9,10.2,10.2,0,0,1-.91-4.42,8.85,8.85,0,0,1,2-6.12,6.92,6.92,0,0,1,5.45-2.19,6.81,6.81,0,0,1,5.35,2.24A8.86,8.86,0,0,1,1060.23,260.26Zm-12.23,0a7.59,7.59,0,0,0,1.23,4.68,4.26,4.26,0,0,0,3.62,1.61,4.31,4.31,0,0,0,3.63-1.6,7.6,7.6,0,0,0,1.23-4.69,7.51,7.51,0,0,0-1.23-4.66,4.39,4.39,0,0,0-3.66-1.58,4.28,4.28,0,0,0-3.6,1.56A7.58,7.58,0,0,0,1048,260.26Z"/>
    <path d="M1082.16,268.3l-.48-2.29h-.12a6.81,6.81,0,0,1-2.39,2.05,7.43,7.43,0,0,1-3,.53,5.38,5.38,0,0,1-3.75-1.23,4.5,4.5,0,0,1-1.35-3.5q0-4.86,7.78-5.1l2.72-.09v-1a4.08,4.08,0,0,0-.81-2.79,3.34,3.34,0,0,0-2.6-.9,10.59,10.59,0,0,0-4.54,1.23l-.75-1.86a11.25,11.25,0,0,1,2.6-1,11,11,0,0,1,2.84-.37,6.1,6.1,0,0,1,4.25,1.27,5.34,5.34,0,0,1,1.38,4.09v11Zm-5.49-1.72a5,5,0,0,0,3.57-1.24,4.62,4.62,0,0,0,1.29-3.49V260.4l-2.43.1a8.88,8.88,0,0,0-4.18.9,2.73,2.73,0,0,0-1.28,2.49,2.49,2.49,0,0,0,.8,2A3.34,3.34,0,0,0,1076.67,266.58Z"/>
    <path d="M1107.12,263.92a4,4,0,0,1-1.67,3.45,7.75,7.75,0,0,1-4.68,1.22,10.23,10.23,0,0,1-5-1v-2.26a12.22,12.22,0,0,0,2.48.93,10.52,10.52,0,0,0,2.56.33,5.84,5.84,0,0,0,2.92-.6,2.1,2.1,0,0,0,.22-3.46,12.89,12.89,0,0,0-3.17-1.58,17.06,17.06,0,0,1-3.19-1.45,4.43,4.43,0,0,1-1.41-1.42,3.73,3.73,0,0,1-.46-1.89,3.6,3.6,0,0,1,1.6-3.1,7.47,7.47,0,0,1,4.38-1.13,12.87,12.87,0,0,1,5.07,1.05l-.87,2a11.68,11.68,0,0,0-4.38-1,5.08,5.08,0,0,0-2.61.54,1.68,1.68,0,0,0-.87,1.49,1.82,1.82,0,0,0,.33,1.1,3.11,3.11,0,0,0,1.06.86,22.68,22.68,0,0,0,2.81,1.19,10.31,10.31,0,0,1,3.86,2.1A3.67,3.67,0,0,1,1107.12,263.92Z"/>
    <path d="M1117.86,268.59a7.37,7.37,0,0,1-5.62-2.17,8.39,8.39,0,0,1-2.06-6,9.3,9.3,0,0,1,1.92-6.17,6.34,6.34,0,0,1,5.13-2.28,6.09,6.09,0,0,1,4.78,2,7.63,7.63,0,0,1,1.75,5.24v1.54H1112.7a6.4,6.4,0,0,0,1.43,4.29,5,5,0,0,0,3.82,1.47,13,13,0,0,0,5.13-1.09v2.17a13.06,13.06,0,0,1-2.44.8A13.9,13.9,0,0,1,1117.86,268.59Zm-.66-14.6a4,4,0,0,0-3.08,1.26,5.8,5.8,0,0,0-1.36,3.48h8.4a5.3,5.3,0,0,0-1-3.52A3.59,3.59,0,0,0,1117.2,254Z"/>
    <path d="M1137.78,268.3l-.48-2.29h-.12a6.81,6.81,0,0,1-2.39,2.05,7.43,7.43,0,0,1-3,.53,5.38,5.38,0,0,1-3.75-1.23,4.5,4.5,0,0,1-1.35-3.5q0-4.86,7.78-5.1l2.72-.09v-1a4.08,4.08,0,0,0-.81-2.79,3.34,3.34,0,0,0-2.6-.9,10.59,10.59,0,0,0-4.54,1.23l-.75-1.86a11.25,11.25,0,0,1,2.6-1,11,11,0,0,1,2.83-.37,6.11,6.11,0,0,1,4.26,1.27,5.34,5.34,0,0,1,1.38,4.09v11Zm-5.49-1.72a5,5,0,0,0,3.57-1.24,4.62,4.62,0,0,0,1.29-3.49V260.4l-2.43.1a8.88,8.88,0,0,0-4.18.9,2.73,2.73,0,0,0-1.28,2.49,2.49,2.49,0,0,0,.8,2A3.34,3.34,0,0,0,1132.29,266.58Z"/>
    <path d="M1165.06,268.3V257.85a4.33,4.33,0,0,0-.82-2.87,3.18,3.18,0,0,0-2.55-1,4.12,4.12,0,0,0-3.36,1.3,6.22,6.22,0,0,0-1.08,4v9h-2.43V257.85A4.27,4.27,0,0,0,1154,255a3.2,3.2,0,0,0-2.57-1,3.94,3.94,0,0,0-3.34,1.37,7.36,7.36,0,0,0-1.06,4.48v8.43h-2.44V252.24h2l.4,2.2h.11a4.79,4.79,0,0,1,2-1.83,5.9,5.9,0,0,1,2.8-.66q3.76,0,4.92,2.72h.12a5.12,5.12,0,0,1,2.08-2,6.43,6.43,0,0,1,3.11-.73,5.47,5.47,0,0,1,4.08,1.4,6.26,6.26,0,0,1,1.35,4.47V268.3Z"/>
    <path d="M1174.93,268.3h-2.43V245.5h2.43Z"/>
    <path d="M1186.87,268.59a7.37,7.37,0,0,1-5.62-2.17,8.39,8.39,0,0,1-2.06-6,9.35,9.35,0,0,1,1.91-6.17,6.37,6.37,0,0,1,5.14-2.28,6,6,0,0,1,4.77,2,7.59,7.59,0,0,1,1.76,5.24v1.54h-11.06a6.4,6.4,0,0,0,1.43,4.29,4.94,4.94,0,0,0,3.82,1.47,12.91,12.91,0,0,0,5.12-1.09v2.17a12.74,12.74,0,0,1-2.43.8A13.9,13.9,0,0,1,1186.87,268.59Zm-.66-14.6a4,4,0,0,0-3.08,1.26,5.8,5.8,0,0,0-1.36,3.48h8.4a5.35,5.35,0,0,0-1-3.52A3.59,3.59,0,0,0,1186.21,254Z"/>
    <path d="M1207.27,263.92a4,4,0,0,1-1.67,3.45,7.75,7.75,0,0,1-4.68,1.22,10.23,10.23,0,0,1-5-1v-2.26a12.44,12.44,0,0,0,2.48.93,10.58,10.58,0,0,0,2.56.33,5.88,5.88,0,0,0,2.93-.6,2,2,0,0,0,1-1.86,2,2,0,0,0-.81-1.6,12.7,12.7,0,0,0-3.17-1.58,17.06,17.06,0,0,1-3.19-1.45,4.43,4.43,0,0,1-1.41-1.42,3.73,3.73,0,0,1-.46-1.89,3.6,3.6,0,0,1,1.6-3.1,7.47,7.47,0,0,1,4.38-1.13,12.87,12.87,0,0,1,5.07,1.05l-.87,2a11.68,11.68,0,0,0-4.38-1,5,5,0,0,0-2.6.54,1.67,1.67,0,0,0-.88,1.49,1.82,1.82,0,0,0,.33,1.1,3.21,3.21,0,0,0,1.06.86,22.68,22.68,0,0,0,2.81,1.19,10.31,10.31,0,0,1,3.86,2.1A3.67,3.67,0,0,1,1207.27,263.92Z"/>
    <path d="M1221.59,263.92a4,4,0,0,1-1.67,3.45,7.81,7.81,0,0,1-4.69,1.22,10.23,10.23,0,0,1-5-1v-2.26a12.44,12.44,0,0,0,2.48.93,10.58,10.58,0,0,0,2.56.33,5.88,5.88,0,0,0,2.93-.6,2,2,0,0,0,1-1.86,2,2,0,0,0-.81-1.6,12.7,12.7,0,0,0-3.17-1.58,17.06,17.06,0,0,1-3.19-1.45,4.29,4.29,0,0,1-1.4-1.42,3.88,3.88,0,0,1,1.13-5,7.51,7.51,0,0,1,4.38-1.13,12.87,12.87,0,0,1,5.07,1.05l-.86,2a11.77,11.77,0,0,0-4.39-1,5,5,0,0,0-2.6.54,1.67,1.67,0,0,0-.88,1.49,1.82,1.82,0,0,0,.33,1.1,3.21,3.21,0,0,0,1.06.86,23.41,23.41,0,0,0,2.81,1.19,10.31,10.31,0,0,1,3.86,2.1A3.68,3.68,0,0,1,1221.59,263.92Z"/>
    <path d="M1244.32,268.3V257.91a4.23,4.23,0,0,0-.89-2.93,3.67,3.67,0,0,0-2.8-1,4.58,4.58,0,0,0-3.7,1.37,7,7,0,0,0-1.16,4.51v8.4h-2.44V245.5h2.44v6.9a14.79,14.79,0,0,1-.12,2.07h.15a4.83,4.83,0,0,1,2-1.82,6.55,6.55,0,0,1,3-.67,6.2,6.2,0,0,1,4.42,1.4,5.88,5.88,0,0,1,1.47,4.44V268.3Z"/>
    <path d="M1249.2,252.24h2.61l3.51,9.16a36.44,36.44,0,0,1,1.44,4.52h.11c.13-.49.4-1.35.8-2.55s1.73-4.92,4-11.13h2.61l-6.9,18.28a9.14,9.14,0,0,1-2.4,3.85,5.06,5.06,0,0,1-3.36,1.13,10.22,10.22,0,0,1-2.2-.24v-1.95a9.06,9.06,0,0,0,1.81.17c1.67,0,2.86-.93,3.57-2.81l.89-2.28Z"/>
    <path d="M1274.33,252a6,6,0,0,1,4.92,2.16,9.47,9.47,0,0,1,1.75,6.12,9.59,9.59,0,0,1-1.76,6.14,6,6,0,0,1-4.91,2.19,6.87,6.87,0,0,1-2.86-.58,5.32,5.32,0,0,1-2.17-1.78h-.18l-.51,2.07h-1.75V245.5h2.44V251c0,1.24,0,2.36-.12,3.34h.12A5.76,5.76,0,0,1,1274.33,252Zm-.35,2a4.23,4.23,0,0,0-3.58,1.42c-.74,1-1.1,2.56-1.1,4.82s.37,3.87,1.12,4.84a4.31,4.31,0,0,0,3.62,1.45,3.74,3.74,0,0,0,3.34-1.63,8.4,8.4,0,0,0,1.1-4.69,8.12,8.12,0,0,0-1.1-4.68A3.89,3.89,0,0,0,1274,254Z"/>
    <path d="M1292.57,252a9.29,9.29,0,0,1,1.92.18l-.33,2.25a8.11,8.11,0,0,0-1.76-.22,4.28,4.28,0,0,0-3.33,1.58,5.75,5.75,0,0,0-1.39,3.94v8.62h-2.43V252.24h2l.28,3h.12a7.09,7.09,0,0,1,2.15-2.42A4.84,4.84,0,0,1,1292.57,252Z"/>
    <path d="M1297.29,247.89a1.63,1.63,0,0,1,.41-1.22,1.44,1.44,0,0,1,1-.39,1.42,1.42,0,0,1,1,.4,1.59,1.59,0,0,1,.42,1.21,1.64,1.64,0,0,1-.42,1.23,1.46,1.46,0,0,1-1,.4,1.44,1.44,0,0,1-1-.4A1.67,1.67,0,0,1,1297.29,247.89Zm2.64,20.41h-2.43V252.24h2.43Z"/>
    <path d="M1316,266.14h-.13a5.72,5.72,0,0,1-5,2.45,6,6,0,0,1-4.9-2.15,11.64,11.64,0,0,1,0-12.29,5.9,5.9,0,0,1,4.89-2.2,5.84,5.84,0,0,1,5,2.37h.19l-.1-1.15-.06-1.13V245.5h2.43v22.8h-2Zm-4.86.41a4.44,4.44,0,0,0,3.61-1.35,6.88,6.88,0,0,0,1.12-4.37v-.52q0-3.4-1.14-4.87a4.29,4.29,0,0,0-3.62-1.45,3.73,3.73,0,0,0-3.28,1.66,8.31,8.31,0,0,0-1.13,4.69,7.9,7.9,0,0,0,1.13,4.65A3.82,3.82,0,0,0,1311.15,266.55Z"/>
    <path d="M1341.13,268.3l-.48-2.29h-.12a6.81,6.81,0,0,1-2.39,2.05,7.43,7.43,0,0,1-3,.53,5.38,5.38,0,0,1-3.75-1.23,4.5,4.5,0,0,1-1.35-3.5q0-4.86,7.78-5.1l2.72-.09v-1a4.08,4.08,0,0,0-.81-2.79,3.34,3.34,0,0,0-2.6-.9,10.59,10.59,0,0,0-4.54,1.23l-.75-1.86a11.25,11.25,0,0,1,2.6-1,11,11,0,0,1,2.83-.37,6.11,6.11,0,0,1,4.26,1.27,5.34,5.34,0,0,1,1.38,4.09v11Zm-5.49-1.72a5,5,0,0,0,3.57-1.24,4.62,4.62,0,0,0,1.29-3.49V260.4l-2.43.1a8.88,8.88,0,0,0-4.18.9,2.73,2.73,0,0,0-1.28,2.49,2.49,2.49,0,0,0,.8,2A3.34,3.34,0,0,0,1335.64,266.58Z"/>
    <path d="M1358.93,268.3V257.91A4.23,4.23,0,0,0,1358,255a3.67,3.67,0,0,0-2.8-1,4.6,4.6,0,0,0-3.69,1.36c-.78.91-1.17,2.4-1.17,4.49v8.43h-2.44V252.24h2l.4,2.2h.11a5,5,0,0,1,2.1-1.84,6.87,6.87,0,0,1,3-.65,6.12,6.12,0,0,1,4.37,1.4,6,6,0,0,1,1.46,4.47V268.3Z"/>
    <path d="M1377.28,266.14h-.13a5.71,5.71,0,0,1-5,2.45,6,6,0,0,1-4.9-2.15,11.64,11.64,0,0,1,0-12.29,5.9,5.9,0,0,1,4.89-2.2,5.84,5.84,0,0,1,5,2.37h.19l-.1-1.15-.06-1.13V245.5h2.43v22.8h-2Zm-4.86.41a4.44,4.44,0,0,0,3.61-1.35,6.82,6.82,0,0,0,1.12-4.37v-.52c0-2.27-.38-3.89-1.13-4.87a4.33,4.33,0,0,0-3.63-1.45,3.71,3.71,0,0,0-3.27,1.66,8.23,8.23,0,0,0-1.14,4.69,8,8,0,0,0,1.13,4.65A3.83,3.83,0,0,0,1372.42,266.55Z"/>
    <path d="M1413,268.3V257.85a4.33,4.33,0,0,0-.82-2.87,3.18,3.18,0,0,0-2.55-1,4.12,4.12,0,0,0-3.36,1.3,6.22,6.22,0,0,0-1.08,4v9h-2.43V257.85a4.27,4.27,0,0,0-.82-2.87,3.2,3.2,0,0,0-2.57-1,3.94,3.94,0,0,0-3.34,1.37,7.36,7.36,0,0,0-1.06,4.48v8.43h-2.44V252.24h2l.4,2.2h.11a4.79,4.79,0,0,1,2-1.83,5.9,5.9,0,0,1,2.8-.66q3.76,0,4.92,2.72h.12a5.12,5.12,0,0,1,2.08-2A6.43,6.43,0,0,1,1410,252a5.47,5.47,0,0,1,4.08,1.4,6.26,6.26,0,0,1,1.35,4.47V268.3Z"/>
    <path d="M1422.72,252.24v10.42a4.18,4.18,0,0,0,.9,2.93,3.65,3.65,0,0,0,2.8,1,4.56,4.56,0,0,0,3.68-1.37c.78-.92,1.16-2.42,1.16-4.5v-8.44h2.44V268.3h-2l-.35-2.16h-.13a4.79,4.79,0,0,1-2.08,1.82,6.94,6.94,0,0,1-3,.63,6.14,6.14,0,0,1-4.39-1.39,5.93,5.93,0,0,1-1.46-4.45V252.24Z"/>
    <path d="M1441.28,268.3h-2.43V245.5h2.43Z"/>
    <path d="M1451.63,266.58a8.32,8.32,0,0,0,1.24-.09,6.91,6.91,0,0,0,1-.2v1.86a4.52,4.52,0,0,1-1.16.32,9.11,9.11,0,0,1-1.39.12q-4.65,0-4.65-4.91v-9.55h-2.3V253l2.3-1,1-3.43h1.41v3.72h4.66v1.89h-4.66v9.45a3.25,3.25,0,0,0,.69,2.23A2.41,2.41,0,0,0,1451.63,266.58Z"/>
    <path d="M1456.83,247.89a1.59,1.59,0,0,1,.41-1.22,1.5,1.5,0,0,1,2,0,1.55,1.55,0,0,1,.43,1.21,1.6,1.6,0,0,1-.43,1.23,1.45,1.45,0,0,1-1,.4,1.42,1.42,0,0,1-1-.4A1.63,1.63,0,0,1,1456.83,247.89Zm2.63,20.41H1457V252.24h2.43Z"/>
    <path d="M1471,268.59a6.81,6.81,0,0,1-5.39-2.15,8.79,8.79,0,0,1-1.91-6.07,9.06,9.06,0,0,1,1.94-6.22,7,7,0,0,1,5.53-2.2,10.68,10.68,0,0,1,2.31.25,7.65,7.65,0,0,1,1.82.58l-.75,2.07a13,13,0,0,0-1.76-.54,7.85,7.85,0,0,0-1.68-.21q-4.89,0-4.89,6.24a7.38,7.38,0,0,0,1.19,4.54,4.13,4.13,0,0,0,3.54,1.59,10.73,10.73,0,0,0,4.11-.87v2.16A8.83,8.83,0,0,1,1471,268.59Z"/>
    <path d="M1481.33,268.3h-2.43V245.5h2.43Z"/>
    <path d="M1500.35,260.26a8.86,8.86,0,0,1-2,6.13,7,7,0,0,1-5.46,2.2,7.28,7.28,0,0,1-3.83-1,6.7,6.7,0,0,1-2.58-2.9,10.2,10.2,0,0,1-.91-4.42,8.85,8.85,0,0,1,2-6.12A6.94,6.94,0,0,1,1493,252a6.8,6.8,0,0,1,5.35,2.24A8.86,8.86,0,0,1,1500.35,260.26Zm-12.24,0a7.59,7.59,0,0,0,1.23,4.68,4.9,4.9,0,0,0,7.25,0,7.6,7.6,0,0,0,1.24-4.69,7.51,7.51,0,0,0-1.24-4.66,4.37,4.37,0,0,0-3.66-1.58,4.28,4.28,0,0,0-3.6,1.56A7.58,7.58,0,0,0,1488.11,260.26Z"/>
    <path d="M1506.89,252.24v10.42a4.18,4.18,0,0,0,.9,2.93,3.64,3.64,0,0,0,2.79,1,4.57,4.57,0,0,0,3.69-1.37c.78-.92,1.16-2.42,1.16-4.5v-8.44h2.44V268.3h-2l-.35-2.16h-.13a4.79,4.79,0,0,1-2.08,1.82,6.94,6.94,0,0,1-3,.63,6.14,6.14,0,0,1-4.39-1.39,5.93,5.93,0,0,1-1.46-4.45V252.24Z"/>
    <path d="M1534,266.14h-.13a5.74,5.74,0,0,1-5,2.45,6,6,0,0,1-4.9-2.15,11.64,11.64,0,0,1,0-12.29,5.9,5.9,0,0,1,4.89-2.2,5.84,5.84,0,0,1,5,2.37h.19l-.1-1.15-.06-1.13V245.5h2.43v22.8h-2Zm-4.86.41a4.44,4.44,0,0,0,3.61-1.35,6.88,6.88,0,0,0,1.12-4.37v-.52q0-3.4-1.14-4.87a4.31,4.31,0,0,0-3.62-1.45,3.73,3.73,0,0,0-3.28,1.66,8.31,8.31,0,0,0-1.13,4.69,7.9,7.9,0,0,0,1.13,4.65A3.82,3.82,0,0,0,1529.09,266.55Z"/>
    <path d="M1043.21,300.59a6.87,6.87,0,0,1-2.86-.58,5.35,5.35,0,0,1-2.18-1.78H1038a23.07,23.07,0,0,1,.17,2.67v6.6h-2.43V284.24h2l.33,2.2h.12a5.65,5.65,0,0,1,2.18-1.9,6.67,6.67,0,0,1,2.86-.59,6,6,0,0,1,4.93,2.18,11.6,11.6,0,0,1,0,12.27A6,6,0,0,1,1043.21,300.59Zm-.35-14.57a4.3,4.3,0,0,0-3.56,1.36,7,7,0,0,0-1.13,4.33v.55c0,2.25.38,3.87,1.13,4.84a4.29,4.29,0,0,0,3.62,1.45,3.78,3.78,0,0,0,3.26-1.68,8,8,0,0,0,1.18-4.64,7.73,7.73,0,0,0-1.18-4.61A3.89,3.89,0,0,0,1042.86,286Z"/>
    <path d="M1056.56,300.3h-2.44V277.5h2.44Z"/>
    <path d="M1071.58,300.3l-.48-2.29H1071a6.81,6.81,0,0,1-2.39,2.05,7.43,7.43,0,0,1-3,.53,5.35,5.35,0,0,1-3.74-1.23,4.47,4.47,0,0,1-1.36-3.5q0-4.86,7.78-5.1l2.72-.09v-1a4.08,4.08,0,0,0-.81-2.79,3.34,3.34,0,0,0-2.6-.9,10.59,10.59,0,0,0-4.54,1.23l-.75-1.86a11.25,11.25,0,0,1,2.6-1,11,11,0,0,1,2.84-.37,6.1,6.1,0,0,1,4.25,1.27,5.35,5.35,0,0,1,1.39,4.09v11Zm-5.49-1.72a5,5,0,0,0,3.57-1.24,4.62,4.62,0,0,0,1.29-3.49V292.4l-2.43.1a8.88,8.88,0,0,0-4.18.9,2.75,2.75,0,0,0-1.28,2.49,2.52,2.52,0,0,0,.8,2A3.34,3.34,0,0,0,1066.09,298.58Z"/>
    <path d="M1083.58,298.58a8.45,8.45,0,0,0,1.25-.09,7.25,7.25,0,0,0,1-.2v1.86a4.62,4.62,0,0,1-1.17.32,9,9,0,0,1-1.38.12q-4.67,0-4.66-4.91v-9.55h-2.3V285l2.3-1,1-3.43h1.4v3.72h4.66v1.89H1081v9.45a3.25,3.25,0,0,0,.69,2.23A2.42,2.42,0,0,0,1083.58,298.58Z"/>
    <path d="M1096.22,286.13h-4.08V300.3h-2.44V286.13h-2.87V285l2.87-.88v-.89c0-3.94,1.73-5.92,5.18-5.92a10.32,10.32,0,0,1,3,.52l-.63,1.94a8,8,0,0,0-2.4-.45,2.33,2.33,0,0,0-2,.92,5.07,5.07,0,0,0-.66,2.93v1h4.08Z"/>
    <path d="M1113,292.26a8.86,8.86,0,0,1-2,6.13,7,7,0,0,1-5.46,2.2,7.24,7.24,0,0,1-3.82-1,6.58,6.58,0,0,1-2.58-2.9,10.06,10.06,0,0,1-.91-4.42,8.84,8.84,0,0,1,2-6.12,7,7,0,0,1,5.45-2.19,6.82,6.82,0,0,1,5.36,2.24A8.86,8.86,0,0,1,1113,292.26Zm-12.23,0a7.59,7.59,0,0,0,1.23,4.68,4.88,4.88,0,0,0,7.24,0,7.54,7.54,0,0,0,1.24-4.69,7.44,7.44,0,0,0-1.24-4.66,4.35,4.35,0,0,0-3.65-1.58,4.28,4.28,0,0,0-3.6,1.56A7.51,7.51,0,0,0,1100.78,292.26Z"/>
    <path d="M1124.6,284a9.35,9.35,0,0,1,1.92.18l-.34,2.25a8.11,8.11,0,0,0-1.76-.22,4.28,4.28,0,0,0-3.33,1.58,5.8,5.8,0,0,0-1.39,3.94v8.62h-2.43V284.24h2l.28,3h.11a7.11,7.11,0,0,1,2.16-2.42A4.82,4.82,0,0,1,1124.6,284Z"/>
    <path d="M1150,300.3V289.85a4.27,4.27,0,0,0-.82-2.87,3.15,3.15,0,0,0-2.55-1,4.1,4.1,0,0,0-3.35,1.3,6.21,6.21,0,0,0-1.09,4v9h-2.43V289.85a4.27,4.27,0,0,0-.82-2.87,3.18,3.18,0,0,0-2.56-1,4,4,0,0,0-3.35,1.37,7.36,7.36,0,0,0-1.06,4.48v8.43h-2.43V284.24h2l.39,2.2h.12a4.76,4.76,0,0,1,1.94-1.83,5.9,5.9,0,0,1,2.8-.66c2.51,0,4.16.91,4.93,2.72h.11a5.19,5.19,0,0,1,2.08-2A6.46,6.46,0,0,1,1147,284a5.44,5.44,0,0,1,4.08,1.4,6.26,6.26,0,0,1,1.36,4.47V300.3Z"/>
    <path d="M1045.44,345.08h7.28v10.41a22.77,22.77,0,0,1-3.45.82,25.87,25.87,0,0,1-4.08.28,9.86,9.86,0,0,1-7.57-2.89c-1.8-1.93-2.71-4.63-2.71-8.11a12.26,12.26,0,0,1,1.34-5.85,9.05,9.05,0,0,1,3.86-3.84,12.55,12.55,0,0,1,5.9-1.33,16.12,16.12,0,0,1,6.39,1.26l-1,2.2a14.24,14.24,0,0,0-5.58-1.23,8,8,0,0,0-6.1,2.33,9,9,0,0,0-2.2,6.46c0,2.89.7,5.08,2.12,6.58s3.48,2.24,6.21,2.24a18,18,0,0,0,4.35-.52V347.3h-4.79Z"/>
    <path d="M1064.82,340a10,10,0,0,1,1.92.17l-.33,2.26a8.11,8.11,0,0,0-1.76-.22,4.28,4.28,0,0,0-3.33,1.58,5.75,5.75,0,0,0-1.39,3.94v8.62h-2.43V340.24h2l.27,3h.12a7.11,7.11,0,0,1,2.16-2.42A4.81,4.81,0,0,1,1064.82,340Z"/>
    <path d="M1076.53,356.59a7.37,7.37,0,0,1-5.62-2.17,8.39,8.39,0,0,1-2.06-6,9.35,9.35,0,0,1,1.91-6.17,6.37,6.37,0,0,1,5.14-2.28,6,6,0,0,1,4.77,2,7.63,7.63,0,0,1,1.76,5.24v1.54h-11.06a6.4,6.4,0,0,0,1.43,4.29,4.94,4.94,0,0,0,3.82,1.47,13,13,0,0,0,5.12-1.09v2.17a12.82,12.82,0,0,1-2.44.8A13.72,13.72,0,0,1,1076.53,356.59Zm-.66-14.6a4,4,0,0,0-3.09,1.26,5.83,5.83,0,0,0-1.35,3.48h8.39a5.35,5.35,0,0,0-1-3.52A3.6,3.6,0,0,0,1075.87,342Z"/>
    <path d="M1096.45,356.3,1096,354h-.12a6.6,6.6,0,0,1-2.4,2,7.19,7.19,0,0,1-3,.54,5.35,5.35,0,0,1-3.74-1.23,4.5,4.5,0,0,1-1.35-3.5q0-4.86,7.77-5.1l2.73-.09v-1a4.08,4.08,0,0,0-.81-2.79,3.36,3.36,0,0,0-2.6-.9,10.63,10.63,0,0,0-4.55,1.23l-.74-1.86a11.44,11.44,0,0,1,5.43-1.38,6.13,6.13,0,0,1,4.26,1.27,5.33,5.33,0,0,1,1.38,4.09v11Zm-5.49-1.72a4.92,4.92,0,0,0,3.56-1.24,4.59,4.59,0,0,0,1.3-3.49V348.4l-2.43.1a8.85,8.85,0,0,0-4.18.9,2.72,2.72,0,0,0-1.29,2.49,2.48,2.48,0,0,0,.8,2A3.32,3.32,0,0,0,1091,354.58Z"/>
    <path d="M1108.45,354.58a8.32,8.32,0,0,0,1.24-.09,8.83,8.83,0,0,0,1-.2v1.86a4.19,4.19,0,0,1-1.16.31,8.08,8.08,0,0,1-1.39.13q-4.65,0-4.65-4.91v-9.55h-2.3V341l2.3-1,1-3.43h1.41v3.72h4.66v1.89h-4.66v9.45a3.25,3.25,0,0,0,.69,2.23A2.42,2.42,0,0,0,1108.45,354.58Z"/>
    <path d="M1128.06,356.59a6.84,6.84,0,0,1-5.4-2.15,8.84,8.84,0,0,1-1.91-6.07,9.11,9.11,0,0,1,1.94-6.22,7,7,0,0,1,5.53-2.2,10.84,10.84,0,0,1,2.32.25,7.56,7.56,0,0,1,1.81.58l-.74,2.07a12.11,12.11,0,0,0-1.76-.54,8,8,0,0,0-1.69-.21q-4.89,0-4.89,6.24a7.37,7.37,0,0,0,1.2,4.54,4.13,4.13,0,0,0,3.53,1.59,10.78,10.78,0,0,0,4.12-.87v2.15A8.76,8.76,0,0,1,1128.06,356.59Z"/>
    <path d="M1138.21,340.24v10.42a4.18,4.18,0,0,0,.9,2.93,3.63,3.63,0,0,0,2.79,1,4.61,4.61,0,0,0,3.69-1.37,7,7,0,0,0,1.16-4.5v-8.44h2.43V356.3h-2l-.35-2.16h-.14a4.83,4.83,0,0,1-2.07,1.82,6.94,6.94,0,0,1-3,.63,6.12,6.12,0,0,1-4.39-1.39,5.93,5.93,0,0,1-1.46-4.45V340.24Z"/>
    <path d="M1164.7,351.92a4,4,0,0,1-1.67,3.45,7.88,7.88,0,0,1-4.69,1.22,10.23,10.23,0,0,1-5-1v-2.26a12.44,12.44,0,0,0,2.48.93,10.64,10.64,0,0,0,2.56.33,5.76,5.76,0,0,0,2.93-.61,2.09,2.09,0,0,0,.21-3.45,12.7,12.7,0,0,0-3.17-1.58,17.06,17.06,0,0,1-3.19-1.45,4.29,4.29,0,0,1-1.4-1.42,3.65,3.65,0,0,1-.46-1.89,3.61,3.61,0,0,1,1.59-3.1,7.51,7.51,0,0,1,4.38-1.13,12.87,12.87,0,0,1,5.07,1.05l-.86,2a11.77,11.77,0,0,0-4.38-1,5,5,0,0,0-2.61.54,1.67,1.67,0,0,0-.88,1.49,1.82,1.82,0,0,0,.33,1.1,3.21,3.21,0,0,0,1.06.86,23.41,23.41,0,0,0,2.81,1.19,10.31,10.31,0,0,1,3.86,2.1A3.68,3.68,0,0,1,1164.7,351.92Z"/>
    <path d="M1173.84,354.58a8.32,8.32,0,0,0,1.24-.09,8.83,8.83,0,0,0,1-.2v1.86a4.19,4.19,0,0,1-1.16.31,8,8,0,0,1-1.38.13q-4.66,0-4.66-4.91v-9.55h-2.3V341l2.3-1,1-3.43h1.41v3.72h4.66v1.89h-4.66v9.45a3.25,3.25,0,0,0,.69,2.23A2.42,2.42,0,0,0,1173.84,354.58Z"/>
    <path d="M1193.1,348.25a8.83,8.83,0,0,1-2,6.13,6.93,6.93,0,0,1-5.46,2.21,7.3,7.3,0,0,1-3.83-1,6.62,6.62,0,0,1-2.57-2.9,10.07,10.07,0,0,1-.91-4.43,8.83,8.83,0,0,1,2-6.11,7,7,0,0,1,5.45-2.19,6.82,6.82,0,0,1,5.36,2.24A8.83,8.83,0,0,1,1193.1,348.25Zm-12.23,0a7.6,7.6,0,0,0,1.23,4.69,4.88,4.88,0,0,0,7.24,0,7.55,7.55,0,0,0,1.24-4.7,7.43,7.43,0,0,0-1.24-4.65,5,5,0,0,0-7.26,0A7.55,7.55,0,0,0,1180.87,348.25Z"/>
    <path d="M1217.83,356.3V345.85A4.38,4.38,0,0,0,1217,343a3.18,3.18,0,0,0-2.55-1,4.13,4.13,0,0,0-3.36,1.31,6.22,6.22,0,0,0-1.08,4v9h-2.43V345.85a4.38,4.38,0,0,0-.82-2.88,3.2,3.2,0,0,0-2.57-1,4,4,0,0,0-3.34,1.37,7.41,7.41,0,0,0-1.07,4.49v8.43h-2.43V340.24h2l.4,2.2h.11a4.82,4.82,0,0,1,1.94-1.83,5.94,5.94,0,0,1,2.81-.66q3.76,0,4.92,2.72h.12a5.12,5.12,0,0,1,2.08-2,6.42,6.42,0,0,1,3.1-.73,5.44,5.44,0,0,1,4.08,1.4,6.21,6.21,0,0,1,1.36,4.47V356.3Z"/>
    <path d="M1232.05,356.59a7.37,7.37,0,0,1-5.62-2.17,8.39,8.39,0,0,1-2.06-6,9.3,9.3,0,0,1,1.92-6.17,6.34,6.34,0,0,1,5.13-2.28,6.09,6.09,0,0,1,4.78,2,7.63,7.63,0,0,1,1.75,5.24v1.54h-11.06a6.4,6.4,0,0,0,1.43,4.29,5,5,0,0,0,3.82,1.47,12.91,12.91,0,0,0,5.12-1.09v2.17a12.74,12.74,0,0,1-2.43.8A13.9,13.9,0,0,1,1232.05,356.59Zm-.66-14.6a4,4,0,0,0-3.08,1.26,5.78,5.78,0,0,0-1.36,3.48h8.4a5.35,5.35,0,0,0-1-3.52A3.59,3.59,0,0,0,1231.39,342Z"/>
    <path d="M1249.42,340a10,10,0,0,1,1.92.17l-.34,2.26a8,8,0,0,0-1.75-.22,4.28,4.28,0,0,0-3.33,1.58,5.75,5.75,0,0,0-1.39,3.94v8.62h-2.43V340.24h2l.27,3h.12a7.11,7.11,0,0,1,2.16-2.42A4.81,4.81,0,0,1,1249.42,340Z"/>
    <path d="M1256.89,352.81l.22.34a35.18,35.18,0,0,1-1.1,3.4c-.47,1.3-1,2.5-1.49,3.61h-1.83c.26-1,.55-2.27.87-3.76s.54-2.69.67-3.59Z"/>
    <path d="M1276.27,356.59a7.34,7.34,0,0,1-5.61-2.17,8.35,8.35,0,0,1-2.06-6,9.35,9.35,0,0,1,1.91-6.17,6.35,6.35,0,0,1,5.13-2.28,6.06,6.06,0,0,1,4.78,2,7.63,7.63,0,0,1,1.76,5.24v1.54h-11.06a6.35,6.35,0,0,0,1.43,4.29,4.91,4.91,0,0,0,3.81,1.47,13,13,0,0,0,5.13-1.09v2.17a12.82,12.82,0,0,1-2.44.8A13.83,13.83,0,0,1,1276.27,356.59Zm-.66-14.6a4,4,0,0,0-3.08,1.26,5.71,5.71,0,0,0-1.35,3.48h8.39a5.3,5.3,0,0,0-1-3.52A3.59,3.59,0,0,0,1275.61,342Z"/>
    <path d="M1306.79,356.3V345.85A4.38,4.38,0,0,0,1306,343a3.18,3.18,0,0,0-2.55-1,4.13,4.13,0,0,0-3.36,1.31,6.22,6.22,0,0,0-1.08,4v9h-2.43V345.85a4.38,4.38,0,0,0-.82-2.88,3.2,3.2,0,0,0-2.57-1,4,4,0,0,0-3.34,1.37,7.41,7.41,0,0,0-1.07,4.49v8.43h-2.43V340.24h2l.4,2.2h.11a4.82,4.82,0,0,1,1.94-1.83,5.94,5.94,0,0,1,2.81-.66q3.76,0,4.92,2.72h.12a5.12,5.12,0,0,1,2.08-2,6.42,6.42,0,0,1,3.1-.73,5.44,5.44,0,0,1,4.08,1.4,6.21,6.21,0,0,1,1.36,4.47V356.3Z"/>
    <path d="M1321.7,356.59a6.91,6.91,0,0,1-2.87-.58,5.39,5.39,0,0,1-2.17-1.78h-.18a21.13,21.13,0,0,1,.18,2.67v6.6h-2.43V340.24h2l.33,2.2h.12a5.58,5.58,0,0,1,2.18-1.9,6.5,6.5,0,0,1,2.86-.59,6,6,0,0,1,4.93,2.18,11.66,11.66,0,0,1,0,12.27A6,6,0,0,1,1321.7,356.59Zm-.35-14.58a4.31,4.31,0,0,0-3.56,1.37,7,7,0,0,0-1.13,4.33v.54c0,2.26.38,3.87,1.13,4.85a4.29,4.29,0,0,0,3.62,1.45,3.78,3.78,0,0,0,3.26-1.68,8,8,0,0,0,1.17-4.64,7.73,7.73,0,0,0-1.17-4.61A3.9,3.9,0,0,0,1321.35,342Z"/>
    <path d="M1335,356.3h-2.43V333.5H1335Z"/>
    <path d="M1354.06,348.25a8.83,8.83,0,0,1-2,6.13,6.93,6.93,0,0,1-5.46,2.21,7.3,7.3,0,0,1-3.83-1,6.7,6.7,0,0,1-2.58-2.9,10.21,10.21,0,0,1-.9-4.43,8.83,8.83,0,0,1,2-6.11,6.94,6.94,0,0,1,5.45-2.19,6.8,6.8,0,0,1,5.35,2.24A8.78,8.78,0,0,1,1354.06,348.25Zm-12.23,0a7.6,7.6,0,0,0,1.23,4.69,4.24,4.24,0,0,0,3.61,1.61,4.3,4.3,0,0,0,3.63-1.6,7.61,7.61,0,0,0,1.24-4.7,7.49,7.49,0,0,0-1.24-4.65,4.35,4.35,0,0,0-3.65-1.59,4.3,4.3,0,0,0-3.61,1.57A7.55,7.55,0,0,0,1341.83,348.25Z"/>
    <path d="M1355.77,340.24h2.61l3.51,9.16a34.76,34.76,0,0,1,1.44,4.52h.12c.12-.49.39-1.35.8-2.55s1.73-4.92,4-11.13h2.61l-6.9,18.28a9,9,0,0,1-2.4,3.85,5.11,5.11,0,0,1-3.36,1.13,9.49,9.49,0,0,1-2.19-.25v-1.94a8.88,8.88,0,0,0,1.8.17q2.51,0,3.57-2.81l.9-2.29Z"/>
    <path d="M1380.22,356.59a7.37,7.37,0,0,1-5.62-2.17,8.39,8.39,0,0,1-2.06-6,9.35,9.35,0,0,1,1.91-6.17,6.37,6.37,0,0,1,5.14-2.28,6,6,0,0,1,4.77,2,7.59,7.59,0,0,1,1.76,5.24v1.54h-11.06a6.4,6.4,0,0,0,1.43,4.29,4.94,4.94,0,0,0,3.82,1.47,12.91,12.91,0,0,0,5.12-1.09v2.17a12.74,12.74,0,0,1-2.43.8A13.9,13.9,0,0,1,1380.22,356.59Zm-.66-14.6a4,4,0,0,0-3.08,1.26,5.78,5.78,0,0,0-1.36,3.48h8.39a5.35,5.35,0,0,0-1-3.52A3.59,3.59,0,0,0,1379.56,342Z"/>
    <path d="M1397.05,356.59a7.37,7.37,0,0,1-5.62-2.17,8.39,8.39,0,0,1-2.06-6,9.3,9.3,0,0,1,1.92-6.17,6.34,6.34,0,0,1,5.13-2.28,6.09,6.09,0,0,1,4.78,2,7.63,7.63,0,0,1,1.75,5.24v1.54h-11.06a6.4,6.4,0,0,0,1.43,4.29,5,5,0,0,0,3.82,1.47,12.91,12.91,0,0,0,5.12-1.09v2.17a12.74,12.74,0,0,1-2.43.8A13.9,13.9,0,0,1,1397.05,356.59Zm-.66-14.6a4,4,0,0,0-3.08,1.26,5.78,5.78,0,0,0-1.36,3.48h8.4a5.35,5.35,0,0,0-1-3.52A3.59,3.59,0,0,0,1396.39,342Z"/>
    <path d="M1409.65,352.81l.22.34c-.26,1-.62,2.11-1.1,3.4s-1,2.5-1.5,3.61h-1.83c.27-1,.56-2.27.88-3.76s.53-2.69.66-3.59Z"/>
    <path d="M1432.12,356.3l-.48-2.29h-.12a6.6,6.6,0,0,1-2.4,2,7.22,7.22,0,0,1-3,.54,5.35,5.35,0,0,1-3.74-1.23,4.5,4.5,0,0,1-1.36-3.5q0-4.86,7.78-5.1l2.73-.09v-1a4,4,0,0,0-.82-2.79,3.33,3.33,0,0,0-2.6-.9,10.62,10.62,0,0,0-4.54,1.23l-.74-1.86a11.54,11.54,0,0,1,2.6-1,11.38,11.38,0,0,1,2.83-.36,6.15,6.15,0,0,1,4.26,1.27,5.33,5.33,0,0,1,1.38,4.09v11Zm-5.49-1.72a4.92,4.92,0,0,0,3.56-1.24,4.59,4.59,0,0,0,1.3-3.49V348.4l-2.43.1a8.93,8.93,0,0,0-4.19.9,2.74,2.74,0,0,0-1.28,2.49,2.48,2.48,0,0,0,.8,2A3.32,3.32,0,0,0,1426.63,354.58Z"/>
    <path d="M1449.92,356.3V345.91a4.18,4.18,0,0,0-.9-2.93,3.63,3.63,0,0,0-2.79-1,4.64,4.64,0,0,0-3.7,1.37c-.78.91-1.17,2.4-1.17,4.49v8.43h-2.43V340.24h2l.39,2.2h.12a5.06,5.06,0,0,1,2.09-1.84,6.92,6.92,0,0,1,3-.65,6.09,6.09,0,0,1,4.36,1.4,5.93,5.93,0,0,1,1.47,4.47V356.3Z"/>
    <path d="M1468.27,354.14h-.13a5.71,5.71,0,0,1-5,2.45,6,6,0,0,1-4.9-2.15,9.48,9.48,0,0,1-1.75-6.13,9.63,9.63,0,0,1,1.76-6.16,5.9,5.9,0,0,1,4.89-2.2,5.84,5.84,0,0,1,5,2.37h.19l-.1-1.15-.06-1.13V333.5h2.43v22.8h-2Zm-4.86.41a4.44,4.44,0,0,0,3.61-1.35,6.88,6.88,0,0,0,1.12-4.37v-.52q0-3.4-1.14-4.87a4.29,4.29,0,0,0-3.62-1.45,3.73,3.73,0,0,0-3.28,1.66,8.31,8.31,0,0,0-1.13,4.69,7.9,7.9,0,0,0,1.13,4.65A3.82,3.82,0,0,0,1463.41,354.55Z"/>
    <path d="M1491,356.59a6.87,6.87,0,0,1-2.86-.58,5.35,5.35,0,0,1-2.18-1.78h-.17a23.07,23.07,0,0,1,.17,2.67v6.6h-2.43V340.24h2l.33,2.2h.12a5.65,5.65,0,0,1,2.18-1.9A6.53,6.53,0,0,1,1491,340a6,6,0,0,1,4.93,2.18,11.6,11.6,0,0,1,0,12.27A6,6,0,0,1,1491,356.59Zm-.35-14.58a4.31,4.31,0,0,0-3.56,1.37,7,7,0,0,0-1.13,4.33v.54c0,2.26.38,3.87,1.13,4.85a4.29,4.29,0,0,0,3.62,1.45,3.78,3.78,0,0,0,3.26-1.68,8,8,0,0,0,1.18-4.64,7.73,7.73,0,0,0-1.18-4.61A3.89,3.89,0,0,0,1490.64,342Z"/>
    <path d="M1511.78,356.3l-.49-2.29h-.11a6.6,6.6,0,0,1-2.4,2,7.22,7.22,0,0,1-3,.54,5.35,5.35,0,0,1-3.74-1.23,4.47,4.47,0,0,1-1.36-3.5q0-4.86,7.78-5.1l2.73-.09v-1a4.08,4.08,0,0,0-.82-2.79,3.34,3.34,0,0,0-2.6-.9,10.59,10.59,0,0,0-4.54,1.23l-.75-1.86a11.93,11.93,0,0,1,2.6-1,11.52,11.52,0,0,1,2.84-.36,6.1,6.1,0,0,1,4.25,1.27,5.29,5.29,0,0,1,1.39,4.09v11Zm-5.5-1.72a4.92,4.92,0,0,0,3.57-1.24,4.62,4.62,0,0,0,1.3-3.49V348.4l-2.43.1a8.93,8.93,0,0,0-4.19.9,2.74,2.74,0,0,0-1.28,2.49,2.48,2.48,0,0,0,.8,2A3.31,3.31,0,0,0,1506.28,354.58Z"/>
    <path d="M1525.91,340a10.08,10.08,0,0,1,1.92.17l-.33,2.26a8.11,8.11,0,0,0-1.76-.22,4.28,4.28,0,0,0-3.33,1.58,5.75,5.75,0,0,0-1.39,3.94v8.62h-2.43V340.24h2l.28,3h.12a7.09,7.09,0,0,1,2.15-2.42A4.84,4.84,0,0,1,1525.91,340Z"/>
    <path d="M1536,354.58a8.32,8.32,0,0,0,1.24-.09,9.1,9.1,0,0,0,1-.2v1.86a4.28,4.28,0,0,1-1.17.31,8,8,0,0,1-1.38.13q-4.67,0-4.66-4.91v-9.55h-2.3V341l2.3-1,1-3.43h1.4v3.72h4.66v1.89h-4.66v9.45a3.25,3.25,0,0,0,.69,2.23A2.42,2.42,0,0,0,1536,354.58Z"/>
    <path d="M1552.41,356.3V345.91a4.23,4.23,0,0,0-.89-2.93,3.67,3.67,0,0,0-2.8-1,4.61,4.61,0,0,0-3.69,1.37c-.78.91-1.17,2.4-1.17,4.49v8.43h-2.44V340.24h2l.4,2.2h.12a4.94,4.94,0,0,1,2.09-1.84,6.87,6.87,0,0,1,3-.65,6.12,6.12,0,0,1,4.37,1.4,6,6,0,0,1,1.46,4.47V356.3Z"/>
    <path d="M1566.62,356.59a7.37,7.37,0,0,1-5.62-2.17,8.39,8.39,0,0,1-2.06-6,9.3,9.3,0,0,1,1.92-6.17A6.34,6.34,0,0,1,1566,340a6.09,6.09,0,0,1,4.78,2,7.63,7.63,0,0,1,1.75,5.24v1.54h-11.06a6.4,6.4,0,0,0,1.43,4.29,5,5,0,0,0,3.82,1.47,12.91,12.91,0,0,0,5.12-1.09v2.17a12.74,12.74,0,0,1-2.43.8A13.9,13.9,0,0,1,1566.62,356.59ZM1566,342a4,4,0,0,0-3.08,1.26,5.78,5.78,0,0,0-1.36,3.48h8.4a5.3,5.3,0,0,0-1-3.52A3.59,3.59,0,0,0,1566,342Z"/>
    <path d="M1584,340a10,10,0,0,1,1.92.17l-.33,2.26a8.11,8.11,0,0,0-1.76-.22,4.28,4.28,0,0,0-3.33,1.58,5.75,5.75,0,0,0-1.39,3.94v8.62h-2.43V340.24h2l.27,3h.12a7.11,7.11,0,0,1,2.16-2.42A4.81,4.81,0,0,1,1584,340Z"/>
    <path d="M1042.4,388.59a7.35,7.35,0,0,1-5.62-2.17,8.39,8.39,0,0,1-2.06-6,9.35,9.35,0,0,1,1.91-6.17,6.37,6.37,0,0,1,5.13-2.28,6.06,6.06,0,0,1,4.78,2,7.63,7.63,0,0,1,1.76,5.24v1.54h-11.06a6.35,6.35,0,0,0,1.43,4.29,4.91,4.91,0,0,0,3.81,1.47,13,13,0,0,0,5.13-1.09v2.17a12.82,12.82,0,0,1-2.44.8A13.79,13.79,0,0,1,1042.4,388.59Zm-.66-14.6a4,4,0,0,0-3.09,1.26,5.77,5.77,0,0,0-1.35,3.48h8.39a5.35,5.35,0,0,0-1-3.52A3.62,3.62,0,0,0,1041.74,374Z"/>
    <path d="M1056.31,380.08l-5.58-7.84h2.77l4.23,6.15,4.22-6.15h2.74l-5.58,7.84,5.87,8.22h-2.75l-4.5-6.51-4.54,6.51h-2.75Z"/>
    <path d="M1075.63,388.59a6.87,6.87,0,0,1-2.86-.58,5.35,5.35,0,0,1-2.18-1.78h-.17a23.07,23.07,0,0,1,.17,2.67v6.6h-2.43V372.24h2l.34,2.2h.11a5.67,5.67,0,0,1,2.19-1.9,6.48,6.48,0,0,1,2.85-.59,6,6,0,0,1,4.93,2.18,11.6,11.6,0,0,1,0,12.27A6,6,0,0,1,1075.63,388.59Zm-.35-14.58a4.31,4.31,0,0,0-3.56,1.37,7,7,0,0,0-1.13,4.33v.54c0,2.26.38,3.87,1.13,4.85a4.29,4.29,0,0,0,3.62,1.45,3.77,3.77,0,0,0,3.26-1.68,8,8,0,0,0,1.18-4.64,7.73,7.73,0,0,0-1.18-4.61A3.89,3.89,0,0,0,1075.28,374Z"/>
    <path d="M1093.33,388.59a7.35,7.35,0,0,1-5.62-2.17,8.39,8.39,0,0,1-2.06-6,9.35,9.35,0,0,1,1.91-6.17,6.37,6.37,0,0,1,5.14-2.28,6,6,0,0,1,4.77,2,7.59,7.59,0,0,1,1.76,5.24v1.54h-11.06a6.4,6.4,0,0,0,1.43,4.29,4.92,4.92,0,0,0,3.82,1.47,13,13,0,0,0,5.12-1.09v2.17a12.82,12.82,0,0,1-2.44.8A13.72,13.72,0,0,1,1093.33,388.59Zm-.66-14.6a4,4,0,0,0-3.09,1.26,5.83,5.83,0,0,0-1.35,3.48h8.39a5.35,5.35,0,0,0-1-3.52A3.59,3.59,0,0,0,1092.67,374Z"/>
    <path d="M1110.7,372a10.15,10.15,0,0,1,1.92.17l-.34,2.26a8,8,0,0,0-1.76-.22,4.3,4.3,0,0,0-3.33,1.58,5.79,5.79,0,0,0-1.38,3.94v8.62h-2.43V372.24h2l.28,3h.12a7,7,0,0,1,2.15-2.42A4.82,4.82,0,0,1,1110.7,372Z"/>
    <path d="M1115.42,367.89a1.58,1.58,0,0,1,.41-1.22,1.5,1.5,0,0,1,2,0,1.54,1.54,0,0,1,.43,1.21,1.6,1.6,0,0,1-.43,1.23,1.45,1.45,0,0,1-1,.4,1.42,1.42,0,0,1-1-.4A1.63,1.63,0,0,1,1115.42,367.89Zm2.63,20.41h-2.43V372.24h2.43Z"/>
    <path d="M1130,388.59a7.38,7.38,0,0,1-5.62-2.17,8.39,8.39,0,0,1-2-6,9.29,9.29,0,0,1,1.91-6.17,6.34,6.34,0,0,1,5.13-2.28,6.07,6.07,0,0,1,4.78,2,7.63,7.63,0,0,1,1.76,5.24v1.54h-11.06a6.39,6.39,0,0,0,1.42,4.29,5,5,0,0,0,3.82,1.47,13,13,0,0,0,5.13-1.09v2.17a13.06,13.06,0,0,1-2.44.8A13.83,13.83,0,0,1,1130,388.59Zm-.66-14.6a4,4,0,0,0-3.08,1.26,5.71,5.71,0,0,0-1.35,3.48h8.39a5.3,5.3,0,0,0-1-3.52A3.59,3.59,0,0,0,1129.33,374Z"/>
    <path d="M1151,388.3V377.91a4.18,4.18,0,0,0-.9-2.93,3.63,3.63,0,0,0-2.79-1,4.61,4.61,0,0,0-3.69,1.37c-.79.91-1.18,2.4-1.18,4.49v8.43H1140V372.24h2l.4,2.2h.11a5,5,0,0,1,2.1-1.84,6.84,6.84,0,0,1,3-.65,6.13,6.13,0,0,1,4.37,1.4,6,6,0,0,1,1.46,4.47V388.3Z"/>
    <path d="M1164.87,388.59a6.84,6.84,0,0,1-5.4-2.15,8.84,8.84,0,0,1-1.91-6.07,9.11,9.11,0,0,1,1.94-6.22A7,7,0,0,1,1165,372a10.77,10.77,0,0,1,2.32.25,7.56,7.56,0,0,1,1.81.58l-.74,2.07a12.11,12.11,0,0,0-1.76-.54,8,8,0,0,0-1.69-.21q-4.89,0-4.89,6.24a7.44,7.44,0,0,0,1.19,4.54,4.16,4.16,0,0,0,3.54,1.59,10.78,10.78,0,0,0,4.12-.87v2.15A8.76,8.76,0,0,1,1164.87,388.59Z"/>
    <path d="M1179.52,388.59a7.37,7.37,0,0,1-5.62-2.17,8.39,8.39,0,0,1-2.06-6,9.35,9.35,0,0,1,1.91-6.17,6.37,6.37,0,0,1,5.14-2.28,6.09,6.09,0,0,1,4.78,2,7.63,7.63,0,0,1,1.75,5.24v1.54h-11.06a6.4,6.4,0,0,0,1.43,4.29,4.94,4.94,0,0,0,3.82,1.47,13,13,0,0,0,5.12-1.09v2.17a13,13,0,0,1-2.43.8A13.9,13.9,0,0,1,1179.52,388.59Zm-.66-14.6a4,4,0,0,0-3.08,1.26,5.78,5.78,0,0,0-1.36,3.48h8.4a5.35,5.35,0,0,0-1-3.52A3.59,3.59,0,0,0,1178.86,374Z"/>
    <path d="M1208.29,386.14h-.13a5.74,5.74,0,0,1-5,2.45,6,6,0,0,1-4.9-2.15,11.64,11.64,0,0,1,0-12.29,5.9,5.9,0,0,1,4.89-2.2,5.84,5.84,0,0,1,5,2.37h.19l-.1-1.15-.06-1.13V365.5h2.43v22.8h-2Zm-4.87.41a4.46,4.46,0,0,0,3.62-1.35,6.88,6.88,0,0,0,1.12-4.37v-.52q0-3.4-1.14-4.87a4.31,4.31,0,0,0-3.62-1.45,3.73,3.73,0,0,0-3.28,1.66,8.23,8.23,0,0,0-1.13,4.69,8,8,0,0,0,1.12,4.65A3.84,3.84,0,0,0,1203.42,386.55Z"/>
    <path d="M1218,372.24v10.42a4.23,4.23,0,0,0,.89,2.93,3.67,3.67,0,0,0,2.8,1,4.61,4.61,0,0,0,3.69-1.37,7,7,0,0,0,1.16-4.5v-8.44H1229V388.3h-2l-.36-2.16h-.13a4.89,4.89,0,0,1-2.07,1.82,7,7,0,0,1-3,.63,6.11,6.11,0,0,1-4.38-1.39c-1-.93-1.46-2.41-1.46-4.45V372.24Z"/>
    <path d="M1240.94,388.59a7.37,7.37,0,0,1-5.62-2.17,8.39,8.39,0,0,1-2.06-6,9.35,9.35,0,0,1,1.91-6.17,6.37,6.37,0,0,1,5.14-2.28,6,6,0,0,1,4.77,2,7.59,7.59,0,0,1,1.76,5.24v1.54h-11.06a6.4,6.4,0,0,0,1.43,4.29,4.94,4.94,0,0,0,3.82,1.47,13,13,0,0,0,5.13-1.09v2.17a13.06,13.06,0,0,1-2.44.8A13.9,13.9,0,0,1,1240.94,388.59Zm-.66-14.6a4,4,0,0,0-3.08,1.26,5.78,5.78,0,0,0-1.36,3.48h8.4a5.35,5.35,0,0,0-1-3.52A3.59,3.59,0,0,0,1240.28,374Z"/>
    <path d="M1264,386.58a8.32,8.32,0,0,0,1.24-.09,9.69,9.69,0,0,0,1-.2v1.86a4.39,4.39,0,0,1-1.17.31,8,8,0,0,1-1.38.13q-4.66,0-4.66-4.91v-9.55h-2.3V373l2.3-1,1-3.43h1.41v3.72h4.66v1.89h-4.66v9.45a3.25,3.25,0,0,0,.69,2.23A2.42,2.42,0,0,0,1264,386.58Z"/>
    <path d="M1283.23,380.25a8.83,8.83,0,0,1-2,6.13,6.93,6.93,0,0,1-5.46,2.21,7.24,7.24,0,0,1-3.82-1,6.58,6.58,0,0,1-2.58-2.9,10.07,10.07,0,0,1-.91-4.43,8.83,8.83,0,0,1,2-6.11,7,7,0,0,1,5.45-2.19,6.82,6.82,0,0,1,5.36,2.24A8.83,8.83,0,0,1,1283.23,380.25Zm-12.23,0a7.6,7.6,0,0,0,1.23,4.69,4.88,4.88,0,0,0,7.24,0,7.55,7.55,0,0,0,1.24-4.7,7.43,7.43,0,0,0-1.24-4.65,5,5,0,0,0-7.26,0A7.55,7.55,0,0,0,1271,380.25Z"/>
    <path d="M1315.75,388.3V377.85a4.32,4.32,0,0,0-.82-2.88,3.18,3.18,0,0,0-2.55-1,4.11,4.11,0,0,0-3.35,1.31,6.15,6.15,0,0,0-1.09,4v9h-2.43V377.85a4.32,4.32,0,0,0-.82-2.88,3.19,3.19,0,0,0-2.56-1,4,4,0,0,0-3.35,1.37,7.41,7.41,0,0,0-1.06,4.49v8.43h-2.43V372.24h2l.4,2.2h.12a4.76,4.76,0,0,1,1.94-1.83,5.9,5.9,0,0,1,2.8-.66q3.76,0,4.92,2.72h.12a5.12,5.12,0,0,1,2.08-2,6.43,6.43,0,0,1,3.11-.73,5.47,5.47,0,0,1,4.08,1.4,6.26,6.26,0,0,1,1.35,4.47V388.3Z"/>
    <path d="M1337.05,380.25a8.83,8.83,0,0,1-2,6.13,6.93,6.93,0,0,1-5.46,2.21,7.3,7.3,0,0,1-3.83-1,6.62,6.62,0,0,1-2.57-2.9,10.07,10.07,0,0,1-.91-4.43,8.83,8.83,0,0,1,2-6.11,7,7,0,0,1,5.45-2.19,6.79,6.79,0,0,1,5.35,2.24A8.78,8.78,0,0,1,1337.05,380.25Zm-12.23,0a7.6,7.6,0,0,0,1.23,4.69,4.88,4.88,0,0,0,7.24,0,7.55,7.55,0,0,0,1.24-4.7,7.43,7.43,0,0,0-1.24-4.65,5,5,0,0,0-7.26,0A7.55,7.55,0,0,0,1324.82,380.25Z"/>
    <path d="M1352.24,386.14h-.13a5.74,5.74,0,0,1-5,2.45,6,6,0,0,1-4.9-2.15,9.48,9.48,0,0,1-1.75-6.13,9.63,9.63,0,0,1,1.75-6.16,5.93,5.93,0,0,1,4.9-2.2,5.84,5.84,0,0,1,5,2.37h.19l-.1-1.15-.06-1.13V365.5h2.43v22.8h-2Zm-4.86.41a4.44,4.44,0,0,0,3.61-1.35,6.88,6.88,0,0,0,1.12-4.37v-.52q0-3.4-1.14-4.87a4.31,4.31,0,0,0-3.62-1.45,3.73,3.73,0,0,0-3.28,1.66,8.31,8.31,0,0,0-1.13,4.69,7.9,7.9,0,0,0,1.13,4.65A3.82,3.82,0,0,0,1347.38,386.55Z"/>
    <path d="M1366.48,388.59a7.35,7.35,0,0,1-5.62-2.17,8.39,8.39,0,0,1-2.06-6,9.35,9.35,0,0,1,1.91-6.17,6.37,6.37,0,0,1,5.14-2.28,6,6,0,0,1,4.77,2,7.63,7.63,0,0,1,1.76,5.24v1.54h-11.06a6.35,6.35,0,0,0,1.43,4.29,4.92,4.92,0,0,0,3.82,1.47,13,13,0,0,0,5.12-1.09v2.17a12.82,12.82,0,0,1-2.44.8A13.72,13.72,0,0,1,1366.48,388.59Zm-.66-14.6a4,4,0,0,0-3.09,1.26,5.83,5.83,0,0,0-1.35,3.48h8.39a5.35,5.35,0,0,0-1-3.52A3.6,3.6,0,0,0,1365.82,374Z"/>
    <path d="M1383.85,372a10.15,10.15,0,0,1,1.92.17l-.34,2.26a8,8,0,0,0-1.76-.22,4.3,4.3,0,0,0-3.33,1.58,5.79,5.79,0,0,0-1.38,3.94v8.62h-2.43V372.24h2l.28,3h.12a7,7,0,0,1,2.15-2.42A4.82,4.82,0,0,1,1383.85,372Z"/>
    <path d="M1399.76,388.3V377.91a4.18,4.18,0,0,0-.9-2.93,3.63,3.63,0,0,0-2.79-1,4.61,4.61,0,0,0-3.69,1.37c-.79.91-1.18,2.4-1.18,4.49v8.43h-2.43V372.24h2l.4,2.2h.11a5,5,0,0,1,2.1-1.84,6.84,6.84,0,0,1,3-.65,6.13,6.13,0,0,1,4.37,1.4,6,6,0,0,1,1.46,4.47V388.3Z"/>
    <path d="M1424.85,388.3l-.48-2.29h-.12a6.6,6.6,0,0,1-2.4,2,7.19,7.19,0,0,1-3,.54,5.35,5.35,0,0,1-3.74-1.23,4.5,4.5,0,0,1-1.35-3.5q0-4.86,7.78-5.1l2.72-.09v-1a4.08,4.08,0,0,0-.81-2.79,3.36,3.36,0,0,0-2.6-.9,10.55,10.55,0,0,0-4.54,1.23l-.75-1.86a11.73,11.73,0,0,1,2.6-1A11.44,11.44,0,0,1,1421,372a6.13,6.13,0,0,1,4.26,1.27,5.33,5.33,0,0,1,1.38,4.09v11Zm-5.49-1.72a4.92,4.92,0,0,0,3.56-1.24,4.59,4.59,0,0,0,1.3-3.49V380.4l-2.43.1a8.88,8.88,0,0,0-4.18.9,2.72,2.72,0,0,0-1.28,2.49,2.48,2.48,0,0,0,.79,2A3.33,3.33,0,0,0,1419.36,386.58Z"/>
    <path d="M1439.13,388.59a6.87,6.87,0,0,1-2.86-.58,5.41,5.41,0,0,1-2.18-1.78h-.17a21,21,0,0,1,.17,2.67v6.6h-2.43V372.24h2l.34,2.2h.11a5.67,5.67,0,0,1,2.19-1.9,6.48,6.48,0,0,1,2.85-.59,5.94,5.94,0,0,1,4.93,2.18,11.6,11.6,0,0,1,0,12.27A5.94,5.94,0,0,1,1439.13,388.59Zm-.35-14.58a4.31,4.31,0,0,0-3.56,1.37,7,7,0,0,0-1.13,4.33v.54c0,2.26.38,3.87,1.13,4.85a4.29,4.29,0,0,0,3.62,1.45,3.77,3.77,0,0,0,3.26-1.68,8,8,0,0,0,1.18-4.64,7.66,7.66,0,0,0-1.18-4.61A3.89,3.89,0,0,0,1438.78,374Z"/>
    <path d="M1457.52,388.59a6.91,6.91,0,0,1-2.87-.58,5.32,5.32,0,0,1-2.17-1.78h-.18a21.13,21.13,0,0,1,.18,2.67v6.6h-2.43V372.24h2l.34,2.2h.12a5.58,5.58,0,0,1,2.18-1.9,6.5,6.5,0,0,1,2.86-.59,6,6,0,0,1,4.93,2.18,11.66,11.66,0,0,1,0,12.27A6,6,0,0,1,1457.52,388.59Zm-.35-14.58a4.29,4.29,0,0,0-3.56,1.37,7,7,0,0,0-1.13,4.33v.54c0,2.26.37,3.87,1.13,4.85a4.27,4.27,0,0,0,3.61,1.45,3.76,3.76,0,0,0,3.26-1.68,8,8,0,0,0,1.18-4.64,7.66,7.66,0,0,0-1.18-4.61A3.87,3.87,0,0,0,1457.17,374Z"/>
    <path d="M1470.86,388.3h-2.43V365.5h2.43Z"/>
    <path d="M1475.81,367.89a1.62,1.62,0,0,1,.41-1.22,1.45,1.45,0,0,1,1-.39,1.4,1.4,0,0,1,1,.4,1.57,1.57,0,0,1,.42,1.21,1.64,1.64,0,0,1-.42,1.23,1.5,1.5,0,0,1-2,0A1.67,1.67,0,0,1,1475.81,367.89Zm2.64,20.41H1476V372.24h2.43Z"/>
    <path d="M1490,388.59a6.84,6.84,0,0,1-5.4-2.15,8.84,8.84,0,0,1-1.91-6.07,9.11,9.11,0,0,1,1.94-6.22,7,7,0,0,1,5.53-2.2,10.77,10.77,0,0,1,2.32.25,7.56,7.56,0,0,1,1.81.58l-.74,2.07a12.11,12.11,0,0,0-1.76-.54,8,8,0,0,0-1.69-.21q-4.89,0-4.89,6.24a7.37,7.37,0,0,0,1.2,4.54,4.13,4.13,0,0,0,3.53,1.59,10.78,10.78,0,0,0,4.12-.87v2.15A8.76,8.76,0,0,1,1490,388.59Z"/>
    <path d="M1507.76,388.3l-.48-2.29h-.12a6.6,6.6,0,0,1-2.4,2,7.19,7.19,0,0,1-3,.54,5.35,5.35,0,0,1-3.74-1.23,4.5,4.5,0,0,1-1.35-3.5q0-4.86,7.78-5.1l2.72-.09v-1a4.08,4.08,0,0,0-.81-2.79,3.36,3.36,0,0,0-2.6-.9,10.55,10.55,0,0,0-4.54,1.23l-.75-1.86a11.73,11.73,0,0,1,2.6-1,11.44,11.44,0,0,1,2.83-.36,6.13,6.13,0,0,1,4.26,1.27,5.33,5.33,0,0,1,1.38,4.09v11Zm-5.49-1.72a4.92,4.92,0,0,0,3.56-1.24,4.59,4.59,0,0,0,1.3-3.49V380.4l-2.43.1a8.88,8.88,0,0,0-4.18.9,2.72,2.72,0,0,0-1.28,2.49,2.48,2.48,0,0,0,.79,2A3.33,3.33,0,0,0,1502.27,386.58Z"/>
    <path d="M1519.76,386.58a8.32,8.32,0,0,0,1.24-.09,9.69,9.69,0,0,0,1-.2v1.86a4.39,4.39,0,0,1-1.17.31,8,8,0,0,1-1.38.13q-4.67,0-4.66-4.91v-9.55h-2.3V373l2.3-1,1-3.43h1.41v3.72h4.66v1.89h-4.66v9.45a3.25,3.25,0,0,0,.69,2.23A2.42,2.42,0,0,0,1519.76,386.58Z"/>
    <path d="M1525,367.89a1.58,1.58,0,0,1,.41-1.22,1.41,1.41,0,0,1,1-.39,1.44,1.44,0,0,1,1,.4,1.57,1.57,0,0,1,.42,1.21,1.64,1.64,0,0,1-.42,1.23,1.49,1.49,0,0,1-1,.4,1.42,1.42,0,0,1-1-.4A1.63,1.63,0,0,1,1525,367.89Zm2.63,20.41h-2.43V372.24h2.43Z"/>
    <path d="M1546.61,380.25a8.83,8.83,0,0,1-2,6.13,6.93,6.93,0,0,1-5.46,2.21,7.3,7.3,0,0,1-3.83-1,6.62,6.62,0,0,1-2.57-2.9,10.07,10.07,0,0,1-.91-4.43,8.83,8.83,0,0,1,2-6.11,7,7,0,0,1,5.45-2.19,6.79,6.79,0,0,1,5.35,2.24A8.78,8.78,0,0,1,1546.61,380.25Zm-12.23,0a7.6,7.6,0,0,0,1.23,4.69,4.88,4.88,0,0,0,7.24,0,7.55,7.55,0,0,0,1.24-4.7,7.43,7.43,0,0,0-1.24-4.65,5,5,0,0,0-7.26,0A7.55,7.55,0,0,0,1534.38,380.25Z"/>
    <path d="M1561.86,388.3V377.91a4.18,4.18,0,0,0-.9-2.93,3.63,3.63,0,0,0-2.79-1,4.61,4.61,0,0,0-3.69,1.37c-.79.91-1.18,2.4-1.18,4.49v8.43h-2.43V372.24h2l.4,2.2h.11a5,5,0,0,1,2.1-1.84,6.84,6.84,0,0,1,3-.65,6.13,6.13,0,0,1,4.37,1.4,6,6,0,0,1,1.46,4.47V388.3Z"/>
    <path d="M1579.64,383.92a4,4,0,0,1-1.67,3.45,7.84,7.84,0,0,1-4.69,1.22,10.28,10.28,0,0,1-5-1v-2.26a12.53,12.53,0,0,0,2.49.93,10.5,10.5,0,0,0,2.55.33,5.74,5.74,0,0,0,2.93-.61,2.08,2.08,0,0,0,.21-3.45,12.52,12.52,0,0,0-3.17-1.58,17.22,17.22,0,0,1-3.18-1.45,4.43,4.43,0,0,1-1.41-1.42,3.65,3.65,0,0,1-.46-1.89,3.6,3.6,0,0,1,1.6-3.1,7.47,7.47,0,0,1,4.38-1.13,12.85,12.85,0,0,1,5.06,1.05l-.86,2a11.68,11.68,0,0,0-4.38-1,5.08,5.08,0,0,0-2.61.54,1.69,1.69,0,0,0-.88,1.49,1.82,1.82,0,0,0,.33,1.1,3.26,3.26,0,0,0,1.07.86,22,22,0,0,0,2.81,1.19,10.4,10.4,0,0,1,3.86,2.1A3.67,3.67,0,0,1,1579.64,383.92Z"/>
  </g>
  <circle cx="1011.63" cy="224.5" r="5.5" style="fill: #4d4d4d"/>
  <circle cx="1011.63" cy="346.5" r="5.5" style="fill: #4d4d4d"/>
  <g>
    <path d="M104.88,293h3.29L116,314.5h-3.19l-2.25-6.45H102.1l-2.33,6.45h-3Zm4.84,12.7-3.32-9.51L103,305.68Z"/>
    <path d="M120.9,298.81v10.42a4.45,4.45,0,0,0,.37,2,2.58,2.58,0,0,0,2.55,1.41,3.63,3.63,0,0,0,3.66-2.47,10,10,0,0,0,.52-3.61v-7.71h2.64V314.5h-2.49l0-2.31a5.38,5.38,0,0,1-1.25,1.5,5.46,5.46,0,0,1-3.6,1.23c-2.19,0-3.68-.74-4.48-2.24a6.78,6.78,0,0,1-.65-3.2V298.81Z"/>
    <path d="M135.47,294.43h2.67v4.38h2.5V301h-2.5V311.2a1.11,1.11,0,0,0,.56,1.1,2.28,2.28,0,0,0,1,.16h.41a3.36,3.36,0,0,0,.51-.05v2.1a5.59,5.59,0,0,1-.94.19,8.78,8.78,0,0,1-1.06.06,2.88,2.88,0,0,1-2.51-.95,4.17,4.17,0,0,1-.66-2.45V301h-2.12v-2.15h2.12Z"/>
    <path d="M154.65,300.38q2.08,2,2.08,5.94a10.23,10.23,0,0,1-1.83,6.26,6.63,6.63,0,0,1-5.69,2.48,6.41,6.41,0,0,1-5.11-2.19,8.69,8.69,0,0,1-1.89-5.88,9.38,9.38,0,0,1,2-6.29,6.65,6.65,0,0,1,5.35-2.34A7,7,0,0,1,154.65,300.38ZM153,310.8a10,10,0,0,0,1-4.41,8,8,0,0,0-.69-3.57,3.91,3.91,0,0,0-3.8-2.16A3.72,3.72,0,0,0,146,302.5a8.56,8.56,0,0,0-1.09,4.45,7.44,7.44,0,0,0,1.09,4.17,3.81,3.81,0,0,0,3.45,1.67A3.59,3.59,0,0,0,153,310.8Z"/>
    <path d="M160,298.81h2.6V301a8.89,8.89,0,0,1,1.7-1.69,5.16,5.16,0,0,1,3-.89,4.69,4.69,0,0,1,3,.92,4.75,4.75,0,0,1,1.17,1.56,5.48,5.48,0,0,1,4.73-2.48q3.16,0,4.31,2.28a7.51,7.51,0,0,1,.61,3.32V314.5h-2.74V303.6a2.54,2.54,0,0,0-.78-2.15,3.1,3.1,0,0,0-1.91-.59,3.78,3.78,0,0,0-2.67,1,4.56,4.56,0,0,0-1.12,3.47v9.13h-2.68V304.26a5.23,5.23,0,0,0-.39-2.33,2.32,2.32,0,0,0-2.24-1.1,3.86,3.86,0,0,0-2.71,1.16c-.82.77-1.23,2.17-1.23,4.19v8.32H160Z"/>
    <path d="M193.36,305a1.44,1.44,0,0,0,1.22-.77,2.25,2.25,0,0,0,.18-1,2.14,2.14,0,0,0-1-2,5.08,5.08,0,0,0-2.74-.61,3.47,3.47,0,0,0-2.93,1.12,3.71,3.71,0,0,0-.63,1.84H185c.05-1.94.68-3.29,1.88-4.05a7.73,7.73,0,0,1,4.2-1.14,8.55,8.55,0,0,1,4.49,1.05,3.6,3.6,0,0,1,1.71,3.29v9a1.14,1.14,0,0,0,.17.65c.11.17.35.25.71.25l.39,0a4.11,4.11,0,0,0,.47-.07v1.95a7.13,7.13,0,0,1-.93.22,6.63,6.63,0,0,1-.88,0,2.18,2.18,0,0,1-2-1,3.69,3.69,0,0,1-.46-1.45,6.65,6.65,0,0,1-2.31,1.83,7.14,7.14,0,0,1-3.33.78,4.91,4.91,0,0,1-3.56-1.33,4.39,4.39,0,0,1-1.39-3.31,4.27,4.27,0,0,1,1.37-3.38,6.49,6.49,0,0,1,3.57-1.48Zm-5.55,7.12a3.11,3.11,0,0,0,2,.66,6,6,0,0,0,2.7-.65,3.61,3.61,0,0,0,2.19-3.49v-2.12a4.68,4.68,0,0,1-1.24.51,9.1,9.1,0,0,1-1.49.29l-1.59.21a6.28,6.28,0,0,0-2.16.6,2.34,2.34,0,0,0-1.22,2.19A2.19,2.19,0,0,0,187.81,312.13Z"/>
    <path d="M202.17,294.43h2.66v4.38h2.51V301h-2.51V311.2a1.11,1.11,0,0,0,.56,1.1,2.36,2.36,0,0,0,1,.16h.41a3.62,3.62,0,0,0,.51-.05v2.1a5.71,5.71,0,0,1-1,.19,8.67,8.67,0,0,1-1.06.06,2.85,2.85,0,0,1-2.5-.95,4.17,4.17,0,0,1-.66-2.45V301H200v-2.15h2.13Z"/>
    <path d="M210,293h2.68v3H210Zm0,5.9h2.68V314.5H210Z"/>
    <path d="M228,300.38a7.92,7.92,0,0,1,2.08,5.94,10.17,10.17,0,0,1-1.84,6.26,6.6,6.6,0,0,1-5.68,2.48,6.4,6.4,0,0,1-5.11-2.19,8.69,8.69,0,0,1-1.89-5.88,9.43,9.43,0,0,1,2-6.29,6.69,6.69,0,0,1,5.36-2.34A7,7,0,0,1,228,300.38Zm-1.64,10.42a10,10,0,0,0,1-4.41,8,8,0,0,0-.69-3.57,3.91,3.91,0,0,0-3.8-2.16,3.72,3.72,0,0,0-3.47,1.84,8.56,8.56,0,0,0-1.09,4.45,7.44,7.44,0,0,0,1.09,4.17,3.81,3.81,0,0,0,3.45,1.67A3.59,3.59,0,0,0,226.37,310.8Z"/>
    <path d="M233.33,298.81h2.5V301a7,7,0,0,1,2.36-2,6.29,6.29,0,0,1,2.77-.6c2.22,0,3.73.78,4.51,2.33a8.26,8.26,0,0,1,.64,3.65V314.5h-2.68v-9.89a5.36,5.36,0,0,0-.42-2.31,2.58,2.58,0,0,0-2.55-1.47,5.42,5.42,0,0,0-1.54.19,4,4,0,0,0-1.9,1.29,3.85,3.85,0,0,0-.86,1.61,10.85,10.85,0,0,0-.2,2.36v8.22h-2.63Z"/>
  </g>
  <g>
    <path d="M340.52,82.89H303.28A2.88,2.88,0,0,1,300.4,80V39.78a2.89,2.89,0,0,1,2.88-2.88h36.61l-.8,1.34H303.28a1.55,1.55,0,0,0-1.55,1.54V80a1.56,1.56,0,0,0,1.55,1.55h37.24Z" style="fill: #5f0000"/>
    <path d="M315.77,82.89H353A2.88,2.88,0,0,0,355.89,80V39.78A2.89,2.89,0,0,0,353,36.9H324.4l.8,1.34H353a1.55,1.55,0,0,1,1.55,1.54V80A1.56,1.56,0,0,1,353,81.56H315.77Z" style="fill: #5f0000"/>
    <path d="M324.43,62.5a.8.8,0,0,0-1.13,0,.79.79,0,0,0,0,1.13l4.89,5.18L323.27,74a.79.79,0,0,0,0,1.13.77.77,0,0,0,.55.22.83.83,0,0,0,.58-.25l5.41-5.73a.8.8,0,0,0,0-1.1Z" style="fill: #e00"/>
    <path d="M321.48,62.38a.8.8,0,0,0-1,.46l-4.34,11.31a.8.8,0,0,0,.46,1,.69.69,0,0,0,.28,0,.79.79,0,0,0,.75-.51l4.34-11.32a.79.79,0,0,0-.46-1Z" style="fill: #e00"/>
    <path d="M314.75,62.47a.8.8,0,0,0-1.13,0l-5.41,5.73a.8.8,0,0,0,0,1.1l5.41,5.73a.79.79,0,0,0,.58.25.77.77,0,0,0,.55-.22.79.79,0,0,0,0-1.13l-4.89-5.18,4.89-5.18a.79.79,0,0,0,0-1.13Z" style="fill: #e00"/>
    <path d="M319.85,48.47l.8-1.34,34.74-.06v1.34Z" style="fill: #5f0000"/>
    <path d="M316.31,48.49h-9.46c-1.77,0-3.2,0-4.19,0-1.86,0-1.86,0-2.07-.3l1.05-.82h0a.67.67,0,0,0-.42-.26c.34,0,4,.08,19.33.07h4.78l1.6,1.33H316.31Z" style="fill: #5f0000"/>
    <rect x="305.07" y="41.99" width="1.36" height="1.33" style="fill: #9b9b9b"/>
    <rect x="310.52" y="41.99" width="1.36" height="1.33" style="fill: #9b9b9b"/>
    <rect x="315.96" y="41.99" width="1.36" height="1.33" style="fill: #9b9b9b"/>
  </g>
  <g>
    <path d="M699.65,54.73h-1.34V37.94a1.56,1.56,0,0,0-1.55-1.55h-6l-.8-1.33h6.77a2.88,2.88,0,0,1,2.88,2.88Z" style="fill: #5f0000"/>
    <path d="M679.62,81.05H642.38a2.89,2.89,0,0,1-2.88-2.88V37.94a2.88,2.88,0,0,1,2.88-2.88H695l-.8,1.33H642.38a1.56,1.56,0,0,0-1.54,1.55V78.17a1.56,1.56,0,0,0,1.54,1.55h37.24Z" style="fill: #5f0000"/>
    <path d="M663.53,60.66a.8.8,0,1,0-1.16,1.1l4.89,5.18-4.89,5.19a.79.79,0,0,0,0,1.13.82.82,0,0,0,.55.22.83.83,0,0,0,.58-.25l5.41-5.73a.8.8,0,0,0,0-1.1Z" style="fill: #e00"/>
    <path d="M660.59,60.54a.8.8,0,0,0-1,.46l-4.34,11.31a.81.81,0,0,0,.46,1,.93.93,0,0,0,.29.05.79.79,0,0,0,.74-.52l4.35-11.31a.8.8,0,0,0-.46-1Z" style="fill: #e00"/>
    <path d="M653.86,60.63a.81.81,0,0,0-1.14,0l-5.41,5.73a.8.8,0,0,0,0,1.1l5.41,5.73a.79.79,0,0,0,.59.25.8.8,0,0,0,.58-1.35L649,66.94l4.9-5.18a.8.8,0,0,0,0-1.13Z" style="fill: #e00"/>
    <path d="M659,46.62l.8-1.33,38.75-.06v1.33Z" style="fill: #5f0000"/>
    <path d="M655.41,46.64H646l-4.19,0c-1.86,0-1.86,0-2.07-.3l1-.82h0a.65.65,0,0,0-.42-.26c.34,0,4,.08,19.33.07h4.78l1.6,1.33H655.41Z" style="fill: #5f0000"/>
    <rect x="644.17" y="40.14" width="1.36" height="1.33" style="fill: #9b9b9b"/>
    <rect x="649.62" y="40.14" width="1.36" height="1.33" style="fill: #9b9b9b"/>
    <rect x="655.06" y="40.14" width="1.36" height="1.33" style="fill: #9b9b9b"/>
    <path d="M690.28,63.74h0a4.51,4.51,0,1,0,4.51,4.52,4.52,4.52,0,0,0-4.51-4.52Zm0,10h0a5.51,5.51,0,1,1,5.52-5.51,5.53,5.53,0,0,1-5.52,5.51Zm-4.95,2.57a1,1,0,0,1,.46.11l2.67,1.27h0a1.12,1.12,0,0,1,.62.92l.1,2.09h0a.1.1,0,0,0,.09.08H692a.08.08,0,0,0,.08-.08l.23-2.41a1.09,1.09,0,0,1,.68-.91l2.48-1h0a1.09,1.09,0,0,1,1.15.22l1.67,1.56a.09.09,0,0,0,.12,0l1.85-1.85a.11.11,0,0,0,0-.06.14.14,0,0,0,0-.06l-1.78-1.67h0a1.09,1.09,0,0,1-.25-1.24l1.41-3.21h0a1.1,1.1,0,0,1,1-.65h2.5a.07.07,0,0,0,.08-.08V66.93a.08.08,0,0,0-.08-.09h-2.65a1.07,1.07,0,0,1-1-.65l-1.11-2.59h0a1.09,1.09,0,0,1,.23-1.21l2.14-2.14h0s0,0,0-.06a.09.09,0,0,0,0-.06l-1.86-1.86h0a.09.09,0,0,0-.12,0l-2.11,2h0a1.08,1.08,0,0,1-1.27.17l-2.48-1.36h0a1.11,1.11,0,0,1-.57-1V55.58a.09.09,0,0,0-.08-.08h-3.55a.09.09,0,0,0-.09.08v2.94a1.09,1.09,0,0,1-.72,1l-2.66,1a1.08,1.08,0,0,1-1.25-.37l-1.22-1.63a.09.09,0,0,0-.06,0,.06.06,0,0,0-.07,0l-1.92,1.93h0a.11.11,0,0,0,0,.06.09.09,0,0,0,0,.06l1.61,1.5a1.1,1.1,0,0,1,.24,1.26l-1.4,2.91a1.09,1.09,0,0,1-1,.61h-2a.09.09,0,0,0-.09.09v2.58a.09.09,0,0,0,0,.06l.06,0,2.09-.1a1.09,1.09,0,0,1,1.09.76l.89,2.76a1.11,1.11,0,0,1-.13.94l-1.18,1.76h0a.09.09,0,0,0,0,.1L682.75,78a.09.09,0,0,0,.12,0l1.78-1.45h0a1.14,1.14,0,0,1,.69-.23ZM692,81.82h-2.69a1.09,1.09,0,0,1-1.09-1l-.11-2.09a.08.08,0,0,0-.05-.07l-2.66-1.27h0a.1.1,0,0,0-.09,0l-1.78,1.45a1.09,1.09,0,0,1-1.52-.14l-1.87-2.21a1.1,1.1,0,0,1-.07-1.31l1.17-1.77h0a.06.06,0,0,0,0-.07l-.88-2.77s0-.07-.08-.06l-2.09.1h0a1.07,1.07,0,0,1-.8-.29,1.1,1.1,0,0,1-.34-.79V66.93a1.09,1.09,0,0,1,1.09-1.09h2a.08.08,0,0,0,.07,0l1.39-2.9a.08.08,0,0,0,0-.1L680,61.29a1.08,1.08,0,0,1-.34-.77,1.06,1.06,0,0,1,.33-.8l1.92-1.92a1.1,1.1,0,0,1,1.65.11l1.22,1.63a.07.07,0,0,0,.1,0l2.67-1h0a.08.08,0,0,0,.05-.08V55.58a1.09,1.09,0,0,1,1.09-1.09h3.55a1.09,1.09,0,0,1,1.09,1.09v2.54s0,.05,0,.07l2.47,1.36a.09.09,0,0,0,.1,0l2.11-2a1.07,1.07,0,0,1,1.52,0l1.86,1.85a1.14,1.14,0,0,1,.32.78,1.12,1.12,0,0,1-.32.77l-2.13,2.14a.08.08,0,0,0,0,.09l1.11,2.59a.08.08,0,0,0,.07,0h2.65a1.09,1.09,0,0,1,1.1,1.09v2.45a1.1,1.1,0,0,1-1.1,1.09h-2.5a.08.08,0,0,0-.08,0l-1.41,3.21h0a.1.1,0,0,0,0,.09l1.78,1.67a1.09,1.09,0,0,1,0,1.56l-1.85,1.85a1.08,1.08,0,0,1-1.51,0l-1.68-1.57a.09.09,0,0,0-.09,0l-2.47,1h0a.08.08,0,0,0-.05.07l-.23,2.41a1.09,1.09,0,0,1-1.09,1Z" style="fill: #9b9b9b"/>
  </g>
  <g>
    <path d="M1070.62,59.8h-1.34V43a1.56,1.56,0,0,0-1.54-1.55H1065l-.8-1.33h3.57a2.88,2.88,0,0,1,2.88,2.88Z" style="fill: #5f0000"/>
    <path d="M1050.59,86.12h-37.24a2.9,2.9,0,0,1-2.88-2.88V43a2.89,2.89,0,0,1,2.88-2.88h17.42l-.8,1.33h-16.62a1.56,1.56,0,0,0-1.54,1.55V83.24a1.56,1.56,0,0,0,1.54,1.55h37.24Z" style="fill: #5f0000"/>
    <polygon points="1065.12 51.7 1065.92 50.36 1069.47 50.3 1069.47 51.64 1065.12 51.7" style="fill: #5f0000"/>
    <path d="M1026.39,51.71h-9.47l-4.18,0c-1.87,0-1.87,0-2.08-.3l1.05-.82h0a.65.65,0,0,0-.42-.26c.35,0,4,.08,19.33.07h1.59l1.6,1.33h-7.42Z" style="fill: #5f0000"/>
    <rect x="1015.15" y="45.21" width="1.36" height="1.33" style="fill: #9b9b9b"/>
    <rect x="1020.59" y="45.21" width="1.36" height="1.33" style="fill: #9b9b9b"/>
    <rect x="1026.04" y="45.21" width="1.36" height="1.33" style="fill: #9b9b9b"/>
    <path d="M1061.26,68.81h0a4.5,4.5,0,1,0,4.51,4.51,4.49,4.49,0,0,0-4.51-4.51Zm0,10h0a5.52,5.52,0,1,1,5.51-5.52,5.51,5.51,0,0,1-5.51,5.52Zm-5,2.57a1.12,1.12,0,0,1,.47.11l2.66,1.27h0a1.1,1.1,0,0,1,.62.92l.11,2.09h0a.09.09,0,0,0,.08.08h2.69a.09.09,0,0,0,.09-.08l.23-2.41a1.07,1.07,0,0,1,.68-.91l2.47-1h0a1.11,1.11,0,0,1,1.15.22l1.68,1.56a.07.07,0,0,0,.11,0l1.85-1.85a.06.06,0,0,0,0-.06s0,0,0-.06l-1.78-1.66h0a1.12,1.12,0,0,1-.25-1.24l1.41-3.21h0a1.11,1.11,0,0,1,1-.65h2.49a.08.08,0,0,0,.09-.08V72a.09.09,0,0,0-.09-.09h-2.64a1.07,1.07,0,0,1-1-.65l-1.11-2.59h0a1.09,1.09,0,0,1,.23-1.21l2.14-2.14h0a.08.08,0,0,0,0-.12l-1.85-1.86h0a.08.08,0,0,0-.11,0l-2.11,2h0a1.09,1.09,0,0,1-1.27.16l-2.47-1.36h0a1.09,1.09,0,0,1-.57-1V60.65a.08.08,0,0,0-.08-.08h-3.55a.09.09,0,0,0-.08.08v2.94a1.12,1.12,0,0,1-.72,1l-2.67,1a1.06,1.06,0,0,1-1.24-.37l-1.23-1.63a.06.06,0,0,0-.06,0,0,0,0,0,0-.06,0l-1.93,1.93h0a.07.07,0,0,0,0,.06.09.09,0,0,0,0,.06l1.61,1.5a1.08,1.08,0,0,1,.24,1.26l-1.4,2.91a1.09,1.09,0,0,1-1,.61h-2a.08.08,0,0,0-.08.09v2.58a.14.14,0,0,0,0,.06.08.08,0,0,0,.07,0l2.08-.1a1.09,1.09,0,0,1,1.09.76l.89,2.76a1,1,0,0,1-.13.94l-1.17,1.76h0a.07.07,0,0,0,0,.1l1.86,2.22a.09.09,0,0,0,.12,0l1.79-1.45h0a1,1,0,0,1,.68-.24Zm6.64,5.48h-2.69a1.09,1.09,0,0,1-1.09-1l-.11-2.09a.08.08,0,0,0,0-.07l-2.66-1.27h0a.08.08,0,0,0-.08,0l-1.79,1.45a1.09,1.09,0,0,1-1.52-.14l-1.87-2.21a1.1,1.1,0,0,1-.07-1.31l1.17-1.76h0a.17.17,0,0,0,0-.07l-.89-2.77a.08.08,0,0,0-.08-.06l-2.08.1h0a1.09,1.09,0,0,1-1.15-1.09V72a1.09,1.09,0,0,1,1.09-1.09h2a.1.1,0,0,0,.08,0l1.38-2.9a.09.09,0,0,0,0-.1L1051,66.37a1.12,1.12,0,0,1-.34-.78,1.14,1.14,0,0,1,.33-.8l1.93-1.92a1.07,1.07,0,0,1,.85-.32,1.09,1.09,0,0,1,.79.43l1.22,1.64a.08.08,0,0,0,.1,0l2.67-1h0a.09.09,0,0,0,.06-.08V60.65a1.09,1.09,0,0,1,1.09-1.09h3.54a1.09,1.09,0,0,1,1.09,1.09v2.54a.08.08,0,0,0,0,.07l2.47,1.36a.09.09,0,0,0,.1,0l2.11-2a1.08,1.08,0,0,1,1.52,0l1.86,1.86a1.1,1.1,0,0,1,.32.77,1.12,1.12,0,0,1-.32.77l-2.13,2.14a.1.1,0,0,0,0,.09l1.11,2.59a.09.09,0,0,0,.08,0h2.65a1.09,1.09,0,0,1,1.09,1.09v2.45a1.09,1.09,0,0,1-1.09,1.09h-2.51a.08.08,0,0,0-.07,0l-1.41,3.21h0a.08.08,0,0,0,0,.09l1.77,1.67a1.09,1.09,0,0,1,.35.78,1.12,1.12,0,0,1-.32.79L1070.07,84a1.09,1.09,0,0,1-1.52,0l-1.67-1.57a.1.1,0,0,0-.09,0l-2.48,1h0a.13.13,0,0,0,0,.07l-.23,2.41a1.09,1.09,0,0,1-1.09,1Z" style="fill: #9b9b9b"/>
    <path d="M1063.24,46.21a4.55,4.55,0,0,1-4.54,4.54h-3.78a7.55,7.55,0,0,0-3.64-10.91,7.55,7.55,0,0,0-10.3,6.07,7.3,7.3,0,0,0-.06.94,7.47,7.47,0,0,0,1.1,3.9h-2.36a6,6,0,0,1-6-6v-.2a6,6,0,0,1,5.54-6,.37.37,0,0,0,.33-.3,9.56,9.56,0,0,1,9.45-7.59h.08a9.69,9.69,0,0,1,9.68,9.68V41a.36.36,0,0,0,.34.37,4.48,4.48,0,0,1,4.11,4.53ZM1054,50.85h0a6.77,6.77,0,0,1-10.94,0l0,0a6.75,6.75,0,0,1-1.32-4,6,6,0,0,1,.06-.85,6.8,6.8,0,0,1,13.55.85,6.71,6.71,0,0,1-1.32,4Zm5.58-10.16v-.28A10.43,10.43,0,0,0,1049.1,30H1049a10.29,10.29,0,0,0-10.11,7.91,6.76,6.76,0,0,0-6,6.68v.21a6.72,6.72,0,0,0,6.71,6.7h2.87a7.52,7.52,0,0,0,11.88,0h4.29a5.28,5.28,0,0,0,5.28-5.27v-.29a5.23,5.23,0,0,0-4.45-5.24ZM1051,43.92a.36.36,0,0,0-.52,0,.37.37,0,0,0,0,.52l2.28,2.42-2.28,2.41a.38.38,0,0,0,0,.53.35.35,0,0,0,.25.1.36.36,0,0,0,.27-.12l2.52-2.67a.36.36,0,0,0,0-.51Zm-1.37-.06a.38.38,0,0,0-.48.22l-2,5.27a.37.37,0,0,0,.21.48.34.34,0,0,0,.14,0,.35.35,0,0,0,.34-.24l2-5.27a.38.38,0,0,0-.22-.48Zm-3.13,0a.37.37,0,0,0-.53,0l-2.52,2.67a.38.38,0,0,0,0,.51l2.52,2.67a.36.36,0,0,0,.27.12.38.38,0,0,0,.26-.11.36.36,0,0,0,0-.52l-2.28-2.42,2.28-2.41a.37.37,0,0,0,0-.52Z"/>
    <g>
      <path d="M1034.15,66.82h-2.59a.4.4,0,0,1-.4-.4v-3.8a4.3,4.3,0,0,0-8.59,0v3.8a.4.4,0,0,1-.4.4h-2.59a.4.4,0,0,1-.4-.4v-3.8a7.69,7.69,0,0,1,15.37,0v3.8A.4.4,0,0,1,1034.15,66.82ZM1032,66h1.79v-3.4a6.89,6.89,0,0,0-13.77,0V66h1.79v-3.4a5.1,5.1,0,0,1,10.19,0Z" style="fill: #e00"/>
      <path d="M1035.23,82.5h-16.72a2,2,0,0,1-2-2V68a2,2,0,0,1,2-2h16.72a1.93,1.93,0,0,1,2,1.9V80.55A2,2,0,0,1,1035.23,82.5Zm-16.72-15.68a1.13,1.13,0,0,0-1.15,1.15V80.55a1.13,1.13,0,0,0,1.15,1.15h16.72a1.14,1.14,0,0,0,1.15-1.15V67.92a1.13,1.13,0,0,0-1.15-1.1Z" style="fill: #e00"/>
      <path d="M1028.46,77.85h-3.27a.4.4,0,0,1-.31-.15.39.39,0,0,1-.08-.34l.55-2.55a2.37,2.37,0,1,1,3.9-1.8,2.27,2.27,0,0,1-.94,1.82l.54,2.53a.39.39,0,0,1-.08.34A.4.4,0,0,1,1028.46,77.85Zm-2.78-.8H1028l-.5-2.32a.4.4,0,0,1,.19-.43,1.48,1.48,0,0,0,.79-1.29,1.59,1.59,0,0,0-3.17,0,1.6,1.6,0,0,0,.73,1.3.39.39,0,0,1,.17.42Z" style="fill: #e00"/>
    </g>
  </g>
</svg>
