<svg id="Layer_1" data-name="Layer 1" xmlns="http://www.w3.org/2000/svg" viewBox="0 0 249 100">
  <title>cloud_native_2</title>
  <g>
    <path d="M97.65,17a1.78,1.78,0,0,1-.12.67,1.65,1.65,0,0,1-.33.52,2,2,0,0,1-.48.37,2.46,2.46,0,0,1-.61.22v0a2.29,2.29,0,0,1,1.31.53,1.48,1.48,0,0,1,.44,1.12,2,2,0,0,1-.17.87,1.67,1.67,0,0,1-.52.69,2.4,2.4,0,0,1-.87.46,4.26,4.26,0,0,1-1.25.16A6.33,6.33,0,0,1,94,22.56a4.68,4.68,0,0,1-.94-.29V21a3.22,3.22,0,0,0,.46.21,4.5,4.5,0,0,0,.49.14,2.73,2.73,0,0,0,.48.1l.45,0a2.75,2.75,0,0,0,.7-.08,1.21,1.21,0,0,0,.44-.22.88.88,0,0,0,.24-.34,1.49,1.49,0,0,0,.07-.43.87.87,0,0,0-.09-.4.8.8,0,0,0-.3-.31,1.8,1.8,0,0,0-.53-.19,4.32,4.32,0,0,0-.8-.07h-.51V18.36h.5a2.69,2.69,0,0,0,.75-.08,1.21,1.21,0,0,0,.47-.22.76.76,0,0,0,.25-.32,1.06,1.06,0,0,0,.08-.4.75.75,0,0,0-.24-.59,1.07,1.07,0,0,0-.75-.22,2,2,0,0,0-.44,0,2,2,0,0,0-.37.12,2.37,2.37,0,0,0-.32.15l-.26.17L93,16a2.75,2.75,0,0,1,.44-.28,4.23,4.23,0,0,1,.53-.23,3.64,3.64,0,0,1,.61-.14,3.88,3.88,0,0,1,.7-.06,3.6,3.6,0,0,1,1,.12,2.09,2.09,0,0,1,.74.33,1.49,1.49,0,0,1,.47.53A1.53,1.53,0,0,1,97.65,17Z"/>
    <path d="M103.54,21.07h-.85v1.48h-1.47V21.07h-3V20l3-4.6h1.39V19.9h.85Zm-2.32-1.17V18.51a2.62,2.62,0,0,1,0-.27c0-.1,0-.21,0-.32s0-.21,0-.3,0-.19,0-.26,0-.13,0-.16h0l-.2.44-.25.46-1.2,1.8Z"/>
    <path d="M107.55,18a2.61,2.61,0,0,1-.1.77,1.57,1.57,0,0,1-.31.57,1.4,1.4,0,0,1-.53.35,2,2,0,0,1-.77.13,1.83,1.83,0,0,1-.73-.13,1.4,1.4,0,0,1-.53-.35,1.59,1.59,0,0,1-.32-.57,2.61,2.61,0,0,1-.1-.77,3,3,0,0,1,.09-.76,1.57,1.57,0,0,1,.31-.57,1.37,1.37,0,0,1,.52-.35,2.16,2.16,0,0,1,.76-.12,2.09,2.09,0,0,1,.74.12,1.4,1.4,0,0,1,.53.35,1.47,1.47,0,0,1,.33.57A2.58,2.58,0,0,1,107.55,18Zm-2.21,0a1.17,1.17,0,0,0,.12.6.48.48,0,0,0,.78,0,1.07,1.07,0,0,0,.13-.6c0-.53-.18-.79-.52-.79a.43.43,0,0,0-.39.2A1.16,1.16,0,0,0,105.34,18Zm5.42-1.71-3.91,6.22h-1.12l3.91-6.22Zm1.59,4.5a2.54,2.54,0,0,1-.1.76,1.37,1.37,0,0,1-.84.93,2.22,2.22,0,0,1-.77.12,2,2,0,0,1-.73-.12,1.39,1.39,0,0,1-.52-.36,1.44,1.44,0,0,1-.32-.57,2.8,2.8,0,0,1,0-1.52,1.3,1.3,0,0,1,.82-.92,2.16,2.16,0,0,1,.76-.12,2.09,2.09,0,0,1,.74.12,1.41,1.41,0,0,1,.86.92A2.53,2.53,0,0,1,112.35,20.83Zm-2.21,0a1.17,1.17,0,0,0,.12.6.48.48,0,0,0,.78,0,1.16,1.16,0,0,0,.13-.6c0-.53-.18-.79-.52-.79a.42.42,0,0,0-.39.19A1.17,1.17,0,0,0,110.14,20.84Z"/>
  </g>
  <g>
    <path d="M21.22,15.41H22.7v2.1a3.87,3.87,0,0,1-.69.17,4.88,4.88,0,0,1-.81.05,2,2,0,0,1-1.52-.58,2.31,2.31,0,0,1-.53-1.62,2.58,2.58,0,0,1,.26-1.17,1.82,1.82,0,0,1,.77-.76,2.49,2.49,0,0,1,1.19-.27,3.34,3.34,0,0,1,1.27.25l-.2.47a2.8,2.8,0,0,0-1.1-.24,1.56,1.56,0,0,0-1.2.46,1.77,1.77,0,0,0-.43,1.26,1.88,1.88,0,0,0,.41,1.3,1.59,1.59,0,0,0,1.2.44,3.86,3.86,0,0,0,.84-.1V15.89h-.94Z"/>
    <path d="M25,17.73a1.49,1.49,0,0,1-1.14-.43,1.74,1.74,0,0,1-.41-1.21,1.9,1.9,0,0,1,.38-1.23,1.4,1.4,0,0,1,2-.07,1.51,1.51,0,0,1,.36,1.06v.32H24a1.25,1.25,0,0,0,.27.83,1,1,0,0,0,.75.29,2.42,2.42,0,0,0,1-.23v.47a2.87,2.87,0,0,1-.5.16A3,3,0,0,1,25,17.73Zm-.14-2.9a.75.75,0,0,0-.59.24,1.1,1.1,0,0,0-.26.68h1.63a1,1,0,0,0-.2-.68A.73.73,0,0,0,24.89,14.83Z"/>
    <path d="M28.12,17.3a1.06,1.06,0,0,0,.24,0l.21,0v.4l-.23.06a1.63,1.63,0,0,1-.31,0c-.63,0-1-.33-1-1V14.87h-.45v-.25l.46-.21.21-.69h.31v.74h.93v.41h-.93v1.86a.61.61,0,0,0,.14.42A.47.47,0,0,0,28.12,17.3Z"/>
    <path d="M30.28,17.3a1.06,1.06,0,0,0,.24,0l.21,0v.4l-.23.06a1.55,1.55,0,0,1-.31,0c-.63,0-.94-.33-.94-1V14.87h-.46v-.25l.46-.21.21-.69h.32v.74h.93v.41h-.93v1.86a.6.6,0,0,0,.13.42A.47.47,0,0,0,30.28,17.3Z"/>
    <path d="M31.33,13.59a.34.34,0,0,1,.09-.26.33.33,0,0,1,.22-.08.35.35,0,0,1,.22.08.34.34,0,0,1,.09.26.32.32,0,0,1-.09.25.31.31,0,0,1-.22.09.29.29,0,0,1-.22-.09A.32.32,0,0,1,31.33,13.59Zm.57,4.09h-.53V14.46h.53Z"/>
    <path d="M35.11,17.68V15.62a.85.85,0,0,0-.17-.58.71.71,0,0,0-.55-.2.86.86,0,0,0-.72.28,1.4,1.4,0,0,0-.22.89v1.67h-.53V14.46h.42l.08.44h0a1,1,0,0,1,.42-.37,1.32,1.32,0,0,1,.6-.13,1,1,0,0,1,1.16,1.18v2.1Z"/>
    <path d="M38.78,17.65v-.4h0a1.13,1.13,0,0,1-1,.48,1.17,1.17,0,0,1-1-.43,1.94,1.94,0,0,1-.35-1.23,2,2,0,0,1,.35-1.22,1.28,1.28,0,0,1,2,0h0l.07-.43h.42v3.27a1.42,1.42,0,0,1-.35,1,1.52,1.52,0,0,1-1.09.35,2.77,2.77,0,0,1-1.16-.21v-.48a2.59,2.59,0,0,0,1.19.25.88.88,0,0,0,.65-.24.9.9,0,0,0,.24-.67Zm-.93-.35a.86.86,0,0,0,.71-.26,1.26,1.26,0,0,0,.22-.84v-.13a1.52,1.52,0,0,0-.22-.93.84.84,0,0,0-.72-.3.7.7,0,0,0-.62.32,1.6,1.6,0,0,0-.23.92,1.63,1.63,0,0,0,.22.91A.72.72,0,0,0,37.85,17.3Z"/>
    <path d="M43,17.3a1.06,1.06,0,0,0,.24,0l.21,0v.4l-.23.06a1.55,1.55,0,0,1-.31,0c-.63,0-.94-.33-.94-1V14.87h-.46v-.25l.47-.21.21-.69h.31v.74h.93v.41h-.93v1.86a.6.6,0,0,0,.13.42A.47.47,0,0,0,43,17.3Z"/>
    <path d="M46.23,17.68V15.62a.81.81,0,0,0-.17-.58.71.71,0,0,0-.55-.2.85.85,0,0,0-.71.28,1.4,1.4,0,0,0-.23.89v1.67H44V13.12h.53v1.33a2.81,2.81,0,0,1,0,.45h0a1,1,0,0,1,.4-.36,1.32,1.32,0,0,1,.6-.13,1.22,1.22,0,0,1,.88.28,1.15,1.15,0,0,1,.3.89v2.1Z"/>
    <path d="M49.12,17.73A1.47,1.47,0,0,1,48,17.3a1.7,1.7,0,0,1-.42-1.21A1.85,1.85,0,0,1,48,14.86a1.39,1.39,0,0,1,2-.07,1.51,1.51,0,0,1,.36,1.06v.32h-2.2a1.2,1.2,0,0,0,.28.83,1,1,0,0,0,.74.29,2.46,2.46,0,0,0,.49-.05,2.68,2.68,0,0,0,.55-.18v.47a2.35,2.35,0,0,1-1.06.2ZM49,14.83a.78.78,0,0,0-.6.24,1.16,1.16,0,0,0-.26.68h1.64a1,1,0,0,0-.21-.68A.7.7,0,0,0,49,14.83Z"/>
    <path d="M54.18,14.87h-.81v2.81h-.53V14.87h-.56v-.25l.56-.18v-.18a1.3,1.3,0,0,1,.25-.88,1,1,0,0,1,.79-.3,2,2,0,0,1,.63.11l-.14.42a1.54,1.54,0,0,0-.48-.09.49.49,0,0,0-.4.17,1,1,0,0,0-.12.56v.21h.81Z"/>
    <path d="M56.26,14.4a1.48,1.48,0,0,1,.38,0l-.07.48a1.34,1.34,0,0,0-.35,0,.89.89,0,0,0-.47.14,1.07,1.07,0,0,0-.34.39,1.26,1.26,0,0,0-.12.55v1.72h-.53V14.46h.43l.06.59h0a1.3,1.3,0,0,1,.43-.49A1.07,1.07,0,0,1,56.26,14.4Z"/>
    <path d="M59.17,17.68l-.11-.46h0a1.35,1.35,0,0,1-.48.41,1.51,1.51,0,0,1-.6.1,1.09,1.09,0,0,1-.75-.24,1,1,0,0,1-.26-.71c0-.65.51-1,1.54-1l.55,0v-.19a.79.79,0,0,0-.16-.54.66.66,0,0,0-.51-.18,1.51,1.51,0,0,0-.48.08,2.75,2.75,0,0,0-.43.17l-.16-.4a2.77,2.77,0,0,1,.53-.2,2.22,2.22,0,0,1,.57-.07,1.27,1.27,0,0,1,.87.25,1.07,1.07,0,0,1,.28.82v2.2Zm-1.09-.37a1,1,0,0,0,.7-.24.91.91,0,0,0,.25-.68V16.1l-.48,0a1.85,1.85,0,0,0-.8.18.54.54,0,0,0-.26.49.45.45,0,0,0,.16.38A.62.62,0,0,0,58.08,17.31Z"/>
    <path d="M64.64,17.68V15.6c0-.5-.22-.76-.65-.76a.81.81,0,0,0-.66.26,1.27,1.27,0,0,0-.21.8v1.78h-.53V15.6a.86.86,0,0,0-.16-.57.63.63,0,0,0-.5-.19.74.74,0,0,0-.65.28,1.45,1.45,0,0,0-.21.89v1.67h-.52V14.46H61l.08.44h0a.93.93,0,0,1,.39-.37A1.13,1.13,0,0,1,62,14.4a1,1,0,0,1,1,.54h0a1.1,1.1,0,0,1,.43-.4,1.3,1.3,0,0,1,.6-.14,1.07,1.07,0,0,1,.82.28,1.27,1.27,0,0,1,.27.9v2.1Z"/>
    <path d="M67.53,17.73a1.48,1.48,0,0,1-1.14-.43A1.74,1.74,0,0,1,66,16.09a1.9,1.9,0,0,1,.38-1.23,1.4,1.4,0,0,1,2-.07,1.51,1.51,0,0,1,.36,1.06v.32H66.52a1.2,1.2,0,0,0,.28.83,1,1,0,0,0,.75.29,2.63,2.63,0,0,0,.49-.05,2.82,2.82,0,0,0,.54-.18v.47a3.17,3.17,0,0,1-.5.16A3,3,0,0,1,67.53,17.73Zm-.14-2.9a.78.78,0,0,0-.6.24,1.16,1.16,0,0,0-.25.68h1.63a1,1,0,0,0-.21-.68A.69.69,0,0,0,67.39,14.83Z"/>
    <path d="M72.11,17.68l-.55-1.81c0-.16-.13-.44-.22-.86h0c-.08.38-.15.67-.21.86l-.58,1.81h-.6L69,14.46h.54c.21.79.36,1.39.47,1.8a7.31,7.31,0,0,1,.19.88h0l0-.18a6.65,6.65,0,0,1,.18-.69l.57-1.81h.57l.56,1.81.06.22.06.23.06.22,0,.19h0c0-.15.09-.47.21-.95l.45-1.72h.54l-.89,3.22Z"/>
    <path d="M77,16.06a1.78,1.78,0,0,1-.39,1.23,1.41,1.41,0,0,1-1.11.44,1.43,1.43,0,0,1-.77-.2A1.34,1.34,0,0,1,74.2,17a2.08,2.08,0,0,1-.18-.89,1.77,1.77,0,0,1,.39-1.22,1.41,1.41,0,0,1,1.1-.44,1.35,1.35,0,0,1,1.08.45A1.73,1.73,0,0,1,77,16.06Zm-2.43,0a1.49,1.49,0,0,0,.24.92.94.94,0,0,0,1.41,0,1.49,1.49,0,0,0,.24-.92,1.45,1.45,0,0,0-.24-.91.87.87,0,0,0-.71-.31C74.88,14.84,74.56,15.25,74.56,16.06Z"/>
    <path d="M79.33,14.4a1.48,1.48,0,0,1,.38,0l-.07.48a1.39,1.39,0,0,0-.35,0,.89.89,0,0,0-.47.14,1,1,0,0,0-.34.39,1.26,1.26,0,0,0-.12.55v1.72h-.53V14.46h.43l.06.59h0a1.41,1.41,0,0,1,.44-.49A1.07,1.07,0,0,1,79.33,14.4Z"/>
    <path d="M80.83,16l.18-.23.2-.24,1-1.09h.62l-1.31,1.37L83,17.68h-.64l-1.11-1.5-.37.32v1.18h-.52V13.12h.52V15.5l0,.52Z"/>
    <path d="M36.31,24.88l-.1-.46h0a1.35,1.35,0,0,1-.48.41,1.51,1.51,0,0,1-.6.1,1.08,1.08,0,0,1-.74-.24.92.92,0,0,1-.27-.71c0-.65.51-1,1.54-1l.55,0v-.19a.79.79,0,0,0-.16-.54.66.66,0,0,0-.51-.18,1.51,1.51,0,0,0-.48.08,3.2,3.2,0,0,0-.43.17l-.16-.4a3.05,3.05,0,0,1,.53-.2,2.22,2.22,0,0,1,.57-.07,1.27,1.27,0,0,1,.87.25,1.07,1.07,0,0,1,.28.82v2.2Zm-1.09-.37a1,1,0,0,0,.7-.24.88.88,0,0,0,.25-.68V23.3l-.47,0a1.86,1.86,0,0,0-.81.18.53.53,0,0,0-.25.49.5.5,0,0,0,.15.39A.69.69,0,0,0,35.22,24.51Z"/>
    <path d="M39.19,21.6a1.48,1.48,0,0,1,.38,0l-.07.48a1.39,1.39,0,0,0-.35,0,.89.89,0,0,0-.47.14,1.07,1.07,0,0,0-.34.39,1.26,1.26,0,0,0-.12.55v1.72h-.53V21.66h.43l.06.59h0a1.38,1.38,0,0,1,.43-.49A1.07,1.07,0,0,1,39.19,21.6Z"/>
    <path d="M41.4,24.93a1.39,1.39,0,0,1-1.08-.42,1.75,1.75,0,0,1-.39-1.22A1.82,1.82,0,0,1,40.32,22a1.42,1.42,0,0,1,1.12-.44,2.4,2.4,0,0,1,.46,0,1.55,1.55,0,0,1,.38.12l-.16.44a2.05,2.05,0,0,0-.7-.15.81.81,0,0,0-.71.31,1.45,1.45,0,0,0-.24.91,1.41,1.41,0,0,0,.24.89.78.78,0,0,0,.68.31,1.94,1.94,0,0,0,.84-.19v.47A1.76,1.76,0,0,1,41.4,24.93Z"/>
    <path d="M45.18,24.88V22.82a.85.85,0,0,0-.17-.58.71.71,0,0,0-.55-.2.86.86,0,0,0-.72.28,1.4,1.4,0,0,0-.22.89v1.67H43V20.32h.53v1.33a2.81,2.81,0,0,1,0,.45h0a1,1,0,0,1,.41-.36,1.28,1.28,0,0,1,.59-.13,1.25,1.25,0,0,1,.89.28,1.19,1.19,0,0,1,.29.89v2.1Z"/>
    <path d="M46.66,20.79a.34.34,0,0,1,.09-.26.32.32,0,0,1,.22-.07.31.31,0,0,1,.21.07.35.35,0,0,1,.1.26.32.32,0,0,1-.1.25.29.29,0,0,1-.21.09.29.29,0,0,1-.22-.09A.32.32,0,0,1,46.66,20.79Zm.56,4.09H46.7V21.66h.52Z"/>
    <path d="M49.32,24.5a1.06,1.06,0,0,0,.24,0l.21,0v.4l-.23.06a1.63,1.63,0,0,1-.31,0c-.63,0-.94-.33-.94-1V22.07h-.46v-.25l.46-.21.21-.69h.32v.74h.92v.41h-.92v1.86a.6.6,0,0,0,.13.42A.47.47,0,0,0,49.32,24.5Z"/>
    <path d="M51.78,24.93a1.49,1.49,0,0,1-1.14-.43,1.72,1.72,0,0,1-.41-1.21,1.85,1.85,0,0,1,.39-1.23,1.39,1.39,0,0,1,2-.07A1.51,1.51,0,0,1,53,23.05v.32h-2.2a1.25,1.25,0,0,0,.27.83,1,1,0,0,0,.75.29,2.54,2.54,0,0,0,.49,0,2.61,2.61,0,0,0,.54-.18v.47a2.87,2.87,0,0,1-.5.16A3,3,0,0,1,51.78,24.93ZM51.65,22a.77.77,0,0,0-.6.24,1.1,1.1,0,0,0-.26.68h1.64a1.08,1.08,0,0,0-.21-.68A.72.72,0,0,0,51.65,22Z"/>
    <path d="M55.08,24.93A1.4,1.4,0,0,1,54,24.51a1.75,1.75,0,0,1-.38-1.22A1.82,1.82,0,0,1,54,22a1.42,1.42,0,0,1,1.11-.44,2.31,2.31,0,0,1,.46,0,1.31,1.31,0,0,1,.38.12l-.16.44a2.05,2.05,0,0,0-.69-.15.83.83,0,0,0-.72.31,1.52,1.52,0,0,0-.23.91,1.48,1.48,0,0,0,.23.89.79.79,0,0,0,.69.31,1.9,1.9,0,0,0,.83-.19v.47A1.73,1.73,0,0,1,55.08,24.93Z"/>
    <path d="M57.75,24.5a1.06,1.06,0,0,0,.24,0l.21,0v.4L58,24.9a1.63,1.63,0,0,1-.31,0c-.63,0-.95-.33-.95-1V22.07h-.45v-.25l.46-.21.21-.69h.31v.74h.93v.41h-.93v1.86a.61.61,0,0,0,.14.42A.47.47,0,0,0,57.75,24.5Z"/>
    <path d="M59.34,21.66v2.07a.82.82,0,0,0,.17.58.74.74,0,0,0,.54.19.86.86,0,0,0,.72-.28,1.4,1.4,0,0,0,.23-.89V21.66h.53v3.22h-.44L61,24.45h0a.91.91,0,0,1-.41.36,1.41,1.41,0,0,1-.61.12,1.24,1.24,0,0,1-.87-.27,1.18,1.18,0,0,1-.3-.89V21.66Z"/>
    <path d="M64.05,21.6a1.48,1.48,0,0,1,.38,0l-.07.48a1.45,1.45,0,0,0-.35,0,.86.86,0,0,0-.47.14,1,1,0,0,0-.34.39,1.27,1.27,0,0,0-.13.55v1.72h-.52V21.66H63l.06.59h0a1.51,1.51,0,0,1,.44-.49A1.07,1.07,0,0,1,64.05,21.6Z"/>
    <path d="M66.34,24.93a1.48,1.48,0,0,1-1.14-.43,1.72,1.72,0,0,1-.41-1.21,1.9,1.9,0,0,1,.38-1.23,1.4,1.4,0,0,1,2-.07,1.51,1.51,0,0,1,.36,1.06v.32H65.33a1.25,1.25,0,0,0,.28.83,1,1,0,0,0,.75.29,2.63,2.63,0,0,0,.49,0,2.82,2.82,0,0,0,.54-.18v.47a3.17,3.17,0,0,1-.5.16A3,3,0,0,1,66.34,24.93ZM66.2,22a.75.75,0,0,0-.59.24,1.1,1.1,0,0,0-.26.68H67a1,1,0,0,0-.2-.68A.73.73,0,0,0,66.2,22Z"/>
    <path d="M71.41,21.6a1.48,1.48,0,0,1,.38,0l-.07.48a1.37,1.37,0,0,0-.34,0,.92.92,0,0,0-.48.14,1.07,1.07,0,0,0-.34.39,1.26,1.26,0,0,0-.12.55v1.72h-.53V21.66h.43l.06.59h0a1.38,1.38,0,0,1,.43-.49A1.07,1.07,0,0,1,71.41,21.6Z"/>
    <path d="M72.35,20.79a.34.34,0,0,1,.09-.26.32.32,0,0,1,.22-.07.31.31,0,0,1,.21.07.34.34,0,0,1,.09.26.32.32,0,0,1-.09.25.29.29,0,0,1-.21.09.29.29,0,0,1-.22-.09A.32.32,0,0,1,72.35,20.79Zm.57,4.09h-.53V21.66h.53Z"/>
    <path d="M76.08,24.85l0-.4h0a1.13,1.13,0,0,1-1,.48,1.16,1.16,0,0,1-1-.43,1.88,1.88,0,0,1-.35-1.23,1.9,1.9,0,0,1,.35-1.22,1.27,1.27,0,0,1,2,0h0l.07-.43h.41v3.27a1.38,1.38,0,0,1-.35,1,1.48,1.48,0,0,1-1.08.35A2.77,2.77,0,0,1,74,26.11v-.48a2.59,2.59,0,0,0,1.19.25.86.86,0,0,0,.64-.24.9.9,0,0,0,.24-.67Zm-.92-.35a.87.87,0,0,0,.71-.26,1.32,1.32,0,0,0,.22-.84v-.13a1.59,1.59,0,0,0-.22-.93.84.84,0,0,0-.72-.3.73.73,0,0,0-.63.32,1.69,1.69,0,0,0-.22.92,1.55,1.55,0,0,0,.22.91A.72.72,0,0,0,75.16,24.5Z"/>
    <path d="M79.82,24.88V22.82a.81.81,0,0,0-.18-.58.67.67,0,0,0-.54-.2.86.86,0,0,0-.72.28,1.4,1.4,0,0,0-.23.89v1.67h-.52V20.32h.52v1.33a2.81,2.81,0,0,1,0,.45h0a1,1,0,0,1,.41-.36,1.25,1.25,0,0,1,.59-.13,1.21,1.21,0,0,1,.88.28,1.15,1.15,0,0,1,.3.89v2.1Z"/>
    <path d="M82.41,24.5a1.06,1.06,0,0,0,.24,0l.21,0v.4l-.23.06a1.55,1.55,0,0,1-.31,0c-.63,0-.94-.33-.94-1V22.07h-.46v-.25l.46-.21.21-.69h.32v.74h.93v.41h-.93v1.86a.6.6,0,0,0,.13.42A.47.47,0,0,0,82.41,24.5Z"/>
  </g>
  <g>
    <path d="M97.65,36.8a1.73,1.73,0,0,1-.12.66,1.65,1.65,0,0,1-.33.52,1.76,1.76,0,0,1-.48.37,2.48,2.48,0,0,1-.61.23v0a2.28,2.28,0,0,1,1.31.52,1.51,1.51,0,0,1,.44,1.13,2,2,0,0,1-.17.86,1.76,1.76,0,0,1-.52.7,2.55,2.55,0,0,1-.87.45,4.25,4.25,0,0,1-1.25.17,6.31,6.31,0,0,1-1.09-.1,4.11,4.11,0,0,1-.94-.29V40.77l.46.2a4.58,4.58,0,0,0,.49.15l.48.09.45,0a2.75,2.75,0,0,0,.7-.08,1.07,1.07,0,0,0,.44-.22.81.81,0,0,0,.24-.34,1.43,1.43,0,0,0,.07-.43.87.87,0,0,0-.09-.4.72.72,0,0,0-.3-.3,1.55,1.55,0,0,0-.53-.19,3.6,3.6,0,0,0-.8-.07h-.51V38.15h.5a3.13,3.13,0,0,0,.75-.08,1.58,1.58,0,0,0,.47-.22.73.73,0,0,0,.25-.33,1,1,0,0,0,.08-.39.77.77,0,0,0-.24-.6,1.12,1.12,0,0,0-.75-.21,2.06,2.06,0,0,0-.44,0,2,2,0,0,0-.37.12l-.32.16a1.67,1.67,0,0,0-.26.17l-.76-1a3.7,3.7,0,0,1,.44-.28A4.2,4.2,0,0,1,94,35.3a5,5,0,0,1,.61-.15,3.91,3.91,0,0,1,.7,0,3.62,3.62,0,0,1,1,.11,2.52,2.52,0,0,1,.74.33,1.61,1.61,0,0,1,.47.54A1.53,1.53,0,0,1,97.65,36.8Z"/>
    <path d="M102.24,42.34h-1.51V37.9c0-.12,0-.24,0-.37s0-.26,0-.39,0-.25,0-.35l-.09.08-.13.13-.15.15-.15.13-.82.66L98.7,37,101,35.2h1.24Z"/>
    <path d="M107.55,37.82a2.59,2.59,0,0,1-.1.76,1.42,1.42,0,0,1-.31.57,1.32,1.32,0,0,1-.53.36,2.22,2.22,0,0,1-.77.12,2,2,0,0,1-.73-.12,1.32,1.32,0,0,1-.53-.36,1.44,1.44,0,0,1-.32-.57,2.59,2.59,0,0,1-.1-.76,3,3,0,0,1,.09-.77,1.45,1.45,0,0,1,.31-.56,1.26,1.26,0,0,1,.52-.35,2.15,2.15,0,0,1,.76-.13,2.08,2.08,0,0,1,.74.13,1.3,1.3,0,0,1,.53.35,1.37,1.37,0,0,1,.33.56A2.6,2.6,0,0,1,107.55,37.82Zm-2.21,0a1.16,1.16,0,0,0,.12.59.41.41,0,0,0,.39.2.42.42,0,0,0,.39-.19,1.07,1.07,0,0,0,.13-.6c0-.53-.18-.79-.52-.79a.42.42,0,0,0-.39.19A1.17,1.17,0,0,0,105.34,37.83Zm5.42-1.71-3.91,6.22h-1.12l3.91-6.22Zm1.59,4.49a2.61,2.61,0,0,1-.1.77,1.57,1.57,0,0,1-.31.57,1.4,1.4,0,0,1-.53.35,2.21,2.21,0,0,1-.77.13,2,2,0,0,1-.73-.13,1.37,1.37,0,0,1-.52-.35,1.59,1.59,0,0,1-.32-.57,2.84,2.84,0,0,1,0-1.53,1.32,1.32,0,0,1,.3-.56,1.39,1.39,0,0,1,.52-.36,2.16,2.16,0,0,1,.76-.12,2.09,2.09,0,0,1,.74.12,1.42,1.42,0,0,1,.53.36,1.37,1.37,0,0,1,.33.56A2.58,2.58,0,0,1,112.35,40.61Zm-2.21,0a1.17,1.17,0,0,0,.12.6.48.48,0,0,0,.78,0,1.16,1.16,0,0,0,.13-.6c0-.52-.18-.79-.52-.79a.43.43,0,0,0-.39.2A1.16,1.16,0,0,0,110.14,40.62Z"/>
  </g>
  <g>
    <path d="M20.27,41.59V37.31h.54v3.8h1.87v.48Z"/>
    <path d="M25.32,41.59l-.1-.45h0a1.35,1.35,0,0,1-.48.41,1.51,1.51,0,0,1-.6.1,1,1,0,0,1-.75-.25.9.9,0,0,1-.27-.7c0-.65.52-1,1.55-1l.54,0v-.2a.77.77,0,0,0-.16-.54.66.66,0,0,0-.5-.17,1.62,1.62,0,0,0-.49.08,2.63,2.63,0,0,0-.42.17l-.16-.4a2.4,2.4,0,0,1,1.1-.27,1.26,1.26,0,0,1,.86.25,1.06,1.06,0,0,1,.29.82v2.19Zm-1.08-.36a1,1,0,0,0,.69-.24.9.9,0,0,0,.26-.68V40l-.48,0a1.73,1.73,0,0,0-.81.18.52.52,0,0,0-.25.49.48.48,0,0,0,.15.38A.66.66,0,0,0,24.24,41.23Z"/>
    <path d="M28,41.65a1.4,1.4,0,0,1-1.08-.42,2.13,2.13,0,0,1,0-2.47A1.42,1.42,0,0,1,28,38.32a1.75,1.75,0,0,1,.46,0,1.42,1.42,0,0,1,.38.12l-.16.44a2.05,2.05,0,0,0-.69-.15.85.85,0,0,0-.72.3,1.56,1.56,0,0,0-.23.92,1.5,1.5,0,0,0,.23.89.8.8,0,0,0,.69.31,1.9,1.9,0,0,0,.83-.19v.47A1.73,1.73,0,0,1,28,41.65Z"/>
    <path d="M30.1,39.94l.18-.23.21-.25,1-1.08h.61l-1.3,1.37,1.39,1.84h-.63l-1.12-1.5-.37.32v1.18h-.52V37h.52v2.38l0,.52Z"/>
    <path d="M37.14,40a1.74,1.74,0,0,1-.4,1.23,1.38,1.38,0,0,1-1.1.44,1.41,1.41,0,0,1-.77-.2,1.33,1.33,0,0,1-.52-.58,2.08,2.08,0,0,1-.18-.89,1.77,1.77,0,0,1,.39-1.22,1.41,1.41,0,0,1,1.1-.44,1.37,1.37,0,0,1,1.08.45A1.72,1.72,0,0,1,37.14,40Zm-2.43,0a1.51,1.51,0,0,0,.24.92.94.94,0,0,0,1.41,0A1.51,1.51,0,0,0,36.6,40a1.45,1.45,0,0,0-.24-.91.85.85,0,0,0-.71-.31C35,38.76,34.71,39.17,34.71,40Z"/>
    <path d="M39.46,38.79h-.81v2.8h-.53v-2.8h-.56v-.25l.56-.18v-.18a1.3,1.3,0,0,1,.26-.88,1,1,0,0,1,.79-.3,2,2,0,0,1,.62.11l-.14.42a1.54,1.54,0,0,0-.48-.09.45.45,0,0,0-.39.17,1,1,0,0,0-.13.56v.21h.81Z"/>
    <path d="M43.59,41.59l-.11-.45h0a1.35,1.35,0,0,1-.48.41,1.51,1.51,0,0,1-.6.1,1,1,0,0,1-.74-.25.9.9,0,0,1-.27-.7c0-.65.51-1,1.54-1l.55,0v-.2a.83.83,0,0,0-.16-.54.7.7,0,0,0-.51-.17,1.51,1.51,0,0,0-.48.08,2.75,2.75,0,0,0-.43.17l-.16-.4a2.4,2.4,0,0,1,1.1-.27,1.27,1.27,0,0,1,.87.25,1.06,1.06,0,0,1,.28.82v2.19Zm-1.09-.36a1,1,0,0,0,.7-.24.89.89,0,0,0,.25-.68V40L43,40a1.72,1.72,0,0,0-.8.18.52.52,0,0,0-.26.49.45.45,0,0,0,.16.38A.62.62,0,0,0,42.5,41.23Z"/>
    <path d="M46.11,41.65a1.18,1.18,0,0,1-1-.43A1.94,1.94,0,0,1,44.79,40a2,2,0,0,1,.34-1.23,1.2,1.2,0,0,1,1-.44,1.18,1.18,0,0,1,1,.47h0a1.62,1.62,0,0,1,0-.23c0-.12,0-.2,0-.24V37h.53v4.55h-.43l-.08-.43h0A1.14,1.14,0,0,1,46.11,41.65Zm.08-.43a.84.84,0,0,0,.7-.27,1.31,1.31,0,0,0,.22-.86V40a1.58,1.58,0,0,0-.22-1,.83.83,0,0,0-.7-.28.69.69,0,0,0-.63.32,1.6,1.6,0,0,0-.23.92,1.63,1.63,0,0,0,.22.91A.76.76,0,0,0,46.19,41.22Z"/>
    <path d="M50,41.65a1.49,1.49,0,0,1-1.14-.43A1.74,1.74,0,0,1,48.48,40a1.86,1.86,0,0,1,.38-1.23,1.4,1.4,0,0,1,2-.07,1.5,1.5,0,0,1,.36,1.06v.32H49a1.27,1.27,0,0,0,.28.83,1,1,0,0,0,.75.29,2.63,2.63,0,0,0,.49-.05,2.82,2.82,0,0,0,.54-.18v.47a2.87,2.87,0,0,1-.5.16A3,3,0,0,1,50,41.65Zm-.14-2.9a.75.75,0,0,0-.59.24,1.1,1.1,0,0,0-.26.68h1.63a1.07,1.07,0,0,0-.2-.69A.75.75,0,0,0,49.89,38.75Z"/>
    <path d="M53.17,41.65a1.12,1.12,0,0,1-1-.44A1.93,1.93,0,0,1,51.86,40a2,2,0,0,1,.35-1.23,1.2,1.2,0,0,1,1-.44,1.14,1.14,0,0,1,1,.5h0l.08-.44h.42V43h-.53V41.66a3.25,3.25,0,0,1,0-.5h0A1.14,1.14,0,0,1,53.17,41.65Zm.1-.43A.85.85,0,0,0,54,41a1.35,1.35,0,0,0,.23-.85V40A1.6,1.6,0,0,0,54,39a.85.85,0,0,0-.71-.28.7.7,0,0,0-.63.32,1.63,1.63,0,0,0-.22.92,1.55,1.55,0,0,0,.22.91A.74.74,0,0,0,53.27,41.22Z"/>
    <path d="M56.23,38.38v2.07a.82.82,0,0,0,.18.58.7.7,0,0,0,.54.19.89.89,0,0,0,.72-.28,1.4,1.4,0,0,0,.22-.89V38.38h.53v3.21H58l-.08-.42h0a1,1,0,0,1-.41.36,1.48,1.48,0,0,1-.61.12,1.27,1.27,0,0,1-.88-.27,1.23,1.23,0,0,1-.29-.9v-2.1Z"/>
    <path d="M61.43,41.59l-.1-.45h0a1.35,1.35,0,0,1-.48.41,1.51,1.51,0,0,1-.6.1,1,1,0,0,1-.74-.25.9.9,0,0,1-.27-.7c0-.65.51-1,1.54-1l.55,0v-.2a.83.83,0,0,0-.16-.54.7.7,0,0,0-.51-.17,1.51,1.51,0,0,0-.48.08,3.2,3.2,0,0,0-.43.17l-.16-.4a2.4,2.4,0,0,1,1.1-.27,1.27,1.27,0,0,1,.87.25,1.06,1.06,0,0,1,.28.82v2.19Zm-1.09-.36A1,1,0,0,0,61,41a.89.89,0,0,0,.25-.68V40l-.47,0a1.73,1.73,0,0,0-.81.18.52.52,0,0,0-.25.49.48.48,0,0,0,.15.38A.63.63,0,0,0,60.34,41.23Z"/>
    <path d="M63.88,41.22a1.06,1.06,0,0,0,.24,0l.21,0v.4l-.22.06a1.73,1.73,0,0,1-.32,0c-.63,0-.94-.33-.94-1V38.79H62.4v-.25l.46-.21.21-.69h.31v.74h.93v.41h-.93v1.86a.6.6,0,0,0,.13.42A.48.48,0,0,0,63.88,41.22Z"/>
    <path d="M66.34,41.65a1.47,1.47,0,0,1-1.13-.43A1.7,1.7,0,0,1,64.79,40a1.81,1.81,0,0,1,.39-1.23,1.26,1.26,0,0,1,1-.46,1.24,1.24,0,0,1,1,.39,1.5,1.5,0,0,1,.36,1.06v.32h-2.2a1.22,1.22,0,0,0,.28.83,1,1,0,0,0,.75.29,2.44,2.44,0,0,0,.48-.05A2.68,2.68,0,0,0,67.4,41v.47a3.17,3.17,0,0,1-.5.16A3.13,3.13,0,0,1,66.34,41.65Zm-.13-2.9a.78.78,0,0,0-.6.24,1.23,1.23,0,0,0-.26.68H67a1,1,0,0,0-.21-.69A.72.72,0,0,0,66.21,38.75Z"/>
    <path d="M72,40.71a.81.81,0,0,1-.34.7,1.59,1.59,0,0,1-.94.24,2.06,2.06,0,0,1-1-.2V41a2.34,2.34,0,0,0,1,.26,1,1,0,0,0,.58-.13.41.41,0,0,0,0-.67,2.75,2.75,0,0,0-.62-.3,3.61,3.61,0,0,1-.64-.3.89.89,0,0,1-.27-.28.74.74,0,0,1-.09-.38.73.73,0,0,1,.32-.62,1.54,1.54,0,0,1,.89-.23,2.37,2.37,0,0,1,1,.22l-.18.42a2.24,2.24,0,0,0-.88-.21,1.1,1.1,0,0,0-.5.1.34.34,0,0,0-.17.29.35.35,0,0,0,.15.29,2.9,2.9,0,0,0,.68.32,2.86,2.86,0,0,1,.6.28.85.85,0,0,1,.28.29A.8.8,0,0,1,72,40.71Z"/>
    <path d="M73.31,39.94l.18-.23.21-.25,1-1.08h.62L74,39.75l1.39,1.84h-.64l-1.11-1.5-.37.32v1.18h-.52V37h.52v2.38l0,.52Z"/>
    <path d="M76,37.51a.34.34,0,0,1,.09-.26.35.35,0,0,1,.22-.08.33.33,0,0,1,.22.08.34.34,0,0,1,.09.26.32.32,0,0,1-.09.25.29.29,0,0,1-.22.08.3.3,0,0,1-.22-.08A.32.32,0,0,1,76,37.51Zm.57,4.08H76V38.38h.52Z"/>
    <path d="M78.07,41.59h-.53V37h.53Z"/>
    <path d="M79.62,41.59h-.53V37h.53Z"/>
    <path d="M82.73,40.71a.81.81,0,0,1-.34.7,1.59,1.59,0,0,1-.94.24,2.06,2.06,0,0,1-1-.2V41a2.34,2.34,0,0,0,1,.26A1,1,0,0,0,82,41.1a.41.41,0,0,0,0-.67,2.75,2.75,0,0,0-.62-.3,3.61,3.61,0,0,1-.64-.3.79.79,0,0,1-.27-.28.74.74,0,0,1-.09-.38.73.73,0,0,1,.32-.62,1.54,1.54,0,0,1,.89-.23,2.37,2.37,0,0,1,1,.22l-.18.42a2.24,2.24,0,0,0-.88-.21,1.1,1.1,0,0,0-.5.1.34.34,0,0,0-.17.29.35.35,0,0,0,.15.29,2.9,2.9,0,0,0,.68.32,2.86,2.86,0,0,1,.6.28,1,1,0,0,1,.28.29A.8.8,0,0,1,82.73,40.71Z"/>
  </g>
  <g>
    <path d="M97.65,59.82a1.78,1.78,0,0,1-.12.67,1.65,1.65,0,0,1-.33.52,2,2,0,0,1-.48.37,2.46,2.46,0,0,1-.61.22v0a2.36,2.36,0,0,1,1.31.53,1.48,1.48,0,0,1,.44,1.12,2,2,0,0,1-.17.87,1.67,1.67,0,0,1-.52.69,2.4,2.4,0,0,1-.87.46,4.26,4.26,0,0,1-1.25.16A6.33,6.33,0,0,1,94,65.37a4.68,4.68,0,0,1-.94-.29V63.79a3.22,3.22,0,0,0,.46.21,4.58,4.58,0,0,0,.49.15,4,4,0,0,0,.48.09l.45,0a2.75,2.75,0,0,0,.7-.08A1.21,1.21,0,0,0,96,64a.88.88,0,0,0,.24-.34,1.49,1.49,0,0,0,.07-.43.87.87,0,0,0-.09-.4.72.72,0,0,0-.3-.3,1.55,1.55,0,0,0-.53-.2,4.32,4.32,0,0,0-.8-.07h-.51V61.17h.5a2.69,2.69,0,0,0,.75-.08,1.21,1.21,0,0,0,.47-.22.76.76,0,0,0,.25-.32,1.06,1.06,0,0,0,.08-.4.75.75,0,0,0-.24-.59,1.12,1.12,0,0,0-.75-.22,2,2,0,0,0-.44,0,2,2,0,0,0-.37.12,2.37,2.37,0,0,0-.32.15l-.26.17-.76-1a2.75,2.75,0,0,1,.44-.28,3.11,3.11,0,0,1,.53-.22,2.87,2.87,0,0,1,.61-.15,3.88,3.88,0,0,1,.7-.06,3.6,3.6,0,0,1,1,.12,2.09,2.09,0,0,1,.74.33,1.49,1.49,0,0,1,.47.53A1.53,1.53,0,0,1,97.65,59.82Z"/>
    <path d="M102.24,65.36h-1.51V60.93c0-.12,0-.24,0-.37s0-.26,0-.39,0-.25,0-.36l-.09.09-.13.13-.15.14-.15.14-.82.65-.73-.9,2.3-1.83h1.24Z"/>
    <path d="M107.55,60.84a2.61,2.61,0,0,1-.1.77,1.57,1.57,0,0,1-.31.57,1.4,1.4,0,0,1-.53.35,2,2,0,0,1-.77.13,1.83,1.83,0,0,1-.73-.13,1.4,1.4,0,0,1-.53-.35,1.59,1.59,0,0,1-.32-.57,2.61,2.61,0,0,1-.1-.77,3,3,0,0,1,.09-.76,1.57,1.57,0,0,1,.31-.57,1.37,1.37,0,0,1,.52-.35,2.16,2.16,0,0,1,.76-.12,2.09,2.09,0,0,1,.74.12,1.4,1.4,0,0,1,.53.35,1.47,1.47,0,0,1,.33.57A2.58,2.58,0,0,1,107.55,60.84Zm-2.21,0a1.17,1.17,0,0,0,.12.6.48.48,0,0,0,.78,0,1.07,1.07,0,0,0,.13-.6c0-.52-.18-.79-.52-.79a.43.43,0,0,0-.39.2A1.16,1.16,0,0,0,105.34,60.85Zm5.42-1.71-3.91,6.22h-1.12l3.91-6.22Zm1.59,4.5a2.54,2.54,0,0,1-.1.76,1.42,1.42,0,0,1-.31.57,1.32,1.32,0,0,1-.53.36,2.22,2.22,0,0,1-.77.12,2,2,0,0,1-.73-.12,1.28,1.28,0,0,1-.52-.36,1.44,1.44,0,0,1-.32-.57,2.8,2.8,0,0,1,0-1.52,1.3,1.3,0,0,1,.82-.92,2.16,2.16,0,0,1,.76-.12,2.09,2.09,0,0,1,.74.12,1.41,1.41,0,0,1,.86.92A2.53,2.53,0,0,1,112.35,63.64Zm-2.21,0a1.17,1.17,0,0,0,.12.6.48.48,0,0,0,.78,0,1.16,1.16,0,0,0,.13-.6c0-.53-.18-.79-.52-.79a.42.42,0,0,0-.39.19A1.17,1.17,0,0,0,110.14,63.65Z"/>
  </g>
  <g>
    <path d="M10.48,57.17h.57l1,2.75a5.44,5.44,0,0,1,.27.93,6.83,6.83,0,0,1,.28-.94l.95-2.74h.57l-1.52,4.28H12Z"/>
    <path d="M14.55,57.37a.33.33,0,0,1,.09-.26.35.35,0,0,1,.22-.08.3.3,0,0,1,.31.34.32.32,0,0,1-.09.25.33.33,0,0,1-.22.08.35.35,0,0,1-.22-.08A.32.32,0,0,1,14.55,57.37Zm.57,4.08h-.53V58.24h.53Z"/>
    <path d="M18.24,60.56a.81.81,0,0,1-.34.7,1.56,1.56,0,0,1-.95.25,2.21,2.21,0,0,1-1-.2v-.48a2.41,2.41,0,0,0,1,.26,1.06,1.06,0,0,0,.58-.13.4.4,0,0,0,.19-.35.38.38,0,0,0-.18-.32,2.36,2.36,0,0,0-.62-.3,4.49,4.49,0,0,1-.64-.3,1,1,0,0,1-.27-.28.76.76,0,0,1-.08-.38.71.71,0,0,1,.32-.62,1.44,1.44,0,0,1,.88-.23,2.53,2.53,0,0,1,1,.21l-.18.42a2.45,2.45,0,0,0-.88-.2,1,1,0,0,0-.5.1.34.34,0,0,0-.17.29.36.36,0,0,0,.15.29,2.89,2.89,0,0,0,.68.32,2.74,2.74,0,0,1,.59.28.89.89,0,0,1,.29.29A.76.76,0,0,1,18.24,60.56Z"/>
    <path d="M19,57.37a.33.33,0,0,1,.09-.26.36.36,0,0,1,.23-.08.32.32,0,0,1,.21.08.33.33,0,0,1,.09.26.32.32,0,0,1-.09.25.32.32,0,0,1-.21.08.36.36,0,0,1-.23-.08A.32.32,0,0,1,19,57.37Zm.57,4.08H19V58.24h.52Z"/>
    <path d="M23.36,59.84a1.82,1.82,0,0,1-.4,1.23,1.42,1.42,0,0,1-1.1.44,1.56,1.56,0,0,1-.78-.2,1.34,1.34,0,0,1-.51-.59,1.9,1.9,0,0,1-.19-.88,1.75,1.75,0,0,1,.4-1.23,1.58,1.58,0,0,1,2.18,0A1.81,1.81,0,0,1,23.36,59.84Zm-2.43,0a1.51,1.51,0,0,0,.24.92.95.95,0,0,0,1.4,0,1.51,1.51,0,0,0,.24-.92,1.49,1.49,0,0,0-.24-.92.86.86,0,0,0-.71-.3C21.24,58.62,20.93,59,20.93,59.84Z"/>
    <path d="M26.38,61.45V59.4a.83.83,0,0,0-.17-.59.71.71,0,0,0-.55-.19.89.89,0,0,0-.72.27,1.43,1.43,0,0,0-.22.9v1.66h-.53V58.24h.43l.08.43h0a1,1,0,0,1,.41-.36,1.32,1.32,0,0,1,.6-.13,1.21,1.21,0,0,1,.88.28,1.25,1.25,0,0,1,.29.9v2.09Z"/>
    <path d="M31.45,61.45,31.34,61h0a1.31,1.31,0,0,1-.48.4,1.5,1.5,0,0,1-.6.11,1,1,0,0,1-.74-.25.9.9,0,0,1-.27-.7c0-.65.51-1,1.54-1l.54,0v-.19a.83.83,0,0,0-.15-.54.7.7,0,0,0-.51-.17,1.51,1.51,0,0,0-.48.07l-.43.17-.16-.39a1.87,1.87,0,0,1,.53-.2,2.24,2.24,0,0,1,.57-.08,1.27,1.27,0,0,1,.87.26,1.06,1.06,0,0,1,.28.82v2.19Zm-1.09-.36a1,1,0,0,0,.69-.24.9.9,0,0,0,.26-.68v-.29l-.48,0a1.57,1.57,0,0,0-.8.18.52.52,0,0,0-.26.48.47.47,0,0,0,.16.39A.62.62,0,0,0,30.36,61.09Z"/>
    <path d="M35,61.45V59.4a.83.83,0,0,0-.18-.59.68.68,0,0,0-.54-.19.89.89,0,0,0-.72.27,1.43,1.43,0,0,0-.23.9v1.66h-.52V58.24h.42l.08.43h0a1,1,0,0,1,.42-.36,1.31,1.31,0,0,1,.59-.13,1.19,1.19,0,0,1,.88.28,1.25,1.25,0,0,1,.29.9v2.09Z"/>
    <path d="M37.67,61.51a1.17,1.17,0,0,1-1-.43,2.39,2.39,0,0,1,0-2.46,1.3,1.3,0,0,1,2,0h0s0-.12,0-.23,0-.2,0-.24V56.89h.52v4.56h-.42L38.7,61h0A1.14,1.14,0,0,1,37.67,61.51Zm.09-.44a.85.85,0,0,0,.7-.26,1.31,1.31,0,0,0,.22-.86v-.09a1.58,1.58,0,0,0-.22-1,.86.86,0,0,0-.71-.29.72.72,0,0,0-.63.33,1.66,1.66,0,0,0-.22.92,1.55,1.55,0,0,0,.22.91A.75.75,0,0,0,37.76,61.07Z"/>
    <path d="M42.28,58.24v2.07a.82.82,0,0,0,.18.58.7.7,0,0,0,.54.18.89.89,0,0,0,.72-.27,1.4,1.4,0,0,0,.22-.89V58.24h.53v3.21H44L44,61h0a.94.94,0,0,1-.41.35,1.31,1.31,0,0,1-.61.13,1.22,1.22,0,0,1-.88-.28,1.19,1.19,0,0,1-.29-.89v-2.1Z"/>
    <path d="M47.69,61.45V59.4a.83.83,0,0,0-.18-.59.71.71,0,0,0-.55-.19.85.85,0,0,0-.71.27,1.43,1.43,0,0,0-.23.9v1.66h-.53V58.24h.43l.08.43h0a1,1,0,0,1,.42-.36,1.28,1.28,0,0,1,.59-.13,1.19,1.19,0,0,1,.88.28,1.25,1.25,0,0,1,.29.9v2.09Z"/>
    <path d="M50.34,61.51a1.16,1.16,0,0,1-1-.43,2.34,2.34,0,0,1,0-2.46,1.16,1.16,0,0,1,1-.44,1.14,1.14,0,0,1,1,.47h0s0-.12,0-.23,0-.2,0-.24V56.89h.53v4.56h-.42L51.37,61h0A1.11,1.11,0,0,1,50.34,61.51Zm.09-.44a.85.85,0,0,0,.7-.26,1.31,1.31,0,0,0,.22-.86v-.09a1.58,1.58,0,0,0-.22-1,.86.86,0,0,0-.71-.29.72.72,0,0,0-.63.33,1.58,1.58,0,0,0-.22.92,1.55,1.55,0,0,0,.22.91A.75.75,0,0,0,50.43,61.07Z"/>
    <path d="M54.26,61.51a1.44,1.44,0,0,1-1.13-.44,1.65,1.65,0,0,1-.41-1.2,1.81,1.81,0,0,1,.38-1.23,1.28,1.28,0,0,1,1-.46,1.24,1.24,0,0,1,1,.39,1.5,1.5,0,0,1,.36,1.06V60h-2.2a1.22,1.22,0,0,0,.28.83,1,1,0,0,0,.75.28,2.63,2.63,0,0,0,.49,0,2.82,2.82,0,0,0,.54-.18v.46a2.39,2.39,0,0,1-.5.16A2.33,2.33,0,0,1,54.26,61.51Zm-.13-2.9a.78.78,0,0,0-.6.24,1.2,1.2,0,0,0-.26.68h1.64a1,1,0,0,0-.21-.69A.72.72,0,0,0,54.13,58.61Z"/>
    <path d="M57.78,58.18a2.17,2.17,0,0,1,.38,0l-.07.49a1.39,1.39,0,0,0-.35,0,.81.81,0,0,0-.47.14.87.87,0,0,0-.34.39,1.2,1.2,0,0,0-.12.55v1.71h-.53V58.24h.43l.06.58h0a1.47,1.47,0,0,1,.44-.48A1,1,0,0,1,57.78,58.18Z"/>
    <path d="M60.85,60.56a.79.79,0,0,1-.34.7,1.52,1.52,0,0,1-.94.25,2.18,2.18,0,0,1-1-.2v-.48a2.34,2.34,0,0,0,1,.26,1.06,1.06,0,0,0,.58-.13.41.41,0,0,0,.18-.35.4.4,0,0,0-.17-.32,2.75,2.75,0,0,0-.62-.3,4,4,0,0,1-.64-.3,1,1,0,0,1-.27-.28.76.76,0,0,1-.09-.38.73.73,0,0,1,.32-.62,1.47,1.47,0,0,1,.89-.23,2.48,2.48,0,0,1,1,.21l-.17.42a2.45,2.45,0,0,0-.89-.2.92.92,0,0,0-.49.1.32.32,0,0,0-.17.29.35.35,0,0,0,.14.29,3.39,3.39,0,0,0,.68.32,2.86,2.86,0,0,1,.6.28.77.77,0,0,1,.28.29A.76.76,0,0,1,60.85,60.56Z"/>
    <path d="M62.71,61.08l.24,0a.64.64,0,0,0,.2-.05v.41l-.22.06-.31,0c-.63,0-.95-.33-.95-1V58.65h-.45v-.26l.46-.21.21-.68h.31v.74h.93v.41H62.2V60.5a.62.62,0,0,0,.14.43A.45.45,0,0,0,62.71,61.08Z"/>
    <path d="M65.78,61.45l-.1-.45h0a1.31,1.31,0,0,1-.48.4,1.5,1.5,0,0,1-.6.11,1,1,0,0,1-.75-.25.9.9,0,0,1-.27-.7c0-.65.52-1,1.55-1l.54,0v-.19a.77.77,0,0,0-.16-.54.66.66,0,0,0-.5-.17,1.57,1.57,0,0,0-.49.07,4.08,4.08,0,0,0-.42.17l-.16-.39a1.77,1.77,0,0,1,.53-.2,2.23,2.23,0,0,1,.56-.08,1.27,1.27,0,0,1,.87.26,1.06,1.06,0,0,1,.29.82v2.19Zm-1.08-.36a1,1,0,0,0,.69-.24.89.89,0,0,0,.25-.68v-.29l-.47,0a1.62,1.62,0,0,0-.81.18.51.51,0,0,0-.25.48.5.5,0,0,0,.15.39A.66.66,0,0,0,64.7,61.09Z"/>
    <path d="M69.35,61.45V59.4a.88.88,0,0,0-.17-.59.71.71,0,0,0-.55-.19.89.89,0,0,0-.72.27,1.43,1.43,0,0,0-.22.9v1.66h-.53V58.24h.43l.08.43h0a.91.91,0,0,1,.41-.36,1.32,1.32,0,0,1,.6-.13,1.21,1.21,0,0,1,.88.28,1.25,1.25,0,0,1,.29.9v2.09Z"/>
    <path d="M72,61.51a1.16,1.16,0,0,1-1-.43,2.34,2.34,0,0,1,0-2.46,1.16,1.16,0,0,1,1-.44,1.14,1.14,0,0,1,1,.47h0s0-.12,0-.23,0-.2,0-.24V56.89h.53v4.56h-.42L73,61h0A1.12,1.12,0,0,1,72,61.51Zm.09-.44a.85.85,0,0,0,.7-.26A1.31,1.31,0,0,0,73,60v-.09a1.57,1.57,0,0,0-.23-1,.84.84,0,0,0-.7-.29.72.72,0,0,0-.63.33,1.58,1.58,0,0,0-.22.92,1.55,1.55,0,0,0,.22.91A.75.75,0,0,0,72.1,61.07Z"/>
    <path d="M74.52,57.37a.3.3,0,0,1,.31-.34.35.35,0,0,1,.22.08.33.33,0,0,1,.09.26.32.32,0,0,1-.09.25.35.35,0,0,1-.22.08.33.33,0,0,1-.22-.08A.32.32,0,0,1,74.52,57.37Zm.57,4.08h-.53V58.24h.53Z"/>
    <path d="M78.3,61.45V59.4a.88.88,0,0,0-.17-.59.71.71,0,0,0-.55-.19.89.89,0,0,0-.72.27,1.43,1.43,0,0,0-.22.9v1.66h-.53V58.24h.42l.08.43h0a1,1,0,0,1,.42-.36,1.32,1.32,0,0,1,.6-.13,1.22,1.22,0,0,1,.88.28,1.25,1.25,0,0,1,.28.9v2.09Z"/>
    <path d="M82,61.42V61h0a1.13,1.13,0,0,1-1,.48,1.17,1.17,0,0,1-1-.43,1.94,1.94,0,0,1-.35-1.23A2,2,0,0,1,80,58.62a1.3,1.3,0,0,1,2,0h0l.07-.42h.42V61.5a1.4,1.4,0,0,1-.35,1,1.47,1.47,0,0,1-1.09.35,2.78,2.78,0,0,1-1.16-.2V62.2a2.47,2.47,0,0,0,1.19.25.83.83,0,0,0,.89-.9ZM81,61.08a.89.89,0,0,0,.71-.26A1.3,1.3,0,0,0,82,60v-.13a1.57,1.57,0,0,0-.22-.94.86.86,0,0,0-.72-.29.7.7,0,0,0-.62.32,1.58,1.58,0,0,0-.23.92,1.65,1.65,0,0,0,.22.91A.72.72,0,0,0,81,61.08Z"/>
    <path d="M51,68.28l.24,0a.81.81,0,0,0,.21-.05v.41l-.23.06a1.63,1.63,0,0,1-.31,0c-.63,0-.94-.33-.94-1V65.85h-.46v-.26l.46-.21.21-.68h.32v.74h.92v.41h-.92V67.7a.61.61,0,0,0,.13.43A.47.47,0,0,0,51,68.28Z"/>
    <path d="M54.23,68.65V66.6a.88.88,0,0,0-.17-.59.71.71,0,0,0-.55-.19.9.9,0,0,0-.72.27,1.42,1.42,0,0,0-.22.9v1.66H52V64.09h.53v1.34a2.81,2.81,0,0,1,0,.45h0a1,1,0,0,1,.41-.37,1.42,1.42,0,0,1,.59-.13,1.3,1.3,0,0,1,.89.28,1.23,1.23,0,0,1,.29.9v2.09Z"/>
    <path d="M57.12,68.71A1.46,1.46,0,0,1,56,68.27a1.69,1.69,0,0,1-.41-1.2A1.86,1.86,0,0,1,56,65.84a1.4,1.4,0,0,1,2-.07,1.5,1.5,0,0,1,.36,1.06v.32H56.11a1.27,1.27,0,0,0,.28.83,1,1,0,0,0,.75.28,2.63,2.63,0,0,0,.49,0,2.82,2.82,0,0,0,.54-.18v.46a2.21,2.21,0,0,1-.5.16A2.29,2.29,0,0,1,57.12,68.71ZM57,65.81a.75.75,0,0,0-.59.24,1.08,1.08,0,0,0-.26.68h1.63a1.07,1.07,0,0,0-.2-.69A.75.75,0,0,0,57,65.81Z"/>
    <path d="M62.21,65.38a1.21,1.21,0,0,1,1,.44A1.92,1.92,0,0,1,63.54,67a2,2,0,0,1-.35,1.24,1.18,1.18,0,0,1-1,.43,1.37,1.37,0,0,1-.58-.12,1,1,0,0,1-.41-.34h0c-.06.23-.1.37-.11.4h-.38V64.09h.53V65.2q0,.33,0,.66h0A1.11,1.11,0,0,1,62.21,65.38Zm-.08.44a.83.83,0,0,0-.7.27,1.61,1.61,0,0,0-.21.94v0a1.61,1.61,0,0,0,.21.94.84.84,0,0,0,.71.28.71.71,0,0,0,.64-.31A1.58,1.58,0,0,0,63,67a1.64,1.64,0,0,0-.22-.92A.74.74,0,0,0,62.13,65.82Z"/>
    <path d="M65.75,68.71a1.44,1.44,0,0,1-1.13-.44,1.66,1.66,0,0,1-.42-1.2,1.81,1.81,0,0,1,.39-1.23,1.39,1.39,0,0,1,2-.07A1.5,1.5,0,0,1,67,66.83v.32h-2.2A1.22,1.22,0,0,0,65,68a.94.94,0,0,0,.74.28,2.49,2.49,0,0,0,.49,0A2.43,2.43,0,0,0,66.8,68v.46a2.07,2.07,0,0,1-.5.16A2.24,2.24,0,0,1,65.75,68.71Zm-.13-2.9a.78.78,0,0,0-.6.24,1.14,1.14,0,0,0-.26.68H66.4a1.13,1.13,0,0,0-.21-.69A.75.75,0,0,0,65.62,65.81Z"/>
    <path d="M70,68.65V66.6a.83.83,0,0,0-.18-.59.68.68,0,0,0-.54-.19.89.89,0,0,0-.72.27,1.43,1.43,0,0,0-.23.9v1.66h-.52V65.44h.42l.08.44h0a1,1,0,0,1,.42-.37,1.31,1.31,0,0,1,.59-.13,1.19,1.19,0,0,1,.88.28,1.25,1.25,0,0,1,.29.9v2.09Z"/>
    <path d="M72.84,68.71a1.44,1.44,0,0,1-1.13-.44,1.65,1.65,0,0,1-.41-1.2,1.81,1.81,0,0,1,.38-1.23,1.28,1.28,0,0,1,1-.46,1.24,1.24,0,0,1,1,.39A1.5,1.5,0,0,1,74,66.83v.32h-2.2a1.22,1.22,0,0,0,.28.83,1,1,0,0,0,.75.28,2.63,2.63,0,0,0,.49,0A2.82,2.82,0,0,0,73.9,68v.46a2.39,2.39,0,0,1-.5.16A2.33,2.33,0,0,1,72.84,68.71Zm-.13-2.9a.78.78,0,0,0-.6.24,1.2,1.2,0,0,0-.26.68h1.64a1,1,0,0,0-.21-.69A.72.72,0,0,0,72.71,65.81Z"/>
    <path d="M76.34,65.85h-.81v2.8H75v-2.8h-.56V65.6l.56-.18v-.19a1.32,1.32,0,0,1,.26-.88,1,1,0,0,1,.79-.29,2,2,0,0,1,.62.11l-.14.41a1.5,1.5,0,0,0-.48-.08.44.44,0,0,0-.39.17.93.93,0,0,0-.13.56v.21h.81Zm.54-1.28a.33.33,0,0,1,.09-.26.35.35,0,0,1,.22-.08.3.3,0,0,1,.31.34.32.32,0,0,1-.09.25.29.29,0,0,1-.22.08.3.3,0,0,1-.22-.08A.32.32,0,0,1,76.88,64.57Zm.57,4.08h-.53V65.44h.53Z"/>
    <path d="M79.55,68.28l.24,0a.64.64,0,0,0,.2-.05v.41l-.22.06-.31,0c-.63,0-.95-.33-.95-1V65.85h-.45v-.26l.46-.21.21-.68H79v.74H80v.41H79V67.7a.62.62,0,0,0,.14.43A.45.45,0,0,0,79.55,68.28Z"/>
    <path d="M82.73,67.76a.79.79,0,0,1-.34.7,1.52,1.52,0,0,1-.94.25,2.18,2.18,0,0,1-1-.2V68a2.34,2.34,0,0,0,1,.26,1.08,1.08,0,0,0,.58-.13.41.41,0,0,0,.18-.35.4.4,0,0,0-.17-.32,2.75,2.75,0,0,0-.62-.3,3.61,3.61,0,0,1-.64-.3.88.88,0,0,1-.27-.28.76.76,0,0,1-.09-.38.73.73,0,0,1,.32-.62,1.47,1.47,0,0,1,.89-.23,2.52,2.52,0,0,1,1,.21l-.18.42a2.4,2.4,0,0,0-.88-.2,1,1,0,0,0-.5.1.34.34,0,0,0-.17.29.36.36,0,0,0,.15.29,3.39,3.39,0,0,0,.68.32,2.86,2.86,0,0,1,.6.28.86.86,0,0,1,.28.29A.76.76,0,0,1,82.73,67.76Z"/>
  </g>
  <g>
    <path d="M97.93,86.77H93.14v-1l1.68-1.81.58-.63a5.1,5.1,0,0,0,.44-.56,3,3,0,0,0,.29-.56,1.74,1.74,0,0,0,.1-.61A.7.7,0,0,0,96,81a.79.79,0,0,0-.58-.2,1.48,1.48,0,0,0-.74.19,4.1,4.1,0,0,0-.75.54l-.82-1c.15-.13.3-.26.46-.38a2.8,2.8,0,0,1,.53-.33,3.58,3.58,0,0,1,.63-.23,3.67,3.67,0,0,1,.78-.08,2.91,2.91,0,0,1,.92.14,2,2,0,0,1,.69.4,1.81,1.81,0,0,1,.45.64,2.29,2.29,0,0,1,0,1.63,3.27,3.27,0,0,1-.4.76,7.27,7.27,0,0,1-.59.73c-.22.24-.46.49-.71.74l-.86.86v.07h2.91Z"/>
    <path d="M101,79.54a2.94,2.94,0,0,1,.84.11,2,2,0,0,1,.69.32,1.49,1.49,0,0,1,.47.53,1.55,1.55,0,0,1,.18.76,1.59,1.59,0,0,1-.1.59,1.47,1.47,0,0,1-.27.47,2.07,2.07,0,0,1-.4.38,4.27,4.27,0,0,1-.51.3,4.53,4.53,0,0,1,.55.34,2.73,2.73,0,0,1,.48.41,1.94,1.94,0,0,1,.34.52,1.54,1.54,0,0,1,.13.65,1.77,1.77,0,0,1-.18.8,1.65,1.65,0,0,1-.49.62,2.28,2.28,0,0,1-.76.39,3.29,3.29,0,0,1-1,.14,4,4,0,0,1-1-.13,2.35,2.35,0,0,1-.76-.38,1.51,1.51,0,0,1-.46-.6,1.91,1.91,0,0,1-.16-.8,1.69,1.69,0,0,1,.11-.66,1.94,1.94,0,0,1,.29-.53,2.4,2.4,0,0,1,.43-.41A3.65,3.65,0,0,1,100,83a3.72,3.72,0,0,1-.45-.33,2,2,0,0,1-.37-.4,1.8,1.8,0,0,1-.24-.48,1.76,1.76,0,0,1-.09-.58,1.47,1.47,0,0,1,.18-.74,1.66,1.66,0,0,1,.48-.54,2.14,2.14,0,0,1,.7-.32A2.82,2.82,0,0,1,101,79.54Zm-1,5.33a1,1,0,0,0,.06.36.67.67,0,0,0,.19.28.73.73,0,0,0,.31.18,1.11,1.11,0,0,0,.43.07,1.07,1.07,0,0,0,.76-.24.85.85,0,0,0,.26-.64.75.75,0,0,0-.09-.37,1.29,1.29,0,0,0-.22-.3,2.55,2.55,0,0,0-.3-.26l-.35-.22-.1-.07a2.36,2.36,0,0,0-.39.23,1.59,1.59,0,0,0-.3.27,1.12,1.12,0,0,0-.2.33A1.16,1.16,0,0,0,100,84.87Zm1-4.23a.94.94,0,0,0-.3,0,.57.57,0,0,0-.24.14.63.63,0,0,0-.16.23.75.75,0,0,0-.06.31.91.91,0,0,0,.06.35,1,1,0,0,0,.17.27,1.59,1.59,0,0,0,.24.2l.3.18a2.61,2.61,0,0,0,.28-.17,1.27,1.27,0,0,0,.25-.21.92.92,0,0,0,.16-.27.78.78,0,0,0,.07-.35.75.75,0,0,0-.06-.31.63.63,0,0,0-.16-.23.68.68,0,0,0-.25-.14A.94.94,0,0,0,101,80.64Z"/>
    <path d="M107.55,82.25a2.54,2.54,0,0,1-.1.76,1.42,1.42,0,0,1-.31.57,1.32,1.32,0,0,1-.53.36,2.22,2.22,0,0,1-.77.12,2,2,0,0,1-.73-.12,1.32,1.32,0,0,1-.53-.36,1.44,1.44,0,0,1-.32-.57,2.54,2.54,0,0,1-.1-.76,2.88,2.88,0,0,1,.09-.76,1.42,1.42,0,0,1,.31-.57,1.37,1.37,0,0,1,.52-.35,2.16,2.16,0,0,1,.76-.12,2.09,2.09,0,0,1,.74.12,1.4,1.4,0,0,1,.53.35,1.34,1.34,0,0,1,.33.57A2.49,2.49,0,0,1,107.55,82.25Zm-2.21,0a1.22,1.22,0,0,0,.12.6.5.5,0,0,0,.78,0,1.07,1.07,0,0,0,.13-.6c0-.53-.18-.79-.52-.79a.42.42,0,0,0-.39.19A1.17,1.17,0,0,0,105.34,82.26Zm5.42-1.71-3.91,6.22h-1.12l3.91-6.22Zm1.59,4.5a2.59,2.59,0,0,1-.1.76,1.57,1.57,0,0,1-.31.57,1.4,1.4,0,0,1-.53.35,2,2,0,0,1-.77.13,1.83,1.83,0,0,1-.73-.13,1.37,1.37,0,0,1-.52-.35,1.59,1.59,0,0,1-.32-.57,2.58,2.58,0,0,1-.11-.76,2.61,2.61,0,0,1,.1-.77,1.32,1.32,0,0,1,.3-.56,1.26,1.26,0,0,1,.52-.35,2.15,2.15,0,0,1,.76-.13,2.08,2.08,0,0,1,.74.13,1.3,1.3,0,0,1,.53.35,1.37,1.37,0,0,1,.33.56A2.6,2.6,0,0,1,112.35,85.05Zm-2.21,0a1.16,1.16,0,0,0,.12.59.41.41,0,0,0,.39.2.42.42,0,0,0,.39-.19,1.16,1.16,0,0,0,.13-.6c0-.53-.18-.8-.52-.8a.43.43,0,0,0-.39.2A1.17,1.17,0,0,0,110.14,85.06Z"/>
  </g>
  <g>
    <path d="M47.39,79.44a1.35,1.35,0,0,0-1.09.46,2.26,2.26,0,0,0,0,2.55,1.35,1.35,0,0,0,1.09.45,3.74,3.74,0,0,0,1-.17v.47a2.73,2.73,0,0,1-.53.13,3.3,3.3,0,0,1-.58,0,1.81,1.81,0,0,1-1.45-.58,2.36,2.36,0,0,1-.51-1.63A2.64,2.64,0,0,1,45.58,80a1.76,1.76,0,0,1,.71-.77,2.16,2.16,0,0,1,1.1-.27,2.61,2.61,0,0,1,1.19.26l-.22.45A2.44,2.44,0,0,0,47.39,79.44Z"/>
    <path d="M51.46,83.31V81.25a.87.87,0,0,0-.17-.58.71.71,0,0,0-.55-.19.88.88,0,0,0-.71.27,1.35,1.35,0,0,0-.23.9v1.66h-.53V78.75h.53v1.34a3,3,0,0,1,0,.45h0a1,1,0,0,1,.41-.37,1.29,1.29,0,0,1,.6-.13,1.22,1.22,0,0,1,.88.28,1.2,1.2,0,0,1,.29.89v2.1Z"/>
    <path d="M55,83.31l-.11-.46h0a1.35,1.35,0,0,1-.48.41,1.5,1.5,0,0,1-.6.11,1,1,0,0,1-.75-.25.91.91,0,0,1-.26-.7c0-.66.51-1,1.54-1l.54,0v-.19a.83.83,0,0,0-.15-.54.66.66,0,0,0-.51-.18,1.51,1.51,0,0,0-.48.08l-.43.17-.16-.39a2.25,2.25,0,0,1,.53-.21A2.22,2.22,0,0,1,54.2,80a1.27,1.27,0,0,1,.87.26,1.08,1.08,0,0,1,.28.82v2.19Zm-1.09-.37a1,1,0,0,0,.69-.24.86.86,0,0,0,.26-.67v-.29l-.48,0a1.67,1.67,0,0,0-.8.17.55.55,0,0,0-.26.49.47.47,0,0,0,.16.39A.61.61,0,0,0,53.88,82.94Z"/>
    <path d="M58.54,83.31V81.25a.82.82,0,0,0-.18-.58.68.68,0,0,0-.54-.19.89.89,0,0,0-.72.27,1.4,1.4,0,0,0-.23.89v1.67h-.52V80.09h.42l.08.44h0a.93.93,0,0,1,.42-.36,1.31,1.31,0,0,1,.59-.14,1.19,1.19,0,0,1,.88.29,1.22,1.22,0,0,1,.29.89v2.1Z"/>
    <path d="M62.2,83.28l0-.4h0a1.11,1.11,0,0,1-1,.49,1.17,1.17,0,0,1-1-.44,1.87,1.87,0,0,1-.35-1.22,1.91,1.91,0,0,1,.35-1.23,1.15,1.15,0,0,1,1-.45,1.18,1.18,0,0,1,1,.49h0l.07-.43h.42v3.27a1.38,1.38,0,0,1-.35,1,1.48,1.48,0,0,1-1.08.35,3,3,0,0,1-1.16-.2v-.49a2.46,2.46,0,0,0,1.18.25.87.87,0,0,0,.65-.24.89.89,0,0,0,.24-.66Zm-.92-.34a.88.88,0,0,0,.71-.27,1.32,1.32,0,0,0,.22-.84v-.12a1.62,1.62,0,0,0-.22-.94.84.84,0,0,0-.72-.29.71.71,0,0,0-.63.32,1.57,1.57,0,0,0-.22.91,1.53,1.53,0,0,0,.22.91A.72.72,0,0,0,61.28,82.94Z"/>
    <path d="M63.71,79.22a.32.32,0,0,1,.08-.25.36.36,0,0,1,.23-.08.32.32,0,0,1,.21.08.32.32,0,0,1,.09.25.34.34,0,0,1-.09.26.32.32,0,0,1-.21.08.36.36,0,0,1-.23-.08A.34.34,0,0,1,63.71,79.22Zm.56,4.09h-.52V80.09h.52Z"/>
    <path d="M67.48,83.31V81.25a.82.82,0,0,0-.17-.58.71.71,0,0,0-.55-.19.89.89,0,0,0-.72.27,1.4,1.4,0,0,0-.22.89v1.67h-.53V80.09h.43l.08.44h0a.93.93,0,0,1,.42-.36,1.25,1.25,0,0,1,.59-.14A1,1,0,0,1,68,81.21v2.1Z"/>
    <path d="M71.15,83.28l0-.4h0a1.1,1.1,0,0,1-1,.49,1.2,1.2,0,0,1-1-.44,2.29,2.29,0,0,1,0-2.45,1.14,1.14,0,0,1,1-.45,1.19,1.19,0,0,1,1,.49h0l.07-.43h.42v3.27a1.42,1.42,0,0,1-.35,1,1.5,1.5,0,0,1-1.09.35,2.89,2.89,0,0,1-1.15-.2v-.49a2.43,2.43,0,0,0,1.18.25.87.87,0,0,0,.65-.24.89.89,0,0,0,.24-.66Zm-.92-.34a.84.84,0,0,0,.7-.27,1.26,1.26,0,0,0,.23-.84v-.12a1.54,1.54,0,0,0-.23-.94.84.84,0,0,0-.72-.29.71.71,0,0,0-.62.32,1.57,1.57,0,0,0-.22.91,1.61,1.61,0,0,0,.21.91A.75.75,0,0,0,70.23,82.94Z"/>
    <path d="M75.33,82.94l.24,0,.21,0v.4a.79.79,0,0,1-.23.07,1.63,1.63,0,0,1-.31,0c-.63,0-.95-.33-.95-1V80.5h-.45v-.25L74.3,80l.21-.69h.31v.74h.93v.41h-.93v1.86a.62.62,0,0,0,.14.43A.45.45,0,0,0,75.33,82.94Z"/>
    <path d="M78.61,83.31V81.25a.82.82,0,0,0-.18-.58.67.67,0,0,0-.54-.19.89.89,0,0,0-.72.27,1.41,1.41,0,0,0-.23.9v1.66h-.52V78.75h.52v1.34c0,.17,0,.32,0,.45h0a1,1,0,0,1,.41-.37A1.25,1.25,0,0,1,78,80a1.21,1.21,0,0,1,.88.28,1.17,1.17,0,0,1,.3.89v2.1Z"/>
    <path d="M81.49,83.37a1.48,1.48,0,0,1-1.13-.44A1.66,1.66,0,0,1,80,81.72a1.9,1.9,0,0,1,.38-1.23,1.31,1.31,0,0,1,1-.46,1.28,1.28,0,0,1,1,.39,1.49,1.49,0,0,1,.37,1.06v.32H80.49a1.23,1.23,0,0,0,.28.84,1,1,0,0,0,.75.28,2,2,0,0,0,.49,0,2.7,2.7,0,0,0,.54-.17v.46a2.39,2.39,0,0,1-.5.16A3,3,0,0,1,81.49,83.37Zm-.13-2.91a.79.79,0,0,0-.6.25,1.2,1.2,0,0,0-.26.67h1.64a1,1,0,0,0-.21-.68A.69.69,0,0,0,81.36,80.46Z"/>
    <path d="M26.34,88.9a1.77,1.77,0,0,1-.4,1.23,1.41,1.41,0,0,1-1.1.44,1.5,1.5,0,0,1-.77-.2,1.36,1.36,0,0,1-.52-.59,2,2,0,0,1-.18-.88,1.78,1.78,0,0,1,.39-1.23,1.41,1.41,0,0,1,1.1-.44,1.38,1.38,0,0,1,1.08.45A1.74,1.74,0,0,1,26.34,88.9Zm-2.43,0a1.51,1.51,0,0,0,.24.92.95.95,0,0,0,1.4,0,1.51,1.51,0,0,0,.24-.92,1.49,1.49,0,0,0-.24-.92.84.84,0,0,0-.7-.3C24.22,87.68,23.91,88.08,23.91,88.9Z"/>
    <path d="M28.67,87.23a2,2,0,0,1,.38,0l-.06.49a1.48,1.48,0,0,0-.35-.05.8.8,0,0,0-.47.15.9.9,0,0,0-.34.38,1.14,1.14,0,0,0-.13.55v1.72h-.53V87.29h.44l.06.59h0a1.37,1.37,0,0,1,.44-.48A1,1,0,0,1,28.67,87.23Z"/>
    <path d="M31.77,90.48l0-.4h0a1.11,1.11,0,0,1-1,.49,1.2,1.2,0,0,1-1-.44,2.35,2.35,0,0,1,0-2.45,1.15,1.15,0,0,1,1-.45,1.18,1.18,0,0,1,1,.49h0l.07-.43h.42v3.27a1.38,1.38,0,0,1-.35,1,1.49,1.49,0,0,1-1.09.35,2.93,2.93,0,0,1-1.15-.2v-.49a2.46,2.46,0,0,0,1.18.25.87.87,0,0,0,.65-.24.89.89,0,0,0,.24-.66Zm-.92-.34a.91.91,0,0,0,.71-.26,1.37,1.37,0,0,0,.22-.85v-.12a1.56,1.56,0,0,0-.23-.94.8.8,0,0,0-.71-.29.71.71,0,0,0-.63.32,1.57,1.57,0,0,0-.22.91,1.53,1.53,0,0,0,.22.91A.72.72,0,0,0,30.85,90.14Z"/>
    <path d="M35.3,90.51l-.1-.46h0a1.35,1.35,0,0,1-.48.41,1.51,1.51,0,0,1-.61.11,1,1,0,0,1-.74-.25.91.91,0,0,1-.27-.7c0-.66.52-1,1.54-1l.55,0v-.19a.77.77,0,0,0-.16-.54.63.63,0,0,0-.51-.17,1.51,1.51,0,0,0-.48.07,4.08,4.08,0,0,0-.42.17l-.16-.39a2.09,2.09,0,0,1,.53-.21,2.2,2.2,0,0,1,.56-.07,1.27,1.27,0,0,1,.87.26,1,1,0,0,1,.29.82v2.19Zm-1.09-.37a1,1,0,0,0,.7-.24.85.85,0,0,0,.25-.67v-.29l-.47,0a1.75,1.75,0,0,0-.81.17.54.54,0,0,0-.25.49.5.5,0,0,0,.15.39A.63.63,0,0,0,34.21,90.14Z"/>
    <path d="M38.87,90.51V88.45a.87.87,0,0,0-.17-.58.71.71,0,0,0-.55-.19.89.89,0,0,0-.72.27,1.4,1.4,0,0,0-.22.89v1.67h-.53V87.29h.43l.08.44h0a.93.93,0,0,1,.42-.36,1.33,1.33,0,0,1,.6-.14,1.21,1.21,0,0,1,.88.29,1.23,1.23,0,0,1,.28.9v2.09Z"/>
    <path d="M40.35,86.42a.32.32,0,0,1,.09-.25.33.33,0,0,1,.22-.08.37.37,0,0,1,.22.08.32.32,0,0,1,.09.25.34.34,0,0,1-.09.26.37.37,0,0,1-.22.08.33.33,0,0,1-.22-.08A.34.34,0,0,1,40.35,86.42Zm.57,4.09h-.53V87.29h.53Z"/>
    <path d="M44,90.51H41.66v-.35l1.73-2.46H41.76v-.41H44v.4l-1.7,2.41H44Z"/>
    <path d="M46.75,90.51l-.11-.46h0a1.35,1.35,0,0,1-.48.41,1.5,1.5,0,0,1-.6.11,1,1,0,0,1-.75-.25.91.91,0,0,1-.27-.7c0-.66.52-1,1.55-1l.54,0v-.19a.83.83,0,0,0-.15-.54.66.66,0,0,0-.51-.17,1.51,1.51,0,0,0-.48.07,3.5,3.5,0,0,0-.43.17l-.16-.39a2.25,2.25,0,0,1,.53-.21,2.22,2.22,0,0,1,.57-.07,1.23,1.23,0,0,1,.86.26,1,1,0,0,1,.29.82v2.19Zm-1.09-.37a1,1,0,0,0,.69-.24.86.86,0,0,0,.26-.67v-.29l-.48,0a1.67,1.67,0,0,0-.8.17.55.55,0,0,0-.26.49.47.47,0,0,0,.16.39A.61.61,0,0,0,45.66,90.14Z"/>
    <path d="M49.2,90.14l.24,0,.21-.05v.4a.79.79,0,0,1-.23.07,1.63,1.63,0,0,1-.31,0c-.63,0-.94-.33-.94-1V87.7h-.46v-.25l.46-.21.21-.69h.32v.74h.92v.41H48.7v1.86a.61.61,0,0,0,.13.43A.47.47,0,0,0,49.2,90.14Z"/>
    <path d="M50.25,86.42a.32.32,0,0,1,.09-.25.33.33,0,0,1,.22-.08.37.37,0,0,1,.22.08.32.32,0,0,1,.09.25.34.34,0,0,1-.09.26.37.37,0,0,1-.22.08.33.33,0,0,1-.22-.08A.34.34,0,0,1,50.25,86.42Zm.57,4.09h-.53V87.29h.53Z"/>
    <path d="M54.63,88.9a1.77,1.77,0,0,1-.4,1.23,1.41,1.41,0,0,1-1.1.44,1.5,1.5,0,0,1-.77-.2,1.36,1.36,0,0,1-.52-.59,2,2,0,0,1-.18-.88,1.78,1.78,0,0,1,.39-1.23,1.41,1.41,0,0,1,1.1-.44,1.37,1.37,0,0,1,1.08.45A1.74,1.74,0,0,1,54.63,88.9Zm-2.43,0a1.51,1.51,0,0,0,.24.92,1,1,0,0,0,1.41,0,1.51,1.51,0,0,0,.24-.92,1.49,1.49,0,0,0-.24-.92.87.87,0,0,0-.71-.3C52.51,87.68,52.2,88.08,52.2,88.9Z"/>
    <path d="M57.66,90.51V88.45a.82.82,0,0,0-.18-.58.67.67,0,0,0-.54-.19.89.89,0,0,0-.72.27,1.4,1.4,0,0,0-.23.89v1.67h-.52V87.29h.42l.08.44h0a.93.93,0,0,1,.42-.36,1.31,1.31,0,0,1,.59-.14,1.19,1.19,0,0,1,.88.29,1.23,1.23,0,0,1,.29.9v2.09Z"/>
    <path d="M61.16,90.51l-.1-.46h0a1.35,1.35,0,0,1-.48.41,1.5,1.5,0,0,1-.6.11,1,1,0,0,1-.75-.25.91.91,0,0,1-.27-.7c0-.66.52-1,1.55-1l.54,0v-.19a.77.77,0,0,0-.16-.54.62.62,0,0,0-.5-.17,1.61,1.61,0,0,0-.49.07,4.08,4.08,0,0,0-.42.17l-.16-.39a2.09,2.09,0,0,1,.53-.21,2.2,2.2,0,0,1,.56-.07,1.27,1.27,0,0,1,.87.26,1,1,0,0,1,.29.82v2.19Zm-1.08-.37a1,1,0,0,0,.69-.24.85.85,0,0,0,.25-.67v-.29l-.47,0a1.75,1.75,0,0,0-.81.17.54.54,0,0,0-.25.49.5.5,0,0,0,.15.39A.66.66,0,0,0,60.08,90.14Z"/>
    <path d="M63.07,90.51h-.53V86h.53Z"/>
    <path d="M69.74,90.51V88.44c0-.51-.22-.76-.65-.76a.78.78,0,0,0-.66.26,1.24,1.24,0,0,0-.21.79v1.78h-.53V88.44a.83.83,0,0,0-.16-.57.59.59,0,0,0-.5-.19.78.78,0,0,0-.65.27,1.47,1.47,0,0,0-.21.89v1.67h-.52V87.29h.42l.08.44h0a.91.91,0,0,1,.39-.36,1.16,1.16,0,0,1,.56-.14,1,1,0,0,1,1,.54h0a1.08,1.08,0,0,1,.43-.39,1.21,1.21,0,0,1,.6-.15,1.08,1.08,0,0,1,.82.29,1.24,1.24,0,0,1,.27.9v2.09Z"/>
    <path d="M74.05,88.9a1.77,1.77,0,0,1-.4,1.23,1.41,1.41,0,0,1-1.1.44,1.5,1.5,0,0,1-.77-.2,1.36,1.36,0,0,1-.52-.59,2,2,0,0,1-.18-.88,1.78,1.78,0,0,1,.39-1.23,1.41,1.41,0,0,1,1.1-.44,1.35,1.35,0,0,1,1.08.45A1.74,1.74,0,0,1,74.05,88.9Zm-2.43,0a1.51,1.51,0,0,0,.24.92,1,1,0,0,0,1.41,0,1.51,1.51,0,0,0,.24-.92,1.49,1.49,0,0,0-.24-.92.86.86,0,0,0-.71-.3C71.94,87.68,71.62,88.08,71.62,88.9Z"/>
    <path d="M76,90.57a1.2,1.2,0,0,1-1-.44,2.35,2.35,0,0,1,0-2.45,1.15,1.15,0,0,1,1-.45,1.16,1.16,0,0,1,1,.48h0a1.85,1.85,0,0,1,0-.24c0-.11,0-.19,0-.24V86h.53v4.56h-.43l-.08-.43h0A1.14,1.14,0,0,1,76,90.57Zm.08-.44a.87.87,0,0,0,.7-.26A1.3,1.3,0,0,0,77,89v-.1a1.56,1.56,0,0,0-.23-1,.84.84,0,0,0-.7-.29.71.71,0,0,0-.63.32,1.64,1.64,0,0,0-.23.93,1.57,1.57,0,0,0,.22.9A.73.73,0,0,0,76.11,90.13Z"/>
    <path d="M80,90.57a1.5,1.5,0,0,1-1.14-.44,1.7,1.7,0,0,1-.41-1.21,1.9,1.9,0,0,1,.38-1.23,1.32,1.32,0,0,1,1-.46,1.29,1.29,0,0,1,1,.39,1.53,1.53,0,0,1,.36,1.06V89H79a1.28,1.28,0,0,0,.27.84,1,1,0,0,0,.75.28,1.94,1.94,0,0,0,.49-.05A2.7,2.7,0,0,0,81,89.9v.46a2.21,2.21,0,0,1-.5.16A3,3,0,0,1,80,90.57Zm-.13-2.9a.75.75,0,0,0-.6.24,1.07,1.07,0,0,0-.26.67h1.63a1,1,0,0,0-.2-.68A.71.71,0,0,0,79.82,87.67Z"/>
    <path d="M82.49,90.51H82V86h.53Z"/>
  </g>
  <g>
    <path d="M216.93,22.55h-4.79V21.5l1.68-1.81.58-.63a5.1,5.1,0,0,0,.44-.56,2.71,2.71,0,0,0,.29-.56,1.7,1.7,0,0,0,.1-.61.72.72,0,0,0-.22-.56.83.83,0,0,0-.58-.2,1.6,1.6,0,0,0-.74.19,4.1,4.1,0,0,0-.75.54l-.82-1c.15-.13.3-.26.46-.38a3.41,3.41,0,0,1,.53-.33,3.58,3.58,0,0,1,.63-.22,3.1,3.1,0,0,1,.78-.09,2.91,2.91,0,0,1,.92.14,2,2,0,0,1,.69.41,1.69,1.69,0,0,1,.45.63,2.19,2.19,0,0,1,.15.83,2.24,2.24,0,0,1-.15.81,3.42,3.42,0,0,1-.4.75,6.3,6.3,0,0,1-.59.73c-.22.24-.46.49-.71.74l-.86.87v.06h2.91Z"/>
    <path d="M217.62,19.52c0-.34,0-.68,0-1a6,6,0,0,1,.2-1,4.27,4.27,0,0,1,.39-.87,2.8,2.8,0,0,1,.63-.7,3,3,0,0,1,.91-.46,4.13,4.13,0,0,1,1.24-.17h.47l.24,0,.21,0v1.2l-.39-.07a3,3,0,0,0-.42,0,3.08,3.08,0,0,0-1.09.17,1.72,1.72,0,0,0-.67.45,1.69,1.69,0,0,0-.35.71,4.07,4.07,0,0,0-.13.91H219a1.5,1.5,0,0,1,.23-.33,1.44,1.44,0,0,1,.33-.27,1.68,1.68,0,0,1,.41-.17,2.12,2.12,0,0,1,.52-.06,2.24,2.24,0,0,1,.84.15,1.56,1.56,0,0,1,.63.44,1.9,1.9,0,0,1,.39.7,3.15,3.15,0,0,1,.14,1,3.11,3.11,0,0,1-.17,1,2.33,2.33,0,0,1-.46.78,2.06,2.06,0,0,1-.74.48,2.61,2.61,0,0,1-1,.17,2.53,2.53,0,0,1-1-.19,2.11,2.11,0,0,1-.8-.57,2.9,2.9,0,0,1-.53-1A4.52,4.52,0,0,1,217.62,19.52Zm2.48,1.93a.86.86,0,0,0,.36-.08.8.8,0,0,0,.29-.23,1,1,0,0,0,.18-.39,1.79,1.79,0,0,0,.07-.55,1.43,1.43,0,0,0-.22-.83.77.77,0,0,0-.66-.3.91.91,0,0,0-.41.09.94.94,0,0,0-.32.23,1,1,0,0,0-.2.32.84.84,0,0,0-.07.35,2.14,2.14,0,0,0,.06.5,1.57,1.57,0,0,0,.18.44,1.06,1.06,0,0,0,.31.32A.78.78,0,0,0,220.1,21.45Z"/>
    <path d="M226.55,18a2.61,2.61,0,0,1-.1.77,1.57,1.57,0,0,1-.31.57,1.4,1.4,0,0,1-.53.35,2,2,0,0,1-.77.13,1.83,1.83,0,0,1-.73-.13,1.4,1.4,0,0,1-.53-.35,1.59,1.59,0,0,1-.32-.57,2.61,2.61,0,0,1-.1-.77,3,3,0,0,1,.09-.76,1.57,1.57,0,0,1,.31-.57,1.37,1.37,0,0,1,.52-.35,2.16,2.16,0,0,1,.76-.12,2.09,2.09,0,0,1,.74.12,1.4,1.4,0,0,1,.53.35,1.47,1.47,0,0,1,.33.57A2.58,2.58,0,0,1,226.55,18Zm-2.21,0a1.17,1.17,0,0,0,.12.6.48.48,0,0,0,.78,0,1.07,1.07,0,0,0,.13-.6c0-.53-.18-.79-.52-.79a.43.43,0,0,0-.39.2A1.16,1.16,0,0,0,224.34,18Zm5.42-1.71-3.91,6.22h-1.12l3.91-6.22Zm1.59,4.5a2.54,2.54,0,0,1-.1.76,1.37,1.37,0,0,1-.84.93,2.22,2.22,0,0,1-.77.12,2,2,0,0,1-.73-.12,1.39,1.39,0,0,1-.52-.36,1.44,1.44,0,0,1-.32-.57,2.8,2.8,0,0,1,0-1.52,1.3,1.3,0,0,1,.82-.92,2.16,2.16,0,0,1,.76-.12,2.09,2.09,0,0,1,.74.12,1.41,1.41,0,0,1,.86.92A2.53,2.53,0,0,1,231.35,20.83Zm-2.21,0a1.17,1.17,0,0,0,.12.6.48.48,0,0,0,.78,0,1.16,1.16,0,0,0,.13-.6c0-.53-.18-.79-.52-.79a.42.42,0,0,0-.39.19A1.17,1.17,0,0,0,229.14,20.84Z"/>
  </g>
  <g>
    <path d="M142,17.74h-2.39V13.45H142v.48h-1.86v1.33h1.75v.47h-1.75v1.53H142Z"/>
    <path d="M145.07,17.74V15.68a.85.85,0,0,0-.17-.58.71.71,0,0,0-.55-.2.89.89,0,0,0-.72.28,1.4,1.4,0,0,0-.22.89v1.67h-.53V14.52h.42l.08.44h0a1,1,0,0,1,.42-.37,1.47,1.47,0,0,1,.6-.13,1,1,0,0,1,1.16,1.18v2.1Z"/>
    <path d="M148.07,14.93h-.81v2.81h-.53V14.93h-.56v-.25l.56-.18v-.18a1.3,1.3,0,0,1,.26-.88,1,1,0,0,1,.79-.29,2,2,0,0,1,.62.1l-.14.42a1.54,1.54,0,0,0-.48-.09.45.45,0,0,0-.39.18.89.89,0,0,0-.13.55v.21h.81Z"/>
    <path d="M151.45,16.12a1.74,1.74,0,0,1-.4,1.23,1.4,1.4,0,0,1-1.1.45,1.47,1.47,0,0,1-.78-.21,1.32,1.32,0,0,1-.51-.58,2.08,2.08,0,0,1-.19-.89,1.77,1.77,0,0,1,.4-1.22,1.41,1.41,0,0,1,1.1-.44,1.38,1.38,0,0,1,1.08.45A1.78,1.78,0,0,1,151.45,16.12Zm-2.43,0a1.49,1.49,0,0,0,.24.92.93.93,0,0,0,1.4,0,1.49,1.49,0,0,0,.24-.92,1.47,1.47,0,0,0-.24-.91.87.87,0,0,0-.71-.31C149.33,14.9,149,15.31,149,16.12Z"/>
    <path d="M153.78,14.46a1.43,1.43,0,0,1,.38,0l-.06.48a2.21,2.21,0,0,0-.35,0,.86.86,0,0,0-.47.14,1.1,1.1,0,0,0-.35.39,1.26,1.26,0,0,0-.12.55v1.72h-.53V14.52h.44l.06.59h0a1.37,1.37,0,0,1,.44-.48A1,1,0,0,1,153.78,14.46Z"/>
    <path d="M156,17.8a1.41,1.41,0,0,1-1.08-.43,1.75,1.75,0,0,1-.39-1.22,1.77,1.77,0,0,1,.4-1.25,1.42,1.42,0,0,1,1.11-.44,2.31,2.31,0,0,1,.46,0,1.42,1.42,0,0,1,.38.12l-.16.44a2.05,2.05,0,0,0-.69-.15.83.83,0,0,0-.72.31,1.52,1.52,0,0,0-.23.91,1.48,1.48,0,0,0,.23.89.8.8,0,0,0,.69.31,1.9,1.9,0,0,0,.83-.19v.47A1.73,1.73,0,0,1,156,17.8Z"/>
    <path d="M157.54,13.65a.3.3,0,0,1,.09-.25.29.29,0,0,1,.22-.08.3.3,0,0,1,.22.08.3.3,0,0,1,.09.25.34.34,0,0,1-.09.26.35.35,0,0,1-.22.08.33.33,0,0,1-.22-.08A.34.34,0,0,1,157.54,13.65Zm.57,4.09h-.53V14.52h.53Z"/>
    <path d="M161.32,17.74V15.68a.85.85,0,0,0-.17-.58.71.71,0,0,0-.55-.2.89.89,0,0,0-.72.28,1.4,1.4,0,0,0-.22.89v1.67h-.53V14.52h.42l.08.44h0a1,1,0,0,1,.42-.37,1.47,1.47,0,0,1,.6-.13,1,1,0,0,1,1.16,1.18v2.1Z"/>
    <path d="M165,17.71v-.4h0a1.13,1.13,0,0,1-1,.49,1.18,1.18,0,0,1-1-.44,1.94,1.94,0,0,1-.35-1.23,2,2,0,0,1,.35-1.22,1.28,1.28,0,0,1,2,0h0l.07-.43h.42v3.27a1.42,1.42,0,0,1-.35,1,1.52,1.52,0,0,1-1.09.35,2.77,2.77,0,0,1-1.16-.21v-.48a2.47,2.47,0,0,0,1.19.25.88.88,0,0,0,.65-.24.9.9,0,0,0,.24-.67Zm-.93-.34a.86.86,0,0,0,.71-.27,1.26,1.26,0,0,0,.22-.84v-.13a1.54,1.54,0,0,0-.22-.93.84.84,0,0,0-.72-.3.69.69,0,0,0-.62.33,1.55,1.55,0,0,0-.22.91,1.63,1.63,0,0,0,.21.91A.73.73,0,0,0,164.06,17.37Z"/>
    <path d="M170.18,16.85a.83.83,0,0,1-.33.7,1.63,1.63,0,0,1-.95.25,2.08,2.08,0,0,1-1-.21v-.48a2.21,2.21,0,0,0,1,.26,1,1,0,0,0,.58-.13.41.41,0,0,0,0-.67,3.6,3.6,0,0,0-.62-.3,2.77,2.77,0,0,1-.64-.3.8.8,0,0,1-.27-.28.74.74,0,0,1-.09-.38.71.71,0,0,1,.33-.62,1.51,1.51,0,0,1,.88-.23,2.38,2.38,0,0,1,1,.22l-.18.42a2.28,2.28,0,0,0-.88-.21,1,1,0,0,0-.5.11.3.3,0,0,0-.17.28.36.36,0,0,0,.14.29,2.83,2.83,0,0,0,.69.32,3.7,3.7,0,0,1,.59.28,1,1,0,0,1,.28.29A.8.8,0,0,1,170.18,16.85Z"/>
    <path d="M172.33,17.8a1.48,1.48,0,0,1-1.13-.44,1.68,1.68,0,0,1-.42-1.21,1.85,1.85,0,0,1,.39-1.23,1.29,1.29,0,0,1,1-.46,1.24,1.24,0,0,1,1,.39,1.51,1.51,0,0,1,.36,1.06v.32h-2.2a1.2,1.2,0,0,0,.28.83,1,1,0,0,0,.74.29,2.46,2.46,0,0,0,.49-.05,2.68,2.68,0,0,0,.55-.18v.47a3,3,0,0,1-.51.16A2.87,2.87,0,0,1,172.33,17.8Zm-.13-2.91a.76.76,0,0,0-.6.25,1.17,1.17,0,0,0-.26.67H173a1,1,0,0,0-.21-.68A.69.69,0,0,0,172.2,14.89Z"/>
    <path d="M175.64,17.8a1.41,1.41,0,0,1-1.09-.43,1.8,1.8,0,0,1-.38-1.22,1.82,1.82,0,0,1,.39-1.25,1.42,1.42,0,0,1,1.11-.44,2.5,2.5,0,0,1,.47,0,1.55,1.55,0,0,1,.38.12l-.16.44a2.15,2.15,0,0,0-.7-.15.85.85,0,0,0-.72.31,1.52,1.52,0,0,0-.23.91,1.48,1.48,0,0,0,.23.89.81.81,0,0,0,.69.31,1.9,1.9,0,0,0,.83-.19v.47A1.69,1.69,0,0,1,175.64,17.8Z"/>
    <path d="M177.72,14.52v2.07a.82.82,0,0,0,.18.58.7.7,0,0,0,.54.19.86.86,0,0,0,.72-.28,1.38,1.38,0,0,0,.23-.88V14.52h.53v3.22h-.44l-.07-.43h0a.9.9,0,0,1-.41.36,1.44,1.44,0,0,1-.61.13,1.23,1.23,0,0,1-.87-.28,1.17,1.17,0,0,1-.3-.89V14.52Z"/>
    <path d="M182.44,14.46a1.4,1.4,0,0,1,.37,0l-.06.48a2.21,2.21,0,0,0-.35,0,.86.86,0,0,0-.47.14,1,1,0,0,0-.34.39,1.14,1.14,0,0,0-.13.55v1.72h-.52V14.52h.43l.06.59h0a1.37,1.37,0,0,1,.44-.48A1,1,0,0,1,182.44,14.46Z"/>
    <path d="M183.37,13.65a.3.3,0,0,1,.09-.25.3.3,0,0,1,.22-.08.29.29,0,0,1,.22.08.3.3,0,0,1,.09.25.34.34,0,0,1-.09.26.33.33,0,0,1-.22.08.35.35,0,0,1-.22-.08A.34.34,0,0,1,183.37,13.65Zm.57,4.09h-.53V14.52h.53Z"/>
    <path d="M186,17.37l.24,0a.69.69,0,0,0,.2,0v.4a.66.66,0,0,1-.22.06,1.15,1.15,0,0,1-.31,0c-.63,0-.95-.34-.95-1V14.93h-.45v-.25l.46-.21.21-.69h.31v.74h.93v.41h-.93v1.86a.63.63,0,0,0,.14.43A.45.45,0,0,0,186,17.37Z"/>
    <path d="M186.62,14.52h.57l.69,1.83a5.13,5.13,0,0,1,.27.88h0l.12-.41.16-.47.66-1.83h.56l-1.38,3.66a2,2,0,0,1-.48.77,1.08,1.08,0,0,1-.69.23,2.2,2.2,0,0,1-.44-.05v-.42a1.79,1.79,0,0,0,.36,0,.66.66,0,0,0,.42-.14,1,1,0,0,0,.29-.43l.17-.43Z"/>
    <path d="M193.73,17.74l-.1-.46h0a1.35,1.35,0,0,1-.48.41,1.5,1.5,0,0,1-.6.11,1.08,1.08,0,0,1-.74-.25.92.92,0,0,1-.27-.71c0-.65.51-1,1.54-1l.55,0v-.19a.79.79,0,0,0-.16-.54.65.65,0,0,0-.51-.18,1.51,1.51,0,0,0-.48.08l-.43.17-.16-.4a3.05,3.05,0,0,1,.53-.2,2.22,2.22,0,0,1,.57-.07,1.22,1.22,0,0,1,.87.26,1,1,0,0,1,.28.82v2.19Zm-1.09-.37a1,1,0,0,0,.7-.24.88.88,0,0,0,.25-.68v-.29l-.47,0a1.86,1.86,0,0,0-.81.18.53.53,0,0,0-.25.49.5.5,0,0,0,.15.39A.63.63,0,0,0,192.64,17.37Z"/>
    <path d="M197.3,17.74V15.68a.85.85,0,0,0-.17-.58.71.71,0,0,0-.55-.2.89.89,0,0,0-.72.28,1.4,1.4,0,0,0-.22.89v1.67h-.53V14.52h.42l.08.44h0a1,1,0,0,1,.42-.37,1.47,1.47,0,0,1,.6-.13,1,1,0,0,1,1.16,1.18v2.1Z"/>
    <path d="M200,17.8a1.17,1.17,0,0,1-1-.44,1.88,1.88,0,0,1-.35-1.23A2,2,0,0,1,199,14.9a1.17,1.17,0,0,1,1-.44,1.15,1.15,0,0,1,1,.48h0a1.85,1.85,0,0,1,0-.24c0-.12,0-.2,0-.24V13.18h.53v4.56h-.43l-.08-.43h0A1.15,1.15,0,0,1,200,17.8Zm.08-.44a.87.87,0,0,0,.7-.26,1.32,1.32,0,0,0,.23-.86v-.1a1.57,1.57,0,0,0-.23-1,.83.83,0,0,0-.7-.28.73.73,0,0,0-.63.32,1.64,1.64,0,0,0-.23.93,1.51,1.51,0,0,0,.23.9A.71.71,0,0,0,200,17.36Z"/>
    <path d="M137.3,23.32a1.78,1.78,0,0,1-.39,1.23,1.56,1.56,0,0,1-1.88.24,1.34,1.34,0,0,1-.52-.58,2.08,2.08,0,0,1-.18-.89,1.77,1.77,0,0,1,.39-1.22,1.41,1.41,0,0,1,1.1-.44,1.35,1.35,0,0,1,1.08.45A1.73,1.73,0,0,1,137.3,23.32Zm-2.42,0a1.54,1.54,0,0,0,.23.92.94.94,0,0,0,1.41,0,1.86,1.86,0,0,0,0-1.83.87.87,0,0,0-.71-.31C135.19,22.1,134.88,22.51,134.88,23.32Z"/>
    <path d="M139.66,25a1.16,1.16,0,0,1-1-.47h0v.12a3.17,3.17,0,0,1,0,.41v1.32h-.53V21.72h.43l.07.44h0a1.1,1.1,0,0,1,.43-.38,1.26,1.26,0,0,1,.57-.12,1.17,1.17,0,0,1,1,.44,2.32,2.32,0,0,1,0,2.45A1.17,1.17,0,0,1,139.66,25Zm-.09-2.9a.85.85,0,0,0-.69.27,1.4,1.4,0,0,0-.21.85v.1a1.67,1.67,0,0,0,.21.95.84.84,0,0,0,.71.29.72.72,0,0,0,.63-.33,1.59,1.59,0,0,0,.22-.91,1.49,1.49,0,0,0-.22-.9A.76.76,0,0,0,139.57,22.1Z"/>
    <path d="M143.2,25a1.51,1.51,0,0,1-1.14-.44,1.72,1.72,0,0,1-.41-1.21,1.85,1.85,0,0,1,.39-1.23,1.29,1.29,0,0,1,1-.46,1.25,1.25,0,0,1,1,.39,1.51,1.51,0,0,1,.36,1.06v.32h-2.2a1.25,1.25,0,0,0,.27.83,1,1,0,0,0,.75.29,2.54,2.54,0,0,0,.49-.05,3,3,0,0,0,.54-.17v.46a2.63,2.63,0,0,1-.5.16A2.87,2.87,0,0,1,143.2,25Zm-.13-2.91a.74.74,0,0,0-.6.25,1.11,1.11,0,0,0-.26.67h1.64a1.08,1.08,0,0,0-.21-.68A.72.72,0,0,0,143.07,22.09Z"/>
    <path d="M146.71,21.66a1.43,1.43,0,0,1,.38,0l-.06.48a2.21,2.21,0,0,0-.35,0,.86.86,0,0,0-.47.14,1.1,1.1,0,0,0-.35.39,1.26,1.26,0,0,0-.12.55v1.72h-.53V21.72h.44l.06.59h0a1.37,1.37,0,0,1,.44-.48A1,1,0,0,1,146.71,21.66Z"/>
    <path d="M149.62,24.94l-.1-.46h0a1.42,1.42,0,0,1-.47.41,1.51,1.51,0,0,1-.61.11,1.08,1.08,0,0,1-.74-.25.92.92,0,0,1-.27-.71c0-.65.51-1,1.54-1l.55,0v-.19a.74.74,0,0,0-.16-.54.65.65,0,0,0-.51-.18,1.51,1.51,0,0,0-.48.08,4.08,4.08,0,0,0-.42.17l-.17-.4a3.05,3.05,0,0,1,.53-.2,2.34,2.34,0,0,1,.57-.07,1.22,1.22,0,0,1,.87.26,1,1,0,0,1,.28.82v2.19Zm-1.09-.37a1,1,0,0,0,.7-.24.88.88,0,0,0,.25-.68v-.29l-.47,0a1.86,1.86,0,0,0-.81.18.53.53,0,0,0-.25.49.5.5,0,0,0,.15.39A.63.63,0,0,0,148.53,24.57Z"/>
    <path d="M152.08,24.57l.24,0a.69.69,0,0,0,.2,0v.4a.75.75,0,0,1-.22.06,1.17,1.17,0,0,1-.32,0c-.62,0-.94-.33-.94-1V22.13h-.45v-.25l.46-.21.21-.69h.31v.74h.93v.41h-.93V24a.63.63,0,0,0,.14.43A.45.45,0,0,0,152.08,24.57Z"/>
    <path d="M153.12,20.85a.3.3,0,0,1,.09-.25.3.3,0,0,1,.22-.08.29.29,0,0,1,.22.08.3.3,0,0,1,.09.25.34.34,0,0,1-.09.26.33.33,0,0,1-.22.08.35.35,0,0,1-.22-.08A.34.34,0,0,1,153.12,20.85Zm.57,4.09h-.52V21.72h.52Z"/>
    <path d="M157.51,23.32a1.78,1.78,0,0,1-.4,1.23A1.4,1.4,0,0,1,156,25a1.47,1.47,0,0,1-.78-.21,1.4,1.4,0,0,1-.52-.58,2.08,2.08,0,0,1-.18-.89,1.73,1.73,0,0,1,.4-1.22,1.56,1.56,0,0,1,2.18,0A1.78,1.78,0,0,1,157.51,23.32Zm-2.43,0a1.47,1.47,0,0,0,.24.92.93.93,0,0,0,1.4,0,1.86,1.86,0,0,0,0-1.83.87.87,0,0,0-.71-.31C155.39,22.1,155.08,22.51,155.08,23.32Z"/>
    <path d="M160.53,24.94V22.88a.85.85,0,0,0-.17-.58.71.71,0,0,0-.55-.2.89.89,0,0,0-.72.28,1.4,1.4,0,0,0-.22.89v1.67h-.53V21.72h.43l.08.44h0a.93.93,0,0,1,.41-.37,1.47,1.47,0,0,1,.6-.13,1,1,0,0,1,1.16,1.18v2.1Z"/>
    <path d="M164.15,24.05a.84.84,0,0,1-.34.7,1.63,1.63,0,0,1-.95.25,2.08,2.08,0,0,1-1-.21v-.48a2.27,2.27,0,0,0,1,.26,1,1,0,0,0,.58-.13.38.38,0,0,0,.19-.34.4.4,0,0,0-.18-.33,3.25,3.25,0,0,0-.62-.3,3,3,0,0,1-.64-.3.8.8,0,0,1-.27-.28.86.86,0,0,1-.08-.38.71.71,0,0,1,.32-.62,1.51,1.51,0,0,1,.88-.23,2.38,2.38,0,0,1,1,.22l-.18.42a2.28,2.28,0,0,0-.88-.21,1,1,0,0,0-.5.11.32.32,0,0,0-.17.28.34.34,0,0,0,.15.29,2.53,2.53,0,0,0,.68.32,3.32,3.32,0,0,1,.59.28,1,1,0,0,1,.28.29A.71.71,0,0,1,164.15,24.05Z"/>
    <path d="M169.28,23.32a1.74,1.74,0,0,1-.4,1.23,1.4,1.4,0,0,1-1.1.45,1.47,1.47,0,0,1-.78-.21,1.32,1.32,0,0,1-.51-.58,2.08,2.08,0,0,1-.19-.89,1.77,1.77,0,0,1,.4-1.22,1.41,1.41,0,0,1,1.1-.44,1.38,1.38,0,0,1,1.08.45A1.78,1.78,0,0,1,169.28,23.32Zm-2.43,0a1.47,1.47,0,0,0,.24.92.93.93,0,0,0,1.4,0,1.86,1.86,0,0,0,0-1.83.87.87,0,0,0-.71-.31C167.16,22.1,166.85,22.51,166.85,23.32Z"/>
    <path d="M171.64,21.67a1.16,1.16,0,0,1,1,.44,1.92,1.92,0,0,1,.34,1.22,1.88,1.88,0,0,1-.35,1.23,1.18,1.18,0,0,1-1,.44,1.34,1.34,0,0,1-.58-.12,1.1,1.1,0,0,1-.42-.35h0l-.11.41h-.38V20.38h.53v1.11q0,.33,0,.66h0A1.13,1.13,0,0,1,171.64,21.67Zm-.09.43a.83.83,0,0,0-.7.28,1.55,1.55,0,0,0-.21.93v0a1.56,1.56,0,0,0,.22,1,.81.81,0,0,0,.7.28.75.75,0,0,0,.65-.32,1.67,1.67,0,0,0,.21-.92,1.61,1.61,0,0,0-.21-.91A.78.78,0,0,0,171.55,22.1Z"/>
    <path d="M175.9,24.05a.81.81,0,0,1-.34.7,1.59,1.59,0,0,1-.94.25,2.05,2.05,0,0,1-1-.21v-.48a2.21,2.21,0,0,0,1,.26,1,1,0,0,0,.58-.13.39.39,0,0,0,.18-.34.4.4,0,0,0-.18-.33,3.41,3.41,0,0,0-.61-.3,2.58,2.58,0,0,1-.64-.3.66.66,0,0,1-.27-.28.74.74,0,0,1-.09-.38.73.73,0,0,1,.32-.62,1.54,1.54,0,0,1,.89-.23,2.37,2.37,0,0,1,1,.22l-.18.42a2.24,2.24,0,0,0-.88-.21,1,1,0,0,0-.5.11.32.32,0,0,0-.17.28.34.34,0,0,0,.15.29,2.9,2.9,0,0,0,.68.32,3.48,3.48,0,0,1,.6.28,1.09,1.09,0,0,1,.28.29A.8.8,0,0,1,175.9,24.05Z"/>
    <path d="M178.05,25a1.5,1.5,0,0,1-1.14-.44,1.72,1.72,0,0,1-.41-1.21,1.9,1.9,0,0,1,.38-1.23,1.32,1.32,0,0,1,1-.46,1.25,1.25,0,0,1,1,.39,1.51,1.51,0,0,1,.36,1.06v.32H177a1.25,1.25,0,0,0,.28.83,1,1,0,0,0,.75.29,2.54,2.54,0,0,0,.49-.05,3.57,3.57,0,0,0,.54-.17v.46a2.87,2.87,0,0,1-.5.16A3,3,0,0,1,178.05,25Zm-.13-2.91a.73.73,0,0,0-.6.25,1,1,0,0,0-.26.67h1.63a1,1,0,0,0-.2-.68A.72.72,0,0,0,177.92,22.09Z"/>
    <path d="M181.56,21.66a1.43,1.43,0,0,1,.38,0l-.06.48a2.21,2.21,0,0,0-.35,0,.92.92,0,0,0-.48.14,1.07,1.07,0,0,0-.34.39,1.26,1.26,0,0,0-.12.55v1.72h-.53V21.72h.44l.05.59h0a1.45,1.45,0,0,1,.43-.48A1,1,0,0,1,181.56,21.66Z"/>
    <path d="M183.25,24.94,182,21.72h.57l.68,1.9a8.38,8.38,0,0,1,.26.85h0s0-.06,0-.09l0-.1s.09-.26.22-.66l.69-1.9h.56l-1.22,3.22Z"/>
    <path d="M187.57,24.94l-.1-.46h0a1.35,1.35,0,0,1-.48.41,1.5,1.5,0,0,1-.6.11,1.09,1.09,0,0,1-.75-.25.92.92,0,0,1-.27-.71c0-.65.52-1,1.55-1l.54,0v-.19a.74.74,0,0,0-.16-.54.62.62,0,0,0-.5-.18,1.62,1.62,0,0,0-.49.08,4.08,4.08,0,0,0-.42.17l-.16-.4a2.77,2.77,0,0,1,.53-.2,2.22,2.22,0,0,1,.57-.07,1.2,1.2,0,0,1,.86.26,1,1,0,0,1,.29.82v2.19Zm-1.08-.37a1,1,0,0,0,.69-.24.88.88,0,0,0,.26-.68v-.29l-.48,0a1.86,1.86,0,0,0-.81.18.55.55,0,0,0-.25.49.5.5,0,0,0,.15.39A.66.66,0,0,0,186.49,24.57Z"/>
    <path d="M190.48,21.67a1.16,1.16,0,0,1,1,.44,1.92,1.92,0,0,1,.34,1.22,1.88,1.88,0,0,1-.35,1.23,1.18,1.18,0,0,1-1,.44,1.34,1.34,0,0,1-.58-.12,1.1,1.1,0,0,1-.42-.35h0l-.11.41H189V20.38h.53v1.11q0,.33,0,.66h0A1.13,1.13,0,0,1,190.48,21.67Zm-.09.43a.85.85,0,0,0-.7.28,1.55,1.55,0,0,0-.21.93v0a1.56,1.56,0,0,0,.22,1,.82.82,0,0,0,.7.28.73.73,0,0,0,.65-.32,1.67,1.67,0,0,0,.21-.92,1.61,1.61,0,0,0-.21-.91A.78.78,0,0,0,190.39,22.1Z"/>
    <path d="M192.6,20.85a.3.3,0,0,1,.09-.25.31.31,0,0,1,.23-.08.28.28,0,0,1,.21.08.3.3,0,0,1,.09.25.34.34,0,0,1-.09.26.32.32,0,0,1-.21.08.36.36,0,0,1-.23-.08A.34.34,0,0,1,192.6,20.85Zm.57,4.09h-.52V21.72h.52Z"/>
    <path d="M194.72,24.94h-.53V20.38h.53Z"/>
    <path d="M195.7,20.85a.3.3,0,0,1,.09-.25.29.29,0,0,1,.22-.08.31.31,0,0,1,.31.33.31.31,0,0,1-.1.26.32.32,0,0,1-.21.08.33.33,0,0,1-.22-.08A.34.34,0,0,1,195.7,20.85Zm.57,4.09h-.53V21.72h.53Z"/>
    <path d="M198.36,24.57l.24,0a.87.87,0,0,0,.21,0v.4a.74.74,0,0,1-.23.06,1.06,1.06,0,0,1-.31,0c-.63,0-.94-.33-.94-1V22.13h-.46v-.25l.46-.21.21-.69h.32v.74h.93v.41h-.93V24a.63.63,0,0,0,.13.43A.47.47,0,0,0,198.36,24.57Z"/>
    <path d="M199,21.72h.56l.7,1.83a8,8,0,0,1,.27.88h0l.12-.41c.06-.2.12-.35.16-.47l.65-1.83H202l-1.39,3.66a1.76,1.76,0,0,1-.48.77,1,1,0,0,1-.68.23,2.12,2.12,0,0,1-.44-.05v-.42a1.69,1.69,0,0,0,.35,0,.69.69,0,0,0,.43-.14,1.08,1.08,0,0,0,.29-.43l.16-.43Z"/>
  </g>
  <g>
    <path d="M216.93,42.34h-4.79V41.29l1.68-1.81.58-.63a6.26,6.26,0,0,0,.44-.56,3,3,0,0,0,.29-.56,1.74,1.74,0,0,0,.1-.61.7.7,0,0,0-.22-.56.79.79,0,0,0-.58-.2,1.48,1.48,0,0,0-.74.19,3.32,3.32,0,0,0-.75.54l-.82-1c.15-.14.3-.26.46-.39a2.76,2.76,0,0,1,.53-.32,2.93,2.93,0,0,1,.63-.23,3.12,3.12,0,0,1,.78-.08,2.65,2.65,0,0,1,.92.14,2,2,0,0,1,.69.4,1.87,1.87,0,0,1,.45.63,2.24,2.24,0,0,1,.15.84,2.15,2.15,0,0,1-.15.8,3,3,0,0,1-.4.75,6.37,6.37,0,0,1-.59.74c-.22.24-.46.48-.71.74L214,41v.07h2.91Z"/>
    <path d="M222.54,40.86h-.85v1.48h-1.47V40.86h-2.95v-1l3-4.61h1.39v4.49h.85Zm-2.32-1.17v-1.4a2.62,2.62,0,0,1,0-.27c0-.1,0-.2,0-.31s0-.21,0-.31,0-.18,0-.26,0-.12,0-.15h0l-.2.43c-.08.15-.16.31-.25.46l-1.2,1.81Z"/>
    <path d="M226.55,37.82a2.59,2.59,0,0,1-.1.76,1.42,1.42,0,0,1-.31.57,1.32,1.32,0,0,1-.53.36,2.22,2.22,0,0,1-.77.12,2,2,0,0,1-.73-.12,1.32,1.32,0,0,1-.53-.36,1.44,1.44,0,0,1-.32-.57,2.59,2.59,0,0,1-.1-.76,3,3,0,0,1,.09-.77,1.45,1.45,0,0,1,.31-.56,1.26,1.26,0,0,1,.52-.35,2.15,2.15,0,0,1,.76-.13,2.08,2.08,0,0,1,.74.13,1.3,1.3,0,0,1,.53.35,1.37,1.37,0,0,1,.33.56A2.6,2.6,0,0,1,226.55,37.82Zm-2.21,0a1.16,1.16,0,0,0,.12.59.41.41,0,0,0,.39.2.42.42,0,0,0,.39-.19,1.07,1.07,0,0,0,.13-.6c0-.53-.18-.79-.52-.79a.42.42,0,0,0-.39.19A1.17,1.17,0,0,0,224.34,37.83Zm5.42-1.71-3.91,6.22h-1.12l3.91-6.22Zm1.59,4.49a2.61,2.61,0,0,1-.1.77,1.57,1.57,0,0,1-.31.57,1.4,1.4,0,0,1-.53.35,2.21,2.21,0,0,1-.77.13,2,2,0,0,1-.73-.13,1.37,1.37,0,0,1-.52-.35,1.59,1.59,0,0,1-.32-.57,2.84,2.84,0,0,1,0-1.53,1.32,1.32,0,0,1,.3-.56,1.39,1.39,0,0,1,.52-.36,2.16,2.16,0,0,1,.76-.12,2.09,2.09,0,0,1,.74.12,1.42,1.42,0,0,1,.53.36,1.37,1.37,0,0,1,.33.56A2.58,2.58,0,0,1,231.35,40.61Zm-2.21,0a1.17,1.17,0,0,0,.12.6.48.48,0,0,0,.78,0,1.16,1.16,0,0,0,.13-.6c0-.52-.18-.79-.52-.79a.43.43,0,0,0-.39.2A1.16,1.16,0,0,0,229.14,40.62Z"/>
  </g>
  <g>
    <path d="M192,37.72a1.36,1.36,0,0,0-1.09.47,2.24,2.24,0,0,0,0,2.54,1.35,1.35,0,0,0,1.09.45,3.74,3.74,0,0,0,1-.17v.47a2.89,2.89,0,0,1-.52.14,5.09,5.09,0,0,1-.58,0,1.85,1.85,0,0,1-1.46-.57,2.39,2.39,0,0,1-.51-1.63,2.64,2.64,0,0,1,.24-1.16,1.76,1.76,0,0,1,.71-.77,2.16,2.16,0,0,1,1.1-.27,2.61,2.61,0,0,1,1.19.25l-.22.46A2.3,2.3,0,0,0,192,37.72Z"/>
    <path d="M196.64,40a1.78,1.78,0,0,1-.4,1.23,1.4,1.4,0,0,1-1.1.44,1.44,1.44,0,0,1-.78-.2,1.4,1.4,0,0,1-.52-.58,2.08,2.08,0,0,1-.18-.89,1.77,1.77,0,0,1,.39-1.22,1.43,1.43,0,0,1,1.11-.44,1.38,1.38,0,0,1,1.08.45A1.76,1.76,0,0,1,196.64,40Zm-2.43,0a1.51,1.51,0,0,0,.24.92.93.93,0,0,0,1.4,0,1.51,1.51,0,0,0,.24-.92,1.45,1.45,0,0,0-.24-.91.84.84,0,0,0-.71-.31C194.52,38.76,194.21,39.17,194.21,40Z"/>
    <path d="M199.57,40.71a.84.84,0,0,1-.34.7,1.63,1.63,0,0,1-.95.24,2.09,2.09,0,0,1-1-.2V41a2.37,2.37,0,0,0,1,.26,1,1,0,0,0,.58-.13.4.4,0,0,0,0-.67,2.36,2.36,0,0,0-.62-.3,4.49,4.49,0,0,1-.64-.3.89.89,0,0,1-.27-.28.74.74,0,0,1-.08-.38.71.71,0,0,1,.32-.62,1.51,1.51,0,0,1,.88-.23,2.38,2.38,0,0,1,1,.22l-.18.42a2.28,2.28,0,0,0-.88-.21,1.07,1.07,0,0,0-.5.1.34.34,0,0,0-.17.29.35.35,0,0,0,.15.29,2.53,2.53,0,0,0,.68.32,2.74,2.74,0,0,1,.59.28.85.85,0,0,1,.28.29A.71.71,0,0,1,199.57,40.71Z"/>
    <path d="M201.42,41.22a1.06,1.06,0,0,0,.24,0l.21,0v.4l-.23.06a1.63,1.63,0,0,1-.31,0c-.63,0-.94-.33-.94-1V38.79h-.46v-.25l.46-.21.21-.69h.32v.74h.92v.41h-.92v1.86a.6.6,0,0,0,.13.42A.47.47,0,0,0,201.42,41.22Z"/>
  </g>
  <g>
    <path d="M216.93,65.36h-4.79v-1l1.68-1.81.58-.63a5.1,5.1,0,0,0,.44-.56,2.71,2.71,0,0,0,.29-.56,1.7,1.7,0,0,0,.1-.61.72.72,0,0,0-.22-.56.83.83,0,0,0-.58-.2,1.6,1.6,0,0,0-.74.19,3.75,3.75,0,0,0-.75.55l-.82-1c.15-.13.3-.26.46-.38a2.76,2.76,0,0,1,.53-.32,2.93,2.93,0,0,1,.63-.23,3.1,3.1,0,0,1,.78-.09,2.91,2.91,0,0,1,.92.14,2,2,0,0,1,.69.41,1.69,1.69,0,0,1,.45.63,2.23,2.23,0,0,1,.15.83,2.2,2.2,0,0,1-.15.81,3.42,3.42,0,0,1-.4.75,5.55,5.55,0,0,1-.59.73c-.22.25-.46.49-.71.74L214,64v.06h2.91Z"/>
    <path d="M222.54,63.88h-.85v1.48h-1.47V63.88h-2.95V62.83l3-4.6h1.39v4.48h.85Zm-2.32-1.17V61.32a2.62,2.62,0,0,1,0-.27c0-.1,0-.21,0-.31s0-.21,0-.31,0-.18,0-.26,0-.13,0-.16h0l-.2.44-.25.46-1.2,1.8Z"/>
    <path d="M226.55,60.84a2.61,2.61,0,0,1-.1.77,1.57,1.57,0,0,1-.31.57,1.4,1.4,0,0,1-.53.35,2,2,0,0,1-.77.13,1.83,1.83,0,0,1-.73-.13,1.4,1.4,0,0,1-.53-.35,1.59,1.59,0,0,1-.32-.57,2.61,2.61,0,0,1-.1-.77,3,3,0,0,1,.09-.76,1.57,1.57,0,0,1,.31-.57,1.37,1.37,0,0,1,.52-.35,2.16,2.16,0,0,1,.76-.12,2.09,2.09,0,0,1,.74.12,1.4,1.4,0,0,1,.53.35,1.47,1.47,0,0,1,.33.57A2.58,2.58,0,0,1,226.55,60.84Zm-2.21,0a1.17,1.17,0,0,0,.12.6.48.48,0,0,0,.78,0,1.07,1.07,0,0,0,.13-.6c0-.52-.18-.79-.52-.79a.43.43,0,0,0-.39.2A1.16,1.16,0,0,0,224.34,60.85Zm5.42-1.71-3.91,6.22h-1.12l3.91-6.22Zm1.59,4.5a2.54,2.54,0,0,1-.1.76,1.42,1.42,0,0,1-.31.57,1.32,1.32,0,0,1-.53.36,2.22,2.22,0,0,1-.77.12,2,2,0,0,1-.73-.12,1.28,1.28,0,0,1-.52-.36,1.44,1.44,0,0,1-.32-.57,2.8,2.8,0,0,1,0-1.52,1.3,1.3,0,0,1,.82-.92,2.16,2.16,0,0,1,.76-.12,2.09,2.09,0,0,1,.74.12,1.41,1.41,0,0,1,.86.92A2.53,2.53,0,0,1,231.35,63.64Zm-2.21,0a1.17,1.17,0,0,0,.12.6.48.48,0,0,0,.78,0,1.16,1.16,0,0,0,.13-.6c0-.53-.18-.79-.52-.79a.42.42,0,0,0-.39.19A1.17,1.17,0,0,0,229.14,63.65Z"/>
  </g>
  <g>
    <path d="M132.29,61.45H129.9V57.17h2.39v.47h-1.85V59h1.75v.47h-1.75V61h1.85Z"/>
    <path d="M135.36,61.45V59.4a.83.83,0,0,0-.18-.59.71.71,0,0,0-.55-.19.85.85,0,0,0-.71.27,1.43,1.43,0,0,0-.23.9v1.66h-.53V58.24h.43l.08.43h0a1,1,0,0,1,.42-.36,1.28,1.28,0,0,1,.59-.13,1.19,1.19,0,0,1,.88.28,1.25,1.25,0,0,1,.29.9v2.09Z"/>
    <path d="M139,60.56a.79.79,0,0,1-.34.7,1.54,1.54,0,0,1-.95.25,2.21,2.21,0,0,1-1-.2v-.48a2.41,2.41,0,0,0,1,.26,1.08,1.08,0,0,0,.58-.13.41.41,0,0,0,.18-.35.38.38,0,0,0-.18-.32,2.36,2.36,0,0,0-.62-.3,3.79,3.79,0,0,1-.63-.3.93.93,0,0,1-.28-.28.89.89,0,0,1-.08-.38.73.73,0,0,1,.32-.62,1.47,1.47,0,0,1,.89-.23,2.52,2.52,0,0,1,1,.21l-.18.42a2.4,2.4,0,0,0-.88-.2,1,1,0,0,0-.5.1.34.34,0,0,0-.17.29.36.36,0,0,0,.15.29,3.12,3.12,0,0,0,.68.32,2.52,2.52,0,0,1,.59.28.8.8,0,0,1,.29.29A.76.76,0,0,1,139,60.56Z"/>
    <path d="M140.25,58.24v2.07a.82.82,0,0,0,.17.58.73.73,0,0,0,.54.18.89.89,0,0,0,.72-.27,1.4,1.4,0,0,0,.23-.89V58.24h.53v3.21H142l-.07-.42h0a.94.94,0,0,1-.41.35,1.31,1.31,0,0,1-.61.13,1.18,1.18,0,0,1-.87-.28,1.15,1.15,0,0,1-.3-.89v-2.1Z"/>
    <path d="M145,58.18a2.05,2.05,0,0,1,.37,0l-.06.49a1.45,1.45,0,0,0-.35,0,.79.79,0,0,0-.47.14.87.87,0,0,0-.34.39,1.09,1.09,0,0,0-.13.55v1.71h-.52V58.24h.43l.06.58h0a1.37,1.37,0,0,1,.44-.48A1,1,0,0,1,145,58.18Z"/>
    <path d="M145.89,57.37a.33.33,0,0,1,.09-.26.35.35,0,0,1,.22-.08.3.3,0,0,1,.31.34.32.32,0,0,1-.09.25.33.33,0,0,1-.22.08.35.35,0,0,1-.22-.08A.32.32,0,0,1,145.89,57.37Zm.57,4.08h-.53V58.24h.53Z"/>
    <path d="M149.67,61.45V59.4a.83.83,0,0,0-.17-.59.71.71,0,0,0-.55-.19.89.89,0,0,0-.72.27,1.43,1.43,0,0,0-.22.9v1.66h-.53V58.24h.43l.08.43h0a1,1,0,0,1,.42-.36,1.32,1.32,0,0,1,.6-.13,1.21,1.21,0,0,1,.88.28,1.25,1.25,0,0,1,.28.9v2.09Z"/>
    <path d="M153.34,61.42l0-.39h0a1.11,1.11,0,0,1-1,.48,1.19,1.19,0,0,1-1-.43,1.94,1.94,0,0,1-.35-1.23,1.92,1.92,0,0,1,.36-1.23,1.16,1.16,0,0,1,1-.44,1.18,1.18,0,0,1,1,.48h0l.07-.42h.42V61.5a1.4,1.4,0,0,1-.35,1,1.46,1.46,0,0,1-1.09.35,2.81,2.81,0,0,1-1.16-.2V62.2a2.5,2.5,0,0,0,1.19.25.83.83,0,0,0,.89-.9Zm-.92-.34a.88.88,0,0,0,.7-.26,1.3,1.3,0,0,0,.22-.84v-.13a1.57,1.57,0,0,0-.22-.94.86.86,0,0,0-.72-.29.72.72,0,0,0-.62.32,1.58,1.58,0,0,0-.22.92,1.66,1.66,0,0,0,.21.91A.74.74,0,0,0,152.42,61.08Z"/>
    <path d="M157.52,61.08l.24,0A.64.64,0,0,0,158,61v.41l-.22.06a1.73,1.73,0,0,1-.32,0c-.62,0-.94-.33-.94-1V58.65H156v-.26l.46-.21.21-.68H157v.74h.93v.41H157V60.5a.67.67,0,0,0,.13.43A.49.49,0,0,0,157.52,61.08Z"/>
    <path d="M160.8,61.45V59.4a.83.83,0,0,0-.18-.59.68.68,0,0,0-.54-.19.89.89,0,0,0-.72.27,1.41,1.41,0,0,0-.23.9v1.66h-.52V56.89h.52v1.34a2.81,2.81,0,0,1,0,.45h0a.93.93,0,0,1,.41-.37,1.38,1.38,0,0,1,.59-.13,1.25,1.25,0,0,1,.88.28,1.19,1.19,0,0,1,.3.9v2.09Z"/>
    <path d="M163.68,61.51a1.44,1.44,0,0,1-1.13-.44,1.65,1.65,0,0,1-.41-1.2,1.81,1.81,0,0,1,.38-1.23,1.28,1.28,0,0,1,1-.46,1.24,1.24,0,0,1,1,.39,1.5,1.5,0,0,1,.36,1.06V60h-2.2a1.22,1.22,0,0,0,.28.83,1,1,0,0,0,.75.28,2.63,2.63,0,0,0,.49,0,2.82,2.82,0,0,0,.54-.18v.46a2.39,2.39,0,0,1-.5.16A2.33,2.33,0,0,1,163.68,61.51Zm-.13-2.9a.78.78,0,0,0-.6.24,1.2,1.2,0,0,0-.26.68h1.64a1,1,0,0,0-.21-.69A.72.72,0,0,0,163.55,58.61Z"/>
    <path d="M168.76,58.18a2,2,0,0,1,.37,0l-.06.49a1.45,1.45,0,0,0-.35,0,.79.79,0,0,0-.47.14.87.87,0,0,0-.34.39,1.21,1.21,0,0,0-.13.55v1.71h-.52V58.24h.43l.06.58h0a1.47,1.47,0,0,1,.44-.48A1,1,0,0,1,168.76,58.18Z"/>
    <path d="M169.69,57.37a.33.33,0,0,1,.09-.26A.35.35,0,0,1,170,57a.3.3,0,0,1,.31.34.32.32,0,0,1-.09.25.33.33,0,0,1-.22.08.35.35,0,0,1-.22-.08A.32.32,0,0,1,169.69,57.37Zm.57,4.08h-.52V58.24h.52Z"/>
    <path d="M173.43,61.42l0-.39h0a1.1,1.1,0,0,1-1,.48,1.19,1.19,0,0,1-1-.43,1.94,1.94,0,0,1-.35-1.23,1.92,1.92,0,0,1,.36-1.23,1.16,1.16,0,0,1,1-.44,1.18,1.18,0,0,1,1,.48h0l.07-.42H174V61.5a1.4,1.4,0,0,1-.35,1,1.46,1.46,0,0,1-1.09.35,2.73,2.73,0,0,1-1.15-.2V62.2a2.43,2.43,0,0,0,1.18.25.87.87,0,0,0,.65-.24.89.89,0,0,0,.24-.66Zm-.92-.34a.87.87,0,0,0,.7-.26,1.3,1.3,0,0,0,.23-.84v-.13a1.56,1.56,0,0,0-.23-.94.84.84,0,0,0-.71-.29.73.73,0,0,0-.63.32,1.58,1.58,0,0,0-.22.92,1.66,1.66,0,0,0,.21.91A.74.74,0,0,0,172.51,61.08Z"/>
    <path d="M177.17,61.45V59.4a.83.83,0,0,0-.18-.59.69.69,0,0,0-.55-.19.88.88,0,0,0-.71.27,1.41,1.41,0,0,0-.23.9v1.66H175V56.89h.53v1.34a2.81,2.81,0,0,1,0,.45h0a1,1,0,0,1,.4-.37,1.47,1.47,0,0,1,.6-.13,1.27,1.27,0,0,1,.88.28,1.19,1.19,0,0,1,.3.9v2.09Z"/>
    <path d="M179.76,61.08l.24,0a.81.81,0,0,0,.21-.05v.41l-.23.06a1.63,1.63,0,0,1-.31,0c-.63,0-.95-.33-.95-1V58.65h-.45v-.26l.46-.21.21-.68h.31v.74h.93v.41h-.93V60.5a.62.62,0,0,0,.14.43A.47.47,0,0,0,179.76,61.08Z"/>
    <path d="M182.93,61.45h-.52V56.89h.52Z"/>
    <path d="M185.32,61.51a1.44,1.44,0,0,1-1.13-.44,1.66,1.66,0,0,1-.42-1.2,1.81,1.81,0,0,1,.39-1.23,1.26,1.26,0,0,1,1-.46,1.24,1.24,0,0,1,1,.39,1.5,1.5,0,0,1,.36,1.06V60h-2.2a1.22,1.22,0,0,0,.28.83.94.94,0,0,0,.74.28,2.49,2.49,0,0,0,.49,0,2.68,2.68,0,0,0,.55-.18v.46a2.47,2.47,0,0,1-1.06.21Zm-.13-2.9a.78.78,0,0,0-.6.24,1.2,1.2,0,0,0-.26.68H186a1.07,1.07,0,0,0-.21-.69A.72.72,0,0,0,185.19,58.61Z"/>
    <path d="M188,61.45l-1.22-3.21h.56l.69,1.89a6.4,6.4,0,0,1,.25.85h0a.31.31,0,0,1,0-.08l0-.11s.08-.26.22-.66l.68-1.89h.57l-1.23,3.21Z"/>
    <path d="M191.69,61.51a1.44,1.44,0,0,1-1.13-.44,1.65,1.65,0,0,1-.41-1.2,1.81,1.81,0,0,1,.38-1.23,1.28,1.28,0,0,1,1-.46,1.24,1.24,0,0,1,1,.39,1.5,1.5,0,0,1,.36,1.06V60h-2.2a1.22,1.22,0,0,0,.28.83,1,1,0,0,0,.75.28,2.63,2.63,0,0,0,.49,0,2.82,2.82,0,0,0,.54-.18v.46a2.39,2.39,0,0,1-.5.16A2.33,2.33,0,0,1,191.69,61.51Zm-.13-2.9a.78.78,0,0,0-.6.24,1.2,1.2,0,0,0-.26.68h1.64a1,1,0,0,0-.21-.69A.72.72,0,0,0,191.56,58.61Z"/>
    <path d="M194.24,61.45h-.53V56.89h.53Z"/>
    <path d="M199.61,59.84a1.77,1.77,0,0,1-.4,1.23,1.41,1.41,0,0,1-1.1.44,1.5,1.5,0,0,1-.77-.2,1.3,1.3,0,0,1-.52-.59,2,2,0,0,1-.18-.88,1.8,1.8,0,0,1,.39-1.23,1.58,1.58,0,0,1,2.18,0A1.76,1.76,0,0,1,199.61,59.84Zm-2.43,0a1.51,1.51,0,0,0,.24.92.95.95,0,0,0,1.4,0,1.51,1.51,0,0,0,.24-.92,1.49,1.49,0,0,0-.24-.92.84.84,0,0,0-.7-.3C197.49,58.62,197.18,59,197.18,59.84Z"/>
    <path d="M201.93,58.65h-.81v2.8h-.53v-2.8H200V58.4l.56-.18V58a1.32,1.32,0,0,1,.25-.88,1,1,0,0,1,.79-.29,2,2,0,0,1,.63.11l-.14.41a1.54,1.54,0,0,0-.48-.09.46.46,0,0,0-.4.18,1,1,0,0,0-.12.56v.21h.81Z"/>
    <path d="M171.44,68.62l0-.39h0a1.12,1.12,0,0,1-1,.48,1.19,1.19,0,0,1-1-.43,2.32,2.32,0,0,1,0-2.45,1.29,1.29,0,0,1,2,0h0l.07-.42H172v3.27a1.44,1.44,0,0,1-.35,1,1.5,1.5,0,0,1-1.09.34,2.81,2.81,0,0,1-1.16-.2V69.4a2.5,2.5,0,0,0,1.19.25.83.83,0,0,0,.89-.9Zm-.93-.34a.89.89,0,0,0,.71-.26,1.3,1.3,0,0,0,.22-.84v-.13a1.57,1.57,0,0,0-.22-.94.86.86,0,0,0-.72-.29.72.72,0,0,0-.62.32,1.58,1.58,0,0,0-.22.92,1.66,1.66,0,0,0,.21.91A.73.73,0,0,0,170.51,68.28Z"/>
    <path d="M175.78,67a1.82,1.82,0,0,1-.4,1.23,1.42,1.42,0,0,1-1.1.44,1.56,1.56,0,0,1-.78-.2,1.43,1.43,0,0,1-.52-.59,2,2,0,0,1-.18-.88,1.75,1.75,0,0,1,.4-1.23,1.39,1.39,0,0,1,1.1-.43,1.41,1.41,0,0,1,1.08.44A1.81,1.81,0,0,1,175.78,67Zm-2.43,0a1.51,1.51,0,0,0,.24.92.95.95,0,0,0,1.4,0,1.51,1.51,0,0,0,.24-.92,1.49,1.49,0,0,0-.24-.92.86.86,0,0,0-.71-.3C173.66,65.82,173.35,66.23,173.35,67Z"/>
    <path d="M177.26,68.65,176,65.44h.57l.68,1.89a6.86,6.86,0,0,1,.26.85h0a.19.19,0,0,0,0-.08l0-.11s.09-.26.22-.66l.69-1.89h.56l-1.22,3.21Z"/>
    <path d="M181,68.71a1.48,1.48,0,0,1-1.14-.44,1.69,1.69,0,0,1-.41-1.2,1.86,1.86,0,0,1,.38-1.23,1.29,1.29,0,0,1,1-.46,1.25,1.25,0,0,1,1,.39,1.5,1.5,0,0,1,.36,1.06v.32H180a1.27,1.27,0,0,0,.27.83,1,1,0,0,0,.75.28,2.56,2.56,0,0,0,.49,0A2.61,2.61,0,0,0,182,68v.46a2.21,2.21,0,0,1-.5.16A2.24,2.24,0,0,1,181,68.71Zm-.13-2.9a.75.75,0,0,0-.6.24,1.08,1.08,0,0,0-.26.68h1.64a1.13,1.13,0,0,0-.21-.69A.75.75,0,0,0,180.84,65.81Z"/>
    <path d="M184.48,65.38a2.09,2.09,0,0,1,.38,0l-.06.49a1.45,1.45,0,0,0-.35,0A.84.84,0,0,0,184,66a1,1,0,0,0-.34.39,1.2,1.2,0,0,0-.12.55v1.71H183V65.44h.44l.06.58h0a1.37,1.37,0,0,1,.44-.48A1,1,0,0,1,184.48,65.38Z"/>
    <path d="M187.65,68.65V66.6a.83.83,0,0,0-.17-.59.71.71,0,0,0-.55-.19.89.89,0,0,0-.72.27,1.43,1.43,0,0,0-.22.9v1.66h-.53V65.44h.43l.08.44h0a.87.87,0,0,1,.41-.37,1.32,1.32,0,0,1,.6-.13,1.21,1.21,0,0,1,.88.28,1.25,1.25,0,0,1,.28.9v2.09Z"/>
    <path d="M191.16,68.65l-.11-.45h0a1.31,1.31,0,0,1-.48.4,1.5,1.5,0,0,1-.6.11,1,1,0,0,1-.74-.25.9.9,0,0,1-.27-.7c0-.65.51-1,1.54-1l.55,0v-.19a.83.83,0,0,0-.16-.54.7.7,0,0,0-.51-.17,1.51,1.51,0,0,0-.48.07l-.43.17-.16-.39a1.87,1.87,0,0,1,.53-.2,2.24,2.24,0,0,1,.57-.08,1.27,1.27,0,0,1,.87.26,1.06,1.06,0,0,1,.28.82v2.19Zm-1.09-.36a1,1,0,0,0,.7-.24.89.89,0,0,0,.25-.68v-.29l-.48,0a1.6,1.6,0,0,0-.8.18.52.52,0,0,0-.26.48.5.5,0,0,0,.16.39A.62.62,0,0,0,190.07,68.29Z"/>
    <path d="M194.73,68.65V66.6a.83.83,0,0,0-.18-.59.67.67,0,0,0-.54-.19.89.89,0,0,0-.72.27,1.43,1.43,0,0,0-.23.9v1.66h-.52V65.44H193l.08.44h0a1,1,0,0,1,.42-.37,1.31,1.31,0,0,1,.59-.13,1.19,1.19,0,0,1,.88.28,1.25,1.25,0,0,1,.29.9v2.09Z"/>
    <path d="M197.54,68.71a1.41,1.41,0,0,1-1.09-.42,2.19,2.19,0,0,1,0-2.48,1.41,1.41,0,0,1,1.11-.43,1.88,1.88,0,0,1,.47.05,1.55,1.55,0,0,1,.38.12l-.16.44a2.15,2.15,0,0,0-.7-.15.87.87,0,0,0-.72.3,1.56,1.56,0,0,0-.23.92,1.52,1.52,0,0,0,.23.89.84.84,0,0,0,.69.31,2,2,0,0,0,.83-.19v.47A1.81,1.81,0,0,1,197.54,68.71Z"/>
    <path d="M200.49,68.71a1.44,1.44,0,0,1-1.13-.44,1.65,1.65,0,0,1-.41-1.2,1.86,1.86,0,0,1,.38-1.23,1.28,1.28,0,0,1,1-.46,1.24,1.24,0,0,1,1,.39,1.46,1.46,0,0,1,.37,1.06v.32h-2.21a1.22,1.22,0,0,0,.28.83,1,1,0,0,0,.75.28,2.63,2.63,0,0,0,.49,0,2.82,2.82,0,0,0,.54-.18v.46a2.39,2.39,0,0,1-.5.16A2.33,2.33,0,0,1,200.49,68.71Zm-.13-2.9a.78.78,0,0,0-.6.24,1.2,1.2,0,0,0-.26.68h1.64a1,1,0,0,0-.21-.69A.72.72,0,0,0,200.36,65.81Z"/>
  </g>
  <g>
    <path d="M215.73,86.77h-1.51V82.33c0-.12,0-.24,0-.37s0-.26,0-.39,0-.24,0-.35l-.08.09-.14.13-.15.14-.15.13-.82.66-.73-.91,2.3-1.83h1.24Z"/>
    <path d="M220,79.54a2.94,2.94,0,0,1,.84.11,2,2,0,0,1,.69.32,1.49,1.49,0,0,1,.47.53,1.55,1.55,0,0,1,.18.76,1.59,1.59,0,0,1-.1.59,1.47,1.47,0,0,1-.27.47,2.07,2.07,0,0,1-.4.38,4.27,4.27,0,0,1-.51.3,4.53,4.53,0,0,1,.55.34,2.73,2.73,0,0,1,.48.41,1.94,1.94,0,0,1,.34.52,1.54,1.54,0,0,1,.13.65,1.77,1.77,0,0,1-.18.8,1.65,1.65,0,0,1-.49.62,2.28,2.28,0,0,1-.76.39,3.29,3.29,0,0,1-1,.14,4,4,0,0,1-1-.13,2.35,2.35,0,0,1-.76-.38,1.51,1.51,0,0,1-.46-.6,1.91,1.91,0,0,1-.16-.8,1.69,1.69,0,0,1,.11-.66,1.94,1.94,0,0,1,.29-.53,2.4,2.4,0,0,1,.43-.41A3.65,3.65,0,0,1,219,83a3.72,3.72,0,0,1-.45-.33,2,2,0,0,1-.37-.4,1.8,1.8,0,0,1-.24-.48,1.76,1.76,0,0,1-.09-.58,1.47,1.47,0,0,1,.18-.74,1.66,1.66,0,0,1,.48-.54,2.14,2.14,0,0,1,.7-.32A2.82,2.82,0,0,1,220,79.54Zm-1,5.33a1,1,0,0,0,.06.36.67.67,0,0,0,.19.28.73.73,0,0,0,.31.18,1.11,1.11,0,0,0,.43.07,1.07,1.07,0,0,0,.76-.24.85.85,0,0,0,.26-.64.75.75,0,0,0-.09-.37,1.29,1.29,0,0,0-.22-.3,2.55,2.55,0,0,0-.3-.26l-.35-.22-.1-.07a2.36,2.36,0,0,0-.39.23,1.59,1.59,0,0,0-.3.27,1.12,1.12,0,0,0-.2.33A1.16,1.16,0,0,0,219,84.87Zm1-4.23a.94.94,0,0,0-.3,0,.57.57,0,0,0-.24.14.63.63,0,0,0-.16.23.75.75,0,0,0-.06.31.91.91,0,0,0,.06.35,1,1,0,0,0,.17.27,1.59,1.59,0,0,0,.24.2l.3.18a2.61,2.61,0,0,0,.28-.17,1.27,1.27,0,0,0,.25-.21.92.92,0,0,0,.16-.27.78.78,0,0,0,.07-.35.75.75,0,0,0-.06-.31.63.63,0,0,0-.16-.23.68.68,0,0,0-.25-.14A.94.94,0,0,0,220,80.64Z"/>
    <path d="M226.55,82.25a2.54,2.54,0,0,1-.1.76,1.42,1.42,0,0,1-.31.57,1.32,1.32,0,0,1-.53.36,2.22,2.22,0,0,1-.77.12,2,2,0,0,1-.73-.12,1.32,1.32,0,0,1-.53-.36,1.44,1.44,0,0,1-.32-.57,2.54,2.54,0,0,1-.1-.76,2.88,2.88,0,0,1,.09-.76,1.42,1.42,0,0,1,.31-.57,1.37,1.37,0,0,1,.52-.35,2.16,2.16,0,0,1,.76-.12,2.09,2.09,0,0,1,.74.12,1.4,1.4,0,0,1,.53.35,1.34,1.34,0,0,1,.33.57A2.49,2.49,0,0,1,226.55,82.25Zm-2.21,0a1.22,1.22,0,0,0,.12.6.5.5,0,0,0,.78,0,1.07,1.07,0,0,0,.13-.6c0-.53-.18-.79-.52-.79a.42.42,0,0,0-.39.19A1.17,1.17,0,0,0,224.34,82.26Zm5.42-1.71-3.91,6.22h-1.12l3.91-6.22Zm1.59,4.5a2.59,2.59,0,0,1-.1.76,1.57,1.57,0,0,1-.31.57,1.4,1.4,0,0,1-.53.35,2,2,0,0,1-.77.13,1.83,1.83,0,0,1-.73-.13,1.37,1.37,0,0,1-.52-.35,1.59,1.59,0,0,1-.32-.57,2.58,2.58,0,0,1-.11-.76,2.61,2.61,0,0,1,.1-.77,1.32,1.32,0,0,1,.3-.56,1.26,1.26,0,0,1,.52-.35,2.15,2.15,0,0,1,.76-.13,2.08,2.08,0,0,1,.74.13,1.3,1.3,0,0,1,.53.35,1.37,1.37,0,0,1,.33.56A2.6,2.6,0,0,1,231.35,85.05Zm-2.21,0a1.16,1.16,0,0,0,.12.59.41.41,0,0,0,.39.2.42.42,0,0,0,.39-.19,1.16,1.16,0,0,0,.13-.6c0-.53-.18-.8-.52-.8a.43.43,0,0,0-.39.2A1.17,1.17,0,0,0,229.14,85.06Z"/>
  </g>
  <g>
    <path d="M142.2,83.31h-1.55V83l.51-.12V79.46l-.51-.12V79h1.55v.31l-.5.12v3.42l.5.12Z"/>
    <path d="M145.15,83.31V81.25a.82.82,0,0,0-.18-.58.68.68,0,0,0-.54-.19.89.89,0,0,0-.72.27,1.4,1.4,0,0,0-.23.89v1.67H143V80.09h.42l.08.44h0a.93.93,0,0,1,.42-.36,1.31,1.31,0,0,1,.59-.14,1.19,1.19,0,0,1,.88.29,1.22,1.22,0,0,1,.29.89v2.1Z"/>
    <path d="M147.74,82.94l.24,0,.21,0v.4a.79.79,0,0,1-.23.07,1.63,1.63,0,0,1-.31,0c-.63,0-.94-.33-.94-1V80.5h-.46v-.25l.46-.21.21-.69h.32v.74h.92v.41h-.92v1.86a.61.61,0,0,0,.13.43A.47.47,0,0,0,147.74,82.94Z"/>
    <path d="M150.2,83.37a1.5,1.5,0,0,1-1.14-.44,1.7,1.7,0,0,1-.41-1.21,1.9,1.9,0,0,1,.38-1.23,1.32,1.32,0,0,1,1-.46,1.29,1.29,0,0,1,1,.39,1.53,1.53,0,0,1,.36,1.06v.32h-2.2a1.28,1.28,0,0,0,.27.84,1,1,0,0,0,.75.28,1.94,1.94,0,0,0,.49,0,2.7,2.7,0,0,0,.54-.17v.46a2.21,2.21,0,0,1-.5.16A3,3,0,0,1,150.2,83.37Zm-.13-2.91a.76.76,0,0,0-.6.25,1.07,1.07,0,0,0-.26.67h1.63a1,1,0,0,0-.2-.68A.72.72,0,0,0,150.07,80.46Z"/>
    <path d="M154.36,83.28l0-.4h0a1.08,1.08,0,0,1-1,.49,1.2,1.2,0,0,1-1-.44,2.29,2.29,0,0,1,0-2.45,1.14,1.14,0,0,1,1-.45,1.19,1.19,0,0,1,1,.49h0l.07-.43h.42v3.27a1.38,1.38,0,0,1-.35,1,1.49,1.49,0,0,1-1.09.35,2.89,2.89,0,0,1-1.15-.2v-.49a2.43,2.43,0,0,0,1.18.25.87.87,0,0,0,.65-.24.89.89,0,0,0,.24-.66Zm-.92-.34a.84.84,0,0,0,.7-.27,1.26,1.26,0,0,0,.23-.84v-.12a1.54,1.54,0,0,0-.23-.94.8.8,0,0,0-.71-.29.71.71,0,0,0-.63.32,1.57,1.57,0,0,0-.22.91,1.61,1.61,0,0,0,.21.91A.75.75,0,0,0,153.44,82.94Z"/>
    <path d="M157.4,80a2,2,0,0,1,.38,0l-.06.49a1.48,1.48,0,0,0-.35,0,.8.8,0,0,0-.47.15,1,1,0,0,0-.35.38,1.26,1.26,0,0,0-.12.55v1.72h-.53V80.09h.44l.06.59h0a1.37,1.37,0,0,1,.44-.48A1,1,0,0,1,157.4,80Z"/>
    <path d="M160.31,83.31l-.1-.46h0a1.33,1.33,0,0,1-.47.41,1.51,1.51,0,0,1-.61.11,1,1,0,0,1-.74-.25.91.91,0,0,1-.27-.7c0-.66.51-1,1.54-1l.55,0v-.19a.77.77,0,0,0-.16-.54.63.63,0,0,0-.51-.18,1.51,1.51,0,0,0-.48.08,4.08,4.08,0,0,0-.42.17l-.17-.39a2.44,2.44,0,0,1,.53-.21,2.34,2.34,0,0,1,.57-.07,1.27,1.27,0,0,1,.87.26,1,1,0,0,1,.28.82v2.19Zm-1.09-.37a1,1,0,0,0,.7-.24.85.85,0,0,0,.25-.67v-.29l-.47,0a1.75,1.75,0,0,0-.81.17.54.54,0,0,0-.25.49.5.5,0,0,0,.15.39A.63.63,0,0,0,159.22,82.94Z"/>
    <path d="M162.77,82.94l.24,0,.2,0v.4a.63.63,0,0,1-.22.07,1.73,1.73,0,0,1-.32,0c-.62,0-.94-.33-.94-1V80.5h-.45v-.25l.46-.21.21-.69h.31v.74h.93v.41h-.93v1.86a.67.67,0,0,0,.13.43A.49.49,0,0,0,162.77,82.94Z"/>
    <path d="M163.81,79.22a.32.32,0,0,1,.09-.25.35.35,0,0,1,.22-.08.33.33,0,0,1,.22.08.32.32,0,0,1,.09.25.34.34,0,0,1-.09.26.33.33,0,0,1-.22.08.35.35,0,0,1-.22-.08A.34.34,0,0,1,163.81,79.22Zm.57,4.09h-.52V80.09h.52Z"/>
    <path d="M168.2,81.7a1.82,1.82,0,0,1-.4,1.23,1.42,1.42,0,0,1-1.1.44,1.56,1.56,0,0,1-.78-.2,1.4,1.4,0,0,1-.51-.59,1.9,1.9,0,0,1-.19-.88,1.74,1.74,0,0,1,.4-1.23,1.41,1.41,0,0,1,1.1-.44,1.38,1.38,0,0,1,1.08.45A1.79,1.79,0,0,1,168.2,81.7Zm-2.43,0a1.51,1.51,0,0,0,.24.92.95.95,0,0,0,1.4,0,1.51,1.51,0,0,0,.24-.92,1.49,1.49,0,0,0-.24-.92.86.86,0,0,0-.71-.3C166.08,80.48,165.77,80.88,165.77,81.7Z"/>
    <path d="M171.22,83.31V81.25a.82.82,0,0,0-.17-.58.71.71,0,0,0-.55-.19.89.89,0,0,0-.72.27,1.4,1.4,0,0,0-.22.89v1.67H169V80.09h.43l.08.44h0a.9.9,0,0,1,.41-.36,1.33,1.33,0,0,1,.6-.14,1,1,0,0,1,1.17,1.18v2.1Z"/>
    <path d="M176.93,83.31l-.55-1.81c0-.15-.13-.44-.23-.85h0a6.61,6.61,0,0,1-.22.85l-.57,1.81h-.6l-.88-3.22h.54c.21.79.36,1.4.47,1.81s.17.7.19.87h0l0-.18a5.79,5.79,0,0,1,.18-.68l.57-1.82h.57l.56,1.82c0,.06,0,.14.06.21l.06.23a2.25,2.25,0,0,1,0,.22c0,.07,0,.14,0,.19h0a7,7,0,0,1,.21-1l.45-1.72h.54l-.89,3.22Z"/>
    <path d="M179,79.22a.28.28,0,0,1,.31-.33.32.32,0,0,1,.21.08.32.32,0,0,1,.09.25.34.34,0,0,1-.09.26.32.32,0,0,1-.21.08.36.36,0,0,1-.23-.08A.38.38,0,0,1,179,79.22Zm.56,4.09H179V80.09h.52Z"/>
    <path d="M181.64,82.94l.24,0,.21,0v.4a.79.79,0,0,1-.23.07,1.63,1.63,0,0,1-.31,0c-.63,0-1-.33-1-1V80.5h-.45v-.25l.46-.21.21-.69h.31v.74h.93v.41h-.93v1.86a.62.62,0,0,0,.14.43A.47.47,0,0,0,181.64,82.94Z"/>
    <path d="M184.92,83.31V81.25a.87.87,0,0,0-.17-.58.71.71,0,0,0-.55-.19.89.89,0,0,0-.72.27,1.42,1.42,0,0,0-.22.9v1.66h-.53V78.75h.53v1.34a3,3,0,0,1,0,.45h0a1,1,0,0,1,.41-.37,1.49,1.49,0,0,1,1.48.15,1.2,1.2,0,0,1,.29.89v2.1Z"/>
    <path d="M186.4,79.22a.32.32,0,0,1,.09-.25.31.31,0,0,1,.22-.08.32.32,0,0,1,.21.08.32.32,0,0,1,.09.25.34.34,0,0,1-.09.26.32.32,0,0,1-.21.08.31.31,0,0,1-.22-.08A.34.34,0,0,1,186.4,79.22Zm.56,4.09h-.52V80.09H187Z"/>
    <path d="M190.18,83.31V81.25a.82.82,0,0,0-.18-.58.7.7,0,0,0-.54-.19.86.86,0,0,0-.72.27,1.4,1.4,0,0,0-.23.89v1.67H188V80.09h.43l.08.44h0a.93.93,0,0,1,.42-.36,1.28,1.28,0,0,1,.59-.14,1.19,1.19,0,0,1,.88.29,1.22,1.22,0,0,1,.29.89v2.1Z"/>
    <path d="M194.33,82.94l.24,0,.21,0v.4a.79.79,0,0,1-.23.07,1.63,1.63,0,0,1-.31,0c-.63,0-1-.33-1-1V80.5h-.45v-.25l.46-.21.21-.69h.31v.74h.93v.41h-.93v1.86a.62.62,0,0,0,.14.43A.45.45,0,0,0,194.33,82.94Z"/>
    <path d="M197.61,83.31V81.25a.82.82,0,0,0-.18-.58.67.67,0,0,0-.54-.19.89.89,0,0,0-.72.27,1.41,1.41,0,0,0-.23.9v1.66h-.52V78.75h.52v1.34c0,.17,0,.32,0,.45h0a1,1,0,0,1,.41-.37A1.25,1.25,0,0,1,197,80a1.21,1.21,0,0,1,.88.28,1.17,1.17,0,0,1,.3.89v2.1Z"/>
    <path d="M200.49,83.37a1.48,1.48,0,0,1-1.13-.44,1.66,1.66,0,0,1-.41-1.21,1.9,1.9,0,0,1,.38-1.23,1.31,1.31,0,0,1,1-.46,1.28,1.28,0,0,1,1,.39,1.49,1.49,0,0,1,.37,1.06v.32h-2.21a1.23,1.23,0,0,0,.28.84,1,1,0,0,0,.75.28,2,2,0,0,0,.49,0,2.7,2.7,0,0,0,.54-.17v.46a2.39,2.39,0,0,1-.5.16A3,3,0,0,1,200.49,83.37Zm-.13-2.91a.79.79,0,0,0-.6.25,1.2,1.2,0,0,0-.26.67h1.64a1,1,0,0,0-.21-.68A.69.69,0,0,0,200.36,80.46Z"/>
    <path d="M151.78,90.57a1.51,1.51,0,0,1-1.14-.44,1.7,1.7,0,0,1-.41-1.21,1.85,1.85,0,0,1,.39-1.23,1.39,1.39,0,0,1,2-.07,1.53,1.53,0,0,1,.36,1.06V89h-2.2a1.23,1.23,0,0,0,.28.84.94.94,0,0,0,.74.28,1.94,1.94,0,0,0,.49-.05,2.36,2.36,0,0,0,.54-.17v.46a2.07,2.07,0,0,1-.5.16A2.87,2.87,0,0,1,151.78,90.57Zm-.13-2.9a.78.78,0,0,0-.6.24,1.13,1.13,0,0,0-.26.67h1.64a1.1,1.1,0,0,0-.21-.68A.71.71,0,0,0,151.65,87.67Z"/>
    <path d="M154.5,88.87l-1.11-1.58h.6l.83,1.22.82-1.22h.59l-1.11,1.58,1.17,1.64h-.6l-.87-1.28-.89,1.28h-.6Z"/>
    <path d="M156.87,86.42a.32.32,0,0,1,.09-.25.33.33,0,0,1,.22-.08.32.32,0,0,1,.21.08.29.29,0,0,1,.1.25.31.31,0,0,1-.1.26.32.32,0,0,1-.21.08.33.33,0,0,1-.22-.08A.34.34,0,0,1,156.87,86.42Zm.57,4.09h-.53V87.29h.53Z"/>
    <path d="M160.55,89.62a.8.8,0,0,1-.34.7,1.52,1.52,0,0,1-.94.25,2.18,2.18,0,0,1-1-.2v-.48a2.32,2.32,0,0,0,1,.25,1,1,0,0,0,.58-.13.39.39,0,0,0,.18-.34.39.39,0,0,0-.17-.32,3.16,3.16,0,0,0-.62-.31,2.58,2.58,0,0,1-.64-.3.72.72,0,0,1-.27-.28.7.7,0,0,1-.09-.37.75.75,0,0,1,.32-.63,1.54,1.54,0,0,1,.89-.23,2.49,2.49,0,0,1,1,.22l-.18.42a2.21,2.21,0,0,0-.88-.2,1,1,0,0,0-.5.1.32.32,0,0,0-.17.28.37.37,0,0,0,.15.3,4.09,4.09,0,0,0,.68.32,2.86,2.86,0,0,1,.6.28.86.86,0,0,1,.28.29A.74.74,0,0,1,160.55,89.62Z"/>
    <path d="M162.41,90.14l.24,0a1.13,1.13,0,0,0,.2-.05v.4a.71.71,0,0,1-.22.07,1.73,1.73,0,0,1-.32,0c-.62,0-.94-.33-.94-1V87.7h-.45v-.25l.46-.21.21-.69h.31v.74h.93v.41h-.93v1.86A.62.62,0,0,0,162,90,.45.45,0,0,0,162.41,90.14Z"/>
    <path d="M163.45,86.42a.32.32,0,0,1,.09-.25.35.35,0,0,1,.22-.08.33.33,0,0,1,.22.08.32.32,0,0,1,.09.25.34.34,0,0,1-.09.26.33.33,0,0,1-.22.08.35.35,0,0,1-.22-.08A.34.34,0,0,1,163.45,86.42Zm.57,4.09h-.52V87.29H164Z"/>
    <path d="M167.23,90.51V88.45a.82.82,0,0,0-.17-.58.71.71,0,0,0-.55-.19.89.89,0,0,0-.72.27,1.4,1.4,0,0,0-.22.89v1.67H165V87.29h.43l.08.44h0a.85.85,0,0,1,.41-.36,1.33,1.33,0,0,1,.6-.14,1.21,1.21,0,0,1,.88.29,1.23,1.23,0,0,1,.28.9v2.09Z"/>
    <path d="M170.9,90.48l0-.4h0a1.1,1.1,0,0,1-1,.49,1.2,1.2,0,0,1-1-.44,2.29,2.29,0,0,1,0-2.45,1.14,1.14,0,0,1,1-.45,1.19,1.19,0,0,1,1,.49h0l.07-.43h.42v3.27a1.42,1.42,0,0,1-.35,1A1.5,1.5,0,0,1,170,92a3,3,0,0,1-1.16-.2v-.49a2.5,2.5,0,0,0,1.19.25.83.83,0,0,0,.89-.9Zm-.92-.34a.87.87,0,0,0,.7-.26,1.31,1.31,0,0,0,.22-.85v-.12a1.57,1.57,0,0,0-.22-.94.84.84,0,0,0-.72-.29.69.69,0,0,0-.62.32,1.57,1.57,0,0,0-.22.91,1.61,1.61,0,0,0,.21.91A.75.75,0,0,0,170,90.14Z"/>
    <path d="M174.53,90.51H174V86h.53Z"/>
    <path d="M177.53,90.51l-.1-.46h0a1.35,1.35,0,0,1-.48.41,1.5,1.5,0,0,1-.6.11,1,1,0,0,1-.75-.25.91.91,0,0,1-.27-.7c0-.66.52-1,1.55-1l.54,0v-.19a.77.77,0,0,0-.16-.54.62.62,0,0,0-.5-.17,1.51,1.51,0,0,0-.48.07,3.5,3.5,0,0,0-.43.17l-.16-.39a2.25,2.25,0,0,1,.53-.21,2.22,2.22,0,0,1,.57-.07,1.24,1.24,0,0,1,.86.26,1,1,0,0,1,.29.82v2.19Zm-1.08-.37a1,1,0,0,0,.69-.24.86.86,0,0,0,.26-.67v-.29l-.48,0a1.67,1.67,0,0,0-.8.17.55.55,0,0,0-.26.49A.47.47,0,0,0,176,90,.61.61,0,0,0,176.45,90.14Z"/>
    <path d="M181.11,90.51V88.45a.82.82,0,0,0-.18-.58.71.71,0,0,0-.55-.19.85.85,0,0,0-.71.27,1.4,1.4,0,0,0-.23.89v1.67h-.53V87.29h.43l.08.44h0a.93.93,0,0,1,.42-.36,1.28,1.28,0,0,1,.59-.14,1.19,1.19,0,0,1,.88.29,1.23,1.23,0,0,1,.29.9v2.09Z"/>
    <path d="M183.76,90.57a1.17,1.17,0,0,1-1-.44,1.89,1.89,0,0,1-.35-1.22,1.94,1.94,0,0,1,.35-1.23,1.17,1.17,0,0,1,1-.45,1.15,1.15,0,0,1,1,.48h0s0-.12,0-.24,0-.19,0-.24V86h.53v4.56h-.42l-.08-.43h0A1.11,1.11,0,0,1,183.76,90.57Zm.09-.44a.88.88,0,0,0,.7-.26,1.31,1.31,0,0,0,.22-.86v-.1a1.56,1.56,0,0,0-.22-1,.86.86,0,0,0-.71-.29.73.73,0,0,0-.63.32,1.64,1.64,0,0,0-.22.93,1.49,1.49,0,0,0,.22.9A.73.73,0,0,0,183.85,90.13Z"/>
    <path d="M188.41,89.62a.8.8,0,0,1-.34.7,1.52,1.52,0,0,1-.94.25,2.18,2.18,0,0,1-1-.2v-.48a2.32,2.32,0,0,0,1,.25,1,1,0,0,0,.58-.13.39.39,0,0,0,.18-.34.37.37,0,0,0-.18-.32,2.76,2.76,0,0,0-.61-.31,2.58,2.58,0,0,1-.64-.3.66.66,0,0,1-.27-.28.7.7,0,0,1-.09-.37.75.75,0,0,1,.32-.63,1.54,1.54,0,0,1,.89-.23,2.53,2.53,0,0,1,1,.22l-.18.42a2.21,2.21,0,0,0-.88-.2,1,1,0,0,0-.5.1.32.32,0,0,0-.17.28.37.37,0,0,0,.15.3,3.71,3.71,0,0,0,.68.32,2.86,2.86,0,0,1,.6.28.86.86,0,0,1,.28.29A.74.74,0,0,1,188.41,89.62Z"/>
    <path d="M190.48,90.57a1.35,1.35,0,0,1-1.08-.43,1.74,1.74,0,0,1-.39-1.22,1.82,1.82,0,0,1,.39-1.25,1.42,1.42,0,0,1,1.12-.44,2.4,2.4,0,0,1,.46,0,1.53,1.53,0,0,1,.38.13l-.16.44a2.1,2.1,0,0,0-.7-.16.84.84,0,0,0-.71.31,1.47,1.47,0,0,0-.24.91,1.41,1.41,0,0,0,.24.89.78.78,0,0,0,.68.31,2.12,2.12,0,0,0,.84-.18v.47A1.89,1.89,0,0,1,190.48,90.57Z"/>
    <path d="M194.05,90.51l-.1-.46h0a1.35,1.35,0,0,1-.48.41,1.5,1.5,0,0,1-.6.11,1,1,0,0,1-.75-.25.91.91,0,0,1-.27-.7c0-.66.52-1,1.55-1l.54,0v-.19a.77.77,0,0,0-.16-.54.62.62,0,0,0-.5-.17,1.51,1.51,0,0,0-.48.07,3.5,3.5,0,0,0-.43.17l-.16-.39a2.25,2.25,0,0,1,.53-.21,2.22,2.22,0,0,1,.57-.07,1.24,1.24,0,0,1,.86.26,1,1,0,0,1,.29.82v2.19ZM193,90.14a1,1,0,0,0,.69-.24.86.86,0,0,0,.26-.67v-.29l-.48,0a1.75,1.75,0,0,0-.81.17.56.56,0,0,0-.25.49.47.47,0,0,0,.16.39A.61.61,0,0,0,193,90.14Z"/>
    <path d="M197,90.57a1.18,1.18,0,0,1-1-.47h0v.12c0,.16,0,.29,0,.41V92h-.53V87.29h.44l.07.44h0a1.21,1.21,0,0,1,.44-.38,1.25,1.25,0,0,1,.56-.12,1.19,1.19,0,0,1,1,.44,1.94,1.94,0,0,1,.35,1.23,2,2,0,0,1-.35,1.23A1.2,1.2,0,0,1,197,90.57Zm-.09-2.89a.82.82,0,0,0-.69.27,1.43,1.43,0,0,0-.22.84v.11a1.55,1.55,0,0,0,.22.94.8.8,0,0,0,.7.29.72.72,0,0,0,.63-.33,1.59,1.59,0,0,0,.23-.91,1.53,1.53,0,0,0-.23-.9A.73.73,0,0,0,196.87,87.68Z"/>
    <path d="M200.49,90.57a1.48,1.48,0,0,1-1.13-.44,1.66,1.66,0,0,1-.41-1.21,1.9,1.9,0,0,1,.38-1.23,1.31,1.31,0,0,1,1-.46,1.28,1.28,0,0,1,1,.39,1.49,1.49,0,0,1,.37,1.06V89h-2.21a1.23,1.23,0,0,0,.28.84,1,1,0,0,0,.75.28,2,2,0,0,0,.49-.05,2.7,2.7,0,0,0,.54-.17v.46a2.39,2.39,0,0,1-.5.16A3,3,0,0,1,200.49,90.57Zm-.13-2.9a.78.78,0,0,0-.6.24,1.2,1.2,0,0,0-.26.67h1.64a1,1,0,0,0-.21-.68A.69.69,0,0,0,200.36,87.67Z"/>
  </g>
  <line x1="124" y1="7" x2="124" y2="94" style="fill: none;stroke: #cecece;stroke-miterlimit: 10"/>
</svg>
