<svg id="Layer_1" data-name="Layer 1" xmlns="http://www.w3.org/2000/svg" xmlns:xlink="http://www.w3.org/1999/xlink" viewBox="0 0 1615.75 765.35">
  <defs>
    <linearGradient id="linear-gradient" x1="330.78" y1="199.28" x2="1614.87" y2="199.28" gradientUnits="userSpaceOnUse">
      <stop offset="0" stop-color="#cbd5e0" stop-opacity="0"/>
      <stop offset="1" stop-color="#cbd5e0"/>
    </linearGradient>
    <linearGradient id="linear-gradient-2" x1="330.78" y1="341.53" x2="1614.87" y2="341.53" xlink:href="#linear-gradient"/>
    <linearGradient id="linear-gradient-3" x1="330.78" y1="483.78" x2="1614.87" y2="483.78" xlink:href="#linear-gradient"/>
    <linearGradient id="linear-gradient-4" x1="330.78" y1="626.03" x2="1614.87" y2="626.03" xlink:href="#linear-gradient"/>
  </defs>
  <title>comparisonbg_overall</title>
  <line x1="322.97" y1="0.04" x2="322.97" y2="696.54" style="fill: none;stroke: gray;stroke-miterlimit: 10"/>
  <line x1="752.97" y1="0.04" x2="752.97" y2="696.54" style="fill: none;stroke: gray;stroke-miterlimit: 10"/>
  <line x1="1184.97" y1="0.04" x2="1184.97" y2="696.54" style="fill: none;stroke: gray;stroke-miterlimit: 10"/>
  <g>
    <path d="M221.14,159h3.51L231,169.71,237.43,159H241l-8.42,13.28v9h-3v-9Z"/>
    <path d="M252.07,166.66a8.21,8.21,0,0,1,2.15,6.14,10.55,10.55,0,0,1-1.9,6.48q-1.89,2.55-5.87,2.55a6.6,6.6,0,0,1-5.28-2.26,9,9,0,0,1-1.95-6.07,9.65,9.65,0,0,1,2.06-6.5,6.86,6.86,0,0,1,5.53-2.42A7.28,7.28,0,0,1,252.07,166.66Zm-1.69,10.78a10.37,10.37,0,0,0,1-4.56,8.19,8.19,0,0,0-.72-3.69,4,4,0,0,0-3.92-2.24,3.86,3.86,0,0,0-3.59,1.91,8.87,8.87,0,0,0-1.12,4.59,7.72,7.72,0,0,0,1.12,4.31,3.94,3.94,0,0,0,3.56,1.73A3.73,3.73,0,0,0,250.38,177.44Z"/>
    <path d="M260.29,165.05v10.76a4.6,4.6,0,0,0,.38,2,2.65,2.65,0,0,0,2.64,1.45,3.73,3.73,0,0,0,3.77-2.54,10.22,10.22,0,0,0,.55-3.74v-8h2.72v16.21h-2.57l0-2.39a5.78,5.78,0,0,1-1.29,1.56,5.67,5.67,0,0,1-3.72,1.27c-2.26,0-3.81-.78-4.63-2.32a7,7,0,0,1-.67-3.31v-11Z"/>
    <path d="M274.88,165.05h2.59v2.8a6.06,6.06,0,0,1,1.56-2,4,4,0,0,1,2.86-1.18l.25,0,.62.06v2.87l-.44-.06h-.45a3.88,3.88,0,0,0-3.16,1.32,4.62,4.62,0,0,0-1.11,3.05v9.33h-2.72Z"/>
    <path d="M209.4,202.25H212v2.8a6.14,6.14,0,0,1,1.55-2,4,4,0,0,1,2.87-1.18l.25,0,.62.06v2.87l-.44-.06h-.45a3.88,3.88,0,0,0-3.16,1.32,4.62,4.62,0,0,0-1.11,3v9.33H209.4Z"/>
    <path d="M229.66,202.69a6.14,6.14,0,0,1,2.45,2.1,7.28,7.28,0,0,1,1.08,2.86,18.91,18.91,0,0,1,.24,3.57H221.64a7,7,0,0,0,1.16,4,3.85,3.85,0,0,0,3.35,1.5,4.29,4.29,0,0,0,3.38-1.42,4.89,4.89,0,0,0,1-1.9h2.68a5.58,5.58,0,0,1-.71,2,7.38,7.38,0,0,1-1.33,1.8,6.32,6.32,0,0,1-3,1.63,9.29,9.29,0,0,1-2.21.24,6.78,6.78,0,0,1-5.1-2.2,8.62,8.62,0,0,1-2.09-6.17,9.32,9.32,0,0,1,2.11-6.34,6.91,6.91,0,0,1,5.5-2.44A7.33,7.33,0,0,1,229.66,202.69Zm1,6.37a7.08,7.08,0,0,0-.76-2.83,3.93,3.93,0,0,0-3.71-2,4.1,4.1,0,0,0-3.12,1.35,5.16,5.16,0,0,0-1.34,3.45Z"/>
    <path d="M238.5,213.37a4,4,0,0,0,.7,2.09,4.42,4.42,0,0,0,3.65,1.32,5.41,5.41,0,0,0,2.71-.66,2.18,2.18,0,0,0,1.18-2,1.74,1.74,0,0,0-.94-1.59,11.28,11.28,0,0,0-2.37-.77l-2.2-.54a11.09,11.09,0,0,1-3.1-1.15,3.44,3.44,0,0,1-1.79-3.06,4.65,4.65,0,0,1,1.68-3.73,6.82,6.82,0,0,1,4.52-1.42c2.47,0,4.26.72,5.35,2.15a4.61,4.61,0,0,1,1,2.94h-2.57a3.17,3.17,0,0,0-.67-1.67,4.29,4.29,0,0,0-3.33-1.07,4,4,0,0,0-2.4.59,1.83,1.83,0,0,0-.81,1.55,1.92,1.92,0,0,0,1.07,1.69,6.52,6.52,0,0,0,1.82.66l1.83.44a14.49,14.49,0,0,1,4,1.38,3.65,3.65,0,0,1,1.59,3.28,5,5,0,0,1-1.66,3.74,7.14,7.14,0,0,1-5.06,1.58c-2.45,0-4.17-.55-5.19-1.64a6.16,6.16,0,0,1-1.63-4.07Z"/>
    <path d="M255.11,202.25V213a4.74,4.74,0,0,0,.38,2,2.65,2.65,0,0,0,2.64,1.45,3.74,3.74,0,0,0,3.78-2.54,10.46,10.46,0,0,0,.54-3.74v-8h2.73v16.21H262.6l0-2.39a5.44,5.44,0,0,1-1.29,1.56,5.66,5.66,0,0,1-3.71,1.27c-2.27,0-3.82-.78-4.64-2.32a7.07,7.07,0,0,1-.67-3.31v-11Z"/>
    <path d="M269.7,196.22h2.73v22.24H269.7Z"/>
    <path d="M277.06,197.72h2.75v4.53h2.59v2.22h-2.59v10.58a1.14,1.14,0,0,0,.58,1.14,2.46,2.46,0,0,0,1.06.16h.42a3.74,3.74,0,0,0,.53-.05v2.17a6.16,6.16,0,0,1-1,.19,9.4,9.4,0,0,1-1.1.07,3,3,0,0,1-2.59-1,4.38,4.38,0,0,1-.68-2.54V204.47h-2.2v-2.22h2.2Z"/>
  </g>
  <g>
    <path d="M113.26,467.4h3v9.19h11.42V467.4h3v22.24h-3v-10.4H116.31v10.4h-3Z"/>
    <path d="M145.35,473.42h3c-.39,1-1.24,3.42-2.56,7.12q-1.49,4.18-2.48,6.82a46.37,46.37,0,0,1-3.33,7.56,3.79,3.79,0,0,1-3.33,1.36,6.41,6.41,0,0,1-.88,0,6.56,6.56,0,0,1-.76-.16v-2.48a9.31,9.31,0,0,0,1,.24,4,4,0,0,0,.56,0,1.9,1.9,0,0,0,1.11-.25,2.18,2.18,0,0,0,.6-.61c.05-.08.23-.49.54-1.24s.54-1.3.68-1.66l-6-16.69h3.09L141,486.63Z"/>
    <path d="M150.48,467.32h2.65v8.07a6.1,6.1,0,0,1,2.15-1.78A6,6,0,0,1,158,473a6.33,6.33,0,0,1,4.93,2.08c1.26,1.39,1.89,3.43,1.89,6.14a10.56,10.56,0,0,1-1.86,6.39,6.1,6.1,0,0,1-5.19,2.54,5.37,5.37,0,0,1-3.13-.89,7.64,7.64,0,0,1-1.62-1.7v2.08h-2.52ZM160.9,486a8.58,8.58,0,0,0,1.1-4.63,7.53,7.53,0,0,0-1.1-4.24,3.62,3.62,0,0,0-3.24-1.68,4.53,4.53,0,0,0-3.27,1.37c-.94.92-1.41,2.44-1.41,4.55a9.83,9.83,0,0,0,.58,3.7,4,4,0,0,0,4,2.68A3.65,3.65,0,0,0,160.9,486Z"/>
    <path d="M168,473.42h2.59v2.8a6.26,6.26,0,0,1,1.56-2,4,4,0,0,1,2.86-1.17l.25,0,.62.06V476l-.44-.06H175a3.88,3.88,0,0,0-3.16,1.32,4.61,4.61,0,0,0-1.11,3.05v9.33H168Z"/>
    <path d="M178.28,467.4h2.77v3.09h-2.77Zm0,6.1h2.77v16.14h-2.77Z"/>
    <path d="M194.07,473.92a7.63,7.63,0,0,1,1.64,1.59v-8.19h2.62v22.32h-2.45v-2.26a5.78,5.78,0,0,1-2.25,2.16,6.31,6.31,0,0,1-3,.67,6,6,0,0,1-4.67-2.28,8.92,8.92,0,0,1-2-6.06,10.51,10.51,0,0,1,1.8-6.14,5.9,5.9,0,0,1,5.15-2.59A5.76,5.76,0,0,1,194.07,473.92ZM188,486.08a3.84,3.84,0,0,0,3.52,1.75,3.72,3.72,0,0,0,3.1-1.62,7.73,7.73,0,0,0,1.21-4.67,6.94,6.94,0,0,0-1.25-4.55,3.87,3.87,0,0,0-3.09-1.48,4.08,4.08,0,0,0-3.32,1.58,7.22,7.22,0,0,0-1.27,4.63A8,8,0,0,0,188,486.08Z"/>
    <path d="M221.73,474.29q1.71,1.32,2.06,4.58h-2.65a4.91,4.91,0,0,0-1.1-2.49,3.5,3.5,0,0,0-2.77-1,3.84,3.84,0,0,0-3.73,2.54,10.19,10.19,0,0,0-.72,4.07,7.63,7.63,0,0,0,1,4.1,4,4,0,0,0,5.92.62,5.63,5.63,0,0,0,1.37-2.82h2.65a6.4,6.4,0,0,1-6.92,6.2,6.21,6.21,0,0,1-5.07-2.32,8.89,8.89,0,0,1-1.89-5.8,9.76,9.76,0,0,1,2.08-6.65,6.71,6.71,0,0,1,5.28-2.38A7.09,7.09,0,0,1,221.73,474.29Z"/>
    <path d="M226.59,467.4h2.73v22.24h-2.73Z"/>
    <path d="M245.15,475q2.15,2.08,2.15,6.14a10.58,10.58,0,0,1-1.89,6.47q-1.91,2.57-5.88,2.56a6.62,6.62,0,0,1-5.28-2.26,9,9,0,0,1-1.95-6.07,9.73,9.73,0,0,1,2.06-6.51,6.89,6.89,0,0,1,5.53-2.42A7.27,7.27,0,0,1,245.15,475Zm-1.69,10.78a10.37,10.37,0,0,0,1-4.56,8.19,8.19,0,0,0-.72-3.69,4,4,0,0,0-3.92-2.24,3.87,3.87,0,0,0-3.59,1.91,8.87,8.87,0,0,0-1.12,4.59,7.72,7.72,0,0,0,1.12,4.31,3.94,3.94,0,0,0,3.56,1.72A3.72,3.72,0,0,0,243.46,485.82Z"/>
    <path d="M253.37,473.42v10.77a4.7,4.7,0,0,0,.38,2,2.66,2.66,0,0,0,2.64,1.46,3.74,3.74,0,0,0,3.78-2.55,10.36,10.36,0,0,0,.54-3.73v-8h2.73v16.22h-2.58l0-2.4a5.49,5.49,0,0,1-1.29,1.56,5.61,5.61,0,0,1-3.71,1.27q-3.4,0-4.64-2.31a7.08,7.08,0,0,1-.67-3.32v-11Z"/>
    <path d="M276.79,473.92a7.87,7.87,0,0,1,1.65,1.59v-8.19h2.61v22.32H278.6v-2.26a5.83,5.83,0,0,1-2.24,2.16,6.38,6.38,0,0,1-3,.67,6,6,0,0,1-4.67-2.28,8.92,8.92,0,0,1-2-6.06,10.52,10.52,0,0,1,1.81-6.14,5.88,5.88,0,0,1,5.15-2.59A5.75,5.75,0,0,1,276.79,473.92Zm-6.08,12.16a3.84,3.84,0,0,0,3.52,1.75,3.72,3.72,0,0,0,3.1-1.62,7.73,7.73,0,0,0,1.21-4.67,6.89,6.89,0,0,0-1.25-4.55,3.87,3.87,0,0,0-3.09-1.48,4.08,4.08,0,0,0-3.32,1.58,7.22,7.22,0,0,0-1.27,4.63A8.11,8.11,0,0,0,270.71,486.08Z"/>
  </g>
  <g>
    <path d="M135.16,325.15h3.4l8.07,22.24h-3.3L141,340.72h-8.72l-2.41,6.67h-3.09Zm5,13.12-3.43-9.82-3.55,9.82Z"/>
    <path d="M151.71,331.17v10.77a4.7,4.7,0,0,0,.38,2,2.68,2.68,0,0,0,2.64,1.46,3.74,3.74,0,0,0,3.78-2.55,10.36,10.36,0,0,0,.54-3.73v-8h2.73v16.22H159.2l0-2.4a5.18,5.18,0,0,1-1.29,1.56,5.61,5.61,0,0,1-3.71,1.27c-2.27,0-3.81-.77-4.64-2.31a7.09,7.09,0,0,1-.66-3.32v-11Z"/>
    <path d="M166.77,326.65h2.76v4.52h2.59v2.23h-2.59V344a1.14,1.14,0,0,0,.57,1.13,2.32,2.32,0,0,0,1.06.17h.43c.15,0,.32,0,.53,0v2.17a6.29,6.29,0,0,1-1,.19,9.36,9.36,0,0,1-1.1.06,3,3,0,0,1-2.59-1,4.4,4.4,0,0,1-.68-2.54V333.4h-2.19v-2.23h2.19Z"/>
    <path d="M186.59,332.79q2.15,2.08,2.15,6.14a10.59,10.59,0,0,1-1.9,6.47Q185,348,181,348a6.6,6.6,0,0,1-5.27-2.26,9,9,0,0,1-2-6.07,9.73,9.73,0,0,1,2.06-6.51,6.92,6.92,0,0,1,5.54-2.42A7.29,7.29,0,0,1,186.59,332.79Zm-1.7,10.78a10.24,10.24,0,0,0,1-4.56,8.19,8.19,0,0,0-.72-3.69,4,4,0,0,0-3.92-2.24,3.86,3.86,0,0,0-3.59,1.91,8.87,8.87,0,0,0-1.12,4.59,7.72,7.72,0,0,0,1.12,4.31,3.93,3.93,0,0,0,3.56,1.72A3.7,3.7,0,0,0,184.89,343.57Z"/>
    <path d="M192.08,331.17h2.69v2.3a9.75,9.75,0,0,1,1.76-1.74,5.33,5.33,0,0,1,3.06-.92,4.86,4.86,0,0,1,3.12.95,5.21,5.21,0,0,1,1.21,1.61,5.81,5.81,0,0,1,2.13-1.93,6,6,0,0,1,2.76-.63q3.27,0,4.45,2.36a7.79,7.79,0,0,1,.63,3.42v10.8h-2.83V336.12a2.61,2.61,0,0,0-.81-2.22,3.17,3.17,0,0,0-2-.61,3.94,3.94,0,0,0-2.77,1.08,4.72,4.72,0,0,0-1.15,3.59v9.43h-2.77V336.81a5.35,5.35,0,0,0-.4-2.41,2.38,2.38,0,0,0-2.31-1.14,4,4,0,0,0-2.81,1.2c-.84.8-1.26,2.24-1.26,4.33v8.6h-2.73Z"/>
    <path d="M226.59,337.57a1.48,1.48,0,0,0,1.26-.78,2.42,2.42,0,0,0,.18-1.05,2.23,2.23,0,0,0-1-2,5.28,5.28,0,0,0-2.83-.63,3.58,3.58,0,0,0-3,1.16,3.81,3.81,0,0,0-.65,1.9H218c0-2,.7-3.4,1.95-4.18a7.9,7.9,0,0,1,4.33-1.18,8.78,8.78,0,0,1,4.64,1.09,3.7,3.7,0,0,1,1.77,3.39v9.34a1.24,1.24,0,0,0,.17.68.85.85,0,0,0,.74.26l.41,0,.48-.07v2a7.79,7.79,0,0,1-1,.23,7.25,7.25,0,0,1-.91,0,2.23,2.23,0,0,1-2-1,3.84,3.84,0,0,1-.47-1.49,7,7,0,0,1-2.39,1.89,7.48,7.48,0,0,1-3.44.8,5.11,5.11,0,0,1-3.68-1.37,4.51,4.51,0,0,1-1.43-3.42,4.42,4.42,0,0,1,1.4-3.49,6.67,6.67,0,0,1,3.7-1.53Zm-5.73,7.36a3.14,3.14,0,0,0,2,.68,6.21,6.21,0,0,0,2.78-.66,3.74,3.74,0,0,0,2.27-3.61v-2.19a4.65,4.65,0,0,1-1.28.53,11,11,0,0,1-1.54.3l-1.65.21a6.34,6.34,0,0,0-2.22.62,2.41,2.41,0,0,0-1.27,2.27A2.22,2.22,0,0,0,220.86,344.93Z"/>
    <path d="M235.69,326.65h2.75v4.52H241v2.23h-2.59V344a1.15,1.15,0,0,0,.58,1.13,2.29,2.29,0,0,0,1.06.17h.42c.15,0,.33,0,.53,0v2.17a6.16,6.16,0,0,1-1,.19,9.48,9.48,0,0,1-1.1.06,3,3,0,0,1-2.59-1,4.4,4.4,0,0,1-.68-2.54V333.4h-2.2v-2.23h2.2Z"/>
    <path d="M243.76,325.15h2.77v3.09h-2.77Zm0,6.1h2.77v16.14h-2.77Z"/>
    <path d="M262.39,332.79q2.14,2.08,2.15,6.14a10.58,10.58,0,0,1-1.89,6.47q-1.9,2.57-5.88,2.56a6.62,6.62,0,0,1-5.28-2.26,9,9,0,0,1-2-6.07,9.73,9.73,0,0,1,2.06-6.51,6.89,6.89,0,0,1,5.53-2.42A7.27,7.27,0,0,1,262.39,332.79Zm-1.69,10.78a10.37,10.37,0,0,0,1-4.56,8.33,8.33,0,0,0-.71-3.69,4,4,0,0,0-3.93-2.24,3.87,3.87,0,0,0-3.59,1.91,8.87,8.87,0,0,0-1.12,4.59,7.72,7.72,0,0,0,1.12,4.31,3.94,3.94,0,0,0,3.56,1.72A3.71,3.71,0,0,0,260.7,343.57Z"/>
    <path d="M267.89,331.17h2.58v2.3a7.44,7.44,0,0,1,2.44-2,6.55,6.55,0,0,1,2.86-.62c2.3,0,3.86.8,4.66,2.41a8.45,8.45,0,0,1,.67,3.77v10.4h-2.77V337.17a5.54,5.54,0,0,0-.44-2.39,2.66,2.66,0,0,0-2.63-1.52,5.36,5.36,0,0,0-1.59.2,4.08,4.08,0,0,0-2,1.33,4.16,4.16,0,0,0-.89,1.66,11.56,11.56,0,0,0-.2,2.44v8.5h-2.72Z"/>
  </g>
  <g>
    <path d="M128.88,611.27a7.87,7.87,0,0,1,2.56,5.05h-2.93a5.61,5.61,0,0,0-6.07-4.66,6.53,6.53,0,0,0-5.21,2.31q-2,2.31-2,7.09a10.37,10.37,0,0,0,1.79,6.33,6.18,6.18,0,0,0,5.34,2.44,5.65,5.65,0,0,0,5-2.56,10,10,0,0,0,1.35-3.54h2.93a10,10,0,0,1-2.57,5.88,9.08,9.08,0,0,1-7.06,2.86,9.3,9.3,0,0,1-6.44-2.34q-3.42-3.11-3.42-9.59a12.37,12.37,0,0,1,2.57-8.07,9.35,9.35,0,0,1,7.68-3.43A8.93,8.93,0,0,1,128.88,611.27Z"/>
    <path d="M135.26,609.65H138v22.24h-2.72Z"/>
    <path d="M153.81,617.29c1.44,1.39,2.15,3.44,2.15,6.14a10.58,10.58,0,0,1-1.89,6.47q-1.89,2.57-5.88,2.56a6.6,6.6,0,0,1-5.27-2.26,8.93,8.93,0,0,1-2-6.07,9.73,9.73,0,0,1,2.06-6.51,6.92,6.92,0,0,1,5.53-2.42A7.26,7.26,0,0,1,153.81,617.29Zm-1.69,10.78a10.24,10.24,0,0,0,1-4.56,8.19,8.19,0,0,0-.72-3.69,4,4,0,0,0-3.92-2.24,3.85,3.85,0,0,0-3.59,1.91,8.87,8.87,0,0,0-1.13,4.59,7.72,7.72,0,0,0,1.13,4.31,3.92,3.92,0,0,0,3.56,1.72A3.71,3.71,0,0,0,152.12,628.07Z"/>
    <path d="M162,615.67v10.77a4.54,4.54,0,0,0,.39,2,2.66,2.66,0,0,0,2.64,1.46,3.73,3.73,0,0,0,3.77-2.55,10.34,10.34,0,0,0,.55-3.73v-8h2.72v16.22h-2.57l0-2.4a5.36,5.36,0,0,1-1.3,1.56,5.59,5.59,0,0,1-3.71,1.27q-3.41,0-4.63-2.31a7,7,0,0,1-.67-3.32v-11Z"/>
    <path d="M185.46,616.17a7.63,7.63,0,0,1,1.64,1.59v-8.19h2.62v22.32h-2.45v-2.26a5.92,5.92,0,0,1-2.25,2.16,6.31,6.31,0,0,1-3,.67,6,6,0,0,1-4.67-2.28,8.92,8.92,0,0,1-2-6.06,10.51,10.51,0,0,1,1.8-6.14,5.89,5.89,0,0,1,5.15-2.59A5.79,5.79,0,0,1,185.46,616.17Zm-6.08,12.16a3.83,3.83,0,0,0,3.52,1.75,3.7,3.7,0,0,0,3.09-1.62,7.73,7.73,0,0,0,1.22-4.67,6.94,6.94,0,0,0-1.25-4.55,3.9,3.9,0,0,0-3.09-1.48,4.07,4.07,0,0,0-3.32,1.58,7.22,7.22,0,0,0-1.27,4.63A8,8,0,0,0,179.38,628.33Z"/>
    <path d="M202.4,615.67H205V618a7.44,7.44,0,0,1,2.44-2,6.55,6.55,0,0,1,2.86-.62q3.45,0,4.66,2.41a8.45,8.45,0,0,1,.67,3.77v10.4h-2.77V621.67a5.54,5.54,0,0,0-.44-2.39,2.67,2.67,0,0,0-2.63-1.52,5.36,5.36,0,0,0-1.59.2,4.08,4.08,0,0,0-2,1.33,4,4,0,0,0-.89,1.66,11.56,11.56,0,0,0-.2,2.44v8.5H202.4Z"/>
    <path d="M228.33,622.07a1.48,1.48,0,0,0,1.26-.78,2.42,2.42,0,0,0,.18-1,2.23,2.23,0,0,0-1-2,5.28,5.28,0,0,0-2.83-.63,3.58,3.58,0,0,0-3,1.16,3.81,3.81,0,0,0-.65,1.9h-2.54c0-2,.69-3.4,1.94-4.18a7.9,7.9,0,0,1,4.33-1.18,8.78,8.78,0,0,1,4.64,1.09,3.7,3.7,0,0,1,1.77,3.39v9.34a1.24,1.24,0,0,0,.17.68.85.85,0,0,0,.74.26l.41,0,.48-.07v2a7.79,7.79,0,0,1-1,.23,7.25,7.25,0,0,1-.91,0,2.23,2.23,0,0,1-2-1,3.84,3.84,0,0,1-.47-1.49,7,7,0,0,1-2.39,1.89,7.48,7.48,0,0,1-3.44.8,5.11,5.11,0,0,1-3.68-1.37,4.51,4.51,0,0,1-1.43-3.42,4.39,4.39,0,0,1,1.41-3.49,6.61,6.61,0,0,1,3.69-1.53Zm-5.73,7.36a3.14,3.14,0,0,0,2,.68,6.21,6.21,0,0,0,2.78-.66,3.74,3.74,0,0,0,2.28-3.61v-2.19a4.73,4.73,0,0,1-1.29.53,11,11,0,0,1-1.54.3l-1.65.21a6.34,6.34,0,0,0-2.22.62,2.41,2.41,0,0,0-1.27,2.27A2.22,2.22,0,0,0,222.6,629.43Z"/>
    <path d="M237.43,611.15h2.76v4.52h2.58v2.23h-2.58v10.58a1.14,1.14,0,0,0,.57,1.13,2.32,2.32,0,0,0,1.06.17h.42c.16,0,.33,0,.53,0v2.17a6,6,0,0,1-1,.19,9.48,9.48,0,0,1-1.1.06,3,3,0,0,1-2.59-1,4.4,4.4,0,0,1-.68-2.54V617.9h-2.19v-2.23h2.19Z"/>
    <path d="M245.5,609.65h2.77v3.09H245.5Zm0,6.1h2.77v16.14H245.5Z"/>
    <path d="M253.73,615.67l4.32,13.2,4.51-13.2h3l-6.11,16.22h-2.9l-6-16.22Z"/>
    <path d="M277.9,616.12a6.14,6.14,0,0,1,2.45,2.1,7.22,7.22,0,0,1,1.08,2.86,18.77,18.77,0,0,1,.24,3.57H269.88a7,7,0,0,0,1.16,4,3.85,3.85,0,0,0,3.35,1.49,4.31,4.31,0,0,0,3.38-1.41,4.89,4.89,0,0,0,1-1.9h2.68a5.65,5.65,0,0,1-.71,2,6.9,6.9,0,0,1-1.33,1.79,6.26,6.26,0,0,1-3.05,1.64,9.29,9.29,0,0,1-2.21.24,6.78,6.78,0,0,1-5.1-2.2,8.63,8.63,0,0,1-2.09-6.17,9.32,9.32,0,0,1,2.11-6.34,6.91,6.91,0,0,1,5.5-2.44A7.3,7.3,0,0,1,277.9,616.12Zm1,6.36a7.18,7.18,0,0,0-.76-2.83,3.92,3.92,0,0,0-3.71-2,4.1,4.1,0,0,0-3.12,1.35,5.14,5.14,0,0,0-1.34,3.44Z"/>
  </g>
  <line x1="0.37" y1="131.04" x2="1614.27" y2="131.04" style="fill: none;stroke: gray;stroke-miterlimit: 10"/>
  <line x1="0.91" y1="273.04" x2="1614.8" y2="273.04" style="fill: none;stroke: gray;stroke-miterlimit: 10"/>
  <line x1="0.91" y1="411.04" x2="1614.8" y2="411.04" style="fill: none;stroke: gray;stroke-miterlimit: 10"/>
  <line x1="0.91" y1="555.04" x2="1614.8" y2="555.04" style="fill: none;stroke: gray;stroke-miterlimit: 10"/>
  <line x1="0.91" y1="697.04" x2="1614.8" y2="697.04" style="fill: none;stroke: gray;stroke-miterlimit: 10"/>
  <rect x="330.78" y="140.54" width="1284.09" height="117.48" style="opacity: 0.5;fill: url(#linear-gradient)"/>
  <rect x="330.78" y="282.79" width="1284.09" height="117.48" style="opacity: 0.5;fill: url(#linear-gradient-2)"/>
  <rect x="330.78" y="425.04" width="1284.09" height="117.48" style="opacity: 0.5;fill: url(#linear-gradient-3)"/>
  <rect x="330.78" y="567.29" width="1284.09" height="117.48" style="opacity: 0.5;fill: url(#linear-gradient-4)"/>
  <g>
    <path d="M485,35.93h7.5a7,7,0,0,1,5.91,2.74A10.16,10.16,0,0,1,500.32,45a12.72,12.72,0,0,1-1.11,5.4,6.83,6.83,0,0,1-6.71,4.26H485Zm7,16.58a6.66,6.66,0,0,0,2.07-.27,4.58,4.58,0,0,0,2.37-1.92,7.94,7.94,0,0,0,1.06-2.91,10.8,10.8,0,0,0,.19-2A9.25,9.25,0,0,0,496.36,40,4.93,4.93,0,0,0,492,38.11h-4.4v14.4Z"/>
    <path d="M503.48,35.93h2.34v2.6h-2.34Zm0,5.14h2.34v13.6h-2.34Z"/>
    <path d="M516.89,41.56a6.16,6.16,0,0,1,1.32,1.3V41.14h2.12V53.56a9.15,9.15,0,0,1-.77,4.11c-.94,1.86-2.74,2.78-5.37,2.78a6.7,6.7,0,0,1-3.71-1,3.85,3.85,0,0,1-1.67-3.1h2.33a2.62,2.62,0,0,0,.66,1.42,3.37,3.37,0,0,0,2.44.76c1.75,0,2.89-.62,3.44-1.86a10.51,10.51,0,0,0,.44-3.92,4.53,4.53,0,0,1-1.65,1.56,5.52,5.52,0,0,1-2.56.51A5.46,5.46,0,0,1,510,53.26c-1.1-1-1.66-2.78-1.66-5.21a7.9,7.9,0,0,1,1.68-5.36,5.16,5.16,0,0,1,4-1.92A4.94,4.94,0,0,1,516.89,41.56Zm.28,2.46a3.32,3.32,0,0,0-2.65-1.22,3.28,3.28,0,0,0-3.31,2.27,9,9,0,0,0-.46,3.17,5.7,5.7,0,0,0,.93,3.52,3,3,0,0,0,2.51,1.2,3.51,3.51,0,0,0,3.46-2.23,7.25,7.25,0,0,0,.56-2.95A5.74,5.74,0,0,0,517.17,44Z"/>
    <path d="M523.82,35.93h2.34v2.6h-2.34Zm0,5.14h2.34v13.6h-2.34Z"/>
    <path d="M530.09,37.19h2.32V41h2.18v1.87h-2.18V51.8a1,1,0,0,0,.49,1,2.06,2.06,0,0,0,.89.14h.36a4.2,4.2,0,0,0,.44,0v1.82a4.26,4.26,0,0,1-.82.17,8.81,8.81,0,0,1-.92,0,2.5,2.5,0,0,1-2.19-.82,3.68,3.68,0,0,1-.57-2.14v-9h-1.85V41h1.85Z"/>
    <path d="M544.21,46.4a1.22,1.22,0,0,0,1.06-.66,2,2,0,0,0,.16-.88,1.86,1.86,0,0,0-.84-1.71,4.39,4.39,0,0,0-2.39-.53,3,3,0,0,0-2.54,1,3.16,3.16,0,0,0-.55,1.6H537a3.94,3.94,0,0,1,1.63-3.52,6.72,6.72,0,0,1,3.65-1,7.39,7.39,0,0,1,3.92.92,3.11,3.11,0,0,1,1.49,2.85v7.88a1,1,0,0,0,.15.57c.09.15.3.22.61.22l.35,0,.41-.06v1.7a7.72,7.72,0,0,1-.82.19,7.15,7.15,0,0,1-.77,0,1.89,1.89,0,0,1-1.72-.84,3.28,3.28,0,0,1-.39-1.27,5.87,5.87,0,0,1-2,1.6,6.25,6.25,0,0,1-2.9.67,4.29,4.29,0,0,1-3.1-1.15,3.81,3.81,0,0,1-1.21-2.89,3.73,3.73,0,0,1,1.19-2.94,5.62,5.62,0,0,1,3.11-1.29Zm-4.83,6.21a2.7,2.7,0,0,0,1.72.57,5.31,5.31,0,0,0,2.35-.56,3.15,3.15,0,0,0,1.91-3V47.73a3.9,3.9,0,0,1-1.08.45,9,9,0,0,1-1.3.25l-1.39.18a5.44,5.44,0,0,0-1.87.52A2,2,0,0,0,538.65,51,1.88,1.88,0,0,0,539.38,52.61Z"/>
    <path d="M551.49,35.93h2.29V54.67h-2.29Z"/>
    <path d="M564.49,35.93h2.33v2.6h-2.33Zm0,5.14h2.33v13.6h-2.33Z"/>
    <path d="M570.29,41h2.19V43a6,6,0,0,1,2-1.72,5.46,5.46,0,0,1,2.41-.53c1.94,0,3.25.68,3.93,2a7.13,7.13,0,0,1,.56,3.18v8.76H579.1V46.06a4.75,4.75,0,0,0-.37-2,2.24,2.24,0,0,0-2.22-1.28,4.54,4.54,0,0,0-1.34.16,3.51,3.51,0,0,0-1.66,1.13,3.43,3.43,0,0,0-.75,1.4,9.69,9.69,0,0,0-.17,2.06v7.15h-2.3Z"/>
    <path d="M584.83,41H587V43a6.05,6.05,0,0,1,2-1.72,5.51,5.51,0,0,1,2.42-.53c1.93,0,3.24.68,3.93,2a7.28,7.28,0,0,1,.56,3.18v8.76h-2.34V46.06a4.6,4.6,0,0,0-.37-2A2.24,2.24,0,0,0,591,42.77a4.59,4.59,0,0,0-1.34.16A3.51,3.51,0,0,0,588,44.06a3.29,3.29,0,0,0-.74,1.4,9,9,0,0,0-.18,2.06v7.15h-2.29Z"/>
    <path d="M609.26,42.37a6.9,6.9,0,0,1,1.81,5.18A8.91,8.91,0,0,1,609.48,53a5.77,5.77,0,0,1-5,2.16,5.57,5.57,0,0,1-4.44-1.91,7.53,7.53,0,0,1-1.65-5.11,8.23,8.23,0,0,1,1.73-5.49,5.83,5.83,0,0,1,4.67-2A6.13,6.13,0,0,1,609.26,42.37Zm-1.42,9.08a8.65,8.65,0,0,0,.84-3.84,7,7,0,0,0-.61-3.11,3.41,3.41,0,0,0-3.31-1.88,3.24,3.24,0,0,0-3,1.6,7.51,7.51,0,0,0-1,3.88,6.53,6.53,0,0,0,1,3.63,3.31,3.31,0,0,0,3,1.45A3.12,3.12,0,0,0,607.84,51.45Z"/>
    <path d="M615,41l3.65,11.13L622.47,41H625l-5.15,13.66H617.4l-5-13.66Z"/>
    <path d="M634.28,46.4a1.22,1.22,0,0,0,1.06-.66,2,2,0,0,0,.16-.88,1.86,1.86,0,0,0-.84-1.71,4.39,4.39,0,0,0-2.39-.53,3,3,0,0,0-2.54,1,3.16,3.16,0,0,0-.55,1.6H627a3.94,3.94,0,0,1,1.63-3.52,6.73,6.73,0,0,1,3.66-1,7.35,7.35,0,0,1,3.91.92,3.11,3.11,0,0,1,1.49,2.85v7.88a1,1,0,0,0,.15.57c.09.15.3.22.61.22l.35,0,.41-.06v1.7a7.72,7.72,0,0,1-.82.19,7.09,7.09,0,0,1-.76,0,1.9,1.9,0,0,1-1.73-.84,3.12,3.12,0,0,1-.39-1.27,5.87,5.87,0,0,1-2,1.6,6.22,6.22,0,0,1-2.9.67,4.29,4.29,0,0,1-3.1-1.15,3.81,3.81,0,0,1-1.21-2.89,3.73,3.73,0,0,1,1.19-2.94,5.62,5.62,0,0,1,3.11-1.29Zm-4.83,6.21a2.7,2.7,0,0,0,1.72.57,5.31,5.31,0,0,0,2.35-.56,3.15,3.15,0,0,0,1.91-3V47.73a3.9,3.9,0,0,1-1.08.45,8.75,8.75,0,0,1-1.3.25l-1.39.18a5.5,5.5,0,0,0-1.87.52A2,2,0,0,0,628.72,51,1.88,1.88,0,0,0,629.45,52.61Z"/>
    <path d="M642,37.19h2.32V41h2.19v1.87h-2.19V51.8a1,1,0,0,0,.49,1,2.13,2.13,0,0,0,.89.14H646a4.14,4.14,0,0,0,.45,0v1.82a4.52,4.52,0,0,1-.83.17,8.65,8.65,0,0,1-.92,0,2.48,2.48,0,0,1-2.18-.82,3.61,3.61,0,0,1-.58-2.14v-9H640.1V41H642Z"/>
    <path d="M648.75,35.93h2.34v2.6h-2.34Zm0,5.14h2.34v13.6h-2.34Z"/>
    <path d="M664.46,42.37a6.9,6.9,0,0,1,1.81,5.18A8.91,8.91,0,0,1,664.68,53a5.77,5.77,0,0,1-5,2.16,5.59,5.59,0,0,1-4.45-1.91,7.58,7.58,0,0,1-1.64-5.11,8.23,8.23,0,0,1,1.73-5.49,5.82,5.82,0,0,1,4.67-2A6.14,6.14,0,0,1,664.46,42.37ZM663,51.45a8.65,8.65,0,0,0,.84-3.84,7,7,0,0,0-.6-3.11A3.41,3.41,0,0,0,660,42.62a3.26,3.26,0,0,0-3,1.6A7.51,7.51,0,0,0,656,48.1a6.53,6.53,0,0,0,.94,3.63,3.34,3.34,0,0,0,3,1.45A3.11,3.11,0,0,0,663,51.45Z"/>
    <path d="M669.09,41h2.18V43a6,6,0,0,1,2.06-1.72,5.43,5.43,0,0,1,2.41-.53c1.94,0,3.25.68,3.93,2a7.28,7.28,0,0,1,.56,3.18v8.76H677.9V46.06a4.75,4.75,0,0,0-.37-2,2.24,2.24,0,0,0-2.22-1.28,4.54,4.54,0,0,0-1.34.16,3.47,3.47,0,0,0-1.66,1.13,3.32,3.32,0,0,0-.75,1.4,9.69,9.69,0,0,0-.17,2.06v7.15h-2.3Z"/>
    <path d="M486.08,65.8h19.18V69H489.57v8h14.5v3.06h-14.5v9h16v3.15H486.08Z"/>
    <path d="M508.05,73h4.19l4.43,6.78L521.15,73l3.94.09-6.49,9.3,6.78,9.88h-4.14L516.45,85l-4.64,7.24h-4.1l6.78-9.88Z"/>
    <path d="M528,73.06h3.17v2.55a8,8,0,0,1,2.13-2,6.85,6.85,0,0,1,3.86-1.08A7.26,7.26,0,0,1,542.77,75q2.29,2.51,2.3,7.17,0,6.3-3.31,9a7.49,7.49,0,0,1-4.88,1.71,6.62,6.62,0,0,1-3.67-1,8.47,8.47,0,0,1-1.93-1.85v9.84H528Zm12.19,15.1a9,9,0,0,0,1.51-5.67,10.65,10.65,0,0,0-.67-4,4.9,4.9,0,0,0-9.25.18,13.43,13.43,0,0,0-.66,4.57,9.74,9.74,0,0,0,.66,3.79,4.92,4.92,0,0,0,8.41,1.09Z"/>
    <path d="M560.71,73.5A7.28,7.28,0,0,1,563.63,76a8.79,8.79,0,0,1,1.29,3.4,22.58,22.58,0,0,1,.28,4.25h-14a8.33,8.33,0,0,0,1.38,4.72,4.59,4.59,0,0,0,4,1.77,5.12,5.12,0,0,0,4-1.68,5.78,5.78,0,0,0,1.19-2.26h3.18a6.68,6.68,0,0,1-.83,2.37,8.7,8.7,0,0,1-1.59,2.13,7.45,7.45,0,0,1-3.63,1.94,10.51,10.51,0,0,1-2.62.29,8,8,0,0,1-6.06-2.62c-1.66-1.74-2.49-4.19-2.49-7.33a11.17,11.17,0,0,1,2.5-7.54,8.26,8.26,0,0,1,6.55-2.9A8.57,8.57,0,0,1,560.71,73.5Zm1.16,7.56A8.36,8.36,0,0,0,561,77.7a4.65,4.65,0,0,0-4.4-2.34A4.89,4.89,0,0,0,552.84,77a6.05,6.05,0,0,0-1.58,4.09Z"/>
    <path d="M569.4,73h3.07V76.3a7.26,7.26,0,0,1,1.86-2.37,4.79,4.79,0,0,1,3.4-1.4l.3,0,.74.07V76c-.19,0-.37-.06-.53-.07l-.53,0A4.62,4.62,0,0,0,574,77.53a5.48,5.48,0,0,0-1.32,3.62V92.24H569.4Z"/>
    <path d="M581.58,65.8h3.29v3.67h-3.29Zm0,7.26h3.29V92.24h-3.29Z"/>
    <path d="M589.77,73H593V75.7a10.55,10.55,0,0,1,2.09-2.07,6.25,6.25,0,0,1,3.63-1.1,5.71,5.71,0,0,1,3.71,1.14,5.86,5.86,0,0,1,1.44,1.91,7,7,0,0,1,2.53-2.3,7.1,7.1,0,0,1,3.28-.75q3.89,0,5.29,2.81a9.23,9.23,0,0,1,.76,4.07V92.24h-3.37V78.85a3.1,3.1,0,0,0-1-2.64,3.82,3.82,0,0,0-2.35-.72,4.64,4.64,0,0,0-3.28,1.27c-.92.85-1.38,2.28-1.38,4.27V92.24h-3.29V79.66a6.55,6.55,0,0,0-.47-2.86,2.86,2.86,0,0,0-2.76-1.35,4.72,4.72,0,0,0-3.33,1.42c-1,.95-1.51,2.66-1.51,5.15V92.24h-3.23Z"/>
    <path d="M632.37,73.5A7.25,7.25,0,0,1,635.28,76a8.49,8.49,0,0,1,1.29,3.4,22.38,22.38,0,0,1,.29,4.25h-14a8.41,8.41,0,0,0,1.37,4.72,4.61,4.61,0,0,0,4,1.77,5.11,5.11,0,0,0,4-1.68,5.65,5.65,0,0,0,1.19-2.26h3.19a6.72,6.72,0,0,1-.84,2.37,8.43,8.43,0,0,1-1.58,2.13,7.45,7.45,0,0,1-3.63,1.94,10.51,10.51,0,0,1-2.62.29,8,8,0,0,1-6.07-2.62c-1.65-1.74-2.48-4.19-2.48-7.33a11.12,11.12,0,0,1,2.5-7.54,8.25,8.25,0,0,1,6.55-2.9A8.6,8.6,0,0,1,632.37,73.5Zm1.16,7.56a8.52,8.52,0,0,0-.91-3.36,4.66,4.66,0,0,0-4.41-2.34A4.88,4.88,0,0,0,624.5,77a6.11,6.11,0,0,0-1.59,4.09Z"/>
    <path d="M641,73H644V75.7a8.64,8.64,0,0,1,2.89-2.43,7.79,7.79,0,0,1,3.41-.74q4.1,0,5.54,2.87a10.1,10.1,0,0,1,.79,4.48V92.24h-3.29V80.09a6.7,6.7,0,0,0-.52-2.84,3.17,3.17,0,0,0-3.14-1.8,6.68,6.68,0,0,0-1.89.23,4.87,4.87,0,0,0-2.33,1.59,4.71,4.71,0,0,0-1.06,2,13.37,13.37,0,0,0-.24,2.9v10.1H641Z"/>
    <path d="M662.1,67.59h3.28V73h3.08v2.64h-3.08V88.19a1.37,1.37,0,0,0,.68,1.35,3,3,0,0,0,1.26.2h.51l.63-.06v2.57a7.44,7.44,0,0,1-1.16.23,10.8,10.8,0,0,1-1.31.07c-1.51,0-2.54-.38-3.07-1.16a5.06,5.06,0,0,1-.82-3V75.61h-2.6V73h2.6Z"/>
    <path d="M683.6,73.5A7.28,7.28,0,0,1,686.52,76a8.63,8.63,0,0,1,1.28,3.4,22.38,22.38,0,0,1,.29,4.25h-14a8.33,8.33,0,0,0,1.38,4.72,4.58,4.58,0,0,0,4,1.77,5.12,5.12,0,0,0,4-1.68,5.76,5.76,0,0,0,1.18-2.26h3.19a6.53,6.53,0,0,1-.84,2.37,8.43,8.43,0,0,1-1.58,2.13,7.45,7.45,0,0,1-3.63,1.94,10.51,10.51,0,0,1-2.62.29,8,8,0,0,1-6.07-2.62c-1.65-1.74-2.48-4.19-2.48-7.33a11.12,11.12,0,0,1,2.5-7.54,8.25,8.25,0,0,1,6.55-2.9A8.6,8.6,0,0,1,683.6,73.5Zm1.16,7.56a8.36,8.36,0,0,0-.91-3.36,4.66,4.66,0,0,0-4.41-2.34A4.88,4.88,0,0,0,675.73,77a6.11,6.11,0,0,0-1.59,4.09Z"/>
    <path d="M692.28,73h3.08V76.3a7.35,7.35,0,0,1,1.85-2.37,4.82,4.82,0,0,1,3.4-1.4l.31,0,.74.07V76c-.19,0-.37-.06-.53-.07l-.53,0a4.64,4.64,0,0,0-3.77,1.58,5.52,5.52,0,0,0-1.31,3.62V92.24h-3.24Z"/>
  </g>
  <g>
    <path d="M916.13,35.93h7.49a7,7,0,0,1,5.92,2.74A10.22,10.22,0,0,1,931.42,45a12.72,12.72,0,0,1-1.11,5.4,6.83,6.83,0,0,1-6.71,4.26h-7.47Zm7,16.58a6.71,6.71,0,0,0,2.07-.27,4.58,4.58,0,0,0,2.37-1.92,7.94,7.94,0,0,0,1.06-2.91,11.7,11.7,0,0,0,.18-2A9.32,9.32,0,0,0,927.46,40a4.94,4.94,0,0,0-4.36-1.93h-4.4v14.4Z"/>
    <path d="M934.58,35.93h2.34v2.6h-2.34Zm0,5.14h2.34v13.6h-2.34Z"/>
    <path d="M948,41.56a6,6,0,0,1,1.33,1.3V41.14h2.11V53.56a9.16,9.16,0,0,1-.76,4.11c-.95,1.86-2.74,2.78-5.38,2.78a6.64,6.64,0,0,1-3.7-1,3.88,3.88,0,0,1-1.68-3.1h2.34a2.62,2.62,0,0,0,.66,1.42,3.32,3.32,0,0,0,2.43.76c1.75,0,2.9-.62,3.44-1.86a10.68,10.68,0,0,0,.45-3.92,4.48,4.48,0,0,1-1.66,1.56,5.89,5.89,0,0,1-6.42-1.07c-1.11-1-1.66-2.78-1.66-5.21a8,8,0,0,1,1.67-5.36,5.18,5.18,0,0,1,4-1.92A4.91,4.91,0,0,1,948,41.56Zm.28,2.46a3.52,3.52,0,0,0-6,1,8.94,8.94,0,0,0-.47,3.17,5.7,5.7,0,0,0,.93,3.52,3,3,0,0,0,2.51,1.2,3.52,3.52,0,0,0,3.47-2.23,7.25,7.25,0,0,0,.56-2.95A5.68,5.68,0,0,0,948.26,44Z"/>
    <path d="M954.92,35.93h2.33v2.6h-2.33Zm0,5.14h2.33v13.6h-2.33Z"/>
    <path d="M961.18,37.19h2.33V41h2.18v1.87h-2.18V51.8a1,1,0,0,0,.48,1,2.13,2.13,0,0,0,.89.14h.36a4.14,4.14,0,0,0,.45,0v1.82a4.59,4.59,0,0,1-.82.17,9,9,0,0,1-.93,0,2.48,2.48,0,0,1-2.18-.82,3.68,3.68,0,0,1-.58-2.14v-9h-1.85V41h1.85Z"/>
    <path d="M975.31,46.4a1.22,1.22,0,0,0,1.06-.66,2,2,0,0,0,.15-.88,1.88,1.88,0,0,0-.83-1.71,4.41,4.41,0,0,0-2.39-.53,3,3,0,0,0-2.55,1,3.17,3.17,0,0,0-.54,1.6h-2.15a4,4,0,0,1,1.64-3.52,6.72,6.72,0,0,1,3.65-1,7.33,7.33,0,0,1,3.91.92,3.09,3.09,0,0,1,1.49,2.85v7.88a1,1,0,0,0,.15.57.7.7,0,0,0,.62.22l.35,0,.4-.06v1.7a7.66,7.66,0,0,1-.81.19,7.31,7.31,0,0,1-.77,0,1.89,1.89,0,0,1-1.72-.84,3.27,3.27,0,0,1-.4-1.27,5.83,5.83,0,0,1-2,1.6,6.25,6.25,0,0,1-2.9.67A4.32,4.32,0,0,1,968.55,54a3.84,3.84,0,0,1-1.2-2.89,3.69,3.69,0,0,1,1.19-2.94,5.59,5.59,0,0,1,3.11-1.29Zm-4.84,6.21a2.73,2.73,0,0,0,1.73.57,5.26,5.26,0,0,0,2.34-.56,3.15,3.15,0,0,0,1.92-3V47.73a3.9,3.9,0,0,1-1.08.45,9.27,9.27,0,0,1-1.3.25l-1.39.18a5.57,5.57,0,0,0-1.88.52A2,2,0,0,0,969.75,51,1.9,1.9,0,0,0,970.47,52.61Z"/>
    <path d="M982.58,35.93h2.3V54.67h-2.3Z"/>
    <path d="M995.58,35.93h2.34v2.6h-2.34Zm0,5.14h2.34v13.6h-2.34Z"/>
    <path d="M1001.39,41h2.18V43a6,6,0,0,1,2.06-1.72,5.43,5.43,0,0,1,2.41-.53c1.94,0,3.25.68,3.93,2a7.28,7.28,0,0,1,.56,3.18v8.76h-2.34V46.06a4.6,4.6,0,0,0-.37-2,2.22,2.22,0,0,0-2.22-1.28,4.59,4.59,0,0,0-1.34.16,3.44,3.44,0,0,0-1.65,1.13,3.21,3.21,0,0,0-.75,1.4,9.07,9.07,0,0,0-.17,2.06v7.15h-2.3Z"/>
    <path d="M1015.92,41h2.19V43a6,6,0,0,1,2-1.72,5.46,5.46,0,0,1,2.41-.53c1.94,0,3.25.68,3.93,2a7.13,7.13,0,0,1,.56,3.18v8.76h-2.33V46.06a4.75,4.75,0,0,0-.37-2,2.24,2.24,0,0,0-2.22-1.28,4.54,4.54,0,0,0-1.34.16,3.51,3.51,0,0,0-1.66,1.13,3.43,3.43,0,0,0-.75,1.4,9.69,9.69,0,0,0-.17,2.06v7.15h-2.3Z"/>
    <path d="M1040.36,42.37a6.9,6.9,0,0,1,1.81,5.18,8.85,8.85,0,0,1-1.6,5.45,5.74,5.74,0,0,1-5,2.16,5.59,5.59,0,0,1-4.45-1.91,7.52,7.52,0,0,1-1.64-5.11,8.17,8.17,0,0,1,1.73-5.49,5.81,5.81,0,0,1,4.66-2A6.15,6.15,0,0,1,1040.36,42.37Zm-1.43,9.08a8.65,8.65,0,0,0,.84-3.84,7,7,0,0,0-.6-3.11,3.42,3.42,0,0,0-3.31-1.88,3.25,3.25,0,0,0-3,1.6,7.51,7.51,0,0,0-.94,3.88,6.53,6.53,0,0,0,.94,3.63,3.31,3.31,0,0,0,3,1.45A3.12,3.12,0,0,0,1038.93,51.45Z"/>
    <path d="M1046.12,41l3.65,11.13,3.8-11.13h2.51l-5.14,13.66h-2.45l-5-13.66Z"/>
    <path d="M1065.38,46.4a1.22,1.22,0,0,0,1.06-.66,2,2,0,0,0,.15-.88,1.88,1.88,0,0,0-.83-1.71,4.41,4.41,0,0,0-2.39-.53,3,3,0,0,0-2.55,1,3.17,3.17,0,0,0-.54,1.6h-2.15a3.94,3.94,0,0,1,1.64-3.52,6.72,6.72,0,0,1,3.65-1,7.33,7.33,0,0,1,3.91.92,3.09,3.09,0,0,1,1.49,2.85v7.88a1,1,0,0,0,.15.57.7.7,0,0,0,.62.22l.34,0,.41-.06v1.7a7.66,7.66,0,0,1-.81.19,7.31,7.31,0,0,1-.77,0,1.89,1.89,0,0,1-1.72-.84,3.27,3.27,0,0,1-.4-1.27,5.93,5.93,0,0,1-2,1.6,6.25,6.25,0,0,1-2.9.67,4.32,4.32,0,0,1-3.11-1.15,3.84,3.84,0,0,1-1.2-2.89,3.72,3.72,0,0,1,1.18-2.94,5.65,5.65,0,0,1,3.12-1.29Zm-4.84,6.21a2.73,2.73,0,0,0,1.73.57,5.26,5.26,0,0,0,2.34-.56,3.15,3.15,0,0,0,1.92-3V47.73a3.9,3.9,0,0,1-1.08.45,9.27,9.27,0,0,1-1.3.25l-1.39.18a5.57,5.57,0,0,0-1.88.52,2,2,0,0,0-1.06,1.91A1.9,1.9,0,0,0,1060.54,52.61Z"/>
    <path d="M1073.05,37.19h2.32V41h2.18v1.87h-2.18V51.8a1,1,0,0,0,.49,1,2.06,2.06,0,0,0,.89.14h.36a4.2,4.2,0,0,0,.44,0v1.82a4.42,4.42,0,0,1-.82.17,8.85,8.85,0,0,1-.93,0,2.48,2.48,0,0,1-2.18-.82,3.68,3.68,0,0,1-.57-2.14v-9h-1.85V41h1.85Z"/>
    <path d="M1079.85,35.93h2.33v2.6h-2.33Zm0,5.14h2.33v13.6h-2.33Z"/>
    <path d="M1095.56,42.37a6.94,6.94,0,0,1,1.81,5.18,8.85,8.85,0,0,1-1.6,5.45,5.74,5.74,0,0,1-5,2.16,5.59,5.59,0,0,1-4.45-1.91,7.53,7.53,0,0,1-1.65-5.11,8.18,8.18,0,0,1,1.74-5.49,5.81,5.81,0,0,1,4.66-2A6.15,6.15,0,0,1,1095.56,42.37Zm-1.43,9.08a8.65,8.65,0,0,0,.84-3.84,6.83,6.83,0,0,0-.61-3.11,3.4,3.4,0,0,0-3.3-1.88,3.25,3.25,0,0,0-3,1.6,7.51,7.51,0,0,0-1,3.88,6.53,6.53,0,0,0,1,3.63,3.31,3.31,0,0,0,3,1.45A3.12,3.12,0,0,0,1094.13,51.45Z"/>
    <path d="M1100.19,41h2.18V43a6.05,6.05,0,0,1,2.05-1.72,5.51,5.51,0,0,1,2.42-.53c1.94,0,3.24.68,3.93,2a7.28,7.28,0,0,1,.56,3.18v8.76H1109V46.06a4.6,4.6,0,0,0-.37-2,2.24,2.24,0,0,0-2.22-1.28,4.59,4.59,0,0,0-1.34.16,3.51,3.51,0,0,0-1.66,1.13,3.29,3.29,0,0,0-.74,1.4,9.07,9.07,0,0,0-.17,2.06v7.15h-2.3Z"/>
    <path d="M938.61,69.58a14.6,14.6,0,0,1,2.62,9,15.76,15.76,0,0,1-3,9.85Q934.71,93,928.17,93a12,12,0,0,1-9.59-4,15.18,15.18,0,0,1-3.12-9.82A15.59,15.59,0,0,1,918.13,70q3.42-4.89,10.11-4.9Q935.24,65.08,938.61,69.58Zm-3.16,16.85a14.42,14.42,0,0,0,2.11-7.8,11.09,11.09,0,0,0-2.44-7.51,8.29,8.29,0,0,0-6.66-2.85,8.69,8.69,0,0,0-6.7,2.82c-1.72,1.88-2.59,4.65-2.59,8.31a12.15,12.15,0,0,0,2.22,7.41q2.24,3,7.21,3Q933.34,89.83,935.45,86.43Z"/>
    <path d="M944.8,73.06H948v2.55a8,8,0,0,1,2.13-2A6.87,6.87,0,0,1,954,72.5,7.29,7.29,0,0,1,959.53,75q2.29,2.51,2.29,7.17,0,6.3-3.31,9a7.46,7.46,0,0,1-4.87,1.71,6.62,6.62,0,0,1-3.67-1A8.27,8.27,0,0,1,948,90.08v9.84H944.8ZM957,88.16c1-1.26,1.51-3.16,1.51-5.67a10.45,10.45,0,0,0-.67-4,4.9,4.9,0,0,0-9.24.18,13.17,13.17,0,0,0-.67,4.57,9.55,9.55,0,0,0,.67,3.79,4.91,4.91,0,0,0,8.4,1.09Z"/>
    <path d="M966.21,67.59h3.28V73h3.07v2.64h-3.07V88.19a1.36,1.36,0,0,0,.68,1.35,2.92,2.92,0,0,0,1.26.2h.5l.63-.06v2.57a7.22,7.22,0,0,1-1.16.23,10.52,10.52,0,0,1-1.3.07c-1.51,0-2.54-.38-3.08-1.16a5.13,5.13,0,0,1-.81-3V75.61H963.6V73h2.61Z"/>
    <path d="M975.8,65.8h3.29v3.67H975.8Zm0,7.26h3.29V92.24H975.8Z"/>
    <path d="M984,73h3.2V75.7a10.82,10.82,0,0,1,2.09-2.07,6.3,6.3,0,0,1,3.64-1.1,5.68,5.68,0,0,1,3.7,1.14,5.86,5.86,0,0,1,1.44,1.91,6.72,6.72,0,0,1,5.81-3c2.59,0,4.36.94,5.29,2.81a9.09,9.09,0,0,1,.76,4.07V92.24h-3.36V78.85a3.11,3.11,0,0,0-1-2.64,3.8,3.8,0,0,0-2.35-.72,4.66,4.66,0,0,0-3.28,1.27c-.92.85-1.38,2.28-1.38,4.27V92.24h-3.29V79.66a6.55,6.55,0,0,0-.47-2.86,2.85,2.85,0,0,0-2.75-1.35,4.75,4.75,0,0,0-3.34,1.42c-1,.95-1.5,2.66-1.5,5.15V92.24H984Z"/>
    <path d="M1014.69,65.8H1018v3.67h-3.29Zm0,7.26H1018V92.24h-3.29Z"/>
    <path d="M1021.44,89.68l11.44-13.82h-10.6V73h15v2.64l-11.37,13.73h11.71v2.9h-16.14Z"/>
    <path d="M1053.21,73.5a7.25,7.25,0,0,1,2.91,2.49,8.49,8.49,0,0,1,1.29,3.4,22.38,22.38,0,0,1,.29,4.25h-14a8.41,8.41,0,0,0,1.37,4.72,4.61,4.61,0,0,0,4,1.77,5.11,5.11,0,0,0,4-1.68,5.65,5.65,0,0,0,1.19-2.26h3.19a6.93,6.93,0,0,1-.84,2.37,8.22,8.22,0,0,1-1.59,2.13,7.38,7.38,0,0,1-3.62,1.94,10.53,10.53,0,0,1-2.63.29,8,8,0,0,1-6.06-2.62c-1.65-1.74-2.48-4.19-2.48-7.33a11.12,11.12,0,0,1,2.5-7.54,8.25,8.25,0,0,1,6.55-2.9A8.6,8.6,0,0,1,1053.21,73.5Zm1.16,7.56a8.52,8.52,0,0,0-.91-3.36,4.66,4.66,0,0,0-4.41-2.34,4.88,4.88,0,0,0-3.71,1.61,6.11,6.11,0,0,0-1.59,4.09Z"/>
    <path d="M1061.89,73H1065V76.3a7.35,7.35,0,0,1,1.85-2.37,4.81,4.81,0,0,1,3.4-1.4l.31,0,.74.07V76c-.2,0-.37-.06-.54-.07l-.53,0a4.63,4.63,0,0,0-3.76,1.58,5.52,5.52,0,0,0-1.31,3.62V92.24h-3.24Z"/>
  </g>
  <g>
    <path d="M1377.23,35.93h7.49a7.06,7.06,0,0,1,5.92,2.74,10.22,10.22,0,0,1,1.87,6.34,12.72,12.72,0,0,1-1.11,5.4,6.82,6.82,0,0,1-6.71,4.26h-7.46Zm7,16.58a6.66,6.66,0,0,0,2.07-.27,4.58,4.58,0,0,0,2.37-1.92,7.94,7.94,0,0,0,1.06-2.91,10.8,10.8,0,0,0,.19-2,9.25,9.25,0,0,0-1.36-5.41,4.93,4.93,0,0,0-4.36-1.93h-4.4v14.4Z"/>
    <path d="M1395.68,35.93H1398v2.6h-2.33Zm0,5.14H1398v13.6h-2.33Z"/>
    <path d="M1409.08,41.56a6.16,6.16,0,0,1,1.32,1.3V41.14h2.12V53.56a9.15,9.15,0,0,1-.77,4.11c-.94,1.86-2.74,2.78-5.37,2.78a6.64,6.64,0,0,1-3.7-1,3.86,3.86,0,0,1-1.68-3.1h2.33a2.62,2.62,0,0,0,.66,1.42,3.37,3.37,0,0,0,2.44.76c1.75,0,2.9-.62,3.44-1.86a10.51,10.51,0,0,0,.44-3.92,4.53,4.53,0,0,1-1.65,1.56,5.52,5.52,0,0,1-2.56.51,5.46,5.46,0,0,1-3.87-1.58c-1.1-1-1.65-2.78-1.65-5.21a7.89,7.89,0,0,1,1.67-5.36,5.16,5.16,0,0,1,4-1.92A4.94,4.94,0,0,1,1409.08,41.56Zm.28,2.46a3.31,3.31,0,0,0-2.65-1.22,3.26,3.26,0,0,0-3.3,2.27,8.72,8.72,0,0,0-.47,3.17,5.7,5.7,0,0,0,.93,3.52,3,3,0,0,0,2.51,1.2,3.51,3.51,0,0,0,3.46-2.23,7.25,7.25,0,0,0,.56-2.95A5.74,5.74,0,0,0,1409.36,44Z"/>
    <path d="M1416,35.93h2.34v2.6H1416Zm0,5.14h2.34v13.6H1416Z"/>
    <path d="M1422.28,37.19h2.32V41h2.18v1.87h-2.18V51.8a1,1,0,0,0,.49,1,2.06,2.06,0,0,0,.89.14h.36a4.2,4.2,0,0,0,.44,0v1.82a4.26,4.26,0,0,1-.82.17,8.65,8.65,0,0,1-.92,0,2.5,2.5,0,0,1-2.19-.82,3.68,3.68,0,0,1-.57-2.14v-9h-1.85V41h1.85Z"/>
    <path d="M1436.41,46.4a1.2,1.2,0,0,0,1-.66,1.89,1.89,0,0,0,.16-.88,1.86,1.86,0,0,0-.84-1.71,4.37,4.37,0,0,0-2.38-.53,3,3,0,0,0-2.55,1,3.26,3.26,0,0,0-.55,1.6h-2.14a4,4,0,0,1,1.63-3.52,6.73,6.73,0,0,1,3.66-1,7.35,7.35,0,0,1,3.91.92,3.11,3.11,0,0,1,1.49,2.85v7.88a1,1,0,0,0,.15.57c.09.15.3.22.62.22l.34,0,.41-.06v1.7a7.72,7.72,0,0,1-.82.19,7.09,7.09,0,0,1-.76,0,1.91,1.91,0,0,1-1.73-.84,3.28,3.28,0,0,1-.39-1.27,5.87,5.87,0,0,1-2,1.6,6.21,6.21,0,0,1-2.89.67,4.3,4.3,0,0,1-3.11-1.15,3.81,3.81,0,0,1-1.21-2.89,3.73,3.73,0,0,1,1.19-2.94,5.62,5.62,0,0,1,3.11-1.29Zm-4.84,6.21a2.7,2.7,0,0,0,1.72.57,5.31,5.31,0,0,0,2.35-.56,3.14,3.14,0,0,0,1.91-3V47.73a3.9,3.9,0,0,1-1.08.45,8.75,8.75,0,0,1-1.3.25l-1.39.18a5.5,5.5,0,0,0-1.87.52,2,2,0,0,0-1.07,1.91A1.88,1.88,0,0,0,1431.57,52.61Z"/>
    <path d="M1443.68,35.93H1446V54.67h-2.29Z"/>
    <path d="M1456.68,35.93H1459v2.6h-2.33Zm0,5.14H1459v13.6h-2.33Z"/>
    <path d="M1462.49,41h2.18V43a6,6,0,0,1,2-1.72,5.46,5.46,0,0,1,2.41-.53c1.94,0,3.25.68,3.93,2a7.13,7.13,0,0,1,.56,3.18v8.76h-2.33V46.06a4.6,4.6,0,0,0-.37-2,2.24,2.24,0,0,0-2.22-1.28,4.54,4.54,0,0,0-1.34.16,3.51,3.51,0,0,0-1.66,1.13,3.43,3.43,0,0,0-.75,1.4,9.69,9.69,0,0,0-.17,2.06v7.15h-2.29Z"/>
    <path d="M1477,41h2.18V43a6.05,6.05,0,0,1,2-1.72,5.51,5.51,0,0,1,2.42-.53c1.94,0,3.25.68,3.93,2a7.28,7.28,0,0,1,.56,3.18v8.76h-2.34V46.06a4.6,4.6,0,0,0-.37-2,2.24,2.24,0,0,0-2.22-1.28,4.59,4.59,0,0,0-1.34.16,3.51,3.51,0,0,0-1.66,1.13,3.29,3.29,0,0,0-.74,1.4,9.07,9.07,0,0,0-.17,2.06v7.15H1477Z"/>
    <path d="M1501.45,42.37a6.9,6.9,0,0,1,1.81,5.18,8.91,8.91,0,0,1-1.59,5.45,5.77,5.77,0,0,1-5,2.16,5.58,5.58,0,0,1-4.44-1.91,7.53,7.53,0,0,1-1.65-5.11,8.18,8.18,0,0,1,1.74-5.49,5.8,5.8,0,0,1,4.66-2A6.11,6.11,0,0,1,1501.45,42.37ZM1500,51.45a8.65,8.65,0,0,0,.84-3.84,7,7,0,0,0-.61-3.11,3.4,3.4,0,0,0-3.3-1.88,3.25,3.25,0,0,0-3,1.6,7.51,7.51,0,0,0-1,3.88,6.53,6.53,0,0,0,1,3.63,3.31,3.31,0,0,0,3,1.45A3.12,3.12,0,0,0,1500,51.45Z"/>
    <path d="M1507.21,41l3.65,11.13L1514.67,41h2.51L1512,54.67h-2.44l-5-13.66Z"/>
    <path d="M1526.47,46.4a1.22,1.22,0,0,0,1.06-.66,2,2,0,0,0,.16-.88,1.86,1.86,0,0,0-.84-1.71,4.39,4.39,0,0,0-2.39-.53,3,3,0,0,0-2.54,1,3.26,3.26,0,0,0-.55,1.6h-2.14a4,4,0,0,1,1.63-3.52,6.73,6.73,0,0,1,3.66-1,7.35,7.35,0,0,1,3.91.92,3.11,3.11,0,0,1,1.49,2.85v7.88a1,1,0,0,0,.15.57c.09.15.3.22.61.22l.35,0,.41-.06v1.7a7.72,7.72,0,0,1-.82.19,7.09,7.09,0,0,1-.76,0,1.9,1.9,0,0,1-1.73-.84,3.28,3.28,0,0,1-.39-1.27,5.87,5.87,0,0,1-2,1.6,6.24,6.24,0,0,1-2.89.67,4.3,4.3,0,0,1-3.11-1.15,3.81,3.81,0,0,1-1.21-2.89,3.73,3.73,0,0,1,1.19-2.94,5.62,5.62,0,0,1,3.11-1.29Zm-4.83,6.21a2.7,2.7,0,0,0,1.72.57,5.31,5.31,0,0,0,2.35-.56,3.15,3.15,0,0,0,1.91-3V47.73a3.9,3.9,0,0,1-1.08.45,8.75,8.75,0,0,1-1.3.25l-1.39.18a5.5,5.5,0,0,0-1.87.52,2,2,0,0,0-1.07,1.91A1.88,1.88,0,0,0,1521.64,52.61Z"/>
    <path d="M1534.14,37.19h2.32V41h2.19v1.87h-2.19V51.8a1,1,0,0,0,.49,1,2.13,2.13,0,0,0,.89.14h.36a4.14,4.14,0,0,0,.45,0v1.82a4.52,4.52,0,0,1-.83.17,8.65,8.65,0,0,1-.92,0,2.48,2.48,0,0,1-2.18-.82,3.61,3.61,0,0,1-.58-2.14v-9h-1.85V41h1.85Z"/>
    <path d="M1540.94,35.93h2.34v2.6h-2.34Zm0,5.14h2.34v13.6h-2.34Z"/>
    <path d="M1556.65,42.37a6.9,6.9,0,0,1,1.81,5.18,8.91,8.91,0,0,1-1.59,5.45,5.77,5.77,0,0,1-5,2.16,5.6,5.6,0,0,1-4.45-1.91,7.58,7.58,0,0,1-1.64-5.11,8.23,8.23,0,0,1,1.73-5.49,5.83,5.83,0,0,1,4.67-2A6.14,6.14,0,0,1,1556.65,42.37Zm-1.43,9.08a8.65,8.65,0,0,0,.84-3.84,7,7,0,0,0-.6-3.11,3.41,3.41,0,0,0-3.31-1.88,3.23,3.23,0,0,0-3,1.6,7.42,7.42,0,0,0-1,3.88,6.45,6.45,0,0,0,1,3.63,3.31,3.31,0,0,0,3,1.45A3.1,3.1,0,0,0,1555.22,51.45Z"/>
    <path d="M1561.28,41h2.18V43a6.08,6.08,0,0,1,2.06-1.72,5.46,5.46,0,0,1,2.41-.53c1.94,0,3.25.68,3.93,2a7.28,7.28,0,0,1,.56,3.18v8.76h-2.33V46.06a4.75,4.75,0,0,0-.37-2,2.24,2.24,0,0,0-2.22-1.28,4.54,4.54,0,0,0-1.34.16,3.47,3.47,0,0,0-1.66,1.13,3.43,3.43,0,0,0-.75,1.4,9.69,9.69,0,0,0-.17,2.06v7.15h-2.3Z"/>
    <path d="M1378.74,65.8h3.61V92.24h-3.61Z"/>
    <path d="M1387.73,73h3.08V75.7a8.57,8.57,0,0,1,2.9-2.43,7.74,7.74,0,0,1,3.4-.74c2.74,0,4.58,1,5.54,2.87a10.1,10.1,0,0,1,.79,4.48V92.24h-3.29V80.09a6.55,6.55,0,0,0-.52-2.84,3.17,3.17,0,0,0-3.13-1.8,6.58,6.58,0,0,0-1.89.23,4.85,4.85,0,0,0-2.34,1.59,4.69,4.69,0,0,0-1,2,12.66,12.66,0,0,0-.25,2.9v10.1h-3.24Z"/>
    <path d="M1408.23,73h3.08V75.7a8.57,8.57,0,0,1,2.9-2.43,7.71,7.71,0,0,1,3.4-.74q4.1,0,5.54,2.87a10.1,10.1,0,0,1,.79,4.48V92.24h-3.29V80.09a6.7,6.7,0,0,0-.52-2.84,3.17,3.17,0,0,0-3.14-1.8,6.68,6.68,0,0,0-1.89.23,5.34,5.34,0,0,0-3.39,3.56,13.37,13.37,0,0,0-.24,2.9v10.1h-3.24Z"/>
    <path d="M1442.69,74.89c1.7,1.65,2.56,4.09,2.56,7.3a12.51,12.51,0,0,1-2.26,7.69c-1.5,2-3.82,3-7,3a7.84,7.84,0,0,1-6.27-2.69,10.63,10.63,0,0,1-2.33-7.21,11.57,11.57,0,0,1,2.45-7.74,8.22,8.22,0,0,1,6.58-2.87A8.65,8.65,0,0,1,1442.69,74.89Zm-2,12.81a12.24,12.24,0,0,0,1.18-5.42,9.75,9.75,0,0,0-.85-4.39,4.8,4.8,0,0,0-4.66-2.66,4.59,4.59,0,0,0-4.27,2.27,10.57,10.57,0,0,0-1.34,5.46,9.18,9.18,0,0,0,1.34,5.12,4.67,4.67,0,0,0,4.23,2A4.42,4.42,0,0,0,1440.68,87.7Z"/>
    <path d="M1450.82,73,1456,88.66,1461.32,73h3.55l-7.26,19.27h-3.45L1447.05,73Z"/>
    <path d="M1478,80.58a1.76,1.76,0,0,0,1.49-.94,2.77,2.77,0,0,0,.22-1.25,2.64,2.64,0,0,0-1.18-2.41,6.26,6.26,0,0,0-3.37-.75,4.27,4.27,0,0,0-3.59,1.38,4.57,4.57,0,0,0-.77,2.26h-3q.09-3.57,2.31-5a9.38,9.38,0,0,1,5.15-1.4,10.48,10.48,0,0,1,5.51,1.29,4.4,4.4,0,0,1,2.11,4V88.93a1.52,1.52,0,0,0,.2.81,1,1,0,0,0,.88.3l.48,0,.58-.08v2.39a11.24,11.24,0,0,1-1.15.27,10,10,0,0,1-1.08.05,2.65,2.65,0,0,1-2.43-1.18,4.55,4.55,0,0,1-.56-1.79,8.14,8.14,0,0,1-2.84,2.25,8.77,8.77,0,0,1-4.09,1,6.08,6.08,0,0,1-4.38-1.63,5.4,5.4,0,0,1-1.7-4.07,5.24,5.24,0,0,1,1.67-4.15,8,8,0,0,1,4.39-1.82Zm-6.82,8.75a3.84,3.84,0,0,0,2.43.8,7.36,7.36,0,0,0,3.31-.79,4.44,4.44,0,0,0,2.7-4.29V82.44a5.46,5.46,0,0,1-1.53.64,15.55,15.55,0,0,1-1.83.36l-2,.25a7.54,7.54,0,0,0-2.64.73,2.87,2.87,0,0,0-1.51,2.7A2.66,2.66,0,0,0,1471.16,89.33Z"/>
    <path d="M1488.79,67.59h3.28V73h3.08v2.64h-3.08V88.19a1.37,1.37,0,0,0,.68,1.35,2.92,2.92,0,0,0,1.26.2h.51l.63-.06v2.57a7.44,7.44,0,0,1-1.16.23,10.8,10.8,0,0,1-1.31.07c-1.51,0-2.54-.38-3.08-1.16a5.13,5.13,0,0,1-.81-3V75.61h-2.61V73h2.61Z"/>
    <path d="M1512.35,74.89c1.7,1.65,2.55,4.09,2.55,7.3a12.57,12.57,0,0,1-2.25,7.69q-2.25,3-7,3a7.85,7.85,0,0,1-6.28-2.69,10.68,10.68,0,0,1-2.32-7.21,11.57,11.57,0,0,1,2.45-7.74,8.2,8.2,0,0,1,6.57-2.87A8.65,8.65,0,0,1,1512.35,74.89Zm-2,12.81a12.24,12.24,0,0,0,1.18-5.42,9.75,9.75,0,0,0-.85-4.39,4.8,4.8,0,0,0-4.66-2.66,4.59,4.59,0,0,0-4.27,2.27A10.57,10.57,0,0,0,1500.4,83a9.18,9.18,0,0,0,1.34,5.12,4.67,4.67,0,0,0,4.23,2A4.42,4.42,0,0,0,1510.34,87.7Z"/>
    <path d="M1519,73h3.08V76.3a7.35,7.35,0,0,1,1.85-2.37,4.82,4.82,0,0,1,3.4-1.4l.31,0,.74.07V76c-.2,0-.37-.06-.53-.07l-.53,0a4.64,4.64,0,0,0-3.77,1.58,5.52,5.52,0,0,0-1.31,3.62V92.24H1519Z"/>
  </g>
  <g>
    <path d="M430.52,90.89H393.28A2.88,2.88,0,0,1,390.4,88V47.78a2.89,2.89,0,0,1,2.88-2.88h36.61l-.8,1.34H393.28a1.55,1.55,0,0,0-1.55,1.54V88a1.56,1.56,0,0,0,1.55,1.55h37.24Z" style="fill: #5f0000"/>
    <path d="M405.77,90.89H443A2.88,2.88,0,0,0,445.89,88V47.78A2.89,2.89,0,0,0,443,44.9H414.4l.8,1.34H443a1.55,1.55,0,0,1,1.55,1.54V88A1.56,1.56,0,0,1,443,89.56H405.77Z" style="fill: #5f0000"/>
    <path d="M414.43,70.5a.8.8,0,0,0-1.13,0,.79.79,0,0,0,0,1.13l4.89,5.18L413.27,82a.79.79,0,0,0,0,1.13.77.77,0,0,0,.55.22.83.83,0,0,0,.58-.25l5.41-5.73a.8.8,0,0,0,0-1.1Z" style="fill: #e00"/>
    <path d="M411.48,70.38a.8.8,0,0,0-1,.46l-4.34,11.31a.8.8,0,0,0,.46,1,.69.69,0,0,0,.28,0,.79.79,0,0,0,.75-.51l4.34-11.32a.79.79,0,0,0-.46-1Z" style="fill: #e00"/>
    <path d="M404.75,70.47a.8.8,0,0,0-1.13,0l-5.41,5.73a.8.8,0,0,0,0,1.1l5.41,5.73a.79.79,0,0,0,.58.25.77.77,0,0,0,.55-.22.79.79,0,0,0,0-1.13l-4.89-5.18,4.89-5.18a.79.79,0,0,0,0-1.13Z" style="fill: #e00"/>
    <path d="M409.85,56.47l.8-1.34,34.74-.06v1.34Z" style="fill: #5f0000"/>
    <path d="M406.31,56.49h-9.46c-1.77,0-3.2,0-4.19,0-1.86,0-1.86,0-2.07-.3l1.05-.82h0a.67.67,0,0,0-.42-.26c.34,0,4,.08,19.33.07h4.78l1.6,1.33H406.31Z" style="fill: #5f0000"/>
    <rect x="395.07" y="49.99" width="1.36" height="1.33" style="fill: #9b9b9b"/>
    <rect x="400.52" y="49.99" width="1.36" height="1.33" style="fill: #9b9b9b"/>
    <rect x="405.96" y="49.99" width="1.36" height="1.33" style="fill: #9b9b9b"/>
  </g>
  <g>
    <path d="M869.65,62.73h-1.34V45.94a1.56,1.56,0,0,0-1.55-1.55h-6l-.8-1.33h6.77a2.88,2.88,0,0,1,2.88,2.88Z" style="fill: #5f0000"/>
    <path d="M849.62,89.05H812.38a2.89,2.89,0,0,1-2.88-2.88V45.94a2.88,2.88,0,0,1,2.88-2.88H865l-.8,1.33H812.38a1.56,1.56,0,0,0-1.54,1.55V86.17a1.56,1.56,0,0,0,1.54,1.55h37.24Z" style="fill: #5f0000"/>
    <path d="M833.53,68.66a.8.8,0,0,0-1.16,1.1l4.89,5.18-4.89,5.19a.79.79,0,0,0,0,1.13.82.82,0,0,0,.55.22.83.83,0,0,0,.58-.25l5.41-5.73a.8.8,0,0,0,0-1.1Z" style="fill: #e00"/>
    <path d="M830.59,68.54a.8.8,0,0,0-1,.46l-4.34,11.31a.81.81,0,0,0,.46,1,.93.93,0,0,0,.29.05.79.79,0,0,0,.74-.52l4.35-11.31a.8.8,0,0,0-.46-1Z" style="fill: #e00"/>
    <path d="M823.86,68.63a.81.81,0,0,0-1.14,0l-5.41,5.73a.8.8,0,0,0,0,1.1l5.41,5.73a.79.79,0,0,0,.59.25.8.8,0,0,0,.58-1.35L819,74.94l4.9-5.18a.8.8,0,0,0,0-1.13Z" style="fill: #e00"/>
    <path d="M829,54.62l.8-1.33,38.75-.06v1.33Z" style="fill: #5f0000"/>
    <path d="M825.41,54.64H816l-4.19,0c-1.86,0-1.86,0-2.07-.3l1-.82h0a.65.65,0,0,0-.42-.26c.34,0,4,.08,19.33.07h4.78l1.6,1.33H825.41Z" style="fill: #5f0000"/>
    <rect x="814.17" y="48.14" width="1.36" height="1.33" style="fill: #9b9b9b"/>
    <rect x="819.62" y="48.14" width="1.36" height="1.33" style="fill: #9b9b9b"/>
    <rect x="825.06" y="48.14" width="1.36" height="1.33" style="fill: #9b9b9b"/>
    <path d="M860.28,71.74h0a4.51,4.51,0,1,0,4.51,4.52,4.52,4.52,0,0,0-4.51-4.52Zm0,10h0a5.51,5.51,0,1,1,5.52-5.51,5.53,5.53,0,0,1-5.52,5.51Zm-4.95,2.57a1,1,0,0,1,.46.11l2.67,1.27h0a1.12,1.12,0,0,1,.62.92l.1,2.09h0a.1.1,0,0,0,.09.08H862a.08.08,0,0,0,.08-.08l.23-2.41a1.09,1.09,0,0,1,.68-.91l2.48-1h0a1.09,1.09,0,0,1,1.15.22l1.67,1.56a.09.09,0,0,0,.12,0l1.85-1.85a.11.11,0,0,0,0-.06.14.14,0,0,0,0-.06l-1.78-1.67h0a1.09,1.09,0,0,1-.25-1.24l1.41-3.21h0a1.1,1.1,0,0,1,1-.65h2.5a.07.07,0,0,0,.08-.08V74.93a.08.08,0,0,0-.08-.09h-2.65a1.07,1.07,0,0,1-1-.65l-1.11-2.59h0a1.09,1.09,0,0,1,.23-1.21l2.14-2.14h0s0,0,0-.06a.09.09,0,0,0,0-.06l-1.86-1.86h0a.09.09,0,0,0-.12,0l-2.11,2h0a1.08,1.08,0,0,1-1.27.17l-2.48-1.36h0a1.11,1.11,0,0,1-.57-1V63.58a.09.09,0,0,0-.08-.08h-3.55a.09.09,0,0,0-.09.08v2.94a1.09,1.09,0,0,1-.72,1l-2.66,1a1.08,1.08,0,0,1-1.25-.37l-1.22-1.63a.09.09,0,0,0-.06,0,.06.06,0,0,0-.07,0l-1.92,1.93h0a.11.11,0,0,0,0,.06.09.09,0,0,0,0,.06l1.61,1.5a1.1,1.1,0,0,1,.24,1.26l-1.4,2.91a1.09,1.09,0,0,1-1,.61h-2a.09.09,0,0,0-.09.09v2.58a.09.09,0,0,0,0,.06l.06,0,2.09-.1a1.09,1.09,0,0,1,1.09.76l.89,2.76a1.11,1.11,0,0,1-.13.94l-1.18,1.76h0a.09.09,0,0,0,0,.1L852.75,86a.09.09,0,0,0,.12,0l1.78-1.45h0a1.14,1.14,0,0,1,.69-.23ZM862,89.82h-2.69a1.09,1.09,0,0,1-1.09-1l-.11-2.09a.08.08,0,0,0-.05-.07l-2.66-1.27h0a.1.1,0,0,0-.09,0l-1.78,1.45a1.09,1.09,0,0,1-1.52-.14l-1.87-2.21a1.1,1.1,0,0,1-.07-1.31l1.17-1.77h0a.06.06,0,0,0,0-.07l-.88-2.77s0-.07-.08-.06l-2.09.1h0a1.07,1.07,0,0,1-.8-.29,1.1,1.1,0,0,1-.34-.79V74.93a1.09,1.09,0,0,1,1.09-1.09h2a.08.08,0,0,0,.07,0l1.39-2.9a.08.08,0,0,0,0-.1L850,69.29a1.08,1.08,0,0,1-.34-.77,1.06,1.06,0,0,1,.33-.8l1.92-1.92a1.1,1.1,0,0,1,1.65.11l1.22,1.63a.07.07,0,0,0,.1,0l2.67-1h0a.08.08,0,0,0,.05-.08V63.58a1.09,1.09,0,0,1,1.09-1.09h3.55a1.09,1.09,0,0,1,1.09,1.09v2.54s0,0,0,.07l2.47,1.36a.09.09,0,0,0,.1,0l2.11-2a1.07,1.07,0,0,1,1.52,0l1.86,1.85a1.14,1.14,0,0,1,.32.78,1.12,1.12,0,0,1-.32.77l-2.13,2.14a.08.08,0,0,0,0,.09l1.11,2.59a.08.08,0,0,0,.07,0h2.65a1.09,1.09,0,0,1,1.1,1.09v2.45a1.1,1.1,0,0,1-1.1,1.09h-2.5a.08.08,0,0,0-.08,0l-1.41,3.21h0a.1.1,0,0,0,0,.09l1.78,1.67a1.09,1.09,0,0,1,0,1.56l-1.85,1.85a1.08,1.08,0,0,1-1.51,0l-1.68-1.57a.09.09,0,0,0-.09,0l-2.47,1h0a.08.08,0,0,0-.05.07l-.23,2.41a1.09,1.09,0,0,1-1.09,1Z" style="fill: #9b9b9b"/>
  </g>
  <g>
    <path d="M1320.62,67.8h-1.34V51a1.56,1.56,0,0,0-1.54-1.55H1315l-.8-1.33h3.57a2.88,2.88,0,0,1,2.88,2.88Z" style="fill: #5f0000"/>
    <path d="M1300.59,94.12h-37.24a2.9,2.9,0,0,1-2.88-2.88V51a2.89,2.89,0,0,1,2.88-2.88h17.42l-.8,1.33h-16.62a1.56,1.56,0,0,0-1.54,1.55V91.24a1.56,1.56,0,0,0,1.54,1.55h37.24Z" style="fill: #5f0000"/>
    <polygon points="1315.12 59.7 1315.92 58.36 1319.47 58.3 1319.47 59.64 1315.12 59.7" style="fill: #5f0000"/>
    <path d="M1276.39,59.71h-9.47l-4.18,0c-1.87,0-1.87,0-2.08-.3l1-.82h0a.65.65,0,0,0-.42-.26c.35,0,4,.08,19.33.07h1.59l1.6,1.33h-7.42Z" style="fill: #5f0000"/>
    <rect x="1265.15" y="53.21" width="1.36" height="1.33" style="fill: #9b9b9b"/>
    <rect x="1270.59" y="53.21" width="1.36" height="1.33" style="fill: #9b9b9b"/>
    <rect x="1276.04" y="53.21" width="1.36" height="1.33" style="fill: #9b9b9b"/>
    <path d="M1311.26,76.81h0a4.5,4.5,0,1,0,4.51,4.51,4.49,4.49,0,0,0-4.51-4.51Zm0,10h0a5.52,5.52,0,1,1,5.51-5.52,5.51,5.51,0,0,1-5.51,5.52Zm-5,2.57a1.12,1.12,0,0,1,.47.11l2.66,1.27h0a1.1,1.1,0,0,1,.62.92l.11,2.09h0a.09.09,0,0,0,.08.08h2.69a.09.09,0,0,0,.09-.08l.23-2.41a1.07,1.07,0,0,1,.68-.91l2.47-1h0a1.11,1.11,0,0,1,1.15.22l1.68,1.56a.07.07,0,0,0,.11,0l1.85-1.85a.06.06,0,0,0,0-.06s0,0,0-.06l-1.78-1.66h0a1.12,1.12,0,0,1-.25-1.24l1.41-3.21h0a1.11,1.11,0,0,1,1-.65h2.49a.08.08,0,0,0,.09-.08V80a.09.09,0,0,0-.09-.09h-2.64a1.07,1.07,0,0,1-1-.65l-1.11-2.59h0a1.09,1.09,0,0,1,.23-1.21l2.14-2.14h0a.08.08,0,0,0,0-.12l-1.85-1.86h0a.08.08,0,0,0-.11,0l-2.11,2h0a1.09,1.09,0,0,1-1.27.16l-2.47-1.36h0a1.09,1.09,0,0,1-.57-1V68.65a.08.08,0,0,0-.08-.08h-3.55a.09.09,0,0,0-.08.08v2.94a1.12,1.12,0,0,1-.72,1l-2.67,1a1.06,1.06,0,0,1-1.24-.37l-1.23-1.63a.06.06,0,0,0-.06,0,0,0,0,0,0-.06,0l-1.93,1.93h0a.07.07,0,0,0,0,.06.09.09,0,0,0,0,.06l1.61,1.5a1.08,1.08,0,0,1,.24,1.26l-1.4,2.91a1.09,1.09,0,0,1-1,.61h-2a.08.08,0,0,0-.08.09v2.58a.14.14,0,0,0,0,.06.08.08,0,0,0,.07,0l2.08-.1a1.09,1.09,0,0,1,1.09.76l.89,2.76a1,1,0,0,1-.13.94l-1.17,1.76h0a.07.07,0,0,0,0,.1l1.86,2.22a.09.09,0,0,0,.12,0l1.79-1.45h0a1,1,0,0,1,.68-.24Zm6.64,5.48h-2.69a1.09,1.09,0,0,1-1.09-1l-.11-2.09a.08.08,0,0,0,0-.07l-2.66-1.27h0a.08.08,0,0,0-.08,0l-1.79,1.45a1.09,1.09,0,0,1-1.52-.14l-1.87-2.21a1.1,1.1,0,0,1-.07-1.31l1.17-1.76h0a.17.17,0,0,0,0-.07l-.89-2.77a.08.08,0,0,0-.08-.06l-2.08.1h0a1.09,1.09,0,0,1-1.15-1.09V80a1.09,1.09,0,0,1,1.09-1.09h2a.1.1,0,0,0,.08,0l1.38-2.9a.09.09,0,0,0,0-.1L1301,74.37a1.12,1.12,0,0,1-.34-.78,1.14,1.14,0,0,1,.33-.8l1.93-1.92a1.07,1.07,0,0,1,.85-.32,1.09,1.09,0,0,1,.79.43l1.22,1.64a.08.08,0,0,0,.1,0l2.67-1h0a.09.09,0,0,0,.06-.08V68.65a1.09,1.09,0,0,1,1.09-1.09h3.54a1.09,1.09,0,0,1,1.09,1.09v2.54a.08.08,0,0,0,0,.07l2.47,1.36a.09.09,0,0,0,.1,0l2.11-2a1.08,1.08,0,0,1,1.52,0l1.86,1.86a1.1,1.1,0,0,1,.32.77,1.12,1.12,0,0,1-.32.77l-2.13,2.14a.1.1,0,0,0,0,.09l1.11,2.59a.09.09,0,0,0,.08,0h2.65a1.09,1.09,0,0,1,1.09,1.09v2.45a1.09,1.09,0,0,1-1.09,1.09h-2.51a.08.08,0,0,0-.07,0l-1.41,3.21h0a.08.08,0,0,0,0,.09l1.77,1.67a1.09,1.09,0,0,1,.35.78,1.12,1.12,0,0,1-.32.79L1320.07,92a1.09,1.09,0,0,1-1.52,0l-1.67-1.57a.1.1,0,0,0-.09,0l-2.48,1h0a.13.13,0,0,0,0,.07l-.23,2.41a1.09,1.09,0,0,1-1.09,1Z" style="fill: #9b9b9b"/>
    <path d="M1313.24,54.21a4.55,4.55,0,0,1-4.54,4.54h-3.78a7.55,7.55,0,0,0-3.64-10.91,7.55,7.55,0,0,0-10.3,6.07,7.3,7.3,0,0,0-.06.94,7.47,7.47,0,0,0,1.1,3.9h-2.36a6,6,0,0,1-6-6v-.2a6,6,0,0,1,5.54-6,.37.37,0,0,0,.33-.3,9.56,9.56,0,0,1,9.45-7.59h.08a9.69,9.69,0,0,1,9.68,9.68V49a.36.36,0,0,0,.34.37,4.48,4.48,0,0,1,4.11,4.53ZM1304,58.85h0a6.77,6.77,0,0,1-10.94,0l0,0a6.75,6.75,0,0,1-1.32-4,6,6,0,0,1,.06-.85,6.8,6.8,0,0,1,13.55.85,6.71,6.71,0,0,1-1.32,4Zm5.58-10.16v-.28A10.43,10.43,0,0,0,1299.1,38H1299a10.29,10.29,0,0,0-10.11,7.91,6.76,6.76,0,0,0-6,6.68v.21a6.72,6.72,0,0,0,6.71,6.7h2.87a7.52,7.52,0,0,0,11.88,0h4.29a5.28,5.28,0,0,0,5.28-5.27v-.29a5.23,5.23,0,0,0-4.45-5.24ZM1301,51.92a.36.36,0,0,0-.52,0,.37.37,0,0,0,0,.52l2.28,2.42-2.28,2.41a.38.38,0,0,0,0,.53.35.35,0,0,0,.25.1.36.36,0,0,0,.27-.12l2.52-2.67a.36.36,0,0,0,0-.51Zm-1.37-.06a.38.38,0,0,0-.48.22l-2,5.27a.37.37,0,0,0,.21.48.34.34,0,0,0,.14,0,.35.35,0,0,0,.34-.24l2-5.27a.38.38,0,0,0-.22-.48Zm-3.13,0a.37.37,0,0,0-.53,0l-2.52,2.67a.38.38,0,0,0,0,.51l2.52,2.67a.36.36,0,0,0,.27.12.38.38,0,0,0,.26-.11.36.36,0,0,0,0-.52l-2.28-2.42,2.28-2.41a.37.37,0,0,0,0-.52Z"/>
    <g>
      <path d="M1284.15,74.82h-2.59a.4.4,0,0,1-.4-.4v-3.8a4.3,4.3,0,0,0-8.59,0v3.8a.4.4,0,0,1-.4.4h-2.59a.4.4,0,0,1-.4-.4v-3.8a7.69,7.69,0,0,1,15.37,0v3.8A.4.4,0,0,1,1284.15,74.82ZM1282,74h1.79v-3.4a6.89,6.89,0,0,0-13.77,0V74h1.79v-3.4a5.1,5.1,0,0,1,10.19,0Z" style="fill: #e00"/>
      <path d="M1285.23,90.5h-16.72a2,2,0,0,1-2-2V76a2,2,0,0,1,2-2h16.72a1.93,1.93,0,0,1,2,1.9V88.55A2,2,0,0,1,1285.23,90.5Zm-16.72-15.68a1.13,1.13,0,0,0-1.15,1.15V88.55a1.13,1.13,0,0,0,1.15,1.15h16.72a1.14,1.14,0,0,0,1.15-1.15V75.92a1.13,1.13,0,0,0-1.15-1.1Z" style="fill: #e00"/>
      <path d="M1278.46,85.85h-3.27a.4.4,0,0,1-.31-.15.39.39,0,0,1-.08-.34l.55-2.55a2.37,2.37,0,1,1,3.9-1.8,2.27,2.27,0,0,1-.94,1.82l.54,2.53a.39.39,0,0,1-.08.34A.4.4,0,0,1,1278.46,85.85Zm-2.78-.8H1278l-.5-2.32a.4.4,0,0,1,.19-.43,1.48,1.48,0,0,0,.79-1.29,1.59,1.59,0,0,0-3.17,0,1.6,1.6,0,0,0,.73,1.3.39.39,0,0,1,.17.42Z" style="fill: #e00"/>
    </g>
  </g>
</svg>
