<svg xmlns="http://www.w3.org/2000/svg" viewBox="0 0 249 112">
  <title>hybrid_intro_data_point</title>
  <g>
    <path d="M47.77,20.41a3.87,3.87,0,0,0-1.64-1.8,2.55,2.55,0,1,0-4.4-1.77,2.58,2.58,0,0,0,.7,1.76,4.11,4.11,0,0,0-.87.65,3.91,3.91,0,0,0-.8,1.22,4.48,4.48,0,1,1,7-.06ZM43,16.84a1.28,1.28,0,0,1,2.56,0,1.28,1.28,0,1,1-2.56,0Zm-1.2,4.57a2.5,2.5,0,0,1,.67-1.26,2.55,2.55,0,0,1,4.29,1.22,4.43,4.43,0,0,1-5,0Zm2.44-9.5A5.76,5.76,0,1,0,50,17.67,5.76,5.76,0,0,0,44.24,11.91Z" style="fill: #c9c9c9"/>
    <path d="M47.77,47.28a3.9,3.9,0,0,0-1.64-1.81,2.55,2.55,0,1,0-3.7,0,4.48,4.48,0,0,0-.87.65,4,4,0,0,0-.8,1.23,4.48,4.48,0,1,1,7-.06ZM43,43.71A1.28,1.28,0,1,1,44.28,45,1.28,1.28,0,0,1,43,43.71Zm-1.2,4.57A2.46,2.46,0,0,1,42.47,47a2.55,2.55,0,0,1,4.29,1.22,4.54,4.54,0,0,1-2.52.77A4.43,4.43,0,0,1,41.8,48.28Zm2.44-9.5A5.76,5.76,0,1,0,50,44.53,5.76,5.76,0,0,0,44.24,38.78Z" style="fill: #c9c9c9"/>
    <path d="M12.9,17.67a4.48,4.48,0,1,1,8,2.74,3.84,3.84,0,0,0-1.65-1.8,2.55,2.55,0,1,0-4.4-1.77,2.52,2.52,0,0,0,.71,1.76,3.87,3.87,0,0,0-.87.65,3.74,3.74,0,0,0-.8,1.22,4.45,4.45,0,0,1-1-2.8Zm3.24-.83a1.28,1.28,0,1,1,1.28,1.28A1.28,1.28,0,0,1,16.14,16.84Zm-1.21,4.57a2.54,2.54,0,0,1,5,0,4.42,4.42,0,0,1-2.51.78A4.5,4.5,0,0,1,14.93,21.41Zm8.21-3.74a5.76,5.76,0,1,0-5.76,5.76A5.77,5.77,0,0,0,23.14,17.67Z" style="fill: #c9c9c9"/>
    <path d="M17.38,40.06a4.47,4.47,0,0,1,3.53,7.22,3.87,3.87,0,0,0-1.65-1.81,2.55,2.55,0,1,0-4.4-1.76,2.52,2.52,0,0,0,.71,1.75,4.2,4.2,0,0,0-.87.65,3.78,3.78,0,0,0-.8,1.23,4.46,4.46,0,0,1,3.48-7.28Zm-1.24,3.65a1.28,1.28,0,1,1,2.56,0,1.28,1.28,0,0,1-2.56,0Zm-1.21,4.57a2.54,2.54,0,0,1,5,0,4.48,4.48,0,0,1-5,0Zm2.45,2a5.76,5.76,0,1,0-5.76-5.76A5.77,5.77,0,0,0,17.38,50.29Z" style="fill: #c9c9c9"/>
    <path d="M37,17l.51-1.17a16.6,16.6,0,0,0-13.3,0L24.67,17A15.37,15.37,0,0,1,37,17Z" style="fill: #c9c9c9"/>
    <path d="M15.57,24.45a16.65,16.65,0,0,0-.06,13.18l1.18-.5a15.38,15.38,0,0,1,0-12.17Z" style="fill: #c9c9c9"/>
    <path d="M36.84,45.22a15.37,15.37,0,0,1-12.05,0l-.51,1.18a16.7,16.7,0,0,0,13.06,0Z" style="fill: #c9c9c9"/>
    <path d="M46.11,37.63a16.7,16.7,0,0,0,0-13.18L44.89,25a15.38,15.38,0,0,1,1.27,6.14,15.2,15.2,0,0,1-1.23,6Z" style="fill: #c9c9c9"/>
    <path d="M35.29,36.22V31.74h2.56v4.48Zm2.8-7,.64,1.28H35.29V29.18ZM34,36.86H32.73V34.94a1.92,1.92,0,0,0-3.84,0v1.92H27.61V24.7H34Zm-2.56,0H30.17V34.94a.64.64,0,0,1,1.28,0ZM29.53,22.15h2.56v1.28H29.53ZM23.78,36.22V31.74h2.55v4.48Zm-.25-7h2.8v1.28H22.89Zm15.6,7.68V31.74h.64a.66.66,0,0,0,.54-.3.64.64,0,0,0,0-.63l-1.28-2.55a.64.64,0,0,0-.57-.36h-3.2V24.06a.64.64,0,0,0-.64-.63H33.37V21.51a.64.64,0,0,0-.64-.64H31.45V19.59H30.17v1.28H28.89a.64.64,0,0,0-.64.64v1.92H27a.64.64,0,0,0-.64.63V27.9H23.14a.64.64,0,0,0-.58.36l-1.28,2.55a.7.7,0,0,0,0,.63.66.66,0,0,0,.55.3h.64v5.12a.64.64,0,0,0,.64.64h3.19a.64.64,0,0,0,.64.64h7.68a.64.64,0,0,0,.64-.64h3.2a.64.64,0,0,0,.64-.64Z" style="fill: #c9c9c9"/>
    <rect x="28.89" y="25.98" width="1.28" height="1.28" style="fill: #c9c9c9"/>
    <rect x="28.89" y="28.54" width="1.28" height="1.28" style="fill: #c9c9c9"/>
    <rect x="28.89" y="31.1" width="1.28" height="1.28" style="fill: #c9c9c9"/>
    <rect x="31.45" y="25.98" width="1.28" height="1.28" style="fill: #c9c9c9"/>
    <rect x="31.45" y="28.54" width="1.28" height="1.28" style="fill: #c9c9c9"/>
    <rect x="31.45" y="31.1" width="1.28" height="1.28" style="fill: #c9c9c9"/>
    <rect x="35.93" y="33.02" width="1.28" height="1.28" style="fill: #c9c9c9"/>
    <rect x="24.42" y="33.02" width="1.28" height="1.28" style="fill: #c9c9c9"/>
  </g>
  <circle cx="77.81" cy="31.1" r="11" style="fill: #f2f2f2"/>
  <circle cx="31" cy="83" r="11" style="fill: #f2f2f2"/>
  <g>
    <path d="M94.77,20.41a3.87,3.87,0,0,0-1.64-1.8,2.55,2.55,0,1,0-4.4-1.77,2.58,2.58,0,0,0,.7,1.76,4.11,4.11,0,0,0-.87.65,3.91,3.91,0,0,0-.8,1.22,4.48,4.48,0,1,1,7-.06ZM90,16.84a1.28,1.28,0,0,1,2.56,0,1.28,1.28,0,1,1-2.56,0Zm-1.2,4.57a2.5,2.5,0,0,1,.67-1.26,2.55,2.55,0,0,1,4.29,1.22,4.43,4.43,0,0,1-5,0Zm2.44-9.5A5.76,5.76,0,1,0,97,17.67,5.76,5.76,0,0,0,91.24,11.91Z" style="fill: #e00"/>
    <path d="M94.77,47.28a3.9,3.9,0,0,0-1.64-1.81,2.55,2.55,0,1,0-3.7,0,4.48,4.48,0,0,0-.87.65,4,4,0,0,0-.8,1.23,4.48,4.48,0,1,1,7-.06ZM90,43.71A1.28,1.28,0,1,1,91.28,45,1.28,1.28,0,0,1,90,43.71Zm-1.2,4.57A2.46,2.46,0,0,1,89.47,47a2.55,2.55,0,0,1,4.29,1.22,4.54,4.54,0,0,1-2.52.77A4.43,4.43,0,0,1,88.8,48.28Zm2.44-9.5A5.76,5.76,0,1,0,97,44.53,5.76,5.76,0,0,0,91.24,38.78Z" style="fill: #e00"/>
    <path d="M59.9,17.67a4.48,4.48,0,1,1,8,2.74,3.84,3.84,0,0,0-1.65-1.8,2.55,2.55,0,1,0-4.4-1.77,2.52,2.52,0,0,0,.71,1.76,3.87,3.87,0,0,0-.87.65,3.74,3.74,0,0,0-.8,1.22,4.45,4.45,0,0,1-1-2.8Zm3.24-.83a1.28,1.28,0,1,1,1.28,1.28A1.28,1.28,0,0,1,63.14,16.84Zm-1.21,4.57a2.54,2.54,0,0,1,5,0,4.42,4.42,0,0,1-2.51.78A4.5,4.5,0,0,1,61.93,21.41Zm8.21-3.74a5.76,5.76,0,1,0-5.76,5.76A5.77,5.77,0,0,0,70.14,17.67Z" style="fill: #e00"/>
    <path d="M64.38,40.06a4.47,4.47,0,0,1,3.53,7.22,3.87,3.87,0,0,0-1.65-1.81,2.55,2.55,0,1,0-4.4-1.76,2.52,2.52,0,0,0,.71,1.75,4.2,4.2,0,0,0-.87.65,3.78,3.78,0,0,0-.8,1.23,4.46,4.46,0,0,1,3.48-7.28Zm-1.24,3.65a1.28,1.28,0,1,1,2.56,0,1.28,1.28,0,0,1-2.56,0Zm-1.21,4.57a2.54,2.54,0,0,1,5,0,4.48,4.48,0,0,1-5,0Zm2.45,2a5.76,5.76,0,1,0-5.76-5.76A5.77,5.77,0,0,0,64.38,50.29Z" style="fill: #e00"/>
    <path d="M84,17l.51-1.17a16.6,16.6,0,0,0-13.3,0L71.67,17A15.37,15.37,0,0,1,84,17Z" style="fill: #e00"/>
    <path d="M62.57,24.45a16.65,16.65,0,0,0-.06,13.18l1.18-.5A15.38,15.38,0,0,1,63.74,25Z" style="fill: #e00"/>
    <path d="M83.84,45.22a15.37,15.37,0,0,1-12,0l-.51,1.18a16.7,16.7,0,0,0,13.06,0Z" style="fill: #e00"/>
    <path d="M93.11,37.63a16.7,16.7,0,0,0,0-13.18L91.89,25a15.38,15.38,0,0,1,1.27,6.14,15.2,15.2,0,0,1-1.23,6Z" style="fill: #e00"/>
    <path d="M82.29,36.22V31.74h2.56v4.48Zm2.8-7,.64,1.28H82.29V29.18ZM81,36.86H79.73V34.94a1.92,1.92,0,0,0-3.84,0v1.92H74.61V24.7H81Zm-2.56,0H77.17V34.94a.64.64,0,0,1,1.28,0ZM76.53,22.15h2.56v1.28H76.53ZM70.78,36.22V31.74h2.55v4.48Zm-.25-7h2.8v1.28H69.89Zm15.6,7.68V31.74h.64a.66.66,0,0,0,.54-.3.64.64,0,0,0,0-.63l-1.28-2.55a.64.64,0,0,0-.57-.36h-3.2V24.06a.64.64,0,0,0-.64-.63H80.37V21.51a.64.64,0,0,0-.64-.64H78.45V19.59H77.17v1.28H75.89a.64.64,0,0,0-.64.64v1.92H74a.64.64,0,0,0-.64.63V27.9H70.14a.64.64,0,0,0-.58.36l-1.28,2.55a.7.7,0,0,0,0,.63.66.66,0,0,0,.55.3h.64v5.12a.64.64,0,0,0,.64.64h3.19a.64.64,0,0,0,.64.64h7.68a.64.64,0,0,0,.64-.64h3.2a.64.64,0,0,0,.64-.64Z" style="fill: #5f0000"/>
    <rect x="75.89" y="25.98" width="1.28" height="1.28" style="fill: #e00"/>
    <rect x="75.89" y="28.54" width="1.28" height="1.28" style="fill: #e00"/>
    <rect x="75.89" y="31.1" width="1.28" height="1.28" style="fill: #e00"/>
    <rect x="78.45" y="25.98" width="1.28" height="1.28" style="fill: #e00"/>
    <rect x="78.45" y="28.54" width="1.28" height="1.28" style="fill: #e00"/>
    <rect x="78.45" y="31.1" width="1.28" height="1.28" style="fill: #e00"/>
    <rect x="82.93" y="33.02" width="1.28" height="1.28" style="fill: #e00"/>
    <rect x="71.42" y="33.02" width="1.28" height="1.28" style="fill: #e00"/>
  </g>
  <g>
    <path d="M47.77,72.41a3.87,3.87,0,0,0-1.64-1.8,2.55,2.55,0,1,0-4.4-1.77,2.58,2.58,0,0,0,.7,1.76,4.11,4.11,0,0,0-.87.65,3.91,3.91,0,0,0-.8,1.22,4.48,4.48,0,1,1,7-.06ZM43,68.84a1.28,1.28,0,0,1,2.56,0,1.28,1.28,0,0,1-2.56,0Zm-1.2,4.57a2.5,2.5,0,0,1,.67-1.26,2.55,2.55,0,0,1,4.29,1.22,4.43,4.43,0,0,1-5,0Zm2.44-9.5A5.76,5.76,0,1,0,50,69.67,5.76,5.76,0,0,0,44.24,63.91Z" style="fill: #e00"/>
    <path d="M47.77,99.28a3.9,3.9,0,0,0-1.64-1.81,2.55,2.55,0,1,0-3.7,0,4.48,4.48,0,0,0-.87.65,4,4,0,0,0-.8,1.23,4.48,4.48,0,1,1,7-.06ZM43,95.71A1.28,1.28,0,1,1,44.28,97,1.28,1.28,0,0,1,43,95.71Zm-1.2,4.57A2.46,2.46,0,0,1,42.47,99a2.55,2.55,0,0,1,4.29,1.22,4.54,4.54,0,0,1-2.52.77A4.43,4.43,0,0,1,41.8,100.28Zm2.44-9.5A5.76,5.76,0,1,0,50,96.53,5.76,5.76,0,0,0,44.24,90.78Z" style="fill: #e00"/>
    <path d="M12.9,69.67a4.48,4.48,0,1,1,8,2.74,3.84,3.84,0,0,0-1.65-1.8,2.55,2.55,0,1,0-4.4-1.77,2.52,2.52,0,0,0,.71,1.76,3.87,3.87,0,0,0-.87.65,3.74,3.74,0,0,0-.8,1.22,4.45,4.45,0,0,1-1-2.8Zm3.24-.83a1.28,1.28,0,1,1,1.28,1.28A1.28,1.28,0,0,1,16.14,68.84Zm-1.21,4.57a2.54,2.54,0,0,1,5,0,4.42,4.42,0,0,1-2.51.78A4.5,4.5,0,0,1,14.93,73.41Zm8.21-3.74a5.76,5.76,0,1,0-5.76,5.76A5.77,5.77,0,0,0,23.14,69.67Z" style="fill: #e00"/>
    <path d="M17.38,92.06a4.47,4.47,0,0,1,3.53,7.22,3.87,3.87,0,0,0-1.65-1.81,2.55,2.55,0,1,0-4.4-1.76,2.52,2.52,0,0,0,.71,1.75,4.2,4.2,0,0,0-.87.65,3.78,3.78,0,0,0-.8,1.23,4.46,4.46,0,0,1,3.48-7.28Zm-1.24,3.65a1.28,1.28,0,1,1,2.56,0,1.28,1.28,0,1,1-2.56,0Zm-1.21,4.57a2.54,2.54,0,0,1,5,0,4.48,4.48,0,0,1-5,0Zm2.45,2a5.76,5.76,0,1,0-5.76-5.76A5.77,5.77,0,0,0,17.38,102.29Z" style="fill: #e00"/>
    <path d="M37,69l.51-1.17a16.6,16.6,0,0,0-13.3,0L24.67,69A15.37,15.37,0,0,1,37,69Z" style="fill: #e00"/>
    <path d="M15.57,76.45a16.65,16.65,0,0,0-.06,13.18l1.18-.5a15.38,15.38,0,0,1,0-12.17Z" style="fill: #e00"/>
    <path d="M36.84,97.22a15.37,15.37,0,0,1-12.05,0l-.51,1.18a16.7,16.7,0,0,0,13.06,0Z" style="fill: #e00"/>
    <path d="M46.11,89.63a16.7,16.7,0,0,0,0-13.18L44.89,77a15.38,15.38,0,0,1,1.27,6.14,15.2,15.2,0,0,1-1.23,6Z" style="fill: #e00"/>
    <path d="M35.29,88.22V83.74h2.56v4.48Zm2.8-7,.64,1.28H35.29V81.18ZM34,88.86H32.73V86.94a1.92,1.92,0,1,0-3.84,0v1.92H27.61V76.7H34Zm-2.56,0H30.17V86.94a.64.64,0,1,1,1.28,0ZM29.53,74.15h2.56v1.28H29.53ZM23.78,88.22V83.74h2.55v4.48Zm-.25-7h2.8v1.28H22.89Zm15.6,7.68V83.74h.64a.66.66,0,0,0,.54-.3.64.64,0,0,0,0-.63l-1.28-2.55a.64.64,0,0,0-.57-.36h-3.2V76.06a.64.64,0,0,0-.64-.63H33.37V73.51a.64.64,0,0,0-.64-.64H31.45V71.59H30.17v1.28H28.89a.64.64,0,0,0-.64.64v1.92H27a.64.64,0,0,0-.64.63V79.9H23.14a.64.64,0,0,0-.58.36l-1.28,2.55a.7.7,0,0,0,0,.63.66.66,0,0,0,.55.3h.64v5.12a.64.64,0,0,0,.64.64h3.19a.64.64,0,0,0,.64.64h7.68a.64.64,0,0,0,.64-.64h3.2a.64.64,0,0,0,.64-.64Z" style="fill: #5f0000"/>
    <rect x="28.89" y="77.98" width="1.28" height="1.28" style="fill: #e00"/>
    <rect x="28.89" y="80.54" width="1.28" height="1.28" style="fill: #e00"/>
    <rect x="28.89" y="83.1" width="1.28" height="1.28" style="fill: #e00"/>
    <rect x="31.45" y="77.98" width="1.28" height="1.28" style="fill: #e00"/>
    <rect x="31.45" y="80.54" width="1.28" height="1.28" style="fill: #e00"/>
    <rect x="31.45" y="83.1" width="1.28" height="1.28" style="fill: #e00"/>
    <rect x="35.93" y="85.02" width="1.28" height="1.28" style="fill: #e00"/>
    <rect x="24.42" y="85.02" width="1.28" height="1.28" style="fill: #e00"/>
  </g>
  <g>
    <path d="M94.77,72.41a3.87,3.87,0,0,0-1.64-1.8,2.55,2.55,0,1,0-4.4-1.77,2.58,2.58,0,0,0,.7,1.76,4.11,4.11,0,0,0-.87.65,3.91,3.91,0,0,0-.8,1.22,4.48,4.48,0,1,1,7-.06ZM90,68.84a1.28,1.28,0,0,1,2.56,0,1.28,1.28,0,0,1-2.56,0Zm-1.2,4.57a2.5,2.5,0,0,1,.67-1.26,2.55,2.55,0,0,1,4.29,1.22,4.43,4.43,0,0,1-5,0Zm2.44-9.5A5.76,5.76,0,1,0,97,69.67,5.76,5.76,0,0,0,91.24,63.91Z" style="fill: #c9c9c9"/>
    <path d="M94.77,99.28a3.9,3.9,0,0,0-1.64-1.81,2.55,2.55,0,1,0-3.7,0,4.48,4.48,0,0,0-.87.65,4,4,0,0,0-.8,1.23,4.48,4.48,0,1,1,7-.06ZM90,95.71A1.28,1.28,0,1,1,91.28,97,1.28,1.28,0,0,1,90,95.71Zm-1.2,4.57A2.46,2.46,0,0,1,89.47,99a2.55,2.55,0,0,1,4.29,1.22,4.54,4.54,0,0,1-2.52.77A4.43,4.43,0,0,1,88.8,100.28Zm2.44-9.5A5.76,5.76,0,1,0,97,96.53,5.76,5.76,0,0,0,91.24,90.78Z" style="fill: #c9c9c9"/>
    <path d="M59.9,69.67a4.48,4.48,0,1,1,8,2.74,3.84,3.84,0,0,0-1.65-1.8,2.55,2.55,0,1,0-4.4-1.77,2.52,2.52,0,0,0,.71,1.76,3.87,3.87,0,0,0-.87.65,3.74,3.74,0,0,0-.8,1.22,4.45,4.45,0,0,1-1-2.8Zm3.24-.83a1.28,1.28,0,1,1,1.28,1.28A1.28,1.28,0,0,1,63.14,68.84Zm-1.21,4.57a2.54,2.54,0,0,1,5,0,4.42,4.42,0,0,1-2.51.78A4.5,4.5,0,0,1,61.93,73.41Zm8.21-3.74a5.76,5.76,0,1,0-5.76,5.76A5.77,5.77,0,0,0,70.14,69.67Z" style="fill: #c9c9c9"/>
    <path d="M64.38,92.06a4.47,4.47,0,0,1,3.53,7.22,3.87,3.87,0,0,0-1.65-1.81,2.55,2.55,0,1,0-4.4-1.76,2.52,2.52,0,0,0,.71,1.75,4.2,4.2,0,0,0-.87.65,3.78,3.78,0,0,0-.8,1.23,4.46,4.46,0,0,1,3.48-7.28Zm-1.24,3.65a1.28,1.28,0,0,1,2.56,0,1.28,1.28,0,0,1-2.56,0Zm-1.21,4.57a2.54,2.54,0,0,1,5,0,4.48,4.48,0,0,1-5,0Zm2.45,2a5.76,5.76,0,1,0-5.76-5.76A5.77,5.77,0,0,0,64.38,102.29Z" style="fill: #c9c9c9"/>
    <path d="M84,69l.51-1.17a16.6,16.6,0,0,0-13.3,0L71.67,69A15.37,15.37,0,0,1,84,69Z" style="fill: #c9c9c9"/>
    <path d="M62.57,76.45a16.65,16.65,0,0,0-.06,13.18l1.18-.5A15.38,15.38,0,0,1,63.74,77Z" style="fill: #c9c9c9"/>
    <path d="M83.84,97.22a15.37,15.37,0,0,1-12,0l-.51,1.18a16.7,16.7,0,0,0,13.06,0Z" style="fill: #c9c9c9"/>
    <path d="M93.11,89.63a16.7,16.7,0,0,0,0-13.18L91.89,77a15.38,15.38,0,0,1,1.27,6.14,15.2,15.2,0,0,1-1.23,6Z" style="fill: #c9c9c9"/>
    <path d="M82.29,88.22V83.74h2.56v4.48Zm2.8-7,.64,1.28H82.29V81.18ZM81,88.86H79.73V86.94a1.92,1.92,0,0,0-3.84,0v1.92H74.61V76.7H81Zm-2.56,0H77.17V86.94a.64.64,0,0,1,1.28,0ZM76.53,74.15h2.56v1.28H76.53ZM70.78,88.22V83.74h2.55v4.48Zm-.25-7h2.8v1.28H69.89Zm15.6,7.68V83.74h.64a.66.66,0,0,0,.54-.3.64.64,0,0,0,0-.63l-1.28-2.55a.64.64,0,0,0-.57-.36h-3.2V76.06a.64.64,0,0,0-.64-.63H80.37V73.51a.64.64,0,0,0-.64-.64H78.45V71.59H77.17v1.28H75.89a.64.64,0,0,0-.64.64v1.92H74a.64.64,0,0,0-.64.63V79.9H70.14a.64.64,0,0,0-.58.36l-1.28,2.55a.7.7,0,0,0,0,.63.66.66,0,0,0,.55.3h.64v5.12a.64.64,0,0,0,.64.64h3.19a.64.64,0,0,0,.64.64h7.68a.64.64,0,0,0,.64-.64h3.2a.64.64,0,0,0,.64-.64Z" style="fill: #c9c9c9"/>
    <rect x="75.89" y="77.98" width="1.28" height="1.28" style="fill: #c9c9c9"/>
    <rect x="75.89" y="80.54" width="1.28" height="1.28" style="fill: #c9c9c9"/>
    <rect x="75.89" y="83.1" width="1.28" height="1.28" style="fill: #c9c9c9"/>
    <rect x="78.45" y="77.98" width="1.28" height="1.28" style="fill: #c9c9c9"/>
    <rect x="78.45" y="80.54" width="1.28" height="1.28" style="fill: #c9c9c9"/>
    <rect x="78.45" y="83.1" width="1.28" height="1.28" style="fill: #c9c9c9"/>
    <rect x="82.93" y="85.02" width="1.28" height="1.28" style="fill: #c9c9c9"/>
    <rect x="71.42" y="85.02" width="1.28" height="1.28" style="fill: #c9c9c9"/>
  </g>
  <g>
    <path d="M134.17,57.27h-9.48V31.32c0-.53,0-1.17,0-1.92s0-1.52.06-2.33l.09-2.44c0-.82.06-1.56.08-2.24-.1.12-.28.31-.52.55l-.83.82-1,.9c-.33.31-.65.58-1,.83l-5.16,4.14-4.6-5.71,14.45-11.5h7.79Z"/>
    <path d="M147.18,36c0-1.51.84-2.26,2.52-2.26s2.51.75,2.51,2.26a2.2,2.2,0,0,1-.63,1.67,2.64,2.64,0,0,1-1.88.6C148,38.25,147.18,37.49,147.18,36ZM152,57.27h-4.62V40.35H152Z"/>
    <path d="M172.46,57.27h-4.62V47.39a4.71,4.71,0,0,0-.65-2.75,2.35,2.35,0,0,0-2.07-.91,3.12,3.12,0,0,0-2.8,1.29,8,8,0,0,0-.86,4.29v8h-4.62V40.35h3.53l.62,2.17h.25a4.94,4.94,0,0,1,2.13-1.86,7.21,7.21,0,0,1,3.08-.63,5.93,5.93,0,0,1,4.48,1.6,6.4,6.4,0,0,1,1.53,4.61Z"/>
    <path d="M216.19,57.27h-30.1V50.68L196.64,39.3q2-2.16,3.62-4a31.54,31.54,0,0,0,2.79-3.53,15.36,15.36,0,0,0,1.81-3.5,11.12,11.12,0,0,0,.65-3.83A4.56,4.56,0,0,0,204.14,21a5.18,5.18,0,0,0-3.66-1.26,9.78,9.78,0,0,0-4.67,1.2,24.59,24.59,0,0,0-4.69,3.4L186,18.19c.92-.84,1.88-1.64,2.88-2.41a19.56,19.56,0,0,1,3.31-2,20.17,20.17,0,0,1,4-1.43,20.85,20.85,0,0,1,4.88-.53,17.36,17.36,0,0,1,5.78.89,12.32,12.32,0,0,1,4.37,2.53,10.85,10.85,0,0,1,2.78,4,13.46,13.46,0,0,1,1,5.25,14,14,0,0,1-.92,5,23.05,23.05,0,0,1-2.52,4.73,40.75,40.75,0,0,1-3.7,4.6c-1.4,1.52-2.89,3.07-4.49,4.65l-5.4,5.43v.43h18.29Z"/>
  </g>
  <g>
    <path d="M117,76.1h-3.19V70.39H117V71H114.5V72.8h2.32v.63H114.5v2H117Z"/>
    <path d="M118.79,71.81v2.76a1.08,1.08,0,0,0,.24.77.91.91,0,0,0,.72.25,1.18,1.18,0,0,0,1-.36A1.89,1.89,0,0,0,121,74V71.81h.7V76.1h-.57l-.1-.57h0a1.26,1.26,0,0,1-.54.48,1.94,1.94,0,0,1-.82.17,1.65,1.65,0,0,1-1.17-.38,1.55,1.55,0,0,1-.39-1.18V71.81Z"/>
    <path d="M125.07,71.73a2.59,2.59,0,0,1,.51,0l-.09.65a1.88,1.88,0,0,0-.46-.06,1.09,1.09,0,0,0-.63.19,1.23,1.23,0,0,0-.46.52,1.6,1.6,0,0,0-.16.73V76.1h-.71V71.81h.58l.08.78h0a1.92,1.92,0,0,1,.58-.64A1.3,1.3,0,0,1,125.07,71.73Z"/>
    <path d="M130,74a2.39,2.39,0,0,1-.53,1.64,1.91,1.91,0,0,1-1.47.59,1.93,1.93,0,0,1-1-.28,1.84,1.84,0,0,1-.7-.78,2.69,2.69,0,0,1-.24-1.17,2.38,2.38,0,0,1,.53-1.64,1.83,1.83,0,0,1,1.46-.58,1.81,1.81,0,0,1,1.44.6A2.3,2.3,0,0,1,130,74Zm-3.24,0a2,2,0,0,0,.32,1.22,1.25,1.25,0,0,0,1.87,0A2,2,0,0,0,129.3,74a2,2,0,0,0-.32-1.22,1.14,1.14,0,0,0-.94-.41C127.2,72.32,126.79,72.86,126.79,74Z"/>
    <path d="M133.17,76.18a1.56,1.56,0,0,1-1.33-.63h0v.16c0,.21,0,.39,0,.55V78h-.7V71.81h.58l.09.58h0a1.51,1.51,0,0,1,.58-.5,1.67,1.67,0,0,1,.76-.16,1.56,1.56,0,0,1,1.3.58,2.56,2.56,0,0,1,.46,1.64,2.6,2.6,0,0,1-.46,1.64A1.59,1.59,0,0,1,133.17,76.18Zm-.12-3.86a1.11,1.11,0,0,0-.92.36,2,2,0,0,0-.29,1.13V74a2.17,2.17,0,0,0,.29,1.26,1.13,1.13,0,0,0,.94.38,1,1,0,0,0,.84-.43,2.16,2.16,0,0,0,.3-1.22,2,2,0,0,0-.3-1.2A1,1,0,0,0,133.05,72.32Z"/>
    <path d="M137.89,76.18a2,2,0,0,1-1.52-.59,2.28,2.28,0,0,1-.55-1.61,2.44,2.44,0,0,1,.52-1.64,1.7,1.7,0,0,1,1.38-.61,1.66,1.66,0,0,1,1.29.52,2,2,0,0,1,.48,1.41v.43h-2.94a1.64,1.64,0,0,0,.37,1.11,1.32,1.32,0,0,0,1,.38,3.42,3.42,0,0,0,.65-.06,3.36,3.36,0,0,0,.72-.24v.62a3.21,3.21,0,0,1-.67.21A3.12,3.12,0,0,1,137.89,76.18Zm-.18-3.88a1,1,0,0,0-.8.33,1.5,1.5,0,0,0-.34.9h2.18a1.41,1.41,0,0,0-.28-.91A1,1,0,0,0,137.71,72.3Z"/>
    <path d="M143.22,76.1l-.13-.61h0a1.69,1.69,0,0,1-.63.54,1.92,1.92,0,0,1-.81.15,1.37,1.37,0,0,1-1-.34,1.2,1.2,0,0,1-.36-.93c0-.87.69-1.33,2.06-1.37l.73,0v-.25a1,1,0,0,0-.21-.72.86.86,0,0,0-.68-.24,1.91,1.91,0,0,0-.64.11,4.82,4.82,0,0,0-.57.22l-.22-.52a3.29,3.29,0,0,1,1.47-.37,1.69,1.69,0,0,1,1.16.34,1.43,1.43,0,0,1,.37,1.1V76.1Zm-1.45-.49a1.3,1.3,0,0,0,.93-.32,1.15,1.15,0,0,0,.34-.9V74l-.63,0a2.28,2.28,0,0,0-1.08.23.71.71,0,0,0-.34.65.64.64,0,0,0,.21.52A.83.83,0,0,0,141.77,75.61Z"/>
    <path d="M148,76.1V73.36a1.1,1.1,0,0,0-.23-.78.94.94,0,0,0-.73-.26,1.15,1.15,0,0,0-1,.37,1.93,1.93,0,0,0-.29,1.18V76.1h-.71V71.81h.57l.1.58h0a1.41,1.41,0,0,1,.56-.49,1.9,1.9,0,0,1,.79-.17,1.64,1.64,0,0,1,1.18.38,1.67,1.67,0,0,1,.38,1.19v2.8Z"/>
    <path d="M155.81,74a2.39,2.39,0,0,1-.53,1.64,1.88,1.88,0,0,1-1.47.59,2,2,0,0,1-1-.28,1.75,1.75,0,0,1-.69-.78,2.69,2.69,0,0,1-.24-1.17,2.37,2.37,0,0,1,.52-1.64,1.87,1.87,0,0,1,1.47-.58,1.84,1.84,0,0,1,1.44.6A2.34,2.34,0,0,1,155.81,74Zm-3.24,0a2,2,0,0,0,.32,1.22,1.11,1.11,0,0,0,.94.42,1.12,1.12,0,0,0,.94-.42,2,2,0,0,0,.32-1.22,1.91,1.91,0,0,0-.33-1.22,1.13,1.13,0,0,0-.94-.41C153,72.32,152.57,72.86,152.57,74Z"/>
    <path d="M158.93,71.73a2.49,2.49,0,0,1,.5,0l-.09.65a1.88,1.88,0,0,0-.46-.06,1.09,1.09,0,0,0-.63.19,1.23,1.23,0,0,0-.46.52,1.6,1.6,0,0,0-.16.73V76.1h-.7V71.81h.57l.08.78h0a1.84,1.84,0,0,1,.59-.64A1.26,1.26,0,0,1,158.93,71.73Z"/>
    <path d="M163.05,76.06l0-.53h0a1.51,1.51,0,0,1-1.33.65,1.59,1.59,0,0,1-1.3-.58,3.08,3.08,0,0,1,0-3.27,1.7,1.7,0,0,1,2.63,0h0l.09-.57h.56v4.36a1.86,1.86,0,0,1-.47,1.38,2,2,0,0,1-1.45.47,3.8,3.8,0,0,1-1.54-.27V77.1a3.36,3.36,0,0,0,1.58.33,1.15,1.15,0,0,0,.87-.32,1.2,1.2,0,0,0,.31-.88Zm-1.23-.46a1.16,1.16,0,0,0,1-.35,1.77,1.77,0,0,0,.29-1.12V74a2.15,2.15,0,0,0-.29-1.25,1.13,1.13,0,0,0-1-.39,1,1,0,0,0-.84.43,2.18,2.18,0,0,0-.29,1.22,2.12,2.12,0,0,0,.29,1.21A1,1,0,0,0,161.82,75.6Z"/>
    <path d="M167.76,76.1l-.14-.61h0A1.69,1.69,0,0,1,167,76a2,2,0,0,1-.81.15,1.37,1.37,0,0,1-1-.34,1.2,1.2,0,0,1-.36-.93c0-.87.69-1.33,2.06-1.37l.73,0v-.25a1,1,0,0,0-.21-.72.88.88,0,0,0-.68-.24,1.91,1.91,0,0,0-.64.11,4.23,4.23,0,0,0-.57.22l-.22-.52a2.75,2.75,0,0,1,.71-.27,2.89,2.89,0,0,1,.76-.1,1.65,1.65,0,0,1,1.15.34,1.4,1.4,0,0,1,.38,1.1V76.1Zm-1.45-.49a1.31,1.31,0,0,0,.93-.32,1.19,1.19,0,0,0,.34-.9V74L167,74a2.28,2.28,0,0,0-1.08.23.71.71,0,0,0-.34.65.64.64,0,0,0,.21.52A.81.81,0,0,0,166.31,75.61Z"/>
    <path d="M172.52,76.1V73.36a1.1,1.1,0,0,0-.23-.78.94.94,0,0,0-.73-.26,1.15,1.15,0,0,0-1,.37,1.86,1.86,0,0,0-.3,1.18V76.1h-.7V71.81h.57l.1.58h0a1.41,1.41,0,0,1,.56-.49,1.9,1.9,0,0,1,.79-.17,1.64,1.64,0,0,1,1.18.38,1.67,1.67,0,0,1,.38,1.19v2.8Z"/>
    <path d="M174.49,70.65a.43.43,0,0,1,.12-.34.44.44,0,0,1,.3-.11.41.41,0,0,1,.28.11.4.4,0,0,1,.13.34.41.41,0,0,1-.41.45.4.4,0,0,1-.42-.45Zm.76,5.45h-.7V71.81h.7Z"/>
    <path d="M179.38,76.1h-3.14v-.47l2.31-3.27h-2.17v-.55h2.94v.53l-2.27,3.21h2.33Z"/>
    <path d="M183,76.1l-.14-.61h0a1.71,1.71,0,0,1-.64.54,1.87,1.87,0,0,1-.8.15,1.37,1.37,0,0,1-1-.34,1.2,1.2,0,0,1-.36-.93c0-.87.68-1.33,2.06-1.37l.72,0v-.25a1,1,0,0,0-.21-.72.84.84,0,0,0-.67-.24,2,2,0,0,0-.65.11,4.08,4.08,0,0,0-.56.22l-.22-.52a2.75,2.75,0,0,1,.71-.27,2.84,2.84,0,0,1,.76-.1,1.66,1.66,0,0,1,1.15.34,1.44,1.44,0,0,1,.38,1.1V76.1Zm-1.45-.49a1.33,1.33,0,0,0,.93-.32,1.19,1.19,0,0,0,.34-.9V74l-.64,0a2.27,2.27,0,0,0-1.07.23.71.71,0,0,0-.34.65.67.67,0,0,0,.2.52A.86.86,0,0,0,181.57,75.61Z"/>
    <path d="M186.29,75.6l.32,0a.78.78,0,0,0,.28-.06v.54a1.14,1.14,0,0,1-.3.08,2,2,0,0,1-.42.05c-.84,0-1.26-.45-1.26-1.33V72.36h-.6V72l.61-.28.28-.92h.42v1h1.24v.55h-1.24v2.47a.81.81,0,0,0,.18.57A.6.6,0,0,0,186.29,75.6Z"/>
    <path d="M187.69,70.65a.43.43,0,0,1,.12-.34.44.44,0,0,1,.3-.11.41.41,0,0,1,.41.45.44.44,0,0,1-.13.34.43.43,0,0,1-.28.11.4.4,0,0,1-.42-.45Zm.76,5.45h-.7V71.81h.7Z"/>
    <path d="M193.54,74a2.35,2.35,0,0,1-.54,1.64,1.87,1.87,0,0,1-1.46.59,2,2,0,0,1-1-.28,1.75,1.75,0,0,1-.69-.78,2.69,2.69,0,0,1-.24-1.17,2.37,2.37,0,0,1,.52-1.64,1.87,1.87,0,0,1,1.47-.58,1.81,1.81,0,0,1,1.44.6A2.3,2.3,0,0,1,193.54,74Zm-3.24,0a2,2,0,0,0,.32,1.22,1.09,1.09,0,0,0,.93.42,1.12,1.12,0,0,0,.94-.42,2,2,0,0,0,.32-1.22,2,2,0,0,0-.32-1.22,1.15,1.15,0,0,0-1-.41C190.71,72.32,190.3,72.86,190.3,74Z"/>
    <path d="M197.57,76.1V73.36a1.15,1.15,0,0,0-.23-.78,1,1,0,0,0-.73-.26,1.15,1.15,0,0,0-1,.37,1.86,1.86,0,0,0-.3,1.18V76.1h-.7V71.81h.56l.11.58h0a1.34,1.34,0,0,1,.56-.49,1.86,1.86,0,0,1,.79-.17,1.6,1.6,0,0,1,1.17.38,1.62,1.62,0,0,1,.39,1.19v2.8Z"/>
    <path d="M202.39,74.91a1.09,1.09,0,0,1-.45.94,2.1,2.1,0,0,1-1.26.33,2.84,2.84,0,0,1-1.35-.27v-.64a3.07,3.07,0,0,0,1.36.34,1.39,1.39,0,0,0,.77-.17.53.53,0,0,0,.25-.46.51.51,0,0,0-.24-.43,3.79,3.79,0,0,0-.82-.41,4,4,0,0,1-.85-.4,1,1,0,0,1-.48-.87,1,1,0,0,1,.43-.83,2,2,0,0,1,1.18-.31,3.33,3.33,0,0,1,1.37.29l-.24.56a3.19,3.19,0,0,0-1.18-.28,1.3,1.3,0,0,0-.66.14.44.44,0,0,0-.23.38.47.47,0,0,0,.2.39,3.67,3.67,0,0,0,.91.43,4.27,4.27,0,0,1,.79.37,1.28,1.28,0,0,1,.38.39A1,1,0,0,1,202.39,74.91Z"/>
    <path d="M115.71,85.78a1.55,1.55,0,0,1-1.33-.63h0v.16c0,.21,0,.39,0,.55v1.76h-.7V81.41h.58l.09.58h0a1.51,1.51,0,0,1,.58-.5,1.67,1.67,0,0,1,.76-.16,1.56,1.56,0,0,1,1.3.58,2.55,2.55,0,0,1,.46,1.63,2.61,2.61,0,0,1-.46,1.65A1.59,1.59,0,0,1,115.71,85.78Zm-.12-3.86a1.11,1.11,0,0,0-.92.36,1.89,1.89,0,0,0-.29,1.13v.13a2.12,2.12,0,0,0,.29,1.26,1.09,1.09,0,0,0,.94.39,1,1,0,0,0,.84-.43,2.16,2.16,0,0,0,.3-1.22,2,2,0,0,0-.3-1.2A1,1,0,0,0,115.59,81.92Z"/>
    <path d="M120.6,81.33a2.59,2.59,0,0,1,.51,0L121,82a1.89,1.89,0,0,0-.47-.06,1.13,1.13,0,0,0-.63.19,1.27,1.27,0,0,0-.45.52,1.6,1.6,0,0,0-.17.73V85.7h-.7V81.41h.58l.08.78h0a1.82,1.82,0,0,1,.58-.64A1.28,1.28,0,0,1,120.6,81.33Z"/>
    <path d="M121.85,80.25a.43.43,0,0,1,.12-.34.44.44,0,0,1,.3-.11.41.41,0,0,1,.28.11.43.43,0,0,1,.13.34.46.46,0,0,1-.13.34.41.41,0,0,1-.28.11.44.44,0,0,1-.3-.11A.45.45,0,0,1,121.85,80.25Zm.76,5.45h-.7V81.41h.7Z"/>
    <path d="M127.7,83.54a2.36,2.36,0,0,1-.54,1.65,1.87,1.87,0,0,1-1.46.59,2,2,0,0,1-1-.28,1.75,1.75,0,0,1-.69-.78,2.7,2.7,0,0,1-.24-1.18,2.36,2.36,0,0,1,.52-1.63,1.87,1.87,0,0,1,1.47-.58,1.81,1.81,0,0,1,1.44.6A2.29,2.29,0,0,1,127.7,83.54Zm-3.24,0a2,2,0,0,0,.32,1.23,1.09,1.09,0,0,0,.93.42,1.12,1.12,0,0,0,.94-.42,2,2,0,0,0,.32-1.23,2,2,0,0,0-.32-1.21,1.15,1.15,0,0,0-1-.41C124.87,81.92,124.46,82.46,124.46,83.54Z"/>
    <path d="M130.81,81.33a2.41,2.41,0,0,1,.5,0l-.08.65a2,2,0,0,0-.47-.06,1.11,1.11,0,0,0-.63.19,1.27,1.27,0,0,0-.45.52,1.6,1.6,0,0,0-.17.73V85.7h-.7V81.41h.58l.07.78h0a1.73,1.73,0,0,1,.58-.64A1.26,1.26,0,0,1,130.81,81.33Z"/>
    <path d="M132.06,80.25a.43.43,0,0,1,.12-.34.44.44,0,0,1,.58,0,.43.43,0,0,1,.12.34.45.45,0,0,1-.12.34.44.44,0,0,1-.58,0A.45.45,0,0,1,132.06,80.25Zm.76,5.45h-.71V81.41h.71Z"/>
    <path d="M135.61,85.2l.32,0a1.33,1.33,0,0,0,.28-.06v.54a1.23,1.23,0,0,1-.31.08,1.84,1.84,0,0,1-.41,0c-.84,0-1.26-.45-1.26-1.33V82h-.61v-.34l.62-.28.28-.92h.42v1h1.24V82h-1.24v2.47a.81.81,0,0,0,.18.57A.62.62,0,0,0,135.61,85.2Z"/>
    <path d="M137,80.25a.43.43,0,0,1,.12-.34.42.42,0,0,1,.29-.11.44.44,0,0,1,.29.11.43.43,0,0,1,.12.34.45.45,0,0,1-.12.34.44.44,0,0,1-.29.11.42.42,0,0,1-.29-.11A.45.45,0,0,1,137,80.25Zm.76,5.45h-.71V81.41h.71Z"/>
    <path d="M141.89,85.7h-3.13v-.47l2.3-3.27h-2.17v-.55h3v.53l-2.27,3.21h2.32Z"/>
    <path d="M144.71,85.78a2,2,0,0,1-1.51-.59,2.23,2.23,0,0,1-.55-1.61,2.49,2.49,0,0,1,.51-1.64,1.7,1.7,0,0,1,1.38-.61,1.66,1.66,0,0,1,1.29.52,2,2,0,0,1,.48,1.41v.43h-2.93a1.59,1.59,0,0,0,.37,1.11,1.28,1.28,0,0,0,1,.38,3.34,3.34,0,0,0,.65-.06,3.62,3.62,0,0,0,.73-.24v.62a3.4,3.4,0,0,1-.67.21A4,4,0,0,1,144.71,85.78Zm-.17-3.88a1,1,0,0,0-.8.33,1.51,1.51,0,0,0-.35.9h2.18a1.34,1.34,0,0,0-.27-.91A1,1,0,0,0,144.54,81.9Z"/>
    <path d="M150.19,84.51a1.09,1.09,0,0,1-.45.94,2.1,2.1,0,0,1-1.26.33,2.89,2.89,0,0,1-1.35-.27v-.64a3.25,3.25,0,0,0,1.37.34,1.39,1.39,0,0,0,.77-.17.55.55,0,0,0,.24-.46.52.52,0,0,0-.23-.43,3.93,3.93,0,0,0-.83-.41,4.62,4.62,0,0,1-.85-.4,1.15,1.15,0,0,1-.36-.37,1,1,0,0,1-.12-.5,1,1,0,0,1,.43-.84,2,2,0,0,1,1.18-.3,3.3,3.3,0,0,1,1.37.29l-.24.56a3.1,3.1,0,0,0-1.17-.28A1.34,1.34,0,0,0,148,82a.43.43,0,0,0-.22.38.47.47,0,0,0,.19.39,3.88,3.88,0,0,0,.91.43,4,4,0,0,1,.79.37,1.17,1.17,0,0,1,.38.39A1,1,0,0,1,150.19,84.51Z"/>
    <path d="M156,85.7l-.14-.61h0a1.71,1.71,0,0,1-.64.54,1.87,1.87,0,0,1-.8.15,1.35,1.35,0,0,1-1-.34,1.2,1.2,0,0,1-.36-.93c0-.87.68-1.33,2.05-1.37l.73,0v-.25a1,1,0,0,0-.21-.72.86.86,0,0,0-.68-.24,2,2,0,0,0-.64.11,4.82,4.82,0,0,0-.57.22l-.21-.52a2.62,2.62,0,0,1,.71-.27,2.76,2.76,0,0,1,.75-.1,1.68,1.68,0,0,1,1.16.34,1.44,1.44,0,0,1,.38,1.1V85.7Zm-1.45-.49a1.33,1.33,0,0,0,.93-.32,1.19,1.19,0,0,0,.33-.9V83.6l-.63,0a2.35,2.35,0,0,0-1.08.23.72.72,0,0,0-.33.65.64.64,0,0,0,.2.52A.86.86,0,0,0,154.51,85.21Z"/>
    <path d="M162.8,85.7V83a1.1,1.1,0,0,0-.24-.78.88.88,0,0,0-.72-.26,1.18,1.18,0,0,0-1,.36,1.9,1.9,0,0,0-.3,1.2V85.7h-.7V79.62h.7V81.4a5,5,0,0,1,0,.6h.05a1.23,1.23,0,0,1,.54-.49,1.83,1.83,0,0,1,.79-.17,1.67,1.67,0,0,1,1.18.37,1.59,1.59,0,0,1,.39,1.19v2.8Z"/>
    <path d="M164.15,81.41h.75l.93,2.44a9.37,9.37,0,0,1,.36,1.17h0a4.63,4.63,0,0,1,.16-.54c.08-.27.15-.48.21-.64l.87-2.43h.76l-1.85,4.88a2.45,2.45,0,0,1-.64,1,1.37,1.37,0,0,1-.92.31,2.3,2.3,0,0,1-.58-.07V87a1.65,1.65,0,0,0,.47.05.92.92,0,0,0,.57-.18,1.33,1.33,0,0,0,.38-.58l.23-.57Z"/>
    <path d="M170.93,81.34a1.58,1.58,0,0,1,1.31.58,3.12,3.12,0,0,1,0,3.28,1.6,1.6,0,0,1-1.3.58,1.86,1.86,0,0,1-.77-.16,1.35,1.35,0,0,1-.56-.47h0c-.08.32-.13.5-.15.55h-.5V79.62h.7V81.1a8.77,8.77,0,0,1,0,.88h0A1.49,1.49,0,0,1,170.93,81.34Zm-.12.58a1.09,1.09,0,0,0-.93.37,2.14,2.14,0,0,0-.28,1.24v0a2.12,2.12,0,0,0,.29,1.26,1.1,1.1,0,0,0,.94.37,1,1,0,0,0,.86-.42,2.2,2.2,0,0,0,.28-1.23,2.1,2.1,0,0,0-.28-1.21A1,1,0,0,0,170.81,81.92Z"/>
    <path d="M175.82,81.33a2.41,2.41,0,0,1,.5,0l-.08.65a2,2,0,0,0-.47-.06,1.13,1.13,0,0,0-.63.19,1.27,1.27,0,0,0-.45.52,1.6,1.6,0,0,0-.17.73V85.7h-.7V81.41h.58l.08.78h0a1.82,1.82,0,0,1,.58-.64A1.28,1.28,0,0,1,175.82,81.33Z"/>
    <path d="M177.07,80.25a.43.43,0,0,1,.12-.34.44.44,0,0,1,.58,0,.43.43,0,0,1,.12.34.45.45,0,0,1-.12.34.44.44,0,0,1-.58,0A.45.45,0,0,1,177.07,80.25Zm.76,5.45h-.71V81.41h.71Z"/>
    <path d="M180.71,85.78a1.59,1.59,0,0,1-1.3-.58,3.15,3.15,0,0,1,0-3.28,1.57,1.57,0,0,1,1.3-.59A1.55,1.55,0,0,1,182,82h.05s0-.15,0-.31,0-.27,0-.32V79.62h.71V85.7h-.57l-.11-.58h0A1.5,1.5,0,0,1,180.71,85.78Zm.11-.59a1.15,1.15,0,0,0,.94-.35,1.79,1.79,0,0,0,.29-1.14v-.13a2.11,2.11,0,0,0-.3-1.28,1.13,1.13,0,0,0-.94-.38,1,1,0,0,0-.84.43,2.17,2.17,0,0,0-.29,1.24,2,2,0,0,0,.29,1.2A1,1,0,0,0,180.82,85.19Z"/>
    <path d="M187.91,85.78a1.87,1.87,0,0,1-1.45-.57,2.38,2.38,0,0,1-.51-1.63,2.42,2.42,0,0,1,.52-1.67,1.89,1.89,0,0,1,1.49-.58,3.26,3.26,0,0,1,.62.06,2.23,2.23,0,0,1,.5.17l-.21.59a2.69,2.69,0,0,0-.93-.21,1.14,1.14,0,0,0-1,.41,2.05,2.05,0,0,0-.3,1.22,2,2,0,0,0,.3,1.19,1.09,1.09,0,0,0,.92.41,2.57,2.57,0,0,0,1.11-.25v.62A2.29,2.29,0,0,1,187.91,85.78Z"/>
    <path d="M190.73,85.7H190V79.62h.7Z"/>
    <path d="M195.82,83.54a2.4,2.4,0,0,1-.53,1.65,1.91,1.91,0,0,1-1.47.59,1.93,1.93,0,0,1-1-.28,1.77,1.77,0,0,1-.7-.78,2.7,2.7,0,0,1-.24-1.18,2.37,2.37,0,0,1,.53-1.63,1.83,1.83,0,0,1,1.46-.58,1.81,1.81,0,0,1,1.44.6A2.29,2.29,0,0,1,195.82,83.54Zm-3.24,0a2,2,0,0,0,.32,1.23,1.25,1.25,0,0,0,1.87,0,2,2,0,0,0,.32-1.23,2,2,0,0,0-.32-1.21,1.15,1.15,0,0,0-1-.41C193,81.92,192.58,82.46,192.58,83.54Z"/>
    <path d="M197.59,81.41v2.76a1.08,1.08,0,0,0,.24.77.91.91,0,0,0,.72.25,1.18,1.18,0,0,0,1-.36,1.89,1.89,0,0,0,.3-1.19V81.41h.71V85.7h-.58l-.1-.57h0a1.26,1.26,0,0,1-.54.48,1.94,1.94,0,0,1-.82.17,1.62,1.62,0,0,1-1.16-.38,1.52,1.52,0,0,1-.4-1.18V81.41Z"/>
    <path d="M203.39,85.78a1.57,1.57,0,0,1-1.29-.58,3.15,3.15,0,0,1,0-3.28,1.57,1.57,0,0,1,1.3-.59,1.55,1.55,0,0,1,1.33.63h.05a2.84,2.84,0,0,1,0-.31c0-.16,0-.27,0-.32V79.62h.7V85.7h-.56l-.11-.58h0A1.51,1.51,0,0,1,203.39,85.78Zm.12-.59a1.12,1.12,0,0,0,.93-.35,1.73,1.73,0,0,0,.3-1.14v-.13a2.11,2.11,0,0,0-.3-1.28,1.13,1.13,0,0,0-.94-.38,1,1,0,0,0-.84.43,2.16,2.16,0,0,0-.3,1.24,2,2,0,0,0,.3,1.2A1,1,0,0,0,203.51,85.19Z"/>
    <path d="M211.67,84.51a1.09,1.09,0,0,1-.45.94,2.1,2.1,0,0,1-1.26.33,2.84,2.84,0,0,1-1.35-.27v-.64a3.25,3.25,0,0,0,1.36.34,1.43,1.43,0,0,0,.78-.17.55.55,0,0,0,.24-.46.52.52,0,0,0-.23-.43,3.93,3.93,0,0,0-.83-.41,4.31,4.31,0,0,1-.85-.4,1,1,0,0,1-.48-.87,1,1,0,0,1,.43-.84,2,2,0,0,1,1.18-.3,3.33,3.33,0,0,1,1.37.29l-.24.56a3.19,3.19,0,0,0-1.18-.28,1.3,1.3,0,0,0-.66.14.44.44,0,0,0-.23.38.47.47,0,0,0,.2.39,3.67,3.67,0,0,0,.91.43,4,4,0,0,1,.79.37,1.17,1.17,0,0,1,.38.39A1,1,0,0,1,211.67,84.51Z"/>
    <path d="M214.14,85.2l.32,0a1.2,1.2,0,0,0,.28-.06v.54a1.26,1.26,0,0,1-.3.08,2,2,0,0,1-.42,0c-.84,0-1.26-.45-1.26-1.33V82h-.6v-.34l.61-.28.28-.92h.42v1h1.24V82h-1.24v2.47a.81.81,0,0,0,.18.57A.62.62,0,0,0,214.14,85.2Z"/>
    <path d="M217.59,81.33a2.59,2.59,0,0,1,.51,0L218,82a1.88,1.88,0,0,0-.46-.06,1.09,1.09,0,0,0-.63.19,1.23,1.23,0,0,0-.46.52,1.6,1.6,0,0,0-.16.73V85.7h-.71V81.41h.58l.08.78h0a1.92,1.92,0,0,1,.58-.64A1.3,1.3,0,0,1,217.59,81.33Z"/>
    <path d="M221.47,85.7l-.14-.61h0a1.71,1.71,0,0,1-.64.54,1.87,1.87,0,0,1-.8.15,1.37,1.37,0,0,1-1-.34,1.2,1.2,0,0,1-.36-.93c0-.87.68-1.33,2.06-1.37l.72,0v-.25a1,1,0,0,0-.21-.72.84.84,0,0,0-.67-.24,2,2,0,0,0-.65.11,4.08,4.08,0,0,0-.56.22l-.22-.52a2.75,2.75,0,0,1,.71-.27,2.84,2.84,0,0,1,.76-.1,1.66,1.66,0,0,1,1.15.34,1.44,1.44,0,0,1,.38,1.1V85.7ZM220,85.21a1.33,1.33,0,0,0,.93-.32,1.19,1.19,0,0,0,.34-.9V83.6l-.64,0a2.27,2.27,0,0,0-1.07.23.71.71,0,0,0-.34.65.67.67,0,0,0,.2.52A.86.86,0,0,0,220,85.21Z"/>
    <path d="M224.74,85.2l.32,0a1.2,1.2,0,0,0,.28-.06v.54a1.26,1.26,0,0,1-.3.08,2,2,0,0,1-.42,0c-.84,0-1.26-.45-1.26-1.33V82h-.6v-.34l.61-.28.28-.92h.42v1h1.24V82h-1.24v2.47a.81.81,0,0,0,.18.57A.63.63,0,0,0,224.74,85.2Z"/>
    <path d="M228,85.78a2,2,0,0,1-1.51-.59,2.23,2.23,0,0,1-.55-1.61,2.49,2.49,0,0,1,.51-1.64,1.7,1.7,0,0,1,1.38-.61,1.66,1.66,0,0,1,1.29.52,2,2,0,0,1,.48,1.41v.43h-2.94a1.69,1.69,0,0,0,.37,1.11,1.32,1.32,0,0,0,1,.38,3.34,3.34,0,0,0,.65-.06,3.62,3.62,0,0,0,.73-.24v.62a3.4,3.4,0,0,1-.67.21A4,4,0,0,1,228,85.78Zm-.18-3.88a1,1,0,0,0-.79.33,1.51,1.51,0,0,0-.35.9h2.18a1.34,1.34,0,0,0-.27-.91A1,1,0,0,0,227.84,81.9Z"/>
    <path d="M233.57,85.66l0-.53h0a1.49,1.49,0,0,1-1.33.65,1.58,1.58,0,0,1-1.29-.58,3.08,3.08,0,0,1,0-3.27,1.54,1.54,0,0,1,1.29-.6,1.57,1.57,0,0,1,1.34.65h0l.1-.57h.56v4.36a1.87,1.87,0,0,1-.47,1.38,2,2,0,0,1-1.45.47,3.85,3.85,0,0,1-1.55-.27V86.7a3.41,3.41,0,0,0,1.59.33,1.13,1.13,0,0,0,.86-.32,1.2,1.2,0,0,0,.32-.88Zm-1.23-.46a1.16,1.16,0,0,0,.94-.35,1.71,1.71,0,0,0,.3-1.12v-.17a2.07,2.07,0,0,0-.3-1.25,1.13,1.13,0,0,0-1-.39.94.94,0,0,0-.83.43,2.1,2.1,0,0,0-.29,1.22,2.14,2.14,0,0,0,.28,1.21A1,1,0,0,0,232.34,85.2Z"/>
    <path d="M235,81.41h.75l.93,2.44A9.37,9.37,0,0,1,237,85h0a4.63,4.63,0,0,1,.16-.54c.08-.27.15-.48.21-.64l.87-2.43H239l-1.85,4.88a2.45,2.45,0,0,1-.64,1,1.37,1.37,0,0,1-.92.31,2.3,2.3,0,0,1-.58-.07V87a1.65,1.65,0,0,0,.47.05.92.92,0,0,0,.57-.18,1.43,1.43,0,0,0,.38-.58l.22-.57Z"/>
    <path d="M115.11,94.8l.32,0a.78.78,0,0,0,.28-.06v.54a1.14,1.14,0,0,1-.3.08,2,2,0,0,1-.42,0c-.84,0-1.26-.45-1.26-1.33V91.56h-.6v-.34l.61-.28L114,90h.42v1h1.24v.55h-1.24V94a.81.81,0,0,0,.18.57A.6.6,0,0,0,115.11,94.8Z"/>
    <path d="M120.29,93.15a2.35,2.35,0,0,1-.53,1.64,2.09,2.09,0,0,1-2.5.31,1.78,1.78,0,0,1-.69-.77,2.76,2.76,0,0,1-.24-1.18,2.37,2.37,0,0,1,.52-1.64,1.87,1.87,0,0,1,1.47-.58,1.84,1.84,0,0,1,1.44.6A2.29,2.29,0,0,1,120.29,93.15Zm-3.24,0a2,2,0,0,0,.32,1.22,1.11,1.11,0,0,0,.94.42,1.12,1.12,0,0,0,.94-.42,2,2,0,0,0,.32-1.22,1.91,1.91,0,0,0-.33-1.22,1.13,1.13,0,0,0-.94-.41C117.47,91.52,117.05,92.06,117.05,93.15Z"/>
    <path d="M126.13,95.3l-.13-.61h0a1.69,1.69,0,0,1-.63.54,1.92,1.92,0,0,1-.81.15,1.37,1.37,0,0,1-1-.34,1.2,1.2,0,0,1-.36-.93c0-.87.69-1.33,2.06-1.37l.73,0v-.25a1,1,0,0,0-.21-.72.86.86,0,0,0-.68-.24,1.91,1.91,0,0,0-.64.11,4.82,4.82,0,0,0-.57.22l-.22-.52a3.29,3.29,0,0,1,1.47-.37,1.69,1.69,0,0,1,1.16.34,1.43,1.43,0,0,1,.37,1.1V95.3Zm-1.45-.49a1.3,1.3,0,0,0,.93-.32,1.15,1.15,0,0,0,.34-.9V93.2l-.63,0a2.28,2.28,0,0,0-1.08.23.71.71,0,0,0-.34.65.64.64,0,0,0,.21.52A.83.83,0,0,0,124.68,94.81Z"/>
    <path d="M129.69,95.38a1.83,1.83,0,0,1-1.44-.57,2.38,2.38,0,0,1-.52-1.63,2.42,2.42,0,0,1,.53-1.67,1.86,1.86,0,0,1,1.48-.58,2.56,2.56,0,0,1,.62.07,1.92,1.92,0,0,1,.51.16l-.22.59a2.64,2.64,0,0,0-.92-.21,1.12,1.12,0,0,0-1,.41,2,2,0,0,0-.31,1.22,1.94,1.94,0,0,0,.31,1.19,1.07,1.07,0,0,0,.91.41,2.64,2.64,0,0,0,1.12-.25v.63A2.46,2.46,0,0,1,129.69,95.38Z"/>
    <path d="M133.53,95.38a1.83,1.83,0,0,1-1.44-.57,2.38,2.38,0,0,1-.52-1.63,2.42,2.42,0,0,1,.53-1.67,1.86,1.86,0,0,1,1.48-.58,2.56,2.56,0,0,1,.62.07,1.92,1.92,0,0,1,.51.16l-.22.59a2.64,2.64,0,0,0-.92-.21,1.12,1.12,0,0,0-1,.41,2,2,0,0,0-.31,1.22,1.94,1.94,0,0,0,.31,1.19,1.07,1.07,0,0,0,.91.41,2.64,2.64,0,0,0,1.12-.25v.63A2.46,2.46,0,0,1,133.53,95.38Z"/>
    <path d="M137.48,95.38a2,2,0,0,1-1.52-.59,2.28,2.28,0,0,1-.55-1.61,2.44,2.44,0,0,1,.52-1.64,1.7,1.7,0,0,1,1.38-.61,1.66,1.66,0,0,1,1.29.52,2,2,0,0,1,.48,1.41v.43h-2.94a1.64,1.64,0,0,0,.37,1.11,1.32,1.32,0,0,0,1,.38,3.42,3.42,0,0,0,.65-.06,3.36,3.36,0,0,0,.72-.24v.62a3.21,3.21,0,0,1-.67.21A3.12,3.12,0,0,1,137.48,95.38Zm-.18-3.88a1,1,0,0,0-.8.33,1.5,1.5,0,0,0-.34.9h2.18a1.41,1.41,0,0,0-.28-.91A1,1,0,0,0,137.3,91.5Z"/>
    <path d="M140.87,95.3h-.71V89.22h.71Z"/>
    <path d="M144.05,95.38a2,2,0,0,1-1.51-.59,2.23,2.23,0,0,1-.55-1.61,2.49,2.49,0,0,1,.51-1.64,1.7,1.7,0,0,1,1.38-.61,1.66,1.66,0,0,1,1.29.52,2,2,0,0,1,.48,1.41v.43h-2.94a1.64,1.64,0,0,0,.38,1.11,1.28,1.28,0,0,0,1,.38,3.34,3.34,0,0,0,.65-.06,3.62,3.62,0,0,0,.73-.24v.62a3.4,3.4,0,0,1-.67.21A3.26,3.26,0,0,1,144.05,95.38Zm-.17-3.88a1,1,0,0,0-.8.33,1.51,1.51,0,0,0-.35.9h2.18a1.35,1.35,0,0,0-.27-.91A1,1,0,0,0,143.88,91.5Z"/>
    <path d="M148.74,90.93a2.41,2.41,0,0,1,.5,0l-.08.65a2,2,0,0,0-.47-.06,1.09,1.09,0,0,0-.63.19,1.21,1.21,0,0,0-.45.52,1.6,1.6,0,0,0-.17.73V95.3h-.7V91h.58l.07.78h0a1.73,1.73,0,0,1,.58-.64A1.26,1.26,0,0,1,148.74,90.93Z"/>
    <path d="M152.61,95.3l-.13-.61h0a1.79,1.79,0,0,1-.64.54,1.92,1.92,0,0,1-.81.15,1.37,1.37,0,0,1-1-.34,1.2,1.2,0,0,1-.36-.93c0-.87.69-1.33,2.06-1.37l.73,0v-.25a1,1,0,0,0-.21-.72.86.86,0,0,0-.68-.24,1.91,1.91,0,0,0-.64.11,4.82,4.82,0,0,0-.57.22l-.22-.52a3.29,3.29,0,0,1,1.47-.37,1.69,1.69,0,0,1,1.16.34,1.43,1.43,0,0,1,.37,1.1V95.3Zm-1.45-.49a1.3,1.3,0,0,0,.93-.32,1.15,1.15,0,0,0,.34-.9V93.2l-.63,0a2.31,2.31,0,0,0-1.08.23.73.73,0,0,0-.34.65.64.64,0,0,0,.21.52A.83.83,0,0,0,151.16,94.81Z"/>
    <path d="M155.89,94.8l.32,0a.77.77,0,0,0,.27-.06v.54a1,1,0,0,1-.3.08,1.92,1.92,0,0,1-.41,0c-.84,0-1.26-.45-1.26-1.33V91.56h-.61v-.34l.62-.28.28-.92h.41v1h1.24v.55h-1.24V94a.81.81,0,0,0,.18.57A.62.62,0,0,0,155.89,94.8Z"/>
    <path d="M159.16,95.38a2,2,0,0,1-1.51-.59,2.23,2.23,0,0,1-.55-1.61,2.49,2.49,0,0,1,.51-1.64,1.72,1.72,0,0,1,1.39-.61,1.67,1.67,0,0,1,1.29.52,2,2,0,0,1,.48,1.41v.43h-2.94a1.59,1.59,0,0,0,.37,1.11,1.3,1.3,0,0,0,1,.38,3.49,3.49,0,0,0,.65-.06,3.77,3.77,0,0,0,.72-.24v.62a3.4,3.4,0,0,1-.67.21A3.21,3.21,0,0,1,159.16,95.38ZM159,91.5a1,1,0,0,0-.8.33,1.57,1.57,0,0,0-.35.9H160a1.41,1.41,0,0,0-.28-.91A1,1,0,0,0,159,91.5Z"/>
    <path d="M166.72,94.11a1.09,1.09,0,0,1-.45.94,2.1,2.1,0,0,1-1.26.33,2.89,2.89,0,0,1-1.35-.27v-.64a3.11,3.11,0,0,0,1.37.34,1.39,1.39,0,0,0,.77-.17.55.55,0,0,0,.24-.46.52.52,0,0,0-.23-.43,3.68,3.68,0,0,0-.83-.41,4.62,4.62,0,0,1-.85-.4,1.15,1.15,0,0,1-.36-.37,1,1,0,0,1-.11-.5,1,1,0,0,1,.43-.83,2,2,0,0,1,1.18-.31,3.29,3.29,0,0,1,1.36.29l-.24.56a3.1,3.1,0,0,0-1.17-.28,1.36,1.36,0,0,0-.67.14.43.43,0,0,0-.22.38.47.47,0,0,0,.19.39,3.88,3.88,0,0,0,.91.43,4,4,0,0,1,.79.37,1.27,1.27,0,0,1,.38.39A1,1,0,0,1,166.72,94.11Z"/>
    <path d="M171.49,93.15a2.39,2.39,0,0,1-.53,1.64,1.91,1.91,0,0,1-1.47.59,1.87,1.87,0,0,1-1-.28,1.78,1.78,0,0,1-.69-.77,2.62,2.62,0,0,1-.25-1.18,2.38,2.38,0,0,1,.53-1.64,2.09,2.09,0,0,1,2.91,0A2.34,2.34,0,0,1,171.49,93.15Zm-3.24,0a2,2,0,0,0,.32,1.22,1.25,1.25,0,0,0,1.87,0,2,2,0,0,0,.32-1.22,2,2,0,0,0-.32-1.22,1.14,1.14,0,0,0-.94-.41C168.67,91.52,168.25,92.06,168.25,93.15Z"/>
    <path d="M174.58,91.56H173.5V95.3h-.71V91.56H172v-.33l.75-.24v-.25a1.77,1.77,0,0,1,.34-1.17,1.34,1.34,0,0,1,1.06-.39,2.45,2.45,0,0,1,.83.14l-.19.55a2,2,0,0,0-.63-.12.6.6,0,0,0-.53.24,1.23,1.23,0,0,0-.17.74V91h1.08Z"/>
    <path d="M176.79,94.8l.32,0a.9.9,0,0,0,.28-.06v.54a1.23,1.23,0,0,1-.31.08,1.84,1.84,0,0,1-.41,0c-.84,0-1.26-.45-1.26-1.33V91.56h-.61v-.34l.62-.28.28-.92h.42v1h1.24v.55h-1.24V94a.86.86,0,0,0,.17.57A.62.62,0,0,0,176.79,94.8Z"/>
    <path d="M181.75,95.3,181,92.88c-.07-.2-.17-.58-.3-1.13h0a10.65,10.65,0,0,1-.29,1.14l-.77,2.41h-.79L177.65,91h.73l.62,2.41a10.65,10.65,0,0,1,.25,1.16h0l.06-.24a7.89,7.89,0,0,1,.23-.91l.76-2.42h.77l.74,2.42c0,.09,0,.19.08.29s.06.2.08.3.05.2.07.3,0,.18.05.25h0a10.54,10.54,0,0,1,.28-1.27L183,91h.72l-1.19,4.29Z"/>
    <path d="M187.18,95.3l-.14-.61h0a1.71,1.71,0,0,1-.64.54,1.87,1.87,0,0,1-.8.15,1.37,1.37,0,0,1-1-.34,1.2,1.2,0,0,1-.36-.93c0-.87.68-1.33,2.06-1.37l.72,0v-.25a1,1,0,0,0-.21-.72.84.84,0,0,0-.67-.24,2,2,0,0,0-.65.11,4.08,4.08,0,0,0-.56.22l-.22-.52a2.75,2.75,0,0,1,.71-.27,2.84,2.84,0,0,1,.76-.1,1.66,1.66,0,0,1,1.15.34,1.44,1.44,0,0,1,.38,1.1V95.3Zm-1.45-.49a1.33,1.33,0,0,0,.93-.32,1.19,1.19,0,0,0,.34-.9V93.2l-.64,0a2.27,2.27,0,0,0-1.07.23.71.71,0,0,0-.34.65.67.67,0,0,0,.2.52A.86.86,0,0,0,185.73,94.81Z"/>
    <path d="M191,90.93a2.41,2.41,0,0,1,.5,0l-.08.65a2,2,0,0,0-.47-.06,1.13,1.13,0,0,0-.63.19,1.27,1.27,0,0,0-.45.52,1.6,1.6,0,0,0-.17.73V95.3H189V91h.58l.08.78h0a1.73,1.73,0,0,1,.58-.64A1.28,1.28,0,0,1,191,90.93Z"/>
    <path d="M194.07,95.38a2,2,0,0,1-1.51-.59,2.23,2.23,0,0,1-.55-1.61,2.49,2.49,0,0,1,.51-1.64,1.7,1.7,0,0,1,1.38-.61,1.66,1.66,0,0,1,1.29.52,2,2,0,0,1,.48,1.41v.43h-2.94a1.64,1.64,0,0,0,.38,1.11,1.28,1.28,0,0,0,1,.38,3.34,3.34,0,0,0,.65-.06,3.62,3.62,0,0,0,.73-.24v.62a3.4,3.4,0,0,1-.67.21A3.26,3.26,0,0,1,194.07,95.38Zm-.18-3.88a1,1,0,0,0-.79.33,1.51,1.51,0,0,0-.35.9h2.18a1.35,1.35,0,0,0-.27-.91A1,1,0,0,0,193.89,91.5Z"/>
    <path d="M200.36,95.38a1.59,1.59,0,0,1-1.3-.58,3.15,3.15,0,0,1,0-3.28,1.57,1.57,0,0,1,1.3-.59,1.55,1.55,0,0,1,1.33.63h.05a2.84,2.84,0,0,1,0-.31c0-.16,0-.26,0-.32V89.22h.7V95.3h-.56l-.11-.58h0A1.5,1.5,0,0,1,200.36,95.38Zm.11-.59a1.11,1.11,0,0,0,.93-.35,1.73,1.73,0,0,0,.3-1.14v-.13a2.11,2.11,0,0,0-.3-1.28,1.13,1.13,0,0,0-.94-.38,1,1,0,0,0-.84.43,2.16,2.16,0,0,0-.3,1.24,2,2,0,0,0,.3,1.2A1,1,0,0,0,200.47,94.79Z"/>
    <path d="M205.58,95.38a2,2,0,0,1-1.51-.59,2.23,2.23,0,0,1-.55-1.61,2.49,2.49,0,0,1,.51-1.64,1.7,1.7,0,0,1,1.38-.61,1.66,1.66,0,0,1,1.29.52,2,2,0,0,1,.48,1.41v.43h-2.93a1.59,1.59,0,0,0,.37,1.11,1.28,1.28,0,0,0,1,.38,3.52,3.52,0,0,0,.66-.06,3.77,3.77,0,0,0,.72-.24v.62a3.4,3.4,0,0,1-.67.21A3.21,3.21,0,0,1,205.58,95.38Zm-.17-3.88a1,1,0,0,0-.8.33,1.51,1.51,0,0,0-.35.9h2.19a1.41,1.41,0,0,0-.28-.91A1,1,0,0,0,205.41,91.5Z"/>
    <path d="M209,95.3h-.7V89.22h.7Z"/>
    <path d="M210.28,89.85a.43.43,0,0,1,.12-.34.42.42,0,0,1,.29-.11.44.44,0,0,1,.29.11.43.43,0,0,1,.12.34.4.4,0,0,1-.41.45.42.42,0,0,1-.29-.11A.44.44,0,0,1,210.28,89.85ZM211,95.3h-.71V91H211Z"/>
    <path d="M213.34,95.3,211.71,91h.76l.91,2.53a8.59,8.59,0,0,1,.34,1.13h0l0-.11s0-.09,0-.14.12-.35.29-.88L215,91h.75l-1.63,4.29Z"/>
    <path d="M218.28,95.38a2,2,0,0,1-1.51-.59,2.23,2.23,0,0,1-.55-1.61,2.49,2.49,0,0,1,.51-1.64,1.7,1.7,0,0,1,1.38-.61,1.66,1.66,0,0,1,1.29.52,2,2,0,0,1,.48,1.41v.43H217a1.59,1.59,0,0,0,.37,1.11,1.28,1.28,0,0,0,1,.38,3.34,3.34,0,0,0,.65-.06,3.62,3.62,0,0,0,.73-.24v.62a3.4,3.4,0,0,1-.67.21A3.26,3.26,0,0,1,218.28,95.38Zm-.17-3.88a1,1,0,0,0-.8.33,1.51,1.51,0,0,0-.35.9h2.18a1.35,1.35,0,0,0-.27-.91A1,1,0,0,0,218.11,91.5Z"/>
    <path d="M223,90.93a2.41,2.41,0,0,1,.5,0l-.08.65a2,2,0,0,0-.47-.06,1.11,1.11,0,0,0-.63.19,1.27,1.27,0,0,0-.45.52,1.6,1.6,0,0,0-.17.73V95.3H221V91h.58l.07.78h0a1.73,1.73,0,0,1,.58-.64A1.28,1.28,0,0,1,223,90.93Z"/>
    <path d="M223.6,91h.76l.92,2.44a6.83,6.83,0,0,1,.36,1.17h0l.16-.54.21-.64.87-2.43h.76l-1.85,4.88a2.33,2.33,0,0,1-.64,1,1.34,1.34,0,0,1-.91.31,2.38,2.38,0,0,1-.59-.07v-.56a1.65,1.65,0,0,0,.47,0,.88.88,0,0,0,.57-.18,1.35,1.35,0,0,0,.39-.58l.22-.57Z"/>
  </g>
</svg>
