<svg xmlns="http://www.w3.org/2000/svg" viewBox="0 0 90 90">
  <title>hybrid</title>
  <g>
    <g>
      <path d="M45,85.62A40.62,40.62,0,1,0,4.38,45,40.61,40.61,0,0,0,45,85.62" style="fill: #95bc24"/>
      <path d="M44.61,33.57a10.52,10.52,0,0,0-5,2.61,8.9,8.9,0,0,0-3.48-.71,8.81,8.81,0,0,0-8.81,8.8v.07a7.53,7.53,0,0,0-6.74,5.95,7.22,7.22,0,0,0-.17,1.55A7.55,7.55,0,0,0,28,59.38H44.61" style="fill: none;stroke: #fff;stroke-miterlimit: 10;stroke-width: 1.25600004196167px"/>
      <path d="M66.37,40.85H47.55a.5.5,0,0,1-.51-.5v-.8a.5.5,0,0,1,.51-.5H66.37a.5.5,0,0,1,.51.5v.8A.5.5,0,0,1,66.37,40.85Zm0,10.12H47.55a.51.51,0,0,1-.51-.51v-.78a.51.51,0,0,1,.51-.51H66.37a.51.51,0,0,1,.51.51v.78A.51.51,0,0,1,66.37,51Z" style="fill: none;stroke: #fff;stroke-miterlimit: 10;stroke-width: 1.25600004196167px"/>
      <path d="M64.79,56.93a1.61,1.61,0,1,1,1.62-1.6A1.62,1.62,0,0,1,64.79,56.93Zm3.93-5.82H45.19a.56.56,0,0,0-.56.56v7.14a.57.57,0,0,0,.56.57H68.72a.57.57,0,0,0,.57-.57V51.67A.56.56,0,0,0,68.72,51.11Z" style="fill: none;stroke: #fff;stroke-miterlimit: 10;stroke-width: 1.25600004196167px"/>
      <path d="M64.79,46.56A1.61,1.61,0,1,1,66.41,45,1.62,1.62,0,0,1,64.79,46.56Zm3.93-5.69H45.19a.56.56,0,0,0-.56.56v7.14a.56.56,0,0,0,.56.56H68.72a.56.56,0,0,0,.57-.56V41.43A.56.56,0,0,0,68.72,40.87Z" style="fill: none;stroke: #fff;stroke-miterlimit: 10;stroke-width: 1.25600004196167px"/>
      <path d="M64.79,36.36a1.61,1.61,0,1,1,1.62-1.61A1.62,1.62,0,0,1,64.79,36.36Zm3.93-5.74H45.19a.56.56,0,0,0-.56.57v7.14a.56.56,0,0,0,.56.56H68.72a.56.56,0,0,0,.57-.56V31.19A.56.56,0,0,0,68.72,30.62Z" style="fill: none;stroke: #fff;stroke-miterlimit: 10;stroke-width: 1.25600004196167px"/>
    </g>
    <rect x="52.35" y="34.7" width="0.47" height="0.46" style="fill: none;stroke: #fff;stroke-miterlimit: 10;stroke-width: 1.25600004196167px"/>
    <rect x="48.37" y="34.7" width="0.47" height="0.46" style="fill: none;stroke: #fff;stroke-miterlimit: 10;stroke-width: 1.25600004196167px"/>
    <rect x="52.35" y="44.83" width="0.47" height="0.46" style="fill: none;stroke: #fff;stroke-miterlimit: 10;stroke-width: 1.25600004196167px"/>
    <rect x="48.37" y="44.83" width="0.47" height="0.46" style="fill: none;stroke: #fff;stroke-miterlimit: 10;stroke-width: 1.25600004196167px"/>
    <rect x="52.35" y="55.18" width="0.47" height="0.46" style="fill: none;stroke: #fff;stroke-miterlimit: 10;stroke-width: 1.25600004196167px"/>
    <rect x="48.37" y="55.18" width="0.47" height="0.46" style="fill: none;stroke: #fff;stroke-miterlimit: 10;stroke-width: 1.25600004196167px"/>
  </g>
</svg>
