<svg xmlns="http://www.w3.org/2000/svg" viewBox="0 0 288 200">
  <title>intro_graph</title>
  <path d="M279.4,17.09C222,1.91,85.32,150.42,6,116.66v54H279.4Z" style="fill: #fddbdc"/>
  <rect x="6" y="130.78" width="21.94" height="39.89" style="fill: #5f0000"/>
  <rect x="16" y="32" width="10" height="10" style="fill: #5f0000"/>
  <rect x="27.94" y="150.72" width="21.94" height="19.94" style="fill: #e00"/>
  <rect x="63.38" y="130.78" width="21.94" height="39.89" style="fill: #5f0000"/>
  <rect x="85.32" y="150.72" width="21.94" height="19.94" style="fill: #e00"/>
  <rect x="120.76" y="60.97" width="21.94" height="109.7" style="fill: #5f0000"/>
  <rect x="142.7" y="67.62" width="21.94" height="103.05" style="fill: #e00"/>
  <rect x="178.14" y="77.59" width="21.94" height="93.08" style="fill: #5f0000"/>
  <rect x="200.08" y="64.3" width="21.94" height="106.37" style="fill: #e00"/>
  <rect x="235.52" y="120.81" width="21.94" height="49.86" style="fill: #5f0000"/>
  <rect x="257.46" y="87.57" width="21.94" height="83.1" style="fill: #e00"/>
  <g>
    <path d="M18.63,179a1.62,1.62,0,0,1-.6,1.35,2.67,2.67,0,0,1-1.68.46h-.66v2.22H15v-5.71h1.51C17.92,177.35,18.63,177.91,18.63,179Zm-2.94,1.19h.58A2.15,2.15,0,0,0,17.5,180a1,1,0,0,0,.39-.89,1,1,0,0,0-.36-.82,1.85,1.85,0,0,0-1.11-.27h-.73Z"/>
    <path d="M23.44,180.91a2.33,2.33,0,0,1-.53,1.64,1.84,1.84,0,0,1-1.47.59,2,2,0,0,1-1-.27,1.75,1.75,0,0,1-.69-.78,2.73,2.73,0,0,1-.24-1.18,2.35,2.35,0,0,1,.52-1.63,1.87,1.87,0,0,1,1.47-.58,1.84,1.84,0,0,1,1.44.59A2.33,2.33,0,0,1,23.44,180.91Zm-3.23,0a2,2,0,0,0,.31,1.23,1.26,1.26,0,0,0,1.88,0,2,2,0,0,0,.32-1.23,1.94,1.94,0,0,0-.32-1.21,1.12,1.12,0,0,0-.95-.41C20.62,179.29,20.21,179.83,20.21,180.91Z"/>
    <path d="M26.28,183.14a1.87,1.87,0,0,1-1.45-.57,2.34,2.34,0,0,1-.51-1.63,2.39,2.39,0,0,1,.52-1.66,1.89,1.89,0,0,1,1.49-.58,3.26,3.26,0,0,1,.62.06,1.82,1.82,0,0,1,.5.17l-.21.58a2.84,2.84,0,0,0-.93-.2,1.14,1.14,0,0,0-1,.41,2.05,2.05,0,0,0-.3,1.22,2,2,0,0,0,.3,1.18,1.07,1.07,0,0,0,.92.42,2.72,2.72,0,0,0,1.11-.25v.62A2.3,2.3,0,0,1,26.28,183.14Z"/>
    <path d="M29.09,180.86l.24-.31.27-.33L31,178.78h.82l-1.74,1.83,1.86,2.45h-.85l-1.49-2-.49.43v1.57H28.4V177h.69v3.17l0,.7Z"/>
    <path d="M34.42,183.14a2,2,0,0,1-1.52-.58,2.29,2.29,0,0,1-.55-1.61,2.43,2.43,0,0,1,.52-1.64,1.7,1.7,0,0,1,1.38-.61,1.66,1.66,0,0,1,1.29.52,2,2,0,0,1,.48,1.41v.43H33.08a1.68,1.68,0,0,0,.37,1.11,1.31,1.31,0,0,0,1,.37,3.34,3.34,0,0,0,.65-.06,3.28,3.28,0,0,0,.72-.23v.62a3.33,3.33,0,0,1-.66.21A4,4,0,0,1,34.42,183.14Zm-.18-3.87a1,1,0,0,0-.8.33,1.48,1.48,0,0,0-.34.9h2.18a1.44,1.44,0,0,0-.28-.92A1,1,0,0,0,34.24,179.27Z"/>
    <path d="M38.54,182.57l.32,0,.28-.06V183a1.91,1.91,0,0,1-.31.08,1.84,1.84,0,0,1-.41,0q-1.26,0-1.26-1.32v-2.5h-.61V179l.62-.28.28-.92h.42v1H39.1v.54H37.87v2.48a.86.86,0,0,0,.17.57A.65.65,0,0,0,38.54,182.57Z"/>
    <path d="M42.78,181.88a1.09,1.09,0,0,1-.45.93,2.08,2.08,0,0,1-1.26.33,2.82,2.82,0,0,1-1.34-.27v-.64a3.09,3.09,0,0,0,1.36.35,1.3,1.3,0,0,0,.77-.18.52.52,0,0,0,.24-.46.51.51,0,0,0-.23-.43,3.87,3.87,0,0,0-.82-.4,4.47,4.47,0,0,1-.86-.4,1.15,1.15,0,0,1-.36-.37,1.13,1.13,0,0,1-.11-.51,1,1,0,0,1,.43-.83,2,2,0,0,1,1.18-.3,3.14,3.14,0,0,1,1.36.29l-.23.55a3.15,3.15,0,0,0-1.18-.27,1.3,1.3,0,0,0-.66.14.43.43,0,0,0-.23.38.47.47,0,0,0,.19.39,5.16,5.16,0,0,0,.92.43,3.7,3.7,0,0,1,.79.37,1.05,1.05,0,0,1,.37.39A1,1,0,0,1,42.78,181.88Z"/>
  </g>
  <g>
    <path d="M78.29,181.54a1.41,1.41,0,0,1-.54,1.17,2.33,2.33,0,0,1-1.5.43,3.69,3.69,0,0,1-1.57-.27v-.68a4.42,4.42,0,0,0,.8.24,3.92,3.92,0,0,0,.8.09,1.63,1.63,0,0,0,1-.24.8.8,0,0,0,.32-.68.93.93,0,0,0-.11-.47,1.07,1.07,0,0,0-.4-.34,5.39,5.39,0,0,0-.83-.37,2.64,2.64,0,0,1-1.13-.68,1.47,1.47,0,0,1-.34-1,1.25,1.25,0,0,1,.5-1.06,2,2,0,0,1,1.32-.4,3.91,3.91,0,0,1,1.58.32l-.23.62a3.63,3.63,0,0,0-1.36-.31,1.33,1.33,0,0,0-.8.22.74.74,0,0,0-.29.62.92.92,0,0,0,.11.46,1.08,1.08,0,0,0,.36.34,5.14,5.14,0,0,0,.78.35,4.25,4.25,0,0,1,1,.45,1.35,1.35,0,0,1,.61,1.2Z"/>
    <path d="M79.29,177.62a.43.43,0,0,1,.12-.34.44.44,0,0,1,.3-.11.41.41,0,0,1,.28.11.4.4,0,0,1,.13.34A.42.42,0,0,1,80,178a.4.4,0,0,1-.28.1.44.44,0,0,1-.3-.1A.45.45,0,0,1,79.29,177.62Zm.76,5.44h-.7v-4.28h.7Z"/>
    <path d="M82.11,183.06h-.7V177h.7Z"/>
    <path d="M87.2,180.91a2.38,2.38,0,0,1-.53,1.64,1.87,1.87,0,0,1-1.47.59,2,2,0,0,1-1-.27,1.75,1.75,0,0,1-.69-.78,2.59,2.59,0,0,1-.25-1.18,2.35,2.35,0,0,1,.53-1.63,2.1,2.1,0,0,1,2.91,0A2.38,2.38,0,0,1,87.2,180.91Zm-3.24,0a2,2,0,0,0,.32,1.23,1.25,1.25,0,0,0,1.87,0,2,2,0,0,0,.32-1.23,1.94,1.94,0,0,0-.32-1.21,1.11,1.11,0,0,0-.94-.41C84.38,179.29,84,179.83,84,180.91Z"/>
    <path d="M90.14,183.14a2,2,0,0,1-1.52-.58,2.29,2.29,0,0,1-.55-1.61,2.48,2.48,0,0,1,.51-1.64A1.73,1.73,0,0,1,90,178.7a1.66,1.66,0,0,1,1.29.52,2,2,0,0,1,.48,1.41v.43H88.8a1.68,1.68,0,0,0,.37,1.11,1.31,1.31,0,0,0,1,.37,3.42,3.42,0,0,0,.65-.06,3.45,3.45,0,0,0,.72-.23v.62a3.21,3.21,0,0,1-.67.21A3.84,3.84,0,0,1,90.14,183.14ZM90,179.27a1,1,0,0,0-.8.33,1.48,1.48,0,0,0-.34.9H91a1.44,1.44,0,0,0-.28-.92A1,1,0,0,0,90,179.27Z"/>
    <path d="M94.34,183.14a1.54,1.54,0,0,1-1.29-.58,2.53,2.53,0,0,1-.47-1.63,2.58,2.58,0,0,1,.47-1.64,1.72,1.72,0,0,1,2.63,0h0c0-.05,0-.16,0-.31s0-.27,0-.32V177h.7v6.07h-.56l-.11-.57h0A1.53,1.53,0,0,1,94.34,183.14Zm.12-.58a1.17,1.17,0,0,0,.93-.35,1.74,1.74,0,0,0,.3-1.15v-.12a2.09,2.09,0,0,0-.3-1.28,1.13,1.13,0,0,0-.94-.38,1,1,0,0,0-.84.43,2.15,2.15,0,0,0-.3,1.23,2,2,0,0,0,.3,1.21A1,1,0,0,0,94.46,182.56Z"/>
  </g>
  <g>
    <path d="M35.94,40.06H32.38v-.6L33.74,38l.53-.58q.23-.27.39-.51a2.59,2.59,0,0,0,.25-.5,2,2,0,0,0,.08-.55,1.27,1.27,0,0,0-.06-.41.91.91,0,0,0-.19-.3.88.88,0,0,0-.29-.18,1,1,0,0,0-.38-.07,1.47,1.47,0,0,0-.67.15,2.63,2.63,0,0,0-.57.39l-.4-.47c.11-.09.22-.18.34-.26a2.42,2.42,0,0,1,.39-.21,2.72,2.72,0,0,1,.43-.15,2.63,2.63,0,0,1,.49,0,2.11,2.11,0,0,1,.68.11,1.44,1.44,0,0,1,.51.3,1.37,1.37,0,0,1,.33.48,1.83,1.83,0,0,1,.11.64,1.89,1.89,0,0,1-.1.63,2.93,2.93,0,0,1-.29.59,4.4,4.4,0,0,1-.43.59c-.17.19-.35.4-.55.61l-1.09,1.16v0h2.69Z"/>
    <path d="M40.44,37.2a7.59,7.59,0,0,1-.1,1.24,3.27,3.27,0,0,1-.32.93,1.56,1.56,0,0,1-.57.57,1.58,1.58,0,0,1-.84.2,1.5,1.5,0,0,1-1.37-.77,3,3,0,0,1-.34-.93,6.57,6.57,0,0,1-.11-1.24,6.7,6.7,0,0,1,.1-1.24,2.84,2.84,0,0,1,.32-.92,1.56,1.56,0,0,1,.56-.58,1.68,1.68,0,0,1,.84-.2,1.56,1.56,0,0,1,.8.2A1.51,1.51,0,0,1,40,35a2.56,2.56,0,0,1,.34.92A5.79,5.79,0,0,1,40.44,37.2Zm-2.93,0a7.57,7.57,0,0,0,.06,1,2.49,2.49,0,0,0,.19.73,1,1,0,0,0,.34.44.81.81,0,0,0,.51.15.85.85,0,0,0,.51-.15,1,1,0,0,0,.34-.43,2.56,2.56,0,0,0,.2-.73,7.73,7.73,0,0,0,.06-1,7.57,7.57,0,0,0-.06-1,2.56,2.56,0,0,0-.2-.73,1,1,0,0,0-.34-.43.85.85,0,0,0-.51-.15.81.81,0,0,0-.51.15.94.94,0,0,0-.34.43,2.57,2.57,0,0,0-.19.73A7.57,7.57,0,0,0,37.51,37.2Z"/>
    <path d="M44.75,40.06H41.19v-.6L42.55,38l.53-.58q.22-.27.39-.51a2.59,2.59,0,0,0,.25-.5,1.67,1.67,0,0,0,.08-.55,1.27,1.27,0,0,0-.06-.41.91.91,0,0,0-.19-.3.79.79,0,0,0-.29-.18.92.92,0,0,0-.38-.07,1.5,1.5,0,0,0-.67.15,2.63,2.63,0,0,0-.57.39l-.39-.47a2.91,2.91,0,0,1,.33-.26,2.42,2.42,0,0,1,.39-.21,2.84,2.84,0,0,1,.44-.15,2.44,2.44,0,0,1,.48,0,2.06,2.06,0,0,1,.68.11,1.44,1.44,0,0,1,.51.3,1.37,1.37,0,0,1,.33.48,1.83,1.83,0,0,1,.11.64,1.89,1.89,0,0,1-.1.63,2.48,2.48,0,0,1-.29.59,4.4,4.4,0,0,1-.43.59l-.54.61-1.1,1.16v0h2.69Z"/>
    <path d="M49.25,37.2a6.62,6.62,0,0,1-.1,1.24,3,3,0,0,1-.32.93,1.56,1.56,0,0,1-.57.57,1.58,1.58,0,0,1-.84.2,1.46,1.46,0,0,1-.8-.2,1.56,1.56,0,0,1-.57-.57,3.28,3.28,0,0,1-.34-.93,6.57,6.57,0,0,1-.11-1.24A6.7,6.7,0,0,1,45.7,36,2.84,2.84,0,0,1,46,35a1.56,1.56,0,0,1,.56-.58,1.68,1.68,0,0,1,.84-.2,1.62,1.62,0,0,1,.81.2,1.51,1.51,0,0,1,.57.58,3,3,0,0,1,.34.92A6.57,6.57,0,0,1,49.25,37.2Zm-2.93,0a7.57,7.57,0,0,0,.06,1,2.49,2.49,0,0,0,.19.73,1,1,0,0,0,.34.44.94.94,0,0,0,1,0,1,1,0,0,0,.35-.43,2.57,2.57,0,0,0,.19-.73,7.73,7.73,0,0,0,.06-1,7.57,7.57,0,0,0-.06-1,2.57,2.57,0,0,0-.19-.73,1,1,0,0,0-.35-.43.94.94,0,0,0-1,0,1,1,0,0,0-.34.43,2.57,2.57,0,0,0-.19.73A7.57,7.57,0,0,0,46.32,37.2Z"/>
  </g>
  <rect x="16" y="46" width="10" height="10" style="fill: #e00"/>
  <g>
    <path d="M35.94,54.06H32.38v-.6L33.74,52l.53-.58q.23-.27.39-.51a2.59,2.59,0,0,0,.25-.5,2,2,0,0,0,.08-.55,1.27,1.27,0,0,0-.06-.41.91.91,0,0,0-.19-.3.88.88,0,0,0-.29-.18,1,1,0,0,0-.38-.07,1.47,1.47,0,0,0-.67.15,2.63,2.63,0,0,0-.57.39l-.4-.47c.11-.09.22-.18.34-.26a2.42,2.42,0,0,1,.39-.21,2.72,2.72,0,0,1,.43-.15,2.63,2.63,0,0,1,.49,0,2.11,2.11,0,0,1,.68.11,1.44,1.44,0,0,1,.51.3,1.37,1.37,0,0,1,.33.48,1.83,1.83,0,0,1,.11.64,1.89,1.89,0,0,1-.1.63,2.93,2.93,0,0,1-.29.59,4.4,4.4,0,0,1-.43.59c-.17.19-.35.4-.55.61l-1.09,1.16v0h2.69Z"/>
    <path d="M40.44,51.2a7.59,7.59,0,0,1-.1,1.24,3.27,3.27,0,0,1-.32.93,1.56,1.56,0,0,1-.57.57,1.58,1.58,0,0,1-.84.2,1.5,1.5,0,0,1-1.37-.77,3,3,0,0,1-.34-.93,6.57,6.57,0,0,1-.11-1.24,6.7,6.7,0,0,1,.1-1.24,2.84,2.84,0,0,1,.32-.92,1.56,1.56,0,0,1,.56-.58,1.68,1.68,0,0,1,.84-.2,1.56,1.56,0,0,1,.8.2A1.51,1.51,0,0,1,40,49a2.56,2.56,0,0,1,.34.92A5.79,5.79,0,0,1,40.44,51.2Zm-2.93,0a7.57,7.57,0,0,0,.06,1,2.49,2.49,0,0,0,.19.73,1,1,0,0,0,.34.44.81.81,0,0,0,.51.15.85.85,0,0,0,.51-.15,1,1,0,0,0,.34-.43,2.56,2.56,0,0,0,.2-.73,7.73,7.73,0,0,0,.06-1,7.57,7.57,0,0,0-.06-1,2.56,2.56,0,0,0-.2-.73,1,1,0,0,0-.34-.43.85.85,0,0,0-.51-.15.81.81,0,0,0-.51.15.94.94,0,0,0-.34.43,2.57,2.57,0,0,0-.19.73A7.57,7.57,0,0,0,37.51,51.2Z"/>
    <path d="M44.75,54.06H41.19v-.6L42.55,52l.53-.58q.22-.27.39-.51a2.59,2.59,0,0,0,.25-.5,1.67,1.67,0,0,0,.08-.55,1.27,1.27,0,0,0-.06-.41.91.91,0,0,0-.19-.3.79.79,0,0,0-.29-.18.92.92,0,0,0-.38-.07,1.5,1.5,0,0,0-.67.15,2.63,2.63,0,0,0-.57.39l-.39-.47a2.91,2.91,0,0,1,.33-.26,2.42,2.42,0,0,1,.39-.21,2.84,2.84,0,0,1,.44-.15,2.44,2.44,0,0,1,.48,0,2.06,2.06,0,0,1,.68.11,1.44,1.44,0,0,1,.51.3,1.37,1.37,0,0,1,.33.48,1.83,1.83,0,0,1,.11.64,1.89,1.89,0,0,1-.1.63,2.48,2.48,0,0,1-.29.59,4.4,4.4,0,0,1-.43.59l-.54.61-1.1,1.16v0h2.69Z"/>
    <path d="M49.16,54.06H45.59v-.6L47,52c.2-.21.37-.41.52-.58a5.18,5.18,0,0,0,.4-.51,2.52,2.52,0,0,0,.24-.5,1.67,1.67,0,0,0,.09-.55,1,1,0,0,0-.07-.41.75.75,0,0,0-.18-.3.83.83,0,0,0-.3-.18.87.87,0,0,0-.37-.07,1.47,1.47,0,0,0-.67.15,2.63,2.63,0,0,0-.57.39l-.4-.47c.11-.09.22-.18.34-.26a2.42,2.42,0,0,1,.39-.21,2.72,2.72,0,0,1,.43-.15,2.63,2.63,0,0,1,.49,0,2,2,0,0,1,.67.11,1.4,1.4,0,0,1,.52.3,1.23,1.23,0,0,1,.32.48,1.62,1.62,0,0,1,.12.64,1.89,1.89,0,0,1-.1.63,2.93,2.93,0,0,1-.29.59,4.4,4.4,0,0,1-.43.59c-.17.19-.35.4-.55.61l-1.1,1.16v0h2.7Z"/>
  </g>
  <rect x="16" y="60" width="10" height="10" style="fill: #fddbdc"/>
  <g>
    <path d="M34.59,68.06h-.73V63H32.08v-.64h4.28V63H34.59Z"/>
    <path d="M38.93,63.7a2.64,2.64,0,0,1,.51,0l-.09.65a2.49,2.49,0,0,0-.46,0,1.09,1.09,0,0,0-.63.19,1.2,1.2,0,0,0-.46.51,1.64,1.64,0,0,0-.16.74v2.28h-.71V63.78h.58l.08.78h0a1.92,1.92,0,0,1,.58-.64A1.3,1.3,0,0,1,38.93,63.7Z"/>
    <path d="M42,68.14a2,2,0,0,1-1.51-.58A2.25,2.25,0,0,1,39.92,66a2.48,2.48,0,0,1,.51-1.64,1.72,1.72,0,0,1,1.39-.61,1.66,1.66,0,0,1,1.29.52,2,2,0,0,1,.48,1.41v.43H40.65A1.68,1.68,0,0,0,41,67.17a1.3,1.3,0,0,0,1,.37,3.49,3.49,0,0,0,.65-.06,3.65,3.65,0,0,0,.72-.23v.62a3.4,3.4,0,0,1-.67.21A4,4,0,0,1,42,68.14Zm-.17-3.87a1,1,0,0,0-.8.33,1.54,1.54,0,0,0-.35.9h2.19a1.44,1.44,0,0,0-.28-.92A1,1,0,0,0,41.81,64.27Z"/>
    <path d="M47.59,68.06V65.32a1.1,1.1,0,0,0-.23-.78.94.94,0,0,0-.73-.25,1.18,1.18,0,0,0-1,.36,1.89,1.89,0,0,0-.29,1.19v2.22h-.71V63.78h.57l.1.58h0a1.41,1.41,0,0,1,.56-.49,1.75,1.75,0,0,1,.79-.17,1.36,1.36,0,0,1,1.56,1.57v2.79Z"/>
    <path d="M51.14,68.14a1.56,1.56,0,0,1-1.3-.58,2.53,2.53,0,0,1-.46-1.63,2.58,2.58,0,0,1,.46-1.64,1.72,1.72,0,0,1,2.63,0h.05a3,3,0,0,0,0-.31c0-.16,0-.27,0-.32V62h.71v6.07h-.57l-.11-.57h0A1.52,1.52,0,0,1,51.14,68.14Zm.11-.58a1.18,1.18,0,0,0,.94-.35,1.81,1.81,0,0,0,.29-1.15v-.12a2.09,2.09,0,0,0-.3-1.28,1.13,1.13,0,0,0-.94-.38,1,1,0,0,0-.84.43,2.15,2.15,0,0,0-.29,1.23,2,2,0,0,0,.29,1.21A1,1,0,0,0,51.25,67.56Z"/>
  </g>
  <g>
    <path d="M125.05,183.06H123v-.41l.67-.15v-4.57l-.67-.16v-.42h2.06v.42l-.67.16v4.57l.67.15Z"/>
    <path d="M129,183.06v-2.74a1.15,1.15,0,0,0-.23-.78,1,1,0,0,0-.73-.25,1.18,1.18,0,0,0-1,.36,1.89,1.89,0,0,0-.3,1.19v2.22h-.7v-4.28h.56l.11.58h0a1.34,1.34,0,0,1,.56-.49,1.7,1.7,0,0,1,.79-.17,1.61,1.61,0,0,1,1.17.38,1.63,1.63,0,0,1,.38,1.19v2.79Z"/>
    <path d="M132.43,182.57l.32,0,.28-.06V183a1.51,1.51,0,0,1-.3.08,2,2,0,0,1-.42,0c-.84,0-1.25-.44-1.25-1.32v-2.5h-.61V179l.61-.28.28-.92h.42v1H133v.54h-1.24v2.48a.81.81,0,0,0,.18.57A.63.63,0,0,0,132.43,182.57Z"/>
    <path d="M135.71,183.14a2,2,0,0,1-1.51-.58,2.25,2.25,0,0,1-.55-1.61,2.48,2.48,0,0,1,.51-1.64,1.7,1.7,0,0,1,1.38-.61,1.66,1.66,0,0,1,1.29.52,2,2,0,0,1,.48,1.41v.43h-2.93a1.63,1.63,0,0,0,.37,1.11,1.28,1.28,0,0,0,1,.37,3.52,3.52,0,0,0,.66-.06,3.65,3.65,0,0,0,.72-.23v.62a3.4,3.4,0,0,1-.67.21A4,4,0,0,1,135.71,183.14Zm-.17-3.87a1,1,0,0,0-.8.33,1.48,1.48,0,0,0-.35.9h2.19a1.44,1.44,0,0,0-.28-.92A1,1,0,0,0,135.54,179.27Z"/>
    <path d="M141.26,183l0-.53h0a1.47,1.47,0,0,1-1.32.64,1.56,1.56,0,0,1-1.3-.58,2.53,2.53,0,0,1-.47-1.63,2.62,2.62,0,0,1,.47-1.64,1.59,1.59,0,0,1,1.29-.59,1.53,1.53,0,0,1,1.34.65h.05l.09-.57H142v4.35a1.88,1.88,0,0,1-.47,1.39A2,2,0,0,1,140,185a3.62,3.62,0,0,1-1.54-.28v-.65a3.22,3.22,0,0,0,1.58.34,1.11,1.11,0,0,0,1.18-1.21Zm-1.23-.46a1.2,1.2,0,0,0,.95-.35,1.77,1.77,0,0,0,.29-1.12v-.17a2.05,2.05,0,0,0-.3-1.25,1.1,1.1,0,0,0-.95-.39,1,1,0,0,0-.84.42,2.24,2.24,0,0,0-.29,1.23,2.14,2.14,0,0,0,.28,1.21A1,1,0,0,0,140,182.57Z"/>
    <path d="M145.32,178.7a2.64,2.64,0,0,1,.51,0l-.09.65a2.5,2.5,0,0,0-.47,0,1.13,1.13,0,0,0-.63.19,1.25,1.25,0,0,0-.45.51,1.64,1.64,0,0,0-.17.74v2.28h-.7v-4.28h.58l.08.78h0a1.82,1.82,0,0,1,.58-.64A1.28,1.28,0,0,1,145.32,178.7Z"/>
    <path d="M149.2,183.06l-.14-.6h0a1.9,1.9,0,0,1-.64.54,2,2,0,0,1-.8.14,1.44,1.44,0,0,1-1-.33,1.24,1.24,0,0,1-.35-.94c0-.87.68-1.32,2-1.36l.73,0v-.26a1.07,1.07,0,0,0-.21-.72.9.9,0,0,0-.68-.23,2.25,2.25,0,0,0-.64.1c-.2.07-.39.15-.57.23l-.21-.53a3.49,3.49,0,0,1,.71-.27,3.2,3.2,0,0,1,.75-.09,1.68,1.68,0,0,1,1.16.34,1.41,1.41,0,0,1,.38,1.09v2.92Zm-1.45-.48a1.29,1.29,0,0,0,.92-.32,1.18,1.18,0,0,0,.34-.91V181l-.63,0a2.33,2.33,0,0,0-1.08.24.71.71,0,0,0-.33.65.65.65,0,0,0,.2.52A.86.86,0,0,0,147.75,182.58Z"/>
    <path d="M152.47,182.57l.32,0,.28-.06V183a1.91,1.91,0,0,1-.31.08,1.84,1.84,0,0,1-.41,0q-1.26,0-1.26-1.32v-2.5h-.6V179l.61-.28.28-.92h.42v1H153v.54H151.8v2.48a.81.81,0,0,0,.18.57A.62.62,0,0,0,152.47,182.57Z"/>
    <path d="M155.75,183.14a2,2,0,0,1-1.52-.58,2.29,2.29,0,0,1-.55-1.61,2.48,2.48,0,0,1,.52-1.64,1.7,1.7,0,0,1,1.38-.61,1.66,1.66,0,0,1,1.29.52,2,2,0,0,1,.48,1.41v.43h-2.94a1.68,1.68,0,0,0,.37,1.11,1.31,1.31,0,0,0,1,.37,3.42,3.42,0,0,0,.65-.06,3.28,3.28,0,0,0,.72-.23v.62a3.33,3.33,0,0,1-.66.21A4,4,0,0,1,155.75,183.14Zm-.18-3.87a1,1,0,0,0-.8.33,1.48,1.48,0,0,0-.34.9h2.18a1.38,1.38,0,0,0-.28-.92A1,1,0,0,0,155.57,179.27Z"/>
    <path d="M160,183.14a1.54,1.54,0,0,1-1.29-.58,2.53,2.53,0,0,1-.46-1.63,2.58,2.58,0,0,1,.46-1.64,1.72,1.72,0,0,1,2.63,0h.05c0-.05,0-.16,0-.31s0-.27,0-.32V177h.7v6.07h-.56l-.11-.57h0A1.53,1.53,0,0,1,160,183.14Zm.12-.58a1.16,1.16,0,0,0,.93-.35,1.74,1.74,0,0,0,.3-1.15v-.12a2.09,2.09,0,0,0-.3-1.28,1.13,1.13,0,0,0-.94-.38,1,1,0,0,0-.84.43,2.15,2.15,0,0,0-.3,1.23,2,2,0,0,0,.3,1.21A1,1,0,0,0,160.07,182.56Z"/>
  </g>
  <g>
    <path d="M19.76,14.06l-.68-1.77H16.81l-.68,1.77h-.72l2.23-5.73h.64l2.23,5.73Zm-.9-2.4-.64-1.73L18,9.07c-.08.31-.16.6-.25.86l-.65,1.73Z"/>
    <path d="M23.23,14.14a1.54,1.54,0,0,1-1.33-.62h0l0,.16c0,.2,0,.39,0,.54V16h-.7V9.78h.58l.09.58h0a1.64,1.64,0,0,1,.58-.51,1.81,1.81,0,0,1,.76-.15,1.57,1.57,0,0,1,1.3.58A2.59,2.59,0,0,1,25,11.91a2.58,2.58,0,0,1-.47,1.64A1.54,1.54,0,0,1,23.23,14.14Zm-.12-3.85a1.11,1.11,0,0,0-.92.36,1.87,1.87,0,0,0-.29,1.13v.13a2.17,2.17,0,0,0,.29,1.26,1.09,1.09,0,0,0,.94.39,1,1,0,0,0,.84-.44,2.14,2.14,0,0,0,.3-1.22,2,2,0,0,0-.3-1.2A1,1,0,0,0,23.11,10.29Z"/>
    <path d="M28.15,14.14a1.55,1.55,0,0,1-1.33-.62h0v.16c0,.2,0,.39,0,.54V16h-.7V9.78h.58l.09.58h0a1.64,1.64,0,0,1,.58-.51,1.81,1.81,0,0,1,.76-.15,1.56,1.56,0,0,1,1.3.58,2.53,2.53,0,0,1,.46,1.63,2.58,2.58,0,0,1-.46,1.64A1.56,1.56,0,0,1,28.15,14.14ZM28,10.29a1.11,1.11,0,0,0-.92.36,1.94,1.94,0,0,0-.29,1.13v.13a2.17,2.17,0,0,0,.29,1.26,1.11,1.11,0,0,0,.94.39,1,1,0,0,0,.84-.44,2.14,2.14,0,0,0,.3-1.22,2,2,0,0,0-.3-1.2A1,1,0,0,0,28,10.29Z"/>
    <path d="M33,9.7a2.64,2.64,0,0,1,.51,0l-.09.65a2.49,2.49,0,0,0-.46-.05,1.14,1.14,0,0,0-.64.19,1.25,1.25,0,0,0-.45.51,1.64,1.64,0,0,0-.16.74v2.28H31V9.78h.58l.08.78h0a1.82,1.82,0,0,1,.58-.64A1.3,1.3,0,0,1,33,9.7Z"/>
    <path d="M38,11.91a2.33,2.33,0,0,1-.54,1.64,1.84,1.84,0,0,1-1.46.59,2,2,0,0,1-1-.27,1.75,1.75,0,0,1-.69-.78A2.73,2.73,0,0,1,34,11.91a2.35,2.35,0,0,1,.52-1.63A1.87,1.87,0,0,1,36,9.7a1.84,1.84,0,0,1,1.44.59A2.33,2.33,0,0,1,38,11.91Zm-3.24,0a2,2,0,0,0,.32,1.23,1.09,1.09,0,0,0,.93.42,1.12,1.12,0,0,0,.94-.42,2,2,0,0,0,.32-1.23A1.94,1.94,0,0,0,37,10.7a1.12,1.12,0,0,0-1-.41C35.17,10.29,34.76,10.83,34.76,11.91Z"/>
    <path d="M41.76,14.06l-.14-.6h0A1.81,1.81,0,0,1,41,14a2,2,0,0,1-.8.14,1.41,1.41,0,0,1-1-.33,1.21,1.21,0,0,1-.36-.94c0-.87.68-1.32,2.05-1.36l.73,0v-.26a1.07,1.07,0,0,0-.21-.72.9.9,0,0,0-.68-.23,2.25,2.25,0,0,0-.64.1c-.2.07-.39.15-.57.23l-.21-.53A3.49,3.49,0,0,1,40,9.8a3.2,3.2,0,0,1,.75-.09,1.68,1.68,0,0,1,1.16.34,1.41,1.41,0,0,1,.38,1.09v2.92Zm-1.45-.48a1.33,1.33,0,0,0,.93-.32,1.21,1.21,0,0,0,.33-.91V12l-.63,0a2.33,2.33,0,0,0-1.08.24.71.71,0,0,0-.33.65.65.65,0,0,0,.2.52A.86.86,0,0,0,40.31,13.58Z"/>
    <path d="M45.32,14.14a1.87,1.87,0,0,1-1.45-.57,2.34,2.34,0,0,1-.51-1.63,2.39,2.39,0,0,1,.52-1.66,1.89,1.89,0,0,1,1.49-.58,3.34,3.34,0,0,1,.62.06,1.82,1.82,0,0,1,.5.17l-.21.58a2.89,2.89,0,0,0-.93-.2,1.14,1.14,0,0,0-1,.41,2,2,0,0,0-.31,1.22,2,2,0,0,0,.31,1.18,1.07,1.07,0,0,0,.92.42,2.72,2.72,0,0,0,1.11-.25v.62A2.3,2.3,0,0,1,45.32,14.14Z"/>
    <path d="M50.36,14.06V11.32a1.15,1.15,0,0,0-.23-.78,1,1,0,0,0-.73-.25,1.18,1.18,0,0,0-1,.36,1.88,1.88,0,0,0-.3,1.2v2.21h-.7V8h.7V9.77a3.54,3.54,0,0,1,0,.6h0a1.29,1.29,0,0,1,.54-.49,1.7,1.7,0,0,1,.79-.17,1.65,1.65,0,0,1,1.18.37,1.58,1.58,0,0,1,.39,1.19v2.79Z"/>
    <path d="M55.89,13.57l.32,0,.28-.06V14a1.51,1.51,0,0,1-.3.08,2,2,0,0,1-.42,0q-1.26,0-1.26-1.32v-2.5h-.6V10l.61-.28.28-.92h.42v1h1.24v.54H55.22V12.8a.81.81,0,0,0,.18.57A.63.63,0,0,0,55.89,13.57Z"/>
    <path d="M61.07,11.91a2.33,2.33,0,0,1-.53,1.64,1.84,1.84,0,0,1-1.47.59,2,2,0,0,1-1-.27,1.75,1.75,0,0,1-.69-.78,2.73,2.73,0,0,1-.24-1.18,2.35,2.35,0,0,1,.52-1.63,2.1,2.1,0,0,1,2.91,0A2.33,2.33,0,0,1,61.07,11.91Zm-3.24,0a2,2,0,0,0,.32,1.23,1.26,1.26,0,0,0,1.88,0,2,2,0,0,0,.32-1.23A1.88,1.88,0,0,0,60,10.7a1.09,1.09,0,0,0-.94-.41C58.25,10.29,57.83,10.83,57.83,11.91Z"/>
    <path d="M67.06,12.88a1.09,1.09,0,0,1-.45.93,2.1,2.1,0,0,1-1.26.33A2.84,2.84,0,0,1,64,13.87v-.64a3.09,3.09,0,0,0,1.36.35,1.34,1.34,0,0,0,.78-.18.52.52,0,0,0,.24-.46.54.54,0,0,0-.23-.43,4,4,0,0,0-.83-.4,4.31,4.31,0,0,1-.85-.4,1,1,0,0,1-.36-.37,1,1,0,0,1-.12-.51,1,1,0,0,1,.43-.83,2,2,0,0,1,1.18-.3A3.18,3.18,0,0,1,67,10l-.24.55a3.15,3.15,0,0,0-1.18-.27,1.3,1.3,0,0,0-.66.14.43.43,0,0,0-.23.38.47.47,0,0,0,.2.39,4.62,4.62,0,0,0,.91.43,3.48,3.48,0,0,1,.79.37,1.08,1.08,0,0,1,.38.39A1,1,0,0,1,67.06,12.88Z"/>
    <path d="M71.82,11.91a2.33,2.33,0,0,1-.53,1.64,1.84,1.84,0,0,1-1.47.59,2,2,0,0,1-1-.27,1.75,1.75,0,0,1-.69-.78,2.73,2.73,0,0,1-.24-1.18,2.35,2.35,0,0,1,.52-1.63,2.1,2.1,0,0,1,2.91,0A2.33,2.33,0,0,1,71.82,11.91Zm-3.24,0a2,2,0,0,0,.32,1.23,1.26,1.26,0,0,0,1.88,0,2,2,0,0,0,.32-1.23,1.88,1.88,0,0,0-.33-1.21,1.09,1.09,0,0,0-.94-.41C69,10.29,68.58,10.83,68.58,11.91Z"/>
    <path d="M74.91,10.32H73.83v3.74h-.7V10.32h-.75V10l.75-.24V9.51a1.75,1.75,0,0,1,.34-1.18,1.33,1.33,0,0,1,1-.39,2.43,2.43,0,0,1,.83.15l-.18.55a2.14,2.14,0,0,0-.64-.12.61.61,0,0,0-.53.24,1.28,1.28,0,0,0-.17.74v.28h1.08Z"/>
    <path d="M77.12,13.57l.32,0,.28-.06V14a1.51,1.51,0,0,1-.3.08,2,2,0,0,1-.42,0c-.84,0-1.25-.44-1.25-1.32v-2.5h-.61V10l.61-.28L76,8.79h.42v1h1.24v.54H76.45V12.8a.81.81,0,0,0,.18.57A.63.63,0,0,0,77.12,13.57Z"/>
    <path d="M82.08,14.06l-.73-2.41q-.1-.3-.3-1.14h0c-.11.51-.21.89-.29,1.15L80,14.06h-.8L78,9.78h.72l.62,2.4a7.57,7.57,0,0,1,.25,1.17h0l0-.25a8.82,8.82,0,0,1,.24-.91l.76-2.41h.76l.74,2.41a2.45,2.45,0,0,1,.08.29l.09.31c0,.1,0,.2.07.29s0,.18,0,.26h0a11.89,11.89,0,0,1,.29-1.28l.6-2.28h.72l-1.19,4.28Z"/>
    <path d="M87.51,14.06l-.13-.6h0a1.9,1.9,0,0,1-.64.54,2,2,0,0,1-.8.14,1.42,1.42,0,0,1-1-.33,1.21,1.21,0,0,1-.36-.94c0-.87.69-1.32,2.06-1.36l.73,0v-.26a1.07,1.07,0,0,0-.21-.72.9.9,0,0,0-.68-.23,2.25,2.25,0,0,0-.64.1c-.2.07-.39.15-.57.23L85,10.07a3.64,3.64,0,0,1,.7-.27,3.35,3.35,0,0,1,.76-.09,1.68,1.68,0,0,1,1.16.34A1.41,1.41,0,0,1,88,11.14v2.92Zm-1.44-.48a1.29,1.29,0,0,0,.92-.32,1.18,1.18,0,0,0,.34-.91V12l-.63,0a2.33,2.33,0,0,0-1.08.24.72.72,0,0,0-.34.65.66.66,0,0,0,.21.52A.86.86,0,0,0,86.07,13.58Z"/>
    <path d="M91.35,9.7a2.64,2.64,0,0,1,.51,0l-.09.65a2.49,2.49,0,0,0-.46-.05,1.09,1.09,0,0,0-.63.19,1.2,1.2,0,0,0-.46.51,1.64,1.64,0,0,0-.16.74v2.28h-.71V9.78h.58l.08.78h0a1.92,1.92,0,0,1,.58-.64A1.3,1.3,0,0,1,91.35,9.7Z"/>
    <path d="M94.41,14.14a2,2,0,0,1-1.52-.58A2.29,2.29,0,0,1,92.34,12a2.48,2.48,0,0,1,.51-1.64,1.73,1.73,0,0,1,1.39-.61,1.66,1.66,0,0,1,1.29.52A2,2,0,0,1,96,11.63v.43H93.07a1.68,1.68,0,0,0,.37,1.11,1.3,1.3,0,0,0,1,.37,3.42,3.42,0,0,0,.65-.06,3.45,3.45,0,0,0,.72-.23v.62a3.4,3.4,0,0,1-.67.21A3.84,3.84,0,0,1,94.41,14.14Zm-.18-3.87a1,1,0,0,0-.8.33,1.54,1.54,0,0,0-.35.9h2.19a1.44,1.44,0,0,0-.28-.92A1,1,0,0,0,94.23,10.27Z"/>
    <path d="M100.69,14.14a1.56,1.56,0,0,1-1.3-.58,2.59,2.59,0,0,1-.46-1.63,2.58,2.58,0,0,1,.47-1.64,1.53,1.53,0,0,1,1.3-.59,1.56,1.56,0,0,1,1.33.63h0c0-.05,0-.16,0-.31a2.44,2.44,0,0,1,0-.32V8h.7v6.07h-.57l-.1-.57h0A1.53,1.53,0,0,1,100.69,14.14Zm.11-.58a1.18,1.18,0,0,0,.94-.35,1.75,1.75,0,0,0,.29-1.15v-.12a2.17,2.17,0,0,0-.29-1.28,1.14,1.14,0,0,0-.94-.38.94.94,0,0,0-.84.43,2.15,2.15,0,0,0-.3,1.23,2.12,2.12,0,0,0,.29,1.21A1,1,0,0,0,100.8,13.56Z"/>
    <path d="M105.92,14.14a2,2,0,0,1-1.52-.58,2.29,2.29,0,0,1-.55-1.61,2.48,2.48,0,0,1,.52-1.64,1.7,1.7,0,0,1,1.38-.61,1.66,1.66,0,0,1,1.29.52,2,2,0,0,1,.48,1.41v.43h-2.94a1.68,1.68,0,0,0,.37,1.11,1.31,1.31,0,0,0,1,.37,3.42,3.42,0,0,0,.65-.06,3.28,3.28,0,0,0,.72-.23v.62a3.33,3.33,0,0,1-.66.21A4,4,0,0,1,105.92,14.14Zm-.18-3.87a1,1,0,0,0-.8.33,1.48,1.48,0,0,0-.34.9h2.18a1.38,1.38,0,0,0-.28-.92A1,1,0,0,0,105.74,10.27Z"/>
    <path d="M109.47,14.06l-1.62-4.28h.75l.91,2.52a9.09,9.09,0,0,1,.34,1.14h0a.35.35,0,0,1,0-.12,1,1,0,0,1,0-.14s.11-.34.29-.88l.91-2.52h.75l-1.63,4.28Z"/>
    <path d="M117.32,14.06l-.14-.6h0a1.9,1.9,0,0,1-.64.54,2,2,0,0,1-.8.14,1.42,1.42,0,0,1-1-.33,1.21,1.21,0,0,1-.36-.94c0-.87.69-1.32,2.06-1.36l.73,0v-.26a1.07,1.07,0,0,0-.21-.72.9.9,0,0,0-.68-.23,2.25,2.25,0,0,0-.64.1c-.2.07-.39.15-.57.23l-.21-.53a3.64,3.64,0,0,1,.7-.27,3.35,3.35,0,0,1,.76-.09,1.68,1.68,0,0,1,1.16.34,1.41,1.41,0,0,1,.38,1.09v2.92Zm-1.45-.48a1.29,1.29,0,0,0,.92-.32,1.18,1.18,0,0,0,.34-.91V12l-.63,0a2.33,2.33,0,0,0-1.08.24.72.72,0,0,0-.34.65.66.66,0,0,0,.21.52A.86.86,0,0,0,115.87,13.58Z"/>
    <path d="M122.08,14.06V11.32a1.1,1.1,0,0,0-.24-.78.91.91,0,0,0-.72-.25,1.18,1.18,0,0,0-1,.36,1.89,1.89,0,0,0-.3,1.19v2.22h-.7V9.78h.56l.11.58h0a1.38,1.38,0,0,1,.55-.49,1.77,1.77,0,0,1,.8-.17,1.63,1.63,0,0,1,1.17.38,1.63,1.63,0,0,1,.38,1.19v2.79Z"/>
    <path d="M125.62,14.14a1.56,1.56,0,0,1-1.3-.58,2.59,2.59,0,0,1-.46-1.63,2.58,2.58,0,0,1,.47-1.64,1.53,1.53,0,0,1,1.3-.59,1.56,1.56,0,0,1,1.33.63H127c0-.05,0-.16,0-.31a2.44,2.44,0,0,1,0-.32V8h.7v6.07h-.57l-.1-.57h0A1.53,1.53,0,0,1,125.62,14.14Zm.11-.58a1.18,1.18,0,0,0,.94-.35,1.75,1.75,0,0,0,.29-1.15v-.12a2.17,2.17,0,0,0-.29-1.28,1.14,1.14,0,0,0-.94-.38.94.94,0,0,0-.84.43,2.15,2.15,0,0,0-.3,1.23,2.12,2.12,0,0,0,.29,1.21A1,1,0,0,0,125.73,13.56Z"/>
    <path d="M132.62,14.14a1.56,1.56,0,0,1-1.3-.58,2.59,2.59,0,0,1-.46-1.63,2.58,2.58,0,0,1,.47-1.64,1.53,1.53,0,0,1,1.3-.59,1.56,1.56,0,0,1,1.33.63h0c0-.05,0-.16,0-.31a2.44,2.44,0,0,1,0-.32V8h.7v6.07h-.57l-.1-.57h0A1.53,1.53,0,0,1,132.62,14.14Zm.11-.58a1.18,1.18,0,0,0,.94-.35,1.75,1.75,0,0,0,.29-1.15v-.12a2.17,2.17,0,0,0-.29-1.28,1.14,1.14,0,0,0-.94-.38.94.94,0,0,0-.84.43,2.15,2.15,0,0,0-.3,1.23,2.12,2.12,0,0,0,.29,1.21A1,1,0,0,0,132.73,13.56Z"/>
    <path d="M137.85,14.14a2,2,0,0,1-1.52-.58,2.29,2.29,0,0,1-.55-1.61,2.48,2.48,0,0,1,.52-1.64,1.7,1.7,0,0,1,1.38-.61,1.66,1.66,0,0,1,1.29.52,2,2,0,0,1,.48,1.41v.43h-2.94a1.68,1.68,0,0,0,.37,1.11,1.31,1.31,0,0,0,1,.37,3.42,3.42,0,0,0,.65-.06,3.28,3.28,0,0,0,.72-.23v.62a3.21,3.21,0,0,1-.67.21A3.84,3.84,0,0,1,137.85,14.14Zm-.18-3.87a1,1,0,0,0-.8.33,1.48,1.48,0,0,0-.34.9h2.18a1.38,1.38,0,0,0-.28-.92A1,1,0,0,0,137.67,10.27Z"/>
    <path d="M141.24,14.06h-.71V8h.71Z"/>
    <path d="M142.54,8.62a.43.43,0,0,1,.12-.34.44.44,0,0,1,.3-.11.41.41,0,0,1,.28.11.4.4,0,0,1,.13.34.42.42,0,0,1-.13.34.4.4,0,0,1-.28.1.44.44,0,0,1-.3-.1A.45.45,0,0,1,142.54,8.62Zm.76,5.44h-.7V9.78h.7Z"/>
    <path d="M145.6,14.06,144,9.78h.75l.91,2.52a9.57,9.57,0,0,1,.35,1.14h0l0-.12a1,1,0,0,1,0-.14s.11-.34.29-.88l.91-2.52H148l-1.63,4.28Z"/>
    <path d="M150.55,14.14a2,2,0,0,1-1.52-.58,2.29,2.29,0,0,1-.55-1.61,2.43,2.43,0,0,1,.52-1.64,1.7,1.7,0,0,1,1.38-.61,1.66,1.66,0,0,1,1.29.52,2,2,0,0,1,.48,1.41v.43h-2.94a1.68,1.68,0,0,0,.37,1.11,1.31,1.31,0,0,0,1,.37,3.42,3.42,0,0,0,.65-.06,3.28,3.28,0,0,0,.72-.23v.62a3.4,3.4,0,0,1-.67.21A3.84,3.84,0,0,1,150.55,14.14Zm-.18-3.87a1,1,0,0,0-.8.33,1.48,1.48,0,0,0-.34.9h2.18a1.44,1.44,0,0,0-.28-.92A1,1,0,0,0,150.37,10.27Z"/>
    <path d="M155.23,9.7a2.64,2.64,0,0,1,.51,0l-.09.65a2.49,2.49,0,0,0-.46-.05,1.09,1.09,0,0,0-.63.19,1.2,1.2,0,0,0-.46.51,1.64,1.64,0,0,0-.16.74v2.28h-.71V9.78h.58l.08.78h0a1.82,1.82,0,0,1,.58-.64A1.3,1.3,0,0,1,155.23,9.7Z"/>
    <path d="M155.87,9.78h.75l.93,2.44a9.91,9.91,0,0,1,.36,1.16h0c0-.09.07-.27.16-.54s.15-.47.21-.63l.87-2.43h.76l-1.85,4.88a2.45,2.45,0,0,1-.64,1,1.44,1.44,0,0,1-.92.31,2.79,2.79,0,0,1-.58-.07v-.56a2,2,0,0,0,.47.05.87.87,0,0,0,.57-.19,1.32,1.32,0,0,0,.38-.57l.22-.57Z"/>
  </g>
  <g>
    <path d="M176.34,183.06h-2.06v-.41l.67-.15v-4.57l-.67-.16v-.42h2.06v.42l-.67.16v4.57l.67.15Z"/>
    <path d="M180.27,183.06v-2.74a1.1,1.1,0,0,0-.23-.78.94.94,0,0,0-.73-.25,1.18,1.18,0,0,0-1,.36,2,2,0,0,0-.29,1.19v2.22h-.71v-4.28h.57l.1.58h0a1.41,1.41,0,0,1,.56-.49,1.77,1.77,0,0,1,.8-.17,1.36,1.36,0,0,1,1.55,1.57v2.79Z"/>
    <path d="M183.82,183.14a1.56,1.56,0,0,1-1.3-.58,2.53,2.53,0,0,1-.46-1.63,2.58,2.58,0,0,1,.46-1.64,1.72,1.72,0,0,1,2.63,0h0a3,3,0,0,0,0-.31c0-.16,0-.27,0-.32V177h.71v6.07h-.57l-.11-.57h0A1.52,1.52,0,0,1,183.82,183.14Zm.11-.58a1.18,1.18,0,0,0,.94-.35,1.81,1.81,0,0,0,.29-1.15v-.12a2.09,2.09,0,0,0-.3-1.28,1.13,1.13,0,0,0-.94-.38,1,1,0,0,0-.84.43,2.15,2.15,0,0,0-.29,1.23,2,2,0,0,0,.29,1.21A1,1,0,0,0,183.93,182.56Z"/>
    <path d="M187.88,178.78v2.76a1.09,1.09,0,0,0,.24.77.91.91,0,0,0,.72.25,1.15,1.15,0,0,0,1-.37,1.86,1.86,0,0,0,.3-1.18v-2.23h.71v4.28h-.58l-.1-.56h0a1.3,1.3,0,0,1-.54.47,1.8,1.8,0,0,1-.82.17,1.62,1.62,0,0,1-1.16-.37,1.54,1.54,0,0,1-.4-1.19v-2.8Z"/>
    <path d="M195,181.88a1.09,1.09,0,0,1-.45.93,2.1,2.1,0,0,1-1.26.33,2.84,2.84,0,0,1-1.35-.27v-.64a3.12,3.12,0,0,0,1.36.35,1.32,1.32,0,0,0,.78-.18.52.52,0,0,0,.24-.46.54.54,0,0,0-.23-.43,4,4,0,0,0-.83-.4,4.31,4.31,0,0,1-.85-.4,1,1,0,0,1-.36-.37,1,1,0,0,1-.12-.51,1,1,0,0,1,.43-.83,2,2,0,0,1,1.18-.3,3.18,3.18,0,0,1,1.37.29l-.24.55a3.11,3.11,0,0,0-1.18-.27,1.3,1.3,0,0,0-.66.14.43.43,0,0,0-.23.38.47.47,0,0,0,.2.39,4.62,4.62,0,0,0,.91.43,3.48,3.48,0,0,1,.79.37,1.08,1.08,0,0,1,.38.39A1,1,0,0,1,195,181.88Z"/>
    <path d="M197.43,182.57l.32,0,.28-.06V183a2,2,0,0,1-.3.08,2,2,0,0,1-.42,0q-1.26,0-1.26-1.32v-2.5h-.6V179l.61-.28.28-.92h.42v1H198v.54h-1.24v2.48a.81.81,0,0,0,.18.57A.62.62,0,0,0,197.43,182.57Z"/>
    <path d="M200.88,178.7a2.64,2.64,0,0,1,.51,0l-.09.65a2.49,2.49,0,0,0-.46,0,1.09,1.09,0,0,0-.63.19,1.2,1.2,0,0,0-.46.51,1.64,1.64,0,0,0-.16.74v2.28h-.71v-4.28h.58l.08.78h0a1.92,1.92,0,0,1,.58-.64A1.3,1.3,0,0,1,200.88,178.7Z"/>
    <path d="M202.13,177.62a.43.43,0,0,1,.12-.34.44.44,0,0,1,.3-.11.41.41,0,0,1,.28.11.4.4,0,0,1,.13.34.42.42,0,0,1-.13.34.4.4,0,0,1-.28.1.44.44,0,0,1-.3-.1A.45.45,0,0,1,202.13,177.62Zm.76,5.44h-.7v-4.28h.7Z"/>
    <path d="M206.9,183.06l-.14-.6h0a1.81,1.81,0,0,1-.64.54,2,2,0,0,1-.8.14,1.41,1.41,0,0,1-1-.33,1.21,1.21,0,0,1-.36-.94c0-.87.68-1.32,2.06-1.36l.72,0v-.26a1.07,1.07,0,0,0-.21-.72.87.87,0,0,0-.67-.23,2.32,2.32,0,0,0-.65.1,5.92,5.92,0,0,0-.56.23l-.22-.53a3.73,3.73,0,0,1,.71-.27,3.29,3.29,0,0,1,.76-.09,1.66,1.66,0,0,1,1.15.34,1.38,1.38,0,0,1,.38,1.09v2.92Zm-1.45-.48a1.33,1.33,0,0,0,.93-.32,1.21,1.21,0,0,0,.34-.91V181l-.64,0a2.25,2.25,0,0,0-1.07.24.7.7,0,0,0-.34.65.69.69,0,0,0,.2.52A.86.86,0,0,0,205.45,182.58Z"/>
    <path d="M209.44,183.06h-.7V177h.7Z"/>
    <path d="M210.75,177.62a.43.43,0,0,1,.12-.34.42.42,0,0,1,.29-.11.44.44,0,0,1,.29.11.43.43,0,0,1,.12.34.45.45,0,0,1-.12.34.43.43,0,0,1-.29.1.41.41,0,0,1-.29-.1A.45.45,0,0,1,210.75,177.62Zm.75,5.44h-.7v-4.28h.7Z"/>
    <path d="M215.63,183.06H212.5v-.46l2.3-3.28h-2.17v-.54h3v.52l-2.27,3.22h2.32Z"/>
    <path d="M218.45,183.14a2,2,0,0,1-1.51-.58,2.25,2.25,0,0,1-.55-1.61,2.48,2.48,0,0,1,.51-1.64,1.7,1.7,0,0,1,1.38-.61,1.66,1.66,0,0,1,1.29.52,2,2,0,0,1,.48,1.41v.43h-2.94a1.68,1.68,0,0,0,.38,1.11,1.28,1.28,0,0,0,1,.37,3.34,3.34,0,0,0,.65-.06,3.52,3.52,0,0,0,.73-.23v.62a3.4,3.4,0,0,1-.67.21A4,4,0,0,1,218.45,183.14Zm-.18-3.87a1,1,0,0,0-.79.33,1.48,1.48,0,0,0-.35.9h2.18a1.38,1.38,0,0,0-.27-.92A1,1,0,0,0,218.27,179.27Z"/>
    <path d="M222.66,183.14a1.56,1.56,0,0,1-1.3-.58,2.53,2.53,0,0,1-.46-1.63,2.58,2.58,0,0,1,.46-1.64,1.72,1.72,0,0,1,2.63,0h0a3,3,0,0,0,0-.31c0-.16,0-.27,0-.32V177h.71v6.07h-.57l-.11-.57h0A1.52,1.52,0,0,1,222.66,183.14Zm.11-.58a1.18,1.18,0,0,0,.94-.35,1.81,1.81,0,0,0,.29-1.15v-.12a2.09,2.09,0,0,0-.3-1.28,1.13,1.13,0,0,0-.94-.38,1,1,0,0,0-.84.43,2.15,2.15,0,0,0-.29,1.23,2,2,0,0,0,.29,1.21A1,1,0,0,0,222.77,182.56Z"/>
  </g>
  <g>
    <path d="M248.24,177.35v3.7a2,2,0,0,1-.59,1.53,2.25,2.25,0,0,1-1.64.56,2.19,2.19,0,0,1-1.6-.56,2.08,2.08,0,0,1-.57-1.55v-3.68h.72v3.71a1.49,1.49,0,0,0,.37,1.08,1.54,1.54,0,0,0,1.13.38,1.33,1.33,0,0,0,1.46-1.47v-3.7Z"/>
    <path d="M252.57,183.06v-2.74a1.1,1.1,0,0,0-.24-.78.91.91,0,0,0-.72-.25,1.18,1.18,0,0,0-1,.36,1.89,1.89,0,0,0-.3,1.19v2.22h-.7v-4.28h.56l.11.58h0a1.34,1.34,0,0,1,.56-.49,1.7,1.7,0,0,1,.79-.17,1.36,1.36,0,0,1,1.55,1.57v2.79Z"/>
    <path d="M254.54,177.62a.43.43,0,0,1,.12-.34.4.4,0,0,1,.29-.11.44.44,0,0,1,.29.11.43.43,0,0,1,.12.34.45.45,0,0,1-.12.34.43.43,0,0,1-.29.1.39.39,0,0,1-.29-.1A.45.45,0,0,1,254.54,177.62Zm.75,5.44h-.7v-4.28h.7Z"/>
    <path d="M258.63,179.32h-1.08v3.74h-.71v-3.74h-.75V179l.75-.24v-.24a1.75,1.75,0,0,1,.35-1.18,1.32,1.32,0,0,1,1.05-.39,2.47,2.47,0,0,1,.83.15l-.19.55a2,2,0,0,0-.63-.12.6.6,0,0,0-.53.24,1.28,1.28,0,0,0-.17.74v.28h1.08Zm.72-1.7a.43.43,0,0,1,.12-.34.44.44,0,0,1,.3-.11.41.41,0,0,1,.28.11.4.4,0,0,1,.13.34.42.42,0,0,1-.13.34.4.4,0,0,1-.28.1.44.44,0,0,1-.3-.1A.45.45,0,0,1,259.35,177.62Zm.76,5.44h-.7v-4.28h.7Z"/>
    <path d="M263.29,183.14a2,2,0,0,1-1.51-.58,2.25,2.25,0,0,1-.55-1.61,2.48,2.48,0,0,1,.51-1.64,1.7,1.7,0,0,1,1.39-.61,1.67,1.67,0,0,1,1.29.52,2,2,0,0,1,.48,1.41v.43H262a1.63,1.63,0,0,0,.37,1.11,1.3,1.3,0,0,0,1,.37,3.49,3.49,0,0,0,.65-.06,3.65,3.65,0,0,0,.72-.23v.62a3.4,3.4,0,0,1-.67.21A4,4,0,0,1,263.29,183.14Zm-.17-3.87a1,1,0,0,0-.8.33,1.54,1.54,0,0,0-.35.9h2.19a1.44,1.44,0,0,0-.28-.92A1,1,0,0,0,263.12,179.27Z"/>
    <path d="M267.5,183.14a1.56,1.56,0,0,1-1.3-.58,3.11,3.11,0,0,1,0-3.27,1.53,1.53,0,0,1,1.3-.59,1.56,1.56,0,0,1,1.33.63h.05c0-.05,0-.16,0-.31a2.44,2.44,0,0,1,0-.32V177h.7v6.07H269l-.1-.57h0A1.53,1.53,0,0,1,267.5,183.14Zm.11-.58a1.18,1.18,0,0,0,.94-.35,1.75,1.75,0,0,0,.29-1.15v-.12a2.1,2.1,0,0,0-.29-1.28,1.14,1.14,0,0,0-.94-.38.94.94,0,0,0-.84.43,2.15,2.15,0,0,0-.3,1.23,2.12,2.12,0,0,0,.29,1.21A1,1,0,0,0,267.61,182.56Z"/>
  </g>
</svg>
