<svg id="Layer_1" data-name="Layer 1" xmlns="http://www.w3.org/2000/svg" viewBox="0 0 230 230">
  <title>intro_graph</title>
  <g>
    <path d="M197.27,119.43c0,42.56-38.9,77.06-86.88,77.06S23.51,162,23.51,119.43s38.9-77.06,86.88-77.06,86.88,34.5,86.88,77.06m11.73,0C209,71.12,164.85,32,110.39,32S11.78,71.12,11.78,119.43s44.15,87.46,98.61,87.46S209,167.73,209,119.43" style="fill: #cecece"/>
    <g>
      <path d="M92.89,14.06H91.27l-.28-.8H88.8l-.28.8H86.9L89,8.5h1.8ZM90.6,12l-.71-2.09L89.18,12Z" style="fill: #14437d"/>
      <path d="M97.16,14.06H95.88v-.48a1.75,1.75,0,0,1-1.39.58,1.35,1.35,0,0,1-1-.33,1.28,1.28,0,0,1-.33-.92V10h1.29v2.34a.58.58,0,0,0,.66.65,1,1,0,0,0,.77-.39V10h1.28Z" style="fill: #14437d"/>
      <path d="M99.62,14.16a1.3,1.3,0,0,1-.93-.3,1.12,1.12,0,0,1-.33-.88V11.15H97.7V10h.66V8.94h1.28V10h.82v1.11h-.82v1.47a.44.44,0,0,0,.1.3A.33.33,0,0,0,100,13c.16,0,.27,0,.32-.1l.25,1A1.33,1.33,0,0,1,99.62,14.16Z" style="fill: #14437d"/>
      <path d="M103,14.16a2.13,2.13,0,0,1-1.6-.61,2.17,2.17,0,0,1,0-3,2.4,2.4,0,0,1,3.2,0,2.17,2.17,0,0,1,0,3A2.14,2.14,0,0,1,103,14.16Zm-.64-1.41A.76.76,0,0,0,103,13a.79.79,0,0,0,.64-.28,1.14,1.14,0,0,0,0-1.4.79.79,0,0,0-.64-.28.76.76,0,0,0-.64.28,1.18,1.18,0,0,0,0,1.4Z" style="fill: #14437d"/>
      <path d="M112.26,14.06H111V11.61a.47.47,0,0,0-.53-.54.89.89,0,0,0-.73.39v2.6h-1.28V11.61a.47.47,0,0,0-.53-.54.91.91,0,0,0-.72.39v2.6H105.9V10h1.29v.49a1.53,1.53,0,0,1,.52-.4,1.69,1.69,0,0,1,.8-.19,1.09,1.09,0,0,1,1.15.71,1.49,1.49,0,0,1,.57-.5,1.64,1.64,0,0,1,.82-.21,1.24,1.24,0,0,1,.89.3,1.21,1.21,0,0,1,.32.91Z" style="fill: #14437d"/>
      <path d="M116.86,14.06h-1.28v-.4a1.4,1.4,0,0,1-.53.37,2,2,0,0,1-.72.13,1.5,1.5,0,0,1-1-.34,1.18,1.18,0,0,1-.43-1,1.14,1.14,0,0,1,.42-1,1.56,1.56,0,0,1,1-.31,1.52,1.52,0,0,1,1.25.46v-.48a.53.53,0,0,0-.22-.43,1,1,0,0,0-.6-.15,1.71,1.71,0,0,0-1.14.42l-.46-.81A2.71,2.71,0,0,1,115,9.94a2.59,2.59,0,0,1,.7.08,1.81,1.81,0,0,1,.59.25,1.25,1.25,0,0,1,.43.5,1.87,1.87,0,0,1,.15.78Zm-2-.74a.84.84,0,0,0,.72-.29v-.36a1,1,0,0,0-1.18-.16.4.4,0,0,0-.18.35.39.39,0,0,0,.18.34A.83.83,0,0,0,114.86,13.32Z" style="fill: #14437d"/>
      <path d="M119.32,14.16a1.34,1.34,0,0,1-.94-.3,1.16,1.16,0,0,1-.32-.88V11.15h-.67V10h.67V8.94h1.28V10h.82v1.11h-.82v1.47a.49.49,0,0,0,.09.3.35.35,0,0,0,.27.11c.16,0,.27,0,.32-.1l.25,1A1.35,1.35,0,0,1,119.32,14.16Z" style="fill: #14437d"/>
      <path d="M122,9.46a.69.69,0,0,1-.52.22.67.67,0,0,1-.52-.22.72.72,0,0,1-.21-.52.7.7,0,0,1,.21-.52.67.67,0,0,1,.52-.22.69.69,0,0,1,.52.22.7.7,0,0,1,.21.52A.72.72,0,0,1,122,9.46Zm.12,4.6H120.8V10h1.28Z" style="fill: #14437d"/>
      <path d="M124.94,14.16a2.12,2.12,0,0,1-1.59-.61,2.17,2.17,0,0,1,0-3,2.39,2.39,0,0,1,3.19,0,2.18,2.18,0,0,1,0,3A2.13,2.13,0,0,1,124.94,14.16Zm-.64-1.41a.79.79,0,0,0,.64.28.81.81,0,0,0,.65-.28,1.14,1.14,0,0,0,0-1.4.81.81,0,0,0-.65-.28.79.79,0,0,0-.64.28,1.22,1.22,0,0,0,0,1.4Z" style="fill: #14437d"/>
      <path d="M131.83,14.06h-1.28V11.74a.59.59,0,0,0-.66-.67,1,1,0,0,0-.79.39v2.6h-1.28V10h1.28v.49a1.74,1.74,0,0,1,1.4-.59,1.35,1.35,0,0,1,1,.34,1.29,1.29,0,0,1,.33.93Z" style="fill: #14437d"/>
    </g>
    <g>
      <path d="M31.83,219.46a3,3,0,0,1-2.15-.81,2.67,2.67,0,0,1-.86-2.07,2.73,2.73,0,0,1,.85-2.08,3.05,3.05,0,0,1,2.16-.8,2.53,2.53,0,0,1,2.43,1.5l-1.24.58a1.23,1.23,0,0,0-.47-.57,1.2,1.2,0,0,0-.72-.24,1.48,1.48,0,0,0-1.11.46,1.59,1.59,0,0,0-.44,1.15,1.58,1.58,0,0,0,.44,1.15,1.45,1.45,0,0,0,1.11.46,1.26,1.26,0,0,0,.72-.23,1.31,1.31,0,0,0,.47-.58l1.24.59a3,3,0,0,1-.92,1.06A2.5,2.5,0,0,1,31.83,219.46Z" style="fill: #14437d"/>
      <path d="M36.12,219.36H34.84V213.8h1.28Z" style="fill: #14437d"/>
      <path d="M39,219.46a2.12,2.12,0,0,1-1.59-.62,2.17,2.17,0,0,1,0-3,2.39,2.39,0,0,1,3.19,0,2.15,2.15,0,0,1,0,3A2.13,2.13,0,0,1,39,219.46ZM38.35,218a.75.75,0,0,0,.63.28.79.79,0,0,0,.65-.28,1,1,0,0,0,.24-.7,1,1,0,0,0-.24-.7.82.82,0,0,0-.65-.28.78.78,0,0,0-.63.28,1,1,0,0,0-.23.7A1,1,0,0,0,38.35,218Z" style="fill: #14437d"/>
      <path d="M45.86,219.36H44.58v-.48a1.8,1.8,0,0,1-1.39.58,1.32,1.32,0,0,1-1-.34,1.25,1.25,0,0,1-.33-.92v-2.87h1.29v2.34a.58.58,0,0,0,.66.65,1,1,0,0,0,.77-.39v-2.6h1.28Z" style="fill: #14437d"/>
      <path d="M50.78,219.36H49.51v-.47a1.53,1.53,0,0,1-1.19.57A1.64,1.64,0,0,1,47,218.9a2.61,2.61,0,0,1,0-3.1,1.62,1.62,0,0,1,1.28-.57,1.45,1.45,0,0,1,1.19.58v-2h1.27Zm-2.05-1a1,1,0,0,0,.43-.1,1.07,1.07,0,0,0,.35-.26v-1.24a1.07,1.07,0,0,0-.35-.26,1.17,1.17,0,0,0-.43-.1.84.84,0,0,0-.64.27,1,1,0,0,0-.24.71,1,1,0,0,0,.25.71A.83.83,0,0,0,48.73,218.32Z" style="fill: #14437d"/>
      <path d="M57.87,219.36H56.59V217a.59.59,0,0,0-.66-.67,1,1,0,0,0-.78.4v2.6H53.86v-4h1.29v.49a1.73,1.73,0,0,1,1.39-.59,1.34,1.34,0,0,1,1,.35,1.29,1.29,0,0,1,.33.93Z" style="fill: #14437d"/>
      <path d="M62.47,219.36H61.18V219a1.31,1.31,0,0,1-.53.36,1.89,1.89,0,0,1-.72.14,1.47,1.47,0,0,1-1-.35,1.35,1.35,0,0,1,0-2,1.56,1.56,0,0,1,1-.31,1.51,1.51,0,0,1,1.25.47v-.49a.5.5,0,0,0-.21-.42,1,1,0,0,0-.6-.16,1.71,1.71,0,0,0-1.15.43l-.46-.81a2.71,2.71,0,0,1,1.83-.63,3,3,0,0,1,.7.08,2,2,0,0,1,.6.25,1.21,1.21,0,0,1,.42.5,1.73,1.73,0,0,1,.16.78Zm-2-.74a.79.79,0,0,0,.71-.3V218a.83.83,0,0,0-.71-.29.81.81,0,0,0-.46.12.42.42,0,0,0,0,.7A.81.81,0,0,0,60.47,218.62Z" style="fill: #14437d"/>
      <path d="M64.93,219.46a1.33,1.33,0,0,1-.94-.3,1.14,1.14,0,0,1-.32-.89v-1.82H63v-1.12h.67v-1.1h1.27v1.1h.82v1.12h-.82v1.47a.44.44,0,0,0,.1.29.3.3,0,0,0,.26.11.42.42,0,0,0,.33-.1l.25,1A1.37,1.37,0,0,1,64.93,219.46Z" style="fill: #14437d"/>
      <path d="M67.57,214.75a.74.74,0,0,1-1-1,.76.76,0,0,1,1,0,.75.75,0,0,1,0,1Zm.12,4.61H66.4v-4h1.29Z" style="fill: #14437d"/>
      <path d="M71,219.36H69.66l-1.59-4h1.35l.91,2.55.92-2.55h1.36Z" style="fill: #14437d"/>
      <path d="M74.93,219.46a2.22,2.22,0,0,1-1.58-.58,2,2,0,0,1-.63-1.54,2.08,2.08,0,0,1,.61-1.5,2,2,0,0,1,1.54-.61,1.93,1.93,0,0,1,1.48.61,2.32,2.32,0,0,1,.58,1.63v.28H74.06a.88.88,0,0,0,.32.51,1.09,1.09,0,0,0,.69.21,2.08,2.08,0,0,0,.54-.1,1.18,1.18,0,0,0,.46-.25l.54.8a1.79,1.79,0,0,1-.75.4A3.22,3.22,0,0,1,74.93,219.46Zm.77-2.54a.83.83,0,0,0-.23-.48.92.92,0,0,0-1.18,0,1,1,0,0,0-.25.49Z" style="fill: #14437d"/>
    </g>
    <g>
      <path d="M150.31,219.36h-1.43v-2.24h-2.31v2.24h-1.44V213.8h1.44v2.07h2.31V213.8h1.43Z" style="fill: #14437d"/>
      <path d="M151.2,220.93l.18-1.15a.66.66,0,0,0,.32.08c.3,0,.48-.08.54-.23l.09-.21-1.6-4.09h1.35l.91,2.55.92-2.55h1.36l-1.82,4.6a1.49,1.49,0,0,1-.64.82,2.34,2.34,0,0,1-1.06.24A2.09,2.09,0,0,1,151.2,220.93Z" style="fill: #14437d"/>
      <path d="M156.93,219.36h-1.28V213.8h1.28v2a1.46,1.46,0,0,1,1.2-.58,1.63,1.63,0,0,1,1.27.57,2.28,2.28,0,0,1,.5,1.54,2.25,2.25,0,0,1-.5,1.56,1.64,1.64,0,0,1-1.27.56,1.53,1.53,0,0,1-1.2-.57Zm0-1.39a.82.82,0,0,0,.34.25,1,1,0,0,0,.43.1.82.82,0,0,0,.64-.26,1.15,1.15,0,0,0,0-1.43.82.82,0,0,0-.64-.27,1,1,0,0,0-.43.11.93.93,0,0,0-.34.26Z" style="fill: #14437d"/>
      <path d="M161.86,219.36h-1.28v-4h1.28v.49a1.75,1.75,0,0,1,.56-.42,1.55,1.55,0,0,1,.7-.18v1.24a1.08,1.08,0,0,0-.32,0,1.58,1.58,0,0,0-.54.11.82.82,0,0,0-.4.26Z" style="fill: #14437d"/>
      <path d="M164.87,214.75a.69.69,0,0,1-.52.22.74.74,0,0,1-.52-1.26.7.7,0,0,1,.52-.21.72.72,0,0,1,.52.21.75.75,0,0,1,0,1Zm.12,4.61h-1.28v-4H165Z" style="fill: #14437d"/>
      <path d="M169.91,219.36h-1.28v-.47a1.5,1.5,0,0,1-1.19.57,1.66,1.66,0,0,1-1.28-.56,2.65,2.65,0,0,1,0-3.1,1.64,1.64,0,0,1,1.28-.57,1.44,1.44,0,0,1,1.19.58v-2h1.28Zm-2-1a1,1,0,0,0,.43-.1.93.93,0,0,0,.34-.26v-1.24a.93.93,0,0,0-.34-.26,1.17,1.17,0,0,0-.43-.1.82.82,0,0,0-.64.27,1.13,1.13,0,0,0,0,1.42A.84.84,0,0,0,167.86,218.32Z" style="fill: #14437d"/>
      <path d="M174.92,219.46a2.2,2.2,0,0,1-1.57-.59,2.16,2.16,0,0,1,0-3.05,2.2,2.2,0,0,1,1.57-.59,2.14,2.14,0,0,1,1,.22,1.66,1.66,0,0,1,.63.52l-.83.78a.86.86,0,0,0-.76-.39.93.93,0,0,0-.68.27,1,1,0,0,0-.26.71,1,1,0,0,0,.26.72.92.92,0,0,0,.68.26.88.88,0,0,0,.76-.39l.83.79a1.66,1.66,0,0,1-.63.52A2.14,2.14,0,0,1,174.92,219.46Z" style="fill: #14437d"/>
      <path d="M178.44,219.36h-1.28V213.8h1.28Z" style="fill: #14437d"/>
      <path d="M181.3,219.46a2.12,2.12,0,0,1-1.59-.62,2.17,2.17,0,0,1,0-3,2.39,2.39,0,0,1,3.19,0,2.18,2.18,0,0,1,0,3A2.13,2.13,0,0,1,181.3,219.46Zm-.64-1.42a.79.79,0,0,0,.64.28A.81.81,0,0,0,182,218a1,1,0,0,0,.24-.7,1,1,0,0,0-.24-.7.84.84,0,0,0-.65-.28.82.82,0,0,0-.64.28,1.09,1.09,0,0,0-.23.7A1.07,1.07,0,0,0,180.66,218Z" style="fill: #14437d"/>
      <path d="M188.18,219.36H186.9v-.48a1.81,1.81,0,0,1-1.4.58,1.31,1.31,0,0,1-1-.34,1.25,1.25,0,0,1-.33-.92v-2.87h1.28v2.34c0,.44.22.65.67.65a1,1,0,0,0,.77-.39v-2.6h1.28Z" style="fill: #14437d"/>
      <path d="M193.1,219.36h-1.27v-.47a1.53,1.53,0,0,1-1.2.57,1.67,1.67,0,0,1-1.28-.56,2.65,2.65,0,0,1,0-3.1,1.65,1.65,0,0,1,1.28-.57,1.47,1.47,0,0,1,1.2.58v-2h1.27Zm-2-1a1,1,0,0,0,.43-.1,1.07,1.07,0,0,0,.35-.26v-1.24a1.07,1.07,0,0,0-.35-.26,1.17,1.17,0,0,0-.43-.1.84.84,0,0,0-.64.27,1,1,0,0,0-.24.71,1,1,0,0,0,.25.71A.8.8,0,0,0,191.05,218.32Z" style="fill: #14437d"/>
    </g>
    <g>
      <path d="M109.64,67.69a24.2,24.2,0,1,0-24.2-24.2,24.2,24.2,0,0,0,24.2,24.2" style="fill: #2476ba"/>
      <path d="M99.5,47.66l-1.65-.37-.78,3.48.34.53,1.15-.73a13.15,13.15,0,0,0,12.9,6m7.68-17.35,2.28.52.78-3.48-.33-.53-1.15.73A13.12,13.12,0,0,0,105.55,31" style="fill: none;stroke: #fff;stroke-miterlimit: 10;stroke-width: 1.25600004196167px"/>
      <path d="M109.64,39.66a4,4,0,1,1-4,4A4,4,0,0,1,109.64,39.66Zm0,2.29a1.71,1.71,0,1,1-1.71,1.71A1.71,1.71,0,0,1,109.64,42ZM107.36,35l.84-2.37h2.88l.84,2.37,2.1.87,2.27-1.08,2,2-1.08,2.27.87,2.1,2.36.84v2.88l-2.36.85-.87,2.09,1.08,2.27-2,2L114,51.1l-2.1.87-.84,2.37H108.2L107.36,52l-2.1-.87L103,52.18l-2-2L102,47.87l-.87-2.09-2.37-.85V42.05l2.37-.84.87-2.1L101,36.84l2-2,2.27,1.08Z" style="fill: none;stroke: #fff;stroke-miterlimit: 10;stroke-width: 1.25600004196167px"/>
      <path d="M144.55,134.33a85.09,85.09,0,0,1-8-6.11,160.13,160.13,0,0,1-16.09-16.31c5.14-5.37,9.71-9.82,13.87-13.47l1.25-12.2L123.93,85c-4.36,3.79-9.12,8.35-14.46,13.88L97.82,111.41l-3.53,3.88c-7.6,8.34-12.88,14.07-17.24,18l10.15,1-1.42,13.79c6-4.88,12.2-11.65,21-21.37l2.08-2.29a171.93,171.93,0,0,0,16.64,16.67c2.58,2.22,5.14,4.23,7.65,6L133,134.5Z" style="fill: #c1e0f7"/>
      <path d="M188.74,87.37l-11.65,2.07c-4.27-3.28-9.15-5.21-13.66-5.21-8.83,0-17.3,3.9-29.05,14.21l1.25-12.2L123.93,85a109.54,109.54,0,0,1,10.55-8.17c9.76-6.55,19-9.6,29-9.6a39.5,39.5,0,0,1,23.18,8.11Z" style="fill: #878787"/>
      <path d="M205.78,112.28a45.06,45.06,0,0,1-3.57,17.6,46.32,46.32,0,0,1-4.05,7.54l-11,1.27-1.56-13.38a28.48,28.48,0,0,0,3.18-13c0-9.44-5.13-17.76-11.73-22.84l11.65-2.07-2.13-12a48,48,0,0,1,15.45,19.28,43.75,43.75,0,0,1,3.72,17.62" style="fill: #575756"/>
      <path d="M198.16,137.42a46.27,46.27,0,0,1-5.58,6.88,45.35,45.35,0,0,1-14.19,9.82,42.87,42.87,0,0,1-17.34,3.66c-6.05,0-12.54-1.8-19.29-5.36q-2.74-1.44-5.59-3.29c-1-.64-2-1.32-3-2L133,134.5l11.53-.17h0a54.24,54.24,0,0,0,4.83,2.93c4.37,2.35,8.3,3.55,11.67,3.55,10.52,0,19.89-6.38,24.59-15.5l1.56,13.38Z" style="fill: #020a0a"/>
      <path d="M87.19,134.29l-1.41,13.79c-.73.6-1.46,1.16-2.19,1.7-7.63,5.6-15.08,8-24.9,8S38,153.54,30,146.44a44.31,44.31,0,0,1-6.27-6.82l14.19,1.09.74-9.59a26.57,26.57,0,0,0,2.57,2.61,27.77,27.77,0,0,0,17.51,7.08c7.21,0,11.7-1.63,18.36-7.56Z" style="fill: #7fb8e5"/>
      <path d="M32,112.28c0,8.78,3.2,14.86,6.65,18.84l-.74,9.59-14.19-1.09a43.19,43.19,0,0,1-4.47-7.53A46.68,46.68,0,0,1,15,112.28a47.45,47.45,0,0,1,4-19.66A41.84,41.84,0,0,1,29.56,78.36c.69-.61,1.41-1.2,2.14-1.77L31.87,90l10.56-.14C36.56,94.22,32,101.45,32,112.28" style="fill: #4997d3"/>
      <path d="M78.12,80.44l.17,12c-7.3-5.39-14-8.21-19.6-8.21a28,28,0,0,0-16.26,5.59L31.87,90,31.7,76.59a44.63,44.63,0,0,1,27-9.32c9.93,0,20.55,4.37,31.61,13Z" style="fill: #2476ba"/>
      <path d="M109.47,98.92,97.82,111.41A136.24,136.24,0,0,0,82.58,95.84q-2.17-1.84-4.29-3.4l-.17-12,12.18-.18c1.08.84,2.17,1.72,3.26,2.64a149.14,149.14,0,0,1,15.91,16" style="fill: #14437d"/>
      <path d="M133,134.5l.18,12.6c-2.51-1.78-5.07-3.79-7.65-6a171.93,171.93,0,0,1-16.64-16.67l11.6-12.51a160.13,160.13,0,0,0,16.09,16.31,85.09,85.09,0,0,0,8,6.11Z" style="fill: #14437d"/>
      <path d="M42.35,78.53a1.4,1.4,0,0,0-.82,1,1.92,1.92,0,0,0,.4,1.37c.68,1,1.42,1.3,2.29.85a6.23,6.23,0,0,0,1.25-.91l.41.89a5.08,5.08,0,0,1-1.3.93,2.78,2.78,0,0,1-2,.32,3.34,3.34,0,0,1-1.78-1.36,2.87,2.87,0,0,1-.59-1.42,2.05,2.05,0,0,1,.35-1.38,3.36,3.36,0,0,1,1.31-1.13,5,5,0,0,1,2-.54l0,1a6.89,6.89,0,0,0-.81.1,2.72,2.72,0,0,0-.73.24" style="fill: #fff"/>
      <path d="M47.09,78.53A2.36,2.36,0,0,0,48,79.71a1.54,1.54,0,0,0,1.26.12c1-.27,1.35-1,1-2.17A1.66,1.66,0,0,0,48,76.28,1.49,1.49,0,0,0,47,77.1a1.89,1.89,0,0,0,.12,1.43m4.6-1.13a2.7,2.7,0,0,1-.31,2.19,3.1,3.1,0,0,1-1.86,1.18,3.17,3.17,0,0,1-2.23-.08A3.24,3.24,0,0,1,45.75,79a2.46,2.46,0,0,1-.12-2.21,3.1,3.1,0,0,1,2.06-1.43,3.57,3.57,0,0,1,2.65.12,2.69,2.69,0,0,1,1.35,1.91" style="fill: #fff"/>
      <path d="M57.1,77c-.05-1.19-.78-1.83-2.13-1.77l-.8,0c.2,1.2.36,2.39.49,3.58l.57,0c1.27,0,1.92-.6,1.87-1.82m1.5,0a2.41,2.41,0,0,1-.92,2,4.26,4.26,0,0,1-2.49.71c-.58,0-1.15.07-1.71.13q-.39-2.73-1-5.45c.75-.09,1.5-.16,2.26-.2a4.43,4.43,0,0,1,2.84.71,2.46,2.46,0,0,1,1,2.07" style="fill: #fff"/>
      <path d="M63.45,80.78A27.54,27.54,0,0,0,59.84,80q.22-2.76.24-5.55a34,34,0,0,1,4.29.8c0,.32-.08.64-.13,1q-1.32-.33-2.64-.57c0,.41-.05.82-.08,1.23.79.13,1.57.3,2.36.51l-.15,1c-.77-.2-1.53-.37-2.3-.5,0,.47-.09.95-.15,1.42.79.14,1.57.32,2.36.54-.06.32-.13.63-.19,1" style="fill: #fff"/>
      <path d="M88.39,88.59l.27.27a1.3,1.3,0,0,0,.72.42.89.89,0,0,0,.9-.84,1.06,1.06,0,0,0-.36-.63l-.37-.38Zm2.48,1.25a1.71,1.71,0,0,1-1.36.56,2.36,2.36,0,0,1-1.44-.78l-.36-.36-1.38,1.38-.83-.82,3.9-3.89,1.24,1.25a2.32,2.32,0,0,1,.77,1.38,1.6,1.6,0,0,1-.54,1.28" style="fill: #fff"/>
    </g>
    <polygon points="88.92 93.25 92.82 89.36 93.64 90.19 90.43 93.39 92 94.97 91.32 95.65 88.92 93.25" style="fill: #fff"/>
    <g>
      <path d="M95.52,96.62c.58-1.1.91-1.72,1-1.87l.19-.33c-.28.17-1,.56-2.19,1.18Zm-1.14,2.09.64-1.2L93.6,96.09l-1.2.64-.89-.89,5.28-2.53,1,1L95.26,99.6Z" style="fill: #fff"/>
      <path d="M99.2,103.55l-1-1,1.26-4.63,0,0c-.49.56-.84.94-1.07,1.16l-1.83,1.83-.74-.74,3.9-3.88,1,1-1.23,4.6,0,0c.48-.53.82-.9,1-1.11l1.85-1.84.74.74Z" style="fill: #fff"/>
      <path d="M100.23,120.28l.26-.27a1.38,1.38,0,0,0,.44-.71.63.63,0,0,0-.23-.59.58.58,0,0,0-.58-.2,1.64,1.64,0,0,0-.71.48l-.24.25Zm.67.67,1.51,1.48-.82.83-3.92-3.86,1.12-1.14a2.8,2.8,0,0,1,1.45-.9,1.51,1.51,0,0,1,1.27.48,1.45,1.45,0,0,1,.42.8,1.8,1.8,0,0,1-.1,1l2.84.52-.9.93-2.43-.55Z" style="fill: #fff"/>
    </g>
    <polygon points="107.38 117.37 105.16 119.63 101.23 115.77 103.45 113.51 104.14 114.18 102.73 115.61 103.59 116.46 104.9 115.13 105.58 115.8 104.28 117.13 105.29 118.12 106.69 116.69 107.38 117.37" style="fill: #fff"/>
    <polygon points="108.18 116.55 104.26 112.69 105.07 111.86 108.31 115.04 109.88 113.45 110.56 114.12 108.18 116.55" style="fill: #fff"/>
    <polygon points="113.46 111.18 111.23 113.44 107.31 109.58 109.53 107.32 110.21 107.99 108.81 109.42 109.67 110.27 110.98 108.94 111.66 109.61 110.35 110.94 111.36 111.93 112.77 110.5 113.46 111.18" style="fill: #fff"/>
    <g>
      <path d="M114.51,106.83l-1.87-1-.33-.19c.17.28.57,1,1.2,2.18Zm2.11,1.12-1.21-.63L114,108.75l.66,1.21-.89.89-2.58-5.26,1-1,5.31,2.48Z" style="fill: #fff"/>
      <path d="M119.17,103.17a1.4,1.4,0,0,1,.46,1.21,2.29,2.29,0,0,1-.74,1.37,3.64,3.64,0,0,1-1.32.88l-.78-.76a7.26,7.26,0,0,0,.91-.43,3,3,0,0,0,.57-.43,1.06,1.06,0,0,0,.31-.53.52.52,0,0,0-.17-.45.5.5,0,0,0-.27-.14,1.15,1.15,0,0,0-.36,0,6.8,6.8,0,0,0-.76.25,3.49,3.49,0,0,1-.86.22,1.54,1.54,0,0,1-.64-.07,1.37,1.37,0,0,1-.59-.36,1.4,1.4,0,0,1-.47-1.16,2,2,0,0,1,.66-1.27,2.76,2.76,0,0,1,.64-.51,5.67,5.67,0,0,1,.78-.39l.38.91a5.55,5.55,0,0,0-.69.34,2.3,2.3,0,0,0-.45.36.74.74,0,0,0-.24.47.48.48,0,0,0,.16.4.43.43,0,0,0,.24.14.86.86,0,0,0,.32,0,8.07,8.07,0,0,0,.79-.26,2.85,2.85,0,0,1,1.27-.24,1.45,1.45,0,0,1,.85.43" style="fill: #fff"/>
    </g>
    <polygon points="123.18 101.27 120.96 103.53 117.03 99.68 119.26 97.42 119.94 98.08 118.53 99.51 119.4 100.36 120.7 99.03 121.39 99.7 120.08 101.03 121.09 102.03 122.5 100.6 123.18 101.27" style="fill: #fff"/>
    <g>
      <path d="M144.08,146.72c.2-1.53.45-3.05.76-4.54l0,0c-.4.78-.68,1.3-.83,1.55-.43.74-.87,1.47-1.3,2.2-.38-.22-.76-.46-1.13-.7l3-4.63c.49.31,1,.62,1.48.91q-.42,2.17-.69,4.41l0,0q1.71-1.48,3.27-3.08c.52.24,1,.47,1.57.68q-1,2.55-2.06,5.11c-.42-.17-.84-.35-1.25-.54l1-2.38.18-.38.57-1.15,0,0c-1.07,1.1-2.18,2.16-3.35,3.19q-.6-.3-1.2-.63" style="fill: #fff"/>
      <path d="M151.7,147a2,2,0,0,0,0,1.45,1.53,1.53,0,0,0,1.07.8c1.09.3,1.77-.19,2-1.4s-.08-1.92-1-2.18a1.42,1.42,0,0,0-1.24.13,2.17,2.17,0,0,0-.8,1.2m4.46,1.14A2.58,2.58,0,0,1,155,150a3.18,3.18,0,0,1-2.47.16,3.27,3.27,0,0,1-2.07-1.41,2.62,2.62,0,0,1-.06-2.25,2.86,2.86,0,0,1,1.41-1.73,3.06,3.06,0,0,1,2.21-.08,3,3,0,0,1,1.85,1.2,3,3,0,0,1,.32,2.21" style="fill: #fff"/>
      <path d="M163,151.54c-.6,0-1.2,0-1.81,0a40.17,40.17,0,0,1-2.42-4.38h0c0,.73-.07,1.26-.1,1.57-.1.85-.21,1.71-.31,2.57l-1.26-.17c.27-1.82.55-3.63.82-5.45.51.08,1,.15,1.54.21a38.63,38.63,0,0,0,2.38,4.29h0c0-.71,0-1.22,0-1.52l.09-2.6,1.1,0v5.5" style="fill: #fff"/>
      <path d="M164.66,151.51l-.24-5.5c.41,0,.82,0,1.23-.07.14,1.83.28,3.66.43,5.49l-1.42.08" style="fill: #fff"/>
      <path d="M170.33,150.87l-1.41.24c-.23-1.5-.46-3-.68-4.48-.54.08-1.07.14-1.61.2l-.1-1a34.91,34.91,0,0,0,4.31-.72l.22.94c-.52.13-1.05.24-1.58.34.28,1.48.56,3,.85,4.45" style="fill: #fff"/>
      <path d="M173.49,147.27a2,2,0,0,0,.79,1.22,1.58,1.58,0,0,0,1.34,0c1.06-.37,1.35-1.16.89-2.3s-1.16-1.54-2.1-1.21a1.44,1.44,0,0,0-.95.8,2.16,2.16,0,0,0,0,1.44m4.32-1.57a2.57,2.57,0,0,1,.09,2.24,3.23,3.23,0,0,1-2,1.53,3.27,3.27,0,0,1-2.49,0,2.67,2.67,0,0,1-1.31-1.83,2.88,2.88,0,0,1,.18-2.22,3,3,0,0,1,1.77-1.31,3,3,0,0,1,2.2-.05,2.91,2.91,0,0,1,1.52,1.64" style="fill: #fff"/>
      <path d="M180.07,144.27l.39-.21a1.8,1.8,0,0,0,.73-.62.64.64,0,0,0,0-.65.63.63,0,0,0-.55-.33,2.19,2.19,0,0,0-.89.31l-.34.19.69,1.31m.45.84,1,1.86c-.43.23-.86.45-1.3.66l-2.4-5c.52-.24,1-.51,1.54-.78a3.38,3.38,0,0,1,1.76-.55,1.42,1.42,0,0,1,1.17.73,1.28,1.28,0,0,1,.21.89,2,2,0,0,1-.45,1,28.89,28.89,0,0,0,3,1c-.46.31-.91.6-1.38.88-.84-.31-1.66-.65-2.45-1l-.65.35" style="fill: #fff"/>
      <path d="M151.07,79.4a1.57,1.57,0,0,0-2.46-.79l-.68.36c.58,1,1.15,2.09,1.72,3.14l.49-.26a1.68,1.68,0,0,0,.93-2.45m1.29-.57a2.67,2.67,0,0,1,0,2.25,4,4,0,0,1-1.86,1.68c-.49.26-1,.53-1.45.82l-2.85-4.71q.94-.57,1.92-1.08a3.86,3.86,0,0,1,2.68-.47,2.31,2.31,0,0,1,1.58,1.51" style="fill: #fff"/>
      <path d="M157.71,80.12a29.81,29.81,0,0,0-3.2.9c-.6-1.73-1.2-3.47-1.81-5.2a34.87,34.87,0,0,1,3.81-1.07l.21.93c-.79.18-1.57.38-2.35.61l.35,1.16c.7-.21,1.4-.39,2.1-.55.08.31.15.62.22.93-.69.15-1.37.33-2,.53.14.46.28.91.41,1.36q1-.3,2.1-.54l.21.94" style="fill: #fff"/>
      <path d="M159.69,76.81l.44,0a1.72,1.72,0,0,0,.9-.31.71.71,0,0,0,.25-.65.68.68,0,0,0-.32-.58,1.44,1.44,0,0,0-.86-.11l-.63.08c.07.54.15,1.08.22,1.62m3-1.13a1.67,1.67,0,0,1-.57,1.39,3.18,3.18,0,0,1-1.72.62l-.56.07.27,1.94c-.4,0-.81.12-1.21.19-.32-1.81-.64-3.61-1-5.42.71-.13,1.43-.23,2.16-.31a3,3,0,0,1,1.9.26,1.45,1.45,0,0,1,.7,1.26" style="fill: #fff"/>
      <path d="M163.91,79.44l0-5.5c.48,0,1,0,1.44,0,0,1.51-.1,3-.16,4.54.8,0,1.6.09,2.4.19l-.12,1a27.76,27.76,0,0,0-3.53-.21" style="fill: #fff"/>
      <path d="M170,77.25a2.22,2.22,0,0,0,.12,1.44,1.46,1.46,0,0,0,1,.7c1,.24,1.63-.19,2-1.38s0-2-1.11-2.23a1.57,1.57,0,0,0-1.34.18,2,2,0,0,0-.67,1.29m4.47,1.19a3,3,0,0,1-1.38,1.76,3.09,3.09,0,0,1-2.19.14A3,3,0,0,1,169,79.21a3,3,0,0,1-.41-2.2,2.56,2.56,0,0,1,1.11-2,3.93,3.93,0,0,1,4.64,1.13,2.57,2.57,0,0,1,.1,2.25" style="fill: #fff"/>
      <path d="M177.71,79.26c.73-.49,1.49-1,2.27-1.4q.72.38,1.41.78a32.39,32.39,0,0,0-3.54,1.91c-.31.64-.63,1.28-.95,1.92-.37-.19-.74-.36-1.12-.53.28-.64.57-1.28.85-1.93a35.21,35.21,0,0,0-.78-4c.5.18,1,.37,1.49.58.16.88.28,1.77.37,2.64" style="fill: #fff"/>
      <path d="M192.75,94.11a2.12,2.12,0,0,0-1,1,1.49,1.49,0,0,0,.15,1.25c.47.91,1.23,1.11,2.36.59s1.46-1.3.93-2.32a1.62,1.62,0,0,0-1-.9,2,2,0,0,0-1.42.33m2.09,4.19a2.92,2.92,0,0,1-2.23.13A3.08,3.08,0,0,1,191,96.87a3.12,3.12,0,0,1-.4-2.2A2.93,2.93,0,0,1,192,92.88a2.53,2.53,0,0,1,2.22-.42,3.39,3.39,0,0,1,1.84,1.77,3.31,3.31,0,0,1,.39,2.5,2.58,2.58,0,0,1-1.61,1.57" style="fill: #fff"/>
      <path d="M195.91,100.75c.05.14.1.28.14.42a1.74,1.74,0,0,0,.47.83.69.69,0,0,0,.68.13.68.68,0,0,0,.51-.42,1.41,1.41,0,0,0-.05-.87c-.06-.2-.13-.4-.19-.61l-1.56.52m1.67,2.72a1.61,1.61,0,0,1-1.47-.3,3.13,3.13,0,0,1-.93-1.59c-.06-.18-.11-.36-.17-.53l-1.86.61c-.13-.39-.27-.78-.41-1.17l5.15-1.93c.26.68.49,1.38.71,2.07a3.06,3.06,0,0,1,.08,1.92,1.4,1.4,0,0,1-1.1.92" style="fill: #fff"/>
      <path d="M194.59,108.7a30.48,30.48,0,0,0-.47-3.3l5.4-1.07a36,36,0,0,1,.55,3.87l-.95.09c-.07-.8-.17-1.6-.29-2.39l-1.2.19c.12.71.2,1.43.27,2.15l-1,.09c-.07-.7-.15-1.4-.26-2.09l-1.4.22c.11.71.2,1.43.26,2.15l-1,.09" style="fill: #fff"/>
      <path d="M197.77,111.08v.44a2.07,2.07,0,0,0,.17.94.61.61,0,0,0,.57.32.58.58,0,0,0,.57-.3,2.07,2.07,0,0,0,.18-1v-.43l-1.49,0m-1,0-2.11,0c0-.41,0-.81,0-1.22l5.5-.29c0,.66.05,1.32.05,2a3.72,3.72,0,0,1-.47,2,1.46,1.46,0,0,1-2.13.19,2.24,2.24,0,0,1-.54-.89c-1.28.88-2.13,1.37-2.51,1.6,0-.45.07-.91.1-1.36.72-.42,1.44-.88,2.15-1.36v-.7" style="fill: #fff"/>
      <path d="M196.26,118.5c1.25-.17,2-.29,2.12-.32l.39-.05c-.3-.16-1-.58-2.21-1.22q-.12.8-.3,1.59m-2.39.23,1.37-.13c.16-.72.3-1.44.41-2.17l-1.24-.61c.06-.44.11-.87.16-1.31a50.19,50.19,0,0,1,5.19,2.9c-.09.58-.2,1.16-.32,1.73a48.46,48.46,0,0,1-5.91.88c.12-.43.24-.86.34-1.29" style="fill: #fff"/>
      <path d="M192.59,122.86q.22-.58.42-1.17l4.3,1.46c.19-.58.37-1.15.54-1.74l.93.27a35.39,35.39,0,0,1-1.78,4.89l-.88-.39c.25-.56.48-1.13.7-1.69l-4.23-1.63" style="fill: #fff"/>
      <path d="M189.93,128.19a32.88,32.88,0,0,0,1.66-3l5,2.37a37.18,37.18,0,0,1-1.94,3.55l-.82-.51c.45-.71.86-1.43,1.25-2.16l-1.07-.56c-.35.66-.72,1.3-1.12,2l-.81-.5c.38-.63.74-1.26,1.08-1.9l-1.25-.66c-.35.66-.73,1.31-1.12,1.95l-.82-.51" style="fill: #fff"/>
      <path d="M52.24,150.56c-.47-.1-.93-.22-1.39-.34.39-1.46.77-2.92,1.16-4.38-.51-.14-1-.29-1.52-.45l.3-.92a27.92,27.92,0,0,0,4.13,1c-.06.32-.11.64-.16,1-.52-.09-1-.19-1.55-.3-.32,1.48-.65,3-1,4.43" style="fill: #fff"/>
      <path d="M58.9,151.33a33.07,33.07,0,0,1-3.85-.28l.72-5.46a28.89,28.89,0,0,0,3.21.24v1c-.71,0-1.41,0-2.11-.11,0,.4-.07.8-.1,1.2.68.06,1.35.1,2,.11l0,1q-1.05,0-2.1-.12l-.12,1.42c.78.07,1.57.11,2.36.12,0,.32,0,.64,0,1" style="fill: #fff"/>
      <path d="M64,149.47a1.32,1.32,0,0,1-.47,1.25,3,3,0,0,1-1.76.61,4.39,4.39,0,0,1-1.9-.25c0-.36,0-.73,0-1.09a7.42,7.42,0,0,0,1.12.32,3.5,3.5,0,0,0,.84.05,1.22,1.22,0,0,0,.68-.21.47.47,0,0,0,.19-.46.41.41,0,0,0-.13-.27,1,1,0,0,0-.33-.21,8.56,8.56,0,0,0-.83-.31,3.52,3.52,0,0,1-.87-.42,1.43,1.43,0,0,1-.46-.49,1.34,1.34,0,0,1-.18-.67,1.44,1.44,0,0,1,.49-1.17,2.3,2.3,0,0,1,1.37-.5,4.67,4.67,0,0,1,.84,0,8.3,8.3,0,0,1,.86.18c-.08.32-.17.63-.26,1-.33-.08-.59-.13-.8-.16a2.41,2.41,0,0,0-.6,0,.79.79,0,0,0-.52.19.49.49,0,0,0-.16.41.44.44,0,0,0,.09.27.81.81,0,0,0,.26.2,5.16,5.16,0,0,0,.84.32,3.69,3.69,0,0,1,1.26.6,1.36,1.36,0,0,1,.45.85" style="fill: #fff"/>
      <path d="M68,150.22c-.46.12-.92.24-1.39.34-.32-1.48-.64-2.95-1-4.43-.51.11-1,.21-1.55.3l-.15-1a28.1,28.1,0,0,0,4.12-1l.3.92c-.5.16-1,.31-1.52.45.39,1.46.78,2.92,1.16,4.38" style="fill: #fff"/>
      <path d="M27.06,121.81l1.31-.57c-.11-.26-.21-.51-.31-.77a1.46,1.46,0,0,0-.45-.66.7.7,0,0,0-.62,0c-.43.15-.53.58-.25,1.28.1.26.21.51.32.77m-.85.36c-.11-.24-.21-.49-.31-.74a1.85,1.85,0,0,0-.43-.71.52.52,0,0,0-.54-.07.46.46,0,0,0-.33.42,2,2,0,0,0,.19.89c.09.23.19.46.29.7l1.13-.49m-1.38,2.22c-.32-.66-.62-1.32-.89-2a4.35,4.35,0,0,1-.43-2.13,1.09,1.09,0,0,1,.82-.94,1.23,1.23,0,0,1,.85,0,1.17,1.17,0,0,1,.59.57l0,0a1.37,1.37,0,0,1,.15-1,1.26,1.26,0,0,1,.74-.49,1.4,1.4,0,0,1,1.29.21A2.77,2.77,0,0,1,28.9,120q.39,1,.87,2l-4.94,2.42" style="fill: #fff"/>
      <path d="M21.72,112.68l3.55-.23a2,2,0,0,1,1.09.22,2,2,0,0,1,.77.76,3.31,3.31,0,0,1,.41,1.22,2.8,2.8,0,0,1-.21,1.79,2,2,0,0,1-1.3,1l-3.44.86c-.12-.48-.23-1-.32-1.43l3.3-.66a1.36,1.36,0,0,0,.86-.46,1.27,1.27,0,0,0,.14-1,1.21,1.21,0,0,0-.42-.84,1.34,1.34,0,0,0-1-.17l-3.35.37c-.05-.49-.09-1-.12-1.45" style="fill: #fff"/>
      <path d="M27.16,110.94l-5.5,0c0-.49,0-1,0-1.46l5.5.21c0,.4,0,.8,0,1.2" style="fill: #fff"/>
      <path d="M27.27,108.31l-5.48-.51c.05-.48.1-1,.17-1.45l4.5.63a23.69,23.69,0,0,1,.44-2.35l.93.22a27.1,27.1,0,0,0-.56,3.46" style="fill: #fff"/>
      <path d="M26.69,99.49a1.56,1.56,0,0,0-2.33,1.1c-.09.24-.17.48-.25.72l3.4,1.12.18-.52a1.7,1.7,0,0,0-1-2.42m.56-1.3a2.71,2.71,0,0,1,1.52,1.68,4,4,0,0,1-.21,2.47c-.18.51-.34,1-.48,1.55l-5.31-1.46c.2-.71.42-1.4.66-2.09a3.77,3.77,0,0,1,1.64-2.18,2.28,2.28,0,0,1,2.18,0" style="fill: #fff"/>
      <path d="M52.82,209.33a24.2,24.2,0,1,0-24.19-24.2,24.2,24.2,0,0,0,24.19,24.2" style="fill: #e33113"/>
      <path d="M47.31,179.19a4.8,4.8,0,0,1,4.8-4.8M59.18,188h1.69a5.09,5.09,0,1,0-1.79-9.84,7.05,7.05,0,0,0-14,.84,5.46,5.46,0,0,0-.58,0,4.52,4.52,0,1,0,0,9h2.26m1.7-2.26v5.66H42.22m4.52,4.52v-2.26h4v-7.92m-8.48,4.52H40v2.27h2.26Zm5.65,5.66H45.61v2.26h2.26Zm9.61-10.18v5.66H63.7m-4.52,4.52v-2.26h-4v-7.92m-5.65-2.26h6.78m-10.74-.56v2.82h14.7v-2.82M53,185.69v10.18m10.74-5.66H66v2.27H63.7Zm-5.65,5.66h2.26v2.26H58.05Zm-6.22,0h2.26v2.26H51.83Z" style="fill: none;stroke: #fff;stroke-miterlimit: 10;stroke-width: 1.25600004196167px"/>
      <path d="M168,209.33a24.2,24.2,0,1,0-24.2-24.2,24.2,24.2,0,0,0,24.2,24.2" style="fill: #95bc24"/>
      <path d="M167.72,178.32a6.17,6.17,0,0,0-3,1.56,5.15,5.15,0,0,0-2.07-.43,5.26,5.26,0,0,0-5.26,5.24s0,0,0,0a4.49,4.49,0,0,0-4,3.55,4.63,4.63,0,0,0-.1.92,4.49,4.49,0,0,0,4.49,4.49h9.93" style="fill: none;stroke: #fff;stroke-miterlimit: 10;stroke-width: 1.25600004196167px"/>
      <path d="M180.68,182.66H169.47a.3.3,0,0,1-.3-.3v-.48a.3.3,0,0,1,.3-.3h11.21a.3.3,0,0,1,.3.3v.48A.3.3,0,0,1,180.68,182.66Zm0,6H169.47a.29.29,0,0,1-.3-.3v-.47a.3.3,0,0,1,.3-.3h11.21a.3.3,0,0,1,.3.3v.47A.29.29,0,0,1,180.68,188.68Z" style="fill: none;stroke: #fff;stroke-miterlimit: 10;stroke-width: 1.25600004196167px"/>
      <path d="M179.74,192.24a1,1,0,1,1,1-1A1,1,0,0,1,179.74,192.24Zm2.34-3.47h-14a.34.34,0,0,0-.34.33v4.26a.34.34,0,0,0,.34.33h14a.34.34,0,0,0,.34-.33V189.1A.34.34,0,0,0,182.08,188.77Z" style="fill: none;stroke: #fff;stroke-miterlimit: 10;stroke-width: 1.25600004196167px"/>
      <path d="M179.74,186.06a1,1,0,1,1,1-1A1,1,0,0,1,179.74,186.06Zm2.34-3.39h-14a.34.34,0,0,0-.34.33v4.25a.34.34,0,0,0,.34.34h14a.34.34,0,0,0,.34-.34V183A.34.34,0,0,0,182.08,182.67Z" style="fill: none;stroke: #fff;stroke-miterlimit: 10;stroke-width: 1.25600004196167px"/>
      <path d="M179.74,180a1,1,0,1,1,1-1A1,1,0,0,1,179.74,180Zm2.34-3.42h-14a.34.34,0,0,0-.34.34v4.25a.34.34,0,0,0,.34.34h14a.34.34,0,0,0,.34-.34V176.9A.34.34,0,0,0,182.08,176.56Z" style="fill: none;stroke: #fff;stroke-miterlimit: 10;stroke-width: 1.25600004196167px"/>
    </g>
    <rect x="172.33" y="178.99" width="0.28" height="0.28" style="fill: none;stroke: #fff;stroke-miterlimit: 10;stroke-width: 1.25600004196167px"/>
    <rect x="169.96" y="178.99" width="0.28" height="0.28" style="fill: none;stroke: #fff;stroke-miterlimit: 10;stroke-width: 1.25600004196167px"/>
    <rect x="172.33" y="185.03" width="0.28" height="0.28" style="fill: none;stroke: #fff;stroke-miterlimit: 10;stroke-width: 1.25600004196167px"/>
    <rect x="169.96" y="185.03" width="0.28" height="0.28" style="fill: none;stroke: #fff;stroke-miterlimit: 10;stroke-width: 1.25600004196167px"/>
    <rect x="172.33" y="191.19" width="0.28" height="0.28" style="fill: none;stroke: #fff;stroke-miterlimit: 10;stroke-width: 1.25600004196167px"/>
    <rect x="169.96" y="191.19" width="0.28" height="0.28" style="fill: none;stroke: #fff;stroke-miterlimit: 10;stroke-width: 1.25600004196167px"/>
  </g>
</svg>
