<svg id="Layer_1" data-name="Layer 1" xmlns="http://www.w3.org/2000/svg" viewBox="0 0 249 92">
  <title>native_intro_data_point</title>
  <g>
    <path d="M92.93,12.59a1.53,1.53,0,0,0-1.32.64A2.93,2.93,0,0,0,91.14,15c0,1.59.6,2.39,1.79,2.39A5.69,5.69,0,0,0,94.75,17V18.3a5.11,5.11,0,0,1-2,.37,3,3,0,0,1-2.38-1A4,4,0,0,1,89.58,15,4.44,4.44,0,0,1,90,13.06a2.91,2.91,0,0,1,1.16-1.29,3.53,3.53,0,0,1,1.78-.44,4.89,4.89,0,0,1,2.09.5l-.49,1.23a6.76,6.76,0,0,0-.8-.33A2.29,2.29,0,0,0,92.93,12.59Z"/>
    <path d="M97.64,18.57H96.15V11h1.49Z"/>
    <path d="M104.17,15.83a3,3,0,0,1-.71,2.09,2.55,2.55,0,0,1-2,.75,2.72,2.72,0,0,1-1.38-.35,2.26,2.26,0,0,1-.92-1,3.25,3.25,0,0,1-.33-1.5,3,3,0,0,1,.7-2.08,2.55,2.55,0,0,1,2-.74,2.73,2.73,0,0,1,1.39.34,2.24,2.24,0,0,1,.92,1A3.25,3.25,0,0,1,104.17,15.83Zm-3.78,0a2.29,2.29,0,0,0,.27,1.23,1.11,1.11,0,0,0,1.72,0,2.3,2.3,0,0,0,.26-1.23,2.33,2.33,0,0,0-.26-1.22,1,1,0,0,0-.87-.4.93.93,0,0,0-.85.4A2.23,2.23,0,0,0,100.39,15.83Z"/>
    <path d="M109.26,18.57l-.2-.7H109a1.64,1.64,0,0,1-.68.59,2.33,2.33,0,0,1-1,.21,1.86,1.86,0,0,1-1.45-.52,2.05,2.05,0,0,1-.49-1.48V13.11h1.49V16.3a1.5,1.5,0,0,0,.21.88.76.76,0,0,0,.67.3,1,1,0,0,0,.9-.42,2.64,2.64,0,0,0,.28-1.38V13.11h1.49v5.46Z"/>
    <path d="M113.7,18.67a1.76,1.76,0,0,1-1.51-.75,3.42,3.42,0,0,1-.55-2.07,3.37,3.37,0,0,1,.56-2.09,1.8,1.8,0,0,1,1.54-.75,1.77,1.77,0,0,1,1.57.8h0a5.66,5.66,0,0,1-.11-1.09V11h1.49v7.6H115.6l-.29-.71h-.06A1.71,1.71,0,0,1,113.7,18.67Zm.52-1.19a1,1,0,0,0,.84-.33,2,2,0,0,0,.29-1.13v-.16a2.22,2.22,0,0,0-.27-1.26,1,1,0,0,0-.88-.38.88.88,0,0,0-.78.42,2.29,2.29,0,0,0-.27,1.23,2.19,2.19,0,0,0,.27,1.21A.91.91,0,0,0,114.22,17.48Z"/>
    <path d="M118,16.21V15h2.63v1.22Z"/>
    <path d="M127,18.57H125.5V15.38a1.5,1.5,0,0,0-.21-.88.76.76,0,0,0-.67-.3,1,1,0,0,0-.9.42,2.64,2.64,0,0,0-.28,1.38v2.57H122V13.11h1.14l.2.7h.09a1.53,1.53,0,0,1,.68-.6,2.4,2.4,0,0,1,1-.2,1.93,1.93,0,0,1,1.45.51A2.08,2.08,0,0,1,127,15Z"/>
    <path d="M132,18.57l-.28-.74h0a2.18,2.18,0,0,1-.78.65,2.36,2.36,0,0,1-1,.19,1.66,1.66,0,0,1-1.23-.45,1.74,1.74,0,0,1-.45-1.28,1.44,1.44,0,0,1,.6-1.28,3.51,3.51,0,0,1,1.84-.46l.94,0v-.24a.74.74,0,0,0-.85-.83,3.74,3.74,0,0,0-1.53.4l-.5-1a4.44,4.44,0,0,1,2.09-.49,2.6,2.6,0,0,1,1.69.48,1.76,1.76,0,0,1,.58,1.45v3.64ZM131.55,16l-.57,0a1.84,1.84,0,0,0-1,.23.76.76,0,0,0-.32.66c0,.42.24.63.73.63a1.12,1.12,0,0,0,.82-.3,1,1,0,0,0,.31-.79Z"/>
    <path d="M136.87,17.48a3.29,3.29,0,0,0,.93-.17v1.11a3.41,3.41,0,0,1-1.36.25,1.7,1.7,0,0,1-1.31-.45,2,2,0,0,1-.4-1.36V14.23H134V13.6l.82-.5.43-1.15h1v1.16h1.53v1.12h-1.53v2.63a.61.61,0,0,0,.17.47A.73.73,0,0,0,136.87,17.48Z"/>
    <path d="M138.84,11.7c0-.49.27-.73.81-.73s.81.24.81.73a.69.69,0,0,1-.2.54.84.84,0,0,1-.61.19C139.11,12.43,138.84,12.19,138.84,11.7Zm1.56,6.87h-1.49V13.11h1.49Z"/>
    <path d="M143.26,18.57l-2.08-5.46h1.56l1,3.11a4.74,4.74,0,0,1,.21,1.12h0a4.11,4.11,0,0,1,.22-1.12l1.05-3.11h1.56l-2.08,5.46Z"/>
    <path d="M150.12,18.67a2.83,2.83,0,0,1-2.06-.73,2.74,2.74,0,0,1-.74-2.06,3,3,0,0,1,.68-2.12,2.45,2.45,0,0,1,1.9-.75,2.4,2.4,0,0,1,1.8.66,2.48,2.48,0,0,1,.64,1.82v.72h-3.52a1.48,1.48,0,0,0,.38,1,1.31,1.31,0,0,0,1,.36,4.65,4.65,0,0,0,.93-.1,4.89,4.89,0,0,0,.92-.33v1.15a3.34,3.34,0,0,1-.84.29A4.78,4.78,0,0,1,150.12,18.67Zm-.21-4.6a.92.92,0,0,0-.74.3,1.34,1.34,0,0,0-.31.85H151a1.23,1.23,0,0,0-.29-.85A1,1,0,0,0,149.91,14.07Z"/>
    <path d="M159.19,13a1.76,1.76,0,0,1,1.51.75,3.42,3.42,0,0,1,.55,2.07,3.42,3.42,0,0,1-.56,2.09,2,2,0,0,1-3.05,0h-.1l-.25.6h-1.14V11h1.49v1.77q0,.33-.06,1.08h.06A1.73,1.73,0,0,1,159.19,13Zm-.48,1.19a.92.92,0,0,0-.8.34,2,2,0,0,0-.27,1.12v.16a2.32,2.32,0,0,0,.26,1.26,1,1,0,0,0,.83.38.83.83,0,0,0,.73-.42,2.29,2.29,0,0,0,.27-1.23,2.19,2.19,0,0,0-.27-1.21A.85.85,0,0,0,158.71,14.2Z"/>
    <path d="M165,18.67a2.85,2.85,0,0,1-2.06-.73,2.78,2.78,0,0,1-.74-2.06,3.05,3.05,0,0,1,.68-2.12,2.45,2.45,0,0,1,1.9-.75,2.4,2.4,0,0,1,1.8.66,2.48,2.48,0,0,1,.65,1.82v.72h-3.52a1.43,1.43,0,0,0,.37,1,1.34,1.34,0,0,0,1,.36,4.57,4.57,0,0,0,.93-.1,4.65,4.65,0,0,0,.92-.33v1.15a3.41,3.41,0,0,1-.83.29A4.88,4.88,0,0,1,165,18.67Zm-.21-4.6a1,1,0,0,0-.74.3,1.4,1.4,0,0,0-.31.85h2.09a1.18,1.18,0,0,0-.29-.85A1,1,0,0,0,164.74,14.07Z"/>
    <path d="M173.43,18.57h-1.49V15.38a1.5,1.5,0,0,0-.21-.88.76.76,0,0,0-.67-.3,1,1,0,0,0-.9.42,2.54,2.54,0,0,0-.28,1.38v2.57h-1.49V13.11h1.14l.2.7h.08a1.61,1.61,0,0,1,.69-.6,2.4,2.4,0,0,1,1-.2,1.94,1.94,0,0,1,1.45.51,2.12,2.12,0,0,1,.49,1.49Z"/>
    <path d="M177.43,18.67a2.85,2.85,0,0,1-2.06-.73,2.78,2.78,0,0,1-.74-2.06,3,3,0,0,1,.69-2.12,2.43,2.43,0,0,1,1.89-.75,2.4,2.4,0,0,1,1.8.66,2.48,2.48,0,0,1,.65,1.82v.72h-3.52a1.43,1.43,0,0,0,.37,1,1.34,1.34,0,0,0,1,.36,4.57,4.57,0,0,0,.93-.1,4.65,4.65,0,0,0,.92-.33v1.15a3.41,3.41,0,0,1-.83.29A4.88,4.88,0,0,1,177.43,18.67Zm-.21-4.6a1,1,0,0,0-.74.3,1.4,1.4,0,0,0-.31.85h2.09a1.18,1.18,0,0,0-.29-.85A1,1,0,0,0,177.22,14.07Z"/>
    <path d="M183.89,14.23H182.6v4.34h-1.49V14.23h-.82v-.72l.82-.4v-.4a1.76,1.76,0,0,1,.46-1.36,2.07,2.07,0,0,1,1.47-.43,3.68,3.68,0,0,1,1.37.23L184,12.24a2.94,2.94,0,0,0-.83-.14.52.52,0,0,0-.46.19.78.78,0,0,0-.14.48v.34h1.29Zm.79-2.53c0-.49.27-.73.81-.73s.81.24.81.73a.73.73,0,0,1-.2.54.86.86,0,0,1-.61.19C185,12.43,184.68,12.19,184.68,11.7Zm1.55,6.87h-1.49V13.11h1.49Z"/>
    <path d="M190.09,17.48a3.41,3.41,0,0,0,.94-.17v1.11a3.46,3.46,0,0,1-1.37.25,1.67,1.67,0,0,1-1.3-.45,2,2,0,0,1-.41-1.36V14.23h-.71V13.6l.82-.5.43-1.15h.95v1.16H191v1.12h-1.53v2.63a.58.58,0,0,0,.18.47A.7.7,0,0,0,190.09,17.48Z"/>
    <path d="M195.94,17a1.52,1.52,0,0,1-.59,1.28,2.88,2.88,0,0,1-1.74.44,5.86,5.86,0,0,1-1-.08,4.45,4.45,0,0,1-.78-.24V17.12a5.32,5.32,0,0,0,.93.33,4.22,4.22,0,0,0,.92.13c.54,0,.81-.16.81-.47a.42.42,0,0,0-.11-.29,1.47,1.47,0,0,0-.37-.24,6.86,6.86,0,0,0-.7-.33,4.75,4.75,0,0,1-.93-.49,1.47,1.47,0,0,1-.43-.51,1.75,1.75,0,0,1-.13-.72,1.3,1.3,0,0,1,.56-1.12A2.72,2.72,0,0,1,194,13a4.48,4.48,0,0,1,1.92.43l-.45,1.07c-.27-.12-.53-.21-.77-.29a2.51,2.51,0,0,0-.72-.11q-.66,0-.66.36a.4.4,0,0,0,.21.34,5.17,5.17,0,0,0,.93.44,4.2,4.2,0,0,1,.94.48,1.44,1.44,0,0,1,.44.52A1.68,1.68,0,0,1,195.94,17Z"/>
    <path d="M197.08,13.84a.91.91,0,0,1,.07-.39.61.61,0,0,1,.18-.26.87.87,0,0,1,.27-.14,1.27,1.27,0,0,1,.34,0,1.12,1.12,0,0,1,.32,0,.82.82,0,0,1,.28.14.71.71,0,0,1,.18.26.91.91,0,0,1,.07.39.92.92,0,0,1-.07.38.81.81,0,0,1-.18.26.82.82,0,0,1-.28.14,1.13,1.13,0,0,1-.32.05,1.27,1.27,0,0,1-.34-.05.87.87,0,0,1-.27-.14.68.68,0,0,1-.18-.26A.92.92,0,0,1,197.08,13.84Zm0,4a.94.94,0,0,1,.07-.39.58.58,0,0,1,.18-.25.72.72,0,0,1,.27-.15,1.86,1.86,0,0,1,.34,0,1.65,1.65,0,0,1,.32,0,.69.69,0,0,1,.28.15.67.67,0,0,1,.18.25.94.94,0,0,1,.07.39.89.89,0,0,1-.07.38.81.81,0,0,1-.18.26,1.06,1.06,0,0,1-.28.15,1.12,1.12,0,0,1-.32,0,1.27,1.27,0,0,1-.34,0,1.17,1.17,0,0,1-.27-.15.68.68,0,0,1-.18-.26A.89.89,0,0,1,197.08,17.87Z"/>
    <path d="M93.24,39h-.69v1.18H91.38V39H89v-.84l2.42-3.69h1.11v3.59h.69Zm-1.86-.94V36.72c0-.09,0-.17,0-.25a2.18,2.18,0,0,0,0-.25c0-.08,0-.15,0-.21a.38.38,0,0,1,0-.12h0l-.16.35a3.24,3.24,0,0,1-.2.36l-1,1.45Z" style="fill: #e00"/>
    <path d="M94.21,40.17l2-4.69H93.62v-1h3.94v.75l-2.08,5Z" style="fill: #e00"/>
    <path d="M100.85,36.55a2.25,2.25,0,0,1-.08.61,1.27,1.27,0,0,1-.25.46,1.13,1.13,0,0,1-.43.29,1.82,1.82,0,0,1-.61.09,1.68,1.68,0,0,1-.58-.09,1.3,1.3,0,0,1-.43-.29,1.27,1.27,0,0,1-.25-.46,1.91,1.91,0,0,1-.09-.61,2.31,2.31,0,0,1,.08-.61,1,1,0,0,1,.25-.45,1,1,0,0,1,.42-.28,1.82,1.82,0,0,1,1.19,0,1.15,1.15,0,0,1,.43.28,1.24,1.24,0,0,1,.26.45A2,2,0,0,1,100.85,36.55Zm-1.77,0a.9.9,0,0,0,.1.48.33.33,0,0,0,.31.16A.36.36,0,0,0,99.8,37a.86.86,0,0,0,.1-.48c0-.42-.14-.63-.41-.63a.33.33,0,0,0-.31.15A.9.9,0,0,0,99.08,36.56Zm4.33-1.37-3.12,5h-.9l3.13-5Zm1.28,3.6a2.25,2.25,0,0,1-.08.61,1.22,1.22,0,0,1-.25.45,1,1,0,0,1-.43.29,1.59,1.59,0,0,1-.61.1,1.47,1.47,0,0,1-.58-.1,1.06,1.06,0,0,1-.42-.29,1.24,1.24,0,0,1-.26-.45,1.92,1.92,0,0,1-.08-.61,2.27,2.27,0,0,1,.07-.61,1.22,1.22,0,0,1,.25-.45,1,1,0,0,1,.41-.28,1.63,1.63,0,0,1,.61-.1,1.55,1.55,0,0,1,.59.1,1.15,1.15,0,0,1,.43.28,1.24,1.24,0,0,1,.26.45A1.91,1.91,0,0,1,104.69,38.79Zm-1.77,0a.9.9,0,0,0,.1.48.33.33,0,0,0,.31.15.35.35,0,0,0,.31-.15.9.9,0,0,0,.1-.48c0-.42-.14-.63-.41-.63a.33.33,0,0,0-.31.15A.88.88,0,0,0,102.92,38.8Z" style="fill: #e00"/>
    <path d="M111.68,38a2.39,2.39,0,0,1-.56,1.67,2.06,2.06,0,0,1-1.57.6,2.13,2.13,0,0,1-1.11-.28,1.89,1.89,0,0,1-.74-.79,2.65,2.65,0,0,1-.25-1.2,2.35,2.35,0,0,1,.55-1.67,2.09,2.09,0,0,1,1.57-.59,2.23,2.23,0,0,1,1.11.27,1.88,1.88,0,0,1,.74.79A2.65,2.65,0,0,1,111.68,38Zm-3,0a1.85,1.85,0,0,0,.21,1,.77.77,0,0,0,.7.33.75.75,0,0,0,.68-.33,1.85,1.85,0,0,0,.21-1,1.83,1.83,0,0,0-.21-1,.9.9,0,0,0-1.38,0A1.83,1.83,0,0,0,108.66,38Z"/>
    <path d="M115.08,36.7h-1v3.47h-1.19V36.7h-.66v-.58l.66-.32v-.32a1.45,1.45,0,0,1,.36-1.09,1.7,1.7,0,0,1,1.18-.34,3.13,3.13,0,0,1,1.1.18l-.31.88a2.1,2.1,0,0,0-.66-.12.44.44,0,0,0-.37.15.6.6,0,0,0-.11.39v.27h1Z"/>
    <path d="M121.22,40.17h-3.29V34.46h3.29v1h-2.08V36.7h1.94v1h-1.94v1.47h2.08Z"/>
    <path d="M125.41,40.17l-.16-.56h-.06a1.3,1.3,0,0,1-.54.47,1.88,1.88,0,0,1-.8.17,1.5,1.5,0,0,1-1.16-.42,1.63,1.63,0,0,1-.39-1.18V35.8h1.19v2.55a1.16,1.16,0,0,0,.17.71.6.6,0,0,0,.53.24.78.78,0,0,0,.72-.34,2,2,0,0,0,.23-1.1V35.8h1.19v4.37Z"/>
    <path d="M130,35.72a2.25,2.25,0,0,1,.4,0l-.09,1.12a1.78,1.78,0,0,0-.35,0,1.24,1.24,0,0,0-.89.3,1,1,0,0,0-.32.82v2.22h-1.19V35.8h.9l.18.74h.05a1.67,1.67,0,0,1,.55-.6A1.35,1.35,0,0,1,130,35.72Z"/>
    <path d="M135.1,38a2.39,2.39,0,0,1-.56,1.67,2.06,2.06,0,0,1-1.57.6,2.13,2.13,0,0,1-1.11-.28,1.89,1.89,0,0,1-.74-.79,2.65,2.65,0,0,1-.25-1.2,2.31,2.31,0,0,1,.56-1.67,2.06,2.06,0,0,1,1.57-.59,2.23,2.23,0,0,1,1.11.27,1.86,1.86,0,0,1,.73.79A2.53,2.53,0,0,1,135.1,38Zm-3,0a1.85,1.85,0,0,0,.21,1,.78.78,0,0,0,.7.33.74.74,0,0,0,.68-.33,1.85,1.85,0,0,0,.21-1,1.83,1.83,0,0,0-.21-1,.9.9,0,0,0-1.38,0A1.83,1.83,0,0,0,132.08,38Z"/>
    <path d="M138.48,40.25a1.44,1.44,0,0,1-1.2-.56h-.07c0,.36.07.57.07.63v1.77h-1.19V35.8h1l.17.57h.06a1.39,1.39,0,0,1,1.24-.65,1.43,1.43,0,0,1,1.21.6,2.78,2.78,0,0,1,.43,1.66,3.2,3.2,0,0,1-.2,1.21,1.72,1.72,0,0,1-.58.79A1.52,1.52,0,0,1,138.48,40.25Zm-.35-3.58a.74.74,0,0,0-.64.27,1.49,1.49,0,0,0-.21.9V38a1.85,1.85,0,0,0,.21,1,.74.74,0,0,0,.66.3c.53,0,.8-.44.8-1.32a1.86,1.86,0,0,0-.2-1A.67.67,0,0,0,138.13,36.67Z"/>
    <path d="M143.12,40.25a2.26,2.26,0,0,1-1.64-.58,2.2,2.2,0,0,1-.6-1.65,2.46,2.46,0,0,1,.55-1.7,2,2,0,0,1,1.52-.6,1.92,1.92,0,0,1,1.44.53,2,2,0,0,1,.52,1.45v.58h-2.82a1.15,1.15,0,0,0,.3.8,1.06,1.06,0,0,0,.79.28,3.67,3.67,0,0,0,.75-.08,4.31,4.31,0,0,0,.73-.26v.92a2.94,2.94,0,0,1-.67.23A4.23,4.23,0,0,1,143.12,40.25ZM143,36.57a.77.77,0,0,0-.6.24,1.13,1.13,0,0,0-.24.68h1.67a1,1,0,0,0-.23-.68A.78.78,0,0,0,143,36.57Z"/>
    <path d="M148.65,40.17l-.23-.59h0a1.81,1.81,0,0,1-.62.52,2,2,0,0,1-.83.15,1.34,1.34,0,0,1-1-.36,1.39,1.39,0,0,1-.36-1,1.15,1.15,0,0,1,.48-1,2.89,2.89,0,0,1,1.47-.37l.76,0v-.19a.6.6,0,0,0-.68-.67,3.11,3.11,0,0,0-1.23.32l-.4-.8a3.46,3.46,0,0,1,1.67-.4,2.11,2.11,0,0,1,1.35.38,1.44,1.44,0,0,1,.47,1.17v2.91Zm-.35-2h-.46a1.44,1.44,0,0,0-.78.19.58.58,0,0,0-.25.52c0,.34.19.51.58.51a.92.92,0,0,0,.66-.24.87.87,0,0,0,.25-.64Z"/>
    <path d="M154.74,40.17h-1.19V37.62a1.24,1.24,0,0,0-.17-.71.61.61,0,0,0-.54-.24.79.79,0,0,0-.72.34,2,2,0,0,0-.22,1.1v2.06h-1.19V35.8h.91l.16.56h.06a1.35,1.35,0,0,1,.55-.48,1.84,1.84,0,0,1,.8-.16,1.52,1.52,0,0,1,1.15.41,1.63,1.63,0,0,1,.4,1.19Z"/>
    <path d="M162,38a2.39,2.39,0,0,1-.56,1.67,2.06,2.06,0,0,1-1.57.6,2.13,2.13,0,0,1-1.11-.28,1.8,1.8,0,0,1-.73-.79,2.53,2.53,0,0,1-.26-1.2,2.31,2.31,0,0,1,.56-1.67,2.06,2.06,0,0,1,1.57-.59A2.23,2.23,0,0,1,161,36a1.86,1.86,0,0,1,.73.79A2.53,2.53,0,0,1,162,38Zm-3,0a1.76,1.76,0,0,0,.22,1,.76.76,0,0,0,.69.33.74.74,0,0,0,.68-.33,1.85,1.85,0,0,0,.21-1,1.83,1.83,0,0,0-.21-1,.9.9,0,0,0-1.38,0A1.83,1.83,0,0,0,159,38Z"/>
    <path d="M165.43,35.72a2.37,2.37,0,0,1,.41,0l-.09,1.12a1.79,1.79,0,0,0-.36,0,1.22,1.22,0,0,0-.88.3,1,1,0,0,0-.32.82v2.22H163V35.8h.9l.17.74h.06a1.67,1.67,0,0,1,.55-.6A1.34,1.34,0,0,1,165.43,35.72Z"/>
    <path d="M170.41,40.18a1.82,1.82,0,0,1-.55,1.42,2.38,2.38,0,0,1-1.64.49,4.6,4.6,0,0,1-1.63-.26v-.95a4.41,4.41,0,0,0,1.7.34c.61,0,.92-.34.92-1v-.08l0-.54h0a1.39,1.39,0,0,1-1.24.65,1.4,1.4,0,0,1-1.21-.61,3.32,3.32,0,0,1,0-3.32,1.45,1.45,0,0,1,1.23-.6,1.47,1.47,0,0,1,1.27.64h0l.1-.56h1Zm-2-.87a.82.82,0,0,0,.69-.27,1.58,1.58,0,0,0,.2-.89V38a1.82,1.82,0,0,0-.21-1,.79.79,0,0,0-.7-.31q-.84,0-.84,1.32a1.83,1.83,0,0,0,.21,1A.7.7,0,0,0,168.4,39.31Z"/>
    <path d="M174.43,40.17l-.23-.59h0a1.72,1.72,0,0,1-.62.52,1.92,1.92,0,0,1-.83.15,1.34,1.34,0,0,1-1-.36,1.39,1.39,0,0,1-.36-1,1.16,1.16,0,0,1,.49-1,2.86,2.86,0,0,1,1.47-.37l.75,0v-.19a.6.6,0,0,0-.68-.67,3.11,3.11,0,0,0-1.23.32l-.39-.8a3.46,3.46,0,0,1,1.67-.4,2.11,2.11,0,0,1,1.35.38,1.44,1.44,0,0,1,.47,1.17v2.91Zm-.36-2h-.46a1.43,1.43,0,0,0-.77.19.58.58,0,0,0-.25.52q0,.51.57.51a.93.93,0,0,0,.67-.24.86.86,0,0,0,.24-.64Z"/>
    <path d="M180.52,40.17h-1.2V37.62a1.24,1.24,0,0,0-.16-.71.62.62,0,0,0-.54-.24.79.79,0,0,0-.72.34,2,2,0,0,0-.22,1.1v2.06h-1.2V35.8h.91l.16.56h.07a1.29,1.29,0,0,1,.55-.48,1.83,1.83,0,0,1,.79-.16,1.55,1.55,0,0,1,1.16.41,1.68,1.68,0,0,1,.4,1.19Z"/>
    <path d="M181.69,34.67c0-.38.22-.58.65-.58s.65.2.65.58a.58.58,0,0,1-.16.43.66.66,0,0,1-.49.16C181.91,35.26,181.69,35.06,181.69,34.67Zm1.24,5.5h-1.19V35.8h1.19Z"/>
    <path d="M187.22,40.17h-3.45v-.7l2-2.76h-1.91V35.8h3.26v.78l-2,2.68h2Z"/>
    <path d="M190.86,40.17l-.23-.59h0a1.81,1.81,0,0,1-.62.52,2,2,0,0,1-.83.15,1.34,1.34,0,0,1-1-.36,1.39,1.39,0,0,1-.36-1,1.15,1.15,0,0,1,.48-1,2.92,2.92,0,0,1,1.47-.37l.76,0v-.19a.6.6,0,0,0-.68-.67,3.11,3.11,0,0,0-1.23.32l-.4-.8a3.5,3.5,0,0,1,1.68-.4,2.1,2.1,0,0,1,1.34.38,1.41,1.41,0,0,1,.47,1.17v2.91Zm-.35-2h-.46a1.44,1.44,0,0,0-.78.19.58.58,0,0,0-.25.52c0,.34.19.51.58.51a.92.92,0,0,0,.66-.24.87.87,0,0,0,.25-.64Z"/>
    <path d="M194.76,39.3a2.62,2.62,0,0,0,.75-.14v.89a2.74,2.74,0,0,1-1.1.2,1.35,1.35,0,0,1-1-.36,1.65,1.65,0,0,1-.32-1.09V36.7h-.57v-.51l.65-.4.35-.92h.76v.93h1.22v.9h-1.22v2.1a.49.49,0,0,0,.14.38A.58.58,0,0,0,194.76,39.3Z"/>
    <path d="M196.34,34.67c0-.38.22-.58.65-.58s.65.2.65.58a.55.55,0,0,1-.17.43.63.63,0,0,1-.48.16C196.56,35.26,196.34,35.06,196.34,34.67Zm1.24,5.5h-1.19V35.8h1.19Z"/>
    <path d="M202.8,38a2.39,2.39,0,0,1-.56,1.67,2.06,2.06,0,0,1-1.57.6,2.13,2.13,0,0,1-1.11-.28,1.89,1.89,0,0,1-.74-.79,2.65,2.65,0,0,1-.25-1.2,2.35,2.35,0,0,1,.55-1.67,2.1,2.1,0,0,1,1.58-.59,2.21,2.21,0,0,1,1.1.27,1.88,1.88,0,0,1,.74.79A2.65,2.65,0,0,1,202.8,38Zm-3,0a1.85,1.85,0,0,0,.21,1,.78.78,0,0,0,.7.33.75.75,0,0,0,.68-.33,1.85,1.85,0,0,0,.21-1,1.83,1.83,0,0,0-.21-1A.9.9,0,0,0,200,37,1.83,1.83,0,0,0,199.78,38Z"/>
    <path d="M207.82,40.17h-1.2V37.62a1.24,1.24,0,0,0-.16-.71.62.62,0,0,0-.54-.24.79.79,0,0,0-.72.34,2,2,0,0,0-.22,1.1v2.06h-1.19V35.8h.91l.16.56h.06a1.29,1.29,0,0,1,.55-.48,1.84,1.84,0,0,1,.8-.16,1.54,1.54,0,0,1,1.15.41,1.68,1.68,0,0,1,.4,1.19Z"/>
    <path d="M212.09,38.87a1.22,1.22,0,0,1-.47,1,2.31,2.31,0,0,1-1.39.35,3.92,3.92,0,0,1-.82-.07,2.49,2.49,0,0,1-.62-.19V39a4.57,4.57,0,0,0,.74.26,3.08,3.08,0,0,0,.74.11c.43,0,.64-.13.64-.38a.36.36,0,0,0-.08-.23,1.53,1.53,0,0,0-.3-.2l-.56-.26a3.45,3.45,0,0,1-.74-.39,1.13,1.13,0,0,1-.35-.41,1.35,1.35,0,0,1-.1-.57,1,1,0,0,1,.45-.9,2.22,2.22,0,0,1,1.28-.32,3.62,3.62,0,0,1,1.53.34l-.36.86c-.22-.09-.42-.17-.61-.23a1.9,1.9,0,0,0-.58-.09c-.35,0-.53.1-.53.29a.36.36,0,0,0,.17.28,4.93,4.93,0,0,0,.75.34,3.22,3.22,0,0,1,.74.39,1.25,1.25,0,0,1,.36.41A1.4,1.4,0,0,1,212.09,38.87Z"/>
    <path d="M218.14,38.87a1.22,1.22,0,0,1-.46,1,2.35,2.35,0,0,1-1.4.35,3.75,3.75,0,0,1-.81-.07,2.56,2.56,0,0,1-.63-.19V39a4.38,4.38,0,0,0,.75.26,3.08,3.08,0,0,0,.73.11c.43,0,.65-.13.65-.38a.32.32,0,0,0-.09-.23,1.16,1.16,0,0,0-.29-.2l-.57-.26a3.72,3.72,0,0,1-.74-.39,1,1,0,0,1-.34-.41,1.35,1.35,0,0,1-.11-.57,1,1,0,0,1,.45-.9,2.22,2.22,0,0,1,1.28-.32,3.63,3.63,0,0,1,1.54.34l-.36.86c-.22-.09-.43-.17-.62-.23a1.9,1.9,0,0,0-.58-.09c-.35,0-.52.1-.52.29a.33.33,0,0,0,.17.28,5.17,5.17,0,0,0,.74.34,3.58,3.58,0,0,1,.75.39,1.12,1.12,0,0,1,.35.41A1.25,1.25,0,0,1,218.14,38.87Z"/>
    <path d="M221.85,40.17l-.23-.59h0a1.91,1.91,0,0,1-.62.52,2,2,0,0,1-.83.15,1.34,1.34,0,0,1-1-.36,1.39,1.39,0,0,1-.36-1,1.15,1.15,0,0,1,.48-1,2.89,2.89,0,0,1,1.47-.37l.76,0v-.19a.6.6,0,0,0-.68-.67,3.11,3.11,0,0,0-1.23.32l-.4-.8a3.46,3.46,0,0,1,1.67-.4,2.11,2.11,0,0,1,1.35.38,1.44,1.44,0,0,1,.47,1.17v2.91Zm-.35-2H221a1.44,1.44,0,0,0-.78.19.58.58,0,0,0-.25.52c0,.34.19.51.58.51a.92.92,0,0,0,.66-.24.87.87,0,0,0,.25-.64Z"/>
    <path d="M223.86,34.67c0-.38.21-.58.64-.58s.65.2.65.58a.54.54,0,0,1-.16.43.66.66,0,0,1-.49.16C224.07,35.26,223.86,35.06,223.86,34.67Zm1.24,5.5h-1.19V35.8h1.19Z"/>
    <path d="M227.73,40.25a1.42,1.42,0,0,1-1.21-.6,2.77,2.77,0,0,1-.44-1.66,2.74,2.74,0,0,1,.45-1.67,1.45,1.45,0,0,1,1.23-.6,1.42,1.42,0,0,1,1.26.64h0a4.85,4.85,0,0,1-.09-.87v-1.4h1.19v6.08h-.91L229,39.6H229A1.36,1.36,0,0,1,227.73,40.25Zm.42-1a.8.8,0,0,0,.67-.27,1.52,1.52,0,0,0,.23-.9V38a1.76,1.76,0,0,0-.22-1,.8.8,0,0,0-.7-.3.69.69,0,0,0-.62.34,1.76,1.76,0,0,0-.22,1,1.72,1.72,0,0,0,.22,1A.74.74,0,0,0,228.15,39.3Z"/>
    <path d="M91.46,48.9a2.62,2.62,0,0,0,.75-.14v.89a2.69,2.69,0,0,1-1.09.2,1.34,1.34,0,0,1-1-.36,1.58,1.58,0,0,1-.33-1.09V46.3h-.57v-.51l.66-.4.34-.92H91v.93h1.22v.9H91v2.1a.46.46,0,0,0,.14.38A.55.55,0,0,0,91.46,48.9Z"/>
    <path d="M97.13,49.77H95.94V47.22c0-.63-.24-.95-.71-.95a.82.82,0,0,0-.72.34,2.08,2.08,0,0,0-.22,1.1v2.06H93.1V43.69h1.19v1.24c0,.1,0,.32,0,.68l0,.35h.07a1.36,1.36,0,0,1,1.26-.64,1.57,1.57,0,0,1,1.17.41,1.65,1.65,0,0,1,.4,1.19Z"/>
    <path d="M100.33,49.85a2.3,2.3,0,0,1-1.65-.58,2.23,2.23,0,0,1-.59-1.65,2.42,2.42,0,0,1,.55-1.7,2.22,2.22,0,0,1,3-.07,2,2,0,0,1,.51,1.45v.58H99.3a1.14,1.14,0,0,0,.3.8,1.06,1.06,0,0,0,.79.28,3.5,3.5,0,0,0,.74-.08,4.11,4.11,0,0,0,.74-.26v.92a2.94,2.94,0,0,1-.67.23A4.3,4.3,0,0,1,100.33,49.85Zm-.17-3.68a.75.75,0,0,0-.59.24,1.13,1.13,0,0,0-.25.68H101a1.07,1.07,0,0,0-.23-.68A.79.79,0,0,0,100.16,46.17Z"/>
    <path d="M102.38,45.4h1.3l.83,2.46a3.12,3.12,0,0,1,.14.76h0a3.11,3.11,0,0,1,.16-.76l.81-2.46h1.28l-1.85,4.93a2.19,2.19,0,0,1-.72,1,1.82,1.82,0,0,1-1.1.34,2.48,2.48,0,0,1-.61-.07v-.94a2.26,2.26,0,0,0,.47,0,.82.82,0,0,0,.55-.19A1.28,1.28,0,0,0,104,50l.07-.21Z"/>
    <path d="M112.41,49.77l-.23-.59h0a1.79,1.79,0,0,1-.61.52,2,2,0,0,1-.83.15,1.34,1.34,0,0,1-1-.36,1.35,1.35,0,0,1-.37-1,1.16,1.16,0,0,1,.49-1,2.86,2.86,0,0,1,1.47-.37l.75,0v-.19a.59.59,0,0,0-.67-.66,3.16,3.16,0,0,0-1.24.31l-.39-.8a3.46,3.46,0,0,1,1.67-.4,2.05,2.05,0,0,1,1.35.39,1.41,1.41,0,0,1,.47,1.16v2.91Zm-.36-2h-.46a1.43,1.43,0,0,0-.77.19.58.58,0,0,0-.25.52q0,.51.57.51a.93.93,0,0,0,.67-.24.85.85,0,0,0,.24-.63Z"/>
    <path d="M116.9,45.32a1.49,1.49,0,0,1,.4,0l-.09,1.11a1.61,1.61,0,0,0-.35,0,1.26,1.26,0,0,0-.89.3,1.06,1.06,0,0,0-.31.82v2.22h-1.2V45.4h.91l.17.74h.06a1.67,1.67,0,0,1,.55-.6A1.43,1.43,0,0,1,116.9,45.32Z"/>
    <path d="M120,49.85a2.27,2.27,0,0,1-1.65-.58,2.2,2.2,0,0,1-.6-1.65,2.46,2.46,0,0,1,.55-1.7,2,2,0,0,1,1.52-.6,1.92,1.92,0,0,1,1.44.53,2,2,0,0,1,.52,1.45v.58H119a1.14,1.14,0,0,0,.3.8,1.06,1.06,0,0,0,.79.28,3.67,3.67,0,0,0,.75-.08,4,4,0,0,0,.73-.26v.92a2.94,2.94,0,0,1-.67.23A4.12,4.12,0,0,1,120,49.85Zm-.17-3.68a.78.78,0,0,0-.6.24,1.13,1.13,0,0,0-.24.68h1.67a1,1,0,0,0-.23-.68A.78.78,0,0,0,119.83,46.17Z"/>
    <path d="M124.77,44.27c0-.38.22-.58.65-.58s.65.2.65.58a.58.58,0,0,1-.16.44.7.7,0,0,1-.49.15C125,44.86,124.77,44.66,124.77,44.27Zm1.25,5.5h-1.2V45.4H126Z"/>
    <path d="M131.3,49.77h-1.19V47.22a1.24,1.24,0,0,0-.17-.71.61.61,0,0,0-.54-.24.79.79,0,0,0-.72.34,2,2,0,0,0-.22,1.1v2.06h-1.19V45.4h.91l.16.56h.06a1.35,1.35,0,0,1,.55-.48,1.84,1.84,0,0,1,.8-.16,1.54,1.54,0,0,1,1.15.41,1.63,1.63,0,0,1,.4,1.19Z"/>
    <path d="M137.38,49.77l-.24-.59h0a1.72,1.72,0,0,1-.62.52,2,2,0,0,1-.83.15,1.34,1.34,0,0,1-1-.36,1.39,1.39,0,0,1-.36-1,1.14,1.14,0,0,1,.49-1,2.86,2.86,0,0,1,1.47-.37l.75,0v-.19c0-.44-.22-.66-.68-.66a3.08,3.08,0,0,0-1.23.31l-.39-.8a3.46,3.46,0,0,1,1.67-.4,2.05,2.05,0,0,1,1.35.39,1.41,1.41,0,0,1,.47,1.16v2.91Zm-.36-2h-.46a1.43,1.43,0,0,0-.77.19.58.58,0,0,0-.25.52q0,.51.57.51a.93.93,0,0,0,.67-.24.85.85,0,0,0,.24-.63Z"/>
    <path d="M144.56,48.47a1.22,1.22,0,0,1-.47,1,2.33,2.33,0,0,1-1.39.35,3.92,3.92,0,0,1-.82-.07,2.7,2.7,0,0,1-.63-.19v-1a4.38,4.38,0,0,0,.75.26,3.08,3.08,0,0,0,.73.11c.44,0,.65-.13.65-.38a.36.36,0,0,0-.08-.23,1.53,1.53,0,0,0-.3-.2l-.56-.26a3.22,3.22,0,0,1-.74-.39,1,1,0,0,1-.35-.41,1.35,1.35,0,0,1-.1-.57,1,1,0,0,1,.45-.9,2.2,2.2,0,0,1,1.28-.32,3.62,3.62,0,0,1,1.53.34l-.36.86c-.22-.09-.42-.17-.61-.23a2,2,0,0,0-.58-.09c-.35,0-.53.1-.53.29a.36.36,0,0,0,.17.28,5.17,5.17,0,0,0,.74.34,3.58,3.58,0,0,1,.75.39,1.25,1.25,0,0,1,.36.41A1.4,1.4,0,0,1,144.56,48.47Z"/>
    <path d="M147.33,48.9a2.62,2.62,0,0,0,.75-.14v.89a2.74,2.74,0,0,1-1.1.2,1.35,1.35,0,0,1-1-.36,1.63,1.63,0,0,1-.32-1.09V46.3h-.57v-.51l.65-.4.35-.92h.76v.93H148v.9h-1.22v2.1a.49.49,0,0,0,.14.38A.58.58,0,0,0,147.33,48.9Z"/>
    <path d="M151.4,45.32a1.54,1.54,0,0,1,.4,0l-.09,1.11a1.69,1.69,0,0,0-.35,0,1.24,1.24,0,0,0-.89.3,1.06,1.06,0,0,0-.32.82v2.22H149V45.4h.9l.18.74h.06a1.59,1.59,0,0,1,.55-.6A1.43,1.43,0,0,1,151.4,45.32Z"/>
    <path d="M156.48,47.58a2.34,2.34,0,0,1-.56,1.67,2,2,0,0,1-1.56.6,2.13,2.13,0,0,1-1.11-.28,1.83,1.83,0,0,1-.74-.79,2.65,2.65,0,0,1-.26-1.2,2.36,2.36,0,0,1,.56-1.67,2.06,2.06,0,0,1,1.57-.59,2.23,2.23,0,0,1,1.11.27,2,2,0,0,1,.74.79A2.65,2.65,0,0,1,156.48,47.58Zm-3,0a1.85,1.85,0,0,0,.22,1,.89.89,0,0,0,1.38,0,1.85,1.85,0,0,0,.21-1,1.7,1.7,0,0,0-.22-1,.88.88,0,0,0-1.37,0A1.82,1.82,0,0,0,153.46,47.58Z"/>
    <path d="M161.5,49.77h-1.19V47.22a1.24,1.24,0,0,0-.17-.71.6.6,0,0,0-.53-.24.8.8,0,0,0-.73.34,2,2,0,0,0-.22,1.1v2.06h-1.19V45.4h.91l.16.56h.07a1.26,1.26,0,0,1,.54-.48,1.87,1.87,0,0,1,.8-.16,1.56,1.56,0,0,1,1.16.41,1.67,1.67,0,0,1,.39,1.19Z"/>
    <path d="M166.54,49.78a1.8,1.8,0,0,1-.55,1.43,2.4,2.4,0,0,1-1.63.48,4.39,4.39,0,0,1-1.63-.26v-1a4.34,4.34,0,0,0,1.7.34c.61,0,.92-.33.92-1v-.08l0-.54h0a1.39,1.39,0,0,1-1.24.65,1.41,1.41,0,0,1-1.22-.61,3.35,3.35,0,0,1,0-3.32,1.45,1.45,0,0,1,1.23-.6,1.47,1.47,0,0,1,1.27.64h0l.1-.56h1Zm-2-.87a.8.8,0,0,0,.68-.27,1.47,1.47,0,0,0,.21-.89V47.6a1.72,1.72,0,0,0-.22-1,.76.76,0,0,0-.69-.31q-.84,0-.84,1.32a1.94,1.94,0,0,0,.2,1A.72.72,0,0,0,164.54,48.91Z"/>
    <path d="M169.77,49.85a2.27,2.27,0,0,1-1.65-.58,2.2,2.2,0,0,1-.6-1.65,2.46,2.46,0,0,1,.55-1.7,2,2,0,0,1,1.52-.6,1.92,1.92,0,0,1,1.44.53,2,2,0,0,1,.52,1.45v.58h-2.82a1.14,1.14,0,0,0,.3.8,1.06,1.06,0,0,0,.79.28,3.67,3.67,0,0,0,.75-.08,4.31,4.31,0,0,0,.73-.26v.92a2.94,2.94,0,0,1-.67.23A4.12,4.12,0,0,1,169.77,49.85Zm-.17-3.68a.77.77,0,0,0-.6.24,1.13,1.13,0,0,0-.24.68h1.67a1,1,0,0,0-.23-.68A.78.78,0,0,0,169.6,46.17Z"/>
    <path d="M175,45.32a1.62,1.62,0,0,1,.41,0l-.09,1.11a1.79,1.79,0,0,0-.36,0,1.22,1.22,0,0,0-.88.3,1,1,0,0,0-.32.82v2.22h-1.19V45.4h.9l.17.74h.06a1.67,1.67,0,0,1,.55-.6A1.43,1.43,0,0,1,175,45.32Z"/>
    <path d="M180.62,49.85a1.44,1.44,0,0,1-1.2-.56h-.06q.06.54.06.63v1.77h-1.19V45.4h1l.16.57h.06a1.39,1.39,0,0,1,1.24-.65,1.42,1.42,0,0,1,1.21.6,2.78,2.78,0,0,1,.43,1.66,3.2,3.2,0,0,1-.2,1.21,1.72,1.72,0,0,1-.58.79A1.52,1.52,0,0,1,180.62,49.85Zm-.35-3.58a.74.74,0,0,0-.64.27,1.51,1.51,0,0,0-.21.9v.13a1.85,1.85,0,0,0,.21,1,.75.75,0,0,0,.66.3c.53,0,.8-.44.8-1.32a1.86,1.86,0,0,0-.2-1A.67.67,0,0,0,180.27,46.27Z"/>
    <path d="M187.26,47.58a2.39,2.39,0,0,1-.56,1.67,2.06,2.06,0,0,1-1.57.6,2.13,2.13,0,0,1-1.11-.28,1.83,1.83,0,0,1-.74-.79,2.65,2.65,0,0,1-.26-1.2,2.36,2.36,0,0,1,.56-1.67,2.07,2.07,0,0,1,1.57-.59,2.23,2.23,0,0,1,1.11.27,1.88,1.88,0,0,1,.74.79A2.65,2.65,0,0,1,187.26,47.58Zm-3,0a1.85,1.85,0,0,0,.21,1,.89.89,0,0,0,1.38,0,1.85,1.85,0,0,0,.21-1,1.79,1.79,0,0,0-.21-1,.76.76,0,0,0-.69-.33.77.77,0,0,0-.69.32A1.83,1.83,0,0,0,184.24,47.58Z"/>
    <path d="M191.29,48.47a1.22,1.22,0,0,1-.47,1,2.33,2.33,0,0,1-1.39.35,3.92,3.92,0,0,1-.82-.07,2.7,2.7,0,0,1-.63-.19v-1a5.07,5.07,0,0,0,.75.26,3.08,3.08,0,0,0,.73.11c.44,0,.65-.13.65-.38a.36.36,0,0,0-.08-.23,1.53,1.53,0,0,0-.3-.2l-.56-.26a3.22,3.22,0,0,1-.74-.39,1.13,1.13,0,0,1-.35-.41,1.35,1.35,0,0,1-.1-.57,1,1,0,0,1,.45-.9,2.2,2.2,0,0,1,1.28-.32,3.62,3.62,0,0,1,1.53.34l-.36.86c-.22-.09-.42-.17-.61-.23a2,2,0,0,0-.58-.09c-.35,0-.53.1-.53.29a.36.36,0,0,0,.17.28,5.17,5.17,0,0,0,.74.34,3.12,3.12,0,0,1,.75.39,1.25,1.25,0,0,1,.36.41A1.4,1.4,0,0,1,191.29,48.47Z"/>
    <path d="M192.17,44.27c0-.38.21-.58.65-.58s.64.2.64.58a.58.58,0,0,1-.16.44.69.69,0,0,1-.48.15C192.38,44.86,192.17,44.66,192.17,44.27Zm1.24,5.5h-1.19V45.4h1.19Z"/>
    <path d="M196.5,48.9a2.62,2.62,0,0,0,.75-.14v.89a2.72,2.72,0,0,1-1.09.2,1.32,1.32,0,0,1-1-.36,1.58,1.58,0,0,1-.33-1.09V46.3h-.57v-.51l.66-.4.34-.92H196v.93h1.22v.9H196v2.1a.49.49,0,0,0,.14.38A.58.58,0,0,0,196.5,48.9Z"/>
    <path d="M198.08,44.27c0-.38.22-.58.65-.58s.65.2.65.58a.62.62,0,0,1-.16.44.7.7,0,0,1-.49.15C198.3,44.86,198.08,44.66,198.08,44.27Zm1.24,5.5h-1.19V45.4h1.19Z"/>
    <path d="M204.54,47.58a2.34,2.34,0,0,1-.56,1.67,2,2,0,0,1-1.57.6,2.13,2.13,0,0,1-1.11-.28,1.8,1.8,0,0,1-.73-.79,2.53,2.53,0,0,1-.26-1.2,2.31,2.31,0,0,1,.56-1.67,2.06,2.06,0,0,1,1.57-.59,2.23,2.23,0,0,1,1.11.27,2,2,0,0,1,.74.79A2.65,2.65,0,0,1,204.54,47.58Zm-3,0a1.76,1.76,0,0,0,.22,1,.89.89,0,0,0,1.38,0,2,2,0,0,0,.2-1,1.79,1.79,0,0,0-.21-1,.76.76,0,0,0-.69-.33.78.78,0,0,0-.69.32A1.83,1.83,0,0,0,201.52,47.58Z"/>
    <path d="M209.56,49.77h-1.19V47.22a1.24,1.24,0,0,0-.17-.71.61.61,0,0,0-.54-.24.79.79,0,0,0-.72.34,2,2,0,0,0-.22,1.1v2.06h-1.19V45.4h.91l.16.56h.06a1.35,1.35,0,0,1,.55-.48,1.87,1.87,0,0,1,.8-.16,1.52,1.52,0,0,1,1.15.41,1.63,1.63,0,0,1,.4,1.19Z"/>
    <path d="M214.7,48.9a2.62,2.62,0,0,0,.75-.14v.89a2.69,2.69,0,0,1-1.09.2,1.34,1.34,0,0,1-1-.36A1.58,1.58,0,0,1,213,48.4V46.3h-.57v-.51l.66-.4.34-.92h.76v.93h1.23v.9h-1.23v2.1a.46.46,0,0,0,.15.38A.55.55,0,0,0,214.7,48.9Z"/>
    <path d="M220.3,47.58a2.34,2.34,0,0,1-.56,1.67,2,2,0,0,1-1.56.6,2.13,2.13,0,0,1-1.11-.28,1.83,1.83,0,0,1-.74-.79,2.65,2.65,0,0,1-.26-1.2,2.36,2.36,0,0,1,.56-1.67,2.06,2.06,0,0,1,1.57-.59,2.23,2.23,0,0,1,1.11.27,1.88,1.88,0,0,1,.74.79A2.65,2.65,0,0,1,220.3,47.58Zm-3,0a1.85,1.85,0,0,0,.21,1,.89.89,0,0,0,1.38,0,1.85,1.85,0,0,0,.21-1,1.79,1.79,0,0,0-.21-1,.78.78,0,0,0-.7-.33.76.76,0,0,0-.68.32A1.83,1.83,0,0,0,217.29,47.58Z"/>
    <path d="M225.14,49.85c-1.36,0-2-.75-2-2.24a2.39,2.39,0,0,1,.56-1.7,2.09,2.09,0,0,1,1.59-.59,3,3,0,0,1,1.36.3l-.36.92a4.79,4.79,0,0,0-.52-.19,2,2,0,0,0-.48-.07q-.93,0-.93,1.32c0,.86.31,1.28.93,1.28a2.13,2.13,0,0,0,.63-.09,2.3,2.3,0,0,0,.59-.29v1a1.81,1.81,0,0,1-.59.26A3.64,3.64,0,0,1,225.14,49.85Z"/>
    <path d="M231.45,47.58a2.39,2.39,0,0,1-.56,1.67,2.06,2.06,0,0,1-1.57.6,2.13,2.13,0,0,1-1.11-.28,1.83,1.83,0,0,1-.74-.79,2.65,2.65,0,0,1-.26-1.2,2.36,2.36,0,0,1,.56-1.67,2.09,2.09,0,0,1,1.57-.59,2.23,2.23,0,0,1,1.11.27,1.88,1.88,0,0,1,.74.79A2.65,2.65,0,0,1,231.45,47.58Zm-3,0a1.85,1.85,0,0,0,.21,1,.77.77,0,0,0,.7.33.75.75,0,0,0,.68-.33,1.85,1.85,0,0,0,.21-1,1.79,1.79,0,0,0-.21-1,.76.76,0,0,0-.69-.33.77.77,0,0,0-.69.32A1.83,1.83,0,0,0,228.43,47.58Z"/>
    <path d="M234.83,49.85a1.48,1.48,0,0,1-1.21-.56h-.06q.06.54.06.63v1.77h-1.19V45.4h1l.17.57h.05a1.51,1.51,0,0,1,2.45,0,2.71,2.71,0,0,1,.44,1.66,3.41,3.41,0,0,1-.2,1.21,1.74,1.74,0,0,1-.59.79A1.49,1.49,0,0,1,234.83,49.85Zm-.35-3.58a.74.74,0,0,0-.64.27,1.58,1.58,0,0,0-.22.9v.13a1.85,1.85,0,0,0,.21,1,.76.76,0,0,0,.67.3c.53,0,.8-.44.8-1.32a1.86,1.86,0,0,0-.2-1A.67.67,0,0,0,234.48,46.27Z"/>
    <path d="M239.47,49.85a2.3,2.3,0,0,1-1.65-.58,2.23,2.23,0,0,1-.59-1.65,2.42,2.42,0,0,1,.55-1.7,2.22,2.22,0,0,1,3-.07,2,2,0,0,1,.51,1.45v.58h-2.81a1.14,1.14,0,0,0,.3.8,1.06,1.06,0,0,0,.79.28,3.5,3.5,0,0,0,.74-.08,4.11,4.11,0,0,0,.74-.26v.92a2.94,2.94,0,0,1-.67.23A4.3,4.3,0,0,1,239.47,49.85Zm-.17-3.68a.75.75,0,0,0-.59.24,1.2,1.2,0,0,0-.25.68h1.68a1.07,1.07,0,0,0-.23-.68A.79.79,0,0,0,239.3,46.17Z"/>
    <path d="M93.21,59.37l-.33-1.53-.45-1.93h0l-.8,3.46H90.32L89.08,55h1.19l.5,1.94c.06.23.14.7.24,1.43h0a6.43,6.43,0,0,1,.14-.94l.06-.33.54-2.1h1.31l.51,2.1q0,.21.12.63a5.07,5.07,0,0,1,.07.64h0c0-.23.07-.5.13-.79a5.7,5.7,0,0,1,.13-.64L94.6,55h1.17l-1.26,4.37Z"/>
    <path d="M96.42,53.87c0-.38.22-.58.65-.58s.65.2.65.58a.58.58,0,0,1-.16.43.66.66,0,0,1-.49.16C96.64,54.46,96.42,54.26,96.42,53.87Zm1.24,5.5H96.47V55h1.19Z"/>
    <path d="M100.75,58.5a2.62,2.62,0,0,0,.75-.14v.89a2.69,2.69,0,0,1-1.09.2,1.34,1.34,0,0,1-1-.36A1.6,1.6,0,0,1,99,58V55.9h-.57v-.51l.66-.4.34-.92h.76V55h1.23v.9h-1.23V58a.46.46,0,0,0,.15.38A.55.55,0,0,0,100.75,58.5Z"/>
    <path d="M106.42,59.37h-1.19V56.82c0-.63-.24-1-.71-1a.82.82,0,0,0-.72.34,2.08,2.08,0,0,0-.22,1.1v2.06h-1.19V53.29h1.19v1.24c0,.1,0,.32,0,.68l0,.35h.07a1.36,1.36,0,0,1,1.26-.64,1.59,1.59,0,0,1,1.17.41,1.65,1.65,0,0,1,.4,1.19Z"/>
    <path d="M112.77,58.07a1.22,1.22,0,0,1-.47,1,2.31,2.31,0,0,1-1.39.35,3.92,3.92,0,0,1-.82-.07,2.7,2.7,0,0,1-.63-.19v-1a5.07,5.07,0,0,0,.75.26,3.08,3.08,0,0,0,.74.11c.43,0,.64-.13.64-.38a.36.36,0,0,0-.08-.23,1.53,1.53,0,0,0-.3-.2l-.56-.26a3.45,3.45,0,0,1-.74-.39,1.13,1.13,0,0,1-.35-.41,1.35,1.35,0,0,1-.1-.57,1,1,0,0,1,.45-.9,2.2,2.2,0,0,1,1.28-.32,3.62,3.62,0,0,1,1.53.34l-.36.86c-.22-.09-.42-.17-.61-.23a1.9,1.9,0,0,0-.58-.09c-.35,0-.53.1-.53.29a.36.36,0,0,0,.17.28,5.17,5.17,0,0,0,.74.34,3.12,3.12,0,0,1,.75.39,1.25,1.25,0,0,1,.36.41A1.4,1.4,0,0,1,112.77,58.07Z"/>
    <path d="M115.54,58.5a2.62,2.62,0,0,0,.75-.14v.89a2.72,2.72,0,0,1-1.09.2,1.36,1.36,0,0,1-1-.36,1.65,1.65,0,0,1-.32-1.09V55.9h-.57v-.51l.65-.4.35-.92H115V55h1.22v.9H115V58a.49.49,0,0,0,.14.38A.58.58,0,0,0,115.54,58.5Z"/>
    <path d="M119.61,54.92a1.54,1.54,0,0,1,.4,0l-.09,1.11a1.61,1.61,0,0,0-.35,0,1.24,1.24,0,0,0-.89.3,1,1,0,0,0-.32.82v2.22h-1.19V55h.9l.18.74h.06a1.59,1.59,0,0,1,.55-.6A1.43,1.43,0,0,1,119.61,54.92Z"/>
    <path d="M123.9,59.37l-.16-.56h-.06a1.27,1.27,0,0,1-.55.47,1.85,1.85,0,0,1-.8.17,1.55,1.55,0,0,1-1.16-.41,1.67,1.67,0,0,1-.39-1.19V55H122v2.55a1.24,1.24,0,0,0,.17.71.61.61,0,0,0,.54.24.79.79,0,0,0,.72-.34,2,2,0,0,0,.22-1.1V55h1.19v4.37Z"/>
    <path d="M127.84,59.45c-1.36,0-2-.75-2-2.24a2.38,2.38,0,0,1,.55-1.7,2.09,2.09,0,0,1,1.59-.59,3,3,0,0,1,1.36.3l-.35.92c-.19-.08-.36-.14-.52-.19a2.14,2.14,0,0,0-.49-.07q-.93,0-.93,1.32c0,.86.31,1.28.93,1.28a2.2,2.2,0,0,0,.64-.09,2.25,2.25,0,0,0,.58-.29v1a1.76,1.76,0,0,1-.58.26A3.79,3.79,0,0,1,127.84,59.45Z"/>
    <path d="M132,58.5a2.75,2.75,0,0,0,.75-.14v.89a2.77,2.77,0,0,1-1.1.2,1.35,1.35,0,0,1-1-.36A1.6,1.6,0,0,1,130.3,58V55.9h-.57v-.51l.66-.4.34-.92h.77V55h1.22v.9H131.5V58a.46.46,0,0,0,.14.38A.56.56,0,0,0,132,58.5Z"/>
    <path d="M136.74,59.37l-.16-.56h-.06a1.3,1.3,0,0,1-.54.47,1.91,1.91,0,0,1-.8.17A1.53,1.53,0,0,1,134,59a1.63,1.63,0,0,1-.4-1.19V55h1.2v2.55a1.24,1.24,0,0,0,.16.71.62.62,0,0,0,.54.24.79.79,0,0,0,.72-.34,2,2,0,0,0,.22-1.1V55h1.2v4.37Z"/>
    <path d="M141.34,54.92a1.62,1.62,0,0,1,.41,0l-.09,1.11a1.79,1.79,0,0,0-.36,0,1.22,1.22,0,0,0-.88.3,1,1,0,0,0-.32.82v2.22h-1.19V55h.9l.17.74H140a1.67,1.67,0,0,1,.55-.6A1.43,1.43,0,0,1,141.34,54.92Z"/>
    <path d="M145.23,59.37l-.23-.59h0a1.72,1.72,0,0,1-.62.52,2,2,0,0,1-.83.15,1.34,1.34,0,0,1-1-.36,1.39,1.39,0,0,1-.36-1,1.14,1.14,0,0,1,.49-1,2.85,2.85,0,0,1,1.46-.37l.76,0v-.19a.6.6,0,0,0-.68-.67,3.11,3.11,0,0,0-1.23.32l-.39-.8a3.46,3.46,0,0,1,1.67-.4,2.11,2.11,0,0,1,1.35.38,1.44,1.44,0,0,1,.47,1.17v2.91Zm-.35-2h-.46a1.43,1.43,0,0,0-.77.19.59.59,0,0,0-.26.52c0,.34.2.51.58.51a.89.89,0,0,0,.66-.24.82.82,0,0,0,.25-.63Z"/>
    <path d="M148.48,59.37h-1.19V53.29h1.19Z"/>
    <path d="M153.59,59.45c-1.36,0-2-.75-2-2.24a2.38,2.38,0,0,1,.55-1.7,2.09,2.09,0,0,1,1.59-.59,3,3,0,0,1,1.36.3l-.35.92c-.19-.08-.36-.14-.52-.19a2.14,2.14,0,0,0-.49-.07q-.93,0-.93,1.32c0,.86.31,1.28.93,1.28a2.2,2.2,0,0,0,.64-.09,2.25,2.25,0,0,0,.58-.29v1a1.76,1.76,0,0,1-.58.26A3.79,3.79,0,0,1,153.59,59.45Z"/>
    <path d="M160,59.37h-1.19V56.82c0-.63-.24-1-.71-1a.82.82,0,0,0-.72.34,2.08,2.08,0,0,0-.22,1.1v2.06h-1.19V53.29h1.19v1.24c0,.1,0,.32,0,.68l0,.35h.06a1.38,1.38,0,0,1,1.27-.64,1.59,1.59,0,0,1,1.17.41,1.69,1.69,0,0,1,.4,1.19Z"/>
    <path d="M164,59.37l-.23-.59h0a1.91,1.91,0,0,1-.62.52,2,2,0,0,1-.83.15,1.34,1.34,0,0,1-1-.36,1.35,1.35,0,0,1-.37-1,1.16,1.16,0,0,1,.49-1,2.89,2.89,0,0,1,1.47-.37l.76,0v-.19a.6.6,0,0,0-.68-.67,3.11,3.11,0,0,0-1.23.32l-.4-.8a3.46,3.46,0,0,1,1.67-.4,2.11,2.11,0,0,1,1.35.38,1.44,1.44,0,0,1,.47,1.17v2.91Zm-.35-2h-.47a1.43,1.43,0,0,0-.77.19.58.58,0,0,0-.25.52c0,.34.19.51.58.51a.92.92,0,0,0,.66-.24.86.86,0,0,0,.25-.63Z"/>
    <path d="M170.05,59.37h-1.19V56.82a1.24,1.24,0,0,0-.17-.71.61.61,0,0,0-.54-.24.79.79,0,0,0-.72.34,2,2,0,0,0-.22,1.1v2.06H166V55h.91l.16.56h.06a1.35,1.35,0,0,1,.55-.48,1.84,1.84,0,0,1,.8-.16,1.54,1.54,0,0,1,1.15.41,1.63,1.63,0,0,1,.4,1.19Z"/>
    <path d="M175.09,59.38a1.78,1.78,0,0,1-.55,1.42,2.37,2.37,0,0,1-1.63.49,4.44,4.44,0,0,1-1.64-.26v-1a4.42,4.42,0,0,0,1.71.34c.61,0,.91-.34.91-1v-.08l0-.54h0a1.37,1.37,0,0,1-1.23.65,1.4,1.4,0,0,1-1.22-.61,3.35,3.35,0,0,1,0-3.32,1.43,1.43,0,0,1,1.23-.6,1.46,1.46,0,0,1,1.26.64h0l.1-.56h1Zm-2-.87a.82.82,0,0,0,.69-.27,1.5,1.5,0,0,0,.21-.89V57.2a1.8,1.8,0,0,0-.22-1,.78.78,0,0,0-.7-.31q-.84,0-.84,1.32a1.83,1.83,0,0,0,.21,1A.71.71,0,0,0,173.08,58.51Z"/>
    <path d="M178.31,59.45a2.3,2.3,0,0,1-1.65-.58,2.23,2.23,0,0,1-.59-1.65,2.42,2.42,0,0,1,.55-1.7,2.22,2.22,0,0,1,3-.07,2,2,0,0,1,.51,1.45v.58h-2.81a1.15,1.15,0,0,0,.3.8,1.06,1.06,0,0,0,.79.28,3.5,3.5,0,0,0,.74-.08,4.11,4.11,0,0,0,.74-.26v.92a2.94,2.94,0,0,1-.67.23A4.3,4.3,0,0,1,178.31,59.45Zm-.17-3.68a.75.75,0,0,0-.59.24,1.2,1.2,0,0,0-.25.68H179a1.07,1.07,0,0,0-.23-.68A.79.79,0,0,0,178.14,55.77Z"/>
    <path d="M184.11,58.07a1.22,1.22,0,0,1-.47,1,2.31,2.31,0,0,1-1.39.35,3.92,3.92,0,0,1-.82-.07,2.7,2.7,0,0,1-.63-.19v-1a5.07,5.07,0,0,0,.75.26,3.08,3.08,0,0,0,.74.11c.43,0,.64-.13.64-.38a.36.36,0,0,0-.08-.23,1.53,1.53,0,0,0-.3-.2l-.56-.26a3.45,3.45,0,0,1-.74-.39,1.13,1.13,0,0,1-.35-.41,1.35,1.35,0,0,1-.1-.57,1,1,0,0,1,.45-.9,2.2,2.2,0,0,1,1.28-.32,3.62,3.62,0,0,1,1.53.34l-.36.86c-.22-.09-.42-.17-.61-.23a1.9,1.9,0,0,0-.58-.09c-.35,0-.53.1-.53.29a.36.36,0,0,0,.17.28,5.17,5.17,0,0,0,.74.34,3.12,3.12,0,0,1,.75.39,1.25,1.25,0,0,1,.36.41A1.4,1.4,0,0,1,184.11,58.07Z"/>
    <path d="M187.07,53.87c0-.38.21-.58.64-.58s.65.2.65.58a.54.54,0,0,1-.16.43.66.66,0,0,1-.49.16C187.28,54.46,187.07,54.26,187.07,53.87Zm1.24,5.5h-1.19V55h1.19Z"/>
    <path d="M193.59,59.37H192.4V56.82a1.24,1.24,0,0,0-.17-.71.6.6,0,0,0-.53-.24.8.8,0,0,0-.73.34,2,2,0,0,0-.22,1.1v2.06h-1.19V55h.91l.16.56h.07a1.26,1.26,0,0,1,.54-.48,1.87,1.87,0,0,1,.8-.16,1.56,1.56,0,0,1,1.16.41,1.67,1.67,0,0,1,.39,1.19Z"/>
    <path d="M198.73,58.5a2.62,2.62,0,0,0,.75-.14v.89a2.69,2.69,0,0,1-1.09.2,1.34,1.34,0,0,1-1-.36A1.6,1.6,0,0,1,197,58V55.9h-.57v-.51l.66-.4.34-.92h.76V55h1.23v.9h-1.23V58a.46.46,0,0,0,.15.38A.55.55,0,0,0,198.73,58.5Z"/>
    <path d="M204.4,59.37h-1.19V56.82c0-.63-.24-1-.71-1a.82.82,0,0,0-.72.34,2.08,2.08,0,0,0-.22,1.1v2.06h-1.19V53.29h1.19v1.24c0,.1,0,.32,0,.68l0,.35h.07a1.36,1.36,0,0,1,1.26-.64,1.59,1.59,0,0,1,1.17.41,1.65,1.65,0,0,1,.4,1.19Z"/>
    <path d="M207.6,59.45a2.3,2.3,0,0,1-1.65-.58,2.23,2.23,0,0,1-.59-1.65,2.42,2.42,0,0,1,.55-1.7,2.22,2.22,0,0,1,3-.07,2,2,0,0,1,.51,1.45v.58h-2.81a1.15,1.15,0,0,0,.3.8,1,1,0,0,0,.79.28,3.5,3.5,0,0,0,.74-.08,4.11,4.11,0,0,0,.74-.26v.92a2.94,2.94,0,0,1-.67.23A4.3,4.3,0,0,1,207.6,59.45Zm-.17-3.68a.75.75,0,0,0-.59.24,1.13,1.13,0,0,0-.25.68h1.68A1.07,1.07,0,0,0,208,56,.79.79,0,0,0,207.43,55.77Z"/>
    <path d="M92.05,64.52a1.44,1.44,0,0,1,1.22.6,2.82,2.82,0,0,1,.43,1.66,2.7,2.7,0,0,1-.45,1.67,1.56,1.56,0,0,1-2.43,0h-.09l-.19.48h-.92V62.89h1.2v1.42c0,.18,0,.46,0,.86h0A1.37,1.37,0,0,1,92.05,64.52Zm-.38,1a.72.72,0,0,0-.64.28,1.45,1.45,0,0,0-.21.89v.13a1.83,1.83,0,0,0,.21,1,.73.73,0,0,0,.66.3.66.66,0,0,0,.58-.33,1.82,1.82,0,0,0,.22-1,1.66,1.66,0,0,0-.22-1A.69.69,0,0,0,91.67,65.47Z"/>
    <path d="M97.78,69l-.16-.56h-.06a1.3,1.3,0,0,1-.54.47,1.92,1.92,0,0,1-.81.17,1.55,1.55,0,0,1-1.16-.41,1.67,1.67,0,0,1-.39-1.19V64.6h1.2v2.55a1.22,1.22,0,0,0,.16.71.61.61,0,0,0,.54.24.79.79,0,0,0,.72-.34,2,2,0,0,0,.22-1.1V64.6h1.2V69Z"/>
    <path d="M103,67.67a1.22,1.22,0,0,1-.46,1,2.37,2.37,0,0,1-1.4.35,3.75,3.75,0,0,1-.81-.07,2.44,2.44,0,0,1-.63-.19v-1a4.38,4.38,0,0,0,.75.26,3,3,0,0,0,.73.11c.43,0,.65-.13.65-.38a.32.32,0,0,0-.09-.23,1.53,1.53,0,0,0-.3-.2c-.14-.07-.32-.16-.56-.26a3.72,3.72,0,0,1-.74-.39,1,1,0,0,1-.34-.41,1.21,1.21,0,0,1-.11-.57,1,1,0,0,1,.45-.9,2.22,2.22,0,0,1,1.28-.32,3.63,3.63,0,0,1,1.54.34l-.36.86c-.22-.09-.43-.17-.62-.23a1.9,1.9,0,0,0-.58-.09c-.35,0-.53.1-.53.29A.36.36,0,0,0,101,66a5.48,5.48,0,0,0,.75.34,3.58,3.58,0,0,1,.75.39,1.22,1.22,0,0,1,.35.41A1.4,1.4,0,0,1,103,67.67Z"/>
    <path d="M103.87,63.47c0-.38.22-.58.65-.58s.65.2.65.58a.62.62,0,0,1-.16.44.7.7,0,0,1-.49.15C104.09,64.06,103.87,63.86,103.87,63.47Zm1.24,5.5h-1.19V64.6h1.19Z"/>
    <path d="M110.39,69H109.2V66.42a1.24,1.24,0,0,0-.16-.71.63.63,0,0,0-.54-.24.79.79,0,0,0-.72.34,2,2,0,0,0-.23,1.11v2h-1.19V64.6h.91l.16.56h.07a1.29,1.29,0,0,1,.55-.48,1.83,1.83,0,0,1,.79-.16,1.55,1.55,0,0,1,1.16.41,1.67,1.67,0,0,1,.39,1.19Z"/>
    <path d="M113.6,69.05a2.27,2.27,0,0,1-1.65-.58,2.19,2.19,0,0,1-.59-1.65,2.46,2.46,0,0,1,.54-1.7,2,2,0,0,1,1.52-.6,1.92,1.92,0,0,1,1.44.53,2,2,0,0,1,.52,1.45v.58h-2.82a1.23,1.23,0,0,0,.3.8,1.06,1.06,0,0,0,.79.28,3.59,3.59,0,0,0,.75-.08,4,4,0,0,0,.73-.26v.92a2.94,2.94,0,0,1-.67.23A4.12,4.12,0,0,1,113.6,69.05Zm-.17-3.68a.75.75,0,0,0-.59.24,1.07,1.07,0,0,0-.25.68h1.67a1,1,0,0,0-.23-.68A.78.78,0,0,0,113.43,65.37Z"/>
    <path d="M119.39,67.67a1.22,1.22,0,0,1-.46,1,2.35,2.35,0,0,1-1.4.35,3.75,3.75,0,0,1-.81-.07,2.56,2.56,0,0,1-.63-.19v-1a4.38,4.38,0,0,0,.75.26,3.08,3.08,0,0,0,.73.11c.43,0,.65-.13.65-.38a.32.32,0,0,0-.09-.23,1.16,1.16,0,0,0-.29-.2l-.57-.26a3.72,3.72,0,0,1-.74-.39,1.1,1.1,0,0,1-.34-.41,1.35,1.35,0,0,1-.11-.57,1,1,0,0,1,.45-.9,2.22,2.22,0,0,1,1.28-.32,3.63,3.63,0,0,1,1.54.34l-.36.86-.61-.23a2,2,0,0,0-.59-.09c-.35,0-.52.1-.52.29a.33.33,0,0,0,.17.28,5.17,5.17,0,0,0,.74.34,3.58,3.58,0,0,1,.75.39,1.12,1.12,0,0,1,.35.41A1.25,1.25,0,0,1,119.39,67.67Z"/>
    <path d="M123.37,67.67a1.22,1.22,0,0,1-.47,1,2.31,2.31,0,0,1-1.39.35,3.75,3.75,0,0,1-.81-.07,2.44,2.44,0,0,1-.63-.19v-1a4.57,4.57,0,0,0,.74.26,3.16,3.16,0,0,0,.74.11c.43,0,.65-.13.65-.38a.32.32,0,0,0-.09-.23,1.53,1.53,0,0,0-.3-.2l-.56-.26a3.45,3.45,0,0,1-.74-.39,1,1,0,0,1-.34-.41,1.21,1.21,0,0,1-.11-.57,1,1,0,0,1,.45-.9,2.22,2.22,0,0,1,1.28-.32,3.59,3.59,0,0,1,1.53.34l-.36.86c-.21-.09-.42-.17-.61-.23a1.9,1.9,0,0,0-.58-.09c-.35,0-.53.1-.53.29a.36.36,0,0,0,.17.28,5.48,5.48,0,0,0,.75.34,3.58,3.58,0,0,1,.75.39,1.34,1.34,0,0,1,.35.41A1.4,1.4,0,0,1,123.37,67.67Z"/>
    <path d="M124.13,68.41a.75.75,0,0,1,.06-.31.48.48,0,0,1,.14-.2.59.59,0,0,1,.22-.12,1.12,1.12,0,0,1,.27,0,1.09,1.09,0,0,1,.26,0,.68.68,0,0,1,.22.12.62.62,0,0,1,.15.2,1,1,0,0,1,0,.31.85.85,0,0,1,0,.3.8.8,0,0,1-.15.21.94.94,0,0,1-.22.12.9.9,0,0,1-.53,0,.78.78,0,0,1-.22-.12.6.6,0,0,1-.14-.21A.67.67,0,0,1,124.13,68.41Z"/>
  </g>
  <path d="M39.3,82.39A36.2,36.2,0,1,0,3.11,46.19,36.2,36.2,0,0,0,39.3,82.39" style="fill: #e33113"/>
  <path d="M31.05,37.32a7.19,7.19,0,0,1,7.19-7.19M48.81,50.42h2.53a7.61,7.61,0,1,0-2.67-14.73,10.56,10.56,0,0,0-21,1.26,8.29,8.29,0,0,0-.87-.06,6.77,6.77,0,0,0,0,13.53h3.39M32.74,47v8.45h-9.3m6.77,6.77V58.88h5.91V47M23.44,53.8H20.06v3.38h3.38Zm8.46,8.46H28.52v3.38H31.9ZM46.27,47v8.45h9.3m-6.76,6.77V58.88H42.89V47m-8.46-3.38H44.58m-16.06-.85V47h22V42.81M39.51,47V62.26M55.57,53.8H59v3.38H55.57Zm-8.45,8.46H50.5v3.38H47.12Zm-9.3,0H41.2v3.38H37.82Z" style="fill: none;stroke: #fff;stroke-miterlimit: 10;stroke-width: 1.25600004196167px"/>
</svg>
