<svg id="Layer_1" data-name="Layer 1" xmlns="http://www.w3.org/2000/svg" xmlns:xlink="http://www.w3.org/1999/xlink" viewBox="0 0 1615.75 391.95">
  <defs>
    <linearGradient id="linear-gradient" x1="338.17" y1="250.12" x2="1614.92" y2="250.12" gradientUnits="userSpaceOnUse">
      <stop offset="0" stop-color="#cbd5e0" stop-opacity="0"/>
      <stop offset="1" stop-color="#cbd5e0"/>
    </linearGradient>
  </defs>
  <title>native_stage3</title>
  <line x1="283.02" y1="19.54" x2="283.02" y2="391.71" style="fill: none;stroke: gray;stroke-miterlimit: 10"/>
  <rect x="338.17" y="131.23" width="1276.75" height="237.77" style="opacity: 0.5;fill: url(#linear-gradient)"/>
  <line x1="723.02" y1="19.54" x2="723.02" y2="391.71" style="fill: none;stroke: gray;stroke-miterlimit: 10"/>
  <line x1="1162.63" y1="19.83" x2="1162.63" y2="392" style="fill: none;stroke: gray;stroke-miterlimit: 10"/>
  <line x1="0.42" y1="111.44" x2="1614.31" y2="111.44" style="fill: none;stroke: gray;stroke-miterlimit: 10"/>
  <g>
    <path d="M73.84,245.45a7.16,7.16,0,0,1,2.56,4.7H73.46A5.63,5.63,0,0,0,71.51,247a6.44,6.44,0,0,0-4.11-1.17A6.76,6.76,0,0,0,62.19,248c-1.33,1.43-2,3.63-2,6.58A9.23,9.23,0,0,0,62,260.43a6.44,6.44,0,0,0,5.35,2.25,5.76,5.76,0,0,0,5-2.37A8.75,8.75,0,0,0,73.67,257h2.94A9.11,9.11,0,0,1,74,262.49,9.48,9.48,0,0,1,67,265.14,9.65,9.65,0,0,1,60.54,263q-3.42-2.88-3.43-8.9a10.89,10.89,0,0,1,2.58-7.49,9.65,9.65,0,0,1,7.67-3.18A9.42,9.42,0,0,1,73.84,245.45Z"/>
    <path d="M80.21,244h2.73v20.64H80.21Z"/>
    <path d="M98.77,251.05a7.29,7.29,0,0,1,2.15,5.7,9.37,9.37,0,0,1-1.89,6c-1.27,1.58-3.22,2.37-5.88,2.37a6.88,6.88,0,0,1-5.28-2.1,8,8,0,0,1-2-5.64,8.61,8.61,0,0,1,2.06-6,7.16,7.16,0,0,1,5.53-2.24A7.54,7.54,0,0,1,98.77,251.05Zm-1.69,10a9,9,0,0,0,1-4.23,7.13,7.13,0,0,0-.72-3.43,4.11,4.11,0,0,0-3.92-2.08,4,4,0,0,0-3.6,1.77,7.79,7.79,0,0,0-1.12,4.27,6.79,6.79,0,0,0,1.12,4,4.05,4.05,0,0,0,3.57,1.6A3.76,3.76,0,0,0,97.08,261.05Z"/>
    <path d="M107,249.54v10a4.14,4.14,0,0,0,.38,1.88,2.7,2.7,0,0,0,2.64,1.35,3.75,3.75,0,0,0,3.78-2.36,9.07,9.07,0,0,0,.54-3.47v-7.4h2.73v15h-2.58l0-2.22a4.86,4.86,0,0,1-1.29,1.45,5.88,5.88,0,0,1-3.71,1.18c-2.27,0-3.81-.71-4.64-2.15a6.18,6.18,0,0,1-.66-3.08V249.54Z"/>
    <path d="M130.41,250a7.09,7.09,0,0,1,1.65,1.47v-7.6h2.62v20.71h-2.46V262.5a5.68,5.68,0,0,1-2.24,2,6.89,6.89,0,0,1-3,.62,6.21,6.21,0,0,1-4.68-2.12,7.88,7.88,0,0,1-2-5.62,9.23,9.23,0,0,1,1.8-5.7,6.79,6.79,0,0,1,8.25-1.68Zm-6.08,11.28a3.94,3.94,0,0,0,3.53,1.63,3.79,3.79,0,0,0,3.09-1.51,6.77,6.77,0,0,0,1.21-4.33,6.09,6.09,0,0,0-1.25-4.23,4,4,0,0,0-3.08-1.37,4.22,4.22,0,0,0-3.33,1.46,6.45,6.45,0,0,0-1.27,4.31A7.06,7.06,0,0,0,124.33,261.29Z"/>
    <path d="M147.36,249.54H150v2.14a7.27,7.27,0,0,1,2.44-1.9,7,7,0,0,1,2.86-.57q3.45,0,4.66,2.23a7.51,7.51,0,0,1,.66,3.5v9.65H157.8v-9.48a4.85,4.85,0,0,0-.43-2.22,2.71,2.71,0,0,0-2.64-1.41,5.49,5.49,0,0,0-1.59.19,4.11,4.11,0,0,0-2,1.23,3.73,3.73,0,0,0-.88,1.54,9.42,9.42,0,0,0-.21,2.27v7.88h-2.72Z"/>
    <path d="M173.29,255.49a1.52,1.52,0,0,0,1.26-.73,2.14,2.14,0,0,0,.18-1,2,2,0,0,0-1-1.88,5.63,5.63,0,0,0-2.83-.59,3.75,3.75,0,0,0-3,1.08,3.37,3.37,0,0,0-.65,1.76h-2.54a4.27,4.27,0,0,1,1.94-3.88,8.43,8.43,0,0,1,4.34-1.09,9.41,9.41,0,0,1,4.64,1,3.37,3.37,0,0,1,1.77,3.15V262a1,1,0,0,0,.17.63.88.88,0,0,0,.74.24l.4,0,.49-.06v1.87a9.46,9.46,0,0,1-1,.21c-.22,0-.53,0-.91,0a2.28,2.28,0,0,1-2-.93,3.42,3.42,0,0,1-.47-1.39,7,7,0,0,1-2.39,1.76,8,8,0,0,1-3.44.74,5.36,5.36,0,0,1-3.69-1.27,4.1,4.1,0,0,1-1.43-3.18,4,4,0,0,1,1.41-3.24,7,7,0,0,1,3.69-1.42Zm-5.74,6.83a3.39,3.39,0,0,0,2,.63,6.5,6.5,0,0,0,2.78-.62,3.46,3.46,0,0,0,2.27-3.35v-2a5,5,0,0,1-1.28.49,12.87,12.87,0,0,1-1.54.28l-1.65.2a6.78,6.78,0,0,0-2.23.57,2.21,2.21,0,0,0-1.26,2.1A2,2,0,0,0,167.55,262.32Z"/>
    <path d="M182.39,245.34h2.75v4.2h2.59v2.07h-2.59v9.82a1,1,0,0,0,.58,1.06,2.66,2.66,0,0,0,1.06.15h.42a3.74,3.74,0,0,0,.53-.05v2a6.07,6.07,0,0,1-1,.19c-.33,0-.7.05-1.09.05a3.07,3.07,0,0,1-2.59-.9,3.8,3.8,0,0,1-.68-2.36v-10h-2.2v-2.07h2.2Z"/>
    <path d="M190.46,244h2.76v2.87h-2.76Zm0,5.66h2.76v15h-2.76Z"/>
    <path d="M198.68,249.54,203,261.8l4.51-12.26h3l-6.1,15h-2.9l-6-15Z"/>
    <path d="M222.86,250a6.07,6.07,0,0,1,2.45,1.94,6.5,6.5,0,0,1,1.08,2.66,16.31,16.31,0,0,1,.24,3.32H214.84a6.16,6.16,0,0,0,1.16,3.68,4,4,0,0,0,3.35,1.39,4.47,4.47,0,0,0,3.37-1.31,4.22,4.22,0,0,0,1-1.77h2.68a4.91,4.91,0,0,1-.7,1.85,6.74,6.74,0,0,1-1.33,1.67,6.46,6.46,0,0,1-3.05,1.51,9.87,9.87,0,0,1-2.21.23,7,7,0,0,1-5.1-2.05,7.64,7.64,0,0,1-2.09-5.72,8.31,8.31,0,0,1,2.1-5.89,7.18,7.18,0,0,1,5.51-2.26A7.85,7.85,0,0,1,222.86,250Zm1,5.91a6.26,6.26,0,0,0-.76-2.63,4,4,0,0,0-3.71-1.83,4.24,4.24,0,0,0-3.12,1.26,4.59,4.59,0,0,0-1.34,3.2Z"/>
  </g>
  <g>
    <path d="M485,27.93h7.5a7,7,0,0,1,5.91,2.74A10.16,10.16,0,0,1,500.32,37a12.78,12.78,0,0,1-1.11,5.4,6.83,6.83,0,0,1-6.71,4.26H485Zm7,16.57a6.69,6.69,0,0,0,2.07-.26,4.58,4.58,0,0,0,2.37-1.92,7.94,7.94,0,0,0,1.06-2.91,10.8,10.8,0,0,0,.19-2A9.25,9.25,0,0,0,496.36,32,4.93,4.93,0,0,0,492,30.11h-4.4V44.5Z"/>
    <path d="M503.49,27.93h2.33v2.6h-2.33Zm0,5.14h2.33v13.6h-2.33Z"/>
    <path d="M516.89,33.56a6.16,6.16,0,0,1,1.32,1.3V33.14h2.12V45.56a9.3,9.3,0,0,1-.76,4.11c-1,1.86-2.75,2.78-5.38,2.78a6.57,6.57,0,0,1-3.7-1,3.8,3.8,0,0,1-1.68-3.09h2.33a2.62,2.62,0,0,0,.66,1.42,3.37,3.37,0,0,0,2.44.76c1.75,0,2.89-.62,3.44-1.86a10.51,10.51,0,0,0,.44-3.92,4.53,4.53,0,0,1-1.65,1.56,5.52,5.52,0,0,1-2.56.51A5.46,5.46,0,0,1,510,45.26c-1.1-1-1.66-2.78-1.66-5.21a7.9,7.9,0,0,1,1.68-5.36,5.16,5.16,0,0,1,4-1.92A4.94,4.94,0,0,1,516.89,33.56Zm.28,2.46a3.33,3.33,0,0,0-2.65-1.23,3.29,3.29,0,0,0-3.31,2.28,9,9,0,0,0-.46,3.17,5.7,5.7,0,0,0,.93,3.52,3,3,0,0,0,2.51,1.2,3.51,3.51,0,0,0,3.46-2.23,7.25,7.25,0,0,0,.56-2.95A5.74,5.74,0,0,0,517.17,36Z"/>
    <path d="M523.82,27.93h2.34v2.6h-2.34Zm0,5.14h2.34v13.6h-2.34Z"/>
    <path d="M530.09,29.19h2.32V33h2.18v1.87h-2.18V43.8a1,1,0,0,0,.49,1,2.1,2.1,0,0,0,.89.14h.36a4.2,4.2,0,0,0,.44,0v1.82a4.26,4.26,0,0,1-.82.17,8.7,8.7,0,0,1-.93,0,2.5,2.5,0,0,1-2.18-.82,3.68,3.68,0,0,1-.57-2.14v-9h-1.85V33h1.85Z"/>
    <path d="M544.21,38.4a1.22,1.22,0,0,0,1.06-.66,2,2,0,0,0,.15-.88,1.86,1.86,0,0,0-.83-1.71,4.39,4.39,0,0,0-2.39-.53,3,3,0,0,0-2.54,1,3.16,3.16,0,0,0-.55,1.6H537a3.94,3.94,0,0,1,1.63-3.52,6.72,6.72,0,0,1,3.65-1,7.36,7.36,0,0,1,3.92.92,3.11,3.11,0,0,1,1.49,2.85v7.88a1,1,0,0,0,.15.57.7.7,0,0,0,.61.22l.35,0,.41-.06v1.7a7.72,7.72,0,0,1-.82.19,7.15,7.15,0,0,1-.77,0,1.88,1.88,0,0,1-1.72-.85,3,3,0,0,1-.39-1.26,5.87,5.87,0,0,1-2,1.6,6.25,6.25,0,0,1-2.9.67,4.29,4.29,0,0,1-3.1-1.15,3.81,3.81,0,0,1-1.21-2.89,3.73,3.73,0,0,1,1.19-2.94,5.62,5.62,0,0,1,3.11-1.29Zm-4.83,6.21a2.7,2.7,0,0,0,1.72.57,5.31,5.31,0,0,0,2.35-.56,3.15,3.15,0,0,0,1.91-3V39.73a3.9,3.9,0,0,1-1.08.45,8.75,8.75,0,0,1-1.3.25l-1.39.18a5.44,5.44,0,0,0-1.87.52A2,2,0,0,0,538.65,43,1.88,1.88,0,0,0,539.38,44.61Z"/>
    <path d="M551.49,27.93h2.29V46.67h-2.29Z"/>
    <path d="M564.49,27.93h2.33v2.6h-2.33Zm0,5.14h2.33v13.6h-2.33Z"/>
    <path d="M570.29,33h2.19V35a6,6,0,0,1,2-1.72,5.46,5.46,0,0,1,2.41-.53c1.94,0,3.25.68,3.93,2a7.13,7.13,0,0,1,.56,3.18v8.76H579.1V38.06a4.83,4.83,0,0,0-.37-2,2.24,2.24,0,0,0-2.22-1.27,4.54,4.54,0,0,0-1.34.16,3.51,3.51,0,0,0-1.66,1.13,3.43,3.43,0,0,0-.75,1.4,9.69,9.69,0,0,0-.17,2.06v7.15h-2.3Z"/>
    <path d="M584.83,33H587V35a6.05,6.05,0,0,1,2-1.72,5.51,5.51,0,0,1,2.42-.53c1.94,0,3.24.68,3.93,2a7.28,7.28,0,0,1,.56,3.18v8.76h-2.34V38.06a4.67,4.67,0,0,0-.37-2A2.24,2.24,0,0,0,591,34.77a4.59,4.59,0,0,0-1.34.16A3.51,3.51,0,0,0,588,36.06a3.29,3.29,0,0,0-.74,1.4,9,9,0,0,0-.18,2.06v7.15h-2.29Z"/>
    <path d="M609.26,34.37a6.89,6.89,0,0,1,1.81,5.18A8.91,8.91,0,0,1,609.48,45a5.77,5.77,0,0,1-5,2.16,5.57,5.57,0,0,1-4.44-1.91,7.54,7.54,0,0,1-1.65-5.12,8.17,8.17,0,0,1,1.74-5.48,5.8,5.8,0,0,1,4.66-2A6.13,6.13,0,0,1,609.26,34.37Zm-1.42,9.08a8.65,8.65,0,0,0,.83-3.84,7,7,0,0,0-.6-3.11,3.41,3.41,0,0,0-3.31-1.88,3.24,3.24,0,0,0-3,1.6,7.42,7.42,0,0,0-1,3.88,6.45,6.45,0,0,0,1,3.63,3.31,3.31,0,0,0,3,1.45A3.12,3.12,0,0,0,607.84,43.45Z"/>
    <path d="M615,33l3.65,11.12L622.47,33H625l-5.15,13.66H617.4l-5-13.66Z"/>
    <path d="M634.28,38.4a1.22,1.22,0,0,0,1.06-.66,2,2,0,0,0,.16-.88,1.86,1.86,0,0,0-.84-1.71,4.39,4.39,0,0,0-2.39-.53,3,3,0,0,0-2.54,1,3.16,3.16,0,0,0-.55,1.6H627a3.94,3.94,0,0,1,1.63-3.52,6.73,6.73,0,0,1,3.66-1,7.35,7.35,0,0,1,3.91.92,3.11,3.11,0,0,1,1.49,2.85v7.88a1,1,0,0,0,.15.57.7.7,0,0,0,.61.22l.35,0,.41-.06v1.7a7.72,7.72,0,0,1-.82.19,7.09,7.09,0,0,1-.76,0,1.88,1.88,0,0,1-1.73-.85,3,3,0,0,1-.39-1.26,5.87,5.87,0,0,1-2,1.6,6.22,6.22,0,0,1-2.9.67,4.29,4.29,0,0,1-3.1-1.15,3.81,3.81,0,0,1-1.21-2.89,3.73,3.73,0,0,1,1.19-2.94,5.62,5.62,0,0,1,3.11-1.29Zm-4.83,6.21a2.7,2.7,0,0,0,1.72.57,5.31,5.31,0,0,0,2.35-.56,3.15,3.15,0,0,0,1.91-3V39.73a3.9,3.9,0,0,1-1.08.45,8.75,8.75,0,0,1-1.3.25l-1.39.18a5.5,5.5,0,0,0-1.87.52A2,2,0,0,0,628.72,43,1.88,1.88,0,0,0,629.45,44.61Z"/>
    <path d="M642,29.19h2.32V33h2.19v1.87h-2.19V43.8a1,1,0,0,0,.49,1,2.13,2.13,0,0,0,.89.14H646a4.14,4.14,0,0,0,.45,0v1.82a4.52,4.52,0,0,1-.83.17,8.65,8.65,0,0,1-.92,0,2.48,2.48,0,0,1-2.18-.82,3.61,3.61,0,0,1-.58-2.14v-9H640.1V33H642Z"/>
    <path d="M648.75,27.93h2.34v2.6h-2.34Zm0,5.14h2.34v13.6h-2.34Z"/>
    <path d="M664.46,34.37a6.89,6.89,0,0,1,1.81,5.18A8.91,8.91,0,0,1,664.68,45a5.77,5.77,0,0,1-5,2.16,5.59,5.59,0,0,1-4.45-1.91,7.59,7.59,0,0,1-1.64-5.12,8.22,8.22,0,0,1,1.73-5.48,5.82,5.82,0,0,1,4.67-2A6.14,6.14,0,0,1,664.46,34.37ZM663,43.45a8.65,8.65,0,0,0,.84-3.84,7,7,0,0,0-.6-3.11A3.41,3.41,0,0,0,660,34.62a3.26,3.26,0,0,0-3,1.6A7.51,7.51,0,0,0,656,40.1a6.53,6.53,0,0,0,.94,3.63,3.34,3.34,0,0,0,3,1.45A3.11,3.11,0,0,0,663,43.45Z"/>
    <path d="M669.09,33h2.18V35a6,6,0,0,1,2.06-1.72,5.43,5.43,0,0,1,2.41-.53c1.94,0,3.25.68,3.93,2a7.28,7.28,0,0,1,.56,3.18v8.76H677.9V38.06a4.83,4.83,0,0,0-.37-2,2.24,2.24,0,0,0-2.22-1.27,4.54,4.54,0,0,0-1.34.16,3.47,3.47,0,0,0-1.66,1.13,3.32,3.32,0,0,0-.75,1.4,9.69,9.69,0,0,0-.17,2.06v7.15h-2.3Z"/>
    <path d="M486.08,57.8h19.18V61H489.57v8h14.5v3.06h-14.5v9h16v3.15H486.08Z"/>
    <path d="M508.05,65h4.19l4.43,6.78L521.15,65l3.94.09-6.5,9.3,6.79,9.88h-4.14L516.45,77l-4.64,7.24h-4.1l6.78-9.88Z"/>
    <path d="M528,65.06h3.17v2.55a8,8,0,0,1,2.13-2,6.85,6.85,0,0,1,3.86-1.08A7.22,7.22,0,0,1,542.77,67q2.29,2.51,2.3,7.17,0,6.3-3.31,9a7.49,7.49,0,0,1-4.88,1.71,6.62,6.62,0,0,1-3.67-1,8.47,8.47,0,0,1-1.93-1.85v9.84H528Zm12.19,15.1a9,9,0,0,0,1.51-5.67,10.65,10.65,0,0,0-.67-4,4.9,4.9,0,0,0-9.25.18,13.43,13.43,0,0,0-.66,4.57,9.74,9.74,0,0,0,.66,3.79,4.92,4.92,0,0,0,8.41,1.09Z"/>
    <path d="M560.71,65.5A7.28,7.28,0,0,1,563.63,68a8.73,8.73,0,0,1,1.29,3.4,22.58,22.58,0,0,1,.28,4.25h-14a8.33,8.33,0,0,0,1.38,4.72,4.59,4.59,0,0,0,4,1.77,5.12,5.12,0,0,0,4-1.68,5.78,5.78,0,0,0,1.19-2.26h3.18a6.53,6.53,0,0,1-.84,2.37,8.43,8.43,0,0,1-1.58,2.13,7.45,7.45,0,0,1-3.63,1.94,10.45,10.45,0,0,1-2.62.29,8,8,0,0,1-6.06-2.62c-1.66-1.74-2.49-4.19-2.49-7.33a11.17,11.17,0,0,1,2.5-7.54,8.26,8.26,0,0,1,6.55-2.9A8.57,8.57,0,0,1,560.71,65.5Zm1.16,7.56A8.36,8.36,0,0,0,561,69.7a4.65,4.65,0,0,0-4.4-2.34A4.89,4.89,0,0,0,552.84,69a6.1,6.1,0,0,0-1.58,4.09Z"/>
    <path d="M569.4,65h3.07v3.32a7.35,7.35,0,0,1,1.86-2.36,4.79,4.79,0,0,1,3.4-1.4l.3,0,.74.07V68c-.19,0-.37-.06-.53-.07l-.53,0A4.62,4.62,0,0,0,574,69.53a5.48,5.48,0,0,0-1.32,3.62V84.24H569.4Z"/>
    <path d="M581.58,57.8h3.29v3.67h-3.29Zm0,7.26h3.29V84.24h-3.29Z"/>
    <path d="M589.76,65H593V67.7a10.55,10.55,0,0,1,2.09-2.07,6.25,6.25,0,0,1,3.63-1.1,5.71,5.71,0,0,1,3.71,1.14,6,6,0,0,1,1.44,1.91,7,7,0,0,1,2.53-2.3,7.1,7.1,0,0,1,3.28-.75q3.89,0,5.29,2.81a9.23,9.23,0,0,1,.76,4.07V84.24h-3.37V70.85a3.1,3.1,0,0,0-1-2.64,3.82,3.82,0,0,0-2.35-.72,4.64,4.64,0,0,0-3.28,1.27c-.92.85-1.38,2.28-1.38,4.27V84.24h-3.29V71.66a6.55,6.55,0,0,0-.47-2.86,2.86,2.86,0,0,0-2.76-1.35,4.72,4.72,0,0,0-3.33,1.42c-1,.95-1.51,2.66-1.51,5.15V84.24h-3.24Z"/>
    <path d="M632.37,65.5A7.25,7.25,0,0,1,635.28,68a8.43,8.43,0,0,1,1.29,3.4,22.38,22.38,0,0,1,.29,4.25h-14a8.41,8.41,0,0,0,1.37,4.72,4.61,4.61,0,0,0,4,1.77,5.11,5.11,0,0,0,4-1.68,5.65,5.65,0,0,0,1.19-2.26h3.19a6.72,6.72,0,0,1-.84,2.37,8.43,8.43,0,0,1-1.58,2.13,7.45,7.45,0,0,1-3.63,1.94,10.51,10.51,0,0,1-2.62.29,8,8,0,0,1-6.07-2.62c-1.65-1.74-2.48-4.19-2.48-7.33a11.12,11.12,0,0,1,2.5-7.54,8.25,8.25,0,0,1,6.55-2.9A8.6,8.6,0,0,1,632.37,65.5Zm1.16,7.56a8.52,8.52,0,0,0-.91-3.36,4.66,4.66,0,0,0-4.41-2.34A4.88,4.88,0,0,0,624.5,69a6.11,6.11,0,0,0-1.59,4.09Z"/>
    <path d="M641,65H644V67.7a8.64,8.64,0,0,1,2.89-2.43,7.79,7.79,0,0,1,3.41-.74q4.1,0,5.54,2.87a10.1,10.1,0,0,1,.79,4.48V84.24h-3.29V72.09a6.7,6.7,0,0,0-.52-2.84,3.17,3.17,0,0,0-3.14-1.8,6.68,6.68,0,0,0-1.89.23,4.87,4.87,0,0,0-2.33,1.59,4.71,4.71,0,0,0-1.06,2,13.37,13.37,0,0,0-.24,2.9v10.1H641Z"/>
    <path d="M662.1,59.58h3.28V65h3.08v2.64h-3.08V80.19a1.37,1.37,0,0,0,.68,1.35,3,3,0,0,0,1.26.2h.51l.63-.06v2.57a7.44,7.44,0,0,1-1.16.23,10.8,10.8,0,0,1-1.31.07c-1.51,0-2.54-.38-3.07-1.16a5.06,5.06,0,0,1-.82-3V67.61h-2.6V65h2.6Z"/>
    <path d="M683.6,65.5A7.28,7.28,0,0,1,686.52,68a8.57,8.57,0,0,1,1.28,3.4,22.38,22.38,0,0,1,.29,4.25h-14a8.33,8.33,0,0,0,1.38,4.72,4.58,4.58,0,0,0,4,1.77,5.12,5.12,0,0,0,4-1.68,5.76,5.76,0,0,0,1.18-2.26h3.19a6.53,6.53,0,0,1-.84,2.37,8.43,8.43,0,0,1-1.58,2.13,7.45,7.45,0,0,1-3.63,1.94,10.51,10.51,0,0,1-2.62.29,8,8,0,0,1-6.07-2.62c-1.65-1.74-2.48-4.19-2.48-7.33a11.12,11.12,0,0,1,2.5-7.54,8.25,8.25,0,0,1,6.55-2.9A8.6,8.6,0,0,1,683.6,65.5Zm1.16,7.56a8.36,8.36,0,0,0-.91-3.36,4.66,4.66,0,0,0-4.41-2.34A4.88,4.88,0,0,0,675.73,69a6.11,6.11,0,0,0-1.59,4.09Z"/>
    <path d="M692.28,65h3.08v3.32a7.44,7.44,0,0,1,1.85-2.36,4.82,4.82,0,0,1,3.4-1.4l.31,0,.74.07V68c-.19,0-.37-.06-.53-.07l-.53,0a4.64,4.64,0,0,0-3.77,1.58,5.52,5.52,0,0,0-1.31,3.62V84.24h-3.24Z"/>
  </g>
  <g>
    <path d="M916.13,27.93h7.49a7,7,0,0,1,5.92,2.74A10.22,10.22,0,0,1,931.42,37a12.78,12.78,0,0,1-1.11,5.4,6.83,6.83,0,0,1-6.71,4.26h-7.47Zm7,16.57a6.74,6.74,0,0,0,2.07-.26,4.58,4.58,0,0,0,2.37-1.92,7.94,7.94,0,0,0,1.06-2.91,11.7,11.7,0,0,0,.18-2A9.32,9.32,0,0,0,927.46,32a4.94,4.94,0,0,0-4.36-1.93h-4.4V44.5Z"/>
    <path d="M934.58,27.93h2.34v2.6h-2.34Zm0,5.14h2.34v13.6h-2.34Z"/>
    <path d="M948,33.56a6,6,0,0,1,1.33,1.3V33.14h2.11V45.56a9.16,9.16,0,0,1-.76,4.11c-.95,1.86-2.74,2.78-5.38,2.78a6.57,6.57,0,0,1-3.7-1,3.85,3.85,0,0,1-1.68-3.09h2.34a2.62,2.62,0,0,0,.66,1.42,3.32,3.32,0,0,0,2.43.76c1.75,0,2.9-.62,3.44-1.86a10.68,10.68,0,0,0,.45-3.92,4.48,4.48,0,0,1-1.66,1.56,5.89,5.89,0,0,1-6.42-1.07c-1.11-1-1.66-2.78-1.66-5.21a8,8,0,0,1,1.67-5.36,5.18,5.18,0,0,1,4-1.92A4.91,4.91,0,0,1,948,33.56Zm.28,2.46a3.5,3.5,0,0,0-6,1,8.94,8.94,0,0,0-.47,3.17,5.7,5.7,0,0,0,.93,3.52,3,3,0,0,0,2.51,1.2,3.52,3.52,0,0,0,3.47-2.23,7.25,7.25,0,0,0,.56-2.95A5.68,5.68,0,0,0,948.26,36Z"/>
    <path d="M954.92,27.93h2.33v2.6h-2.33Zm0,5.14h2.33v13.6h-2.33Z"/>
    <path d="M961.18,29.19h2.33V33h2.18v1.87h-2.18V43.8a1,1,0,0,0,.48,1,2.13,2.13,0,0,0,.89.14h.36a4.14,4.14,0,0,0,.45,0v1.82a4.59,4.59,0,0,1-.82.17,9,9,0,0,1-.93,0,2.48,2.48,0,0,1-2.18-.82,3.68,3.68,0,0,1-.58-2.14v-9h-1.85V33h1.85Z"/>
    <path d="M975.31,38.4a1.22,1.22,0,0,0,1.06-.66,2,2,0,0,0,.15-.88,1.88,1.88,0,0,0-.83-1.71,4.41,4.41,0,0,0-2.39-.53,3,3,0,0,0-2.55,1,3.17,3.17,0,0,0-.54,1.6h-2.15a4,4,0,0,1,1.64-3.52,6.72,6.72,0,0,1,3.65-1,7.33,7.33,0,0,1,3.91.92,3.09,3.09,0,0,1,1.49,2.85v7.88a1,1,0,0,0,.15.57.73.73,0,0,0,.62.22l.35,0,.4-.06v1.7a7.66,7.66,0,0,1-.81.19,7.31,7.31,0,0,1-.77,0,1.88,1.88,0,0,1-1.72-.85,3.16,3.16,0,0,1-.4-1.26,5.83,5.83,0,0,1-2,1.6,6.25,6.25,0,0,1-2.9.67A4.32,4.32,0,0,1,968.55,46a3.84,3.84,0,0,1-1.2-2.89,3.69,3.69,0,0,1,1.19-2.94,5.59,5.59,0,0,1,3.11-1.29Zm-4.84,6.21a2.73,2.73,0,0,0,1.73.57,5.26,5.26,0,0,0,2.34-.56,3.15,3.15,0,0,0,1.92-3V39.73a3.9,3.9,0,0,1-1.08.45,9.27,9.27,0,0,1-1.3.25l-1.39.18a5.57,5.57,0,0,0-1.88.52A2,2,0,0,0,969.75,43,1.9,1.9,0,0,0,970.47,44.61Z"/>
    <path d="M982.58,27.93h2.3V46.67h-2.3Z"/>
    <path d="M995.58,27.93h2.34v2.6h-2.34Zm0,5.14h2.34v13.6h-2.34Z"/>
    <path d="M1001.39,33h2.18V35a6,6,0,0,1,2.06-1.72,5.43,5.43,0,0,1,2.41-.53c1.94,0,3.25.68,3.93,2a7.28,7.28,0,0,1,.56,3.18v8.76h-2.34V38.06a4.67,4.67,0,0,0-.37-2,2.23,2.23,0,0,0-2.22-1.27,4.59,4.59,0,0,0-1.34.16,3.44,3.44,0,0,0-1.65,1.13,3.21,3.21,0,0,0-.75,1.4,9.07,9.07,0,0,0-.17,2.06v7.15h-2.3Z"/>
    <path d="M1015.92,33h2.19V35a6,6,0,0,1,2-1.72,5.46,5.46,0,0,1,2.41-.53c1.94,0,3.25.68,3.93,2a7.13,7.13,0,0,1,.56,3.18v8.76h-2.33V38.06a4.83,4.83,0,0,0-.37-2,2.24,2.24,0,0,0-2.22-1.27,4.54,4.54,0,0,0-1.34.16,3.51,3.51,0,0,0-1.66,1.13,3.43,3.43,0,0,0-.75,1.4,9.69,9.69,0,0,0-.17,2.06v7.15h-2.3Z"/>
    <path d="M1040.36,34.37a6.89,6.89,0,0,1,1.81,5.18,8.85,8.85,0,0,1-1.6,5.45,5.74,5.74,0,0,1-5,2.16,5.59,5.59,0,0,1-4.45-1.91,7.53,7.53,0,0,1-1.64-5.12,8.16,8.16,0,0,1,1.73-5.48,5.81,5.81,0,0,1,4.66-2A6.15,6.15,0,0,1,1040.36,34.37Zm-1.43,9.08a8.65,8.65,0,0,0,.84-3.84,7,7,0,0,0-.6-3.11,3.42,3.42,0,0,0-3.31-1.88,3.25,3.25,0,0,0-3,1.6,7.51,7.51,0,0,0-.94,3.88,6.53,6.53,0,0,0,.94,3.63,3.31,3.31,0,0,0,3,1.45A3.12,3.12,0,0,0,1038.93,43.45Z"/>
    <path d="M1046.12,33l3.65,11.12,3.8-11.12h2.51l-5.14,13.66h-2.45l-5-13.66Z"/>
    <path d="M1065.38,38.4a1.22,1.22,0,0,0,1.06-.66,2,2,0,0,0,.15-.88,1.88,1.88,0,0,0-.83-1.71,4.41,4.41,0,0,0-2.39-.53,3,3,0,0,0-2.55,1,3.17,3.17,0,0,0-.54,1.6h-2.15a3.94,3.94,0,0,1,1.64-3.52,6.72,6.72,0,0,1,3.65-1,7.33,7.33,0,0,1,3.91.92,3.09,3.09,0,0,1,1.49,2.85v7.88a1,1,0,0,0,.15.57.73.73,0,0,0,.62.22l.34,0,.41-.06v1.7a7.66,7.66,0,0,1-.81.19,7.31,7.31,0,0,1-.77,0,1.88,1.88,0,0,1-1.72-.85,3.16,3.16,0,0,1-.4-1.26,5.93,5.93,0,0,1-2,1.6,6.25,6.25,0,0,1-2.9.67,4.32,4.32,0,0,1-3.11-1.15,3.84,3.84,0,0,1-1.2-2.89,3.72,3.72,0,0,1,1.18-2.94,5.65,5.65,0,0,1,3.12-1.29Zm-4.84,6.21a2.73,2.73,0,0,0,1.73.57,5.26,5.26,0,0,0,2.34-.56,3.15,3.15,0,0,0,1.92-3V39.73a3.9,3.9,0,0,1-1.08.45,9.27,9.27,0,0,1-1.3.25l-1.39.18a5.57,5.57,0,0,0-1.88.52,2,2,0,0,0-1.06,1.91A1.9,1.9,0,0,0,1060.54,44.61Z"/>
    <path d="M1073.05,29.19h2.32V33h2.18v1.87h-2.18V43.8a1,1,0,0,0,.49,1,2.06,2.06,0,0,0,.89.14h.36a4.2,4.2,0,0,0,.44,0v1.82a4.42,4.42,0,0,1-.82.17,8.85,8.85,0,0,1-.93,0,2.48,2.48,0,0,1-2.18-.82,3.68,3.68,0,0,1-.57-2.14v-9h-1.85V33h1.85Z"/>
    <path d="M1079.85,27.93h2.33v2.6h-2.33Zm0,5.14h2.33v13.6h-2.33Z"/>
    <path d="M1095.56,34.37a6.93,6.93,0,0,1,1.81,5.18,8.85,8.85,0,0,1-1.6,5.45,5.74,5.74,0,0,1-5,2.16,5.59,5.59,0,0,1-4.45-1.91,7.54,7.54,0,0,1-1.65-5.12,8.17,8.17,0,0,1,1.74-5.48,5.81,5.81,0,0,1,4.66-2A6.15,6.15,0,0,1,1095.56,34.37Zm-1.43,9.08a8.65,8.65,0,0,0,.84-3.84,6.83,6.83,0,0,0-.61-3.11,3.4,3.4,0,0,0-3.3-1.88,3.25,3.25,0,0,0-3,1.6,7.51,7.51,0,0,0-1,3.88,6.53,6.53,0,0,0,1,3.63,3.31,3.31,0,0,0,3,1.45A3.12,3.12,0,0,0,1094.13,43.45Z"/>
    <path d="M1100.19,33h2.18V35a6.05,6.05,0,0,1,2.05-1.72,5.51,5.51,0,0,1,2.42-.53c1.94,0,3.24.68,3.93,2a7.28,7.28,0,0,1,.56,3.18v8.76H1109V38.06a4.67,4.67,0,0,0-.37-2,2.24,2.24,0,0,0-2.22-1.27,4.59,4.59,0,0,0-1.34.16,3.51,3.51,0,0,0-1.66,1.13,3.29,3.29,0,0,0-.74,1.4,9.07,9.07,0,0,0-.17,2.06v7.15h-2.3Z"/>
    <path d="M938.61,61.58a14.6,14.6,0,0,1,2.62,9,15.76,15.76,0,0,1-3,9.85Q934.71,85,928.17,85a12,12,0,0,1-9.59-4,15.18,15.18,0,0,1-3.12-9.82A15.59,15.59,0,0,1,918.13,62q3.42-4.89,10.11-4.9Q935.24,57.08,938.61,61.58Zm-3.16,16.85a14.43,14.43,0,0,0,2.11-7.81,11.08,11.08,0,0,0-2.44-7.5,8.29,8.29,0,0,0-6.66-2.85,8.69,8.69,0,0,0-6.7,2.82c-1.72,1.88-2.59,4.65-2.59,8.31a12.15,12.15,0,0,0,2.22,7.41q2.24,3,7.21,3Q933.34,81.83,935.45,78.43Z"/>
    <path d="M944.8,65.06H948v2.55a8,8,0,0,1,2.13-2A6.87,6.87,0,0,1,954,64.5,7.26,7.26,0,0,1,959.53,67q2.29,2.51,2.29,7.17,0,6.3-3.31,9a7.46,7.46,0,0,1-4.87,1.71,6.62,6.62,0,0,1-3.67-1A8.27,8.27,0,0,1,948,82.08v9.84H944.8ZM957,80.16c1-1.26,1.51-3.16,1.51-5.67a10.45,10.45,0,0,0-.67-4,4.9,4.9,0,0,0-9.24.18,13.17,13.17,0,0,0-.67,4.57,9.55,9.55,0,0,0,.67,3.79,4.91,4.91,0,0,0,8.4,1.09Z"/>
    <path d="M966.21,59.58h3.28V65h3.07v2.64h-3.07V80.19a1.36,1.36,0,0,0,.68,1.35,2.92,2.92,0,0,0,1.26.2h.5l.63-.06v2.57a7.22,7.22,0,0,1-1.16.23,10.52,10.52,0,0,1-1.3.07c-1.51,0-2.54-.38-3.08-1.16a5.13,5.13,0,0,1-.81-3V67.61H963.6V65h2.61Z"/>
    <path d="M975.8,57.8h3.29v3.67H975.8Zm0,7.26h3.29V84.24H975.8Z"/>
    <path d="M984,65h3.2V67.7a10.82,10.82,0,0,1,2.09-2.07,6.3,6.3,0,0,1,3.64-1.1,5.68,5.68,0,0,1,3.7,1.14,5.86,5.86,0,0,1,1.44,1.91,6.72,6.72,0,0,1,5.81-3c2.59,0,4.36.94,5.29,2.81a9.09,9.09,0,0,1,.76,4.07V84.24h-3.36V70.85a3.11,3.11,0,0,0-1-2.64,3.8,3.8,0,0,0-2.35-.72,4.66,4.66,0,0,0-3.28,1.27c-.92.85-1.38,2.28-1.38,4.27V84.24h-3.29V71.66a6.55,6.55,0,0,0-.47-2.86,2.85,2.85,0,0,0-2.75-1.35,4.75,4.75,0,0,0-3.34,1.42c-1,.95-1.5,2.66-1.5,5.15V84.24H984Z"/>
    <path d="M1014.69,57.8H1018v3.67h-3.29Zm0,7.26H1018V84.24h-3.29Z"/>
    <path d="M1021.44,81.68l11.44-13.82h-10.6V65h15v2.64l-11.37,13.73h11.71v2.9h-16.14Z"/>
    <path d="M1053.21,65.5a7.25,7.25,0,0,1,2.91,2.49,8.43,8.43,0,0,1,1.29,3.4,22.38,22.38,0,0,1,.29,4.25h-14a8.41,8.41,0,0,0,1.37,4.72,4.61,4.61,0,0,0,4,1.77,5.11,5.11,0,0,0,4-1.68,5.65,5.65,0,0,0,1.19-2.26h3.19a6.93,6.93,0,0,1-.84,2.37,8.22,8.22,0,0,1-1.59,2.13,7.38,7.38,0,0,1-3.62,1.94,10.53,10.53,0,0,1-2.63.29,8,8,0,0,1-6.06-2.62c-1.65-1.74-2.48-4.19-2.48-7.33a11.12,11.12,0,0,1,2.5-7.54,8.25,8.25,0,0,1,6.55-2.9A8.6,8.6,0,0,1,1053.21,65.5Zm1.16,7.56a8.52,8.52,0,0,0-.91-3.36,4.66,4.66,0,0,0-4.41-2.34,4.88,4.88,0,0,0-3.71,1.61,6.11,6.11,0,0,0-1.59,4.09Z"/>
    <path d="M1061.89,65H1065v3.32a7.44,7.44,0,0,1,1.85-2.36,4.81,4.81,0,0,1,3.4-1.4l.31,0,.74.07V68c-.2,0-.37-.06-.54-.07l-.53,0a4.63,4.63,0,0,0-3.76,1.58,5.52,5.52,0,0,0-1.31,3.62V84.24h-3.24Z"/>
  </g>
  <g>
    <path d="M1377.23,27.93h7.49a7,7,0,0,1,5.92,2.74,10.22,10.22,0,0,1,1.87,6.34,12.78,12.78,0,0,1-1.11,5.4,6.82,6.82,0,0,1-6.71,4.26h-7.46Zm7,16.57a6.69,6.69,0,0,0,2.07-.26,4.58,4.58,0,0,0,2.37-1.92,7.94,7.94,0,0,0,1.06-2.91,10.8,10.8,0,0,0,.19-2,9.25,9.25,0,0,0-1.36-5.41,4.93,4.93,0,0,0-4.36-1.93h-4.4V44.5Z"/>
    <path d="M1395.68,27.93H1398v2.6h-2.33Zm0,5.14H1398v13.6h-2.33Z"/>
    <path d="M1409.08,33.56a6.16,6.16,0,0,1,1.32,1.3V33.14h2.12V45.56a9.15,9.15,0,0,1-.77,4.11c-.94,1.86-2.74,2.78-5.37,2.78a6.57,6.57,0,0,1-3.7-1,3.82,3.82,0,0,1-1.68-3.09h2.33a2.62,2.62,0,0,0,.66,1.42,3.37,3.37,0,0,0,2.44.76c1.75,0,2.9-.62,3.44-1.86a10.51,10.51,0,0,0,.44-3.92,4.53,4.53,0,0,1-1.65,1.56,5.52,5.52,0,0,1-2.56.51,5.46,5.46,0,0,1-3.87-1.58c-1.1-1-1.65-2.78-1.65-5.21a7.89,7.89,0,0,1,1.67-5.36,5.16,5.16,0,0,1,4-1.92A4.94,4.94,0,0,1,1409.08,33.56Zm.28,2.46a3.32,3.32,0,0,0-2.65-1.23,3.27,3.27,0,0,0-3.3,2.28,8.72,8.72,0,0,0-.47,3.17,5.7,5.7,0,0,0,.93,3.52,3,3,0,0,0,2.51,1.2,3.51,3.51,0,0,0,3.46-2.23,7.25,7.25,0,0,0,.56-2.95A5.74,5.74,0,0,0,1409.36,36Z"/>
    <path d="M1416,27.93h2.34v2.6H1416Zm0,5.14h2.34v13.6H1416Z"/>
    <path d="M1422.28,29.19h2.32V33h2.18v1.87h-2.18V43.8a1,1,0,0,0,.49,1,2.06,2.06,0,0,0,.89.14h.36a4.2,4.2,0,0,0,.44,0v1.82a4.26,4.26,0,0,1-.82.17,8.65,8.65,0,0,1-.92,0,2.5,2.5,0,0,1-2.19-.82,3.68,3.68,0,0,1-.57-2.14v-9h-1.85V33h1.85Z"/>
    <path d="M1436.41,38.4a1.2,1.2,0,0,0,1-.66,1.89,1.89,0,0,0,.16-.88,1.86,1.86,0,0,0-.84-1.71,4.37,4.37,0,0,0-2.38-.53,3,3,0,0,0-2.55,1,3.26,3.26,0,0,0-.55,1.6h-2.14a4,4,0,0,1,1.63-3.52,6.73,6.73,0,0,1,3.66-1,7.35,7.35,0,0,1,3.91.92,3.11,3.11,0,0,1,1.49,2.85v7.88a1,1,0,0,0,.15.57.71.71,0,0,0,.62.22l.34,0,.41-.06v1.7a7.72,7.72,0,0,1-.82.19,7.09,7.09,0,0,1-.76,0,1.89,1.89,0,0,1-1.73-.85,3.17,3.17,0,0,1-.39-1.26,5.87,5.87,0,0,1-2,1.6,6.21,6.21,0,0,1-2.89.67,4.3,4.3,0,0,1-3.11-1.15,3.81,3.81,0,0,1-1.21-2.89,3.73,3.73,0,0,1,1.19-2.94,5.62,5.62,0,0,1,3.11-1.29Zm-4.84,6.21a2.7,2.7,0,0,0,1.72.57,5.31,5.31,0,0,0,2.35-.56,3.14,3.14,0,0,0,1.91-3V39.73a3.9,3.9,0,0,1-1.08.45,8.75,8.75,0,0,1-1.3.25l-1.39.18a5.5,5.5,0,0,0-1.87.52,2,2,0,0,0-1.07,1.91A1.88,1.88,0,0,0,1431.57,44.61Z"/>
    <path d="M1443.68,27.93H1446V46.67h-2.29Z"/>
    <path d="M1456.68,27.93H1459v2.6h-2.33Zm0,5.14H1459v13.6h-2.33Z"/>
    <path d="M1462.49,33h2.18V35a6,6,0,0,1,2-1.72,5.46,5.46,0,0,1,2.41-.53c1.94,0,3.25.68,3.93,2a7.13,7.13,0,0,1,.56,3.18v8.76h-2.33V38.06a4.67,4.67,0,0,0-.37-2,2.24,2.24,0,0,0-2.22-1.27,4.54,4.54,0,0,0-1.34.16,3.51,3.51,0,0,0-1.66,1.13,3.43,3.43,0,0,0-.75,1.4,9.69,9.69,0,0,0-.17,2.06v7.15h-2.29Z"/>
    <path d="M1477,33h2.18V35a6.05,6.05,0,0,1,2-1.72,5.51,5.51,0,0,1,2.42-.53c1.94,0,3.25.68,3.93,2a7.28,7.28,0,0,1,.56,3.18v8.76h-2.34V38.06a4.67,4.67,0,0,0-.37-2,2.24,2.24,0,0,0-2.22-1.27,4.59,4.59,0,0,0-1.34.16,3.51,3.51,0,0,0-1.66,1.13,3.29,3.29,0,0,0-.74,1.4,9.07,9.07,0,0,0-.17,2.06v7.15H1477Z"/>
    <path d="M1501.45,34.37a6.89,6.89,0,0,1,1.81,5.18,8.91,8.91,0,0,1-1.59,5.45,5.77,5.77,0,0,1-5,2.16,5.58,5.58,0,0,1-4.44-1.91,7.54,7.54,0,0,1-1.65-5.12,8.17,8.17,0,0,1,1.74-5.48,5.8,5.8,0,0,1,4.66-2A6.11,6.11,0,0,1,1501.45,34.37ZM1500,43.45a8.65,8.65,0,0,0,.84-3.84,7,7,0,0,0-.61-3.11,3.4,3.4,0,0,0-3.3-1.88,3.25,3.25,0,0,0-3,1.6,7.51,7.51,0,0,0-1,3.88,6.53,6.53,0,0,0,1,3.63,3.31,3.31,0,0,0,3,1.45A3.12,3.12,0,0,0,1500,43.45Z"/>
    <path d="M1507.21,33l3.65,11.12L1514.67,33h2.51L1512,46.67h-2.44l-5-13.66Z"/>
    <path d="M1526.47,38.4a1.22,1.22,0,0,0,1.06-.66,2,2,0,0,0,.16-.88,1.86,1.86,0,0,0-.84-1.71,4.39,4.39,0,0,0-2.39-.53,3,3,0,0,0-2.54,1,3.26,3.26,0,0,0-.55,1.6h-2.14a4,4,0,0,1,1.63-3.52,6.73,6.73,0,0,1,3.66-1,7.35,7.35,0,0,1,3.91.92,3.11,3.11,0,0,1,1.49,2.85v7.88a1,1,0,0,0,.15.57.7.7,0,0,0,.61.22l.35,0,.41-.06v1.7a7.72,7.72,0,0,1-.82.19,7.09,7.09,0,0,1-.76,0,1.88,1.88,0,0,1-1.73-.85,3.17,3.17,0,0,1-.39-1.26,5.87,5.87,0,0,1-2,1.6,6.24,6.24,0,0,1-2.89.67,4.3,4.3,0,0,1-3.11-1.15,3.81,3.81,0,0,1-1.21-2.89,3.73,3.73,0,0,1,1.19-2.94,5.62,5.62,0,0,1,3.11-1.29Zm-4.83,6.21a2.7,2.7,0,0,0,1.72.57,5.31,5.31,0,0,0,2.35-.56,3.15,3.15,0,0,0,1.91-3V39.73a3.9,3.9,0,0,1-1.08.45,8.75,8.75,0,0,1-1.3.25l-1.39.18a5.5,5.5,0,0,0-1.87.52,2,2,0,0,0-1.07,1.91A1.88,1.88,0,0,0,1521.64,44.61Z"/>
    <path d="M1534.14,29.19h2.32V33h2.19v1.87h-2.19V43.8a1,1,0,0,0,.49,1,2.13,2.13,0,0,0,.89.14h.36a4.14,4.14,0,0,0,.45,0v1.82a4.52,4.52,0,0,1-.83.17,8.65,8.65,0,0,1-.92,0,2.48,2.48,0,0,1-2.18-.82,3.61,3.61,0,0,1-.58-2.14v-9h-1.85V33h1.85Z"/>
    <path d="M1540.94,27.93h2.34v2.6h-2.34Zm0,5.14h2.34v13.6h-2.34Z"/>
    <path d="M1556.65,34.37a6.89,6.89,0,0,1,1.81,5.18,8.91,8.91,0,0,1-1.59,5.45,5.77,5.77,0,0,1-5,2.16,5.6,5.6,0,0,1-4.45-1.91,7.59,7.59,0,0,1-1.64-5.12,8.22,8.22,0,0,1,1.73-5.48,5.83,5.83,0,0,1,4.67-2A6.14,6.14,0,0,1,1556.65,34.37Zm-1.43,9.08a8.65,8.65,0,0,0,.84-3.84,7,7,0,0,0-.6-3.11,3.41,3.41,0,0,0-3.31-1.88,3.23,3.23,0,0,0-3,1.6,7.42,7.42,0,0,0-1,3.88,6.45,6.45,0,0,0,1,3.63,3.31,3.31,0,0,0,3,1.45A3.1,3.1,0,0,0,1555.22,43.45Z"/>
    <path d="M1561.28,33h2.18V35a6.08,6.08,0,0,1,2.06-1.72,5.46,5.46,0,0,1,2.41-.53c1.94,0,3.25.68,3.93,2a7.28,7.28,0,0,1,.56,3.18v8.76h-2.33V38.06a4.83,4.83,0,0,0-.37-2,2.24,2.24,0,0,0-2.22-1.27,4.54,4.54,0,0,0-1.34.16,3.47,3.47,0,0,0-1.66,1.13,3.43,3.43,0,0,0-.75,1.4,9.69,9.69,0,0,0-.17,2.06v7.15h-2.3Z"/>
    <path d="M1378.74,57.8h3.61V84.24h-3.61Z"/>
    <path d="M1387.73,65h3.08V67.7a8.57,8.57,0,0,1,2.9-2.43,7.74,7.74,0,0,1,3.4-.74c2.74,0,4.58,1,5.54,2.87a10.1,10.1,0,0,1,.79,4.48V84.24h-3.29V72.09a6.55,6.55,0,0,0-.52-2.84,3.17,3.17,0,0,0-3.13-1.8,6.58,6.58,0,0,0-1.89.23,4.85,4.85,0,0,0-2.34,1.59,4.69,4.69,0,0,0-1,2,12.66,12.66,0,0,0-.25,2.9v10.1h-3.24Z"/>
    <path d="M1408.23,65h3.08V67.7a8.57,8.57,0,0,1,2.9-2.43,7.71,7.71,0,0,1,3.4-.74q4.1,0,5.54,2.87a10.1,10.1,0,0,1,.79,4.48V84.24h-3.29V72.09a6.7,6.7,0,0,0-.52-2.84,3.17,3.17,0,0,0-3.14-1.8,6.68,6.68,0,0,0-1.89.23,5.34,5.34,0,0,0-3.39,3.56,13.37,13.37,0,0,0-.24,2.9v10.1h-3.24Z"/>
    <path d="M1442.69,66.89c1.7,1.65,2.56,4.09,2.56,7.3a12.51,12.51,0,0,1-2.26,7.69c-1.5,2-3.82,3-7,3a7.84,7.84,0,0,1-6.27-2.69,10.63,10.63,0,0,1-2.33-7.21,11.57,11.57,0,0,1,2.45-7.74,8.22,8.22,0,0,1,6.58-2.87A8.65,8.65,0,0,1,1442.69,66.89Zm-2,12.81a12.24,12.24,0,0,0,1.18-5.42,9.75,9.75,0,0,0-.85-4.39,4.8,4.8,0,0,0-4.66-2.66,4.59,4.59,0,0,0-4.27,2.27,10.57,10.57,0,0,0-1.34,5.46,9.18,9.18,0,0,0,1.34,5.12,4.67,4.67,0,0,0,4.23,2A4.42,4.42,0,0,0,1440.68,79.7Z"/>
    <path d="M1450.82,65,1456,80.66,1461.32,65h3.55l-7.26,19.27h-3.45L1447.05,65Z"/>
    <path d="M1478,72.58a1.76,1.76,0,0,0,1.49-.94,2.77,2.77,0,0,0,.22-1.25,2.64,2.64,0,0,0-1.18-2.41,6.26,6.26,0,0,0-3.37-.75,4.27,4.27,0,0,0-3.59,1.38,4.57,4.57,0,0,0-.77,2.26h-3q.09-3.57,2.31-5a9.38,9.38,0,0,1,5.15-1.4,10.48,10.48,0,0,1,5.51,1.29,4.4,4.4,0,0,1,2.11,4V80.93a1.52,1.52,0,0,0,.2.81,1,1,0,0,0,.88.3l.48,0,.58-.08v2.39a11.24,11.24,0,0,1-1.15.27,10,10,0,0,1-1.08.05,2.64,2.64,0,0,1-2.43-1.19,4.49,4.49,0,0,1-.56-1.78,8.14,8.14,0,0,1-2.84,2.25,8.77,8.77,0,0,1-4.09,1,6.08,6.08,0,0,1-4.38-1.63,5.4,5.4,0,0,1-1.7-4.07,5.24,5.24,0,0,1,1.67-4.15,8,8,0,0,1,4.39-1.82Zm-6.82,8.75a3.84,3.84,0,0,0,2.43.8,7.36,7.36,0,0,0,3.31-.79,4.44,4.44,0,0,0,2.7-4.29V74.44a5.46,5.46,0,0,1-1.53.64,15.55,15.55,0,0,1-1.83.36l-2,.25a7.54,7.54,0,0,0-2.64.73,2.87,2.87,0,0,0-1.51,2.7A2.66,2.66,0,0,0,1471.16,81.33Z"/>
    <path d="M1488.79,59.58h3.28V65h3.08v2.64h-3.08V80.19a1.37,1.37,0,0,0,.68,1.35,2.92,2.92,0,0,0,1.26.2h.51l.63-.06v2.57a7.44,7.44,0,0,1-1.16.23,10.8,10.8,0,0,1-1.31.07c-1.51,0-2.54-.38-3.08-1.16a5.13,5.13,0,0,1-.81-3V67.61h-2.61V65h2.61Z"/>
    <path d="M1512.35,66.89c1.7,1.65,2.55,4.09,2.55,7.3a12.57,12.57,0,0,1-2.25,7.69q-2.25,3-7,3a7.85,7.85,0,0,1-6.28-2.69,10.68,10.68,0,0,1-2.32-7.21,11.57,11.57,0,0,1,2.45-7.74,8.2,8.2,0,0,1,6.57-2.87A8.65,8.65,0,0,1,1512.35,66.89Zm-2,12.81a12.24,12.24,0,0,0,1.18-5.42,9.75,9.75,0,0,0-.85-4.39,4.8,4.8,0,0,0-4.66-2.66,4.59,4.59,0,0,0-4.27,2.27A10.57,10.57,0,0,0,1500.4,75a9.18,9.18,0,0,0,1.34,5.12,4.67,4.67,0,0,0,4.23,2A4.42,4.42,0,0,0,1510.34,79.7Z"/>
    <path d="M1519,65h3.08v3.32a7.44,7.44,0,0,1,1.85-2.36,4.82,4.82,0,0,1,3.4-1.4l.31,0,.74.07V68c-.2,0-.37-.06-.53-.07l-.53,0a4.64,4.64,0,0,0-3.77,1.58,5.52,5.52,0,0,0-1.31,3.62V84.24H1519Z"/>
  </g>
  <rect x="338.42" y="160.4" width="1234.75" height="181" style="fill: #12457b"/>
  <g>
    <path d="M724.34,241a7,7,0,0,0-5.57,2.35,9.46,9.46,0,0,0-2,6.44,9.71,9.71,0,0,0,2,6.5,7,7,0,0,0,5.62,2.29,19,19,0,0,0,5.11-.81V260a15.86,15.86,0,0,1-5.49.83,9.3,9.3,0,0,1-7.3-2.87c-1.72-1.91-2.57-4.63-2.57-8.16a12.93,12.93,0,0,1,1.23-5.8,8.93,8.93,0,0,1,3.58-3.84,10.81,10.81,0,0,1,5.5-1.35,13.27,13.27,0,0,1,5.89,1.24l-1.06,2.13A11.36,11.36,0,0,0,724.34,241Z" style="fill: #fff"/>
    <path d="M747.59,252.48a8.86,8.86,0,0,1-2,6.13,7,7,0,0,1-5.46,2.2,7.3,7.3,0,0,1-3.83-1,6.62,6.62,0,0,1-2.57-2.9,10,10,0,0,1-.91-4.42,8.84,8.84,0,0,1,2-6.12,6.94,6.94,0,0,1,5.45-2.19,6.79,6.79,0,0,1,5.35,2.24A8.81,8.81,0,0,1,747.59,252.48Zm-12.23,0a7.59,7.59,0,0,0,1.23,4.68,4.25,4.25,0,0,0,3.61,1.62,4.31,4.31,0,0,0,3.63-1.61,7.54,7.54,0,0,0,1.24-4.69,7.43,7.43,0,0,0-1.24-4.65,4.35,4.35,0,0,0-3.66-1.59,4.28,4.28,0,0,0-3.6,1.56A7.58,7.58,0,0,0,735.36,252.48Z" style="fill: #fff"/>
    <path d="M762.84,260.52V250.13a4.18,4.18,0,0,0-.9-2.93,3.63,3.63,0,0,0-2.79-1,4.64,4.64,0,0,0-3.7,1.36q-1.17,1.36-1.17,4.5v8.42h-2.43V244.46h2l.39,2.2h.12a5.06,5.06,0,0,1,2.09-1.84,6.88,6.88,0,0,1,3-.65,6.09,6.09,0,0,1,4.36,1.4,5.93,5.93,0,0,1,1.47,4.47v10.48Z" style="fill: #fff"/>
    <path d="M783.4,244.46V246l-3,.35a5.23,5.23,0,0,1,.73,1.34,5.06,5.06,0,0,1,.32,1.87,4.74,4.74,0,0,1-1.61,3.77,6.53,6.53,0,0,1-4.42,1.4,8.2,8.2,0,0,1-1.35-.11,2.38,2.38,0,0,0-1.55,2.06,1.06,1.06,0,0,0,.54,1A4,4,0,0,0,775,258h2.84a6.38,6.38,0,0,1,4,1.1,3.82,3.82,0,0,1,1.4,3.19,4.56,4.56,0,0,1-2.14,4.07,11.49,11.49,0,0,1-6.24,1.4,8.55,8.55,0,0,1-4.86-1.18,3.79,3.79,0,0,1-1.7-3.31,3.73,3.73,0,0,1,.93-2.53,4.8,4.8,0,0,1,2.64-1.45,2.52,2.52,0,0,1-1-.87,2.26,2.26,0,0,1-.42-1.36,2.62,2.62,0,0,1,.47-1.54,4.93,4.93,0,0,1,1.48-1.27,4.31,4.31,0,0,1-2-1.74,5.79,5.79,0,0,1,.8-6.88,6.46,6.46,0,0,1,4.48-1.43,8.33,8.33,0,0,1,2.27.29Zm-12.8,18.75a2.19,2.19,0,0,0,1.1,2,6,6,0,0,0,3.15.68,8.77,8.77,0,0,0,4.53-.92,2.8,2.8,0,0,0,1.47-2.48,2,2,0,0,0-.8-1.81,6.22,6.22,0,0,0-3-.51H774.1a3.9,3.9,0,0,0-2.58.79A2.85,2.85,0,0,0,770.6,263.21Zm1.32-13.6a3.26,3.26,0,0,0,1,2.54,3.78,3.78,0,0,0,2.65.87c2.38,0,3.56-1.15,3.56-3.46s-1.2-3.62-3.6-3.62a3.56,3.56,0,0,0-2.64.93A3.72,3.72,0,0,0,771.92,249.61Z" style="fill: #fff"/>
    <path d="M794,244.17a9.22,9.22,0,0,1,1.92.18l-.34,2.25a8.69,8.69,0,0,0-1.75-.22,4.32,4.32,0,0,0-3.34,1.58,5.8,5.8,0,0,0-1.38,3.95v8.61H786.7V244.46h2l.27,3h.12a7.19,7.19,0,0,1,2.15-2.42A4.84,4.84,0,0,1,794,244.17Z" style="fill: #fff"/>
    <path d="M808.82,260.52l-.49-2.29h-.11a6.75,6.75,0,0,1-2.4,2,7.39,7.39,0,0,1-3,.53,5.35,5.35,0,0,1-3.74-1.23,4.5,4.5,0,0,1-1.36-3.5q0-4.86,7.78-5.1l2.73-.09v-1a4,4,0,0,0-.82-2.79,3.34,3.34,0,0,0-2.6-.9,10.62,10.62,0,0,0-4.54,1.23l-.74-1.86a11.07,11.07,0,0,1,2.6-1,10.94,10.94,0,0,1,2.83-.37,6.15,6.15,0,0,1,4.26,1.27,5.34,5.34,0,0,1,1.38,4.09v11Zm-5.49-1.72a4.92,4.92,0,0,0,3.56-1.24,4.59,4.59,0,0,0,1.3-3.49v-1.45l-2.43.11a8.69,8.69,0,0,0-4.19.9,2.72,2.72,0,0,0-1.28,2.48,2.52,2.52,0,0,0,.8,2A3.31,3.31,0,0,0,803.33,258.8Z" style="fill: #fff"/>
    <path d="M820.82,258.8a8.32,8.32,0,0,0,1.24-.09,6.91,6.91,0,0,0,1-.2v1.86a4.52,4.52,0,0,1-1.16.32,9.21,9.21,0,0,1-1.39.12c-3.1,0-4.65-1.63-4.65-4.91v-9.55H813.5v-1.17l2.31-1,1-3.43h1.41v3.72h4.66v1.89h-4.66v9.45a3.3,3.3,0,0,0,.68,2.23A2.39,2.39,0,0,0,820.82,258.8Z" style="fill: #fff"/>
    <path d="M828.5,244.46v10.42a4.18,4.18,0,0,0,.9,2.93,3.67,3.67,0,0,0,2.8,1,4.55,4.55,0,0,0,3.68-1.38,6.94,6.94,0,0,0,1.17-4.5v-8.44h2.43v16.06h-2l-.35-2.15H837a4.84,4.84,0,0,1-2.08,1.81,6.94,6.94,0,0,1-3,.63,6.14,6.14,0,0,1-4.39-1.39A5.93,5.93,0,0,1,826,255V244.46Z" style="fill: #fff"/>
    <path d="M847.07,260.52h-2.44V237.73h2.44Z" style="fill: #fff"/>
    <path d="M862.09,260.52l-.48-2.29h-.12a6.81,6.81,0,0,1-2.39,2,7.43,7.43,0,0,1-3,.53,5.35,5.35,0,0,1-3.74-1.23,4.47,4.47,0,0,1-1.36-3.5q0-4.86,7.78-5.1l2.72-.09v-1a4.08,4.08,0,0,0-.81-2.79,3.34,3.34,0,0,0-2.6-.9,10.59,10.59,0,0,0-4.54,1.23l-.75-1.86a11.25,11.25,0,0,1,2.6-1,11,11,0,0,1,2.84-.37,6.1,6.1,0,0,1,4.25,1.27,5.35,5.35,0,0,1,1.39,4.09v11Zm-5.49-1.72a5,5,0,0,0,3.57-1.24,4.62,4.62,0,0,0,1.29-3.49v-1.45l-2.43.11a8.67,8.67,0,0,0-4.18.9,2.72,2.72,0,0,0-1.28,2.48,2.49,2.49,0,0,0,.8,2A3.29,3.29,0,0,0,856.6,258.8Z" style="fill: #fff"/>
    <path d="M874.09,258.8a8.45,8.45,0,0,0,1.25-.09,7.25,7.25,0,0,0,.95-.2v1.86a4.62,4.62,0,0,1-1.17.32,9,9,0,0,1-1.38.12c-3.11,0-4.66-1.63-4.66-4.91v-9.55h-2.3v-1.17l2.3-1,1-3.43h1.4v3.72h4.66v1.89h-4.66v9.45a3.25,3.25,0,0,0,.69,2.23A2.39,2.39,0,0,0,874.09,258.8Z" style="fill: #fff"/>
    <path d="M879.29,240.11a1.63,1.63,0,0,1,.41-1.22,1.45,1.45,0,0,1,1-.39,1.42,1.42,0,0,1,1,.4,1.59,1.59,0,0,1,.42,1.21,1.64,1.64,0,0,1-.42,1.23,1.5,1.5,0,0,1-2,0A1.67,1.67,0,0,1,879.29,240.11Zm2.64,20.41H879.5V244.46h2.43Z" style="fill: #fff"/>
    <path d="M900.94,252.48a8.86,8.86,0,0,1-2,6.13,6.93,6.93,0,0,1-5.46,2.2,7.27,7.27,0,0,1-3.82-1,6.58,6.58,0,0,1-2.58-2.9,10,10,0,0,1-.91-4.42,8.84,8.84,0,0,1,2-6.12,7,7,0,0,1,5.45-2.19,6.82,6.82,0,0,1,5.36,2.24A8.86,8.86,0,0,1,900.94,252.48Zm-12.23,0a7.59,7.59,0,0,0,1.23,4.68,4.86,4.86,0,0,0,7.24,0,7.54,7.54,0,0,0,1.24-4.69,7.43,7.43,0,0,0-1.24-4.65,4.33,4.33,0,0,0-3.65-1.59,4.28,4.28,0,0,0-3.6,1.56A7.58,7.58,0,0,0,888.71,252.48Z" style="fill: #fff"/>
    <path d="M916.19,260.52V250.13a4.23,4.23,0,0,0-.89-2.93,3.67,3.67,0,0,0-2.8-1,4.6,4.6,0,0,0-3.69,1.36q-1.17,1.36-1.17,4.5v8.42H905.2V244.46h2l.4,2.2h.11a5,5,0,0,1,2.1-1.84,6.87,6.87,0,0,1,3-.65,6.12,6.12,0,0,1,4.37,1.4,6,6,0,0,1,1.46,4.47v10.48Z" style="fill: #fff"/>
    <path d="M934,256.14a4,4,0,0,1-1.67,3.46,7.83,7.83,0,0,1-4.68,1.21,10.23,10.23,0,0,1-5-1v-2.26a11.86,11.86,0,0,0,2.48.93,10.5,10.5,0,0,0,2.55.33,5.85,5.85,0,0,0,2.93-.6,2.1,2.1,0,0,0,.22-3.46,12.77,12.77,0,0,0-3.17-1.57,17.62,17.62,0,0,1-3.19-1.46,4.43,4.43,0,0,1-1.41-1.42,3.73,3.73,0,0,1-.46-1.89,3.58,3.58,0,0,1,1.6-3.09,7.4,7.4,0,0,1,4.38-1.14,12.7,12.7,0,0,1,5.07,1.06l-.87,2a11.68,11.68,0,0,0-4.38-1,5,5,0,0,0-2.6.54,1.67,1.67,0,0,0-.88,1.49,1.82,1.82,0,0,0,.33,1.1,3.35,3.35,0,0,0,1.06.87,23.12,23.12,0,0,0,2.81,1.18,10.54,10.54,0,0,1,3.86,2.1A3.67,3.67,0,0,1,934,256.14Z" style="fill: #fff"/>
    <path d="M937.58,259a2.23,2.23,0,0,1,.44-1.49,1.63,1.63,0,0,1,1.29-.51,1.73,1.73,0,0,1,1.32.51,2.09,2.09,0,0,1,.48,1.49,2,2,0,0,1-.49,1.46,1.92,1.92,0,0,1-2.55.05A2,2,0,0,1,937.58,259Z" style="fill: #fff"/>
    <path d="M959.52,249.81l5.71-10.71h2.7l-7.15,13.11v8.31h-2.52v-8.19l-7.13-13.23h2.72Z" style="fill: #fff"/>
    <path d="M984.36,252.48a8.86,8.86,0,0,1-2,6.13,7,7,0,0,1-5.47,2.2,7.27,7.27,0,0,1-3.82-1,6.7,6.7,0,0,1-2.58-2.9,10.17,10.17,0,0,1-.91-4.42,8.85,8.85,0,0,1,2-6.12,6.92,6.92,0,0,1,5.45-2.19,6.8,6.8,0,0,1,5.35,2.24A8.86,8.86,0,0,1,984.36,252.48Zm-12.23,0a7.59,7.59,0,0,0,1.23,4.68,4.27,4.27,0,0,0,3.62,1.62,4.32,4.32,0,0,0,3.63-1.61,7.6,7.6,0,0,0,1.23-4.69,7.49,7.49,0,0,0-1.23-4.65,4.37,4.37,0,0,0-3.66-1.59,4.28,4.28,0,0,0-3.6,1.56A7.58,7.58,0,0,0,972.13,252.48Z" style="fill: #fff"/>
    <path d="M990.91,244.46v10.42a4.18,4.18,0,0,0,.9,2.93,3.63,3.63,0,0,0,2.79,1,4.58,4.58,0,0,0,3.69-1.38c.78-.92,1.16-2.42,1.16-4.5v-8.44h2.43v16.06h-2l-.35-2.15h-.14a4.75,4.75,0,0,1-2.07,1.81,6.94,6.94,0,0,1-3,.63,6.12,6.12,0,0,1-4.39-1.39,5.93,5.93,0,0,1-1.46-4.45V244.46Z" style="fill: #fff"/>
    <path d="M1009.13,239.1l-.58,7.74H1007l-.6-7.74Z" style="fill: #fff"/>
    <path d="M1021,244.17a9.35,9.35,0,0,1,1.92.18l-.34,2.25a8.69,8.69,0,0,0-1.75-.22,4.32,4.32,0,0,0-3.34,1.58,5.8,5.8,0,0,0-1.38,3.95v8.61h-2.43V244.46h2l.28,3h.12a7,7,0,0,1,2.15-2.42A4.84,4.84,0,0,1,1021,244.17Z" style="fill: #fff"/>
    <path d="M1032.71,260.81a7.35,7.35,0,0,1-5.62-2.17,8.35,8.35,0,0,1-2.06-6,9.32,9.32,0,0,1,1.91-6.16,6.35,6.35,0,0,1,5.14-2.29,6,6,0,0,1,4.77,2,7.59,7.59,0,0,1,1.76,5.23v1.54h-11.06a6.31,6.31,0,0,0,1.43,4.29,4.91,4.91,0,0,0,3.81,1.47,12.82,12.82,0,0,0,5.13-1.09v2.17a12.82,12.82,0,0,1-2.44.8A13.79,13.79,0,0,1,1032.71,260.81Zm-.66-14.6a4,4,0,0,0-3.09,1.26,5.8,5.8,0,0,0-1.35,3.48H1036a5.37,5.37,0,0,0-1-3.52A3.63,3.63,0,0,0,1032.05,246.21Z" style="fill: #fff"/>
    <path d="M1064.4,252.48a8.91,8.91,0,0,1-2,6.13,7,7,0,0,1-5.47,2.2,7.27,7.27,0,0,1-3.82-1,6.7,6.7,0,0,1-2.58-2.9,10.17,10.17,0,0,1-.91-4.42,8.85,8.85,0,0,1,2-6.12,6.92,6.92,0,0,1,5.44-2.19,6.82,6.82,0,0,1,5.36,2.24A8.86,8.86,0,0,1,1064.4,252.48Zm-12.23,0a7.59,7.59,0,0,0,1.23,4.68,4.27,4.27,0,0,0,3.62,1.62,4.32,4.32,0,0,0,3.63-1.61,7.6,7.6,0,0,0,1.23-4.69,7.49,7.49,0,0,0-1.23-4.65,4.37,4.37,0,0,0-3.66-1.59,4.28,4.28,0,0,0-3.6,1.56A7.58,7.58,0,0,0,1052.17,252.48Z" style="fill: #fff"/>
    <path d="M1079.65,260.52V250.13a4.18,4.18,0,0,0-.89-2.93,3.67,3.67,0,0,0-2.8-1,4.6,4.6,0,0,0-3.69,1.36q-1.17,1.36-1.17,4.5v8.42h-2.43V244.46h2l.4,2.2h.12a5,5,0,0,1,2.09-1.84,6.87,6.87,0,0,1,3-.65,6.12,6.12,0,0,1,4.37,1.4c1,.93,1.46,2.42,1.46,4.47v10.48Z" style="fill: #fff"/>
    <path d="M1100.06,258.8a8.32,8.32,0,0,0,1.24-.09,6.91,6.91,0,0,0,1-.2v1.86a4.52,4.52,0,0,1-1.16.32,9,9,0,0,1-1.38.12c-3.11,0-4.66-1.63-4.66-4.91v-9.55h-2.3v-1.17l2.3-1,1-3.43h1.41v3.72h4.66v1.89h-4.66v9.45a3.25,3.25,0,0,0,.69,2.23A2.39,2.39,0,0,0,1100.06,258.8Z" style="fill: #fff"/>
    <path d="M1119.32,252.48a8.86,8.86,0,0,1-2,6.13,7,7,0,0,1-5.46,2.2,7.24,7.24,0,0,1-3.82-1,6.58,6.58,0,0,1-2.58-2.9,10,10,0,0,1-.91-4.42,8.84,8.84,0,0,1,2-6.12,7,7,0,0,1,5.45-2.19,6.82,6.82,0,0,1,5.36,2.24A8.86,8.86,0,0,1,1119.32,252.48Zm-12.23,0a7.59,7.59,0,0,0,1.23,4.68,4.86,4.86,0,0,0,7.24,0,7.54,7.54,0,0,0,1.24-4.69,7.43,7.43,0,0,0-1.24-4.65,4.33,4.33,0,0,0-3.65-1.59,4.28,4.28,0,0,0-3.6,1.56A7.58,7.58,0,0,0,1107.09,252.48Z" style="fill: #fff"/>
    <path d="M1131.05,260.81a6.87,6.87,0,0,1-2.86-.58,5.41,5.41,0,0,1-2.18-1.78h-.17a21,21,0,0,1,.17,2.67v6.61h-2.43V244.46h2l.34,2.2h.11a5.67,5.67,0,0,1,2.19-1.9,6.63,6.63,0,0,1,2.85-.59,5.94,5.94,0,0,1,4.93,2.18,11.6,11.6,0,0,1,0,12.27A5.94,5.94,0,0,1,1131.05,260.81Zm-.35-14.57a4.31,4.31,0,0,0-3.56,1.36,7,7,0,0,0-1.13,4.33v.55c0,2.25.38,3.87,1.13,4.84a4.3,4.3,0,0,0,3.62,1.46,3.78,3.78,0,0,0,3.26-1.69,8,8,0,0,0,1.18-4.64,7.68,7.68,0,0,0-1.18-4.61A3.88,3.88,0,0,0,1130.7,246.24Z" style="fill: #fff"/>
    <path d="M1163.62,252.48a8.86,8.86,0,0,1-2,6.13,7,7,0,0,1-5.46,2.2,7.3,7.3,0,0,1-3.83-1,6.62,6.62,0,0,1-2.57-2.9,10,10,0,0,1-.91-4.42,8.84,8.84,0,0,1,2-6.12,7,7,0,0,1,5.45-2.19,6.79,6.79,0,0,1,5.35,2.24A8.81,8.81,0,0,1,1163.62,252.48Zm-12.23,0a7.59,7.59,0,0,0,1.23,4.68,4.86,4.86,0,0,0,7.24,0,7.54,7.54,0,0,0,1.24-4.69,7.43,7.43,0,0,0-1.24-4.65,4.33,4.33,0,0,0-3.65-1.59,4.29,4.29,0,0,0-3.61,1.56A7.58,7.58,0,0,0,1151.39,252.48Z" style="fill: #fff"/>
    <path d="M1175.12,246.35H1171v14.17h-2.43V246.35h-2.87v-1.1l2.87-.87v-.9c0-3.94,1.72-5.92,5.17-5.92a10.8,10.8,0,0,1,3,.52l-.63,1.95a7.87,7.87,0,0,0-2.41-.46,2.34,2.34,0,0,0-2,.92,5.09,5.09,0,0,0-.66,2.93v1h4.09Z" style="fill: #fff"/>
    <path d="M1183.29,244.46h2.61l3.51,9.16a35.92,35.92,0,0,1,1.44,4.53h.12c.12-.5.39-1.35.79-2.56s1.74-4.92,4-11.13h2.61l-6.9,18.29a9.06,9.06,0,0,1-2.4,3.84,5.07,5.07,0,0,1-3.36,1.14,10.07,10.07,0,0,1-2.19-.25v-2a8.22,8.22,0,0,0,1.8.17c1.67,0,2.86-.93,3.57-2.81l.89-2.28Z" style="fill: #fff"/>
    <path d="M1214.81,252.48a8.91,8.91,0,0,1-2,6.13,7,7,0,0,1-5.47,2.2,7.27,7.27,0,0,1-3.82-1,6.7,6.7,0,0,1-2.58-2.9,10.17,10.17,0,0,1-.91-4.42,8.85,8.85,0,0,1,2-6.12,6.92,6.92,0,0,1,5.44-2.19,6.82,6.82,0,0,1,5.36,2.24A8.86,8.86,0,0,1,1214.81,252.48Zm-12.23,0a7.59,7.59,0,0,0,1.23,4.68,4.27,4.27,0,0,0,3.62,1.62,4.32,4.32,0,0,0,3.63-1.61,7.6,7.6,0,0,0,1.23-4.69,7.49,7.49,0,0,0-1.23-4.65,4.37,4.37,0,0,0-3.66-1.59,4.28,4.28,0,0,0-3.6,1.56A7.58,7.58,0,0,0,1202.58,252.48Z" style="fill: #fff"/>
    <path d="M1221.36,244.46v10.42a4.18,4.18,0,0,0,.9,2.93,3.63,3.63,0,0,0,2.79,1,4.58,4.58,0,0,0,3.69-1.38,7,7,0,0,0,1.16-4.5v-8.44h2.43v16.06h-2l-.35-2.15h-.14a4.81,4.81,0,0,1-2.07,1.81,6.94,6.94,0,0,1-3,.63,6.12,6.12,0,0,1-4.39-1.39,5.93,5.93,0,0,1-1.46-4.45V244.46Z" style="fill: #fff"/>
    <path d="M1244.81,244.17a9.22,9.22,0,0,1,1.92.18l-.33,2.25a8.78,8.78,0,0,0-1.76-.22,4.28,4.28,0,0,0-3.33,1.58,5.76,5.76,0,0,0-1.39,3.95v8.61h-2.43V244.46h2l.27,3h.12A7.19,7.19,0,0,1,1242,245,4.84,4.84,0,0,1,1244.81,244.17Z" style="fill: #fff"/>
    <path d="M1270.67,244.46V246l-3,.35a5.14,5.14,0,0,1,1.06,3.21,4.78,4.78,0,0,1-1.61,3.77,6.55,6.55,0,0,1-4.43,1.4,8.17,8.17,0,0,1-1.34-.11,2.38,2.38,0,0,0-1.56,2.06,1,1,0,0,0,.55,1,4,4,0,0,0,1.86.31h2.84a6.35,6.35,0,0,1,4,1.1,3.8,3.8,0,0,1,1.4,3.19,4.56,4.56,0,0,1-2.14,4.07,11.44,11.44,0,0,1-6.24,1.4,8.52,8.52,0,0,1-4.85-1.18,3.77,3.77,0,0,1-1.71-3.31,3.69,3.69,0,0,1,.94-2.53,4.73,4.73,0,0,1,2.64-1.45,2.55,2.55,0,0,1-1-.87,2.26,2.26,0,0,1-.41-1.36,2.62,2.62,0,0,1,.46-1.54,5.06,5.06,0,0,1,1.48-1.27,4.29,4.29,0,0,1-2-1.74,5.08,5.08,0,0,1-.79-2.82,5.21,5.21,0,0,1,1.58-4.06,6.49,6.49,0,0,1,4.49-1.43,8.39,8.39,0,0,1,2.27.29Zm-12.8,18.75a2.18,2.18,0,0,0,1.09,2,6.09,6.09,0,0,0,3.15.68,8.81,8.81,0,0,0,4.54-.92,2.8,2.8,0,0,0,1.47-2.48,2,2,0,0,0-.81-1.81,6.16,6.16,0,0,0-3-.51h-2.91a3.86,3.86,0,0,0-2.58.79A2.82,2.82,0,0,0,1257.87,263.21Zm1.31-13.6a3.23,3.23,0,0,0,1,2.54,3.76,3.76,0,0,0,2.65.87q3.56,0,3.56-3.46,0-3.62-3.61-3.62a3.53,3.53,0,0,0-2.63.93A3.68,3.68,0,0,0,1259.18,249.61Z" style="fill: #fff"/>
    <path d="M1283.84,260.52l-.49-2.29h-.11a6.75,6.75,0,0,1-2.4,2,7.43,7.43,0,0,1-3,.53,5.35,5.35,0,0,1-3.74-1.23,4.47,4.47,0,0,1-1.36-3.5q0-4.86,7.78-5.1l2.73-.09v-1a4,4,0,0,0-.82-2.79,3.34,3.34,0,0,0-2.6-.9,10.59,10.59,0,0,0-4.54,1.23l-.75-1.86a11.33,11.33,0,0,1,2.61-1,10.94,10.94,0,0,1,2.83-.37,6.1,6.1,0,0,1,4.25,1.27,5.31,5.31,0,0,1,1.39,4.09v11Zm-5.5-1.72a4.92,4.92,0,0,0,3.57-1.24,4.62,4.62,0,0,0,1.3-3.49v-1.45l-2.43.11a8.69,8.69,0,0,0-4.19.9,2.72,2.72,0,0,0-1.28,2.48,2.52,2.52,0,0,0,.8,2A3.3,3.3,0,0,0,1278.34,258.8Z" style="fill: #fff"/>
    <path d="M1311.11,260.52V250.07a4.29,4.29,0,0,0-.82-2.87,3.15,3.15,0,0,0-2.55-1,4.1,4.1,0,0,0-3.35,1.3,6.22,6.22,0,0,0-1.08,4v9h-2.44V250.07a4.29,4.29,0,0,0-.82-2.87,3.18,3.18,0,0,0-2.56-1,4,4,0,0,0-3.35,1.37,7.39,7.39,0,0,0-1.06,4.49v8.42h-2.43V244.46h2l.39,2.2h.12a4.82,4.82,0,0,1,1.94-1.83,5.94,5.94,0,0,1,2.81-.66q3.77,0,4.92,2.73h.11a5.21,5.21,0,0,1,2.08-2,6.58,6.58,0,0,1,3.11-.73,5.44,5.44,0,0,1,4.08,1.4,6.26,6.26,0,0,1,1.35,4.47v10.48Z" style="fill: #fff"/>
    <path d="M1325.34,260.81a7.35,7.35,0,0,1-5.62-2.17,8.39,8.39,0,0,1-2.06-6,9.32,9.32,0,0,1,1.91-6.16,6.35,6.35,0,0,1,5.14-2.29,6,6,0,0,1,4.77,2,7.59,7.59,0,0,1,1.76,5.23v1.54h-11.06a6.31,6.31,0,0,0,1.43,4.29,4.91,4.91,0,0,0,3.81,1.47,12.82,12.82,0,0,0,5.13-1.09v2.17a12.82,12.82,0,0,1-2.44.8A13.79,13.79,0,0,1,1325.34,260.81Zm-.66-14.6a4,4,0,0,0-3.09,1.26,5.86,5.86,0,0,0-1.35,3.48h8.39a5.37,5.37,0,0,0-1-3.52A3.63,3.63,0,0,0,1324.68,246.21Z" style="fill: #fff"/>
    <path d="M1353.05,260.52l-.48-2.29h-.12a6.81,6.81,0,0,1-2.39,2,7.43,7.43,0,0,1-3,.53,5.38,5.38,0,0,1-3.75-1.23,4.5,4.5,0,0,1-1.35-3.5q0-4.86,7.78-5.1l2.72-.09v-1a4.08,4.08,0,0,0-.81-2.79,3.34,3.34,0,0,0-2.6-.9,10.59,10.59,0,0,0-4.54,1.23l-.75-1.86a11.25,11.25,0,0,1,2.6-1,11,11,0,0,1,2.83-.37,6.11,6.11,0,0,1,4.26,1.27,5.34,5.34,0,0,1,1.38,4.09v11Zm-5.49-1.72a5,5,0,0,0,3.57-1.24,4.62,4.62,0,0,0,1.29-3.49v-1.45l-2.43.11a8.64,8.64,0,0,0-4.18.9,2.7,2.7,0,0,0-1.28,2.48,2.49,2.49,0,0,0,.8,2A3.29,3.29,0,0,0,1347.56,258.8Z" style="fill: #fff"/>
    <path d="M1370.85,260.52V250.13a4.23,4.23,0,0,0-.89-2.93,3.67,3.67,0,0,0-2.8-1,4.6,4.6,0,0,0-3.69,1.36c-.79.91-1.18,2.41-1.18,4.5v8.42h-2.43V244.46h2l.4,2.2h.11a5,5,0,0,1,2.1-1.84,6.87,6.87,0,0,1,3-.65,6.13,6.13,0,0,1,4.37,1.4,6,6,0,0,1,1.46,4.47v10.48Z" style="fill: #fff"/>
    <path d="M1389.2,258.37h-.13a5.7,5.7,0,0,1-5,2.44,6,6,0,0,1-4.9-2.15,9.53,9.53,0,0,1-1.75-6.12,9.64,9.64,0,0,1,1.76-6.17,5.9,5.9,0,0,1,4.89-2.2,5.84,5.84,0,0,1,5,2.37h.19l-.1-1.15-.06-1.13v-6.53h2.43v22.79h-2Zm-4.86.41a4.44,4.44,0,0,0,3.61-1.36,6.82,6.82,0,0,0,1.12-4.37v-.51q0-3.42-1.13-4.87a4.3,4.3,0,0,0-3.63-1.46,3.71,3.71,0,0,0-3.27,1.66,8.23,8.23,0,0,0-1.14,4.69,8,8,0,0,0,1.13,4.65A3.84,3.84,0,0,0,1384.34,258.78Z" style="fill: #fff"/>
    <path d="M1401.9,244.46h2.61l3.52,9.16a33.84,33.84,0,0,1,1.43,4.53h.12c.13-.5.39-1.35.8-2.56s1.73-4.92,4-11.13H1417l-6.9,18.29a9.15,9.15,0,0,1-2.39,3.84,5.1,5.1,0,0,1-3.36,1.14,10.1,10.1,0,0,1-2.2-.25v-2a8.34,8.34,0,0,0,1.8.17c1.67,0,2.86-.93,3.57-2.81l.9-2.28Z" style="fill: #fff"/>
    <path d="M1433.43,252.48a8.86,8.86,0,0,1-2,6.13,7,7,0,0,1-5.46,2.2,7.3,7.3,0,0,1-3.83-1,6.7,6.7,0,0,1-2.58-2.9,10.17,10.17,0,0,1-.9-4.42,8.84,8.84,0,0,1,2-6.12,6.94,6.94,0,0,1,5.45-2.19,6.8,6.8,0,0,1,5.35,2.24A8.86,8.86,0,0,1,1433.43,252.48Zm-12.23,0a7.59,7.59,0,0,0,1.23,4.68,4.25,4.25,0,0,0,3.61,1.62,4.31,4.31,0,0,0,3.63-1.61,7.6,7.6,0,0,0,1.24-4.69,7.49,7.49,0,0,0-1.24-4.65,4.35,4.35,0,0,0-3.66-1.59,4.28,4.28,0,0,0-3.6,1.56A7.58,7.58,0,0,0,1421.2,252.48Z" style="fill: #fff"/>
    <path d="M1440,244.46v10.42a4.18,4.18,0,0,0,.89,2.93,3.65,3.65,0,0,0,2.8,1,4.54,4.54,0,0,0,3.68-1.38,6.94,6.94,0,0,0,1.17-4.5v-8.44H1451v16.06h-2l-.35-2.15h-.13a4.84,4.84,0,0,1-2.08,1.81,6.94,6.94,0,0,1-3,.63,6.14,6.14,0,0,1-4.39-1.39,5.93,5.93,0,0,1-1.46-4.45V244.46Z" style="fill: #fff"/>
    <path d="M1458.2,239.1l-.59,7.74h-1.54l-.6-7.74Z" style="fill: #fff"/>
    <path d="M1466.25,260.52l-6.09-16.06h2.61l3.46,9.53a42.57,42.57,0,0,1,1.37,4.33h.12a33.43,33.43,0,0,1,1-3.21q.85-2.45,3.84-10.65h2.61l-6.09,16.06Z" style="fill: #fff"/>
    <path d="M1484.55,260.81a7.37,7.37,0,0,1-5.62-2.17,8.39,8.39,0,0,1-2-6,9.27,9.27,0,0,1,1.91-6.16,6.32,6.32,0,0,1,5.13-2.29,6.06,6.06,0,0,1,4.78,2,7.59,7.59,0,0,1,1.75,5.23v1.54h-11.06a6.36,6.36,0,0,0,1.43,4.29,5,5,0,0,0,3.82,1.47,12.82,12.82,0,0,0,5.13-1.09v2.17a13.06,13.06,0,0,1-2.44.8A13.9,13.9,0,0,1,1484.55,260.81Zm-.66-14.6a4,4,0,0,0-3.08,1.26,5.8,5.8,0,0,0-1.36,3.48h8.4a5.37,5.37,0,0,0-1-3.52A3.62,3.62,0,0,0,1483.89,246.21Z" style="fill: #fff"/>
    <path d="M724.68,292.52l-.49-2.29h-.11a6.75,6.75,0,0,1-2.4,2,7.39,7.39,0,0,1-3,.53,5.35,5.35,0,0,1-3.74-1.23,4.47,4.47,0,0,1-1.36-3.5q0-4.86,7.78-5.1l2.73-.09v-1a4.08,4.08,0,0,0-.82-2.79,3.34,3.34,0,0,0-2.6-.9,10.59,10.59,0,0,0-4.54,1.23l-.74-1.86a11.68,11.68,0,0,1,5.43-1.38,6.1,6.1,0,0,1,4.25,1.27,5.31,5.31,0,0,1,1.39,4.09v11Zm-5.5-1.72a4.92,4.92,0,0,0,3.57-1.24,4.59,4.59,0,0,0,1.3-3.49v-1.45l-2.43.11a8.69,8.69,0,0,0-4.19.9,2.72,2.72,0,0,0-1.28,2.48,2.52,2.52,0,0,0,.8,2A3.3,3.3,0,0,0,719.18,290.8Z" style="fill: #fff"/>
    <path d="M737.91,292.81a6.84,6.84,0,0,1-5.4-2.14,8.82,8.82,0,0,1-1.92-6.08,9.06,9.06,0,0,1,1.95-6.22,7,7,0,0,1,5.53-2.2,10.68,10.68,0,0,1,2.31.25,7.61,7.61,0,0,1,1.82.59l-.75,2.06a11.75,11.75,0,0,0-1.76-.53,7.92,7.92,0,0,0-1.68-.22c-3.26,0-4.9,2.08-4.9,6.24a7.43,7.43,0,0,0,1.2,4.55,4.15,4.15,0,0,0,3.54,1.58,10.73,10.73,0,0,0,4.11-.87V292A8.82,8.82,0,0,1,737.91,292.81Z" style="fill: #fff"/>
    <path d="M756.76,292.52V282.13a4.18,4.18,0,0,0-.9-2.93,3.64,3.64,0,0,0-2.79-1,4.6,4.6,0,0,0-3.7,1.37,7,7,0,0,0-1.17,4.51v8.4h-2.43V269.73h2.43v6.89a14.69,14.69,0,0,1-.12,2.07h.15a4.92,4.92,0,0,1,2-1.82,6.55,6.55,0,0,1,3-.67,6.22,6.22,0,0,1,4.42,1.4,5.88,5.88,0,0,1,1.47,4.44v10.48Z" style="fill: #fff"/>
    <path d="M764,272.11a1.63,1.63,0,0,1,.41-1.22,1.42,1.42,0,0,1,1-.39,1.38,1.38,0,0,1,1,.4,1.55,1.55,0,0,1,.43,1.21,1.6,1.6,0,0,1-.43,1.23,1.49,1.49,0,0,1-2,0A1.67,1.67,0,0,1,764,272.11Zm2.64,20.41h-2.44V276.46h2.44Z" style="fill: #fff"/>
    <path d="M778.55,292.81a7.34,7.34,0,0,1-5.61-2.17,8.35,8.35,0,0,1-2.06-6,9.32,9.32,0,0,1,1.91-6.16,6.33,6.33,0,0,1,5.13-2.29,6,6,0,0,1,4.78,2,7.59,7.59,0,0,1,1.76,5.23v1.54H773.4a6.31,6.31,0,0,0,1.43,4.29,4.91,4.91,0,0,0,3.81,1.47,12.82,12.82,0,0,0,5.13-1.09v2.17a12.82,12.82,0,0,1-2.44.8A13.83,13.83,0,0,1,778.55,292.81Zm-.65-14.6a4,4,0,0,0-3.09,1.26,5.73,5.73,0,0,0-1.35,3.48h8.39a5.37,5.37,0,0,0-1-3.52A3.63,3.63,0,0,0,777.9,278.21Z" style="fill: #fff"/>
    <path d="M792.12,292.52,786,276.46h2.61l3.46,9.53c.78,2.22,1.24,3.67,1.38,4.33h.11a33.43,33.43,0,0,1,1-3.21q.85-2.44,3.85-10.65h2.6L795,292.52Z" style="fill: #fff"/>
    <path d="M810.42,292.81a7.35,7.35,0,0,1-5.62-2.17,8.35,8.35,0,0,1-2.06-6,9.32,9.32,0,0,1,1.91-6.16,6.33,6.33,0,0,1,5.13-2.29,6,6,0,0,1,4.78,2,7.59,7.59,0,0,1,1.76,5.23v1.54H805.26a6.31,6.31,0,0,0,1.43,4.29,4.91,4.91,0,0,0,3.81,1.47,12.82,12.82,0,0,0,5.13-1.09v2.17a12.82,12.82,0,0,1-2.44.8A13.79,13.79,0,0,1,810.42,292.81Zm-.67-14.6a4,4,0,0,0-3.08,1.26,5.8,5.8,0,0,0-1.35,3.48h8.39a5.32,5.32,0,0,0-1-3.52A3.62,3.62,0,0,0,809.75,278.21Z" style="fill: #fff"/>
    <path d="M831.39,290.37h-.13a5.7,5.7,0,0,1-5,2.44,6,6,0,0,1-4.9-2.15,9.47,9.47,0,0,1-1.75-6.12,9.64,9.64,0,0,1,1.76-6.17,5.9,5.9,0,0,1,4.89-2.2,5.84,5.84,0,0,1,5,2.37h.19l-.1-1.15-.06-1.13v-6.53h2.43v22.79h-2Zm-4.86.41a4.44,4.44,0,0,0,3.61-1.36,6.82,6.82,0,0,0,1.12-4.37v-.51q0-3.42-1.14-4.87a4.27,4.27,0,0,0-3.62-1.46,3.73,3.73,0,0,0-3.28,1.66,8.31,8.31,0,0,0-1.13,4.69,8,8,0,0,0,1.13,4.65A3.82,3.82,0,0,0,826.53,290.78Z" style="fill: #fff"/>
    <path d="M846.43,272.11a1.63,1.63,0,0,1,.41-1.22,1.45,1.45,0,0,1,1-.39,1.4,1.4,0,0,1,1,.4,1.55,1.55,0,0,1,.43,1.21,1.6,1.6,0,0,1-.43,1.23,1.5,1.5,0,0,1-2,0A1.67,1.67,0,0,1,846.43,272.11Zm2.64,20.41h-2.43V276.46h2.43Z" style="fill: #fff"/>
    <path d="M865.21,292.52V282.13a4.18,4.18,0,0,0-.89-2.93,3.65,3.65,0,0,0-2.8-1,4.6,4.6,0,0,0-3.69,1.36q-1.17,1.36-1.17,4.5v8.42h-2.43V276.46h2l.39,2.2h.12a5.06,5.06,0,0,1,2.09-1.84,6.88,6.88,0,0,1,3-.65,6.11,6.11,0,0,1,4.36,1.4,5.93,5.93,0,0,1,1.47,4.47v10.48Z" style="fill: #fff"/>
    <path d="M883.63,292.52V282.13a4.18,4.18,0,0,0-.9-2.93,3.63,3.63,0,0,0-2.79-1,4.6,4.6,0,0,0-3.69,1.36c-.79.91-1.18,2.41-1.18,4.5v8.42h-2.43V276.46h2l.39,2.2h.12a5,5,0,0,1,2.1-1.84,6.84,6.84,0,0,1,3-.65,6.09,6.09,0,0,1,4.36,1.4,5.93,5.93,0,0,1,1.47,4.47v10.48Z" style="fill: #fff"/>
    <path d="M904.91,284.48a8.86,8.86,0,0,1-2,6.13,7,7,0,0,1-5.46,2.2,7.24,7.24,0,0,1-3.82-1,6.58,6.58,0,0,1-2.58-2.9,10,10,0,0,1-.91-4.42,8.89,8.89,0,0,1,2-6.12,7,7,0,0,1,5.45-2.19,6.82,6.82,0,0,1,5.36,2.24A8.86,8.86,0,0,1,904.91,284.48Zm-12.23,0a7.59,7.59,0,0,0,1.23,4.68,4.86,4.86,0,0,0,7.24,0,7.54,7.54,0,0,0,1.24-4.69,7.43,7.43,0,0,0-1.24-4.65,4.33,4.33,0,0,0-3.65-1.59,4.28,4.28,0,0,0-3.6,1.56A7.51,7.51,0,0,0,892.68,284.48Z" style="fill: #fff"/>
    <path d="M912.69,292.52l-6.09-16.06h2.6l3.46,9.53c.78,2.22,1.24,3.67,1.38,4.33h.12a29.72,29.72,0,0,1,1-3.21q.86-2.44,3.85-10.65h2.61l-6.1,16.06Z" style="fill: #fff"/>
    <path d="M934.08,292.52l-.49-2.29h-.11a6.83,6.83,0,0,1-2.4,2,7.43,7.43,0,0,1-3,.53,5.35,5.35,0,0,1-3.74-1.23,4.47,4.47,0,0,1-1.36-3.5q0-4.86,7.78-5.1l2.72-.09v-1a4,4,0,0,0-.81-2.79,3.34,3.34,0,0,0-2.6-.9,10.59,10.59,0,0,0-4.54,1.23l-.75-1.86a11.25,11.25,0,0,1,2.6-1,11.07,11.07,0,0,1,2.84-.37,6.15,6.15,0,0,1,4.26,1.27,5.34,5.34,0,0,1,1.38,4.09v11Zm-5.5-1.72a4.92,4.92,0,0,0,3.57-1.24,4.62,4.62,0,0,0,1.3-3.49v-1.45l-2.44.11a8.67,8.67,0,0,0-4.18.9,2.72,2.72,0,0,0-1.28,2.48,2.52,2.52,0,0,0,.8,2A3.3,3.3,0,0,0,928.58,290.8Z" style="fill: #fff"/>
    <path d="M946.07,290.8a8.45,8.45,0,0,0,1.25-.09,6.91,6.91,0,0,0,.95-.2v1.86a4.52,4.52,0,0,1-1.16.32,9.21,9.21,0,0,1-1.39.12c-3.1,0-4.66-1.63-4.66-4.91v-9.55h-2.3v-1.17l2.3-1,1-3.43h1.41v3.72h4.65v1.89H943.5v9.45a3.25,3.25,0,0,0,.68,2.23A2.39,2.39,0,0,0,946.07,290.8Z" style="fill: #fff"/>
    <path d="M965.34,284.48a8.86,8.86,0,0,1-2,6.13,7,7,0,0,1-5.46,2.2,7.3,7.3,0,0,1-3.83-1,6.7,6.7,0,0,1-2.58-2.9,10.17,10.17,0,0,1-.9-4.42,8.84,8.84,0,0,1,2-6.12,6.94,6.94,0,0,1,5.45-2.19,6.8,6.8,0,0,1,5.35,2.24A8.86,8.86,0,0,1,965.34,284.48Zm-12.23,0a7.59,7.59,0,0,0,1.23,4.68,4.25,4.25,0,0,0,3.61,1.62,4.31,4.31,0,0,0,3.63-1.61,7.6,7.6,0,0,0,1.24-4.69,7.49,7.49,0,0,0-1.24-4.65,4.35,4.35,0,0,0-3.66-1.59,4.28,4.28,0,0,0-3.6,1.56A7.58,7.58,0,0,0,953.11,284.48Z" style="fill: #fff"/>
    <path d="M976.92,276.17a9.22,9.22,0,0,1,1.92.18l-.34,2.25a8.69,8.69,0,0,0-1.75-.22,4.28,4.28,0,0,0-3.33,1.58,5.76,5.76,0,0,0-1.39,4v8.61H969.6V276.46h2l.27,3H972a7.09,7.09,0,0,1,2.15-2.42A4.84,4.84,0,0,1,976.92,276.17Z" style="fill: #fff"/>
    <path d="M1000,288.14a4,4,0,0,1-1.67,3.46,7.83,7.83,0,0,1-4.68,1.21,10.23,10.23,0,0,1-5-1v-2.26a11.65,11.65,0,0,0,2.48.93,10.58,10.58,0,0,0,2.56.33,5.9,5.9,0,0,0,2.93-.6,2,2,0,0,0,1-1.86,2,2,0,0,0-.81-1.6,12.77,12.77,0,0,0-3.17-1.57,17.62,17.62,0,0,1-3.19-1.46,4.43,4.43,0,0,1-1.41-1.42,3.73,3.73,0,0,1-.46-1.89,3.58,3.58,0,0,1,1.6-3.09,7.4,7.4,0,0,1,4.38-1.14,12.7,12.7,0,0,1,5.07,1.06l-.87,2a11.68,11.68,0,0,0-4.38-1,5,5,0,0,0-2.6.54,1.67,1.67,0,0,0-.88,1.49,1.82,1.82,0,0,0,.33,1.1,3.35,3.35,0,0,0,1.06.87,23.12,23.12,0,0,0,2.81,1.18,10.46,10.46,0,0,1,3.86,2.1A3.67,3.67,0,0,1,1000,288.14Z" style="fill: #fff"/>
    <path d="M1009.14,290.8a8.32,8.32,0,0,0,1.24-.09,6.91,6.91,0,0,0,1-.2v1.86a4.52,4.52,0,0,1-1.16.32,9.11,9.11,0,0,1-1.39.12c-3.1,0-4.65-1.63-4.65-4.91v-9.55h-2.3v-1.17l2.3-1,1-3.43h1.41v3.72h4.66v1.89h-4.66v9.45a3.25,3.25,0,0,0,.69,2.23A2.37,2.37,0,0,0,1009.14,290.8Z" style="fill: #fff"/>
    <path d="M1024.41,292.52l-.48-2.29h-.12a6.81,6.81,0,0,1-2.39,2,7.43,7.43,0,0,1-3,.53,5.38,5.38,0,0,1-3.75-1.23,4.5,4.5,0,0,1-1.35-3.5q0-4.86,7.78-5.1l2.72-.09v-1a4.08,4.08,0,0,0-.81-2.79,3.34,3.34,0,0,0-2.6-.9,10.59,10.59,0,0,0-4.54,1.23l-.75-1.86a11.25,11.25,0,0,1,2.6-1,11,11,0,0,1,2.84-.37,6.1,6.1,0,0,1,4.25,1.27,5.34,5.34,0,0,1,1.38,4.09v11Zm-5.49-1.72a5,5,0,0,0,3.57-1.24,4.62,4.62,0,0,0,1.29-3.49v-1.45l-2.43.11a8.64,8.64,0,0,0-4.18.9,2.7,2.7,0,0,0-1.28,2.48,2.49,2.49,0,0,0,.8,2A3.29,3.29,0,0,0,1018.92,290.8Z" style="fill: #fff"/>
    <path d="M1036.41,290.8a8.45,8.45,0,0,0,1.25-.09,7.25,7.25,0,0,0,.95-.2v1.86a4.62,4.62,0,0,1-1.17.32,9,9,0,0,1-1.38.12c-3.11,0-4.66-1.63-4.66-4.91v-9.55h-2.3v-1.17l2.3-1,1-3.43h1.4v3.72h4.66v1.89h-4.66v9.45a3.25,3.25,0,0,0,.69,2.23A2.39,2.39,0,0,0,1036.41,290.8Z" style="fill: #fff"/>
    <path d="M1044.1,276.46v10.42a4.23,4.23,0,0,0,.89,2.93,3.67,3.67,0,0,0,2.8,1,4.58,4.58,0,0,0,3.69-1.38,7,7,0,0,0,1.16-4.5v-8.44h2.43v16.06h-2l-.36-2.15h-.13a4.87,4.87,0,0,1-2.07,1.81,7,7,0,0,1-3,.63,6.11,6.11,0,0,1-4.38-1.39,5.93,5.93,0,0,1-1.46-4.45V276.46Z" style="fill: #fff"/>
    <path d="M1070.59,288.14a4,4,0,0,1-1.67,3.46,7.88,7.88,0,0,1-4.69,1.21,10.23,10.23,0,0,1-5-1v-2.26a11.86,11.86,0,0,0,2.48.93,10.58,10.58,0,0,0,2.56.33,5.88,5.88,0,0,0,2.93-.6,2,2,0,0,0,1-1.86,2,2,0,0,0-.81-1.6,12.77,12.77,0,0,0-3.17-1.57,17.62,17.62,0,0,1-3.19-1.46,4.29,4.29,0,0,1-1.4-1.42,3.87,3.87,0,0,1,1.13-5,7.44,7.44,0,0,1,4.38-1.14,12.7,12.7,0,0,1,5.07,1.06l-.87,2a11.68,11.68,0,0,0-4.38-1,5,5,0,0,0-2.6.54,1.67,1.67,0,0,0-.88,1.49,1.82,1.82,0,0,0,.33,1.1,3.35,3.35,0,0,0,1.06.87,23.87,23.87,0,0,0,2.81,1.18,10.46,10.46,0,0,1,3.86,2.1A3.68,3.68,0,0,1,1070.59,288.14Z" style="fill: #fff"/>
    <path d="M1074.19,291a2.18,2.18,0,0,1,.45-1.49,1.59,1.59,0,0,1,1.28-.51,1.73,1.73,0,0,1,1.32.51,2.09,2.09,0,0,1,.48,1.49,2.06,2.06,0,0,1-.48,1.46,1.76,1.76,0,0,1-1.32.51,1.73,1.73,0,0,1-1.24-.46A2,2,0,0,1,1074.19,291Z" style="fill: #fff"/>
  </g>
  <g>
    <path d="M586.11,295.9H620.9V285.16a2.32,2.32,0,0,0-2.31-2.31H588.42a2.32,2.32,0,0,0-2.31,2.31Zm35.5,1.43H585.4a.71.71,0,0,1-.72-.71V285.16a3.75,3.75,0,0,1,3.74-3.74h30.17a3.75,3.75,0,0,1,3.74,3.74v11.46a.71.71,0,0,1-.72.71Z" style="fill: #fff"/>
    <path d="M591.35,281.42h24.31v-4.15H591.35Zm25,1.43H590.64a.71.71,0,0,1-.72-.71v-5.59a.71.71,0,0,1,.72-.71h25.74a.71.71,0,0,1,.71.71v5.59a.71.71,0,0,1-.72.71Z" style="fill: #fff"/>
    <path d="M606.08,277.26h-5.15a.71.71,0,0,1-.71-.71V260.19a.72.72,0,0,1,1.43,0v15.64h3.71V260.19a.72.72,0,0,1,1.43,0v16.36a.71.71,0,0,1-.71.71Z" style="fill: #fff"/>
    <path d="M577.39,205.9v17.52c0,20,11.72,36.23,26.12,36.23s26.11-16.25,26.11-36.23V205.9Zm26.12,55.18c-15.19,0-27.55-16.89-27.55-37.66V205.19a.72.72,0,0,1,.72-.72h53.65a.72.72,0,0,1,.72.72v18.23c0,20.77-12.36,37.66-27.54,37.66Z" style="fill: #fff"/>
    <path d="M578.63,238a.57.57,0,0,1-.22,0c-10.66-3.58-17.54-14.2-17.54-27.06a.71.71,0,0,1,.71-.71h15.1a.72.72,0,0,1,0,1.43H562.31c.24,12.08,6.53,21.62,16.55,25a.71.71,0,0,1,.45.91.72.72,0,0,1-.67.48Z" style="fill: #fff"/>
    <path d="M628.38,238a.7.7,0,0,1-.68-.49.71.71,0,0,1,.45-.9c10-3.37,16.32-12.91,16.55-25H630.33a.72.72,0,0,1,0-1.43h15.1a.71.71,0,0,1,.71.71c0,12.86-6.88,23.48-17.53,27.06a.66.66,0,0,1-.23,0Z" style="fill: #fff"/>
    <path d="M617.4,249.83a.74.74,0,0,1-.48-.18.72.72,0,0,1-.06-1,34,34,0,0,0,7-13.64.71.71,0,0,1,1.38.37,35.32,35.32,0,0,1-7.28,14.22.71.71,0,0,1-.53.24Z" style="fill: #fff"/>
    <path d="M603.51,242.82a.67.67,0,0,1,.33.08l6.09,3.2-1.16-6.79a.74.74,0,0,1,.2-.63l4.93-4.8-6.81-1a.75.75,0,0,1-.54-.39l-3-6.17-3,6.17a.75.75,0,0,1-.54.39l-6.81,1,4.93,4.8a.74.74,0,0,1,.2.63l-1.16,6.79,6.09-3.2A.66.66,0,0,1,603.51,242.82Zm7.37,5.3a.81.81,0,0,1-.34-.08l-7-3.71-7,3.71a.72.72,0,0,1-1-.76l1.34-7.84-5.69-5.55a.69.69,0,0,1-.18-.73.72.72,0,0,1,.58-.49l7.87-1.14,3.52-7.13a.74.74,0,0,1,1.28,0l3.52,7.13,7.87,1.14a.72.72,0,0,1,.4,1.22l-5.7,5.55,1.35,7.84a.73.73,0,0,1-.29.7.7.7,0,0,1-.41.14Z" style="fill: #fff"/>
  </g>
  <g>
    <path d="M430.52,82.89H393.28A2.88,2.88,0,0,1,390.4,80V39.78a2.89,2.89,0,0,1,2.88-2.88h36.61l-.8,1.34H393.28a1.55,1.55,0,0,0-1.55,1.54V80a1.56,1.56,0,0,0,1.55,1.55h37.24Z" style="fill: #5f0000"/>
    <path d="M405.77,82.89H443A2.88,2.88,0,0,0,445.89,80V39.78A2.89,2.89,0,0,0,443,36.9H414.4l.8,1.34H443a1.55,1.55,0,0,1,1.55,1.54V80A1.56,1.56,0,0,1,443,81.56H405.77Z" style="fill: #5f0000"/>
    <path d="M414.43,62.5a.8.8,0,0,0-1.13,0,.79.79,0,0,0,0,1.13l4.89,5.18L413.27,74a.79.79,0,0,0,0,1.13.77.77,0,0,0,.55.22.83.83,0,0,0,.58-.25l5.41-5.73a.8.8,0,0,0,0-1.1Z" style="fill: #e00"/>
    <path d="M411.48,62.38a.8.8,0,0,0-1,.46l-4.34,11.31a.8.8,0,0,0,.46,1,.69.69,0,0,0,.28,0,.79.79,0,0,0,.75-.51l4.34-11.32a.79.79,0,0,0-.46-1Z" style="fill: #e00"/>
    <path d="M404.75,62.47a.8.8,0,0,0-1.13,0l-5.41,5.73a.8.8,0,0,0,0,1.1l5.41,5.73a.79.79,0,0,0,.58.25.77.77,0,0,0,.55-.22.79.79,0,0,0,0-1.13l-4.89-5.18,4.89-5.18a.79.79,0,0,0,0-1.13Z" style="fill: #e00"/>
    <path d="M409.85,48.47l.8-1.34,34.74-.06v1.34Z" style="fill: #5f0000"/>
    <path d="M406.31,48.49h-9.46c-1.77,0-3.2,0-4.19,0-1.86,0-1.86,0-2.07-.3l1.05-.82h0a.67.67,0,0,0-.42-.26c.34,0,4,.08,19.33.07h4.78l1.6,1.33H406.31Z" style="fill: #5f0000"/>
    <rect x="395.07" y="41.99" width="1.36" height="1.33" style="fill: #9b9b9b"/>
    <rect x="400.52" y="41.99" width="1.36" height="1.33" style="fill: #9b9b9b"/>
    <rect x="405.96" y="41.99" width="1.36" height="1.33" style="fill: #9b9b9b"/>
  </g>
  <g>
    <path d="M869.65,54.73h-1.34V37.94a1.56,1.56,0,0,0-1.55-1.55h-6l-.8-1.33h6.77a2.88,2.88,0,0,1,2.88,2.88Z" style="fill: #5f0000"/>
    <path d="M849.62,81.05H812.38a2.89,2.89,0,0,1-2.88-2.88V37.94a2.88,2.88,0,0,1,2.88-2.88H865l-.8,1.33H812.38a1.56,1.56,0,0,0-1.54,1.55V78.17a1.56,1.56,0,0,0,1.54,1.55h37.24Z" style="fill: #5f0000"/>
    <path d="M833.53,60.66a.8.8,0,1,0-1.16,1.1l4.89,5.18-4.89,5.19a.79.79,0,0,0,0,1.13.82.82,0,0,0,.55.22.83.83,0,0,0,.58-.25l5.41-5.73a.8.8,0,0,0,0-1.1Z" style="fill: #e00"/>
    <path d="M830.59,60.54a.8.8,0,0,0-1,.46l-4.34,11.31a.81.81,0,0,0,.46,1,.93.93,0,0,0,.29.05.79.79,0,0,0,.74-.52l4.35-11.31a.8.8,0,0,0-.46-1Z" style="fill: #e00"/>
    <path d="M823.86,60.63a.81.81,0,0,0-1.14,0l-5.41,5.73a.8.8,0,0,0,0,1.1l5.41,5.73a.79.79,0,0,0,.59.25.8.8,0,0,0,.58-1.35L819,66.94l4.9-5.18a.8.8,0,0,0,0-1.13Z" style="fill: #e00"/>
    <path d="M829,46.62l.8-1.33,38.75-.06v1.33Z" style="fill: #5f0000"/>
    <path d="M825.41,46.64H816l-4.19,0c-1.86,0-1.86,0-2.07-.3l1-.82h0a.65.65,0,0,0-.42-.26c.34,0,4,.08,19.33.07h4.78l1.6,1.33H825.41Z" style="fill: #5f0000"/>
    <rect x="814.17" y="40.14" width="1.36" height="1.33" style="fill: #9b9b9b"/>
    <rect x="819.62" y="40.14" width="1.36" height="1.33" style="fill: #9b9b9b"/>
    <rect x="825.06" y="40.14" width="1.36" height="1.33" style="fill: #9b9b9b"/>
    <path d="M860.28,63.74h0a4.51,4.51,0,1,0,4.51,4.52,4.52,4.52,0,0,0-4.51-4.52Zm0,10h0a5.51,5.51,0,1,1,5.52-5.51,5.53,5.53,0,0,1-5.52,5.51Zm-4.95,2.57a1,1,0,0,1,.46.11l2.67,1.27h0a1.12,1.12,0,0,1,.62.92l.1,2.09h0a.1.1,0,0,0,.09.08H862a.08.08,0,0,0,.08-.08l.23-2.41a1.09,1.09,0,0,1,.68-.91l2.48-1h0a1.09,1.09,0,0,1,1.15.22l1.67,1.56a.09.09,0,0,0,.12,0l1.85-1.85a.11.11,0,0,0,0-.06.14.14,0,0,0,0-.06l-1.78-1.67h0a1.09,1.09,0,0,1-.25-1.24l1.41-3.21h0a1.1,1.1,0,0,1,1-.65h2.5a.07.07,0,0,0,.08-.08V66.93a.08.08,0,0,0-.08-.09h-2.65a1.07,1.07,0,0,1-1-.65l-1.11-2.59h0a1.09,1.09,0,0,1,.23-1.21l2.14-2.14h0s0,0,0-.06a.09.09,0,0,0,0-.06l-1.86-1.86h0a.09.09,0,0,0-.12,0l-2.11,2h0a1.08,1.08,0,0,1-1.27.17l-2.48-1.36h0a1.11,1.11,0,0,1-.57-1V55.58a.09.09,0,0,0-.08-.08h-3.55a.09.09,0,0,0-.09.08v2.94a1.09,1.09,0,0,1-.72,1l-2.66,1a1.08,1.08,0,0,1-1.25-.37l-1.22-1.63a.09.09,0,0,0-.06,0,.06.06,0,0,0-.07,0l-1.92,1.93h0a.11.11,0,0,0,0,.06.09.09,0,0,0,0,.06l1.61,1.5a1.1,1.1,0,0,1,.24,1.26l-1.4,2.91a1.09,1.09,0,0,1-1,.61h-2a.09.09,0,0,0-.09.09v2.58a.09.09,0,0,0,0,.06l.06,0,2.09-.1a1.09,1.09,0,0,1,1.09.76l.89,2.76a1.11,1.11,0,0,1-.13.94l-1.18,1.76h0a.09.09,0,0,0,0,.1L852.75,78a.09.09,0,0,0,.12,0l1.78-1.45h0a1.14,1.14,0,0,1,.69-.23ZM862,81.82h-2.69a1.09,1.09,0,0,1-1.09-1l-.11-2.09a.08.08,0,0,0-.05-.07l-2.66-1.27h0a.1.1,0,0,0-.09,0l-1.78,1.45a1.09,1.09,0,0,1-1.52-.14l-1.87-2.21a1.1,1.1,0,0,1-.07-1.31l1.17-1.77h0a.06.06,0,0,0,0-.07l-.88-2.77s0-.07-.08-.06l-2.09.1h0a1.07,1.07,0,0,1-.8-.29,1.1,1.1,0,0,1-.34-.79V66.93a1.09,1.09,0,0,1,1.09-1.09h2a.08.08,0,0,0,.07,0l1.39-2.9a.08.08,0,0,0,0-.1L850,61.29a1.08,1.08,0,0,1-.34-.77,1.06,1.06,0,0,1,.33-.8l1.92-1.92a1.1,1.1,0,0,1,1.65.11l1.22,1.63a.07.07,0,0,0,.1,0l2.67-1h0a.08.08,0,0,0,.05-.08V55.58a1.09,1.09,0,0,1,1.09-1.09h3.55a1.09,1.09,0,0,1,1.09,1.09v2.54s0,.05,0,.07l2.47,1.36a.09.09,0,0,0,.1,0l2.11-2a1.07,1.07,0,0,1,1.52,0l1.86,1.85a1.14,1.14,0,0,1,.32.78,1.12,1.12,0,0,1-.32.77l-2.13,2.14a.08.08,0,0,0,0,.09l1.11,2.59a.08.08,0,0,0,.07,0h2.65a1.09,1.09,0,0,1,1.1,1.09v2.45a1.1,1.1,0,0,1-1.1,1.09h-2.5a.08.08,0,0,0-.08,0l-1.41,3.21h0a.1.1,0,0,0,0,.09l1.78,1.67a1.09,1.09,0,0,1,0,1.56l-1.85,1.85a1.08,1.08,0,0,1-1.51,0l-1.68-1.57a.09.09,0,0,0-.09,0l-2.47,1h0a.08.08,0,0,0-.05.07l-.23,2.41a1.09,1.09,0,0,1-1.09,1Z" style="fill: #9b9b9b"/>
  </g>
  <g>
    <path d="M1330.62,59.8h-1.34V43a1.56,1.56,0,0,0-1.54-1.55H1325l-.8-1.33h3.57a2.88,2.88,0,0,1,2.88,2.88Z" style="fill: #5f0000"/>
    <path d="M1310.59,86.12h-37.24a2.9,2.9,0,0,1-2.88-2.88V43a2.89,2.89,0,0,1,2.88-2.88h17.42l-.8,1.33h-16.62a1.56,1.56,0,0,0-1.54,1.55V83.24a1.56,1.56,0,0,0,1.54,1.55h37.24Z" style="fill: #5f0000"/>
    <polygon points="1325.12 51.7 1325.92 50.36 1329.47 50.3 1329.47 51.64 1325.12 51.7" style="fill: #5f0000"/>
    <path d="M1286.39,51.71h-9.47l-4.18,0c-1.87,0-1.87,0-2.08-.3l1-.82h0a.65.65,0,0,0-.42-.26c.35,0,4,.08,19.33.07h1.59l1.6,1.33h-7.42Z" style="fill: #5f0000"/>
    <rect x="1275.15" y="45.21" width="1.36" height="1.33" style="fill: #9b9b9b"/>
    <rect x="1280.59" y="45.21" width="1.36" height="1.33" style="fill: #9b9b9b"/>
    <rect x="1286.04" y="45.21" width="1.36" height="1.33" style="fill: #9b9b9b"/>
    <path d="M1321.26,68.81h0a4.5,4.5,0,1,0,4.51,4.51,4.49,4.49,0,0,0-4.51-4.51Zm0,10h0a5.52,5.52,0,1,1,5.51-5.52,5.51,5.51,0,0,1-5.51,5.52Zm-5,2.57a1.12,1.12,0,0,1,.47.11l2.66,1.27h0a1.1,1.1,0,0,1,.62.92l.11,2.09h0a.09.09,0,0,0,.08.08h2.69a.09.09,0,0,0,.09-.08l.23-2.41a1.07,1.07,0,0,1,.68-.91l2.47-1h0a1.11,1.11,0,0,1,1.15.22l1.68,1.56a.07.07,0,0,0,.11,0l1.85-1.85a.06.06,0,0,0,0-.06s0,0,0-.06l-1.78-1.66h0a1.12,1.12,0,0,1-.25-1.24l1.41-3.21h0a1.11,1.11,0,0,1,1-.65h2.49a.08.08,0,0,0,.09-.08V72a.09.09,0,0,0-.09-.09h-2.64a1.07,1.07,0,0,1-1-.65l-1.11-2.59h0a1.09,1.09,0,0,1,.23-1.21l2.14-2.14h0a.08.08,0,0,0,0-.12l-1.85-1.86h0a.08.08,0,0,0-.11,0l-2.11,2h0a1.09,1.09,0,0,1-1.27.16l-2.47-1.36h0a1.09,1.09,0,0,1-.57-1V60.65a.08.08,0,0,0-.08-.08h-3.55a.09.09,0,0,0-.08.08v2.94a1.12,1.12,0,0,1-.72,1l-2.67,1a1.06,1.06,0,0,1-1.24-.37l-1.23-1.63a.06.06,0,0,0-.06,0,0,0,0,0,0-.06,0l-1.93,1.93h0a.07.07,0,0,0,0,.06.09.09,0,0,0,0,.06l1.61,1.5a1.08,1.08,0,0,1,.24,1.26l-1.4,2.91a1.09,1.09,0,0,1-1,.61h-2a.08.08,0,0,0-.08.09v2.58a.14.14,0,0,0,0,.06.08.08,0,0,0,.07,0l2.08-.1a1.09,1.09,0,0,1,1.09.76l.89,2.76a1,1,0,0,1-.13.94l-1.17,1.76h0a.07.07,0,0,0,0,.1l1.86,2.22a.09.09,0,0,0,.12,0l1.79-1.45h0a1,1,0,0,1,.68-.24Zm6.64,5.48h-2.69a1.09,1.09,0,0,1-1.09-1l-.11-2.09a.08.08,0,0,0,0-.07l-2.66-1.27h0a.08.08,0,0,0-.08,0l-1.79,1.45a1.09,1.09,0,0,1-1.52-.14l-1.87-2.21a1.1,1.1,0,0,1-.07-1.31l1.17-1.76h0a.17.17,0,0,0,0-.07l-.89-2.77a.08.08,0,0,0-.08-.06l-2.08.1h0a1.09,1.09,0,0,1-1.15-1.09V72a1.09,1.09,0,0,1,1.09-1.09h2a.1.1,0,0,0,.08,0l1.38-2.9a.09.09,0,0,0,0-.1L1311,66.37a1.12,1.12,0,0,1-.34-.78,1.14,1.14,0,0,1,.33-.8l1.93-1.92a1.07,1.07,0,0,1,.85-.32,1.09,1.09,0,0,1,.79.43l1.22,1.64a.08.08,0,0,0,.1,0l2.67-1h0a.09.09,0,0,0,.06-.08V60.65a1.09,1.09,0,0,1,1.09-1.09h3.54a1.09,1.09,0,0,1,1.09,1.09v2.54a.08.08,0,0,0,0,.07l2.47,1.36a.09.09,0,0,0,.1,0l2.11-2a1.08,1.08,0,0,1,1.52,0l1.86,1.86a1.1,1.1,0,0,1,.32.77,1.12,1.12,0,0,1-.32.77l-2.13,2.14a.1.1,0,0,0,0,.09l1.11,2.59a.09.09,0,0,0,.08,0h2.65a1.09,1.09,0,0,1,1.09,1.09v2.45a1.09,1.09,0,0,1-1.09,1.09h-2.51a.08.08,0,0,0-.07,0l-1.41,3.21h0a.08.08,0,0,0,0,.09l1.77,1.67a1.09,1.09,0,0,1,.35.78,1.12,1.12,0,0,1-.32.79L1330.07,84a1.09,1.09,0,0,1-1.52,0l-1.67-1.57a.1.1,0,0,0-.09,0l-2.48,1h0a.13.13,0,0,0,0,.07l-.23,2.41a1.09,1.09,0,0,1-1.09,1Z" style="fill: #9b9b9b"/>
    <path d="M1323.24,46.21a4.55,4.55,0,0,1-4.54,4.54h-3.78a7.55,7.55,0,0,0-3.64-10.91,7.55,7.55,0,0,0-10.3,6.07,7.3,7.3,0,0,0-.06.94,7.47,7.47,0,0,0,1.1,3.9h-2.36a6,6,0,0,1-6-6v-.2a6,6,0,0,1,5.54-6,.37.37,0,0,0,.33-.3,9.56,9.56,0,0,1,9.45-7.59h.08a9.69,9.69,0,0,1,9.68,9.68V41a.36.36,0,0,0,.34.37,4.48,4.48,0,0,1,4.11,4.53ZM1314,50.85h0a6.77,6.77,0,0,1-10.94,0l0,0a6.75,6.75,0,0,1-1.32-4,6,6,0,0,1,.06-.85,6.8,6.8,0,0,1,13.55.85,6.71,6.71,0,0,1-1.32,4Zm5.58-10.16v-.28A10.43,10.43,0,0,0,1309.1,30H1309a10.29,10.29,0,0,0-10.11,7.91,6.76,6.76,0,0,0-6,6.68v.21a6.72,6.72,0,0,0,6.71,6.7h2.87a7.52,7.52,0,0,0,11.88,0h4.29a5.28,5.28,0,0,0,5.28-5.27v-.29a5.23,5.23,0,0,0-4.45-5.24ZM1311,43.92a.36.36,0,0,0-.52,0,.37.37,0,0,0,0,.52l2.28,2.42-2.28,2.41a.38.38,0,0,0,0,.53.35.35,0,0,0,.25.1.36.36,0,0,0,.27-.12l2.52-2.67a.36.36,0,0,0,0-.51Zm-1.37-.06a.38.38,0,0,0-.48.22l-2,5.27a.37.37,0,0,0,.21.48.34.34,0,0,0,.14,0,.35.35,0,0,0,.34-.24l2-5.27a.38.38,0,0,0-.22-.48Zm-3.13,0a.37.37,0,0,0-.53,0l-2.52,2.67a.38.38,0,0,0,0,.51l2.52,2.67a.36.36,0,0,0,.27.12.38.38,0,0,0,.26-.11.36.36,0,0,0,0-.52l-2.28-2.42,2.28-2.41a.37.37,0,0,0,0-.52Z"/>
    <g>
      <path d="M1294.15,66.82h-2.59a.4.4,0,0,1-.4-.4v-3.8a4.3,4.3,0,0,0-8.59,0v3.8a.4.4,0,0,1-.4.4h-2.59a.4.4,0,0,1-.4-.4v-3.8a7.69,7.69,0,0,1,15.37,0v3.8A.4.4,0,0,1,1294.15,66.82ZM1292,66h1.79v-3.4a6.89,6.89,0,0,0-13.77,0V66h1.79v-3.4a5.1,5.1,0,0,1,10.19,0Z" style="fill: #e00"/>
      <path d="M1295.23,82.5h-16.72a2,2,0,0,1-2-2V68a2,2,0,0,1,2-2h16.72a1.93,1.93,0,0,1,2,1.9V80.55A2,2,0,0,1,1295.23,82.5Zm-16.72-15.68a1.13,1.13,0,0,0-1.15,1.15V80.55a1.13,1.13,0,0,0,1.15,1.15h16.72a1.14,1.14,0,0,0,1.15-1.15V67.92a1.13,1.13,0,0,0-1.15-1.1Z" style="fill: #e00"/>
      <path d="M1288.46,77.85h-3.27a.4.4,0,0,1-.31-.15.39.39,0,0,1-.08-.34l.55-2.55a2.37,2.37,0,1,1,3.9-1.8,2.27,2.27,0,0,1-.94,1.82l.54,2.53a.39.39,0,0,1-.08.34A.4.4,0,0,1,1288.46,77.85Zm-2.78-.8H1288l-.5-2.32a.4.4,0,0,1,.19-.43,1.48,1.48,0,0,0,.79-1.29,1.59,1.59,0,0,0-3.17,0,1.6,1.6,0,0,0,.73,1.3.39.39,0,0,1,.17.42Z" style="fill: #e00"/>
    </g>
  </g>
</svg>
