<svg xmlns="http://www.w3.org/2000/svg" viewBox="0 0 90 90">
  <title>native</title>
  <g>
    <path d="M45,85.62A40.62,40.62,0,1,0,4.38,45,40.61,40.61,0,0,0,45,85.62" style="fill: #e33113"/>
    <path d="M35.74,35A8.06,8.06,0,0,1,43.8,27M55.66,49.74h2.85a8.54,8.54,0,1,0-3-16.52A11.85,11.85,0,0,0,32,34.63a7.77,7.77,0,0,0-1-.07,7.59,7.59,0,1,0,0,15.18h3.8M37.63,46v9.49H27.2M34.79,63v-3.8h6.64V46M27.2,53.54H23.4v3.8h3.8ZM36.69,63h-3.8v3.8h3.8ZM52.82,46v9.49H63.26M55.66,63v-3.8H49V46m-9.49-3.8H50.92m-18-.95V46H57.56V41.2M45.23,46V63m18-9.49h3.79v3.8H63.26ZM53.77,63h3.79v3.8H53.77ZM43.33,63h3.79v3.8H43.33Z" style="fill: none;stroke: #fff;stroke-miterlimit: 10;stroke-width: 1.25600004196167px"/>
  </g>
</svg>
