<svg id="Layer_1" data-name="Layer 1" xmlns="http://www.w3.org/2000/svg" xmlns:xlink="http://www.w3.org/1999/xlink" viewBox="0 0 1615.75 497.95">
  <defs>
    <linearGradient id="linear-gradient" x1="338.17" y1="303.39" x2="1614.92" y2="303.39" gradientUnits="userSpaceOnUse">
      <stop offset="0" stop-color="#fff"/>
      <stop offset="1" stop-color="#ccc"/>
    </linearGradient>
  </defs>
  <title>native_stage1</title>
  <line x1="283.02" y1="19.54" x2="283.02" y2="497.54" style="fill: none;stroke: gray;stroke-miterlimit: 10"/>
  <rect x="338.17" y="131.23" width="1276.75" height="344.31" style="opacity: 0.5;fill: url(#linear-gradient)"/>
  <line x1="723.02" y1="19.54" x2="723.02" y2="497.54" style="fill: none;stroke: gray;stroke-miterlimit: 10"/>
  <line x1="1275.02" y1="19.54" x2="1275.02" y2="497.54" style="fill: none;stroke: gray;stroke-miterlimit: 10"/>
  <rect x="298.17" y="214.94" width="334" height="181" style="fill: #12457b"/>
  <text transform="translate(377.6 314.23)" style="font-size: 30px;fill: #fff;font-family: OpenSans, Open Sans">You are here</text>
  <line x1="0.42" y1="111.44" x2="1614.31" y2="111.44" style="fill: none;stroke: gray;stroke-miterlimit: 10"/>
  <g>
    <line x1="643.87" y1="305.44" x2="674.28" y2="305.44" style="fill: none;stroke: #c1272d;stroke-miterlimit: 10;stroke-width: 7px"/>
    <polygon points="709.37 305.44 659.93 325.65 671.66 305.44 659.93 285.24 709.37 305.44" style="fill: #c1272d"/>
  </g>
  <text transform="translate(779.07 196.87)" style="font-size: 30px;font-family: OpenSans, Open Sans">Cost reduction (consumption <tspan x="-0.05" y="32">based)</tspan><tspan x="-0.14" y="88">Ensuring compliance</tspan><tspan x="-0.23" y="144">IT performance</tspan><tspan x="-0.32" y="200">Resource utilization</tspan></text>
  <text transform="translate(1302.87 278.65)" style="font-size: 30px;font-family: OpenSans, Open Sans">Additional benefts <tspan x="0" y="32">gained at the cloud </tspan><tspan x="0" y="64">innovator level </tspan></text>
  <text transform="translate(55.64 307.98) scale(1.08 1)" style="font-size: 28.781410217285156px;font-family: Helvetica">Cloud native</text>
  <text transform="translate(482.93 46.67)" style="font-size: 26.131669998168945px;fill: #999;font-family: Helvetica">Digital innovation<tspan style="font-size: 36.85363006591797px;fill!: #000"><tspan x="0" y="37.56">Experimenter</tspan></tspan></text>
  <text transform="translate(904.03 46.67)" style="font-size: 26.131669998168945px;fill: #999;font-family: Helvetica">Digital innovation<tspan style="font-size: 36.85363006591797px;fill!: #000"><tspan x="0" y="37.56">Optimizer</tspan></tspan></text>
  <text transform="translate(1395.12 46.67)" style="font-size: 26.131669998168945px;fill: #999;font-family: Helvetica">Digital innovation<tspan style="font-size: 36.85363006591797px;fill!: #000"><tspan x="0" y="37.56">Innovator</tspan></tspan></text>
  <circle cx="757.37" cy="186.04" r="5.5" style="fill: #4d4d4d"/>
  <circle cx="757.37" cy="330.04" r="5.5" style="fill: #4d4d4d"/>
  <circle cx="757.37" cy="385.04" r="5.5" style="fill: #4d4d4d"/>
  <circle cx="757.37" cy="275.04" r="5.5" style="fill: #4d4d4d"/>
  <g>
    <path d="M430.52,77.89H393.28A2.88,2.88,0,0,1,390.4,75V34.78a2.89,2.89,0,0,1,2.88-2.88h36.61l-.8,1.34H393.28a1.55,1.55,0,0,0-1.55,1.54V75a1.56,1.56,0,0,0,1.55,1.55h37.24Z" style="fill: #5f0000"/>
    <path d="M405.77,77.89H443A2.88,2.88,0,0,0,445.89,75V34.78A2.89,2.89,0,0,0,443,31.9H414.4l.8,1.34H443a1.55,1.55,0,0,1,1.55,1.54V75A1.56,1.56,0,0,1,443,76.56H405.77Z" style="fill: #5f0000"/>
    <path d="M414.43,57.5a.8.8,0,0,0-1.13,0,.79.79,0,0,0,0,1.13l4.89,5.18L413.27,69a.79.79,0,0,0,0,1.13.77.77,0,0,0,.55.22.83.83,0,0,0,.58-.25l5.41-5.73a.8.8,0,0,0,0-1.1Z" style="fill: #e00"/>
    <path d="M411.48,57.38a.8.8,0,0,0-1,.46l-4.34,11.31a.8.8,0,0,0,.46,1,.69.69,0,0,0,.28,0,.79.79,0,0,0,.75-.51l4.34-11.32a.79.79,0,0,0-.46-1Z" style="fill: #e00"/>
    <path d="M404.75,57.47a.8.8,0,0,0-1.13,0l-5.41,5.73a.8.8,0,0,0,0,1.1l5.41,5.73a.79.79,0,0,0,.58.25.77.77,0,0,0,.55-.22.79.79,0,0,0,0-1.13l-4.89-5.18,4.89-5.18a.79.79,0,0,0,0-1.13Z" style="fill: #e00"/>
    <path d="M409.85,43.47l.8-1.34,34.74-.06v1.34Z" style="fill: #5f0000"/>
    <path d="M406.31,43.49h-9.46c-1.77,0-3.2,0-4.19,0-1.86,0-1.86,0-2.07-.3l1.05-.82h0a.67.67,0,0,0-.42-.26c.34,0,4,.08,19.33.07h4.78l1.6,1.33H406.31Z" style="fill: #5f0000"/>
    <rect x="395.07" y="36.99" width="1.36" height="1.33" style="fill: #9b9b9b"/>
    <rect x="400.52" y="36.99" width="1.36" height="1.33" style="fill: #9b9b9b"/>
    <rect x="405.96" y="36.99" width="1.36" height="1.33" style="fill: #9b9b9b"/>
  </g>
  <g>
    <path d="M869.65,49.73h-1.34V32.94a1.56,1.56,0,0,0-1.55-1.55h-6l-.8-1.33h6.77a2.88,2.88,0,0,1,2.88,2.88Z" style="fill: #5f0000"/>
    <path d="M849.62,76.05H812.38a2.89,2.89,0,0,1-2.88-2.88V32.94a2.88,2.88,0,0,1,2.88-2.88H865l-.8,1.33H812.38a1.56,1.56,0,0,0-1.54,1.55V73.17a1.56,1.56,0,0,0,1.54,1.55h37.24Z" style="fill: #5f0000"/>
    <path d="M833.53,55.66a.8.8,0,1,0-1.16,1.1l4.89,5.18-4.89,5.19a.79.79,0,0,0,0,1.13.82.82,0,0,0,.55.22.83.83,0,0,0,.58-.25l5.41-5.73a.8.8,0,0,0,0-1.1Z" style="fill: #e00"/>
    <path d="M830.59,55.54a.8.8,0,0,0-1,.46l-4.34,11.31a.81.81,0,0,0,.46,1,.93.93,0,0,0,.29.05.79.79,0,0,0,.74-.52l4.35-11.31a.8.8,0,0,0-.46-1Z" style="fill: #e00"/>
    <path d="M823.86,55.63a.81.81,0,0,0-1.14,0l-5.41,5.73a.8.8,0,0,0,0,1.1l5.41,5.73a.79.79,0,0,0,.59.25.8.8,0,0,0,.58-1.35L819,61.94l4.9-5.18a.8.8,0,0,0,0-1.13Z" style="fill: #e00"/>
    <path d="M829,41.62l.8-1.33,38.75-.06v1.33Z" style="fill: #5f0000"/>
    <path d="M825.41,41.64H816l-4.19,0c-1.86,0-1.86,0-2.07-.3l1-.82h0a.65.65,0,0,0-.42-.26c.34,0,4,.08,19.33.07h4.78l1.6,1.33H825.41Z" style="fill: #5f0000"/>
    <rect x="814.17" y="35.14" width="1.36" height="1.33" style="fill: #9b9b9b"/>
    <rect x="819.62" y="35.14" width="1.36" height="1.33" style="fill: #9b9b9b"/>
    <rect x="825.06" y="35.14" width="1.36" height="1.33" style="fill: #9b9b9b"/>
    <path d="M860.28,58.74h0a4.51,4.51,0,1,0,4.51,4.52,4.52,4.52,0,0,0-4.51-4.52Zm0,10h0a5.51,5.51,0,1,1,5.52-5.51,5.53,5.53,0,0,1-5.52,5.51Zm-4.95,2.57a1,1,0,0,1,.46.11l2.67,1.27h0a1.12,1.12,0,0,1,.62.92l.1,2.09h0a.1.1,0,0,0,.09.08H862a.08.08,0,0,0,.08-.08l.23-2.41a1.09,1.09,0,0,1,.68-.91l2.48-1h0a1.09,1.09,0,0,1,1.15.22l1.67,1.56a.09.09,0,0,0,.12,0l1.85-1.85a.11.11,0,0,0,0-.06.14.14,0,0,0,0-.06l-1.78-1.67h0a1.09,1.09,0,0,1-.25-1.24l1.41-3.21h0a1.1,1.1,0,0,1,1-.65h2.5a.07.07,0,0,0,.08-.08V61.93a.08.08,0,0,0-.08-.09h-2.65a1.07,1.07,0,0,1-1-.65l-1.11-2.59h0a1.09,1.09,0,0,1,.23-1.21l2.14-2.14h0s0,0,0-.06a.09.09,0,0,0,0-.06l-1.86-1.86h0a.09.09,0,0,0-.12,0l-2.11,2h0a1.08,1.08,0,0,1-1.27.17l-2.48-1.36h0a1.11,1.11,0,0,1-.57-1V50.58a.09.09,0,0,0-.08-.08h-3.55a.09.09,0,0,0-.09.08v2.94a1.09,1.09,0,0,1-.72,1l-2.66,1a1.08,1.08,0,0,1-1.25-.37l-1.22-1.63a.09.09,0,0,0-.06,0,.06.06,0,0,0-.07,0l-1.92,1.93h0a.11.11,0,0,0,0,.06.09.09,0,0,0,0,.06l1.61,1.5a1.1,1.1,0,0,1,.24,1.26l-1.4,2.91a1.09,1.09,0,0,1-1,.61h-2a.09.09,0,0,0-.09.09v2.58a.09.09,0,0,0,0,.06l.06,0,2.09-.1a1.09,1.09,0,0,1,1.09.76l.89,2.76a1.11,1.11,0,0,1-.13.94l-1.18,1.76h0a.09.09,0,0,0,0,.1L852.75,73a.09.09,0,0,0,.12,0l1.78-1.45h0a1.14,1.14,0,0,1,.69-.23ZM862,76.82h-2.69a1.09,1.09,0,0,1-1.09-1l-.11-2.09a.08.08,0,0,0-.05-.07l-2.66-1.27h0a.1.1,0,0,0-.09,0l-1.78,1.45a1.09,1.09,0,0,1-1.52-.14l-1.87-2.21a1.1,1.1,0,0,1-.07-1.31l1.17-1.77h0a.06.06,0,0,0,0-.07l-.88-2.77s0-.07-.08-.06l-2.09.1h0a1.07,1.07,0,0,1-.8-.29,1.1,1.1,0,0,1-.34-.79V61.93a1.09,1.09,0,0,1,1.09-1.09h2a.08.08,0,0,0,.07-.05l1.39-2.9a.08.08,0,0,0,0-.1L850,56.29a1.08,1.08,0,0,1-.34-.77,1.06,1.06,0,0,1,.33-.8l1.92-1.92a1.1,1.1,0,0,1,1.65.11l1.22,1.63a.07.07,0,0,0,.1,0l2.67-1h0a.08.08,0,0,0,.05-.08V50.58a1.09,1.09,0,0,1,1.09-1.09h3.55a1.09,1.09,0,0,1,1.09,1.09v2.54s0,.05,0,.07l2.47,1.36a.09.09,0,0,0,.1,0l2.11-2a1.07,1.07,0,0,1,1.52,0l1.86,1.85a1.14,1.14,0,0,1,.32.78,1.12,1.12,0,0,1-.32.77l-2.13,2.14a.08.08,0,0,0,0,.09l1.11,2.59a.08.08,0,0,0,.07.05h2.65a1.09,1.09,0,0,1,1.1,1.09v2.45a1.1,1.1,0,0,1-1.1,1.09h-2.5a.08.08,0,0,0-.08,0l-1.41,3.21h0a.1.1,0,0,0,0,.09l1.78,1.67a1.09,1.09,0,0,1,0,1.56l-1.85,1.85a1.08,1.08,0,0,1-1.51,0l-1.68-1.57a.09.09,0,0,0-.09,0l-2.47,1h0a.08.08,0,0,0-.05.07l-.23,2.41a1.09,1.09,0,0,1-1.09,1Z" style="fill: #9b9b9b"/>
  </g>
  <g>
    <path d="M1360.62,54.8h-1.34V38a1.56,1.56,0,0,0-1.54-1.55H1355l-.8-1.33h3.57a2.88,2.88,0,0,1,2.88,2.88Z" style="fill: #5f0000"/>
    <path d="M1340.59,81.12h-37.24a2.9,2.9,0,0,1-2.88-2.88V38a2.89,2.89,0,0,1,2.88-2.88h17.42l-.8,1.33h-16.62a1.56,1.56,0,0,0-1.54,1.55V78.24a1.56,1.56,0,0,0,1.54,1.55h37.24Z" style="fill: #5f0000"/>
    <polygon points="1355.12 46.7 1355.92 45.36 1359.47 45.3 1359.47 46.64 1355.12 46.7" style="fill: #5f0000"/>
    <path d="M1316.39,46.71h-9.47l-4.18,0c-1.87,0-1.87,0-2.08-.3l1-.82h0a.65.65,0,0,0-.42-.26c.35,0,4,.08,19.33.07h1.59l1.6,1.33h-7.42Z" style="fill: #5f0000"/>
    <rect x="1305.15" y="40.21" width="1.36" height="1.33" style="fill: #9b9b9b"/>
    <rect x="1310.59" y="40.21" width="1.36" height="1.33" style="fill: #9b9b9b"/>
    <rect x="1316.04" y="40.21" width="1.36" height="1.33" style="fill: #9b9b9b"/>
    <path d="M1351.26,63.81h0a4.5,4.5,0,1,0,4.51,4.51,4.49,4.49,0,0,0-4.51-4.51Zm0,10h0a5.52,5.52,0,1,1,5.51-5.52,5.51,5.51,0,0,1-5.51,5.52Zm-5,2.57a1.12,1.12,0,0,1,.47.11l2.66,1.27h0a1.1,1.1,0,0,1,.62.92l.11,2.09h0a.09.09,0,0,0,.08.08h2.69a.09.09,0,0,0,.09-.08l.23-2.41a1.07,1.07,0,0,1,.68-.91l2.47-1h0a1.11,1.11,0,0,1,1.15.22l1.68,1.56a.07.07,0,0,0,.11,0l1.85-1.85a.06.06,0,0,0,0-.06s0,0,0-.06l-1.78-1.66h0a1.12,1.12,0,0,1-.25-1.24l1.41-3.21h0a1.11,1.11,0,0,1,1-.65h2.49a.08.08,0,0,0,.09-.08V67a.09.09,0,0,0-.09-.09h-2.64a1.07,1.07,0,0,1-1-.65l-1.11-2.59h0a1.09,1.09,0,0,1,.23-1.21l2.14-2.14h0a.07.07,0,0,0,0-.12l-1.85-1.86h0a.08.08,0,0,0-.11,0l-2.11,2h0a1.09,1.09,0,0,1-1.27.16l-2.47-1.36h0a1.09,1.09,0,0,1-.57-1V55.65a.08.08,0,0,0-.08-.08h-3.55a.09.09,0,0,0-.08.08v2.94a1.12,1.12,0,0,1-.72,1l-2.67,1a1.06,1.06,0,0,1-1.24-.37l-1.23-1.63a.06.06,0,0,0-.06,0,0,0,0,0,0-.06,0l-1.93,1.93h0a.07.07,0,0,0,0,.06.09.09,0,0,0,0,.06l1.61,1.5a1.08,1.08,0,0,1,.24,1.26l-1.4,2.91a1.09,1.09,0,0,1-1,.61h-2a.08.08,0,0,0-.08.09v2.58a.14.14,0,0,0,0,.06.08.08,0,0,0,.07,0l2.08-.1a1.09,1.09,0,0,1,1.09.76l.89,2.76a1,1,0,0,1-.13.94l-1.17,1.76h0a.07.07,0,0,0,0,.1l1.86,2.22a.09.09,0,0,0,.12,0l1.79-1.45h0a1,1,0,0,1,.68-.24Zm6.64,5.48h-2.69a1.09,1.09,0,0,1-1.09-1l-.11-2.09a.08.08,0,0,0,0-.07l-2.66-1.27h0a.08.08,0,0,0-.08,0l-1.79,1.45a1.09,1.09,0,0,1-1.52-.14l-1.87-2.21a1.1,1.1,0,0,1-.07-1.31l1.17-1.76h0a.17.17,0,0,0,0-.07l-.89-2.77a.08.08,0,0,0-.08-.06l-2.08.1h0a1.09,1.09,0,0,1-1.15-1.09V67a1.09,1.09,0,0,1,1.09-1.09h2a.1.1,0,0,0,.08,0l1.38-2.9a.09.09,0,0,0,0-.1L1341,61.37a1.12,1.12,0,0,1-.34-.78,1.14,1.14,0,0,1,.33-.8l1.93-1.92a1.07,1.07,0,0,1,.85-.32,1.09,1.09,0,0,1,.79.43l1.22,1.64a.08.08,0,0,0,.1,0l2.67-1h0a.09.09,0,0,0,.06-.08V55.65a1.09,1.09,0,0,1,1.09-1.09h3.54a1.09,1.09,0,0,1,1.09,1.09v2.54a.08.08,0,0,0,0,.07l2.47,1.36a.09.09,0,0,0,.1,0l2.11-2a1.08,1.08,0,0,1,1.52,0l1.86,1.86a1.1,1.1,0,0,1,.32.77,1.12,1.12,0,0,1-.32.77l-2.13,2.14a.1.1,0,0,0,0,.09l1.11,2.59a.09.09,0,0,0,.08,0h2.65a1.09,1.09,0,0,1,1.09,1.09v2.45a1.09,1.09,0,0,1-1.09,1.09h-2.51a.08.08,0,0,0-.07,0l-1.41,3.21h0a.08.08,0,0,0,0,.09l1.77,1.67a1.09,1.09,0,0,1,.35.78,1.12,1.12,0,0,1-.32.79L1360.07,79a1.09,1.09,0,0,1-1.52,0l-1.67-1.57a.1.1,0,0,0-.09,0l-2.48,1h0a.13.13,0,0,0,0,.07l-.23,2.41a1.09,1.09,0,0,1-1.09,1Z" style="fill: #9b9b9b"/>
    <path d="M1353.24,41.21a4.55,4.55,0,0,1-4.54,4.54h-3.78a7.55,7.55,0,0,0-3.64-10.91,7.55,7.55,0,0,0-10.3,6.07,7.3,7.3,0,0,0-.06.94,7.47,7.47,0,0,0,1.1,3.9h-2.36a6,6,0,0,1-6-6v-.2a6,6,0,0,1,5.54-6,.37.37,0,0,0,.33-.3,9.56,9.56,0,0,1,9.45-7.59h.08a9.69,9.69,0,0,1,9.68,9.68V36a.36.36,0,0,0,.34.37,4.48,4.48,0,0,1,4.11,4.53ZM1344,45.85h0a6.77,6.77,0,0,1-10.94,0l0,0a6.75,6.75,0,0,1-1.32-4,6,6,0,0,1,.06-.85,6.8,6.8,0,0,1,13.55.85,6.71,6.71,0,0,1-1.32,4Zm5.58-10.16v-.28A10.43,10.43,0,0,0,1339.1,25H1339a10.29,10.29,0,0,0-10.11,7.91,6.76,6.76,0,0,0-6,6.68v.21a6.72,6.72,0,0,0,6.71,6.7h2.87a7.52,7.52,0,0,0,11.88,0h4.29a5.28,5.28,0,0,0,5.28-5.27v-.29a5.23,5.23,0,0,0-4.45-5.24ZM1341,38.92a.36.36,0,0,0-.52,0,.37.37,0,0,0,0,.52l2.28,2.42-2.28,2.41a.38.38,0,0,0,0,.53.35.35,0,0,0,.25.1.36.36,0,0,0,.27-.12l2.52-2.67a.36.36,0,0,0,0-.51Zm-1.37-.06a.38.38,0,0,0-.48.22l-2,5.27a.37.37,0,0,0,.21.48.34.34,0,0,0,.14,0,.35.35,0,0,0,.34-.24l2-5.27a.38.38,0,0,0-.22-.48Zm-3.13,0a.37.37,0,0,0-.53,0l-2.52,2.67a.38.38,0,0,0,0,.51l2.52,2.67a.36.36,0,0,0,.27.12.38.38,0,0,0,.26-.11.36.36,0,0,0,0-.52l-2.28-2.42,2.28-2.41a.37.37,0,0,0,0-.52Z"/>
    <g>
      <path d="M1324.15,61.82h-2.59a.4.4,0,0,1-.4-.4v-3.8a4.3,4.3,0,0,0-8.59,0v3.8a.4.4,0,0,1-.4.4h-2.59a.4.4,0,0,1-.4-.4v-3.8a7.69,7.69,0,0,1,15.37,0v3.8A.4.4,0,0,1,1324.15,61.82ZM1322,61h1.79v-3.4a6.89,6.89,0,0,0-13.77,0V61h1.79v-3.4a5.1,5.1,0,0,1,10.19,0Z" style="fill: #e00"/>
      <path d="M1325.23,77.5h-16.72a2,2,0,0,1-2-2V63a2,2,0,0,1,2-1.95h16.72a1.93,1.93,0,0,1,2,1.9V75.55A2,2,0,0,1,1325.23,77.5Zm-16.72-15.68a1.13,1.13,0,0,0-1.15,1.15V75.55a1.13,1.13,0,0,0,1.15,1.15h16.72a1.14,1.14,0,0,0,1.15-1.15V62.92a1.13,1.13,0,0,0-1.15-1.1Z" style="fill: #e00"/>
      <path d="M1318.46,72.85h-3.27a.4.4,0,0,1-.31-.15.39.39,0,0,1-.08-.34l.55-2.55a2.37,2.37,0,1,1,3.9-1.8,2.27,2.27,0,0,1-.94,1.82l.54,2.53a.39.39,0,0,1-.08.34A.4.4,0,0,1,1318.46,72.85Zm-2.78-.8H1318l-.5-2.32a.4.4,0,0,1,.19-.43,1.48,1.48,0,0,0,.79-1.29,1.59,1.59,0,0,0-3.17,0,1.6,1.6,0,0,0,.73,1.3.39.39,0,0,1,.17.42Z" style="fill: #e00"/>
    </g>
  </g>
</svg>
