<svg id="Layer_1" data-name="Layer 1" xmlns="http://www.w3.org/2000/svg" xmlns:xlink="http://www.w3.org/1999/xlink" viewBox="0 0 1615.75 496.06">
  <defs>
    <linearGradient id="linear-gradient" x1="297.87" y1="303.39" x2="1614.92" y2="303.39" gradientUnits="userSpaceOnUse">
      <stop offset="0" stop-color="#cbd5e0" stop-opacity="0"/>
      <stop offset="1" stop-color="#cbd5e0"/>
    </linearGradient>
  </defs>
  <title>native_stage1</title>
  <line x1="283.02" y1="19.54" x2="283.02" y2="497.54" style="fill: none;stroke: gray;stroke-miterlimit: 10"/>
  <rect x="297.87" y="131.23" width="1317.05" height="344.31" style="opacity: 0.5;fill: url(#linear-gradient)"/>
  <line x1="723.02" y1="19.54" x2="723.02" y2="497.54" style="fill: none;stroke: gray;stroke-miterlimit: 10"/>
  <line x1="1275.02" y1="19.54" x2="1275.02" y2="497.54" style="fill: none;stroke: gray;stroke-miterlimit: 10"/>
  <rect x="298.17" y="214.94" width="334" height="181" style="fill: #12457b"/>
  <g>
    <path d="M386,303.53l5.72-10.71h2.69l-7.15,13.11v8.3h-2.52v-8.18l-7.13-13.23h2.72Z" style="fill: #fff"/>
    <path d="M410.84,306.19a8.84,8.84,0,0,1-2,6.13,7,7,0,0,1-5.46,2.21,7.3,7.3,0,0,1-3.83-1,6.76,6.76,0,0,1-2.58-2.9,10.21,10.21,0,0,1-.9-4.43,8.81,8.81,0,0,1,2-6.11,6.94,6.94,0,0,1,5.45-2.19,6.77,6.77,0,0,1,5.35,2.24A8.77,8.77,0,0,1,410.84,306.19Zm-12.23,0a7.62,7.62,0,0,0,1.23,4.69,4.88,4.88,0,0,0,7.24,0,7.63,7.63,0,0,0,1.24-4.7,7.49,7.49,0,0,0-1.24-4.65,4.35,4.35,0,0,0-3.66-1.59,4.26,4.26,0,0,0-3.6,1.57A7.53,7.53,0,0,0,398.61,306.19Z" style="fill: #fff"/>
    <path d="M417.38,298.18v10.41a4.16,4.16,0,0,0,.9,2.93,3.62,3.62,0,0,0,2.8,1,4.55,4.55,0,0,0,3.68-1.38c.78-.91,1.16-2.41,1.16-4.49v-8.44h2.44v16.05h-2l-.35-2.15h-.13a4.86,4.86,0,0,1-2.08,1.82,6.94,6.94,0,0,1-3,.63,6.18,6.18,0,0,1-4.39-1.39,6,6,0,0,1-1.46-4.46v-10.5Z" style="fill: #fff"/>
    <path d="M451.18,314.23,450.7,312h-.12a6.71,6.71,0,0,1-2.4,2,7.22,7.22,0,0,1-3,.54,5.35,5.35,0,0,1-3.74-1.23,4.5,4.5,0,0,1-1.36-3.5q0-4.87,7.78-5.1l2.73-.09v-1a4,4,0,0,0-.82-2.79,3.33,3.33,0,0,0-2.6-.9,10.62,10.62,0,0,0-4.54,1.23l-.74-1.86a11.53,11.53,0,0,1,2.6-1,11.38,11.38,0,0,1,2.83-.36,6.15,6.15,0,0,1,4.26,1.27,5.33,5.33,0,0,1,1.38,4.09v11Zm-5.49-1.71a4.92,4.92,0,0,0,3.56-1.25,4.58,4.58,0,0,0,1.3-3.48v-1.45l-2.43.1a8.85,8.85,0,0,0-4.18.9,2.71,2.71,0,0,0-1.29,2.48,2.52,2.52,0,0,0,.8,2A3.32,3.32,0,0,0,445.69,312.52Z" style="fill: #fff"/>
    <path d="M465.31,297.89a9.26,9.26,0,0,1,1.92.17l-.33,2.26a8.11,8.11,0,0,0-1.76-.22,4.28,4.28,0,0,0-3.33,1.58,5.73,5.73,0,0,0-1.39,3.94v8.61H458V298.18h2l.28,3h.11a7.07,7.07,0,0,1,2.16-2.41A4.81,4.81,0,0,1,465.31,297.89Z" style="fill: #fff"/>
    <path d="M477,314.53a7.4,7.4,0,0,1-5.62-2.17,8.41,8.41,0,0,1-2.06-6,9.33,9.33,0,0,1,1.91-6.17,6.37,6.37,0,0,1,5.14-2.28,6,6,0,0,1,4.77,2,7.57,7.57,0,0,1,1.76,5.24v1.54H471.86a6.4,6.4,0,0,0,1.43,4.29,5,5,0,0,0,3.82,1.46,13,13,0,0,0,5.12-1.08v2.17a12.75,12.75,0,0,1-2.44.79A13,13,0,0,1,477,314.53Zm-.66-14.61a4,4,0,0,0-3.08,1.26,5.81,5.81,0,0,0-1.36,3.49h8.39a5.35,5.35,0,0,0-1-3.52A3.59,3.59,0,0,0,476.36,299.92Z" style="fill: #fff"/>
    <path d="M505.85,314.23V303.85a4.16,4.16,0,0,0-.9-2.93,3.61,3.61,0,0,0-2.79-1,4.57,4.57,0,0,0-3.7,1.38,7,7,0,0,0-1.17,4.51v8.39h-2.43V291.44h2.43v6.9a14.79,14.79,0,0,1-.12,2.07h.15a5,5,0,0,1,2-1.83,6.75,6.75,0,0,1,3-.66,6.23,6.23,0,0,1,4.42,1.39,5.92,5.92,0,0,1,1.47,4.45v10.47Z" style="fill: #fff"/>
    <path d="M520.06,314.53a7.39,7.39,0,0,1-5.62-2.17,8.41,8.41,0,0,1-2.06-6,9.33,9.33,0,0,1,1.91-6.17,6.37,6.37,0,0,1,5.14-2.28,6,6,0,0,1,4.77,2,7.62,7.62,0,0,1,1.76,5.24v1.54H514.9a6.35,6.35,0,0,0,1.43,4.29,4.94,4.94,0,0,0,3.81,1.46,13,13,0,0,0,5.13-1.08v2.17a12.75,12.75,0,0,1-2.44.79A13,13,0,0,1,520.06,314.53Zm-.66-14.61a4,4,0,0,0-3.09,1.26,5.8,5.8,0,0,0-1.35,3.49h8.39a5.35,5.35,0,0,0-1-3.52A3.61,3.61,0,0,0,519.4,299.92Z" style="fill: #fff"/>
    <path d="M537.43,297.89a9.39,9.39,0,0,1,1.92.17l-.34,2.26a8,8,0,0,0-1.76-.22,4.28,4.28,0,0,0-3.33,1.58,5.77,5.77,0,0,0-1.38,3.94v8.61H530.1V298.18h2l.28,3h.12a7,7,0,0,1,2.15-2.41A4.82,4.82,0,0,1,537.43,297.89Z" style="fill: #fff"/>
    <path d="M549.13,314.53a7.38,7.38,0,0,1-5.61-2.17,8.36,8.36,0,0,1-2.06-6,9.28,9.28,0,0,1,1.91-6.17,6.34,6.34,0,0,1,5.13-2.28,6.07,6.07,0,0,1,4.78,2,7.62,7.62,0,0,1,1.76,5.24v1.54H544a6.39,6.39,0,0,0,1.42,4.29,5,5,0,0,0,3.82,1.46,13,13,0,0,0,5.13-1.08v2.17a12.75,12.75,0,0,1-2.44.79A13.07,13.07,0,0,1,549.13,314.53Zm-.66-14.61a4,4,0,0,0-3.08,1.26,5.74,5.74,0,0,0-1.35,3.49h8.39a5.3,5.3,0,0,0-1-3.52A3.59,3.59,0,0,0,548.47,299.92Z" style="fill: #fff"/>
  </g>
  <line x1="0.42" y1="111.44" x2="1614.31" y2="111.44" style="fill: none;stroke: gray;stroke-miterlimit: 10"/>
  <g>
    <line x1="643.87" y1="305.44" x2="674.28" y2="305.44" style="fill: none;stroke: #c1272d;stroke-miterlimit: 10;stroke-width: 7px"/>
    <polygon points="709.37 305.44 659.93 325.65 671.66 305.44 659.93 285.24 709.37 305.44" style="fill: #c1272d"/>
  </g>
  <g>
    <path d="M791.19,177.37a7,7,0,0,0-5.58,2.35,9.51,9.51,0,0,0-2,6.44,9.69,9.69,0,0,0,2,6.5,7,7,0,0,0,5.62,2.29,19.43,19.43,0,0,0,5.11-.8v2.18a15.63,15.63,0,0,1-5.49.83c-3.16,0-5.59-.95-7.3-2.87s-2.57-4.63-2.57-8.16a13,13,0,0,1,1.23-5.8,8.85,8.85,0,0,1,3.58-3.83,10.78,10.78,0,0,1,5.5-1.35,13.3,13.3,0,0,1,5.89,1.23l-1.06,2.14A11.37,11.37,0,0,0,791.19,177.37Z"/>
    <path d="M814.43,188.83a8.84,8.84,0,0,1-2,6.13,7,7,0,0,1-5.47,2.2,7.17,7.17,0,0,1-3.82-1,6.7,6.7,0,0,1-2.58-2.9,10.17,10.17,0,0,1-.91-4.42,8.85,8.85,0,0,1,2-6.12,6.94,6.94,0,0,1,5.45-2.19,6.8,6.8,0,0,1,5.35,2.24A8.86,8.86,0,0,1,814.43,188.83Zm-12.23,0a7.64,7.64,0,0,0,1.23,4.69,4.89,4.89,0,0,0,7.25,0,7.58,7.58,0,0,0,1.24-4.69,7.49,7.49,0,0,0-1.24-4.65,4.37,4.37,0,0,0-3.66-1.59,4.26,4.26,0,0,0-3.6,1.57A7.53,7.53,0,0,0,802.2,188.83Z"/>
    <path d="M829.05,192.49a4,4,0,0,1-1.67,3.46,7.83,7.83,0,0,1-4.68,1.21,10.12,10.12,0,0,1-5-1V193.9a11.84,11.84,0,0,0,2.48.92,10.06,10.06,0,0,0,2.55.34,5.74,5.74,0,0,0,2.93-.61,2,2,0,0,0,1-1.85,2,2,0,0,0-.81-1.61,12.77,12.77,0,0,0-3.17-1.57,17,17,0,0,1-3.19-1.46,4.4,4.4,0,0,1-1.41-1.41,3.78,3.78,0,0,1-.46-1.89,3.6,3.6,0,0,1,1.6-3.1,7.4,7.4,0,0,1,4.38-1.14,12.88,12.88,0,0,1,5.07,1.06l-.87,2a11.52,11.52,0,0,0-4.38-1,5,5,0,0,0-2.6.54,1.67,1.67,0,0,0-.88,1.5,1.79,1.79,0,0,0,.33,1.09,3.11,3.11,0,0,0,1.06.87,24.4,24.4,0,0,0,2.81,1.19,10.56,10.56,0,0,1,3.86,2.09A3.69,3.69,0,0,1,829.05,192.49Z"/>
    <path d="M838.19,195.16a7.28,7.28,0,0,0,1.25-.1,6.91,6.91,0,0,0,.95-.2v1.86a4.15,4.15,0,0,1-1.16.32,9.21,9.21,0,0,1-1.39.12c-3.1,0-4.66-1.63-4.66-4.9v-9.55h-2.29v-1.18l2.29-1,1-3.42h1.41v3.72h4.65v1.89h-4.65v9.44a3.25,3.25,0,0,0,.69,2.23A2.36,2.36,0,0,0,838.19,195.16Z"/>
    <path d="M858.72,180.52a9.35,9.35,0,0,1,1.92.18L860.3,183a8,8,0,0,0-1.76-.22,4.25,4.25,0,0,0-3.33,1.58,5.77,5.77,0,0,0-1.38,3.94v8.61h-2.44V180.82h2l.28,3h.12a7.08,7.08,0,0,1,2.15-2.42A4.89,4.89,0,0,1,858.72,180.52Z"/>
    <path d="M870.42,197.16A7.4,7.4,0,0,1,864.8,195a8.42,8.42,0,0,1-2-6,9.28,9.28,0,0,1,1.91-6.17,6.35,6.35,0,0,1,5.13-2.29,6.08,6.08,0,0,1,4.78,2,7.62,7.62,0,0,1,1.76,5.24v1.53H865.26a6.41,6.41,0,0,0,1.43,4.3,5,5,0,0,0,3.82,1.46,13,13,0,0,0,5.13-1.08v2.16a12.36,12.36,0,0,1-2.44.8A13.9,13.9,0,0,1,870.42,197.16Zm-.66-14.6a4,4,0,0,0-3.08,1.26,5.81,5.81,0,0,0-1.36,3.49h8.4a5.33,5.33,0,0,0-1-3.53A3.62,3.62,0,0,0,869.76,182.56Z"/>
    <path d="M891.4,194.72h-.13a5.73,5.73,0,0,1-5,2.44,5.94,5.94,0,0,1-4.9-2.15,9.45,9.45,0,0,1-1.75-6.12,9.66,9.66,0,0,1,1.75-6.17,6,6,0,0,1,4.9-2.2,5.82,5.82,0,0,1,5,2.38h.19l-.1-1.16-.06-1.13v-6.53h2.43v22.79h-2Zm-4.87.41a4.43,4.43,0,0,0,3.62-1.36,6.88,6.88,0,0,0,1.12-4.37v-.51q0-3.42-1.14-4.87a4.32,4.32,0,0,0-3.63-1.46,3.72,3.72,0,0,0-3.27,1.66,8.27,8.27,0,0,0-1.13,4.7,7.92,7.92,0,0,0,1.12,4.64A3.82,3.82,0,0,0,886.53,195.13Z"/>
    <path d="M901.14,180.82v10.41a4.21,4.21,0,0,0,.89,2.93,3.63,3.63,0,0,0,2.8,1,4.54,4.54,0,0,0,3.68-1.38,6.94,6.94,0,0,0,1.17-4.5v-8.43h2.43v16.05h-2l-.35-2.15h-.13a4.87,4.87,0,0,1-2.07,1.81,7,7,0,0,1-3,.63,6.11,6.11,0,0,1-4.38-1.39c-1-.92-1.46-2.41-1.46-4.45v-10.5Z"/>
    <path d="M923.68,197.16a6.87,6.87,0,0,1-5.4-2.14,8.85,8.85,0,0,1-1.91-6.07,9.13,9.13,0,0,1,1.94-6.23,7,7,0,0,1,5.53-2.2,11.36,11.36,0,0,1,2.32.25,7.61,7.61,0,0,1,1.82.59l-.75,2.06a12.12,12.12,0,0,0-1.76-.53,8,8,0,0,0-1.68-.21q-4.9,0-4.9,6.24a7.41,7.41,0,0,0,1.2,4.54,4.15,4.15,0,0,0,3.53,1.58,11,11,0,0,0,4.12-.86v2.15A8.73,8.73,0,0,1,923.68,197.16Z"/>
    <path d="M936.74,195.16a7.16,7.16,0,0,0,1.24-.1,6.91,6.91,0,0,0,.95-.2v1.86a4.15,4.15,0,0,1-1.16.32,9.21,9.21,0,0,1-1.39.12q-4.65,0-4.65-4.9v-9.55h-2.31v-1.18l2.31-1,1-3.42h1.41v3.72h4.66v1.89h-4.66v9.44a3.3,3.3,0,0,0,.68,2.23A2.4,2.4,0,0,0,936.74,195.16Z"/>
    <path d="M941.93,176.47a1.64,1.64,0,0,1,.41-1.23,1.51,1.51,0,0,1,2,0,1.56,1.56,0,0,1,.43,1.22,1.59,1.59,0,0,1-.43,1.22,1.5,1.5,0,0,1-2,0A1.66,1.66,0,0,1,941.93,176.47Zm2.64,20.4h-2.43V180.82h2.43Z"/>
    <path d="M963.58,188.83a8.84,8.84,0,0,1-2,6.13,7,7,0,0,1-5.47,2.2,7.17,7.17,0,0,1-3.82-1,6.7,6.7,0,0,1-2.58-2.9,10.17,10.17,0,0,1-.91-4.42,8.85,8.85,0,0,1,2-6.12,6.94,6.94,0,0,1,5.45-2.19,6.8,6.8,0,0,1,5.35,2.24A8.86,8.86,0,0,1,963.58,188.83Zm-12.23,0a7.64,7.64,0,0,0,1.23,4.69,4.89,4.89,0,0,0,7.25,0,7.58,7.58,0,0,0,1.24-4.69,7.49,7.49,0,0,0-1.24-4.65,4.37,4.37,0,0,0-3.66-1.59,4.26,4.26,0,0,0-3.6,1.57A7.53,7.53,0,0,0,951.35,188.83Z"/>
    <path d="M978.83,196.87V186.49a4.16,4.16,0,0,0-.89-2.93,3.63,3.63,0,0,0-2.8-1,4.6,4.6,0,0,0-3.69,1.36q-1.17,1.37-1.17,4.5v8.42h-2.43V180.82h2l.39,2.19h.12a4.91,4.91,0,0,1,2.09-1.83,6.75,6.75,0,0,1,3-.66,6.09,6.09,0,0,1,4.36,1.4,6,6,0,0,1,1.47,4.48v10.47Z"/>
    <path d="M992.68,188.65a22.86,22.86,0,0,1,1.13-7.26,17.91,17.91,0,0,1,3.28-5.93h2.37a20.5,20.5,0,0,0-3.17,6.21,23,23,0,0,0-1.06,7,22.22,22.22,0,0,0,1.08,6.87,21.24,21.24,0,0,0,3.12,6.13h-2.34a17.14,17.14,0,0,1-3.28-5.82A21.87,21.87,0,0,1,992.68,188.65Z"/>
    <path d="M1009.35,197.16A6.84,6.84,0,0,1,1004,195,8.8,8.8,0,0,1,1002,189a9.08,9.08,0,0,1,1.94-6.23,7,7,0,0,1,5.53-2.2,11.34,11.34,0,0,1,2.31.25,7.61,7.61,0,0,1,1.82.59l-.75,2.06a11.75,11.75,0,0,0-1.76-.53,7.85,7.85,0,0,0-1.68-.21q-4.89,0-4.89,6.24a7.42,7.42,0,0,0,1.19,4.54,4.18,4.18,0,0,0,3.54,1.58,11,11,0,0,0,4.12-.86v2.15A8.76,8.76,0,0,1,1009.35,197.16Z"/>
    <path d="M1031.07,188.83a8.84,8.84,0,0,1-2,6.13,7,7,0,0,1-5.46,2.2,7.15,7.15,0,0,1-3.82-1,6.58,6.58,0,0,1-2.58-2.9,10,10,0,0,1-.91-4.42,8.84,8.84,0,0,1,2-6.12,7,7,0,0,1,5.45-2.19,6.82,6.82,0,0,1,5.36,2.24A8.86,8.86,0,0,1,1031.07,188.83Zm-12.23,0a7.64,7.64,0,0,0,1.23,4.69,4.87,4.87,0,0,0,7.24,0,7.52,7.52,0,0,0,1.24-4.69,7.43,7.43,0,0,0-1.24-4.65,4.33,4.33,0,0,0-3.65-1.59,4.26,4.26,0,0,0-3.6,1.57A7.53,7.53,0,0,0,1018.84,188.83Z"/>
    <path d="M1046.32,196.87V186.49a4.21,4.21,0,0,0-.89-2.93,3.63,3.63,0,0,0-2.8-1,4.6,4.6,0,0,0-3.69,1.36,6.89,6.89,0,0,0-1.18,4.5v8.42h-2.43V180.82h2l.4,2.19h.11a4.94,4.94,0,0,1,2.1-1.83,6.74,6.74,0,0,1,3-.66,6.13,6.13,0,0,1,4.37,1.4,6,6,0,0,1,1.46,4.48v10.47Z"/>
    <path d="M1064.1,192.49a4,4,0,0,1-1.67,3.46,7.83,7.83,0,0,1-4.68,1.21,10.18,10.18,0,0,1-5-1V193.9a11.92,11.92,0,0,0,2.49.92,10.06,10.06,0,0,0,2.55.34,5.74,5.74,0,0,0,2.93-.61,2,2,0,0,0,1-1.85,2,2,0,0,0-.81-1.61,12.7,12.7,0,0,0-3.18-1.57,17.1,17.1,0,0,1-3.18-1.46,4.4,4.4,0,0,1-1.41-1.41,3.78,3.78,0,0,1-.46-1.89,3.6,3.6,0,0,1,1.6-3.1,7.4,7.4,0,0,1,4.38-1.14,12.88,12.88,0,0,1,5.07,1.06l-.87,2a11.52,11.52,0,0,0-4.38-1,5,5,0,0,0-2.6.54,1.67,1.67,0,0,0-.88,1.5,1.79,1.79,0,0,0,.33,1.09,3,3,0,0,0,1.06.87,24.4,24.4,0,0,0,2.81,1.19,10.56,10.56,0,0,1,3.86,2.09A3.69,3.69,0,0,1,1064.1,192.49Z"/>
    <path d="M1070.34,180.82v10.41a4.16,4.16,0,0,0,.9,2.93,3.59,3.59,0,0,0,2.79,1,4.58,4.58,0,0,0,3.69-1.38c.78-.92,1.16-2.42,1.16-4.5v-8.43h2.44v16.05h-2l-.35-2.15h-.13a4.84,4.84,0,0,1-2.08,1.81,6.94,6.94,0,0,1-3,.63,6.12,6.12,0,0,1-4.39-1.39,5.91,5.91,0,0,1-1.46-4.45v-10.5Z"/>
    <path d="M1106.93,196.87V186.43a4.32,4.32,0,0,0-.82-2.88,3.15,3.15,0,0,0-2.54-1,4.11,4.11,0,0,0-3.36,1.3,6.23,6.23,0,0,0-1.08,4v9h-2.43V186.43a4.38,4.38,0,0,0-.82-2.88,3.21,3.21,0,0,0-2.57-1A4,4,0,0,0,1090,184a7.39,7.39,0,0,0-1.07,4.49v8.42h-2.43V180.82h2l.39,2.19h.12a4.82,4.82,0,0,1,1.94-1.83,5.94,5.94,0,0,1,2.81-.66q3.76,0,4.92,2.73h.12a5.06,5.06,0,0,1,2.08-2,6.43,6.43,0,0,1,3.1-.74,5.44,5.44,0,0,1,4.08,1.4,6.25,6.25,0,0,1,1.36,4.48v10.47Z"/>
    <path d="M1121.85,197.16a7.07,7.07,0,0,1-2.87-.57,5.4,5.4,0,0,1-2.17-1.78h-.18a20.85,20.85,0,0,1,.18,2.66v6.61h-2.43V180.82h2l.34,2.19h.12a5.66,5.66,0,0,1,2.18-1.9,6.64,6.64,0,0,1,2.86-.59,5.93,5.93,0,0,1,4.93,2.19,11.64,11.64,0,0,1,0,12.26A6,6,0,0,1,1121.85,197.16Zm-.35-14.57a4.29,4.29,0,0,0-3.56,1.36,7,7,0,0,0-1.13,4.34v.54c0,2.26.37,3.87,1.13,4.84a4.28,4.28,0,0,0,3.61,1.46,3.74,3.74,0,0,0,3.26-1.69,8,8,0,0,0,1.18-4.64,7.68,7.68,0,0,0-1.18-4.61A3.86,3.86,0,0,0,1121.5,182.59Z"/>
    <path d="M1138,195.16a7.16,7.16,0,0,0,1.24-.1,6.91,6.91,0,0,0,1-.2v1.86a4.15,4.15,0,0,1-1.16.32,9.11,9.11,0,0,1-1.39.12q-4.65,0-4.65-4.9v-9.55h-2.3v-1.18l2.3-1,1-3.42h1.41v3.72H1140v1.89h-4.66v9.44a3.25,3.25,0,0,0,.69,2.23A2.38,2.38,0,0,0,1138,195.16Z"/>
    <path d="M1143.15,176.47a1.6,1.6,0,0,1,.41-1.23,1.41,1.41,0,0,1,1-.39,1.45,1.45,0,0,1,1,.4,1.56,1.56,0,0,1,.43,1.22,1.59,1.59,0,0,1-.43,1.22,1.4,1.4,0,0,1-1,.4,1.38,1.38,0,0,1-1-.4A1.62,1.62,0,0,1,1143.15,176.47Zm2.63,20.4h-2.43V180.82h2.43Z"/>
    <path d="M1164.8,188.83a8.84,8.84,0,0,1-2,6.13,7,7,0,0,1-5.47,2.2,7.2,7.2,0,0,1-3.82-1,6.7,6.7,0,0,1-2.58-2.9,10.17,10.17,0,0,1-.9-4.42,8.84,8.84,0,0,1,2-6.12,6.94,6.94,0,0,1,5.45-2.19,6.8,6.8,0,0,1,5.35,2.24A8.86,8.86,0,0,1,1164.8,188.83Zm-12.23,0a7.64,7.64,0,0,0,1.23,4.69,4.27,4.27,0,0,0,3.61,1.61,4.32,4.32,0,0,0,3.63-1.61,7.58,7.58,0,0,0,1.24-4.69,7.49,7.49,0,0,0-1.24-4.65,4.35,4.35,0,0,0-3.66-1.59,4.26,4.26,0,0,0-3.6,1.57A7.53,7.53,0,0,0,1152.57,188.83Z"/>
    <path d="M1180.05,196.87V186.49a4.16,4.16,0,0,0-.9-2.93,3.62,3.62,0,0,0-2.8-1,4.6,4.6,0,0,0-3.69,1.36q-1.17,1.37-1.17,4.5v8.42h-2.43V180.82h2l.39,2.19h.12a5,5,0,0,1,2.09-1.83,6.75,6.75,0,0,1,3-.66,6.09,6.09,0,0,1,4.36,1.4,6,6,0,0,1,1.47,4.48v10.47Z"/>
    <path d="M789.07,212.55a6,6,0,0,1,4.92,2.16A11.56,11.56,0,0,1,794,227a6,6,0,0,1-4.9,2.19,7,7,0,0,1-2.86-.57,5.43,5.43,0,0,1-2.18-1.78h-.17l-.52,2.06H781.6V206.08H784v5.54c0,1.24,0,2.35-.11,3.34H784A5.76,5.76,0,0,1,789.07,212.55Zm-.35,2a4.22,4.22,0,0,0-3.59,1.43c-.73.95-1.1,2.55-1.1,4.81s.38,3.87,1.13,4.84a4.3,4.3,0,0,0,3.62,1.46,3.76,3.76,0,0,0,3.34-1.64,8.38,8.38,0,0,0,1.1-4.69,8.06,8.06,0,0,0-1.1-4.67A3.89,3.89,0,0,0,788.72,214.59Z"/>
    <path d="M809.86,228.87l-.49-2.28h-.11a6.81,6.81,0,0,1-2.4,2,7.23,7.23,0,0,1-3,.53,5.35,5.35,0,0,1-3.74-1.23,4.49,4.49,0,0,1-1.36-3.5q0-4.86,7.78-5.09l2.73-.09v-1a4,4,0,0,0-.82-2.79,3.33,3.33,0,0,0-2.6-.9,10.62,10.62,0,0,0-4.54,1.23l-.75-1.86a11.84,11.84,0,0,1,5.44-1.38,6.15,6.15,0,0,1,4.26,1.28,5.32,5.32,0,0,1,1.38,4.08v11Zm-5.5-1.71a4.93,4.93,0,0,0,3.57-1.25,4.58,4.58,0,0,0,1.3-3.48V221l-2.43.1a8.93,8.93,0,0,0-4.19.9,2.72,2.72,0,0,0-1.28,2.48,2.52,2.52,0,0,0,.8,2A3.31,3.31,0,0,0,804.36,227.16Z"/>
    <path d="M827,224.49a4,4,0,0,1-1.67,3.46,7.88,7.88,0,0,1-4.69,1.21,10.12,10.12,0,0,1-5-1V225.9a11.84,11.84,0,0,0,2.48.92,10.13,10.13,0,0,0,2.56.34,5.76,5.76,0,0,0,2.93-.61,2.1,2.1,0,0,0,.21-3.46,12.77,12.77,0,0,0-3.17-1.57,17,17,0,0,1-3.19-1.46,4.4,4.4,0,0,1-1.41-1.41,3.78,3.78,0,0,1-.46-1.89,3.62,3.62,0,0,1,1.6-3.1,7.42,7.42,0,0,1,4.38-1.14,12.88,12.88,0,0,1,5.07,1.06l-.86,2a11.61,11.61,0,0,0-4.39-1,5,5,0,0,0-2.6.54,1.67,1.67,0,0,0-.88,1.5,1.79,1.79,0,0,0,.33,1.09,3.11,3.11,0,0,0,1.06.87,25.24,25.24,0,0,0,2.81,1.19,10.47,10.47,0,0,1,3.86,2.09A3.69,3.69,0,0,1,827,224.49Z"/>
    <path d="M837.76,229.16a7.37,7.37,0,0,1-5.61-2.16,8.38,8.38,0,0,1-2.06-6,9.33,9.33,0,0,1,1.91-6.17,6.36,6.36,0,0,1,5.13-2.29,6.06,6.06,0,0,1,4.78,2,7.62,7.62,0,0,1,1.76,5.24v1.53H832.61a6.36,6.36,0,0,0,1.43,4.3,4.94,4.94,0,0,0,3.81,1.46A13,13,0,0,0,843,226v2.16a12.15,12.15,0,0,1-2.44.8A13.83,13.83,0,0,1,837.76,229.16Zm-.66-14.6a4,4,0,0,0-3.08,1.26,5.74,5.74,0,0,0-1.35,3.49h8.39a5.33,5.33,0,0,0-1-3.53A3.62,3.62,0,0,0,837.1,214.56Z"/>
    <path d="M858.74,226.72h-.13a5.7,5.7,0,0,1-5,2.44,5.94,5.94,0,0,1-4.9-2.15,9.45,9.45,0,0,1-1.75-6.12,9.6,9.6,0,0,1,1.76-6.17,5.92,5.92,0,0,1,4.89-2.2,5.82,5.82,0,0,1,5,2.38h.19l-.1-1.16-.06-1.13v-6.53H861v22.79h-2Zm-4.86.41a4.41,4.41,0,0,0,3.61-1.36,6.88,6.88,0,0,0,1.12-4.37v-.51q0-3.42-1.14-4.87a4.3,4.3,0,0,0-3.62-1.46,3.73,3.73,0,0,0-3.28,1.66,8.35,8.35,0,0,0-1.13,4.7,7.84,7.84,0,0,0,1.13,4.64A3.8,3.8,0,0,0,853.88,227.13Z"/>
    <path d="M871.29,220.65a22,22,0,0,1-1.13,7.18,17.15,17.15,0,0,1-3.28,5.79h-2.34a21.06,21.06,0,0,0,3.12-6.12,22.34,22.34,0,0,0,1.09-6.88,23,23,0,0,0-1.07-7,20.5,20.5,0,0,0-3.17-6.21h2.37a18,18,0,0,1,3.29,5.95A22.87,22.87,0,0,1,871.29,220.65Z"/>
    <path d="M793.82,284.87H781.88V263.46h11.94v2.21h-9.45v6.9h8.88v2.19h-8.88v7.88h9.45Z"/>
    <path d="M809.18,284.87V274.49a4.21,4.21,0,0,0-.89-2.93,3.63,3.63,0,0,0-2.8-1A4.6,4.6,0,0,0,801.8,272q-1.17,1.37-1.17,4.5v8.42H798.2V268.82h2l.4,2.19h.12a4.86,4.86,0,0,1,2.09-1.83,6.74,6.74,0,0,1,3-.66,6.12,6.12,0,0,1,4.37,1.4,6,6,0,0,1,1.46,4.48v10.47Z"/>
    <path d="M827,280.49A4,4,0,0,1,825.3,284a7.88,7.88,0,0,1-4.69,1.21,10.12,10.12,0,0,1-5-1V281.9a11.84,11.84,0,0,0,2.48.92,10.13,10.13,0,0,0,2.56.34,5.76,5.76,0,0,0,2.93-.61,2.1,2.1,0,0,0,.21-3.46,12.77,12.77,0,0,0-3.17-1.57,17,17,0,0,1-3.19-1.46,4.4,4.4,0,0,1-1.41-1.41,3.78,3.78,0,0,1-.46-1.89,3.62,3.62,0,0,1,1.6-3.1,7.42,7.42,0,0,1,4.38-1.14,12.88,12.88,0,0,1,5.07,1.06l-.87,2a11.52,11.52,0,0,0-4.38-1,5,5,0,0,0-2.6.54,1.67,1.67,0,0,0-.88,1.5,1.79,1.79,0,0,0,.33,1.09,3.11,3.11,0,0,0,1.06.87,25.24,25.24,0,0,0,2.81,1.19,10.47,10.47,0,0,1,3.86,2.09A3.69,3.69,0,0,1,827,280.49Z"/>
    <path d="M833.21,268.82v10.41a4.16,4.16,0,0,0,.89,2.93,3.62,3.62,0,0,0,2.8,1,4.54,4.54,0,0,0,3.68-1.38,6.94,6.94,0,0,0,1.17-4.5v-8.43h2.43v16.05h-2l-.35-2.15h-.13a4.84,4.84,0,0,1-2.08,1.81,6.94,6.94,0,0,1-3,.63,6.14,6.14,0,0,1-4.39-1.39c-1-.92-1.45-2.41-1.45-4.45v-10.5Z"/>
    <path d="M856.66,268.52a9.35,9.35,0,0,1,1.92.18l-.34,2.26a8,8,0,0,0-1.76-.22,4.25,4.25,0,0,0-3.33,1.58,5.78,5.78,0,0,0-1.39,3.94v8.61h-2.43V268.82h2l.28,3h.12a7.08,7.08,0,0,1,2.15-2.42A4.89,4.89,0,0,1,856.66,268.52Z"/>
    <path d="M861.37,264.47a1.64,1.64,0,0,1,.41-1.23,1.51,1.51,0,0,1,2,0,1.6,1.6,0,0,1,.43,1.22,1.63,1.63,0,0,1-.43,1.22,1.5,1.5,0,0,1-2,0A1.66,1.66,0,0,1,861.37,264.47Zm2.64,20.4h-2.43V268.82H864Z"/>
    <path d="M880.15,284.87V274.49a4.16,4.16,0,0,0-.89-2.93,3.62,3.62,0,0,0-2.8-1,4.6,4.6,0,0,0-3.69,1.36q-1.17,1.37-1.17,4.5v8.42h-2.43V268.82h2l.39,2.19h.12a4.91,4.91,0,0,1,2.09-1.83,6.74,6.74,0,0,1,3-.66,6.12,6.12,0,0,1,4.37,1.4,6,6,0,0,1,1.46,4.48v10.47Z"/>
    <path d="M900.72,268.82v1.53l-3,.36a5.37,5.37,0,0,1,.73,1.34,5.18,5.18,0,0,1,.32,1.86,4.76,4.76,0,0,1-1.61,3.77,6.48,6.48,0,0,1-4.42,1.41,7.21,7.21,0,0,1-1.35-.12,2.37,2.37,0,0,0-1.55,2.06,1.06,1.06,0,0,0,.54,1,4,4,0,0,0,1.86.31h2.84a6.4,6.4,0,0,1,4,1.1,3.82,3.82,0,0,1,1.39,3.19,4.57,4.57,0,0,1-2.13,4.07,11.49,11.49,0,0,1-6.24,1.4,8.55,8.55,0,0,1-4.86-1.17,3.79,3.79,0,0,1-1.71-3.31,3.75,3.75,0,0,1,.94-2.54,4.83,4.83,0,0,1,2.64-1.45,2.44,2.44,0,0,1-1-.86,2.29,2.29,0,0,1-.42-1.36,2.53,2.53,0,0,1,.47-1.54,4.82,4.82,0,0,1,1.48-1.28,4.31,4.31,0,0,1-2-1.74,5.07,5.07,0,0,1-.79-2.81,5.19,5.19,0,0,1,1.59-4.07,6.44,6.44,0,0,1,4.48-1.43,8,8,0,0,1,2.27.3Zm-12.8,18.75a2.14,2.14,0,0,0,1.1,2,6,6,0,0,0,3.15.68,8.77,8.77,0,0,0,4.53-.92,2.8,2.8,0,0,0,1.47-2.48,2,2,0,0,0-.8-1.81,6.26,6.26,0,0,0-3-.5h-2.91a3.85,3.85,0,0,0-2.58.79A2.82,2.82,0,0,0,887.92,287.57ZM889.24,274a3.26,3.26,0,0,0,1,2.55,3.82,3.82,0,0,0,2.65.86q3.55,0,3.56-3.46,0-3.62-3.6-3.61a3.54,3.54,0,0,0-2.64.92A3.69,3.69,0,0,0,889.24,274Z"/>
    <path d="M918.23,285.16a6.84,6.84,0,0,1-5.4-2.14,8.8,8.8,0,0,1-1.91-6.07,9.08,9.08,0,0,1,1.94-6.23,7,7,0,0,1,5.53-2.2,11.34,11.34,0,0,1,2.31.25,7.61,7.61,0,0,1,1.82.59l-.75,2.06a11.75,11.75,0,0,0-1.76-.53,7.85,7.85,0,0,0-1.68-.21c-3.26,0-4.9,2.08-4.9,6.24a7.41,7.41,0,0,0,1.2,4.54,4.15,4.15,0,0,0,3.54,1.58,10.9,10.9,0,0,0,4.11-.86v2.15A8.69,8.69,0,0,1,918.23,285.16Z"/>
    <path d="M940,276.83a8.84,8.84,0,0,1-2,6.13,7,7,0,0,1-5.46,2.2,7.21,7.21,0,0,1-3.83-1,6.62,6.62,0,0,1-2.57-2.9,10,10,0,0,1-.91-4.42,8.84,8.84,0,0,1,2-6.12,7,7,0,0,1,5.45-2.19,6.79,6.79,0,0,1,5.35,2.24A8.81,8.81,0,0,1,940,276.83Zm-12.23,0a7.64,7.64,0,0,0,1.23,4.69,4.87,4.87,0,0,0,7.24,0,7.52,7.52,0,0,0,1.24-4.69,7.43,7.43,0,0,0-1.24-4.65,4.33,4.33,0,0,0-3.65-1.59,4.27,4.27,0,0,0-3.61,1.57A7.53,7.53,0,0,0,927.72,276.83Z"/>
    <path d="M964.67,284.87V274.43a4.32,4.32,0,0,0-.82-2.88,3.15,3.15,0,0,0-2.54-1,4.11,4.11,0,0,0-3.36,1.3,6.23,6.23,0,0,0-1.08,4v9h-2.43V274.43a4.38,4.38,0,0,0-.82-2.88,3.21,3.21,0,0,0-2.57-1,4,4,0,0,0-3.34,1.37,7.39,7.39,0,0,0-1.07,4.49v8.42h-2.43V268.82h2l.39,2.19h.12a4.82,4.82,0,0,1,1.94-1.83,5.94,5.94,0,0,1,2.81-.66q3.76,0,4.92,2.73h.12a5.06,5.06,0,0,1,2.08-2,6.43,6.43,0,0,1,3.1-.74,5.44,5.44,0,0,1,4.08,1.4,6.25,6.25,0,0,1,1.36,4.48v10.47Z"/>
    <path d="M979.59,285.16a7.07,7.07,0,0,1-2.87-.57,5.4,5.4,0,0,1-2.17-1.78h-.18a20.85,20.85,0,0,1,.18,2.66v6.61h-2.43V268.82h2l.34,2.19h.12a5.66,5.66,0,0,1,2.18-1.9,6.64,6.64,0,0,1,2.86-.59,5.93,5.93,0,0,1,4.93,2.19,11.64,11.64,0,0,1,0,12.26A6,6,0,0,1,979.59,285.16Zm-.35-14.57a4.29,4.29,0,0,0-3.56,1.36,7,7,0,0,0-1.13,4.34v.54c0,2.26.37,3.87,1.13,4.84a4.28,4.28,0,0,0,3.61,1.46,3.74,3.74,0,0,0,3.26-1.69,8,8,0,0,0,1.18-4.64,7.68,7.68,0,0,0-1.18-4.61A3.86,3.86,0,0,0,979.24,270.59Z"/>
    <path d="M992.93,284.87H990.5V262.08h2.43Z"/>
    <path d="M997.88,264.47a1.64,1.64,0,0,1,.41-1.23,1.51,1.51,0,0,1,2,0,1.6,1.6,0,0,1,.42,1.22,1.63,1.63,0,0,1-.42,1.22,1.5,1.5,0,0,1-2,0A1.66,1.66,0,0,1,997.88,264.47Zm2.64,20.4h-2.43V268.82h2.43Z"/>
    <path d="M1015.55,284.87l-.48-2.28H1015a6.81,6.81,0,0,1-2.4,2,7.23,7.23,0,0,1-3,.53,5.35,5.35,0,0,1-3.74-1.23,4.48,4.48,0,0,1-1.35-3.5q0-4.86,7.77-5.09l2.73-.09v-1a4.08,4.08,0,0,0-.81-2.79,3.36,3.36,0,0,0-2.6-.9,10.63,10.63,0,0,0-4.55,1.23l-.74-1.86a11.07,11.07,0,0,1,2.6-1,11.39,11.39,0,0,1,2.83-.37,6.13,6.13,0,0,1,4.26,1.28,5.32,5.32,0,0,1,1.38,4.08v11Zm-5.49-1.71a4.92,4.92,0,0,0,3.56-1.25,4.58,4.58,0,0,0,1.3-3.48V277l-2.43.1a8.85,8.85,0,0,0-4.18.9,2.71,2.71,0,0,0-1.29,2.48,2.52,2.52,0,0,0,.8,2A3.32,3.32,0,0,0,1010.06,283.16Z"/>
    <path d="M1033.35,284.87V274.49a4.16,4.16,0,0,0-.9-2.93,3.61,3.61,0,0,0-2.79-1A4.64,4.64,0,0,0,1026,272q-1.17,1.37-1.17,4.5v8.42h-2.43V268.82h2l.39,2.19h.12a4.94,4.94,0,0,1,2.1-1.83,6.68,6.68,0,0,1,3-.66,6.09,6.09,0,0,1,4.36,1.4,6,6,0,0,1,1.47,4.48v10.47Z"/>
    <path d="M1047.19,285.16a6.87,6.87,0,0,1-5.4-2.14,8.85,8.85,0,0,1-1.91-6.07,9.13,9.13,0,0,1,1.94-6.23,7,7,0,0,1,5.53-2.2,11.52,11.52,0,0,1,2.32.25,7.51,7.51,0,0,1,1.81.59l-.74,2.06a12.12,12.12,0,0,0-1.76-.53,8,8,0,0,0-1.69-.21q-4.89,0-4.89,6.24a7.48,7.48,0,0,0,1.19,4.54,4.18,4.18,0,0,0,3.54,1.58,11,11,0,0,0,4.12-.86v2.15A8.76,8.76,0,0,1,1047.19,285.16Z"/>
    <path d="M1061.84,285.16a7.4,7.4,0,0,1-5.62-2.16,8.42,8.42,0,0,1-2.06-6,9.33,9.33,0,0,1,1.91-6.17,6.38,6.38,0,0,1,5.14-2.29,6.06,6.06,0,0,1,4.77,2,7.57,7.57,0,0,1,1.76,5.24v1.53h-11.06a6.41,6.41,0,0,0,1.43,4.3,5,5,0,0,0,3.82,1.46,12.94,12.94,0,0,0,5.12-1.08v2.16a12.15,12.15,0,0,1-2.44.8A13.72,13.72,0,0,1,1061.84,285.16Zm-.66-14.6a4,4,0,0,0-3.09,1.26,5.86,5.86,0,0,0-1.35,3.49h8.39a5.38,5.38,0,0,0-1-3.53A3.63,3.63,0,0,0,1061.18,270.56Z"/>
    <path d="M781.79,340.87V319.46h2.49v21.41Z"/>
    <path d="M796.75,340.87h-2.5v-19.2h-6.78v-2.21h16.06v2.21h-6.78Z"/>
    <path d="M821.65,341.16a7.07,7.07,0,0,1-2.87-.57,5.4,5.4,0,0,1-2.17-1.78h-.18a20.85,20.85,0,0,1,.18,2.66v6.61h-2.43V324.82h2l.34,2.19h.12a5.66,5.66,0,0,1,2.18-1.9,6.64,6.64,0,0,1,2.86-.59,5.93,5.93,0,0,1,4.93,2.19,11.64,11.64,0,0,1,0,12.26A6,6,0,0,1,821.65,341.16Zm-.35-14.57a4.3,4.3,0,0,0-3.56,1.36,7,7,0,0,0-1.13,4.34v.54c0,2.26.37,3.87,1.13,4.84a4.28,4.28,0,0,0,3.61,1.46,3.74,3.74,0,0,0,3.26-1.69,8,8,0,0,0,1.18-4.64,7.68,7.68,0,0,0-1.18-4.61A3.86,3.86,0,0,0,821.3,326.59Z"/>
    <path d="M839.34,341.16a7.41,7.41,0,0,1-5.62-2.16,8.42,8.42,0,0,1-2.05-6,9.28,9.28,0,0,1,1.91-6.17,6.35,6.35,0,0,1,5.13-2.29,6.08,6.08,0,0,1,4.78,2,7.62,7.62,0,0,1,1.76,5.24v1.53H834.19a6.4,6.4,0,0,0,1.42,4.3,5,5,0,0,0,3.82,1.46,13,13,0,0,0,5.13-1.08v2.16a12.36,12.36,0,0,1-2.44.8A13.83,13.83,0,0,1,839.34,341.16Zm-.66-14.6a4,4,0,0,0-3.08,1.26,5.74,5.74,0,0,0-1.35,3.49h8.39a5.33,5.33,0,0,0-1-3.53A3.62,3.62,0,0,0,838.68,326.56Z"/>
    <path d="M856.72,324.52a9.19,9.19,0,0,1,1.91.18L858.3,327a8.11,8.11,0,0,0-1.76-.22,4.25,4.25,0,0,0-3.33,1.58,5.73,5.73,0,0,0-1.39,3.94v8.61h-2.43V324.82h2l.28,3h.11a7.21,7.21,0,0,1,2.16-2.42A4.89,4.89,0,0,1,856.72,324.52Z"/>
    <path d="M868.87,326.71h-4.08v14.16h-2.44V326.71h-2.87v-1.1l2.87-.88v-.89q0-5.93,5.18-5.92a10.62,10.62,0,0,1,3,.51l-.63,1.95a8.07,8.07,0,0,0-2.4-.46,2.33,2.33,0,0,0-2,.92,5.11,5.11,0,0,0-.66,2.94v1h4.08Z"/>
    <path d="M885.66,332.83a8.84,8.84,0,0,1-2,6.13,7,7,0,0,1-5.46,2.2,7.15,7.15,0,0,1-3.82-1,6.58,6.58,0,0,1-2.58-2.9,10,10,0,0,1-.91-4.42,8.84,8.84,0,0,1,2-6.12,7,7,0,0,1,5.45-2.19,6.82,6.82,0,0,1,5.36,2.24A8.86,8.86,0,0,1,885.66,332.83Zm-12.23,0a7.64,7.64,0,0,0,1.23,4.69,4.87,4.87,0,0,0,7.24,0,7.52,7.52,0,0,0,1.24-4.69,7.43,7.43,0,0,0-1.24-4.65,4.33,4.33,0,0,0-3.65-1.59,4.26,4.26,0,0,0-3.6,1.57A7.46,7.46,0,0,0,873.43,332.83Z"/>
    <path d="M897.25,324.52a9.35,9.35,0,0,1,1.92.18l-.34,2.26a8,8,0,0,0-1.76-.22,4.25,4.25,0,0,0-3.33,1.58,5.78,5.78,0,0,0-1.39,3.94v8.61h-2.43V324.82h2l.28,3h.12a7.08,7.08,0,0,1,2.15-2.42A4.89,4.89,0,0,1,897.25,324.52Z"/>
    <path d="M922.63,340.87V330.43a4.32,4.32,0,0,0-.82-2.88,3.15,3.15,0,0,0-2.55-1,4.1,4.1,0,0,0-3.35,1.3,6.23,6.23,0,0,0-1.08,4v9h-2.44V330.43a4.32,4.32,0,0,0-.82-2.88,3.18,3.18,0,0,0-2.56-1,4,4,0,0,0-3.35,1.37,7.39,7.39,0,0,0-1.06,4.49v8.42h-2.43V324.82h2l.39,2.19h.12a4.76,4.76,0,0,1,1.94-1.83,5.92,5.92,0,0,1,2.81-.66q3.76,0,4.92,2.73h.11a5.12,5.12,0,0,1,2.08-2,6.47,6.47,0,0,1,3.11-.74,5.44,5.44,0,0,1,4.08,1.4,6.3,6.3,0,0,1,1.36,4.48v10.47Z"/>
    <path d="M940,340.87l-.49-2.28h-.11a6.81,6.81,0,0,1-2.4,2,7.23,7.23,0,0,1-3,.53,5.35,5.35,0,0,1-3.74-1.23,4.49,4.49,0,0,1-1.36-3.5q0-4.86,7.78-5.09l2.73-.09v-1a4,4,0,0,0-.82-2.79,3.33,3.33,0,0,0-2.6-.9,10.62,10.62,0,0,0-4.54,1.23l-.75-1.86a11.84,11.84,0,0,1,5.44-1.38,6.15,6.15,0,0,1,4.26,1.28,5.32,5.32,0,0,1,1.38,4.08v11Zm-5.5-1.71a4.93,4.93,0,0,0,3.57-1.25,4.58,4.58,0,0,0,1.3-3.48V333l-2.43.1a8.93,8.93,0,0,0-4.19.9,2.72,2.72,0,0,0-1.28,2.48,2.52,2.52,0,0,0,.8,2A3.31,3.31,0,0,0,934.45,339.16Z"/>
    <path d="M957.75,340.87V330.49a4.16,4.16,0,0,0-.9-2.93,3.62,3.62,0,0,0-2.8-1,4.6,4.6,0,0,0-3.69,1.36q-1.17,1.37-1.17,4.5v8.42h-2.43V324.82h2l.39,2.19h.12a5,5,0,0,1,2.09-1.83,6.75,6.75,0,0,1,3-.66,6.09,6.09,0,0,1,4.36,1.4,6,6,0,0,1,1.47,4.48v10.47Z"/>
    <path d="M971.59,341.16a6.85,6.85,0,0,1-5.4-2.14,8.85,8.85,0,0,1-1.91-6.07,9.08,9.08,0,0,1,1.94-6.23,7,7,0,0,1,5.53-2.2,11.34,11.34,0,0,1,2.31.25,7.61,7.61,0,0,1,1.82.59l-.75,2.06a11.62,11.62,0,0,0-1.75-.53,8,8,0,0,0-1.69-.21q-4.89,0-4.89,6.24a7.48,7.48,0,0,0,1.19,4.54,4.18,4.18,0,0,0,3.54,1.58,11,11,0,0,0,4.12-.86v2.15A8.76,8.76,0,0,1,971.59,341.16Z"/>
    <path d="M986.24,341.16a7.38,7.38,0,0,1-5.62-2.16,8.42,8.42,0,0,1-2.06-6,9.33,9.33,0,0,1,1.91-6.17,6.38,6.38,0,0,1,5.14-2.29,6.06,6.06,0,0,1,4.77,2,7.62,7.62,0,0,1,1.76,5.24v1.53H981.08a6.36,6.36,0,0,0,1.43,4.3,5,5,0,0,0,3.82,1.46,13,13,0,0,0,5.12-1.08v2.16a12.15,12.15,0,0,1-2.44.8A13.72,13.72,0,0,1,986.24,341.16Zm-.66-14.6a4,4,0,0,0-3.09,1.26,5.86,5.86,0,0,0-1.35,3.49h8.39a5.38,5.38,0,0,0-1-3.53A3.63,3.63,0,0,0,985.58,326.56Z"/>
    <path d="M784.19,388v8.9H781.7V375.46h5.87q3.95,0,5.83,1.5a5.5,5.5,0,0,1,1.88,4.55q0,4.25-4.31,5.74l5.82,9.62h-2.95l-5.18-8.9Zm0-2.14h3.41a5.89,5.89,0,0,0,3.87-1.05,3.9,3.9,0,0,0,1.23-3.14,3.57,3.57,0,0,0-1.25-3.06,6.77,6.77,0,0,0-4-.94h-3.24Z"/>
    <path d="M806.66,397.16A7.4,7.4,0,0,1,801,395a8.42,8.42,0,0,1-2.06-6,9.28,9.28,0,0,1,1.92-6.17,6.35,6.35,0,0,1,5.13-2.29,6.09,6.09,0,0,1,4.78,2,7.61,7.61,0,0,1,1.75,5.24v1.53H801.5a6.41,6.41,0,0,0,1.43,4.3,5,5,0,0,0,3.82,1.46,12.94,12.94,0,0,0,5.12-1.08v2.16a12.28,12.28,0,0,1-2.43.8A13.9,13.9,0,0,1,806.66,397.16Zm-.66-14.6a4,4,0,0,0-3.08,1.26,5.81,5.81,0,0,0-1.36,3.49H810a5.38,5.38,0,0,0-1-3.53A3.62,3.62,0,0,0,806,382.56Z"/>
    <path d="M827.07,392.49A4,4,0,0,1,825.4,396a7.88,7.88,0,0,1-4.69,1.21,10.12,10.12,0,0,1-5-1V393.9a11.84,11.84,0,0,0,2.48.92,10.13,10.13,0,0,0,2.56.34,5.76,5.76,0,0,0,2.93-.61,2.1,2.1,0,0,0,.21-3.46,12.77,12.77,0,0,0-3.17-1.57,17,17,0,0,1-3.19-1.46,4.4,4.4,0,0,1-1.41-1.41,3.78,3.78,0,0,1-.46-1.89,3.62,3.62,0,0,1,1.6-3.1,7.4,7.4,0,0,1,4.38-1.14,12.88,12.88,0,0,1,5.07,1.06l-.87,2a11.52,11.52,0,0,0-4.38-1,5,5,0,0,0-2.6.54,1.67,1.67,0,0,0-.88,1.5,1.79,1.79,0,0,0,.33,1.09,3.11,3.11,0,0,0,1.06.87,25.24,25.24,0,0,0,2.81,1.19,10.47,10.47,0,0,1,3.86,2.09A3.69,3.69,0,0,1,827.07,392.49Z"/>
    <path d="M844.88,388.83a8.84,8.84,0,0,1-2,6.13,7,7,0,0,1-5.46,2.2,7.21,7.21,0,0,1-3.83-1,6.7,6.7,0,0,1-2.58-2.9,10.17,10.17,0,0,1-.9-4.42,8.84,8.84,0,0,1,2-6.12,6.94,6.94,0,0,1,5.45-2.19,6.8,6.8,0,0,1,5.35,2.24A8.81,8.81,0,0,1,844.88,388.83Zm-12.23,0a7.64,7.64,0,0,0,1.23,4.69,4.87,4.87,0,0,0,7.24,0,7.58,7.58,0,0,0,1.24-4.69,7.49,7.49,0,0,0-1.24-4.65,4.35,4.35,0,0,0-3.65-1.59,4.27,4.27,0,0,0-3.61,1.57A7.53,7.53,0,0,0,832.65,388.83Z"/>
    <path d="M851.42,380.82v10.41a4.16,4.16,0,0,0,.9,2.93,3.63,3.63,0,0,0,2.8,1,4.55,4.55,0,0,0,3.68-1.38,6.94,6.94,0,0,0,1.17-4.5v-8.43h2.43v16.05h-2l-.35-2.15h-.13a4.84,4.84,0,0,1-2.08,1.81,6.94,6.94,0,0,1-3,.63,6.14,6.14,0,0,1-4.39-1.39,5.91,5.91,0,0,1-1.46-4.45v-10.5Z"/>
    <path d="M874.88,380.52a9.35,9.35,0,0,1,1.92.18l-.34,2.26a8,8,0,0,0-1.76-.22,4.25,4.25,0,0,0-3.33,1.58,5.77,5.77,0,0,0-1.38,3.94v8.61h-2.44V380.82h2l.28,3H870a7.08,7.08,0,0,1,2.15-2.42A4.89,4.89,0,0,1,874.88,380.52Z"/>
    <path d="M886.22,397.16a6.84,6.84,0,0,1-5.4-2.14,8.8,8.8,0,0,1-1.91-6.07,9.08,9.08,0,0,1,1.94-6.23,7,7,0,0,1,5.53-2.2,11.34,11.34,0,0,1,2.31.25,7.61,7.61,0,0,1,1.82.59l-.75,2.06a11.75,11.75,0,0,0-1.76-.53,7.85,7.85,0,0,0-1.68-.21c-3.26,0-4.9,2.08-4.9,6.24a7.41,7.41,0,0,0,1.2,4.54,4.16,4.16,0,0,0,3.54,1.58,10.86,10.86,0,0,0,4.11-.86v2.15A8.69,8.69,0,0,1,886.22,397.16Z"/>
    <path d="M900.86,397.16a7.37,7.37,0,0,1-5.61-2.16,8.38,8.38,0,0,1-2.06-6,9.33,9.33,0,0,1,1.91-6.17,6.35,6.35,0,0,1,5.13-2.29,6.06,6.06,0,0,1,4.78,2,7.62,7.62,0,0,1,1.76,5.24v1.53H895.71a6.36,6.36,0,0,0,1.43,4.3A4.94,4.94,0,0,0,901,395a13,13,0,0,0,5.13-1.08v2.16a12.15,12.15,0,0,1-2.44.8A13.83,13.83,0,0,1,900.86,397.16Zm-.66-14.6a4,4,0,0,0-3.08,1.26,5.74,5.74,0,0,0-1.35,3.49h8.39a5.33,5.33,0,0,0-1-3.53A3.62,3.62,0,0,0,900.2,382.56Z"/>
    <path d="M921,380.82v10.41a4.21,4.21,0,0,0,.89,2.93,3.63,3.63,0,0,0,2.8,1,4.58,4.58,0,0,0,3.69-1.38,7,7,0,0,0,1.16-4.5v-8.43H932v16.05h-2l-.36-2.15h-.13a4.87,4.87,0,0,1-2.07,1.81,7,7,0,0,1-3,.63,6.11,6.11,0,0,1-4.38-1.39c-1-.92-1.46-2.41-1.46-4.45v-10.5Z"/>
    <path d="M942.3,395.16a7.28,7.28,0,0,0,1.25-.1,6.91,6.91,0,0,0,1-.2v1.86a4.15,4.15,0,0,1-1.16.32,9.21,9.21,0,0,1-1.39.12c-3.1,0-4.66-1.63-4.66-4.9v-9.55H935v-1.18l2.29-1,1-3.42h1.41v3.72h4.65v1.89h-4.65v9.44a3.25,3.25,0,0,0,.69,2.23A2.36,2.36,0,0,0,942.3,395.16Z"/>
    <path d="M947.5,376.47a1.61,1.61,0,0,1,.42-1.23,1.41,1.41,0,0,1,1-.39,1.45,1.45,0,0,1,1,.4,1.6,1.6,0,0,1,.43,1.22,1.63,1.63,0,0,1-.43,1.22,1.4,1.4,0,0,1-1,.4,1.38,1.38,0,0,1-1-.4A1.63,1.63,0,0,1,947.5,376.47Zm2.64,20.4h-2.43V380.82h2.43Z"/>
    <path d="M957.73,396.87H955.3V374.08h2.43Z"/>
    <path d="M962.68,376.47a1.64,1.64,0,0,1,.41-1.23,1.44,1.44,0,0,1,1-.39,1.46,1.46,0,0,1,1,.4,1.6,1.6,0,0,1,.42,1.22,1.63,1.63,0,0,1-.42,1.22,1.42,1.42,0,0,1-1,.4,1.4,1.4,0,0,1-1-.4A1.66,1.66,0,0,1,962.68,376.47Zm2.64,20.4h-2.43V380.82h2.43Z"/>
    <path d="M980.74,396.87H969.1v-1.65l8.76-12.51h-8.22v-1.89h10.88v1.89L971.88,395h8.86Z"/>
    <path d="M994.38,396.87l-.48-2.28h-.12a6.81,6.81,0,0,1-2.4,2,7.23,7.23,0,0,1-3,.53,5.35,5.35,0,0,1-3.74-1.23,4.48,4.48,0,0,1-1.35-3.5q0-4.86,7.77-5.09l2.73-.09v-1a4.08,4.08,0,0,0-.81-2.79,3.36,3.36,0,0,0-2.6-.9,10.63,10.63,0,0,0-4.55,1.23l-.74-1.86a11.07,11.07,0,0,1,2.6-1,11.39,11.39,0,0,1,2.83-.37,6.13,6.13,0,0,1,4.26,1.28,5.32,5.32,0,0,1,1.38,4.08v11Zm-5.49-1.71a4.92,4.92,0,0,0,3.56-1.25,4.58,4.58,0,0,0,1.3-3.48V389l-2.43.1a8.85,8.85,0,0,0-4.18.9,2.71,2.71,0,0,0-1.29,2.48,2.52,2.52,0,0,0,.8,2A3.32,3.32,0,0,0,988.89,395.16Z"/>
    <path d="M1006.38,395.16a7.16,7.16,0,0,0,1.24-.1,6.91,6.91,0,0,0,1-.2v1.86a4.15,4.15,0,0,1-1.16.32,9.11,9.11,0,0,1-1.39.12q-4.65,0-4.65-4.9v-9.55h-2.3v-1.18l2.3-1,1-3.42h1.41v3.72h4.66v1.89h-4.66v9.44a3.25,3.25,0,0,0,.69,2.23A2.39,2.39,0,0,0,1006.38,395.16Z"/>
    <path d="M1011.58,376.47a1.6,1.6,0,0,1,.41-1.23,1.41,1.41,0,0,1,1-.39,1.45,1.45,0,0,1,1,.4,1.56,1.56,0,0,1,.43,1.22,1.59,1.59,0,0,1-.43,1.22,1.4,1.4,0,0,1-1,.4,1.38,1.38,0,0,1-1-.4A1.62,1.62,0,0,1,1011.58,376.47Zm2.63,20.4h-2.43V380.82h2.43Z"/>
    <path d="M1033.23,388.83a8.84,8.84,0,0,1-2,6.13,7,7,0,0,1-5.46,2.2,7.21,7.21,0,0,1-3.83-1,6.7,6.7,0,0,1-2.58-2.9,10.17,10.17,0,0,1-.9-4.42,8.84,8.84,0,0,1,2-6.12,6.94,6.94,0,0,1,5.45-2.19,6.8,6.8,0,0,1,5.35,2.24A8.81,8.81,0,0,1,1033.23,388.83Zm-12.23,0a7.64,7.64,0,0,0,1.23,4.69,4.87,4.87,0,0,0,7.24,0,7.58,7.58,0,0,0,1.24-4.69,7.49,7.49,0,0,0-1.24-4.65,4.35,4.35,0,0,0-3.65-1.59,4.27,4.27,0,0,0-3.61,1.57A7.53,7.53,0,0,0,1021,388.83Z"/>
    <path d="M1048.48,396.87V386.49a4.16,4.16,0,0,0-.9-2.93,3.62,3.62,0,0,0-2.8-1,4.6,4.6,0,0,0-3.69,1.36q-1.17,1.37-1.17,4.5v8.42h-2.43V380.82h2l.39,2.19h.12a4.94,4.94,0,0,1,2.1-1.83,6.68,6.68,0,0,1,3-.66,6.09,6.09,0,0,1,4.36,1.4,6,6,0,0,1,1.47,4.48v10.47Z"/>
  </g>
  <g>
    <path d="M1319.28,278.65l-2.67-6.81H1308l-2.64,6.81h-2.52l8.47-21.51h2.09l8.43,21.51Zm-3.44-9-2.49-6.64c-.33-.84-.66-1.87-1-3.09a26.45,26.45,0,0,1-.92,3.09l-2.52,6.64Z"/>
    <path d="M1335.36,276.5h-.13a5.7,5.7,0,0,1-5,2.44,6,6,0,0,1-4.9-2.15,9.53,9.53,0,0,1-1.75-6.12,9.64,9.64,0,0,1,1.76-6.17,5.9,5.9,0,0,1,4.89-2.2,5.84,5.84,0,0,1,5,2.37h.19l-.1-1.15-.06-1.13v-6.53h2.43v22.79h-2Zm-4.86.41a4.41,4.41,0,0,0,3.61-1.36,6.82,6.82,0,0,0,1.12-4.37v-.51c0-2.28-.38-3.9-1.13-4.87a4.3,4.3,0,0,0-3.63-1.46,3.71,3.71,0,0,0-3.27,1.66,8.24,8.24,0,0,0-1.14,4.7,7.94,7.94,0,0,0,1.13,4.64A3.84,3.84,0,0,0,1330.5,276.91Z"/>
    <path d="M1353.75,276.5h-.13a5.73,5.73,0,0,1-5,2.44,6,6,0,0,1-4.9-2.15,9.47,9.47,0,0,1-1.75-6.12,9.64,9.64,0,0,1,1.75-6.17,5.93,5.93,0,0,1,4.9-2.2,5.86,5.86,0,0,1,5,2.37h.19l-.11-1.15-.05-1.13v-6.53h2.43v22.79h-2Zm-4.87.41a4.43,4.43,0,0,0,3.62-1.36,6.88,6.88,0,0,0,1.12-4.37v-.51q0-3.42-1.14-4.87a4.3,4.3,0,0,0-3.63-1.46,3.72,3.72,0,0,0-3.27,1.66,8.25,8.25,0,0,0-1.13,4.7,7.94,7.94,0,0,0,1.12,4.64A3.85,3.85,0,0,0,1348.88,276.91Z"/>
    <path d="M1361,258.24a1.63,1.63,0,0,1,.41-1.22,1.41,1.41,0,0,1,1-.39,1.39,1.39,0,0,1,1,.4,1.55,1.55,0,0,1,.43,1.21,1.6,1.6,0,0,1-.43,1.23,1.49,1.49,0,0,1-2,0A1.67,1.67,0,0,1,1361,258.24Zm2.64,20.41h-2.44V262.59h2.44Z"/>
    <path d="M1374,276.94a8.3,8.3,0,0,0,1.24-.1,6.91,6.91,0,0,0,1-.2v1.86a4.52,4.52,0,0,1-1.16.32,9,9,0,0,1-1.38.12q-4.67,0-4.66-4.9v-9.56h-2.3v-1.17l2.3-1,1-3.43h1.41v3.72h4.66v1.89h-4.66v9.45a3.25,3.25,0,0,0,.69,2.23A2.39,2.39,0,0,0,1374,276.94Z"/>
    <path d="M1379.18,258.24a1.59,1.59,0,0,1,.41-1.22,1.5,1.5,0,0,1,2,0,1.55,1.55,0,0,1,.43,1.21,1.6,1.6,0,0,1-.43,1.23,1.4,1.4,0,0,1-1,.4,1.38,1.38,0,0,1-1-.4A1.63,1.63,0,0,1,1379.18,258.24Zm2.63,20.41h-2.43V262.59h2.43Z"/>
    <path d="M1400.83,270.61a8.86,8.86,0,0,1-2,6.13,7,7,0,0,1-5.46,2.2,7.21,7.21,0,0,1-3.83-1A6.62,6.62,0,0,1,1387,275a10,10,0,0,1-.91-4.42,8.84,8.84,0,0,1,2-6.12,7,7,0,0,1,5.45-2.19,6.79,6.79,0,0,1,5.35,2.24A8.81,8.81,0,0,1,1400.83,270.61Zm-12.23,0a7.64,7.64,0,0,0,1.23,4.69,4.87,4.87,0,0,0,7.24,0,7.54,7.54,0,0,0,1.24-4.69,7.43,7.43,0,0,0-1.24-4.65,4.33,4.33,0,0,0-3.65-1.59,4.29,4.29,0,0,0-3.61,1.56A7.58,7.58,0,0,0,1388.6,270.61Z"/>
    <path d="M1416.08,278.65V268.26a4.19,4.19,0,0,0-.9-2.93,3.63,3.63,0,0,0-2.79-1,4.64,4.64,0,0,0-3.7,1.36q-1.17,1.36-1.17,4.5v8.42h-2.43V262.59h2l.39,2.2h.12a5.06,5.06,0,0,1,2.09-1.84,6.92,6.92,0,0,1,3-.65,6.09,6.09,0,0,1,4.36,1.4,6,6,0,0,1,1.47,4.48v10.47Z"/>
    <path d="M1433.38,278.65l-.49-2.29h-.11a6.75,6.75,0,0,1-2.4,2.05,7.43,7.43,0,0,1-3,.53,5.35,5.35,0,0,1-3.74-1.23,4.47,4.47,0,0,1-1.36-3.5q0-4.86,7.78-5.1l2.73-.08v-1a4.08,4.08,0,0,0-.82-2.79,3.34,3.34,0,0,0-2.6-.9,10.59,10.59,0,0,0-4.54,1.23l-.75-1.86a11.42,11.42,0,0,1,2.6-1,11.07,11.07,0,0,1,2.84-.37,6.1,6.1,0,0,1,4.25,1.28,5.29,5.29,0,0,1,1.39,4.08v11Zm-5.5-1.71a5,5,0,0,0,3.57-1.25,4.62,4.62,0,0,0,1.3-3.49v-1.45l-2.43.11a8.69,8.69,0,0,0-4.19.9,2.72,2.72,0,0,0-1.28,2.48,2.52,2.52,0,0,0,.8,2A3.31,3.31,0,0,0,1427.88,276.94Z"/>
    <path d="M1442.62,278.65h-2.43V255.86h2.43Z"/>
    <path d="M1463,262.33a6,6,0,0,1,4.91,2.16,11.58,11.58,0,0,1,0,12.26,6,6,0,0,1-4.9,2.19,6.87,6.87,0,0,1-2.86-.58,5.27,5.27,0,0,1-2.18-1.78h-.17l-.52,2.07h-1.74V255.86H1458v5.53c0,1.24,0,2.36-.12,3.34h.12A5.77,5.77,0,0,1,1463,262.33Zm-.35,2a4.22,4.22,0,0,0-3.59,1.43c-.73.95-1.1,2.55-1.1,4.81s.38,3.87,1.13,4.84a4.3,4.3,0,0,0,3.62,1.46,3.77,3.77,0,0,0,3.34-1.64,8.41,8.41,0,0,0,1.09-4.69,8.13,8.13,0,0,0-1.09-4.68A3.92,3.92,0,0,0,1462.69,264.37Z"/>
    <path d="M1480.74,278.94a7.35,7.35,0,0,1-5.62-2.17,8.39,8.39,0,0,1-2.06-6,9.32,9.32,0,0,1,1.91-6.16,6.34,6.34,0,0,1,5.13-2.29,6,6,0,0,1,4.78,2,7.61,7.61,0,0,1,1.76,5.23v1.54h-11.06a6.31,6.31,0,0,0,1.43,4.29,4.91,4.91,0,0,0,3.81,1.47,12.82,12.82,0,0,0,5.13-1.09v2.17a12.82,12.82,0,0,1-2.44.8A13.79,13.79,0,0,1,1480.74,278.94Zm-.66-14.6a4,4,0,0,0-3.09,1.26,5.8,5.8,0,0,0-1.35,3.48H1484a5.32,5.32,0,0,0-1-3.52A3.61,3.61,0,0,0,1480.08,264.34Z"/>
    <path d="M1501.77,278.65V268.26a4.24,4.24,0,0,0-.89-2.93,3.67,3.67,0,0,0-2.8-1,4.6,4.6,0,0,0-3.69,1.36q-1.17,1.36-1.17,4.5v8.42h-2.44V262.59h2l.4,2.2h.11a5,5,0,0,1,2.1-1.84,6.87,6.87,0,0,1,3-.65,6.12,6.12,0,0,1,4.37,1.4,6,6,0,0,1,1.46,4.48v10.47Z"/>
    <path d="M1516,278.94a7.37,7.37,0,0,1-5.62-2.17,8.39,8.39,0,0,1-2.06-6,9.32,9.32,0,0,1,1.91-6.16,6.35,6.35,0,0,1,5.14-2.29,6,6,0,0,1,4.77,2,7.56,7.56,0,0,1,1.76,5.23v1.54h-11.06a6.36,6.36,0,0,0,1.43,4.29,4.94,4.94,0,0,0,3.82,1.47,12.78,12.78,0,0,0,5.12-1.09v2.17a12.82,12.82,0,0,1-2.44.8A13.72,13.72,0,0,1,1516,278.94Zm-.66-14.6a4,4,0,0,0-3.08,1.26,5.8,5.8,0,0,0-1.36,3.48h8.39a5.37,5.37,0,0,0-1-3.52A3.62,3.62,0,0,0,1515.32,264.34Z"/>
    <path d="M1533.26,264.48h-4.08v14.17h-2.43V264.48h-2.88v-1.09l2.88-.88v-.9q0-5.91,5.17-5.91a10.74,10.74,0,0,1,3,.51l-.64,2a7.77,7.77,0,0,0-2.4-.46,2.33,2.33,0,0,0-2,.92,5.11,5.11,0,0,0-.66,2.94v1h4.08Zm2.73-6.24a1.63,1.63,0,0,1,.41-1.22,1.41,1.41,0,0,1,1-.39,1.39,1.39,0,0,1,1,.4,1.55,1.55,0,0,1,.43,1.21,1.6,1.6,0,0,1-.43,1.23,1.49,1.49,0,0,1-2,0A1.67,1.67,0,0,1,1536,258.24Zm2.64,20.41h-2.44V262.59h2.44Z"/>
    <path d="M1549,276.94a8.3,8.3,0,0,0,1.24-.1,7.46,7.46,0,0,0,1-.2v1.86a4.74,4.74,0,0,1-1.17.32,9,9,0,0,1-1.38.12q-4.66,0-4.66-4.9v-9.56h-2.3v-1.17l2.3-1,1-3.43h1.41v3.72h4.66v1.89h-4.66v9.45a3.25,3.25,0,0,0,.69,2.23A2.39,2.39,0,0,0,1549,276.94Z"/>
    <path d="M1564.73,274.27a4,4,0,0,1-1.67,3.46,7.86,7.86,0,0,1-4.69,1.21,10.12,10.12,0,0,1-5-1v-2.25a12.42,12.42,0,0,0,2.48.92,10.67,10.67,0,0,0,2.56.34,5.84,5.84,0,0,0,2.93-.61,2.09,2.09,0,0,0,.21-3.46,12.77,12.77,0,0,0-3.17-1.57,18,18,0,0,1-3.19-1.46,4.39,4.39,0,0,1-1.4-1.42,3.9,3.9,0,0,1,1.13-5,7.44,7.44,0,0,1,4.38-1.14,12.7,12.7,0,0,1,5.07,1.06l-.86,2a11.68,11.68,0,0,0-4.38-1,5.08,5.08,0,0,0-2.61.54,1.67,1.67,0,0,0-.88,1.49,1.82,1.82,0,0,0,.33,1.1,3.33,3.33,0,0,0,1.06.87,23.48,23.48,0,0,0,2.82,1.18,10.54,10.54,0,0,1,3.86,2.1A3.73,3.73,0,0,1,1564.73,274.27Z"/>
    <path d="M1318.59,294.59v1.54l-3,.35a5.23,5.23,0,0,1,.73,1.34,5.06,5.06,0,0,1,.32,1.87,4.74,4.74,0,0,1-1.61,3.77,6.53,6.53,0,0,1-4.42,1.4,8.2,8.2,0,0,1-1.35-.11,2.37,2.37,0,0,0-1.55,2.06,1.06,1.06,0,0,0,.54,1,4,4,0,0,0,1.86.31H1313a6.4,6.4,0,0,1,4,1.1,3.82,3.82,0,0,1,1.4,3.19,4.59,4.59,0,0,1-2.14,4.07,11.49,11.49,0,0,1-6.24,1.4,8.47,8.47,0,0,1-4.86-1.18,4,4,0,0,1-.77-5.84,4.8,4.8,0,0,1,2.64-1.45,2.51,2.51,0,0,1-1-.86,2.29,2.29,0,0,1-.42-1.37,2.57,2.57,0,0,1,.47-1.53,4.82,4.82,0,0,1,1.48-1.28,4.31,4.31,0,0,1-2-1.74,5.75,5.75,0,0,1,.8-6.88,6.44,6.44,0,0,1,4.48-1.43,8.33,8.33,0,0,1,2.27.29Zm-12.8,18.75a2.19,2.19,0,0,0,1.1,2,6,6,0,0,0,3.15.68,8.77,8.77,0,0,0,4.53-.92,2.8,2.8,0,0,0,1.47-2.48,2,2,0,0,0-.8-1.81,6.24,6.24,0,0,0-3-.51h-2.91a3.9,3.9,0,0,0-2.58.79A2.85,2.85,0,0,0,1305.79,313.34Zm1.32-13.6a3.26,3.26,0,0,0,1,2.55,3.82,3.82,0,0,0,2.65.86q3.55,0,3.56-3.46,0-3.62-3.6-3.62a3.56,3.56,0,0,0-2.64.93A3.73,3.73,0,0,0,1307.11,299.74Z"/>
    <path d="M1331.76,310.65l-.48-2.29h-.12a6.75,6.75,0,0,1-2.4,2.05,7.36,7.36,0,0,1-3,.53,5.35,5.35,0,0,1-3.74-1.23,4.5,4.5,0,0,1-1.35-3.5q0-4.86,7.77-5.1l2.73-.08v-1a4.08,4.08,0,0,0-.81-2.79,3.36,3.36,0,0,0-2.6-.9,10.55,10.55,0,0,0-4.54,1.23l-.75-1.86a11.25,11.25,0,0,1,2.6-1,11,11,0,0,1,2.83-.37,6.13,6.13,0,0,1,4.26,1.28,5.32,5.32,0,0,1,1.38,4.08v11Zm-5.49-1.71a4.92,4.92,0,0,0,3.56-1.25,4.59,4.59,0,0,0,1.3-3.49v-1.45l-2.43.11a8.61,8.61,0,0,0-4.18.9,2.7,2.7,0,0,0-1.28,2.48,2.51,2.51,0,0,0,.79,2A3.33,3.33,0,0,0,1326.27,308.94Z"/>
    <path d="M1338.37,290.24a1.59,1.59,0,0,1,.41-1.22,1.5,1.5,0,0,1,2,0,1.55,1.55,0,0,1,.43,1.21,1.6,1.6,0,0,1-.43,1.23,1.4,1.4,0,0,1-1,.4,1.38,1.38,0,0,1-1-.4A1.63,1.63,0,0,1,1338.37,290.24Zm2.63,20.41h-2.43V294.59H1341Z"/>
    <path d="M1357.15,310.65V300.26a4.19,4.19,0,0,0-.9-2.93,3.65,3.65,0,0,0-2.8-1,4.6,4.6,0,0,0-3.69,1.36q-1.17,1.36-1.17,4.5v8.42h-2.43V294.59h2l.39,2.2h.12a5,5,0,0,1,2.1-1.84,6.81,6.81,0,0,1,3-.65,6.09,6.09,0,0,1,4.36,1.4,6,6,0,0,1,1.47,4.48v10.47Z"/>
    <path d="M1371.35,310.94a7.34,7.34,0,0,1-5.61-2.17,8.35,8.35,0,0,1-2.06-6,9.32,9.32,0,0,1,1.91-6.16,6.35,6.35,0,0,1,5.14-2.29,6,6,0,0,1,4.77,2,7.61,7.61,0,0,1,1.76,5.23v1.54H1366.2a6.31,6.31,0,0,0,1.43,4.29,4.91,4.91,0,0,0,3.81,1.47,12.82,12.82,0,0,0,5.13-1.09v2.17a12.82,12.82,0,0,1-2.44.8A13.83,13.83,0,0,1,1371.35,310.94Zm-.65-14.6a4,4,0,0,0-3.09,1.26,5.73,5.73,0,0,0-1.35,3.48h8.39a5.37,5.37,0,0,0-1-3.52A3.63,3.63,0,0,0,1370.7,296.34Z"/>
    <path d="M1392.33,308.5h-.13a5.7,5.7,0,0,1-5,2.44,6,6,0,0,1-4.9-2.15,9.47,9.47,0,0,1-1.75-6.12,9.64,9.64,0,0,1,1.76-6.17,5.9,5.9,0,0,1,4.89-2.2,5.84,5.84,0,0,1,5,2.37h.19l-.1-1.15-.06-1.13v-6.53h2.43v22.79h-2Zm-4.86.41a4.41,4.41,0,0,0,3.61-1.36,6.82,6.82,0,0,0,1.12-4.37v-.51q0-3.42-1.14-4.87a4.27,4.27,0,0,0-3.62-1.46,3.7,3.7,0,0,0-3.27,1.66,8.24,8.24,0,0,0-1.14,4.7,7.94,7.94,0,0,0,1.13,4.64A3.82,3.82,0,0,0,1387.47,308.91Z"/>
    <path d="M1417.45,310.65l-.48-2.29h-.12a6.81,6.81,0,0,1-2.39,2.05,7.43,7.43,0,0,1-3,.53,5.35,5.35,0,0,1-3.74-1.23,4.47,4.47,0,0,1-1.36-3.5q0-4.86,7.78-5.1l2.72-.08v-1a4.08,4.08,0,0,0-.81-2.79,3.34,3.34,0,0,0-2.6-.9,10.59,10.59,0,0,0-4.54,1.23l-.75-1.86a11.25,11.25,0,0,1,2.6-1,11,11,0,0,1,2.84-.37,6.1,6.1,0,0,1,4.25,1.28,5.32,5.32,0,0,1,1.38,4.08v11Zm-5.49-1.71a5,5,0,0,0,3.57-1.25,4.62,4.62,0,0,0,1.29-3.49v-1.45l-2.43.11a8.64,8.64,0,0,0-4.18.9,2.7,2.7,0,0,0-1.28,2.48,2.49,2.49,0,0,0,.8,2A3.29,3.29,0,0,0,1412,308.94Z"/>
    <path d="M1429.45,308.94a8.44,8.44,0,0,0,1.25-.1,7.25,7.25,0,0,0,1-.2v1.86a4.62,4.62,0,0,1-1.17.32,9,9,0,0,1-1.38.12q-4.66,0-4.66-4.9v-9.56h-2.3v-1.17l2.3-1,1-3.43h1.4v3.72h4.66v1.89h-4.66v9.45a3.25,3.25,0,0,0,.69,2.23A2.39,2.39,0,0,0,1429.45,308.94Z"/>
    <path d="M1447.83,308.94a8.44,8.44,0,0,0,1.25-.1,6.91,6.91,0,0,0,1-.2v1.86a4.52,4.52,0,0,1-1.16.32,9.21,9.21,0,0,1-1.39.12q-4.65,0-4.65-4.9v-9.56h-2.31v-1.17l2.31-1,1-3.43h1.41v3.72h4.66v1.89h-4.66v9.45a3.3,3.3,0,0,0,.68,2.23A2.39,2.39,0,0,0,1447.83,308.94Z"/>
    <path d="M1464.23,310.65V300.26a4.19,4.19,0,0,0-.9-2.93,3.65,3.65,0,0,0-2.8-1,4.61,4.61,0,0,0-3.7,1.37,7,7,0,0,0-1.16,4.52v8.39h-2.43V287.86h2.43v6.9a14.63,14.63,0,0,1-.12,2.06h.15a5,5,0,0,1,2-1.82,6.62,6.62,0,0,1,3-.67,6.19,6.19,0,0,1,4.41,1.4,5.85,5.85,0,0,1,1.48,4.45v10.47Z"/>
    <path d="M1478.43,310.94a7.34,7.34,0,0,1-5.61-2.17,8.35,8.35,0,0,1-2.06-6,9.32,9.32,0,0,1,1.91-6.16,6.35,6.35,0,0,1,5.14-2.29,6,6,0,0,1,4.77,2,7.61,7.61,0,0,1,1.76,5.23v1.54h-11.06a6.31,6.31,0,0,0,1.43,4.29,4.91,4.91,0,0,0,3.81,1.47,12.82,12.82,0,0,0,5.13-1.09v2.17a12.82,12.82,0,0,1-2.44.8A13.83,13.83,0,0,1,1478.43,310.94Zm-.65-14.6a4,4,0,0,0-3.09,1.26,5.73,5.73,0,0,0-1.35,3.48h8.39a5.37,5.37,0,0,0-1-3.52A3.63,3.63,0,0,0,1477.78,296.34Z"/>
    <path d="M1502.69,310.94a6.87,6.87,0,0,1-5.4-2.14,8.86,8.86,0,0,1-1.91-6.08,9.11,9.11,0,0,1,1.94-6.22,7,7,0,0,1,5.53-2.2,11.36,11.36,0,0,1,2.32.25,7.61,7.61,0,0,1,1.82.59l-.75,2.06a12.12,12.12,0,0,0-1.76-.53,8,8,0,0,0-1.68-.21q-4.9,0-4.9,6.24a7.41,7.41,0,0,0,1.2,4.54,4.15,4.15,0,0,0,3.53,1.58,10.78,10.78,0,0,0,4.12-.87v2.16A8.86,8.86,0,0,1,1502.69,310.94Z"/>
    <path d="M1513,310.65h-2.43V287.86H1513Z"/>
    <path d="M1532,302.61a8.91,8.91,0,0,1-2,6.13,7,7,0,0,1-5.47,2.2,7.17,7.17,0,0,1-3.82-1,6.7,6.7,0,0,1-2.58-2.9,10.17,10.17,0,0,1-.91-4.42,8.85,8.85,0,0,1,2-6.12,6.92,6.92,0,0,1,5.45-2.19,6.8,6.8,0,0,1,5.35,2.24A8.86,8.86,0,0,1,1532,302.61Zm-12.23,0a7.64,7.64,0,0,0,1.23,4.69,4.89,4.89,0,0,0,7.25,0,7.6,7.6,0,0,0,1.24-4.69,7.49,7.49,0,0,0-1.24-4.65,4.37,4.37,0,0,0-3.66-1.59,4.28,4.28,0,0,0-3.6,1.56A7.58,7.58,0,0,0,1519.77,302.61Z"/>
    <path d="M1538.55,294.59V305a4.16,4.16,0,0,0,.9,2.93,3.63,3.63,0,0,0,2.79,1,4.58,4.58,0,0,0,3.69-1.38,7,7,0,0,0,1.16-4.5v-8.44h2.43v16.06h-2l-.35-2.15H1547a4.81,4.81,0,0,1-2.07,1.81,6.94,6.94,0,0,1-3,.63,6.12,6.12,0,0,1-4.39-1.39,5.93,5.93,0,0,1-1.46-4.45V294.59Z"/>
    <path d="M1565.61,308.5h-.13a5.73,5.73,0,0,1-5,2.44,6,6,0,0,1-4.9-2.15,9.47,9.47,0,0,1-1.75-6.12,9.64,9.64,0,0,1,1.75-6.17,5.93,5.93,0,0,1,4.9-2.2,5.86,5.86,0,0,1,5,2.37h.19l-.11-1.15,0-1.13v-6.53h2.43v22.79h-2Zm-4.86.41a4.41,4.41,0,0,0,3.61-1.36,6.88,6.88,0,0,0,1.12-4.37v-.51q0-3.42-1.14-4.87a4.28,4.28,0,0,0-3.62-1.46,3.73,3.73,0,0,0-3.28,1.66,8.25,8.25,0,0,0-1.13,4.7,7.94,7.94,0,0,0,1.12,4.64A3.85,3.85,0,0,0,1560.75,308.91Z"/>
    <path d="M1305.25,322.24a1.59,1.59,0,0,1,.41-1.22,1.5,1.5,0,0,1,2,0,1.55,1.55,0,0,1,.43,1.21,1.6,1.6,0,0,1-.43,1.23,1.4,1.4,0,0,1-1,.4,1.38,1.38,0,0,1-1-.4A1.63,1.63,0,0,1,1305.25,322.24Zm2.63,20.41h-2.43V326.59h2.43Z"/>
    <path d="M1324,342.65V332.26a4.19,4.19,0,0,0-.9-2.93,3.65,3.65,0,0,0-2.8-1,4.62,4.62,0,0,0-3.69,1.36q-1.17,1.36-1.17,4.5v8.42H1313V326.59h2l.39,2.2h.12a5.06,5.06,0,0,1,2.09-1.84,6.88,6.88,0,0,1,3-.65,6.09,6.09,0,0,1,4.36,1.4,6,6,0,0,1,1.47,4.48v10.47Z"/>
    <path d="M1342.44,342.65V332.26a4.24,4.24,0,0,0-.89-2.93,3.67,3.67,0,0,0-2.8-1,4.6,4.6,0,0,0-3.69,1.36c-.79.91-1.18,2.41-1.18,4.5v8.42h-2.43V326.59h2l.4,2.2h.11A5,5,0,0,1,1336,327a6.87,6.87,0,0,1,3-.65,6.13,6.13,0,0,1,4.37,1.4,6,6,0,0,1,1.46,4.48v10.47Z"/>
    <path d="M1363.72,334.61a8.91,8.91,0,0,1-2,6.13,7,7,0,0,1-5.47,2.2,7.17,7.17,0,0,1-3.82-1,6.64,6.64,0,0,1-2.58-2.9,10,10,0,0,1-.91-4.42,8.89,8.89,0,0,1,2-6.12,7,7,0,0,1,5.45-2.19,6.81,6.81,0,0,1,5.36,2.24A8.86,8.86,0,0,1,1363.72,334.61Zm-12.23,0a7.64,7.64,0,0,0,1.23,4.69,4.89,4.89,0,0,0,7.25,0,7.6,7.6,0,0,0,1.23-4.69A7.49,7.49,0,0,0,1360,330a4.37,4.37,0,0,0-3.66-1.59,4.28,4.28,0,0,0-3.6,1.56A7.58,7.58,0,0,0,1351.49,334.61Z"/>
    <path d="M1371.5,342.65l-6.09-16.06h2.6l3.46,9.53c.78,2.22,1.24,3.67,1.38,4.33h.12a29.72,29.72,0,0,1,1-3.21q.87-2.44,3.85-10.65h2.61l-6.1,16.06Z"/>
    <path d="M1392.89,342.65l-.48-2.29h-.12a6.75,6.75,0,0,1-2.4,2.05,7.39,7.39,0,0,1-3,.53,5.35,5.35,0,0,1-3.74-1.23,4.47,4.47,0,0,1-1.36-3.5q0-4.86,7.78-5.1l2.73-.08v-1a4,4,0,0,0-.82-2.79,3.34,3.34,0,0,0-2.6-.9,10.62,10.62,0,0,0-4.54,1.23l-.74-1.86a11.07,11.07,0,0,1,2.6-1,10.94,10.94,0,0,1,2.83-.37,6.15,6.15,0,0,1,4.26,1.28,5.32,5.32,0,0,1,1.38,4.08v11Zm-5.49-1.71a4.92,4.92,0,0,0,3.56-1.25,4.59,4.59,0,0,0,1.3-3.49v-1.45l-2.43.11a8.69,8.69,0,0,0-4.19.9,2.72,2.72,0,0,0-1.28,2.48,2.52,2.52,0,0,0,.8,2A3.32,3.32,0,0,0,1387.4,340.94Z"/>
    <path d="M1404.89,340.94a8.3,8.3,0,0,0,1.24-.1,6.91,6.91,0,0,0,.95-.2v1.86a4.52,4.52,0,0,1-1.16.32,9.11,9.11,0,0,1-1.39.12q-4.65,0-4.65-4.9v-9.56h-2.3v-1.17l2.3-1,1-3.43h1.41v3.72H1407v1.89h-4.66v9.45a3.25,3.25,0,0,0,.69,2.23A2.37,2.37,0,0,0,1404.89,340.94Z"/>
    <path d="M1424.15,334.61a8.86,8.86,0,0,1-2,6.13,7,7,0,0,1-5.46,2.2,7.21,7.21,0,0,1-3.83-1,6.62,6.62,0,0,1-2.57-2.9,10,10,0,0,1-.91-4.42,8.84,8.84,0,0,1,2-6.12,7,7,0,0,1,5.45-2.19,6.79,6.79,0,0,1,5.35,2.24A8.81,8.81,0,0,1,1424.15,334.61Zm-12.23,0a7.64,7.64,0,0,0,1.23,4.69,4.87,4.87,0,0,0,7.24,0,7.54,7.54,0,0,0,1.24-4.69,7.43,7.43,0,0,0-1.24-4.65,4.33,4.33,0,0,0-3.65-1.59,4.29,4.29,0,0,0-3.61,1.56A7.58,7.58,0,0,0,1411.92,334.61Z"/>
    <path d="M1435.74,326.3a9.19,9.19,0,0,1,1.91.18l-.33,2.25a8.78,8.78,0,0,0-1.76-.22,4.26,4.26,0,0,0-3.33,1.59,5.72,5.72,0,0,0-1.39,3.94v8.61h-2.43V326.59h2l.28,3h.11a7.11,7.11,0,0,1,2.16-2.42A4.82,4.82,0,0,1,1435.74,326.3Z"/>
    <path d="M1450.88,342.65h-2.43V319.86h2.43Z"/>
    <path d="M1462.82,342.94a7.37,7.37,0,0,1-5.62-2.17,8.39,8.39,0,0,1-2.06-6,9.27,9.27,0,0,1,1.92-6.16,6.32,6.32,0,0,1,5.13-2.29,6.06,6.06,0,0,1,4.78,2,7.6,7.6,0,0,1,1.75,5.23v1.54h-11.06a6.36,6.36,0,0,0,1.43,4.29,5,5,0,0,0,3.82,1.47,12.78,12.78,0,0,0,5.12-1.09v2.17a13,13,0,0,1-2.43.8A13.9,13.9,0,0,1,1462.82,342.94Zm-.66-14.6a4,4,0,0,0-3.08,1.26,5.8,5.8,0,0,0-1.36,3.48h8.4a5.37,5.37,0,0,0-1-3.52A3.62,3.62,0,0,0,1462.16,328.34Z"/>
    <path d="M1476.38,342.65l-6.09-16.06h2.61l3.45,9.53a43.66,43.66,0,0,1,1.38,4.33h.12a33.43,33.43,0,0,1,1-3.21q.86-2.44,3.84-10.65h2.61l-6.09,16.06Z"/>
    <path d="M1494.68,342.94a7.37,7.37,0,0,1-5.62-2.17,8.39,8.39,0,0,1-2.06-6,9.27,9.27,0,0,1,1.92-6.16,6.32,6.32,0,0,1,5.13-2.29,6.06,6.06,0,0,1,4.78,2,7.6,7.6,0,0,1,1.75,5.23v1.54h-11.06a6.36,6.36,0,0,0,1.43,4.29,4.94,4.94,0,0,0,3.82,1.47,12.82,12.82,0,0,0,5.13-1.09v2.17a13.06,13.06,0,0,1-2.44.8A13.9,13.9,0,0,1,1494.68,342.94Zm-.66-14.6a4,4,0,0,0-3.08,1.26,5.8,5.8,0,0,0-1.36,3.48h8.4a5.37,5.37,0,0,0-1-3.52A3.62,3.62,0,0,0,1494,328.34Z"/>
    <path d="M1507.16,342.65h-2.43V319.86h2.43Z"/>
  </g>
  <g>
    <path d="M73.73,288.84a7.12,7.12,0,0,1,2.56,4.69H73.35a5.67,5.67,0,0,0-1.95-3.16,6.44,6.44,0,0,0-4.11-1.17,6.76,6.76,0,0,0-5.21,2.15q-2,2.14-2,6.57a9.23,9.23,0,0,0,1.79,5.89,6.44,6.44,0,0,0,5.35,2.26,5.76,5.76,0,0,0,5-2.38,8.52,8.52,0,0,0,1.35-3.29H76.5a9.09,9.09,0,0,1-2.57,5.47,9.48,9.48,0,0,1-7.07,2.65,9.7,9.7,0,0,1-6.43-2.17c-2.28-1.93-3.43-4.89-3.43-8.91A10.91,10.91,0,0,1,59.58,290a9.65,9.65,0,0,1,7.67-3.18A9.36,9.36,0,0,1,73.73,288.84Z"/>
    <path d="M80.1,287.33h2.73V308H80.1Z"/>
    <path d="M98.66,294.43a7.29,7.29,0,0,1,2.15,5.7,9.35,9.35,0,0,1-1.89,6Q97,308.51,93,308.51a6.87,6.87,0,0,1-5.28-2.1,8,8,0,0,1-2-5.64,8.58,8.58,0,0,1,2.06-6,7.12,7.12,0,0,1,5.53-2.25A7.58,7.58,0,0,1,98.66,294.43Zm-1.69,10a9,9,0,0,0,1-4.23,7.28,7.28,0,0,0-.71-3.43,4.11,4.11,0,0,0-3.93-2.07,3.94,3.94,0,0,0-3.59,1.77,7.75,7.75,0,0,0-1.12,4.26,6.77,6.77,0,0,0,1.12,4,4,4,0,0,0,3.56,1.6A3.76,3.76,0,0,0,97,304.43Z"/>
    <path d="M106.88,292.93v10a4.11,4.11,0,0,0,.38,1.88,2.7,2.7,0,0,0,2.64,1.35,3.75,3.75,0,0,0,3.78-2.36,9,9,0,0,0,.54-3.47v-7.39H117V308h-2.58l0-2.22a5.1,5.1,0,0,1-1.29,1.44,5.88,5.88,0,0,1-3.71,1.18c-2.27,0-3.82-.71-4.64-2.15a6.13,6.13,0,0,1-.67-3.07V292.93Z"/>
    <path d="M130.3,293.39a7.3,7.3,0,0,1,1.65,1.47v-7.6h2.61V308h-2.45v-2.1a5.68,5.68,0,0,1-2.24,2,6.75,6.75,0,0,1-3,.62,6.2,6.2,0,0,1-4.68-2.11,7.91,7.91,0,0,1-2-5.63,9.27,9.27,0,0,1,1.8-5.7,6.79,6.79,0,0,1,8.25-1.68Zm-6.08,11.28a3.94,3.94,0,0,0,3.52,1.64,3.8,3.8,0,0,0,3.1-1.52,6.75,6.75,0,0,0,1.21-4.33,6.11,6.11,0,0,0-1.25-4.22,4,4,0,0,0-3.09-1.38,4.19,4.19,0,0,0-3.32,1.47,6.35,6.35,0,0,0-1.27,4.3A7.06,7.06,0,0,0,124.22,304.67Z"/>
    <path d="M147.25,292.93h2.59v2.13a7.25,7.25,0,0,1,2.43-1.9,7,7,0,0,1,2.87-.57q3.45,0,4.66,2.23a7.51,7.51,0,0,1,.66,3.5V308h-2.77v-9.49a4.71,4.71,0,0,0-.44-2.22,2.69,2.69,0,0,0-2.63-1.41,5.75,5.75,0,0,0-1.59.19,4.14,4.14,0,0,0-2,1.23,3.63,3.63,0,0,0-.88,1.54,9.42,9.42,0,0,0-.21,2.27V308h-2.72Z"/>
    <path d="M173.18,298.87a1.5,1.5,0,0,0,1.25-.73,2,2,0,0,0,.19-1,2,2,0,0,0-1-1.89,5.65,5.65,0,0,0-2.84-.58,3.72,3.72,0,0,0-3,1.07,3.41,3.41,0,0,0-.65,1.77h-2.54a4.28,4.28,0,0,1,1.94-3.89,8.42,8.42,0,0,1,4.33-1.09,9.43,9.43,0,0,1,4.65,1,3.39,3.39,0,0,1,1.77,3.15v8.67a1,1,0,0,0,.17.63.87.87,0,0,0,.73.24,3,3,0,0,0,.41,0l.49-.06v1.87a9.46,9.46,0,0,1-1,.21,7.36,7.36,0,0,1-.91,0,2.28,2.28,0,0,1-2-.93,3.23,3.23,0,0,1-.47-1.39,7,7,0,0,1-2.39,1.76,8,8,0,0,1-3.44.74,5.36,5.36,0,0,1-3.69-1.27,4.07,4.07,0,0,1-1.43-3.18,4,4,0,0,1,1.41-3.24,7,7,0,0,1,3.69-1.42Zm-5.74,6.83a3.39,3.39,0,0,0,2,.63,6.65,6.65,0,0,0,2.79-.61,3.49,3.49,0,0,0,2.27-3.36v-2a5,5,0,0,1-1.28.49,11.14,11.14,0,0,1-1.54.28l-1.65.2a6.78,6.78,0,0,0-2.23.57,2.21,2.21,0,0,0-1.26,2.11A2,2,0,0,0,167.44,305.7Z"/>
    <path d="M182.28,288.72H185v4.21h2.59V295H185v9.82a1,1,0,0,0,.58,1.06,2.66,2.66,0,0,0,1.06.15h.42c.15,0,.33,0,.53,0v2a7.4,7.4,0,0,1-1,.18,9.36,9.36,0,0,1-1.1.06,3.07,3.07,0,0,1-2.58-.91,3.77,3.77,0,0,1-.68-2.35V295h-2.2v-2.06h2.2Z"/>
    <path d="M190.34,287.33h2.77v2.87h-2.77Zm0,5.67h2.77v15h-2.77Z"/>
    <path d="M198.57,292.93l4.33,12.25,4.51-12.25h3L204.29,308h-2.9l-6-15.05Z"/>
    <path d="M222.74,293.34a6,6,0,0,1,2.46,2,6.46,6.46,0,0,1,1.08,2.65,16.37,16.37,0,0,1,.24,3.32H214.73a6.09,6.09,0,0,0,1.16,3.68,4,4,0,0,0,3.34,1.39,4.47,4.47,0,0,0,3.38-1.31,4.36,4.36,0,0,0,1-1.76h2.68a4.94,4.94,0,0,1-.7,1.84,6.74,6.74,0,0,1-1.33,1.67,6.57,6.57,0,0,1-3,1.52,10,10,0,0,1-2.21.22,7,7,0,0,1-5.1-2,7.64,7.64,0,0,1-2.09-5.73,8.31,8.31,0,0,1,2.1-5.89,7.18,7.18,0,0,1,5.51-2.26A7.77,7.77,0,0,1,222.74,293.34Zm1,5.91a6.25,6.25,0,0,0-.77-2.63,4,4,0,0,0-3.7-1.82,4.27,4.27,0,0,0-3.13,1.25,4.6,4.6,0,0,0-1.33,3.2Z"/>
  </g>
  <g>
    <path d="M485,27.93h7.5a7,7,0,0,1,5.91,2.74A10.16,10.16,0,0,1,500.32,37a12.72,12.72,0,0,1-1.11,5.4,6.83,6.83,0,0,1-6.71,4.26H485Zm7,16.58a6.66,6.66,0,0,0,2.07-.27,4.58,4.58,0,0,0,2.37-1.92,7.94,7.94,0,0,0,1.06-2.91,10.8,10.8,0,0,0,.19-2A9.25,9.25,0,0,0,496.36,32,4.93,4.93,0,0,0,492,30.11h-4.4v14.4Z"/>
    <path d="M503.48,27.93h2.34v2.6h-2.34Zm0,5.14h2.34v13.6h-2.34Z"/>
    <path d="M516.89,33.56a6.16,6.16,0,0,1,1.32,1.3V33.14h2.12V45.56a9.15,9.15,0,0,1-.77,4.11c-.94,1.86-2.74,2.78-5.37,2.78a6.7,6.7,0,0,1-3.71-1,3.85,3.85,0,0,1-1.67-3.1h2.33a2.62,2.62,0,0,0,.66,1.42,3.37,3.37,0,0,0,2.44.76c1.75,0,2.89-.62,3.44-1.86a10.51,10.51,0,0,0,.44-3.92,4.53,4.53,0,0,1-1.65,1.56,5.52,5.52,0,0,1-2.56.51A5.46,5.46,0,0,1,510,45.26c-1.1-1-1.66-2.78-1.66-5.21a7.9,7.9,0,0,1,1.68-5.36,5.16,5.16,0,0,1,4-1.92A4.94,4.94,0,0,1,516.89,33.56Zm.28,2.46a3.32,3.32,0,0,0-2.65-1.22,3.28,3.28,0,0,0-3.31,2.27,9,9,0,0,0-.46,3.17,5.7,5.7,0,0,0,.93,3.52,3,3,0,0,0,2.51,1.2,3.51,3.51,0,0,0,3.46-2.23,7.25,7.25,0,0,0,.56-2.95A5.74,5.74,0,0,0,517.17,36Z"/>
    <path d="M523.82,27.93h2.34v2.6h-2.34Zm0,5.14h2.34v13.6h-2.34Z"/>
    <path d="M530.09,29.19h2.32V33h2.18v1.87h-2.18V43.8a1,1,0,0,0,.49,1,2.06,2.06,0,0,0,.89.14h.36a4.2,4.2,0,0,0,.44,0v1.82a4.26,4.26,0,0,1-.82.17,8.81,8.81,0,0,1-.92,0,2.5,2.5,0,0,1-2.19-.82,3.68,3.68,0,0,1-.57-2.14v-9h-1.85V33h1.85Z"/>
    <path d="M544.21,38.4a1.22,1.22,0,0,0,1.06-.66,2,2,0,0,0,.16-.88,1.86,1.86,0,0,0-.84-1.71,4.39,4.39,0,0,0-2.39-.53,3,3,0,0,0-2.54,1,3.16,3.16,0,0,0-.55,1.6H537a3.94,3.94,0,0,1,1.63-3.52,6.72,6.72,0,0,1,3.65-1,7.39,7.39,0,0,1,3.92.92,3.11,3.11,0,0,1,1.49,2.85v7.88a1,1,0,0,0,.15.57c.09.15.3.22.61.22l.35,0,.41-.06v1.7a7.72,7.72,0,0,1-.82.19,7.15,7.15,0,0,1-.77,0,1.89,1.89,0,0,1-1.72-.84,3.28,3.28,0,0,1-.39-1.27,5.87,5.87,0,0,1-2,1.6,6.25,6.25,0,0,1-2.9.67,4.29,4.29,0,0,1-3.1-1.15,3.81,3.81,0,0,1-1.21-2.89,3.73,3.73,0,0,1,1.19-2.94,5.62,5.62,0,0,1,3.11-1.29Zm-4.83,6.21a2.7,2.7,0,0,0,1.72.57,5.31,5.31,0,0,0,2.35-.56,3.15,3.15,0,0,0,1.91-3V39.73a3.9,3.9,0,0,1-1.08.45,9,9,0,0,1-1.3.25l-1.39.18a5.44,5.44,0,0,0-1.87.52A2,2,0,0,0,538.65,43,1.88,1.88,0,0,0,539.38,44.61Z"/>
    <path d="M551.49,27.93h2.29V46.67h-2.29Z"/>
    <path d="M564.49,27.93h2.33v2.6h-2.33Zm0,5.14h2.33v13.6h-2.33Z"/>
    <path d="M570.29,33h2.19V35a6,6,0,0,1,2-1.72,5.46,5.46,0,0,1,2.41-.53c1.94,0,3.25.68,3.93,2a7.13,7.13,0,0,1,.56,3.18v8.76H579.1V38.06a4.75,4.75,0,0,0-.37-2,2.24,2.24,0,0,0-2.22-1.28,4.54,4.54,0,0,0-1.34.16,3.51,3.51,0,0,0-1.66,1.13,3.43,3.43,0,0,0-.75,1.4,9.69,9.69,0,0,0-.17,2.06v7.15h-2.3Z"/>
    <path d="M584.83,33H587V35a6.05,6.05,0,0,1,2-1.72,5.51,5.51,0,0,1,2.42-.53c1.93,0,3.24.68,3.93,2a7.28,7.28,0,0,1,.56,3.18v8.76h-2.34V38.06a4.6,4.6,0,0,0-.37-2A2.24,2.24,0,0,0,591,34.77a4.59,4.59,0,0,0-1.34.16A3.51,3.51,0,0,0,588,36.06a3.29,3.29,0,0,0-.74,1.4,9,9,0,0,0-.18,2.06v7.15h-2.29Z"/>
    <path d="M609.26,34.37a6.9,6.9,0,0,1,1.81,5.18A8.91,8.91,0,0,1,609.48,45a5.77,5.77,0,0,1-5,2.16,5.57,5.57,0,0,1-4.44-1.91,7.53,7.53,0,0,1-1.65-5.11,8.23,8.23,0,0,1,1.73-5.49,5.83,5.83,0,0,1,4.67-2A6.13,6.13,0,0,1,609.26,34.37Zm-1.42,9.08a8.65,8.65,0,0,0,.84-3.84,7,7,0,0,0-.61-3.11,3.41,3.41,0,0,0-3.31-1.88,3.24,3.24,0,0,0-3,1.6,7.42,7.42,0,0,0-1,3.88,6.45,6.45,0,0,0,1,3.63,3.31,3.31,0,0,0,3,1.45A3.12,3.12,0,0,0,607.84,43.45Z"/>
    <path d="M615,33l3.65,11.13L622.47,33H625l-5.15,13.66H617.4l-5-13.66Z"/>
    <path d="M634.28,38.4a1.22,1.22,0,0,0,1.06-.66,2,2,0,0,0,.16-.88,1.86,1.86,0,0,0-.84-1.71,4.39,4.39,0,0,0-2.39-.53,3,3,0,0,0-2.54,1,3.16,3.16,0,0,0-.55,1.6H627a3.94,3.94,0,0,1,1.63-3.52,6.73,6.73,0,0,1,3.66-1,7.37,7.37,0,0,1,3.91.92,3.11,3.11,0,0,1,1.49,2.85v7.88a1,1,0,0,0,.15.57c.09.15.3.22.61.22l.35,0,.41-.06v1.7a7.72,7.72,0,0,1-.82.19,7.09,7.09,0,0,1-.76,0,1.9,1.9,0,0,1-1.73-.84,3.28,3.28,0,0,1-.39-1.27,5.87,5.87,0,0,1-2,1.6,6.25,6.25,0,0,1-2.9.67,4.29,4.29,0,0,1-3.1-1.15,3.81,3.81,0,0,1-1.21-2.89,3.73,3.73,0,0,1,1.19-2.94,5.62,5.62,0,0,1,3.11-1.29Zm-4.83,6.21a2.7,2.7,0,0,0,1.72.57,5.31,5.31,0,0,0,2.35-.56,3.15,3.15,0,0,0,1.91-3V39.73a3.9,3.9,0,0,1-1.08.45,8.75,8.75,0,0,1-1.3.25l-1.39.18a5.5,5.5,0,0,0-1.87.52A2,2,0,0,0,628.72,43,1.88,1.88,0,0,0,629.45,44.61Z"/>
    <path d="M642,29.19h2.32V33h2.19v1.87h-2.19V43.8a1,1,0,0,0,.49,1,2.13,2.13,0,0,0,.89.14H646a4.14,4.14,0,0,0,.45,0v1.82a4.52,4.52,0,0,1-.83.17,8.65,8.65,0,0,1-.92,0,2.48,2.48,0,0,1-2.18-.82,3.61,3.61,0,0,1-.58-2.14v-9H640.1V33H642Z"/>
    <path d="M648.75,27.93h2.34v2.6h-2.34Zm0,5.14h2.34v13.6h-2.34Z"/>
    <path d="M664.46,34.37a6.9,6.9,0,0,1,1.81,5.18A8.91,8.91,0,0,1,664.68,45a5.77,5.77,0,0,1-5,2.16,5.59,5.59,0,0,1-4.45-1.91,7.58,7.58,0,0,1-1.64-5.11,8.23,8.23,0,0,1,1.73-5.49,5.82,5.82,0,0,1,4.67-2A6.14,6.14,0,0,1,664.46,34.37ZM663,43.45a8.65,8.65,0,0,0,.84-3.84,7,7,0,0,0-.6-3.11A3.41,3.41,0,0,0,660,34.62a3.25,3.25,0,0,0-3,1.6A7.51,7.51,0,0,0,656,40.1a6.53,6.53,0,0,0,.94,3.63,3.33,3.33,0,0,0,3,1.45A3.11,3.11,0,0,0,663,43.45Z"/>
    <path d="M669.09,33h2.18V35a6.08,6.08,0,0,1,2.06-1.72,5.46,5.46,0,0,1,2.41-.53c1.94,0,3.25.68,3.93,2a7.28,7.28,0,0,1,.56,3.18v8.76H677.9V38.06a4.75,4.75,0,0,0-.37-2,2.24,2.24,0,0,0-2.22-1.28,4.54,4.54,0,0,0-1.34.16,3.47,3.47,0,0,0-1.66,1.13,3.32,3.32,0,0,0-.75,1.4,9.69,9.69,0,0,0-.17,2.06v7.15h-2.3Z"/>
    <path d="M486.08,57.8h19.18V61H489.57v8h14.5v3.06h-14.5v9h16v3.15H486.08Z"/>
    <path d="M508.05,65h4.19l4.43,6.78L521.15,65l3.94.09-6.49,9.3,6.78,9.88h-4.14L516.45,77l-4.64,7.24h-4.1l6.78-9.88Z"/>
    <path d="M528,65.06h3.17v2.55a8,8,0,0,1,2.13-2,6.85,6.85,0,0,1,3.86-1.08A7.26,7.26,0,0,1,542.77,67q2.29,2.51,2.3,7.17,0,6.3-3.31,9a7.49,7.49,0,0,1-4.88,1.71,6.62,6.62,0,0,1-3.67-1,8.47,8.47,0,0,1-1.93-1.85v9.84H528Zm12.19,15.1a9,9,0,0,0,1.51-5.67,10.65,10.65,0,0,0-.67-4,4.9,4.9,0,0,0-9.25.18,13.43,13.43,0,0,0-.66,4.57,9.74,9.74,0,0,0,.66,3.79,4.92,4.92,0,0,0,8.41,1.09Z"/>
    <path d="M560.71,65.5A7.28,7.28,0,0,1,563.63,68a8.79,8.79,0,0,1,1.29,3.4,22.58,22.58,0,0,1,.28,4.25h-14a8.33,8.33,0,0,0,1.38,4.72,4.59,4.59,0,0,0,4,1.77,5.12,5.12,0,0,0,4-1.68,5.78,5.78,0,0,0,1.19-2.26h3.18a6.68,6.68,0,0,1-.83,2.37,8.7,8.7,0,0,1-1.59,2.13,7.45,7.45,0,0,1-3.63,1.94,10.51,10.51,0,0,1-2.62.29,8,8,0,0,1-6.06-2.62c-1.66-1.74-2.49-4.19-2.49-7.33a11.17,11.17,0,0,1,2.5-7.54,8.26,8.26,0,0,1,6.55-2.9A8.57,8.57,0,0,1,560.71,65.5Zm1.16,7.56A8.36,8.36,0,0,0,561,69.7a4.65,4.65,0,0,0-4.4-2.34A4.89,4.89,0,0,0,552.84,69a6.05,6.05,0,0,0-1.58,4.09Z"/>
    <path d="M569.4,65h3.07V68.3a7.26,7.26,0,0,1,1.86-2.37,4.79,4.79,0,0,1,3.4-1.4l.3,0,.74.07V68c-.19,0-.37-.06-.53-.07l-.53,0A4.62,4.62,0,0,0,574,69.53a5.48,5.48,0,0,0-1.32,3.62V84.24H569.4Z"/>
    <path d="M581.58,57.8h3.29v3.67h-3.29Zm0,7.26h3.29V84.24h-3.29Z"/>
    <path d="M589.77,65H593V67.7a10.55,10.55,0,0,1,2.09-2.07,6.25,6.25,0,0,1,3.63-1.1,5.71,5.71,0,0,1,3.71,1.14,5.86,5.86,0,0,1,1.44,1.91,7,7,0,0,1,2.53-2.3,7.1,7.1,0,0,1,3.28-.75q3.89,0,5.29,2.81a9.23,9.23,0,0,1,.76,4.07V84.24h-3.37V70.85a3.1,3.1,0,0,0-1-2.64,3.82,3.82,0,0,0-2.35-.72,4.64,4.64,0,0,0-3.28,1.27c-.92.85-1.38,2.28-1.38,4.27V84.24h-3.29V71.66a6.55,6.55,0,0,0-.47-2.86,2.86,2.86,0,0,0-2.76-1.35,4.72,4.72,0,0,0-3.33,1.42c-1,.95-1.51,2.66-1.51,5.15V84.24h-3.23Z"/>
    <path d="M632.37,65.5A7.25,7.25,0,0,1,635.28,68a8.49,8.49,0,0,1,1.29,3.4,22.38,22.38,0,0,1,.29,4.25h-14a8.41,8.41,0,0,0,1.37,4.72,4.61,4.61,0,0,0,4,1.77,5.11,5.11,0,0,0,4-1.68,5.65,5.65,0,0,0,1.19-2.26h3.19a6.72,6.72,0,0,1-.84,2.37,8.43,8.43,0,0,1-1.58,2.13,7.45,7.45,0,0,1-3.63,1.94,10.51,10.51,0,0,1-2.62.29,8,8,0,0,1-6.07-2.62c-1.65-1.74-2.48-4.19-2.48-7.33a11.12,11.12,0,0,1,2.5-7.54,8.25,8.25,0,0,1,6.55-2.9A8.6,8.6,0,0,1,632.37,65.5Zm1.16,7.56a8.52,8.52,0,0,0-.91-3.36,4.66,4.66,0,0,0-4.41-2.34A4.88,4.88,0,0,0,624.5,69a6.11,6.11,0,0,0-1.59,4.09Z"/>
    <path d="M641,65H644V67.7a8.57,8.57,0,0,1,2.9-2.43,7.71,7.71,0,0,1,3.4-.74q4.1,0,5.54,2.87a10.1,10.1,0,0,1,.79,4.48V84.24h-3.29V72.09a6.7,6.7,0,0,0-.52-2.84,3.17,3.17,0,0,0-3.14-1.8,6.68,6.68,0,0,0-1.89.23,4.87,4.87,0,0,0-2.33,1.59,4.71,4.71,0,0,0-1.06,2,13.37,13.37,0,0,0-.24,2.9v10.1H641Z"/>
    <path d="M662.1,59.59h3.28V65h3.08v2.64h-3.08V80.19a1.37,1.37,0,0,0,.68,1.35,3,3,0,0,0,1.26.2h.51l.63-.06v2.57a7.44,7.44,0,0,1-1.16.23,10.8,10.8,0,0,1-1.31.07c-1.51,0-2.54-.38-3.08-1.16a5.13,5.13,0,0,1-.81-3V67.61h-2.6V65h2.6Z"/>
    <path d="M683.6,65.5A7.28,7.28,0,0,1,686.52,68a8.63,8.63,0,0,1,1.28,3.4,22.38,22.38,0,0,1,.29,4.25h-14a8.33,8.33,0,0,0,1.38,4.72,4.58,4.58,0,0,0,4,1.77,5.12,5.12,0,0,0,4-1.68,5.76,5.76,0,0,0,1.18-2.26h3.19a6.53,6.53,0,0,1-.84,2.37,8.43,8.43,0,0,1-1.58,2.13,7.45,7.45,0,0,1-3.63,1.94,10.51,10.51,0,0,1-2.62.29,8,8,0,0,1-6.07-2.62c-1.65-1.74-2.48-4.19-2.48-7.33a11.12,11.12,0,0,1,2.5-7.54,8.25,8.25,0,0,1,6.55-2.9A8.6,8.6,0,0,1,683.6,65.5Zm1.16,7.56a8.36,8.36,0,0,0-.91-3.36,4.66,4.66,0,0,0-4.41-2.34A4.88,4.88,0,0,0,675.73,69a6.11,6.11,0,0,0-1.59,4.09Z"/>
    <path d="M692.28,65h3.08V68.3a7.35,7.35,0,0,1,1.85-2.37,4.82,4.82,0,0,1,3.4-1.4l.31,0,.74.07V68c-.19,0-.37-.06-.53-.07l-.53,0a4.64,4.64,0,0,0-3.77,1.58,5.52,5.52,0,0,0-1.31,3.62V84.24h-3.24Z"/>
  </g>
  <g>
    <path d="M906.13,27.93h7.49a7,7,0,0,1,5.92,2.74A10.22,10.22,0,0,1,921.42,37a12.72,12.72,0,0,1-1.11,5.4,6.83,6.83,0,0,1-6.71,4.26h-7.47Zm7,16.58a6.73,6.73,0,0,0,2.08-.27,4.58,4.58,0,0,0,2.37-1.92,7.94,7.94,0,0,0,1.06-2.91,11.7,11.7,0,0,0,.18-2A9.32,9.32,0,0,0,917.46,32a4.94,4.94,0,0,0-4.36-1.93h-4.4v14.4Z"/>
    <path d="M924.58,27.93h2.34v2.6h-2.34Zm0,5.14h2.34v13.6h-2.34Z"/>
    <path d="M938,33.56a6,6,0,0,1,1.33,1.3V33.14h2.11V45.56a9.16,9.16,0,0,1-.76,4.11c-.95,1.86-2.74,2.78-5.38,2.78a6.64,6.64,0,0,1-3.7-1,3.88,3.88,0,0,1-1.68-3.1h2.34a2.62,2.62,0,0,0,.66,1.42,3.32,3.32,0,0,0,2.43.76c1.75,0,2.9-.62,3.44-1.86a10.68,10.68,0,0,0,.45-3.92,4.48,4.48,0,0,1-1.66,1.56,5.89,5.89,0,0,1-6.42-1.07c-1.11-1-1.66-2.78-1.66-5.21a8,8,0,0,1,1.67-5.36,5.18,5.18,0,0,1,4-1.92A4.91,4.91,0,0,1,938,33.56Zm.28,2.46a3.52,3.52,0,0,0-6,1,8.94,8.94,0,0,0-.47,3.17,5.7,5.7,0,0,0,.93,3.52,3,3,0,0,0,2.51,1.2,3.52,3.52,0,0,0,3.47-2.23,7.25,7.25,0,0,0,.56-2.95A5.68,5.68,0,0,0,938.26,36Z"/>
    <path d="M944.92,27.93h2.33v2.6h-2.33Zm0,5.14h2.33v13.6h-2.33Z"/>
    <path d="M951.18,29.19h2.33V33h2.18v1.87h-2.18V43.8a1,1,0,0,0,.48,1,2.13,2.13,0,0,0,.89.14h.36a4.14,4.14,0,0,0,.45,0v1.82a4.59,4.59,0,0,1-.82.17,9,9,0,0,1-.93,0,2.48,2.48,0,0,1-2.18-.82,3.68,3.68,0,0,1-.58-2.14v-9h-1.85V33h1.85Z"/>
    <path d="M965.31,38.4a1.22,1.22,0,0,0,1.06-.66,2,2,0,0,0,.15-.88,1.88,1.88,0,0,0-.83-1.71,4.41,4.41,0,0,0-2.39-.53,3,3,0,0,0-2.55,1,3.17,3.17,0,0,0-.54,1.6h-2.15a4,4,0,0,1,1.64-3.52,6.72,6.72,0,0,1,3.65-1,7.33,7.33,0,0,1,3.91.92,3.09,3.09,0,0,1,1.49,2.85v7.88a1,1,0,0,0,.15.57.7.7,0,0,0,.62.22l.35,0,.4-.06v1.7a7.66,7.66,0,0,1-.81.19,7.31,7.31,0,0,1-.77,0,1.89,1.89,0,0,1-1.72-.84,3.27,3.27,0,0,1-.4-1.27,5.83,5.83,0,0,1-2,1.6,6.25,6.25,0,0,1-2.9.67A4.32,4.32,0,0,1,958.55,46a3.84,3.84,0,0,1-1.2-2.89,3.69,3.69,0,0,1,1.19-2.94,5.59,5.59,0,0,1,3.11-1.29Zm-4.84,6.21a2.73,2.73,0,0,0,1.73.57,5.26,5.26,0,0,0,2.34-.56,3.15,3.15,0,0,0,1.92-3V39.73a3.9,3.9,0,0,1-1.08.45,9.27,9.27,0,0,1-1.3.25l-1.39.18a5.57,5.57,0,0,0-1.88.52A2,2,0,0,0,959.75,43,1.9,1.9,0,0,0,960.47,44.61Z"/>
    <path d="M972.58,27.93h2.3V46.67h-2.3Z"/>
    <path d="M985.58,27.93h2.34v2.6h-2.34Zm0,5.14h2.34v13.6h-2.34Z"/>
    <path d="M991.39,33h2.18V35a6,6,0,0,1,2.06-1.72A5.43,5.43,0,0,1,998,32.7c1.94,0,3.25.68,3.93,2a7.28,7.28,0,0,1,.56,3.18v8.76h-2.34V38.06a4.6,4.6,0,0,0-.37-2,2.22,2.22,0,0,0-2.22-1.28,4.59,4.59,0,0,0-1.34.16,3.44,3.44,0,0,0-1.65,1.13,3.21,3.21,0,0,0-.75,1.4,9.07,9.07,0,0,0-.17,2.06v7.15h-2.3Z"/>
    <path d="M1005.92,33h2.19V35a6,6,0,0,1,2-1.72,5.46,5.46,0,0,1,2.41-.53c1.94,0,3.25.68,3.93,2a7.28,7.28,0,0,1,.56,3.18v8.76h-2.33V38.06a4.75,4.75,0,0,0-.37-2,2.24,2.24,0,0,0-2.22-1.28,4.54,4.54,0,0,0-1.34.16,3.51,3.51,0,0,0-1.66,1.13,3.43,3.43,0,0,0-.75,1.4,9.69,9.69,0,0,0-.17,2.06v7.15h-2.3Z"/>
    <path d="M1030.36,34.37a6.9,6.9,0,0,1,1.81,5.18,8.85,8.85,0,0,1-1.6,5.45,5.74,5.74,0,0,1-5,2.16,5.59,5.59,0,0,1-4.45-1.91,7.52,7.52,0,0,1-1.64-5.11,8.17,8.17,0,0,1,1.73-5.49,5.81,5.81,0,0,1,4.66-2A6.15,6.15,0,0,1,1030.36,34.37Zm-1.43,9.08a8.65,8.65,0,0,0,.84-3.84,7,7,0,0,0-.6-3.11,3.42,3.42,0,0,0-3.31-1.88,3.25,3.25,0,0,0-3,1.6,7.51,7.51,0,0,0-.94,3.88,6.53,6.53,0,0,0,.94,3.63,3.31,3.31,0,0,0,3,1.45A3.12,3.12,0,0,0,1028.93,43.45Z"/>
    <path d="M1036.12,33l3.65,11.13,3.8-11.13h2.51l-5.14,13.66h-2.45l-5-13.66Z"/>
    <path d="M1055.38,38.4a1.22,1.22,0,0,0,1.06-.66,2,2,0,0,0,.15-.88,1.88,1.88,0,0,0-.83-1.71,4.41,4.41,0,0,0-2.39-.53,3,3,0,0,0-2.55,1,3.17,3.17,0,0,0-.54,1.6h-2.15a3.94,3.94,0,0,1,1.64-3.52,6.72,6.72,0,0,1,3.65-1,7.33,7.33,0,0,1,3.91.92,3.09,3.09,0,0,1,1.49,2.85v7.88a1,1,0,0,0,.15.57.7.7,0,0,0,.62.22l.34,0,.41-.06v1.7a7.66,7.66,0,0,1-.81.19,7.31,7.31,0,0,1-.77,0,1.89,1.89,0,0,1-1.72-.84,3.27,3.27,0,0,1-.4-1.27,5.93,5.93,0,0,1-2,1.6,6.25,6.25,0,0,1-2.9.67,4.32,4.32,0,0,1-3.11-1.15,3.84,3.84,0,0,1-1.2-2.89,3.72,3.72,0,0,1,1.18-2.94,5.65,5.65,0,0,1,3.12-1.29Zm-4.84,6.21a2.73,2.73,0,0,0,1.73.57,5.26,5.26,0,0,0,2.34-.56,3.15,3.15,0,0,0,1.92-3V39.73a3.9,3.9,0,0,1-1.08.45,9.27,9.27,0,0,1-1.3.25l-1.39.18a5.57,5.57,0,0,0-1.88.52,2,2,0,0,0-1.06,1.91A1.9,1.9,0,0,0,1050.54,44.61Z"/>
    <path d="M1063.05,29.19h2.32V33h2.18v1.87h-2.18V43.8a1,1,0,0,0,.49,1,2.06,2.06,0,0,0,.89.14h.36a4.2,4.2,0,0,0,.44,0v1.82a4.42,4.42,0,0,1-.82.17,8.85,8.85,0,0,1-.93,0,2.48,2.48,0,0,1-2.18-.82,3.68,3.68,0,0,1-.57-2.14v-9h-1.85V33h1.85Z"/>
    <path d="M1069.85,27.93h2.33v2.6h-2.33Zm0,5.14h2.33v13.6h-2.33Z"/>
    <path d="M1085.56,34.37a6.94,6.94,0,0,1,1.81,5.18,8.85,8.85,0,0,1-1.6,5.45,5.74,5.74,0,0,1-5,2.16,5.59,5.59,0,0,1-4.45-1.91,7.53,7.53,0,0,1-1.65-5.11,8.18,8.18,0,0,1,1.74-5.49,5.81,5.81,0,0,1,4.66-2A6.15,6.15,0,0,1,1085.56,34.37Zm-1.43,9.08a8.65,8.65,0,0,0,.84-3.84,6.83,6.83,0,0,0-.61-3.11,3.4,3.4,0,0,0-3.3-1.88,3.25,3.25,0,0,0-3,1.6,7.51,7.51,0,0,0-1,3.88,6.53,6.53,0,0,0,1,3.63,3.31,3.31,0,0,0,3,1.45A3.12,3.12,0,0,0,1084.13,43.45Z"/>
    <path d="M1090.19,33h2.18V35a6.05,6.05,0,0,1,2.05-1.72,5.51,5.51,0,0,1,2.42-.53c1.94,0,3.24.68,3.93,2a7.28,7.28,0,0,1,.56,3.18v8.76H1099V38.06a4.6,4.6,0,0,0-.37-2,2.24,2.24,0,0,0-2.22-1.28,4.59,4.59,0,0,0-1.34.16,3.51,3.51,0,0,0-1.66,1.13,3.29,3.29,0,0,0-.74,1.4,9.07,9.07,0,0,0-.17,2.06v7.15h-2.3Z"/>
    <path d="M928.61,61.58a14.6,14.6,0,0,1,2.62,9,15.76,15.76,0,0,1-3,9.85Q924.71,85,918.17,85a12,12,0,0,1-9.59-4,15.18,15.18,0,0,1-3.12-9.82A15.59,15.59,0,0,1,908.13,62q3.42-4.89,10.11-4.9Q925.24,57.08,928.61,61.58Zm-3.16,16.85a14.42,14.42,0,0,0,2.11-7.8,11.09,11.09,0,0,0-2.44-7.51,8.29,8.29,0,0,0-6.66-2.85,8.69,8.69,0,0,0-6.7,2.82c-1.72,1.88-2.59,4.65-2.59,8.31a12.15,12.15,0,0,0,2.22,7.41q2.24,3,7.21,3Q923.34,81.83,925.45,78.43Z"/>
    <path d="M934.8,65.06H938v2.55a8,8,0,0,1,2.13-2A6.87,6.87,0,0,1,944,64.5,7.29,7.29,0,0,1,949.53,67q2.29,2.51,2.29,7.17,0,6.3-3.31,9a7.46,7.46,0,0,1-4.87,1.71,6.62,6.62,0,0,1-3.67-1A8.27,8.27,0,0,1,938,82.08v9.84H934.8ZM947,80.16c1-1.26,1.51-3.16,1.51-5.67a10.45,10.45,0,0,0-.67-4,4.9,4.9,0,0,0-9.24.18,13.17,13.17,0,0,0-.67,4.57,9.55,9.55,0,0,0,.67,3.79,4.91,4.91,0,0,0,8.4,1.09Z"/>
    <path d="M956.21,59.59h3.28V65h3.07v2.64h-3.07V80.19a1.36,1.36,0,0,0,.68,1.35,2.92,2.92,0,0,0,1.26.2h.5l.63-.06v2.57a7.22,7.22,0,0,1-1.16.23,10.52,10.52,0,0,1-1.3.07c-1.51,0-2.54-.38-3.08-1.16a5.13,5.13,0,0,1-.81-3V67.61H953.6V65h2.61Z"/>
    <path d="M965.8,57.8h3.29v3.67H965.8Zm0,7.26h3.29V84.24H965.8Z"/>
    <path d="M974,65h3.2V67.7a10.82,10.82,0,0,1,2.09-2.07,6.3,6.3,0,0,1,3.64-1.1,5.68,5.68,0,0,1,3.7,1.14,5.86,5.86,0,0,1,1.44,1.91,6.72,6.72,0,0,1,5.81-3c2.59,0,4.36.94,5.29,2.81a9.09,9.09,0,0,1,.76,4.07V84.24h-3.36V70.85a3.11,3.11,0,0,0-1-2.64,3.8,3.8,0,0,0-2.35-.72A4.66,4.66,0,0,0,990,68.76c-.92.85-1.38,2.28-1.38,4.27V84.24h-3.29V71.66a6.55,6.55,0,0,0-.47-2.86,2.85,2.85,0,0,0-2.75-1.35,4.75,4.75,0,0,0-3.34,1.42c-1,.95-1.5,2.66-1.5,5.15V84.24H974Z"/>
    <path d="M1004.69,57.8H1008v3.67h-3.29Zm0,7.26H1008V84.24h-3.29Z"/>
    <path d="M1011.44,81.68l11.44-13.82h-10.6V65h15v2.64l-11.37,13.73h11.71v2.9h-16.14Z"/>
    <path d="M1043.21,65.5a7.25,7.25,0,0,1,2.91,2.49,8.49,8.49,0,0,1,1.29,3.4,22.38,22.38,0,0,1,.29,4.25h-14a8.41,8.41,0,0,0,1.37,4.72,4.61,4.61,0,0,0,4,1.77,5.11,5.11,0,0,0,4-1.68,5.65,5.65,0,0,0,1.19-2.26h3.19a6.93,6.93,0,0,1-.84,2.37,8.22,8.22,0,0,1-1.59,2.13,7.38,7.38,0,0,1-3.62,1.94,10.53,10.53,0,0,1-2.63.29,8,8,0,0,1-6.06-2.62c-1.65-1.74-2.48-4.19-2.48-7.33a11.12,11.12,0,0,1,2.5-7.54,8.25,8.25,0,0,1,6.55-2.9A8.6,8.6,0,0,1,1043.21,65.5Zm1.16,7.56a8.52,8.52,0,0,0-.91-3.36,4.66,4.66,0,0,0-4.41-2.34,4.88,4.88,0,0,0-3.71,1.61,6.11,6.11,0,0,0-1.59,4.09Z"/>
    <path d="M1051.89,65H1055V68.3a7.35,7.35,0,0,1,1.85-2.37,4.81,4.81,0,0,1,3.4-1.4l.31,0,.74.07V68c-.2,0-.37-.06-.54-.07l-.53,0a4.63,4.63,0,0,0-3.76,1.58,5.52,5.52,0,0,0-1.31,3.62V84.24h-3.24Z"/>
  </g>
  <g>
    <path d="M1397.23,27.93h7.49a7.06,7.06,0,0,1,5.92,2.74,10.22,10.22,0,0,1,1.87,6.34,12.72,12.72,0,0,1-1.11,5.4,6.82,6.82,0,0,1-6.71,4.26h-7.46Zm7,16.58a6.66,6.66,0,0,0,2.07-.27,4.58,4.58,0,0,0,2.37-1.92,7.94,7.94,0,0,0,1.06-2.91,10.8,10.8,0,0,0,.19-2,9.25,9.25,0,0,0-1.36-5.41,4.93,4.93,0,0,0-4.36-1.93h-4.4v14.4Z"/>
    <path d="M1415.68,27.93H1418v2.6h-2.33Zm0,5.14H1418v13.6h-2.33Z"/>
    <path d="M1429.08,33.56a6.16,6.16,0,0,1,1.32,1.3V33.14h2.12V45.56a9.15,9.15,0,0,1-.77,4.11c-.94,1.86-2.74,2.78-5.37,2.78a6.64,6.64,0,0,1-3.7-1,3.86,3.86,0,0,1-1.68-3.1h2.33a2.62,2.62,0,0,0,.66,1.42,3.37,3.37,0,0,0,2.44.76c1.75,0,2.9-.62,3.44-1.86a10.51,10.51,0,0,0,.44-3.92,4.53,4.53,0,0,1-1.65,1.56,5.52,5.52,0,0,1-2.56.51,5.46,5.46,0,0,1-3.87-1.58c-1.1-1-1.65-2.78-1.65-5.21a7.89,7.89,0,0,1,1.67-5.36,5.16,5.16,0,0,1,4-1.92A4.94,4.94,0,0,1,1429.08,33.56Zm.28,2.46a3.31,3.31,0,0,0-2.65-1.22,3.26,3.26,0,0,0-3.3,2.27,8.72,8.72,0,0,0-.47,3.17,5.7,5.7,0,0,0,.93,3.52,3,3,0,0,0,2.51,1.2,3.51,3.51,0,0,0,3.46-2.23,7.25,7.25,0,0,0,.56-2.95A5.74,5.74,0,0,0,1429.36,36Z"/>
    <path d="M1436,27.93h2.34v2.6H1436Zm0,5.14h2.34v13.6H1436Z"/>
    <path d="M1442.28,29.19h2.32V33h2.18v1.87h-2.18V43.8a1,1,0,0,0,.49,1,2.06,2.06,0,0,0,.89.14h.36a4.2,4.2,0,0,0,.44,0v1.82a4.26,4.26,0,0,1-.82.17,8.65,8.65,0,0,1-.92,0,2.5,2.5,0,0,1-2.19-.82,3.68,3.68,0,0,1-.57-2.14v-9h-1.85V33h1.85Z"/>
    <path d="M1456.41,38.4a1.2,1.2,0,0,0,1-.66,1.89,1.89,0,0,0,.16-.88,1.86,1.86,0,0,0-.84-1.71,4.37,4.37,0,0,0-2.38-.53,3,3,0,0,0-2.55,1,3.26,3.26,0,0,0-.55,1.6h-2.14a4,4,0,0,1,1.63-3.52,6.73,6.73,0,0,1,3.66-1,7.35,7.35,0,0,1,3.91.92,3.11,3.11,0,0,1,1.49,2.85v7.88a1,1,0,0,0,.15.57c.09.15.3.22.62.22l.34,0,.41-.06v1.7a7.72,7.72,0,0,1-.82.19,7.09,7.09,0,0,1-.76,0,1.91,1.91,0,0,1-1.73-.84,3.28,3.28,0,0,1-.39-1.27,5.87,5.87,0,0,1-2,1.6,6.21,6.21,0,0,1-2.89.67,4.3,4.3,0,0,1-3.11-1.15,3.81,3.81,0,0,1-1.21-2.89,3.73,3.73,0,0,1,1.19-2.94,5.62,5.62,0,0,1,3.11-1.29Zm-4.84,6.21a2.7,2.7,0,0,0,1.72.57,5.31,5.31,0,0,0,2.35-.56,3.14,3.14,0,0,0,1.91-3V39.73a3.9,3.9,0,0,1-1.08.45,8.75,8.75,0,0,1-1.3.25l-1.39.18a5.5,5.5,0,0,0-1.87.52,2,2,0,0,0-1.07,1.91A1.88,1.88,0,0,0,1451.57,44.61Z"/>
    <path d="M1463.68,27.93H1466V46.67h-2.29Z"/>
    <path d="M1476.68,27.93H1479v2.6h-2.33Zm0,5.14H1479v13.6h-2.33Z"/>
    <path d="M1482.49,33h2.18V35a6,6,0,0,1,2-1.72,5.46,5.46,0,0,1,2.41-.53c1.94,0,3.25.68,3.93,2a7.13,7.13,0,0,1,.56,3.18v8.76h-2.33V38.06a4.6,4.6,0,0,0-.37-2,2.24,2.24,0,0,0-2.22-1.28,4.54,4.54,0,0,0-1.34.16,3.51,3.51,0,0,0-1.66,1.13,3.43,3.43,0,0,0-.75,1.4,9.69,9.69,0,0,0-.17,2.06v7.15h-2.29Z"/>
    <path d="M1497,33h2.18V35a6.05,6.05,0,0,1,2-1.72,5.51,5.51,0,0,1,2.42-.53c1.94,0,3.25.68,3.93,2a7.28,7.28,0,0,1,.56,3.18v8.76h-2.34V38.06a4.6,4.6,0,0,0-.37-2,2.24,2.24,0,0,0-2.22-1.28,4.59,4.59,0,0,0-1.34.16,3.51,3.51,0,0,0-1.66,1.13,3.29,3.29,0,0,0-.74,1.4,9.07,9.07,0,0,0-.17,2.06v7.15H1497Z"/>
    <path d="M1521.45,34.37a6.9,6.9,0,0,1,1.81,5.18,8.91,8.91,0,0,1-1.59,5.45,5.77,5.77,0,0,1-5,2.16,5.58,5.58,0,0,1-4.44-1.91,7.53,7.53,0,0,1-1.65-5.11,8.18,8.18,0,0,1,1.74-5.49,5.8,5.8,0,0,1,4.66-2A6.11,6.11,0,0,1,1521.45,34.37ZM1520,43.45a8.65,8.65,0,0,0,.84-3.84,7,7,0,0,0-.61-3.11,3.4,3.4,0,0,0-3.3-1.88,3.25,3.25,0,0,0-3,1.6,7.51,7.51,0,0,0-1,3.88,6.53,6.53,0,0,0,1,3.63,3.31,3.31,0,0,0,3,1.45A3.12,3.12,0,0,0,1520,43.45Z"/>
    <path d="M1527.21,33l3.65,11.13L1534.67,33h2.51L1532,46.67h-2.44l-5-13.66Z"/>
    <path d="M1546.47,38.4a1.22,1.22,0,0,0,1.06-.66,2,2,0,0,0,.16-.88,1.86,1.86,0,0,0-.84-1.71,4.39,4.39,0,0,0-2.39-.53,3,3,0,0,0-2.54,1,3.26,3.26,0,0,0-.55,1.6h-2.14a4,4,0,0,1,1.63-3.52,6.73,6.73,0,0,1,3.66-1,7.35,7.35,0,0,1,3.91.92,3.11,3.11,0,0,1,1.49,2.85v7.88a1,1,0,0,0,.15.57c.09.15.3.22.61.22l.35,0,.41-.06v1.7a7.72,7.72,0,0,1-.82.19,7.09,7.09,0,0,1-.76,0,1.9,1.9,0,0,1-1.73-.84,3.28,3.28,0,0,1-.39-1.27,5.87,5.87,0,0,1-2,1.6,6.24,6.24,0,0,1-2.89.67,4.3,4.3,0,0,1-3.11-1.15,3.81,3.81,0,0,1-1.21-2.89,3.73,3.73,0,0,1,1.19-2.94,5.62,5.62,0,0,1,3.11-1.29Zm-4.83,6.21a2.7,2.7,0,0,0,1.72.57,5.31,5.31,0,0,0,2.35-.56,3.15,3.15,0,0,0,1.91-3V39.73a3.9,3.9,0,0,1-1.08.45,8.75,8.75,0,0,1-1.3.25l-1.39.18a5.5,5.5,0,0,0-1.87.52,2,2,0,0,0-1.07,1.91A1.88,1.88,0,0,0,1541.64,44.61Z"/>
    <path d="M1554.14,29.19h2.32V33h2.19v1.87h-2.19V43.8a1,1,0,0,0,.49,1,2.13,2.13,0,0,0,.89.14h.36a4.14,4.14,0,0,0,.45,0v1.82a4.52,4.52,0,0,1-.83.17,8.65,8.65,0,0,1-.92,0,2.48,2.48,0,0,1-2.18-.82,3.61,3.61,0,0,1-.58-2.14v-9h-1.85V33h1.85Z"/>
    <path d="M1560.94,27.93h2.34v2.6h-2.34Zm0,5.14h2.34v13.6h-2.34Z"/>
    <path d="M1576.65,34.37a6.9,6.9,0,0,1,1.81,5.18,8.91,8.91,0,0,1-1.59,5.45,5.77,5.77,0,0,1-5,2.16,5.6,5.6,0,0,1-4.45-1.91,7.58,7.58,0,0,1-1.64-5.11,8.23,8.23,0,0,1,1.73-5.49,5.83,5.83,0,0,1,4.67-2A6.14,6.14,0,0,1,1576.65,34.37Zm-1.43,9.08a8.65,8.65,0,0,0,.84-3.84,7,7,0,0,0-.6-3.11,3.41,3.41,0,0,0-3.31-1.88,3.26,3.26,0,0,0-3,1.6,7.51,7.51,0,0,0-.94,3.88,6.53,6.53,0,0,0,.94,3.63,3.34,3.34,0,0,0,3,1.45A3.1,3.1,0,0,0,1575.22,43.45Z"/>
    <path d="M1581.28,33h2.18V35a6.08,6.08,0,0,1,2.06-1.72,5.46,5.46,0,0,1,2.41-.53c1.94,0,3.25.68,3.93,2a7.28,7.28,0,0,1,.56,3.18v8.76h-2.33V38.06a4.75,4.75,0,0,0-.37-2,2.24,2.24,0,0,0-2.22-1.28,4.54,4.54,0,0,0-1.34.16,3.47,3.47,0,0,0-1.66,1.13,3.43,3.43,0,0,0-.75,1.4,9.69,9.69,0,0,0-.17,2.06v7.15h-2.3Z"/>
    <path d="M1398.74,57.8h3.61V84.24h-3.61Z"/>
    <path d="M1407.73,65h3.08V67.7a8.57,8.57,0,0,1,2.9-2.43,7.74,7.74,0,0,1,3.4-.74c2.74,0,4.58,1,5.54,2.87a10.1,10.1,0,0,1,.79,4.48V84.24h-3.29V72.09a6.55,6.55,0,0,0-.52-2.84,3.17,3.17,0,0,0-3.13-1.8,6.58,6.58,0,0,0-1.89.23,4.85,4.85,0,0,0-2.34,1.59,4.69,4.69,0,0,0-1,2,12.66,12.66,0,0,0-.25,2.9v10.1h-3.24Z"/>
    <path d="M1428.23,65h3.08V67.7a8.57,8.57,0,0,1,2.9-2.43,7.71,7.71,0,0,1,3.4-.74q4.1,0,5.54,2.87a10.1,10.1,0,0,1,.79,4.48V84.24h-3.29V72.09a6.54,6.54,0,0,0-.53-2.84,3.15,3.15,0,0,0-3.13-1.8,6.68,6.68,0,0,0-1.89.23,4.87,4.87,0,0,0-2.33,1.59,4.71,4.71,0,0,0-1.06,2,13.37,13.37,0,0,0-.24,2.9v10.1h-3.24Z"/>
    <path d="M1462.69,66.89c1.7,1.65,2.56,4.09,2.56,7.3a12.51,12.51,0,0,1-2.26,7.69c-1.5,2-3.82,3-7,3a7.83,7.83,0,0,1-6.27-2.69,10.63,10.63,0,0,1-2.33-7.21,11.57,11.57,0,0,1,2.45-7.74,8.22,8.22,0,0,1,6.58-2.87A8.65,8.65,0,0,1,1462.69,66.89Zm-2,12.81a12.24,12.24,0,0,0,1.18-5.42,9.75,9.75,0,0,0-.85-4.39,4.8,4.8,0,0,0-4.66-2.66,4.59,4.59,0,0,0-4.27,2.27,10.57,10.57,0,0,0-1.34,5.46,9.18,9.18,0,0,0,1.34,5.12,4.67,4.67,0,0,0,4.23,2A4.42,4.42,0,0,0,1460.68,79.7Z"/>
    <path d="M1470.82,65,1476,80.66,1481.32,65h3.55l-7.26,19.27h-3.45L1467.05,65Z"/>
    <path d="M1498,72.58a1.76,1.76,0,0,0,1.49-.94,2.77,2.77,0,0,0,.22-1.25,2.64,2.64,0,0,0-1.18-2.41,6.26,6.26,0,0,0-3.37-.75,4.27,4.27,0,0,0-3.59,1.38,4.57,4.57,0,0,0-.77,2.26h-3q.09-3.57,2.31-5a9.38,9.38,0,0,1,5.15-1.4,10.48,10.48,0,0,1,5.51,1.29,4.4,4.4,0,0,1,2.11,4V80.93a1.52,1.52,0,0,0,.2.81,1,1,0,0,0,.88.3l.48,0,.58-.08v2.39a11.24,11.24,0,0,1-1.15.27,10,10,0,0,1-1.08.05,2.65,2.65,0,0,1-2.43-1.18,4.55,4.55,0,0,1-.56-1.79,8.14,8.14,0,0,1-2.84,2.25,8.77,8.77,0,0,1-4.09,1,6.08,6.08,0,0,1-4.38-1.63,5.4,5.4,0,0,1-1.7-4.07,5.24,5.24,0,0,1,1.67-4.15,8,8,0,0,1,4.39-1.82Zm-6.82,8.75a3.84,3.84,0,0,0,2.43.8,7.36,7.36,0,0,0,3.31-.79,4.44,4.44,0,0,0,2.7-4.29V74.44a5.46,5.46,0,0,1-1.53.64,15.55,15.55,0,0,1-1.83.36l-2,.25a7.54,7.54,0,0,0-2.64.73,2.87,2.87,0,0,0-1.51,2.7A2.66,2.66,0,0,0,1491.16,81.33Z"/>
    <path d="M1508.79,59.59h3.28V65h3.08v2.64h-3.08V80.19a1.37,1.37,0,0,0,.68,1.35,2.92,2.92,0,0,0,1.26.2h.51l.63-.06v2.57a7.44,7.44,0,0,1-1.16.23,10.8,10.8,0,0,1-1.31.07c-1.51,0-2.54-.38-3.08-1.16a5.13,5.13,0,0,1-.81-3V67.61h-2.61V65h2.61Z"/>
    <path d="M1532.35,66.89c1.7,1.65,2.55,4.09,2.55,7.3a12.57,12.57,0,0,1-2.25,7.69q-2.25,3-7,3a7.85,7.85,0,0,1-6.28-2.69,10.68,10.68,0,0,1-2.32-7.21,11.57,11.57,0,0,1,2.45-7.74,8.2,8.2,0,0,1,6.57-2.87A8.65,8.65,0,0,1,1532.35,66.89Zm-2,12.81a12.24,12.24,0,0,0,1.18-5.42,9.75,9.75,0,0,0-.85-4.39,4.8,4.8,0,0,0-4.66-2.66,4.58,4.58,0,0,0-4.27,2.27A10.57,10.57,0,0,0,1520.4,75a9.18,9.18,0,0,0,1.34,5.12,4.66,4.66,0,0,0,4.23,2A4.42,4.42,0,0,0,1530.34,79.7Z"/>
    <path d="M1539,65h3.08V68.3a7.35,7.35,0,0,1,1.85-2.37,4.82,4.82,0,0,1,3.4-1.4l.31,0,.74.07V68c-.2,0-.37-.06-.53-.07l-.53,0a4.64,4.64,0,0,0-3.77,1.58,5.52,5.52,0,0,0-1.31,3.62V84.24H1539Z"/>
  </g>
  <circle cx="757.37" cy="186.04" r="5.5" style="fill: #4d4d4d"/>
  <circle cx="757.37" cy="330.04" r="5.5" style="fill: #4d4d4d"/>
  <circle cx="757.37" cy="385.04" r="5.5" style="fill: #4d4d4d"/>
  <circle cx="757.37" cy="275.04" r="5.5" style="fill: #4d4d4d"/>
  <g>
    <path d="M430.52,77.89H393.28A2.88,2.88,0,0,1,390.4,75V34.78a2.89,2.89,0,0,1,2.88-2.88h36.61l-.8,1.34H393.28a1.55,1.55,0,0,0-1.55,1.54V75a1.56,1.56,0,0,0,1.55,1.55h37.24Z" style="fill: #5f0000"/>
    <path d="M405.77,77.89H443A2.88,2.88,0,0,0,445.89,75V34.78A2.89,2.89,0,0,0,443,31.9H414.4l.8,1.34H443a1.55,1.55,0,0,1,1.55,1.54V75A1.56,1.56,0,0,1,443,76.56H405.77Z" style="fill: #5f0000"/>
    <path d="M414.43,57.5a.8.8,0,0,0-1.13,0,.79.79,0,0,0,0,1.13l4.89,5.18L413.27,69a.79.79,0,0,0,0,1.13.77.77,0,0,0,.55.22.83.83,0,0,0,.58-.25l5.41-5.73a.8.8,0,0,0,0-1.1Z" style="fill: #e00"/>
    <path d="M411.48,57.38a.8.8,0,0,0-1,.46l-4.34,11.31a.8.8,0,0,0,.46,1,.69.69,0,0,0,.28,0,.79.79,0,0,0,.75-.51l4.34-11.32a.79.79,0,0,0-.46-1Z" style="fill: #e00"/>
    <path d="M404.75,57.47a.8.8,0,0,0-1.13,0l-5.41,5.73a.8.8,0,0,0,0,1.1l5.41,5.73a.79.79,0,0,0,.58.25.77.77,0,0,0,.55-.22.79.79,0,0,0,0-1.13l-4.89-5.18,4.89-5.18a.79.79,0,0,0,0-1.13Z" style="fill: #e00"/>
    <path d="M409.85,43.47l.8-1.34,34.74-.06v1.34Z" style="fill: #5f0000"/>
    <path d="M406.31,43.49h-9.46c-1.77,0-3.2,0-4.19,0-1.86,0-1.86,0-2.07-.3l1.05-.82h0a.67.67,0,0,0-.42-.26c.34,0,4,.08,19.33.07h4.78l1.6,1.33H406.31Z" style="fill: #5f0000"/>
    <rect x="395.07" y="36.99" width="1.36" height="1.33" style="fill: #9b9b9b"/>
    <rect x="400.52" y="36.99" width="1.36" height="1.33" style="fill: #9b9b9b"/>
    <rect x="405.96" y="36.99" width="1.36" height="1.33" style="fill: #9b9b9b"/>
  </g>
  <g>
    <path d="M869.65,49.73h-1.34V32.94a1.56,1.56,0,0,0-1.55-1.55h-6l-.8-1.33h6.77a2.88,2.88,0,0,1,2.88,2.88Z" style="fill: #5f0000"/>
    <path d="M849.62,76.05H812.38a2.89,2.89,0,0,1-2.88-2.88V32.94a2.88,2.88,0,0,1,2.88-2.88H865l-.8,1.33H812.38a1.56,1.56,0,0,0-1.54,1.55V73.17a1.56,1.56,0,0,0,1.54,1.55h37.24Z" style="fill: #5f0000"/>
    <path d="M833.53,55.66a.8.8,0,1,0-1.16,1.1l4.89,5.18-4.89,5.19a.79.79,0,0,0,0,1.13.82.82,0,0,0,.55.22.83.83,0,0,0,.58-.25l5.41-5.73a.8.8,0,0,0,0-1.1Z" style="fill: #e00"/>
    <path d="M830.59,55.54a.8.8,0,0,0-1,.46l-4.34,11.31a.81.81,0,0,0,.46,1,.93.93,0,0,0,.29.05.79.79,0,0,0,.74-.52l4.35-11.31a.8.8,0,0,0-.46-1Z" style="fill: #e00"/>
    <path d="M823.86,55.63a.81.81,0,0,0-1.14,0l-5.41,5.73a.8.8,0,0,0,0,1.1l5.41,5.73a.79.79,0,0,0,.59.25.8.8,0,0,0,.58-1.35L819,61.94l4.9-5.18a.8.8,0,0,0,0-1.13Z" style="fill: #e00"/>
    <path d="M829,41.62l.8-1.33,38.75-.06v1.33Z" style="fill: #5f0000"/>
    <path d="M825.41,41.64H816l-4.19,0c-1.86,0-1.86,0-2.07-.3l1-.82h0a.65.65,0,0,0-.42-.26c.34,0,4,.08,19.33.07h4.78l1.6,1.33H825.41Z" style="fill: #5f0000"/>
    <rect x="814.17" y="35.14" width="1.36" height="1.33" style="fill: #9b9b9b"/>
    <rect x="819.62" y="35.14" width="1.36" height="1.33" style="fill: #9b9b9b"/>
    <rect x="825.06" y="35.14" width="1.36" height="1.33" style="fill: #9b9b9b"/>
    <path d="M860.28,58.74h0a4.51,4.51,0,1,0,4.51,4.52,4.52,4.52,0,0,0-4.51-4.52Zm0,10h0a5.51,5.51,0,1,1,5.52-5.51,5.53,5.53,0,0,1-5.52,5.51Zm-4.95,2.57a1,1,0,0,1,.46.11l2.67,1.27h0a1.12,1.12,0,0,1,.62.92l.1,2.09h0a.1.1,0,0,0,.09.08H862a.08.08,0,0,0,.08-.08l.23-2.41a1.09,1.09,0,0,1,.68-.91l2.48-1h0a1.09,1.09,0,0,1,1.15.22l1.67,1.56a.09.09,0,0,0,.12,0l1.85-1.85a.11.11,0,0,0,0-.06.14.14,0,0,0,0-.06l-1.78-1.67h0a1.09,1.09,0,0,1-.25-1.24l1.41-3.21h0a1.1,1.1,0,0,1,1-.65h2.5a.07.07,0,0,0,.08-.08V61.93a.08.08,0,0,0-.08-.09h-2.65a1.07,1.07,0,0,1-1-.65l-1.11-2.59h0a1.09,1.09,0,0,1,.23-1.21l2.14-2.14h0s0,0,0-.06a.09.09,0,0,0,0-.06l-1.86-1.86h0a.09.09,0,0,0-.12,0l-2.11,2h0a1.08,1.08,0,0,1-1.27.17l-2.48-1.36h0a1.11,1.11,0,0,1-.57-1V50.58a.09.09,0,0,0-.08-.08h-3.55a.09.09,0,0,0-.09.08v2.94a1.09,1.09,0,0,1-.72,1l-2.66,1a1.08,1.08,0,0,1-1.25-.37l-1.22-1.63a.09.09,0,0,0-.06,0,.06.06,0,0,0-.07,0l-1.92,1.93h0a.11.11,0,0,0,0,.06.09.09,0,0,0,0,.06l1.61,1.5a1.1,1.1,0,0,1,.24,1.26l-1.4,2.91a1.09,1.09,0,0,1-1,.61h-2a.09.09,0,0,0-.09.09v2.58a.09.09,0,0,0,0,.06l.06,0,2.09-.1a1.09,1.09,0,0,1,1.09.76l.89,2.76a1.11,1.11,0,0,1-.13.94l-1.18,1.76h0a.09.09,0,0,0,0,.1L852.75,73a.09.09,0,0,0,.12,0l1.78-1.45h0a1.14,1.14,0,0,1,.69-.23ZM862,76.82h-2.69a1.09,1.09,0,0,1-1.09-1l-.11-2.09a.08.08,0,0,0-.05-.07l-2.66-1.27h0a.1.1,0,0,0-.09,0l-1.78,1.45a1.09,1.09,0,0,1-1.52-.14l-1.87-2.21a1.1,1.1,0,0,1-.07-1.31l1.17-1.77h0a.06.06,0,0,0,0-.07l-.88-2.77s0-.07-.08-.06l-2.09.1h0a1.07,1.07,0,0,1-.8-.29,1.1,1.1,0,0,1-.34-.79V61.93a1.09,1.09,0,0,1,1.09-1.09h2a.08.08,0,0,0,.07-.05l1.39-2.9a.08.08,0,0,0,0-.1L850,56.29a1.08,1.08,0,0,1-.34-.77,1.06,1.06,0,0,1,.33-.8l1.92-1.92a1.1,1.1,0,0,1,1.65.11l1.22,1.63a.07.07,0,0,0,.1,0l2.67-1h0a.08.08,0,0,0,.05-.08V50.58a1.09,1.09,0,0,1,1.09-1.09h3.55a1.09,1.09,0,0,1,1.09,1.09v2.54s0,.05,0,.07l2.47,1.36a.09.09,0,0,0,.1,0l2.11-2a1.07,1.07,0,0,1,1.52,0l1.86,1.85a1.14,1.14,0,0,1,.32.78,1.12,1.12,0,0,1-.32.77l-2.13,2.14a.08.08,0,0,0,0,.09l1.11,2.59a.08.08,0,0,0,.07.05h2.65a1.09,1.09,0,0,1,1.1,1.09v2.45a1.1,1.1,0,0,1-1.1,1.09h-2.5a.08.08,0,0,0-.08,0l-1.41,3.21h0a.1.1,0,0,0,0,.09l1.78,1.67a1.09,1.09,0,0,1,0,1.56l-1.85,1.85a1.08,1.08,0,0,1-1.51,0l-1.68-1.57a.09.09,0,0,0-.09,0l-2.47,1h0a.08.08,0,0,0-.05.07l-.23,2.41a1.09,1.09,0,0,1-1.09,1Z" style="fill: #9b9b9b"/>
  </g>
  <g>
    <path d="M1360.62,54.8h-1.34V38a1.56,1.56,0,0,0-1.54-1.55H1355l-.8-1.33h3.57a2.88,2.88,0,0,1,2.88,2.88Z" style="fill: #5f0000"/>
    <path d="M1340.59,81.12h-37.24a2.9,2.9,0,0,1-2.88-2.88V38a2.89,2.89,0,0,1,2.88-2.88h17.42l-.8,1.33h-16.62a1.56,1.56,0,0,0-1.54,1.55V78.24a1.56,1.56,0,0,0,1.54,1.55h37.24Z" style="fill: #5f0000"/>
    <polygon points="1355.12 46.7 1355.92 45.36 1359.47 45.3 1359.47 46.64 1355.12 46.7" style="fill: #5f0000"/>
    <path d="M1316.39,46.71h-9.47l-4.18,0c-1.87,0-1.87,0-2.08-.3l1-.82h0a.65.65,0,0,0-.42-.26c.35,0,4,.08,19.33.07h1.59l1.6,1.33h-7.42Z" style="fill: #5f0000"/>
    <rect x="1305.15" y="40.21" width="1.36" height="1.33" style="fill: #9b9b9b"/>
    <rect x="1310.59" y="40.21" width="1.36" height="1.33" style="fill: #9b9b9b"/>
    <rect x="1316.04" y="40.21" width="1.36" height="1.33" style="fill: #9b9b9b"/>
    <path d="M1351.26,63.81h0a4.5,4.5,0,1,0,4.51,4.51,4.49,4.49,0,0,0-4.51-4.51Zm0,10h0a5.52,5.52,0,1,1,5.51-5.52,5.51,5.51,0,0,1-5.51,5.52Zm-5,2.57a1.12,1.12,0,0,1,.47.11l2.66,1.27h0a1.1,1.1,0,0,1,.62.92l.11,2.09h0a.09.09,0,0,0,.08.08h2.69a.09.09,0,0,0,.09-.08l.23-2.41a1.07,1.07,0,0,1,.68-.91l2.47-1h0a1.11,1.11,0,0,1,1.15.22l1.68,1.56a.07.07,0,0,0,.11,0l1.85-1.85a.06.06,0,0,0,0-.06s0,0,0-.06l-1.78-1.66h0a1.12,1.12,0,0,1-.25-1.24l1.41-3.21h0a1.11,1.11,0,0,1,1-.65h2.49a.08.08,0,0,0,.09-.08V67a.09.09,0,0,0-.09-.09h-2.64a1.07,1.07,0,0,1-1-.65l-1.11-2.59h0a1.09,1.09,0,0,1,.23-1.21l2.14-2.14h0a.07.07,0,0,0,0-.12l-1.85-1.86h0a.08.08,0,0,0-.11,0l-2.11,2h0a1.09,1.09,0,0,1-1.27.16l-2.47-1.36h0a1.09,1.09,0,0,1-.57-1V55.65a.08.08,0,0,0-.08-.08h-3.55a.09.09,0,0,0-.08.08v2.94a1.12,1.12,0,0,1-.72,1l-2.67,1a1.06,1.06,0,0,1-1.24-.37l-1.23-1.63a.06.06,0,0,0-.06,0,0,0,0,0,0-.06,0l-1.93,1.93h0a.07.07,0,0,0,0,.06.09.09,0,0,0,0,.06l1.61,1.5a1.08,1.08,0,0,1,.24,1.26l-1.4,2.91a1.09,1.09,0,0,1-1,.61h-2a.08.08,0,0,0-.08.09v2.58a.14.14,0,0,0,0,.06.08.08,0,0,0,.07,0l2.08-.1a1.09,1.09,0,0,1,1.09.76l.89,2.76a1,1,0,0,1-.13.94l-1.17,1.76h0a.07.07,0,0,0,0,.1l1.86,2.22a.09.09,0,0,0,.12,0l1.79-1.45h0a1,1,0,0,1,.68-.24Zm6.64,5.48h-2.69a1.09,1.09,0,0,1-1.09-1l-.11-2.09a.08.08,0,0,0,0-.07l-2.66-1.27h0a.08.08,0,0,0-.08,0l-1.79,1.45a1.09,1.09,0,0,1-1.52-.14l-1.87-2.21a1.1,1.1,0,0,1-.07-1.31l1.17-1.76h0a.17.17,0,0,0,0-.07l-.89-2.77a.08.08,0,0,0-.08-.06l-2.08.1h0a1.09,1.09,0,0,1-1.15-1.09V67a1.09,1.09,0,0,1,1.09-1.09h2a.1.1,0,0,0,.08,0l1.38-2.9a.09.09,0,0,0,0-.1L1341,61.37a1.12,1.12,0,0,1-.34-.78,1.14,1.14,0,0,1,.33-.8l1.93-1.92a1.07,1.07,0,0,1,.85-.32,1.09,1.09,0,0,1,.79.43l1.22,1.64a.08.08,0,0,0,.1,0l2.67-1h0a.09.09,0,0,0,.06-.08V55.65a1.09,1.09,0,0,1,1.09-1.09h3.54a1.09,1.09,0,0,1,1.09,1.09v2.54a.08.08,0,0,0,0,.07l2.47,1.36a.09.09,0,0,0,.1,0l2.11-2a1.08,1.08,0,0,1,1.52,0l1.86,1.86a1.1,1.1,0,0,1,.32.77,1.12,1.12,0,0,1-.32.77l-2.13,2.14a.1.1,0,0,0,0,.09l1.11,2.59a.09.09,0,0,0,.08,0h2.65a1.09,1.09,0,0,1,1.09,1.09v2.45a1.09,1.09,0,0,1-1.09,1.09h-2.51a.08.08,0,0,0-.07,0l-1.41,3.21h0a.08.08,0,0,0,0,.09l1.77,1.67a1.09,1.09,0,0,1,.35.78,1.12,1.12,0,0,1-.32.79L1360.07,79a1.09,1.09,0,0,1-1.52,0l-1.67-1.57a.1.1,0,0,0-.09,0l-2.48,1h0a.13.13,0,0,0,0,.07l-.23,2.41a1.09,1.09,0,0,1-1.09,1Z" style="fill: #9b9b9b"/>
    <path d="M1353.24,41.21a4.55,4.55,0,0,1-4.54,4.54h-3.78a7.55,7.55,0,0,0-3.64-10.91,7.55,7.55,0,0,0-10.3,6.07,7.3,7.3,0,0,0-.06.94,7.47,7.47,0,0,0,1.1,3.9h-2.36a6,6,0,0,1-6-6v-.2a6,6,0,0,1,5.54-6,.37.37,0,0,0,.33-.3,9.56,9.56,0,0,1,9.45-7.59h.08a9.69,9.69,0,0,1,9.68,9.68V36a.36.36,0,0,0,.34.37,4.48,4.48,0,0,1,4.11,4.53ZM1344,45.85h0a6.77,6.77,0,0,1-10.94,0l0,0a6.75,6.75,0,0,1-1.32-4,6,6,0,0,1,.06-.85,6.8,6.8,0,0,1,13.55.85,6.71,6.71,0,0,1-1.32,4Zm5.58-10.16v-.28A10.43,10.43,0,0,0,1339.1,25H1339a10.29,10.29,0,0,0-10.11,7.91,6.76,6.76,0,0,0-6,6.68v.21a6.72,6.72,0,0,0,6.71,6.7h2.87a7.52,7.52,0,0,0,11.88,0h4.29a5.28,5.28,0,0,0,5.28-5.27v-.29a5.23,5.23,0,0,0-4.45-5.24ZM1341,38.92a.36.36,0,0,0-.52,0,.37.37,0,0,0,0,.52l2.28,2.42-2.28,2.41a.38.38,0,0,0,0,.53.35.35,0,0,0,.25.1.36.36,0,0,0,.27-.12l2.52-2.67a.36.36,0,0,0,0-.51Zm-1.37-.06a.38.38,0,0,0-.48.22l-2,5.27a.37.37,0,0,0,.21.48.34.34,0,0,0,.14,0,.35.35,0,0,0,.34-.24l2-5.27a.38.38,0,0,0-.22-.48Zm-3.13,0a.37.37,0,0,0-.53,0l-2.52,2.67a.38.38,0,0,0,0,.51l2.52,2.67a.36.36,0,0,0,.27.12.38.38,0,0,0,.26-.11.36.36,0,0,0,0-.52l-2.28-2.42,2.28-2.41a.37.37,0,0,0,0-.52Z"/>
    <g>
      <path d="M1324.15,61.82h-2.59a.4.4,0,0,1-.4-.4v-3.8a4.3,4.3,0,0,0-8.59,0v3.8a.4.4,0,0,1-.4.4h-2.59a.4.4,0,0,1-.4-.4v-3.8a7.69,7.69,0,0,1,15.37,0v3.8A.4.4,0,0,1,1324.15,61.82ZM1322,61h1.79v-3.4a6.89,6.89,0,0,0-13.77,0V61h1.79v-3.4a5.1,5.1,0,0,1,10.19,0Z" style="fill: #e00"/>
      <path d="M1325.23,77.5h-16.72a2,2,0,0,1-2-2V63a2,2,0,0,1,2-1.95h16.72a1.93,1.93,0,0,1,2,1.9V75.55A2,2,0,0,1,1325.23,77.5Zm-16.72-15.68a1.13,1.13,0,0,0-1.15,1.15V75.55a1.13,1.13,0,0,0,1.15,1.15h16.72a1.14,1.14,0,0,0,1.15-1.15V62.92a1.13,1.13,0,0,0-1.15-1.1Z" style="fill: #e00"/>
      <path d="M1318.46,72.85h-3.27a.4.4,0,0,1-.31-.15.39.39,0,0,1-.08-.34l.55-2.55a2.37,2.37,0,1,1,3.9-1.8,2.27,2.27,0,0,1-.94,1.82l.54,2.53a.39.39,0,0,1-.08.34A.4.4,0,0,1,1318.46,72.85Zm-2.78-.8H1318l-.5-2.32a.4.4,0,0,1,.19-.43,1.48,1.48,0,0,0,.79-1.29,1.59,1.59,0,0,0-3.17,0,1.6,1.6,0,0,0,.73,1.3.39.39,0,0,1,.17.42Z" style="fill: #e00"/>
    </g>
  </g>
</svg>
