<svg xmlns="http://www.w3.org/2000/svg" viewBox="0 0 249 221">
  <title>role</title>
  <g>
    <path d="M16.44,188.14h-.55v-3.81H14.56v-.47h3.21v.47H16.44Z"/>
    <path d="M20.93,186.53a1.81,1.81,0,0,1-.39,1.23,1.45,1.45,0,0,1-1.11.44,1.5,1.5,0,0,1-.77-.2,1.36,1.36,0,0,1-.52-.59,2,2,0,0,1-.18-.88,1.8,1.8,0,0,1,.39-1.23,1.42,1.42,0,0,1,1.11-.43,1.37,1.37,0,0,1,1.07.44A1.76,1.76,0,0,1,20.93,186.53Zm-2.42,0a1.51,1.51,0,0,0,.23.92.84.84,0,0,0,.71.31.82.82,0,0,0,.7-.31,1.51,1.51,0,0,0,.24-.92,1.49,1.49,0,0,0-.24-.92.86.86,0,0,0-.71-.3C18.82,185.31,18.51,185.71,18.51,186.53Z"/>
    <path d="M24.83,184.87a2.17,2.17,0,0,1,.38,0l-.07.49a1.39,1.39,0,0,0-.35,0,.79.79,0,0,0-.47.14.87.87,0,0,0-.34.39,1.19,1.19,0,0,0-.12.54v1.72h-.53v-3.22h.43l.06.59h0a1.47,1.47,0,0,1,.44-.48A1,1,0,0,1,24.83,184.87Z"/>
    <path d="M27.12,188.2a1.48,1.48,0,0,1-1.14-.44,1.69,1.69,0,0,1-.41-1.2,1.86,1.86,0,0,1,.38-1.23,1.4,1.4,0,0,1,2-.07,1.5,1.5,0,0,1,.36,1.06v.32H26.11a1.27,1.27,0,0,0,.28.83,1,1,0,0,0,.75.28,2.63,2.63,0,0,0,.49,0,2.82,2.82,0,0,0,.54-.18V188a2.21,2.21,0,0,1-.5.16A3,3,0,0,1,27.12,188.2ZM27,185.3a.75.75,0,0,0-.59.24,1.14,1.14,0,0,0-.27.68h1.64a1,1,0,0,0-.21-.69A.72.72,0,0,0,27,185.3Z"/>
    <path d="M30.5,188.2a1.51,1.51,0,0,1-1.14-.44,1.69,1.69,0,0,1-.41-1.2,1.81,1.81,0,0,1,.39-1.23,1.39,1.39,0,0,1,2-.07,1.5,1.5,0,0,1,.36,1.06v.32H29.5a1.22,1.22,0,0,0,.28.83.94.94,0,0,0,.74.28,2.49,2.49,0,0,0,.49,0,2.43,2.43,0,0,0,.54-.18V188a2.07,2.07,0,0,1-.5.16A2.87,2.87,0,0,1,30.5,188.2Zm-.13-2.9a.78.78,0,0,0-.6.24,1.14,1.14,0,0,0-.26.68h1.64a1.13,1.13,0,0,0-.21-.69A.75.75,0,0,0,30.37,185.3Z"/>
    <path d="M34.71,188.14v-2.06a.82.82,0,0,0-.18-.58.68.68,0,0,0-.54-.19.89.89,0,0,0-.72.27,1.42,1.42,0,0,0-.23.89v1.67h-.52v-3.22h.42l.08.44h0a1,1,0,0,1,.42-.36,1.31,1.31,0,0,1,.59-.13,1.19,1.19,0,0,1,.88.28,1.23,1.23,0,0,1,.29.9v2.09Z"/>
    <path d="M38.37,188.11l0-.39h0a1.13,1.13,0,0,1-1,.48,1.14,1.14,0,0,1-1-.44,1.83,1.83,0,0,1-.36-1.22,1.92,1.92,0,0,1,.36-1.23,1.29,1.29,0,0,1,2,0h0l.07-.43h.42v3.27a1.36,1.36,0,0,1-.35,1,1.43,1.43,0,0,1-1.08.35,3,3,0,0,1-1.16-.2v-.49a2.46,2.46,0,0,0,1.18.25.87.87,0,0,0,.65-.24.89.89,0,0,0,.24-.66Zm-.92-.34a.91.91,0,0,0,.71-.26,1.36,1.36,0,0,0,.22-.84v-.13a1.56,1.56,0,0,0-.23-.94.83.83,0,0,0-.71-.29.73.73,0,0,0-.63.32,2,2,0,0,0,0,1.83A.71.71,0,0,0,37.45,187.77Z"/>
    <path d="M39.88,184.05a.32.32,0,0,1,.08-.25.36.36,0,0,1,.23-.08.32.32,0,0,1,.21.08.32.32,0,0,1,.09.25.34.34,0,0,1-.09.26.32.32,0,0,1-.21.08.36.36,0,0,1-.23-.08A.34.34,0,0,1,39.88,184.05Zm.56,4.09h-.52v-3.22h.52Z"/>
    <path d="M43.65,188.14v-2.06a.82.82,0,0,0-.17-.58.71.71,0,0,0-.55-.19.89.89,0,0,0-.72.27,1.42,1.42,0,0,0-.22.89v1.67h-.53v-3.22h.43l.08.44h0a1,1,0,0,1,.41-.36,1.32,1.32,0,0,1,.6-.13,1.21,1.21,0,0,1,.88.28,1.23,1.23,0,0,1,.29.9v2.09Z"/>
    <path d="M46.54,188.2a1.51,1.51,0,0,1-1.14-.44,1.69,1.69,0,0,1-.41-1.2,1.81,1.81,0,0,1,.39-1.23,1.39,1.39,0,0,1,2-.07,1.5,1.5,0,0,1,.36,1.06v.32h-2.2a1.22,1.22,0,0,0,.28.83.94.94,0,0,0,.74.28,2.56,2.56,0,0,0,.49,0,2.43,2.43,0,0,0,.54-.18V188a2.07,2.07,0,0,1-.5.16A2.87,2.87,0,0,1,46.54,188.2Zm-.13-2.9a.78.78,0,0,0-.6.24,1.14,1.14,0,0,0-.26.68h1.64a1.13,1.13,0,0,0-.21-.69A.75.75,0,0,0,46.41,185.3Z"/>
    <path d="M49.92,188.2a1.48,1.48,0,0,1-1.13-.44,1.65,1.65,0,0,1-.41-1.2,1.81,1.81,0,0,1,.38-1.23,1.28,1.28,0,0,1,1-.46,1.24,1.24,0,0,1,1,.39,1.5,1.5,0,0,1,.36,1.06v.32h-2.2a1.22,1.22,0,0,0,.28.83,1,1,0,0,0,.75.28,2.63,2.63,0,0,0,.49,0,2.82,2.82,0,0,0,.54-.18V188a2.39,2.39,0,0,1-.5.16A3,3,0,0,1,49.92,188.2Zm-.13-2.9a.78.78,0,0,0-.6.24,1.2,1.2,0,0,0-.26.68h1.64a1,1,0,0,0-.21-.69A.72.72,0,0,0,49.79,185.3Z"/>
    <path d="M53.44,184.87a2.17,2.17,0,0,1,.38,0l-.07.49a1.39,1.39,0,0,0-.35,0,.81.81,0,0,0-.47.14.93.93,0,0,0-.34.39,1.19,1.19,0,0,0-.12.54v1.72h-.53v-3.22h.43l.06.59h0a1.35,1.35,0,0,1,.43-.48A1,1,0,0,1,53.44,184.87Z"/>
    <path d="M9.71,194.45a.82.82,0,0,1-.33.7,1.58,1.58,0,0,1-1,.25,2.18,2.18,0,0,1-1-.2v-.48a2.34,2.34,0,0,0,1,.26,1.06,1.06,0,0,0,.58-.13.41.41,0,0,0,.18-.35.4.4,0,0,0-.17-.32,2.54,2.54,0,0,0-.62-.3,4,4,0,0,1-.64-.3,1,1,0,0,1-.27-.28.8.8,0,0,1,.23-1,1.54,1.54,0,0,1,.89-.22,2.48,2.48,0,0,1,1,.21l-.17.42a2.45,2.45,0,0,0-.89-.2.94.94,0,0,0-.49.1.32.32,0,0,0-.17.29.35.35,0,0,0,.14.29,3.29,3.29,0,0,0,.69.32,3,3,0,0,1,.59.28.77.77,0,0,1,.28.29A.74.74,0,0,1,9.71,194.45Z"/>
    <path d="M13.29,193.73a1.82,1.82,0,0,1-.4,1.23,1.44,1.44,0,0,1-1.1.44,1.56,1.56,0,0,1-.78-.2,1.43,1.43,0,0,1-.52-.59,2,2,0,0,1-.18-.88,1.75,1.75,0,0,1,.4-1.23,1.39,1.39,0,0,1,1.1-.43,1.41,1.41,0,0,1,1.08.44A1.81,1.81,0,0,1,13.29,193.73Zm-2.43,0a1.51,1.51,0,0,0,.24.92.95.95,0,0,0,1.4,0,1.51,1.51,0,0,0,.24-.92,1.49,1.49,0,0,0-.24-.92.86.86,0,0,0-.71-.3C11.17,192.51,10.86,192.92,10.86,193.73Z"/>
    <path d="M15.6,192.54h-.81v2.8h-.53v-2.8H13.7v-.25l.56-.18v-.19a1.32,1.32,0,0,1,.26-.88,1,1,0,0,1,.79-.29,1.93,1.93,0,0,1,.62.11l-.14.41a1.54,1.54,0,0,0-.47-.09.46.46,0,0,0-.4.18.93.93,0,0,0-.13.56v.2h.81Z"/>
    <path d="M17.26,195l.24,0a.81.81,0,0,0,.21,0v.41l-.23.06a1.55,1.55,0,0,1-.31,0c-.63,0-.94-.33-.94-1v-1.87h-.46v-.26l.46-.21.21-.68h.32v.73h.93v.42h-.93v1.85a.61.61,0,0,0,.13.43A.47.47,0,0,0,17.26,195Z"/>
    <path d="M21,195.34l-.55-1.81a8.41,8.41,0,0,1-.22-.85h0c-.08.38-.15.67-.21.86l-.58,1.8h-.6l-.88-3.22h.54c.21.8.36,1.4.47,1.81a6.88,6.88,0,0,1,.19.87h0l0-.18a5.79,5.79,0,0,1,.18-.68l.57-1.82h.57l.56,1.82.06.22.06.22.06.23,0,.19h0a8.58,8.58,0,0,1,.21-1l.45-1.72h.54l-.89,3.22Z"/>
    <path d="M25.05,195.34l-.1-.46h0a1.25,1.25,0,0,1-.48.41,1.5,1.5,0,0,1-.6.11,1,1,0,0,1-.75-.25.9.9,0,0,1-.27-.7c0-.65.52-1,1.55-1l.54,0v-.19a.77.77,0,0,0-.16-.54.66.66,0,0,0-.5-.17,1.51,1.51,0,0,0-.48.07,3.5,3.5,0,0,0-.43.17l-.16-.39a1.87,1.87,0,0,1,.53-.2,2.24,2.24,0,0,1,.57-.08,1.24,1.24,0,0,1,.86.26,1.06,1.06,0,0,1,.29.82v2.19ZM24,195a1,1,0,0,0,.69-.24.9.9,0,0,0,.26-.68v-.29l-.48,0a1.75,1.75,0,0,0-.81.17.56.56,0,0,0-.25.49.47.47,0,0,0,.16.39A.62.62,0,0,0,24,195Z"/>
    <path d="M27.93,192.07a2.09,2.09,0,0,1,.38,0l-.06.49a1.45,1.45,0,0,0-.35,0,.79.79,0,0,0-.47.14,1,1,0,0,0-.35.39,1.19,1.19,0,0,0-.12.54v1.72h-.53v-3.22h.44l.06.59h0a1.37,1.37,0,0,1,.44-.48A1,1,0,0,1,27.93,192.07Z"/>
    <path d="M30.22,195.4a1.48,1.48,0,0,1-1.13-.44,1.65,1.65,0,0,1-.41-1.2,1.81,1.81,0,0,1,.38-1.23,1.28,1.28,0,0,1,1-.46,1.24,1.24,0,0,1,1,.39,1.5,1.5,0,0,1,.36,1.06v.32h-2.2a1.22,1.22,0,0,0,.28.83,1,1,0,0,0,.75.28,2.63,2.63,0,0,0,.49,0,2.82,2.82,0,0,0,.54-.18v.46a2.39,2.39,0,0,1-.5.16A3,3,0,0,1,30.22,195.4Zm-.13-2.9a.78.78,0,0,0-.6.24,1.2,1.2,0,0,0-.26.68h1.64a1,1,0,0,0-.21-.69A.72.72,0,0,0,30.09,192.5Z"/>
    <path d="M35.32,195.4a1.17,1.17,0,0,1-1-.47h0v.12a3.1,3.1,0,0,1,0,.41v1.32H33.8v-4.66h.43l.07.44h0a1.21,1.21,0,0,1,.44-.38,1.41,1.41,0,0,1,.57-.11,1.17,1.17,0,0,1,1,.43,1.94,1.94,0,0,1,.35,1.23A2,2,0,0,1,36.3,195,1.19,1.19,0,0,1,35.32,195.4Zm-.09-2.89a.82.82,0,0,0-.69.27,1.43,1.43,0,0,0-.22.84v.11a1.62,1.62,0,0,0,.22.94.81.81,0,0,0,.7.29.76.76,0,0,0,.64-.32,1.63,1.63,0,0,0,.22-.92,1.54,1.54,0,0,0-.22-.9A.76.76,0,0,0,35.23,192.51Z"/>
    <path d="M39,192.07a2.17,2.17,0,0,1,.38,0l-.07.49a1.39,1.39,0,0,0-.35,0,.79.79,0,0,0-.47.14.87.87,0,0,0-.34.39,1.19,1.19,0,0,0-.12.54v1.72h-.53v-3.22h.43l.06.59h0a1.47,1.47,0,0,1,.44-.48A1,1,0,0,1,39,192.07Z"/>
    <path d="M42.7,193.73a1.77,1.77,0,0,1-.4,1.23,1.41,1.41,0,0,1-1.1.44,1.5,1.5,0,0,1-.77-.2,1.36,1.36,0,0,1-.52-.59,2,2,0,0,1-.18-.88,1.8,1.8,0,0,1,.39-1.23,1.4,1.4,0,0,1,1.1-.43,1.38,1.38,0,0,1,1.08.44A1.76,1.76,0,0,1,42.7,193.73Zm-2.43,0a1.51,1.51,0,0,0,.24.92,1,1,0,0,0,1.41,0,1.51,1.51,0,0,0,.24-.92,1.49,1.49,0,0,0-.24-.92.86.86,0,0,0-.71-.3C40.59,192.51,40.27,192.92,40.27,193.73Z"/>
    <path d="M44.83,195.4a1.35,1.35,0,0,1-1.08-.43,1.74,1.74,0,0,1-.39-1.22,1.84,1.84,0,0,1,.39-1.25,1.42,1.42,0,0,1,1.12-.43,1.8,1.8,0,0,1,.46.05,1.55,1.55,0,0,1,.38.12l-.16.44a2.1,2.1,0,0,0-.7-.15.83.83,0,0,0-.71.3,1.49,1.49,0,0,0-.24.92,1.45,1.45,0,0,0,.24.89.81.81,0,0,0,.68.31,2.13,2.13,0,0,0,.84-.19v.47A1.89,1.89,0,0,1,44.83,195.4Z"/>
    <path d="M47.79,195.4a1.5,1.5,0,0,1-1.14-.44,1.69,1.69,0,0,1-.41-1.2,1.86,1.86,0,0,1,.38-1.23,1.4,1.4,0,0,1,2-.07,1.5,1.5,0,0,1,.36,1.06v.32H46.78a1.27,1.27,0,0,0,.28.83,1,1,0,0,0,.75.28,2.63,2.63,0,0,0,.49,0,2.82,2.82,0,0,0,.54-.18v.46a2.21,2.21,0,0,1-.5.16A3,3,0,0,1,47.79,195.4Zm-.14-2.9a.75.75,0,0,0-.59.24,1.08,1.08,0,0,0-.26.68h1.63a1.07,1.07,0,0,0-.2-.69A.75.75,0,0,0,47.65,192.5Z"/>
    <path d="M51.9,194.45a.83.83,0,0,1-.34.7,1.56,1.56,0,0,1-1,.25,2.21,2.21,0,0,1-1-.2v-.48a2.41,2.41,0,0,0,1,.26,1.12,1.12,0,0,0,.59-.13.41.41,0,0,0,.18-.35.38.38,0,0,0-.18-.32,2.36,2.36,0,0,0-.62-.3,4.49,4.49,0,0,1-.64-.3,1,1,0,0,1-.27-.28.76.76,0,0,1-.08-.38.73.73,0,0,1,.32-.63,1.51,1.51,0,0,1,.88-.22,2.53,2.53,0,0,1,1,.21l-.18.42a2.45,2.45,0,0,0-.88-.2,1,1,0,0,0-.5.1.34.34,0,0,0-.17.29.36.36,0,0,0,.15.29,2.89,2.89,0,0,0,.68.32,2.74,2.74,0,0,1,.59.28.8.8,0,0,1,.29.29A.74.74,0,0,1,51.9,194.45Z"/>
    <path d="M54.77,194.45a.8.8,0,0,1-.34.7,1.52,1.52,0,0,1-.94.25,2.18,2.18,0,0,1-1-.2v-.48a2.34,2.34,0,0,0,1,.26,1.08,1.08,0,0,0,.58-.13.41.41,0,0,0,.18-.35.4.4,0,0,0-.17-.32,2.75,2.75,0,0,0-.62-.3,3.61,3.61,0,0,1-.64-.3,1,1,0,0,1-.27-.28.8.8,0,0,1,.23-1,1.54,1.54,0,0,1,.89-.22,2.52,2.52,0,0,1,1,.21l-.18.42a2.4,2.4,0,0,0-.88-.2,1,1,0,0,0-.5.1.34.34,0,0,0-.17.29.36.36,0,0,0,.15.29,3.39,3.39,0,0,0,.68.32,2.86,2.86,0,0,1,.6.28.77.77,0,0,1,.28.29A.74.74,0,0,1,54.77,194.45Z"/>
    <path d="M56.92,195.4a1.51,1.51,0,0,1-1.14-.44,1.69,1.69,0,0,1-.41-1.2,1.86,1.86,0,0,1,.38-1.23,1.29,1.29,0,0,1,1-.46,1.25,1.25,0,0,1,1,.39,1.5,1.5,0,0,1,.36,1.06v.32h-2.2a1.27,1.27,0,0,0,.27.83,1,1,0,0,0,.75.28,2.56,2.56,0,0,0,.49,0,2.61,2.61,0,0,0,.54-.18v.46a2.21,2.21,0,0,1-.5.16A2.87,2.87,0,0,1,56.92,195.4Zm-.13-2.9a.75.75,0,0,0-.6.24,1.14,1.14,0,0,0-.26.68h1.64a1.13,1.13,0,0,0-.21-.69A.75.75,0,0,0,56.79,192.5Z"/>
    <path d="M61,194.45a.8.8,0,0,1-.34.7,1.52,1.52,0,0,1-.94.25,2.22,2.22,0,0,1-1-.2v-.48a2.41,2.41,0,0,0,1,.26,1.08,1.08,0,0,0,.58-.13.41.41,0,0,0,.18-.35.38.38,0,0,0-.18-.32,2.36,2.36,0,0,0-.62-.3,3.79,3.79,0,0,1-.63-.3.93.93,0,0,1-.28-.28.89.89,0,0,1-.08-.38.76.76,0,0,1,.32-.63,1.54,1.54,0,0,1,.89-.22,2.52,2.52,0,0,1,1,.21l-.18.42a2.4,2.4,0,0,0-.88-.2,1,1,0,0,0-.5.1.34.34,0,0,0-.17.29.36.36,0,0,0,.15.29,3.12,3.12,0,0,0,.68.32,2.52,2.52,0,0,1,.59.28.8.8,0,0,1,.29.29A.74.74,0,0,1,61,194.45Z"/>
    <path d="M15.62,199.27a2.17,2.17,0,0,1,.38,0l-.07.49a1.32,1.32,0,0,0-.34,0,.84.84,0,0,0-.48.14.93.93,0,0,0-.34.39,1.2,1.2,0,0,0-.12.55v1.71h-.53v-3.21h.43l.06.58h0a1.45,1.45,0,0,1,.43-.48A1,1,0,0,1,15.62,199.27Z"/>
    <path d="M17.91,202.6a1.48,1.48,0,0,1-1.14-.44,1.69,1.69,0,0,1-.41-1.2,1.81,1.81,0,0,1,.39-1.23,1.39,1.39,0,0,1,2-.07,1.5,1.5,0,0,1,.36,1.06V201h-2.2a1.22,1.22,0,0,0,.28.83.94.94,0,0,0,.74.28,2.56,2.56,0,0,0,.49,0,2.43,2.43,0,0,0,.54-.18v.46a2.07,2.07,0,0,1-.5.16A2.87,2.87,0,0,1,17.91,202.6Zm-.13-2.9a.78.78,0,0,0-.6.24,1.14,1.14,0,0,0-.26.68h1.64a1.13,1.13,0,0,0-.21-.69A.75.75,0,0,0,17.78,199.7Z"/>
    <path d="M20.45,202.54h-.53V198h.53Z"/>
    <path d="M23.46,202.54l-.1-.46h0a1.25,1.25,0,0,1-.48.41,1.5,1.5,0,0,1-.6.11,1,1,0,0,1-.74-.25.9.9,0,0,1-.27-.7c0-.65.51-1,1.54-1l.55,0v-.19a.83.83,0,0,0-.16-.54.7.7,0,0,0-.51-.17,1.51,1.51,0,0,0-.48.07l-.43.17-.16-.39a1.87,1.87,0,0,1,.53-.2,2.24,2.24,0,0,1,.57-.08,1.27,1.27,0,0,1,.87.26,1.06,1.06,0,0,1,.28.82v2.19Zm-1.09-.36a1,1,0,0,0,.7-.24.89.89,0,0,0,.25-.68V201l-.47,0a1.62,1.62,0,0,0-.81.18.51.51,0,0,0-.25.48.5.5,0,0,0,.15.39A.63.63,0,0,0,22.37,202.18Z"/>
    <path d="M25.91,202.17l.24,0a.71.71,0,0,0,.21-.05v.41l-.23.06a1.55,1.55,0,0,1-.31,0c-.63,0-.94-.33-.94-1v-1.87h-.46v-.26l.46-.21.22-.68h.31v.74h.93v.41h-.93v1.85a.61.61,0,0,0,.13.43A.47.47,0,0,0,25.91,202.17Z"/>
    <path d="M28.37,202.6a1.44,1.44,0,0,1-1.13-.44,1.66,1.66,0,0,1-.42-1.2,1.81,1.81,0,0,1,.39-1.23,1.26,1.26,0,0,1,1-.46,1.24,1.24,0,0,1,1,.39,1.5,1.5,0,0,1,.36,1.06V201h-2.2a1.22,1.22,0,0,0,.28.83.94.94,0,0,0,.74.28,2.49,2.49,0,0,0,.49,0,2.68,2.68,0,0,0,.55-.18v.46a2.29,2.29,0,0,1-.51.16A2.87,2.87,0,0,1,28.37,202.6Zm-.13-2.9a.78.78,0,0,0-.6.24,1.2,1.2,0,0,0-.26.68H29a1.07,1.07,0,0,0-.21-.69A.72.72,0,0,0,28.24,199.7Z"/>
    <path d="M31.53,202.6a1.18,1.18,0,0,1-1-.43,2.39,2.39,0,0,1,0-2.46,1.17,1.17,0,0,1,1-.44,1.16,1.16,0,0,1,1,.47h0a1.85,1.85,0,0,1,0-.24c0-.11,0-.19,0-.23V198h.53v4.56h-.43l-.08-.43h0A1.14,1.14,0,0,1,31.53,202.6Zm.08-.44a.84.84,0,0,0,.7-.26,1.31,1.31,0,0,0,.22-.86V201a1.58,1.58,0,0,0-.22-1,.84.84,0,0,0-.7-.29A.7.7,0,0,0,31,200a1.58,1.58,0,0,0-.23.92,1.63,1.63,0,0,0,.22.91A.75.75,0,0,0,31.61,202.16Z"/>
    <path d="M36.71,202.17l.24,0a.81.81,0,0,0,.21-.05v.41l-.23.06a1.55,1.55,0,0,1-.31,0c-.63,0-.94-.33-.94-1v-1.87h-.46v-.26l.46-.21.21-.68h.32v.74h.93v.41h-.93v1.85a.61.61,0,0,0,.13.43A.47.47,0,0,0,36.71,202.17Z"/>
    <path d="M40.6,200.93a1.82,1.82,0,0,1-.4,1.23,1.42,1.42,0,0,1-1.1.44,1.56,1.56,0,0,1-.78-.2,1.43,1.43,0,0,1-.52-.59,2,2,0,0,1-.18-.88,1.75,1.75,0,0,1,.4-1.23,1.39,1.39,0,0,1,1.1-.43,1.41,1.41,0,0,1,1.08.44A1.81,1.81,0,0,1,40.6,200.93Zm-2.43,0a1.51,1.51,0,0,0,.24.92.95.95,0,0,0,1.4,0,1.51,1.51,0,0,0,.24-.92,1.49,1.49,0,0,0-.24-.92.86.86,0,0,0-.71-.3C38.48,199.71,38.17,200.12,38.17,200.93Z"/>
    <path d="M44.28,202.6a1.37,1.37,0,0,1-1.08-.43,1.74,1.74,0,0,1-.39-1.22,1.84,1.84,0,0,1,.39-1.25,1.42,1.42,0,0,1,1.12-.43,1.8,1.8,0,0,1,.46,0,1.42,1.42,0,0,1,.38.12l-.16.44a2.05,2.05,0,0,0-.69-.15.84.84,0,0,0-.72.3,1.49,1.49,0,0,0-.23.92,1.45,1.45,0,0,0,.23.89.81.81,0,0,0,.68.31,2.1,2.1,0,0,0,.84-.19v.47A1.86,1.86,0,0,1,44.28,202.6Z"/>
    <path d="M48.67,200.93a1.82,1.82,0,0,1-.4,1.23,1.44,1.44,0,0,1-1.1.44,1.53,1.53,0,0,1-.78-.2,1.36,1.36,0,0,1-.52-.59,2,2,0,0,1-.18-.88,1.8,1.8,0,0,1,.39-1.23,1.42,1.42,0,0,1,1.11-.43,1.41,1.41,0,0,1,1.08.44A1.81,1.81,0,0,1,48.67,200.93Zm-2.43,0a1.58,1.58,0,0,0,.23.92.84.84,0,0,0,.71.31.82.82,0,0,0,.7-.31,1.51,1.51,0,0,0,.24-.92,1.49,1.49,0,0,0-.24-.92.86.86,0,0,0-.71-.3C46.55,199.71,46.24,200.12,46.24,200.93Z"/>
    <path d="M51,199.27a2.17,2.17,0,0,1,.38,0l-.07.49a1.39,1.39,0,0,0-.35,0,.81.81,0,0,0-.47.14.93.93,0,0,0-.34.39,1.2,1.2,0,0,0-.12.55v1.71H49.5v-3.21h.43l.06.58h0a1.35,1.35,0,0,1,.43-.48A1,1,0,0,1,51,199.27Z"/>
    <path d="M53.29,202.6a1.48,1.48,0,0,1-1.14-.44,1.69,1.69,0,0,1-.41-1.2,1.86,1.86,0,0,1,.38-1.23,1.29,1.29,0,0,1,1-.46,1.25,1.25,0,0,1,1,.39,1.5,1.5,0,0,1,.36,1.06V201h-2.2a1.27,1.27,0,0,0,.27.83,1,1,0,0,0,.75.28,2.56,2.56,0,0,0,.49,0,2.43,2.43,0,0,0,.54-.18v.46a2.07,2.07,0,0,1-.5.16A2.87,2.87,0,0,1,53.29,202.6Zm-.13-2.9a.77.77,0,0,0-.6.24,1.14,1.14,0,0,0-.26.68h1.64a1.13,1.13,0,0,0-.21-.69A.75.75,0,0,0,53.16,199.7Z"/>
    <path d="M23.71,209.8a1.17,1.17,0,0,1-1-.47h0l0,.12c0,.16,0,.29,0,.41v1.32h-.53v-4.66h.44l.07.44h0a1.18,1.18,0,0,1,.43-.38,1.32,1.32,0,0,1,.57-.11,1.19,1.19,0,0,1,1,.43,1.94,1.94,0,0,1,.34,1.23,1.91,1.91,0,0,1-.35,1.23A1.18,1.18,0,0,1,23.71,209.8Zm-.09-2.89a.82.82,0,0,0-.69.27,1.36,1.36,0,0,0-.22.84v.11a1.55,1.55,0,0,0,.22.94.79.79,0,0,0,.7.29.73.73,0,0,0,.63-.32,1.62,1.62,0,0,0,.23-.92,1.53,1.53,0,0,0-.23-.9A.74.74,0,0,0,23.62,206.91Z"/>
    <path d="M27.37,206.47a2.09,2.09,0,0,1,.38,0l-.06.49a1.45,1.45,0,0,0-.35,0,.79.79,0,0,0-.47.14,1,1,0,0,0-.35.39,1.19,1.19,0,0,0-.12.54v1.72h-.53v-3.22h.44l.06.59h0a1.37,1.37,0,0,1,.44-.48A1,1,0,0,1,27.37,206.47Z"/>
    <path d="M31.09,208.13a1.77,1.77,0,0,1-.4,1.23,1.42,1.42,0,0,1-1.1.44,1.56,1.56,0,0,1-.78-.2,1.34,1.34,0,0,1-.51-.59,2,2,0,0,1-.18-.88,1.8,1.8,0,0,1,.39-1.23,1.58,1.58,0,0,1,2.18,0A1.76,1.76,0,0,1,31.09,208.13Zm-2.43,0a1.51,1.51,0,0,0,.24.92.95.95,0,0,0,1.4,0,1.51,1.51,0,0,0,.24-.92,1.49,1.49,0,0,0-.24-.92.86.86,0,0,0-.71-.3C29,206.91,28.66,207.31,28.66,208.13Z"/>
    <path d="M33.06,209.8a1.16,1.16,0,0,1-1-.43,2.34,2.34,0,0,1,0-2.46,1.16,1.16,0,0,1,1-.44,1.14,1.14,0,0,1,1,.47h0s0-.12,0-.24,0-.19,0-.23v-1.29h.53v4.56h-.42l-.08-.43h0A1.11,1.11,0,0,1,33.06,209.8Zm.09-.44a.85.85,0,0,0,.7-.26,1.31,1.31,0,0,0,.22-.86v-.1a1.56,1.56,0,0,0-.22-.95.86.86,0,0,0-.71-.29.72.72,0,0,0-.63.33,1.58,1.58,0,0,0-.22.92,1.55,1.55,0,0,0,.22.91A.75.75,0,0,0,33.15,209.36Z"/>
    <path d="M36.11,206.52v2.08a.78.78,0,0,0,.18.57.67.67,0,0,0,.54.19.89.89,0,0,0,.72-.27,1.42,1.42,0,0,0,.22-.89v-1.68h.53v3.22h-.43l-.08-.42h0a.94.94,0,0,1-.41.35,1.31,1.31,0,0,1-.61.13,1.22,1.22,0,0,1-.88-.28,1.19,1.19,0,0,1-.29-.89v-2.11Z"/>
    <path d="M40.61,209.8a1.37,1.37,0,0,1-1.08-.43,1.74,1.74,0,0,1-.39-1.22,1.84,1.84,0,0,1,.4-1.25,1.41,1.41,0,0,1,1.11-.43,2.49,2.49,0,0,1,.47,0,2,2,0,0,1,.37.13l-.16.44a2.05,2.05,0,0,0-.69-.15.85.85,0,0,0-.72.3,1.9,1.9,0,0,0,0,1.81.83.83,0,0,0,.69.31,2,2,0,0,0,.83-.19v.47A1.86,1.86,0,0,1,40.61,209.8Z"/>
    <path d="M43.28,209.37l.24,0,.21,0v.41l-.23.06a1.63,1.63,0,0,1-.31,0c-.63,0-.95-.33-.95-1v-1.88h-.45v-.25l.46-.21.21-.68h.32v.73h.92v.41h-.92v1.86a.61.61,0,0,0,.13.43A.47.47,0,0,0,43.28,209.37Z"/>
    <path d="M46.46,208.85a.82.82,0,0,1-.33.7,1.56,1.56,0,0,1-1,.25,2.21,2.21,0,0,1-1-.2v-.48a2.34,2.34,0,0,0,1,.26,1.06,1.06,0,0,0,.58-.13.42.42,0,0,0,.18-.35.37.37,0,0,0-.17-.32,2.54,2.54,0,0,0-.62-.3,4,4,0,0,1-.64-.3,1,1,0,0,1-.27-.28.76.76,0,0,1-.09-.38.73.73,0,0,1,.33-.63,1.51,1.51,0,0,1,.88-.22,2.53,2.53,0,0,1,1,.21l-.18.42a2.25,2.25,0,0,0-.88-.2,1,1,0,0,0-.5.1.32.32,0,0,0-.17.29.38.38,0,0,0,.14.29,3.29,3.29,0,0,0,.69.32,3,3,0,0,1,.59.28.77.77,0,0,1,.28.29A.74.74,0,0,1,46.46,208.85Z"/>
  </g>
  <g>
    <path d="M76.54,188.14H76v-3.81H74.65v-.47h3.22v.47H76.54Z"/>
    <path d="M81,186.53a1.77,1.77,0,0,1-.4,1.23,1.41,1.41,0,0,1-1.1.44,1.5,1.5,0,0,1-.77-.2,1.36,1.36,0,0,1-.52-.59,2,2,0,0,1-.18-.88,1.8,1.8,0,0,1,.39-1.23,1.4,1.4,0,0,1,1.1-.43,1.38,1.38,0,0,1,1.08.44A1.76,1.76,0,0,1,81,186.53Zm-2.43,0a1.51,1.51,0,0,0,.24.92,1,1,0,0,0,1.41,0,1.51,1.51,0,0,0,.24-.92,1.49,1.49,0,0,0-.24-.92.87.87,0,0,0-.71-.3C78.92,185.31,78.6,185.71,78.6,186.53Z"/>
    <path d="M84.57,188.2a1.18,1.18,0,0,1-1-.43,2.39,2.39,0,0,1,0-2.46,1.17,1.17,0,0,1,1-.44,1.16,1.16,0,0,1,1,.47h0a1.85,1.85,0,0,1,0-.24c0-.11,0-.19,0-.23v-1.29h.53v4.56h-.43l-.08-.43h0A1.14,1.14,0,0,1,84.57,188.2Zm.08-.44a.84.84,0,0,0,.7-.26,1.31,1.31,0,0,0,.22-.86v-.1a1.56,1.56,0,0,0-.22-.95.86.86,0,0,0-.71-.29.69.69,0,0,0-.62.33,1.58,1.58,0,0,0-.23.92,1.63,1.63,0,0,0,.22.91A.75.75,0,0,0,84.65,187.76Z"/>
    <path d="M87.08,184.05a.32.32,0,0,1,.09-.25.33.33,0,0,1,.22-.08.31.31,0,0,1,.31.33.35.35,0,0,1-.1.26.32.32,0,0,1-.21.08.33.33,0,0,1-.22-.08A.34.34,0,0,1,87.08,184.05Zm.56,4.09h-.52v-3.22h.52Z"/>
    <path d="M90.15,185.33h-.81v2.81h-.53v-2.81h-.56v-.24l.56-.18v-.19a1.32,1.32,0,0,1,.25-.88,1,1,0,0,1,.79-.29,2,2,0,0,1,.63.11l-.14.41a1.54,1.54,0,0,0-.48-.09.46.46,0,0,0-.4.18,1,1,0,0,0-.12.56v.2h.81Z"/>
    <path d="M92.21,185.33H91.4v2.81h-.53v-2.81h-.56v-.24l.56-.18v-.19a1.32,1.32,0,0,1,.26-.88,1,1,0,0,1,.79-.29,2,2,0,0,1,.62.11l-.14.41a1.54,1.54,0,0,0-.47-.09.46.46,0,0,0-.4.18.93.93,0,0,0-.13.56v.2h.81Z"/>
    <path d="M94.16,188.2a1.48,1.48,0,0,1-1.13-.44,1.65,1.65,0,0,1-.41-1.2,1.81,1.81,0,0,1,.38-1.23,1.28,1.28,0,0,1,1-.46,1.24,1.24,0,0,1,1,.39,1.5,1.5,0,0,1,.37,1.06v.32H93.16a1.22,1.22,0,0,0,.28.83,1,1,0,0,0,.75.28,2.63,2.63,0,0,0,.49,0,2.82,2.82,0,0,0,.54-.18V188a2.39,2.39,0,0,1-.5.16A3,3,0,0,1,94.16,188.2ZM94,185.3a.78.78,0,0,0-.6.24,1.2,1.2,0,0,0-.26.68h1.64a1,1,0,0,0-.21-.69A.72.72,0,0,0,94,185.3Z"/>
    <path d="M97.68,184.87a2.17,2.17,0,0,1,.38,0l-.07.49a1.39,1.39,0,0,0-.35,0,.81.81,0,0,0-.47.14.93.93,0,0,0-.34.39,1.19,1.19,0,0,0-.12.54v1.72h-.53v-3.22h.43l.06.59h0a1.35,1.35,0,0,1,.43-.48A1,1,0,0,1,97.68,184.87Z"/>
    <path d="M100,188.2a1.5,1.5,0,0,1-1.14-.44,1.69,1.69,0,0,1-.41-1.2,1.86,1.86,0,0,1,.38-1.23,1.29,1.29,0,0,1,1-.46,1.25,1.25,0,0,1,1,.39,1.5,1.5,0,0,1,.36,1.06v.32H99a1.27,1.27,0,0,0,.28.83,1,1,0,0,0,.75.28,2.56,2.56,0,0,0,.49,0,2.82,2.82,0,0,0,.54-.18V188a2.21,2.21,0,0,1-.5.16A2.87,2.87,0,0,1,100,188.2Zm-.13-2.9a.75.75,0,0,0-.6.24,1.08,1.08,0,0,0-.26.68h1.64a1.13,1.13,0,0,0-.21-.69A.75.75,0,0,0,99.84,185.3Z"/>
    <path d="M104.17,188.14v-2.06a.82.82,0,0,0-.17-.58.71.71,0,0,0-.55-.19.89.89,0,0,0-.72.27,1.42,1.42,0,0,0-.22.89v1.67H102v-3.22h.43l.08.44h0a1,1,0,0,1,.42-.36,1.28,1.28,0,0,1,.59-.13,1.21,1.21,0,0,1,.88.28,1.23,1.23,0,0,1,.29.9v2.09Z"/>
    <path d="M106.77,187.77l.24,0a.64.64,0,0,0,.2-.05v.41l-.22.06a1.63,1.63,0,0,1-.31,0c-.63,0-1-.33-1-1v-1.88h-.45v-.25l.46-.21.21-.68h.31v.73h.93v.41h-.93v1.86a.62.62,0,0,0,.14.43A.47.47,0,0,0,106.77,187.77Z"/>
    <path d="M107.82,184.05a.32.32,0,0,1,.09-.25.31.31,0,0,1,.22-.08.32.32,0,0,1,.21.08.32.32,0,0,1,.09.25.34.34,0,0,1-.09.26.32.32,0,0,1-.21.08.31.31,0,0,1-.22-.08A.34.34,0,0,1,107.82,184.05Zm.56,4.09h-.52v-3.22h.52Z"/>
    <path d="M111.39,188.14l-.1-.46h0a1.31,1.31,0,0,1-.47.41,1.51,1.51,0,0,1-.61.11,1,1,0,0,1-.74-.25.9.9,0,0,1-.27-.7c0-.65.51-1,1.54-1l.55,0V186a.77.77,0,0,0-.16-.54.68.68,0,0,0-.51-.17,1.51,1.51,0,0,0-.48.07,4.08,4.08,0,0,0-.42.17l-.17-.39a2,2,0,0,1,.53-.2,2.37,2.37,0,0,1,.57-.08,1.27,1.27,0,0,1,.87.26,1.06,1.06,0,0,1,.28.82v2.19Zm-1.09-.36a1,1,0,0,0,.7-.24.89.89,0,0,0,.25-.68v-.29l-.47,0a1.75,1.75,0,0,0-.81.17.54.54,0,0,0-.25.49.5.5,0,0,0,.15.39A.63.63,0,0,0,110.3,187.78Z"/>
    <path d="M113.85,187.77l.24,0a.64.64,0,0,0,.2-.05v.41l-.22.06a1.73,1.73,0,0,1-.32,0c-.63,0-.94-.33-.94-1v-1.88h-.45v-.25l.46-.21.21-.68h.31v.73h.93v.41h-.93v1.86a.67.67,0,0,0,.13.43A.49.49,0,0,0,113.85,187.77Z"/>
    <path d="M116.3,188.2a1.48,1.48,0,0,1-1.13-.44,1.65,1.65,0,0,1-.41-1.2,1.81,1.81,0,0,1,.38-1.23,1.28,1.28,0,0,1,1-.46,1.24,1.24,0,0,1,1,.39,1.5,1.5,0,0,1,.36,1.06v.32h-2.2a1.22,1.22,0,0,0,.28.83,1,1,0,0,0,.75.28,2.63,2.63,0,0,0,.49,0,2.82,2.82,0,0,0,.54-.18V188a2.39,2.39,0,0,1-.5.16A3,3,0,0,1,116.3,188.2Zm-.13-2.9a.78.78,0,0,0-.6.24,1.2,1.2,0,0,0-.26.68H117a1,1,0,0,0-.21-.69A.72.72,0,0,0,116.17,185.3Z"/>
    <path d="M79.58,190.35l-1.57,6h-.5l1.58-6Z"/>
    <path d="M80.3,191.25a.32.32,0,0,1,.09-.25.33.33,0,0,1,.22-.08.35.35,0,0,1,.22.08.32.32,0,0,1,.09.25.33.33,0,0,1-.09.26.35.35,0,0,1-.22.08.3.3,0,0,1-.31-.34Zm.57,4.09h-.53v-3.22h.53Z"/>
    <path d="M84.08,195.34v-2.05a.88.88,0,0,0-.17-.59.71.71,0,0,0-.55-.19.89.89,0,0,0-.72.27,1.42,1.42,0,0,0-.22.89v1.67h-.53v-3.22h.42l.08.44h0a1,1,0,0,1,.42-.36,1.32,1.32,0,0,1,.6-.13,1,1,0,0,1,1.16,1.18v2.09Z"/>
    <path d="M87.79,195.34v-2.05a.88.88,0,0,0-.17-.59.71.71,0,0,0-.55-.19.89.89,0,0,0-.72.27,1.42,1.42,0,0,0-.22.89v1.67H85.6v-3.22H86l.08.44h0a1,1,0,0,1,.42-.36,1.32,1.32,0,0,1,.6-.13,1,1,0,0,1,1.16,1.18v2.09Z"/>
    <path d="M92.1,193.73a1.77,1.77,0,0,1-.4,1.23,1.41,1.41,0,0,1-1.1.44,1.5,1.5,0,0,1-.77-.2,1.3,1.3,0,0,1-.52-.59,2,2,0,0,1-.18-.88,1.8,1.8,0,0,1,.39-1.23,1.4,1.4,0,0,1,1.1-.43,1.38,1.38,0,0,1,1.08.44A1.76,1.76,0,0,1,92.1,193.73Zm-2.43,0a1.51,1.51,0,0,0,.24.92,1,1,0,0,0,1.41,0,1.51,1.51,0,0,0,.24-.92,1.49,1.49,0,0,0-.24-.92.87.87,0,0,0-.71-.3C90,192.51,89.67,192.92,89.67,193.73Z"/>
    <path d="M93.59,195.34l-1.22-3.22h.56l.69,1.9c.13.38.22.67.26.85h0a.31.31,0,0,1,0-.08l0-.11s.09-.26.22-.66l.68-1.9h.57l-1.23,3.22Z"/>
    <path d="M97.91,195.34l-.1-.46h0a1.25,1.25,0,0,1-.48.41,1.5,1.5,0,0,1-.6.11,1,1,0,0,1-.75-.25.9.9,0,0,1-.27-.7c0-.65.52-1,1.55-1l.54,0v-.19a.77.77,0,0,0-.16-.54.66.66,0,0,0-.5-.17,1.61,1.61,0,0,0-.49.07,4.08,4.08,0,0,0-.42.17l-.16-.39a1.77,1.77,0,0,1,.53-.2,2.23,2.23,0,0,1,.56-.08,1.27,1.27,0,0,1,.87.26,1.06,1.06,0,0,1,.29.82v2.19ZM96.83,195a1,1,0,0,0,.69-.24.89.89,0,0,0,.25-.68v-.29l-.47,0a1.75,1.75,0,0,0-.81.17.54.54,0,0,0-.25.49.5.5,0,0,0,.15.39A.66.66,0,0,0,96.83,195Z"/>
    <path d="M100.37,195l.24,0a.81.81,0,0,0,.21,0v.41l-.23.06a1.63,1.63,0,0,1-.31,0c-.63,0-1-.33-1-1v-1.87h-.45v-.26l.46-.21.21-.68h.31v.73h.93v.42h-.93v1.85a.62.62,0,0,0,.14.43A.47.47,0,0,0,100.37,195Z"/>
    <path d="M102.83,195.4a1.48,1.48,0,0,1-1.14-.44,1.69,1.69,0,0,1-.41-1.2,1.86,1.86,0,0,1,.38-1.23,1.4,1.4,0,0,1,2-.07,1.5,1.5,0,0,1,.36,1.06v.32h-2.21a1.27,1.27,0,0,0,.28.83,1,1,0,0,0,.75.28,2.63,2.63,0,0,0,.49,0,2.82,2.82,0,0,0,.54-.18v.46a2.21,2.21,0,0,1-.5.16A3,3,0,0,1,102.83,195.4Zm-.14-2.9a.75.75,0,0,0-.59.24,1.14,1.14,0,0,0-.27.68h1.64a1,1,0,0,0-.21-.69A.72.72,0,0,0,102.69,192.5Z"/>
    <path d="M107.47,195l.24,0a.64.64,0,0,0,.21,0v.41l-.22.06a1.73,1.73,0,0,1-.32,0c-.63,0-.94-.33-.94-1v-1.87H106v-.26l.46-.21.21-.68H107v.73h.93v.42H107v1.85a.67.67,0,0,0,.13.43A.48.48,0,0,0,107.47,195Z"/>
    <path d="M110.76,195.34v-2.05a.83.83,0,0,0-.18-.59.7.7,0,0,0-.54-.19.89.89,0,0,0-.72.27,1.41,1.41,0,0,0-.23.9v1.66h-.53v-4.56h.53v1.34a2.9,2.9,0,0,1,0,.45h0a1,1,0,0,1,.4-.37,1.47,1.47,0,0,1,.6-.13,1.27,1.27,0,0,1,.88.28,1.19,1.19,0,0,1,.3.9v2.09Z"/>
    <path d="M113.64,195.4a1.48,1.48,0,0,1-1.13-.44,1.66,1.66,0,0,1-.42-1.2,1.81,1.81,0,0,1,.39-1.23,1.26,1.26,0,0,1,1-.46,1.24,1.24,0,0,1,1,.39,1.5,1.5,0,0,1,.36,1.06v.32h-2.2a1.22,1.22,0,0,0,.28.83,1,1,0,0,0,.75.28,2.45,2.45,0,0,0,.48,0,2.68,2.68,0,0,0,.55-.18v.46a2.39,2.39,0,0,1-.5.16A3.06,3.06,0,0,1,113.64,195.4Zm-.13-2.9a.78.78,0,0,0-.6.24,1.2,1.2,0,0,0-.26.68h1.64a1,1,0,0,0-.21-.69A.72.72,0,0,0,113.51,192.5Z"/>
    <path d="M74.62,202.6a1.17,1.17,0,0,1-1-.47h0v.12a3.1,3.1,0,0,1,0,.41V204H73.1v-4.65h.43l.07.43h0a1.21,1.21,0,0,1,.44-.38,1.41,1.41,0,0,1,.57-.11,1.17,1.17,0,0,1,1,.43,1.94,1.94,0,0,1,.35,1.23,2,2,0,0,1-.35,1.23A1.19,1.19,0,0,1,74.62,202.6Zm-.09-2.89a.82.82,0,0,0-.69.27,1.44,1.44,0,0,0-.22.85v.1a1.62,1.62,0,0,0,.22.94.81.81,0,0,0,.7.29.75.75,0,0,0,.64-.32,1.63,1.63,0,0,0,.22-.92,1.54,1.54,0,0,0-.22-.9A.75.75,0,0,0,74.53,199.71Z"/>
    <path d="M78.29,199.27a2.17,2.17,0,0,1,.38,0l-.07.49a1.39,1.39,0,0,0-.35,0,.81.81,0,0,0-.47.14.87.87,0,0,0-.34.39,1.2,1.2,0,0,0-.12.55v1.71h-.53v-3.21h.43l.06.58h0a1.47,1.47,0,0,1,.44-.48A1,1,0,0,1,78.29,199.27Z"/>
    <path d="M82,200.93a1.81,1.81,0,0,1-.39,1.23,1.45,1.45,0,0,1-1.11.44,1.52,1.52,0,0,1-.77-.2,1.36,1.36,0,0,1-.52-.59,2,2,0,0,1-.18-.88,1.8,1.8,0,0,1,.39-1.23,1.4,1.4,0,0,1,1.1-.43,1.38,1.38,0,0,1,1.08.44A1.76,1.76,0,0,1,82,200.93Zm-2.42,0a1.51,1.51,0,0,0,.23.92.84.84,0,0,0,.71.31.82.82,0,0,0,.7-.31,1.51,1.51,0,0,0,.24-.92,1.49,1.49,0,0,0-.24-.92.86.86,0,0,0-.71-.3C79.89,199.71,79.58,200.12,79.58,200.93Z"/>
    <path d="M84,202.6a1.16,1.16,0,0,1-1-.43,2.34,2.34,0,0,1,0-2.46,1.29,1.29,0,0,1,2,0h0a1.1,1.1,0,0,1,0-.24c0-.11,0-.19,0-.23V198h.53v4.56h-.43l-.08-.43h0A1.12,1.12,0,0,1,84,202.6Zm.08-.44a.87.87,0,0,0,.71-.26A1.37,1.37,0,0,0,85,201V201a1.57,1.57,0,0,0-.23-1,.84.84,0,0,0-.7-.29.72.72,0,0,0-.63.33,1.58,1.58,0,0,0-.22.92,1.55,1.55,0,0,0,.22.91A.73.73,0,0,0,84.06,202.16Z"/>
    <path d="M87,199.33v2.07a.87.87,0,0,0,.17.58.73.73,0,0,0,.54.18.89.89,0,0,0,.72-.27,1.4,1.4,0,0,0,.23-.89v-1.67h.53v3.21h-.43l-.08-.42h0a.91.91,0,0,1-.4.35,1.35,1.35,0,0,1-.62.13,1.21,1.21,0,0,1-.87-.28,1.15,1.15,0,0,1-.29-.89v-2.1Z"/>
    <path d="M91.53,202.6a1.37,1.37,0,0,1-1.08-.43,1.74,1.74,0,0,1-.39-1.22,1.84,1.84,0,0,1,.39-1.25,1.42,1.42,0,0,1,1.12-.43,1.8,1.8,0,0,1,.46,0,1.55,1.55,0,0,1,.38.12l-.16.44a2.05,2.05,0,0,0-.7-.15.83.83,0,0,0-.71.3,1.49,1.49,0,0,0-.23.92,1.45,1.45,0,0,0,.23.89.81.81,0,0,0,.68.31,2.1,2.1,0,0,0,.84-.19v.47A1.89,1.89,0,0,1,91.53,202.6Z"/>
    <path d="M94.19,202.17l.24,0a.64.64,0,0,0,.21-.05v.41l-.22.06a1.73,1.73,0,0,1-.32,0c-.63,0-.94-.33-.94-1v-1.87h-.45v-.26l.46-.21.21-.68h.31v.74h.93v.41h-.93v1.85a.61.61,0,0,0,.13.43A.48.48,0,0,0,94.19,202.17Z"/>
    <path d="M97.1,197.55l-1.58,6H95l1.58-6Z"/>
    <path d="M100,201.65a.81.81,0,0,1-.33.7,1.56,1.56,0,0,1-1,.25,2.21,2.21,0,0,1-1-.2v-.48a2.34,2.34,0,0,0,1,.26,1.06,1.06,0,0,0,.58-.13.41.41,0,0,0,.18-.35.37.37,0,0,0-.17-.32,2.54,2.54,0,0,0-.62-.3,4,4,0,0,1-.64-.3,1,1,0,0,1-.27-.28.76.76,0,0,1-.09-.38.71.71,0,0,1,.33-.62,1.44,1.44,0,0,1,.88-.23,2.53,2.53,0,0,1,1,.21l-.18.42a2.45,2.45,0,0,0-.88-.2,1,1,0,0,0-.5.1.32.32,0,0,0-.17.29.38.38,0,0,0,.14.29,3.29,3.29,0,0,0,.69.32,3,3,0,0,1,.59.28.77.77,0,0,1,.28.29A.76.76,0,0,1,100,201.65Z"/>
    <path d="M102.1,202.6a1.44,1.44,0,0,1-1.13-.44,1.66,1.66,0,0,1-.42-1.2,1.81,1.81,0,0,1,.39-1.23,1.26,1.26,0,0,1,1-.46,1.24,1.24,0,0,1,1,.39,1.5,1.5,0,0,1,.36,1.06V201h-2.2a1.22,1.22,0,0,0,.28.83.94.94,0,0,0,.74.28,2.49,2.49,0,0,0,.49,0,2.68,2.68,0,0,0,.55-.18v.46a2.39,2.39,0,0,1-.5.16A3.06,3.06,0,0,1,102.1,202.6Zm-.13-2.9a.78.78,0,0,0-.6.24,1.2,1.2,0,0,0-.26.68h1.64a1,1,0,0,0-.21-.69A.72.72,0,0,0,102,199.7Z"/>
    <path d="M105.62,199.27a2.17,2.17,0,0,1,.38,0l-.07.49a1.39,1.39,0,0,0-.35,0,.79.79,0,0,0-.47.14.87.87,0,0,0-.34.39,1.21,1.21,0,0,0-.13.55v1.71h-.52v-3.21h.43l.06.58h0a1.47,1.47,0,0,1,.44-.48A1,1,0,0,1,105.62,199.27Z"/>
    <path d="M107.3,202.54l-1.21-3.21h.56l.68,1.89a6.86,6.86,0,0,1,.26.85h0a.31.31,0,0,1,0-.08l0-.11.21-.66.69-1.89h.56l-1.22,3.21Z"/>
    <path d="M109.6,198.46a.3.3,0,0,1,.31-.34.35.35,0,0,1,.22.08.33.33,0,0,1,.09.26.32.32,0,0,1-.09.25.35.35,0,0,1-.22.08.33.33,0,0,1-.22-.08A.32.32,0,0,1,109.6,198.46Zm.57,4.08h-.53v-3.21h.53Z"/>
    <path d="M112.48,202.6a1.37,1.37,0,0,1-1.08-.43A1.74,1.74,0,0,1,111,201a1.84,1.84,0,0,1,.39-1.25,1.42,1.42,0,0,1,1.12-.43,1.8,1.8,0,0,1,.46,0,1.55,1.55,0,0,1,.38.12l-.16.44a2.05,2.05,0,0,0-.7-.15.83.83,0,0,0-.71.3,1.49,1.49,0,0,0-.23.92,1.45,1.45,0,0,0,.23.89.81.81,0,0,0,.68.31,2.1,2.1,0,0,0,.84-.19v.47A1.89,1.89,0,0,1,112.48,202.6Z"/>
    <path d="M115.44,202.6a1.48,1.48,0,0,1-1.14-.44,1.69,1.69,0,0,1-.41-1.2,1.86,1.86,0,0,1,.38-1.23,1.29,1.29,0,0,1,1-.46,1.25,1.25,0,0,1,1,.39,1.5,1.5,0,0,1,.36,1.06V201h-2.2a1.27,1.27,0,0,0,.27.83,1,1,0,0,0,.75.28,2.56,2.56,0,0,0,.49,0,2.61,2.61,0,0,0,.54-.18v.46a2.21,2.21,0,0,1-.5.16A3,3,0,0,1,115.44,202.6Zm-.13-2.9a.75.75,0,0,0-.6.24,1.08,1.08,0,0,0-.26.68h1.63a1.07,1.07,0,0,0-.2-.69A.75.75,0,0,0,115.31,199.7Z"/>
    <path d="M119.55,201.65a.79.79,0,0,1-.34.7,1.54,1.54,0,0,1-.95.25,2.21,2.21,0,0,1-1-.2v-.48a2.41,2.41,0,0,0,1,.26,1.08,1.08,0,0,0,.58-.13.41.41,0,0,0,.18-.35.38.38,0,0,0-.18-.32,2.36,2.36,0,0,0-.62-.3,3.79,3.79,0,0,1-.63-.3.93.93,0,0,1-.28-.28.89.89,0,0,1-.08-.38.73.73,0,0,1,.32-.62,1.47,1.47,0,0,1,.89-.23,2.52,2.52,0,0,1,1,.21l-.18.42a2.4,2.4,0,0,0-.88-.2,1,1,0,0,0-.5.1.34.34,0,0,0-.17.29.36.36,0,0,0,.15.29,3.12,3.12,0,0,0,.68.32,2.52,2.52,0,0,1,.59.28.8.8,0,0,1,.29.29A.76.76,0,0,1,119.55,201.65Z"/>
    <path d="M86,209.8a1.16,1.16,0,0,1-1-.47h0v.12a3.29,3.29,0,0,1,0,.41v1.32h-.53v-4.66H85L85,207h0a1.18,1.18,0,0,1,.43-.38,1.29,1.29,0,0,1,.57-.11,1.16,1.16,0,0,1,1,.43,1.88,1.88,0,0,1,.35,1.23,2,2,0,0,1-.35,1.23A1.19,1.19,0,0,1,86,209.8ZM86,206.91a.82.82,0,0,0-.69.27,1.3,1.3,0,0,0-.22.84v.11a1.63,1.63,0,0,0,.21.94.82.82,0,0,0,.71.29.73.73,0,0,0,.63-.32,1.62,1.62,0,0,0,.23-.92,1.53,1.53,0,0,0-.23-.9A.74.74,0,0,0,86,206.91Z"/>
    <path d="M91,208.13a1.82,1.82,0,0,1-.4,1.23,1.42,1.42,0,0,1-1.1.44,1.56,1.56,0,0,1-.78-.2,1.43,1.43,0,0,1-.52-.59,2,2,0,0,1-.18-.88,1.75,1.75,0,0,1,.4-1.23,1.39,1.39,0,0,1,1.1-.43,1.41,1.41,0,0,1,1.08.44A1.81,1.81,0,0,1,91,208.13Zm-2.43,0a1.51,1.51,0,0,0,.24.92.95.95,0,0,0,1.4,0,1.51,1.51,0,0,0,.24-.92,1.49,1.49,0,0,0-.24-.92.86.86,0,0,0-.71-.3C88.89,206.91,88.58,207.31,88.58,208.13Z"/>
    <path d="M93.34,206.47a2.17,2.17,0,0,1,.38,0l-.06.49a1.45,1.45,0,0,0-.35,0,.84.84,0,0,0-.48.14.93.93,0,0,0-.34.39,1.19,1.19,0,0,0-.12.54v1.72h-.53v-3.22h.44l0,.59h0a1.45,1.45,0,0,1,.43-.48A1,1,0,0,1,93.34,206.47Z"/>
    <path d="M95.4,209.37l.24,0,.2,0v.41l-.22.06a1.73,1.73,0,0,1-.32,0c-.62,0-.94-.33-.94-1v-1.88h-.45v-.25l.46-.21.21-.68h.31v.73h.93v.41h-.93v1.86a.62.62,0,0,0,.14.43A.45.45,0,0,0,95.4,209.37Z"/>
    <path d="M98,206.93h-.81v2.81h-.53v-2.81h-.56v-.24l.56-.18v-.19a1.32,1.32,0,0,1,.25-.88,1,1,0,0,1,.79-.29,2,2,0,0,1,.63.11l-.14.41a1.54,1.54,0,0,0-.48-.09.43.43,0,0,0-.39.18.93.93,0,0,0-.13.56v.2H98Z"/>
    <path d="M101.35,208.13a1.82,1.82,0,0,1-.4,1.23,1.44,1.44,0,0,1-1.1.44,1.53,1.53,0,0,1-.78-.2,1.36,1.36,0,0,1-.52-.59,2,2,0,0,1-.18-.88,1.8,1.8,0,0,1,.39-1.23,1.42,1.42,0,0,1,1.11-.43,1.41,1.41,0,0,1,1.08.44A1.81,1.81,0,0,1,101.35,208.13Zm-2.43,0a1.51,1.51,0,0,0,.24.92.81.81,0,0,0,.7.31.82.82,0,0,0,.7-.31,1.51,1.51,0,0,0,.24-.92,1.49,1.49,0,0,0-.24-.92.86.86,0,0,0-.71-.3C99.23,206.91,98.92,207.31,98.92,208.13Z"/>
    <path d="M102.71,209.74h-.53v-4.56h.53Z"/>
    <path d="M103.69,205.65a.32.32,0,0,1,.09-.25.33.33,0,0,1,.22-.08.32.32,0,0,1,.21.08.32.32,0,0,1,.09.25.34.34,0,0,1-.09.26.32.32,0,0,1-.21.08.33.33,0,0,1-.22-.08A.34.34,0,0,1,103.69,205.65Zm.56,4.09h-.52v-3.22h.52Z"/>
    <path d="M108.07,208.13a1.77,1.77,0,0,1-.4,1.23,1.41,1.41,0,0,1-1.1.44,1.5,1.5,0,0,1-.77-.2,1.3,1.3,0,0,1-.52-.59,2,2,0,0,1-.18-.88,1.8,1.8,0,0,1,.39-1.23,1.58,1.58,0,0,1,2.18,0A1.76,1.76,0,0,1,108.07,208.13Zm-2.43,0a1.51,1.51,0,0,0,.24.92.95.95,0,0,0,1.4,0,1.51,1.51,0,0,0,.24-.92,1.49,1.49,0,0,0-.24-.92.84.84,0,0,0-.7-.3C106,206.91,105.64,207.31,105.64,208.13Z"/>
  </g>
  <g>
    <path d="M144.2,188.14h-.54v-3.81h-1.34v-.47h3.21v.47H144.2Z"/>
    <path d="M148.7,186.53a1.82,1.82,0,0,1-.4,1.23,1.42,1.42,0,0,1-1.1.44,1.56,1.56,0,0,1-.78-.2,1.34,1.34,0,0,1-.51-.59,1.9,1.9,0,0,1-.19-.88,1.75,1.75,0,0,1,.4-1.23,1.58,1.58,0,0,1,2.18,0A1.81,1.81,0,0,1,148.7,186.53Zm-2.43,0a1.51,1.51,0,0,0,.24.92.95.95,0,0,0,1.4,0,1.51,1.51,0,0,0,.24-.92,1.49,1.49,0,0,0-.24-.92.86.86,0,0,0-.71-.3C146.58,185.31,146.27,185.71,146.27,186.53Z"/>
    <path d="M151.05,184.05a.32.32,0,0,1,.09-.25.33.33,0,0,1,.22-.08.37.37,0,0,1,.22.08.32.32,0,0,1,.09.25.34.34,0,0,1-.09.26.37.37,0,0,1-.22.08.33.33,0,0,1-.22-.08A.34.34,0,0,1,151.05,184.05Zm.57,4.09h-.53v-3.22h.53Z"/>
    <path d="M154.83,188.14v-2.06a.82.82,0,0,0-.18-.58.67.67,0,0,0-.54-.19.89.89,0,0,0-.72.27,1.42,1.42,0,0,0-.22.89v1.67h-.53v-3.22h.42l.08.44h0a1,1,0,0,1,.42-.36,1.31,1.31,0,0,1,.59-.13,1.19,1.19,0,0,1,.88.28,1.23,1.23,0,0,1,.29.9v2.09Z"/>
    <path d="M157.64,188.2a1.38,1.38,0,0,1-1.09-.43,1.78,1.78,0,0,1-.38-1.22,1.84,1.84,0,0,1,.39-1.25,1.41,1.41,0,0,1,1.11-.43,1.88,1.88,0,0,1,.47,0,1.55,1.55,0,0,1,.38.12l-.16.44a2.15,2.15,0,0,0-.7-.15.87.87,0,0,0-.72.3,1.9,1.9,0,0,0,0,1.81.84.84,0,0,0,.69.31,2,2,0,0,0,.83-.19V188A1.81,1.81,0,0,1,157.64,188.2Z"/>
    <path d="M160.73,184.87a2,2,0,0,1,.37,0l-.06.49a1.45,1.45,0,0,0-.35,0,.79.79,0,0,0-.47.14.87.87,0,0,0-.34.39,1.08,1.08,0,0,0-.13.54v1.72h-.52v-3.22h.43l.06.59h0a1.47,1.47,0,0,1,.44-.48A1,1,0,0,1,160.73,184.87Z"/>
    <path d="M163,188.2a1.48,1.48,0,0,1-1.13-.44,1.69,1.69,0,0,1-.41-1.2,1.86,1.86,0,0,1,.38-1.23,1.4,1.4,0,0,1,2-.07,1.5,1.5,0,0,1,.36,1.06v.32H162a1.27,1.27,0,0,0,.28.83,1,1,0,0,0,.75.28,2.63,2.63,0,0,0,.49,0,2.82,2.82,0,0,0,.54-.18V188a2.39,2.39,0,0,1-.5.16A3,3,0,0,1,163,188.2Zm-.13-2.9a.75.75,0,0,0-.59.24,1.14,1.14,0,0,0-.27.68h1.64a1,1,0,0,0-.21-.69A.72.72,0,0,0,162.88,185.3Z"/>
    <path d="M167,188.14l-.11-.46h0a1.25,1.25,0,0,1-.48.41,1.5,1.5,0,0,1-.6.11,1,1,0,0,1-.74-.25.9.9,0,0,1-.27-.7c0-.65.51-1,1.54-1l.54,0V186a.83.83,0,0,0-.15-.54.7.7,0,0,0-.51-.17,1.51,1.51,0,0,0-.48.07l-.43.17-.16-.39a1.87,1.87,0,0,1,.53-.2,2.24,2.24,0,0,1,.57-.08,1.27,1.27,0,0,1,.87.26,1.06,1.06,0,0,1,.28.82v2.19Zm-1.09-.36a1,1,0,0,0,.69-.24.9.9,0,0,0,.26-.68v-.29l-.48,0a1.73,1.73,0,0,0-.8.17.55.55,0,0,0-.26.49.47.47,0,0,0,.16.39A.62.62,0,0,0,165.93,187.78Z"/>
    <path d="M170.49,187.25a.8.8,0,0,1-.34.7,1.52,1.52,0,0,1-.94.25,2.18,2.18,0,0,1-1-.2v-.48a2.34,2.34,0,0,0,1,.26,1.06,1.06,0,0,0,.58-.13.41.41,0,0,0,.18-.35.4.4,0,0,0-.17-.32,2.75,2.75,0,0,0-.62-.3,3.61,3.61,0,0,1-.64-.3,1,1,0,0,1-.27-.28.8.8,0,0,1,.23-1,1.54,1.54,0,0,1,.89-.22,2.48,2.48,0,0,1,1,.21l-.17.42a2.49,2.49,0,0,0-.89-.2.92.92,0,0,0-.49.1.32.32,0,0,0-.17.29.35.35,0,0,0,.14.29,3.39,3.39,0,0,0,.68.32,2.86,2.86,0,0,1,.6.28.77.77,0,0,1,.28.29A.74.74,0,0,1,170.49,187.25Z"/>
    <path d="M172.64,188.2a1.51,1.51,0,0,1-1.14-.44,1.69,1.69,0,0,1-.41-1.2,1.81,1.81,0,0,1,.39-1.23,1.39,1.39,0,0,1,2-.07,1.5,1.5,0,0,1,.36,1.06v.32h-2.2a1.22,1.22,0,0,0,.28.83.94.94,0,0,0,.74.28,2.56,2.56,0,0,0,.49,0,2.43,2.43,0,0,0,.54-.18V188a2.07,2.07,0,0,1-.5.16A2.87,2.87,0,0,1,172.64,188.2Zm-.13-2.9a.77.77,0,0,0-.6.24,1.14,1.14,0,0,0-.26.68h1.64a1.13,1.13,0,0,0-.21-.69A.75.75,0,0,0,172.51,185.3Z"/>
    <path d="M132.93,195.4a1.37,1.37,0,0,1-1.08-.43,1.74,1.74,0,0,1-.39-1.22,1.84,1.84,0,0,1,.39-1.25,1.45,1.45,0,0,1,1.12-.43,1.8,1.8,0,0,1,.46.05,1.42,1.42,0,0,1,.38.12l-.16.44a2.05,2.05,0,0,0-.69-.15.84.84,0,0,0-.72.3,1.56,1.56,0,0,0-.23.92,1.52,1.52,0,0,0,.23.89.81.81,0,0,0,.69.31,2,2,0,0,0,.83-.19v.47A1.86,1.86,0,0,1,132.93,195.4Z"/>
    <path d="M137.32,193.73a1.82,1.82,0,0,1-.4,1.23,1.42,1.42,0,0,1-1.1.44,1.56,1.56,0,0,1-.78-.2,1.34,1.34,0,0,1-.51-.59,1.9,1.9,0,0,1-.19-.88,1.75,1.75,0,0,1,.4-1.23,1.58,1.58,0,0,1,2.18,0A1.81,1.81,0,0,1,137.32,193.73Zm-2.43,0a1.51,1.51,0,0,0,.24.92.95.95,0,0,0,1.4,0,1.51,1.51,0,0,0,.24-.92,1.49,1.49,0,0,0-.24-.92.86.86,0,0,0-.71-.3C135.2,192.51,134.89,192.92,134.89,193.73Z"/>
    <path d="M142.24,195.34v-2.07c0-.51-.21-.76-.65-.76a.81.81,0,0,0-.66.26,1.25,1.25,0,0,0-.21.8v1.77h-.52v-2.07a.92.92,0,0,0-.16-.57.62.62,0,0,0-.5-.19.75.75,0,0,0-.65.27,1.47,1.47,0,0,0-.21.89v1.67h-.53v-3.22h.43l.08.44h0a1,1,0,0,1,.38-.36,1.18,1.18,0,0,1,.56-.13,1,1,0,0,1,1,.54h0a1,1,0,0,1,.42-.4,1.22,1.22,0,0,1,.61-.14,1.1,1.1,0,0,1,.82.28,1.26,1.26,0,0,1,.27.9v2.09Z"/>
    <path d="M145.29,195.4a1.14,1.14,0,0,1-1-.47h0l0,.12c0,.16,0,.29,0,.41v1.32h-.53v-4.66h.44l.07.44h0a1.18,1.18,0,0,1,.43-.38,1.48,1.48,0,0,1,.57-.11,1.19,1.19,0,0,1,1,.43,1.94,1.94,0,0,1,.34,1.23,1.91,1.91,0,0,1-.35,1.23A1.17,1.17,0,0,1,145.29,195.4Zm-.09-2.89a.82.82,0,0,0-.69.27,1.36,1.36,0,0,0-.22.84v.11a1.55,1.55,0,0,0,.22.94.79.79,0,0,0,.7.29.73.73,0,0,0,.63-.32,1.62,1.62,0,0,0,.23-.92,1.53,1.53,0,0,0-.23-.9A.74.74,0,0,0,145.2,192.51Z"/>
    <path d="M148.82,195.4a1.48,1.48,0,0,1-1.13-.44,1.65,1.65,0,0,1-.41-1.2,1.81,1.81,0,0,1,.38-1.23,1.26,1.26,0,0,1,1-.46,1.24,1.24,0,0,1,1,.39,1.5,1.5,0,0,1,.36,1.06v.32h-2.2a1.22,1.22,0,0,0,.28.83,1,1,0,0,0,.75.28,2.45,2.45,0,0,0,.48,0,2.68,2.68,0,0,0,.55-.18v.46a2.39,2.39,0,0,1-.5.16A3,3,0,0,1,148.82,195.4Zm-.13-2.9a.78.78,0,0,0-.6.24,1.2,1.2,0,0,0-.26.68h1.64a1.07,1.07,0,0,0-.21-.69A.72.72,0,0,0,148.69,192.5Z"/>
    <path d="M151.91,195l.24,0a.81.81,0,0,0,.21,0v.41l-.23.06a1.55,1.55,0,0,1-.31,0c-.63,0-.94-.33-.94-1v-1.87h-.46v-.26l.46-.21.22-.68h.31v.73h.93v.42h-.93v1.85a.61.61,0,0,0,.13.43A.47.47,0,0,0,151.91,195Z"/>
    <path d="M153,191.25a.32.32,0,0,1,.09-.25.33.33,0,0,1,.22-.08.35.35,0,0,1,.22.08.32.32,0,0,1,.09.25.33.33,0,0,1-.09.26.35.35,0,0,1-.22.08.3.3,0,0,1-.31-.34Zm.57,4.09H153v-3.22h.53Z"/>
    <path d="M155.62,195l.25,0a.64.64,0,0,0,.2,0v.41l-.22.06a1.73,1.73,0,0,1-.32,0c-.63,0-.94-.33-.94-1v-1.87h-.45v-.26l.46-.21.21-.68h.31v.73h.93v.42h-.93v1.85a.67.67,0,0,0,.13.43A.48.48,0,0,0,155.62,195Z"/>
    <path d="M156.67,191.25a.32.32,0,0,1,.09-.25.35.35,0,0,1,.22-.08.33.33,0,0,1,.22.08.32.32,0,0,1,.09.25.3.3,0,0,1-.31.34.35.35,0,0,1-.22-.08A.33.33,0,0,1,156.67,191.25Zm.57,4.09h-.53v-3.22h.53Z"/>
    <path d="M159,195.34l-1.22-3.22h.57L159,194c.13.38.22.67.26.85h0s0-.05,0-.08l0-.11s.09-.26.22-.66l.69-1.9h.56l-1.22,3.22Z"/>
    <path d="M162.68,195.4a1.5,1.5,0,0,1-1.14-.44,1.69,1.69,0,0,1-.41-1.2,1.86,1.86,0,0,1,.38-1.23,1.29,1.29,0,0,1,1-.46,1.25,1.25,0,0,1,1,.39,1.5,1.5,0,0,1,.36,1.06v.32h-2.21a1.27,1.27,0,0,0,.28.83,1,1,0,0,0,.75.28,2.56,2.56,0,0,0,.49,0,2.82,2.82,0,0,0,.54-.18v.46a2.21,2.21,0,0,1-.5.16A3,3,0,0,1,162.68,195.4Zm-.14-2.9a.75.75,0,0,0-.59.24,1.08,1.08,0,0,0-.26.68h1.63a1.07,1.07,0,0,0-.2-.69A.75.75,0,0,0,162.54,192.5Z"/>
    <path d="M166.88,195.34v-2.05a.83.83,0,0,0-.17-.59.71.71,0,0,0-.55-.19.89.89,0,0,0-.72.27,1.42,1.42,0,0,0-.22.89v1.67h-.53v-3.22h.43l.08.44h0a1,1,0,0,1,.42-.36,1.32,1.32,0,0,1,.6-.13,1.21,1.21,0,0,1,.88.28,1.23,1.23,0,0,1,.28.9v2.09Z"/>
    <path d="M169.77,195.4a1.51,1.51,0,0,1-1.14-.44,1.69,1.69,0,0,1-.41-1.2,1.81,1.81,0,0,1,.39-1.23,1.39,1.39,0,0,1,2-.07,1.5,1.5,0,0,1,.36,1.06v.32h-2.2a1.27,1.27,0,0,0,.27.83,1,1,0,0,0,.75.28,2.56,2.56,0,0,0,.49,0,2.43,2.43,0,0,0,.54-.18v.46a2.07,2.07,0,0,1-.5.16A2.87,2.87,0,0,1,169.77,195.4Zm-.13-2.9a.77.77,0,0,0-.6.24,1.14,1.14,0,0,0-.26.68h1.64a1.13,1.13,0,0,0-.21-.69A.75.75,0,0,0,169.64,192.5Z"/>
    <path d="M173.88,194.45a.8.8,0,0,1-.34.7,1.52,1.52,0,0,1-.94.25,2.18,2.18,0,0,1-1-.2v-.48a2.34,2.34,0,0,0,1,.26,1.08,1.08,0,0,0,.58-.13.41.41,0,0,0,.18-.35.4.4,0,0,0-.17-.32,2.75,2.75,0,0,0-.62-.3,3.61,3.61,0,0,1-.64-.3.79.79,0,0,1-.27-.28.8.8,0,0,1,.23-1,1.54,1.54,0,0,1,.89-.22,2.52,2.52,0,0,1,1,.21l-.18.42a2.4,2.4,0,0,0-.88-.2,1,1,0,0,0-.5.1.34.34,0,0,0-.17.29.36.36,0,0,0,.15.29,3.12,3.12,0,0,0,.68.32,2.86,2.86,0,0,1,.6.28.86.86,0,0,1,.28.29A.74.74,0,0,1,173.88,194.45Z"/>
    <path d="M176.75,194.45a.82.82,0,0,1-.33.7,1.56,1.56,0,0,1-.95.25,2.21,2.21,0,0,1-1-.2v-.48a2.34,2.34,0,0,0,1,.26,1.06,1.06,0,0,0,.58-.13.41.41,0,0,0,.18-.35.37.37,0,0,0-.17-.32,2.54,2.54,0,0,0-.62-.3,4,4,0,0,1-.64-.3,1,1,0,0,1-.27-.28.76.76,0,0,1-.09-.38.74.74,0,0,1,.33-.63,1.51,1.51,0,0,1,.88-.22,2.53,2.53,0,0,1,1,.21l-.18.42a2.45,2.45,0,0,0-.89-.2.94.94,0,0,0-.49.1.32.32,0,0,0-.17.29.38.38,0,0,0,.14.29,3.29,3.29,0,0,0,.69.32,3,3,0,0,1,.59.28.77.77,0,0,1,.28.29A.74.74,0,0,1,176.75,194.45Z"/>
    <path d="M180.62,192.07a1.19,1.19,0,0,1,1,.44,2.35,2.35,0,0,1,0,2.45,1.15,1.15,0,0,1-1,.44,1.34,1.34,0,0,1-.58-.12,1,1,0,0,1-.42-.35h0c-.06.24-.1.37-.11.41h-.38v-4.56h.53v1.11q0,.33,0,.66h0A1.13,1.13,0,0,1,180.62,192.07Zm-.09.44a.83.83,0,0,0-.7.27,1.61,1.61,0,0,0-.21.94v0a1.61,1.61,0,0,0,.21.94.84.84,0,0,0,.71.28.71.71,0,0,0,.64-.31,1.61,1.61,0,0,0,.22-.92,1.56,1.56,0,0,0-.22-.92A.74.74,0,0,0,180.53,192.51Z"/>
    <path d="M182.22,192.12h.57l.69,1.84a5.09,5.09,0,0,1,.27.87h0l.12-.4c.07-.2.12-.36.16-.48l.66-1.83h.56l-1.38,3.67a1.91,1.91,0,0,1-.48.76,1,1,0,0,1-.69.23,1.65,1.65,0,0,1-.44-.05v-.42a1.25,1.25,0,0,0,.35,0,.69.69,0,0,0,.43-.14,1,1,0,0,0,.29-.43l.17-.43Z"/>
    <path d="M133.06,202.6a1.37,1.37,0,0,1-1.08-.43,1.78,1.78,0,0,1-.38-1.22,1.84,1.84,0,0,1,.39-1.25,1.41,1.41,0,0,1,1.11-.43,1.88,1.88,0,0,1,.47,0,1.55,1.55,0,0,1,.38.12l-.16.44a2.15,2.15,0,0,0-.7-.15.87.87,0,0,0-.72.3,1.56,1.56,0,0,0-.23.92,1.52,1.52,0,0,0,.23.89.84.84,0,0,0,.69.31,2,2,0,0,0,.83-.19v.47A1.86,1.86,0,0,1,133.06,202.6Z"/>
    <path d="M137.45,200.93a1.77,1.77,0,0,1-.4,1.23,1.41,1.41,0,0,1-1.1.44,1.5,1.5,0,0,1-.77-.2,1.3,1.3,0,0,1-.52-.59,2,2,0,0,1-.18-.88,1.8,1.8,0,0,1,.39-1.23,1.58,1.58,0,0,1,2.18,0A1.76,1.76,0,0,1,137.45,200.93Zm-2.43,0a1.51,1.51,0,0,0,.24.92.82.82,0,0,0,.7.31.85.85,0,0,0,.71-.31,1.51,1.51,0,0,0,.24-.92,1.48,1.48,0,0,0-.25-.92.84.84,0,0,0-.7-.3C135.33,199.71,135,200.12,135,200.93Z"/>
    <path d="M140.48,202.54v-2a.83.83,0,0,0-.18-.59.68.68,0,0,0-.54-.19.89.89,0,0,0-.72.27,1.43,1.43,0,0,0-.23.9v1.66h-.52v-3.21h.42l.08.43h0a1,1,0,0,1,.42-.36,1.31,1.31,0,0,1,.59-.13,1.19,1.19,0,0,1,.88.28,1.25,1.25,0,0,1,.29.9v2.09Z"/>
    <path d="M143.07,202.17l.24,0a.81.81,0,0,0,.21-.05v.41l-.23.06a1.63,1.63,0,0,1-.31,0c-.63,0-.94-.33-.94-1v-1.87h-.46v-.26l.46-.21.21-.68h.32v.74h.92v.41h-.92v1.85a.61.61,0,0,0,.13.43A.47.47,0,0,0,143.07,202.17Z"/>
    <path d="M145.66,199.27a2.17,2.17,0,0,1,.38,0l-.07.49a1.39,1.39,0,0,0-.35,0,.81.81,0,0,0-.47.14.93.93,0,0,0-.34.39,1.2,1.2,0,0,0-.12.55v1.71h-.53v-3.21h.43l.06.58h0a1.47,1.47,0,0,1,.44-.48A1,1,0,0,1,145.66,199.27Z"/>
    <path d="M149.37,200.93a1.81,1.81,0,0,1-.39,1.23,1.45,1.45,0,0,1-1.11.44,1.52,1.52,0,0,1-.77-.2,1.36,1.36,0,0,1-.52-.59,2,2,0,0,1-.18-.88,1.8,1.8,0,0,1,.39-1.23,1.4,1.4,0,0,1,1.1-.43,1.38,1.38,0,0,1,1.08.44A1.76,1.76,0,0,1,149.37,200.93Zm-2.42,0a1.58,1.58,0,0,0,.23.92.84.84,0,0,0,.71.31.82.82,0,0,0,.7-.31,1.51,1.51,0,0,0,.24-.92,1.49,1.49,0,0,0-.24-.92.86.86,0,0,0-.71-.3C147.26,199.71,147,200.12,147,200.93Z"/>
    <path d="M150.74,202.54h-.53V198h.53Z"/>
    <path d="M152.28,202.54h-.52V198h.52Z"/>
    <path d="M153.26,198.46a.3.3,0,0,1,.31-.34.35.35,0,0,1,.22.08.33.33,0,0,1,.09.26.32.32,0,0,1-.09.25.35.35,0,0,1-.22.08.33.33,0,0,1-.22-.08A.32.32,0,0,1,153.26,198.46Zm.57,4.08h-.53v-3.21h.53Z"/>
    <path d="M157,202.54v-2a.88.88,0,0,0-.17-.59.71.71,0,0,0-.55-.19.89.89,0,0,0-.72.27,1.43,1.43,0,0,0-.22.9v1.66h-.53v-3.21h.42l.08.43h0a1,1,0,0,1,.42-.36,1.32,1.32,0,0,1,.6-.13,1.22,1.22,0,0,1,.88.28,1.25,1.25,0,0,1,.28.9v2.09Z"/>
    <path d="M160.71,202.51v-.39h0a1.13,1.13,0,0,1-1,.48,1.17,1.17,0,0,1-1-.43,1.94,1.94,0,0,1-.35-1.23,2,2,0,0,1,.35-1.23,1.3,1.3,0,0,1,2,0h0l.07-.42h.42v3.26a1.4,1.4,0,0,1-.35,1,1.47,1.47,0,0,1-1.09.35,2.78,2.78,0,0,1-1.16-.2v-.49a2.47,2.47,0,0,0,1.19.25.83.83,0,0,0,.89-.9Zm-.93-.34a.89.89,0,0,0,.71-.26,1.3,1.3,0,0,0,.22-.84v-.13a1.57,1.57,0,0,0-.22-.94.86.86,0,0,0-.72-.29.7.7,0,0,0-.62.32,1.58,1.58,0,0,0-.23.92,1.65,1.65,0,0,0,.22.91A.72.72,0,0,0,159.78,202.17Z"/>
    <path d="M165.79,202.54l-.1-.46h0a1.25,1.25,0,0,1-.48.41,1.5,1.5,0,0,1-.6.11,1,1,0,0,1-.75-.25.9.9,0,0,1-.27-.7c0-.65.52-1,1.55-1l.54,0v-.19a.77.77,0,0,0-.16-.54.66.66,0,0,0-.5-.17,1.51,1.51,0,0,0-.48.07l-.43.17-.16-.39a1.87,1.87,0,0,1,.53-.2,2.24,2.24,0,0,1,.57-.08,1.23,1.23,0,0,1,.86.26,1.06,1.06,0,0,1,.29.82v2.19Zm-1.08-.36a1,1,0,0,0,.69-.24.9.9,0,0,0,.26-.68V201l-.48,0a1.54,1.54,0,0,0-.8.18.52.52,0,0,0-.26.48.47.47,0,0,0,.16.39A.62.62,0,0,0,164.71,202.18Z"/>
    <path d="M169.26,202.54h-.53V198h.53Z"/>
    <path d="M172.27,202.54l-.11-.46h0a1.25,1.25,0,0,1-.48.41,1.5,1.5,0,0,1-.6.11,1,1,0,0,1-.74-.25.9.9,0,0,1-.27-.7c0-.65.51-1,1.54-1l.54,0v-.19a.83.83,0,0,0-.15-.54.7.7,0,0,0-.51-.17,1.51,1.51,0,0,0-.48.07l-.43.17-.16-.39a1.87,1.87,0,0,1,.53-.2,2.24,2.24,0,0,1,.57-.08,1.27,1.27,0,0,1,.87.26,1.06,1.06,0,0,1,.28.82v2.19Zm-1.09-.36a1,1,0,0,0,.7-.24.93.93,0,0,0,.25-.68V201l-.48,0a1.6,1.6,0,0,0-.8.18.52.52,0,0,0-.26.48.47.47,0,0,0,.16.39A.62.62,0,0,0,171.18,202.18Z"/>
    <path d="M175.15,199.27a2,2,0,0,1,.37,0l-.06.49a1.45,1.45,0,0,0-.35,0,.79.79,0,0,0-.47.14.87.87,0,0,0-.34.39,1.09,1.09,0,0,0-.13.55v1.71h-.52v-3.21h.43l.06.58h0a1.47,1.47,0,0,1,.44-.48A1,1,0,0,1,175.15,199.27Z"/>
    <path d="M178.24,202.51l0-.39h0a1.13,1.13,0,0,1-1,.48,1.17,1.17,0,0,1-1-.43,1.88,1.88,0,0,1-.35-1.23,2,2,0,0,1,.35-1.23,1.19,1.19,0,0,1,1-.44,1.16,1.16,0,0,1,1,.48h0l.07-.42h.41v3.26a1.36,1.36,0,0,1-.35,1,1.43,1.43,0,0,1-1.08.35,2.78,2.78,0,0,1-1.16-.2v-.49a2.47,2.47,0,0,0,1.19.25.84.84,0,0,0,.64-.24.89.89,0,0,0,.24-.66Zm-.92-.34a.91.91,0,0,0,.71-.26,1.3,1.3,0,0,0,.22-.84v-.13A1.65,1.65,0,0,0,178,200a.86.86,0,0,0-.72-.29.73.73,0,0,0-.63.32,1.66,1.66,0,0,0-.22.92,1.57,1.57,0,0,0,.22.91A.72.72,0,0,0,177.32,202.17Z"/>
    <path d="M181.16,202.6a1.45,1.45,0,0,1-1.14-.44,1.69,1.69,0,0,1-.41-1.2,1.86,1.86,0,0,1,.38-1.23,1.4,1.4,0,0,1,2-.07,1.5,1.5,0,0,1,.36,1.06V201h-2.21a1.27,1.27,0,0,0,.28.83,1,1,0,0,0,.75.28,2.63,2.63,0,0,0,.49,0,2.82,2.82,0,0,0,.54-.18v.46a2.21,2.21,0,0,1-.5.16A3,3,0,0,1,181.16,202.6Zm-.14-2.9a.75.75,0,0,0-.59.24,1.08,1.08,0,0,0-.26.68h1.63a1,1,0,0,0-.21-.69A.72.72,0,0,0,181,199.7Z"/>
    <path d="M184.67,199.27a2.17,2.17,0,0,1,.38,0l-.07.49a1.32,1.32,0,0,0-.34,0,.84.84,0,0,0-.48.14.93.93,0,0,0-.34.39,1.2,1.2,0,0,0-.12.55v1.71h-.53v-3.21h.43l.06.58h0a1.45,1.45,0,0,1,.43-.48A1,1,0,0,1,184.67,199.27Z"/>
    <path d="M131.44,208.85a.8.8,0,0,1-.34.7,1.52,1.52,0,0,1-.94.25,2.18,2.18,0,0,1-1-.2v-.48a2.34,2.34,0,0,0,1,.26,1.06,1.06,0,0,0,.58-.13.42.42,0,0,0,.18-.35.4.4,0,0,0-.17-.32,2.75,2.75,0,0,0-.62-.3,3.61,3.61,0,0,1-.64-.3,1,1,0,0,1-.27-.28.76.76,0,0,1-.09-.38.75.75,0,0,1,.32-.63,1.54,1.54,0,0,1,.89-.22,2.48,2.48,0,0,1,1,.21l-.17.42a2.26,2.26,0,0,0-.89-.2.92.92,0,0,0-.49.1.32.32,0,0,0-.17.29.35.35,0,0,0,.14.29,3.39,3.39,0,0,0,.68.32,2.86,2.86,0,0,1,.6.28.77.77,0,0,1,.28.29A.74.74,0,0,1,131.44,208.85Z"/>
    <path d="M134.41,209.74v-2.06a.87.87,0,0,0-.17-.58.71.71,0,0,0-.55-.19.91.91,0,0,0-.72.27,1.42,1.42,0,0,0-.22.9v1.66h-.53v-4.56h.53v1.34a3,3,0,0,1,0,.45h0a1,1,0,0,1,.41-.37,1.47,1.47,0,0,1,.6-.13,1.27,1.27,0,0,1,.88.28,1.23,1.23,0,0,1,.29.9v2.09Z"/>
    <path d="M137.92,209.74l-.11-.46h0a1.25,1.25,0,0,1-.48.41,1.5,1.5,0,0,1-.6.11,1,1,0,0,1-.75-.25.94.94,0,0,1-.26-.7c0-.65.51-1,1.54-1l.54,0v-.19a.83.83,0,0,0-.15-.54.7.7,0,0,0-.51-.17,1.51,1.51,0,0,0-.48.07l-.43.17-.16-.39a2.25,2.25,0,0,1,.53-.21,2.78,2.78,0,0,1,.57-.07,1.27,1.27,0,0,1,.87.26,1,1,0,0,1,.28.82v2.19Zm-1.09-.36a1,1,0,0,0,.7-.24.93.93,0,0,0,.25-.68v-.29l-.48,0a1.7,1.7,0,0,0-.8.17.55.55,0,0,0-.26.49.47.47,0,0,0,.16.39A.62.62,0,0,0,136.83,209.38Z"/>
    <path d="M140.8,206.47a2.05,2.05,0,0,1,.37,0l-.06.49a1.45,1.45,0,0,0-.35,0,.79.79,0,0,0-.47.14.87.87,0,0,0-.34.39,1.08,1.08,0,0,0-.13.54v1.72h-.52v-3.22h.43l.06.59h0a1.37,1.37,0,0,1,.44-.48A1,1,0,0,1,140.8,206.47Z"/>
    <path d="M143.08,209.8a1.48,1.48,0,0,1-1.13-.44,1.65,1.65,0,0,1-.41-1.2,1.91,1.91,0,0,1,.38-1.24,1.3,1.3,0,0,1,1-.45,1.24,1.24,0,0,1,1,.39,1.46,1.46,0,0,1,.37,1.06v.32h-2.21a1.22,1.22,0,0,0,.28.83,1,1,0,0,0,.75.28,2.63,2.63,0,0,0,.49,0,2.82,2.82,0,0,0,.54-.18v.46a2.39,2.39,0,0,1-.5.16A3,3,0,0,1,143.08,209.8Zm-.13-2.9a.78.78,0,0,0-.6.24,1.2,1.2,0,0,0-.26.68h1.64a1,1,0,0,0-.21-.69A.69.69,0,0,0,143,206.9Z"/>
    <path d="M149.45,208.13a1.77,1.77,0,0,1-.4,1.23,1.41,1.41,0,0,1-1.1.44,1.5,1.5,0,0,1-.77-.2,1.36,1.36,0,0,1-.52-.59,2,2,0,0,1-.18-.88,1.8,1.8,0,0,1,.39-1.23,1.4,1.4,0,0,1,1.1-.43,1.38,1.38,0,0,1,1.08.44A1.76,1.76,0,0,1,149.45,208.13Zm-2.43,0a1.51,1.51,0,0,0,.24.92,1,1,0,0,0,1.41,0,1.51,1.51,0,0,0,.24-.92,1.49,1.49,0,0,0-.24-.92.86.86,0,0,0-.71-.3C147.34,206.91,147,207.31,147,208.13Z"/>
    <path d="M151.77,206.93H151v2.81h-.53v-2.81h-.56v-.24l.56-.18v-.19a1.32,1.32,0,0,1,.26-.88,1,1,0,0,1,.79-.29,2,2,0,0,1,.62.11l-.14.41a1.54,1.54,0,0,0-.48-.09.45.45,0,0,0-.39.18.93.93,0,0,0-.13.56v.2h.81Z"/>
    <path d="M155.05,209.8a1.16,1.16,0,0,1-1-.43,2.34,2.34,0,0,1,0-2.46,1.16,1.16,0,0,1,1-.44,1.14,1.14,0,0,1,1,.47h0s0-.12,0-.24,0-.19,0-.23v-1.29h.53v4.56h-.42l-.08-.43h0A1.11,1.11,0,0,1,155.05,209.8Zm.09-.44a.85.85,0,0,0,.7-.26,1.31,1.31,0,0,0,.22-.86v-.1a1.64,1.64,0,0,0-.22-.95.86.86,0,0,0-.71-.29.72.72,0,0,0-.63.33,1.58,1.58,0,0,0-.22.92,1.55,1.55,0,0,0,.22.91A.75.75,0,0,0,155.14,209.36Z"/>
    <path d="M157.56,205.65a.32.32,0,0,1,.09-.25.35.35,0,0,1,.22-.08.33.33,0,0,1,.22.08.32.32,0,0,1,.09.25.34.34,0,0,1-.09.26.33.33,0,0,1-.22.08.35.35,0,0,1-.22-.08A.34.34,0,0,1,157.56,205.65Zm.57,4.09h-.53v-3.22h.53Z"/>
    <path d="M161.3,209.71l0-.39h0a1.11,1.11,0,0,1-1,.48,1.16,1.16,0,0,1-1-.44,1.89,1.89,0,0,1-.35-1.22,2,2,0,0,1,.35-1.23,1.3,1.3,0,0,1,2,0h0l.07-.43h.42v3.27a1.42,1.42,0,0,1-.35,1,1.46,1.46,0,0,1-1.09.35,3,3,0,0,1-1.16-.2v-.49a2.5,2.5,0,0,0,1.19.25.83.83,0,0,0,.89-.9Zm-.92-.34a.87.87,0,0,0,.7-.26,1.31,1.31,0,0,0,.22-.85v-.12a1.57,1.57,0,0,0-.22-.94.86.86,0,0,0-.72-.29.68.68,0,0,0-.62.32,1.57,1.57,0,0,0-.22.91,1.67,1.67,0,0,0,.21.92A.76.76,0,0,0,160.38,209.37Z"/>
    <path d="M162.8,205.65a.32.32,0,0,1,.09-.25.33.33,0,0,1,.22-.08.35.35,0,0,1,.22.08.32.32,0,0,1,.09.25.34.34,0,0,1-.09.26.35.35,0,0,1-.22.08.33.33,0,0,1-.22-.08A.34.34,0,0,1,162.8,205.65Zm.57,4.09h-.53v-3.22h.53Z"/>
    <path d="M165.46,209.37l.24,0a1.07,1.07,0,0,0,.21,0v.41l-.22.06a1.73,1.73,0,0,1-.32,0c-.63,0-.94-.33-.94-1v-1.88H164v-.25l.46-.21.21-.68H165v.73h.93v.41H165v1.86a.61.61,0,0,0,.13.43A.48.48,0,0,0,165.46,209.37Z"/>
    <path d="M168.54,209.74l-.1-.46h0a1.31,1.31,0,0,1-.47.41,1.51,1.51,0,0,1-.61.11,1,1,0,0,1-.74-.25.91.91,0,0,1-.27-.7c0-.65.51-1,1.54-1l.55,0v-.19a.77.77,0,0,0-.16-.54.68.68,0,0,0-.51-.17,1.51,1.51,0,0,0-.48.07l-.43.17-.16-.39a2.44,2.44,0,0,1,.53-.21,2.86,2.86,0,0,1,.57-.07,1.27,1.27,0,0,1,.87.26,1,1,0,0,1,.28.82v2.19Zm-1.09-.36a1,1,0,0,0,.7-.24.89.89,0,0,0,.25-.68v-.29l-.47,0a1.75,1.75,0,0,0-.81.17.54.54,0,0,0-.25.49.5.5,0,0,0,.15.39A.63.63,0,0,0,167.45,209.38Z"/>
    <path d="M170.45,209.74h-.53v-4.56h.53Z"/>
    <path d="M173.73,209.74l-1.21-3.22h.56l.68,1.9a6.38,6.38,0,0,1,.26.85h0l0-.08,0-.11.21-.66.69-1.9h.56l-1.22,3.22Z"/>
    <path d="M178.06,209.74l-.1-.46h0a1.25,1.25,0,0,1-.48.41,1.5,1.5,0,0,1-.6.11,1,1,0,0,1-.74-.25.91.91,0,0,1-.27-.7c0-.65.51-1,1.54-1l.55,0v-.19a.83.83,0,0,0-.16-.54.7.7,0,0,0-.51-.17,1.51,1.51,0,0,0-.48.07l-.43.17-.16-.39a2.25,2.25,0,0,1,.53-.21,2.78,2.78,0,0,1,.57-.07,1.27,1.27,0,0,1,.87.26,1,1,0,0,1,.28.82v2.19Zm-1.09-.36a1,1,0,0,0,.7-.24.89.89,0,0,0,.25-.68v-.29l-.47,0a1.75,1.75,0,0,0-.81.17.54.54,0,0,0-.25.49.5.5,0,0,0,.15.39A.63.63,0,0,0,177,209.38Z"/>
    <path d="M180,209.74h-.53v-4.56H180Z"/>
    <path d="M181.48,206.52v2.08a.78.78,0,0,0,.18.57.67.67,0,0,0,.54.19.89.89,0,0,0,.72-.27,1.42,1.42,0,0,0,.22-.89v-1.68h.53v3.22h-.43l-.07-.42h0a.94.94,0,0,1-.41.35,1.31,1.31,0,0,1-.61.13,1.22,1.22,0,0,1-.88-.28,1.19,1.19,0,0,1-.29-.89v-2.11Z"/>
    <path d="M186.06,209.8a1.48,1.48,0,0,1-1.13-.44,1.65,1.65,0,0,1-.41-1.2,1.86,1.86,0,0,1,.38-1.24,1.3,1.3,0,0,1,1-.45,1.24,1.24,0,0,1,1,.39,1.5,1.5,0,0,1,.36,1.06v.32h-2.2a1.22,1.22,0,0,0,.28.83,1,1,0,0,0,.75.28,2.63,2.63,0,0,0,.49,0,2.82,2.82,0,0,0,.54-.18v.46a2.39,2.39,0,0,1-.5.16A3,3,0,0,1,186.06,209.8Zm-.13-2.9a.78.78,0,0,0-.6.24,1.2,1.2,0,0,0-.26.68h1.64a1,1,0,0,0-.21-.69A.69.69,0,0,0,185.93,206.9Z"/>
    <path d="M148.45,217a1.37,1.37,0,0,1-1.08-.43,1.74,1.74,0,0,1-.39-1.22,1.79,1.79,0,0,1,.4-1.25,1.4,1.4,0,0,1,1.11-.43,2.32,2.32,0,0,1,.46,0,1.85,1.85,0,0,1,.38.13l-.16.44a2.05,2.05,0,0,0-.69-.15.84.84,0,0,0-.72.3,1.9,1.9,0,0,0,0,1.81.81.81,0,0,0,.69.31,2,2,0,0,0,.83-.19v.47A1.86,1.86,0,0,1,148.45,217Z"/>
    <path d="M151.54,213.67a2.17,2.17,0,0,1,.38,0l-.06.49a1.45,1.45,0,0,0-.35,0,.84.84,0,0,0-.48.14.93.93,0,0,0-.34.39,1.19,1.19,0,0,0-.12.54v1.72H150v-3.22h.44l.05.59h0a1.45,1.45,0,0,1,.43-.48A1,1,0,0,1,151.54,213.67Z"/>
    <path d="M153.83,217a1.48,1.48,0,0,1-1.13-.44,1.66,1.66,0,0,1-.42-1.2,1.86,1.86,0,0,1,.39-1.24,1.28,1.28,0,0,1,1-.45,1.25,1.25,0,0,1,1,.39,1.5,1.5,0,0,1,.36,1.06v.32h-2.2a1.22,1.22,0,0,0,.28.83.94.94,0,0,0,.74.28,2.49,2.49,0,0,0,.49,0,2.43,2.43,0,0,0,.54-.18v.46a2.07,2.07,0,0,1-.5.16A2.87,2.87,0,0,1,153.83,217Zm-.13-2.9a.78.78,0,0,0-.6.24,1.14,1.14,0,0,0-.26.68h1.64a1.13,1.13,0,0,0-.21-.69A.71.71,0,0,0,153.7,214.1Z"/>
    <path d="M157.83,216.94l-.1-.46h0a1.25,1.25,0,0,1-.48.41,1.51,1.51,0,0,1-.61.11,1,1,0,0,1-.74-.25.91.91,0,0,1-.27-.7c0-.65.52-1,1.55-1l.54,0v-.19a.77.77,0,0,0-.16-.54.66.66,0,0,0-.5-.17,1.61,1.61,0,0,0-.49.07,4.08,4.08,0,0,0-.42.17L156,214a1.77,1.77,0,0,1,.53-.2,2.23,2.23,0,0,1,.56-.08,1.27,1.27,0,0,1,.87.26,1.06,1.06,0,0,1,.29.82v2.19Zm-1.08-.36a1,1,0,0,0,.69-.24.89.89,0,0,0,.25-.68v-.29l-.47,0a1.75,1.75,0,0,0-.81.17.54.54,0,0,0-.25.49.5.5,0,0,0,.15.39A.66.66,0,0,0,156.75,216.58Z"/>
    <path d="M160.29,216.57l.24,0a.81.81,0,0,0,.21-.05v.41l-.23.06a1.63,1.63,0,0,1-.31,0c-.63,0-.95-.33-.95-1v-1.88h-.45v-.25l.46-.21.21-.68h.31v.73h.93v.41h-.93V216a.62.62,0,0,0,.14.43A.47.47,0,0,0,160.29,216.57Z"/>
    <path d="M161.34,212.85a.32.32,0,0,1,.09-.25.31.31,0,0,1,.22-.08.32.32,0,0,1,.21.08.32.32,0,0,1,.09.25.34.34,0,0,1-.09.26.32.32,0,0,1-.21.08.31.31,0,0,1-.22-.08A.34.34,0,0,1,161.34,212.85Zm.56,4.09h-.52v-3.22h.52Z"/>
    <path d="M165.72,215.33a1.77,1.77,0,0,1-.4,1.23,1.42,1.42,0,0,1-1.1.44,1.5,1.5,0,0,1-.77-.2,1.3,1.3,0,0,1-.52-.59,2,2,0,0,1-.18-.88,1.8,1.8,0,0,1,.39-1.23,1.58,1.58,0,0,1,2.18,0A1.76,1.76,0,0,1,165.72,215.33Zm-2.43,0a1.51,1.51,0,0,0,.24.92.95.95,0,0,0,1.4,0,1.51,1.51,0,0,0,.24-.92,1.49,1.49,0,0,0-.24-.92.85.85,0,0,0-.71-.3C163.6,214.11,163.29,214.51,163.29,215.33Z"/>
    <path d="M168.75,216.94v-2.06a.82.82,0,0,0-.18-.58.69.69,0,0,0-.55-.19.9.9,0,0,0-.72.27,1.49,1.49,0,0,0-.22.89v1.67h-.53v-3.22H167l.08.44h0a1,1,0,0,1,.42-.36,1.28,1.28,0,0,1,.59-.13,1.19,1.19,0,0,1,.88.28,1.23,1.23,0,0,1,.29.9v2.09Z"/>
  </g>
  <g>
    <path d="M201.4,188.14h-.54v-3.81h-1.34v-.47h3.21v.47H201.4Z"/>
    <path d="M205.9,186.53a1.82,1.82,0,0,1-.4,1.23,1.42,1.42,0,0,1-1.1.44,1.56,1.56,0,0,1-.78-.2,1.34,1.34,0,0,1-.51-.59,1.9,1.9,0,0,1-.19-.88,1.75,1.75,0,0,1,.4-1.23,1.58,1.58,0,0,1,2.18,0A1.81,1.81,0,0,1,205.9,186.53Zm-2.43,0a1.51,1.51,0,0,0,.24.92.95.95,0,0,0,1.4,0,1.51,1.51,0,0,0,.24-.92,1.49,1.49,0,0,0-.24-.92.86.86,0,0,0-.71-.3C203.78,185.31,203.47,185.71,203.47,186.53Z"/>
    <path d="M210.38,187.25a.82.82,0,0,1-.33.7,1.56,1.56,0,0,1-1,.25,2.21,2.21,0,0,1-1-.2v-.48a2.41,2.41,0,0,0,1,.26,1.06,1.06,0,0,0,.58-.13.42.42,0,0,0,.19-.35.38.38,0,0,0-.18-.32,2.54,2.54,0,0,0-.62-.3,4.49,4.49,0,0,1-.64-.3,1,1,0,0,1-.27-.28.76.76,0,0,1-.08-.38.73.73,0,0,1,.32-.63,1.51,1.51,0,0,1,.88-.22,2.53,2.53,0,0,1,1,.21l-.18.42a2.45,2.45,0,0,0-.88-.2,1,1,0,0,0-.5.1.34.34,0,0,0-.17.29.36.36,0,0,0,.15.29,2.89,2.89,0,0,0,.68.32,2.74,2.74,0,0,1,.59.28.77.77,0,0,1,.28.29A.65.65,0,0,1,210.38,187.25Z"/>
    <path d="M212.45,188.2a1.37,1.37,0,0,1-1.08-.43,1.78,1.78,0,0,1-.38-1.22,1.84,1.84,0,0,1,.39-1.25,1.41,1.41,0,0,1,1.11-.43,1.88,1.88,0,0,1,.47,0,1.55,1.55,0,0,1,.38.12l-.17.44a2.05,2.05,0,0,0-.69-.15.87.87,0,0,0-.72.3,1.9,1.9,0,0,0,0,1.81.83.83,0,0,0,.69.31,2,2,0,0,0,.83-.19V188A1.86,1.86,0,0,1,212.45,188.2Z"/>
    <path d="M216,188.14l-.1-.46h0a1.31,1.31,0,0,1-.47.41,1.51,1.51,0,0,1-.61.11,1,1,0,0,1-.74-.25.9.9,0,0,1-.27-.7c0-.65.51-1,1.54-1l.55,0V186a.77.77,0,0,0-.16-.54.68.68,0,0,0-.51-.17,1.51,1.51,0,0,0-.48.07,4.08,4.08,0,0,0-.42.17l-.17-.39a1.94,1.94,0,0,1,.54-.2,2.23,2.23,0,0,1,.56-.08,1.27,1.27,0,0,1,.87.26,1.06,1.06,0,0,1,.28.82v2.19Zm-1.09-.36a1,1,0,0,0,.7-.24.89.89,0,0,0,.25-.68v-.29l-.47,0a1.75,1.75,0,0,0-.81.17.54.54,0,0,0-.25.49.5.5,0,0,0,.15.39A.63.63,0,0,0,214.94,187.78Z"/>
    <path d="M217.94,188.14h-.53v-4.56h.53Z"/>
    <path d="M220.33,188.2a1.48,1.48,0,0,1-1.14-.44,1.69,1.69,0,0,1-.41-1.2,1.86,1.86,0,0,1,.38-1.23,1.4,1.4,0,0,1,2-.07,1.5,1.5,0,0,1,.36,1.06v.32h-2.21a1.27,1.27,0,0,0,.28.83,1,1,0,0,0,.75.28,2.63,2.63,0,0,0,.49,0,2.82,2.82,0,0,0,.54-.18V188a2.21,2.21,0,0,1-.5.16A3,3,0,0,1,220.33,188.2Zm-.14-2.9a.75.75,0,0,0-.59.24,1.08,1.08,0,0,0-.26.68H221a1.07,1.07,0,0,0-.2-.69A.75.75,0,0,0,220.19,185.3Z"/>
    <path d="M225,188.2a1.16,1.16,0,0,1-1-.43,2.34,2.34,0,0,1,0-2.46,1.29,1.29,0,0,1,2,0h0s0-.12,0-.24,0-.19,0-.23v-1.29h.53v4.56h-.43l-.08-.43h0A1.12,1.12,0,0,1,225,188.2Zm.08-.44a.86.86,0,0,0,.71-.26,1.37,1.37,0,0,0,.22-.86v-.1a1.56,1.56,0,0,0-.23-.95.84.84,0,0,0-.7-.29.72.72,0,0,0-.63.33,1.58,1.58,0,0,0-.22.92,1.55,1.55,0,0,0,.22.91A.73.73,0,0,0,225.12,187.76Z"/>
    <path d="M227.55,184.05a.32.32,0,0,1,.09-.25.33.33,0,0,1,.22-.08.37.37,0,0,1,.22.08.32.32,0,0,1,.09.25.34.34,0,0,1-.09.26.37.37,0,0,1-.22.08.33.33,0,0,1-.22-.08A.34.34,0,0,1,227.55,184.05Zm.57,4.09h-.53v-3.22h.53Z"/>
    <path d="M231.29,188.11v-.39h0a1.13,1.13,0,0,1-1,.48,1.15,1.15,0,0,1-1-.44,1.89,1.89,0,0,1-.35-1.22,2,2,0,0,1,.35-1.23,1.3,1.3,0,0,1,2,0h0l.07-.43h.42v3.27a1.4,1.4,0,0,1-.35,1,1.47,1.47,0,0,1-1.09.35,3,3,0,0,1-1.16-.2v-.49a2.47,2.47,0,0,0,1.19.25.83.83,0,0,0,.89-.9Zm-.93-.34a.89.89,0,0,0,.71-.26,1.3,1.3,0,0,0,.22-.84v-.13a1.57,1.57,0,0,0-.22-.94.86.86,0,0,0-.72-.29.7.7,0,0,0-.62.32,1.57,1.57,0,0,0-.23.91,1.66,1.66,0,0,0,.22.92A.72.72,0,0,0,230.36,187.77Z"/>
    <path d="M232.79,184.05a.32.32,0,0,1,.09-.25.33.33,0,0,1,.22-.08.32.32,0,0,1,.21.08.29.29,0,0,1,.1.25.31.31,0,0,1-.1.26.32.32,0,0,1-.21.08.33.33,0,0,1-.22-.08A.34.34,0,0,1,232.79,184.05Zm.57,4.09h-.53v-3.22h.53Z"/>
    <path d="M235.45,187.77l.24,0a.81.81,0,0,0,.21-.05v.41l-.23.06a1.55,1.55,0,0,1-.31,0c-.63,0-.94-.33-.94-1v-1.88H234v-.25l.46-.21.21-.68H235v.73h.93v.41H235v1.86a.61.61,0,0,0,.13.43A.47.47,0,0,0,235.45,187.77Z"/>
    <path d="M238.53,188.14l-.1-.46h0a1.25,1.25,0,0,1-.48.41,1.5,1.5,0,0,1-.6.11,1,1,0,0,1-.74-.25.9.9,0,0,1-.27-.7c0-.65.51-1,1.54-1l.55,0V186a.83.83,0,0,0-.16-.54.7.7,0,0,0-.51-.17,1.51,1.51,0,0,0-.48.07l-.43.17-.16-.39a1.87,1.87,0,0,1,.53-.2,2.24,2.24,0,0,1,.57-.08,1.27,1.27,0,0,1,.87.26,1.06,1.06,0,0,1,.28.82v2.19Zm-1.09-.36a1,1,0,0,0,.7-.24.89.89,0,0,0,.25-.68v-.29l-.47,0a1.75,1.75,0,0,0-.81.17.54.54,0,0,0-.25.49.5.5,0,0,0,.15.39A.63.63,0,0,0,237.44,187.78Z"/>
    <path d="M240.44,188.14h-.53v-4.56h.53Z"/>
    <path d="M199.31,195.4a1.16,1.16,0,0,1-1-.43,2.34,2.34,0,0,1,0-2.46,1.16,1.16,0,0,1,1-.44,1.14,1.14,0,0,1,1,.47h0s0-.12,0-.24,0-.19,0-.23v-1.29h.53v4.56h-.42l-.08-.43h0A1.11,1.11,0,0,1,199.31,195.4Zm.09-.44a.85.85,0,0,0,.7-.26,1.31,1.31,0,0,0,.22-.86v-.09a1.58,1.58,0,0,0-.22-1,.86.86,0,0,0-.71-.29.72.72,0,0,0-.63.33,1.58,1.58,0,0,0-.22.92,1.55,1.55,0,0,0,.22.91A.75.75,0,0,0,199.4,195Z"/>
    <path d="M201.82,191.25a.32.32,0,0,1,.09-.25.35.35,0,0,1,.22-.08.33.33,0,0,1,.22.08.32.32,0,0,1,.09.25.3.3,0,0,1-.31.34.35.35,0,0,1-.22-.08A.33.33,0,0,1,201.82,191.25Zm.57,4.09h-.53v-3.22h.53Z"/>
    <path d="M205.51,194.45a.83.83,0,0,1-.34.7,1.56,1.56,0,0,1-.95.25,2.21,2.21,0,0,1-1-.2v-.48a2.41,2.41,0,0,0,1,.26,1.06,1.06,0,0,0,.58-.13.4.4,0,0,0,.19-.35.38.38,0,0,0-.18-.32,2.36,2.36,0,0,0-.62-.3,4.49,4.49,0,0,1-.64-.3,1,1,0,0,1-.27-.28.76.76,0,0,1-.08-.38.73.73,0,0,1,.32-.63,1.51,1.51,0,0,1,.88-.22,2.53,2.53,0,0,1,1,.21l-.18.42a2.45,2.45,0,0,0-.88-.2,1,1,0,0,0-.5.1.34.34,0,0,0-.17.29.36.36,0,0,0,.15.29,2.89,2.89,0,0,0,.68.32,2.74,2.74,0,0,1,.59.28.89.89,0,0,1,.29.29A.74.74,0,0,1,205.51,194.45Z"/>
    <path d="M207.36,195l.24,0a.81.81,0,0,0,.21,0v.41l-.23.06a1.55,1.55,0,0,1-.31,0c-.63,0-.94-.33-.94-1v-1.87h-.46v-.26l.46-.21.21-.68h.32v.73h.93v.42h-.93v1.85a.61.61,0,0,0,.13.43A.47.47,0,0,0,207.36,195Z"/>
    <path d="M210,192.07a2.17,2.17,0,0,1,.38,0l-.07.49a1.37,1.37,0,0,0-.34,0,.84.84,0,0,0-.48.14.93.93,0,0,0-.34.39,1.19,1.19,0,0,0-.12.54v1.72h-.53v-3.22h.43l.06.59h0a1.35,1.35,0,0,1,.43-.48A1,1,0,0,1,210,192.07Z"/>
    <path d="M210.89,191.25A.32.32,0,0,1,211,191a.33.33,0,0,1,.22-.08.31.31,0,0,1,.31.33.33.33,0,0,1-.1.26.32.32,0,0,1-.21.08.3.3,0,0,1-.31-.34Zm.57,4.09h-.53v-3.22h.53Z"/>
    <path d="M214,192.07a1.19,1.19,0,0,1,1,.44,1.93,1.93,0,0,1,.35,1.22A1.86,1.86,0,0,1,215,195a1.14,1.14,0,0,1-1,.44,1.34,1.34,0,0,1-.58-.12,1,1,0,0,1-.42-.35h0a4,4,0,0,1-.11.41h-.37v-4.56H213v1.11q0,.33,0,.66h0A1.13,1.13,0,0,1,214,192.07Zm-.09.44a.84.84,0,0,0-.7.27,1.61,1.61,0,0,0-.21.94v0a1.53,1.53,0,0,0,.22.94.82.82,0,0,0,.7.28.73.73,0,0,0,.65-.31,1.69,1.69,0,0,0,.21-.92,1.65,1.65,0,0,0-.21-.92A.76.76,0,0,0,213.91,192.51Z"/>
    <path d="M216.67,192.12v2.08a.82.82,0,0,0,.17.58.73.73,0,0,0,.54.18.89.89,0,0,0,.72-.27,1.42,1.42,0,0,0,.23-.89v-1.68h.53v3.22h-.44l-.07-.42h0a.94.94,0,0,1-.41.35,1.31,1.31,0,0,1-.61.13,1.18,1.18,0,0,1-.87-.28,1.15,1.15,0,0,1-.3-.89v-2.11Z"/>
    <path d="M221,195l.24,0a.81.81,0,0,0,.21,0v.41l-.23.06a1.55,1.55,0,0,1-.31,0c-.63,0-.94-.33-.94-1v-1.87h-.46v-.26l.46-.21.21-.68h.32v.73h.93v.42h-.93v1.85a.61.61,0,0,0,.13.43A.47.47,0,0,0,221,195Z"/>
    <path d="M222,191.25a.32.32,0,0,1,.09-.25.33.33,0,0,1,.22-.08.37.37,0,0,1,.22.08.32.32,0,0,1,.09.25.33.33,0,0,1-.09.26.37.37,0,0,1-.22.08.3.3,0,0,1-.31-.34Zm.57,4.09H222v-3.22h.53Z"/>
    <path d="M226.38,193.73A1.77,1.77,0,0,1,226,195a1.41,1.41,0,0,1-1.1.44,1.5,1.5,0,0,1-.77-.2,1.3,1.3,0,0,1-.52-.59,2,2,0,0,1-.18-.88,1.8,1.8,0,0,1,.39-1.23,1.4,1.4,0,0,1,1.1-.43,1.38,1.38,0,0,1,1.08.44A1.76,1.76,0,0,1,226.38,193.73Zm-2.43,0a1.51,1.51,0,0,0,.24.92,1,1,0,0,0,1.41,0,1.51,1.51,0,0,0,.24-.92,1.49,1.49,0,0,0-.24-.92.86.86,0,0,0-.71-.3C224.27,192.51,224,192.92,224,193.73Z"/>
    <path d="M229.41,195.34v-2.05a.83.83,0,0,0-.18-.59.67.67,0,0,0-.54-.19.89.89,0,0,0-.72.27,1.42,1.42,0,0,0-.22.89v1.67h-.53v-3.22h.42l.08.44h0a1,1,0,0,1,.42-.36,1.31,1.31,0,0,1,.59-.13,1.19,1.19,0,0,1,.88.28,1.23,1.23,0,0,1,.29.9v2.09Z"/>
    <path d="M234.47,195.34l-.1-.46h0a1.25,1.25,0,0,1-.48.41,1.51,1.51,0,0,1-.61.11,1,1,0,0,1-.74-.25.9.9,0,0,1-.27-.7c0-.65.52-1,1.54-1l.55,0v-.19a.77.77,0,0,0-.16-.54.66.66,0,0,0-.51-.17,1.51,1.51,0,0,0-.48.07,4.08,4.08,0,0,0-.42.17l-.16-.39a1.77,1.77,0,0,1,.53-.2,2.23,2.23,0,0,1,.56-.08,1.27,1.27,0,0,1,.87.26,1.06,1.06,0,0,1,.29.82v2.19Zm-1.09-.36a1,1,0,0,0,.7-.24.89.89,0,0,0,.25-.68v-.29l-.47,0a1.75,1.75,0,0,0-.81.17.54.54,0,0,0-.25.49.5.5,0,0,0,.15.39A.63.63,0,0,0,233.38,195Z"/>
    <path d="M238,195.34v-2.05a.88.88,0,0,0-.17-.59.71.71,0,0,0-.55-.19.89.89,0,0,0-.72.27,1.42,1.42,0,0,0-.22.89v1.67h-.53v-3.22h.43l.08.44h0a1,1,0,0,1,.42-.36,1.32,1.32,0,0,1,.6-.13,1.21,1.21,0,0,1,.88.28,1.23,1.23,0,0,1,.28.9v2.09Z"/>
    <path d="M240.7,195.4a1.16,1.16,0,0,1-1-.43,2.34,2.34,0,0,1,0-2.46,1.16,1.16,0,0,1,1-.44,1.14,1.14,0,0,1,1,.47h0s0-.12,0-.24,0-.19,0-.23v-1.29h.53v4.56h-.43l-.07-.43h0A1.12,1.12,0,0,1,240.7,195.4Zm.09-.44a.85.85,0,0,0,.7-.26,1.37,1.37,0,0,0,.22-.86v-.09a1.57,1.57,0,0,0-.23-1,.84.84,0,0,0-.7-.29.72.72,0,0,0-.63.33,1.58,1.58,0,0,0-.22.92,1.55,1.55,0,0,0,.22.91A.74.74,0,0,0,240.79,195Z"/>
    <path d="M202.54,202.54v-2.07c0-.51-.22-.76-.66-.76a.82.82,0,0,0-.66.26,1.25,1.25,0,0,0-.21.8v1.77h-.52v-2.07a.86.86,0,0,0-.16-.57.61.61,0,0,0-.5-.19.76.76,0,0,0-.65.27,1.49,1.49,0,0,0-.21.9v1.66h-.53v-3.21h.43l.08.43h0a1,1,0,0,1,.39-.36,1.13,1.13,0,0,1,.56-.13,1,1,0,0,1,1,.54h0a1,1,0,0,1,.42-.4,1.22,1.22,0,0,1,.61-.14,1.09,1.09,0,0,1,.82.28,1.27,1.27,0,0,1,.27.9v2.09Z"/>
    <path d="M206.85,200.93a1.77,1.77,0,0,1-.4,1.23,1.41,1.41,0,0,1-1.1.44,1.5,1.5,0,0,1-.77-.2,1.3,1.3,0,0,1-.52-.59,2,2,0,0,1-.18-.88,1.8,1.8,0,0,1,.39-1.23,1.58,1.58,0,0,1,2.18,0A1.76,1.76,0,0,1,206.85,200.93Zm-2.43,0a1.51,1.51,0,0,0,.24.92.95.95,0,0,0,1.4,0,1.51,1.51,0,0,0,.24-.92,1.49,1.49,0,0,0-.24-.92.84.84,0,0,0-.7-.3C204.73,199.71,204.42,200.12,204.42,200.93Z"/>
    <path d="M209.88,202.54v-2a.83.83,0,0,0-.18-.59.71.71,0,0,0-.55-.19.85.85,0,0,0-.71.27,1.43,1.43,0,0,0-.23.9v1.66h-.53v-3.21h.43l.08.43h0a1,1,0,0,1,.42-.36,1.28,1.28,0,0,1,.59-.13,1.21,1.21,0,0,1,.88.28,1.25,1.25,0,0,1,.29.9v2.09Z"/>
    <path d="M212.76,202.6a1.44,1.44,0,0,1-1.13-.44,1.66,1.66,0,0,1-.42-1.2,1.81,1.81,0,0,1,.39-1.23,1.39,1.39,0,0,1,2-.07,1.5,1.5,0,0,1,.36,1.06V201h-2.2a1.22,1.22,0,0,0,.28.83,1,1,0,0,0,.75.28,2.45,2.45,0,0,0,.48,0,2.68,2.68,0,0,0,.55-.18v.46a2.29,2.29,0,0,1-.51.16A2.87,2.87,0,0,1,212.76,202.6Zm-.13-2.9a.78.78,0,0,0-.6.24,1.14,1.14,0,0,0-.26.68h1.64a1.07,1.07,0,0,0-.21-.69A.72.72,0,0,0,212.63,199.7Z"/>
    <path d="M215.85,202.17l.24,0a.81.81,0,0,0,.21-.05v.41l-.23.06a1.55,1.55,0,0,1-.31,0c-.63,0-.94-.33-.94-1v-1.87h-.46v-.26l.46-.21.22-.68h.31v.74h.93v.41h-.93v1.85a.61.61,0,0,0,.13.43A.47.47,0,0,0,215.85,202.17Z"/>
    <path d="M216.9,198.46a.3.3,0,0,1,.31-.34.35.35,0,0,1,.22.08.33.33,0,0,1,.09.26.32.32,0,0,1-.09.25.35.35,0,0,1-.22.08.33.33,0,0,1-.22-.08A.32.32,0,0,1,216.9,198.46Zm.57,4.08h-.53v-3.21h.53Z"/>
    <path d="M220.57,202.54h-2.36v-.35l1.73-2.45h-1.62v-.41h2.2v.39l-1.7,2.41h1.75Z"/>
    <path d="M223.3,202.54l-.11-.46h0a1.25,1.25,0,0,1-.48.41,1.5,1.5,0,0,1-.6.11,1,1,0,0,1-.74-.25.9.9,0,0,1-.27-.7c0-.65.51-1,1.54-1l.54,0v-.19a.83.83,0,0,0-.15-.54.7.7,0,0,0-.51-.17,1.51,1.51,0,0,0-.48.07l-.43.17-.16-.39a1.87,1.87,0,0,1,.53-.2,2.24,2.24,0,0,1,.57-.08,1.27,1.27,0,0,1,.87.26,1.06,1.06,0,0,1,.28.82v2.19Zm-1.09-.36a1,1,0,0,0,.7-.24.93.93,0,0,0,.25-.68V201l-.48,0a1.57,1.57,0,0,0-.8.18.52.52,0,0,0-.26.48.47.47,0,0,0,.16.39A.62.62,0,0,0,222.21,202.18Z"/>
    <path d="M225.75,202.17l.24,0a.81.81,0,0,0,.21-.05v.41l-.23.06a1.55,1.55,0,0,1-.31,0c-.63,0-.94-.33-.94-1v-1.87h-.46v-.26l.46-.21.21-.68h.32v.74h.93v.41h-.93v1.85a.61.61,0,0,0,.13.43A.47.47,0,0,0,225.75,202.17Z"/>
    <path d="M226.8,198.46a.3.3,0,0,1,.31-.34.37.37,0,0,1,.22.08.33.33,0,0,1,.09.26.32.32,0,0,1-.09.25.37.37,0,0,1-.22.08.33.33,0,0,1-.22-.08A.32.32,0,0,1,226.8,198.46Zm.57,4.08h-.53v-3.21h.53Z"/>
    <path d="M231.18,200.93a1.81,1.81,0,0,1-.39,1.23,1.45,1.45,0,0,1-1.11.44,1.5,1.5,0,0,1-.77-.2,1.36,1.36,0,0,1-.52-.59,2,2,0,0,1-.18-.88,1.8,1.8,0,0,1,.39-1.23,1.4,1.4,0,0,1,1.1-.43,1.38,1.38,0,0,1,1.08.44A1.76,1.76,0,0,1,231.18,200.93Zm-2.43,0a1.51,1.51,0,0,0,.24.92,1,1,0,0,0,1.41,0,1.51,1.51,0,0,0,.24-.92,1.49,1.49,0,0,0-.24-.92.86.86,0,0,0-.71-.3C229.07,199.71,228.75,200.12,228.75,200.93Z"/>
    <path d="M234.21,202.54v-2a.88.88,0,0,0-.17-.59.71.71,0,0,0-.55-.19.89.89,0,0,0-.72.27,1.43,1.43,0,0,0-.23.9v1.66H232v-3.21h.42l.08.43h0a1,1,0,0,1,.42-.36,1.31,1.31,0,0,1,.59-.13,1.19,1.19,0,0,1,.88.28,1.25,1.25,0,0,1,.29.9v2.09Z"/>
    <path d="M240.08,200.93a1.77,1.77,0,0,1-.4,1.23,1.41,1.41,0,0,1-1.1.44,1.5,1.5,0,0,1-.77-.2,1.3,1.3,0,0,1-.52-.59,2,2,0,0,1-.18-.88,1.8,1.8,0,0,1,.39-1.23,1.58,1.58,0,0,1,2.18,0A1.76,1.76,0,0,1,240.08,200.93Zm-2.43,0a1.51,1.51,0,0,0,.24.92.84.84,0,0,0,.71.31.81.81,0,0,0,.69-.31,1.44,1.44,0,0,0,.25-.92,1.42,1.42,0,0,0-.25-.92.84.84,0,0,0-.7-.3C238,199.71,237.65,200.12,237.65,200.93Z"/>
    <path d="M242.4,199.74h-.81v2.8h-.53v-2.8h-.56v-.25l.56-.18v-.19a1.27,1.27,0,0,1,.26-.88,1,1,0,0,1,.79-.29,2,2,0,0,1,.62.11l-.14.41a1.54,1.54,0,0,0-.48-.09.46.46,0,0,0-.4.18,1,1,0,0,0-.12.56v.21h.81Z"/>
    <path d="M193.6,209.8a1.16,1.16,0,0,1-1-.43,2.34,2.34,0,0,1,0-2.46,1.16,1.16,0,0,1,1-.44,1.14,1.14,0,0,1,1,.47h0s0-.12,0-.24,0-.19,0-.23v-1.29h.53v4.56h-.42l-.08-.43h0A1.11,1.11,0,0,1,193.6,209.8Zm.09-.44a.85.85,0,0,0,.7-.26,1.31,1.31,0,0,0,.22-.86v-.1a1.56,1.56,0,0,0-.22-.95.86.86,0,0,0-.71-.29.72.72,0,0,0-.63.33,1.58,1.58,0,0,0-.22.92,1.55,1.55,0,0,0,.22.91A.75.75,0,0,0,193.69,209.36Z"/>
    <path d="M196.11,205.65a.32.32,0,0,1,.09-.25.35.35,0,0,1,.22-.08.33.33,0,0,1,.22.08.32.32,0,0,1,.09.25.34.34,0,0,1-.09.26.33.33,0,0,1-.22.08.35.35,0,0,1-.22-.08A.34.34,0,0,1,196.11,205.65Zm.57,4.09h-.53v-3.22h.53Z"/>
    <path d="M199.85,209.71l0-.39h0a1.11,1.11,0,0,1-1,.48,1.17,1.17,0,0,1-1-.44,1.89,1.89,0,0,1-.35-1.22,1.92,1.92,0,0,1,.36-1.23,1.16,1.16,0,0,1,1-.44,1.18,1.18,0,0,1,1,.48h0l.07-.43h.42v3.27a1.42,1.42,0,0,1-.35,1,1.46,1.46,0,0,1-1.09.35,3,3,0,0,1-1.16-.2v-.49a2.5,2.5,0,0,0,1.19.25.83.83,0,0,0,.89-.9Zm-.92-.34a.87.87,0,0,0,.7-.26,1.31,1.31,0,0,0,.22-.85v-.12a1.57,1.57,0,0,0-.22-.94.86.86,0,0,0-.72-.29.69.69,0,0,0-.62.32,1.57,1.57,0,0,0-.22.91,1.67,1.67,0,0,0,.21.92A.76.76,0,0,0,198.93,209.37Z"/>
    <path d="M201.35,205.65a.32.32,0,0,1,.09-.25.33.33,0,0,1,.22-.08.35.35,0,0,1,.22.08.32.32,0,0,1,.09.25.34.34,0,0,1-.09.26.35.35,0,0,1-.22.08.33.33,0,0,1-.22-.08A.34.34,0,0,1,201.35,205.65Zm.57,4.09h-.53v-3.22h.53Z"/>
    <path d="M204,209.37l.24,0a1.07,1.07,0,0,0,.21,0v.41l-.22.06a1.73,1.73,0,0,1-.32,0c-.63,0-.94-.33-.94-1v-1.88h-.45v-.25l.46-.21.21-.68h.31v.73h.93v.41h-.93v1.86a.61.61,0,0,0,.13.43A.48.48,0,0,0,204,209.37Z"/>
    <path d="M207.09,209.74l-.1-.46h0a1.31,1.31,0,0,1-.47.41,1.51,1.51,0,0,1-.61.11,1,1,0,0,1-.74-.25.91.91,0,0,1-.27-.7c0-.65.51-1,1.54-1l.55,0v-.19a.77.77,0,0,0-.16-.54.66.66,0,0,0-.51-.17,1.51,1.51,0,0,0-.48.07,4.08,4.08,0,0,0-.42.17l-.17-.39a2.44,2.44,0,0,1,.53-.21,3,3,0,0,1,.57-.07,1.27,1.27,0,0,1,.87.26,1,1,0,0,1,.28.82v2.19Zm-1.09-.36a1,1,0,0,0,.7-.24.89.89,0,0,0,.25-.68v-.29l-.47,0a1.75,1.75,0,0,0-.81.17.54.54,0,0,0-.25.49.5.5,0,0,0,.15.39A.63.63,0,0,0,206,209.38Z"/>
    <path d="M209,209.74h-.53v-4.56H209Z"/>
    <path d="M213.1,209.8a1.19,1.19,0,0,1-1-.47h0v.12a3.1,3.1,0,0,1,0,.41v1.32h-.52v-4.66H212l.07.44h0a1.21,1.21,0,0,1,.44-.38,1.26,1.26,0,0,1,.57-.11,1.17,1.17,0,0,1,1,.43,1.94,1.94,0,0,1,.35,1.23,2,2,0,0,1-.35,1.23A1.19,1.19,0,0,1,213.1,209.8Zm-.09-2.89a.82.82,0,0,0-.69.27,1.43,1.43,0,0,0-.22.84v.11a1.62,1.62,0,0,0,.22.94.8.8,0,0,0,.7.29.73.73,0,0,0,.63-.32,1.55,1.55,0,0,0,.23-.92,1.46,1.46,0,0,0-.23-.9A.73.73,0,0,0,213,206.91Z"/>
    <path d="M216.77,206.47a2.17,2.17,0,0,1,.38,0l-.07.49a1.39,1.39,0,0,0-.35,0,.79.79,0,0,0-.47.14.87.87,0,0,0-.34.39,1.2,1.2,0,0,0-.13.54v1.72h-.52v-3.22h.43l.06.59h0a1.47,1.47,0,0,1,.44-.48A1,1,0,0,1,216.77,206.47Z"/>
    <path d="M220.48,208.13a1.77,1.77,0,0,1-.4,1.23,1.41,1.41,0,0,1-1.1.44,1.5,1.5,0,0,1-.77-.2,1.3,1.3,0,0,1-.52-.59,2,2,0,0,1-.18-.88,1.8,1.8,0,0,1,.39-1.23,1.4,1.4,0,0,1,1.1-.43,1.38,1.38,0,0,1,1.08.44A1.76,1.76,0,0,1,220.48,208.13Zm-2.43,0a1.51,1.51,0,0,0,.24.92,1,1,0,0,0,1.41,0,1.51,1.51,0,0,0,.24-.92,1.49,1.49,0,0,0-.24-.92.86.86,0,0,0-.71-.3C218.37,206.91,218.05,207.31,218.05,208.13Z"/>
    <path d="M222.46,209.8a1.18,1.18,0,0,1-1-.43,1.94,1.94,0,0,1-.34-1.23,1.88,1.88,0,0,1,.35-1.23,1.14,1.14,0,0,1,1-.44,1.16,1.16,0,0,1,1,.47h0a1.85,1.85,0,0,1,0-.24c0-.11,0-.19,0-.23v-1.29H224v4.56h-.43l-.08-.43h0A1.14,1.14,0,0,1,222.46,209.8Zm.08-.44a.84.84,0,0,0,.7-.26,1.31,1.31,0,0,0,.22-.86v-.1a1.56,1.56,0,0,0-.22-.95.84.84,0,0,0-.7-.29.7.7,0,0,0-.63.33,1.58,1.58,0,0,0-.23.92,1.63,1.63,0,0,0,.22.91A.75.75,0,0,0,222.54,209.36Z"/>
    <path d="M225.51,206.52v2.08a.78.78,0,0,0,.17.57.7.7,0,0,0,.54.19.89.89,0,0,0,.72-.27,1.42,1.42,0,0,0,.23-.89v-1.68h.53v3.22h-.44l-.07-.42h0a.89.89,0,0,1-.41.35,1.28,1.28,0,0,1-.61.13,1.2,1.2,0,0,1-.87-.28,1.15,1.15,0,0,1-.3-.89v-2.11Z"/>
    <path d="M230,209.8a1.35,1.35,0,0,1-1.08-.43,1.74,1.74,0,0,1-.39-1.22,1.84,1.84,0,0,1,.39-1.25,1.41,1.41,0,0,1,1.11-.43,2.42,2.42,0,0,1,.47,0,2.09,2.09,0,0,1,.38.13l-.16.44a2.1,2.1,0,0,0-.7-.15.83.83,0,0,0-.71.3,1.83,1.83,0,0,0,0,1.81.81.81,0,0,0,.68.31,2.13,2.13,0,0,0,.84-.19v.47A1.89,1.89,0,0,1,230,209.8Z"/>
    <path d="M232.67,209.37l.24,0,.21,0v.41l-.23.06a1.55,1.55,0,0,1-.31,0c-.63,0-.94-.33-.94-1v-1.88h-.46v-.25l.46-.21.22-.68h.31v.73h.93v.41h-.93v1.86a.61.61,0,0,0,.13.43A.47.47,0,0,0,232.67,209.37Z"/>
    <path d="M235.86,208.85a.8.8,0,0,1-.34.7,1.54,1.54,0,0,1-1,.25,2.21,2.21,0,0,1-1-.2v-.48a2.41,2.41,0,0,0,1,.26,1.11,1.11,0,0,0,.58-.13.42.42,0,0,0,.18-.35.38.38,0,0,0-.18-.32,2.36,2.36,0,0,0-.62-.3,3.79,3.79,0,0,1-.63-.3.93.93,0,0,1-.28-.28.89.89,0,0,1-.08-.38.75.75,0,0,1,.32-.63,1.51,1.51,0,0,1,.88-.22,2.53,2.53,0,0,1,1,.21l-.18.42a2.21,2.21,0,0,0-.88-.2,1,1,0,0,0-.5.1.34.34,0,0,0-.17.29.36.36,0,0,0,.15.29,3.12,3.12,0,0,0,.68.32,2.52,2.52,0,0,1,.59.28.8.8,0,0,1,.29.29A.74.74,0,0,1,235.86,208.85Z"/>
    <path d="M240.18,209.74l-.1-.46h0a1.25,1.25,0,0,1-.48.41,1.51,1.51,0,0,1-.61.11,1,1,0,0,1-.74-.25.91.91,0,0,1-.27-.7c0-.65.52-1,1.54-1l.55,0v-.19a.77.77,0,0,0-.16-.54.66.66,0,0,0-.51-.17,1.51,1.51,0,0,0-.48.07,4.08,4.08,0,0,0-.42.17l-.16-.39a2.09,2.09,0,0,1,.53-.21,2.77,2.77,0,0,1,.56-.07,1.27,1.27,0,0,1,.87.26,1,1,0,0,1,.29.82v2.19Zm-1.09-.36a1,1,0,0,0,.7-.24.89.89,0,0,0,.25-.68v-.29l-.47,0a1.75,1.75,0,0,0-.81.17.54.54,0,0,0-.25.49.5.5,0,0,0,.15.39A.65.65,0,0,0,239.09,209.38Z"/>
    <path d="M243.75,209.74v-2.06a.82.82,0,0,0-.17-.58.71.71,0,0,0-.55-.19.89.89,0,0,0-.72.27,1.42,1.42,0,0,0-.22.89v1.67h-.53v-3.22H242l.08.44h0a1,1,0,0,1,.42-.36,1.32,1.32,0,0,1,.6-.13,1.21,1.21,0,0,1,.88.28,1.23,1.23,0,0,1,.28.9v2.09Z"/>
    <path d="M246.41,209.8a1.16,1.16,0,0,1-1-.43,2.34,2.34,0,0,1,0-2.46,1.16,1.16,0,0,1,1-.44,1.14,1.14,0,0,1,1,.47h0s0-.12,0-.24,0-.19,0-.23v-1.29h.53v4.56h-.43l-.07-.43h0A1.12,1.12,0,0,1,246.41,209.8Zm.09-.44a.85.85,0,0,0,.7-.26,1.37,1.37,0,0,0,.22-.86v-.1a1.56,1.56,0,0,0-.23-.95.84.84,0,0,0-.7-.29.72.72,0,0,0-.63.33,1.58,1.58,0,0,0-.22.92,1.55,1.55,0,0,0,.22.91A.75.75,0,0,0,246.5,209.36Z"/>
    <path d="M211.57,216.05a.82.82,0,0,1-.33.7,1.56,1.56,0,0,1-1,.25,2.21,2.21,0,0,1-1-.2v-.48a2.34,2.34,0,0,0,1,.26,1.06,1.06,0,0,0,.58-.13.41.41,0,0,0,.18-.35.37.37,0,0,0-.17-.32,2.54,2.54,0,0,0-.62-.3,4,4,0,0,1-.64-.3,1,1,0,0,1-.27-.28.76.76,0,0,1-.09-.38.73.73,0,0,1,.33-.63,1.51,1.51,0,0,1,.88-.22,2.53,2.53,0,0,1,1,.21l-.18.42a2.45,2.45,0,0,0-.88-.2,1,1,0,0,0-.5.1.32.32,0,0,0-.17.29.38.38,0,0,0,.14.29,3.29,3.29,0,0,0,.69.32,3,3,0,0,1,.59.28.77.77,0,0,1,.28.29A.74.74,0,0,1,211.57,216.05Z"/>
    <path d="M213.72,217a1.48,1.48,0,0,1-1.13-.44,1.66,1.66,0,0,1-.42-1.2,1.86,1.86,0,0,1,.39-1.24,1.28,1.28,0,0,1,1-.45,1.25,1.25,0,0,1,1,.39,1.5,1.5,0,0,1,.36,1.06v.32h-2.2a1.22,1.22,0,0,0,.28.83.94.94,0,0,0,.74.28,2.49,2.49,0,0,0,.49,0,2.68,2.68,0,0,0,.55-.18v.46a2.29,2.29,0,0,1-.51.16A2.87,2.87,0,0,1,213.72,217Zm-.13-2.9a.78.78,0,0,0-.6.24,1.14,1.14,0,0,0-.26.68h1.64a1.13,1.13,0,0,0-.21-.69A.7.7,0,0,0,213.59,214.1Z"/>
    <path d="M217.24,213.67a2.05,2.05,0,0,1,.37,0l-.06.49a1.45,1.45,0,0,0-.35,0,.79.79,0,0,0-.47.14.87.87,0,0,0-.34.39,1.08,1.08,0,0,0-.13.54v1.72h-.52v-3.22h.43l.06.59h0a1.47,1.47,0,0,1,.44-.48A1,1,0,0,1,217.24,213.67Z"/>
    <path d="M218.92,216.94l-1.21-3.22h.56l.68,1.9a6.86,6.86,0,0,1,.26.85h0l0-.08,0-.11.21-.66.69-1.9h.56l-1.22,3.22Z"/>
    <path d="M221.22,212.85a.32.32,0,0,1,.09-.25.33.33,0,0,1,.22-.08.35.35,0,0,1,.22.08.32.32,0,0,1,.09.25.34.34,0,0,1-.09.26.35.35,0,0,1-.22.08.33.33,0,0,1-.22-.08A.34.34,0,0,1,221.22,212.85Zm.57,4.09h-.53v-3.22h.53Z"/>
    <path d="M224.1,217a1.35,1.35,0,0,1-1.08-.43,1.74,1.74,0,0,1-.39-1.22,1.84,1.84,0,0,1,.39-1.25,1.42,1.42,0,0,1,1.12-.43,2.38,2.38,0,0,1,.46,0,2.09,2.09,0,0,1,.38.13l-.16.44a2.05,2.05,0,0,0-.7-.15.83.83,0,0,0-.71.3,1.83,1.83,0,0,0,0,1.81.81.81,0,0,0,.68.31,2.1,2.1,0,0,0,.84-.19v.47A1.89,1.89,0,0,1,224.1,217Z"/>
    <path d="M227.06,217a1.5,1.5,0,0,1-1.14-.44,1.69,1.69,0,0,1-.41-1.2,1.91,1.91,0,0,1,.38-1.24,1.31,1.31,0,0,1,1-.45,1.27,1.27,0,0,1,1,.39,1.5,1.5,0,0,1,.36,1.06v.32h-2.21a1.27,1.27,0,0,0,.28.83,1,1,0,0,0,.75.28,2.56,2.56,0,0,0,.49,0,2.82,2.82,0,0,0,.54-.18v.46a2.21,2.21,0,0,1-.5.16A3,3,0,0,1,227.06,217Zm-.14-2.9a.75.75,0,0,0-.59.24,1.08,1.08,0,0,0-.26.68h1.63a1.07,1.07,0,0,0-.2-.69A.72.72,0,0,0,226.92,214.1Z"/>
    <path d="M231.17,216.05a.83.83,0,0,1-.34.7,1.54,1.54,0,0,1-1,.25,2.21,2.21,0,0,1-1-.2v-.48a2.41,2.41,0,0,0,1,.26,1.11,1.11,0,0,0,.58-.13.41.41,0,0,0,.18-.35.38.38,0,0,0-.18-.32,2.36,2.36,0,0,0-.62-.3,4.49,4.49,0,0,1-.64-.3,1,1,0,0,1-.27-.28.89.89,0,0,1-.08-.38.72.72,0,0,1,.32-.63,1.51,1.51,0,0,1,.88-.22,2.53,2.53,0,0,1,1,.21l-.18.42a2.45,2.45,0,0,0-.88-.2,1,1,0,0,0-.5.1.34.34,0,0,0-.17.29.36.36,0,0,0,.15.29,3.12,3.12,0,0,0,.68.32,2.52,2.52,0,0,1,.59.28.8.8,0,0,1,.29.29A.74.74,0,0,1,231.17,216.05Z"/>
  </g>
  <rect x="-1.86" y="129.64" width="70.22" height="30" transform="translate(177.89 111.39) rotate(90)" style="fill: #d4e7e8"/>
  <rect x="35.25" y="104.17" width="121.17" height="30" transform="translate(215 23.33) rotate(90)" style="fill: #37adb0"/>
  <rect x="75.54" y="81.87" width="165.75" height="30" transform="translate(255.29 -61.54) rotate(90)" style="fill: #174546"/>
  <rect x="173.15" y="115.31" width="95.69" height="30" transform="translate(351.31 -90.69) rotate(90)" style="fill: #abdcdd"/>
  <g>
    <path d="M28.54,100.42h-.86v1.48H26.21v-1.48H23.26v-1l3-4.61h1.38v4.49h.86Zm-2.33-1.17V98a1.36,1.36,0,0,1,0-.18v-.27c0-.1,0-.21,0-.32s0-.21,0-.3,0-.19,0-.26,0-.13,0-.16h-.05L26,97c-.08.15-.16.3-.26.45l-1.19,1.81Z"/>
    <path d="M34.05,100.42h-.86v1.48H31.72v-1.48H28.77v-1l3-4.61h1.39v4.49h.86Zm-2.33-1.17V97.86a2.26,2.26,0,0,0,0-.27c0-.1,0-.21,0-.32s0-.21,0-.3,0-.19,0-.26,0-.13,0-.16h-.05c-.06.14-.12.28-.2.44a3.37,3.37,0,0,1-.25.45L30.1,99.25Z"/>
    <path d="M38.05,97.38a2.54,2.54,0,0,1-.1.76,1.41,1.41,0,0,1-.31.58,1.33,1.33,0,0,1-.53.35,2,2,0,0,1-.76.13,1.83,1.83,0,0,1-.73-.13,1.4,1.4,0,0,1-.53-.35,1.55,1.55,0,0,1-.32-.58,2.8,2.8,0,0,1,0-1.52,1.48,1.48,0,0,1,.3-.57,1.4,1.4,0,0,1,.53-.35,2.13,2.13,0,0,1,.76-.12,2,2,0,0,1,.73.12,1.37,1.37,0,0,1,.54.35,1.51,1.51,0,0,1,.32.57A2.25,2.25,0,0,1,38.05,97.38Zm-2.21,0A1.17,1.17,0,0,0,36,98a.45.45,0,0,0,.4.2.45.45,0,0,0,.39-.2,1.17,1.17,0,0,0,.12-.6c0-.53-.17-.79-.51-.79a.47.47,0,0,0-.4.19A1.17,1.17,0,0,0,35.84,97.39Zm5.42-1.71-3.91,6.22H36.23l3.91-6.22Zm1.59,4.5a2.54,2.54,0,0,1-.1.76,1.37,1.37,0,0,1-.31.57,1.46,1.46,0,0,1-.53.36,2.16,2.16,0,0,1-.76.12,2,2,0,0,1-.73-.12,1.55,1.55,0,0,1-.53-.36,1.51,1.51,0,0,1-.32-.57,2.54,2.54,0,0,1-.1-.76,2.93,2.93,0,0,1,.09-.76,1.42,1.42,0,0,1,.31-.57,1.29,1.29,0,0,1,.52-.35,2.4,2.4,0,0,1,1.5,0,1.4,1.4,0,0,1,.53.35,1.59,1.59,0,0,1,.33.57A2.54,2.54,0,0,1,42.85,100.18Zm-2.21,0a1.2,1.2,0,0,0,.12.6.45.45,0,0,0,.4.19.44.44,0,0,0,.39-.19,1.17,1.17,0,0,0,.12-.6c0-.53-.17-.79-.51-.79a.45.45,0,0,0-.4.19A1.17,1.17,0,0,0,40.64,100.19Z"/>
  </g>
  <g>
    <path d="M89.17,46.34a2.61,2.61,0,0,1,.85.14,2.2,2.2,0,0,1,.69.42,2,2,0,0,1,.46.68,2.45,2.45,0,0,1,.16.93,2.89,2.89,0,0,1-.18,1.05,2.12,2.12,0,0,1-.53.78,2.53,2.53,0,0,1-.87.49,4,4,0,0,1-1.2.17L88,51a4,4,0,0,1-.5-.08l-.46-.11a1.76,1.76,0,0,1-.39-.18v-1.3a1.76,1.76,0,0,0,.39.18,3.68,3.68,0,0,0,.47.15l.48.1.47,0a1.56,1.56,0,0,0,1-.27,1,1,0,0,0,.34-.86,1,1,0,0,0-.33-.8,1.56,1.56,0,0,0-1-.28l-.27,0-.29,0-.26.05-.22,0-.6-.32.27-3.64h3.76V45H88.38l-.11,1.4.36-.06A2.7,2.7,0,0,1,89.17,46.34Z"/>
    <path d="M96.94,50.9H92.15v-1L93.83,48l.58-.63a5.1,5.1,0,0,0,.44-.56,2.3,2.3,0,0,0,.29-.56,1.74,1.74,0,0,0,.1-.61.73.73,0,0,0-.21-.56.86.86,0,0,0-.59-.2,1.54,1.54,0,0,0-.74.19,4.1,4.1,0,0,0-.75.54l-.82-1c.15-.13.3-.26.46-.38a4,4,0,0,1,.53-.33,2.92,2.92,0,0,1,.63-.22,3.21,3.21,0,0,1,.78-.09,2.91,2.91,0,0,1,.92.14,2,2,0,0,1,.7.41,1.67,1.67,0,0,1,.44.63,2.16,2.16,0,0,1,.15.83,2.46,2.46,0,0,1-.14.81,3.91,3.91,0,0,1-.4.75,7.55,7.55,0,0,1-.59.73c-.23.24-.46.49-.72.74l-.86.86v.07h2.91Z"/>
    <path d="M101.05,46.38a2.54,2.54,0,0,1-.1.76,1.41,1.41,0,0,1-.31.58,1.33,1.33,0,0,1-.53.35,2,2,0,0,1-.76.13,1.83,1.83,0,0,1-.73-.13,1.4,1.4,0,0,1-.53-.35,1.55,1.55,0,0,1-.32-.58,2.8,2.8,0,0,1,0-1.52,1.48,1.48,0,0,1,.3-.57,1.4,1.4,0,0,1,.53-.35,2.13,2.13,0,0,1,.76-.12,2,2,0,0,1,.73.12,1.37,1.37,0,0,1,.54.35,1.51,1.51,0,0,1,.32.57A2.25,2.25,0,0,1,101.05,46.38Zm-2.21,0A1.17,1.17,0,0,0,99,47a.45.45,0,0,0,.4.2.45.45,0,0,0,.39-.2,1.17,1.17,0,0,0,.12-.6c0-.53-.17-.79-.51-.79a.47.47,0,0,0-.4.19A1.17,1.17,0,0,0,98.84,46.39Zm5.42-1.71-3.91,6.22H99.23l3.91-6.22Zm1.59,4.5a2.54,2.54,0,0,1-.1.76,1.37,1.37,0,0,1-.31.57,1.46,1.46,0,0,1-.53.36,2.16,2.16,0,0,1-.76.12,2,2,0,0,1-.73-.12,1.55,1.55,0,0,1-.53-.36,1.51,1.51,0,0,1-.32-.57,2.54,2.54,0,0,1-.1-.76,2.93,2.93,0,0,1,.09-.76,1.42,1.42,0,0,1,.31-.57,1.29,1.29,0,0,1,.52-.35,2.4,2.4,0,0,1,1.5,0,1.4,1.4,0,0,1,.53.35,1.59,1.59,0,0,1,.33.57A2.54,2.54,0,0,1,105.85,49.18Zm-2.21,0a1.2,1.2,0,0,0,.12.6.45.45,0,0,0,.4.19.44.44,0,0,0,.39-.19,1.17,1.17,0,0,0,.12-.6c0-.53-.17-.79-.51-.79a.45.45,0,0,0-.4.19A1.17,1.17,0,0,0,103.64,49.19Z"/>
  </g>
  <g>
    <path d="M151.17,5.34a2.61,2.61,0,0,1,.85.14,2.2,2.2,0,0,1,.69.42,2,2,0,0,1,.46.68,2.45,2.45,0,0,1,.16.93,2.89,2.89,0,0,1-.18,1.05,2.12,2.12,0,0,1-.53.78,2.53,2.53,0,0,1-.87.49,4,4,0,0,1-1.2.17L150,10a4,4,0,0,1-.5-.08l-.46-.11a1.76,1.76,0,0,1-.39-.18V8.31a1.76,1.76,0,0,0,.39.18,3.68,3.68,0,0,0,.47.15l.48.1.47,0a1.56,1.56,0,0,0,1-.27,1,1,0,0,0,.34-.86,1,1,0,0,0-.33-.8,1.56,1.56,0,0,0-1-.28l-.27,0-.29,0-.26,0-.22,0-.6-.32.27-3.64h3.76V4h-2.46l-.11,1.4.36-.06A2.7,2.7,0,0,1,151.17,5.34Z"/>
    <path d="M158.9,5.81a8.71,8.71,0,0,1-.05,1,6.07,6.07,0,0,1-.2,1,4,4,0,0,1-.39.86,2.8,2.8,0,0,1-.63.7,2.69,2.69,0,0,1-.91.46,4.13,4.13,0,0,1-1.24.17h-.22L155,10l-.24,0a1.18,1.18,0,0,1-.21,0V8.72l.39.08.42,0a3.1,3.1,0,0,0,1.09-.16,1.57,1.57,0,0,0,.67-.46,1.73,1.73,0,0,0,.36-.7,5,5,0,0,0,.13-.91h-.07a1.5,1.5,0,0,1-.23.33,1.35,1.35,0,0,1-.32.26,1.57,1.57,0,0,1-.42.18,2.37,2.37,0,0,1-1.36-.09,1.67,1.67,0,0,1-.63-.44,2,2,0,0,1-.39-.71,3.13,3.13,0,0,1-.14-1,3.34,3.34,0,0,1,.16-1,2.36,2.36,0,0,1,.47-.78,2.18,2.18,0,0,1,.73-.49,2.74,2.74,0,0,1,1-.17,2.46,2.46,0,0,1,1,.19,2.14,2.14,0,0,1,.8.57,3,3,0,0,1,.53,1A4.45,4.45,0,0,1,158.9,5.81Zm-2.48-1.92a1,1,0,0,0-.36.07.8.8,0,0,0-.29.23,1,1,0,0,0-.18.39,1.91,1.91,0,0,0-.07.56,1.33,1.33,0,0,0,.22.82.77.77,0,0,0,.66.3.91.91,0,0,0,.41-.08,1.09,1.09,0,0,0,.32-.23.91.91,0,0,0,.2-.32.94.94,0,0,0,.08-.36,2.07,2.07,0,0,0-.07-.49,1.51,1.51,0,0,0-.18-.45,1.05,1.05,0,0,0-.31-.32A.75.75,0,0,0,156.42,3.89Z"/>
    <path d="M163.05,5.38a2.54,2.54,0,0,1-.1.76,1.41,1.41,0,0,1-.31.58,1.33,1.33,0,0,1-.53.35,2,2,0,0,1-.76.13,1.83,1.83,0,0,1-.73-.13,1.4,1.4,0,0,1-.53-.35,1.55,1.55,0,0,1-.32-.58,2.53,2.53,0,0,1-.11-.76,2.54,2.54,0,0,1,.1-.76,1.48,1.48,0,0,1,.3-.57,1.4,1.4,0,0,1,.53-.35,2.13,2.13,0,0,1,.76-.12,2,2,0,0,1,.73.12,1.37,1.37,0,0,1,.54.35,1.51,1.51,0,0,1,.32.57A2.25,2.25,0,0,1,163.05,5.38Zm-2.21,0A1.17,1.17,0,0,0,161,6a.45.45,0,0,0,.4.2.45.45,0,0,0,.39-.2,1.17,1.17,0,0,0,.12-.6c0-.53-.17-.79-.51-.79a.47.47,0,0,0-.4.19A1.17,1.17,0,0,0,160.84,5.39Zm5.42-1.71L162.35,9.9h-1.12l3.91-6.22Zm1.59,4.5a2.54,2.54,0,0,1-.1.76,1.37,1.37,0,0,1-.31.57,1.46,1.46,0,0,1-.53.36,2.16,2.16,0,0,1-.76.12,2,2,0,0,1-.73-.12,1.55,1.55,0,0,1-.53-.36,1.51,1.51,0,0,1-.32-.57,2.54,2.54,0,0,1-.1-.76,2.93,2.93,0,0,1,.09-.76,1.42,1.42,0,0,1,.31-.57,1.29,1.29,0,0,1,.52-.35,2.4,2.4,0,0,1,1.5,0,1.4,1.4,0,0,1,.53.35,1.59,1.59,0,0,1,.33.57A2.54,2.54,0,0,1,167.85,8.18Zm-2.21,0a1.2,1.2,0,0,0,.12.6.45.45,0,0,0,.4.19.44.44,0,0,0,.39-.19,1.17,1.17,0,0,0,.12-.6c0-.53-.17-.79-.51-.79a.45.45,0,0,0-.4.19A1.17,1.17,0,0,0,165.64,8.19Z"/>
  </g>
  <g>
    <path d="M215.54,74.42h-.86V75.9h-1.47V74.42h-3v-1l3-4.61h1.38v4.49h.86Zm-2.33-1.17V72a1.36,1.36,0,0,1,0-.18v-.27c0-.1,0-.21,0-.32s0-.21,0-.3,0-.19,0-.26,0-.13,0-.16h-.05L213,71c-.08.15-.16.3-.26.45l-1.19,1.81Z"/>
    <path d="M218.51,68.67a3.22,3.22,0,0,1,.84.11,2,2,0,0,1,.69.32,1.56,1.56,0,0,1,.48.54,1.49,1.49,0,0,1,.17.75,1.83,1.83,0,0,1-.09.59,2,2,0,0,1-.27.47,2.13,2.13,0,0,1-.41.38,3.48,3.48,0,0,1-.5.3c.18.1.37.22.55.34a2.41,2.41,0,0,1,.48.42,1.87,1.87,0,0,1,.34.52,1.62,1.62,0,0,1,.12.64,1.78,1.78,0,0,1-.17.81,1.81,1.81,0,0,1-.49.61,2.38,2.38,0,0,1-.76.39,3.36,3.36,0,0,1-1,.14,3.56,3.56,0,0,1-1-.13,2.09,2.09,0,0,1-.76-.38,1.54,1.54,0,0,1-.47-.6,2,2,0,0,1-.16-.8,2,2,0,0,1,.11-.66,2.1,2.1,0,0,1,.29-.53,2.46,2.46,0,0,1,.44-.41,3.55,3.55,0,0,1,.53-.32,3.72,3.72,0,0,1-.45-.33,2.19,2.19,0,0,1-.36-.39,1.8,1.8,0,0,1-.24-.48,1.59,1.59,0,0,1-.1-.59,1.47,1.47,0,0,1,.18-.74,1.76,1.76,0,0,1,.48-.54,2.35,2.35,0,0,1,.7-.32A3.26,3.26,0,0,1,218.51,68.67Zm-1,5.33a1,1,0,0,0,.06.36.92.92,0,0,0,.19.28,1,1,0,0,0,.31.19,1.44,1.44,0,0,0,.43.06,1.09,1.09,0,0,0,.77-.24.83.83,0,0,0,.25-.64.91.91,0,0,0-.08-.37,1.54,1.54,0,0,0-.22-.3,2,2,0,0,0-.31-.26l-.34-.22-.11-.07a3.64,3.64,0,0,0-.39.23,2,2,0,0,0-.3.28,1.29,1.29,0,0,0-.19.32A1,1,0,0,0,217.5,74Zm1-4.23a.7.7,0,0,0-.7.42.81.81,0,0,0-.05.31,1,1,0,0,0,.06.36.87.87,0,0,0,.16.26,1,1,0,0,0,.25.2l.29.18.29-.17a1.21,1.21,0,0,0,.24-.21.87.87,0,0,0,.23-.62.81.81,0,0,0-.06-.31.6.6,0,0,0-.16-.23.8.8,0,0,0-.24-.14A1.06,1.06,0,0,0,218.5,69.77Z"/>
    <path d="M225.05,71.38a2.54,2.54,0,0,1-.1.76,1.41,1.41,0,0,1-.31.58,1.33,1.33,0,0,1-.53.35,2,2,0,0,1-.76.13,1.83,1.83,0,0,1-.73-.13,1.4,1.4,0,0,1-.53-.35,1.55,1.55,0,0,1-.32-.58,2.8,2.8,0,0,1,0-1.52,1.48,1.48,0,0,1,.3-.57,1.4,1.4,0,0,1,.53-.35,2.13,2.13,0,0,1,.76-.12,2,2,0,0,1,.73.12,1.37,1.37,0,0,1,.54.35,1.51,1.51,0,0,1,.32.57A2.25,2.25,0,0,1,225.05,71.38Zm-2.21,0a1.17,1.17,0,0,0,.12.6.45.45,0,0,0,.4.2.45.45,0,0,0,.39-.2,1.17,1.17,0,0,0,.12-.6c0-.53-.17-.79-.51-.79a.47.47,0,0,0-.4.19A1.17,1.17,0,0,0,222.84,71.39Zm5.42-1.71-3.91,6.22h-1.12l3.91-6.22Zm1.59,4.5a2.54,2.54,0,0,1-.1.76,1.37,1.37,0,0,1-.31.57,1.46,1.46,0,0,1-.53.36,2.16,2.16,0,0,1-.76.12,2,2,0,0,1-.73-.12,1.55,1.55,0,0,1-.53-.36,1.51,1.51,0,0,1-.32-.57,2.54,2.54,0,0,1-.1-.76,2.93,2.93,0,0,1,.09-.76,1.42,1.42,0,0,1,.31-.57,1.29,1.29,0,0,1,.52-.35,2.4,2.4,0,0,1,1.5,0,1.4,1.4,0,0,1,.53.35,1.59,1.59,0,0,1,.33.57A2.54,2.54,0,0,1,229.85,74.18Zm-2.21,0a1.2,1.2,0,0,0,.12.6.45.45,0,0,0,.4.19.44.44,0,0,0,.39-.19,1.17,1.17,0,0,0,.12-.6c0-.53-.17-.79-.51-.79a.45.45,0,0,0-.4.19A1.17,1.17,0,0,0,227.64,74.19Z"/>
  </g>
</svg>
