<svg id="Layer_1" data-name="Layer 1" xmlns="http://www.w3.org/2000/svg" xmlns:xlink="http://www.w3.org/1999/xlink" viewBox="0 0 1615.75 391.18"><defs><style>.cls-1{fill:none;stroke:gray;stroke-miterlimit:10;}.cls-2{font-size:37px;}.cls-10,.cls-2,.cls-3{font-family:Helvetica, Helvetica;}.cls-3{font-size:26.13px;}.cls-4,.cls-7{fill:#999;}.cls-4,.cls-8{letter-spacing:-0.04em;}.cls-5{letter-spacing:0em;}.cls-6{font-size:36.85px;}.cls-9{opacity:0.5;fill:url(#linear-gradient);}.cls-10{font-size:32px;}.cls-11{letter-spacing:-0.09em;}.cls-12{fill:#1a7abb;}.cls-13{fill:#9e3d91;}</style><linearGradient id="linear-gradient" x1="338.13" y1="227.04" x2="1614.88" y2="227.04" gradientUnits="userSpaceOnUse"><stop offset="0" stop-color="#fff"/><stop offset="1" stop-color="#8dc03e"/></linearGradient></defs><title>comparison_operations</title><line class="cls-1" x1="322.98" y1="0.04" x2="322.98" y2="323.54"/><line class="cls-1" x1="752.98" y1="0.04" x2="752.98" y2="323.54"/><line class="cls-1" x1="1184.98" y1="0.04" x2="1184.98" y2="323.54"/><text class="cls-2" transform="translate(65.16 211.26)">Infrastructure<tspan x="6.16" y="46">Performance</tspan></text><line class="cls-1" x1="0.37" y1="131.04" x2="1614.27" y2="131.04"/><text class="cls-3" transform="translate(432.93 56.67)"><tspan class="cls-4">W<tspan class="cls-5" x="23.71" y="0">AN</tspan></tspan><tspan class="cls-6"><tspan x="0" y="37.56">Follower</tspan></tspan></text><text class="cls-3" transform="translate(864.03 56.67)"><tspan class="cls-7"><tspan class="cls-8">W</tspan><tspan x="23.71" y="0">AN</tspan></tspan><tspan class="cls-6"><tspan x="0" y="37.56">Generalist</tspan></tspan></text><text class="cls-3" transform="translate(1295.12 56.67)"><tspan class="cls-7"><tspan class="cls-8">W</tspan><tspan x="23.71" y="0">AN</tspan></tspan><tspan class="cls-6"><tspan x="0" y="37.56">Leader</tspan></tspan></text><rect class="cls-9" x="338.13" y="145.02" width="1276.75" height="164.05"/><line class="cls-1" x1="0.91" y1="324.04" x2="1614.8" y2="324.04"/><text class="cls-10" transform="translate(1177.63 376.12)"><tspan class="cls-11">Y</tspan><tspan x="18.41" y="0">our Organization</tspan></text><rect class="cls-12" x="1113.87" y="343.88" width="41.67" height="41.67"/><text class="cls-10" transform="translate(1511.63 376.12)">Peer</text><rect class="cls-13" x="1458.28" y="343.54" width="41.67" height="41.67"/></svg>