<svg id="Layer_1" data-name="Layer 1" xmlns="http://www.w3.org/2000/svg" xmlns:xlink="http://www.w3.org/1999/xlink" viewBox="0 0 1615.75 907.09"><defs><style>.cls-1,.cls-5{fill:none;stroke-miterlimit:10;}.cls-1{stroke:gray;}.cls-2{font-size:37px;}.cls-2,.cls-3,.cls-6{font-family:Helvetica, Helvetica;}.cls-3{font-size:32px;}.cls-4{letter-spacing:-0.09em;}.cls-5{stroke:#ccc;}.cls-6{font-size:26.13px;}.cls-10,.cls-7{fill:#999;}.cls-11,.cls-7{letter-spacing:-0.04em;}.cls-8{letter-spacing:0em;}.cls-9{font-size:36.85px;}.cls-12,.cls-13,.cls-14,.cls-15{opacity:0.5;}.cls-12{fill:url(#linear-gradient);}.cls-13{fill:url(#linear-gradient-2);}.cls-14{fill:url(#linear-gradient-3);}.cls-15{fill:url(#linear-gradient-4);}.cls-16{fill:#1a7abb;}.cls-17{fill:#9e3d91;}</style><linearGradient id="linear-gradient" x1="330.78" y1="219.82" x2="1614.87" y2="219.82" gradientUnits="userSpaceOnUse"><stop offset="0" stop-color="#fff"/><stop offset="1" stop-color="#8dc03e"/></linearGradient><linearGradient id="linear-gradient-2" x1="330.78" y1="396.72" x2="1614.87" y2="396.72" xlink:href="#linear-gradient"/><linearGradient id="linear-gradient-3" x1="330.78" y1="573.63" x2="1614.87" y2="573.63" xlink:href="#linear-gradient"/><linearGradient id="linear-gradient-4" x1="330.78" y1="750.54" x2="1614.87" y2="750.54" xlink:href="#linear-gradient"/></defs><title>comparisonbg</title><line class="cls-1" x1="322.97" y1="0.04" x2="322.97" y2="838.12"/><line class="cls-1" x1="752.97" y1="0.04" x2="752.97" y2="838.12"/><line class="cls-1" x1="1184.97" y1="0.04" x2="1184.97" y2="838.12"/><text class="cls-2" transform="translate(165.93 211.26)">Overall<tspan x="-94.61" y="46">Performance</tspan></text><text class="cls-2" transform="translate(71.32 380.71)">Performance<tspan x="30.84" y="46">by Industry</tspan></text><text class="cls-2" transform="translate(21.96 557.62)">Performance by<tspan x="20.56" y="46">Company Size</tspan></text><text class="cls-3" transform="translate(1177.63 889.12)"><tspan class="cls-4">Y</tspan><tspan x="18.41" y="0">our Organization</tspan></text><text class="cls-2" transform="translate(21.96 734.52)">Performance by<tspan x="78.1" y="46">Geography</tspan></text><line class="cls-1" x1="0.37" y1="131.04" x2="1614.27" y2="131.04"/><line class="cls-1" x1="0.91" y1="309.04" x2="1614.8" y2="309.04"/><line class="cls-1" x1="0.91" y1="486.04" x2="1614.8" y2="486.04"/><line class="cls-1" x1="0.91" y1="662.04" x2="1614.8" y2="662.04"/><line class="cls-5" x1="0.37" y1="838.54" x2="1614.8" y2="838.54"/><text class="cls-6" transform="translate(432.93 56.67)"><tspan class="cls-7">W<tspan class="cls-8" x="23.71" y="0">AN</tspan></tspan><tspan class="cls-9"><tspan x="0" y="37.56">Follower</tspan></tspan></text><text class="cls-6" transform="translate(864.03 56.67)"><tspan class="cls-10"><tspan class="cls-11">W</tspan><tspan x="23.71" y="0">AN</tspan></tspan><tspan class="cls-9"><tspan x="0" y="37.56">Generalist</tspan></tspan></text><text class="cls-6" transform="translate(1295.12 56.67)"><tspan class="cls-10"><tspan class="cls-11">W</tspan><tspan x="23.71" y="0">AN</tspan></tspan><tspan class="cls-9"><tspan x="0" y="37.56">Leader</tspan></tspan></text><rect class="cls-12" x="330.78" y="145.02" width="1284.09" height="149.6"/><rect class="cls-13" x="330.78" y="321.92" width="1284.09" height="149.6"/><rect class="cls-14" x="330.78" y="498.83" width="1284.09" height="149.6"/><rect class="cls-15" x="330.78" y="675.74" width="1284.09" height="149.6"/><rect class="cls-16" x="1113.87" y="856.88" width="41.67" height="41.67"/><text class="cls-3" transform="translate(1511.63 889.12)">Peer</text><rect class="cls-17" x="1458.28" y="856.54" width="41.67" height="41.67"/></svg>