<svg id="Layer_1" data-name="Layer 1" xmlns="http://www.w3.org/2000/svg" viewBox="0 0 1207.87 683.54"><defs><style>.cls-1{fill:#d1e4f1;}.cls-2{font-size:29px;}.cls-2,.cls-6{font-family:Helvetica, Helvetica;}.cls-3{fill:#999;}.cls-4{letter-spacing:-0.04em;}.cls-5{font-size:42px;}.cls-6{font-size:23px;}.cls-7{letter-spacing:-0.05em;}.cls-12,.cls-8{fill:#1a7abb;}.cls-9{fill:none;stroke:#1a7abb;stroke-miterlimit:10;}.cls-10{fill:#edf4f9;}.cls-11{fill:#9e3d91;}.cls-12{font-size:38.56px;font-family:Helvetica-Bold, Helvetica;font-weight:700;}</style></defs><title>descriptions</title><rect class="cls-1" x="27.37" y="32.04" width="359" height="623.5" rx="8.5" ry="8.5"/><text class="cls-2" transform="translate(146.13 89.26)"><tspan class="cls-3"><tspan class="cls-4">W</tspan><tspan x="26.31" y="0">AN</tspan></tspan><tspan class="cls-5"><tspan x="0" y="40">Follower</tspan></tspan></text><text class="cls-6" transform="translate(51.87 226.53)"><tspan class="cls-7">T</tspan><tspan x="12.79" y="0">ypically has an ad-hoc </tspan><tspan x="0" y="27.6">approach to the </tspan><tspan class="cls-4" x="166.23" y="27.6">W</tspan><tspan x="187.1" y="27.6">AN </tspan><tspan x="0" y="74.2">Makes little use of </tspan><tspan x="0" y="101.8">intelligence to drive </tspan><tspan x="0" y="129.4">performance</tspan><tspan class="cls-4" x="0" y="176">W</tspan><tspan x="20.87" y="176">AN management is </tspan><tspan x="0" y="203.6">mostly a manual process</tspan></text><path class="cls-8" d="M122,72.83l-8.31,8.31h-8v-8L114,64.87A14.51,14.51,0,0,0,94.81,82.93l-33.4,33.4-.69.69-5.27,5.27a6.45,6.45,0,1,0,9.12,9.12l5.27-5.27.7-.69.79-.8,32.61-32.6A14.5,14.5,0,0,0,122,72.83Z"/><path class="cls-8" d="M99.81,110.7a8.55,8.55,0,0,1-2.51-4.49L94,103.37,87.39,110l2.9,3.32a8.67,8.67,0,0,1,4.38,2.49A7.89,7.89,0,0,1,97.23,121l13.06,13.06,7.79-7.79-13-13a7.84,7.84,0,0,1-5.26-2.57Z"/><polygon class="cls-8" points="62.46 80.12 79.33 97 81.02 95.31 64.14 78.44 64.22 78.35 61.98 74.54 58.56 77.96 62.37 80.21 62.46 80.12"/><polygon class="cls-8" points="61.98 74.54 54.97 68.19 52.21 70.95 58.56 77.96 61.98 74.54"/><line class="cls-9" x1="53.87" y1="169.54" x2="337.87" y2="169.54"/><path class="cls-10" d="M208.21,558.88l24.44,54.89A60.08,60.08,0,1,1,183.77,504a58.23,58.23,0,0,1,24.44-5.19Z"/><path class="cls-11" d="M208.21,558.88V498.79a60.08,60.08,0,0,1,60.08,60.08c0,24.46-13.3,44.94-35.65,54.89Z"/><circle class="cls-1" cx="207.87" cy="557.54" r="41"/><text class="cls-12" transform="translate(177.99 571.45)">43</text><text class="cls-12" transform="translate(220.88 558.61) scale(0.58)">%</text><rect class="cls-1" x="424.37" y="32.04" width="359" height="623.5" rx="8.5" ry="8.5"/><path class="cls-8" d="M493.18,62a9.06,9.06,0,0,0-4.12,17.15l-3.61,14.39A13.42,13.42,0,0,0,473,95.79L459,84a8.12,8.12,0,0,0,1.5-4.71,8.18,8.18,0,1,0-8.18,8.18,8.1,8.1,0,0,0,3.92-1l14.22,12a13.51,13.51,0,0,0,.11,16.35L461.33,124a10.79,10.79,0,0,0-6.3-2,10.9,10.9,0,1,0,10.9,10.9,10.79,10.79,0,0,0-2-6.3l9.23-9.23a13.54,13.54,0,0,0,19.3-2.9l13.68,6.47a9.91,9.91,0,0,0-.2,2,10,10,0,1,0,1.53-5.28l-13.31-6.33a13.13,13.13,0,0,0,.31-8.54l13.51-9a8,8,0,1,0-1.76-3.24l-13.26,8.86a13.81,13.81,0,0,0-4.12-4.23l3.75-15,.62,0a9.11,9.11,0,0,0,9.08-9.08c-.18-6-4.72-8.83-9.08-9.08Z"/><text class="cls-2" transform="translate(543.13 89.26)"><tspan class="cls-3"><tspan class="cls-4">W</tspan><tspan x="26.31" y="0">AN</tspan></tspan><tspan class="cls-5"><tspan x="0" y="40">Generalist</tspan></tspan></text><text class="cls-6" transform="translate(448.87 226.53)">Is beginning to adopt a <tspan x="0" y="27.6">more strategic approach to </tspan><tspan x="0" y="55.2">their </tspan><tspan class="cls-4" x="51.13" y="55.2">W</tspan><tspan x="72" y="55.2">AN</tspan><tspan x="0" y="101.8">Selectively uses network </tspan><tspan x="0" y="129.4">intelligence to improve </tspan><tspan x="0" y="157">performance</tspan><tspan x="0" y="203.6">Is increasingly automating </tspan><tspan x="0" y="231.2">operational tasks</tspan></text><line class="cls-9" x1="450.87" y1="169.54" x2="734.87" y2="169.54"/><path class="cls-10" d="M605.21,558.88l30.95,51.5a60.08,60.08,0,0,1-61.89-103,57.65,57.65,0,0,1,30.95-8.58Z"/><path class="cls-11" d="M605.21,558.88V498.79a60.08,60.08,0,0,1,60.08,60.08c0,21.77-10.48,40.29-29.14,51.5Z"/><circle class="cls-1" cx="603.87" cy="557.54" r="41"/><text class="cls-12" transform="translate(574.99 571.45)">41</text><text class="cls-12" transform="translate(617.88 558.61) scale(0.58)">%</text><rect class="cls-1" x="821.37" y="32.04" width="359" height="623.5" rx="8.5" ry="8.5"/><text class="cls-2" transform="translate(940.13 89.26)"><tspan class="cls-3"><tspan class="cls-4">W</tspan><tspan x="26.31" y="0">AN</tspan></tspan><tspan class="cls-5"><tspan x="0" y="40">Leader</tspan></tspan></text><text class="cls-6" transform="translate(845.87 226.53)">Sees the <tspan class="cls-4" x="97.18" y="0">W</tspan><tspan x="118.04" y="0">AN as a driver </tspan><tspan x="0" y="27.6">of competitive advantage</tspan><tspan x="0" y="74.2">Leverages widespread use </tspan><tspan x="0" y="101.8">of intelligence to drive the </tspan><tspan x="0" y="129.4">end-user experience</tspan><tspan x="0" y="176">Is using a high level of </tspan><tspan x="0" y="203.6">automation to optimize </tspan><tspan x="0" y="231.2">operations</tspan></text><path class="cls-8" d="M883.35,88.22a7,7,0,1,0,7-7,7,7,0,0,0-7,7"/><path class="cls-8" d="M867.81,76.24c0,4.55,6.82,4.55,6.82,0s-6.82-4.55-6.82,0"/><path class="cls-8" d="M869.55,82a5.23,5.23,0,0,1-1.27-.47l-1.67,1.43-1.67-1.51,1.27-1.82c-.08-.16-.24-.32-.32-.48s-.16-.4-.24-.55h-2.22l-.32-2.22,2.14-.64a3.3,3.3,0,0,1,.24-1.27L863.92,73l1.19-1.9,2.06.87a3.21,3.21,0,0,1,1-.79l-.4-2.22,2.14-.71,1,2a6.73,6.73,0,0,1,1.27.08l1.11-1.9,2.06.87-.55,2.14a8.6,8.6,0,0,1,1,.79l2.06-.79,1,2-1.82,1.27a8.15,8.15,0,0,1,.16,1.27l2.06.71-.48,2.22-2.22-.16a5,5,0,0,1-.64,1.11l1.11,1.9-1.74,1.43-1.59-1.51a7.15,7.15,0,0,1-1.19.4l-.4,2.22-2.22-.08L869.55,82ZM876,90.52l3.65-1.67a10.5,10.5,0,0,1,.16-2.22l-3.41-2.06L878,80.84l3.81,1a10.72,10.72,0,0,1,1.59-1.67l-1.27-3.73,3.57-1.82L888,77.9a6.92,6.92,0,0,1,2.22-.32l1.43-3.73,4,.87-.4,4a7.65,7.65,0,0,1,1.9,1.19l3.49-1.9L903,81.24,900.17,84a21.54,21.54,0,0,1,.64,2.14l3.89.79-.24,4-4,.32a9.49,9.49,0,0,1-.87,2.06l2.54,3.09-2.78,2.93-3.25-2.3a9.5,9.5,0,0,1-2,1l-.08,4-4,.48L889,98.77c-.4-.08-.71-.08-1.11-.16s-.72-.24-1-.4l-2.62,3L880.81,99l1.67-3.57a15.6,15.6,0,0,1-1.35-1.82l-3.89.64ZM867.25,115c1.91,2.93.79,4.68.4,6s-3.89,10.07-3.89,10.07l27.6,6.35s1-5.47,1.59-8.49,2.46-2.46,3-2.54,5.87.08,8.25.32,4.29.24,5-2.62-1-3-.08-4.84c1.59-3.25-.4-2.14,1.11-4.44.32-.48-.4-4.36,1-5,1-.56,3.81-.48,5.63-.87s.72-2.54.72-2.53-5.55-10.55-5.79-12a8.91,8.91,0,0,1,.64-3.65c0-7.69-1.67-12.06-6.58-18.4-6-7.7-13.88-9.76-21.18-10.79-6.43-1-22.53,2.85-27.53,19s8.25,31.49,10.15,34.42Z"/><line class="cls-9" x1="847.87" y1="169.54" x2="1131.87" y2="169.54"/><path class="cls-10" d="M1002.21,558.88l50.39-32.72a60.08,60.08,0,1,1-83.11-17.67,58.49,58.49,0,0,1,32.72-9.69Z"/><path class="cls-11" d="M1002.21,558.88V498.79c21.24,0,38.82,9.55,50.39,27.36Z"/><circle class="cls-1" cx="1000.87" cy="557.54" r="41"/><text class="cls-12" transform="translate(971.99 571.45)">16</text><text class="cls-12" transform="translate(1014.88 558.61) scale(0.58)">%</text></svg>