<svg id="Layer_1" data-name="Layer 1" xmlns="http://www.w3.org/2000/svg" viewBox="0 0 1207.87 612.54"><defs><style>.cls-1{fill:#e6e6e6;}.cls-2{font-size:32px;}.cls-2,.cls-6,.cls-9{font-family:Helvetica, Helvetica;}.cls-3{fill:#999;}.cls-4{letter-spacing:-0.04em;}.cls-5{font-size:45.13px;}.cls-6,.cls-9{font-size:21px;}.cls-7{letter-spacing:-0.02em;}.cls-8{letter-spacing:-0.05em;}.cls-9{fill:#4d4d4d;}.cls-10{fill:#9e3d91;}</style></defs><title>descriptions_stage3</title><rect class="cls-1" x="27.37" y="32.04" width="359" height="549" rx="8.5" ry="8.5"/><text class="cls-2" transform="translate(166.13 89.26)"><tspan class="cls-3"><tspan class="cls-4">W</tspan><tspan x="29.03" y="0">AN</tspan></tspan><tspan class="cls-5"><tspan x="0" y="46">Follower</tspan></tspan></text><text class="cls-6" transform="translate(50.13 194.81)">This is the description for a <tspan x="0" y="25.2">LAN Follower</tspan><tspan class="cls-7" x="126.04" y="25.2"> </tspan><tspan x="131.51" y="25.2">This is the </tspan><tspan x="0" y="50.4">description for a LAN Follower </tspan><tspan x="0" y="75.6">This is the description for a </tspan><tspan x="0" y="100.8">LAN Followe</tspan><tspan class="cls-8" x="119.05" y="100.8">r</tspan><tspan x="124.89" y="100.8">.</tspan></text><text class="cls-9" transform="translate(58.87 341.81)">•<tspan class="cls-7" x="7.35" y="0"> </tspan><tspan x="12.82" y="0">This is more info on the </tspan><tspan x="0" y="25.2">description</tspan><tspan x="0" y="58.4">•</tspan><tspan class="cls-7" x="7.35" y="58.4"> </tspan><tspan x="12.82" y="58.4">This is more info on the </tspan><tspan x="0" y="83.6">description</tspan><tspan x="0" y="116.8">•</tspan><tspan class="cls-7" x="7.35" y="116.8"> </tspan><tspan x="12.82" y="116.8">This is more info on the </tspan><tspan x="0" y="142">description</tspan></text><path class="cls-10" d="M74.13,88.15l-8.49-8.49L71.29,74a1.16,1.16,0,0,0-.76-2H51.76a1.09,1.09,0,0,0-1.13,1.13l-.1,18.78a1.18,1.18,0,0,0,2,.85l5.66-5.66,8.49,8.49a2.11,2.11,0,0,0,3,0l4.44-4.44a2.19,2.19,0,0,0,0-3Zm61.44-14.82a1.09,1.09,0,0,0-1.13-1.13l-18.78-.1a1.18,1.18,0,0,0-.85,2l5.66,5.66L112,88.25a2.11,2.11,0,0,0,0,3l4.44,4.44a2.11,2.11,0,0,0,3,0l8.49-8.49,5.66,5.66a1.16,1.16,0,0,0,2-.76ZM79.79,77.68h8v12A2.2,2.2,0,0,0,90,91.83h6.32a2.2,2.2,0,0,0,2.17-2.17v-12h8a1.18,1.18,0,0,0,.85-2L93.95,62.48a1.09,1.09,0,0,0-1.6,0L79,75.69a1.14,1.14,0,0,0,.76,2Zm16.14,54.17c-.28,2.17-.47,4.53,1.23,6.32a5.8,5.8,0,0,0,6,.66c1.7-.94,2.93-2.93,4.34-5.19.38-.57.66-1.23,1-1.89l-11.8-4.34a28.56,28.56,0,0,0-.85,4.44Zm8.59-32.09a6.78,6.78,0,0,0-4.53,1.89,11.6,11.6,0,0,0-3.49,8.49,31.16,31.16,0,0,0,.94,9.34,10.76,10.76,0,0,1,0,4.91l12.46,4.53c.38-.94.76-1.79,1.13-2.74a39.17,39.17,0,0,0,2.46-9.91c.38-3.12,0-8.68-2.26-12.27-1.51-2.36-4-4.25-6.7-4.25ZM89.89,126.94l-11.51,4.91c.38.66.76,1.23,1.13,1.79,1.42,2.17,2.83,4.06,4.62,4.91a5.84,5.84,0,0,0,5.95-.94c1.6-1.79,1.32-4.15.94-6.32-.38-1.6-.75-2.92-1.13-4.34Zm-.85-3-12.17,5.19c-.47-.85-.85-1.79-1.32-2.64a39.55,39.55,0,0,1-3-9.72c-.57-3-.47-8.68,1.7-12.37,1.42-2.36,3.68-4.44,6.42-4.62a6.91,6.91,0,0,1,4.62,1.6,11.78,11.78,0,0,1,4,8.21,38.53,38.53,0,0,1-.38,9.34,12.89,12.89,0,0,0,.18,5Z"/><rect class="cls-1" x="423.12" y="32.54" width="359" height="549" rx="8.5" ry="8.5"/><text class="cls-6" transform="translate(445.88 195.31)">This is the description for a <tspan x="0" y="25.2">LAN Follower</tspan><tspan class="cls-7" x="126.04" y="25.2"> </tspan><tspan x="131.51" y="25.2">This is the </tspan><tspan x="0" y="50.4">description for a LAN Follower </tspan><tspan x="0" y="75.6">This is the description for a </tspan><tspan x="0" y="100.8">LAN Followe</tspan><tspan class="cls-8" x="119.05" y="100.8">r</tspan><tspan x="124.89" y="100.8">.</tspan></text><text class="cls-9" transform="translate(454.62 342.31)">•<tspan class="cls-7" x="7.35" y="0"> </tspan><tspan x="12.82" y="0">This is more info on the </tspan><tspan x="0" y="25.2">description</tspan><tspan x="0" y="58.4">•</tspan><tspan class="cls-7" x="7.35" y="58.4"> </tspan><tspan x="12.82" y="58.4">This is more info on the </tspan><tspan x="0" y="83.6">description</tspan><tspan x="0" y="116.8">•</tspan><tspan class="cls-7" x="7.35" y="116.8"> </tspan><tspan x="12.82" y="116.8">This is more info on the </tspan><tspan x="0" y="142">description</tspan></text><text class="cls-2" transform="translate(554.38 89.26)"><tspan class="cls-3"><tspan class="cls-4">W</tspan><tspan x="29.03" y="0">AN</tspan></tspan><tspan class="cls-5"><tspan x="0" y="46">Generalist</tspan></tspan></text><path class="cls-10" d="M492.41,87.18a2,2,0,0,1,1.55.65L506,99.22a2.06,2.06,0,0,1,.46.51l0,.07.07.13,0,.09h0a1.92,1.92,0,0,1,.13.35h0a1.82,1.82,0,0,1,0,.29c0,.05,0,.1,0,.16s0,.11,0,.16a1.87,1.87,0,0,1,0,.29h0a2,2,0,0,1-.13.35h0l0,.06-.08.14,0,.07a2.12,2.12,0,0,1-.46.51L494,113.86a2,2,0,1,1-2.89-2.89l8.57-8.07H483.1l-5.54,5.54a2.05,2.05,0,0,1-3-.13l-8.8-10.56-4.56,4.56a2,2,0,1,1-2.89-2.89l6.14-6.14a2,2,0,0,1,1.39-.6,2.06,2.06,0,0,1,1.63.74l8.8,10.56,4.56-4.56a2.05,2.05,0,0,1,1.45-.6h17.38l-8.57-8.07a2.07,2.07,0,0,1,1.35-3.55ZM461.78,64A16.34,16.34,0,0,0,445.4,80.38v40.94a16.34,16.34,0,0,0,16.38,16.38h40.94a16.34,16.34,0,0,0,16.38-16.38V80.38A16.34,16.34,0,0,0,502.72,64Z"/><rect class="cls-1" x="821.87" y="35.54" width="353" height="543" rx="5.5" ry="5.5"/><path class="cls-10" d="M1169.37,38.54a2.54,2.54,0,0,1,2.5,2.5V573a2.54,2.54,0,0,1-2.5,2.5h-342a2.54,2.54,0,0,1-2.5-2.5V41a2.54,2.54,0,0,1,2.5-2.5h342m0-6h-342a8.53,8.53,0,0,0-8.5,8.5V573a8.53,8.53,0,0,0,8.5,8.5h342a8.53,8.53,0,0,0,8.5-8.5V41a8.53,8.53,0,0,0-8.5-8.5Z"/><text class="cls-6" transform="translate(841.63 195.31)">This is the description for a <tspan x="0" y="25.2">LAN Follower</tspan><tspan class="cls-7" x="126.04" y="25.2"> </tspan><tspan x="131.51" y="25.2">This is the </tspan><tspan x="0" y="50.4">description for a LAN Follower </tspan><tspan x="0" y="75.6">This is the description for a </tspan><tspan x="0" y="100.8">LAN Followe</tspan><tspan class="cls-8" x="119.05" y="100.8">r</tspan><tspan x="124.89" y="100.8">.</tspan></text><text class="cls-9" transform="translate(850.37 342.31)">•<tspan class="cls-7" x="7.35" y="0"> </tspan><tspan x="12.82" y="0">This is more info on the </tspan><tspan x="0" y="25.2">description</tspan><tspan x="0" y="58.4">•</tspan><tspan class="cls-7" x="7.35" y="58.4"> </tspan><tspan x="12.82" y="58.4">This is more info on the </tspan><tspan x="0" y="83.6">description</tspan><tspan x="0" y="116.8">•</tspan><tspan class="cls-7" x="7.35" y="116.8"> </tspan><tspan x="12.82" y="116.8">This is more info on the </tspan><tspan x="0" y="142">description</tspan></text><text class="cls-2" transform="translate(972.13 89.26)"><tspan class="cls-3"><tspan class="cls-4">W</tspan><tspan x="29.03" y="0">AN</tspan></tspan><tspan class="cls-5"><tspan x="0" y="46">Leader</tspan></tspan></text><path class="cls-10" d="M889.89,91.63a5,5,0,1,0-5,5,5,5,0,0,0,5-5Zm7.66,30.1a6.2,6.2,0,0,1-6.09,5.19h-2.87a.22.22,0,0,1-.22-.25l1.81-12.23a3.69,3.69,0,0,0,2.29-3l1.1-8.76a4.27,4.27,0,0,0-4.24-4.79h-1.52a.52.52,0,0,0-.4.19L885,101.17a.15.15,0,0,1-.25,0l-2.41-3h0a.52.52,0,0,0-.4-.19h-1.47a4.27,4.27,0,0,0-4.24,4.79l1.11,8.71a3.64,3.64,0,0,0,2.21,3l1.85,12.25a.22.22,0,0,1-.05.18.23.23,0,0,1-.16.07h-2.87a6.1,6.1,0,0,1-6.09-5.21,17,17,0,0,0-4.46-9.13,23.77,23.77,0,0,1,16.87-40.3h.18a23.77,23.77,0,0,1,17.25,40.31,16.67,16.67,0,0,0-4.5,9.14Zm14.56,6.2a3.51,3.51,0,0,0,4.91-5l-6.31-6.41a3.58,3.58,0,0,0-5,0,3.5,3.5,0,0,0,0,5Zm-59.4-64.28a3.5,3.5,0,0,0,0,5l6.5,6.41h0a3.51,3.51,0,1,0,4.91-5l-6.41-6.41h0a3.5,3.5,0,0,0-4.94,0Zm59.4,0-6.41,6.41a3.52,3.52,0,0,0-1.05,2.5,3.56,3.56,0,0,0,1.11,2.56,3.93,3.93,0,0,0,2.49,1,3.5,3.5,0,0,0,2.45-1l6.41-6.41h0a3.5,3.5,0,0,0,0-5,3.58,3.58,0,0,0-5,0ZM855.3,129a3.5,3.5,0,0,0,2.45-1l6.41-6.41a3.5,3.5,0,0,0,0-5,3.58,3.58,0,0,0-4.88,0L852.85,123a3.54,3.54,0,0,0,2.45,6Zm75.07-33.1a3.23,3.23,0,0,0-.87-2.45,3.52,3.52,0,0,0-2.62-1.09h-9.1a3.49,3.49,0,0,0,0,7h9a3.47,3.47,0,0,0,3.49-3.43Zm-87.19,3.42h9a3.54,3.54,0,0,0,3.49-3.49,3.49,3.49,0,0,0-3.49-3.49h-9.08a3.49,3.49,0,0,0,0,7ZM881.51,54v9a3.49,3.49,0,1,0,7,0V54a3.49,3.49,0,1,0-7,0Zm13.94,79.74v2.73a4.28,4.28,0,0,1-3.68,4.24l-.66,2.45a3.11,3.11,0,0,1-2.87,2.26h-6.63a2.94,2.94,0,0,1-2.87-2.26l-.66-2.45a4.28,4.28,0,0,1-3.68-4.24V133.7a2.63,2.63,0,0,1,2.63-2.63h15.89a2.68,2.68,0,0,1,2.54,2.63Z"/></svg>