<svg id="Layer_1" data-name="Layer 1" xmlns="http://www.w3.org/2000/svg" viewBox="0 0 438.7 209.57"><defs><style>.cls-1{font-size:10px;fill:#666;font-family:"Helvetica Neue", Helvetica, Arial, sans-serif;}.cls-2{font-size:12px;fill:#003f7d;font-family:"Helvetica Neue", Helvetica, Arial, sans-serif;font-weight:700;}.cls-3{fill:#acd9f2;}.cls-3,.cls-4,.cls-5,.cls-6,.cls-7{opacity:0.2;}.cls-4{fill:#74bfea;}.cls-5,.cls-9{fill:#00adee;}.cls-6{fill:#0a85c7;}.cls-7{fill:#0d4c83;}.cls-8{fill:#004b85;}</style></defs><title>overall_graph_bg</title><text class="cls-1" transform="translate(315.83 8.57)">Figure 2: Overall Readiness</text><text class="cls-2" transform="translate(0 80.2)">Overall Security<tspan x="30.68" y="14.4">Readiness</tspan></text><text class="cls-2" transform="translate(17.12 144.2)">Organization<tspan x="49.32" y="14.4">Size</tspan></text><rect class="cls-3" x="101.95" y="18.57" width="64.63" height="159"/><rect class="cls-4" x="169.98" y="18.57" width="64.63" height="159"/><rect class="cls-5" x="238.01" y="18.57" width="64.63" height="159"/><rect class="cls-6" x="306.04" y="18.57" width="64.63" height="159"/><rect class="cls-7" x="374.07" y="18.57" width="64.63" height="159"/><rect class="cls-8" x="249.84" y="196.72" width="12.85" height="12.85"/><rect class="cls-9" x="369.34" y="196.72" width="12.85" height="12.85"/><text class="cls-1" transform="translate(117.04 36.07)">Stage 1<tspan x="6.58" y="12">Poor</tspan></text><text class="cls-1" transform="translate(185.78 36.07)">Stage 1<tspan x="-3.33" y="12">Standard</tspan></text><text class="cls-1" transform="translate(254.52 36.07)">Stage 3<tspan x="4.72" y="12">Good</tspan></text><text class="cls-1" transform="translate(269.41 206.07)">Your Organization</text><text class="cls-1" transform="translate(388.71 206.07)">Your Peers</text><text class="cls-1" transform="translate(323.29 36.07)">Stage 4<tspan x="-9.07" y="12">Aspirational</tspan></text><text class="cls-1" transform="translate(391.99 36.07)">Stage 5<tspan x="7.04" y="12">Best</tspan></text></svg>