<svg id="Layer_1" data-name="Layer 1" xmlns="http://www.w3.org/2000/svg" viewBox="0 0 433.09 209.57"><defs><style>.cls-1{font-size:10px;fill:#666;font-family:"Helvetica Neue", Helvetica, Arial, sans-serif;}.cls-2{font-size:12px;fill:#003f7d;font-family:"Helvetica Neue", Helvetica, Arial, sans-serif;font-weight:700;}.cls-3{fill:#acd9f2;}.cls-3,.cls-4,.cls-5,.cls-6,.cls-7{opacity:0.2;}.cls-4{fill:#74bfea;}.cls-5,.cls-9{fill:#00adee;}.cls-6{fill:#0a85c7;}.cls-7{fill:#0d4c83;}.cls-8{fill:#004b85;}</style></defs><title>overall_graph_bg_fr</title><text class="cls-1" transform="translate(101.28 8.57)">Figure 2: Résultats de l’évaluation de Security Response Readiness* IDC</text><text class="cls-2" transform="translate(41.11 80.2)">Global</text><text class="cls-2" transform="translate(30.01 144.2)">Taille de<tspan x="-30.01" y="14.4">l&apos;organisation</tspan></text><rect class="cls-3" x="89.47" y="18.57" width="64.63" height="159"/><rect class="cls-4" x="157.5" y="18.57" width="64.63" height="159"/><rect class="cls-5" x="225.53" y="18.57" width="64.63" height="159"/><rect class="cls-6" x="293.56" y="18.57" width="64.63" height="159"/><rect class="cls-7" x="361.59" y="18.57" width="64.63" height="159"/><rect class="cls-8" x="297.36" y="196.72" width="12.85" height="12.85"/><rect class="cls-9" x="356.86" y="196.72" width="12.85" height="12.85"/><text class="cls-1" transform="translate(101.87 36.07)">Étape 1 :<tspan x="-1.39" y="12">Mauvaise</tspan></text><text class="cls-1" transform="translate(170.61 36.07)">Étape 2 :<tspan x="-0.65" y="12">Standard</tspan></text><text class="cls-1" transform="translate(239.35 36.07)">Étape 3 :<tspan x="5.38" y="12">Bonne</tspan></text><text class="cls-1" transform="translate(316.93 206.07)">Vous</text><text class="cls-1" transform="translate(376.24 206.07)">Homologues</text><text class="cls-1" transform="translate(308.12 36.07)">Étape 4 :<tspan x="-5" y="12">Ambitieuse</tspan></text><text class="cls-1" transform="translate(376.82 36.07)">Étape 5 :<tspan x="-3.04" y="12">Excellente</tspan></text></svg>