<svg id="Layer_1" data-name="Layer 1" xmlns="http://www.w3.org/2000/svg" viewBox="0 0 433.62 209.57"><defs><style>.cls-1{font-size:10px;fill:#666;font-family:"Helvetica Neue", Helvetica, Arial, sans-serif;}.cls-2{font-size:12px;fill:#003f7d;font-family:"Helvetica Neue", Helvetica, Arial, sans-serif;font-weight:700;}.cls-3{fill:#acd9f2;}.cls-3,.cls-4,.cls-5,.cls-6,.cls-7{opacity:0.2;}.cls-4{fill:#74bfea;}.cls-5,.cls-9{fill:#00adee;}.cls-6{fill:#0a85c7;}.cls-7{fill:#0d4c83;}.cls-8{fill:#004b85;}</style></defs><title>overall_graph_bg_de</title><text class="cls-1" transform="translate(7.29 8.57)">ABBILDUNG 2: Ergebnis der IDC-Beurteilung zur Reaktionsbereitschaft bei Sicherheitsvorfällen</text><text class="cls-2" transform="translate(25.12 80.2)">Insgesamt</text><text class="cls-2" transform="translate(0 144.2)">Organisations-<tspan x="51.31" y="14.4">größe</tspan></text><rect class="cls-3" x="96.37" y="18.57" width="64.63" height="159"/><rect class="cls-4" x="164.4" y="18.57" width="64.63" height="159"/><rect class="cls-5" x="232.43" y="18.57" width="64.63" height="159"/><rect class="cls-6" x="300.46" y="18.57" width="64.63" height="159"/><rect class="cls-7" x="368.49" y="18.57" width="64.63" height="159"/><rect class="cls-8" x="304.26" y="196.72" width="12.85" height="12.85"/><rect class="cls-9" x="363.76" y="196.72" width="12.85" height="12.85"/><text class="cls-1" transform="translate(111.36 36.07)">Stufe 1:<tspan x="-2.22" y="12">Schlecht</tspan></text><text class="cls-1" transform="translate(180.1 36.07)">Stufe 2:<tspan x="1.12" y="12">Normal</tspan></text><text class="cls-1" transform="translate(248.84 36.07)">Stufe 3:<tspan x="9.17" y="12">Gut</tspan></text><text class="cls-1" transform="translate(323.83 206.07)">Sie</text><text class="cls-1" transform="translate(383.14 206.07)">Andere</text><text class="cls-1" transform="translate(315.49 36.07)">Stufe 4:<tspan x="-9.63" y="12">Ambitioniert</tspan></text><text class="cls-1" transform="translate(383.52 36.07)">Stufe 5:<tspan x="-15.46" y="12">Ausgezeichnet</tspan></text></svg>