<svg id="Layer_3" data-name="Layer 3" xmlns="http://www.w3.org/2000/svg" viewBox="0 0 453.04 266.57"><defs><style>.cls-1{font-size:10px;fill:#666;font-family:"Helvetica Neue", Helvetica, Arial, sans-serif;}.cls-2{font-size:12px;fill:#003f7d;font-family:"Helvetica Neue", Helvetica, Arial, sans-serif;font-weight:700;}.cls-3{fill:#acd9f2;}.cls-3,.cls-4,.cls-5,.cls-6,.cls-7{opacity:0.2;}.cls-4{fill:#74bfea;}.cls-5,.cls-9{fill:#00adee;}.cls-6{fill:#0a85c7;}.cls-7{fill:#0d4c83;}.cls-8{fill:#004b85;}</style></defs><title>section_graph_bg_de</title><text class="cls-1" transform="translate(73.36 8.57)"><tspan xml:space="preserve">ABBILDUNG 3:  IDC: Reaktionsbereitschaft bei Sicherheitsvorfällen nach Kompetenz</tspan></text><text class="cls-2" transform="translate(35.2 80.2)">Sicherheits-<tspan x="18.44" y="14.4">strategie</tspan></text><text class="cls-2" transform="translate(0.08 149.88)">Vorfallserkennung</text><text class="cls-2" transform="translate(14.11 214.57)">Vorfallsreaktion</text><rect class="cls-3" x="115.8" y="18.57" width="64.63" height="226.5"/><rect class="cls-4" x="183.83" y="18.57" width="64.63" height="226.5"/><rect class="cls-5" x="251.86" y="18.57" width="64.63" height="226.5"/><rect class="cls-6" x="319.89" y="18.57" width="64.63" height="226.5"/><rect class="cls-7" x="387.92" y="18.57" width="64.63" height="226.5"/><rect class="cls-8" x="339.63" y="253.72" width="12.85" height="12.85"/><rect class="cls-9" x="399.13" y="253.72" width="12.85" height="12.85"/><text class="cls-1" transform="translate(130.79 36.07)">Stufe 1:<tspan x="-2.22" y="12">Schlecht</tspan></text><text class="cls-1" transform="translate(198.82 36.07)">Stufe 2:<tspan x="1.12" y="12">Normal</tspan></text><text class="cls-1" transform="translate(266.85 36.07)">Stufe 3:<tspan x="9.17" y="12">Gut</tspan></text><text class="cls-1" transform="translate(359.2 263.07)">Sie</text><text class="cls-1" transform="translate(418.51 263.07)">Andere</text><text class="cls-1" transform="translate(334.92 36.07)">Stufe 4:<tspan x="-9.63" y="12">Ambitioniert</tspan></text><text class="cls-1" transform="translate(402.95 36.07)">Stufe 5:<tspan x="-15.46" y="12">Ausgezeichnet</tspan></text></svg>