<svg id="Layer_3" data-name="Layer 3" xmlns="http://www.w3.org/2000/svg" viewBox="0 0 427.81 274.57"><defs><style>.cls-1{font-size:10px;fill:#666;font-family:"Helvetica Neue", Helvetica, Arial, sans-serif;}.cls-2{font-size:12px;fill:#003f7d;font-family:"Helvetica Neue", Helvetica, Arial, sans-serif;font-weight:700;}.cls-3{fill:#acd9f2;}.cls-3,.cls-4,.cls-5,.cls-6,.cls-7{opacity:0.2;}.cls-4{fill:#74bfea;}.cls-5,.cls-9{fill:#00adee;}.cls-6{fill:#0a85c7;}.cls-7{fill:#0d4c83;}.cls-8{fill:#004b85;}</style></defs><title>section_graph_bg_fr</title><text class="cls-1" transform="translate(167.69 8.57)"><tspan xml:space="preserve">Figure 3:  Security Response Readiness* IDC par capacité</tspan></text><text class="cls-2" transform="translate(10 80.2)">Stratégie de<tspan x="23.34" y="14.4">sécurité</tspan></text><text class="cls-2" transform="translate(0 144.88)">Détection des<tspan x="27.35" y="14.4">incidents</tspan></text><text class="cls-2" transform="translate(4.67 209.57)">Réaction aux<tspan x="22.68" y="14.4">incidents</tspan></text><rect class="cls-3" x="91.05" y="18.57" width="64.63" height="226.5"/><rect class="cls-4" x="159.08" y="18.57" width="64.63" height="226.5"/><rect class="cls-5" x="227.11" y="18.57" width="64.63" height="226.5"/><rect class="cls-6" x="295.15" y="18.57" width="64.63" height="226.5"/><rect class="cls-7" x="363.18" y="18.57" width="64.63" height="226.5"/><rect class="cls-8" x="288.89" y="261.72" width="12.85" height="12.85"/><rect class="cls-9" x="348.39" y="261.72" width="12.85" height="12.85"/><text class="cls-1" transform="translate(102.4 36.07)">Étape 1 :<tspan x="-1.39" y="12">Mauvaise</tspan></text><text class="cls-1" transform="translate(171.14 36.07)">Étape 2 :<tspan x="-0.65" y="12">Standard</tspan></text><text class="cls-1" transform="translate(239.87 36.07)">Étape 3 :<tspan x="5.38" y="12">Bonne</tspan></text><text class="cls-1" transform="translate(308.46 271.07)">Vous</text><text class="cls-1" transform="translate(367.76 271.07)">Homologues</text><text class="cls-1" transform="translate(308.65 36.07)">Étape 4 :<tspan x="-5" y="12">Ambitieuse</tspan></text><text class="cls-1" transform="translate(377.35 36.07)">Étape 5 :<tspan x="-3.04" y="12">Excellente</tspan></text></svg>