<svg id="Layer_3" data-name="Layer 3" xmlns="http://www.w3.org/2000/svg" viewBox="0 0 454.9 279.57"><defs><style>.cls-1{font-size:10px;fill:#666;font-family:"Helvetica Neue", Helvetica, Arial, sans-serif;}.cls-2{font-size:12px;fill:#003f7d;font-family:"Helvetica Neue", Helvetica, Arial, sans-serif;font-weight:700;}.cls-3{fill:#acd9f2;}.cls-3,.cls-4,.cls-5,.cls-6,.cls-7{opacity:0.2;}.cls-4{fill:#74bfea;}.cls-5,.cls-9{fill:#00adee;}.cls-6{fill:#0a85c7;}.cls-7{fill:#0d4c83;}.cls-8{fill:#004b85;}</style></defs><title>section_graph_bg</title><text class="cls-1" transform="translate(329.44 8.57)">Figure 3: Section Readiness</text><text class="cls-2" transform="translate(8.17 87.2)">Security Strategy</text><text class="cls-2" transform="translate(1.56 151.2)">Incident Detection</text><text class="cls-2" transform="translate(0 216.57)">Incident Response</text><rect class="cls-3" x="118.15" y="18.57" width="64.63" height="226.5"/><rect class="cls-4" x="186.18" y="18.57" width="64.63" height="226.5"/><rect class="cls-5" x="254.21" y="18.57" width="64.63" height="226.5"/><rect class="cls-6" x="322.24" y="18.57" width="64.63" height="226.5"/><rect class="cls-7" x="390.27" y="18.57" width="64.63" height="226.5"/><rect class="cls-8" x="266.04" y="266.72" width="12.85" height="12.85"/><rect class="cls-9" x="385.54" y="266.72" width="12.85" height="12.85"/><text class="cls-1" transform="translate(133.24 36.07)">Stage 1<tspan x="6.58" y="12">Poor</tspan></text><text class="cls-1" transform="translate(201.98 36.07)">Stage 1<tspan x="-3.33" y="12">Standard</tspan></text><text class="cls-1" transform="translate(270.72 36.07)">Stage 3<tspan x="4.72" y="12">Good</tspan></text><text class="cls-1" transform="translate(285.61 276.07)">Your Organization</text><text class="cls-1" transform="translate(404.91 276.07)">Your Peers</text><text class="cls-1" transform="translate(339.49 36.07)">Stage 4<tspan x="-9.07" y="12">Aspirational</tspan></text><text class="cls-1" transform="translate(408.19 36.07)">Stage 5<tspan x="7.04" y="12">Best</tspan></text></svg>