<svg id="Layer_1" data-name="Layer 1" xmlns="http://www.w3.org/2000/svg" viewBox="0 0 511 271">
  <title>banking_process</title>
  <g style="opacity: 0.1">
    <polyline points="63.48 200.51 159.48 119.51 255.48 175.51 351.48 116.51 447.48 195.51" style="fill: none;stroke: #304041;stroke-linecap: round;stroke-linejoin: round;stroke-width: 2.25px"/>
  </g>
  <polyline points="63.48 188.51 159.48 107.51 255.48 163.51 351.48 104.51 447.48 183.51" style="fill: none;stroke: #304041;stroke-linecap: round;stroke-linejoin: round;stroke-width: 2.25px"/>
  <g>
    <path d="M60,208.86q0,4.2-1.77,6.27a6.67,6.67,0,0,1-5.36,2.07,10.15,10.15,0,0,1-1.91-.13v-2.42a6.79,6.79,0,0,0,1.71.21,6.12,6.12,0,0,0,2.48-.44,3.16,3.16,0,0,0,1.49-1.4,6.14,6.14,0,0,0,.59-2.61h-.12a3.34,3.34,0,0,1-1.3,1.29,4.2,4.2,0,0,1-1.85.37,3.73,3.73,0,0,1-2.93-1.2,4.77,4.77,0,0,1-1.07-3.31,5,5,0,0,1,1.3-3.61,4.72,4.72,0,0,1,3.54-1.33,5.07,5.07,0,0,1,2.75.74,4.72,4.72,0,0,1,1.82,2.15A8.11,8.11,0,0,1,60,208.86ZM54.84,205a1.77,1.77,0,0,0-1.46.65,2.82,2.82,0,0,0-.53,1.84,2.56,2.56,0,0,0,.48,1.64,1.74,1.74,0,0,0,1.45.6,2.21,2.21,0,0,0,1.56-.6,1.8,1.8,0,0,0,.66-1.37,3.16,3.16,0,0,0-.61-2A1.89,1.89,0,0,0,54.84,205Z" style="fill: #314041"/>
    <path d="M68,207a5.51,5.51,0,0,1-.86,3.36,3,3,0,0,1-2.54,1.12,2.92,2.92,0,0,1-2.48-1.15,5.46,5.46,0,0,1-.88-3.33q0-4.46,3.36-4.45a3,3,0,0,1,2.52,1.16A5.28,5.28,0,0,1,68,207Zm-4.31,0a5.94,5.94,0,0,0,.22,1.84c.15.41.38.61.71.61.62,0,.93-.82.93-2.45s-.31-2.43-.93-2.43c-.33,0-.56.2-.71.59A5.89,5.89,0,0,0,63.73,207.05Zm11-4.26L66.85,217H64.51l7.89-14.22ZM78,212.71a5.5,5.5,0,0,1-.86,3.35,3,3,0,0,1-2.54,1.12A2.92,2.92,0,0,1,72.12,216a5.45,5.45,0,0,1-.88-3.32c0-3,1.12-4.45,3.36-4.45a3,3,0,0,1,2.52,1.16A5.28,5.28,0,0,1,78,212.71Zm-4.31,0a5.94,5.94,0,0,0,.22,1.84c.15.41.38.61.71.61.62,0,.93-.82.93-2.45s-.31-2.43-.93-2.43c-.33,0-.56.2-.71.59A5.89,5.89,0,0,0,73.69,212.73Z" style="fill: #314041"/>
  </g>
  <g>
    <path d="M152.68,81.93a3.34,3.34,0,0,1-.81,2.27,4.2,4.2,0,0,1-2.27,1.28v.06a4.48,4.48,0,0,1,2.61,1,2.92,2.92,0,0,1,.88,2.24A3.78,3.78,0,0,1,151.61,92a6.82,6.82,0,0,1-4.25,1.15,10.35,10.35,0,0,1-4.11-.77V89.84a8.91,8.91,0,0,0,1.82.68,7.44,7.44,0,0,0,2,.26,3.79,3.79,0,0,0,2.2-.5,1.84,1.84,0,0,0,.71-1.62,1.46,1.46,0,0,0-.81-1.42,6.06,6.06,0,0,0-2.61-.42h-1.08V84.51h1.1a5.12,5.12,0,0,0,2.42-.43,1.57,1.57,0,0,0,.76-1.48c0-1.08-.68-1.62-2-1.62a4.8,4.8,0,0,0-1.43.23,7.34,7.34,0,0,0-1.61.81L143.27,80a7.75,7.75,0,0,1,4.64-1.4,6.07,6.07,0,0,1,3.49.89A2.89,2.89,0,0,1,152.68,81.93Z" style="fill: #314041"/>
    <path d="M164.6,93h-9.94V90.88l3.57-3.61A30,30,0,0,0,160.3,85a5,5,0,0,0,.7-1.16,3,3,0,0,0,.21-1.11,1.59,1.59,0,0,0-.47-1.27,1.81,1.81,0,0,0-1.26-.42,3.65,3.65,0,0,0-1.6.38,8.18,8.18,0,0,0-1.63,1.08l-1.63-1.94a10.6,10.6,0,0,1,1.74-1.26,6.05,6.05,0,0,1,1.51-.57,7.83,7.83,0,0,1,1.83-.2,5.31,5.31,0,0,1,2.35.49,3.72,3.72,0,0,1,1.59,1.36,3.65,3.65,0,0,1,.56,2,4.86,4.86,0,0,1-.34,1.84A7,7,0,0,1,162.79,86a28.05,28.05,0,0,1-2.56,2.58l-1.83,1.72v.13h6.2Z" style="fill: #314041"/>
    <path d="M172.6,83a5.39,5.39,0,0,1-.86,3.35,3,3,0,0,1-2.54,1.13,3,3,0,0,1-2.48-1.15,5.46,5.46,0,0,1-.88-3.33q0-4.45,3.36-4.45a3,3,0,0,1,2.52,1.15A5.34,5.34,0,0,1,172.6,83Zm-4.3,0a6.07,6.07,0,0,0,.21,1.85c.15.4.38.61.71.61q.93,0,.93-2.46t-.93-2.43c-.33,0-.56.2-.71.6A5.92,5.92,0,0,0,168.3,83Zm11-4.26L171.41,93h-2.34L177,78.75Zm3.26,9.93A5.44,5.44,0,0,1,181.7,92a3,3,0,0,1-2.54,1.13A3,3,0,0,1,176.68,92a5.45,5.45,0,0,1-.88-3.32q0-4.46,3.36-4.45a3,3,0,0,1,2.52,1.15A5.34,5.34,0,0,1,182.56,88.68Zm-4.31,0a6,6,0,0,0,.22,1.85c.15.4.38.6.71.6.62,0,.93-.81.93-2.45s-.31-2.43-.93-2.43c-.33,0-.56.2-.71.6A5.87,5.87,0,0,0,178.25,88.69Z" style="fill: #314041"/>
  </g>
  <g>
    <path d="M243.77,189.38h-3v-8.23l0-1.35.05-1.48c-.5.5-.85.82-1,1l-1.64,1.31-1.45-1.81,4.59-3.64h2.47Z" style="fill: #314041"/>
    <path d="M247.61,183.34c0-2.82.59-4.91,1.78-6.29a6.7,6.7,0,0,1,5.35-2.06,9.37,9.37,0,0,1,1.9.15v2.4a7.66,7.66,0,0,0-1.71-.19,5.88,5.88,0,0,0-2.52.46,3.18,3.18,0,0,0-1.47,1.38,6.47,6.47,0,0,0-.57,2.6h.13a3.3,3.3,0,0,1,3.08-1.65,3.85,3.85,0,0,1,3,1.19,4.81,4.81,0,0,1,1.07,3.31,4.92,4.92,0,0,1-1.28,3.6,4.71,4.71,0,0,1-3.56,1.33,5.09,5.09,0,0,1-2.75-.73,4.77,4.77,0,0,1-1.81-2.13A8.17,8.17,0,0,1,247.61,183.34Zm5.13,3.83a1.79,1.79,0,0,0,1.48-.65,2.9,2.9,0,0,0,.52-1.84,2.51,2.51,0,0,0-.49-1.64,1.74,1.74,0,0,0-1.45-.6,2.21,2.21,0,0,0-1.56.6,1.81,1.81,0,0,0-.65,1.38,3.15,3.15,0,0,0,.61,2A1.88,1.88,0,0,0,252.74,187.17Z" style="fill: #314041"/>
    <path d="M265.65,179.4a5.44,5.44,0,0,1-.87,3.36,3,3,0,0,1-2.53,1.12,2.92,2.92,0,0,1-2.48-1.15,5.39,5.39,0,0,1-.88-3.33q0-4.46,3.36-4.45a3,3,0,0,1,2.52,1.16A5.28,5.28,0,0,1,265.65,179.4Zm-4.31,0a5.69,5.69,0,0,0,.22,1.84c.15.41.38.61.7.61.63,0,.94-.82.94-2.45s-.31-2.43-.94-2.43c-.32,0-.55.19-.7.59A5.61,5.61,0,0,0,261.34,179.42Zm11-4.26-7.89,14.22h-2.33L270,175.16Zm3.27,9.92a5.43,5.43,0,0,1-.87,3.35,3,3,0,0,1-2.54,1.12,2.93,2.93,0,0,1-2.48-1.15,5.45,5.45,0,0,1-.87-3.32q0-4.46,3.35-4.45a3,3,0,0,1,2.53,1.16A5.28,5.28,0,0,1,275.61,185.08Zm-4.31,0a5.65,5.65,0,0,0,.22,1.84c.14.4.38.61.7.61.63,0,.94-.82.94-2.45s-.31-2.43-.94-2.43a.75.75,0,0,0-.7.59A5.61,5.61,0,0,0,271.3,185.1Z" style="fill: #314041"/>
  </g>
  <g>
    <path d="M344.17,81.93a3.34,3.34,0,0,1-.81,2.27,4.17,4.17,0,0,1-2.27,1.28v.06a4.55,4.55,0,0,1,2.61,1,2.92,2.92,0,0,1,.88,2.24A3.82,3.82,0,0,1,343.1,92a6.89,6.89,0,0,1-4.25,1.14,10.39,10.39,0,0,1-4.11-.77V89.84a8.91,8.91,0,0,0,1.82.68,7.48,7.48,0,0,0,2,.27,3.76,3.76,0,0,0,2.19-.51,1.84,1.84,0,0,0,.71-1.62,1.46,1.46,0,0,0-.81-1.42,6.06,6.06,0,0,0-2.61-.42h-1.08V84.51H338a5.12,5.12,0,0,0,2.42-.43,1.57,1.57,0,0,0,.76-1.48c0-1.08-.68-1.62-2-1.62a4.52,4.52,0,0,0-1.43.24,6.84,6.84,0,0,0-1.61.8L334.76,80a7.75,7.75,0,0,1,4.64-1.4,6.07,6.07,0,0,1,3.49.89A2.89,2.89,0,0,1,344.17,81.93Z" style="fill: #314041"/>
    <path d="M355.54,81.93a3.34,3.34,0,0,1-.81,2.27,4.17,4.17,0,0,1-2.27,1.28v.06a4.55,4.55,0,0,1,2.61,1,2.92,2.92,0,0,1,.88,2.24,3.82,3.82,0,0,1-1.48,3.2,6.89,6.89,0,0,1-4.25,1.14,10.35,10.35,0,0,1-4.11-.77V89.84a8.91,8.91,0,0,0,1.82.68,7.48,7.48,0,0,0,2,.27,3.76,3.76,0,0,0,2.19-.51,1.84,1.84,0,0,0,.71-1.62,1.46,1.46,0,0,0-.81-1.42,6.06,6.06,0,0,0-2.61-.42H348.3V84.51h1.1a5.12,5.12,0,0,0,2.42-.43,1.57,1.57,0,0,0,.76-1.48c0-1.08-.68-1.62-2-1.62a4.52,4.52,0,0,0-1.43.24,6.84,6.84,0,0,0-1.61.8L346.13,80a7.75,7.75,0,0,1,4.64-1.4,6.07,6.07,0,0,1,3.49.89A2.89,2.89,0,0,1,355.54,81.93Z" style="fill: #314041"/>
    <path d="M364.09,83a5.39,5.39,0,0,1-.86,3.35,3,3,0,0,1-2.54,1.13,3,3,0,0,1-2.48-1.15,5.46,5.46,0,0,1-.87-3.33c0-3,1.11-4.45,3.35-4.45a3,3,0,0,1,2.52,1.15A5.34,5.34,0,0,1,364.09,83Zm-4.3,0a5.72,5.72,0,0,0,.22,1.85c.14.4.38.61.7.61q.93,0,.93-2.46t-.93-2.43c-.32,0-.56.2-.7.6A5.58,5.58,0,0,0,359.79,83Zm11-4.26L362.9,93h-2.34l7.89-14.22Zm3.26,9.93a5.43,5.43,0,0,1-.86,3.35,3,3,0,0,1-2.54,1.12A3,3,0,0,1,368.17,92a5.45,5.45,0,0,1-.88-3.32q0-4.46,3.36-4.45a3,3,0,0,1,2.52,1.15A5.34,5.34,0,0,1,374.05,88.68Zm-4.3,0a6.07,6.07,0,0,0,.21,1.85c.15.4.39.6.71.6.62,0,.93-.81.93-2.45s-.31-2.43-.93-2.43c-.32,0-.56.2-.71.6A5.92,5.92,0,0,0,369.75,88.69Z" style="fill: #314041"/>
  </g>
  <g>
    <path d="M435.36,209.59h-3v-8.23l0-1.35.05-1.48c-.5.5-.85.82-1,1l-1.64,1.31L428.31,199l4.58-3.64h2.47Z" style="fill: #314041"/>
    <path d="M449.16,202.48a9.84,9.84,0,0,1-1.22,5.51,4.74,4.74,0,0,1-7.47-.06,9.78,9.78,0,0,1-1.25-5.45,10,10,0,0,1,1.22-5.55,4.72,4.72,0,0,1,7.46.08A9.79,9.79,0,0,1,449.16,202.48Zm-7,0a11,11,0,0,0,.45,3.74,1.57,1.57,0,0,0,1.52,1.14,1.58,1.58,0,0,0,1.52-1.15,15.16,15.16,0,0,0,0-7.49,1.59,1.59,0,0,0-1.52-1.15,1.56,1.56,0,0,0-1.51,1.15A10.87,10.87,0,0,0,442.21,202.48Z" style="fill: #314041"/>
    <path d="M457.25,199.61a5.44,5.44,0,0,1-.87,3.36,3,3,0,0,1-2.54,1.12,2.93,2.93,0,0,1-2.48-1.15,5.46,5.46,0,0,1-.87-3.33q0-4.46,3.35-4.45a3,3,0,0,1,2.53,1.15A5.4,5.4,0,0,1,457.25,199.61Zm-4.31,0a5.69,5.69,0,0,0,.22,1.84c.14.4.38.61.7.61.62,0,.94-.82.94-2.45s-.32-2.44-.94-2.44c-.32,0-.56.2-.7.6A5.61,5.61,0,0,0,452.94,199.63Zm11-4.26-7.89,14.22h-2.33l7.88-14.22Zm3.27,9.92a5.43,5.43,0,0,1-.87,3.35,3,3,0,0,1-2.54,1.12,2.92,2.92,0,0,1-2.48-1.15,5.45,5.45,0,0,1-.87-3.32q0-4.46,3.35-4.45a3,3,0,0,1,2.53,1.15A5.4,5.4,0,0,1,467.21,205.29Zm-4.31,0a5.69,5.69,0,0,0,.22,1.84c.14.4.38.61.7.61.62,0,.93-.82.93-2.45s-.31-2.44-.93-2.44c-.32,0-.56.2-.7.6A5.61,5.61,0,0,0,462.9,205.31Z" style="fill: #314041"/>
  </g>
  <circle cx="63.48" cy="187.98" r="6.06" style="fill: #fff;stroke: #304041;stroke-linecap: round;stroke-linejoin: round;stroke-width: 2.25px"/>
  <circle cx="160.06" cy="106.92" r="6.06" style="fill: #fff;stroke: #304041;stroke-linecap: round;stroke-linejoin: round;stroke-width: 2.25px"/>
  <circle cx="255.48" cy="163.15" r="6.06" style="fill: #fff;stroke: #304041;stroke-linecap: round;stroke-linejoin: round;stroke-width: 2.25px"/>
  <circle cx="351.48" cy="104.15" r="6.06" style="fill: #fff;stroke: #304041;stroke-linecap: round;stroke-linejoin: round;stroke-width: 2.25px"/>
  <circle cx="447.48" cy="183.32" r="6.06" style="fill: #fff;stroke: #304041;stroke-linecap: round;stroke-linejoin: round;stroke-width: 2.25px"/>
</svg>
