<svg xmlns="http://www.w3.org/2000/svg" viewBox="0 0 511 271">
  <title>banking_structural</title>
  <g style="opacity: 0.1">
    <polyline points="63.48 173.51 159.48 87.51 255.48 178.51 351.48 151.51 447.48 217.51" style="fill: none;stroke: #304041;stroke-linecap: round;stroke-linejoin: round;stroke-width: 2.25px"/>
  </g>
  <polyline points="63.48 161.51 159.48 75.51 255.48 166.51 351.48 139.51 447.48 205.51" style="fill: none;stroke: #304041;stroke-linecap: round;stroke-linejoin: round;stroke-width: 2.25px"/>
  <g>
    <path d="M51.84,188.52h-3v-8.23l0-1.35.05-1.48c-.5.5-.85.83-1,1l-1.64,1.31-1.45-1.81,4.58-3.64h2.47Z" style="fill: #314041"/>
    <path d="M57.19,188.52l5.34-11.67h-7v-2.53h10.2v1.88l-5.37,12.32Z" style="fill: #314041"/>
    <path d="M73.73,178.54a5.44,5.44,0,0,1-.87,3.36A3,3,0,0,1,70.32,183a2.93,2.93,0,0,1-2.48-1.15,5.46,5.46,0,0,1-.87-3.33q0-4.46,3.35-4.45a3,3,0,0,1,2.53,1.16A5.35,5.35,0,0,1,73.73,178.54Zm-4.31,0a5.65,5.65,0,0,0,.22,1.84c.14.41.38.61.7.61.63,0,.94-.82.94-2.45s-.31-2.43-.94-2.43a.75.75,0,0,0-.7.59A5.61,5.61,0,0,0,69.42,178.56Zm11-4.26-7.89,14.22H70.2l7.89-14.22Zm3.27,9.92a5.43,5.43,0,0,1-.87,3.35,3,3,0,0,1-2.54,1.12,2.93,2.93,0,0,1-2.48-1.15,5.45,5.45,0,0,1-.87-3.32c0-3,1.12-4.45,3.35-4.45a3,3,0,0,1,2.53,1.16A5.35,5.35,0,0,1,83.69,184.22Zm-4.31,0a5.65,5.65,0,0,0,.22,1.84c.14.41.38.61.7.61.63,0,.94-.82.94-2.45s-.31-2.43-.94-2.43a.75.75,0,0,0-.7.59A5.61,5.61,0,0,0,79.38,184.24Z" style="fill: #314041"/>
  </g>
  <g>
    <path d="M153.55,58.87h-1.71v3H148.9v-3h-6.07V56.78l6.24-9.18h2.77v8.94h1.71Zm-4.65-2.33V54.13c0-.41,0-1,0-1.76s.06-1.2.08-1.33H149a11,11,0,0,1-.87,1.56l-2.6,3.94Z" style="fill: #314041"/>
    <path d="M164.6,61.82h-9.94V59.73l3.57-3.61a30,30,0,0,0,2.07-2.25,5.17,5.17,0,0,0,.7-1.16,3,3,0,0,0,.21-1.11,1.61,1.61,0,0,0-.47-1.28,1.81,1.81,0,0,0-1.26-.42,3.65,3.65,0,0,0-1.6.38,9.16,9.16,0,0,0-1.63,1.08l-1.63-1.93a10.77,10.77,0,0,1,1.74-1.27,7,7,0,0,1,1.51-.57,7.83,7.83,0,0,1,1.83-.2,5.45,5.45,0,0,1,2.35.49,3.86,3.86,0,0,1,1.59,1.36,3.68,3.68,0,0,1,.56,2,4.89,4.89,0,0,1-.34,1.84,7.16,7.16,0,0,1-1.07,1.76,25.7,25.7,0,0,1-2.56,2.58l-1.83,1.72v.14h6.2Z" style="fill: #314041"/>
    <path d="M172.6,51.84a5.44,5.44,0,0,1-.86,3.36,3,3,0,0,1-2.54,1.12,2.92,2.92,0,0,1-2.48-1.15,5.46,5.46,0,0,1-.88-3.33c0-3,1.12-4.45,3.36-4.45a3,3,0,0,1,2.52,1.16A5.3,5.3,0,0,1,172.6,51.84Zm-4.3,0a6,6,0,0,0,.21,1.84c.15.41.38.61.71.61.62,0,.93-.82.93-2.45s-.31-2.43-.93-2.43c-.33,0-.56.2-.71.6A5.88,5.88,0,0,0,168.3,51.86Zm11-4.26-7.89,14.22h-2.34L177,47.6Zm3.26,9.92a5.5,5.5,0,0,1-.86,3.35A3,3,0,0,1,179.16,62a2.92,2.92,0,0,1-2.48-1.15,5.43,5.43,0,0,1-.88-3.32c0-3,1.12-4.45,3.36-4.45a3,3,0,0,1,2.52,1.16A5.3,5.3,0,0,1,182.56,57.52Zm-4.31,0a5.94,5.94,0,0,0,.22,1.84c.15.41.38.61.71.61.62,0,.93-.82.93-2.45s-.31-2.43-.93-2.43c-.33,0-.56.2-.71.6A5.82,5.82,0,0,0,178.25,57.54Z" style="fill: #314041"/>
  </g>
  <g>
    <path d="M246.16,192.84h-3v-8.23l0-1.35,0-1.48a13.1,13.1,0,0,1-1,1l-1.63,1.32-1.45-1.81,4.58-3.65h2.47Z" style="fill: #314041"/>
    <path d="M255.27,183.76a4.6,4.6,0,0,1,3.29,1.15,4.19,4.19,0,0,1,1.22,3.17,4.62,4.62,0,0,1-1.47,3.67,6.17,6.17,0,0,1-4.2,1.28,8.3,8.3,0,0,1-3.84-.76v-2.6a8.68,8.68,0,0,0,1.79.67,8,8,0,0,0,1.94.25c1.83,0,2.75-.75,2.75-2.25s-.95-2.15-2.85-2.15a7,7,0,0,0-1.14.1,8.46,8.46,0,0,0-1,.22l-1.19-.64.53-7.25h7.71v2.55h-5.07l-.27,2.79.34-.07A6.85,6.85,0,0,1,255.27,183.76Z" style="fill: #314041"/>
    <path d="M268,182.86a5.51,5.51,0,0,1-.86,3.36,3,3,0,0,1-2.54,1.13,2.93,2.93,0,0,1-2.48-1.16,5.46,5.46,0,0,1-.88-3.33q0-4.44,3.36-4.44a3,3,0,0,1,2.52,1.15A5.32,5.32,0,0,1,268,182.86Zm-4.31,0a5.94,5.94,0,0,0,.22,1.84c.15.41.38.61.71.61.62,0,.93-.81.93-2.45s-.31-2.43-.93-2.43c-.33,0-.56.2-.71.6A5.87,5.87,0,0,0,263.73,182.88Zm11-4.26-7.88,14.22h-2.34l7.89-14.22Zm3.27,9.92a5.47,5.47,0,0,1-.86,3.35A3,3,0,0,1,274.6,193a2.93,2.93,0,0,1-2.48-1.16,5.36,5.36,0,0,1-.88-3.32q0-4.44,3.36-4.44a3,3,0,0,1,2.52,1.15A5.3,5.3,0,0,1,278,188.54Zm-4.31,0a5.94,5.94,0,0,0,.22,1.84c.15.41.38.61.71.61.62,0,.93-.82.93-2.45s-.31-2.43-.93-2.43c-.33,0-.56.2-.71.6A5.87,5.87,0,0,0,273.69,188.56Z" style="fill: #314041"/>
  </g>
  <g>
    <path d="M341.89,129.66H332v-2.09l3.57-3.61q1.59-1.63,2.07-2.25a4.68,4.68,0,0,0,.7-1.17,2.77,2.77,0,0,0,.22-1.1,1.6,1.6,0,0,0-.48-1.28,1.8,1.8,0,0,0-1.25-.42,3.66,3.66,0,0,0-1.61.38,7.86,7.86,0,0,0-1.62,1.08l-1.64-1.93a10.77,10.77,0,0,1,1.74-1.27,7.15,7.15,0,0,1,1.51-.57,8,8,0,0,1,1.83-.2,5.45,5.45,0,0,1,2.35.49,3.79,3.79,0,0,1,1.59,1.36,3.66,3.66,0,0,1,.56,2,4.93,4.93,0,0,1-.34,1.84,7.16,7.16,0,0,1-1.07,1.76,25.7,25.7,0,0,1-2.56,2.58L335.7,127v.14h6.19Z" style="fill: #314041"/>
    <path d="M352.71,118.62a3.32,3.32,0,0,1-.81,2.26,4.12,4.12,0,0,1-2.27,1.29v.06a4.54,4.54,0,0,1,2.61,1,2.93,2.93,0,0,1,.88,2.24,3.8,3.8,0,0,1-1.48,3.2,6.89,6.89,0,0,1-4.25,1.14,10.21,10.21,0,0,1-4.11-.77v-2.56a9.55,9.55,0,0,0,1.82.69,7.9,7.9,0,0,0,2,.26,3.76,3.76,0,0,0,2.19-.51,1.83,1.83,0,0,0,.71-1.62,1.47,1.47,0,0,0-.81-1.42,6.06,6.06,0,0,0-2.61-.42h-1.08v-2.3h1.1a5.1,5.1,0,0,0,2.42-.44,1.57,1.57,0,0,0,.76-1.48c0-1.08-.68-1.62-2-1.62a4.52,4.52,0,0,0-1.43.24,6.55,6.55,0,0,0-1.61.81l-1.39-2.08a7.75,7.75,0,0,1,4.64-1.4,6,6,0,0,1,3.49.9A2.89,2.89,0,0,1,352.71,118.62Z" style="fill: #314041"/>
    <path d="M361.27,119.68a5.44,5.44,0,0,1-.87,3.36,3,3,0,0,1-2.54,1.12,2.92,2.92,0,0,1-2.48-1.15,5.46,5.46,0,0,1-.87-3.33c0-3,1.11-4.45,3.35-4.45a3,3,0,0,1,2.53,1.16A5.35,5.35,0,0,1,361.27,119.68Zm-4.31,0a5.65,5.65,0,0,0,.22,1.84c.14.41.38.61.7.61.62,0,.93-.82.93-2.45s-.31-2.43-.93-2.43a.75.75,0,0,0-.7.59A5.61,5.61,0,0,0,357,119.7Zm11-4.26-7.89,14.22h-2.34l7.89-14.22Zm3.26,9.92a5.43,5.43,0,0,1-.86,3.35,3,3,0,0,1-2.54,1.12,2.92,2.92,0,0,1-2.48-1.15,5.45,5.45,0,0,1-.88-3.32q0-4.45,3.36-4.45a3,3,0,0,1,2.52,1.16A5.28,5.28,0,0,1,371.22,125.36Zm-4.3,0a6,6,0,0,0,.21,1.84c.15.41.39.61.71.61.62,0,.93-.82.93-2.45s-.31-2.43-.93-2.43a.77.77,0,0,0-.71.59A6,6,0,0,0,366.92,125.38Z" style="fill: #314041"/>
  </g>
  <g>
    <path d="M449.94,185.57h-1.71v3h-2.94v-3h-6.07v-2.09l6.23-9.18h2.78v8.94h1.71Zm-4.65-2.33v-2.42c0-.4,0-1,0-1.75s.05-1.21.07-1.33h-.07a11,11,0,0,1-.87,1.56l-2.61,3.94Z" style="fill: #314041"/>
    <path d="M457.62,178.54a5.44,5.44,0,0,1-.87,3.36,3,3,0,0,1-2.53,1.12,2.92,2.92,0,0,1-2.48-1.15,5.39,5.39,0,0,1-.88-3.33c0-3,1.12-4.45,3.36-4.45a3,3,0,0,1,2.52,1.16A5.3,5.3,0,0,1,457.62,178.54Zm-4.31,0a5.65,5.65,0,0,0,.22,1.84c.15.41.38.61.71.61.62,0,.93-.82.93-2.45s-.31-2.43-.93-2.43c-.33,0-.56.2-.71.6A5.5,5.5,0,0,0,453.31,178.56Zm11-4.26-7.89,14.22h-2.33L462,174.3Zm3.27,9.92a5.43,5.43,0,0,1-.87,3.35,3,3,0,0,1-2.53,1.12,3,3,0,0,1-2.49-1.15,5.45,5.45,0,0,1-.87-3.32c0-3,1.12-4.45,3.36-4.45a3,3,0,0,1,2.52,1.16A5.28,5.28,0,0,1,467.58,184.22Zm-4.31,0a5.65,5.65,0,0,0,.22,1.84c.15.41.38.61.7.61.63,0,.94-.82.94-2.45s-.31-2.43-.94-2.43c-.32,0-.55.2-.7.59A5.61,5.61,0,0,0,463.27,184.24Z" style="fill: #314041"/>
  </g>
  <circle cx="63.48" cy="161.54" r="6.06" style="fill: #fff;stroke: #304041;stroke-linecap: round;stroke-linejoin: round;stroke-width: 2.25px"/>
  <circle cx="160.06" cy="75.51" r="6.06" style="fill: #fff;stroke: #304041;stroke-linecap: round;stroke-linejoin: round;stroke-width: 2.25px"/>
  <circle cx="255.48" cy="165.96" r="6.06" style="fill: #fff;stroke: #304041;stroke-linecap: round;stroke-linejoin: round;stroke-width: 2.25px"/>
  <circle cx="351.5" cy="140.51" r="6.06" style="fill: #fff;stroke: #304041;stroke-linecap: round;stroke-linejoin: round;stroke-width: 2.25px"/>
  <circle cx="447.48" cy="205.51" r="6.06" style="fill: #fff;stroke: #304041;stroke-linecap: round;stroke-linejoin: round;stroke-width: 2.25px"/>
</svg>
