<svg id="Layer_1" data-name="Layer 1" xmlns="http://www.w3.org/2000/svg" viewBox="0 0 511 271">
  <title>banking_technology</title>
  <polyline points="63.48 212.51 159.48 126.51 255.48 168.51 351.48 99.51 447.48 200.51" style="fill: none;stroke: #304041;stroke-linecap: round;stroke-linejoin: round;stroke-width: 2.25px;opacity: 0.1"/>
  <polyline points="63.48 200.51 159.48 114.51 255.48 156.51 351.48 87.51 447.48 188.51" style="fill: none;stroke: #304041;stroke-linecap: round;stroke-linejoin: round;stroke-width: 2.25px"/>
  <g>
    <path d="M48.73,167.09A4.6,4.6,0,0,1,52,168.25a4.17,4.17,0,0,1,1.22,3.17,4.62,4.62,0,0,1-1.47,3.67,6.22,6.22,0,0,1-4.2,1.28,8.29,8.29,0,0,1-3.84-.77V173a7.67,7.67,0,0,0,1.79.67,8,8,0,0,0,1.94.26c1.83,0,2.75-.75,2.75-2.26s-1-2.15-2.85-2.15a8.26,8.26,0,0,0-1.14.1,8.46,8.46,0,0,0-1,.22L44,169.2l.53-7.24h7.71v2.54H47.19l-.27,2.79.34-.06A6.78,6.78,0,0,1,48.73,167.09Z" style="fill: #314041"/>
    <path d="M61.5,166.2a5.51,5.51,0,0,1-.86,3.36,3,3,0,0,1-2.54,1.12,2.92,2.92,0,0,1-2.48-1.15,5.46,5.46,0,0,1-.88-3.33q0-4.45,3.36-4.45a3,3,0,0,1,2.52,1.15A5.34,5.34,0,0,1,61.5,166.2Zm-4.31,0a6,6,0,0,0,.22,1.84c.15.4.38.61.71.61.62,0,.93-.82.93-2.45s-.31-2.44-.93-2.44c-.33,0-.56.2-.71.6A5.89,5.89,0,0,0,57.19,166.22Zm11-4.26-7.88,14.21H58L65.86,162Zm3.27,9.92a5.5,5.5,0,0,1-.86,3.35,3,3,0,0,1-2.54,1.12,2.92,2.92,0,0,1-2.48-1.15,5.38,5.38,0,0,1-.88-3.32q0-4.45,3.36-4.45a3,3,0,0,1,2.52,1.15A5.34,5.34,0,0,1,71.46,171.88Zm-4.31,0a6,6,0,0,0,.22,1.85c.15.4.38.61.71.61q.93,0,.93-2.46t-.93-2.43c-.33,0-.56.2-.71.6A5.87,5.87,0,0,0,67.15,171.89Z" style="fill: #314041"/>
  </g>
  <g>
    <path d="M149.9,88.32a3.32,3.32,0,0,1-.81,2.26,4.09,4.09,0,0,1-2.26,1.29v.06a4.51,4.51,0,0,1,2.6,1,2.94,2.94,0,0,1,.89,2.24,3.81,3.81,0,0,1-1.49,3.2,6.87,6.87,0,0,1-4.25,1.14,10.17,10.17,0,0,1-4.1-.77V96.23a10,10,0,0,0,1.82.68,7.82,7.82,0,0,0,2,.26,3.82,3.82,0,0,0,2.2-.51,1.85,1.85,0,0,0,.71-1.62,1.46,1.46,0,0,0-.82-1.42,6,6,0,0,0-2.61-.42h-1.07V90.9h1.09a5.08,5.08,0,0,0,2.42-.44,1.55,1.55,0,0,0,.76-1.48c0-1.08-.67-1.61-2-1.61a4.44,4.44,0,0,0-1.42.23,6.38,6.38,0,0,0-1.61.81l-1.39-2.08a7.73,7.73,0,0,1,4.64-1.4,5.94,5.94,0,0,1,3.48.9A2.89,2.89,0,0,1,149.9,88.32Z" style="fill: #314041"/>
    <path d="M161.75,92.25a9.93,9.93,0,0,1-1.22,5.51,4.23,4.23,0,0,1-3.76,1.79,4.17,4.17,0,0,1-3.71-1.85,9.7,9.7,0,0,1-1.25-5.45q0-3.77,1.21-5.55a4.73,4.73,0,0,1,7.47.08A9.81,9.81,0,0,1,161.75,92.25Zm-7,0a10.84,10.84,0,0,0,.46,3.75,1.56,1.56,0,0,0,1.52,1.13A1.59,1.59,0,0,0,158.29,96a10.79,10.79,0,0,0,.46-3.73,10.82,10.82,0,0,0-.47-3.76,1.58,1.58,0,0,0-3,0A11.13,11.13,0,0,0,154.79,92.25Z" style="fill: #314041"/>
    <path d="M169.83,89.38a5.44,5.44,0,0,1-.87,3.36,3,3,0,0,1-2.53,1.12A2.92,2.92,0,0,1,164,92.71a5.39,5.39,0,0,1-.88-3.33c0-3,1.12-4.45,3.36-4.45A3,3,0,0,1,169,86.09,5.28,5.28,0,0,1,169.83,89.38Zm-4.31,0a5.65,5.65,0,0,0,.22,1.84c.15.41.38.61.71.61.62,0,.93-.82.93-2.45s-.31-2.43-.93-2.43c-.33,0-.56.2-.71.59A5.61,5.61,0,0,0,165.52,89.4Zm11-4.26-7.89,14.22H166.3l7.89-14.22Zm3.27,9.92a5.43,5.43,0,0,1-.87,3.35,3,3,0,0,1-2.54,1.12,3,3,0,0,1-2.48-1.15,5.45,5.45,0,0,1-.87-3.32c0-3,1.12-4.45,3.35-4.45a3,3,0,0,1,2.53,1.16A5.28,5.28,0,0,1,179.79,95.06Zm-4.31,0a5.65,5.65,0,0,0,.22,1.84c.15.41.38.61.7.61.63,0,.94-.82.94-2.45s-.31-2.43-.94-2.43c-.32,0-.55.2-.7.59A5.65,5.65,0,0,0,175.48,95.08Z" style="fill: #314041"/>
  </g>
  <g>
    <path d="M243.77,188.51h-3v-8.23l0-1.35.05-1.48c-.5.5-.85.82-1,1l-1.64,1.31-1.45-1.81,4.59-3.64h2.47Z" style="fill: #314041"/>
    <path d="M252.61,174.1a5.37,5.37,0,0,1,3.29.93,3,3,0,0,1,1.25,2.51,3.3,3.3,0,0,1-.6,1.94,5.36,5.36,0,0,1-2,1.52,6.87,6.87,0,0,1,2.29,1.78,3.47,3.47,0,0,1-.68,4.86,5.69,5.69,0,0,1-3.6,1.06,6,6,0,0,1-3.67-1,3.29,3.29,0,0,1-1.33-2.81,3.74,3.74,0,0,1,.64-2.16,5.46,5.46,0,0,1,2.08-1.66,5.39,5.39,0,0,1-1.75-1.65,3.56,3.56,0,0,1-.54-1.91,3,3,0,0,1,1.27-2.47A5.36,5.36,0,0,1,252.61,174.1Zm-2.22,10.62A1.58,1.58,0,0,0,251,186a3.08,3.08,0,0,0,3.27,0,1.59,1.59,0,0,0,.55-1.27,1.76,1.76,0,0,0-.54-1.22,7.29,7.29,0,0,0-1.79-1.21C251.08,183,250.39,183.75,250.39,184.72Zm2.2-8.42a1.86,1.86,0,0,0-1.24.39,1.31,1.31,0,0,0-.47,1.06,1.62,1.62,0,0,0,.37,1.05,4.14,4.14,0,0,0,1.36.94,3.72,3.72,0,0,0,1.33-.91,1.67,1.67,0,0,0,.38-1.08,1.27,1.27,0,0,0-.49-1.06A1.92,1.92,0,0,0,252.59,176.3Z" style="fill: #314041"/>
    <path d="M265.65,178.53a5.44,5.44,0,0,1-.87,3.36,3,3,0,0,1-2.54,1.12,2.91,2.91,0,0,1-2.47-1.15,5.39,5.39,0,0,1-.88-3.33q0-4.46,3.35-4.45a3,3,0,0,1,2.53,1.16A5.28,5.28,0,0,1,265.65,178.53Zm-4.31,0a5.69,5.69,0,0,0,.22,1.84c.14.41.38.61.7.61.63,0,.94-.82.94-2.45s-.31-2.43-.94-2.43a.74.74,0,0,0-.7.59A5.61,5.61,0,0,0,261.34,178.55Zm11-4.26-7.89,14.22h-2.33L270,174.29Zm3.27,9.92a5.43,5.43,0,0,1-.87,3.35,3,3,0,0,1-2.54,1.12,2.93,2.93,0,0,1-2.48-1.15,5.45,5.45,0,0,1-.87-3.32q0-4.46,3.35-4.45a3,3,0,0,1,2.53,1.16A5.28,5.28,0,0,1,275.61,184.21Zm-4.31,0a5.65,5.65,0,0,0,.22,1.84c.14.4.38.61.7.61.63,0,.94-.82.94-2.45s-.31-2.43-.94-2.43a.75.75,0,0,0-.7.59A5.61,5.61,0,0,0,271.3,184.23Z" style="fill: #314041"/>
  </g>
  <g>
    <path d="M344.17,63.16a3.34,3.34,0,0,1-.81,2.27,4.17,4.17,0,0,1-2.27,1.28v.06a4.55,4.55,0,0,1,2.61,1,2.92,2.92,0,0,1,.88,2.24,3.82,3.82,0,0,1-1.48,3.2,6.89,6.89,0,0,1-4.25,1.14,10.35,10.35,0,0,1-4.11-.77V71.07a8.91,8.91,0,0,0,1.82.68,7.46,7.46,0,0,0,2,.26,3.77,3.77,0,0,0,2.19-.5,1.84,1.84,0,0,0,.71-1.62,1.46,1.46,0,0,0-.81-1.42,6.06,6.06,0,0,0-2.61-.42h-1.08V65.74H338a5.12,5.12,0,0,0,2.42-.43,1.57,1.57,0,0,0,.76-1.48c0-1.08-.68-1.62-2-1.62a4.8,4.8,0,0,0-1.43.23,7.34,7.34,0,0,0-1.61.81l-1.39-2.07a7.75,7.75,0,0,1,4.64-1.4,6.07,6.07,0,0,1,3.49.89A2.89,2.89,0,0,1,344.17,63.16Z" style="fill: #314041"/>
    <path d="M351.05,59.8a5.37,5.37,0,0,1,3.29.93,2.94,2.94,0,0,1,1.25,2.5,3.26,3.26,0,0,1-.6,1.94,5,5,0,0,1-1.94,1.52,7.12,7.12,0,0,1,2.29,1.79,3.35,3.35,0,0,1,.69,2,3.4,3.4,0,0,1-1.37,2.81,5.72,5.72,0,0,1-3.61,1.07,6,6,0,0,1-3.66-1,3.31,3.31,0,0,1-1.34-2.81,3.7,3.7,0,0,1,.65-2.16,5.33,5.33,0,0,1,2.08-1.67A5.27,5.27,0,0,1,347,65.13a3.57,3.57,0,0,1-.54-1.92,2.94,2.94,0,0,1,1.26-2.47A5.4,5.4,0,0,1,351.05,59.8Zm-2.22,10.62a1.57,1.57,0,0,0,.59,1.3,2.49,2.49,0,0,0,1.59.47,2.51,2.51,0,0,0,1.68-.48,1.6,1.6,0,0,0,.55-1.27,1.73,1.73,0,0,0-.55-1.22A7.2,7.2,0,0,0,350.91,68C349.53,68.64,348.83,69.45,348.83,70.42ZM351,62a1.9,1.9,0,0,0-1.24.39,1.32,1.32,0,0,0-.47,1.06,1.6,1.6,0,0,0,.37,1,4.1,4.1,0,0,0,1.36,1,3.75,3.75,0,0,0,1.33-.91,1.64,1.64,0,0,0,.38-1.08,1.29,1.29,0,0,0-.48-1.06A2,2,0,0,0,351,62Z" style="fill: #314041"/>
    <path d="M364.09,64.22a5.4,5.4,0,0,1-.86,3.36,3,3,0,0,1-2.54,1.13,3,3,0,0,1-2.48-1.15,5.47,5.47,0,0,1-.88-3.34q0-4.44,3.36-4.44a3,3,0,0,1,2.52,1.15A5.32,5.32,0,0,1,364.09,64.22Zm-4.3,0a6.07,6.07,0,0,0,.21,1.85c.15.4.39.6.71.6.62,0,.93-.81.93-2.45s-.31-2.43-.93-2.43c-.32,0-.56.2-.71.6A5.92,5.92,0,0,0,359.79,64.24Zm11-4.26L362.9,74.2h-2.34L368.45,60Zm3.26,9.92a5.44,5.44,0,0,1-.86,3.36,3,3,0,0,1-2.54,1.12,3,3,0,0,1-2.48-1.15,5.46,5.46,0,0,1-.88-3.33q0-4.44,3.36-4.44a3,3,0,0,1,2.52,1.15A5.32,5.32,0,0,1,374.05,69.9Zm-4.31,0a6,6,0,0,0,.22,1.85c.15.4.38.6.71.6.62,0,.93-.81.93-2.45s-.31-2.43-.93-2.43c-.33,0-.56.2-.71.6A5.87,5.87,0,0,0,369.74,69.92Z" style="fill: #314041"/>
  </g>
  <g>
    <path d="M413.25,190q0,4.2-1.77,6.27a6.67,6.67,0,0,1-5.36,2.07,10.15,10.15,0,0,1-1.91-.13v-2.41a7.28,7.28,0,0,0,1.71.2,6.12,6.12,0,0,0,2.48-.44,3.19,3.19,0,0,0,1.49-1.39,6.14,6.14,0,0,0,.59-2.61h-.12a3.37,3.37,0,0,1-1.3,1.28,4.06,4.06,0,0,1-1.85.37,3.76,3.76,0,0,1-2.93-1.19,4.81,4.81,0,0,1-1.07-3.31,5,5,0,0,1,1.3-3.62,4.75,4.75,0,0,1,3.54-1.32,5.07,5.07,0,0,1,2.75.73,4.77,4.77,0,0,1,1.82,2.15A8.14,8.14,0,0,1,413.25,190Zm-5.14-3.82a1.77,1.77,0,0,0-1.46.64,2.85,2.85,0,0,0-.53,1.85,2.53,2.53,0,0,0,.48,1.63,1.74,1.74,0,0,0,1.45.6,2.2,2.2,0,0,0,1.56-.59,1.81,1.81,0,0,0,.65-1.38,3.14,3.14,0,0,0-.6-2A1.87,1.87,0,0,0,408.11,186.15Z" style="fill: #314041"/>
    <path d="M421.31,188.14a5.51,5.51,0,0,1-.86,3.36,3,3,0,0,1-2.54,1.13,2.93,2.93,0,0,1-2.48-1.16,5.46,5.46,0,0,1-.88-3.33q0-4.44,3.36-4.44a3,3,0,0,1,2.52,1.15A5.32,5.32,0,0,1,421.31,188.14Zm-4.31,0a5.94,5.94,0,0,0,.22,1.84c.15.41.38.61.71.61.62,0,.93-.81.93-2.45s-.31-2.43-.93-2.43c-.33,0-.56.2-.71.6A5.87,5.87,0,0,0,417,188.16Zm11-4.26-7.88,14.22h-2.34l7.89-14.22Zm3.27,9.92a5.47,5.47,0,0,1-.86,3.35,3,3,0,0,1-2.54,1.13,2.93,2.93,0,0,1-2.48-1.16,5.43,5.43,0,0,1-.88-3.32q0-4.44,3.36-4.44a3,3,0,0,1,2.52,1.15A5.32,5.32,0,0,1,431.27,193.82Zm-4.31,0a5.94,5.94,0,0,0,.22,1.84c.15.41.38.61.71.61.62,0,.93-.82.93-2.45s-.31-2.43-.93-2.43c-.33,0-.56.2-.71.6A5.87,5.87,0,0,0,427,193.84Z" style="fill: #314041"/>
  </g>
  <circle cx="63.48" cy="200.51" r="6.06" style="fill: #fff;stroke: #304041;stroke-linecap: round;stroke-linejoin: round;stroke-width: 2.25px"/>
  <circle cx="158.4" cy="115.01" r="6.06" style="fill: #fff;stroke: #304041;stroke-linecap: round;stroke-linejoin: round;stroke-width: 2.25px"/>
  <circle cx="253.17" cy="156.42" r="6.06" style="fill: #fff;stroke: #304041;stroke-linecap: round;stroke-linejoin: round;stroke-width: 2.25px"/>
  <circle cx="351.48" cy="87.51" r="6.06" style="fill: #fff;stroke: #304041;stroke-linecap: round;stroke-linejoin: round;stroke-width: 2.25px"/>
  <circle cx="447.48" cy="188.51" r="6.06" style="fill: #fff;stroke: #304041;stroke-linecap: round;stroke-linejoin: round;stroke-width: 2.25px"/>
</svg>
