<svg xmlns="http://www.w3.org/2000/svg" viewBox="0 0 511 271">
  <title>banking_overall</title>
  <polyline points="63.09 199.19 159.74 63.89 255.09 97.39 351.74 152.8 447.09 210.78" style="fill: none;stroke: #304041;stroke-linecap: round;stroke-linejoin: round;stroke-width: 2.25px"/>
  <g>
    <path d="M51.46,226.81h-3v-8.23l0-1.35.05-1.48a13.1,13.1,0,0,1-1,1l-1.63,1.32-1.45-1.81L49,212.59h2.47Z" style="fill: #314041"/>
    <path d="M65.28,218.66q0,4.2-1.77,6.27A6.66,6.66,0,0,1,58.15,227a10.15,10.15,0,0,1-1.91-.13v-2.41a7.28,7.28,0,0,0,1.71.2,6.12,6.12,0,0,0,2.48-.44,3.19,3.19,0,0,0,1.49-1.39,6.22,6.22,0,0,0,.59-2.62h-.12a3.34,3.34,0,0,1-1.3,1.29,4.2,4.2,0,0,1-1.85.37,3.76,3.76,0,0,1-2.93-1.19,4.82,4.82,0,0,1-1.07-3.32,5,5,0,0,1,1.3-3.61,4.76,4.76,0,0,1,3.54-1.33,5.13,5.13,0,0,1,2.76.74,4.81,4.81,0,0,1,1.81,2.15A8.11,8.11,0,0,1,65.28,218.66Zm-5.14-3.82a1.77,1.77,0,0,0-1.46.64,2.85,2.85,0,0,0-.53,1.85,2.55,2.55,0,0,0,.48,1.63,1.74,1.74,0,0,0,1.45.6,2.21,2.21,0,0,0,1.56-.6,1.79,1.79,0,0,0,.66-1.37,3.2,3.2,0,0,0-.61-2A1.87,1.87,0,0,0,60.14,214.84Z" style="fill: #314041"/>
    <path d="M73.34,216.83a5.44,5.44,0,0,1-.86,3.36,3,3,0,0,1-2.54,1.12,2.92,2.92,0,0,1-2.48-1.15,5.46,5.46,0,0,1-.87-3.33c0-3,1.11-4.45,3.35-4.45a3,3,0,0,1,2.52,1.16A5.3,5.3,0,0,1,73.34,216.83Zm-4.3,0a6,6,0,0,0,.21,1.84c.15.41.39.61.71.61.62,0,.93-.82.93-2.45s-.31-2.43-.93-2.43c-.32,0-.56.2-.71.6A5.88,5.88,0,0,0,69,216.85Zm11-4.26-7.89,14.22H69.81l7.89-14.22Zm3.26,9.92a5.43,5.43,0,0,1-.86,3.35A3,3,0,0,1,79.9,227a2.92,2.92,0,0,1-2.48-1.15,5.43,5.43,0,0,1-.88-3.32c0-3,1.12-4.45,3.36-4.45a3,3,0,0,1,2.52,1.16A5.3,5.3,0,0,1,83.3,222.51Zm-4.3,0a6,6,0,0,0,.21,1.84c.15.41.38.61.71.61.62,0,.93-.82.93-2.45s-.31-2.43-.93-2.43c-.33,0-.56.2-.71.6A5.88,5.88,0,0,0,79,222.53Z" style="fill: #314041"/>
  </g>
  <g>
    <path d="M153.55,44.6h-1.71v2.95H148.9V44.6h-6.07V42.51l6.24-9.18h2.77v8.93h1.71Zm-4.65-2.34V39.85c0-.4,0-1,0-1.75s.06-1.21.08-1.33H149a11,11,0,0,1-.87,1.56l-2.6,3.93Z" style="fill: #314041"/>
    <path d="M162.09,47.55h-3V39.32l0-1.35,0-1.48c-.5.5-.84.82-1,1l-1.63,1.31L155,37l4.58-3.64h2.47Z" style="fill: #314041"/>
    <path d="M172.6,37.57a5.44,5.44,0,0,1-.86,3.36,3,3,0,0,1-2.54,1.12,2.92,2.92,0,0,1-2.48-1.15,5.46,5.46,0,0,1-.88-3.33q0-4.45,3.36-4.45a3,3,0,0,1,2.52,1.16A5.28,5.28,0,0,1,172.6,37.57Zm-4.3,0a6,6,0,0,0,.21,1.84c.15.41.38.61.71.61.62,0,.93-.82.93-2.45s-.31-2.43-.93-2.43c-.33,0-.56.19-.71.59A6,6,0,0,0,168.3,37.59Zm11-4.26-7.89,14.22h-2.34L177,33.33Zm3.26,9.92a5.5,5.5,0,0,1-.86,3.35,3,3,0,0,1-2.54,1.12,2.92,2.92,0,0,1-2.48-1.15,5.45,5.45,0,0,1-.88-3.32q0-4.45,3.36-4.45A3,3,0,0,1,181.68,40,5.28,5.28,0,0,1,182.56,43.25Zm-4.31,0a6,6,0,0,0,.22,1.84c.15.4.38.61.71.61.62,0,.93-.82.93-2.45s-.31-2.43-.93-2.43c-.33,0-.56.19-.71.59A5.89,5.89,0,0,0,178.25,43.27Z" style="fill: #314041"/>
  </g>
  <g>
    <path d="M249.78,72.2a3.36,3.36,0,0,1-.81,2.27,4.17,4.17,0,0,1-2.27,1.28v.06a4.54,4.54,0,0,1,2.61,1,3,3,0,0,1,.89,2.25,3.8,3.8,0,0,1-1.49,3.19,6.87,6.87,0,0,1-4.25,1.14,10.39,10.39,0,0,1-4.11-.76V80.11a9.54,9.54,0,0,0,1.82.68,7.9,7.9,0,0,0,2,.26,3.85,3.85,0,0,0,2.19-.5,1.85,1.85,0,0,0,.71-1.63,1.47,1.47,0,0,0-.81-1.42,6.06,6.06,0,0,0-2.61-.42h-1.08v-2.3h1.1a5.1,5.1,0,0,0,2.42-.44,1.55,1.55,0,0,0,.76-1.48c0-1.07-.67-1.61-2-1.61a4.54,4.54,0,0,0-1.43.23,6.92,6.92,0,0,0-1.61.81l-1.39-2.07a7.71,7.71,0,0,1,4.64-1.4,6,6,0,0,1,3.49.89A2.89,2.89,0,0,1,249.78,72.2Z" style="fill: #314041"/>
    <path d="M261.7,83.24h-9.94V81.15l3.57-3.61a30,30,0,0,0,2.07-2.25,4.82,4.82,0,0,0,.7-1.16,2.85,2.85,0,0,0,.22-1.11,1.62,1.62,0,0,0-.48-1.28,1.8,1.8,0,0,0-1.25-.42,3.66,3.66,0,0,0-1.61.38,8.76,8.76,0,0,0-1.62,1.08l-1.64-1.93a10.77,10.77,0,0,1,1.74-1.27A7.15,7.15,0,0,1,255,69a8,8,0,0,1,1.83-.19,5.45,5.45,0,0,1,2.35.48,3.86,3.86,0,0,1,1.59,1.36,3.68,3.68,0,0,1,.56,2,4.89,4.89,0,0,1-.34,1.84,7.39,7.39,0,0,1-1.07,1.77,27,27,0,0,1-2.56,2.57l-1.82,1.72v.14h6.19Z" style="fill: #314041"/>
    <path d="M269.71,73.26a5.44,5.44,0,0,1-.87,3.36,3,3,0,0,1-2.54,1.12,2.93,2.93,0,0,1-2.48-1.15,5.46,5.46,0,0,1-.87-3.33q0-4.44,3.35-4.44A3,3,0,0,1,268.83,70,5.37,5.37,0,0,1,269.71,73.26Zm-4.31,0a5.65,5.65,0,0,0,.22,1.84c.14.41.38.61.7.61.62,0,.93-.82.93-2.45s-.31-2.43-.93-2.43c-.32,0-.56.2-.7.6A5.54,5.54,0,0,0,265.4,73.28Zm11-4.26-7.89,14.22h-2.33L274.06,69Zm3.27,9.92a5.43,5.43,0,0,1-.87,3.35,3,3,0,0,1-2.54,1.12,2.92,2.92,0,0,1-2.48-1.15,5.43,5.43,0,0,1-.87-3.32c0-3,1.11-4.44,3.35-4.44a3,3,0,0,1,2.52,1.15A5.3,5.3,0,0,1,279.67,78.94Zm-4.31,0a5.65,5.65,0,0,0,.22,1.84c.14.41.38.61.7.61.62,0,.93-.82.93-2.45s-.31-2.43-.93-2.43c-.32,0-.56.2-.7.6A5.58,5.58,0,0,0,275.36,79Z" style="fill: #314041"/>
  </g>
  <g>
    <path d="M348,135.5h-3v-8.23l0-1.35.05-1.48c-.5.5-.85.83-1,1l-1.64,1.32L341,124.93l4.58-3.65H348Z" style="fill: #314041"/>
    <path d="M356.87,121.1a5.4,5.4,0,0,1,3.3.93,3,3,0,0,1,1.25,2.5,3.29,3.29,0,0,1-.61,1.94,5.13,5.13,0,0,1-1.94,1.52,7,7,0,0,1,2.29,1.79,3.32,3.32,0,0,1,.69,2,3.38,3.38,0,0,1-1.37,2.82,5.72,5.72,0,0,1-3.61,1.06,6,6,0,0,1-3.66-1,3.3,3.3,0,0,1-1.34-2.81,3.74,3.74,0,0,1,.65-2.16,5.39,5.39,0,0,1,2.08-1.66,5.27,5.27,0,0,1-1.75-1.64,3.62,3.62,0,0,1-.54-1.92,2.93,2.93,0,0,1,1.27-2.47A5.35,5.35,0,0,1,356.87,121.1Zm-2.21,10.62a1.57,1.57,0,0,0,.58,1.3,3.05,3.05,0,0,0,3.27,0,1.62,1.62,0,0,0,.55-1.27,1.71,1.71,0,0,0-.55-1.22,7,7,0,0,0-1.78-1.22C355.35,129.94,354.66,130.74,354.66,131.72Zm2.19-8.43a1.9,1.9,0,0,0-1.24.4,1.3,1.3,0,0,0-.47,1,1.63,1.63,0,0,0,.38,1.05,4.19,4.19,0,0,0,1.35.95,3.91,3.91,0,0,0,1.34-.92,1.67,1.67,0,0,0,.38-1.08,1.31,1.31,0,0,0-.49-1.06A1.93,1.93,0,0,0,356.85,123.29Z" style="fill: #314041"/>
    <path d="M369.92,125.52a5.44,5.44,0,0,1-.87,3.36,3,3,0,0,1-2.54,1.12,2.93,2.93,0,0,1-2.48-1.15,5.46,5.46,0,0,1-.87-3.33q0-4.44,3.35-4.44a3,3,0,0,1,2.53,1.15A5.37,5.37,0,0,1,369.92,125.52Zm-4.31,0a5.65,5.65,0,0,0,.22,1.84c.14.41.38.61.7.61.62,0,.94-.82.94-2.45s-.32-2.43-.94-2.43c-.32,0-.56.2-.7.6A5.58,5.58,0,0,0,365.61,125.54Zm11-4.26-7.89,14.22h-2.33l7.88-14.22Zm3.27,9.92a5.41,5.41,0,0,1-.87,3.35,3,3,0,0,1-2.54,1.13,2.93,2.93,0,0,1-2.48-1.16,5.43,5.43,0,0,1-.87-3.32c0-3,1.11-4.44,3.35-4.44a3,3,0,0,1,2.53,1.15A5.39,5.39,0,0,1,379.88,131.2Zm-4.31,0a5.65,5.65,0,0,0,.22,1.84c.14.41.38.61.7.61.62,0,.93-.82.93-2.45s-.31-2.43-.93-2.43c-.32,0-.56.2-.7.6A5.58,5.58,0,0,0,375.57,131.22Z" style="fill: #314041"/>
  </g>
  <g>
    <path d="M446.51,175a3.32,3.32,0,0,1-.81,2.26,4.18,4.18,0,0,1-2.26,1.29v.06a4.54,4.54,0,0,1,2.6,1,2.94,2.94,0,0,1,.89,2.24,3.81,3.81,0,0,1-1.49,3.2,6.87,6.87,0,0,1-4.25,1.14,10.17,10.17,0,0,1-4.1-.77v-2.56a9.45,9.45,0,0,0,1.81.69,8,8,0,0,0,2,.26,3.82,3.82,0,0,0,2.2-.51,1.85,1.85,0,0,0,.71-1.62,1.48,1.48,0,0,0-.82-1.42,6,6,0,0,0-2.61-.42h-1.08v-2.3h1.1a5.08,5.08,0,0,0,2.42-.44,1.56,1.56,0,0,0,.76-1.48c0-1.08-.67-1.62-2-1.62a4.46,4.46,0,0,0-1.42.24,6.38,6.38,0,0,0-1.61.81L437.11,173a7.72,7.72,0,0,1,4.63-1.4,6,6,0,0,1,3.49.9A2.86,2.86,0,0,1,446.51,175Z" style="fill: #314041"/>
    <path d="M455.07,176a5.44,5.44,0,0,1-.87,3.36,3,3,0,0,1-2.54,1.12,2.91,2.91,0,0,1-2.47-1.15,5.39,5.39,0,0,1-.88-3.33q0-4.46,3.35-4.45a3,3,0,0,1,2.53,1.16A5.28,5.28,0,0,1,455.07,176Zm-4.31,0a5.65,5.65,0,0,0,.22,1.84c.14.41.38.61.7.61.63,0,.94-.82.94-2.45s-.31-2.43-.94-2.43a.75.75,0,0,0-.7.59A5.61,5.61,0,0,0,450.76,176.06Zm11-4.26L453.87,186h-2.33l7.89-14.22Zm3.27,9.92a5.43,5.43,0,0,1-.87,3.35,3,3,0,0,1-2.54,1.12,2.93,2.93,0,0,1-2.48-1.15,5.45,5.45,0,0,1-.87-3.32q0-4.46,3.35-4.45a3,3,0,0,1,2.53,1.16A5.35,5.35,0,0,1,465,181.72Zm-4.31,0a5.65,5.65,0,0,0,.22,1.84c.14.41.38.61.7.61.63,0,.94-.82.94-2.45s-.31-2.43-.94-2.43a.75.75,0,0,0-.7.59A5.61,5.61,0,0,0,460.72,181.74Z" style="fill: #314041"/>
  </g>
  <circle cx="63.09" cy="199.19" r="6.06" style="fill: #fff;stroke: #304041;stroke-linecap: round;stroke-linejoin: round;stroke-width: 2.25px"/>
  <circle cx="160.21" cy="61.37" r="6.06" style="fill: #fff;stroke: #304041;stroke-linecap: round;stroke-linejoin: round;stroke-width: 2.25px"/>
  <circle cx="255.88" cy="97.87" r="6.06" style="fill: #fff;stroke: #304041;stroke-linecap: round;stroke-linejoin: round;stroke-width: 2.25px"/>
  <circle cx="351.48" cy="151.71" r="6.06" style="fill: #fff;stroke: #304041;stroke-linecap: round;stroke-linejoin: round;stroke-width: 2.25px"/>
  <circle cx="447.48" cy="210.79" r="6.06" style="fill: #fff;stroke: #304041;stroke-linecap: round;stroke-linejoin: round;stroke-width: 2.25px"/>
</svg>
