<svg xmlns="http://www.w3.org/2000/svg" viewBox="0 0 511 271">
  <title>banking_portfolio</title>
  <g style="opacity: 0.1">
    <polyline points="63.48 222.51 159.48 63.51 255.48 148.51 351.48 160.51 447.48 212.51" style="fill: none;stroke: #304041;stroke-linecap: round;stroke-linejoin: round;stroke-width: 2.25px"/>
  </g>
  <polyline points="63.48 210.51 159.48 51.51 255.48 136.51 351.48 148.51 447.48 200.51" style="fill: none;stroke: #304041;stroke-linecap: round;stroke-linejoin: round;stroke-width: 2.25px"/>
  <g>
    <path d="M42.3,194H32.36v-2.09l3.57-3.61A30,30,0,0,0,38,186a5.08,5.08,0,0,0,.71-1.17,3,3,0,0,0,.21-1.1,1.65,1.65,0,0,0-.47-1.28,1.84,1.84,0,0,0-1.26-.42,3.69,3.69,0,0,0-1.61.38A8.76,8.76,0,0,0,34,183.49l-1.63-1.93a10.77,10.77,0,0,1,1.74-1.27,7.06,7.06,0,0,1,1.5-.57,8,8,0,0,1,1.83-.2,5.53,5.53,0,0,1,2.36.49,3.83,3.83,0,0,1,1.58,1.36,3.6,3.6,0,0,1,.56,2,4.93,4.93,0,0,1-.34,1.84A7.16,7.16,0,0,1,40.49,187a24.3,24.3,0,0,1-2.55,2.58l-1.83,1.72v.14H42.3Z" style="fill: #314041"/>
    <path d="M50.31,184a5.44,5.44,0,0,1-.87,3.36,3,3,0,0,1-2.54,1.12,2.93,2.93,0,0,1-2.48-1.15,5.46,5.46,0,0,1-.87-3.33c0-3,1.12-4.45,3.35-4.45a3,3,0,0,1,2.53,1.16A5.37,5.37,0,0,1,50.31,184ZM46,184a5.65,5.65,0,0,0,.22,1.84c.14.41.38.61.7.61.63,0,.94-.82.94-2.45s-.31-2.43-.94-2.43c-.32,0-.56.2-.7.6A5.54,5.54,0,0,0,46,184Zm11-4.26L49.11,194H46.78l7.89-14.22Zm3.27,9.92A5.43,5.43,0,0,1,59.4,193a3,3,0,0,1-2.54,1.12A2.93,2.93,0,0,1,54.38,193a5.45,5.45,0,0,1-.87-3.32c0-3,1.12-4.45,3.35-4.45a3,3,0,0,1,2.53,1.16A5.37,5.37,0,0,1,60.27,189.65Zm-4.31,0a5.65,5.65,0,0,0,.22,1.84c.14.41.38.61.7.61.63,0,.94-.82.94-2.45s-.31-2.43-.94-2.43c-.32,0-.56.2-.7.6A5.54,5.54,0,0,0,56,189.67Z" style="fill: #314041"/>
  </g>
  <g>
    <path d="M153.55,32.26h-1.71v3H148.9v-3h-6.07V30.17L149.07,21h2.77v8.93h1.71Zm-4.65-2.34V27.51c0-.4,0-1,0-1.75s.06-1.21.08-1.33H149a10.35,10.35,0,0,1-.87,1.55l-2.6,3.94Z" style="fill: #314041"/>
    <path d="M164.54,27.05q0,4.22-1.77,6.28a6.67,6.67,0,0,1-5.36,2.07,10,10,0,0,1-1.91-.14V32.85a6.79,6.79,0,0,0,1.71.2,6,6,0,0,0,2.48-.44,3.14,3.14,0,0,0,1.49-1.39,6.14,6.14,0,0,0,.59-2.61h-.12a3.24,3.24,0,0,1-1.3,1.28,4.06,4.06,0,0,1-1.85.37,3.73,3.73,0,0,1-2.93-1.19,4.79,4.79,0,0,1-1.07-3.31,5,5,0,0,1,1.3-3.61,4.72,4.72,0,0,1,3.54-1.33,5.07,5.07,0,0,1,2.75.74,4.74,4.74,0,0,1,1.82,2.14A8.17,8.17,0,0,1,164.54,27.05Zm-5.14-3.82a1.79,1.79,0,0,0-1.46.64,2.87,2.87,0,0,0-.53,1.85,2.58,2.58,0,0,0,.48,1.64,1.74,1.74,0,0,0,1.45.6,2.21,2.21,0,0,0,1.56-.6,1.82,1.82,0,0,0,.66-1.38A3.15,3.15,0,0,0,161,24,1.88,1.88,0,0,0,159.4,23.23Z" style="fill: #314041"/>
    <path d="M172.6,25.23a5.44,5.44,0,0,1-.86,3.36,3,3,0,0,1-2.54,1.12,2.92,2.92,0,0,1-2.48-1.15,5.46,5.46,0,0,1-.88-3.33q0-4.45,3.36-4.45a3,3,0,0,1,2.52,1.15A5.34,5.34,0,0,1,172.6,25.23Zm-4.3,0a6,6,0,0,0,.21,1.84c.15.4.38.61.71.61.62,0,.93-.82.93-2.45s-.31-2.44-.93-2.44c-.33,0-.56.2-.71.6A6,6,0,0,0,168.3,25.25Zm11-4.26-7.89,14.22h-2.34L177,21Zm3.26,9.92a5.5,5.5,0,0,1-.86,3.35,3,3,0,0,1-2.54,1.12,2.92,2.92,0,0,1-2.48-1.15,5.45,5.45,0,0,1-.88-3.32q0-4.45,3.36-4.45a3,3,0,0,1,2.52,1.15A5.34,5.34,0,0,1,182.56,30.91Zm-4.31,0a6,6,0,0,0,.22,1.84c.15.4.38.61.71.61.62,0,.93-.82.93-2.45s-.31-2.44-.93-2.44c-.33,0-.56.2-.71.6A5.89,5.89,0,0,0,178.25,30.93Z" style="fill: #314041"/>
  </g>
  <g>
    <path d="M256.27,115h-9.94v-2.09l3.57-3.61c1.06-1.09,1.75-1.84,2.08-2.25a5.37,5.37,0,0,0,.7-1.17,3,3,0,0,0,.21-1.1,1.63,1.63,0,0,0-.47-1.28,1.84,1.84,0,0,0-1.26-.42,3.69,3.69,0,0,0-1.61.38,8.13,8.13,0,0,0-1.62,1.08l-1.63-1.93a10.77,10.77,0,0,1,1.74-1.27,7.06,7.06,0,0,1,1.5-.57,8,8,0,0,1,1.83-.2,5.5,5.5,0,0,1,2.36.49,3.7,3.7,0,0,1,1.58,1.36,3.57,3.57,0,0,1,.57,2,5,5,0,0,1-.35,1.85,7.16,7.16,0,0,1-1.07,1.76,24.3,24.3,0,0,1-2.55,2.58l-1.83,1.72v.14h6.19Z" style="fill: #314041"/>
    <path d="M268,112.06h-1.71v3h-2.93v-3h-6.07V110l6.23-9.18h2.77v8.93H268Zm-4.64-2.34v-2.41c0-.4,0-1,0-1.75s.06-1.21.08-1.33h-.08a10.9,10.9,0,0,1-.86,1.56l-2.61,3.93Z" style="fill: #314041"/>
    <path d="M275.65,105a5.44,5.44,0,0,1-.87,3.36,3,3,0,0,1-2.54,1.12,2.93,2.93,0,0,1-2.48-1.15,5.46,5.46,0,0,1-.87-3.33q0-4.45,3.35-4.45a3,3,0,0,1,2.53,1.16A5.28,5.28,0,0,1,275.65,105Zm-4.31,0a5.69,5.69,0,0,0,.22,1.84c.14.41.38.61.7.61.63,0,.94-.82.94-2.45s-.31-2.43-.94-2.43a.74.74,0,0,0-.7.59A5.61,5.61,0,0,0,271.34,105.05Zm11-4.26L274.45,115h-2.33L280,100.79Zm3.27,9.92a5.43,5.43,0,0,1-.87,3.35,3,3,0,0,1-2.54,1.12,2.93,2.93,0,0,1-2.48-1.15,5.45,5.45,0,0,1-.87-3.32q0-4.45,3.35-4.45a3,3,0,0,1,2.53,1.16A5.35,5.35,0,0,1,285.61,110.71Zm-4.31,0a5.65,5.65,0,0,0,.22,1.84c.14.4.38.61.7.61.63,0,.94-.82.94-2.45s-.31-2.43-.94-2.43a.75.75,0,0,0-.7.59A5.61,5.61,0,0,0,281.3,110.73Z" style="fill: #314041"/>
  </g>
  <g>
    <path d="M342.93,133H333v-2.09l3.57-3.61q1.59-1.64,2.07-2.25a4.68,4.68,0,0,0,.7-1.17,2.77,2.77,0,0,0,.22-1.1,1.6,1.6,0,0,0-.48-1.28,1.8,1.8,0,0,0-1.25-.42,3.66,3.66,0,0,0-1.61.38,7.86,7.86,0,0,0-1.62,1.08L333,120.62a10.77,10.77,0,0,1,1.74-1.27,7.15,7.15,0,0,1,1.51-.57,8,8,0,0,1,1.83-.2,5.45,5.45,0,0,1,2.35.49,3.79,3.79,0,0,1,1.59,1.36,3.65,3.65,0,0,1,.56,2,4.94,4.94,0,0,1-.34,1.85,7.16,7.16,0,0,1-1.07,1.76,25.7,25.7,0,0,1-2.56,2.58l-1.82,1.72v.14h6.19Z" style="fill: #314041"/>
    <path d="M354.22,125.9a9.84,9.84,0,0,1-1.22,5.51,4.23,4.23,0,0,1-3.76,1.79,4.18,4.18,0,0,1-3.71-1.85,9.78,9.78,0,0,1-1.25-5.45,10,10,0,0,1,1.22-5.55,4.72,4.72,0,0,1,7.46.08A9.81,9.81,0,0,1,354.22,125.9Zm-7,0a11.15,11.15,0,0,0,.45,3.75,1.58,1.58,0,0,0,3,0,15.16,15.16,0,0,0,0-7.49,1.59,1.59,0,0,0-1.52-1.14,1.56,1.56,0,0,0-1.51,1.14A10.87,10.87,0,0,0,347.27,125.9Z" style="fill: #314041"/>
    <path d="M362.31,123a5.44,5.44,0,0,1-.87,3.36,3,3,0,0,1-2.54,1.12,2.92,2.92,0,0,1-2.48-1.15,5.46,5.46,0,0,1-.87-3.33c0-3,1.11-4.45,3.35-4.45a3,3,0,0,1,2.53,1.16A5.35,5.35,0,0,1,362.31,123Zm-4.31,0a5.69,5.69,0,0,0,.22,1.84c.14.41.38.61.7.61.62,0,.93-.82.93-2.45s-.31-2.43-.93-2.43a.74.74,0,0,0-.7.59A5.61,5.61,0,0,0,358,123.05Zm11-4.26L361.11,133h-2.33l7.88-14.22Zm3.26,9.92a5.43,5.43,0,0,1-.86,3.35,3,3,0,0,1-2.54,1.12,2.92,2.92,0,0,1-2.48-1.15,5.45,5.45,0,0,1-.88-3.32q0-4.46,3.36-4.45a3,3,0,0,1,2.52,1.16A5.28,5.28,0,0,1,372.26,128.71Zm-4.3,0a6,6,0,0,0,.21,1.84c.15.4.39.61.71.61.62,0,.93-.82.93-2.45s-.31-2.43-.93-2.43a.77.77,0,0,0-.71.59A6,6,0,0,0,368,128.73Z" style="fill: #314041"/>
  </g>
  <g>
    <path d="M444.85,173.92a4.58,4.58,0,0,1,3.28,1.16,4.14,4.14,0,0,1,1.22,3.17,4.62,4.62,0,0,1-1.47,3.67,6.22,6.22,0,0,1-4.2,1.28,8.12,8.12,0,0,1-3.83-.77v-2.59a8,8,0,0,0,1.79.66,8,8,0,0,0,1.94.26c1.83,0,2.75-.75,2.75-2.26s-.95-2.15-2.85-2.15a6.94,6.94,0,0,0-1.14.11,6.86,6.86,0,0,0-1,.22l-1.2-.65.54-7.24h7.71v2.55H443.3l-.26,2.79.34-.07A6.78,6.78,0,0,1,444.85,173.92Z" style="fill: #314041"/>
    <path d="M457.62,173a5.44,5.44,0,0,1-.87,3.36,3,3,0,0,1-2.53,1.12,2.92,2.92,0,0,1-2.48-1.15,5.39,5.39,0,0,1-.88-3.33q0-4.46,3.36-4.45a3,3,0,0,1,2.52,1.16A5.28,5.28,0,0,1,457.62,173Zm-4.31,0a5.65,5.65,0,0,0,.22,1.84c.15.41.38.61.7.61.63,0,.94-.82.94-2.45s-.31-2.43-.94-2.43c-.32,0-.55.2-.7.59A5.61,5.61,0,0,0,453.31,173.05Zm11-4.26L456.42,183h-2.33L462,168.79Zm3.27,9.92a5.43,5.43,0,0,1-.87,3.35,3,3,0,0,1-2.54,1.12,3,3,0,0,1-2.48-1.15,5.45,5.45,0,0,1-.87-3.32c0-3,1.12-4.45,3.35-4.45a3,3,0,0,1,2.53,1.16A5.28,5.28,0,0,1,467.58,178.71Zm-4.31,0a5.65,5.65,0,0,0,.22,1.84c.15.41.38.61.7.61.63,0,.94-.82.94-2.45s-.31-2.43-.94-2.43c-.32,0-.55.2-.7.59A5.61,5.61,0,0,0,463.27,178.73Z" style="fill: #314041"/>
  </g>
  <circle cx="63.48" cy="210.51" r="6.06" style="fill: #fff;stroke: #304041;stroke-linecap: round;stroke-linejoin: round;stroke-width: 2.25px"/>
  <circle cx="160.06" cy="51.51" r="6.06" style="fill: #fff;stroke: #304041;stroke-linecap: round;stroke-linejoin: round;stroke-width: 2.25px"/>
  <circle cx="255.48" cy="136.34" r="6.06" style="fill: #fff;stroke: #304041;stroke-linecap: round;stroke-linejoin: round;stroke-width: 2.25px"/>
  <circle cx="351.5" cy="148.61" r="6.06" style="fill: #fff;stroke: #304041;stroke-linecap: round;stroke-linejoin: round;stroke-width: 2.25px"/>
  <circle cx="447.48" cy="200.01" r="6.06" style="fill: #fff;stroke: #304041;stroke-linecap: round;stroke-linejoin: round;stroke-width: 2.25px"/>
</svg>
