<svg id="Layer_1" data-name="Layer 1" xmlns="http://www.w3.org/2000/svg" viewBox="0 0 511 271">
  <title>discrete_manufacturing_portfolio</title>
  <g style="opacity: 0.1">
    <polyline points="63.38 210.53 159.38 74.86 256.38 161.09 352.38 138.09 449.38 223.18" style="fill: none;stroke: #304041;stroke-linecap: round;stroke-linejoin: round;stroke-width: 2.25px"/>
  </g>
  <polyline points="63.38 198.53 159.38 62.85 256.38 149.09 352.38 126.09 449.38 211.18" style="fill: none;stroke: #304041;stroke-linecap: round;stroke-linejoin: round;stroke-width: 2.25px"/>
  <g>
    <path d="M27.39,180.46c0-2.81.59-4.91,1.78-6.28a6.67,6.67,0,0,1,5.35-2.06,10.31,10.31,0,0,1,1.9.14v2.41a7.68,7.68,0,0,0-1.71-.2,5.87,5.87,0,0,0-2.52.47,3.11,3.11,0,0,0-1.46,1.38,6.25,6.25,0,0,0-.58,2.6h.13a3.29,3.29,0,0,1,3.08-1.66,3.82,3.82,0,0,1,3,1.2,4.76,4.76,0,0,1,1.08,3.31,5,5,0,0,1-1.29,3.6,4.73,4.73,0,0,1-3.56,1.33,5.12,5.12,0,0,1-2.74-.73A4.7,4.7,0,0,1,28,183.84,8.06,8.06,0,0,1,27.39,180.46Zm5.13,3.83a1.77,1.77,0,0,0,1.48-.64,2.87,2.87,0,0,0,.52-1.85,2.51,2.51,0,0,0-.48-1.63,1.76,1.76,0,0,0-1.46-.6,2.24,2.24,0,0,0-1.56.59,1.83,1.83,0,0,0-.64,1.38,3.17,3.17,0,0,0,.6,2A1.87,1.87,0,0,0,32.52,184.29Z" style="fill: #314041"/>
    <path d="M45.43,176.52a5.51,5.51,0,0,1-.86,3.36A3,3,0,0,1,42,181a2.93,2.93,0,0,1-2.48-1.16,5.35,5.35,0,0,1-.88-3.33q0-4.44,3.36-4.44a3,3,0,0,1,2.52,1.15A5.32,5.32,0,0,1,45.43,176.52Zm-4.31,0a6,6,0,0,0,.22,1.85c.15.4.38.6.71.6.62,0,.93-.81.93-2.45s-.31-2.43-.93-2.43c-.33,0-.56.2-.71.6A5.87,5.87,0,0,0,41.12,176.54Zm11-4.26L44.23,186.5H41.9l7.89-14.22Zm3.27,9.92a5.41,5.41,0,0,1-.87,3.35A3,3,0,0,1,52,186.68a2.93,2.93,0,0,1-2.48-1.16,5.34,5.34,0,0,1-.88-3.32q0-4.44,3.36-4.44a3,3,0,0,1,2.52,1.15A5.32,5.32,0,0,1,55.39,182.2Zm-4.31,0a5.72,5.72,0,0,0,.22,1.85c.15.4.38.6.71.6.62,0,.93-.81.93-2.45s-.31-2.43-.93-2.43c-.33,0-.56.2-.71.6A5.58,5.58,0,0,0,51.08,182.22Z" style="fill: #314041"/>
  </g>
  <g>
    <path d="M150.12,43.24h-1.71v2.94h-2.94V43.24H139.4v-2.1L145.63,32h2.78V40.9h1.71Zm-4.65-2.34V38.49c0-.4,0-1,.05-1.75s.06-1.21.08-1.33h-.08a10.35,10.35,0,0,1-.87,1.55l-2.6,3.94Z" style="fill: #314041"/>
    <path d="M156.4,37.1a4.54,4.54,0,0,1,3.28,1.16,4.12,4.12,0,0,1,1.22,3.17,4.61,4.61,0,0,1-1.46,3.66,6.18,6.18,0,0,1-4.21,1.29,8.25,8.25,0,0,1-3.83-.77V43a8,8,0,0,0,1.79.67,8,8,0,0,0,1.94.26c1.83,0,2.75-.76,2.75-2.26s-.95-2.15-2.85-2.15a7,7,0,0,0-1.14.1,8.46,8.46,0,0,0-1,.22l-1.2-.64.54-7.25h7.71v2.55h-5.08l-.26,2.79.34-.07A6.85,6.85,0,0,1,156.4,37.1Z" style="fill: #314041"/>
    <path d="M169.17,36.2a5.47,5.47,0,0,1-.86,3.36,3,3,0,0,1-2.54,1.13,3,3,0,0,1-2.48-1.15,5.4,5.4,0,0,1-.88-3.34q0-4.44,3.36-4.44a3,3,0,0,1,2.52,1.15A5.32,5.32,0,0,1,169.17,36.2Zm-4.31,0a6,6,0,0,0,.22,1.85c.15.4.38.6.71.6.62,0,.93-.81.93-2.45s-.31-2.43-.93-2.43c-.33,0-.56.2-.71.6A5.87,5.87,0,0,0,164.86,36.22Zm11-4.26L168,46.18h-2.33L173.53,32Zm3.27,9.92a5.39,5.39,0,0,1-.87,3.35,3,3,0,0,1-2.53,1.13,3,3,0,0,1-2.48-1.15,5.39,5.39,0,0,1-.88-3.33q0-4.44,3.36-4.44a3,3,0,0,1,2.52,1.15A5.32,5.32,0,0,1,179.13,41.88Zm-4.31,0a5.72,5.72,0,0,0,.22,1.85c.15.4.38.6.71.6.62,0,.93-.81.93-2.45s-.31-2.43-.93-2.43c-.33,0-.56.2-.71.6A5.58,5.58,0,0,0,174.82,41.9Z" style="fill: #314041"/>
  </g>
  <g>
    <path d="M252.83,131.67h-9.94v-2.09l3.57-3.61a30,30,0,0,0,2.07-2.25,4.64,4.64,0,0,0,.7-1.16,2.85,2.85,0,0,0,.22-1.11,1.61,1.61,0,0,0-.47-1.27,1.84,1.84,0,0,0-1.26-.42,3.56,3.56,0,0,0-1.61.38,7.86,7.86,0,0,0-1.62,1.08l-1.64-1.94A10.42,10.42,0,0,1,244.6,118a6.13,6.13,0,0,1,1.5-.57,7.44,7.44,0,0,1,1.83-.2,5.53,5.53,0,0,1,2.36.48,3.78,3.78,0,0,1,1.58,1.37,3.57,3.57,0,0,1,.56,2,4.86,4.86,0,0,1-.34,1.84,7.2,7.2,0,0,1-1.07,1.77,26.39,26.39,0,0,1-2.55,2.58L246.64,129v.13h6.19Z" style="fill: #314041"/>
    <path d="M264.13,124.56a9.87,9.87,0,0,1-1.23,5.52,4.23,4.23,0,0,1-3.76,1.79,4.18,4.18,0,0,1-3.7-1.85,9.71,9.71,0,0,1-1.25-5.46q0-3.77,1.21-5.55a4.74,4.74,0,0,1,7.47.09A9.75,9.75,0,0,1,264.13,124.56Zm-7,0a11.07,11.07,0,0,0,.45,3.75,1.59,1.59,0,0,0,3,0,15.2,15.2,0,0,0,0-7.5,1.59,1.59,0,0,0-1.52-1.14,1.56,1.56,0,0,0-1.51,1.14A11,11,0,0,0,257.17,124.56Z" style="fill: #314041"/>
    <path d="M272.21,121.69a5.44,5.44,0,0,1-.87,3.36,3,3,0,0,1-2.54,1.13,2.94,2.94,0,0,1-2.48-1.16,5.42,5.42,0,0,1-.87-3.33q0-4.44,3.35-4.44a3,3,0,0,1,2.53,1.15A5.39,5.39,0,0,1,272.21,121.69Zm-4.31,0a5.72,5.72,0,0,0,.22,1.85c.14.4.38.6.7.6.63,0,.94-.81.94-2.45s-.31-2.43-.94-2.43c-.32,0-.56.2-.7.6A5.58,5.58,0,0,0,267.9,121.71Zm11-4.26L271,131.67h-2.33l7.88-14.22Zm3.27,9.92a5.41,5.41,0,0,1-.87,3.35,3,3,0,0,1-2.54,1.13,2.94,2.94,0,0,1-2.48-1.16,5.41,5.41,0,0,1-.87-3.32q0-4.44,3.35-4.44a3,3,0,0,1,2.53,1.15A5.39,5.39,0,0,1,282.17,127.37Zm-4.31,0a5.72,5.72,0,0,0,.22,1.85c.14.4.38.6.7.6.62,0,.94-.81.94-2.45s-.32-2.43-.94-2.43c-.32,0-.56.2-.7.6A5.58,5.58,0,0,0,277.86,127.39Z" style="fill: #314041"/>
  </g>
  <g>
    <path d="M342.77,112.92h-9.94v-2.09l3.57-3.61c1.06-1.08,1.75-1.83,2.08-2.25a5.33,5.33,0,0,0,.7-1.16,3,3,0,0,0,.21-1.11,1.61,1.61,0,0,0-.47-1.27,1.84,1.84,0,0,0-1.26-.42,3.56,3.56,0,0,0-1.61.38,8.13,8.13,0,0,0-1.62,1.08l-1.63-1.94a10,10,0,0,1,1.74-1.26,6.13,6.13,0,0,1,1.5-.57,7.44,7.44,0,0,1,1.83-.2,5.5,5.5,0,0,1,2.36.48,3.72,3.72,0,0,1,1.58,1.37,3.57,3.57,0,0,1,.57,2,4.86,4.86,0,0,1-.35,1.84A7.2,7.2,0,0,1,341,106a26.39,26.39,0,0,1-2.55,2.58l-1.83,1.72v.13h6.19Z" style="fill: #314041"/>
    <path d="M345.61,112.92,351,101.25h-7V98.72h10.2v1.89l-5.37,12.31Z" style="fill: #314041"/>
    <path d="M362.15,102.94a5.44,5.44,0,0,1-.87,3.36,3,3,0,0,1-2.54,1.13,2.92,2.92,0,0,1-2.47-1.16,5.35,5.35,0,0,1-.88-3.33q0-4.44,3.35-4.44a3,3,0,0,1,2.53,1.15A5.39,5.39,0,0,1,362.15,102.94Zm-4.31,0a5.72,5.72,0,0,0,.22,1.85c.14.4.38.6.7.6.63,0,.94-.81.94-2.45s-.31-2.43-.94-2.43c-.32,0-.56.2-.7.6A5.58,5.58,0,0,0,357.84,103Zm11-4.26L361,112.92h-2.33l7.89-14.22Zm3.27,9.92a5.41,5.41,0,0,1-.87,3.35,3,3,0,0,1-2.54,1.13,2.94,2.94,0,0,1-2.48-1.16,5.41,5.41,0,0,1-.87-3.32q0-4.44,3.35-4.44a3,3,0,0,1,2.53,1.15A5.39,5.39,0,0,1,372.11,108.62Zm-4.31,0a5.72,5.72,0,0,0,.22,1.85c.14.4.38.6.7.6.63,0,.94-.81.94-2.45s-.31-2.43-.94-2.43c-.32,0-.56.2-.7.6A5.58,5.58,0,0,0,367.8,108.64Z" style="fill: #314041"/>
  </g>
  <g>
    <path d="M451.52,193.3h-9.94v-2.1l3.57-3.6c1.05-1.09,1.74-1.84,2.07-2.26a4.77,4.77,0,0,0,.7-1.16,3,3,0,0,0,.21-1.11,1.59,1.59,0,0,0-.47-1.27,1.81,1.81,0,0,0-1.26-.42,3.65,3.65,0,0,0-1.6.38,8.18,8.18,0,0,0-1.63,1.08l-1.63-1.94a11.24,11.24,0,0,1,1.74-1.26,6.05,6.05,0,0,1,1.51-.57,7.83,7.83,0,0,1,1.83-.2,5.34,5.34,0,0,1,2.35.49,3.79,3.79,0,0,1,1.59,1.36,3.65,3.65,0,0,1,.56,2,5,5,0,0,1-.35,1.85,6.86,6.86,0,0,1-1.07,1.76,26.39,26.39,0,0,1-2.55,2.58l-1.83,1.72v.14h6.2Z" style="fill: #314041"/>
    <path d="M459.52,183.32a5.51,5.51,0,0,1-.86,3.36,3,3,0,0,1-2.54,1.12,2.92,2.92,0,0,1-2.48-1.15,5.46,5.46,0,0,1-.88-3.33q0-4.45,3.36-4.45a3,3,0,0,1,2.52,1.15A5.34,5.34,0,0,1,459.52,183.32Zm-4.31,0a6,6,0,0,0,.22,1.84c.15.4.38.61.71.61.62,0,.93-.82.93-2.45s-.31-2.44-.93-2.44c-.33,0-.56.2-.71.6A5.89,5.89,0,0,0,455.21,183.34Zm11-4.26-7.88,14.22H456l7.89-14.22Zm3.27,9.92a5.5,5.5,0,0,1-.86,3.35,3,3,0,0,1-2.54,1.12,2.92,2.92,0,0,1-2.48-1.15,5.38,5.38,0,0,1-.88-3.32q0-4.45,3.36-4.45a3,3,0,0,1,2.52,1.15A5.34,5.34,0,0,1,469.48,189Zm-4.31,0a6,6,0,0,0,.22,1.84c.15.4.38.61.71.61.62,0,.93-.82.93-2.45s-.31-2.44-.93-2.44c-.33,0-.56.2-.71.6A5.89,5.89,0,0,0,465.17,189Z" style="fill: #314041"/>
  </g>
  <circle cx="63.38" cy="199.35" r="6.06" style="fill: #fff;stroke: #304041;stroke-linecap: round;stroke-linejoin: round;stroke-width: 2.25px"/>
  <circle cx="159.4" cy="62.85" r="6.06" style="fill: #fff;stroke: #304041;stroke-linecap: round;stroke-linejoin: round;stroke-width: 2.25px"/>
  <circle cx="256.38" cy="149.51" r="6.06" style="fill: #fff;stroke: #304041;stroke-linecap: round;stroke-linejoin: round;stroke-width: 2.25px"/>
  <circle cx="352.38" cy="127.01" r="6.06" style="fill: #fff;stroke: #304041;stroke-linecap: round;stroke-linejoin: round;stroke-width: 2.25px"/>
  <circle cx="449.38" cy="211.18" r="6.06" style="fill: #fff;stroke: #304041;stroke-linecap: round;stroke-linejoin: round;stroke-width: 2.25px"/>
</svg>
