<svg xmlns="http://www.w3.org/2000/svg" viewBox="0 0 511 271">
  <title>discrete_manufacturing_portfolio</title>
  <g style="opacity: 0.1">
    <polyline points="63.38 226.63 159.38 154.19 256.38 180.64 352.38 65.66 449.38 180.64" style="fill: none;stroke: #304041;stroke-linecap: round;stroke-linejoin: round;stroke-width: 2.25px"/>
  </g>
  <polyline points="63.38 214.63 159.38 142.19 256.38 168.64 352.38 53.66 449.38 168.64" style="fill: none;stroke: #304041;stroke-linecap: round;stroke-linejoin: round;stroke-width: 2.25px"/>
  <g>
    <path d="M41.13,202.46h-3v-8.22l0-1.36.05-1.47c-.5.5-.85.82-1,1l-1.64,1.31-1.45-1.81,4.58-3.64h2.48Z" style="fill: #314041"/>
    <path d="M51.64,192.49a5.44,5.44,0,0,1-.87,3.36A3,3,0,0,1,48.23,197a2.91,2.91,0,0,1-2.47-1.15,5.39,5.39,0,0,1-.88-3.33q0-4.45,3.35-4.45a3,3,0,0,1,2.53,1.15A5.34,5.34,0,0,1,51.64,192.49Zm-4.31,0a5.69,5.69,0,0,0,.22,1.84c.14.4.38.61.7.61.63,0,.94-.82.94-2.45s-.31-2.44-.94-2.44c-.32,0-.56.2-.7.6A5.61,5.61,0,0,0,47.33,192.51Zm11-4.26-7.89,14.21H48.11L56,188.25Zm3.27,9.92a5.43,5.43,0,0,1-.87,3.35,3,3,0,0,1-2.54,1.12,2.93,2.93,0,0,1-2.48-1.15,5.45,5.45,0,0,1-.87-3.32q0-4.46,3.35-4.45a3,3,0,0,1,2.53,1.15A5.34,5.34,0,0,1,61.6,198.17Zm-4.31,0a5.72,5.72,0,0,0,.22,1.85c.14.4.38.61.7.61.63,0,.94-.82.94-2.46s-.31-2.43-.94-2.43c-.32,0-.56.2-.7.6A5.58,5.58,0,0,0,57.29,198.18Z" style="fill: #314041"/>
  </g>
  <g>
    <path d="M149.8,126.42h-9.94v-2.09l3.57-3.61q1.57-1.62,2.07-2.25a5,5,0,0,0,.7-1.16,3,3,0,0,0,.21-1.11,1.62,1.62,0,0,0-.47-1.27,1.81,1.81,0,0,0-1.26-.42,3.62,3.62,0,0,0-1.6.38,8.18,8.18,0,0,0-1.63,1.08L139.82,114a11.24,11.24,0,0,1,1.74-1.26,6.05,6.05,0,0,1,1.51-.57,7.8,7.8,0,0,1,1.82-.2,5.35,5.35,0,0,1,2.36.49,3.64,3.64,0,0,1,1.58,1.36,3.57,3.57,0,0,1,.57,2,5,5,0,0,1-.35,1.85,6.86,6.86,0,0,1-1.07,1.76,26.39,26.39,0,0,1-2.55,2.58l-1.83,1.72v.14h6.2Z" style="fill: #314041"/>
    <path d="M161.17,126.42h-9.94v-2.09l3.57-3.61q1.57-1.62,2.07-2.25a5.33,5.33,0,0,0,.7-1.16,3,3,0,0,0,.21-1.11,1.62,1.62,0,0,0-.47-1.27,1.83,1.83,0,0,0-1.26-.42,3.62,3.62,0,0,0-1.6.38,8.18,8.18,0,0,0-1.63,1.08L151.19,114a11.24,11.24,0,0,1,1.74-1.26,6.05,6.05,0,0,1,1.51-.57,7.8,7.8,0,0,1,1.82-.2,5.35,5.35,0,0,1,2.36.49,3.64,3.64,0,0,1,1.58,1.36,3.57,3.57,0,0,1,.57,2,5,5,0,0,1-.35,1.85,7.16,7.16,0,0,1-1.07,1.76A26.39,26.39,0,0,1,156.8,122L155,123.76v.14h6.2Z" style="fill: #314041"/>
    <path d="M169.17,116.45a5.51,5.51,0,0,1-.86,3.36,3,3,0,0,1-2.54,1.12,2.92,2.92,0,0,1-2.48-1.15,5.39,5.39,0,0,1-.88-3.33q0-4.45,3.36-4.45a3,3,0,0,1,2.52,1.15A5.34,5.34,0,0,1,169.17,116.45Zm-4.31,0a6,6,0,0,0,.22,1.84c.15.4.38.61.71.61.62,0,.93-.82.93-2.45s-.31-2.44-.93-2.44c-.33,0-.56.2-.71.6A5.89,5.89,0,0,0,164.86,116.47Zm11-4.26L168,126.42h-2.33l7.89-14.21Zm3.27,9.92a5.43,5.43,0,0,1-.87,3.35,3,3,0,0,1-2.53,1.12,2.92,2.92,0,0,1-2.48-1.15,5.38,5.38,0,0,1-.88-3.32q0-4.45,3.36-4.45a3,3,0,0,1,2.52,1.15A5.34,5.34,0,0,1,179.13,122.13Zm-4.31,0A5.72,5.72,0,0,0,175,124c.15.4.38.61.7.61.63,0,.94-.82.94-2.46s-.31-2.43-.94-2.43c-.32,0-.55.2-.7.6A5.58,5.58,0,0,0,174.82,122.14Z" style="fill: #314041"/>
  </g>
  <g>
    <path d="M231,152.67h-3v-8.23l0-1.35.05-1.48c-.5.5-.85.83-1,1l-1.64,1.31-1.45-1.81,4.58-3.65H231Z" style="fill: #314041"/>
    <path d="M245.17,149.73h-1.71v2.94h-2.94v-2.94h-6.06v-2.1l6.23-9.18h2.77v8.94h1.71Zm-4.65-2.34V145c0-.4,0-1,0-1.75s.06-1.21.08-1.33h-.08a11.25,11.25,0,0,1-.86,1.55l-2.61,3.94Z" style="fill: #314041"/>
    <path d="M252.86,142.69a5.44,5.44,0,0,1-.87,3.36,3,3,0,0,1-2.54,1.13A2.94,2.94,0,0,1,247,146a5.42,5.42,0,0,1-.87-3.33q0-4.44,3.35-4.44A3,3,0,0,1,252,139.4,5.39,5.39,0,0,1,252.86,142.69Zm-4.31,0a5.72,5.72,0,0,0,.22,1.85c.14.4.38.6.7.6.63,0,.94-.81.94-2.45s-.31-2.43-.94-2.43c-.32,0-.56.2-.7.6A5.58,5.58,0,0,0,248.55,142.71Zm11-4.26-7.89,14.22h-2.33l7.88-14.22Zm3.27,9.92a5.41,5.41,0,0,1-.87,3.35,3,3,0,0,1-2.54,1.13,2.94,2.94,0,0,1-2.48-1.16,5.41,5.41,0,0,1-.87-3.32q0-4.44,3.35-4.44a3,3,0,0,1,2.53,1.15A5.39,5.39,0,0,1,262.82,148.37Zm-4.31,0a5.72,5.72,0,0,0,.22,1.85c.14.4.38.6.7.6.62,0,.94-.81.94-2.45s-.32-2.43-.94-2.43c-.32,0-.56.2-.7.6A5.58,5.58,0,0,0,258.51,148.39Z" style="fill: #314041"/>
  </g>
  <g>
    <path d="M342.1,36h-1.72v2.94h-2.93V36h-6.07V33.91l6.23-9.19h2.77v8.94h1.72Zm-4.65-2.34V31.25c0-.4,0-1,.05-1.75s.05-1.21.07-1.33h-.07a10.35,10.35,0,0,1-.87,1.55L334,33.66Z" style="fill: #314041"/>
    <path d="M348.11,24.54a5.39,5.39,0,0,1,3.29.93,3,3,0,0,1,1.25,2.5,3.26,3.26,0,0,1-.6,1.94,5.16,5.16,0,0,1-1.95,1.52,7,7,0,0,1,2.29,1.79,3.46,3.46,0,0,1-.68,4.85,5.69,5.69,0,0,1-3.6,1.07,6,6,0,0,1-3.67-1,3.3,3.3,0,0,1-1.33-2.81,3.69,3.69,0,0,1,.64-2.16,5.48,5.48,0,0,1,2.08-1.67,5.37,5.37,0,0,1-1.75-1.64,3.57,3.57,0,0,1-.54-1.92,3,3,0,0,1,1.27-2.47A5.36,5.36,0,0,1,348.11,24.54Zm-2.22,10.62a1.56,1.56,0,0,0,.58,1.3,3.05,3.05,0,0,0,3.27,0,1.6,1.6,0,0,0,.55-1.27,1.76,1.76,0,0,0-.54-1.22A7.29,7.29,0,0,0,348,32.75C346.58,33.38,345.89,34.19,345.89,35.16Zm2.2-8.42a1.86,1.86,0,0,0-1.24.39,1.29,1.29,0,0,0-.47,1.06,1.6,1.6,0,0,0,.37,1,4,4,0,0,0,1.36.95,3.85,3.85,0,0,0,1.33-.91,1.69,1.69,0,0,0,.38-1.08,1.27,1.27,0,0,0-.49-1.06A1.92,1.92,0,0,0,348.09,26.74Z" style="fill: #314041"/>
    <path d="M361.15,29a5.4,5.4,0,0,1-.87,3.36,3,3,0,0,1-2.54,1.13,2.94,2.94,0,0,1-2.47-1.15,5.4,5.4,0,0,1-.88-3.34q0-4.44,3.35-4.44a3,3,0,0,1,2.53,1.15A5.39,5.39,0,0,1,361.15,29Zm-4.31,0a5.72,5.72,0,0,0,.22,1.85c.14.4.38.6.7.6.63,0,.94-.81.94-2.45s-.31-2.43-.94-2.43c-.32,0-.56.2-.7.6A5.58,5.58,0,0,0,356.84,29Zm11-4.26L360,38.94h-2.33l7.89-14.22Zm3.27,9.92a5.44,5.44,0,0,1-.87,3.36,3,3,0,0,1-2.54,1.12A3,3,0,0,1,365.22,38a5.46,5.46,0,0,1-.87-3.33q0-4.44,3.35-4.44a3,3,0,0,1,2.53,1.15A5.39,5.39,0,0,1,371.11,34.64Zm-4.31,0a5.72,5.72,0,0,0,.22,1.85c.14.4.38.6.7.6.63,0,.94-.81.94-2.45s-.31-2.43-.94-2.43c-.32,0-.56.2-.7.6A5.58,5.58,0,0,0,366.8,34.66Z" style="fill: #314041"/>
  </g>
  <g>
    <path d="M449.79,152.67h-3v-8.23l0-1.35.05-1.48c-.5.5-.85.83-1,1l-1.64,1.31-1.45-1.81,4.58-3.65h2.48Z" style="fill: #314041"/>
    <path d="M464,149.73h-1.71v2.94h-2.93v-2.94h-6.07v-2.1l6.23-9.18h2.77v8.94H464Zm-4.64-2.34V145c0-.4,0-1,.05-1.75s.05-1.21.07-1.33h-.07a11.32,11.32,0,0,1-.87,1.55l-2.61,3.94Z" style="fill: #314041"/>
    <path d="M471.67,142.69a5.42,5.42,0,0,1-.87,3.36,3,3,0,0,1-2.53,1.13,2.93,2.93,0,0,1-2.48-1.16,5.35,5.35,0,0,1-.88-3.33q0-4.44,3.36-4.44a3,3,0,0,1,2.52,1.15A5.32,5.32,0,0,1,471.67,142.69Zm-4.31,0a5.72,5.72,0,0,0,.22,1.85c.15.4.38.6.7.6.63,0,.94-.81.94-2.45s-.31-2.43-.94-2.43c-.32,0-.55.2-.7.6A5.58,5.58,0,0,0,467.36,142.71Zm11-4.26-7.89,14.22h-2.33L476,138.45Zm3.27,9.92a5.39,5.39,0,0,1-.87,3.35,3,3,0,0,1-2.54,1.13,2.94,2.94,0,0,1-2.48-1.16,5.41,5.41,0,0,1-.87-3.32q0-4.44,3.35-4.44a3,3,0,0,1,2.53,1.15A5.39,5.39,0,0,1,481.63,148.37Zm-4.31,0a5.72,5.72,0,0,0,.22,1.85c.14.4.38.6.7.6.63,0,.94-.81.94-2.45s-.31-2.43-.94-2.43c-.32,0-.56.2-.7.6A5.58,5.58,0,0,0,477.32,148.39Z" style="fill: #314041"/>
  </g>
  <circle cx="63.38" cy="214.46" r="6.06" style="fill: #fff;stroke: #304041;stroke-linecap: round;stroke-linejoin: round;stroke-width: 2.25px"/>
  <circle cx="159.38" cy="142.19" r="6.06" style="fill: #fff;stroke: #304041;stroke-linecap: round;stroke-linejoin: round;stroke-width: 2.25px"/>
  <circle cx="255.88" cy="169.43" r="6.06" style="fill: #fff;stroke: #304041;stroke-linecap: round;stroke-linejoin: round;stroke-width: 2.25px"/>
  <circle cx="351.38" cy="53.66" r="6.06" style="fill: #fff;stroke: #304041;stroke-linecap: round;stroke-linejoin: round;stroke-width: 2.25px"/>
  <circle cx="449.38" cy="168.64" r="6.06" style="fill: #fff;stroke: #304041;stroke-linecap: round;stroke-linejoin: round;stroke-width: 2.25px"/>
</svg>
