<svg xmlns="http://www.w3.org/2000/svg" viewBox="0 0 511 271">
  <title>discrete_manufacturing_overall</title>
  <polyline points="63.48 216.92 158.83 120.28 255.48 67.45 352.12 157.65 447.48 204.04" style="fill: none;stroke: #304041;stroke-linecap: round;stroke-linejoin: round;stroke-width: 2.25px"/>
  <g>
    <path d="M40.46,200.51h-3v-8.23l0-1.35.05-1.48a13.1,13.1,0,0,1-1,1l-1.63,1.31-1.45-1.81L38,186.29h2.47Z" style="fill: #314041"/>
    <path d="M51,190.53a5.51,5.51,0,0,1-.86,3.36A3,3,0,0,1,47.57,195a2.92,2.92,0,0,1-2.48-1.15,5.46,5.46,0,0,1-.88-3.33q0-4.46,3.36-4.45a3,3,0,0,1,2.52,1.16A5.28,5.28,0,0,1,51,190.53Zm-4.31,0a6,6,0,0,0,.22,1.84c.15.41.38.61.71.61.62,0,.93-.82.93-2.45s-.31-2.43-.93-2.43c-.33,0-.56.2-.71.59A5.89,5.89,0,0,0,46.66,190.55Zm11-4.26-7.88,14.22H47.44l7.89-14.22Zm3.27,9.92a5.5,5.5,0,0,1-.86,3.35,3,3,0,0,1-2.54,1.12,2.92,2.92,0,0,1-2.48-1.15,5.38,5.38,0,0,1-.88-3.32c0-3,1.12-4.45,3.36-4.45a3,3,0,0,1,2.52,1.16A5.28,5.28,0,0,1,60.93,196.21Zm-4.31,0a5.94,5.94,0,0,0,.22,1.84c.15.41.38.61.71.61.62,0,.93-.82.93-2.45s-.31-2.43-.93-2.43c-.33,0-.56.2-.71.59A5.89,5.89,0,0,0,56.62,196.23Z" style="fill: #314041"/>
  </g>
  <g>
    <path d="M153.23,99.69h-9.94V97.6L146.86,94a30,30,0,0,0,2.07-2.25,5.17,5.17,0,0,0,.7-1.16,3,3,0,0,0,.21-1.11,1.61,1.61,0,0,0-.47-1.28,1.85,1.85,0,0,0-1.26-.41,3.52,3.52,0,0,0-1.6.38,8.55,8.55,0,0,0-1.63,1.07l-1.63-1.93A10.77,10.77,0,0,1,145,86a6.45,6.45,0,0,1,1.51-.56,7.33,7.33,0,0,1,1.83-.2,5.45,5.45,0,0,1,2.35.48,3.86,3.86,0,0,1,1.59,1.36,3.71,3.71,0,0,1,.56,2,4.71,4.71,0,0,1-.35,1.84,7,7,0,0,1-1.06,1.77,27,27,0,0,1-2.56,2.57L147,97v.13h6.2Z" style="fill: #314041"/>
    <path d="M164.54,91.54q0,4.2-1.77,6.27a6.67,6.67,0,0,1-5.36,2.07,10.15,10.15,0,0,1-1.91-.13V97.34a7.28,7.28,0,0,0,1.71.2,6.12,6.12,0,0,0,2.48-.44,3.19,3.19,0,0,0,1.49-1.39,6.17,6.17,0,0,0,.59-2.61h-.12a3.31,3.31,0,0,1-1.3,1.28,4.06,4.06,0,0,1-1.85.37,3.76,3.76,0,0,1-2.93-1.19,4.81,4.81,0,0,1-1.07-3.31,5,5,0,0,1,1.3-3.62,4.75,4.75,0,0,1,3.54-1.32,5.07,5.07,0,0,1,2.75.73,4.77,4.77,0,0,1,1.82,2.15A8.14,8.14,0,0,1,164.54,91.54Zm-5.14-3.82a1.77,1.77,0,0,0-1.46.64,2.85,2.85,0,0,0-.53,1.85,2.55,2.55,0,0,0,.48,1.63,1.74,1.74,0,0,0,1.45.6,2.24,2.24,0,0,0,1.56-.59,1.82,1.82,0,0,0,.66-1.38,3.15,3.15,0,0,0-.61-2A1.87,1.87,0,0,0,159.4,87.72Z" style="fill: #314041"/>
    <path d="M172.6,89.71a5.51,5.51,0,0,1-.86,3.36,3,3,0,0,1-2.54,1.12A2.92,2.92,0,0,1,166.72,93a5.46,5.46,0,0,1-.88-3.33q0-4.44,3.36-4.44a3,3,0,0,1,2.52,1.15A5.3,5.3,0,0,1,172.6,89.71Zm-4.31,0a5.94,5.94,0,0,0,.22,1.84c.15.41.38.61.71.61.62,0,.93-.82.93-2.45s-.31-2.43-.93-2.43c-.33,0-.56.2-.71.6A5.87,5.87,0,0,0,168.29,89.73Zm11-4.26-7.88,14.22h-2.34L177,85.47Zm3.27,9.92a5.47,5.47,0,0,1-.86,3.35,3,3,0,0,1-2.54,1.13,2.93,2.93,0,0,1-2.48-1.16,5.43,5.43,0,0,1-.88-3.32q0-4.44,3.36-4.44a3,3,0,0,1,2.52,1.15A5.3,5.3,0,0,1,182.56,95.39Zm-4.31,0a5.94,5.94,0,0,0,.22,1.84c.15.41.38.61.71.61.62,0,.93-.82.93-2.45S179.8,93,179.18,93c-.33,0-.56.2-.71.6A5.87,5.87,0,0,0,178.25,95.41Z" style="fill: #314041"/>
  </g>
  <g>
    <path d="M250.65,48.37h-1.71v3H246v-3h-6.07V46.28l6.24-9.18h2.77V46h1.71ZM246,46V43.62c0-.4,0-1,.05-1.75s.06-1.21.08-1.33h-.08a11.25,11.25,0,0,1-.86,1.55L242.58,46Z" style="fill: #314041"/>
    <path d="M256.94,42.23a4.59,4.59,0,0,1,3.28,1.16,4.17,4.17,0,0,1,1.22,3.17A4.62,4.62,0,0,1,260,50.23a6.22,6.22,0,0,1-4.2,1.28,8.25,8.25,0,0,1-3.83-.77v-2.6a7.5,7.5,0,0,0,1.79.67,8,8,0,0,0,1.93.26c1.84,0,2.75-.75,2.75-2.26s-1-2.15-2.85-2.15a8,8,0,0,0-1.13.1c-.42.07-.76.15-1,.22l-1.19-.64.53-7.24h7.72v2.54h-5.08l-.26,2.8.34-.07A6.65,6.65,0,0,1,256.94,42.23Z" style="fill: #314041"/>
    <path d="M269.71,41.34a5.44,5.44,0,0,1-.87,3.36,3,3,0,0,1-2.54,1.12,2.92,2.92,0,0,1-2.48-1.15,5.46,5.46,0,0,1-.87-3.33c0-3,1.11-4.45,3.35-4.45A3,3,0,0,1,268.83,38,5.4,5.4,0,0,1,269.71,41.34Zm-4.31,0a5.69,5.69,0,0,0,.22,1.84c.14.4.38.61.7.61.62,0,.93-.82.93-2.45s-.31-2.44-.93-2.44c-.32,0-.56.2-.7.6A5.61,5.61,0,0,0,265.4,41.36Zm11-4.26-7.89,14.22h-2.33l7.88-14.22ZM279.66,47a5.43,5.43,0,0,1-.86,3.35,3,3,0,0,1-2.54,1.12,2.92,2.92,0,0,1-2.48-1.15A5.45,5.45,0,0,1,272.9,47q0-4.46,3.36-4.45a3,3,0,0,1,2.52,1.15A5.34,5.34,0,0,1,279.66,47Zm-4.3,0a6,6,0,0,0,.21,1.84c.15.4.39.61.71.61.62,0,.93-.82.93-2.45s-.31-2.44-.93-2.44c-.32,0-.56.2-.71.6A6,6,0,0,0,275.36,47Z" style="fill: #314041"/>
  </g>
  <g>
    <path d="M348.21,135.5h-3v-8.23l0-1.35,0-1.48a13.1,13.1,0,0,1-1,1l-1.63,1.32-1.45-1.81,4.58-3.65h2.47Z" style="fill: #314041"/>
    <path d="M362,127.35q0,4.2-1.77,6.27a6.66,6.66,0,0,1-5.36,2.07,10.15,10.15,0,0,1-1.91-.13v-2.41a7.28,7.28,0,0,0,1.71.2,6.12,6.12,0,0,0,2.48-.44,3.19,3.19,0,0,0,1.49-1.39,6.17,6.17,0,0,0,.59-2.61h-.12a3.31,3.31,0,0,1-1.3,1.28,4.06,4.06,0,0,1-1.85.37,3.76,3.76,0,0,1-2.93-1.19,4.81,4.81,0,0,1-1.07-3.31,5,5,0,0,1,1.3-3.62,4.75,4.75,0,0,1,3.54-1.32,5.13,5.13,0,0,1,2.76.73A4.81,4.81,0,0,1,361.4,124,8.14,8.14,0,0,1,362,127.35Zm-5.14-3.82a1.77,1.77,0,0,0-1.46.64,2.85,2.85,0,0,0-.53,1.85,2.55,2.55,0,0,0,.48,1.63,1.74,1.74,0,0,0,1.45.6,2.24,2.24,0,0,0,1.56-.59,1.82,1.82,0,0,0,.66-1.38,3.15,3.15,0,0,0-.61-2A1.85,1.85,0,0,0,356.89,123.53Z" style="fill: #314041"/>
    <path d="M370.09,125.52a5.44,5.44,0,0,1-.86,3.36,3,3,0,0,1-2.54,1.12,2.92,2.92,0,0,1-2.48-1.15,5.46,5.46,0,0,1-.87-3.33c0-3,1.11-4.44,3.35-4.44a3,3,0,0,1,2.53,1.15A5.37,5.37,0,0,1,370.09,125.52Zm-4.3,0a5.65,5.65,0,0,0,.22,1.84c.14.41.38.61.7.61.62,0,.93-.82.93-2.45s-.31-2.43-.93-2.43c-.32,0-.56.2-.7.6A5.58,5.58,0,0,0,365.79,125.54Zm11-4.26L368.9,135.5h-2.34l7.89-14.22Zm3.26,9.92a5.41,5.41,0,0,1-.86,3.35,3,3,0,0,1-2.54,1.13,2.93,2.93,0,0,1-2.48-1.16,5.43,5.43,0,0,1-.88-3.32q0-4.44,3.36-4.44a3,3,0,0,1,2.52,1.15A5.32,5.32,0,0,1,380.05,131.2Zm-4.3,0a6,6,0,0,0,.21,1.84c.15.41.39.61.71.61.62,0,.93-.82.93-2.45s-.31-2.43-.93-2.43c-.32,0-.56.2-.71.6A5.92,5.92,0,0,0,375.75,131.22Z" style="fill: #314041"/>
  </g>
  <g>
    <path d="M442.3,176.93a4.58,4.58,0,0,1,3.28,1.16,4.17,4.17,0,0,1,1.22,3.17,4.62,4.62,0,0,1-1.47,3.67,6.22,6.22,0,0,1-4.2,1.28,8.12,8.12,0,0,1-3.83-.77v-2.59a8.81,8.81,0,0,0,3.72.92c1.84,0,2.76-.75,2.76-2.26s-.95-2.15-2.85-2.15a6.84,6.84,0,0,0-1.14.11,6.57,6.57,0,0,0-1,.22l-1.2-.65.54-7.24h7.71v2.55h-5.08l-.26,2.79.34-.07A6.78,6.78,0,0,1,442.3,176.93Z" style="fill: #314041"/>
    <path d="M455.07,176a5.44,5.44,0,0,1-.87,3.36,3,3,0,0,1-2.54,1.12,2.91,2.91,0,0,1-2.47-1.15,5.39,5.39,0,0,1-.88-3.33q0-4.46,3.35-4.45a3,3,0,0,1,2.53,1.16A5.28,5.28,0,0,1,455.07,176Zm-4.31,0a5.65,5.65,0,0,0,.22,1.84c.15.41.38.61.7.61.63,0,.94-.82.94-2.45s-.31-2.43-.94-2.43c-.32,0-.55.2-.7.59A5.61,5.61,0,0,0,450.76,176.06Zm11-4.26L453.87,186h-2.33l7.89-14.22Zm3.27,9.92a5.43,5.43,0,0,1-.87,3.35,3,3,0,0,1-2.54,1.12,2.93,2.93,0,0,1-2.48-1.15,5.45,5.45,0,0,1-.87-3.32q0-4.46,3.35-4.45a3,3,0,0,1,2.53,1.16A5.35,5.35,0,0,1,465,181.72Zm-4.31,0a5.65,5.65,0,0,0,.22,1.84c.14.41.38.61.7.61.63,0,.94-.82.94-2.45s-.31-2.43-.94-2.43a.75.75,0,0,0-.7.59A5.61,5.61,0,0,0,460.72,181.74Z" style="fill: #314041"/>
  </g>
  <circle cx="63.48" cy="216.92" r="6.06" style="fill: #fff;stroke: #304041;stroke-linecap: round;stroke-linejoin: round;stroke-width: 2.25px"/>
  <circle cx="160.21" cy="119.9" r="6.06" style="fill: #fff;stroke: #304041;stroke-linecap: round;stroke-linejoin: round;stroke-width: 2.25px"/>
  <circle cx="255.48" cy="67.43" r="6.06" style="fill: #fff;stroke: #304041;stroke-linecap: round;stroke-linejoin: round;stroke-width: 2.25px"/>
  <circle cx="351.48" cy="157.2" r="6.06" style="fill: #fff;stroke: #304041;stroke-linecap: round;stroke-linejoin: round;stroke-width: 2.25px"/>
  <circle cx="447.48" cy="203.51" r="6.06" style="fill: #fff;stroke: #304041;stroke-linecap: round;stroke-linejoin: round;stroke-width: 2.25px"/>
</svg>
