<svg xmlns="http://www.w3.org/2000/svg" viewBox="0 0 511 271">
  <title>discrete_manufacturing_process</title>
  <g style="opacity: 0.1">
    <polyline points="63.38 203.63 159.38 127.75 256.38 164.54 352.38 117.4 449.38 193.29" style="fill: none;stroke: #304041;stroke-linecap: round;stroke-linejoin: round;stroke-width: 2.25px"/>
  </g>
  <polyline points="63.38 191.63 159.38 115.75 256.38 152.54 352.38 105.4 449.38 181.29" style="fill: none;stroke: #304041;stroke-linecap: round;stroke-linejoin: round;stroke-width: 2.25px"/>
  <g>
    <path d="M38.6,162.54a5.37,5.37,0,0,1,3.29.93A3,3,0,0,1,43.14,166a3.24,3.24,0,0,1-.61,1.94,5.06,5.06,0,0,1-1.94,1.52,7,7,0,0,1,2.29,1.78,3.47,3.47,0,0,1-.68,4.86,5.69,5.69,0,0,1-3.6,1.06,6,6,0,0,1-3.67-1,3.29,3.29,0,0,1-1.33-2.81,3.74,3.74,0,0,1,.64-2.16,5.46,5.46,0,0,1,2.08-1.66,5.29,5.29,0,0,1-1.75-1.65A3.56,3.56,0,0,1,34,166a3,3,0,0,1,1.27-2.47A5.36,5.36,0,0,1,38.6,162.54Zm-2.22,10.63a1.57,1.57,0,0,0,.58,1.3,3.08,3.08,0,0,0,3.27,0,1.59,1.59,0,0,0,.55-1.27,1.76,1.76,0,0,0-.54-1.22,7.29,7.29,0,0,0-1.79-1.21C37.07,171.39,36.38,172.19,36.38,173.17Zm2.2-8.43a1.81,1.81,0,0,0-1.24.4,1.28,1.28,0,0,0-.48,1.05,1.63,1.63,0,0,0,.38,1.05,4,4,0,0,0,1.36.94,3.72,3.72,0,0,0,1.33-.91,1.67,1.67,0,0,0,.38-1.08,1.27,1.27,0,0,0-.49-1.06A1.92,1.92,0,0,0,38.58,164.74Z" style="fill: #314041"/>
    <path d="M51.64,167a5.44,5.44,0,0,1-.87,3.36,3,3,0,0,1-2.53,1.12,2.94,2.94,0,0,1-2.49-1.15,5.46,5.46,0,0,1-.87-3.33c0-3,1.12-4.45,3.36-4.45a3,3,0,0,1,2.52,1.16A5.3,5.3,0,0,1,51.64,167Zm-4.31,0a5.65,5.65,0,0,0,.22,1.84c.15.41.38.61.7.61.63,0,.94-.82.94-2.45s-.31-2.43-.94-2.43c-.32,0-.55.2-.7.6A5.54,5.54,0,0,0,47.33,167Zm11-4.26L50.44,177H48.11L56,162.73Zm3.27,9.92a5.43,5.43,0,0,1-.87,3.35,3,3,0,0,1-2.54,1.12A2.93,2.93,0,0,1,55.71,176a5.45,5.45,0,0,1-.87-3.32c0-3,1.12-4.45,3.35-4.45a3,3,0,0,1,2.53,1.16A5.37,5.37,0,0,1,61.6,172.65Zm-4.31,0a5.65,5.65,0,0,0,.22,1.84c.14.41.38.61.7.61.63,0,.94-.82.94-2.45s-.31-2.43-.94-2.43c-.32,0-.56.2-.7.6A5.54,5.54,0,0,0,57.29,172.67Z" style="fill: #314041"/>
  </g>
  <g>
    <path d="M148.24,90.76a3.33,3.33,0,0,1-.81,2.26,4.14,4.14,0,0,1-2.26,1.28v.06a4.55,4.55,0,0,1,2.61,1,3,3,0,0,1,.88,2.24,3.82,3.82,0,0,1-1.49,3.2,6.87,6.87,0,0,1-4.25,1.14,10.34,10.34,0,0,1-4.1-.77V98.66a8.91,8.91,0,0,0,1.82.68,7.41,7.41,0,0,0,2,.27,3.8,3.8,0,0,0,2.2-.51,1.87,1.87,0,0,0,.71-1.62,1.45,1.45,0,0,0-.82-1.42,6,6,0,0,0-2.6-.42H141V93.33h1.1a5.08,5.08,0,0,0,2.41-.43,1.56,1.56,0,0,0,.76-1.48c0-1.08-.67-1.62-2-1.62a4.5,4.5,0,0,0-1.42.24,6.66,6.66,0,0,0-1.61.8l-1.39-2.07a7.73,7.73,0,0,1,4.64-1.4,6,6,0,0,1,3.48.89A2.87,2.87,0,0,1,148.24,90.76Z" style="fill: #314041"/>
    <path d="M160.09,94.68a9.94,9.94,0,0,1-1.22,5.52,4.25,4.25,0,0,1-3.76,1.79,4.19,4.19,0,0,1-3.71-1.85,9.8,9.8,0,0,1-1.25-5.46,10,10,0,0,1,1.21-5.54,4.73,4.73,0,0,1,7.47.08A9.77,9.77,0,0,1,160.09,94.68Zm-7,0a10.77,10.77,0,0,0,.46,3.75,1.57,1.57,0,0,0,1.52,1.14,1.6,1.6,0,0,0,1.52-1.15,10.86,10.86,0,0,0,.46-3.74,10.55,10.55,0,0,0-.47-3.75,1.57,1.57,0,0,0-3,0A11.1,11.1,0,0,0,153.13,94.68Z" style="fill: #314041"/>
    <path d="M168.17,91.82a5.51,5.51,0,0,1-.86,3.36,3,3,0,0,1-2.54,1.12,3,3,0,0,1-2.48-1.15,5.39,5.39,0,0,1-.88-3.33q0-4.45,3.36-4.45a3,3,0,0,1,2.52,1.15A5.34,5.34,0,0,1,168.17,91.82Zm-4.31,0a6,6,0,0,0,.22,1.85c.15.4.38.61.71.61q.93,0,.93-2.46t-.93-2.43c-.33,0-.56.2-.71.6A5.87,5.87,0,0,0,163.86,91.83Zm11-4.26L167,101.79h-2.33l7.89-14.22Zm3.27,9.93a5.43,5.43,0,0,1-.87,3.35,3,3,0,0,1-2.53,1.12,2.92,2.92,0,0,1-2.48-1.15,5.38,5.38,0,0,1-.88-3.32q0-4.45,3.36-4.45a3,3,0,0,1,2.52,1.15A5.34,5.34,0,0,1,178.13,97.5Zm-4.31,0a5.72,5.72,0,0,0,.22,1.85c.15.4.38.61.7.61.63,0,.94-.82.94-2.46s-.31-2.43-.94-2.43c-.32,0-.55.2-.7.6A5.58,5.58,0,0,0,173.82,97.51Z" style="fill: #314041"/>
  </g>
  <g>
    <path d="M342.22,81a3.32,3.32,0,0,1-.81,2.26,4.18,4.18,0,0,1-2.26,1.29v.06a4.54,4.54,0,0,1,2.6,1,2.94,2.94,0,0,1,.89,2.24,3.81,3.81,0,0,1-1.49,3.2,6.87,6.87,0,0,1-4.25,1.14,10.34,10.34,0,0,1-4.1-.77V88.87a9.45,9.45,0,0,0,1.81.69,8,8,0,0,0,2,.26,3.82,3.82,0,0,0,2.2-.51,1.87,1.87,0,0,0,.71-1.62,1.46,1.46,0,0,0-.82-1.42,6,6,0,0,0-2.61-.42H335v-2.3h1.1a5.08,5.08,0,0,0,2.42-.44,1.56,1.56,0,0,0,.76-1.48c0-1.08-.67-1.62-2-1.62a4.46,4.46,0,0,0-1.42.24,6.66,6.66,0,0,0-1.61.8L332.82,79a7.72,7.72,0,0,1,4.63-1.4,6,6,0,0,1,3.49.9A2.86,2.86,0,0,1,342.22,81Z" style="fill: #314041"/>
    <path d="M353.59,81a3.32,3.32,0,0,1-.81,2.26,4.18,4.18,0,0,1-2.26,1.29v.06a4.54,4.54,0,0,1,2.6,1,2.94,2.94,0,0,1,.89,2.24,3.81,3.81,0,0,1-1.49,3.2,6.87,6.87,0,0,1-4.25,1.14,10.34,10.34,0,0,1-4.1-.77V88.87a9.45,9.45,0,0,0,1.81.69,8,8,0,0,0,2,.26,3.82,3.82,0,0,0,2.2-.51,1.87,1.87,0,0,0,.71-1.62,1.48,1.48,0,0,0-.82-1.42,6,6,0,0,0-2.61-.42h-1.08v-2.3h1.1a5.08,5.08,0,0,0,2.42-.44,1.56,1.56,0,0,0,.76-1.48c0-1.08-.67-1.62-2-1.62a4.46,4.46,0,0,0-1.42.24,6.66,6.66,0,0,0-1.61.8L344.18,79a7.77,7.77,0,0,1,4.64-1.4,6,6,0,0,1,3.49.9A2.86,2.86,0,0,1,353.59,81Z" style="fill: #314041"/>
    <path d="M362.15,82a5.44,5.44,0,0,1-.87,3.36,3,3,0,0,1-2.54,1.12,2.93,2.93,0,0,1-2.48-1.15,5.46,5.46,0,0,1-.87-3.33q0-4.45,3.35-4.45a3,3,0,0,1,2.53,1.16A5.28,5.28,0,0,1,362.15,82Zm-4.31,0a5.69,5.69,0,0,0,.22,1.84c.14.41.38.61.7.61.63,0,.94-.82.94-2.45s-.31-2.43-.94-2.43a.74.74,0,0,0-.7.59A5.61,5.61,0,0,0,357.84,82.05Zm11-4.26L361,92h-2.33l7.89-14.22Zm3.27,9.92a5.43,5.43,0,0,1-.87,3.35,3,3,0,0,1-2.54,1.12A2.93,2.93,0,0,1,366.22,91a5.45,5.45,0,0,1-.87-3.32q0-4.45,3.35-4.45a3,3,0,0,1,2.53,1.16A5.28,5.28,0,0,1,372.11,87.71Zm-4.31,0a5.65,5.65,0,0,0,.22,1.84c.14.4.38.61.7.61.63,0,.94-.82.94-2.45s-.31-2.43-.94-2.43a.75.75,0,0,0-.7.59A5.61,5.61,0,0,0,367.8,87.73Z" style="fill: #314041"/>
  </g>
  <g>
    <path d="M453.72,168h-3v-8.23l0-1.35.05-1.48a13.1,13.1,0,0,1-1,1l-1.63,1.31-1.45-1.8,4.58-3.65h2.47Z" style="fill: #314041"/>
    <path d="M465.09,168h-3v-8.23l0-1.35.05-1.48a13.1,13.1,0,0,1-1,1l-1.63,1.31-1.45-1.8,4.58-3.65h2.47Z" style="fill: #314041"/>
    <path d="M475.6,158a5.51,5.51,0,0,1-.86,3.36,3,3,0,0,1-2.54,1.12,2.92,2.92,0,0,1-2.48-1.15,5.39,5.39,0,0,1-.88-3.33c0-3,1.12-4.45,3.36-4.45a3,3,0,0,1,2.52,1.16A5.3,5.3,0,0,1,475.6,158Zm-4.31,0a5.94,5.94,0,0,0,.22,1.84c.15.41.38.61.71.61.62,0,.93-.82.93-2.45s-.31-2.43-.93-2.43c-.33,0-.56.2-.71.6A5.82,5.82,0,0,0,471.29,158Zm11-4.26L474.41,168h-2.34L480,153.73Zm3.27,9.92a5.5,5.5,0,0,1-.86,3.35,3,3,0,0,1-2.54,1.12,2.92,2.92,0,0,1-2.48-1.15,5.38,5.38,0,0,1-.88-3.32c0-3,1.12-4.45,3.36-4.45a3,3,0,0,1,2.52,1.16A5.3,5.3,0,0,1,485.56,163.65Zm-4.31,0a5.94,5.94,0,0,0,.22,1.84c.15.41.38.61.71.61.62,0,.93-.82.93-2.45s-.31-2.43-.93-2.43c-.33,0-.56.2-.71.6A5.82,5.82,0,0,0,481.25,163.67Z" style="fill: #314041"/>
  </g>
  <g>
    <path d="M243.77,136.81h-3v-8.23l0-1.35.05-1.48c-.5.5-.85.83-1,1L238.16,128l-1.45-1.81,4.59-3.64h2.47Z" style="fill: #314041"/>
    <path d="M257.59,128.66q0,4.2-1.77,6.27a6.67,6.67,0,0,1-5.36,2.07,10.27,10.27,0,0,1-1.92-.13v-2.42a6.91,6.91,0,0,0,1.71.21,6.09,6.09,0,0,0,2.48-.44,3.11,3.11,0,0,0,1.49-1.4,6.14,6.14,0,0,0,.59-2.61h-.11a3.36,3.36,0,0,1-1.31,1.29,4.15,4.15,0,0,1-1.84.37,3.72,3.72,0,0,1-2.93-1.2,4.77,4.77,0,0,1-1.07-3.31,4.93,4.93,0,0,1,1.3-3.61,4.68,4.68,0,0,1,3.53-1.33,5.13,5.13,0,0,1,2.76.74,4.7,4.7,0,0,1,1.81,2.15A8,8,0,0,1,257.59,128.66Zm-5.15-3.83a1.79,1.79,0,0,0-1.46.65,2.82,2.82,0,0,0-.52,1.84,2.62,2.62,0,0,0,.47,1.64,1.74,1.74,0,0,0,1.45.6A2.25,2.25,0,0,0,254,129a1.82,1.82,0,0,0,.65-1.37,3.1,3.1,0,0,0-.61-2A1.87,1.87,0,0,0,252.44,124.83Z" style="fill: #314041"/>
    <path d="M265.65,126.83a5.44,5.44,0,0,1-.87,3.36,3,3,0,0,1-2.54,1.12,2.93,2.93,0,0,1-2.48-1.15,5.46,5.46,0,0,1-.87-3.33q0-4.45,3.35-4.45a3,3,0,0,1,2.53,1.16A5.28,5.28,0,0,1,265.65,126.83Zm-4.31,0a5.65,5.65,0,0,0,.22,1.84c.14.41.38.61.7.61.63,0,.94-.82.94-2.45s-.31-2.43-.94-2.43a.75.75,0,0,0-.7.59A5.61,5.61,0,0,0,261.34,126.85Zm11-4.26-7.89,14.22h-2.33L270,122.59Zm3.27,9.92a5.43,5.43,0,0,1-.87,3.35A3,3,0,0,1,272.2,137a2.93,2.93,0,0,1-2.48-1.15,5.45,5.45,0,0,1-.87-3.32c0-3,1.12-4.45,3.35-4.45a3,3,0,0,1,2.53,1.16A5.28,5.28,0,0,1,275.61,132.51Zm-4.31,0a5.65,5.65,0,0,0,.22,1.84c.14.41.38.61.7.61.63,0,.94-.82.94-2.45s-.31-2.43-.94-2.43a.75.75,0,0,0-.7.59A5.61,5.61,0,0,0,271.3,132.53Z" style="fill: #314041"/>
  </g>
  <circle cx="63.38" cy="191.64" r="6.06" style="fill: #fff;stroke: #304041;stroke-linecap: round;stroke-linejoin: round;stroke-width: 2.25px"/>
  <circle cx="158.4" cy="115.51" r="6.06" style="fill: #fff;stroke: #304041;stroke-linecap: round;stroke-linejoin: round;stroke-width: 2.25px"/>
  <circle cx="256.38" cy="153.09" r="6.06" style="fill: #fff;stroke: #304041;stroke-linecap: round;stroke-linejoin: round;stroke-width: 2.25px"/>
  <circle cx="352.38" cy="105.4" r="6.06" style="fill: #fff;stroke: #304041;stroke-linecap: round;stroke-linejoin: round;stroke-width: 2.25px"/>
  <circle cx="450.77" cy="183.01" r="6.06" style="fill: #fff;stroke: #304041;stroke-linecap: round;stroke-linejoin: round;stroke-width: 2.25px"/>
</svg>
