<svg xmlns="http://www.w3.org/2000/svg" viewBox="0 0 511 271">
  <title>discrete_manufacturing_leadership</title>
  <g style="opacity: 0.1">
    <polyline points="63.38 203.63 159.38 67.96 256.38 166.84 352.38 161.09 449.38 207.09" style="fill: none;stroke: #304041;stroke-linecap: round;stroke-linejoin: round;stroke-width: 2.25px"/>
  </g>
  <polyline points="63.38 191.63 159.38 55.96 256.38 154.84 352.38 149.09 449.38 195.09" style="fill: none;stroke: #304041;stroke-linecap: round;stroke-linejoin: round;stroke-width: 2.25px"/>
  <g>
    <path d="M32.39,166.11a5.37,5.37,0,0,1,3.29.93,3,3,0,0,1,1.25,2.51,3.3,3.3,0,0,1-.6,1.94A5.19,5.19,0,0,1,34.38,173a6.76,6.76,0,0,1,2.29,1.78,3.3,3.3,0,0,1,.7,2A3.4,3.4,0,0,1,36,179.65a5.74,5.74,0,0,1-3.61,1.06,6,6,0,0,1-3.67-1,3.29,3.29,0,0,1-1.33-2.81,3.67,3.67,0,0,1,.65-2.16,5.35,5.35,0,0,1,2.07-1.66,5.39,5.39,0,0,1-1.75-1.65,3.64,3.64,0,0,1-.53-1.91,2.94,2.94,0,0,1,1.26-2.47A5.36,5.36,0,0,1,32.39,166.11Zm-2.22,10.62a1.61,1.61,0,0,0,.58,1.31,2.52,2.52,0,0,0,1.6.46A2.48,2.48,0,0,0,34,178a1.6,1.6,0,0,0,.56-1.27,1.77,1.77,0,0,0-.55-1.22,7.09,7.09,0,0,0-1.79-1.21C30.86,175,30.17,175.76,30.17,176.73Zm2.2-8.42a1.88,1.88,0,0,0-1.24.39,1.31,1.31,0,0,0-.47,1.06,1.62,1.62,0,0,0,.37,1.05,4.14,4.14,0,0,0,1.36.94,3.72,3.72,0,0,0,1.33-.91,1.67,1.67,0,0,0,.38-1.08,1.27,1.27,0,0,0-.49-1.06A1.92,1.92,0,0,0,32.37,168.31Z" style="fill: #314041"/>
    <path d="M45.43,170.54a5.51,5.51,0,0,1-.86,3.36A3,3,0,0,1,42,175a2.92,2.92,0,0,1-2.48-1.15,5.39,5.39,0,0,1-.88-3.33q0-4.46,3.36-4.45a3,3,0,0,1,2.52,1.16A5.28,5.28,0,0,1,45.43,170.54Zm-4.31,0a5.94,5.94,0,0,0,.22,1.84c.15.41.38.61.71.61.62,0,.93-.82.93-2.45s-.31-2.43-.93-2.43c-.33,0-.56.2-.71.59A5.89,5.89,0,0,0,41.12,170.56Zm11-4.26-7.89,14.22H41.9l7.89-14.22Zm3.27,9.92a5.43,5.43,0,0,1-.87,3.35A3,3,0,0,1,52,180.69a2.92,2.92,0,0,1-2.48-1.15,5.38,5.38,0,0,1-.88-3.32c0-3,1.12-4.45,3.36-4.45a3,3,0,0,1,2.52,1.16A5.28,5.28,0,0,1,55.39,176.22Zm-4.31,0a5.65,5.65,0,0,0,.22,1.84c.15.41.38.61.71.61.62,0,.93-.82.93-2.45s-.31-2.43-.93-2.43c-.33,0-.56.2-.71.59A5.61,5.61,0,0,0,51.08,176.24Z" style="fill: #314041"/>
  </g>
  <g>
    <path d="M149.12,37.08H147.4v3h-2.93v-3H138.4V35l6.23-9.18h2.77v8.94h1.72Zm-4.65-2.33V32.34c0-.41,0-1,.05-1.75s0-1.21.07-1.34h-.07a11,11,0,0,1-.87,1.56L141,34.75Z" style="fill: #314041"/>
    <path d="M151.64,40,157,28.36h-7V25.83h10.21v1.89L154.79,40Z" style="fill: #314041"/>
    <path d="M168.17,30.05a5.51,5.51,0,0,1-.86,3.36,3,3,0,0,1-2.54,1.12,2.92,2.92,0,0,1-2.48-1.15,5.39,5.39,0,0,1-.88-3.33q0-4.44,3.36-4.44a3,3,0,0,1,2.52,1.15A5.3,5.3,0,0,1,168.17,30.05Zm-4.31,0a5.65,5.65,0,0,0,.22,1.84c.15.41.38.61.71.61.62,0,.93-.82.93-2.45s-.31-2.43-.93-2.43c-.33,0-.56.2-.71.6A5.58,5.58,0,0,0,163.86,30.07Zm11-4.26L167,40h-2.33l7.89-14.22Zm3.27,9.92a5.41,5.41,0,0,1-.87,3.35,3,3,0,0,1-2.53,1.12,2.94,2.94,0,0,1-2.49-1.15,5.43,5.43,0,0,1-.87-3.32q0-4.44,3.36-4.44a3,3,0,0,1,2.52,1.15A5.3,5.3,0,0,1,178.13,35.73Zm-4.31,0a5.65,5.65,0,0,0,.22,1.84c.15.41.38.61.7.61.63,0,.94-.82.94-2.45s-.31-2.43-.94-2.43c-.32,0-.55.2-.7.6A5.58,5.58,0,0,0,173.82,35.75Z" style="fill: #314041"/>
  </g>
  <g>
    <path d="M253.36,140.46h-3v-8.23l0-1.35.05-1.48c-.5.5-.85.83-1,1l-1.64,1.31-1.45-1.8,4.58-3.65h2.47Z" style="fill: #314041"/>
    <path d="M262.21,126.05a5.39,5.39,0,0,1,3.29.93,3,3,0,0,1,1.25,2.51,3.24,3.24,0,0,1-.61,1.94A5.23,5.23,0,0,1,264.2,133a6.87,6.87,0,0,1,2.29,1.78,3.47,3.47,0,0,1-.68,4.86,5.69,5.69,0,0,1-3.6,1.06,6,6,0,0,1-3.67-1,3.29,3.29,0,0,1-1.33-2.81,3.74,3.74,0,0,1,.64-2.16,5.39,5.39,0,0,1,2.08-1.66,5.39,5.39,0,0,1-1.75-1.65,3.56,3.56,0,0,1-.54-1.91,3,3,0,0,1,1.27-2.47A5.36,5.36,0,0,1,262.21,126.05ZM260,136.67a1.58,1.58,0,0,0,.58,1.31,3.08,3.08,0,0,0,3.27,0,1.59,1.59,0,0,0,.55-1.27,1.73,1.73,0,0,0-.55-1.22,7,7,0,0,0-1.78-1.21C260.68,134.9,260,135.7,260,136.67Zm2.2-8.42a1.86,1.86,0,0,0-1.24.39,1.31,1.31,0,0,0-.47,1.06,1.62,1.62,0,0,0,.37,1.05,4.14,4.14,0,0,0,1.36.94,3.72,3.72,0,0,0,1.33-.91,1.67,1.67,0,0,0,.38-1.08,1.27,1.27,0,0,0-.49-1.06A1.92,1.92,0,0,0,262.19,128.25Z" style="fill: #314041"/>
    <path d="M275.25,130.48a5.44,5.44,0,0,1-.87,3.36,3,3,0,0,1-2.54,1.12,2.93,2.93,0,0,1-2.48-1.15,5.46,5.46,0,0,1-.87-3.33c0-3,1.12-4.45,3.35-4.45a3,3,0,0,1,2.53,1.16A5.35,5.35,0,0,1,275.25,130.48Zm-4.31,0a5.65,5.65,0,0,0,.22,1.84c.14.41.38.61.7.61.63,0,.94-.82.94-2.45s-.31-2.43-.94-2.43a.75.75,0,0,0-.7.59A5.61,5.61,0,0,0,270.94,130.5Zm11-4.26-7.89,14.22h-2.33l7.89-14.22Zm3.27,9.92a5.43,5.43,0,0,1-.87,3.35,3,3,0,0,1-2.54,1.12,2.93,2.93,0,0,1-2.48-1.15,5.45,5.45,0,0,1-.87-3.32q0-4.46,3.35-4.45a3,3,0,0,1,2.53,1.16A5.35,5.35,0,0,1,285.21,136.16Zm-4.31,0a5.65,5.65,0,0,0,.22,1.84c.14.41.38.61.7.61.63,0,.94-.82.94-2.45s-.31-2.43-.94-2.43a.75.75,0,0,0-.7.59A5.61,5.61,0,0,0,280.9,136.18Z" style="fill: #314041"/>
  </g>
  <g>
    <path d="M344.4,135.81h-9.94v-2.09l3.57-3.61c1.06-1.08,1.75-1.84,2.07-2.25a4.68,4.68,0,0,0,.7-1.17,2.77,2.77,0,0,0,.22-1.1,1.65,1.65,0,0,0-.47-1.28,1.84,1.84,0,0,0-1.26-.42,3.69,3.69,0,0,0-1.61.38,8.76,8.76,0,0,0-1.62,1.08l-1.64-1.93a10.77,10.77,0,0,1,1.74-1.27,7.36,7.36,0,0,1,1.51-.57,8,8,0,0,1,1.83-.2,5.45,5.45,0,0,1,2.35.49,3.73,3.73,0,0,1,1.59,1.36,3.6,3.6,0,0,1,.56,2,4.89,4.89,0,0,1-.34,1.84,7.16,7.16,0,0,1-1.07,1.76,25.34,25.34,0,0,1-2.55,2.58l-1.83,1.72v.14h6.19Z" style="fill: #314041"/>
    <path d="M355.69,128.7a9.84,9.84,0,0,1-1.22,5.51,4.74,4.74,0,0,1-7.47-.06,9.78,9.78,0,0,1-1.25-5.45,10,10,0,0,1,1.22-5.55,4.73,4.73,0,0,1,7.47.08A9.9,9.9,0,0,1,355.69,128.7Zm-6.95,0a11.15,11.15,0,0,0,.45,3.75,1.58,1.58,0,0,0,3,0,15.16,15.16,0,0,0,0-7.49,1.59,1.59,0,0,0-1.51-1.14,1.57,1.57,0,0,0-1.52,1.14A10.87,10.87,0,0,0,348.74,128.7Z" style="fill: #314041"/>
    <path d="M363.78,125.83a5.44,5.44,0,0,1-.87,3.36,3,3,0,0,1-2.54,1.12,2.93,2.93,0,0,1-2.48-1.15,5.46,5.46,0,0,1-.87-3.33c0-3,1.12-4.45,3.35-4.45a3,3,0,0,1,2.53,1.16A5.37,5.37,0,0,1,363.78,125.83Zm-4.31,0a5.65,5.65,0,0,0,.22,1.84c.14.41.38.61.7.61.62,0,.94-.82.94-2.45s-.32-2.43-.94-2.43c-.32,0-.56.2-.7.6A5.5,5.5,0,0,0,359.47,125.85Zm11-4.26-7.89,14.22h-2.33l7.88-14.22Zm3.27,9.92a5.43,5.43,0,0,1-.87,3.35,3,3,0,0,1-2.54,1.12,2.93,2.93,0,0,1-2.48-1.15,5.45,5.45,0,0,1-.87-3.32c0-3,1.12-4.45,3.35-4.45a3,3,0,0,1,2.53,1.16A5.35,5.35,0,0,1,373.74,131.51Zm-4.31,0a5.65,5.65,0,0,0,.22,1.84c.14.41.38.61.7.61.62,0,.94-.82.94-2.45s-.32-2.43-.94-2.43a.75.75,0,0,0-.7.59A5.65,5.65,0,0,0,369.43,131.53Z" style="fill: #314041"/>
  </g>
  <g>
    <path d="M438.33,179.52l5.33-11.67h-7v-2.53h10.2v1.88l-5.37,12.32Z" style="fill: #314041"/>
    <path d="M454.86,169.54a5.44,5.44,0,0,1-.87,3.36,3,3,0,0,1-2.53,1.12,2.92,2.92,0,0,1-2.48-1.15,5.39,5.39,0,0,1-.88-3.33q0-4.46,3.36-4.45a3,3,0,0,1,2.52,1.16A5.28,5.28,0,0,1,454.86,169.54Zm-4.31,0a5.69,5.69,0,0,0,.22,1.84c.15.41.38.61.71.61.62,0,.93-.82.93-2.45s-.31-2.43-.93-2.43c-.33,0-.56.19-.71.59A5.61,5.61,0,0,0,450.55,169.56Zm11-4.26-7.89,14.22h-2.33l7.89-14.22Zm3.27,9.92a5.43,5.43,0,0,1-.87,3.35,3,3,0,0,1-2.54,1.12,2.93,2.93,0,0,1-2.48-1.15,5.45,5.45,0,0,1-.87-3.32q0-4.46,3.35-4.45a3,3,0,0,1,2.53,1.16A5.28,5.28,0,0,1,464.82,175.22Zm-4.31,0a5.65,5.65,0,0,0,.22,1.84c.15.4.38.61.7.61.63,0,.94-.82.94-2.45s-.31-2.43-.94-2.43c-.32,0-.55.2-.7.59A5.61,5.61,0,0,0,460.51,175.24Z" style="fill: #314041"/>
  </g>
  <circle cx="63.38" cy="192.08" r="6.06" style="fill: #fff;stroke: #304041;stroke-linecap: round;stroke-linejoin: round;stroke-width: 2.25px"/>
  <circle cx="158.4" cy="55.96" r="6.06" style="fill: #fff;stroke: #304041;stroke-linecap: round;stroke-linejoin: round;stroke-width: 2.25px"/>
  <circle cx="256.38" cy="155.57" r="6.06" style="fill: #fff;stroke: #304041;stroke-linecap: round;stroke-linejoin: round;stroke-width: 2.25px"/>
  <circle cx="354.01" cy="149.67" r="6.06" style="fill: #fff;stroke: #304041;stroke-linecap: round;stroke-linejoin: round;stroke-width: 2.25px"/>
  <circle cx="449.38" cy="194.86" r="6.06" style="fill: #fff;stroke: #304041;stroke-linecap: round;stroke-linejoin: round;stroke-width: 2.25px"/>
</svg>
