<svg xmlns="http://www.w3.org/2000/svg" viewBox="0 0 511 271">
  <title>discrete_manufacturing_structural</title>
  <g style="opacity: 0.1">
    <polyline points="63.38 196.74 159.38 67.96 256.38 177.19 352.38 161.09 449.38 203.63" style="fill: none;stroke: #304041;stroke-linecap: round;stroke-linejoin: round;stroke-width: 2.25px"/>
  </g>
  <polyline points="63.38 184.74 159.38 55.96 256.38 165.19 352.38 149.09 449.38 191.63" style="fill: none;stroke: #304041;stroke-linecap: round;stroke-linejoin: round;stroke-width: 2.25px"/>
  <g>
    <path d="M25.91,177.41h-3v-8.23l0-1.35.05-1.48c-.5.5-.85.83-1,1l-1.63,1.31-1.45-1.81,4.58-3.65h2.47Z" style="fill: #314041"/>
    <path d="M39.71,170.3a10,10,0,0,1-1.22,5.52,4.25,4.25,0,0,1-3.76,1.79A4.19,4.19,0,0,1,31,175.76a9.71,9.71,0,0,1-1.25-5.46q0-3.77,1.21-5.55A4.22,4.22,0,0,1,34.73,163a4.19,4.19,0,0,1,3.72,1.87A9.75,9.75,0,0,1,39.71,170.3Zm-7,0a10.77,10.77,0,0,0,.46,3.75,1.57,1.57,0,0,0,1.52,1.14A1.6,1.6,0,0,0,36.25,174a10.86,10.86,0,0,0,.46-3.74,10.65,10.65,0,0,0-.47-3.76,1.58,1.58,0,0,0-3,0A11.21,11.21,0,0,0,32.75,170.3Z" style="fill: #314041"/>
    <path d="M47.79,167.43a5.4,5.4,0,0,1-.87,3.36,3,3,0,0,1-2.53,1.13,3,3,0,0,1-2.48-1.15,5.4,5.4,0,0,1-.88-3.34Q41,163,44.39,163a3,3,0,0,1,2.52,1.15A5.32,5.32,0,0,1,47.79,167.43Zm-4.31,0a6,6,0,0,0,.22,1.85c.15.4.38.6.71.6.62,0,.93-.81.93-2.45S45,165,44.41,165c-.33,0-.56.2-.71.6A5.87,5.87,0,0,0,43.48,167.45Zm11-4.26-7.89,14.22H44.26l7.89-14.22Zm3.27,9.92a5.39,5.39,0,0,1-.87,3.35,3,3,0,0,1-2.53,1.13,3,3,0,0,1-2.48-1.15,5.39,5.39,0,0,1-.88-3.33q0-4.44,3.36-4.44a3,3,0,0,1,2.52,1.15A5.32,5.32,0,0,1,57.75,173.11Zm-4.31,0a5.72,5.72,0,0,0,.22,1.85c.15.4.38.6.7.6.63,0,.94-.81.94-2.45s-.31-2.43-.94-2.43c-.32,0-.55.2-.7.6A5.58,5.58,0,0,0,53.44,173.13Z" style="fill: #314041"/>
  </g>
  <g>
    <path d="M150.12,36.06h-1.71V39h-2.94V36.06H139.4V34l6.23-9.18h2.78v8.94h1.71Zm-4.65-2.33V31.31c0-.4,0-1,.05-1.75s.06-1.21.08-1.33h-.08a11,11,0,0,1-.87,1.56l-2.6,3.94Z" style="fill: #314041"/>
    <path d="M152.64,39,158,27.34h-7V24.81h10.21v1.88L155.79,39Z" style="fill: #314041"/>
    <path d="M169.17,29a5.51,5.51,0,0,1-.86,3.36,3,3,0,0,1-2.54,1.12,2.92,2.92,0,0,1-2.48-1.15,5.39,5.39,0,0,1-.88-3.33q0-4.46,3.36-4.45a3,3,0,0,1,2.52,1.16A5.28,5.28,0,0,1,169.17,29Zm-4.31,0a6,6,0,0,0,.22,1.84c.15.41.38.61.71.61.62,0,.93-.82.93-2.45s-.31-2.43-.93-2.43c-.33,0-.56.19-.71.59A5.89,5.89,0,0,0,164.86,29.05Zm11-4.26L168,39h-2.33l7.89-14.22Zm3.27,9.92a5.43,5.43,0,0,1-.87,3.35,3,3,0,0,1-2.53,1.12A2.92,2.92,0,0,1,173.25,38a5.38,5.38,0,0,1-.88-3.32q0-4.46,3.36-4.45a3,3,0,0,1,2.52,1.16A5.28,5.28,0,0,1,179.13,34.71Zm-4.31,0a5.65,5.65,0,0,0,.22,1.84c.15.41.38.61.71.61.62,0,.93-.82.93-2.45s-.31-2.43-.93-2.43c-.33,0-.56.2-.71.59A5.61,5.61,0,0,0,174.82,34.73Z" style="fill: #314041"/>
  </g>
  <g>
    <path d="M253.36,149.09h-3v-8.23l0-1.35.05-1.48c-.5.5-.85.83-1,1l-1.64,1.31-1.45-1.81,4.58-3.65h2.47Z" style="fill: #314041"/>
    <path d="M262.48,140a4.54,4.54,0,0,1,3.28,1.16,4.16,4.16,0,0,1,1.22,3.17,4.6,4.6,0,0,1-1.47,3.66,6.17,6.17,0,0,1-4.2,1.29,8.25,8.25,0,0,1-3.83-.77v-2.6a8.62,8.62,0,0,0,3.72.93c1.84,0,2.76-.76,2.76-2.26s-.95-2.15-2.85-2.15a6.77,6.77,0,0,0-1.14.1,8,8,0,0,0-1,.22l-1.2-.64.54-7.25H266v2.55h-5.08l-.26,2.79.34-.07A6.72,6.72,0,0,1,262.48,140Z" style="fill: #314041"/>
    <path d="M275.25,139.11a5.42,5.42,0,0,1-.87,3.36,3,3,0,0,1-2.54,1.13,2.94,2.94,0,0,1-2.48-1.16,5.42,5.42,0,0,1-.87-3.33q0-4.44,3.35-4.44a3,3,0,0,1,2.53,1.15A5.39,5.39,0,0,1,275.25,139.11Zm-4.31,0a5.72,5.72,0,0,0,.22,1.85c.14.4.38.6.7.6.63,0,.94-.81.94-2.45s-.31-2.43-.94-2.43c-.32,0-.56.2-.7.6A5.58,5.58,0,0,0,270.94,139.13Zm11-4.26-7.89,14.22h-2.33l7.89-14.22Zm3.27,9.92a5.41,5.41,0,0,1-.87,3.35,3,3,0,0,1-2.54,1.13,2.94,2.94,0,0,1-2.48-1.16,5.41,5.41,0,0,1-.87-3.32q0-4.44,3.35-4.44a3,3,0,0,1,2.53,1.15A5.39,5.39,0,0,1,285.21,144.79Zm-4.31,0a5.72,5.72,0,0,0,.22,1.85c.14.4.38.6.7.6.63,0,.94-.81.94-2.45s-.31-2.43-.94-2.43c-.32,0-.56.2-.7.6A5.58,5.58,0,0,0,280.9,144.81Z" style="fill: #314041"/>
  </g>
  <g>
    <path d="M341.77,133.81h-9.94v-2.09l3.57-3.61c1.06-1.08,1.75-1.83,2.08-2.25a5.33,5.33,0,0,0,.7-1.16,3,3,0,0,0,.21-1.11,1.65,1.65,0,0,0-.47-1.28,1.89,1.89,0,0,0-1.26-.41,3.56,3.56,0,0,0-1.61.38,8.13,8.13,0,0,0-1.62,1.08l-1.63-1.94a10,10,0,0,1,1.74-1.26,6.13,6.13,0,0,1,1.5-.57,7.44,7.44,0,0,1,1.83-.2,5.5,5.5,0,0,1,2.36.48,3.72,3.72,0,0,1,1.58,1.37,3.57,3.57,0,0,1,.57,2,4.9,4.9,0,0,1-.35,1.84,7.2,7.2,0,0,1-1.07,1.77,26.39,26.39,0,0,1-2.55,2.58l-1.83,1.72v.13h6.19Z" style="fill: #314041"/>
    <path d="M353.07,126.7a10,10,0,0,1-1.22,5.52,4.25,4.25,0,0,1-3.76,1.79,4.19,4.19,0,0,1-3.71-1.85,9.71,9.71,0,0,1-1.25-5.46q0-3.77,1.21-5.55a4.73,4.73,0,0,1,7.47.09A9.75,9.75,0,0,1,353.07,126.7Zm-7,0a11.07,11.07,0,0,0,.45,3.75,1.59,1.59,0,0,0,3,0,15.2,15.2,0,0,0,0-7.5,1.59,1.59,0,0,0-1.51-1.14,1.57,1.57,0,0,0-1.52,1.14A10.91,10.91,0,0,0,346.11,126.7Z" style="fill: #314041"/>
    <path d="M361.15,123.83a5.44,5.44,0,0,1-.87,3.36,3,3,0,0,1-2.54,1.13,2.94,2.94,0,0,1-2.48-1.16,5.46,5.46,0,0,1-.87-3.33q0-4.44,3.35-4.44a3,3,0,0,1,2.53,1.15A5.39,5.39,0,0,1,361.15,123.83Zm-4.31,0a5.61,5.61,0,0,0,.22,1.84c.14.41.38.61.7.61.63,0,.94-.81.94-2.45s-.31-2.43-.94-2.43c-.32,0-.56.2-.7.6A5.58,5.58,0,0,0,356.84,123.85Zm11-4.26L360,133.81h-2.33l7.89-14.22Zm3.27,9.92a5.41,5.41,0,0,1-.87,3.35A3,3,0,0,1,367.7,134a2.94,2.94,0,0,1-2.48-1.16,5.41,5.41,0,0,1-.87-3.32q0-4.44,3.35-4.44a3,3,0,0,1,2.53,1.15A5.39,5.39,0,0,1,371.11,129.51Zm-4.31,0a5.65,5.65,0,0,0,.22,1.84c.14.41.38.61.7.61.63,0,.94-.81.94-2.45s-.31-2.43-.94-2.43c-.32,0-.56.2-.7.6A5.58,5.58,0,0,0,366.8,129.53Z" style="fill: #314041"/>
  </g>
  <g>
    <path d="M441.82,160.64a5.37,5.37,0,0,1,3.29.93,3,3,0,0,1,1.25,2.51,3.3,3.3,0,0,1-.6,1.94,5.28,5.28,0,0,1-1.95,1.52,6.87,6.87,0,0,1,2.29,1.78,3.47,3.47,0,0,1-.68,4.86,5.69,5.69,0,0,1-3.6,1.06,6,6,0,0,1-3.67-1,3.29,3.29,0,0,1-1.33-2.81,3.74,3.74,0,0,1,.64-2.16,5.39,5.39,0,0,1,2.08-1.66,5.39,5.39,0,0,1-1.75-1.65,3.56,3.56,0,0,1-.54-1.91,3,3,0,0,1,1.27-2.47A5.36,5.36,0,0,1,441.82,160.64Zm-2.22,10.62a1.59,1.59,0,0,0,.58,1.31,3.08,3.08,0,0,0,3.27,0,1.59,1.59,0,0,0,.55-1.27,1.76,1.76,0,0,0-.54-1.22,7.29,7.29,0,0,0-1.79-1.21C440.29,169.49,439.6,170.29,439.6,171.26Zm2.2-8.42a1.86,1.86,0,0,0-1.24.39,1.31,1.31,0,0,0-.47,1.06,1.58,1.58,0,0,0,.37,1,4,4,0,0,0,1.36.95,3.85,3.85,0,0,0,1.33-.91,1.67,1.67,0,0,0,.38-1.08,1.27,1.27,0,0,0-.49-1.06A1.92,1.92,0,0,0,441.8,162.84Z" style="fill: #314041"/>
    <path d="M454.86,165.07a5.44,5.44,0,0,1-.87,3.36,3,3,0,0,1-2.53,1.12A2.92,2.92,0,0,1,449,168.4a5.39,5.39,0,0,1-.88-3.33q0-4.45,3.36-4.45a3,3,0,0,1,2.52,1.16A5.35,5.35,0,0,1,454.86,165.07Zm-4.31,0a5.69,5.69,0,0,0,.22,1.84c.14.41.38.61.71.61.62,0,.93-.82.93-2.45s-.31-2.43-.93-2.43a.74.74,0,0,0-.71.59A5.61,5.61,0,0,0,450.55,165.09Zm11-4.26-7.89,14.22h-2.33l7.89-14.22Zm3.27,9.92a5.43,5.43,0,0,1-.87,3.35,3,3,0,0,1-2.54,1.12,2.93,2.93,0,0,1-2.48-1.15,5.45,5.45,0,0,1-.87-3.32q0-4.45,3.35-4.45a3,3,0,0,1,2.53,1.16A5.35,5.35,0,0,1,464.82,170.75Zm-4.31,0a5.65,5.65,0,0,0,.22,1.84c.14.41.38.61.7.61.63,0,.94-.82.94-2.45s-.31-2.43-.94-2.43a.75.75,0,0,0-.7.59A5.61,5.61,0,0,0,460.51,170.77Z" style="fill: #314041"/>
  </g>
  <circle cx="159.4" cy="56.96" r="6.06" style="fill: #fff;stroke: #304041;stroke-linecap: round;stroke-linejoin: round;stroke-width: 2.25px"/>
  <circle cx="256.38" cy="164.12" r="6.06" style="fill: #fff;stroke: #304041;stroke-linecap: round;stroke-linejoin: round;stroke-width: 2.25px"/>
  <circle cx="351.38" cy="149.09" r="6.06" style="fill: #fff;stroke: #304041;stroke-linecap: round;stroke-linejoin: round;stroke-width: 2.25px"/>
  <circle cx="450.77" cy="191.64" r="6.06" style="fill: #fff;stroke: #304041;stroke-linecap: round;stroke-linejoin: round;stroke-width: 2.25px"/>
</svg>
