<svg id="Layer_1" data-name="Layer 1" xmlns="http://www.w3.org/2000/svg" viewBox="0 0 511 271">
  <title>government_technology</title>
  <g style="opacity: 0.1">
    <polyline points="64.87 220.01 160.87 157.01 257.87 145.01 353.87 88.01 450.87 198.01" style="fill: none;stroke: #304041;stroke-linecap: round;stroke-linejoin: round;stroke-width: 2.25px"/>
  </g>
  <polyline points="64.87 208.01 160.87 145.01 257.87 133.01 353.87 76.01 450.87 186.01" style="fill: none;stroke: #304041;stroke-linecap: round;stroke-linejoin: round;stroke-width: 2.25px"/>
  <g>
    <path d="M43.52,184.11a3.36,3.36,0,0,1-.81,2.27,4.14,4.14,0,0,1-2.26,1.28v.06a4.51,4.51,0,0,1,2.6,1,3,3,0,0,1,.89,2.25,3.8,3.8,0,0,1-1.49,3.19,6.87,6.87,0,0,1-4.25,1.14,10.34,10.34,0,0,1-4.1-.76V192a9.29,9.29,0,0,0,1.82.68,7.82,7.82,0,0,0,2,.26,3.8,3.8,0,0,0,2.2-.51,1.84,1.84,0,0,0,.71-1.62,1.46,1.46,0,0,0-.82-1.42,6,6,0,0,0-2.6-.42H36.29v-2.3h1.09a5.08,5.08,0,0,0,2.42-.44,1.55,1.55,0,0,0,.76-1.48c0-1.08-.67-1.61-2-1.61a4.48,4.48,0,0,0-1.42.23,6.73,6.73,0,0,0-1.61.81l-1.39-2.07a7.66,7.66,0,0,1,4.64-1.4,5.94,5.94,0,0,1,3.48.89A2.89,2.89,0,0,1,43.52,184.11Z" style="fill: #314041"/>
    <path d="M52.08,185.17a5.44,5.44,0,0,1-.87,3.36,3,3,0,0,1-2.53,1.12,2.92,2.92,0,0,1-2.48-1.15,5.39,5.39,0,0,1-.88-3.33q0-4.44,3.36-4.44a3,3,0,0,1,2.52,1.15A5.3,5.3,0,0,1,52.08,185.17Zm-4.31,0A5.65,5.65,0,0,0,48,187c.15.41.38.61.71.61.62,0,.93-.82.93-2.45s-.31-2.43-.93-2.43c-.33,0-.56.2-.71.6A5.58,5.58,0,0,0,47.77,185.19Zm11-4.26-7.89,14.22H48.55l7.89-14.22ZM62,190.85a5.41,5.41,0,0,1-.87,3.35,3,3,0,0,1-2.53,1.12,2.92,2.92,0,0,1-2.48-1.15,5.36,5.36,0,0,1-.88-3.32q0-4.44,3.36-4.44a3,3,0,0,1,2.52,1.15A5.3,5.3,0,0,1,62,190.85Zm-4.31,0a5.65,5.65,0,0,0,.22,1.84c.15.41.38.61.71.61.62,0,.93-.82.93-2.45s-.31-2.43-.93-2.43c-.33,0-.56.2-.71.6A5.54,5.54,0,0,0,57.73,190.87Z" style="fill: #314041"/>
  </g>
  <g>
    <path d="M151.35,131.13h-9.94V129l3.57-3.61q1.58-1.62,2.07-2.25a5.37,5.37,0,0,0,.7-1.17,3,3,0,0,0,.21-1.1,1.65,1.65,0,0,0-.47-1.28,1.83,1.83,0,0,0-1.26-.42,3.69,3.69,0,0,0-1.61.38,8.92,8.92,0,0,0-1.62,1.08l-1.63-1.93a10.77,10.77,0,0,1,1.74-1.27,7,7,0,0,1,1.51-.57,7.8,7.8,0,0,1,1.82-.2,5.5,5.5,0,0,1,2.36.49,3.7,3.7,0,0,1,1.58,1.36,3.61,3.61,0,0,1,.57,2,4.94,4.94,0,0,1-.35,1.84,7.16,7.16,0,0,1-1.07,1.76,24.3,24.3,0,0,1-2.55,2.58l-1.83,1.72v.14h6.2Z" style="fill: #314041"/>
    <path d="M160.21,131.13h-3V122.9l0-1.35.05-1.48c-.5.5-.85.83-1,1l-1.64,1.31-1.44-1.8,4.58-3.65h2.47Z" style="fill: #314041"/>
    <path d="M170.72,121.15a5.44,5.44,0,0,1-.87,3.36,3,3,0,0,1-2.53,1.12,2.92,2.92,0,0,1-2.48-1.15,5.39,5.39,0,0,1-.88-3.33q0-4.45,3.36-4.45a3,3,0,0,1,2.52,1.16A5.28,5.28,0,0,1,170.72,121.15Zm-4.31,0a5.65,5.65,0,0,0,.22,1.84c.15.41.38.61.71.61.62,0,.93-.82.93-2.45s-.31-2.43-.93-2.43c-.33,0-.56.2-.71.6A5.54,5.54,0,0,0,166.41,121.17Zm11-4.26-7.89,14.22h-2.33l7.89-14.22Zm3.27,9.92a5.43,5.43,0,0,1-.87,3.35,3,3,0,0,1-2.53,1.12,2.94,2.94,0,0,1-2.49-1.15,5.45,5.45,0,0,1-.87-3.32c0-3,1.12-4.45,3.36-4.45a3,3,0,0,1,2.52,1.16A5.28,5.28,0,0,1,180.68,126.83Zm-4.31,0a5.65,5.65,0,0,0,.22,1.84c.15.41.38.61.7.61.63,0,.94-.82.94-2.45s-.31-2.43-.94-2.43c-.32,0-.55.2-.7.59A5.61,5.61,0,0,0,176.37,126.85Z" style="fill: #314041"/>
  </g>
  <g>
    <path d="M242.21,115.51h-9.94v-2.09l3.57-3.61q1.59-1.64,2.07-2.25a4.68,4.68,0,0,0,.7-1.17,3,3,0,0,0,.22-1.11,1.59,1.59,0,0,0-.48-1.27,1.8,1.8,0,0,0-1.25-.42,3.66,3.66,0,0,0-1.61.38,7.86,7.86,0,0,0-1.62,1.08l-1.64-1.93a10.77,10.77,0,0,1,1.74-1.27,6.64,6.64,0,0,1,1.51-.57,7.89,7.89,0,0,1,1.83-.2,5.45,5.45,0,0,1,2.35.49,3.79,3.79,0,0,1,1.59,1.36,3.65,3.65,0,0,1,.56,2,4.94,4.94,0,0,1-.34,1.85,7.16,7.16,0,0,1-1.07,1.76,25.7,25.7,0,0,1-2.56,2.58L236,112.84V113h6.19Z" style="fill: #314041"/>
    <path d="M248.82,106.42a4.59,4.59,0,0,1,3.28,1.16,4.17,4.17,0,0,1,1.22,3.17,4.62,4.62,0,0,1-1.47,3.67,6.22,6.22,0,0,1-4.2,1.28,8.25,8.25,0,0,1-3.83-.77v-2.59a7.78,7.78,0,0,0,1.79.66,8,8,0,0,0,1.93.26c1.84,0,2.75-.75,2.75-2.26s-.95-2.15-2.85-2.15a6.83,6.83,0,0,0-1.13.11,6.74,6.74,0,0,0-1,.22l-1.19-.65.53-7.24h7.72v2.55h-5.08l-.26,2.79.34-.07A6.65,6.65,0,0,1,248.82,106.42Z" style="fill: #314041"/>
    <path d="M261.58,105.53a5.44,5.44,0,0,1-.86,3.36,3,3,0,0,1-2.54,1.12,2.93,2.93,0,0,1-2.48-1.15,5.46,5.46,0,0,1-.87-3.33c0-3,1.11-4.45,3.35-4.45a3,3,0,0,1,2.52,1.16A5.28,5.28,0,0,1,261.58,105.53Zm-4.3,0a5.69,5.69,0,0,0,.22,1.84c.14.41.38.61.7.61.62,0,.93-.82.93-2.45s-.31-2.43-.93-2.43a.74.74,0,0,0-.7.59A5.61,5.61,0,0,0,257.28,105.55Zm11-4.26-7.89,14.22h-2.34l7.89-14.22Zm3.26,9.92a5.43,5.43,0,0,1-.86,3.35,3,3,0,0,1-2.54,1.12,2.92,2.92,0,0,1-2.48-1.15,5.45,5.45,0,0,1-.87-3.32c0-3,1.11-4.45,3.35-4.45a3,3,0,0,1,2.52,1.16A5.28,5.28,0,0,1,271.54,111.21Zm-4.3,0a6,6,0,0,0,.21,1.84c.15.4.39.61.71.61.62,0,.93-.82.93-2.45s-.31-2.43-.93-2.43a.77.77,0,0,0-.71.59A6,6,0,0,0,267.24,111.23Z" style="fill: #314041"/>
  </g>
  <g>
    <path d="M344.59,59.35h-1.71V62.3h-2.94V59.35h-6.07V57.26l6.24-9.18h2.77V57h1.71ZM339.94,57V54.61c0-.41,0-1,.05-1.75s.06-1.21.08-1.34H340a11,11,0,0,1-.87,1.56L336.52,57Z" style="fill: #314041"/>
    <path d="M353.13,62.3h-3V54.07l0-1.35.05-1.48a13.1,13.1,0,0,1-1,1l-1.63,1.32-1.45-1.81,4.58-3.65h2.47Z" style="fill: #314041"/>
    <path d="M363.64,52.32a5.51,5.51,0,0,1-.86,3.36,3,3,0,0,1-2.54,1.12,2.92,2.92,0,0,1-2.48-1.15,5.46,5.46,0,0,1-.88-3.33q0-4.44,3.36-4.44A3,3,0,0,1,362.76,49,5.3,5.3,0,0,1,363.64,52.32Zm-4.31,0a5.94,5.94,0,0,0,.22,1.84c.15.41.38.61.71.61.62,0,.93-.82.93-2.45s-.31-2.43-.93-2.43c-.33,0-.56.2-.71.6A5.87,5.87,0,0,0,359.33,52.34Zm11-4.26L362.45,62.3h-2.34L368,48.08ZM373.6,58a5.47,5.47,0,0,1-.86,3.35,3,3,0,0,1-2.54,1.12,2.92,2.92,0,0,1-2.48-1.15,5.36,5.36,0,0,1-.88-3.32q0-4.44,3.36-4.44a3,3,0,0,1,2.52,1.15A5.3,5.3,0,0,1,373.6,58Zm-4.31,0a5.94,5.94,0,0,0,.22,1.84c.15.41.38.61.71.61.62,0,.93-.82.93-2.45s-.31-2.43-.93-2.43c-.33,0-.56.2-.71.6A5.87,5.87,0,0,0,369.29,58Z" style="fill: #314041"/>
  </g>
  <g>
    <path d="M459,159.22q0,4.2-1.77,6.28a6.67,6.67,0,0,1-5.36,2.07,10.17,10.17,0,0,1-1.92-.14V165a6.93,6.93,0,0,0,1.72.2,6,6,0,0,0,2.48-.44,3.12,3.12,0,0,0,1.48-1.39,6,6,0,0,0,.6-2.61h-.12a3.3,3.3,0,0,1-1.3,1.28,4.09,4.09,0,0,1-1.85.37,3.71,3.71,0,0,1-2.93-1.19,4.79,4.79,0,0,1-1.07-3.31,5,5,0,0,1,1.3-3.61,4.7,4.7,0,0,1,3.54-1.33,5.07,5.07,0,0,1,2.75.74,4.74,4.74,0,0,1,1.82,2.14A8.17,8.17,0,0,1,459,159.22Zm-5.15-3.82a1.76,1.76,0,0,0-1.45.64,2.87,2.87,0,0,0-.53,1.85,2.53,2.53,0,0,0,.48,1.63,1.71,1.71,0,0,0,1.45.61,2.23,2.23,0,0,0,1.56-.6,1.81,1.81,0,0,0,.65-1.38,3.14,3.14,0,0,0-.6-2A1.9,1.9,0,0,0,453.82,155.4Z" style="fill: #314041"/>
    <path d="M467,157.39a5.52,5.52,0,0,1-.86,3.37,3,3,0,0,1-2.54,1.12,3,3,0,0,1-2.48-1.15,5.4,5.4,0,0,1-.88-3.34q0-4.44,3.36-4.44a3,3,0,0,1,2.52,1.15A5.32,5.32,0,0,1,467,157.39Zm-4.31,0a6,6,0,0,0,.22,1.85c.15.4.38.6.71.6.62,0,.93-.81.93-2.45s-.31-2.43-.93-2.43c-.33,0-.56.2-.71.6A5.87,5.87,0,0,0,462.72,157.41Zm11-4.26-7.88,14.22H463.5l7.89-14.22Zm3.27,9.92a5.51,5.51,0,0,1-.86,3.36,3,3,0,0,1-2.54,1.12,3,3,0,0,1-2.48-1.15,5.39,5.39,0,0,1-.88-3.33q0-4.44,3.36-4.44a3,3,0,0,1,2.52,1.15A5.32,5.32,0,0,1,477,163.07Zm-4.31,0a6,6,0,0,0,.22,1.85c.15.4.38.6.71.6.62,0,.93-.81.93-2.45s-.31-2.43-.93-2.43c-.33,0-.56.2-.71.6A5.87,5.87,0,0,0,472.68,163.09Z" style="fill: #314041"/>
  </g>
  <circle cx="63.96" cy="208.01" r="6.06" style="fill: #fff;stroke: #304041;stroke-linecap: round;stroke-linejoin: round;stroke-width: 2.25px"/>
  <circle cx="160.95" cy="145.34" r="6.06" style="fill: #fff;stroke: #304041;stroke-linecap: round;stroke-linejoin: round;stroke-width: 2.25px"/>
  <circle cx="257.87" cy="133.81" r="6.06" style="fill: #fff;stroke: #304041;stroke-linecap: round;stroke-linejoin: round;stroke-width: 2.25px"/>
  <circle cx="353.87" cy="76.01" r="6.06" style="fill: #fff;stroke: #304041;stroke-linecap: round;stroke-linejoin: round;stroke-width: 2.25px"/>
  <circle cx="450.87" cy="185.51" r="6.06" style="fill: #fff;stroke: #304041;stroke-linecap: round;stroke-linejoin: round;stroke-width: 2.25px"/>
</svg>
