<svg id="Layer_1" data-name="Layer 1" xmlns="http://www.w3.org/2000/svg" viewBox="0 0 511 271">
  <title>government_portfolio</title>
  <g style="opacity: 0.1">
    <polyline points="64.87 214.01 160.87 78.01 257.87 151.01 353.87 139.01 450.87 226.01" style="fill: none;stroke: #304041;stroke-linecap: round;stroke-linejoin: round;stroke-width: 2.25px"/>
  </g>
  <polyline points="64.87 202.01 160.87 66.01 257.87 139.01 353.87 127.01 450.87 214.01" style="fill: none;stroke: #304041;stroke-linecap: round;stroke-linejoin: round;stroke-width: 2.25px"/>
  <g>
    <path d="M36,177.42a4.55,4.55,0,0,1,3.28,1.16,4.16,4.16,0,0,1,1.22,3.17A4.58,4.58,0,0,1,39,185.41a6.17,6.17,0,0,1-4.2,1.29,8.25,8.25,0,0,1-3.83-.77v-2.6a8.62,8.62,0,0,0,3.72.93c1.84,0,2.75-.76,2.75-2.26s-1-2.15-2.84-2.15a6.77,6.77,0,0,0-1.14.1,7.65,7.65,0,0,0-1,.22l-1.2-.64.53-7.25h7.72v2.55H34.44l-.26,2.79.34-.07A6.72,6.72,0,0,1,36,177.42Z" style="fill: #314041"/>
    <path d="M48.76,176.52a5.44,5.44,0,0,1-.87,3.36A3,3,0,0,1,45.35,181a2.94,2.94,0,0,1-2.48-1.16,5.42,5.42,0,0,1-.87-3.33q0-4.44,3.35-4.44a3,3,0,0,1,2.53,1.15A5.39,5.39,0,0,1,48.76,176.52Zm-4.31,0a5.72,5.72,0,0,0,.22,1.85c.14.4.38.6.7.6.62,0,.94-.81.94-2.45s-.32-2.43-.94-2.43c-.32,0-.56.2-.7.6A5.58,5.58,0,0,0,44.45,176.54Zm11-4.26L47.56,186.5H45.23l7.88-14.22Zm3.27,9.92a5.41,5.41,0,0,1-.87,3.35,3,3,0,0,1-2.54,1.13,2.93,2.93,0,0,1-2.48-1.16A5.41,5.41,0,0,1,52,182.2q0-4.44,3.35-4.44a3,3,0,0,1,2.53,1.15A5.39,5.39,0,0,1,58.72,182.2Zm-4.31,0a5.72,5.72,0,0,0,.22,1.85c.14.4.38.6.7.6.62,0,.93-.81.93-2.45s-.31-2.43-.93-2.43c-.32,0-.56.2-.7.6A5.58,5.58,0,0,0,54.41,182.22Z" style="fill: #314041"/>
  </g>
  <g>
    <path d="M151.67,48.19H150v3H147v-3H141V46.1l6.24-9.18H150v8.94h1.71ZM147,45.86V43.45c0-.41,0-1,0-1.75s.06-1.21.08-1.34h-.08a11,11,0,0,1-.87,1.56l-2.6,3.94Z" style="fill: #314041"/>
    <path d="M163,48.19h-1.71v3h-2.94v-3h-6.07V46.1l6.23-9.18h2.78v8.94H163Zm-4.65-2.33V43.45c0-.41,0-1,.05-1.75s.06-1.21.08-1.34h-.08a11,11,0,0,1-.87,1.56L155,45.86Z" style="fill: #314041"/>
    <path d="M170.72,41.16a5.51,5.51,0,0,1-.86,3.36,3,3,0,0,1-2.54,1.12,2.92,2.92,0,0,1-2.48-1.15,5.39,5.39,0,0,1-.88-3.33q0-4.44,3.36-4.44a3,3,0,0,1,2.52,1.15A5.3,5.3,0,0,1,170.72,41.16Zm-4.31,0a5.94,5.94,0,0,0,.22,1.84c.15.41.38.61.71.61.62,0,.93-.82.93-2.45s-.31-2.43-.93-2.43c-.33,0-.56.2-.71.6A5.87,5.87,0,0,0,166.41,41.18Zm11-4.26-7.88,14.22h-2.34l7.89-14.22Zm3.27,9.92a5.47,5.47,0,0,1-.86,3.35,3,3,0,0,1-2.54,1.12,2.92,2.92,0,0,1-2.48-1.15,5.36,5.36,0,0,1-.88-3.32q0-4.44,3.36-4.44a3,3,0,0,1,2.52,1.15A5.3,5.3,0,0,1,180.68,46.84Zm-4.31,0a5.94,5.94,0,0,0,.22,1.84c.15.41.38.61.71.61.62,0,.93-.82.93-2.45s-.31-2.43-.93-2.43c-.33,0-.56.2-.71.6A5.87,5.87,0,0,0,176.37,46.86Z" style="fill: #314041"/>
  </g>
  <g>
    <path d="M254.33,122.38h-9.94v-2.09l3.57-3.61a30,30,0,0,0,2.07-2.25,5,5,0,0,0,.7-1.17,3,3,0,0,0,.21-1.1,1.61,1.61,0,0,0-.47-1.28,1.81,1.81,0,0,0-1.26-.42,3.65,3.65,0,0,0-1.6.38,9.16,9.16,0,0,0-1.63,1.08L244.35,110a10.77,10.77,0,0,1,1.74-1.27,7,7,0,0,1,1.51-.57,7.86,7.86,0,0,1,1.83-.19,5.45,5.45,0,0,1,2.35.48,3.86,3.86,0,0,1,1.59,1.36,3.68,3.68,0,0,1,.56,2,4.9,4.9,0,0,1-.35,1.84,6.86,6.86,0,0,1-1.07,1.76A24.3,24.3,0,0,1,250,118l-1.83,1.72v.14h6.2Z" style="fill: #314041"/>
    <path d="M265.14,111.34a3.4,3.4,0,0,1-.8,2.27,4.2,4.2,0,0,1-2.27,1.28V115a4.54,4.54,0,0,1,2.61,1,3,3,0,0,1,.88,2.25,3.78,3.78,0,0,1-1.49,3.19,6.87,6.87,0,0,1-4.25,1.14,10.17,10.17,0,0,1-4.1-.77v-2.55a9.54,9.54,0,0,0,1.82.68,7.82,7.82,0,0,0,2,.26,3.78,3.78,0,0,0,2.2-.51,1.84,1.84,0,0,0,.71-1.62,1.46,1.46,0,0,0-.82-1.42,6,6,0,0,0-2.6-.42h-1.08v-2.3H259a5.06,5.06,0,0,0,2.41-.44,1.55,1.55,0,0,0,.77-1.48c0-1.07-.68-1.61-2-1.61a4.48,4.48,0,0,0-1.42.23,6.92,6.92,0,0,0-1.61.81l-1.39-2.07a7.69,7.69,0,0,1,4.64-1.4,6,6,0,0,1,3.49.89A2.88,2.88,0,0,1,265.14,111.34Z" style="fill: #314041"/>
    <path d="M273.7,112.4a5.51,5.51,0,0,1-.86,3.36,3,3,0,0,1-2.54,1.12,2.92,2.92,0,0,1-2.48-1.15,5.46,5.46,0,0,1-.88-3.33q0-4.44,3.36-4.44a3,3,0,0,1,2.52,1.15A5.3,5.3,0,0,1,273.7,112.4Zm-4.31,0a5.94,5.94,0,0,0,.22,1.84c.15.41.38.61.71.61.62,0,.93-.82.93-2.45s-.31-2.43-.93-2.43c-.33,0-.56.2-.71.6A5.82,5.82,0,0,0,269.39,112.42Zm11-4.26-7.88,14.22h-2.34l7.89-14.22Zm3.27,9.92a5.5,5.5,0,0,1-.86,3.35,3,3,0,0,1-2.54,1.12,2.92,2.92,0,0,1-2.48-1.15,5.36,5.36,0,0,1-.88-3.32c0-3,1.12-4.45,3.36-4.45a3,3,0,0,1,2.52,1.16A5.3,5.3,0,0,1,283.66,118.08Zm-4.31,0a5.94,5.94,0,0,0,.22,1.84c.15.41.38.61.71.61.62,0,.93-.82.93-2.45s-.31-2.43-.93-2.43c-.33,0-.56.2-.71.6A5.82,5.82,0,0,0,279.35,118.1Z" style="fill: #314041"/>
  </g>
  <g>
    <path d="M344.27,108.71h-9.94v-2.1l3.57-3.6c1.06-1.09,1.75-1.84,2.07-2.26a4.47,4.47,0,0,0,.7-1.16,3,3,0,0,0,.22-1.11,1.59,1.59,0,0,0-.48-1.27,1.8,1.8,0,0,0-1.25-.42,3.66,3.66,0,0,0-1.61.38,7.86,7.86,0,0,0-1.62,1.08l-1.64-1.94A11.24,11.24,0,0,1,336,95.05a6.2,6.2,0,0,1,1.51-.57,7.83,7.83,0,0,1,1.83-.2,5.31,5.31,0,0,1,2.35.49,3.79,3.79,0,0,1,1.59,1.36,3.65,3.65,0,0,1,.56,2,4.94,4.94,0,0,1-.34,1.85,7.16,7.16,0,0,1-1.07,1.76,28.05,28.05,0,0,1-2.56,2.58L338.08,106v.14h6.19Z" style="fill: #314041"/>
    <path d="M347.11,108.71,352.45,97h-7V94.51h10.2v1.88l-5.38,12.32Z" style="fill: #314041"/>
    <path d="M363.64,98.73a5.44,5.44,0,0,1-.86,3.36,3,3,0,0,1-2.54,1.12,2.92,2.92,0,0,1-2.48-1.15,5.46,5.46,0,0,1-.87-3.33c0-3,1.11-4.45,3.35-4.45a3,3,0,0,1,2.52,1.15A5.34,5.34,0,0,1,363.64,98.73Zm-4.3,0a5.69,5.69,0,0,0,.22,1.84c.14.4.38.61.7.61.62,0,.93-.82.93-2.45s-.31-2.44-.93-2.44c-.32,0-.56.2-.7.6A5.61,5.61,0,0,0,359.34,98.75Zm11-4.26-7.89,14.22h-2.34L368,94.49Zm3.26,9.92a5.43,5.43,0,0,1-.86,3.35,3,3,0,0,1-2.54,1.12,2.92,2.92,0,0,1-2.48-1.15,5.45,5.45,0,0,1-.88-3.32q0-4.45,3.36-4.45a3,3,0,0,1,2.52,1.15A5.34,5.34,0,0,1,373.6,104.41Zm-4.3,0a6,6,0,0,0,.21,1.84c.15.4.39.61.71.61.62,0,.93-.82.93-2.45s-.31-2.44-.93-2.44c-.32,0-.56.2-.71.6A6,6,0,0,0,369.3,104.43Z" style="fill: #314041"/>
  </g>
  <g>
    <path d="M450.5,193.3h-3v-8.23l0-1.35.05-1.48c-.5.5-.85.82-1,1l-1.64,1.31-1.45-1.81,4.58-3.64h2.47Z" style="fill: #314041"/>
    <path d="M461,183.32a5.44,5.44,0,0,1-.87,3.36,3,3,0,0,1-2.54,1.12,2.93,2.93,0,0,1-2.48-1.15,5.46,5.46,0,0,1-.87-3.33q0-4.45,3.35-4.45a3,3,0,0,1,2.53,1.15A5.4,5.4,0,0,1,461,183.32Zm-4.31,0a5.69,5.69,0,0,0,.22,1.84c.14.4.38.61.7.61.63,0,.94-.82.94-2.45s-.31-2.44-.94-2.44c-.32,0-.56.2-.7.6A5.61,5.61,0,0,0,456.71,183.34Zm11-4.26-7.89,14.22h-2.33l7.88-14.22ZM471,189a5.43,5.43,0,0,1-.87,3.35,3,3,0,0,1-2.54,1.12,2.93,2.93,0,0,1-2.48-1.15,5.45,5.45,0,0,1-.87-3.32q0-4.45,3.35-4.45a3,3,0,0,1,2.53,1.15A5.4,5.4,0,0,1,471,189Zm-4.31,0a5.69,5.69,0,0,0,.22,1.84c.14.4.38.61.7.61.62,0,.94-.82.94-2.45s-.32-2.44-.94-2.44c-.32,0-.56.2-.7.6A5.61,5.61,0,0,0,466.67,189Z" style="fill: #314041"/>
  </g>
  <circle cx="160.95" cy="66.1" r="6.06" style="fill: #fff;stroke: #304041;stroke-linecap: round;stroke-linejoin: round;stroke-width: 2.25px"/>
  <circle cx="64.87" cy="200.89" r="6.06" style="fill: #fff;stroke: #304041;stroke-linecap: round;stroke-linejoin: round;stroke-width: 2.25px"/>
  <circle cx="257.87" cy="139.01" r="6.06" style="fill: #fff;stroke: #304041;stroke-linecap: round;stroke-linejoin: round;stroke-width: 2.25px"/>
  <circle cx="353.87" cy="127.1" r="6.06" style="fill: #fff;stroke: #304041;stroke-linecap: round;stroke-linejoin: round;stroke-width: 2.25px"/>
  <circle cx="450.87" cy="214.01" r="6.06" style="fill: #fff;stroke: #304041;stroke-linecap: round;stroke-linejoin: round;stroke-width: 2.25px"/>
</svg>
