<svg xmlns="http://www.w3.org/2000/svg" viewBox="0 0 511 271">
  <title>government_overall</title>
  <polyline points="63.48 208.43 159.8 128.81 256.12 76.15 351.16 169.9 447.48 216.14" style="fill: none;stroke: #304041;stroke-linecap: round;stroke-linejoin: round;stroke-width: 2.25px"/>
  <g>
    <path d="M47.73,179.68a3.33,3.33,0,0,1-.8,2.26,4.28,4.28,0,0,1-2.27,1.29v.05a4.61,4.61,0,0,1,2.61,1.05,2.92,2.92,0,0,1,.88,2.24,3.8,3.8,0,0,1-1.49,3.2,6.85,6.85,0,0,1-4.25,1.14,10.34,10.34,0,0,1-4.1-.77v-2.56a8.91,8.91,0,0,0,1.82.68,7.46,7.46,0,0,0,2,.27,3.78,3.78,0,0,0,2.2-.51A1.84,1.84,0,0,0,45,186.4a1.46,1.46,0,0,0-.82-1.42,6,6,0,0,0-2.6-.42H40.5v-2.31h1.1a5,5,0,0,0,2.41-.43,1.56,1.56,0,0,0,.77-1.48c0-1.08-.68-1.62-2-1.62a4.5,4.5,0,0,0-1.42.24,6.84,6.84,0,0,0-1.61.8l-1.39-2.07a7.75,7.75,0,0,1,4.64-1.4,5.94,5.94,0,0,1,3.48.9A2.84,2.84,0,0,1,47.73,179.68Z" style="fill: #314041"/>
    <path d="M56.29,180.74a5.51,5.51,0,0,1-.86,3.36,3,3,0,0,1-2.54,1.12,2.92,2.92,0,0,1-2.48-1.15,5.46,5.46,0,0,1-.88-3.33q0-4.45,3.36-4.45a3,3,0,0,1,2.52,1.15A5.34,5.34,0,0,1,56.29,180.74Zm-4.31,0a6,6,0,0,0,.22,1.84c.15.4.38.61.71.61.62,0,.93-.82.93-2.45s-.31-2.44-.93-2.44c-.33,0-.56.2-.71.6A5.89,5.89,0,0,0,52,180.76Zm11-4.26L55.1,190.71H52.76l7.89-14.21Zm3.27,9.92a5.5,5.5,0,0,1-.86,3.35,3,3,0,0,1-2.54,1.12,2.92,2.92,0,0,1-2.48-1.15,5.45,5.45,0,0,1-.88-3.32q0-4.46,3.36-4.45a3,3,0,0,1,2.52,1.15A5.34,5.34,0,0,1,66.25,186.42Zm-4.31,0a6,6,0,0,0,.22,1.84c.15.4.38.61.71.61.62,0,.93-.82.93-2.45s-.31-2.44-.93-2.44c-.33,0-.56.2-.71.6A5.89,5.89,0,0,0,61.94,186.44Z" style="fill: #314041"/>
  </g>
  <g>
    <path d="M144.74,103a3.33,3.33,0,0,1-.81,2.26,4.28,4.28,0,0,1-2.27,1.29v.05a4.55,4.55,0,0,1,2.61,1,2.92,2.92,0,0,1,.88,2.24,3.8,3.8,0,0,1-1.49,3.2,6.85,6.85,0,0,1-4.25,1.14,10.34,10.34,0,0,1-4.1-.77v-2.56a8.91,8.91,0,0,0,1.82.68,7.46,7.46,0,0,0,2,.27,3.78,3.78,0,0,0,2.2-.51,1.84,1.84,0,0,0,.71-1.62,1.45,1.45,0,0,0-.82-1.42,6,6,0,0,0-2.6-.42H137.5v-2.31h1.1a5,5,0,0,0,2.41-.43,1.56,1.56,0,0,0,.77-1.48c0-1.08-.68-1.62-2-1.62a4.5,4.5,0,0,0-1.42.24,6.84,6.84,0,0,0-1.61.8L135.33,101a7.75,7.75,0,0,1,4.64-1.4,6,6,0,0,1,3.49.9A2.86,2.86,0,0,1,144.74,103Z" style="fill: #314041"/>
    <path d="M154.15,114.05h-3v-8.22l0-1.36.05-1.47c-.5.5-.84.82-1,1l-1.63,1.31-1.45-1.81,4.58-3.64h2.47Z" style="fill: #314041"/>
    <path d="M164.66,104.08a5.51,5.51,0,0,1-.86,3.36,3,3,0,0,1-2.54,1.12,3,3,0,0,1-2.48-1.15,5.46,5.46,0,0,1-.88-3.33q0-4.45,3.36-4.45a3,3,0,0,1,2.52,1.15A5.34,5.34,0,0,1,164.66,104.08Zm-4.31,0a6,6,0,0,0,.22,1.85c.15.4.38.61.71.61q.93,0,.93-2.46t-.93-2.43c-.33,0-.56.2-.71.6A5.87,5.87,0,0,0,160.35,104.09Zm11-4.25-7.88,14.21h-2.34L169,99.84Zm3.27,9.92a5.5,5.5,0,0,1-.86,3.35,3,3,0,0,1-2.54,1.12,2.92,2.92,0,0,1-2.48-1.15,5.45,5.45,0,0,1-.88-3.32q0-4.45,3.36-4.45a3,3,0,0,1,2.52,1.15A5.34,5.34,0,0,1,174.62,109.76Zm-4.31,0a6,6,0,0,0,.22,1.84c.15.4.38.61.71.61.62,0,.93-.82.93-2.45s-.31-2.44-.93-2.44c-.33,0-.56.2-.71.6A5.89,5.89,0,0,0,170.31,109.78Z" style="fill: #314041"/>
  </g>
  <g>
    <path d="M248.59,60.34h-1.71v2.95h-2.94V60.34h-6.07V58.25l6.24-9.18h2.77V58h1.71ZM243.94,58V55.59c0-.4,0-1,.05-1.75s.06-1.21.08-1.33H244a11,11,0,0,1-.87,1.56L240.52,58Z" style="fill: #314041"/>
    <path d="M259.58,55.14q0,4.2-1.77,6.27a6.67,6.67,0,0,1-5.36,2.07,9.22,9.22,0,0,1-1.91-.14V60.93a6.79,6.79,0,0,0,1.71.21,5.94,5.94,0,0,0,2.48-.45,3.09,3.09,0,0,0,1.49-1.39,6.14,6.14,0,0,0,.59-2.61h-.12a3.34,3.34,0,0,1-1.3,1.29,4.2,4.2,0,0,1-1.85.37,3.73,3.73,0,0,1-2.93-1.2,4.77,4.77,0,0,1-1.07-3.31,5,5,0,0,1,1.3-3.61,4.72,4.72,0,0,1,3.54-1.33,5.13,5.13,0,0,1,2.76.74A4.76,4.76,0,0,1,259,51.79,8.11,8.11,0,0,1,259.58,55.14Zm-5.14-3.83A1.77,1.77,0,0,0,253,52a2.82,2.82,0,0,0-.53,1.84,2.56,2.56,0,0,0,.48,1.64,1.74,1.74,0,0,0,1.45.6,2.21,2.21,0,0,0,1.56-.6,1.8,1.8,0,0,0,.66-1.37,3.16,3.16,0,0,0-.61-2A1.88,1.88,0,0,0,254.44,51.31Z" style="fill: #314041"/>
    <path d="M267.64,53.31a5.44,5.44,0,0,1-.86,3.36,3,3,0,0,1-2.54,1.12,2.92,2.92,0,0,1-2.48-1.15,5.46,5.46,0,0,1-.88-3.33q0-4.45,3.36-4.45A3,3,0,0,1,266.76,50,5.28,5.28,0,0,1,267.64,53.31Zm-4.3,0a6,6,0,0,0,.21,1.84c.15.41.39.61.71.61.62,0,.93-.82.93-2.45s-.31-2.43-.93-2.43c-.32,0-.56.19-.71.59A6,6,0,0,0,263.34,53.33Zm11-4.26-7.89,14.22h-2.34L272,49.07ZM277.6,59a5.43,5.43,0,0,1-.86,3.35,3,3,0,0,1-2.54,1.12,2.92,2.92,0,0,1-2.48-1.15,5.45,5.45,0,0,1-.88-3.32q0-4.45,3.36-4.45a3,3,0,0,1,2.52,1.16A5.28,5.28,0,0,1,277.6,59Zm-4.31,0a6,6,0,0,0,.22,1.84c.15.4.38.61.71.61.62,0,.93-.82.93-2.45s-.31-2.43-.93-2.43c-.33,0-.56.2-.71.59A5.89,5.89,0,0,0,273.29,59Z" style="fill: #314041"/>
  </g>
  <g>
    <path d="M354.68,153.88h-3v-8.23l0-1.35.05-1.48c-.5.5-.84.82-1,1l-1.63,1.31-1.45-1.81,4.58-3.64h2.47Z" style="fill: #314041"/>
    <path d="M360,153.88l5.34-11.67h-7v-2.53h10.2v1.88l-5.38,12.32Z" style="fill: #314041"/>
    <path d="M376.56,143.9a5.51,5.51,0,0,1-.86,3.36,3,3,0,0,1-2.54,1.12,2.92,2.92,0,0,1-2.48-1.15,5.39,5.39,0,0,1-.88-3.33q0-4.46,3.36-4.45a3,3,0,0,1,2.52,1.16A5.28,5.28,0,0,1,376.56,143.9Zm-4.31,0a6,6,0,0,0,.22,1.84c.15.41.38.61.71.61.62,0,.93-.82.93-2.45s-.31-2.43-.93-2.43c-.33,0-.56.19-.71.59A5.89,5.89,0,0,0,372.25,143.92Zm11-4.26-7.88,14.22H373l7.89-14.22Zm3.27,9.92a5.5,5.5,0,0,1-.86,3.35,3,3,0,0,1-2.54,1.12,2.92,2.92,0,0,1-2.48-1.15,5.38,5.38,0,0,1-.88-3.32q0-4.46,3.36-4.45a3,3,0,0,1,2.52,1.16A5.28,5.28,0,0,1,386.52,149.58Zm-4.31,0a6,6,0,0,0,.22,1.84c.15.4.38.61.71.61.62,0,.93-.82.93-2.45s-.31-2.43-.93-2.43c-.33,0-.56.19-.71.59A5.89,5.89,0,0,0,382.21,149.6Z" style="fill: #314041"/>
  </g>
  <g>
    <path d="M447.88,200.51h-3v-8.23l0-1.35.05-1.48a13.1,13.1,0,0,1-1,1l-1.63,1.31-1.45-1.8,4.58-3.65h2.47Z" style="fill: #314041"/>
    <path d="M458.39,190.53a5.44,5.44,0,0,1-.86,3.36A3,3,0,0,1,455,195a2.92,2.92,0,0,1-2.48-1.15,5.46,5.46,0,0,1-.88-3.33c0-3,1.12-4.45,3.36-4.45a3,3,0,0,1,2.52,1.16A5.28,5.28,0,0,1,458.39,190.53Zm-4.3,0a6,6,0,0,0,.21,1.84c.15.41.39.61.71.61.62,0,.93-.82.93-2.45s-.31-2.43-.93-2.43a.77.77,0,0,0-.71.59A6,6,0,0,0,454.09,190.55Zm11-4.26-7.89,14.22h-2.34l7.89-14.22Zm3.26,9.92a5.43,5.43,0,0,1-.86,3.35,3,3,0,0,1-2.54,1.12,2.92,2.92,0,0,1-2.48-1.15,5.45,5.45,0,0,1-.88-3.32c0-3,1.12-4.45,3.36-4.45a3,3,0,0,1,2.52,1.16A5.28,5.28,0,0,1,468.35,196.21Zm-4.31,0a5.94,5.94,0,0,0,.22,1.84c.15.41.38.61.71.61.62,0,.93-.82.93-2.45s-.31-2.43-.93-2.43c-.33,0-.56.2-.71.59A5.89,5.89,0,0,0,464,196.23Z" style="fill: #314041"/>
  </g>
  <circle cx="63.48" cy="209.2" r="6.06" style="fill: #fff;stroke: #304041;stroke-linecap: round;stroke-linejoin: round;stroke-width: 2.25px"/>
  <circle cx="160.21" cy="129.02" r="6.06" style="fill: #fff;stroke: #304041;stroke-linecap: round;stroke-linejoin: round;stroke-width: 2.25px"/>
  <circle cx="255.48" cy="77.14" r="6.06" style="fill: #fff;stroke: #304041;stroke-linecap: round;stroke-linejoin: round;stroke-width: 2.25px"/>
  <circle cx="351.48" cy="169.56" r="6.06" style="fill: #fff;stroke: #304041;stroke-linecap: round;stroke-linejoin: round;stroke-width: 2.25px"/>
  <circle cx="447.48" cy="215.51" r="6.06" style="fill: #fff;stroke: #304041;stroke-linecap: round;stroke-linejoin: round;stroke-width: 2.25px"/>
</svg>
