<svg xmlns="http://www.w3.org/2000/svg" viewBox="0 0 511 271">
  <title>government_process</title>
  <g style="opacity: 0.1">
    <polyline points="64.87 187.01 160.87 139.01 257.87 143.01 353.87 125.01 450.87 214.01" style="fill: none;stroke: #304041;stroke-linecap: round;stroke-linejoin: round;stroke-width: 2.25px"/>
  </g>
  <polyline points="64.87 175.01 160.87 127.01 257.87 131.01 353.87 113.01 450.87 202.01" style="fill: none;stroke: #304041;stroke-linecap: round;stroke-linejoin: round;stroke-width: 2.25px"/>
  <g>
    <path d="M25.46,165.21h-3V157l0-1.35.05-1.48c-.5.5-.85.83-1,1l-1.64,1.32-1.45-1.81L23,151h2.47Z" style="fill: #314041"/>
    <path d="M39.34,165.21H29.4v-2.09L33,159.51A30,30,0,0,0,35,157.26a4.82,4.82,0,0,0,.7-1.16A2.85,2.85,0,0,0,36,155a1.65,1.65,0,0,0-.47-1.28,1.84,1.84,0,0,0-1.26-.41,3.53,3.53,0,0,0-1.61.38A8.2,8.2,0,0,0,31,154.75l-1.64-1.93a10.77,10.77,0,0,1,1.74-1.27,6.62,6.62,0,0,1,1.51-.56,7.44,7.44,0,0,1,1.83-.2,5.45,5.45,0,0,1,2.35.48,3.86,3.86,0,0,1,1.59,1.36,3.71,3.71,0,0,1,.56,2,4.89,4.89,0,0,1-.34,1.84,7.39,7.39,0,0,1-1.07,1.77A27.86,27.86,0,0,1,35,160.82l-1.83,1.72v.14h6.19Z" style="fill: #314041"/>
    <path d="M47.35,155.23a5.44,5.44,0,0,1-.87,3.36,3,3,0,0,1-2.54,1.12,2.93,2.93,0,0,1-2.48-1.15,5.46,5.46,0,0,1-.87-3.33q0-4.44,3.35-4.44a3,3,0,0,1,2.53,1.15A5.37,5.37,0,0,1,47.35,155.23Zm-4.31,0a5.65,5.65,0,0,0,.22,1.84c.14.41.38.61.7.61.62,0,.94-.82.94-2.45s-.32-2.43-.94-2.43c-.32,0-.56.2-.7.6A5.58,5.58,0,0,0,43,155.25ZM54,151l-7.89,14.22H43.82L51.7,151Zm3.27,9.92a5.41,5.41,0,0,1-.87,3.35,3,3,0,0,1-2.54,1.13,2.93,2.93,0,0,1-2.48-1.16,5.43,5.43,0,0,1-.87-3.32c0-3,1.11-4.44,3.35-4.44a3,3,0,0,1,2.53,1.15A5.37,5.37,0,0,1,57.31,160.91Zm-4.31,0a5.65,5.65,0,0,0,.22,1.84c.14.41.38.61.7.61.62,0,.93-.82.93-2.45s-.31-2.43-.93-2.43c-.32,0-.56.2-.7.6A5.58,5.58,0,0,0,53,160.93Z" style="fill: #314041"/>
  </g>
  <g>
    <path d="M151.35,112h-9.94v-2.09l3.57-3.61q1.58-1.64,2.07-2.25a5,5,0,0,0,.7-1.17,3,3,0,0,0,.21-1.11,1.62,1.62,0,0,0-.47-1.27,1.81,1.81,0,0,0-1.26-.42,3.65,3.65,0,0,0-1.6.38,8.18,8.18,0,0,0-1.63,1.08l-1.63-1.93a10.77,10.77,0,0,1,1.74-1.27,6.47,6.47,0,0,1,1.51-.57,7.83,7.83,0,0,1,1.83-.2,5.48,5.48,0,0,1,2.35.49,3.7,3.7,0,0,1,1.58,1.36,3.57,3.57,0,0,1,.57,2,5,5,0,0,1-.35,1.85,6.86,6.86,0,0,1-1.07,1.76,24.3,24.3,0,0,1-2.55,2.58l-1.83,1.72v.14h6.2Z" style="fill: #314041"/>
    <path d="M154.19,112l5.34-11.67h-7V97.81h10.21v1.88L157.34,112Z" style="fill: #314041"/>
    <path d="M170.72,102a5.51,5.51,0,0,1-.86,3.36,3,3,0,0,1-2.54,1.12,2.92,2.92,0,0,1-2.48-1.15A5.39,5.39,0,0,1,164,102q0-4.45,3.36-4.45a3,3,0,0,1,2.52,1.16A5.28,5.28,0,0,1,170.72,102Zm-4.31,0a5.94,5.94,0,0,0,.22,1.84c.15.41.38.61.71.61.62,0,.93-.82.93-2.45s-.31-2.43-.93-2.43c-.33,0-.56.2-.71.59A5.89,5.89,0,0,0,166.41,102.05Zm11-4.26L169.53,112h-2.34l7.89-14.22Zm3.27,9.92a5.43,5.43,0,0,1-.87,3.35,3,3,0,0,1-2.53,1.12A2.92,2.92,0,0,1,174.8,111a5.38,5.38,0,0,1-.88-3.32c0-3,1.12-4.45,3.36-4.45a3,3,0,0,1,2.52,1.16A5.28,5.28,0,0,1,180.68,107.71Zm-4.31,0a5.94,5.94,0,0,0,.22,1.84c.15.41.38.61.71.61.62,0,.93-.82.93-2.45s-.31-2.43-.93-2.43c-.33,0-.56.2-.71.59A5.89,5.89,0,0,0,176.37,107.73Z" style="fill: #314041"/>
  </g>
  <g>
    <path d="M248.27,115.51h-9.94v-2.09l3.57-3.61c1.06-1.09,1.75-1.84,2.07-2.26a4.47,4.47,0,0,0,.7-1.16,3,3,0,0,0,.22-1.11,1.59,1.59,0,0,0-.48-1.27,1.81,1.81,0,0,0-1.26-.42,3.65,3.65,0,0,0-1.6.38,7.86,7.86,0,0,0-1.62,1.08l-1.64-1.93a10.77,10.77,0,0,1,1.74-1.27,6.2,6.2,0,0,1,1.51-.57,7.83,7.83,0,0,1,1.83-.2,5.31,5.31,0,0,1,2.35.49,3.79,3.79,0,0,1,1.59,1.36,3.65,3.65,0,0,1,.56,2,4.94,4.94,0,0,1-.34,1.85,7.16,7.16,0,0,1-1.07,1.76,28.05,28.05,0,0,1-2.56,2.58l-1.82,1.72V113h6.19Z" style="fill: #314041"/>
    <path d="M254.87,106.42a4.6,4.6,0,0,1,3.29,1.16,4.17,4.17,0,0,1,1.22,3.17,4.62,4.62,0,0,1-1.47,3.67,6.22,6.22,0,0,1-4.2,1.28,8.29,8.29,0,0,1-3.84-.77v-2.59a8.8,8.8,0,0,0,3.73.92c1.84,0,2.75-.75,2.75-2.26s-1-2.15-2.85-2.15a6.83,6.83,0,0,0-1.13.11,8.5,8.5,0,0,0-1,.21l-1.19-.64.53-7.24h7.71v2.55h-5.07l-.26,2.79.34-.07A6.62,6.62,0,0,1,254.87,106.42Z" style="fill: #314041"/>
    <path d="M267.64,105.53a5.44,5.44,0,0,1-.86,3.36,3,3,0,0,1-2.54,1.12,2.92,2.92,0,0,1-2.48-1.15,5.46,5.46,0,0,1-.88-3.33q0-4.45,3.36-4.45a3,3,0,0,1,2.52,1.15A5.34,5.34,0,0,1,267.64,105.53Zm-4.3,0a6,6,0,0,0,.21,1.84c.15.41.39.61.71.61.62,0,.93-.82.93-2.45s-.31-2.43-.93-2.43c-.32,0-.56.19-.71.59A6,6,0,0,0,263.34,105.55Zm11-4.26-7.89,14.22h-2.34L272,101.29Zm3.26,9.92a5.43,5.43,0,0,1-.86,3.35,3,3,0,0,1-2.54,1.12,2.92,2.92,0,0,1-2.48-1.15,5.45,5.45,0,0,1-.88-3.32q0-4.45,3.36-4.45a3,3,0,0,1,2.52,1.16A5.28,5.28,0,0,1,277.6,111.21Zm-4.31,0a6,6,0,0,0,.22,1.84c.15.4.38.61.71.61.62,0,.93-.82.93-2.45s-.31-2.43-.93-2.43c-.33,0-.56.19-.71.59A5.89,5.89,0,0,0,273.29,111.23Z" style="fill: #314041"/>
  </g>
  <g>
    <path d="M343.72,89a3.32,3.32,0,0,1-.81,2.26,4.18,4.18,0,0,1-2.27,1.29v.06a4.54,4.54,0,0,1,2.61,1,2.93,2.93,0,0,1,.88,2.24,3.8,3.8,0,0,1-1.48,3.2,6.89,6.89,0,0,1-4.25,1.14,10.35,10.35,0,0,1-4.11-.77V96.87a9.55,9.55,0,0,0,1.82.69,7.88,7.88,0,0,0,2,.26,3.78,3.78,0,0,0,2.2-.51,1.84,1.84,0,0,0,.71-1.62,1.47,1.47,0,0,0-.81-1.42,6.06,6.06,0,0,0-2.61-.42h-1.08v-2.3h1.1a5.1,5.1,0,0,0,2.42-.44,1.57,1.57,0,0,0,.76-1.48c0-1.08-.68-1.62-2-1.62a4.52,4.52,0,0,0-1.43.24,6.84,6.84,0,0,0-1.61.8L334.31,87a7.75,7.75,0,0,1,4.64-1.4,6,6,0,0,1,3.49.9A2.86,2.86,0,0,1,343.72,89Z" style="fill: #314041"/>
    <path d="M353.13,100h-3V91.78l0-1.35L350.2,89c-.5.5-.84.82-1,1l-1.63,1.31-1.45-1.81,4.58-3.64h2.47Z" style="fill: #314041"/>
    <path d="M363.64,90a5.44,5.44,0,0,1-.86,3.36,3,3,0,0,1-2.54,1.12,2.92,2.92,0,0,1-2.48-1.15,5.46,5.46,0,0,1-.88-3.33q0-4.45,3.36-4.45a3,3,0,0,1,2.52,1.16A5.28,5.28,0,0,1,363.64,90Zm-4.3,0a6,6,0,0,0,.21,1.84c.15.41.39.61.71.61.62,0,.93-.82.93-2.45s-.31-2.43-.93-2.43c-.32,0-.56.19-.71.59A6,6,0,0,0,359.34,90.05Zm11-4.26L362.45,100h-2.34L368,85.79Zm3.26,9.92a5.5,5.5,0,0,1-.86,3.35,3,3,0,0,1-2.54,1.12A2.92,2.92,0,0,1,367.72,99a5.45,5.45,0,0,1-.88-3.32q0-4.45,3.36-4.45a3,3,0,0,1,2.52,1.16A5.28,5.28,0,0,1,373.6,95.71Zm-4.31,0a5.94,5.94,0,0,0,.22,1.84c.15.4.38.61.71.61.62,0,.93-.82.93-2.45s-.31-2.43-.93-2.43c-.33,0-.56.2-.71.59A5.89,5.89,0,0,0,369.29,95.73Z" style="fill: #314041"/>
  </g>
  <g>
    <path d="M451.6,171.43a4.56,4.56,0,0,1,3.28,1.16,4.14,4.14,0,0,1,1.23,3.17,4.62,4.62,0,0,1-1.47,3.67,6.22,6.22,0,0,1-4.2,1.28,8.17,8.17,0,0,1-3.84-.77v-2.59a8.14,8.14,0,0,0,1.79.66,8,8,0,0,0,1.94.26c1.83,0,2.75-.75,2.75-2.26s-.95-2.15-2.85-2.15a7,7,0,0,0-1.14.11,6.86,6.86,0,0,0-1,.22l-1.2-.65.54-7.24h7.71v2.55h-5.07l-.27,2.79.34-.07A6.78,6.78,0,0,1,451.6,171.43Z" style="fill: #314041"/>
    <path d="M464.37,170.54a5.51,5.51,0,0,1-.86,3.36A3,3,0,0,1,461,175a2.92,2.92,0,0,1-2.48-1.15,5.39,5.39,0,0,1-.88-3.33c0-3,1.12-4.45,3.36-4.45a3,3,0,0,1,2.52,1.16A5.28,5.28,0,0,1,464.37,170.54Zm-4.31,0a5.94,5.94,0,0,0,.22,1.84c.15.41.38.61.71.61.62,0,.93-.82.93-2.45s-.31-2.43-.93-2.43c-.33,0-.56.2-.71.59A5.89,5.89,0,0,0,460.06,170.56Zm11-4.26-7.88,14.22h-2.34l7.89-14.22Zm3.27,9.92a5.5,5.5,0,0,1-.86,3.35,3,3,0,0,1-2.54,1.12,2.92,2.92,0,0,1-2.48-1.15,5.38,5.38,0,0,1-.88-3.32c0-3,1.12-4.45,3.36-4.45a3,3,0,0,1,2.52,1.16A5.28,5.28,0,0,1,474.33,176.22Zm-4.31,0a5.94,5.94,0,0,0,.22,1.84c.15.41.38.61.71.61.62,0,.93-.82.93-2.45s-.31-2.43-.93-2.43c-.33,0-.56.2-.71.59A5.89,5.89,0,0,0,470,176.24Z" style="fill: #314041"/>
  </g>
  <circle cx="64.48" cy="175.01" r="6.06" style="fill: #fff;stroke: #304041;stroke-linecap: round;stroke-linejoin: round;stroke-width: 2.25px"/>
  <circle cx="160.95" cy="126.29" r="6.06" style="fill: #fff;stroke: #304041;stroke-linecap: round;stroke-linejoin: round;stroke-width: 2.25px"/>
  <circle cx="257.87" cy="131.01" r="6.06" style="fill: #fff;stroke: #304041;stroke-linecap: round;stroke-linejoin: round;stroke-width: 2.25px"/>
  <circle cx="353.87" cy="113.68" r="6.06" style="fill: #fff;stroke: #304041;stroke-linecap: round;stroke-linejoin: round;stroke-width: 2.25px"/>
  <circle cx="450.87" cy="202.01" r="6.06" style="fill: #fff;stroke: #304041;stroke-linecap: round;stroke-linejoin: round;stroke-width: 2.25px"/>
</svg>
