<svg xmlns="http://www.w3.org/2000/svg" viewBox="0 0 511 271">
  <title>government_structural</title>
  <g style="opacity: 0.1">
    <polyline points="64.87 192.01 160.87 70.01 257.87 183.01 353.87 139.01 450.87 224.01" style="fill: none;stroke: #304041;stroke-linecap: round;stroke-linejoin: round;stroke-width: 2.25px"/>
  </g>
  <polyline points="64.87 180.01 160.87 58.01 257.87 171.01 353.87 127.01 450.87 212.01" style="fill: none;stroke: #304041;stroke-linecap: round;stroke-linejoin: round;stroke-width: 2.25px"/>
  <g>
    <path d="M22.79,175.09h-3v-8.23l0-1.35.05-1.48c-.5.5-.85.83-1,1l-1.64,1.31-1.45-1.8,4.58-3.65h2.47Z" style="fill: #314041"/>
    <path d="M34.16,175.09h-3v-8.23l0-1.35,0-1.48c-.5.5-.85.83-1,1l-1.64,1.31-1.45-1.8,4.58-3.65h2.47Z" style="fill: #314041"/>
    <path d="M44.68,165.11a5.44,5.44,0,0,1-.87,3.36,3,3,0,0,1-2.54,1.12,2.93,2.93,0,0,1-2.48-1.15,5.46,5.46,0,0,1-.87-3.33c0-3,1.12-4.45,3.35-4.45a3,3,0,0,1,2.53,1.16A5.37,5.37,0,0,1,44.68,165.11Zm-4.31,0a5.65,5.65,0,0,0,.22,1.84c.14.41.38.61.7.61.62,0,.94-.82.94-2.45s-.32-2.43-.94-2.43c-.32,0-.56.2-.7.6A5.54,5.54,0,0,0,40.37,165.13Zm11-4.26-7.89,14.22H41.15L49,160.87Zm3.27,9.92a5.43,5.43,0,0,1-.87,3.35,3,3,0,0,1-2.54,1.12,2.93,2.93,0,0,1-2.48-1.15,5.45,5.45,0,0,1-.87-3.32c0-3,1.12-4.45,3.35-4.45a3,3,0,0,1,2.53,1.16A5.37,5.37,0,0,1,54.64,170.79Zm-4.31,0a5.65,5.65,0,0,0,.22,1.84c.14.41.38.61.7.61.62,0,.94-.82.94-2.45s-.32-2.43-.94-2.43c-.32,0-.56.2-.7.6A5.5,5.5,0,0,0,50.33,170.81Z" style="fill: #314041"/>
  </g>
  <g>
    <path d="M151.67,41H150V44H147V41H141V38.92l6.23-9.19H150v8.94h1.71ZM147,38.67V36.26c0-.4,0-1,0-1.75s.06-1.21.08-1.33h-.08a10.35,10.35,0,0,1-.87,1.55l-2.6,3.94Z" style="fill: #314041"/>
    <path d="M154.19,44l5.34-11.67h-7V29.75h10.21v1.89L157.34,44Z" style="fill: #314041"/>
    <path d="M170.72,34a5.51,5.51,0,0,1-.86,3.36,3,3,0,0,1-2.54,1.12,3,3,0,0,1-2.48-1.15A5.39,5.39,0,0,1,164,34q0-4.45,3.36-4.45a3,3,0,0,1,2.52,1.15A5.34,5.34,0,0,1,170.72,34Zm-4.31,0a6,6,0,0,0,.22,1.85c.15.4.38.61.71.61q.93,0,.93-2.46t-.93-2.43c-.33,0-.56.2-.71.6A5.87,5.87,0,0,0,166.41,34Zm11-4.26L169.53,44h-2.34l7.89-14.22Zm3.27,9.92a5.51,5.51,0,0,1-.86,3.36,3,3,0,0,1-2.54,1.12A3,3,0,0,1,174.8,43a5.39,5.39,0,0,1-.88-3.33q0-4.44,3.36-4.44a3,3,0,0,1,2.52,1.15A5.32,5.32,0,0,1,180.68,39.65Zm-4.31,0a6,6,0,0,0,.22,1.85c.15.4.38.61.71.61q.93,0,.93-2.46t-.93-2.43c-.33,0-.56.2-.71.6A5.87,5.87,0,0,0,176.37,39.67Z" style="fill: #314041"/>
  </g>
  <g>
    <path d="M251.82,153.69h-3v-8.23l0-1.35,0-1.48c-.5.5-.84.83-1,1l-1.63,1.31-1.45-1.81,4.58-3.65h2.47Z" style="fill: #314041"/>
    <path d="M266,150.75h-1.71v2.94h-2.94v-2.94H255.3v-2.1l6.24-9.18h2.77v8.94H266Zm-4.65-2.34V146c0-.4,0-1,.05-1.75s.06-1.21.08-1.33h-.08a10.35,10.35,0,0,1-.87,1.55l-2.6,3.94Z" style="fill: #314041"/>
    <path d="M273.7,143.71a5.51,5.51,0,0,1-.86,3.36,3,3,0,0,1-2.54,1.13,2.93,2.93,0,0,1-2.48-1.16,5.35,5.35,0,0,1-.88-3.33q0-4.44,3.36-4.44a3,3,0,0,1,2.52,1.15A5.32,5.32,0,0,1,273.7,143.71Zm-4.31,0a6,6,0,0,0,.22,1.85c.15.4.38.6.71.6.62,0,.93-.81.93-2.45s-.31-2.43-.93-2.43c-.33,0-.56.2-.71.6A5.87,5.87,0,0,0,269.39,143.73Zm11-4.26-7.88,14.22h-2.34l7.89-14.22Zm3.27,9.92a5.47,5.47,0,0,1-.86,3.35,3,3,0,0,1-2.54,1.13,2.93,2.93,0,0,1-2.48-1.16,5.34,5.34,0,0,1-.88-3.32q0-4.44,3.36-4.44a3,3,0,0,1,2.52,1.15A5.32,5.32,0,0,1,283.66,149.39Zm-4.31,0a6,6,0,0,0,.22,1.85c.15.4.38.6.71.6.62,0,.93-.81.93-2.45s-.31-2.43-.93-2.43c-.33,0-.56.2-.71.6A5.87,5.87,0,0,0,279.35,149.41Z" style="fill: #314041"/>
  </g>
  <g>
    <path d="M344.27,114.51h-9.94v-2.09l3.57-3.61q1.59-1.64,2.07-2.25a5,5,0,0,0,.7-1.17,3,3,0,0,0,.21-1.11,1.59,1.59,0,0,0-.47-1.27,1.81,1.81,0,0,0-1.26-.42,3.65,3.65,0,0,0-1.6.38,7.86,7.86,0,0,0-1.62,1.08l-1.64-1.93a10.77,10.77,0,0,1,1.74-1.27,6.64,6.64,0,0,1,1.51-.57,7.83,7.83,0,0,1,1.83-.2,5.45,5.45,0,0,1,2.35.49,3.79,3.79,0,0,1,1.59,1.36,3.66,3.66,0,0,1,.56,2,4.93,4.93,0,0,1-.34,1.84,7.16,7.16,0,0,1-1.07,1.76,25.7,25.7,0,0,1-2.56,2.58l-1.83,1.72V112h6.2Z" style="fill: #314041"/>
    <path d="M347.11,114.51l5.34-11.67h-7v-2.53h10.2v1.88l-5.38,12.32Z" style="fill: #314041"/>
    <path d="M363.64,104.53a5.44,5.44,0,0,1-.86,3.36,3,3,0,0,1-2.54,1.12,2.92,2.92,0,0,1-2.48-1.15,5.46,5.46,0,0,1-.88-3.33q0-4.45,3.36-4.45a3,3,0,0,1,2.52,1.16A5.28,5.28,0,0,1,363.64,104.53Zm-4.3,0a6,6,0,0,0,.21,1.84c.15.41.39.61.71.61.62,0,.93-.82.93-2.45s-.31-2.43-.93-2.43c-.32,0-.56.19-.71.59A6,6,0,0,0,359.34,104.55Zm11-4.26-7.89,14.22h-2.34L368,100.29Zm3.26,9.92a5.5,5.5,0,0,1-.86,3.35,3,3,0,0,1-2.54,1.12,2.92,2.92,0,0,1-2.48-1.15,5.45,5.45,0,0,1-.88-3.32q0-4.45,3.36-4.45a3,3,0,0,1,2.52,1.16A5.28,5.28,0,0,1,373.6,110.21Zm-4.31,0a5.94,5.94,0,0,0,.22,1.84c.15.41.38.61.71.61.62,0,.93-.82.93-2.45s-.31-2.43-.93-2.43c-.33,0-.56.2-.71.59A5.89,5.89,0,0,0,369.29,110.23Z" style="fill: #314041"/>
  </g>
  <g>
    <path d="M453,192.84h-9.94v-2.09l3.57-3.61a30,30,0,0,0,2.07-2.25,4.82,4.82,0,0,0,.7-1.16,2.85,2.85,0,0,0,.22-1.11,1.65,1.65,0,0,0-.47-1.28,1.89,1.89,0,0,0-1.26-.41,3.56,3.56,0,0,0-1.61.38,7.86,7.86,0,0,0-1.62,1.08L443,180.45a9.32,9.32,0,0,1,1.74-1.26,6.13,6.13,0,0,1,1.5-.57,7.44,7.44,0,0,1,1.83-.2,5.45,5.45,0,0,1,2.35.48,3.75,3.75,0,0,1,1.59,1.37,3.57,3.57,0,0,1,.56,2,4.89,4.89,0,0,1-.34,1.84,7.2,7.2,0,0,1-1.07,1.77,25.46,25.46,0,0,1-2.55,2.57l-1.83,1.73v.13H453Z" style="fill: #314041"/>
    <path d="M461,182.86a5.44,5.44,0,0,1-.87,3.36,3,3,0,0,1-2.54,1.13,2.94,2.94,0,0,1-2.48-1.16,5.46,5.46,0,0,1-.87-3.33q0-4.44,3.35-4.44a3,3,0,0,1,2.53,1.15A5.39,5.39,0,0,1,461,182.86Zm-4.31,0a5.65,5.65,0,0,0,.22,1.84c.14.41.38.61.7.61.63,0,.94-.81.94-2.45s-.31-2.43-.94-2.43c-.32,0-.56.2-.7.6A5.58,5.58,0,0,0,456.71,182.88Zm11-4.26-7.89,14.22h-2.33l7.88-14.22Zm3.27,9.92a5.41,5.41,0,0,1-.87,3.35,3,3,0,0,1-2.54,1.13,2.94,2.94,0,0,1-2.48-1.16,5.41,5.41,0,0,1-.87-3.32q0-4.44,3.35-4.44a3,3,0,0,1,2.53,1.15A5.39,5.39,0,0,1,471,188.54Zm-4.31,0a5.65,5.65,0,0,0,.22,1.84c.14.41.38.61.7.61.62,0,.94-.82.94-2.45s-.32-2.43-.94-2.43c-.32,0-.56.2-.7.6A5.58,5.58,0,0,0,466.67,188.56Z" style="fill: #314041"/>
  </g>
  <circle cx="64.87" cy="180.52" r="6.06" style="fill: #fff;stroke: #304041;stroke-linecap: round;stroke-linejoin: round;stroke-width: 2.25px"/>
  <circle cx="160.95" cy="57.18" r="6.06" style="fill: #fff;stroke: #304041;stroke-linecap: round;stroke-linejoin: round;stroke-width: 2.25px"/>
  <circle cx="257.87" cy="171.01" r="6.06" style="fill: #fff;stroke: #304041;stroke-linecap: round;stroke-linejoin: round;stroke-width: 2.25px"/>
  <circle cx="353.87" cy="127.01" r="6.06" style="fill: #fff;stroke: #304041;stroke-linecap: round;stroke-linejoin: round;stroke-width: 2.25px"/>
  <circle cx="450.87" cy="211.45" r="6.06" style="fill: #fff;stroke: #304041;stroke-linecap: round;stroke-linejoin: round;stroke-width: 2.25px"/>
</svg>
