<svg id="Layer_1" data-name="Layer 1" xmlns="http://www.w3.org/2000/svg" viewBox="0 0 511 271">
  <title>government_leadership</title>
  <g style="opacity: 0.1">
    <polyline points="64.87 194.01 160.87 60.01 257.87 196.01 353.87 149.01 450.87 210.01" style="fill: none;stroke: #304041;stroke-linecap: round;stroke-linejoin: round;stroke-width: 2.25px"/>
  </g>
  <polyline points="64.87 182.01 160.87 48.01 257.87 184.01 353.87 137.01 450.87 198.01" style="fill: none;stroke: #304041;stroke-linecap: round;stroke-linejoin: round;stroke-width: 2.25px"/>
  <g>
    <path d="M22.79,175.93h-3V167.7l0-1.35.05-1.48c-.5.5-.85.83-1,1l-1.64,1.32-1.45-1.81,4.58-3.65h2.47Z" style="fill: #314041"/>
    <path d="M34.16,175.93h-3V167.7l0-1.35,0-1.48c-.5.5-.85.83-1,1l-1.64,1.32-1.45-1.81,4.58-3.65h2.47Z" style="fill: #314041"/>
    <path d="M44.68,166a5.44,5.44,0,0,1-.87,3.36,3,3,0,0,1-2.54,1.12,2.93,2.93,0,0,1-2.48-1.15,5.46,5.46,0,0,1-.87-3.33q0-4.44,3.35-4.44a3,3,0,0,1,2.53,1.15A5.37,5.37,0,0,1,44.68,166Zm-4.31,0a5.65,5.65,0,0,0,.22,1.84c.14.41.38.61.7.61.62,0,.94-.82.94-2.45s-.32-2.43-.94-2.43c-.32,0-.56.2-.7.6A5.54,5.54,0,0,0,40.37,166Zm11-4.26-7.89,14.22H41.15L49,161.71Zm3.27,9.92a5.43,5.43,0,0,1-.87,3.35,3,3,0,0,1-2.54,1.12A2.93,2.93,0,0,1,48.75,175a5.43,5.43,0,0,1-.87-3.32q0-4.44,3.35-4.44a3,3,0,0,1,2.53,1.15A5.37,5.37,0,0,1,54.64,171.63Zm-4.31,0a5.65,5.65,0,0,0,.22,1.84c.14.41.38.61.7.61.62,0,.94-.82.94-2.45s-.32-2.43-.94-2.43c-.32,0-.56.2-.7.6A5.58,5.58,0,0,0,50.33,171.65Z" style="fill: #314041"/>
  </g>
  <g>
    <path d="M146.58,26.85A4.56,4.56,0,0,1,149.86,28a4.16,4.16,0,0,1,1.22,3.18,4.59,4.59,0,0,1-1.46,3.66,6.18,6.18,0,0,1-4.21,1.29,8.27,8.27,0,0,1-3.83-.77v-2.6a8.14,8.14,0,0,0,1.79.67,8,8,0,0,0,1.94.26c1.83,0,2.75-.76,2.75-2.26s-.95-2.15-2.85-2.15a7,7,0,0,0-1.14.1,8.46,8.46,0,0,0-1,.22L141.87,29l.53-7.25h7.71v2.55H145l-.27,2.79.34-.07A6.85,6.85,0,0,1,146.58,26.85Z" style="fill: #314041"/>
    <path d="M162.64,28.82a10,10,0,0,1-1.22,5.52,4.24,4.24,0,0,1-3.76,1.79A4.19,4.19,0,0,1,154,34.28a9.8,9.8,0,0,1-1.25-5.46,10,10,0,0,1,1.22-5.55,4.72,4.72,0,0,1,7.46.09A9.75,9.75,0,0,1,162.64,28.82Zm-6.95,0a11.07,11.07,0,0,0,.45,3.75,1.56,1.56,0,0,0,1.52,1.13,1.58,1.58,0,0,0,1.52-1.14,10.86,10.86,0,0,0,.46-3.74,10.62,10.62,0,0,0-.47-3.76,1.58,1.58,0,0,0-3,0A11.22,11.22,0,0,0,155.69,28.82Z" style="fill: #314041"/>
    <path d="M170.72,26a5.51,5.51,0,0,1-.86,3.36,3,3,0,0,1-2.54,1.13,2.93,2.93,0,0,1-2.48-1.16A5.37,5.37,0,0,1,164,26q0-4.44,3.36-4.44a3,3,0,0,1,2.52,1.15A5.32,5.32,0,0,1,170.72,26Zm-4.31,0a5.89,5.89,0,0,0,.22,1.84c.15.41.38.61.71.61.62,0,.93-.81.93-2.45s-.31-2.43-.93-2.43c-.33,0-.56.2-.71.6A5.87,5.87,0,0,0,166.41,26Zm11-4.26-7.88,14.22h-2.34l7.89-14.22Zm3.27,9.92a5.47,5.47,0,0,1-.86,3.35,3,3,0,0,1-2.54,1.13A2.93,2.93,0,0,1,174.8,35a5.34,5.34,0,0,1-.88-3.32q0-4.44,3.36-4.44a3,3,0,0,1,2.52,1.15A5.32,5.32,0,0,1,180.68,31.63Zm-4.31,0a5.89,5.89,0,0,0,.22,1.84c.15.41.38.61.71.61.62,0,.93-.81.93-2.45s-.31-2.43-.93-2.43c-.33,0-.56.2-.71.6A5.87,5.87,0,0,0,176.37,31.65Z" style="fill: #314041"/>
  </g>
  <g>
    <path d="M255.25,165h-3v-8.23l0-1.35,0-1.48a13.1,13.1,0,0,1-1,1l-1.63,1.31-1.45-1.8,4.58-3.65h2.47Z" style="fill: #314041"/>
    <path d="M269.05,157.85a9.84,9.84,0,0,1-1.22,5.51,4.74,4.74,0,0,1-7.47-.06,9.78,9.78,0,0,1-1.25-5.45,10,10,0,0,1,1.22-5.55,4.72,4.72,0,0,1,7.46.08A9.81,9.81,0,0,1,269.05,157.85Zm-6.95,0a11.15,11.15,0,0,0,.45,3.75,1.58,1.58,0,0,0,3,0,10.74,10.74,0,0,0,.47-3.73,10.53,10.53,0,0,0-.48-3.76,1.57,1.57,0,0,0-3,0A10.87,10.87,0,0,0,262.1,157.85Z" style="fill: #314041"/>
    <path d="M277.13,155a5.44,5.44,0,0,1-.86,3.36,3,3,0,0,1-2.54,1.12,2.92,2.92,0,0,1-2.48-1.15,5.46,5.46,0,0,1-.88-3.33c0-3,1.12-4.45,3.36-4.45a3,3,0,0,1,2.52,1.16A5.28,5.28,0,0,1,277.13,155Zm-4.3,0a6,6,0,0,0,.21,1.84c.15.41.39.61.71.61.62,0,.93-.82.93-2.45s-.31-2.43-.93-2.43a.77.77,0,0,0-.71.59A6,6,0,0,0,272.83,155Zm11-4.26L275.94,165H273.6l7.89-14.22Zm3.26,9.92a5.43,5.43,0,0,1-.86,3.35,3,3,0,0,1-2.54,1.12,2.92,2.92,0,0,1-2.48-1.15,5.45,5.45,0,0,1-.88-3.32c0-3,1.12-4.45,3.36-4.45a3,3,0,0,1,2.52,1.16A5.28,5.28,0,0,1,287.09,160.66Zm-4.3,0a6,6,0,0,0,.21,1.84c.15.41.38.61.71.61.62,0,.93-.82.93-2.45s-.31-2.43-.93-2.43c-.33,0-.56.2-.71.59A6,6,0,0,0,282.79,160.68Z" style="fill: #314041"/>
  </g>
  <g>
    <path d="M344.27,123h-9.94v-2.09l3.57-3.61q1.59-1.64,2.07-2.25a4.68,4.68,0,0,0,.7-1.17,3,3,0,0,0,.22-1.11,1.59,1.59,0,0,0-.48-1.27,1.81,1.81,0,0,0-1.26-.42,3.65,3.65,0,0,0-1.6.38,7.86,7.86,0,0,0-1.62,1.08l-1.64-1.93a10.77,10.77,0,0,1,1.74-1.27,6.64,6.64,0,0,1,1.51-.57,7.83,7.83,0,0,1,1.83-.2,5.45,5.45,0,0,1,2.35.49,3.79,3.79,0,0,1,1.59,1.36,3.66,3.66,0,0,1,.56,2,4.93,4.93,0,0,1-.34,1.84,7.16,7.16,0,0,1-1.07,1.76,25.7,25.7,0,0,1-2.56,2.58l-1.82,1.72v.14h6.19Z" style="fill: #314041"/>
    <path d="M356,120.06h-1.71v3h-2.94v-3h-6.07V118l6.24-9.18h2.77v8.94H356Zm-4.65-2.33v-2.42c0-.4,0-1,.05-1.75s.06-1.21.08-1.33h-.08a12,12,0,0,1-.86,1.56l-2.61,3.94Z" style="fill: #314041"/>
    <path d="M363.64,113a5.44,5.44,0,0,1-.86,3.36,3,3,0,0,1-2.54,1.12,2.92,2.92,0,0,1-2.48-1.15,5.46,5.46,0,0,1-.88-3.33q0-4.45,3.36-4.45a3,3,0,0,1,2.52,1.16A5.28,5.28,0,0,1,363.64,113Zm-4.3,0a6,6,0,0,0,.21,1.84c.15.41.39.61.71.61.62,0,.93-.82.93-2.45s-.31-2.43-.93-2.43c-.32,0-.56.19-.71.59A6,6,0,0,0,359.34,113.05Zm11-4.26L362.45,123h-2.34L368,108.79Zm3.26,9.92a5.43,5.43,0,0,1-.86,3.35,3,3,0,0,1-2.54,1.12,2.92,2.92,0,0,1-2.48-1.15,5.45,5.45,0,0,1-.88-3.32q0-4.45,3.36-4.45a3,3,0,0,1,2.52,1.16A5.28,5.28,0,0,1,373.6,118.71Zm-4.31,0a5.94,5.94,0,0,0,.22,1.84c.15.41.38.61.71.61.62,0,.93-.82.93-2.45s-.31-2.43-.93-2.43c-.33,0-.56.2-.71.59A5.89,5.89,0,0,0,369.29,118.73Z" style="fill: #314041"/>
  </g>
  <g>
    <path d="M436.92,173.48c0-2.82.59-4.91,1.78-6.29a6.7,6.7,0,0,1,5.35-2.06,9.37,9.37,0,0,1,1.9.15v2.4a7.66,7.66,0,0,0-1.71-.19,5.88,5.88,0,0,0-2.52.46,3.18,3.18,0,0,0-1.47,1.38,6.47,6.47,0,0,0-.57,2.6h.13a3.3,3.3,0,0,1,3.08-1.65,3.85,3.85,0,0,1,3,1.19,4.76,4.76,0,0,1,1.08,3.31,4.93,4.93,0,0,1-1.29,3.6,4.69,4.69,0,0,1-3.56,1.33,5,5,0,0,1-2.74-.73,4.65,4.65,0,0,1-1.81-2.13A8,8,0,0,1,436.92,173.48Zm5.13,3.83a1.77,1.77,0,0,0,1.48-.65,2.84,2.84,0,0,0,.52-1.84,2.56,2.56,0,0,0-.48-1.64,1.76,1.76,0,0,0-1.46-.6,2.21,2.21,0,0,0-1.56.6,1.81,1.81,0,0,0-.65,1.38,3.15,3.15,0,0,0,.61,1.95A1.88,1.88,0,0,0,442.05,177.31Z" style="fill: #314041"/>
    <path d="M455,169.54a5.44,5.44,0,0,1-.87,3.36,3,3,0,0,1-2.53,1.12,2.92,2.92,0,0,1-2.48-1.15,5.39,5.39,0,0,1-.88-3.33q0-4.46,3.36-4.45a3,3,0,0,1,2.52,1.16A5.28,5.28,0,0,1,455,169.54Zm-4.31,0a5.69,5.69,0,0,0,.22,1.84c.15.41.38.61.71.61.62,0,.93-.82.93-2.45s-.31-2.43-.93-2.43c-.33,0-.56.19-.71.59A5.61,5.61,0,0,0,450.65,169.56Zm11-4.26-7.89,14.22h-2.33l7.89-14.22Zm3.27,9.92a5.43,5.43,0,0,1-.87,3.35,3,3,0,0,1-2.53,1.12,2.92,2.92,0,0,1-2.48-1.15,5.38,5.38,0,0,1-.88-3.32q0-4.46,3.36-4.45a3,3,0,0,1,2.52,1.16A5.28,5.28,0,0,1,464.92,175.22Zm-4.31,0a5.65,5.65,0,0,0,.22,1.84c.15.4.38.61.71.61.62,0,.93-.82.93-2.45s-.31-2.43-.93-2.43c-.33,0-.56.2-.71.59A5.61,5.61,0,0,0,460.61,175.24Z" style="fill: #314041"/>
  </g>
  <circle cx="64.87" cy="183.51" r="6.06" style="fill: #fff;stroke: #304041;stroke-linecap: round;stroke-linejoin: round;stroke-width: 2.25px"/>
  <circle cx="160.95" cy="49.01" r="6.06" style="fill: #fff;stroke: #304041;stroke-linecap: round;stroke-linejoin: round;stroke-width: 2.25px"/>
  <circle cx="257.87" cy="183.51" r="6.06" style="fill: #fff;stroke: #304041;stroke-linecap: round;stroke-linejoin: round;stroke-width: 2.25px"/>
  <circle cx="353.87" cy="137.01" r="6.06" style="fill: #fff;stroke: #304041;stroke-linecap: round;stroke-linejoin: round;stroke-width: 2.25px"/>
  <circle cx="450.87" cy="198.01" r="6.06" style="fill: #fff;stroke: #304041;stroke-linecap: round;stroke-linejoin: round;stroke-width: 2.25px"/>
</svg>
