<svg xmlns="http://www.w3.org/2000/svg" viewBox="0 0 511 271">
  <title>healthcare_overall</title>
  <g style="opacity: 0.1">
    <polyline points="63.48 165.51 159.48 72.51 255.48 180.51 351.48 175.51 447.48 212.51" style="fill: none;stroke: #304041;stroke-linecap: round;stroke-linejoin: round;stroke-width: 2.25px"/>
  </g>
  <polyline points="63.48 153.51 159.48 60.51 255.48 168.51 351.48 163.51 447.48 200.51" style="fill: none;stroke: #304041;stroke-linecap: round;stroke-linejoin: round;stroke-width: 2.25px"/>
  <g>
    <path d="M51.84,180.52h-3v-8.23l0-1.35.05-1.48c-.5.5-.85.83-1,1l-1.64,1.31-1.45-1.81,4.58-3.64h2.47Z" style="fill: #314041"/>
    <path d="M65.67,172.37q0,4.2-1.77,6.27a6.68,6.68,0,0,1-5.36,2.07,10.2,10.2,0,0,1-1.92-.13v-2.42a6.85,6.85,0,0,0,1.71.21,5.91,5.91,0,0,0,2.48-.45,3,3,0,0,0,1.49-1.39,6.14,6.14,0,0,0,.59-2.61h-.11a3.36,3.36,0,0,1-1.31,1.29,4.15,4.15,0,0,1-1.84.37,3.72,3.72,0,0,1-2.93-1.2,4.77,4.77,0,0,1-1.07-3.31,4.92,4.92,0,0,1,1.3-3.61,4.68,4.68,0,0,1,3.53-1.33,5.13,5.13,0,0,1,2.76.74A4.7,4.7,0,0,1,65,169,8.1,8.1,0,0,1,65.67,172.37Zm-5.15-3.83a1.79,1.79,0,0,0-1.46.65,2.82,2.82,0,0,0-.52,1.84,2.62,2.62,0,0,0,.47,1.64,1.74,1.74,0,0,0,1.45.6,2.25,2.25,0,0,0,1.57-.6,1.82,1.82,0,0,0,.65-1.37,3.12,3.12,0,0,0-.61-2A1.87,1.87,0,0,0,60.52,168.54Z" style="fill: #314041"/>
    <path d="M73.73,170.54a5.44,5.44,0,0,1-.87,3.36A3,3,0,0,1,70.32,175a2.93,2.93,0,0,1-2.48-1.15,5.46,5.46,0,0,1-.87-3.33q0-4.46,3.35-4.45a3,3,0,0,1,2.53,1.16A5.35,5.35,0,0,1,73.73,170.54Zm-4.31,0a5.65,5.65,0,0,0,.22,1.84c.14.41.38.61.7.61.63,0,.94-.82.94-2.45s-.31-2.43-.94-2.43a.75.75,0,0,0-.7.59A5.61,5.61,0,0,0,69.42,170.56Zm11-4.26-7.89,14.22H70.2l7.89-14.22Zm3.27,9.92a5.43,5.43,0,0,1-.87,3.35,3,3,0,0,1-2.54,1.12,2.93,2.93,0,0,1-2.48-1.15,5.45,5.45,0,0,1-.87-3.32q0-4.46,3.35-4.45a3,3,0,0,1,2.53,1.16A5.35,5.35,0,0,1,83.69,176.22Zm-4.31,0a5.65,5.65,0,0,0,.22,1.84c.14.41.38.61.7.61.63,0,.94-.82.94-2.45s-.31-2.43-.94-2.43a.75.75,0,0,0-.7.59A5.61,5.61,0,0,0,79.38,176.24Z" style="fill: #314041"/>
  </g>
  <g>
    <path d="M153.55,44.6h-1.71v2.95H148.9V44.6h-6.07V42.51l6.24-9.18h2.77v8.93h1.71Zm-4.65-2.34V39.85c0-.4,0-1,0-1.75s.06-1.21.08-1.33H149a11,11,0,0,1-.87,1.56l-2.6,3.93Z" style="fill: #314041"/>
    <path d="M154.56,41.51c0-2.82.6-4.91,1.79-6.29a6.69,6.69,0,0,1,5.34-2.06,9.48,9.48,0,0,1,1.91.15v2.4a7.79,7.79,0,0,0-1.71-.19,5.9,5.9,0,0,0-2.53.46,3.11,3.11,0,0,0-1.46,1.38,6.29,6.29,0,0,0-.58,2.6h.13a3.3,3.3,0,0,1,3.08-1.65,3.85,3.85,0,0,1,3,1.19,4.76,4.76,0,0,1,1.08,3.31,5,5,0,0,1-1.28,3.6,4.72,4.72,0,0,1-3.56,1.33A5,5,0,0,1,157,47a4.71,4.71,0,0,1-1.81-2.13A8,8,0,0,1,154.56,41.51Zm5.14,3.83a1.8,1.8,0,0,0,1.48-.65,2.9,2.9,0,0,0,.51-1.84,2.54,2.54,0,0,0-.48-1.64,1.75,1.75,0,0,0-1.45-.6,2.24,2.24,0,0,0-1.56.59,1.81,1.81,0,0,0-.65,1.39,3.09,3.09,0,0,0,.61,1.95A1.86,1.86,0,0,0,159.7,45.34Z" style="fill: #314041"/>
    <path d="M172.6,37.57a5.44,5.44,0,0,1-.86,3.36,3,3,0,0,1-2.54,1.12,2.92,2.92,0,0,1-2.48-1.15,5.46,5.46,0,0,1-.88-3.33q0-4.45,3.36-4.45a3,3,0,0,1,2.52,1.16A5.28,5.28,0,0,1,172.6,37.57Zm-4.31,0a6,6,0,0,0,.22,1.84c.15.41.38.61.71.61.62,0,.93-.82.93-2.45s-.31-2.43-.93-2.43c-.33,0-.56.19-.71.59A5.89,5.89,0,0,0,168.29,37.59Zm11-4.26-7.88,14.22h-2.34L177,33.33Zm3.27,9.92a5.5,5.5,0,0,1-.86,3.35,3,3,0,0,1-2.54,1.12,2.92,2.92,0,0,1-2.48-1.15,5.45,5.45,0,0,1-.88-3.32q0-4.45,3.36-4.45A3,3,0,0,1,181.68,40,5.28,5.28,0,0,1,182.56,43.25Zm-4.31,0a6,6,0,0,0,.22,1.84c.15.4.38.61.71.61.62,0,.93-.82.93-2.45s-.31-2.43-.93-2.43c-.33,0-.56.19-.71.59A5.89,5.89,0,0,0,178.25,43.27Z" style="fill: #314041"/>
  </g>
  <g>
    <path d="M247.82,195.64h-3v-8.23l0-1.35.05-1.48a12.68,12.68,0,0,1-1.05,1l-1.63,1.31-1.45-1.8,4.58-3.65h2.47Z" style="fill: #314041"/>
    <path d="M262,192.69h-1.71v2.95h-2.94v-2.95H251.3V190.6l6.24-9.18h2.77v8.94H262Zm-4.65-2.33v-2.42c0-.4,0-1,.05-1.75s.06-1.21.08-1.33h-.08a12,12,0,0,1-.86,1.56L254,190.36Z" style="fill: #314041"/>
    <path d="M269.71,185.66a5.44,5.44,0,0,1-.87,3.36,3,3,0,0,1-2.54,1.12,2.93,2.93,0,0,1-2.48-1.15,5.46,5.46,0,0,1-.87-3.33c0-3,1.12-4.45,3.35-4.45a3,3,0,0,1,2.53,1.16A5.37,5.37,0,0,1,269.71,185.66Zm-4.31,0a5.65,5.65,0,0,0,.22,1.84c.14.41.38.61.7.61.62,0,.93-.82.93-2.45s-.31-2.43-.93-2.43c-.32,0-.56.2-.7.6A5.54,5.54,0,0,0,265.4,185.68Zm11-4.26-7.89,14.22h-2.33l7.88-14.22Zm3.26,9.92a5.43,5.43,0,0,1-.86,3.35,3,3,0,0,1-2.54,1.12,2.92,2.92,0,0,1-2.48-1.15,5.45,5.45,0,0,1-.87-3.32c0-3,1.11-4.45,3.35-4.45a3,3,0,0,1,2.53,1.16A5.37,5.37,0,0,1,279.66,191.34Zm-4.3,0a5.65,5.65,0,0,0,.22,1.84c.14.41.38.61.7.61.62,0,.93-.82.93-2.45s-.31-2.43-.93-2.43c-.32,0-.56.2-.7.6A5.54,5.54,0,0,0,275.36,191.36Z" style="fill: #314041"/>
  </g>
  <g>
    <path d="M342.21,151.88h-3v-8.23l0-1.35,0-1.48a13.26,13.26,0,0,1-1,1l-1.63,1.31-1.45-1.81,4.58-3.64h2.47Z" style="fill: #314041"/>
    <path d="M346.05,145.84c0-2.82.6-4.91,1.79-6.29a6.69,6.69,0,0,1,5.34-2.06,9.48,9.48,0,0,1,1.91.15V140a7.79,7.79,0,0,0-1.71-.19,5.93,5.93,0,0,0-2.53.46,3.11,3.11,0,0,0-1.46,1.38,6.31,6.31,0,0,0-.57,2.6h.12a3.3,3.3,0,0,1,3.09-1.65,3.83,3.83,0,0,1,3,1.19,4.76,4.76,0,0,1,1.08,3.31,5,5,0,0,1-1.28,3.6,4.72,4.72,0,0,1-3.56,1.33,5.07,5.07,0,0,1-2.75-.73,4.77,4.77,0,0,1-1.81-2.13A8.17,8.17,0,0,1,346.05,145.84Zm5.14,3.83a1.8,1.8,0,0,0,1.48-.65,2.9,2.9,0,0,0,.51-1.84,2.54,2.54,0,0,0-.48-1.64,1.74,1.74,0,0,0-1.45-.6,2.24,2.24,0,0,0-1.56.59,1.81,1.81,0,0,0-.65,1.39,3.09,3.09,0,0,0,.61,2A1.86,1.86,0,0,0,351.19,149.67Z" style="fill: #314041"/>
    <path d="M364.09,141.9a5.44,5.44,0,0,1-.86,3.36,3,3,0,0,1-2.54,1.12,2.92,2.92,0,0,1-2.48-1.15,5.46,5.46,0,0,1-.87-3.33c0-3,1.11-4.45,3.35-4.45a3,3,0,0,1,2.52,1.16A5.28,5.28,0,0,1,364.09,141.9Zm-4.3,0a5.69,5.69,0,0,0,.22,1.84c.14.41.38.61.7.61.62,0,.93-.82.93-2.45s-.31-2.43-.93-2.43a.74.74,0,0,0-.7.59A5.61,5.61,0,0,0,359.79,141.92Zm11-4.26-7.89,14.22h-2.34l7.89-14.22Zm3.26,9.92a5.43,5.43,0,0,1-.86,3.35,3,3,0,0,1-2.54,1.12,2.92,2.92,0,0,1-2.48-1.15,5.45,5.45,0,0,1-.88-3.32q0-4.46,3.36-4.45a3,3,0,0,1,2.52,1.16A5.28,5.28,0,0,1,374.05,147.58Zm-4.3,0a6,6,0,0,0,.21,1.84c.15.4.39.61.71.61.62,0,.93-.82.93-2.45s-.31-2.43-.93-2.43c-.32,0-.56.19-.71.59A6,6,0,0,0,369.75,147.6Z" style="fill: #314041"/>
  </g>
  <g>
    <path d="M442.3,176.93a4.58,4.58,0,0,1,3.28,1.16,4.14,4.14,0,0,1,1.22,3.17,4.62,4.62,0,0,1-1.47,3.67,6.22,6.22,0,0,1-4.2,1.28,8.12,8.12,0,0,1-3.83-.77v-2.59a8.8,8.8,0,0,0,3.73.92c1.83,0,2.75-.75,2.75-2.26s-.95-2.15-2.85-2.15a6.84,6.84,0,0,0-1.14.11,6.57,6.57,0,0,0-1,.22l-1.2-.65.54-7.24h7.71v2.55h-5.08l-.26,2.79.34-.07A6.78,6.78,0,0,1,442.3,176.93Z" style="fill: #314041"/>
    <path d="M455.07,176a5.44,5.44,0,0,1-.87,3.36,3,3,0,0,1-2.54,1.12,2.91,2.91,0,0,1-2.47-1.15,5.39,5.39,0,0,1-.88-3.33q0-4.46,3.35-4.45a3,3,0,0,1,2.53,1.16A5.28,5.28,0,0,1,455.07,176Zm-4.31,0a5.65,5.65,0,0,0,.22,1.84c.14.41.38.61.7.61.63,0,.94-.82.94-2.45s-.31-2.43-.94-2.43a.75.75,0,0,0-.7.59A5.61,5.61,0,0,0,450.76,176.06Zm11-4.26L453.87,186h-2.33l7.89-14.22Zm3.27,9.92a5.43,5.43,0,0,1-.87,3.35,3,3,0,0,1-2.54,1.12,2.93,2.93,0,0,1-2.48-1.15,5.45,5.45,0,0,1-.87-3.32q0-4.46,3.35-4.45a3,3,0,0,1,2.53,1.16A5.28,5.28,0,0,1,465,181.72Zm-4.31,0a5.65,5.65,0,0,0,.22,1.84c.14.41.38.61.7.61.63,0,.94-.82.94-2.45s-.31-2.43-.94-2.43a.75.75,0,0,0-.7.59A5.61,5.61,0,0,0,460.72,181.74Z" style="fill: #314041"/>
  </g>
  <circle cx="63.48" cy="152.9" r="6.06" style="fill: #fff;stroke: #304041;stroke-linecap: round;stroke-linejoin: round;stroke-width: 2.25px"/>
  <circle cx="160.21" cy="61.37" r="6.06" style="fill: #fff;stroke: #304041;stroke-linecap: round;stroke-linejoin: round;stroke-width: 2.25px"/>
  <circle cx="255.48" cy="168.56" r="6.06" style="fill: #fff;stroke: #304041;stroke-linecap: round;stroke-linejoin: round;stroke-width: 2.25px"/>
  <circle cx="351.48" cy="163.56" r="6.06" style="fill: #fff;stroke: #304041;stroke-linecap: round;stroke-linejoin: round;stroke-width: 2.25px"/>
  <circle cx="447.48" cy="200.51" r="6.06" style="fill: #fff;stroke: #304041;stroke-linecap: round;stroke-linejoin: round;stroke-width: 2.25px"/>
</svg>
