<svg xmlns="http://www.w3.org/2000/svg" viewBox="0 0 511 271">
  <title>healthcare_portfolio</title>
  <g style="opacity: 0.1">
    <polyline points="63.38 219.26 159.38 47.2 256.38 168.79 352.38 148.14 449.38 221.55" style="fill: none;stroke: #304041;stroke-linecap: round;stroke-linejoin: round;stroke-width: 2.25px"/>
  </g>
  <polyline points="63.38 207.26 159.38 35.2 256.38 156.79 352.38 136.14 449.38 209.55" style="fill: none;stroke: #304041;stroke-linecap: round;stroke-linejoin: round;stroke-width: 2.25px"/>
  <g>
    <path d="M35.76,184a3.36,3.36,0,0,1-.8,2.26,4.21,4.21,0,0,1-2.27,1.29v.06a4.54,4.54,0,0,1,2.61,1,2.93,2.93,0,0,1,.88,2.24,3.78,3.78,0,0,1-1.49,3.2,6.85,6.85,0,0,1-4.25,1.14,10.34,10.34,0,0,1-4.1-.77v-2.56a9.55,9.55,0,0,0,1.82.69,7.82,7.82,0,0,0,2,.26,3.78,3.78,0,0,0,2.2-.51,1.87,1.87,0,0,0,.71-1.62,1.46,1.46,0,0,0-.82-1.42,6,6,0,0,0-2.6-.42H28.53v-2.3h1.1a5.06,5.06,0,0,0,2.41-.44,1.56,1.56,0,0,0,.77-1.48c0-1.08-.68-1.62-2-1.62a4.5,4.5,0,0,0-1.42.24,6.84,6.84,0,0,0-1.61.8L26.36,182a7.75,7.75,0,0,1,4.64-1.4,5.94,5.94,0,0,1,3.48.9A2.84,2.84,0,0,1,35.76,184Z" style="fill: #314041"/>
    <path d="M44.32,185a5.51,5.51,0,0,1-.86,3.36,3,3,0,0,1-2.54,1.12,2.92,2.92,0,0,1-2.48-1.15,5.39,5.39,0,0,1-.88-3.33q0-4.46,3.36-4.45a3,3,0,0,1,2.52,1.16A5.28,5.28,0,0,1,44.32,185Zm-4.31,0a6,6,0,0,0,.22,1.84c.15.41.38.61.71.61.62,0,.93-.82.93-2.45s-.31-2.43-.93-2.43c-.33,0-.56.19-.71.59A5.89,5.89,0,0,0,40,185.05Zm11-4.26L43.13,195H40.79l7.89-14.22Zm3.27,9.92a5.5,5.5,0,0,1-.86,3.35,3,3,0,0,1-2.54,1.12A2.92,2.92,0,0,1,48.4,194a5.38,5.38,0,0,1-.88-3.32q0-4.46,3.36-4.45a3,3,0,0,1,2.52,1.16A5.28,5.28,0,0,1,54.28,190.71Zm-4.31,0a5.94,5.94,0,0,0,.22,1.84c.15.4.38.61.71.61.62,0,.93-.82.93-2.45s-.31-2.43-.93-2.43c-.33,0-.56.2-.71.59A5.89,5.89,0,0,0,50,190.73Z" style="fill: #314041"/>
  </g>
  <g>
    <path d="M146.09,12.34a4.57,4.57,0,0,1,3.28,1.15,4.14,4.14,0,0,1,1.22,3.17,4.62,4.62,0,0,1-1.47,3.67,6.17,6.17,0,0,1-4.2,1.28,8.25,8.25,0,0,1-3.83-.76v-2.6a8.47,8.47,0,0,0,1.79.67,8,8,0,0,0,1.94.25c1.83,0,2.75-.75,2.75-2.25s-.95-2.15-2.85-2.15a6.77,6.77,0,0,0-1.14.1,8,8,0,0,0-1,.22l-1.2-.64.54-7.25h7.71V9.75h-5.08l-.26,2.79.34-.07A6.85,6.85,0,0,1,146.09,12.34Z" style="fill: #314041"/>
    <path d="M161.67,10.38a3.36,3.36,0,0,1-.81,2.27,4.17,4.17,0,0,1-2.26,1.28V14a4.54,4.54,0,0,1,2.6,1,3,3,0,0,1,.89,2.25,3.8,3.8,0,0,1-1.49,3.19,6.87,6.87,0,0,1-4.25,1.14,10.34,10.34,0,0,1-4.1-.76V18.29a9.44,9.44,0,0,0,1.81.68,8,8,0,0,0,2,.26,3.91,3.91,0,0,0,2.2-.5,1.87,1.87,0,0,0,.71-1.63,1.48,1.48,0,0,0-.82-1.42,6,6,0,0,0-2.61-.42h-1.08V13h1.1a5.25,5.25,0,0,0,2.42-.43,1.57,1.57,0,0,0,.76-1.49c0-1.07-.67-1.61-2-1.61a4.74,4.74,0,0,0-1.42.23,7.13,7.13,0,0,0-1.61.81l-1.4-2.07A7.71,7.71,0,0,1,156.9,7a6,6,0,0,1,3.49.89A2.89,2.89,0,0,1,161.67,10.38Z" style="fill: #314041"/>
    <path d="M170.23,11.44a5.44,5.44,0,0,1-.87,3.36,3,3,0,0,1-2.53,1.13,3,3,0,0,1-2.49-1.16,5.46,5.46,0,0,1-.87-3.33q0-4.44,3.36-4.44a3,3,0,0,1,2.52,1.15A5.3,5.3,0,0,1,170.23,11.44Zm-4.31,0a5.65,5.65,0,0,0,.22,1.84c.15.41.38.61.7.61.63,0,.94-.82.94-2.45S167.47,9,166.84,9c-.32,0-.55.2-.7.6A5.58,5.58,0,0,0,165.92,11.46Zm11-4.26L169,21.42H166.7L174.59,7.2Zm3.27,9.92a5.41,5.41,0,0,1-.87,3.35,3,3,0,0,1-2.54,1.12,2.93,2.93,0,0,1-2.48-1.15,5.43,5.43,0,0,1-.87-3.32q0-4.44,3.35-4.44a3,3,0,0,1,2.53,1.15A5.37,5.37,0,0,1,180.19,17.12Zm-4.31,0A5.65,5.65,0,0,0,176.1,19c.14.41.38.61.7.61.63,0,.94-.82.94-2.45s-.31-2.43-.94-2.43c-.32,0-.56.2-.7.6A5.58,5.58,0,0,0,175.88,17.14Z" style="fill: #314041"/>
  </g>
  <g>
    <path d="M212.35,165.62h-3v-8.23l0-1.35,0-1.48c-.5.5-.84.82-1,1l-1.63,1.31L205.3,155l4.58-3.64h2.47Z" style="fill: #314041"/>
    <path d="M221.19,151.21a5.42,5.42,0,0,1,3.3.93,3,3,0,0,1,1.24,2.5,3.31,3.31,0,0,1-.6,2,5.23,5.23,0,0,1-1.94,1.52,7,7,0,0,1,2.29,1.78,3.35,3.35,0,0,1,.69,2,3.39,3.39,0,0,1-1.37,2.81,5.72,5.72,0,0,1-3.61,1.07,6,6,0,0,1-3.66-1,3.3,3.3,0,0,1-1.34-2.81,3.74,3.74,0,0,1,.65-2.16,5.33,5.33,0,0,1,2.08-1.67,5.27,5.27,0,0,1-1.75-1.64,3.56,3.56,0,0,1-.54-1.91,2.94,2.94,0,0,1,1.27-2.48A5.41,5.41,0,0,1,221.19,151.21ZM219,161.83a1.56,1.56,0,0,0,.58,1.3,2.43,2.43,0,0,0,1.59.47,2.51,2.51,0,0,0,1.68-.48,1.59,1.59,0,0,0,.55-1.27,1.73,1.73,0,0,0-.55-1.22,7.2,7.2,0,0,0-1.78-1.21C219.67,160.05,219,160.86,219,161.83Zm2.19-8.42a1.9,1.9,0,0,0-1.24.39,1.34,1.34,0,0,0-.47,1.06,1.59,1.59,0,0,0,.38,1,4,4,0,0,0,1.35.95,3.91,3.91,0,0,0,1.34-.91,1.67,1.67,0,0,0,.37-1.08,1.29,1.29,0,0,0-.48-1.06A2,2,0,0,0,221.17,153.41Z" style="fill: #314041"/>
    <path d="M234.24,155.64a5.44,5.44,0,0,1-.87,3.36,3,3,0,0,1-2.54,1.12,2.92,2.92,0,0,1-2.48-1.15,5.46,5.46,0,0,1-.87-3.33c0-3,1.11-4.45,3.35-4.45a3,3,0,0,1,2.53,1.15A5.4,5.4,0,0,1,234.24,155.64Zm-4.31,0a5.69,5.69,0,0,0,.22,1.84c.14.4.38.61.7.61.62,0,.93-.82.93-2.45s-.31-2.44-.93-2.44c-.32,0-.56.2-.7.6A5.61,5.61,0,0,0,229.93,155.66Zm11-4.26L233,165.62H230.7l7.89-14.22Zm3.26,9.92a5.43,5.43,0,0,1-.86,3.35,3,3,0,0,1-2.54,1.12,2.92,2.92,0,0,1-2.48-1.15,5.45,5.45,0,0,1-.88-3.32q0-4.45,3.36-4.45a3,3,0,0,1,2.52,1.15A5.34,5.34,0,0,1,244.19,161.32Zm-4.3,0a6,6,0,0,0,.21,1.84c.15.4.39.61.71.61.62,0,.93-.82.93-2.45s-.31-2.44-.93-2.44c-.32,0-.56.2-.71.6A6,6,0,0,0,239.89,161.34Z" style="fill: #314041"/>
  </g>
  <g>
    <path d="M342.39,122.38h-9.94v-2.09l3.57-3.61q1.59-1.64,2.07-2.25a4.68,4.68,0,0,0,.7-1.17,3,3,0,0,0,.22-1.1,1.62,1.62,0,0,0-.48-1.28,1.8,1.8,0,0,0-1.25-.42,3.66,3.66,0,0,0-1.61.38,8.28,8.28,0,0,0-1.62,1.08L332.41,110a10.77,10.77,0,0,1,1.74-1.27,7.15,7.15,0,0,1,1.51-.57,7.83,7.83,0,0,1,1.83-.2,5.45,5.45,0,0,1,2.35.49,3.79,3.79,0,0,1,1.59,1.36,3.66,3.66,0,0,1,.56,2,4.93,4.93,0,0,1-.34,1.84,7.16,7.16,0,0,1-1.07,1.76A25.7,25.7,0,0,1,338,118l-1.82,1.72v.14h6.19Z" style="fill: #314041"/>
    <path d="M354.08,119.43h-1.71v2.95h-2.94v-2.95h-6.07v-2.09l6.24-9.18h2.77v8.94h1.71Zm-4.65-2.33v-2.42c0-.4,0-1,.05-1.75s.06-1.21.08-1.33h-.08a12,12,0,0,1-.86,1.56L346,117.1Z" style="fill: #314041"/>
    <path d="M361.76,112.4a5.44,5.44,0,0,1-.86,3.36,3,3,0,0,1-2.54,1.12,2.92,2.92,0,0,1-2.48-1.15,5.46,5.46,0,0,1-.87-3.33c0-3,1.11-4.45,3.35-4.45a3,3,0,0,1,2.52,1.16A5.3,5.3,0,0,1,361.76,112.4Zm-4.3,0a5.65,5.65,0,0,0,.22,1.84c.14.41.38.61.7.61.62,0,.93-.82.93-2.45S359,110,358.38,110c-.32,0-.56.2-.7.6A5.5,5.5,0,0,0,357.46,112.42Zm11-4.26-7.89,14.22h-2.34l7.89-14.22Zm3.26,9.92a5.43,5.43,0,0,1-.86,3.35,3,3,0,0,1-2.54,1.12,2.92,2.92,0,0,1-2.48-1.15,5.45,5.45,0,0,1-.88-3.32c0-3,1.12-4.45,3.36-4.45a3,3,0,0,1,2.52,1.16A5.28,5.28,0,0,1,371.72,118.08Zm-4.3,0a6,6,0,0,0,.21,1.84c.15.41.39.61.71.61.62,0,.93-.82.93-2.45s-.31-2.43-.93-2.43a.77.77,0,0,0-.71.59A6,6,0,0,0,367.42,118.1Z" style="fill: #314041"/>
  </g>
  <g>
    <path d="M454.44,194H444.5v-2.09l3.57-3.61q1.57-1.62,2.07-2.25a5.17,5.17,0,0,0,.7-1.16,3,3,0,0,0,.21-1.11,1.65,1.65,0,0,0-.47-1.28,1.81,1.81,0,0,0-1.26-.42,3.69,3.69,0,0,0-1.61.38,9.48,9.48,0,0,0-1.62,1.08l-1.63-1.93a10.77,10.77,0,0,1,1.74-1.27,7.06,7.06,0,0,1,1.5-.57,8,8,0,0,1,1.83-.2,5.5,5.5,0,0,1,2.36.49,3.77,3.77,0,0,1,1.58,1.36,3.61,3.61,0,0,1,.57,2,4.9,4.9,0,0,1-.35,1.84,6.86,6.86,0,0,1-1.07,1.76,24.3,24.3,0,0,1-2.55,2.58l-1.83,1.72v.14h6.2Z" style="fill: #314041"/>
    <path d="M462.44,184a5.51,5.51,0,0,1-.86,3.36,3,3,0,0,1-2.54,1.12,2.92,2.92,0,0,1-2.48-1.15,5.39,5.39,0,0,1-.88-3.33c0-3,1.12-4.45,3.36-4.45a3,3,0,0,1,2.52,1.16A5.3,5.3,0,0,1,462.44,184Zm-4.31,0a5.65,5.65,0,0,0,.22,1.84c.15.41.38.61.71.61.62,0,.93-.82.93-2.45s-.31-2.43-.93-2.43c-.33,0-.56.2-.71.6A5.54,5.54,0,0,0,458.13,184Zm11-4.26L461.24,194h-2.33l7.89-14.22Zm3.27,9.92a5.43,5.43,0,0,1-.87,3.35,3,3,0,0,1-2.53,1.12,2.92,2.92,0,0,1-2.48-1.15,5.38,5.38,0,0,1-.88-3.32c0-3,1.12-4.45,3.36-4.45a3,3,0,0,1,2.52,1.16A5.3,5.3,0,0,1,472.4,189.65Zm-4.31,0a5.65,5.65,0,0,0,.22,1.84c.15.41.38.61.71.61.62,0,.93-.82.93-2.45s-.31-2.43-.93-2.43c-.33,0-.56.2-.71.6A5.54,5.54,0,0,0,468.09,189.67Z" style="fill: #314041"/>
  </g>
  <circle cx="63.38" cy="206.87" r="6.06" style="fill: #fff;stroke: #304041;stroke-linecap: round;stroke-linejoin: round;stroke-width: 2.25px"/>
  <circle cx="159.38" cy="35.2" r="6.06" style="fill: #fff;stroke: #304041;stroke-linecap: round;stroke-linejoin: round;stroke-width: 2.25px"/>
  <circle cx="256.38" cy="157.56" r="6.06" style="fill: #fff;stroke: #304041;stroke-linecap: round;stroke-linejoin: round;stroke-width: 2.25px"/>
  <circle cx="351.94" cy="137.2" r="6.06" style="fill: #fff;stroke: #304041;stroke-linecap: round;stroke-linejoin: round;stroke-width: 2.25px"/>
  <circle cx="449.38" cy="209.55" r="6.06" style="fill: #fff;stroke: #304041;stroke-linecap: round;stroke-linejoin: round;stroke-width: 2.25px"/>
</svg>
