<svg xmlns="http://www.w3.org/2000/svg" viewBox="0 0 511 271">
  <title>healthcare_leadership</title>
  <g style="opacity: 0.1">
    <polyline points="63.38 210.08 159.38 58.67 256.38 161.91 352.38 157.32 449.38 218.11" style="fill: none;stroke: #304041;stroke-linecap: round;stroke-linejoin: round;stroke-width: 2.25px"/>
  </g>
  <polyline points="63.38 198.08 159.38 46.67 256.38 149.91 352.38 145.32 449.38 206.11" style="fill: none;stroke: #304041;stroke-linecap: round;stroke-linejoin: round;stroke-width: 2.25px"/>
  <g>
    <path d="M30.61,178.48c0-2.82.6-4.91,1.79-6.29a6.69,6.69,0,0,1,5.34-2.06,9.48,9.48,0,0,1,1.91.15v2.4a7.81,7.81,0,0,0-1.72-.19,5.88,5.88,0,0,0-2.52.46A3.11,3.11,0,0,0,34,174.33a6.29,6.29,0,0,0-.58,2.6h.13a3.3,3.3,0,0,1,3.08-1.65,3.85,3.85,0,0,1,3,1.19,4.76,4.76,0,0,1,1.08,3.31,4.93,4.93,0,0,1-1.29,3.6,4.69,4.69,0,0,1-3.56,1.33,5,5,0,0,1-2.74-.73,4.65,4.65,0,0,1-1.81-2.13A8,8,0,0,1,30.61,178.48Zm5.14,3.83a1.77,1.77,0,0,0,1.47-.65,2.84,2.84,0,0,0,.52-1.84,2.56,2.56,0,0,0-.48-1.64,1.76,1.76,0,0,0-1.46-.6,2.23,2.23,0,0,0-1.56.6,1.8,1.8,0,0,0-.64,1.38,3.14,3.14,0,0,0,.6,1.95A1.88,1.88,0,0,0,35.75,182.31Z" style="fill: #314041"/>
    <path d="M48.65,174.54a5.51,5.51,0,0,1-.86,3.36A3,3,0,0,1,45.25,179a2.92,2.92,0,0,1-2.48-1.15,5.39,5.39,0,0,1-.88-3.33q0-4.46,3.36-4.45a3,3,0,0,1,2.52,1.16A5.28,5.28,0,0,1,48.65,174.54Zm-4.31,0a5.94,5.94,0,0,0,.22,1.84c.15.41.38.61.71.61.62,0,.93-.82.93-2.45s-.31-2.43-.93-2.43c-.33,0-.56.2-.71.59A5.89,5.89,0,0,0,44.34,174.56Zm11-4.26-7.88,14.22H45.12L53,170.3Zm3.27,9.92a5.5,5.5,0,0,1-.86,3.35,3,3,0,0,1-2.54,1.12,2.92,2.92,0,0,1-2.48-1.15,5.38,5.38,0,0,1-.88-3.32c0-3,1.12-4.45,3.36-4.45a3,3,0,0,1,2.52,1.16A5.28,5.28,0,0,1,58.61,180.22Zm-4.31,0a5.94,5.94,0,0,0,.22,1.84c.15.41.38.61.71.61.62,0,.93-.82.93-2.45s-.31-2.43-.93-2.43c-.33,0-.56.2-.71.59A5.89,5.89,0,0,0,54.3,180.24Z" style="fill: #314041"/>
  </g>
  <g>
    <path d="M144,25.78a4.56,4.56,0,0,1,3.28,1.16,4.14,4.14,0,0,1,1.22,3.17,4.61,4.61,0,0,1-1.46,3.66,6.18,6.18,0,0,1-4.21,1.29,8.25,8.25,0,0,1-3.83-.77v-2.6a7.5,7.5,0,0,0,1.79.67,8,8,0,0,0,1.94.26c1.83,0,2.75-.76,2.75-2.26s-.95-2.15-2.85-2.15a7,7,0,0,0-1.14.1,8.46,8.46,0,0,0-1,.22l-1.2-.64.54-7.25h7.71v2.55h-5.08L142.22,26l.34-.06A6.21,6.21,0,0,1,144,25.78Z" style="fill: #314041"/>
    <path d="M160.09,27.75a9.94,9.94,0,0,1-1.22,5.52,4.25,4.25,0,0,1-3.76,1.79,4.19,4.19,0,0,1-3.71-1.85,9.71,9.71,0,0,1-1.25-5.46q0-3.77,1.21-5.54a4.73,4.73,0,0,1,7.47.08A9.75,9.75,0,0,1,160.09,27.75Zm-7,0a11,11,0,0,0,.46,3.75,1.57,1.57,0,0,0,1.52,1.14,1.6,1.6,0,0,0,1.52-1.15,10.86,10.86,0,0,0,.46-3.74,10.65,10.65,0,0,0-.47-3.76,1.58,1.58,0,0,0-3,0A11.21,11.21,0,0,0,153.13,27.75Z" style="fill: #314041"/>
    <path d="M168.17,24.89a5.39,5.39,0,0,1-.87,3.35,3,3,0,0,1-2.53,1.13,3,3,0,0,1-2.48-1.15,5.39,5.39,0,0,1-.88-3.33q0-4.45,3.36-4.45a3,3,0,0,1,2.52,1.15A5.34,5.34,0,0,1,168.17,24.89Zm-4.31,0a6,6,0,0,0,.22,1.85c.15.4.38.6.71.6.62,0,.93-.81.93-2.45s-.31-2.43-.93-2.43c-.33,0-.56.2-.71.6A5.87,5.87,0,0,0,163.86,24.9Zm11-4.26L167,34.86h-2.33l7.89-14.22Zm3.27,9.92a5.44,5.44,0,0,1-.87,3.36A3,3,0,0,1,174.73,35a3,3,0,0,1-2.48-1.15,5.39,5.39,0,0,1-.88-3.33q0-4.44,3.36-4.44a3,3,0,0,1,2.52,1.15A5.32,5.32,0,0,1,178.13,30.56Zm-4.31,0a5.72,5.72,0,0,0,.22,1.85c.15.4.38.6.7.6.63,0,.94-.81.94-2.45s-.31-2.43-.94-2.43c-.32,0-.55.2-.7.6A5.58,5.58,0,0,0,173.82,30.58Z" style="fill: #314041"/>
  </g>
  <g>
    <path d="M259.21,133.81h-9.94v-2.09l3.57-3.61q1.57-1.62,2.07-2.25a5,5,0,0,0,.7-1.16,3,3,0,0,0,.21-1.11,1.61,1.61,0,0,0-.47-1.27,1.81,1.81,0,0,0-1.26-.42,3.49,3.49,0,0,0-1.6.38,8.18,8.18,0,0,0-1.63,1.08l-1.63-1.94a10,10,0,0,1,1.74-1.26,6.05,6.05,0,0,1,1.51-.57,7.3,7.3,0,0,1,1.82-.2,5.5,5.5,0,0,1,2.36.48,3.72,3.72,0,0,1,1.58,1.37,3.57,3.57,0,0,1,.57,2,4.9,4.9,0,0,1-.35,1.84,6.9,6.9,0,0,1-1.07,1.77,26.39,26.39,0,0,1-2.55,2.58L253,131.15v.13h6.2Z" style="fill: #314041"/>
    <path d="M270.5,126.7a10,10,0,0,1-1.22,5.52,4.25,4.25,0,0,1-3.76,1.79,4.19,4.19,0,0,1-3.71-1.85,9.8,9.8,0,0,1-1.25-5.46q0-3.77,1.21-5.55a4.73,4.73,0,0,1,7.47.09A9.75,9.75,0,0,1,270.5,126.7Zm-7,0a11,11,0,0,0,.46,3.75,1.56,1.56,0,0,0,1.52,1.13,1.59,1.59,0,0,0,1.52-1.14,10.86,10.86,0,0,0,.46-3.74,10.65,10.65,0,0,0-.47-3.76,1.58,1.58,0,0,0-3,0A11.21,11.21,0,0,0,263.54,126.7Z" style="fill: #314041"/>
    <path d="M278.58,123.83a5.51,5.51,0,0,1-.86,3.36,3,3,0,0,1-2.54,1.13,2.93,2.93,0,0,1-2.48-1.16,5.35,5.35,0,0,1-.88-3.33q0-4.44,3.36-4.44a3,3,0,0,1,2.52,1.15A5.32,5.32,0,0,1,278.58,123.83Zm-4.31,0a6,6,0,0,0,.22,1.85c.15.4.38.6.71.6.62,0,.93-.81.93-2.45s-.31-2.43-.93-2.43c-.33,0-.56.2-.71.6A5.87,5.87,0,0,0,274.27,123.85Zm11-4.26-7.89,14.22h-2.33l7.89-14.22Zm3.27,9.92a5.41,5.41,0,0,1-.87,3.35,3,3,0,0,1-2.53,1.13,2.93,2.93,0,0,1-2.48-1.16,5.34,5.34,0,0,1-.88-3.32q0-4.44,3.36-4.44a3,3,0,0,1,2.52,1.15A5.32,5.32,0,0,1,288.54,129.51Zm-4.31,0a5.72,5.72,0,0,0,.22,1.85c.15.4.38.6.71.6.62,0,.93-.81.93-2.45s-.31-2.43-.93-2.43c-.33,0-.56.2-.71.6A5.58,5.58,0,0,0,284.23,129.53Z" style="fill: #314041"/>
  </g>
  <g>
    <path d="M342.33,130.74h-9.94v-2.09l3.57-3.6c1.06-1.09,1.75-1.84,2.07-2.26a4.47,4.47,0,0,0,.7-1.16,2.82,2.82,0,0,0,.22-1.11,1.62,1.62,0,0,0-.47-1.27,1.84,1.84,0,0,0-1.26-.42,3.66,3.66,0,0,0-1.61.38,7.86,7.86,0,0,0-1.62,1.08l-1.64-1.94a11.24,11.24,0,0,1,1.74-1.26,6.2,6.2,0,0,1,1.51-.57,8,8,0,0,1,1.83-.2,5.31,5.31,0,0,1,2.35.49,3.79,3.79,0,0,1,1.59,1.36,3.65,3.65,0,0,1,.56,2,4.94,4.94,0,0,1-.34,1.85,7.16,7.16,0,0,1-1.07,1.76,27.63,27.63,0,0,1-2.55,2.58l-1.83,1.72v.14h6.19Z" style="fill: #314041"/>
    <path d="M351.19,130.74h-3v-8.22l0-1.36,0-1.47c-.5.5-.85.82-1,1L345.59,122l-1.45-1.81,4.58-3.64h2.47Z" style="fill: #314041"/>
    <path d="M361.71,120.77a5.44,5.44,0,0,1-.87,3.36,3,3,0,0,1-2.54,1.12,2.93,2.93,0,0,1-2.48-1.15,5.46,5.46,0,0,1-.87-3.33q0-4.45,3.35-4.45a3,3,0,0,1,2.53,1.15A5.4,5.4,0,0,1,361.71,120.77Zm-4.31,0a5.69,5.69,0,0,0,.22,1.84c.14.4.38.61.7.61.62,0,.94-.82.94-2.45s-.32-2.44-.94-2.44c-.32,0-.56.2-.7.6A5.61,5.61,0,0,0,357.4,120.79Zm11-4.26-7.89,14.21h-2.33l7.88-14.21Zm3.27,9.92a5.43,5.43,0,0,1-.87,3.35,3,3,0,0,1-2.54,1.12,2.93,2.93,0,0,1-2.48-1.15,5.45,5.45,0,0,1-.87-3.32c0-3,1.11-4.45,3.35-4.45a3,3,0,0,1,2.53,1.15A5.4,5.4,0,0,1,371.67,126.45Zm-4.31,0a5.69,5.69,0,0,0,.22,1.84c.14.4.38.61.7.61.62,0,.93-.82.93-2.45s-.31-2.44-.93-2.44c-.32,0-.56.2-.7.6A5.61,5.61,0,0,0,367.36,126.47Z" style="fill: #314041"/>
  </g>
  <g>
    <path d="M451,177.48a3.31,3.31,0,0,1-.8,2.26,4.15,4.15,0,0,1-2.27,1.29v.06a4.54,4.54,0,0,1,2.61,1,2.93,2.93,0,0,1,.88,2.24,3.78,3.78,0,0,1-1.49,3.2,6.85,6.85,0,0,1-4.25,1.14,10.17,10.17,0,0,1-4.1-.77v-2.55a10.26,10.26,0,0,0,1.82.68,7.82,7.82,0,0,0,2,.26,3.78,3.78,0,0,0,2.2-.51,1.85,1.85,0,0,0,.71-1.62,1.46,1.46,0,0,0-.82-1.42,6,6,0,0,0-2.6-.42h-1.08v-2.3h1.1a5,5,0,0,0,2.41-.44,1.56,1.56,0,0,0,.77-1.48c0-1.08-.68-1.62-2-1.62a4.5,4.5,0,0,0-1.42.24,6.55,6.55,0,0,0-1.61.81l-1.39-2.08a7.75,7.75,0,0,1,4.64-1.4,6,6,0,0,1,3.49.9A2.88,2.88,0,0,1,451,177.48Z" style="fill: #314041"/>
    <path d="M459.52,178.54a5.51,5.51,0,0,1-.86,3.36,3,3,0,0,1-2.54,1.12,2.92,2.92,0,0,1-2.48-1.15,5.46,5.46,0,0,1-.88-3.33c0-3,1.12-4.45,3.36-4.45a3,3,0,0,1,2.52,1.16A5.3,5.3,0,0,1,459.52,178.54Zm-4.31,0a5.94,5.94,0,0,0,.22,1.84c.15.41.38.61.71.61.62,0,.93-.82.93-2.45s-.31-2.43-.93-2.43c-.33,0-.56.2-.71.6A5.78,5.78,0,0,0,455.21,178.56Zm11-4.26-7.88,14.22H456l7.89-14.22Zm3.27,9.92a5.5,5.5,0,0,1-.86,3.35,3,3,0,0,1-2.54,1.12,2.92,2.92,0,0,1-2.48-1.15,5.38,5.38,0,0,1-.88-3.32c0-3,1.12-4.45,3.36-4.45a3,3,0,0,1,2.52,1.16A5.28,5.28,0,0,1,469.48,184.22Zm-4.31,0a5.94,5.94,0,0,0,.22,1.84c.15.41.38.61.71.61.62,0,.93-.82.93-2.45s-.31-2.43-.93-2.43c-.33,0-.56.2-.71.59A5.89,5.89,0,0,0,465.17,184.24Z" style="fill: #314041"/>
  </g>
  <circle cx="63.38" cy="196.93" r="6.06" style="fill: #fff;stroke: #304041;stroke-linecap: round;stroke-linejoin: round;stroke-width: 2.25px"/>
  <circle cx="158.4" cy="47.51" r="6.06" style="fill: #fff;stroke: #304041;stroke-linecap: round;stroke-linejoin: round;stroke-width: 2.25px"/>
  <circle cx="255.88" cy="148.61" r="6.06" style="fill: #fff;stroke: #304041;stroke-linecap: round;stroke-linejoin: round;stroke-width: 2.25px"/>
  <circle cx="351.94" cy="145.61" r="6.06" style="fill: #fff;stroke: #304041;stroke-linecap: round;stroke-linejoin: round;stroke-width: 2.25px"/>
  <circle cx="449.38" cy="206.11" r="6.06" style="fill: #fff;stroke: #304041;stroke-linecap: round;stroke-linejoin: round;stroke-width: 2.25px"/>
</svg>
