<svg xmlns="http://www.w3.org/2000/svg" viewBox="0 0 511 271">
  <title>healthcare_leadership</title>
  <g style="opacity: 0.1">
    <polyline points="63.38 200.91 159.38 64.41 256.38 159.61 352.38 159.61 449.38 221.55" style="fill: none;stroke: #304041;stroke-linecap: round;stroke-linejoin: round;stroke-width: 2.25px"/>
  </g>
  <polyline points="63.38 188.91 159.38 52.41 256.38 147.61 352.38 147.61 449.38 209.55" style="fill: none;stroke: #304041;stroke-linecap: round;stroke-linejoin: round;stroke-width: 2.25px"/>
  <g>
    <path d="M61.64,205.13q0,4.2-1.77,6.27a6.66,6.66,0,0,1-5.36,2.07,10.15,10.15,0,0,1-1.91-.13v-2.41a7.28,7.28,0,0,0,1.71.2,6.09,6.09,0,0,0,2.48-.44,3.19,3.19,0,0,0,1.49-1.39,6.21,6.21,0,0,0,.59-2.61h-.12a3.37,3.37,0,0,1-1.3,1.28,4.06,4.06,0,0,1-1.85.37,3.74,3.74,0,0,1-2.92-1.19,4.76,4.76,0,0,1-1.07-3.31,4.94,4.94,0,0,1,1.3-3.62,4.72,4.72,0,0,1,3.53-1.33,5.13,5.13,0,0,1,2.76.74A4.75,4.75,0,0,1,61,201.78,8.14,8.14,0,0,1,61.64,205.13Zm-5.14-3.82A1.78,1.78,0,0,0,55,202a2.85,2.85,0,0,0-.53,1.85,2.55,2.55,0,0,0,.48,1.63,1.74,1.74,0,0,0,1.45.6,2.29,2.29,0,0,0,1.57-.59,1.84,1.84,0,0,0,.65-1.38,3.2,3.2,0,0,0-.61-2A1.87,1.87,0,0,0,56.5,201.31Z" style="fill: #314041"/>
    <path d="M69.71,203.3a5.44,5.44,0,0,1-.87,3.36,3,3,0,0,1-2.54,1.12,2.93,2.93,0,0,1-2.48-1.15A5.46,5.46,0,0,1,63,203.3q0-4.44,3.35-4.44A3,3,0,0,1,68.83,200,5.37,5.37,0,0,1,69.71,203.3Zm-4.31,0a5.65,5.65,0,0,0,.22,1.84c.14.41.38.61.7.61.62,0,.94-.82.94-2.45s-.32-2.43-.94-2.43c-.32,0-.56.2-.7.6A5.58,5.58,0,0,0,65.4,203.32Zm11-4.26-7.89,14.22H66.18l7.88-14.22ZM79.67,209a5.41,5.41,0,0,1-.87,3.35,3,3,0,0,1-2.54,1.12,2.93,2.93,0,0,1-2.48-1.15,5.43,5.43,0,0,1-.87-3.32c0-3,1.11-4.44,3.35-4.44a3,3,0,0,1,2.53,1.15A5.37,5.37,0,0,1,79.67,209Zm-4.31,0a5.65,5.65,0,0,0,.22,1.84c.14.41.38.61.7.61.62,0,.93-.82.93-2.45s-.31-2.43-.93-2.43c-.32,0-.56.2-.7.6A5.54,5.54,0,0,0,75.36,209Z" style="fill: #314041"/>
  </g>
  <g>
    <path d="M150.12,35.08h-1.71v3h-2.94v-3H139.4V33l6.23-9.18h2.78v8.94h1.71Zm-4.65-2.33V30.34c0-.4,0-1,.05-1.75s.06-1.21.07-1.34h-.07a10.45,10.45,0,0,1-.87,1.56L142,32.75Z" style="fill: #314041"/>
    <path d="M156.13,23.63a5.37,5.37,0,0,1,3.29.93,3,3,0,0,1,1.25,2.5,3.28,3.28,0,0,1-.6,1.94,5.18,5.18,0,0,1-1.95,1.52,6.77,6.77,0,0,1,2.29,1.79,3.27,3.27,0,0,1,.7,2,3.4,3.4,0,0,1-1.37,2.82,5.74,5.74,0,0,1-3.61,1.06,6,6,0,0,1-3.67-1,3.29,3.29,0,0,1-1.33-2.81,3.67,3.67,0,0,1,.65-2.16,5.35,5.35,0,0,1,2.07-1.66A5.37,5.37,0,0,1,152.1,29a3.61,3.61,0,0,1-.53-1.92,2.94,2.94,0,0,1,1.26-2.47A5.36,5.36,0,0,1,156.13,23.63Zm-2.22,10.62a1.6,1.6,0,0,0,.58,1.3,3.05,3.05,0,0,0,3.27,0,1.62,1.62,0,0,0,.56-1.27,1.75,1.75,0,0,0-.55-1.22A7.08,7.08,0,0,0,156,31.83C154.6,32.47,153.91,33.27,153.91,34.25Zm2.2-8.43a1.88,1.88,0,0,0-1.24.4,1.27,1.27,0,0,0-.47,1.05,1.62,1.62,0,0,0,.37,1.05,4.14,4.14,0,0,0,1.36.95,3.85,3.85,0,0,0,1.33-.92,1.67,1.67,0,0,0,.38-1.08,1.28,1.28,0,0,0-.49-1.06A1.92,1.92,0,0,0,156.11,25.82Z" style="fill: #314041"/>
    <path d="M169.17,28.05a5.44,5.44,0,0,1-.87,3.36,3,3,0,0,1-2.53,1.12,2.92,2.92,0,0,1-2.48-1.15,5.39,5.39,0,0,1-.88-3.33q0-4.44,3.36-4.44a3,3,0,0,1,2.52,1.15A5.3,5.3,0,0,1,169.17,28.05Zm-4.31,0a5.94,5.94,0,0,0,.22,1.84c.15.41.38.61.71.61.62,0,.93-.82.93-2.45s-.31-2.43-.93-2.43c-.33,0-.56.2-.71.6A5.87,5.87,0,0,0,164.86,28.07Zm11-4.26L168,38h-2.33l7.89-14.22Zm3.27,9.92a5.41,5.41,0,0,1-.87,3.35,3,3,0,0,1-2.53,1.13,2.93,2.93,0,0,1-2.48-1.16,5.36,5.36,0,0,1-.88-3.32q0-4.44,3.36-4.44a3,3,0,0,1,2.52,1.15A5.32,5.32,0,0,1,179.13,33.73Zm-4.31,0a5.65,5.65,0,0,0,.22,1.84c.15.41.38.61.7.61.63,0,.94-.82.94-2.45s-.31-2.43-.94-2.43c-.32,0-.55.2-.7.6A5.58,5.58,0,0,0,174.82,33.75Z" style="fill: #314041"/>
  </g>
  <g>
    <path d="M257.21,133.8h-9.94v-2.09l3.57-3.61q1.57-1.62,2.07-2.25a5,5,0,0,0,.7-1.16,3,3,0,0,0,.21-1.11,1.61,1.61,0,0,0-.47-1.27,1.81,1.81,0,0,0-1.26-.42,3.52,3.52,0,0,0-1.6.38,8.18,8.18,0,0,0-1.63,1.08l-1.63-1.94a10,10,0,0,1,1.74-1.26,6.05,6.05,0,0,1,1.51-.57,7.33,7.33,0,0,1,1.83-.2,5.48,5.48,0,0,1,2.35.48,3.72,3.72,0,0,1,1.58,1.37,3.57,3.57,0,0,1,.57,2,4.9,4.9,0,0,1-.35,1.84,6.9,6.9,0,0,1-1.07,1.77,26.39,26.39,0,0,1-2.55,2.58L251,131.14v.13h6.2Z" style="fill: #314041"/>
    <path d="M268.5,126.69a10,10,0,0,1-1.22,5.52,4.25,4.25,0,0,1-3.76,1.79,4.19,4.19,0,0,1-3.71-1.85,9.8,9.8,0,0,1-1.25-5.46c0-2.51.4-4.36,1.22-5.55a4.72,4.72,0,0,1,7.46.09A9.75,9.75,0,0,1,268.5,126.69Zm-7,0a11,11,0,0,0,.46,3.75,1.56,1.56,0,0,0,1.52,1.13,1.58,1.58,0,0,0,1.52-1.14,10.86,10.86,0,0,0,.46-3.74,10.62,10.62,0,0,0-.47-3.76,1.58,1.58,0,0,0-3,0A11.17,11.17,0,0,0,261.54,126.69Z" style="fill: #314041"/>
    <path d="M276.58,123.82a5.51,5.51,0,0,1-.86,3.36,3,3,0,0,1-2.54,1.13,2.93,2.93,0,0,1-2.48-1.16,5.37,5.37,0,0,1-.88-3.33q0-4.44,3.36-4.44a3,3,0,0,1,2.52,1.15A5.32,5.32,0,0,1,276.58,123.82Zm-4.31,0a6,6,0,0,0,.22,1.85c.15.4.38.6.71.6.62,0,.93-.81.93-2.45s-.31-2.43-.93-2.43c-.33,0-.56.2-.71.6A5.87,5.87,0,0,0,272.27,123.84Zm11-4.26-7.89,14.22h-2.33l7.89-14.22Zm3.27,9.92a5.41,5.41,0,0,1-.87,3.35,3,3,0,0,1-2.53,1.13,2.93,2.93,0,0,1-2.48-1.16,5.34,5.34,0,0,1-.88-3.32q0-4.44,3.36-4.44a3,3,0,0,1,2.52,1.15A5.32,5.32,0,0,1,286.54,129.5Zm-4.31,0a5.61,5.61,0,0,0,.22,1.84c.15.41.38.61.71.61.62,0,.93-.81.93-2.45s-.31-2.43-.93-2.43c-.33,0-.56.2-.71.6A5.58,5.58,0,0,0,282.23,129.52Z" style="fill: #314041"/>
  </g>
  <g>
    <path d="M344.33,135.81h-9.94v-2.09l3.57-3.61q1.59-1.63,2.07-2.25a4.68,4.68,0,0,0,.7-1.17,2.77,2.77,0,0,0,.22-1.1,1.65,1.65,0,0,0-.47-1.28,1.84,1.84,0,0,0-1.26-.42,3.69,3.69,0,0,0-1.61.38,8.28,8.28,0,0,0-1.62,1.08l-1.64-1.93a10.77,10.77,0,0,1,1.74-1.27,7.36,7.36,0,0,1,1.51-.57,8,8,0,0,1,1.83-.2,5.45,5.45,0,0,1,2.35.49,3.73,3.73,0,0,1,1.59,1.36,3.58,3.58,0,0,1,.56,2,4.93,4.93,0,0,1-.34,1.84,7.16,7.16,0,0,1-1.07,1.76,25.34,25.34,0,0,1-2.55,2.58l-1.83,1.72v.14h6.19Z" style="fill: #314041"/>
    <path d="M355.62,128.7a9.84,9.84,0,0,1-1.22,5.51,4.74,4.74,0,0,1-7.47-.06,9.78,9.78,0,0,1-1.25-5.45,10,10,0,0,1,1.22-5.55,4.73,4.73,0,0,1,7.47.08A9.9,9.9,0,0,1,355.62,128.7Zm-6.95,0a11.15,11.15,0,0,0,.45,3.75,1.58,1.58,0,0,0,3,0,15.16,15.16,0,0,0,0-7.49,1.59,1.59,0,0,0-1.52-1.14,1.56,1.56,0,0,0-1.51,1.14A10.87,10.87,0,0,0,348.67,128.7Z" style="fill: #314041"/>
    <path d="M363.71,125.83a5.44,5.44,0,0,1-.87,3.36,3,3,0,0,1-2.54,1.12,2.93,2.93,0,0,1-2.48-1.15,5.46,5.46,0,0,1-.87-3.33c0-3,1.12-4.45,3.35-4.45a3,3,0,0,1,2.53,1.16A5.37,5.37,0,0,1,363.71,125.83Zm-4.31,0a5.65,5.65,0,0,0,.22,1.84c.14.41.38.61.7.61.62,0,.94-.82.94-2.45s-.32-2.43-.94-2.43c-.32,0-.56.2-.7.6A5.5,5.5,0,0,0,359.4,125.85Zm11-4.26-7.89,14.22h-2.33l7.88-14.22Zm3.27,9.92a5.43,5.43,0,0,1-.87,3.35,3,3,0,0,1-2.54,1.12,2.93,2.93,0,0,1-2.48-1.15,5.45,5.45,0,0,1-.87-3.32c0-3,1.12-4.45,3.35-4.45a3,3,0,0,1,2.53,1.16A5.35,5.35,0,0,1,373.67,131.51Zm-4.31,0a5.65,5.65,0,0,0,.22,1.84c.14.41.38.61.7.61.62,0,.93-.82.93-2.45s-.31-2.43-.93-2.43a.75.75,0,0,0-.7.59A5.61,5.61,0,0,0,369.36,131.53Z" style="fill: #314041"/>
  </g>
  <g>
    <path d="M454.44,195.64H444.5v-2.09l3.57-3.61c1.05-1.08,1.74-1.84,2.07-2.25a5.37,5.37,0,0,0,.7-1.17,3,3,0,0,0,.21-1.1,1.65,1.65,0,0,0-.47-1.28,1.83,1.83,0,0,0-1.26-.42,3.69,3.69,0,0,0-1.61.38,9.48,9.48,0,0,0-1.62,1.08l-1.63-1.93A10.77,10.77,0,0,1,446.2,182a7.06,7.06,0,0,1,1.5-.57,8,8,0,0,1,1.83-.2,5.5,5.5,0,0,1,2.36.49,3.7,3.7,0,0,1,1.58,1.36,3.61,3.61,0,0,1,.57,2,4.9,4.9,0,0,1-.35,1.84,7.16,7.16,0,0,1-1.07,1.76,24.3,24.3,0,0,1-2.55,2.58L448.24,193v.14h6.2Z" style="fill: #314041"/>
    <path d="M462.44,185.66a5.51,5.51,0,0,1-.86,3.36,3,3,0,0,1-2.54,1.12,2.92,2.92,0,0,1-2.48-1.15,5.39,5.39,0,0,1-.88-3.33c0-3,1.12-4.45,3.36-4.45a3,3,0,0,1,2.52,1.16A5.3,5.3,0,0,1,462.44,185.66Zm-4.31,0a5.65,5.65,0,0,0,.22,1.84c.15.41.38.61.71.61.62,0,.93-.82.93-2.45s-.31-2.43-.93-2.43c-.33,0-.56.2-.71.6A5.5,5.5,0,0,0,458.13,185.68Zm11-4.26-7.89,14.22h-2.33l7.89-14.22Zm3.27,9.92a5.43,5.43,0,0,1-.87,3.35,3,3,0,0,1-2.54,1.12,2.91,2.91,0,0,1-2.47-1.15,5.38,5.38,0,0,1-.88-3.32c0-3,1.12-4.45,3.35-4.45a3,3,0,0,1,2.53,1.16A5.28,5.28,0,0,1,472.4,191.34Zm-4.31,0a5.65,5.65,0,0,0,.22,1.84c.15.41.38.61.7.61.63,0,.94-.82.94-2.45s-.31-2.43-.94-2.43c-.32,0-.55.2-.7.59A5.65,5.65,0,0,0,468.09,191.36Z" style="fill: #314041"/>
  </g>
  <circle cx="63.38" cy="188.8" r="6.06" style="fill: #fff;stroke: #304041;stroke-linecap: round;stroke-linejoin: round;stroke-width: 2.25px"/>
  <circle cx="159.4" cy="52.41" r="6.06" style="fill: #fff;stroke: #304041;stroke-linecap: round;stroke-linejoin: round;stroke-width: 2.25px"/>
  <circle cx="255.88" cy="147.58" r="6.06" style="fill: #fff;stroke: #304041;stroke-linecap: round;stroke-linejoin: round;stroke-width: 2.25px"/>
  <circle cx="351.88" cy="147.58" r="6.06" style="fill: #fff;stroke: #304041;stroke-linecap: round;stroke-linejoin: round;stroke-width: 2.25px"/>
  <circle cx="449.78" cy="209.55" r="6.06" style="fill: #fff;stroke: #304041;stroke-linecap: round;stroke-linejoin: round;stroke-width: 2.25px"/>
</svg>
