<svg id="Layer_1" data-name="Layer 1" xmlns="http://www.w3.org/2000/svg" viewBox="0 0 511 271">
  <title>healthcare_overall</title>
  <g style="opacity: 0.1">
    <polyline points="63.48 223.36 159.8 142.45 256.12 80.81 351.16 187.4 447.48 222.08" style="fill: none;stroke: #304041;stroke-linecap: round;stroke-linejoin: round;stroke-width: 2.25px"/>
  </g>
  <polyline points="63.48 213.36 159.8 132.45 256.12 70.81 351.16 177.4 447.48 212.08" style="fill: none;stroke: #304041;stroke-linecap: round;stroke-linejoin: round;stroke-width: 2.25px"/>
  <g>
    <path d="M53.5,190.71H43.56v-2.09l3.57-3.6c1.06-1.09,1.75-1.84,2.07-2.26a4.77,4.77,0,0,0,.7-1.16,3,3,0,0,0,.21-1.11,1.59,1.59,0,0,0-.47-1.27,1.81,1.81,0,0,0-1.26-.42,3.65,3.65,0,0,0-1.6.38,8.18,8.18,0,0,0-1.63,1.08l-1.63-1.94a11.24,11.24,0,0,1,1.74-1.26,6.05,6.05,0,0,1,1.51-.57,7.83,7.83,0,0,1,1.83-.2,5.31,5.31,0,0,1,2.35.49,3.79,3.79,0,0,1,1.59,1.36,3.65,3.65,0,0,1,.56,2,5,5,0,0,1-.35,1.85,6.86,6.86,0,0,1-1.07,1.76,26.39,26.39,0,0,1-2.55,2.58l-1.83,1.72v.14h6.2Z" style="fill: #314041"/>
    <path d="M61.5,180.74a5.51,5.51,0,0,1-.86,3.36,3,3,0,0,1-2.54,1.12,2.92,2.92,0,0,1-2.48-1.15,5.46,5.46,0,0,1-.88-3.33q0-4.45,3.36-4.45a3,3,0,0,1,2.52,1.15A5.34,5.34,0,0,1,61.5,180.74Zm-4.31,0a6,6,0,0,0,.22,1.84c.15.4.38.61.71.61.62,0,.93-.82.93-2.45s-.31-2.44-.93-2.44c-.33,0-.56.2-.71.6A5.89,5.89,0,0,0,57.19,180.76Zm11-4.26-7.88,14.21H58l7.89-14.21Zm3.27,9.92a5.5,5.5,0,0,1-.86,3.35,3,3,0,0,1-2.54,1.12,2.92,2.92,0,0,1-2.48-1.15,5.38,5.38,0,0,1-.88-3.32q0-4.46,3.36-4.45a3,3,0,0,1,2.52,1.15A5.34,5.34,0,0,1,71.46,186.42Zm-4.31,0a6,6,0,0,0,.22,1.84c.15.4.38.61.71.61.62,0,.93-.82.93-2.45S68.7,184,68.08,184c-.33,0-.56.2-.71.6A5.89,5.89,0,0,0,67.15,186.44Z" style="fill: #314041"/>
  </g>
  <g>
    <path d="M143.18,105.68a3.38,3.38,0,0,1-.8,2.26,4.28,4.28,0,0,1-2.27,1.29v0a4.61,4.61,0,0,1,2.61,1,2.92,2.92,0,0,1,.88,2.24,3.8,3.8,0,0,1-1.49,3.2,6.87,6.87,0,0,1-4.25,1.14,10.34,10.34,0,0,1-4.1-.77v-2.56a8.91,8.91,0,0,0,1.82.68,7.41,7.41,0,0,0,2,.27,3.78,3.78,0,0,0,2.2-.51,1.87,1.87,0,0,0,.71-1.62,1.46,1.46,0,0,0-.82-1.42,6,6,0,0,0-2.6-.42H136v-2.31h1.1a5.08,5.08,0,0,0,2.41-.43,1.56,1.56,0,0,0,.77-1.48c0-1.08-.68-1.62-2-1.62a4.5,4.5,0,0,0-1.42.24,6.84,6.84,0,0,0-1.61.8l-1.39-2.07a7.75,7.75,0,0,1,4.64-1.4,5.94,5.94,0,0,1,3.48.9A2.84,2.84,0,0,1,143.18,105.68Z" style="fill: #314041"/>
    <path d="M155,109.61a9.93,9.93,0,0,1-1.22,5.51,4.25,4.25,0,0,1-3.76,1.79,4.19,4.19,0,0,1-3.71-1.85,9.78,9.78,0,0,1-1.25-5.45c0-2.51.4-4.36,1.22-5.55a4.72,4.72,0,0,1,7.46.08A9.79,9.79,0,0,1,155,109.61Zm-6.95,0a11,11,0,0,0,.45,3.74,1.57,1.57,0,0,0,1.52,1.14,1.59,1.59,0,0,0,1.52-1.15,10.83,10.83,0,0,0,.46-3.73,10.58,10.58,0,0,0-.47-3.76,1.57,1.57,0,0,0-3,0A11.18,11.18,0,0,0,148.08,109.61Z" style="fill: #314041"/>
    <path d="M163.11,106.74a5.51,5.51,0,0,1-.86,3.36,3,3,0,0,1-2.54,1.12,2.92,2.92,0,0,1-2.48-1.15,5.39,5.39,0,0,1-.88-3.33q0-4.45,3.36-4.45a3,3,0,0,1,2.52,1.15A5.34,5.34,0,0,1,163.11,106.74Zm-4.31,0a6,6,0,0,0,.22,1.84c.15.4.38.61.71.61.62,0,.93-.82.93-2.45s-.31-2.44-.93-2.44c-.33,0-.56.2-.71.6A5.89,5.89,0,0,0,158.8,106.76Zm11-4.26-7.88,14.21h-2.34l7.89-14.21Zm3.27,9.92a5.5,5.5,0,0,1-.86,3.35,3,3,0,0,1-2.54,1.12,2.92,2.92,0,0,1-2.48-1.15,5.38,5.38,0,0,1-.88-3.32q0-4.45,3.36-4.45a3,3,0,0,1,2.52,1.15A5.34,5.34,0,0,1,173.07,112.42Zm-4.31,0a6,6,0,0,0,.22,1.84c.15.4.38.61.71.61.62,0,.93-.82.93-2.45s-.31-2.44-.93-2.44c-.33,0-.56.2-.71.6A5.89,5.89,0,0,0,168.76,112.44Z" style="fill: #314041"/>
  </g>
  <g>
    <path d="M242,46.27a4.57,4.57,0,0,1,3.28,1.15,4.15,4.15,0,0,1,1.22,3.17A4.6,4.6,0,0,1,245,54.26a6.17,6.17,0,0,1-4.2,1.29,8.25,8.25,0,0,1-3.83-.77v-2.6a8.47,8.47,0,0,0,1.79.67,8,8,0,0,0,1.94.25c1.83,0,2.75-.75,2.75-2.25s-1-2.15-2.85-2.15a6.77,6.77,0,0,0-1.14.1,8,8,0,0,0-1,.22l-1.2-.64.54-7.25h7.71v2.55h-5.08l-.26,2.79.34-.07A6.85,6.85,0,0,1,242,46.27Z" style="fill: #314041"/>
    <path d="M258.14,55.35H248.2V53.26l3.57-3.61c1.06-1.08,1.75-1.83,2.08-2.25a5.58,5.58,0,0,0,.7-1.16,3,3,0,0,0,.21-1.11,1.65,1.65,0,0,0-.47-1.28,1.89,1.89,0,0,0-1.26-.41,3.56,3.56,0,0,0-1.61.38,8.13,8.13,0,0,0-1.62,1.08L248.17,43a10,10,0,0,1,1.74-1.26,6.13,6.13,0,0,1,1.5-.57,7.44,7.44,0,0,1,1.83-.2,5.53,5.53,0,0,1,2.36.48,3.72,3.72,0,0,1,1.58,1.37,3.57,3.57,0,0,1,.56,2,4.89,4.89,0,0,1-.34,1.84,7.2,7.2,0,0,1-1.07,1.77A25.46,25.46,0,0,1,253.78,51L252,52.69v.13h6.19Z" style="fill: #314041"/>
    <path d="M266.15,45.37a5.44,5.44,0,0,1-.87,3.36,3,3,0,0,1-2.54,1.13,2.94,2.94,0,0,1-2.48-1.16,5.46,5.46,0,0,1-.87-3.33q0-4.44,3.35-4.44a3,3,0,0,1,2.53,1.15A5.32,5.32,0,0,1,266.15,45.37Zm-4.31,0a5.65,5.65,0,0,0,.22,1.84c.14.41.38.61.7.61.63,0,.94-.81.94-2.45s-.31-2.43-.94-2.43c-.32,0-.56.2-.7.6A5.58,5.58,0,0,0,261.84,45.39Zm11-4.26L265,55.35h-2.33l7.89-14.22Zm3.27,9.92a5.41,5.41,0,0,1-.87,3.35,3,3,0,0,1-2.54,1.13,2.94,2.94,0,0,1-2.48-1.16,5.41,5.41,0,0,1-.87-3.32q0-4.44,3.35-4.44a3,3,0,0,1,2.53,1.15A5.39,5.39,0,0,1,276.11,51.05Zm-4.31,0a5.65,5.65,0,0,0,.22,1.84c.14.41.38.61.7.61.63,0,.94-.81.94-2.45s-.31-2.43-.94-2.43c-.32,0-.56.2-.7.6A5.58,5.58,0,0,0,271.8,51.07Z" style="fill: #314041"/>
  </g>
  <g>
    <path d="M355.51,164.29h-3v-8.23l0-1.35,0-1.48a12.68,12.68,0,0,1-1,1l-1.63,1.32-1.45-1.81,4.58-3.65h2.47Z" style="fill: #314041"/>
    <path d="M369.71,161.34H368v2.95h-2.94v-2.95H359v-2.09l6.24-9.18H368V159h1.71ZM365.06,159V156.6c0-.4,0-1,.05-1.75s.06-1.21.08-1.34h-.08a11.35,11.35,0,0,1-.86,1.56L361.64,159Z" style="fill: #314041"/>
    <path d="M377.4,154.31a5.44,5.44,0,0,1-.87,3.36A3,3,0,0,1,374,158.8a2.94,2.94,0,0,1-2.48-1.16,5.44,5.44,0,0,1-.87-3.33q0-4.44,3.35-4.44a3,3,0,0,1,2.53,1.15A5.39,5.39,0,0,1,377.4,154.31Zm-4.31,0a5.61,5.61,0,0,0,.22,1.84c.14.41.38.61.7.61.62,0,.94-.81.94-2.45s-.32-2.43-.94-2.43c-.32,0-.56.2-.7.6A5.58,5.58,0,0,0,373.09,154.33Zm11-4.26-7.89,14.22h-2.33l7.88-14.22Zm3.27,9.92a5.41,5.41,0,0,1-.87,3.35,3,3,0,0,1-2.54,1.13,2.94,2.94,0,0,1-2.48-1.16,5.41,5.41,0,0,1-.87-3.32c0-3,1.11-4.44,3.35-4.44a3,3,0,0,1,2.53,1.15A5.39,5.39,0,0,1,387.36,160Zm-4.31,0a5.61,5.61,0,0,0,.22,1.84c.14.41.38.61.7.61.62,0,.94-.81.94-2.45s-.32-2.43-.94-2.43c-.32,0-.56.2-.7.6A5.58,5.58,0,0,0,383.05,160Z" style="fill: #314041"/>
  </g>
  <g>
    <path d="M449.72,195.64h-9.93v-2.09l3.56-3.61c1.06-1.08,1.75-1.83,2.08-2.25a5.37,5.37,0,0,0,.7-1.17,3,3,0,0,0,.21-1.1,1.65,1.65,0,0,0-.47-1.28,1.84,1.84,0,0,0-1.26-.42,3.69,3.69,0,0,0-1.61.38,9.11,9.11,0,0,0-1.62,1.08l-1.63-1.93a10.77,10.77,0,0,1,1.74-1.27,7.06,7.06,0,0,1,1.5-.57,8,8,0,0,1,1.83-.2,5.5,5.5,0,0,1,2.36.49,3.77,3.77,0,0,1,1.58,1.36,3.61,3.61,0,0,1,.57,2,4.9,4.9,0,0,1-.35,1.84,7.16,7.16,0,0,1-1.07,1.76,24.3,24.3,0,0,1-2.55,2.58L443.53,193v.14h6.19Z" style="fill: #314041"/>
    <path d="M457.73,185.66a5.44,5.44,0,0,1-.87,3.36,3,3,0,0,1-2.53,1.12,2.92,2.92,0,0,1-2.48-1.15,5.39,5.39,0,0,1-.88-3.33c0-3,1.12-4.45,3.36-4.45a3,3,0,0,1,2.52,1.16A5.3,5.3,0,0,1,457.73,185.66Zm-4.31,0a5.65,5.65,0,0,0,.22,1.84c.15.41.38.61.7.61.63,0,.94-.82.94-2.45s-.31-2.43-.94-2.43c-.32,0-.55.2-.7.6A5.54,5.54,0,0,0,453.42,185.68Zm11-4.26-7.89,14.22H454.2l7.89-14.22Zm3.27,9.92a5.43,5.43,0,0,1-.87,3.35,3,3,0,0,1-2.54,1.12,2.93,2.93,0,0,1-2.48-1.15,5.43,5.43,0,0,1-.87-3.32c0-3,1.12-4.45,3.35-4.45a3,3,0,0,1,2.53,1.16A5.3,5.3,0,0,1,467.69,191.34Zm-4.31,0a5.65,5.65,0,0,0,.22,1.84c.14.41.38.61.7.61.63,0,.94-.82.94-2.45s-.31-2.43-.94-2.43c-.32,0-.56.2-.7.6A5.54,5.54,0,0,0,463.38,191.36Z" style="fill: #314041"/>
  </g>
  <circle cx="63.48" cy="212.51" r="6.06" style="fill: #fff;stroke: #304041;stroke-linecap: round;stroke-linejoin: round;stroke-width: 2.25px"/>
  <circle cx="160.21" cy="132.51" r="6.06" style="fill: #fff;stroke: #304041;stroke-linecap: round;stroke-linejoin: round;stroke-width: 2.25px"/>
  <circle cx="255.48" cy="71.81" r="6.06" style="fill: #fff;stroke: #304041;stroke-linecap: round;stroke-linejoin: round;stroke-width: 2.25px"/>
  <circle cx="351.48" cy="177.75" r="6.06" style="fill: #fff;stroke: #304041;stroke-linecap: round;stroke-linejoin: round;stroke-width: 2.25px"/>
  <circle cx="447.48" cy="211.8" r="6.06" style="fill: #fff;stroke: #304041;stroke-linecap: round;stroke-linejoin: round;stroke-width: 2.25px"/>
</svg>
