<svg id="Layer_1" data-name="Layer 1" xmlns="http://www.w3.org/2000/svg" viewBox="0 0 511 271">
  <title>healthcare_technology</title>
  <g style="opacity: 0.1">
    <polyline points="63.38 219.26 159.38 157.32 256.38 143.55 352.38 86.2 449.38 198.61" style="fill: none;stroke: #304041;stroke-linecap: round;stroke-linejoin: round;stroke-width: 2.25px"/>
  </g>
  <polyline points="63.38 207.26 159.38 145.32 256.38 131.55 352.38 74.2 449.38 186.61" style="fill: none;stroke: #304041;stroke-linecap: round;stroke-linejoin: round;stroke-width: 2.25px"/>
  <g>
    <path d="M49.48,177.48a3.31,3.31,0,0,1-.8,2.26A4.21,4.21,0,0,1,46.41,181v.06a4.54,4.54,0,0,1,2.61,1,2.93,2.93,0,0,1,.88,2.24,3.8,3.8,0,0,1-1.48,3.2,6.9,6.9,0,0,1-4.26,1.14,10.17,10.17,0,0,1-4.1-.77v-2.55a10.26,10.26,0,0,0,1.82.68,7.88,7.88,0,0,0,2,.26,3.78,3.78,0,0,0,2.2-.51,1.85,1.85,0,0,0,.71-1.62,1.46,1.46,0,0,0-.82-1.42,6,6,0,0,0-2.6-.42H42.25v-2.3h1.1a5,5,0,0,0,2.41-.44,1.56,1.56,0,0,0,.77-1.48c0-1.08-.68-1.62-2-1.62a4.52,4.52,0,0,0-1.43.24,6.55,6.55,0,0,0-1.61.81l-1.39-2.08a7.75,7.75,0,0,1,4.64-1.4,6,6,0,0,1,3.49.9A2.88,2.88,0,0,1,49.48,177.48Z" style="fill: #314041"/>
    <path d="M58,178.54a5.44,5.44,0,0,1-.86,3.36A3,3,0,0,1,54.64,183a2.92,2.92,0,0,1-2.48-1.15,5.46,5.46,0,0,1-.88-3.33c0-3,1.12-4.45,3.36-4.45a3,3,0,0,1,2.52,1.16A5.28,5.28,0,0,1,58,178.54Zm-4.31,0A5.94,5.94,0,0,0,54,180.4c.15.41.38.61.71.61.62,0,.93-.82.93-2.45s-.31-2.43-.93-2.43c-.33,0-.56.2-.71.59A5.89,5.89,0,0,0,53.73,178.56Zm11-4.26-7.88,14.22H54.51L62.4,174.3ZM68,184.22a5.5,5.5,0,0,1-.86,3.35,3,3,0,0,1-2.54,1.12,2.92,2.92,0,0,1-2.48-1.15,5.45,5.45,0,0,1-.88-3.32c0-3,1.12-4.45,3.36-4.45a3,3,0,0,1,2.52,1.16A5.28,5.28,0,0,1,68,184.22Zm-4.31,0a5.94,5.94,0,0,0,.22,1.84c.15.41.38.61.71.61.62,0,.93-.82.93-2.45s-.31-2.43-.93-2.43c-.33,0-.56.2-.71.59A5.89,5.89,0,0,0,63.69,184.24Z" style="fill: #314041"/>
  </g>
  <g>
    <path d="M150.85,131.13h-9.94V129l3.57-3.61c1.06-1.08,1.75-1.83,2.08-2.25a5.37,5.37,0,0,0,.7-1.17,3,3,0,0,0,.21-1.1,1.65,1.65,0,0,0-.47-1.28,1.84,1.84,0,0,0-1.26-.42,3.69,3.69,0,0,0-1.61.38,8.59,8.59,0,0,0-1.62,1.08l-1.63-1.93a10.77,10.77,0,0,1,1.74-1.27,7.06,7.06,0,0,1,1.5-.57,8,8,0,0,1,1.83-.2,5.5,5.5,0,0,1,2.36.49,3.7,3.7,0,0,1,1.58,1.36,3.61,3.61,0,0,1,.57,2,4.94,4.94,0,0,1-.35,1.84,7.16,7.16,0,0,1-1.07,1.76,24.3,24.3,0,0,1-2.55,2.58l-1.83,1.72v.14h6.19Z" style="fill: #314041"/>
    <path d="M159.72,131.13h-3V122.9l0-1.35,0-1.48c-.5.5-.85.83-1,1l-1.64,1.31-1.45-1.8,4.58-3.65h2.48Z" style="fill: #314041"/>
    <path d="M170.23,121.15a5.44,5.44,0,0,1-.87,3.36,3,3,0,0,1-2.54,1.12,3,3,0,0,1-2.48-1.15,5.46,5.46,0,0,1-.87-3.33q0-4.45,3.35-4.45a3,3,0,0,1,2.53,1.16A5.35,5.35,0,0,1,170.23,121.15Zm-4.31,0a5.65,5.65,0,0,0,.22,1.84c.14.41.38.61.7.61.63,0,.94-.82.94-2.45s-.31-2.43-.94-2.43c-.32,0-.56.2-.7.6A5.54,5.54,0,0,0,165.92,121.17Zm11-4.26L169,131.13H166.7l7.89-14.22Zm3.27,9.92a5.43,5.43,0,0,1-.87,3.35,3,3,0,0,1-2.54,1.12,2.93,2.93,0,0,1-2.48-1.15,5.45,5.45,0,0,1-.87-3.32c0-3,1.12-4.45,3.35-4.45a3,3,0,0,1,2.53,1.16A5.35,5.35,0,0,1,180.19,126.83Zm-4.31,0a5.65,5.65,0,0,0,.22,1.84c.14.41.38.61.7.61.63,0,.94-.82.94-2.45s-.31-2.43-.94-2.43a.75.75,0,0,0-.7.59A5.61,5.61,0,0,0,175.88,126.85Z" style="fill: #314041"/>
  </g>
  <g>
    <path d="M232.82,114.92h-9.94v-2.09l3.57-3.61c1.05-1.08,1.75-1.83,2.07-2.25a5,5,0,0,0,.7-1.16,3,3,0,0,0,.21-1.11,1.58,1.58,0,0,0-.47-1.27,1.81,1.81,0,0,0-1.26-.42,3.52,3.52,0,0,0-1.6.38,8.18,8.18,0,0,0-1.63,1.08l-1.63-1.94a10,10,0,0,1,1.74-1.26,6.05,6.05,0,0,1,1.51-.57,7.33,7.33,0,0,1,1.83-.2,5.48,5.48,0,0,1,2.35.48,3.81,3.81,0,0,1,1.59,1.37,3.65,3.65,0,0,1,.56,2,4.86,4.86,0,0,1-.35,1.84A6.9,6.9,0,0,1,231,108a26.39,26.39,0,0,1-2.55,2.58l-1.83,1.72v.13h6.2Z" style="fill: #314041"/>
    <path d="M239.42,105.84A4.52,4.52,0,0,1,242.7,107a4.12,4.12,0,0,1,1.22,3.17,4.59,4.59,0,0,1-1.46,3.66,6.17,6.17,0,0,1-4.2,1.29,8.29,8.29,0,0,1-3.84-.77v-2.6a8.14,8.14,0,0,0,1.79.67,8,8,0,0,0,1.94.26c1.83,0,2.75-.76,2.75-2.26s-1-2.15-2.85-2.15a7,7,0,0,0-1.14.1,8.46,8.46,0,0,0-1,.22l-1.19-.64.53-7.25H243v2.55h-5.07l-.27,2.79L238,106A6.85,6.85,0,0,1,239.42,105.84Z" style="fill: #314041"/>
    <path d="M252.19,104.94a5.51,5.51,0,0,1-.86,3.36,3,3,0,0,1-2.54,1.13,2.93,2.93,0,0,1-2.48-1.16,5.35,5.35,0,0,1-.88-3.33q0-4.44,3.36-4.44a3,3,0,0,1,2.52,1.15A5.32,5.32,0,0,1,252.19,104.94Zm-4.31,0a6,6,0,0,0,.22,1.85c.15.4.38.6.71.6.62,0,.93-.81.93-2.45s-.31-2.43-.93-2.43c-.33,0-.56.2-.71.6A5.87,5.87,0,0,0,247.88,105Zm11-4.26L251,114.92h-2.34l7.89-14.22Zm3.27,9.92a5.47,5.47,0,0,1-.86,3.35,3,3,0,0,1-2.54,1.13,2.93,2.93,0,0,1-2.48-1.16,5.34,5.34,0,0,1-.88-3.32q0-4.44,3.36-4.44a3,3,0,0,1,2.52,1.15A5.32,5.32,0,0,1,262.15,110.62Zm-4.31,0a6,6,0,0,0,.22,1.85c.15.4.38.6.71.6.62,0,.93-.81.93-2.45s-.31-2.43-.93-2.43c-.33,0-.56.2-.71.6A5.87,5.87,0,0,0,257.84,110.64Z" style="fill: #314041"/>
  </g>
  <g>
    <path d="M344.65,56.06h-1.71V59H340V56.06h-6.06V54l6.23-9.18h2.77v8.93h1.71ZM340,53.72V51.31c0-.4,0-1,.05-1.75s.06-1.21.08-1.33h-.08a12,12,0,0,1-.86,1.56l-2.61,3.93Z" style="fill: #314041"/>
    <path d="M355.7,59h-9.94V56.92l3.57-3.61q1.59-1.64,2.07-2.25a4.68,4.68,0,0,0,.7-1.17,2.78,2.78,0,0,0,.22-1.11,1.62,1.62,0,0,0-.47-1.27,1.84,1.84,0,0,0-1.26-.42,3.69,3.69,0,0,0-1.61.38,7.86,7.86,0,0,0-1.62,1.08l-1.64-1.93a10.77,10.77,0,0,1,1.74-1.27,6.64,6.64,0,0,1,1.51-.57,8,8,0,0,1,1.83-.2,5.45,5.45,0,0,1,2.35.49,3.73,3.73,0,0,1,1.59,1.36,3.57,3.57,0,0,1,.56,2,4.94,4.94,0,0,1-.34,1.85A7.16,7.16,0,0,1,353.89,52a25.34,25.34,0,0,1-2.55,2.58l-1.83,1.72v.14h6.19Z" style="fill: #314041"/>
    <path d="M363.71,49a5.44,5.44,0,0,1-.87,3.36,3,3,0,0,1-2.54,1.12,2.93,2.93,0,0,1-2.48-1.15A5.46,5.46,0,0,1,357,49q0-4.45,3.35-4.45a3,3,0,0,1,2.53,1.16A5.35,5.35,0,0,1,363.71,49Zm-4.31,0a5.69,5.69,0,0,0,.22,1.84c.14.41.38.61.7.61.62,0,.94-.82.94-2.45s-.32-2.43-.94-2.43a.74.74,0,0,0-.7.59A5.61,5.61,0,0,0,359.4,49.05Zm11-4.26L362.51,59h-2.33l7.88-14.22Zm3.27,9.92a5.43,5.43,0,0,1-.87,3.35,3,3,0,0,1-2.54,1.12A2.93,2.93,0,0,1,367.78,58a5.45,5.45,0,0,1-.87-3.32c0-3,1.11-4.45,3.35-4.45a3,3,0,0,1,2.53,1.16A5.35,5.35,0,0,1,373.67,54.71Zm-4.31,0a5.65,5.65,0,0,0,.22,1.84c.14.4.38.61.7.61.62,0,.94-.82.94-2.45s-.32-2.43-.94-2.43a.75.75,0,0,0-.7.59A5.61,5.61,0,0,0,369.36,54.73Z" style="fill: #314041"/>
  </g>
  <g>
    <path d="M464.24,163.28q0,4.2-1.77,6.27a6.64,6.64,0,0,1-5.36,2.08,10.17,10.17,0,0,1-1.92-.14v-2.41a6.93,6.93,0,0,0,1.72.2,6,6,0,0,0,2.48-.44,3.14,3.14,0,0,0,1.49-1.39,6.14,6.14,0,0,0,.59-2.61h-.12a3.3,3.3,0,0,1-1.3,1.28,4.09,4.09,0,0,1-1.85.37,3.76,3.76,0,0,1-2.93-1.19A4.79,4.79,0,0,1,454.2,162a4.92,4.92,0,0,1,1.3-3.61,4.72,4.72,0,0,1,3.54-1.33,5,5,0,0,1,2.75.74,4.69,4.69,0,0,1,1.82,2.14A8.17,8.17,0,0,1,464.24,163.28Zm-5.15-3.82a1.76,1.76,0,0,0-1.45.64,2.87,2.87,0,0,0-.53,1.85,2.53,2.53,0,0,0,.48,1.63,1.71,1.71,0,0,0,1.45.61,2.21,2.21,0,0,0,1.56-.6,1.81,1.81,0,0,0,.65-1.38,3.14,3.14,0,0,0-.6-2A1.9,1.9,0,0,0,459.09,159.46Z" style="fill: #314041"/>
    <path d="M472.3,161.45a5.51,5.51,0,0,1-.86,3.36,3,3,0,0,1-2.54,1.13,2.93,2.93,0,0,1-2.48-1.16,5.35,5.35,0,0,1-.88-3.33q0-4.44,3.36-4.44a3,3,0,0,1,2.52,1.15A5.32,5.32,0,0,1,472.3,161.45Zm-4.31,0a6,6,0,0,0,.22,1.85c.15.4.38.6.71.6.62,0,.93-.81.93-2.45s-.31-2.43-.93-2.43c-.33,0-.56.2-.71.6A5.87,5.87,0,0,0,468,161.47Zm11-4.26-7.88,14.22h-2.34l7.89-14.22Zm3.27,9.92a5.47,5.47,0,0,1-.86,3.35,3,3,0,0,1-2.54,1.13,2.93,2.93,0,0,1-2.48-1.16,5.34,5.34,0,0,1-.88-3.32q0-4.44,3.36-4.44a3,3,0,0,1,2.52,1.15A5.32,5.32,0,0,1,482.26,167.13Zm-4.31,0a6,6,0,0,0,.22,1.85c.15.4.38.6.71.6.62,0,.93-.81.93-2.45s-.31-2.43-.93-2.43c-.33,0-.56.2-.71.6A5.87,5.87,0,0,0,478,167.15Z" style="fill: #314041"/>
  </g>
  <circle cx="63.96" cy="207.26" r="6.06" style="fill: #fff;stroke: #304041;stroke-linecap: round;stroke-linejoin: round;stroke-width: 2.25px"/>
  <circle cx="158.4" cy="146.02" r="6.06" style="fill: #fff;stroke: #304041;stroke-linecap: round;stroke-linejoin: round;stroke-width: 2.25px"/>
  <circle cx="256.38" cy="131.13" r="6.06" style="fill: #fff;stroke: #304041;stroke-linecap: round;stroke-linejoin: round;stroke-width: 2.25px"/>
  <circle cx="351.94" cy="75.2" r="6.06" style="fill: #fff;stroke: #304041;stroke-linecap: round;stroke-linejoin: round;stroke-width: 2.25px"/>
  <circle cx="449.38" cy="186.61" r="6.06" style="fill: #fff;stroke: #304041;stroke-linecap: round;stroke-linejoin: round;stroke-width: 2.25px"/>
</svg>
