<svg id="Layer_1" data-name="Layer 1" xmlns="http://www.w3.org/2000/svg" viewBox="0 0 511 271">
  <title>healthcare_process</title>
  <g style="opacity: 0.1">
    <polyline points="63.38 206.64 159.38 132.08 256.38 149.29 352.38 103.41 449.38 213.52" style="fill: none;stroke: #304041;stroke-linecap: round;stroke-linejoin: round;stroke-width: 2.25px"/>
  </g>
  <polyline points="63.38 194.64 159.38 120.08 256.38 137.29 352.38 91.41 449.38 201.52" style="fill: none;stroke: #304041;stroke-linecap: round;stroke-linejoin: round;stroke-width: 2.25px"/>
  <g>
    <path d="M41.55,180.52l5.34-11.67h-7v-2.53H50.08v1.88L44.7,180.52Z" style="fill: #314041"/>
    <path d="M58.08,170.54a5.44,5.44,0,0,1-.87,3.36A3,3,0,0,1,54.68,175a2.92,2.92,0,0,1-2.48-1.15,5.39,5.39,0,0,1-.88-3.33c0-3,1.12-4.45,3.36-4.45a3,3,0,0,1,2.52,1.16A5.28,5.28,0,0,1,58.08,170.54Zm-4.31,0A5.65,5.65,0,0,0,54,172.4c.15.41.38.61.71.61.62,0,.93-.82.93-2.45s-.31-2.43-.93-2.43c-.33,0-.56.2-.71.59A5.61,5.61,0,0,0,53.77,170.56Zm11-4.26-7.89,14.22H54.55l7.89-14.22ZM68,176.22a5.43,5.43,0,0,1-.87,3.35,3,3,0,0,1-2.54,1.12,2.91,2.91,0,0,1-2.47-1.15,5.38,5.38,0,0,1-.88-3.32c0-3,1.12-4.45,3.35-4.45a3,3,0,0,1,2.53,1.16A5.28,5.28,0,0,1,68,176.22Zm-4.31,0a5.65,5.65,0,0,0,.22,1.84c.15.41.38.61.7.61.63,0,.94-.82.94-2.45s-.31-2.43-.94-2.43c-.32,0-.55.2-.7.59A5.61,5.61,0,0,0,63.73,176.24Z" style="fill: #314041"/>
  </g>
  <g>
    <path d="M149.8,106.69h-9.94V104.6l3.57-3.61q1.57-1.62,2.07-2.25a5.33,5.33,0,0,0,.7-1.16,3,3,0,0,0,.21-1.11,1.62,1.62,0,0,0-.47-1.27,1.83,1.83,0,0,0-1.26-.42,3.62,3.62,0,0,0-1.6.38,8.18,8.18,0,0,0-1.63,1.08l-1.63-1.94A10.6,10.6,0,0,1,141.56,93a6.05,6.05,0,0,1,1.51-.57,7.8,7.8,0,0,1,1.82-.2,5.35,5.35,0,0,1,2.36.49,3.64,3.64,0,0,1,1.58,1.36,3.57,3.57,0,0,1,.57,2,4.86,4.86,0,0,1-.35,1.84A7,7,0,0,1,148,99.73a26.39,26.39,0,0,1-2.55,2.58L143.6,104v.13h6.2Z" style="fill: #314041"/>
    <path d="M156.13,92.29a5.37,5.37,0,0,1,3.29.93,3,3,0,0,1,1.25,2.5,3.28,3.28,0,0,1-.6,1.94,5.08,5.08,0,0,1-1.95,1.52,6.9,6.9,0,0,1,2.29,1.79,3.3,3.3,0,0,1,.7,2,3.4,3.4,0,0,1-1.37,2.81,5.74,5.74,0,0,1-3.61,1.07,6,6,0,0,1-3.67-1,3.31,3.31,0,0,1-1.33-2.82,3.62,3.62,0,0,1,.65-2.15,5.36,5.36,0,0,1,2.07-1.67,5.37,5.37,0,0,1-1.75-1.64,3.56,3.56,0,0,1-.53-1.92,2.94,2.94,0,0,1,1.26-2.47A5.36,5.36,0,0,1,156.13,92.29Zm-2.22,10.62a1.59,1.59,0,0,0,.58,1.3,3.05,3.05,0,0,0,3.27,0,1.61,1.61,0,0,0,.56-1.27,1.75,1.75,0,0,0-.55-1.22A7.09,7.09,0,0,0,156,100.5C154.6,101.13,153.91,101.94,153.91,102.91Zm2.2-8.42a1.88,1.88,0,0,0-1.24.39,1.29,1.29,0,0,0-.47,1.06,1.6,1.6,0,0,0,.37,1,4,4,0,0,0,1.36,1,3.85,3.85,0,0,0,1.33-.91,1.71,1.71,0,0,0,.38-1.08,1.27,1.27,0,0,0-.49-1.06A1.92,1.92,0,0,0,156.11,94.49Z" style="fill: #314041"/>
    <path d="M169.17,96.71a5.4,5.4,0,0,1-.87,3.36,3,3,0,0,1-2.53,1.13,3,3,0,0,1-2.48-1.15,5.4,5.4,0,0,1-.88-3.34q0-4.44,3.36-4.44a3,3,0,0,1,2.52,1.15A5.32,5.32,0,0,1,169.17,96.71Zm-4.31,0a6,6,0,0,0,.22,1.85c.15.4.38.6.71.6.62,0,.93-.81.93-2.45s-.31-2.43-.93-2.43c-.33,0-.56.2-.71.6A5.87,5.87,0,0,0,164.86,96.73Zm11-4.26L168,106.69h-2.33l7.89-14.22Zm3.27,9.92a5.39,5.39,0,0,1-.87,3.35,3,3,0,0,1-2.53,1.13,3,3,0,0,1-2.48-1.15,5.39,5.39,0,0,1-.88-3.33q0-4.44,3.36-4.44a3,3,0,0,1,2.52,1.15A5.32,5.32,0,0,1,179.13,102.39Zm-4.31,0a5.72,5.72,0,0,0,.22,1.85c.15.4.38.6.7.6.63,0,.94-.81.94-2.45s-.31-2.43-.94-2.43c-.32,0-.55.2-.7.6A5.58,5.58,0,0,0,174.82,102.41Z" style="fill: #314041"/>
  </g>
  <g>
    <path d="M246.78,165.21h-9.95v-2.09l3.57-3.61c1.06-1.08,1.75-1.83,2.08-2.25a5.58,5.58,0,0,0,.7-1.16,3,3,0,0,0,.21-1.11,1.65,1.65,0,0,0-.47-1.28,1.84,1.84,0,0,0-1.26-.41,3.56,3.56,0,0,0-1.61.38,8.13,8.13,0,0,0-1.62,1.08l-1.63-1.94a10.77,10.77,0,0,1,1.74-1.27A6.54,6.54,0,0,1,240,151a7.44,7.44,0,0,1,1.83-.2,5.5,5.5,0,0,1,2.36.48,3.77,3.77,0,0,1,1.58,1.36,3.63,3.63,0,0,1,.57,2,4.9,4.9,0,0,1-.35,1.84,7.39,7.39,0,0,1-1.07,1.77,25.46,25.46,0,0,1-2.55,2.57l-1.83,1.73v.13h6.2Z" style="fill: #314041"/>
    <path d="M257.59,154.17a3.36,3.36,0,0,1-.81,2.27,4.17,4.17,0,0,1-2.26,1.28v.06a4.54,4.54,0,0,1,2.6,1,3,3,0,0,1,.89,2.25,3.8,3.8,0,0,1-1.49,3.19,6.87,6.87,0,0,1-4.25,1.14,10.34,10.34,0,0,1-4.1-.76v-2.56a9.44,9.44,0,0,0,1.81.68,8,8,0,0,0,2,.26,3.91,3.91,0,0,0,2.2-.5,1.87,1.87,0,0,0,.71-1.63,1.48,1.48,0,0,0-.82-1.42,6,6,0,0,0-2.61-.42h-1.08v-2.3h1.1a5.22,5.22,0,0,0,2.42-.43,1.57,1.57,0,0,0,.76-1.49c0-1.07-.67-1.61-2-1.61a4.74,4.74,0,0,0-1.42.23,7.13,7.13,0,0,0-1.61.81l-1.39-2.07a7.66,7.66,0,0,1,4.64-1.4,6,6,0,0,1,3.48.89A2.89,2.89,0,0,1,257.59,154.17Z" style="fill: #314041"/>
    <path d="M266.15,155.23a5.44,5.44,0,0,1-.87,3.36,3,3,0,0,1-2.54,1.13,2.92,2.92,0,0,1-2.47-1.16,5.39,5.39,0,0,1-.88-3.33q0-4.44,3.35-4.44a3,3,0,0,1,2.53,1.15A5.3,5.3,0,0,1,266.15,155.23Zm-4.31,0a5.65,5.65,0,0,0,.22,1.84c.14.41.38.61.7.61.63,0,.94-.81.94-2.45s-.31-2.43-.94-2.43c-.32,0-.56.2-.7.6A5.58,5.58,0,0,0,261.84,155.25Zm11-4.26L265,165.21h-2.33L270.51,151Zm3.27,9.92a5.41,5.41,0,0,1-.87,3.35,3,3,0,0,1-2.54,1.13,2.94,2.94,0,0,1-2.48-1.16,5.43,5.43,0,0,1-.87-3.32q0-4.44,3.35-4.44a3,3,0,0,1,2.53,1.15A5.3,5.3,0,0,1,276.11,160.91Zm-4.31,0a5.65,5.65,0,0,0,.22,1.84c.14.41.38.61.7.61.63,0,.94-.82.94-2.45s-.31-2.43-.94-2.43c-.32,0-.56.2-.7.6A5.58,5.58,0,0,0,271.8,160.93Z" style="fill: #314041"/>
  </g>
  <g>
    <path d="M343.78,65.72A3.33,3.33,0,0,1,343,68a4.17,4.17,0,0,1-2.27,1.28v.06a4.55,4.55,0,0,1,2.61,1.05,2.92,2.92,0,0,1,.89,2.24,3.82,3.82,0,0,1-1.49,3.2A6.87,6.87,0,0,1,338.46,77a10.39,10.39,0,0,1-4.11-.77V73.62a9.14,9.14,0,0,0,1.82.68,7.48,7.48,0,0,0,2,.27,3.82,3.82,0,0,0,2.2-.51,1.87,1.87,0,0,0,.71-1.62,1.47,1.47,0,0,0-.82-1.42,6.06,6.06,0,0,0-2.61-.42h-1.08V68.29h1.1a5.12,5.12,0,0,0,2.42-.43,1.56,1.56,0,0,0,.76-1.48c0-1.08-.67-1.62-2-1.62a4.56,4.56,0,0,0-1.43.24,6.84,6.84,0,0,0-1.61.8l-1.39-2.07a7.77,7.77,0,0,1,4.64-1.4,6,6,0,0,1,3.49.89A2.89,2.89,0,0,1,343.78,65.72Z" style="fill: #314041"/>
    <path d="M347.17,76.75l5.34-11.67h-7V62.55h10.2v1.89l-5.38,12.31Z" style="fill: #314041"/>
    <path d="M363.71,66.78a5.44,5.44,0,0,1-.87,3.36,3,3,0,0,1-2.54,1.12,3,3,0,0,1-2.48-1.15,5.46,5.46,0,0,1-.87-3.33q0-4.45,3.35-4.45a3,3,0,0,1,2.53,1.15A5.4,5.4,0,0,1,363.71,66.78Zm-4.31,0a5.72,5.72,0,0,0,.22,1.85c.14.4.38.61.7.61.62,0,.94-.82.94-2.46s-.32-2.43-.94-2.43c-.32,0-.56.2-.7.6A5.58,5.58,0,0,0,359.4,66.79Zm11-4.26-7.89,14.22h-2.33l7.88-14.22Zm3.27,9.93a5.43,5.43,0,0,1-.87,3.35,3,3,0,0,1-2.54,1.12,2.93,2.93,0,0,1-2.48-1.15,5.45,5.45,0,0,1-.87-3.32q0-4.45,3.35-4.45a3,3,0,0,1,2.53,1.15A5.4,5.4,0,0,1,373.67,72.46Zm-4.31,0a5.72,5.72,0,0,0,.22,1.85c.14.4.38.61.7.61q.93,0,.93-2.46T370.28,70c-.32,0-.56.2-.7.6A5.58,5.58,0,0,0,369.36,72.47Z" style="fill: #314041"/>
  </g>
  <g>
    <path d="M455,174.66a4.52,4.52,0,0,1,3.28,1.16,4.12,4.12,0,0,1,1.22,3.17,4.61,4.61,0,0,1-1.46,3.66,6.18,6.18,0,0,1-4.21,1.29,8.25,8.25,0,0,1-3.83-.77v-2.6a8,8,0,0,0,1.79.67,8,8,0,0,0,1.94.26c1.83,0,2.75-.76,2.75-2.26s-1-2.15-2.85-2.15a7,7,0,0,0-1.14.1,8.46,8.46,0,0,0-1,.22l-1.2-.64.54-7.25h7.71v2.55h-5.08l-.26,2.79.34-.06A6.21,6.21,0,0,1,455,174.66Z" style="fill: #314041"/>
    <path d="M467.76,173.76a5.47,5.47,0,0,1-.86,3.36,3,3,0,0,1-2.54,1.13,2.93,2.93,0,0,1-2.48-1.16,5.35,5.35,0,0,1-.88-3.33q0-4.44,3.36-4.44a3,3,0,0,1,2.52,1.15A5.32,5.32,0,0,1,467.76,173.76Zm-4.31,0a6,6,0,0,0,.22,1.85c.15.4.38.6.71.6.62,0,.93-.81.93-2.45s-.31-2.43-.93-2.43c-.33,0-.56.2-.71.6A5.87,5.87,0,0,0,463.45,173.78Zm11-4.26-7.89,14.22h-2.33l7.89-14.22Zm3.27,9.92a5.39,5.39,0,0,1-.87,3.35,3,3,0,0,1-2.53,1.13,2.93,2.93,0,0,1-2.48-1.16,5.34,5.34,0,0,1-.88-3.32q0-4.44,3.36-4.44a3,3,0,0,1,2.52,1.15A5.32,5.32,0,0,1,477.72,179.44Zm-4.31,0a5.72,5.72,0,0,0,.22,1.85c.15.4.38.6.71.6.62,0,.93-.81.93-2.45S475,177,474.34,177c-.33,0-.56.2-.71.6A5.58,5.58,0,0,0,473.41,179.46Z" style="fill: #314041"/>
  </g>
  <circle cx="63.63" cy="193.6" r="6.06" style="fill: #fff;stroke: #304041;stroke-linecap: round;stroke-linejoin: round;stroke-width: 2.25px"/>
  <circle cx="158.4" cy="119.33" r="6.06" style="fill: #fff;stroke: #304041;stroke-linecap: round;stroke-linejoin: round;stroke-width: 2.25px"/>
  <circle cx="255.88" cy="136.81" r="6.06" style="fill: #fff;stroke: #304041;stroke-linecap: round;stroke-linejoin: round;stroke-width: 2.25px"/>
  <circle cx="352.38" cy="91.41" r="6.06" style="fill: #fff;stroke: #304041;stroke-linecap: round;stroke-linejoin: round;stroke-width: 2.25px"/>
  <circle cx="449.38" cy="201.01" r="6.06" style="fill: #fff;stroke: #304041;stroke-linecap: round;stroke-linejoin: round;stroke-width: 2.25px"/>
</svg>
