<svg id="Layer_1" data-name="Layer 1" xmlns="http://www.w3.org/2000/svg" viewBox="0 0 511 271">
  <title>insurance_portfolio</title>
  <g style="opacity: 0.1">
    <polyline points="63.39 219.31 160.31 94.77 256.21 142.75 352.12 133.56 448.02 214.2" style="fill: none;stroke: #304041;stroke-linecap: round;stroke-linejoin: round;stroke-width: 2.25px"/>
  </g>
  <polyline points="63.39 207.31 160.31 82.77 256.21 130.75 352.12 121.56 448.02 202.2" style="fill: none;stroke: #304041;stroke-linecap: round;stroke-linejoin: round;stroke-width: 2.25px"/>
  <g>
    <path d="M43.74,182.91a3.36,3.36,0,0,1-.81,2.27,4.17,4.17,0,0,1-2.27,1.28v.06a4.54,4.54,0,0,1,2.61,1,2.94,2.94,0,0,1,.89,2.24,3.81,3.81,0,0,1-1.49,3.2,6.87,6.87,0,0,1-4.25,1.14,10.21,10.21,0,0,1-4.11-.77v-2.55a10.26,10.26,0,0,0,1.82.68,7.9,7.9,0,0,0,2,.26,3.82,3.82,0,0,0,2.2-.51,1.84,1.84,0,0,0,.71-1.62,1.48,1.48,0,0,0-.82-1.42,6.06,6.06,0,0,0-2.61-.42H36.5v-2.3h1.1a5.1,5.1,0,0,0,2.42-.44,1.55,1.55,0,0,0,.76-1.48c0-1.08-.67-1.61-2-1.61a4.54,4.54,0,0,0-1.43.23,6.55,6.55,0,0,0-1.61.81l-1.39-2.07A7.71,7.71,0,0,1,39,179.52a6,6,0,0,1,3.49.9A2.89,2.89,0,0,1,43.74,182.91Z" style="fill: #314041"/>
    <path d="M52.3,184a5.44,5.44,0,0,1-.87,3.36,3,3,0,0,1-2.54,1.12,2.93,2.93,0,0,1-2.48-1.15,5.46,5.46,0,0,1-.87-3.33c0-3,1.12-4.45,3.35-4.45a3,3,0,0,1,2.53,1.16A5.37,5.37,0,0,1,52.3,184ZM48,184a5.65,5.65,0,0,0,.22,1.84c.14.41.38.61.7.61.62,0,.94-.82.94-2.45s-.32-2.43-.94-2.43c-.32,0-.56.2-.7.6A5.54,5.54,0,0,0,48,184Zm11-4.26L51.1,194H48.77l7.88-14.22Zm3.27,9.92a5.43,5.43,0,0,1-.87,3.35,3,3,0,0,1-2.54,1.12A2.93,2.93,0,0,1,56.37,193a5.45,5.45,0,0,1-.87-3.32c0-3,1.11-4.45,3.35-4.45a3,3,0,0,1,2.53,1.16A5.37,5.37,0,0,1,62.26,189.65Zm-4.31,0a5.65,5.65,0,0,0,.22,1.84c.14.41.38.61.7.61.62,0,.94-.82.94-2.45s-.32-2.43-.94-2.43c-.32,0-.56.2-.7.6A5.54,5.54,0,0,0,58,189.67Z" style="fill: #314041"/>
  </g>
  <g>
    <path d="M148.24,58.54a3.32,3.32,0,0,1-.81,2.26,4.09,4.09,0,0,1-2.26,1.29v.06a4.54,4.54,0,0,1,2.61,1,3,3,0,0,1,.88,2.24,3.81,3.81,0,0,1-1.49,3.2,6.87,6.87,0,0,1-4.25,1.14,10.17,10.17,0,0,1-4.1-.77V66.45a10.26,10.26,0,0,0,1.82.68,7.82,7.82,0,0,0,2,.26,3.8,3.8,0,0,0,2.2-.51,1.84,1.84,0,0,0,.71-1.62,1.46,1.46,0,0,0-.82-1.42,6,6,0,0,0-2.6-.42H141v-2.3h1.1a5.06,5.06,0,0,0,2.41-.44,1.56,1.56,0,0,0,.76-1.48c0-1.08-.67-1.61-2-1.61a4.48,4.48,0,0,0-1.42.23,6.38,6.38,0,0,0-1.61.81l-1.39-2.08a7.73,7.73,0,0,1,4.64-1.4,5.94,5.94,0,0,1,3.48.9A2.86,2.86,0,0,1,148.24,58.54Z" style="fill: #314041"/>
    <path d="M160.11,61.43q0,4.2-1.77,6.27A6.67,6.67,0,0,1,153,69.77a10.34,10.34,0,0,1-1.92-.13V67.22a6.91,6.91,0,0,0,1.71.21,6.05,6.05,0,0,0,2.48-.44,3.11,3.11,0,0,0,1.49-1.4,6.12,6.12,0,0,0,.6-2.61h-.12a3.4,3.4,0,0,1-1.3,1.29,4.23,4.23,0,0,1-1.85.37,3.75,3.75,0,0,1-2.93-1.19,4.82,4.82,0,0,1-1.07-3.32,4.93,4.93,0,0,1,1.3-3.61,4.72,4.72,0,0,1,3.53-1.33,5.13,5.13,0,0,1,2.76.74,4.83,4.83,0,0,1,1.82,2.15A8.11,8.11,0,0,1,160.11,61.43ZM155,57.6a1.79,1.79,0,0,0-1.46.65,2.84,2.84,0,0,0-.52,1.84,2.62,2.62,0,0,0,.47,1.64,1.75,1.75,0,0,0,1.45.6,2.23,2.23,0,0,0,1.57-.6,1.81,1.81,0,0,0,.65-1.37,3.12,3.12,0,0,0-.61-2A1.87,1.87,0,0,0,155,57.6Z" style="fill: #314041"/>
    <path d="M168.17,59.6a5.51,5.51,0,0,1-.86,3.36,3,3,0,0,1-2.54,1.12,2.92,2.92,0,0,1-2.48-1.15,5.39,5.39,0,0,1-.88-3.33c0-3,1.12-4.45,3.36-4.45a3,3,0,0,1,2.52,1.16A5.3,5.3,0,0,1,168.17,59.6Zm-4.31,0a5.94,5.94,0,0,0,.22,1.84c.15.41.38.61.71.61.62,0,.93-.82.93-2.45s-.31-2.43-.93-2.43c-.33,0-.56.2-.71.6A5.82,5.82,0,0,0,163.86,59.62Zm11-4.26L167,69.58h-2.33l7.89-14.22Zm3.27,9.92a5.43,5.43,0,0,1-.87,3.35,3,3,0,0,1-2.53,1.12,2.92,2.92,0,0,1-2.48-1.15,5.38,5.38,0,0,1-.88-3.32c0-3,1.12-4.45,3.36-4.45A3,3,0,0,1,177.25,62,5.3,5.3,0,0,1,178.13,65.28Zm-4.31,0a5.65,5.65,0,0,0,.22,1.84c.15.41.38.61.7.61.63,0,.94-.82.94-2.45s-.31-2.43-.94-2.43c-.32,0-.55.2-.7.6A5.5,5.5,0,0,0,173.82,65.3Z" style="fill: #314041"/>
  </g>
  <g>
    <path d="M248.56,114.92h-9.94v-2.09l3.57-3.61q1.58-1.62,2.07-2.25a5,5,0,0,0,.7-1.16,3,3,0,0,0,.21-1.11,1.59,1.59,0,0,0-.47-1.27,1.81,1.81,0,0,0-1.26-.42,3.52,3.52,0,0,0-1.6.38,8.18,8.18,0,0,0-1.63,1.08l-1.63-1.94a10,10,0,0,1,1.74-1.26,6.05,6.05,0,0,1,1.51-.57,7.83,7.83,0,0,1,1.83-.2A5.34,5.34,0,0,1,246,101a3.64,3.64,0,0,1,1.58,1.36,3.57,3.57,0,0,1,.57,2,4.86,4.86,0,0,1-.35,1.84,6.74,6.74,0,0,1-1.07,1.77,26.39,26.39,0,0,1-2.55,2.58l-1.83,1.72v.13h6.2Z" style="fill: #314041"/>
    <path d="M255.16,105.84a4.52,4.52,0,0,1,3.28,1.16,4.12,4.12,0,0,1,1.22,3.17,4.61,4.61,0,0,1-1.46,3.66,6.18,6.18,0,0,1-4.21,1.29,8.27,8.27,0,0,1-3.83-.77v-2.6a8,8,0,0,0,1.79.67,8,8,0,0,0,1.94.26c1.83,0,2.75-.76,2.75-2.26s-.95-2.15-2.85-2.15a7,7,0,0,0-1.14.1,8.46,8.46,0,0,0-1,.22l-1.2-.64.54-7.25h7.71v2.55h-5.08l-.26,2.79.34-.07A6.85,6.85,0,0,1,255.16,105.84Z" style="fill: #314041"/>
    <path d="M267.93,104.94a5.51,5.51,0,0,1-.86,3.36,3,3,0,0,1-2.54,1.13,2.93,2.93,0,0,1-2.48-1.16,5.35,5.35,0,0,1-.88-3.33q0-4.44,3.36-4.44a3,3,0,0,1,2.52,1.15A5.32,5.32,0,0,1,267.93,104.94Zm-4.31,0a6,6,0,0,0,.22,1.85c.15.4.38.6.71.6.62,0,.93-.81.93-2.45s-.31-2.43-.93-2.43c-.33,0-.56.2-.71.6A5.87,5.87,0,0,0,263.62,105Zm11-4.26-7.89,14.22H264.4l7.89-14.22Zm3.27,9.92A5.47,5.47,0,0,1,277,114a3,3,0,0,1-2.54,1.13,2.93,2.93,0,0,1-2.48-1.16,5.34,5.34,0,0,1-.88-3.32q0-4.44,3.36-4.44a3,3,0,0,1,2.52,1.15A5.32,5.32,0,0,1,277.89,110.62Zm-4.31,0a5.72,5.72,0,0,0,.22,1.85c.15.4.38.6.71.6.62,0,.93-.81.93-2.45s-.31-2.43-.93-2.43c-.33,0-.56.2-.71.6A5.58,5.58,0,0,0,273.58,110.64Z" style="fill: #314041"/>
  </g>
  <g>
    <path d="M345.37,108.71h-9.94v-2.1L339,103c1.06-1.09,1.75-1.84,2.07-2.26a4.47,4.47,0,0,0,.7-1.16,3,3,0,0,0,.22-1.11,1.59,1.59,0,0,0-.48-1.27,1.8,1.8,0,0,0-1.25-.42,3.66,3.66,0,0,0-1.61.38A7.86,7.86,0,0,0,337,98.25l-1.64-1.94a11.24,11.24,0,0,1,1.74-1.26,6.2,6.2,0,0,1,1.51-.57,7.89,7.89,0,0,1,1.83-.2,5.31,5.31,0,0,1,2.35.49,3.79,3.79,0,0,1,1.59,1.36,3.65,3.65,0,0,1,.56,2,4.94,4.94,0,0,1-.34,1.85,7.16,7.16,0,0,1-1.07,1.76,28.05,28.05,0,0,1-2.56,2.58L339.18,106v.14h6.19Z" style="fill: #314041"/>
    <path d="M351.7,94.3a5.37,5.37,0,0,1,3.29.93,2.94,2.94,0,0,1,1.25,2.5,3.31,3.31,0,0,1-.6,2,5.23,5.23,0,0,1-1.94,1.52A7,7,0,0,1,356,103a3.48,3.48,0,0,1-.68,4.85,5.72,5.72,0,0,1-3.61,1.07,6,6,0,0,1-3.66-1,3.3,3.3,0,0,1-1.34-2.81,3.74,3.74,0,0,1,.65-2.16,5.33,5.33,0,0,1,2.08-1.67,5.27,5.27,0,0,1-1.75-1.64,3.56,3.56,0,0,1-.54-1.91,2.94,2.94,0,0,1,1.27-2.48A5.41,5.41,0,0,1,351.7,94.3Zm-2.22,10.62a1.57,1.57,0,0,0,.59,1.3,2.43,2.43,0,0,0,1.59.47,2.51,2.51,0,0,0,1.68-.48,1.59,1.59,0,0,0,.55-1.27,1.73,1.73,0,0,0-.55-1.22,7,7,0,0,0-1.78-1.21C350.18,103.14,349.48,104,349.48,104.92Zm2.2-8.42a1.9,1.9,0,0,0-1.24.39A1.34,1.34,0,0,0,350,98a1.59,1.59,0,0,0,.38,1,4,4,0,0,0,1.35,1A3.75,3.75,0,0,0,353,99a1.62,1.62,0,0,0,.38-1.08,1.29,1.29,0,0,0-.48-1.06A2,2,0,0,0,351.68,96.5Z" style="fill: #314041"/>
    <path d="M364.74,98.73a5.44,5.44,0,0,1-.86,3.36,3,3,0,0,1-2.54,1.12,2.92,2.92,0,0,1-2.48-1.15,5.46,5.46,0,0,1-.87-3.33c0-3,1.11-4.45,3.35-4.45a3,3,0,0,1,2.52,1.15A5.34,5.34,0,0,1,364.74,98.73Zm-4.3,0a5.69,5.69,0,0,0,.22,1.84c.14.4.38.61.7.61.62,0,.93-.82.93-2.45s-.31-2.44-.93-2.44c-.32,0-.56.2-.7.6A5.61,5.61,0,0,0,360.44,98.75Zm11-4.26-7.89,14.22h-2.34l7.89-14.22Zm3.26,9.92a5.43,5.43,0,0,1-.86,3.35,3,3,0,0,1-2.54,1.12,2.92,2.92,0,0,1-2.48-1.15,5.45,5.45,0,0,1-.88-3.32q0-4.45,3.36-4.45a3,3,0,0,1,2.52,1.15A5.34,5.34,0,0,1,374.7,104.41Zm-4.3,0a6,6,0,0,0,.21,1.84c.15.4.39.61.71.61.62,0,.93-.82.93-2.45s-.31-2.44-.93-2.44c-.32,0-.56.2-.71.6A6,6,0,0,0,370.4,104.43Z" style="fill: #314041"/>
  </g>
  <g>
    <path d="M450.48,177.59h-1.71v2.94h-2.94v-2.94h-6.06V175.5l6.23-9.19h2.77v8.94h1.71Zm-4.65-2.34v-2.41c0-.4,0-1,.05-1.75s.06-1.21.08-1.33h-.08a10.29,10.29,0,0,1-.86,1.55l-2.61,3.94Z" style="fill: #314041"/>
    <path d="M458.17,170.55a5.45,5.45,0,0,1-.87,3.37,3,3,0,0,1-2.54,1.12,3,3,0,0,1-2.48-1.15,5.47,5.47,0,0,1-.87-3.34q0-4.44,3.35-4.44a3,3,0,0,1,2.53,1.15A5.39,5.39,0,0,1,458.17,170.55Zm-4.31,0a5.72,5.72,0,0,0,.22,1.85c.14.4.38.61.7.61.62,0,.94-.82.94-2.46s-.32-2.43-.94-2.43c-.32,0-.56.2-.7.6A5.58,5.58,0,0,0,453.86,170.57Zm11-4.26L457,180.53h-2.33l7.89-14.22Zm3.27,9.92a5.44,5.44,0,0,1-.87,3.36,3,3,0,0,1-2.54,1.12,3,3,0,0,1-2.48-1.15,5.46,5.46,0,0,1-.87-3.33q0-4.44,3.35-4.44a3,3,0,0,1,2.53,1.15A5.39,5.39,0,0,1,468.13,176.23Zm-4.31,0a5.72,5.72,0,0,0,.22,1.85c.14.4.38.61.7.61.62,0,.94-.82.94-2.46s-.32-2.43-.94-2.43c-.32,0-.56.2-.7.6A5.58,5.58,0,0,0,463.82,176.25Z" style="fill: #314041"/>
  </g>
  <circle cx="63.39" cy="205.89" r="6.06" style="fill: #fff;stroke: #304041;stroke-linecap: round;stroke-linejoin: round;stroke-width: 2.25px"/>
  <circle cx="160.31" cy="82.77" r="6.06" style="fill: #fff;stroke: #304041;stroke-linecap: round;stroke-linejoin: round;stroke-width: 2.25px"/>
  <circle cx="255.71" cy="131.01" r="6.06" style="fill: #fff;stroke: #304041;stroke-linecap: round;stroke-linejoin: round;stroke-width: 2.25px"/>
  <circle cx="352.01" cy="122.38" r="6.06" style="fill: #fff;stroke: #304041;stroke-linecap: round;stroke-linejoin: round;stroke-width: 2.25px"/>
  <circle cx="448.02" cy="202.2" r="6.06" style="fill: #fff;stroke: #304041;stroke-linecap: round;stroke-linejoin: round;stroke-width: 2.25px"/>
</svg>
