<svg id="Layer_1" data-name="Layer 1" xmlns="http://www.w3.org/2000/svg" viewBox="0 0 511 271">
  <title>insurance_process</title>
  <g style="opacity: 0.1">
    <polyline points="63.39 210.12 160.31 137.64 256.21 180.52 352.12 104.97 448.02 171.33" style="fill: none;stroke: #304041;stroke-linecap: round;stroke-linejoin: round;stroke-width: 2.25px"/>
  </g>
  <polyline points="63.39 198.12 160.31 125.64 256.21 168.52 352.12 92.97 448.02 159.33" style="fill: none;stroke: #304041;stroke-linecap: round;stroke-linejoin: round;stroke-width: 2.25px"/>
  <g>
    <path d="M39.3,177c0-2.82.59-4.91,1.78-6.29a6.7,6.7,0,0,1,5.35-2.06,9.37,9.37,0,0,1,1.9.15v2.4a7.66,7.66,0,0,0-1.71-.19,5.88,5.88,0,0,0-2.52.46,3.18,3.18,0,0,0-1.47,1.38,6.47,6.47,0,0,0-.57,2.6h.13a3.3,3.3,0,0,1,3.08-1.65,3.85,3.85,0,0,1,3,1.19,4.76,4.76,0,0,1,1.08,3.31,4.93,4.93,0,0,1-1.29,3.6,4.69,4.69,0,0,1-3.56,1.33,5.09,5.09,0,0,1-2.75-.73,4.64,4.64,0,0,1-1.8-2.13A8,8,0,0,1,39.3,177Zm5.13,3.83a1.77,1.77,0,0,0,1.48-.65,2.84,2.84,0,0,0,.52-1.84,2.56,2.56,0,0,0-.48-1.64,1.76,1.76,0,0,0-1.46-.6,2.21,2.21,0,0,0-1.56.6,1.81,1.81,0,0,0-.65,1.38,3.15,3.15,0,0,0,.61,1.95A1.88,1.88,0,0,0,44.43,180.8Z" style="fill: #314041"/>
    <path d="M57.34,173a5.51,5.51,0,0,1-.86,3.36,3,3,0,0,1-2.54,1.12,2.92,2.92,0,0,1-2.48-1.15,5.39,5.39,0,0,1-.88-3.33q0-4.46,3.36-4.45a3,3,0,0,1,2.52,1.16A5.28,5.28,0,0,1,57.34,173Zm-4.31,0a5.94,5.94,0,0,0,.22,1.84c.15.41.38.61.71.61.62,0,.93-.82.93-2.45s-.31-2.43-.93-2.43c-.33,0-.56.2-.71.59A5.89,5.89,0,0,0,53,173.05Zm11-4.26L56.14,183H53.81l7.89-14.22Zm3.27,9.92a5.43,5.43,0,0,1-.87,3.35,3,3,0,0,1-2.53,1.12A2.92,2.92,0,0,1,61.42,182a5.38,5.38,0,0,1-.88-3.32c0-3,1.12-4.45,3.36-4.45a3,3,0,0,1,2.52,1.16A5.28,5.28,0,0,1,67.3,178.71Zm-4.31,0a5.65,5.65,0,0,0,.22,1.84c.15.41.38.61.7.61.63,0,.94-.82.94-2.45s-.31-2.43-.94-2.43c-.32,0-.55.2-.7.59A5.61,5.61,0,0,0,63,178.73Z" style="fill: #314041"/>
  </g>
  <g>
    <path d="M151.18,110.21h-9.94v-2.09l3.57-3.61a30,30,0,0,0,2.07-2.25,4.82,4.82,0,0,0,.7-1.16,2.85,2.85,0,0,0,.22-1.11,1.65,1.65,0,0,0-.47-1.28,1.84,1.84,0,0,0-1.26-.41,3.56,3.56,0,0,0-1.61.38,7.86,7.86,0,0,0-1.62,1.08l-1.64-1.94a10.77,10.77,0,0,1,1.74-1.27,6.62,6.62,0,0,1,1.51-.56,7.44,7.44,0,0,1,1.83-.2,5.45,5.45,0,0,1,2.35.48,3.8,3.8,0,0,1,1.59,1.36,3.62,3.62,0,0,1,.56,2,4.89,4.89,0,0,1-.34,1.84,7.39,7.39,0,0,1-1.07,1.77,26.61,26.61,0,0,1-2.55,2.57L145,107.55v.13h6.19Z" style="fill: #314041"/>
    <path d="M154,110.21l5.34-11.67h-7V96h10.2V97.9l-5.38,12.31Z" style="fill: #314041"/>
    <path d="M170.56,100.23a5.44,5.44,0,0,1-.87,3.36,3,3,0,0,1-2.54,1.13,2.94,2.94,0,0,1-2.48-1.16,5.46,5.46,0,0,1-.87-3.33q0-4.44,3.35-4.44a3,3,0,0,1,2.53,1.15A5.37,5.37,0,0,1,170.56,100.23Zm-4.31,0a5.65,5.65,0,0,0,.22,1.84c.14.41.38.61.7.61.62,0,.94-.81.94-2.45s-.32-2.43-.94-2.43c-.32,0-.56.2-.7.6A5.58,5.58,0,0,0,166.25,100.25Zm11-4.26-7.89,14.22H167L174.91,96Zm3.27,9.92a5.41,5.41,0,0,1-.87,3.35,3,3,0,0,1-2.54,1.13,2.93,2.93,0,0,1-2.48-1.16,5.43,5.43,0,0,1-.87-3.32c0-3,1.11-4.44,3.35-4.44a3,3,0,0,1,2.53,1.15A5.37,5.37,0,0,1,180.52,105.91Zm-4.31,0a5.65,5.65,0,0,0,.22,1.84c.14.41.38.61.7.61.62,0,.93-.82.93-2.45s-.31-2.43-.93-2.43c-.32,0-.56.2-.7.6A5.58,5.58,0,0,0,176.21,105.93Z" style="fill: #314041"/>
  </g>
  <g>
    <path d="M241.06,153.09h-3v-8.23l0-1.35,0-1.48c-.5.5-.84.83-1,1l-1.63,1.31L234,142.52l4.58-3.65h2.47Z" style="fill: #314041"/>
    <path d="M255.26,150.15h-1.71v2.94h-2.94v-2.94h-6.07v-2.1l6.24-9.18h2.77v8.94h1.71Zm-4.65-2.34V145.4c0-.4,0-1,0-1.75s.06-1.21.08-1.33h-.08a10.35,10.35,0,0,1-.87,1.55l-2.6,3.94Z" style="fill: #314041"/>
    <path d="M262.94,143.11a5.44,5.44,0,0,1-.86,3.36,3,3,0,0,1-2.54,1.13,2.93,2.93,0,0,1-2.48-1.16,5.42,5.42,0,0,1-.87-3.33c0-3,1.11-4.44,3.35-4.44a3,3,0,0,1,2.52,1.15A5.32,5.32,0,0,1,262.94,143.11Zm-4.3,0a5.72,5.72,0,0,0,.22,1.85c.14.4.37.6.7.6.62,0,.93-.81.93-2.45s-.31-2.43-.93-2.43c-.33,0-.56.2-.7.6A5.58,5.58,0,0,0,258.64,143.13Zm11-4.26-7.89,14.22h-2.34l7.89-14.22Zm3.26,9.92a5.47,5.47,0,0,1-.86,3.35,3,3,0,0,1-2.54,1.13,2.93,2.93,0,0,1-2.48-1.16,5.41,5.41,0,0,1-.88-3.32q0-4.44,3.36-4.44A3,3,0,0,1,272,145.5,5.32,5.32,0,0,1,272.9,148.79Zm-4.3,0a6.07,6.07,0,0,0,.21,1.85c.15.4.38.6.71.6.62,0,.93-.81.93-2.45s-.31-2.43-.93-2.43c-.33,0-.56.2-.71.6A5.92,5.92,0,0,0,268.6,148.81Z" style="fill: #314041"/>
  </g>
  <g>
    <path d="M341.85,69.47a3.34,3.34,0,0,1-.81,2.27A4.17,4.17,0,0,1,338.78,73v.06a4.48,4.48,0,0,1,2.6,1,2.92,2.92,0,0,1,.89,2.24,3.79,3.79,0,0,1-1.49,3.19,6.8,6.8,0,0,1-4.25,1.15,10.42,10.42,0,0,1-4.11-.77V77.38a9.14,9.14,0,0,0,1.82.68,7.46,7.46,0,0,0,2,.26,3.91,3.91,0,0,0,2.2-.5,1.87,1.87,0,0,0,.71-1.63,1.49,1.49,0,0,0-.82-1.42,6.06,6.06,0,0,0-2.61-.41h-1.08V72.05h1.1a5.12,5.12,0,0,0,2.42-.43,1.57,1.57,0,0,0,.76-1.49c0-1.07-.67-1.61-2-1.61a4.85,4.85,0,0,0-1.43.23,7.34,7.34,0,0,0-1.61.81l-1.39-2.07a7.71,7.71,0,0,1,4.64-1.4,6,6,0,0,1,3.49.89A2.89,2.89,0,0,1,341.85,69.47Z" style="fill: #314041"/>
    <path d="M345.24,80.51l5.34-11.67h-7V66.31h10.2V68.2l-5.38,12.31Z" style="fill: #314041"/>
    <path d="M361.78,70.53a5.44,5.44,0,0,1-.87,3.36A3,3,0,0,1,358.37,75a2.94,2.94,0,0,1-2.48-1.16,5.42,5.42,0,0,1-.87-3.33q0-4.44,3.35-4.44a3,3,0,0,1,2.53,1.15A5.39,5.39,0,0,1,361.78,70.53Zm-4.31,0a5.72,5.72,0,0,0,.22,1.85c.14.4.38.6.7.6.63,0,.94-.81.94-2.45s-.31-2.43-.94-2.43c-.32,0-.56.2-.7.6A5.58,5.58,0,0,0,357.47,70.55Zm11-4.26-7.89,14.22h-2.33l7.88-14.22Zm3.27,9.92a5.41,5.41,0,0,1-.87,3.35,3,3,0,0,1-2.54,1.13,2.94,2.94,0,0,1-2.48-1.16,5.41,5.41,0,0,1-.87-3.32q0-4.44,3.35-4.44a3,3,0,0,1,2.53,1.15A5.39,5.39,0,0,1,371.74,76.21Zm-4.31,0a5.72,5.72,0,0,0,.22,1.85c.14.4.38.6.7.6.62,0,.94-.81.94-2.45s-.32-2.43-.94-2.43c-.32,0-.56.2-.7.6A5.58,5.58,0,0,0,367.43,76.23Z" style="fill: #314041"/>
  </g>
  <g>
    <path d="M447,145.55h-3v-8.23l0-1.35,0-1.48a11.52,11.52,0,0,1-1,1l-1.63,1.31-1.45-1.8,4.58-3.65H447Z" style="fill: #314041"/>
    <path d="M452.32,145.55l5.34-11.67h-7v-2.53h10.2v1.88l-5.38,12.32Z" style="fill: #314041"/>
    <path d="M468.86,135.57a5.44,5.44,0,0,1-.87,3.36,3,3,0,0,1-2.54,1.12A2.93,2.93,0,0,1,463,138.9a5.46,5.46,0,0,1-.87-3.33c0-3,1.11-4.45,3.35-4.45a3,3,0,0,1,2.53,1.16A5.35,5.35,0,0,1,468.86,135.57Zm-4.31,0a5.65,5.65,0,0,0,.22,1.84c.14.41.38.61.7.61.62,0,.93-.82.93-2.45s-.31-2.43-.93-2.43c-.32,0-.56.2-.7.6A5.5,5.5,0,0,0,464.55,135.59Zm11-4.26-7.89,14.22h-2.34l7.89-14.22Zm3.27,9.92a5.43,5.43,0,0,1-.87,3.35,3,3,0,0,1-2.54,1.12,2.92,2.92,0,0,1-2.48-1.15,5.45,5.45,0,0,1-.87-3.32c0-3,1.11-4.45,3.35-4.45a3,3,0,0,1,2.52,1.16A5.28,5.28,0,0,1,478.82,141.25Zm-4.31,0a5.65,5.65,0,0,0,.22,1.84c.14.41.38.61.7.61.62,0,.93-.82.93-2.45s-.31-2.43-.93-2.43a.75.75,0,0,0-.7.59A5.61,5.61,0,0,0,474.51,141.27Z" style="fill: #314041"/>
  </g>
  <circle cx="63.39" cy="198.12" r="6.06" style="fill: #fff;stroke: #304041;stroke-linecap: round;stroke-linejoin: round;stroke-width: 2.25px"/>
  <circle cx="160.31" cy="125.64" r="6.06" style="fill: #fff;stroke: #304041;stroke-linecap: round;stroke-linejoin: round;stroke-width: 2.25px"/>
  <circle cx="256.16" cy="168.21" r="6.06" style="fill: #fff;stroke: #304041;stroke-linecap: round;stroke-linejoin: round;stroke-width: 2.25px"/>
  <circle cx="352.01" cy="92.97" r="6.06" style="fill: #fff;stroke: #304041;stroke-linecap: round;stroke-linejoin: round;stroke-width: 2.25px"/>
  <circle cx="448.02" cy="159.15" r="6.06" style="fill: #fff;stroke: #304041;stroke-linecap: round;stroke-linejoin: round;stroke-width: 2.25px"/>
</svg>
