<svg id="Layer_1" data-name="Layer 1" xmlns="http://www.w3.org/2000/svg" viewBox="0 0 511 271">
  <title>insurance_structural</title>
  <g style="opacity: 0.1">
    <polyline points="63.39 205.02 160.31 71.29 256.21 180.52 352.12 133.56 448.02 214.2" style="fill: none;stroke: #304041;stroke-linecap: round;stroke-linejoin: round;stroke-width: 2.25px"/>
  </g>
  <polyline points="63.39 193.02 160.31 59.29 256.21 168.52 352.12 121.56 448.02 202.2" style="fill: none;stroke: #304041;stroke-linecap: round;stroke-linejoin: round;stroke-width: 2.25px"/>
  <g>
    <path d="M29.34,177.41l5.34-11.67h-7v-2.53h10.2v1.89l-5.38,12.31Z" style="fill: #314041"/>
    <path d="M45.87,167.44a5.39,5.39,0,0,1-.86,3.35,3,3,0,0,1-2.54,1.13A3,3,0,0,1,40,170.77a5.46,5.46,0,0,1-.88-3.33q0-4.45,3.36-4.45A3,3,0,0,1,45,164.14,5.34,5.34,0,0,1,45.87,167.44Zm-4.3,0a6.07,6.07,0,0,0,.21,1.85c.15.4.38.6.71.6.62,0,.93-.81.93-2.45s-.31-2.43-.93-2.43c-.33,0-.56.2-.71.6A5.92,5.92,0,0,0,41.57,167.45Zm11-4.26-7.89,14.22H42.34l7.89-14.22Zm3.26,9.92a5.51,5.51,0,0,1-.86,3.36,3,3,0,0,1-2.54,1.12A3,3,0,0,1,50,176.44a5.46,5.46,0,0,1-.88-3.33q0-4.44,3.36-4.44A3,3,0,0,1,55,169.82,5.32,5.32,0,0,1,55.83,173.11Zm-4.3,0a6.07,6.07,0,0,0,.21,1.85c.15.4.38.6.71.6.62,0,.93-.81.93-2.45s-.31-2.43-.93-2.43c-.33,0-.56.2-.71.6A5.92,5.92,0,0,0,51.53,173.13Z" style="fill: #314041"/>
  </g>
  <g>
    <path d="M151.5,41h-1.71V44h-2.93V41h-6.07V38.92L147,29.73h2.77v8.94h1.71Zm-4.64-2.34V36.26c0-.4,0-1,0-1.75s.06-1.21.08-1.33h-.08a11.25,11.25,0,0,1-.86,1.55l-2.61,3.94Z" style="fill: #314041"/>
    <path d="M152.52,37.91q0-4.21,1.78-6.28a6.69,6.69,0,0,1,5.34-2.06,10.43,10.43,0,0,1,1.91.14v2.41a7.81,7.81,0,0,0-1.71-.2,5.87,5.87,0,0,0-2.52.47,3.13,3.13,0,0,0-1.47,1.38,6.47,6.47,0,0,0-.57,2.6h.12a3.32,3.32,0,0,1,3.09-1.66,3.8,3.8,0,0,1,3,1.2,4.76,4.76,0,0,1,1.08,3.31,5,5,0,0,1-1.28,3.6,4.71,4.71,0,0,1-3.56,1.33,5.15,5.15,0,0,1-2.75-.73,4.82,4.82,0,0,1-1.81-2.13A8.22,8.22,0,0,1,152.52,37.91Zm5.13,3.84a1.79,1.79,0,0,0,1.48-.65,2.92,2.92,0,0,0,.51-1.84,2.54,2.54,0,0,0-.48-1.64,1.74,1.74,0,0,0-1.45-.6,2.24,2.24,0,0,0-1.56.59A1.84,1.84,0,0,0,155.5,39a3.1,3.1,0,0,0,.61,2A1.86,1.86,0,0,0,157.65,41.75Z" style="fill: #314041"/>
    <path d="M170.56,34a5.39,5.39,0,0,1-.87,3.35,3,3,0,0,1-2.54,1.13,3,3,0,0,1-2.48-1.15A5.46,5.46,0,0,1,163.8,34q0-4.45,3.35-4.45a3,3,0,0,1,2.53,1.15A5.4,5.4,0,0,1,170.56,34Zm-4.31,0a5.72,5.72,0,0,0,.22,1.85c.14.4.38.6.7.6.62,0,.94-.81.94-2.45s-.32-2.43-.94-2.43c-.32,0-.56.2-.7.6A5.58,5.58,0,0,0,166.25,34Zm11-4.26L169.36,44H167l7.88-14.22Zm3.27,9.92a5.44,5.44,0,0,1-.87,3.36,3,3,0,0,1-2.54,1.12A3,3,0,0,1,174.63,43a5.46,5.46,0,0,1-.87-3.33q0-4.44,3.35-4.44a3,3,0,0,1,2.53,1.15A5.39,5.39,0,0,1,180.52,39.65Zm-4.31,0a5.72,5.72,0,0,0,.22,1.85c.14.4.38.6.7.6.62,0,.94-.81.94-2.45s-.32-2.43-.94-2.43c-.32,0-.56.2-.7.6A5.58,5.58,0,0,0,176.21,39.67Z" style="fill: #314041"/>
  </g>
  <g>
    <path d="M250.64,149.33h-3V141.1l0-1.35.05-1.48c-.5.5-.85.83-1,1L245,140.57l-1.44-1.81,4.58-3.65h2.47Z" style="fill: #314041"/>
    <path d="M264.84,146.39h-1.71v2.94h-2.94v-2.94h-6.07v-2.1l6.23-9.18h2.78v8.94h1.71Zm-4.65-2.34v-2.41c0-.4,0-1,.05-1.75s.05-1.21.07-1.33h-.07a10.35,10.35,0,0,1-.87,1.55l-2.61,3.94Z" style="fill: #314041"/>
    <path d="M272.52,139.35a5.4,5.4,0,0,1-.87,3.36,3,3,0,0,1-2.53,1.13,3,3,0,0,1-2.48-1.15,5.4,5.4,0,0,1-.88-3.34q0-4.44,3.36-4.44a3,3,0,0,1,2.52,1.15A5.32,5.32,0,0,1,272.52,139.35Zm-4.31,0a5.72,5.72,0,0,0,.22,1.85c.15.4.38.6.71.6.62,0,.93-.81.93-2.45s-.31-2.43-.93-2.43c-.33,0-.56.2-.71.6A5.58,5.58,0,0,0,268.21,139.37Zm11-4.26-7.89,14.22H269l7.89-14.22Zm3.27,9.92a5.39,5.39,0,0,1-.87,3.35,3,3,0,0,1-2.53,1.13,2.93,2.93,0,0,1-2.48-1.16,5.34,5.34,0,0,1-.88-3.32q0-4.44,3.36-4.44a3,3,0,0,1,2.52,1.15A5.32,5.32,0,0,1,282.48,145Zm-4.31,0a5.72,5.72,0,0,0,.22,1.85c.15.4.38.6.71.6.62,0,.93-.81.93-2.45s-.31-2.43-.93-2.43c-.33,0-.56.2-.71.6A5.58,5.58,0,0,0,278.17,145.05Z" style="fill: #314041"/>
  </g>
  <g>
    <path d="M345.37,107.14h-9.94v-2.09l3.57-3.61a30,30,0,0,0,2.07-2.25,4.64,4.64,0,0,0,.7-1.16,2.85,2.85,0,0,0,.22-1.11,1.62,1.62,0,0,0-.47-1.27,1.84,1.84,0,0,0-1.26-.42,3.53,3.53,0,0,0-1.61.38A7.86,7.86,0,0,0,337,96.69l-1.64-1.94a10,10,0,0,1,1.74-1.26,6.2,6.2,0,0,1,1.51-.57,7.89,7.89,0,0,1,1.83-.2,5.31,5.31,0,0,1,2.35.49,3.72,3.72,0,0,1,1.59,1.36,3.65,3.65,0,0,1,.56,2,4.86,4.86,0,0,1-.34,1.84,7,7,0,0,1-1.07,1.77,28.05,28.05,0,0,1-2.56,2.58l-1.82,1.72v.13h6.19Z" style="fill: #314041"/>
    <path d="M351.7,92.74a5.42,5.42,0,0,1,3.3.93,3,3,0,0,1,1.24,2.5,3.28,3.28,0,0,1-.6,1.94,5,5,0,0,1-1.94,1.52,7,7,0,0,1,2.29,1.79,3.48,3.48,0,0,1-.68,4.85,5.72,5.72,0,0,1-3.61,1.07,6,6,0,0,1-3.66-1,3.32,3.32,0,0,1-1.34-2.82,3.74,3.74,0,0,1,.65-2.16,5.4,5.4,0,0,1,2.08-1.66,5.27,5.27,0,0,1-1.75-1.64,3.59,3.59,0,0,1-.54-1.92,2.93,2.93,0,0,1,1.27-2.47A5.35,5.35,0,0,1,351.7,92.74Zm-2.21,10.62a1.56,1.56,0,0,0,.58,1.3,2.49,2.49,0,0,0,1.59.47,2.51,2.51,0,0,0,1.68-.48,1.6,1.6,0,0,0,.55-1.27,1.71,1.71,0,0,0-.55-1.22,6.76,6.76,0,0,0-1.78-1.21C350.18,101.58,349.49,102.39,349.49,103.36Zm2.19-8.42a1.9,1.9,0,0,0-1.24.39,1.31,1.31,0,0,0-.47,1.06,1.63,1.63,0,0,0,.38,1,4,4,0,0,0,1.35.95,3.75,3.75,0,0,0,1.33-.91,1.66,1.66,0,0,0,.38-1.08,1.28,1.28,0,0,0-.48-1.06A2,2,0,0,0,351.68,94.94Z" style="fill: #314041"/>
    <path d="M364.75,97.16a5.44,5.44,0,0,1-.87,3.36,3,3,0,0,1-2.54,1.13,2.93,2.93,0,0,1-2.48-1.16,5.42,5.42,0,0,1-.87-3.33q0-4.44,3.35-4.44a3,3,0,0,1,2.52,1.15A5.32,5.32,0,0,1,364.75,97.16Zm-4.31,0a5.72,5.72,0,0,0,.22,1.85c.14.4.38.6.7.6.62,0,.93-.81.93-2.45s-.31-2.43-.93-2.43c-.32,0-.56.2-.7.6A5.58,5.58,0,0,0,360.44,97.18Zm11-4.26-7.89,14.22h-2.34l7.89-14.22Zm3.26,9.92a5.41,5.41,0,0,1-.86,3.35,3,3,0,0,1-2.54,1.13,2.93,2.93,0,0,1-2.48-1.16,5.41,5.41,0,0,1-.88-3.32q0-4.44,3.36-4.44a3,3,0,0,1,2.52,1.15A5.32,5.32,0,0,1,374.7,102.84Zm-4.3,0a6.07,6.07,0,0,0,.21,1.85c.15.4.39.6.71.6.62,0,.93-.81.93-2.45s-.31-2.43-.93-2.43c-.32,0-.56.2-.71.6A5.92,5.92,0,0,0,370.4,102.86Z" style="fill: #314041"/>
  </g>
  <g>
    <path d="M450.48,184h-1.71v3h-2.94v-3h-6.06v-2.09l6.23-9.18h2.77v8.94h1.71Zm-4.65-2.33v-2.41c0-.41,0-1,.05-1.76s.06-1.2.08-1.33h-.08a12,12,0,0,1-.86,1.56l-2.61,3.94Z" style="fill: #314041"/>
    <path d="M458.17,177a5.44,5.44,0,0,1-.87,3.36,3,3,0,0,1-2.54,1.12,2.93,2.93,0,0,1-2.48-1.15,5.46,5.46,0,0,1-.87-3.33c0-3,1.12-4.45,3.35-4.45a3,3,0,0,1,2.53,1.16A5.37,5.37,0,0,1,458.17,177Zm-4.31,0a5.65,5.65,0,0,0,.22,1.84c.14.41.38.61.7.61.62,0,.94-.82.94-2.45s-.32-2.43-.94-2.43c-.32,0-.56.2-.7.6A5.54,5.54,0,0,0,453.86,177Zm11-4.26L457,187h-2.33l7.88-14.22Zm3.27,9.92a5.43,5.43,0,0,1-.87,3.35,3,3,0,0,1-2.54,1.12,2.93,2.93,0,0,1-2.48-1.15,5.45,5.45,0,0,1-.87-3.32c0-3,1.11-4.45,3.35-4.45a3,3,0,0,1,2.53,1.16A5.37,5.37,0,0,1,468.13,182.66Zm-4.31,0a5.65,5.65,0,0,0,.22,1.84c.14.41.38.61.7.61.62,0,.94-.82.94-2.45s-.32-2.43-.94-2.43c-.32,0-.56.2-.7.6A5.54,5.54,0,0,0,463.82,182.68Z" style="fill: #314041"/>
  </g>
  <circle cx="63.39" cy="193.02" r="6.06" style="fill: #fff;stroke: #304041;stroke-linecap: round;stroke-linejoin: round;stroke-width: 2.25px"/>
  <circle cx="160.79" cy="59.29" r="6.06" style="fill: #fff;stroke: #304041;stroke-linecap: round;stroke-linejoin: round;stroke-width: 2.25px"/>
  <circle cx="256.69" cy="168.52" r="6.06" style="fill: #fff;stroke: #304041;stroke-linecap: round;stroke-linejoin: round;stroke-width: 2.25px"/>
  <circle cx="352.01" cy="120.98" r="6.06" style="fill: #fff;stroke: #304041;stroke-linecap: round;stroke-linejoin: round;stroke-width: 2.25px"/>
  <circle cx="448.02" cy="202.2" r="6.06" style="fill: #fff;stroke: #304041;stroke-linecap: round;stroke-linejoin: round;stroke-width: 2.25px"/>
</svg>
