<svg id="Layer_1" data-name="Layer 1" xmlns="http://www.w3.org/2000/svg" viewBox="0 0 511 271">
  <title>insurance_leadership</title>
  <g style="opacity: 0.1">
    <polyline points="63.39 199.91 160.31 76.39 256.21 171.33 352.12 147.85 448.02 210.12" style="fill: none;stroke: #304041;stroke-linecap: round;stroke-linejoin: round;stroke-width: 2.25px"/>
  </g>
  <polyline points="63.39 187.91 160.31 64.39 256.21 159.33 352.12 135.85 448.02 198.12" style="fill: none;stroke: #304041;stroke-linecap: round;stroke-linejoin: round;stroke-width: 2.25px"/>
  <g>
    <path d="M32.83,160.35a5.37,5.37,0,0,1,3.29.93,2.94,2.94,0,0,1,1.25,2.5,3.28,3.28,0,0,1-.6,1.94,5,5,0,0,1-1.94,1.52A7,7,0,0,1,37.12,169a3.35,3.35,0,0,1,.69,2,3.4,3.4,0,0,1-1.37,2.81A5.72,5.72,0,0,1,32.83,175a6.06,6.06,0,0,1-3.67-1,3.34,3.34,0,0,1-1.33-2.82,3.74,3.74,0,0,1,.65-2.16,5.4,5.4,0,0,1,2.08-1.66,5.17,5.17,0,0,1-1.75-1.64,3.57,3.57,0,0,1-.54-1.92,2.94,2.94,0,0,1,1.26-2.47A5.4,5.4,0,0,1,32.83,160.35ZM30.61,171a1.57,1.57,0,0,0,.59,1.3,2.49,2.49,0,0,0,1.59.47,2.51,2.51,0,0,0,1.68-.48A1.63,1.63,0,0,0,35,171a1.71,1.71,0,0,0-.55-1.22,6.93,6.93,0,0,0-1.78-1.21C31.3,169.19,30.61,170,30.61,171Zm2.2-8.42a1.9,1.9,0,0,0-1.24.39A1.32,1.32,0,0,0,31.1,164a1.61,1.61,0,0,0,.38,1,3.94,3.94,0,0,0,1.35,1,3.75,3.75,0,0,0,1.33-.91,1.66,1.66,0,0,0,.38-1.08,1.28,1.28,0,0,0-.48-1.06A2,2,0,0,0,32.81,162.55Z" style="fill: #314041"/>
    <path d="M45.87,164.77a5.4,5.4,0,0,1-.86,3.36,3,3,0,0,1-2.54,1.13A2.93,2.93,0,0,1,40,168.1a5.42,5.42,0,0,1-.88-3.33q0-4.44,3.36-4.44A3,3,0,0,1,45,161.48,5.32,5.32,0,0,1,45.87,164.77Zm-4.3,0a6.07,6.07,0,0,0,.21,1.85c.15.4.38.6.71.6.62,0,.93-.81.93-2.45s-.31-2.43-.93-2.43c-.33,0-.56.2-.71.6A5.92,5.92,0,0,0,41.57,164.79Zm11-4.26-7.89,14.22H42.34l7.89-14.22Zm3.26,9.92A5.45,5.45,0,0,1,55,173.8a3,3,0,0,1-2.54,1.13A2.93,2.93,0,0,1,50,173.77a5.41,5.41,0,0,1-.88-3.32q0-4.44,3.36-4.44A3,3,0,0,1,55,167.16,5.32,5.32,0,0,1,55.83,170.45Zm-4.3,0a6.07,6.07,0,0,0,.21,1.85c.15.4.38.6.71.6.62,0,.93-.81.93-2.45s-.31-2.43-.93-2.43c-.33,0-.56.2-.71.6A5.92,5.92,0,0,0,51.53,170.47Z" style="fill: #314041"/>
  </g>
  <g>
    <path d="M154.88,44.6h-1.71v2.95h-2.94V44.6h-6.07V42.51l6.24-9.18h2.77v8.94h1.71Zm-4.65-2.33V39.85c0-.4,0-1,.05-1.75s.06-1.21.08-1.33h-.08a11,11,0,0,1-.87,1.56l-2.6,3.94Z" style="fill: #314041"/>
    <path d="M161.16,38.46a4.6,4.6,0,0,1,3.29,1.16,4.17,4.17,0,0,1,1.22,3.17,4.62,4.62,0,0,1-1.47,3.67,6.22,6.22,0,0,1-4.2,1.28,8.29,8.29,0,0,1-3.84-.77V44.38a8.8,8.8,0,0,0,3.73.92c1.83,0,2.75-.75,2.75-2.26s-.95-2.15-2.85-2.15a7,7,0,0,0-1.14.11,6.86,6.86,0,0,0-1,.22l-1.19-.65.53-7.24h7.71v2.55h-5.07l-.26,2.79.33-.07A6.78,6.78,0,0,1,161.16,38.46Z" style="fill: #314041"/>
    <path d="M173.93,37.57a5.44,5.44,0,0,1-.86,3.36,3,3,0,0,1-2.54,1.12,2.92,2.92,0,0,1-2.48-1.15,5.46,5.46,0,0,1-.88-3.33q0-4.45,3.36-4.45a3,3,0,0,1,2.52,1.16A5.28,5.28,0,0,1,173.93,37.57Zm-4.3,0a6,6,0,0,0,.21,1.84c.15.41.39.61.71.61.62,0,.93-.82.93-2.45s-.31-2.43-.93-2.43c-.32,0-.56.19-.71.59A6,6,0,0,0,169.63,37.59Zm11-4.26-7.89,14.22H170.4l7.89-14.22Zm3.26,9.92A5.43,5.43,0,0,1,183,46.6a3,3,0,0,1-2.54,1.12A2.92,2.92,0,0,1,178,46.57a5.45,5.45,0,0,1-.88-3.32q0-4.45,3.36-4.45A3,3,0,0,1,183,40,5.28,5.28,0,0,1,183.89,43.25Zm-4.31,0a5.94,5.94,0,0,0,.22,1.84c.15.41.38.61.71.61.62,0,.93-.82.93-2.45s-.31-2.43-.93-2.43c-.33,0-.56.2-.71.59A5.89,5.89,0,0,0,179.58,43.27Z" style="fill: #314041"/>
  </g>
  <g>
    <path d="M246.05,188h-3v-8.23l0-1.35.05-1.48a13.1,13.1,0,0,1-1,1l-1.63,1.32L239,177.41l4.58-3.65h2.47Z" style="fill: #314041"/>
    <path d="M251.4,188l5.34-11.67h-7v-2.53h10.2v1.89L254.55,188Z" style="fill: #314041"/>
    <path d="M267.93,178a5.51,5.51,0,0,1-.86,3.36,3,3,0,0,1-2.54,1.13,2.93,2.93,0,0,1-2.48-1.16,5.39,5.39,0,0,1-.88-3.33q0-4.44,3.36-4.44a3,3,0,0,1,2.52,1.15A5.32,5.32,0,0,1,267.93,178Zm-4.31,0a5.89,5.89,0,0,0,.22,1.84c.15.41.38.61.71.61.62,0,.93-.81.93-2.45s-.31-2.43-.93-2.43c-.33,0-.56.2-.71.6A5.87,5.87,0,0,0,263.62,178Zm11-4.26L266.74,188H264.4l7.89-14.22Zm3.27,9.92A5.47,5.47,0,0,1,277,187a3,3,0,0,1-2.54,1.13A2.93,2.93,0,0,1,272,187a5.34,5.34,0,0,1-.88-3.32q0-4.44,3.36-4.44a3,3,0,0,1,2.52,1.15A5.32,5.32,0,0,1,277.89,183.68Zm-4.31,0a5.94,5.94,0,0,0,.22,1.84c.15.41.38.61.71.61.62,0,.93-.81.93-2.45s-.31-2.43-.93-2.43c-.33,0-.56.2-.71.6A5.87,5.87,0,0,0,273.58,183.7Z" style="fill: #314041"/>
  </g>
  <g>
    <path d="M342.4,123.69h-9.94V121.6L336,118a30,30,0,0,0,2.07-2.25,4.82,4.82,0,0,0,.7-1.16,2.85,2.85,0,0,0,.22-1.11,1.65,1.65,0,0,0-.47-1.28,1.84,1.84,0,0,0-1.26-.41,3.68,3.68,0,0,0-1.61.37,8.76,8.76,0,0,0-1.62,1.08l-1.64-1.93a10.35,10.35,0,0,1,1.75-1.27,6.54,6.54,0,0,1,1.5-.56,7.44,7.44,0,0,1,1.83-.2,5.53,5.53,0,0,1,2.36.48,3.83,3.83,0,0,1,1.58,1.36,3.62,3.62,0,0,1,.56,2,4.89,4.89,0,0,1-.34,1.84,7.39,7.39,0,0,1-1.07,1.77A25.46,25.46,0,0,1,338,119.3L336.21,121v.14h6.19Z" style="fill: #314041"/>
    <path d="M354.09,120.74h-1.71v3h-2.94v-3h-6.06v-2.09l6.23-9.18h2.77v8.94h1.71Zm-4.65-2.33V116c0-.41,0-1,.05-1.75s.06-1.21.08-1.34h-.08a12,12,0,0,1-.86,1.56L346,118.41Z" style="fill: #314041"/>
    <path d="M361.78,113.71a5.44,5.44,0,0,1-.87,3.36,3,3,0,0,1-2.54,1.12,2.93,2.93,0,0,1-2.48-1.15,5.46,5.46,0,0,1-.87-3.33q0-4.44,3.35-4.44a3,3,0,0,1,2.53,1.15A5.37,5.37,0,0,1,361.78,113.71Zm-4.31,0a5.65,5.65,0,0,0,.22,1.84c.14.41.38.61.7.61.63,0,.94-.82.94-2.45s-.31-2.43-.94-2.43c-.32,0-.56.2-.7.6A5.58,5.58,0,0,0,357.47,113.73Zm11-4.26-7.89,14.22h-2.33l7.88-14.22Zm3.27,9.92a5.41,5.41,0,0,1-.87,3.35,3,3,0,0,1-2.54,1.12,2.93,2.93,0,0,1-2.48-1.15,5.43,5.43,0,0,1-.87-3.32q0-4.44,3.35-4.44a3,3,0,0,1,2.53,1.15A5.37,5.37,0,0,1,371.74,119.39Zm-4.31,0a5.65,5.65,0,0,0,.22,1.84c.14.41.38.61.7.61.62,0,.93-.82.93-2.45S369,117,368.35,117c-.32,0-.56.2-.7.6A5.58,5.58,0,0,0,367.43,119.41Z" style="fill: #314041"/>
  </g>
  <g>
    <path d="M461.31,181.94c0-2.81.6-4.91,1.79-6.28a6.66,6.66,0,0,1,5.34-2.06,9.61,9.61,0,0,1,1.91.14v2.4a8.45,8.45,0,0,0-1.71-.19,5.92,5.92,0,0,0-2.53.47,3.11,3.11,0,0,0-1.46,1.38,6.24,6.24,0,0,0-.58,2.59h.13a3.3,3.3,0,0,1,3.08-1.65,3.81,3.81,0,0,1,3,1.2,4.75,4.75,0,0,1,1.08,3.3,5,5,0,0,1-1.28,3.61,4.76,4.76,0,0,1-3.56,1.33,5.15,5.15,0,0,1-2.75-.73,4.76,4.76,0,0,1-1.81-2.13A8.22,8.22,0,0,1,461.31,181.94Zm5.14,3.83a1.79,1.79,0,0,0,1.48-.64,2.93,2.93,0,0,0,.51-1.85,2.56,2.56,0,0,0-.48-1.64,1.78,1.78,0,0,0-1.45-.59,2.2,2.2,0,0,0-1.56.59,1.81,1.81,0,0,0-.65,1.38,3.14,3.14,0,0,0,.61,2A1.85,1.85,0,0,0,466.45,185.77Z" style="fill: #314041"/>
    <path d="M479.35,178a5.44,5.44,0,0,1-.86,3.36,3,3,0,0,1-2.54,1.13,2.93,2.93,0,0,1-2.48-1.16,5.46,5.46,0,0,1-.87-3.33c0-3,1.11-4.44,3.35-4.44a3,3,0,0,1,2.52,1.15A5.32,5.32,0,0,1,479.35,178Zm-4.3,0a5.61,5.61,0,0,0,.22,1.84c.14.41.38.61.7.61.62,0,.93-.81.93-2.45s-.31-2.43-.93-2.43c-.32,0-.56.2-.7.6A5.58,5.58,0,0,0,475.05,178Zm11-4.26L478.16,188h-2.34l7.89-14.22Zm3.26,9.92a5.41,5.41,0,0,1-.86,3.35,3,3,0,0,1-2.54,1.13,2.93,2.93,0,0,1-2.48-1.16,5.41,5.41,0,0,1-.88-3.32q0-4.44,3.36-4.44a3,3,0,0,1,2.52,1.15A5.32,5.32,0,0,1,489.31,183.68Zm-4.3,0a6,6,0,0,0,.21,1.84c.15.41.39.61.71.61.62,0,.93-.81.93-2.45s-.31-2.43-.93-2.43c-.32,0-.56.2-.71.6A5.92,5.92,0,0,0,485,183.7Z" style="fill: #314041"/>
  </g>
  <circle cx="63.96" cy="187.98" r="6.06" style="fill: #fff;stroke: #304041;stroke-linecap: round;stroke-linejoin: round;stroke-width: 2.25px"/>
  <circle cx="160.79" cy="64.39" r="6.06" style="fill: #fff;stroke: #304041;stroke-linecap: round;stroke-linejoin: round;stroke-width: 2.25px"/>
  <circle cx="255.88" cy="158.93" r="6.06" style="fill: #fff;stroke: #304041;stroke-linecap: round;stroke-linejoin: round;stroke-width: 2.25px"/>
  <circle cx="352.01" cy="135.81" r="6.06" style="fill: #fff;stroke: #304041;stroke-linecap: round;stroke-linejoin: round;stroke-width: 2.25px"/>
  <circle cx="448.02" cy="198.12" r="6.06" style="fill: #fff;stroke: #304041;stroke-linecap: round;stroke-linejoin: round;stroke-width: 2.25px"/>
</svg>
