<svg id="Layer_1" data-name="Layer 1" xmlns="http://www.w3.org/2000/svg" viewBox="0 0 511 271">
  <title>insurance_technology</title>
  <g style="opacity: 0.1">
    <polyline points="63.39 210.12 160.31 151.93 256.21 147.85 352.12 99.87 448.02 194.81" style="fill: none;stroke: #304041;stroke-linecap: round;stroke-linejoin: round;stroke-width: 2.25px"/>
  </g>
  <polyline points="63.39 198.12 160.31 139.93 256.21 135.85 352.12 87.87 448.02 182.81" style="fill: none;stroke: #304041;stroke-linecap: round;stroke-linejoin: round;stroke-width: 2.25px"/>
  <g>
    <path d="M50,174.48c0-2.82.6-4.91,1.79-6.29a6.69,6.69,0,0,1,5.34-2.06,9.48,9.48,0,0,1,1.91.15v2.4a7.79,7.79,0,0,0-1.71-.19,5.9,5.9,0,0,0-2.53.46,3.11,3.11,0,0,0-1.46,1.38,6.29,6.29,0,0,0-.58,2.6h.13A3.3,3.3,0,0,1,56,171.28a3.85,3.85,0,0,1,3,1.19A4.76,4.76,0,0,1,60,175.78a5,5,0,0,1-1.28,3.6,4.72,4.72,0,0,1-3.56,1.33,5.07,5.07,0,0,1-2.75-.73,4.65,4.65,0,0,1-1.81-2.13A8,8,0,0,1,50,174.48Zm5.14,3.83a1.8,1.8,0,0,0,1.48-.65,2.9,2.9,0,0,0,.51-1.84,2.56,2.56,0,0,0-.48-1.64,1.75,1.75,0,0,0-1.45-.6,2.25,2.25,0,0,0-1.57.6,1.8,1.8,0,0,0-.64,1.38,3.09,3.09,0,0,0,.61,1.95A1.85,1.85,0,0,0,55.14,178.31Z" style="fill: #314041"/>
    <path d="M68,170.54a5.51,5.51,0,0,1-.86,3.36A3,3,0,0,1,64.64,175a2.92,2.92,0,0,1-2.48-1.15,5.46,5.46,0,0,1-.88-3.33c0-3,1.12-4.45,3.36-4.45a3,3,0,0,1,2.52,1.16A5.28,5.28,0,0,1,68,170.54Zm-4.31,0A5.94,5.94,0,0,0,64,172.4c.15.41.38.61.71.61.62,0,.93-.82.93-2.45s-.31-2.43-.93-2.43c-.33,0-.56.2-.71.59A5.89,5.89,0,0,0,63.73,170.56Zm11-4.26-7.88,14.22H64.51L72.4,166.3ZM78,176.22a5.5,5.5,0,0,1-.86,3.35,3,3,0,0,1-2.54,1.12,2.92,2.92,0,0,1-2.48-1.15,5.38,5.38,0,0,1-.88-3.32c0-3,1.12-4.45,3.36-4.45a3,3,0,0,1,2.52,1.16A5.28,5.28,0,0,1,78,176.22Zm-4.31,0a5.94,5.94,0,0,0,.22,1.84c.15.41.38.61.71.61.62,0,.93-.82.93-2.45s-.31-2.43-.93-2.43c-.33,0-.56.2-.71.59A5.89,5.89,0,0,0,73.69,176.24Z" style="fill: #314041"/>
  </g>
  <g>
    <path d="M151.18,126.42h-9.94v-2.09l3.57-3.61a30,30,0,0,0,2.07-2.25,4.64,4.64,0,0,0,.7-1.16,2.85,2.85,0,0,0,.22-1.11,1.62,1.62,0,0,0-.47-1.27,1.84,1.84,0,0,0-1.26-.42,3.69,3.69,0,0,0-1.61.38,7.86,7.86,0,0,0-1.62,1.08L141.2,114a10.6,10.6,0,0,1,1.74-1.26,6.36,6.36,0,0,1,1.51-.57,8,8,0,0,1,1.83-.2,5.31,5.31,0,0,1,2.35.49,3.66,3.66,0,0,1,1.59,1.36,3.57,3.57,0,0,1,.56,2,4.86,4.86,0,0,1-.34,1.84,7,7,0,0,1-1.07,1.77,27.63,27.63,0,0,1-2.55,2.58L145,123.76v.13h6.19Z" style="fill: #314041"/>
    <path d="M162,115.38a3.34,3.34,0,0,1-.81,2.27,4.17,4.17,0,0,1-2.27,1.28V119a4.55,4.55,0,0,1,2.61,1.05,2.92,2.92,0,0,1,.89,2.24,3.79,3.79,0,0,1-1.49,3.19,6.8,6.8,0,0,1-4.25,1.15,10.42,10.42,0,0,1-4.11-.77v-2.56a8.91,8.91,0,0,0,1.82.68,7.46,7.46,0,0,0,2,.26,3.83,3.83,0,0,0,2.2-.5,1.87,1.87,0,0,0,.71-1.63,1.49,1.49,0,0,0-.82-1.42,6.25,6.25,0,0,0-2.61-.41h-1.08V118h1.1a5.12,5.12,0,0,0,2.42-.43,1.56,1.56,0,0,0,.76-1.48c0-1.08-.67-1.62-2-1.62a4.85,4.85,0,0,0-1.43.23,7.34,7.34,0,0,0-1.61.81l-1.39-2.07a7.77,7.77,0,0,1,4.64-1.4,6,6,0,0,1,3.49.89A2.89,2.89,0,0,1,162,115.38Z" style="fill: #314041"/>
    <path d="M170.56,116.44a5.4,5.4,0,0,1-.87,3.36,3,3,0,0,1-2.54,1.13,3,3,0,0,1-2.48-1.15,5.47,5.47,0,0,1-.87-3.34q0-4.44,3.35-4.44a3,3,0,0,1,2.53,1.15A5.39,5.39,0,0,1,170.56,116.44Zm-4.31,0a5.72,5.72,0,0,0,.22,1.85c.14.4.38.61.7.61.62,0,.94-.82.94-2.46s-.32-2.43-.94-2.43c-.32,0-.56.2-.7.6A5.58,5.58,0,0,0,166.25,116.46Zm11-4.26-7.89,14.22H167l7.88-14.22Zm3.27,9.92a5.39,5.39,0,0,1-.87,3.35,3,3,0,0,1-2.54,1.13,3,3,0,0,1-2.48-1.15,5.46,5.46,0,0,1-.87-3.33q0-4.44,3.35-4.44a3,3,0,0,1,2.53,1.15A5.39,5.39,0,0,1,180.52,122.12Zm-4.31,0a5.72,5.72,0,0,0,.22,1.85c.14.4.38.61.7.61.62,0,.94-.82.94-2.46s-.32-2.43-.94-2.43c-.32,0-.56.2-.7.6A5.58,5.58,0,0,0,176.21,122.14Z" style="fill: #314041"/>
  </g>
  <g>
    <path d="M240,122.88H230.1v-2.09l3.57-3.61c1.06-1.09,1.75-1.84,2.08-2.25a5.37,5.37,0,0,0,.7-1.17,3,3,0,0,0,.21-1.11,1.62,1.62,0,0,0-.47-1.27,1.84,1.84,0,0,0-1.26-.42,3.69,3.69,0,0,0-1.61.38,8.13,8.13,0,0,0-1.62,1.08l-1.63-1.93a10.77,10.77,0,0,1,1.74-1.27,6.56,6.56,0,0,1,1.5-.57,8,8,0,0,1,1.83-.2,5.5,5.5,0,0,1,2.36.49,3.7,3.7,0,0,1,1.58,1.36,3.57,3.57,0,0,1,.57,2,5,5,0,0,1-.35,1.85,7.16,7.16,0,0,1-1.07,1.76,24.3,24.3,0,0,1-2.55,2.58l-1.83,1.72v.14H240Z" style="fill: #314041"/>
    <path d="M251.73,119.93H250v2.95h-2.93v-2.95H241v-2.09l6.23-9.18H250v8.94h1.71Zm-4.64-2.33v-2.42c0-.4,0-1,0-1.75s.06-1.21.08-1.33h-.08a10.9,10.9,0,0,1-.86,1.56l-2.61,3.94Z" style="fill: #314041"/>
    <path d="M259.42,112.9a5.44,5.44,0,0,1-.87,3.36,3,3,0,0,1-2.54,1.12,2.93,2.93,0,0,1-2.48-1.15,5.46,5.46,0,0,1-.87-3.33q0-4.45,3.35-4.45a3,3,0,0,1,2.53,1.16A5.35,5.35,0,0,1,259.42,112.9Zm-4.31,0a5.69,5.69,0,0,0,.22,1.84c.14.41.38.61.7.61.63,0,.94-.82.94-2.45s-.31-2.43-.94-2.43a.74.74,0,0,0-.7.59A5.61,5.61,0,0,0,255.11,112.92Zm11-4.26-7.89,14.22h-2.33l7.89-14.22Zm3.27,9.92a5.43,5.43,0,0,1-.87,3.35,3,3,0,0,1-2.54,1.12,2.93,2.93,0,0,1-2.48-1.15,5.45,5.45,0,0,1-.87-3.32q0-4.45,3.35-4.45a3,3,0,0,1,2.53,1.16A5.35,5.35,0,0,1,269.38,118.58Zm-4.31,0a5.65,5.65,0,0,0,.22,1.84c.14.41.38.61.7.61.63,0,.94-.82.94-2.45s-.31-2.43-.94-2.43a.75.75,0,0,0-.7.59A5.61,5.61,0,0,0,265.07,118.6Z" style="fill: #314041"/>
  </g>
  <g>
    <path d="M341.85,65.28a3.34,3.34,0,0,1-.81,2.27,4.17,4.17,0,0,1-2.26,1.28v.06a4.54,4.54,0,0,1,2.6,1,3,3,0,0,1,.89,2.25,3.79,3.79,0,0,1-1.49,3.19,6.87,6.87,0,0,1-4.25,1.14,10.42,10.42,0,0,1-4.11-.76V73.19a9.8,9.8,0,0,0,1.82.68,7.9,7.9,0,0,0,2,.26,3.91,3.91,0,0,0,2.2-.5,1.87,1.87,0,0,0,.71-1.63,1.49,1.49,0,0,0-.82-1.42,6,6,0,0,0-2.61-.42h-1.08v-2.3h1.1a5.12,5.12,0,0,0,2.42-.43,1.57,1.57,0,0,0,.76-1.49c0-1.07-.67-1.61-2-1.61a4.85,4.85,0,0,0-1.43.23,7.34,7.34,0,0,0-1.61.81l-1.39-2.07a7.71,7.71,0,0,1,4.64-1.4,6,6,0,0,1,3.49.89A2.89,2.89,0,0,1,341.85,65.28Z" style="fill: #314041"/>
    <path d="M348.73,61.92a5.4,5.4,0,0,1,3.3.93,3,3,0,0,1,1.25,2.5,3.22,3.22,0,0,1-.61,1.94,5.13,5.13,0,0,1-1.94,1.52A6.88,6.88,0,0,1,353,70.6a3.34,3.34,0,0,1,.69,2,3.38,3.38,0,0,1-1.37,2.82,5.7,5.7,0,0,1-3.61,1.06,6,6,0,0,1-3.66-1,3.28,3.28,0,0,1-1.33-2.81,3.74,3.74,0,0,1,.64-2.16,5.39,5.39,0,0,1,2.08-1.66,5.37,5.37,0,0,1-1.75-1.64,3.62,3.62,0,0,1-.54-1.92,3,3,0,0,1,1.27-2.47A5.35,5.35,0,0,1,348.73,61.92Zm-2.21,10.62a1.56,1.56,0,0,0,.58,1.3,3.05,3.05,0,0,0,3.27,0,1.6,1.6,0,0,0,.55-1.27,1.71,1.71,0,0,0-.55-1.22,6.76,6.76,0,0,0-1.78-1.21C347.21,70.76,346.52,71.56,346.52,72.54Zm2.2-8.43a1.86,1.86,0,0,0-1.24.4,1.28,1.28,0,0,0-.48,1,1.63,1.63,0,0,0,.38,1,4.19,4.19,0,0,0,1.35,1,3.91,3.91,0,0,0,1.34-.92,1.67,1.67,0,0,0,.38-1.08A1.31,1.31,0,0,0,350,64.5,1.92,1.92,0,0,0,348.72,64.11Z" style="fill: #314041"/>
    <path d="M361.78,66.34a5.44,5.44,0,0,1-.87,3.36,3,3,0,0,1-2.54,1.13,2.94,2.94,0,0,1-2.48-1.16,5.46,5.46,0,0,1-.87-3.33q0-4.44,3.35-4.44a3,3,0,0,1,2.53,1.15A5.39,5.39,0,0,1,361.78,66.34Zm-4.31,0a5.65,5.65,0,0,0,.22,1.84c.14.41.38.61.7.61.63,0,.94-.81.94-2.45s-.31-2.43-.94-2.43c-.32,0-.56.2-.7.6A5.58,5.58,0,0,0,357.47,66.36Zm11-4.26-7.89,14.22h-2.33l7.88-14.22ZM371.74,72a5.41,5.41,0,0,1-.87,3.35,3,3,0,0,1-2.54,1.13,2.94,2.94,0,0,1-2.48-1.16A5.41,5.41,0,0,1,365,72q0-4.44,3.35-4.44a3,3,0,0,1,2.53,1.15A5.39,5.39,0,0,1,371.74,72Zm-4.31,0a5.65,5.65,0,0,0,.22,1.84c.14.41.38.61.7.61.62,0,.94-.81.94-2.45s-.32-2.43-.94-2.43c-.32,0-.56.2-.7.6A5.58,5.58,0,0,0,367.43,72Z" style="fill: #314041"/>
  </g>
  <g>
    <path d="M447,169.43h-3V161.2l0-1.35.05-1.48q-.75.75-1.05,1l-1.63,1.31-1.45-1.81,4.58-3.65H447Z" style="fill: #314041"/>
    <path d="M460.77,162.32a9.88,9.88,0,0,1-1.22,5.52,4.74,4.74,0,0,1-7.47-.06,9.8,9.8,0,0,1-1.25-5.46,10,10,0,0,1,1.22-5.55,4.72,4.72,0,0,1,7.46.09A9.75,9.75,0,0,1,460.77,162.32Zm-6.95,0a11.07,11.07,0,0,0,.45,3.75,1.57,1.57,0,0,0,1.52,1.14,1.59,1.59,0,0,0,1.52-1.15,15.2,15.2,0,0,0,0-7.5,1.59,1.59,0,0,0-1.52-1.14,1.56,1.56,0,0,0-1.51,1.14A11,11,0,0,0,453.82,162.32Z" style="fill: #314041"/>
    <path d="M468.86,159.45a5.44,5.44,0,0,1-.87,3.36,3,3,0,0,1-2.54,1.13,2.94,2.94,0,0,1-2.48-1.16,5.42,5.42,0,0,1-.87-3.33q0-4.44,3.35-4.44a3,3,0,0,1,2.53,1.15A5.39,5.39,0,0,1,468.86,159.45Zm-4.31,0a5.72,5.72,0,0,0,.22,1.85c.14.4.38.6.7.6.62,0,.93-.81.93-2.45s-.31-2.43-.93-2.43c-.32,0-.56.2-.7.6A5.58,5.58,0,0,0,464.55,159.47Zm11-4.26-7.89,14.22h-2.33l7.88-14.22Zm3.27,9.92a5.41,5.41,0,0,1-.87,3.35,3,3,0,0,1-2.54,1.13,2.93,2.93,0,0,1-2.48-1.16,5.41,5.41,0,0,1-.87-3.32c0-3,1.11-4.44,3.35-4.44a3,3,0,0,1,2.53,1.15A5.39,5.39,0,0,1,478.82,165.13Zm-4.31,0a5.72,5.72,0,0,0,.22,1.85c.14.4.38.6.7.6.62,0,.93-.81.93-2.45s-.31-2.43-.93-2.43c-.32,0-.56.2-.7.6A5.58,5.58,0,0,0,474.51,165.15Z" style="fill: #314041"/>
  </g>
  <circle cx="63.39" cy="198.12" r="6.06" style="fill: #fff;stroke: #304041;stroke-linecap: round;stroke-linejoin: round;stroke-width: 2.25px"/>
  <circle cx="160.79" cy="139.97" r="6.06" style="fill: #fff;stroke: #304041;stroke-linecap: round;stroke-linejoin: round;stroke-width: 2.25px"/>
  <circle cx="255.71" cy="135.81" r="6.06" style="fill: #fff;stroke: #304041;stroke-linecap: round;stroke-linejoin: round;stroke-width: 2.25px"/>
  <circle cx="352.01" cy="87.87" r="6.06" style="fill: #fff;stroke: #304041;stroke-linecap: round;stroke-linejoin: round;stroke-width: 2.25px"/>
  <circle cx="448.02" cy="183.32" r="6.06" style="fill: #fff;stroke: #304041;stroke-linecap: round;stroke-linejoin: round;stroke-width: 2.25px"/>
</svg>
