<svg id="Layer_1" data-name="Layer 1" xmlns="http://www.w3.org/2000/svg" viewBox="0 0 511 271">
  <title>insurance_overall</title>
  <g style="opacity: 0.1">
    <polyline points="63.48 214.57 159.8 147.79 256.12 69.45 351.16 132.38 447.48 214.57" style="fill: none;stroke: #304041;stroke-linecap: round;stroke-linejoin: round;stroke-width: 2.25px"/>
  </g>
  <polyline points="63.48 204.57 159.8 137.79 256.12 59.45 351.16 122.38 447.48 204.57" style="fill: none;stroke: #304041;stroke-linecap: round;stroke-linejoin: round;stroke-width: 2.25px"/>
  <g>
    <path d="M49.48,175.48a3.31,3.31,0,0,1-.8,2.26A4.15,4.15,0,0,1,46.41,179v.06a4.54,4.54,0,0,1,2.61,1,2.93,2.93,0,0,1,.88,2.24,3.8,3.8,0,0,1-1.48,3.2,6.9,6.9,0,0,1-4.26,1.14,10.17,10.17,0,0,1-4.1-.77v-2.56a9.55,9.55,0,0,0,1.82.69,7.82,7.82,0,0,0,2,.26,3.78,3.78,0,0,0,2.2-.51,1.83,1.83,0,0,0,.71-1.62,1.47,1.47,0,0,0-.81-1.42,6.06,6.06,0,0,0-2.61-.42H42.25v-2.3h1.1a5.1,5.1,0,0,0,2.42-.44,1.57,1.57,0,0,0,.76-1.48c0-1.08-.68-1.62-2-1.62a4.52,4.52,0,0,0-1.43.24,6.55,6.55,0,0,0-1.61.81l-1.39-2.08a7.75,7.75,0,0,1,4.64-1.4,6,6,0,0,1,3.49.9A2.88,2.88,0,0,1,49.48,175.48Z" style="fill: #314041"/>
    <path d="M58,176.54a5.44,5.44,0,0,1-.86,3.36A3,3,0,0,1,54.64,181a2.92,2.92,0,0,1-2.48-1.15,5.46,5.46,0,0,1-.88-3.33c0-3,1.12-4.45,3.36-4.45a3,3,0,0,1,2.52,1.16A5.28,5.28,0,0,1,58,176.54Zm-4.31,0A5.94,5.94,0,0,0,54,178.4c.15.41.38.61.71.61.62,0,.93-.82.93-2.45s-.31-2.43-.93-2.43c-.33,0-.56.2-.71.59A5.89,5.89,0,0,0,53.73,176.56Zm11-4.26-7.88,14.22H54.51L62.4,172.3ZM68,182.22a5.5,5.5,0,0,1-.86,3.35,3,3,0,0,1-2.54,1.12,2.92,2.92,0,0,1-2.48-1.15,5.38,5.38,0,0,1-.88-3.32c0-3,1.12-4.45,3.36-4.45a3,3,0,0,1,2.52,1.16A5.28,5.28,0,0,1,68,182.22Zm-4.31,0a5.94,5.94,0,0,0,.22,1.84c.15.41.38.61.71.61.62,0,.93-.82.93-2.45s-.31-2.43-.93-2.43c-.33,0-.56.2-.71.59A5.89,5.89,0,0,0,63.69,182.24Z" style="fill: #314041"/>
  </g>
  <g>
    <path d="M135.12,124h-9.94v-2.09l3.57-3.61c1.06-1.08,1.75-1.83,2.08-2.25a5.33,5.33,0,0,0,.7-1.16,3,3,0,0,0,.21-1.11,1.62,1.62,0,0,0-.47-1.27,1.84,1.84,0,0,0-1.26-.42,3.69,3.69,0,0,0-1.61.38,8.13,8.13,0,0,0-1.62,1.08l-1.63-1.94a10.6,10.6,0,0,1,1.74-1.26,6.13,6.13,0,0,1,1.5-.57,8,8,0,0,1,1.83-.2,5.35,5.35,0,0,1,2.36.49,3.64,3.64,0,0,1,1.58,1.36,3.57,3.57,0,0,1,.57,2,4.86,4.86,0,0,1-.35,1.84,7,7,0,0,1-1.07,1.77,26.39,26.39,0,0,1-2.55,2.58l-1.83,1.72v.13h6.19Z" style="fill: #314041"/>
    <path d="M145.94,112.92a3.34,3.34,0,0,1-.81,2.27,4.17,4.17,0,0,1-2.26,1.28v.06a4.48,4.48,0,0,1,2.6,1,2.92,2.92,0,0,1,.89,2.24,3.79,3.79,0,0,1-1.49,3.19,6.8,6.8,0,0,1-4.25,1.15,10.34,10.34,0,0,1-4.1-.77v-2.56a8.82,8.82,0,0,0,1.81.68,7.52,7.52,0,0,0,2,.26,3.83,3.83,0,0,0,2.2-.5,1.87,1.87,0,0,0,.71-1.63,1.49,1.49,0,0,0-.82-1.42,6.19,6.19,0,0,0-2.61-.41H138.7V115.5h1.1a5.12,5.12,0,0,0,2.42-.43,1.56,1.56,0,0,0,.76-1.48c0-1.08-.67-1.62-2-1.62a4.85,4.85,0,0,0-1.43.23,7.29,7.29,0,0,0-1.6.81l-1.4-2.07a7.77,7.77,0,0,1,4.64-1.4,6,6,0,0,1,3.49.89A2.89,2.89,0,0,1,145.94,112.92Z" style="fill: #314041"/>
    <path d="M154.5,114a5.4,5.4,0,0,1-.87,3.36,3.33,3.33,0,0,1-5,0,5.47,5.47,0,0,1-.87-3.34q0-4.44,3.35-4.44a3,3,0,0,1,2.53,1.15A5.39,5.39,0,0,1,154.5,114Zm-4.31,0a5.72,5.72,0,0,0,.22,1.85c.14.4.38.6.7.6.63,0,.94-.81.94-2.45s-.31-2.43-.94-2.43c-.32,0-.56.2-.7.6A5.58,5.58,0,0,0,150.19,114Zm11-4.26L153.3,124H151l7.89-14.22Zm3.27,9.92a5.39,5.39,0,0,1-.87,3.35,3,3,0,0,1-2.54,1.13,3,3,0,0,1-2.48-1.15,5.46,5.46,0,0,1-.87-3.33q0-4.44,3.35-4.44a3,3,0,0,1,2.53,1.15A5.39,5.39,0,0,1,164.46,119.66Zm-4.31,0a5.72,5.72,0,0,0,.22,1.85c.14.4.38.6.7.6.63,0,.94-.81.94-2.45s-.31-2.43-.94-2.43c-.32,0-.56.2-.7.6A5.58,5.58,0,0,0,160.15,119.68Z" style="fill: #314041"/>
  </g>
  <g>
    <path d="M246.19,44.6h-1.71v2.95h-2.94V44.6h-6.06V42.51l6.23-9.18h2.77v8.93h1.71Zm-4.65-2.34V39.85c0-.4,0-1,.05-1.75s.06-1.21.08-1.33h-.08a12,12,0,0,1-.86,1.56l-2.61,3.93Z" style="fill: #314041"/>
    <path d="M252.48,38.46a4.59,4.59,0,0,1,3.28,1.16A4.17,4.17,0,0,1,257,42.79a4.62,4.62,0,0,1-1.47,3.67,6.22,6.22,0,0,1-4.2,1.28,8.25,8.25,0,0,1-3.83-.77V44.38a8.81,8.81,0,0,0,3.72.92C253,45.3,254,44.55,254,43s-.95-2.15-2.85-2.15A6.83,6.83,0,0,0,250,41a8.5,8.5,0,0,0-1,.21l-1.19-.64.53-7.24H256v2.55h-5.08l-.26,2.79.34-.07A6.65,6.65,0,0,1,252.48,38.46Z" style="fill: #314041"/>
    <path d="M265.25,37.57a5.44,5.44,0,0,1-.87,3.36,3,3,0,0,1-2.54,1.12,2.93,2.93,0,0,1-2.48-1.15,5.46,5.46,0,0,1-.87-3.33q0-4.45,3.35-4.45a3,3,0,0,1,2.53,1.16A5.35,5.35,0,0,1,265.25,37.57Zm-4.31,0a5.69,5.69,0,0,0,.22,1.84c.14.41.38.61.7.61.62,0,.94-.82.94-2.45s-.32-2.43-.94-2.43a.74.74,0,0,0-.7.59A5.61,5.61,0,0,0,260.94,37.59Zm11-4.26-7.89,14.22h-2.33l7.88-14.22Zm3.27,9.92a5.43,5.43,0,0,1-.87,3.35,3,3,0,0,1-2.54,1.12,2.92,2.92,0,0,1-2.48-1.15,5.45,5.45,0,0,1-.87-3.32c0-3,1.11-4.45,3.35-4.45A3,3,0,0,1,274.32,40,5.28,5.28,0,0,1,275.21,43.25Zm-4.31,0a5.69,5.69,0,0,0,.22,1.84c.14.4.38.61.7.61.62,0,.93-.82.93-2.45s-.31-2.43-.93-2.43a.74.74,0,0,0-.7.59A5.61,5.61,0,0,0,270.9,43.27Z" style="fill: #314041"/>
  </g>
  <g>
    <path d="M349.46,106.66h-9.94v-2.1l3.57-3.6c1.06-1.09,1.75-1.84,2.07-2.26a4.47,4.47,0,0,0,.7-1.16,2.78,2.78,0,0,0,.22-1.11,1.62,1.62,0,0,0-.47-1.27,1.84,1.84,0,0,0-1.26-.42,3.66,3.66,0,0,0-1.61.38,7.86,7.86,0,0,0-1.62,1.08l-1.64-1.94A11.24,11.24,0,0,1,341.22,93a6.2,6.2,0,0,1,1.51-.57,8,8,0,0,1,1.83-.2,5.31,5.31,0,0,1,2.35.49,3.79,3.79,0,0,1,1.59,1.36,3.65,3.65,0,0,1,.56,2,4.94,4.94,0,0,1-.34,1.85,7.16,7.16,0,0,1-1.07,1.76,29,29,0,0,1-2.55,2.58L343.27,104v.14h6.19Z" style="fill: #314041"/>
    <path d="M352.3,106.66,357.64,95h-7V92.46h10.2v1.88l-5.38,12.32Z" style="fill: #314041"/>
    <path d="M368.84,96.68A5.44,5.44,0,0,1,368,100a3,3,0,0,1-2.54,1.12A2.93,2.93,0,0,1,363,100a5.46,5.46,0,0,1-.87-3.33c0-3,1.11-4.45,3.35-4.45A3,3,0,0,1,368,93.38,5.4,5.4,0,0,1,368.84,96.68Zm-4.31,0a5.69,5.69,0,0,0,.22,1.84c.14.4.38.61.7.61.62,0,.94-.82.94-2.45s-.32-2.44-.94-2.44c-.32,0-.56.2-.7.6A5.61,5.61,0,0,0,364.53,96.7Zm11-4.26-7.89,14.22h-2.33l7.88-14.22Zm3.27,9.92a5.43,5.43,0,0,1-.87,3.35,3,3,0,0,1-2.54,1.12,2.92,2.92,0,0,1-2.48-1.15,5.45,5.45,0,0,1-.87-3.32c0-3,1.11-4.45,3.35-4.45a3,3,0,0,1,2.52,1.15A5.33,5.33,0,0,1,378.8,102.36Zm-4.31,0a5.69,5.69,0,0,0,.22,1.84c.14.4.38.61.7.61.62,0,.93-.82.93-2.45s-.31-2.44-.93-2.44c-.32,0-.56.2-.7.6A5.61,5.61,0,0,0,374.49,102.38Z" style="fill: #314041"/>
  </g>
  <g>
    <path d="M446.51,175a3.32,3.32,0,0,1-.81,2.26,4.12,4.12,0,0,1-2.26,1.29v.06a4.54,4.54,0,0,1,2.6,1,2.94,2.94,0,0,1,.89,2.24,3.81,3.81,0,0,1-1.49,3.2,6.87,6.87,0,0,1-4.25,1.14,10.17,10.17,0,0,1-4.1-.77v-2.56a9.45,9.45,0,0,0,1.81.69,8,8,0,0,0,2,.26,3.82,3.82,0,0,0,2.2-.51,1.85,1.85,0,0,0,.71-1.62,1.48,1.48,0,0,0-.82-1.42,6,6,0,0,0-2.61-.42h-1.08v-2.3h1.1a5.08,5.08,0,0,0,2.42-.44,1.56,1.56,0,0,0,.76-1.48c0-1.08-.67-1.62-2-1.62a4.46,4.46,0,0,0-1.42.24,6.38,6.38,0,0,0-1.61.81L437.11,173a7.72,7.72,0,0,1,4.63-1.4,6,6,0,0,1,3.49.9A2.89,2.89,0,0,1,446.51,175Z" style="fill: #314041"/>
    <path d="M455.07,176a5.44,5.44,0,0,1-.87,3.36,3,3,0,0,1-2.54,1.12,2.91,2.91,0,0,1-2.47-1.15,5.39,5.39,0,0,1-.88-3.33c0-3,1.12-4.45,3.35-4.45a3,3,0,0,1,2.53,1.16A5.28,5.28,0,0,1,455.07,176Zm-4.31,0a5.65,5.65,0,0,0,.22,1.84c.14.41.38.61.7.61.63,0,.94-.82.94-2.45s-.31-2.43-.94-2.43a.75.75,0,0,0-.7.59A5.61,5.61,0,0,0,450.76,176.06Zm11-4.26L453.87,186h-2.33l7.89-14.22Zm3.27,9.92a5.43,5.43,0,0,1-.87,3.35,3,3,0,0,1-2.54,1.12,2.93,2.93,0,0,1-2.48-1.15,5.45,5.45,0,0,1-.87-3.32c0-3,1.12-4.45,3.35-4.45a3,3,0,0,1,2.53,1.16A5.35,5.35,0,0,1,465,181.72Zm-4.31,0a5.65,5.65,0,0,0,.22,1.84c.14.41.38.61.7.61.63,0,.94-.82.94-2.45s-.31-2.43-.94-2.43a.75.75,0,0,0-.7.59A5.61,5.61,0,0,0,460.72,181.74Z" style="fill: #314041"/>
  </g>
  <circle cx="63.48" cy="204.57" r="6.06" style="fill: #fff;stroke: #304041;stroke-linecap: round;stroke-linejoin: round;stroke-width: 2.25px"/>
  <circle cx="160.21" cy="136.79" r="6.06" style="fill: #fff;stroke: #304041;stroke-linecap: round;stroke-linejoin: round;stroke-width: 2.25px"/>
  <circle cx="255.48" cy="60.37" r="6.06" style="fill: #fff;stroke: #304041;stroke-linecap: round;stroke-linejoin: round;stroke-width: 2.25px"/>
  <circle cx="351.48" cy="121.91" r="6.06" style="fill: #fff;stroke: #304041;stroke-linecap: round;stroke-linejoin: round;stroke-width: 2.25px"/>
  <circle cx="447.48" cy="203.51" r="6.06" style="fill: #fff;stroke: #304041;stroke-linecap: round;stroke-linejoin: round;stroke-width: 2.25px"/>
</svg>
