<svg xmlns="http://www.w3.org/2000/svg" viewBox="0 0 511 271">
  <title>media_structural</title>
  <g style="opacity: 0.1">
    <polyline points="63.38 210.01 159.38 63.01 256.38 161.01 352.38 171.01 448.38 200.01" style="fill: none;stroke: #304041;stroke-linecap: round;stroke-linejoin: round;stroke-width: 2.25px"/>
  </g>
  <polyline points="63.38 198.01 159.38 51.01 256.38 149.01 352.38 159.01 448.38 188.01" style="fill: none;stroke: #304041;stroke-linecap: round;stroke-linejoin: round;stroke-width: 2.25px"/>
  <g>
    <path d="M27.83,180.92q0-4.23,1.79-6.28A6.67,6.67,0,0,1,35,172.57a9.48,9.48,0,0,1,1.91.15v2.4a7.79,7.79,0,0,0-1.71-.19,5.93,5.93,0,0,0-2.53.46,3.21,3.21,0,0,0-1.46,1.38,6.33,6.33,0,0,0-.58,2.6h.13a3.3,3.3,0,0,1,3.08-1.65,3.84,3.84,0,0,1,3,1.19,4.76,4.76,0,0,1,1.08,3.31,5,5,0,0,1-1.28,3.6A4.72,4.72,0,0,1,33,187.15a5.07,5.07,0,0,1-2.75-.73,4.65,4.65,0,0,1-1.81-2.13A8,8,0,0,1,27.83,180.92ZM33,184.75a1.8,1.8,0,0,0,1.48-.65,2.9,2.9,0,0,0,.51-1.84,2.56,2.56,0,0,0-.48-1.64A1.75,1.75,0,0,0,33,180a2.21,2.21,0,0,0-1.56.6,1.78,1.78,0,0,0-.65,1.38,3.09,3.09,0,0,0,.61,1.95A1.85,1.85,0,0,0,33,184.75Z" style="fill: #314041"/>
    <path d="M45.87,177a5.51,5.51,0,0,1-.86,3.36,3,3,0,0,1-2.54,1.12A2.92,2.92,0,0,1,40,180.31a5.46,5.46,0,0,1-.88-3.33c0-3,1.12-4.45,3.36-4.45A3,3,0,0,1,45,173.69,5.3,5.3,0,0,1,45.87,177Zm-4.3,0a6,6,0,0,0,.21,1.84c.15.41.39.61.71.61.62,0,.93-.82.93-2.45s-.31-2.43-.93-2.43c-.32,0-.56.2-.71.6A5.88,5.88,0,0,0,41.57,177Zm11-4.26L44.68,187H42.34l7.89-14.22Zm3.26,9.92A5.5,5.5,0,0,1,55,186a3,3,0,0,1-2.54,1.12A2.92,2.92,0,0,1,50,186a5.45,5.45,0,0,1-.88-3.32c0-3,1.12-4.45,3.36-4.45A3,3,0,0,1,55,179.37,5.3,5.3,0,0,1,55.83,182.66Zm-4.31,0a5.94,5.94,0,0,0,.22,1.84c.15.41.38.61.71.61.62,0,.93-.82.93-2.45s-.31-2.43-.93-2.43c-.33,0-.56.2-.71.6A5.82,5.82,0,0,0,51.52,182.68Z" style="fill: #314041"/>
  </g>
  <g>
    <path d="M151.33,36.06h-1.71V39h-2.94V36.06h-6.06V34l6.23-9.18h2.77v8.94h1.71Zm-4.65-2.33V31.31c0-.4,0-1,0-1.75s.06-1.21.08-1.33h-.08a12,12,0,0,1-.86,1.56l-2.61,3.94Z" style="fill: #314041"/>
    <path d="M162.32,30.86q0,4.2-1.77,6.27a6.66,6.66,0,0,1-5.36,2.07,10,10,0,0,1-1.91-.14V36.65a6.79,6.79,0,0,0,1.71.21,5.91,5.91,0,0,0,2.48-.45A3,3,0,0,0,159,35a6.14,6.14,0,0,0,.59-2.61h-.11a3.36,3.36,0,0,1-1.31,1.29,4.21,4.21,0,0,1-1.85.36,3.71,3.71,0,0,1-2.92-1.19,4.73,4.73,0,0,1-1.07-3.31A5,5,0,0,1,153.58,26a4.72,4.72,0,0,1,3.54-1.33,5.13,5.13,0,0,1,2.76.74,4.7,4.7,0,0,1,1.81,2.15A8.11,8.11,0,0,1,162.32,30.86ZM157.18,27a1.79,1.79,0,0,0-1.46.65,2.82,2.82,0,0,0-.53,1.84,2.56,2.56,0,0,0,.48,1.64,1.74,1.74,0,0,0,1.45.6,2.25,2.25,0,0,0,1.57-.6,1.82,1.82,0,0,0,.65-1.37,3.16,3.16,0,0,0-.61-2A1.87,1.87,0,0,0,157.18,27Z" style="fill: #314041"/>
    <path d="M170.39,29a5.44,5.44,0,0,1-.87,3.36A3,3,0,0,1,167,33.51a2.93,2.93,0,0,1-2.48-1.15,5.46,5.46,0,0,1-.87-3.33q0-4.46,3.35-4.45a3,3,0,0,1,2.53,1.15A5.4,5.4,0,0,1,170.39,29Zm-4.31,0a5.69,5.69,0,0,0,.22,1.84c.14.41.38.61.7.61.62,0,.94-.82.94-2.45s-.32-2.43-.94-2.43a.74.74,0,0,0-.7.59A5.61,5.61,0,0,0,166.08,29.05Zm11-4.26L169.19,39h-2.33l7.88-14.22Zm3.27,9.92a5.43,5.43,0,0,1-.87,3.35,3,3,0,0,1-2.54,1.12A2.92,2.92,0,0,1,174.46,38a5.45,5.45,0,0,1-.87-3.32q0-4.46,3.35-4.45a3,3,0,0,1,2.53,1.16A5.35,5.35,0,0,1,180.35,34.71Zm-4.31,0a5.69,5.69,0,0,0,.22,1.84c.14.41.38.61.7.61.62,0,.93-.82.93-2.45s-.31-2.43-.93-2.43a.74.74,0,0,0-.7.59A5.61,5.61,0,0,0,176,34.73Z" style="fill: #314041"/>
  </g>
  <g>
    <path d="M263.63,138.65h-9.94v-2.09l3.57-3.6c1.06-1.09,1.75-1.84,2.07-2.26a4.47,4.47,0,0,0,.7-1.16,2.78,2.78,0,0,0,.22-1.11,1.62,1.62,0,0,0-.47-1.27,1.84,1.84,0,0,0-1.26-.42,3.69,3.69,0,0,0-1.61.38,7.86,7.86,0,0,0-1.62,1.08l-1.64-1.94A10.78,10.78,0,0,1,255.4,125a6.13,6.13,0,0,1,1.5-.57,8,8,0,0,1,1.83-.2,5.31,5.31,0,0,1,2.35.49,3.73,3.73,0,0,1,1.59,1.36,3.57,3.57,0,0,1,.56,2,4.94,4.94,0,0,1-.34,1.85,7.16,7.16,0,0,1-1.07,1.76,26.39,26.39,0,0,1-2.55,2.58L257.44,136v.14h6.19Z" style="fill: #314041"/>
    <path d="M274.92,131.55a9.84,9.84,0,0,1-1.22,5.51,4.22,4.22,0,0,1-3.75,1.79,4.18,4.18,0,0,1-3.71-1.85,9.7,9.7,0,0,1-1.25-5.45q0-3.77,1.21-5.55a4.73,4.73,0,0,1,7.47.08A9.88,9.88,0,0,1,274.92,131.55Zm-6.95,0a11,11,0,0,0,.45,3.74,1.58,1.58,0,0,0,3,0,15.16,15.16,0,0,0,0-7.49,1.59,1.59,0,0,0-1.51-1.15,1.56,1.56,0,0,0-1.52,1.15A10.87,10.87,0,0,0,268,131.55Z" style="fill: #314041"/>
    <path d="M283,128.68a5.44,5.44,0,0,1-.87,3.36,3,3,0,0,1-2.54,1.12,2.93,2.93,0,0,1-2.48-1.15,5.46,5.46,0,0,1-.87-3.33q0-4.46,3.35-4.45a3,3,0,0,1,2.53,1.15A5.4,5.4,0,0,1,283,128.68Zm-4.31,0a5.69,5.69,0,0,0,.22,1.84c.14.4.38.61.7.61.63,0,.94-.82.94-2.45s-.31-2.44-.94-2.44c-.32,0-.56.2-.7.6A5.61,5.61,0,0,0,278.7,128.7Zm11-4.26-7.89,14.21h-2.33l7.88-14.21Zm3.27,9.92a5.43,5.43,0,0,1-.87,3.35,3,3,0,0,1-2.54,1.12,2.93,2.93,0,0,1-2.48-1.15,5.45,5.45,0,0,1-.87-3.32q0-4.46,3.35-4.45a3,3,0,0,1,2.53,1.15A5.4,5.4,0,0,1,293,134.36Zm-4.31,0a5.69,5.69,0,0,0,.22,1.84c.14.4.38.61.7.61.62,0,.94-.82.94-2.45s-.32-2.44-.94-2.44c-.32,0-.56.2-.7.6A5.61,5.61,0,0,0,288.66,134.38Z" style="fill: #314041"/>
  </g>
  <g>
    <path d="M341.82,146h-3v-8.23l0-1.35.05-1.48c-.5.5-.84.83-1,1l-1.63,1.31-1.45-1.81,4.58-3.65h2.47Z" style="fill: #314041"/>
    <path d="M347.17,146l5.34-11.67h-7v-2.53h10.2v1.89L350.32,146Z" style="fill: #314041"/>
    <path d="M363.7,136.06a5.44,5.44,0,0,1-.86,3.36,3,3,0,0,1-2.54,1.13,2.93,2.93,0,0,1-2.48-1.16,5.42,5.42,0,0,1-.88-3.33q0-4.44,3.36-4.44a3,3,0,0,1,2.52,1.15A5.32,5.32,0,0,1,363.7,136.06Zm-4.3,0a6.07,6.07,0,0,0,.21,1.85c.15.4.39.6.71.6.62,0,.93-.81.93-2.45s-.31-2.43-.93-2.43c-.32,0-.56.2-.71.6A5.92,5.92,0,0,0,359.4,136.08Zm11-4.26L362.51,146h-2.34l7.89-14.22Zm3.26,9.92a5.47,5.47,0,0,1-.86,3.35,3,3,0,0,1-2.54,1.13,2.93,2.93,0,0,1-2.48-1.16,5.41,5.41,0,0,1-.88-3.32q0-4.44,3.36-4.44a3,3,0,0,1,2.52,1.15A5.32,5.32,0,0,1,373.66,141.74Zm-4.31,0a5.89,5.89,0,0,0,.22,1.84c.15.41.38.61.71.61.62,0,.93-.81.93-2.45s-.31-2.43-.93-2.43c-.33,0-.56.2-.71.6A5.87,5.87,0,0,0,369.35,141.76Z" style="fill: #314041"/>
  </g>
  <g>
    <path d="M444.11,166.94q0,4.2-1.77,6.27a6.67,6.67,0,0,1-5.36,2.07,10.34,10.34,0,0,1-1.92-.13v-2.42a6.93,6.93,0,0,0,1.72.21,6.12,6.12,0,0,0,2.48-.44,3.16,3.16,0,0,0,1.49-1.4,6.14,6.14,0,0,0,.59-2.61h-.12a3.4,3.4,0,0,1-1.3,1.29,4.23,4.23,0,0,1-1.85.37,3.76,3.76,0,0,1-2.93-1.19,4.82,4.82,0,0,1-1.07-3.32,5,5,0,0,1,1.3-3.61,4.76,4.76,0,0,1,3.54-1.33,5.07,5.07,0,0,1,2.75.74,4.77,4.77,0,0,1,1.82,2.15A8.11,8.11,0,0,1,444.11,166.94ZM439,163.12a1.76,1.76,0,0,0-1.45.64,2.84,2.84,0,0,0-.53,1.84,2.56,2.56,0,0,0,.48,1.64,1.74,1.74,0,0,0,1.45.6,2.21,2.21,0,0,0,1.56-.6,1.77,1.77,0,0,0,.65-1.37,3.17,3.17,0,0,0-.6-2A1.89,1.89,0,0,0,439,163.12Z" style="fill: #314041"/>
    <path d="M452.17,165.11a5.51,5.51,0,0,1-.86,3.36,3,3,0,0,1-2.54,1.12,2.92,2.92,0,0,1-2.48-1.15,5.46,5.46,0,0,1-.88-3.33c0-3,1.12-4.45,3.36-4.45a3,3,0,0,1,2.52,1.16A5.3,5.3,0,0,1,452.17,165.11Zm-4.31,0a5.94,5.94,0,0,0,.22,1.84c.15.41.38.61.71.61.62,0,.93-.82.93-2.45s-.31-2.43-.93-2.43c-.33,0-.56.2-.71.6A5.82,5.82,0,0,0,447.86,165.13Zm11-4.26L451,175.09h-2.34l7.89-14.22Zm3.27,9.92a5.5,5.5,0,0,1-.86,3.35,3,3,0,0,1-2.54,1.12,2.92,2.92,0,0,1-2.48-1.15,5.38,5.38,0,0,1-.88-3.32c0-3,1.12-4.45,3.36-4.45a3,3,0,0,1,2.52,1.16A5.3,5.3,0,0,1,462.13,170.79Zm-4.31,0a5.94,5.94,0,0,0,.22,1.84c.15.41.38.61.71.61.62,0,.93-.82.93-2.45s-.31-2.43-.93-2.43c-.33,0-.56.2-.71.6A5.82,5.82,0,0,0,457.82,170.81Z" style="fill: #314041"/>
  </g>
  <circle cx="62.96" cy="198.01" r="6.06" style="fill: #fff;stroke: #304041;stroke-linecap: round;stroke-linejoin: round;stroke-width: 2.25px"/>
  <circle cx="158.97" cy="51.01" r="6.06" style="fill: #fff;stroke: #304041;stroke-linecap: round;stroke-linejoin: round;stroke-width: 2.25px"/>
  <circle cx="255.97" cy="149.01" r="6.06" style="fill: #fff;stroke: #304041;stroke-linecap: round;stroke-linejoin: round;stroke-width: 2.25px"/>
  <circle cx="352.09" cy="159.42" r="6.06" style="fill: #fff;stroke: #304041;stroke-linecap: round;stroke-linejoin: round;stroke-width: 2.25px"/>
  <circle cx="448.38" cy="188.01" r="6.06" style="fill: #fff;stroke: #304041;stroke-linecap: round;stroke-linejoin: round;stroke-width: 2.25px"/>
</svg>
