<svg xmlns="http://www.w3.org/2000/svg" viewBox="0 0 511 271">
  <title>media_technology</title>
  <g style="opacity: 0.1">
    <polyline points="63.38 229.01 159.38 161.01 256.38 122.01 352.38 112.01 448.38 180.01" style="fill: none;stroke: #304041;stroke-linecap: round;stroke-linejoin: round;stroke-width: 2.25px"/>
  </g>
  <polyline points="63.38 217.01 159.38 149.01 256.38 110.01 352.38 100.01 448.38 168.01" style="fill: none;stroke: #304041;stroke-linecap: round;stroke-linejoin: round;stroke-width: 2.25px"/>
  <g>
    <path d="M52.9,195.35c0,2.49-.4,4.33-1.22,5.52a4.23,4.23,0,0,1-3.76,1.79,4.2,4.2,0,0,1-3.71-1.85A9.8,9.8,0,0,1,43,195.35a10,10,0,0,1,1.22-5.54A4.22,4.22,0,0,1,47.92,188a4.19,4.19,0,0,1,3.72,1.87A9.77,9.77,0,0,1,52.9,195.35Zm-6.95,0a11.07,11.07,0,0,0,.45,3.75,1.57,1.57,0,0,0,1.52,1.14,1.59,1.59,0,0,0,1.52-1.15,15.16,15.16,0,0,0,0-7.49,1.59,1.59,0,0,0-1.52-1.15,1.56,1.56,0,0,0-1.51,1.15A10.84,10.84,0,0,0,46,195.35Z" style="fill: #314041"/>
    <path d="M61,192.49a5.44,5.44,0,0,1-.87,3.36A3,3,0,0,1,57.58,197a2.92,2.92,0,0,1-2.48-1.15,5.46,5.46,0,0,1-.87-3.33q0-4.45,3.35-4.45a3,3,0,0,1,2.53,1.15A5.4,5.4,0,0,1,61,192.49Zm-4.31,0a5.69,5.69,0,0,0,.22,1.84c.14.4.38.61.7.61.62,0,.93-.82.93-2.45s-.31-2.44-.93-2.44c-.32,0-.56.2-.7.6A5.61,5.61,0,0,0,56.68,192.51Zm11-4.26-7.89,14.21H57.46l7.88-14.21Zm3.26,9.92a5.43,5.43,0,0,1-.86,3.35,3,3,0,0,1-2.54,1.12,2.92,2.92,0,0,1-2.48-1.15,5.45,5.45,0,0,1-.88-3.32q0-4.46,3.36-4.45a3,3,0,0,1,2.52,1.15A5.34,5.34,0,0,1,70.94,198.17Zm-4.3,0a6.07,6.07,0,0,0,.21,1.85c.15.4.39.61.71.61q.93,0,.93-2.46t-.93-2.43c-.32,0-.56.2-.71.6A5.92,5.92,0,0,0,66.64,198.18Z" style="fill: #314041"/>
  </g>
  <g>
    <path d="M150,135.81h-9.94v-2.09l3.57-3.61q1.59-1.63,2.07-2.25a4.68,4.68,0,0,0,.7-1.17,2.77,2.77,0,0,0,.22-1.1,1.63,1.63,0,0,0-.47-1.28,1.84,1.84,0,0,0-1.26-.42,3.69,3.69,0,0,0-1.61.38,8.28,8.28,0,0,0-1.62,1.08L140,123.42a10.77,10.77,0,0,1,1.74-1.27,7.36,7.36,0,0,1,1.51-.57,8,8,0,0,1,1.83-.2,5.45,5.45,0,0,1,2.35.49,3.73,3.73,0,0,1,1.59,1.36,3.58,3.58,0,0,1,.56,2,4.93,4.93,0,0,1-.34,1.84,7.16,7.16,0,0,1-1.07,1.76,25.34,25.34,0,0,1-2.55,2.58l-1.83,1.72v.14H150Z" style="fill: #314041"/>
    <path d="M161.3,128.7a9.84,9.84,0,0,1-1.22,5.51,4.74,4.74,0,0,1-7.47-.06,9.78,9.78,0,0,1-1.25-5.45,10,10,0,0,1,1.22-5.55,4.72,4.72,0,0,1,7.46.08A9.81,9.81,0,0,1,161.3,128.7Zm-7,0a11.15,11.15,0,0,0,.45,3.75,1.58,1.58,0,0,0,3,0,15.16,15.16,0,0,0,0-7.49,1.59,1.59,0,0,0-1.52-1.14,1.56,1.56,0,0,0-1.51,1.14A10.87,10.87,0,0,0,154.35,128.7Z" style="fill: #314041"/>
    <path d="M169.39,125.83a5.44,5.44,0,0,1-.87,3.36,3,3,0,0,1-2.54,1.12,2.93,2.93,0,0,1-2.48-1.15,5.46,5.46,0,0,1-.87-3.33c0-3,1.12-4.45,3.35-4.45a3,3,0,0,1,2.53,1.16A5.35,5.35,0,0,1,169.39,125.83Zm-4.31,0a5.65,5.65,0,0,0,.22,1.84c.14.41.38.61.7.61.62,0,.94-.82.94-2.45s-.32-2.43-.94-2.43a.75.75,0,0,0-.7.59A5.61,5.61,0,0,0,165.08,125.85Zm11-4.26-7.89,14.22h-2.33l7.88-14.22Zm3.27,9.92a5.43,5.43,0,0,1-.87,3.35,3,3,0,0,1-2.54,1.12,2.93,2.93,0,0,1-2.48-1.15,5.45,5.45,0,0,1-.87-3.32c0-3,1.11-4.45,3.35-4.45a3,3,0,0,1,2.53,1.16A5.35,5.35,0,0,1,179.35,131.51Zm-4.31,0a5.65,5.65,0,0,0,.22,1.84c.14.41.38.61.7.61.62,0,.93-.82.93-2.45s-.31-2.43-.93-2.43a.75.75,0,0,0-.7.59A5.61,5.61,0,0,0,175,131.53Z" style="fill: #314041"/>
  </g>
  <g>
    <path d="M245.72,86.19a3.34,3.34,0,0,1-.81,2.27,4.17,4.17,0,0,1-2.26,1.28v.06a4.48,4.48,0,0,1,2.6,1,2.92,2.92,0,0,1,.89,2.24,3.79,3.79,0,0,1-1.49,3.19,6.8,6.8,0,0,1-4.25,1.15,10.34,10.34,0,0,1-4.1-.77V94.1a8.82,8.82,0,0,0,1.81.68,7.52,7.52,0,0,0,2,.26,3.83,3.83,0,0,0,2.2-.5,1.87,1.87,0,0,0,.71-1.63,1.47,1.47,0,0,0-.82-1.42,6.19,6.19,0,0,0-2.61-.41h-1.08V88.77h1.1a5.12,5.12,0,0,0,2.42-.43,1.57,1.57,0,0,0,.76-1.49c0-1.07-.67-1.61-2-1.61a4.74,4.74,0,0,0-1.42.23,7.13,7.13,0,0,0-1.61.81l-1.4-2.07a7.77,7.77,0,0,1,4.64-1.4,6,6,0,0,1,3.49.89A2.89,2.89,0,0,1,245.72,86.19Z" style="fill: #314041"/>
    <path d="M255.14,97.23h-3V89l0-1.35.05-1.48c-.5.5-.85.83-1,1l-1.64,1.31-1.45-1.81L252.66,83h2.48Z" style="fill: #314041"/>
    <path d="M265.65,87.25a5.4,5.4,0,0,1-.87,3.36,3.33,3.33,0,0,1-5,0,5.47,5.47,0,0,1-.87-3.34q0-4.44,3.35-4.44A3,3,0,0,1,264.77,84,5.39,5.39,0,0,1,265.65,87.25Zm-4.31,0a5.72,5.72,0,0,0,.22,1.85c.14.4.38.6.7.6.63,0,.94-.81.94-2.45s-.31-2.43-.94-2.43c-.32,0-.56.2-.7.6A5.58,5.58,0,0,0,261.34,87.27Zm11-4.26-7.89,14.22h-2.33L270,83Zm3.27,9.92a5.39,5.39,0,0,1-.87,3.35,3,3,0,0,1-2.54,1.13,3,3,0,0,1-2.48-1.15,5.46,5.46,0,0,1-.87-3.33q0-4.44,3.35-4.44a3,3,0,0,1,2.53,1.15A5.39,5.39,0,0,1,275.61,92.93Zm-4.31,0a5.72,5.72,0,0,0,.22,1.85c.14.4.38.6.7.6.63,0,.94-.81.94-2.45s-.31-2.43-.94-2.43c-.32,0-.56.2-.7.6A5.58,5.58,0,0,0,271.3,93Z" style="fill: #314041"/>
  </g>
  <g>
    <path d="M341.93,74.22a3.34,3.34,0,0,1-.81,2.27,4.17,4.17,0,0,1-2.26,1.28v.06a4.48,4.48,0,0,1,2.6,1,2.92,2.92,0,0,1,.89,2.24,3.79,3.79,0,0,1-1.49,3.19,6.87,6.87,0,0,1-4.25,1.15,10.34,10.34,0,0,1-4.1-.77V82.13a8.82,8.82,0,0,0,1.81.68,7.46,7.46,0,0,0,2,.26,3.91,3.91,0,0,0,2.2-.5,1.87,1.87,0,0,0,.71-1.63,1.49,1.49,0,0,0-.82-1.42,6,6,0,0,0-2.61-.42h-1.08V76.8h1.1a5.12,5.12,0,0,0,2.42-.43,1.57,1.57,0,0,0,.76-1.49c0-1.07-.67-1.61-2-1.61a4.85,4.85,0,0,0-1.43.23,7.29,7.29,0,0,0-1.6.81l-1.4-2.07a7.71,7.71,0,0,1,4.64-1.4,6,6,0,0,1,3.49.89A2.89,2.89,0,0,1,341.93,74.22Z" style="fill: #314041"/>
    <path d="M354.17,82.31h-1.71v3h-2.94v-3h-6.06V80.22L349.69,71h2.77V80h1.71ZM349.52,80V77.57c0-.4,0-1,.05-1.75s.06-1.21.08-1.34h-.08a9.92,9.92,0,0,1-.86,1.56L346.1,80Z" style="fill: #314041"/>
    <path d="M361.86,75.28a5.44,5.44,0,0,1-.87,3.36,3,3,0,0,1-2.54,1.13A2.94,2.94,0,0,1,356,78.61a5.44,5.44,0,0,1-.87-3.33q0-4.44,3.35-4.44A3,3,0,0,1,361,72,5.39,5.39,0,0,1,361.86,75.28Zm-4.31,0a5.61,5.61,0,0,0,.22,1.84c.14.41.38.61.7.61.63,0,.94-.81.94-2.45s-.31-2.43-.94-2.43c-.32,0-.56.2-.7.6A5.58,5.58,0,0,0,357.55,75.3Zm11-4.26-7.89,14.22h-2.33L366.22,71ZM371.82,81a5.41,5.41,0,0,1-.87,3.35,3,3,0,0,1-2.54,1.13,2.94,2.94,0,0,1-2.48-1.16,5.41,5.41,0,0,1-.87-3.32q0-4.44,3.35-4.44a3,3,0,0,1,2.53,1.15A5.39,5.39,0,0,1,371.82,81Zm-4.31,0a5.65,5.65,0,0,0,.22,1.84c.14.41.38.61.7.61.63,0,.94-.81.94-2.45s-.31-2.43-.94-2.43c-.32,0-.56.2-.7.6A5.58,5.58,0,0,0,367.51,81Z" style="fill: #314041"/>
  </g>
  <g>
    <path d="M439.37,152.67h-3v-8.23l0-1.35.05-1.48c-.5.5-.85.83-1,1l-1.64,1.31-1.45-1.81,4.59-3.65h2.47Z" style="fill: #314041"/>
    <path d="M453.57,149.73h-1.72v2.94h-2.93v-2.94h-6.07v-2.1l6.23-9.18h2.77v8.94h1.72Zm-4.65-2.34V145c0-.4,0-1,.05-1.75s0-1.21.07-1.33H449a10.35,10.35,0,0,1-.87,1.55l-2.61,3.94Z" style="fill: #314041"/>
    <path d="M461.25,142.69a5.44,5.44,0,0,1-.87,3.36,3,3,0,0,1-2.53,1.13,2.93,2.93,0,0,1-2.48-1.16,5.35,5.35,0,0,1-.88-3.33q0-4.44,3.36-4.44a3,3,0,0,1,2.52,1.15A5.32,5.32,0,0,1,461.25,142.69Zm-4.31,0a5.72,5.72,0,0,0,.22,1.85c.15.4.38.6.7.6.63,0,.94-.81.94-2.45s-.31-2.43-.94-2.43c-.32,0-.55.2-.7.6A5.58,5.58,0,0,0,456.94,142.71Zm11-4.26-7.89,14.22h-2.33l7.89-14.22Zm3.27,9.92a5.41,5.41,0,0,1-.87,3.35,3,3,0,0,1-2.54,1.13,2.94,2.94,0,0,1-2.48-1.16,5.41,5.41,0,0,1-.87-3.32q0-4.44,3.35-4.44a3,3,0,0,1,2.53,1.15A5.32,5.32,0,0,1,471.21,148.37Zm-4.31,0a5.72,5.72,0,0,0,.22,1.85c.14.4.38.6.7.6.63,0,.94-.81.94-2.45s-.31-2.43-.94-2.43c-.32,0-.56.2-.7.6A5.58,5.58,0,0,0,466.9,148.39Z" style="fill: #314041"/>
  </g>
  <circle cx="62.96" cy="217.01" r="6.06" style="fill: #fff;stroke: #304041;stroke-linecap: round;stroke-linejoin: round;stroke-width: 2.25px"/>
  <circle cx="159.62" cy="148.51" r="6.06" style="fill: #fff;stroke: #304041;stroke-linecap: round;stroke-linejoin: round;stroke-width: 2.25px"/>
  <circle cx="255.88" cy="110.68" r="6.06" style="fill: #fff;stroke: #304041;stroke-linecap: round;stroke-linejoin: round;stroke-width: 2.25px"/>
  <circle cx="352.09" cy="99.36" r="6.06" style="fill: #fff;stroke: #304041;stroke-linecap: round;stroke-linejoin: round;stroke-width: 2.25px"/>
  <circle cx="448.09" cy="167.37" r="6.06" style="fill: #fff;stroke: #304041;stroke-linecap: round;stroke-linejoin: round;stroke-width: 2.25px"/>
</svg>
