<svg xmlns="http://www.w3.org/2000/svg" viewBox="0 0 511 271">
  <title>media_overall</title>
  <polyline points="63.48 218.92 159.8 153.43 256.12 54.54 351.16 161.13 447.48 218.92" style="fill: none;stroke: #304041;stroke-linecap: round;stroke-linejoin: round;stroke-width: 2.25px"/>
  <g>
    <path d="M48.88,194.4a10,10,0,0,1-1.22,5.52,4.25,4.25,0,0,1-3.76,1.78,4.18,4.18,0,0,1-3.71-1.84,9.71,9.71,0,0,1-1.25-5.46q0-3.77,1.21-5.55a4.22,4.22,0,0,1,3.75-1.78,4.2,4.2,0,0,1,3.72,1.86A9.81,9.81,0,0,1,48.88,194.4Zm-7,0a11.15,11.15,0,0,0,.45,3.75,1.58,1.58,0,0,0,3,0,10.46,10.46,0,0,0,.47-3.73,10.86,10.86,0,0,0-.47-3.76,1.59,1.59,0,0,0-1.51-1.14,1.57,1.57,0,0,0-1.52,1.14A11.17,11.17,0,0,0,41.92,194.4Z" style="fill: #314041"/>
    <path d="M57,191.53a5.44,5.44,0,0,1-.87,3.36A3,3,0,0,1,53.55,196a2.91,2.91,0,0,1-2.47-1.15,5.39,5.39,0,0,1-.88-3.33q0-4.44,3.35-4.44a3,3,0,0,1,2.53,1.15A5.3,5.3,0,0,1,57,191.53Zm-4.31,0a5.65,5.65,0,0,0,.22,1.84c.14.41.38.61.7.61.63,0,.94-.82.94-2.45s-.31-2.43-.94-2.43c-.32,0-.56.2-.7.6A5.58,5.58,0,0,0,52.65,191.55Zm11-4.26-7.89,14.22H53.43l7.89-14.22Zm3.27,9.92a5.41,5.41,0,0,1-.87,3.35,3,3,0,0,1-2.54,1.13A2.94,2.94,0,0,1,61,200.53a5.43,5.43,0,0,1-.87-3.32q0-4.44,3.35-4.44A3,3,0,0,1,66,193.92,5.39,5.39,0,0,1,66.92,197.21Zm-4.31,0a5.65,5.65,0,0,0,.22,1.84c.14.41.38.61.7.61.63,0,.94-.82.94-2.45s-.31-2.43-.94-2.43c-.32,0-.56.2-.7.6A5.58,5.58,0,0,0,62.61,197.23Z" style="fill: #314041"/>
  </g>
  <g>
    <path d="M137.93,140H128V138l3.57-3.61a30,30,0,0,0,2.07-2.25,4.68,4.68,0,0,0,.7-1.17,2.77,2.77,0,0,0,.22-1.1,1.65,1.65,0,0,0-.47-1.28,1.84,1.84,0,0,0-1.26-.42,3.69,3.69,0,0,0-1.61.38,8.76,8.76,0,0,0-1.62,1.08L128,127.65a10.77,10.77,0,0,1,1.74-1.27,7.36,7.36,0,0,1,1.51-.57,8,8,0,0,1,1.83-.2,5.45,5.45,0,0,1,2.35.49,3.8,3.8,0,0,1,1.59,1.36,3.6,3.6,0,0,1,.56,2,4.89,4.89,0,0,1-.34,1.84,7.16,7.16,0,0,1-1.07,1.76,25.34,25.34,0,0,1-2.55,2.58l-1.83,1.72v.14h6.19Z" style="fill: #314041"/>
    <path d="M148.75,129a3.36,3.36,0,0,1-.81,2.27,4.17,4.17,0,0,1-2.27,1.28v.06a4.54,4.54,0,0,1,2.61,1,2.94,2.94,0,0,1,.89,2.25,3.8,3.8,0,0,1-1.49,3.19,6.87,6.87,0,0,1-4.25,1.14,10.21,10.21,0,0,1-4.11-.77v-2.55a9.54,9.54,0,0,0,1.82.68,7.9,7.9,0,0,0,2,.26,3.82,3.82,0,0,0,2.2-.51,1.84,1.84,0,0,0,.7-1.62,1.47,1.47,0,0,0-.81-1.42,6.06,6.06,0,0,0-2.61-.42h-1.08v-2.3h1.1a5.1,5.1,0,0,0,2.42-.44,1.55,1.55,0,0,0,.76-1.48c0-1.08-.67-1.61-2-1.61a4.54,4.54,0,0,0-1.43.23,6.92,6.92,0,0,0-1.61.81L139.34,127a7.71,7.71,0,0,1,4.64-1.41,6,6,0,0,1,3.49.9A2.89,2.89,0,0,1,148.75,129Z" style="fill: #314041"/>
    <path d="M157.31,130.06a5.44,5.44,0,0,1-.87,3.36,3,3,0,0,1-2.54,1.12,2.93,2.93,0,0,1-2.48-1.15,5.46,5.46,0,0,1-.87-3.33c0-3,1.12-4.45,3.35-4.45a3,3,0,0,1,2.53,1.16A5.37,5.37,0,0,1,157.31,130.06Zm-4.31,0a5.65,5.65,0,0,0,.22,1.84c.14.41.38.61.7.61.62,0,.94-.82.94-2.45s-.32-2.43-.94-2.43c-.32,0-.56.2-.7.6A5.54,5.54,0,0,0,153,130.08Zm11-4.26L156.11,140h-2.33l7.88-14.22Zm3.27,9.92a5.43,5.43,0,0,1-.87,3.35,3,3,0,0,1-2.54,1.12,2.93,2.93,0,0,1-2.48-1.15,5.43,5.43,0,0,1-.87-3.32c0-3,1.12-4.45,3.35-4.45a3,3,0,0,1,2.53,1.16A5.37,5.37,0,0,1,167.27,135.74Zm-4.31,0a5.65,5.65,0,0,0,.22,1.84c.14.41.38.61.7.61.62,0,.94-.82.94-2.45s-.32-2.43-.94-2.43c-.32,0-.56.2-.7.6A5.54,5.54,0,0,0,163,135.76Z" style="fill: #314041"/>
  </g>
  <g>
    <path d="M245.57,32.25a4.59,4.59,0,0,1,3.28,1.16,4.17,4.17,0,0,1,1.22,3.17,4.62,4.62,0,0,1-1.47,3.67,6.17,6.17,0,0,1-4.2,1.28,8.12,8.12,0,0,1-3.83-.77V38.17a7.78,7.78,0,0,0,1.79.66,7.5,7.5,0,0,0,1.93.26c1.84,0,2.75-.75,2.75-2.25s-.95-2.15-2.85-2.15a6.74,6.74,0,0,0-1.13.1,8.25,8.25,0,0,0-1,.22l-1.19-.65.53-7.24h7.72v2.55H244l-.26,2.79.34-.07A6.65,6.65,0,0,1,245.57,32.25Z" style="fill: #314041"/>
    <path d="M253.17,41.34l5.34-11.67h-7V27.14h10.2V29l-5.38,12.31Z" style="fill: #314041"/>
    <path d="M269.71,31.36a5.44,5.44,0,0,1-.87,3.36,3,3,0,0,1-2.54,1.12,2.93,2.93,0,0,1-2.48-1.15,5.46,5.46,0,0,1-.87-3.33c0-3,1.11-4.44,3.35-4.44a3,3,0,0,1,2.53,1.15A5.37,5.37,0,0,1,269.71,31.36Zm-4.31,0a5.65,5.65,0,0,0,.22,1.84c.14.41.38.61.7.61.62,0,.93-.82.93-2.45s-.31-2.43-.93-2.43c-.32,0-.56.2-.7.6A5.54,5.54,0,0,0,265.4,31.38Zm11-4.26-7.89,14.22h-2.34l7.89-14.22ZM279.67,37a5.43,5.43,0,0,1-.87,3.35,3,3,0,0,1-2.54,1.12,2.92,2.92,0,0,1-2.48-1.15,5.43,5.43,0,0,1-.87-3.32c0-3,1.11-4.45,3.35-4.45a3,3,0,0,1,2.52,1.16A5.3,5.3,0,0,1,279.67,37Zm-4.31,0a5.65,5.65,0,0,0,.22,1.84c.14.41.38.61.7.61.62,0,.93-.82.93-2.45s-.31-2.43-.93-2.43c-.32,0-.56.2-.7.6A5.54,5.54,0,0,0,275.36,37.06Z" style="fill: #314041"/>
  </g>
  <g>
    <path d="M357.14,142.51H347.2v-2.09l3.56-3.61c1.06-1.09,1.75-1.84,2.08-2.25a5.37,5.37,0,0,0,.7-1.17,3,3,0,0,0,.21-1.11,1.62,1.62,0,0,0-.47-1.27,1.83,1.83,0,0,0-1.26-.42,3.62,3.62,0,0,0-1.6.38,7.9,7.9,0,0,0-1.63,1.08l-1.63-1.93a10.77,10.77,0,0,1,1.74-1.27,7,7,0,0,1,1.51-.57,7.8,7.8,0,0,1,1.82-.2,5.5,5.5,0,0,1,2.36.49,3.7,3.7,0,0,1,1.58,1.36,3.57,3.57,0,0,1,.57,2,5,5,0,0,1-.35,1.85,7.16,7.16,0,0,1-1.07,1.76,25.3,25.3,0,0,1-2.55,2.58l-1.83,1.72V140h6.2Z" style="fill: #314041"/>
    <path d="M368.43,135.4a9.93,9.93,0,0,1-1.22,5.51,4.25,4.25,0,0,1-3.76,1.79,4.17,4.17,0,0,1-3.71-1.85,9.7,9.7,0,0,1-1.25-5.45q0-3.77,1.21-5.55a4.73,4.73,0,0,1,7.47.08A9.81,9.81,0,0,1,368.43,135.4Zm-7,0a10.84,10.84,0,0,0,.46,3.75,1.57,1.57,0,0,0,1.52,1.13,1.59,1.59,0,0,0,1.52-1.15,15.31,15.31,0,0,0,0-7.49,1.58,1.58,0,0,0-3,0A11.13,11.13,0,0,0,361.47,135.4Z" style="fill: #314041"/>
    <path d="M376.51,132.53a5.44,5.44,0,0,1-.87,3.36,3,3,0,0,1-2.53,1.12,2.92,2.92,0,0,1-2.48-1.15,5.39,5.39,0,0,1-.88-3.33q0-4.46,3.36-4.45a3,3,0,0,1,2.52,1.16A5.28,5.28,0,0,1,376.51,132.53Zm-4.31,0a5.69,5.69,0,0,0,.22,1.84c.15.41.38.61.71.61.62,0,.93-.82.93-2.45s-.31-2.43-.93-2.43c-.33,0-.56.2-.71.59A5.61,5.61,0,0,0,372.2,132.55Zm11-4.26-7.89,14.22H373l7.89-14.22Zm3.27,9.92a5.43,5.43,0,0,1-.87,3.35,3,3,0,0,1-2.53,1.12,3,3,0,0,1-2.49-1.15,5.45,5.45,0,0,1-.87-3.32q0-4.46,3.36-4.45a3,3,0,0,1,2.52,1.16A5.28,5.28,0,0,1,386.47,138.21Zm-4.31,0a5.65,5.65,0,0,0,.22,1.84c.15.41.38.61.7.61.63,0,.94-.82.94-2.45s-.31-2.43-.94-2.43c-.32,0-.55.2-.7.59A5.61,5.61,0,0,0,382.16,138.23Z" style="fill: #314041"/>
  </g>
  <g>
    <path d="M447.48,194.4a9.9,9.9,0,0,1-1.22,5.52,4.76,4.76,0,0,1-7.47-.06,9.8,9.8,0,0,1-1.25-5.46,10,10,0,0,1,1.22-5.55,4.73,4.73,0,0,1,7.46.08A9.81,9.81,0,0,1,447.48,194.4Zm-7,0a11.15,11.15,0,0,0,.45,3.75,1.56,1.56,0,0,0,1.52,1.13,1.58,1.58,0,0,0,1.52-1.15,10.7,10.7,0,0,0,.47-3.73,10.86,10.86,0,0,0-.47-3.76,1.59,1.59,0,0,0-1.52-1.14,1.56,1.56,0,0,0-1.51,1.14A10.91,10.91,0,0,0,440.53,194.4Z" style="fill: #314041"/>
    <path d="M455.57,191.53a5.44,5.44,0,0,1-.87,3.36,3,3,0,0,1-2.54,1.12,2.92,2.92,0,0,1-2.48-1.15,5.46,5.46,0,0,1-.87-3.33c0-3,1.11-4.44,3.35-4.44a3,3,0,0,1,2.53,1.15A5.39,5.39,0,0,1,455.57,191.53Zm-4.31,0a5.65,5.65,0,0,0,.22,1.84c.14.41.38.61.7.61.62,0,.93-.82.93-2.45s-.31-2.43-.93-2.43c-.32,0-.56.2-.7.6A5.58,5.58,0,0,0,451.26,191.55Zm11-4.26-7.89,14.22H452l7.88-14.22Zm3.26,9.92a5.41,5.41,0,0,1-.86,3.35,3,3,0,0,1-2.54,1.13,2.93,2.93,0,0,1-2.48-1.16,5.43,5.43,0,0,1-.88-3.32q0-4.44,3.36-4.44a3,3,0,0,1,2.52,1.15A5.32,5.32,0,0,1,465.52,197.21Zm-4.3,0a6,6,0,0,0,.21,1.84c.15.41.39.61.71.61.62,0,.93-.82.93-2.45s-.31-2.43-.93-2.43c-.32,0-.56.2-.71.6A5.92,5.92,0,0,0,461.22,197.23Z" style="fill: #314041"/>
  </g>
  <circle cx="63.48" cy="218.92" r="6.06" style="fill: #fff;stroke: #304041;stroke-linecap: round;stroke-linejoin: round;stroke-width: 2.25px"/>
  <circle cx="160.21" cy="152.9" r="6.06" style="fill: #fff;stroke: #304041;stroke-linecap: round;stroke-linejoin: round;stroke-width: 2.25px"/>
  <circle cx="255.48" cy="54.54" r="6.06" style="fill: #fff;stroke: #304041;stroke-linecap: round;stroke-linejoin: round;stroke-width: 2.25px"/>
  <circle cx="351.48" cy="161.56" r="6.06" style="fill: #fff;stroke: #304041;stroke-linecap: round;stroke-linejoin: round;stroke-width: 2.25px"/>
  <circle cx="447.48" cy="218.92" r="6.06" style="fill: #fff;stroke: #304041;stroke-linecap: round;stroke-linejoin: round;stroke-width: 2.25px"/>
</svg>
