<svg id="Layer_1" data-name="Layer 1" xmlns="http://www.w3.org/2000/svg" viewBox="0 0 511 271">
  <title>media_process</title>
  <g style="opacity: 0.1">
    <polyline points="63.38 200.01 159.38 112.01 256.38 180.01 352.38 122.01 448.38 190.01" style="fill: none;stroke: #304041;stroke-linecap: round;stroke-linejoin: round;stroke-width: 2.25px"/>
  </g>
  <polyline points="63.38 188.01 159.38 100.01 256.38 168.01 352.38 110.01 448.38 178.01" style="fill: none;stroke: #304041;stroke-linecap: round;stroke-linejoin: round;stroke-width: 2.25px"/>
  <g>
    <path d="M42.25,165.86q0,4.2-1.78,6.27a6.65,6.65,0,0,1-5.35,2.07,10.2,10.2,0,0,1-1.92-.13v-2.42a6.91,6.91,0,0,0,1.71.21,6.09,6.09,0,0,0,2.48-.44,3.11,3.11,0,0,0,1.49-1.4,6.14,6.14,0,0,0,.59-2.61h-.11a3.36,3.36,0,0,1-1.31,1.29,4.18,4.18,0,0,1-1.84.37,3.72,3.72,0,0,1-2.93-1.2,4.73,4.73,0,0,1-1.07-3.31,4.93,4.93,0,0,1,1.3-3.61A4.68,4.68,0,0,1,37,159.62a5.13,5.13,0,0,1,2.76.74,4.7,4.7,0,0,1,1.81,2.15A8.1,8.1,0,0,1,42.25,165.86ZM37.1,162a1.79,1.79,0,0,0-1.46.65,2.82,2.82,0,0,0-.52,1.84,2.62,2.62,0,0,0,.47,1.64,1.74,1.74,0,0,0,1.45.6,2.25,2.25,0,0,0,1.57-.6,1.82,1.82,0,0,0,.65-1.37,3.1,3.1,0,0,0-.61-2A1.87,1.87,0,0,0,37.1,162Z" style="fill: #314041"/>
    <path d="M50.31,164a5.44,5.44,0,0,1-.87,3.36,3,3,0,0,1-2.54,1.12,2.93,2.93,0,0,1-2.48-1.15,5.46,5.46,0,0,1-.87-3.33q0-4.46,3.35-4.45a3,3,0,0,1,2.53,1.16A5.35,5.35,0,0,1,50.31,164Zm-4.31,0a5.65,5.65,0,0,0,.22,1.84c.14.41.38.61.7.61.63,0,.94-.82.94-2.45s-.31-2.43-.94-2.43a.75.75,0,0,0-.7.59A5.61,5.61,0,0,0,46,164.05Zm11-4.26L49.11,174H46.78l7.89-14.22Zm3.27,9.92a5.43,5.43,0,0,1-.87,3.35,3,3,0,0,1-2.54,1.12A2.93,2.93,0,0,1,54.38,173a5.45,5.45,0,0,1-.87-3.32c0-3,1.12-4.45,3.35-4.45a3,3,0,0,1,2.53,1.16A5.35,5.35,0,0,1,60.27,169.71Zm-4.31,0a5.65,5.65,0,0,0,.22,1.84c.14.41.38.61.7.61.62,0,.94-.82.94-2.45s-.32-2.43-.94-2.43a.75.75,0,0,0-.7.59A5.61,5.61,0,0,0,56,169.73Z" style="fill: #314041"/>
  </g>
  <g>
    <path d="M150.46,76.51a3.32,3.32,0,0,1-.81,2.26,4.18,4.18,0,0,1-2.27,1.29v.06a4.54,4.54,0,0,1,2.61,1,2.94,2.94,0,0,1,.89,2.24,3.81,3.81,0,0,1-1.49,3.2,6.87,6.87,0,0,1-4.25,1.14A10.39,10.39,0,0,1,141,87V84.41a8.91,8.91,0,0,0,1.82.68,7.48,7.48,0,0,0,2,.27,3.82,3.82,0,0,0,2.2-.51,1.87,1.87,0,0,0,.71-1.62,1.48,1.48,0,0,0-.82-1.42,6,6,0,0,0-2.61-.42h-1.08V79.08h1.1a5.12,5.12,0,0,0,2.42-.43,1.56,1.56,0,0,0,.76-1.48c0-1.08-.67-1.62-2-1.62a4.56,4.56,0,0,0-1.43.24,6.84,6.84,0,0,0-1.61.8l-1.39-2.07a7.77,7.77,0,0,1,4.64-1.4,6,6,0,0,1,3.49.9A2.86,2.86,0,0,1,150.46,76.51Z" style="fill: #314041"/>
    <path d="M162.7,84.6H161v3h-2.94v-3H152V82.51l6.23-9.18H161v8.93h1.71Zm-4.65-2.34V79.85c0-.4,0-1,0-1.75s.06-1.21.08-1.33h-.08a12,12,0,0,1-.86,1.56l-2.61,3.93Z" style="fill: #314041"/>
    <path d="M170.39,77.57a5.44,5.44,0,0,1-.87,3.36A3,3,0,0,1,167,82.05a2.93,2.93,0,0,1-2.48-1.15,5.46,5.46,0,0,1-.87-3.33q0-4.45,3.35-4.45a3,3,0,0,1,2.53,1.15A5.4,5.4,0,0,1,170.39,77.57Zm-4.31,0a5.69,5.69,0,0,0,.22,1.84c.14.41.38.61.7.61.62,0,.94-.82.94-2.45s-.32-2.43-.94-2.43a.74.74,0,0,0-.7.59A5.61,5.61,0,0,0,166.08,77.59Zm11-4.26-7.89,14.22h-2.33l7.88-14.22Zm3.27,9.92a5.43,5.43,0,0,1-.87,3.35,3,3,0,0,1-2.54,1.12,2.93,2.93,0,0,1-2.48-1.15,5.45,5.45,0,0,1-.87-3.32q0-4.45,3.35-4.45A3,3,0,0,1,179.47,80,5.35,5.35,0,0,1,180.35,83.25Zm-4.31,0a5.69,5.69,0,0,0,.22,1.84c.14.4.38.61.7.61.62,0,.94-.82.94-2.45s-.32-2.43-.94-2.43a.74.74,0,0,0-.7.59A5.61,5.61,0,0,0,176,83.27Z" style="fill: #314041"/>
  </g>
  <g>
    <path d="M243.86,150.67h-3v-8.23l0-1.35.05-1.48c-.5.5-.85.83-1,1l-1.64,1.32-1.44-1.81,4.58-3.65h2.47Z" style="fill: #314041"/>
    <path d="M258.06,147.72h-1.72v2.95h-2.93v-2.95h-6.07v-2.09l6.23-9.18h2.77v8.94h1.72Zm-4.65-2.33V143c0-.4,0-1,.05-1.75s0-1.21.07-1.34h-.07a10,10,0,0,1-.87,1.56L250,145.39Z" style="fill: #314041"/>
    <path d="M265.74,140.69a5.51,5.51,0,0,1-.86,3.36,3,3,0,0,1-2.54,1.13,2.93,2.93,0,0,1-2.48-1.16,5.37,5.37,0,0,1-.88-3.33q0-4.44,3.36-4.44a3,3,0,0,1,2.52,1.15A5.32,5.32,0,0,1,265.74,140.69Zm-4.31,0a5.61,5.61,0,0,0,.22,1.84c.15.41.38.61.71.61.62,0,.93-.81.93-2.45s-.31-2.43-.93-2.43c-.33,0-.56.2-.71.6A5.58,5.58,0,0,0,261.43,140.71Zm11-4.26-7.89,14.22h-2.33l7.89-14.22Zm3.27,9.92a5.41,5.41,0,0,1-.87,3.35,3,3,0,0,1-2.53,1.13,2.93,2.93,0,0,1-2.48-1.16,5.34,5.34,0,0,1-.88-3.32q0-4.44,3.36-4.44a3,3,0,0,1,2.52,1.15A5.32,5.32,0,0,1,275.7,146.37Zm-4.31,0a5.61,5.61,0,0,0,.22,1.84c.15.41.38.61.71.61.62,0,.93-.81.93-2.45s-.31-2.43-.93-2.43c-.33,0-.56.2-.71.6A5.58,5.58,0,0,0,271.39,146.39Z" style="fill: #314041"/>
  </g>
  <g>
    <path d="M341.93,86.87a3.36,3.36,0,0,1-.81,2.27,4.17,4.17,0,0,1-2.26,1.28v.06a4.54,4.54,0,0,1,2.6,1,2.94,2.94,0,0,1,.89,2.24,3.81,3.81,0,0,1-1.49,3.2,6.87,6.87,0,0,1-4.25,1.14,10.25,10.25,0,0,1-4.11-.77V94.78a10.56,10.56,0,0,0,1.82.68,8,8,0,0,0,2,.26,3.82,3.82,0,0,0,2.2-.51,1.84,1.84,0,0,0,.71-1.62,1.48,1.48,0,0,0-.82-1.42,6,6,0,0,0-2.61-.42h-1.08v-2.3h1.1a5.1,5.1,0,0,0,2.42-.44,1.55,1.55,0,0,0,.76-1.48c0-1.08-.67-1.61-2-1.61a4.54,4.54,0,0,0-1.43.23,6.33,6.33,0,0,0-1.6.81l-1.4-2.07a7.71,7.71,0,0,1,4.64-1.41,6,6,0,0,1,3.49.9A2.89,2.89,0,0,1,341.93,86.87Z" style="fill: #314041"/>
    <path d="M351.34,97.91h-3V89.68l0-1.35.05-1.48c-.5.5-.85.83-1,1l-1.64,1.31-1.45-1.8,4.58-3.65h2.47Z" style="fill: #314041"/>
    <path d="M361.86,87.93a5.44,5.44,0,0,1-.87,3.36,3,3,0,0,1-2.54,1.12A2.93,2.93,0,0,1,356,91.26a5.46,5.46,0,0,1-.87-3.33c0-3,1.12-4.45,3.35-4.45A3,3,0,0,1,361,84.64,5.37,5.37,0,0,1,361.86,87.93Zm-4.31,0a5.65,5.65,0,0,0,.22,1.84c.14.41.38.61.7.61.62,0,.94-.82.94-2.45s-.32-2.43-.94-2.43c-.32,0-.56.2-.7.6A5.54,5.54,0,0,0,357.55,88Zm11-4.26-7.89,14.22h-2.33l7.88-14.22Zm3.27,9.92A5.43,5.43,0,0,1,371,97a3,3,0,0,1-2.54,1.12,2.93,2.93,0,0,1-2.48-1.15,5.45,5.45,0,0,1-.87-3.32c0-3,1.12-4.45,3.35-4.45a3,3,0,0,1,2.53,1.16A5.37,5.37,0,0,1,371.82,93.61Zm-4.31,0a5.65,5.65,0,0,0,.22,1.84c.14.41.38.61.7.61.62,0,.94-.82.94-2.45s-.32-2.43-.94-2.43c-.32,0-.56.2-.7.6A5.54,5.54,0,0,0,367.51,93.63Z" style="fill: #314041"/>
  </g>
  <g>
    <path d="M436.27,160.81h-3v-8.23l0-1.35,0-1.48c-.5.5-.85.83-1,1l-1.64,1.31-1.45-1.81,4.58-3.65h2.48Z" style="fill: #314041"/>
    <path d="M447.63,160.81h-3v-8.23l0-1.35,0-1.48c-.5.5-.85.83-1,1L442,152.05l-1.45-1.81,4.59-3.65h2.46Z" style="fill: #314041"/>
    <path d="M458.15,150.83a5.44,5.44,0,0,1-.87,3.36,3,3,0,0,1-2.53,1.13,3,3,0,0,1-2.49-1.16,5.42,5.42,0,0,1-.87-3.33q0-4.44,3.36-4.44a3,3,0,0,1,2.52,1.15A5.32,5.32,0,0,1,458.15,150.83Zm-4.31,0a5.72,5.72,0,0,0,.22,1.85c.15.4.38.6.7.6.63,0,.94-.81.94-2.45s-.31-2.43-.94-2.43c-.32,0-.55.2-.7.6A5.58,5.58,0,0,0,453.84,150.85Zm11-4.26L457,160.81h-2.33l7.89-14.22Zm3.27,9.92a5.41,5.41,0,0,1-.87,3.35A3,3,0,0,1,464.7,161a2.94,2.94,0,0,1-2.48-1.16,5.41,5.41,0,0,1-.87-3.32q0-4.44,3.35-4.44a3,3,0,0,1,2.53,1.15A5.39,5.39,0,0,1,468.11,156.51Zm-4.31,0a5.72,5.72,0,0,0,.22,1.85c.14.4.38.6.7.6.63,0,.94-.81.94-2.45s-.31-2.43-.94-2.43c-.32,0-.56.2-.7.6A5.58,5.58,0,0,0,463.8,156.53Z" style="fill: #314041"/>
  </g>
  <circle cx="62.96" cy="188.01" r="6.06" style="fill: #fff;stroke: #304041;stroke-linecap: round;stroke-linejoin: round;stroke-width: 2.25px"/>
  <circle cx="159.62" cy="100.01" r="6.06" style="fill: #fff;stroke: #304041;stroke-linecap: round;stroke-linejoin: round;stroke-width: 2.25px"/>
  <circle cx="255.97" cy="167.95" r="6.06" style="fill: #fff;stroke: #304041;stroke-linecap: round;stroke-linejoin: round;stroke-width: 2.25px"/>
  <circle cx="352.09" cy="110.21" r="6.06" style="fill: #fff;stroke: #304041;stroke-linecap: round;stroke-linejoin: round;stroke-width: 2.25px"/>
  <circle cx="448.09" cy="176.95" r="6.06" style="fill: #fff;stroke: #304041;stroke-linecap: round;stroke-linejoin: round;stroke-width: 2.25px"/>
</svg>
