<svg id="Layer_1" data-name="Layer 1" xmlns="http://www.w3.org/2000/svg" viewBox="0 0 511 271">
  <title>media_portfolio</title>
  <g style="opacity: 0.1">
    <polyline points="63.38 229.01 159.38 93.01 256.38 112.01 352.38 151.01 448.38 219.01" style="fill: none;stroke: #304041;stroke-linecap: round;stroke-linejoin: round;stroke-width: 2.25px"/>
  </g>
  <polyline points="63.38 217.01 159.38 81.01 256.38 100.01 352.38 139.01 448.38 207.01" style="fill: none;stroke: #304041;stroke-linecap: round;stroke-linejoin: round;stroke-width: 2.25px"/>
  <g>
    <path d="M40.45,196a9.94,9.94,0,0,1-1.22,5.52,4.23,4.23,0,0,1-3.76,1.79,4.2,4.2,0,0,1-3.71-1.85A9.8,9.8,0,0,1,30.51,196a10,10,0,0,1,1.22-5.54,4.2,4.2,0,0,1,3.74-1.79,4.19,4.19,0,0,1,3.72,1.87A9.75,9.75,0,0,1,40.45,196Zm-7,0a11.07,11.07,0,0,0,.45,3.75,1.57,1.57,0,0,0,1.52,1.14A1.59,1.59,0,0,0,37,199.74a15.2,15.2,0,0,0,0-7.5,1.59,1.59,0,0,0-1.52-1.14A1.56,1.56,0,0,0,34,192.24,11,11,0,0,0,33.5,196Z" style="fill: #314041"/>
    <path d="M48.53,193.13a5.4,5.4,0,0,1-.86,3.36,3,3,0,0,1-2.54,1.13,3,3,0,0,1-2.48-1.15,5.47,5.47,0,0,1-.87-3.34c0-3,1.11-4.44,3.35-4.44a3,3,0,0,1,2.52,1.15A5.32,5.32,0,0,1,48.53,193.13Zm-4.3,0a5.72,5.72,0,0,0,.22,1.85c.14.4.38.6.7.6.62,0,.93-.81.93-2.45s-.31-2.43-.93-2.43c-.32,0-.56.2-.7.6A5.58,5.58,0,0,0,44.23,193.15Zm11-4.26-7.89,14.22H45l7.89-14.22Zm3.26,9.92a5.44,5.44,0,0,1-.86,3.36,3,3,0,0,1-2.54,1.12,3,3,0,0,1-2.48-1.15,5.46,5.46,0,0,1-.88-3.33q0-4.44,3.36-4.44a3,3,0,0,1,2.52,1.15A5.32,5.32,0,0,1,58.49,198.81Zm-4.3,0a6.07,6.07,0,0,0,.21,1.85c.15.4.39.6.71.6.62,0,.93-.81.93-2.45s-.31-2.43-.93-2.43c-.32,0-.56.2-.71.6A5.92,5.92,0,0,0,54.19,198.83Z" style="fill: #314041"/>
  </g>
  <g>
    <path d="M150.33,66.63h-1.71v3h-2.94v-3h-6.06V64.54l6.23-9.18h2.77V64.3h1.71Zm-4.65-2.33V61.88c0-.4,0-1,0-1.75s.06-1.2.08-1.33h-.08a12,12,0,0,1-.86,1.56l-2.61,3.94Z" style="fill: #314041"/>
    <path d="M161.3,62.47A9.84,9.84,0,0,1,160.08,68a4.74,4.74,0,0,1-7.47-.06,9.78,9.78,0,0,1-1.25-5.45,10,10,0,0,1,1.22-5.55,4.22,4.22,0,0,1,3.75-1.79A4.18,4.18,0,0,1,160,57,9.81,9.81,0,0,1,161.3,62.47Zm-7,0a11.15,11.15,0,0,0,.45,3.75,1.58,1.58,0,0,0,3,0,10.74,10.74,0,0,0,.47-3.73,10.82,10.82,0,0,0-.47-3.76,1.59,1.59,0,0,0-1.51-1.14,1.57,1.57,0,0,0-1.52,1.14A10.87,10.87,0,0,0,154.35,62.47Z" style="fill: #314041"/>
    <path d="M169.39,59.6a5.44,5.44,0,0,1-.87,3.36A3,3,0,0,1,166,64.08a2.93,2.93,0,0,1-2.48-1.15,5.46,5.46,0,0,1-.87-3.33c0-3,1.12-4.45,3.35-4.45a3,3,0,0,1,2.53,1.16A5.37,5.37,0,0,1,169.39,59.6Zm-4.31,0a5.65,5.65,0,0,0,.22,1.84c.14.41.38.61.7.61.62,0,.94-.82.94-2.45s-.32-2.43-.94-2.43c-.32,0-.56.2-.7.6A5.54,5.54,0,0,0,165.08,59.62Zm11-4.26-7.89,14.22h-2.33l7.88-14.22Zm3.27,9.92a5.43,5.43,0,0,1-.87,3.35,3,3,0,0,1-2.54,1.12,2.93,2.93,0,0,1-2.48-1.15,5.45,5.45,0,0,1-.87-3.32c0-3,1.12-4.45,3.35-4.45A3,3,0,0,1,178.47,62,5.37,5.37,0,0,1,179.35,65.28Zm-4.31,0a5.65,5.65,0,0,0,.22,1.84c.14.41.38.61.7.61.62,0,.94-.82.94-2.45s-.32-2.43-.94-2.43c-.32,0-.56.2-.7.6A5.5,5.5,0,0,0,175,65.3Z" style="fill: #314041"/>
  </g>
  <g>
    <path d="M245.72,74.94a3.34,3.34,0,0,1-.81,2.27,4.14,4.14,0,0,1-2.26,1.28v.06a4.48,4.48,0,0,1,2.6,1,2.92,2.92,0,0,1,.89,2.24A3.79,3.79,0,0,1,244.65,85a6.8,6.8,0,0,1-4.25,1.15,10.34,10.34,0,0,1-4.1-.77V82.85a8.82,8.82,0,0,0,1.81.68,7.52,7.52,0,0,0,2,.26,3.83,3.83,0,0,0,2.2-.5,1.87,1.87,0,0,0,.71-1.63,1.49,1.49,0,0,0-.82-1.42,6.19,6.19,0,0,0-2.61-.41h-1.08V77.52h1.1a5.09,5.09,0,0,0,2.42-.43,1.56,1.56,0,0,0,.76-1.48c0-1.08-.67-1.62-2-1.62a4.74,4.74,0,0,0-1.42.23,7.13,7.13,0,0,0-1.61.81L236.32,73a7.73,7.73,0,0,1,4.64-1.4,6,6,0,0,1,3.48.89A2.89,2.89,0,0,1,245.72,74.94Z" style="fill: #314041"/>
    <path d="M258,83h-1.71V86h-2.93V83h-6.07v-2.1l6.23-9.18h2.77V80.7H258Zm-4.64-2.34V78.29c0-.4,0-1,.05-1.75s0-1.21.07-1.33h-.07a10.35,10.35,0,0,1-.87,1.55l-2.61,3.94Z" style="fill: #314041"/>
    <path d="M265.65,76a5.4,5.4,0,0,1-.87,3.36,3.33,3.33,0,0,1-5,0,5.47,5.47,0,0,1-.87-3.34q0-4.44,3.36-4.44a3,3,0,0,1,2.52,1.15A5.32,5.32,0,0,1,265.65,76Zm-4.31,0a5.72,5.72,0,0,0,.22,1.85c.15.4.38.6.7.6.63,0,.94-.81.94-2.45s-.31-2.43-.94-2.43c-.32,0-.55.2-.7.6A5.58,5.58,0,0,0,261.34,76Zm11-4.26L264.45,86h-2.33L270,71.76Zm3.27,9.92a5.39,5.39,0,0,1-.87,3.35,3,3,0,0,1-2.54,1.13A3,3,0,0,1,269.72,85a5.46,5.46,0,0,1-.87-3.33q0-4.44,3.35-4.44a3,3,0,0,1,2.53,1.15A5.39,5.39,0,0,1,275.61,81.68Zm-4.31,0a5.72,5.72,0,0,0,.22,1.85c.14.4.38.6.7.6.63,0,.94-.81.94-2.45s-.31-2.43-.94-2.43c-.32,0-.56.2-.7.6A5.58,5.58,0,0,0,271.3,81.7Z" style="fill: #314041"/>
  </g>
  <g>
    <path d="M344.33,127.1h-9.94V125l3.57-3.6c1.06-1.09,1.75-1.84,2.07-2.26a4.47,4.47,0,0,0,.7-1.16,3,3,0,0,0,.22-1.11,1.59,1.59,0,0,0-.48-1.27,1.81,1.81,0,0,0-1.26-.42,3.65,3.65,0,0,0-1.6.38,7.86,7.86,0,0,0-1.62,1.08l-1.64-1.94a11.24,11.24,0,0,1,1.74-1.26,6.05,6.05,0,0,1,1.51-.57,7.83,7.83,0,0,1,1.83-.2,5.31,5.31,0,0,1,2.35.49,3.79,3.79,0,0,1,1.59,1.36,3.65,3.65,0,0,1,.56,2,4.94,4.94,0,0,1-.34,1.85,7.16,7.16,0,0,1-1.07,1.76,28.05,28.05,0,0,1-2.56,2.58l-1.83,1.72v.14h6.2Z" style="fill: #314041"/>
    <path d="M355.15,116.07a3.33,3.33,0,0,1-.81,2.26,4.28,4.28,0,0,1-2.27,1.29v0a4.61,4.61,0,0,1,2.61,1,2.92,2.92,0,0,1,.88,2.24,3.82,3.82,0,0,1-1.48,3.2,6.89,6.89,0,0,1-4.25,1.14,10.35,10.35,0,0,1-4.11-.77V124a8.91,8.91,0,0,0,1.82.68,7.46,7.46,0,0,0,2,.27,3.78,3.78,0,0,0,2.2-.51,1.84,1.84,0,0,0,.71-1.62,1.45,1.45,0,0,0-.82-1.42A6,6,0,0,0,349,121h-1.08v-2.31H349a5,5,0,0,0,2.41-.43,1.56,1.56,0,0,0,.77-1.48c0-1.08-.68-1.62-2-1.62a4.52,4.52,0,0,0-1.43.24,6.84,6.84,0,0,0-1.61.8l-1.39-2.07a7.75,7.75,0,0,1,4.64-1.4,6,6,0,0,1,3.49.9A2.86,2.86,0,0,1,355.15,116.07Z" style="fill: #314041"/>
    <path d="M363.7,117.13a5.44,5.44,0,0,1-.86,3.36,3,3,0,0,1-2.54,1.12,3,3,0,0,1-2.48-1.15,5.46,5.46,0,0,1-.88-3.33q0-4.45,3.36-4.45a3,3,0,0,1,2.52,1.15A5.34,5.34,0,0,1,363.7,117.13Zm-4.3,0a6.07,6.07,0,0,0,.21,1.85c.15.4.39.61.71.61q.93,0,.93-2.46t-.93-2.43c-.32,0-.56.2-.71.6A5.92,5.92,0,0,0,359.4,117.14Zm11-4.26-7.89,14.22h-2.34l7.89-14.22Zm3.26,9.93a5.43,5.43,0,0,1-.86,3.35,3,3,0,0,1-2.54,1.12,2.92,2.92,0,0,1-2.48-1.15,5.45,5.45,0,0,1-.88-3.32q0-4.45,3.36-4.45a3,3,0,0,1,2.52,1.15A5.34,5.34,0,0,1,373.66,122.81Zm-4.31,0a6,6,0,0,0,.22,1.84c.15.4.38.61.71.61.62,0,.93-.82.93-2.45s-.31-2.44-.93-2.44c-.33,0-.56.2-.71.6A5.89,5.89,0,0,0,369.35,122.83Z" style="fill: #314041"/>
  </g>
  <g>
    <path d="M447,181.16a3.36,3.36,0,0,1-.81,2.27,4.17,4.17,0,0,1-2.27,1.28v.06a4.54,4.54,0,0,1,2.61,1,2.93,2.93,0,0,1,.88,2.24,3.8,3.8,0,0,1-1.48,3.2,6.89,6.89,0,0,1-4.25,1.14,10.18,10.18,0,0,1-4.11-.77v-2.55a10.26,10.26,0,0,0,1.82.68,7.9,7.9,0,0,0,2,.26,3.76,3.76,0,0,0,2.19-.51,1.82,1.82,0,0,0,.71-1.62,1.47,1.47,0,0,0-.81-1.42,6.06,6.06,0,0,0-2.61-.42h-1.08v-2.3h1.1a5.1,5.1,0,0,0,2.42-.44,1.57,1.57,0,0,0,.76-1.48c0-1.08-.67-1.61-2-1.61a4.5,4.5,0,0,0-1.43.23,6.55,6.55,0,0,0-1.61.81l-1.39-2.07a7.69,7.69,0,0,1,4.64-1.41,6,6,0,0,1,3.49.9A2.89,2.89,0,0,1,447,181.16Z" style="fill: #314041"/>
    <path d="M455.56,182.22a5.44,5.44,0,0,1-.86,3.36,3,3,0,0,1-2.54,1.12,2.92,2.92,0,0,1-2.48-1.15,5.46,5.46,0,0,1-.87-3.33c0-3,1.11-4.45,3.35-4.45a3,3,0,0,1,2.52,1.16A5.3,5.3,0,0,1,455.56,182.22Zm-4.3,0a5.65,5.65,0,0,0,.22,1.84c.14.41.38.61.7.61.62,0,.93-.82.93-2.45s-.31-2.43-.93-2.43c-.32,0-.56.2-.7.6A5.54,5.54,0,0,0,451.26,182.24Zm11-4.26-7.89,14.22H452L459.92,178Zm3.26,9.92a5.43,5.43,0,0,1-.86,3.35,3,3,0,0,1-2.54,1.12,2.92,2.92,0,0,1-2.48-1.15,5.45,5.45,0,0,1-.88-3.32c0-3,1.12-4.45,3.36-4.45a3,3,0,0,1,2.52,1.16A5.3,5.3,0,0,1,465.52,187.9Zm-4.3,0a6,6,0,0,0,.21,1.84c.15.41.39.61.71.61.62,0,.93-.82.93-2.45s-.31-2.43-.93-2.43c-.32,0-.56.2-.71.6A5.84,5.84,0,0,0,461.22,187.92Z" style="fill: #314041"/>
  </g>
  <circle cx="62.96" cy="217.01" r="6.06" style="fill: #fff;stroke: #304041;stroke-linecap: round;stroke-linejoin: round;stroke-width: 2.25px"/>
  <circle cx="159.62" cy="81.67" r="6.06" style="fill: #fff;stroke: #304041;stroke-linecap: round;stroke-linejoin: round;stroke-width: 2.25px"/>
  <circle cx="255.88" cy="99.59" r="6.06" style="fill: #fff;stroke: #304041;stroke-linecap: round;stroke-linejoin: round;stroke-width: 2.25px"/>
  <circle cx="353.93" cy="140.01" r="6.06" style="fill: #fff;stroke: #304041;stroke-linecap: round;stroke-linejoin: round;stroke-width: 2.25px"/>
  <circle cx="448.38" cy="206.95" r="6.06" style="fill: #fff;stroke: #304041;stroke-linecap: round;stroke-linejoin: round;stroke-width: 2.25px"/>
</svg>
