<svg xmlns="http://www.w3.org/2000/svg" viewBox="0 0 511 271">
  <title>media_leadership</title>
  <g style="opacity: 0.1">
    <polyline points="63.38 210.01 159.38 34.01 256.38 200.01 352.38 132.01 448.38 229.01" style="fill: none;stroke: #304041;stroke-linecap: round;stroke-linejoin: round;stroke-width: 2.25px"/>
  </g>
  <polyline points="63.38 198.01 159.38 22.01 256.38 188.01 352.38 120.01 448.38 217.01" style="fill: none;stroke: #304041;stroke-linecap: round;stroke-linejoin: round;stroke-width: 2.25px"/>
  <g>
    <path d="M176.4,19a4.58,4.58,0,0,1,3.28,1.16,4.17,4.17,0,0,1,1.22,3.17A4.62,4.62,0,0,1,179.43,27a6.22,6.22,0,0,1-4.2,1.28,8.25,8.25,0,0,1-3.83-.77v-2.6a7.5,7.5,0,0,0,1.79.67,8,8,0,0,0,1.93.26c1.84,0,2.76-.75,2.76-2.26s-.95-2.15-2.85-2.15a6.84,6.84,0,0,0-1.14.11,8.28,8.28,0,0,0-1,.21l-1.2-.64.53-7.24h7.72v2.54h-5.08l-.26,2.8.34-.07A6.65,6.65,0,0,1,176.4,19Z" style="fill: #314041"/>
    <path d="M184,28.06l5.34-11.67h-7V13.87h10.2v1.88l-5.38,12.31Z" style="fill: #314041"/>
    <path d="M200.54,18.09a5.44,5.44,0,0,1-.87,3.36,3,3,0,0,1-2.54,1.12,2.93,2.93,0,0,1-2.48-1.15,5.46,5.46,0,0,1-.87-3.33q0-4.46,3.35-4.45a3,3,0,0,1,2.53,1.15A5.4,5.4,0,0,1,200.54,18.09Zm-4.31,0a5.69,5.69,0,0,0,.22,1.84c.14.4.38.61.7.61.62,0,.94-.82.94-2.45s-.32-2.44-.94-2.44c-.32,0-.56.2-.7.6A5.61,5.61,0,0,0,196.23,18.11Zm11-4.26-7.89,14.21H197l7.88-14.21Zm3.27,9.92a5.43,5.43,0,0,1-.87,3.35,3,3,0,0,1-2.54,1.12,2.93,2.93,0,0,1-2.48-1.15,5.45,5.45,0,0,1-.87-3.32q0-4.45,3.35-4.45a3,3,0,0,1,2.53,1.15A5.4,5.4,0,0,1,210.5,23.77Zm-4.31,0a5.69,5.69,0,0,0,.22,1.84c.14.4.38.61.7.61.62,0,.93-.82.93-2.45s-.31-2.44-.93-2.44c-.32,0-.56.2-.7.6A5.61,5.61,0,0,0,206.19,23.79Z" style="fill: #314041"/>
  </g>
  <g>
    <path d="M260.84,154q0,4.2-1.77,6.28a6.68,6.68,0,0,1-5.36,2.07,10,10,0,0,1-1.92-.14v-2.41a6.85,6.85,0,0,0,1.71.2,5.92,5.92,0,0,0,2.48-.44,3.09,3.09,0,0,0,1.49-1.39,6.14,6.14,0,0,0,.59-2.61H258a3.26,3.26,0,0,1-1.31,1.28,4,4,0,0,1-1.84.37,3.71,3.71,0,0,1-2.93-1.19,4.79,4.79,0,0,1-1.07-3.31,4.92,4.92,0,0,1,1.3-3.61,4.68,4.68,0,0,1,3.53-1.33,5.13,5.13,0,0,1,2.76.74,4.72,4.72,0,0,1,1.81,2.14A8,8,0,0,1,260.84,154Zm-5.15-3.82a1.78,1.78,0,0,0-1.46.64,2.87,2.87,0,0,0-.52,1.85,2.64,2.64,0,0,0,.47,1.64,1.74,1.74,0,0,0,1.45.6,2.25,2.25,0,0,0,1.57-.6,1.84,1.84,0,0,0,.65-1.38,3.09,3.09,0,0,0-.61-1.95A1.87,1.87,0,0,0,255.69,150.14Z" style="fill: #314041"/>
    <path d="M268.9,152.14a5.39,5.39,0,0,1-.87,3.35,3,3,0,0,1-2.54,1.13,3,3,0,0,1-2.48-1.15,5.46,5.46,0,0,1-.87-3.33q0-4.45,3.35-4.45a3,3,0,0,1,2.53,1.15A5.4,5.4,0,0,1,268.9,152.14Zm-4.31,0a5.72,5.72,0,0,0,.22,1.85c.14.4.38.6.7.6.63,0,.94-.81.94-2.45s-.31-2.43-.94-2.43c-.32,0-.56.2-.7.6A5.58,5.58,0,0,0,264.59,152.15Zm11-4.26-7.89,14.22h-2.33l7.89-14.22Zm3.27,9.92a5.44,5.44,0,0,1-.87,3.36,3,3,0,0,1-2.54,1.12,3,3,0,0,1-2.48-1.15,5.46,5.46,0,0,1-.87-3.33q0-4.44,3.35-4.44a3,3,0,0,1,2.53,1.15A5.39,5.39,0,0,1,278.86,157.81Zm-4.31,0a5.72,5.72,0,0,0,.22,1.85c.14.4.38.6.7.6.63,0,.94-.81.94-2.45s-.31-2.43-.94-2.43c-.32,0-.56.2-.7.6A5.58,5.58,0,0,0,274.55,157.83Z" style="fill: #314041"/>
  </g>
  <g>
    <path d="M342.48,104.92h-9.94v-2.09l3.57-3.61q1.59-1.64,2.07-2.25a4.68,4.68,0,0,0,.7-1.17,2.78,2.78,0,0,0,.22-1.11,1.62,1.62,0,0,0-.47-1.27,1.84,1.84,0,0,0-1.26-.42,3.69,3.69,0,0,0-1.61.38,7.86,7.86,0,0,0-1.62,1.08l-1.64-1.93a11.22,11.22,0,0,1,1.75-1.27,6.56,6.56,0,0,1,1.5-.57,8,8,0,0,1,1.83-.2,5.31,5.31,0,0,1,2.35.49,3.73,3.73,0,0,1,1.59,1.36,3.57,3.57,0,0,1,.56,2,4.94,4.94,0,0,1-.34,1.85A7.16,7.16,0,0,1,340.67,98a26.43,26.43,0,0,1-2.55,2.58l-1.83,1.72v.14h6.19Z" style="fill: #314041"/>
    <path d="M353.79,96.77q0,4.2-1.77,6.27a6.65,6.65,0,0,1-5.35,2.07,11.13,11.13,0,0,1-1.92-.13v-2.42a6.79,6.79,0,0,0,1.71.21,5.91,5.91,0,0,0,2.48-.45,3,3,0,0,0,1.49-1.39,6.14,6.14,0,0,0,.59-2.61h-.11a3.36,3.36,0,0,1-1.31,1.29,4.2,4.2,0,0,1-1.85.37,3.71,3.71,0,0,1-2.92-1.2,4.73,4.73,0,0,1-1.07-3.31,4.92,4.92,0,0,1,1.3-3.61,4.68,4.68,0,0,1,3.53-1.33,5.13,5.13,0,0,1,2.76.74,4.7,4.7,0,0,1,1.81,2.15A8.11,8.11,0,0,1,353.79,96.77Zm-5.14-3.83a1.79,1.79,0,0,0-1.46.65,2.82,2.82,0,0,0-.52,1.84,2.62,2.62,0,0,0,.47,1.64,1.74,1.74,0,0,0,1.45.6,2.25,2.25,0,0,0,1.57-.6,1.82,1.82,0,0,0,.65-1.37,3.1,3.1,0,0,0-.61-2A1.87,1.87,0,0,0,348.65,92.94Z" style="fill: #314041"/>
    <path d="M361.86,94.94A5.44,5.44,0,0,1,361,98.3a3,3,0,0,1-2.54,1.12A2.93,2.93,0,0,1,356,98.27a5.46,5.46,0,0,1-.87-3.33q0-4.45,3.35-4.45A3,3,0,0,1,361,91.64,5.4,5.4,0,0,1,361.86,94.94Zm-4.31,0a5.69,5.69,0,0,0,.22,1.84c.14.41.38.61.7.61.62,0,.94-.82.94-2.45s-.32-2.43-.94-2.43a.75.75,0,0,0-.7.59A5.61,5.61,0,0,0,357.55,95Zm11-4.26-7.89,14.22h-2.33l7.88-14.22Zm3.27,9.92A5.43,5.43,0,0,1,371,104a3,3,0,0,1-2.54,1.12,2.93,2.93,0,0,1-2.48-1.15,5.45,5.45,0,0,1-.87-3.32q0-4.45,3.35-4.45a3,3,0,0,1,2.53,1.16A5.35,5.35,0,0,1,371.82,100.62Zm-4.31,0a5.69,5.69,0,0,0,.22,1.84c.14.41.38.61.7.61.62,0,.94-.82.94-2.45s-.32-2.43-.94-2.43a.74.74,0,0,0-.7.59A5.61,5.61,0,0,0,367.51,100.64Z" style="fill: #314041"/>
  </g>
  <g>
    <path d="M453.62,193.4a9.93,9.93,0,0,1-1.22,5.51,4.25,4.25,0,0,1-3.76,1.79,4.19,4.19,0,0,1-3.71-1.85,9.7,9.7,0,0,1-1.25-5.45q0-3.77,1.21-5.55a4.73,4.73,0,0,1,7.47.08A9.81,9.81,0,0,1,453.62,193.4Zm-7,0a10.84,10.84,0,0,0,.46,3.75,1.56,1.56,0,0,0,1.52,1.13,1.59,1.59,0,0,0,1.52-1.15,15.31,15.31,0,0,0,0-7.49,1.6,1.6,0,0,0-1.51-1.15,1.58,1.58,0,0,0-1.52,1.15A11.13,11.13,0,0,0,446.66,193.4Z" style="fill: #314041"/>
    <path d="M461.7,190.53a5.44,5.44,0,0,1-.87,3.36A3,3,0,0,1,458.3,195a2.92,2.92,0,0,1-2.48-1.15,5.39,5.39,0,0,1-.88-3.33q0-4.46,3.36-4.45a3,3,0,0,1,2.52,1.15A5.34,5.34,0,0,1,461.7,190.53Zm-4.31,0a5.69,5.69,0,0,0,.22,1.84c.14.41.38.61.71.61.62,0,.93-.82.93-2.45s-.31-2.43-.93-2.43a.74.74,0,0,0-.71.59A5.61,5.61,0,0,0,457.39,190.55Zm11-4.26-7.89,14.22h-2.33l7.89-14.22Zm3.27,9.92a5.43,5.43,0,0,1-.87,3.35,3,3,0,0,1-2.54,1.12,2.93,2.93,0,0,1-2.48-1.15,5.45,5.45,0,0,1-.87-3.32q0-4.46,3.35-4.45a3,3,0,0,1,2.53,1.16A5.28,5.28,0,0,1,471.66,196.21Zm-4.31,0a5.69,5.69,0,0,0,.22,1.84c.14.41.38.61.7.61.63,0,.94-.82.94-2.45s-.31-2.43-.94-2.43a.74.74,0,0,0-.7.59A5.61,5.61,0,0,0,467.35,196.23Z" style="fill: #314041"/>
  </g>
  <circle cx="62.96" cy="198.01" r="6.06" style="fill: #fff;stroke: #304041;stroke-linecap: round;stroke-linejoin: round;stroke-width: 2.25px"/>
  <circle cx="159.21" cy="22.01" r="6.06" style="fill: #fff;stroke: #304041;stroke-linecap: round;stroke-linejoin: round;stroke-width: 2.25px"/>
  <circle cx="256.88" cy="187.98" r="6.06" style="fill: #fff;stroke: #304041;stroke-linecap: round;stroke-linejoin: round;stroke-width: 2.25px"/>
  <circle cx="352.09" cy="119.51" r="6.06" style="fill: #fff;stroke: #304041;stroke-linecap: round;stroke-linejoin: round;stroke-width: 2.25px"/>
  <circle cx="448.09" cy="216.51" r="6.06" style="fill: #fff;stroke: #304041;stroke-linecap: round;stroke-linejoin: round;stroke-width: 2.25px"/>
  <g>
    <path d="M27.83,174.48c0-2.82.6-4.91,1.79-6.29A6.69,6.69,0,0,1,35,166.13a9.48,9.48,0,0,1,1.91.15v2.4a7.79,7.79,0,0,0-1.71-.19,5.9,5.9,0,0,0-2.53.46,3.11,3.11,0,0,0-1.46,1.38,6.29,6.29,0,0,0-.58,2.6h.13a3.3,3.3,0,0,1,3.08-1.65,3.84,3.84,0,0,1,3,1.19,4.76,4.76,0,0,1,1.08,3.31,4.93,4.93,0,0,1-1.29,3.6A4.68,4.68,0,0,1,33,180.71a5.07,5.07,0,0,1-2.75-.73,4.65,4.65,0,0,1-1.81-2.13A8,8,0,0,1,27.83,174.48ZM33,178.31a1.8,1.8,0,0,0,1.48-.65,2.9,2.9,0,0,0,.51-1.84,2.56,2.56,0,0,0-.48-1.64,1.75,1.75,0,0,0-1.45-.6,2.25,2.25,0,0,0-1.57.6,1.8,1.8,0,0,0-.64,1.38,3.09,3.09,0,0,0,.61,1.95A1.85,1.85,0,0,0,33,178.31Z" style="fill: #314041"/>
    <path d="M45.87,170.54A5.51,5.51,0,0,1,45,173.9,3,3,0,0,1,42.47,175,2.92,2.92,0,0,1,40,173.87a5.46,5.46,0,0,1-.88-3.33q0-4.46,3.36-4.45A3,3,0,0,1,45,167.25,5.28,5.28,0,0,1,45.87,170.54Zm-4.3,0a6,6,0,0,0,.21,1.84c.15.41.39.61.71.61.62,0,.93-.82.93-2.45s-.31-2.43-.93-2.43a.77.77,0,0,0-.71.59A6,6,0,0,0,41.57,170.56Zm11-4.26-7.89,14.22H42.34l7.89-14.22Zm3.26,9.92a5.5,5.5,0,0,1-.86,3.35,3,3,0,0,1-2.54,1.12A2.92,2.92,0,0,1,50,179.54a5.45,5.45,0,0,1-.88-3.32c0-3,1.12-4.45,3.36-4.45A3,3,0,0,1,55,172.93,5.28,5.28,0,0,1,55.83,176.22Zm-4.31,0a5.94,5.94,0,0,0,.22,1.84c.15.41.38.61.71.61.62,0,.93-.82.93-2.45s-.31-2.43-.93-2.43c-.33,0-.56.2-.71.59A5.89,5.89,0,0,0,51.52,176.24Z" style="fill: #314041"/>
  </g>
</svg>
