<svg id="Layer_1" data-name="Layer 1" xmlns="http://www.w3.org/2000/svg" viewBox="0 0 511 271">
  <title>other_technology</title>
  <g style="opacity: 0.1">
    <polyline points="64.87 218.01 160.96 149.19 257.87 152.19 353.87 86.01 450.87 196.01" style="fill: none;stroke: #304041;stroke-linecap: round;stroke-linejoin: round;stroke-width: 2.25px"/>
  </g>
  <polyline points="64.87 208.01 160.96 139.19 257.87 142.19 353.87 76.01 450.87 186.01" style="fill: none;stroke: #304041;stroke-linecap: round;stroke-linejoin: round;stroke-width: 2.25px"/>
  <g>
    <path d="M43.52,184.11a3.36,3.36,0,0,1-.81,2.27,4.14,4.14,0,0,1-2.26,1.28v.06a4.51,4.51,0,0,1,2.6,1,3,3,0,0,1,.89,2.25,3.8,3.8,0,0,1-1.49,3.19,6.87,6.87,0,0,1-4.25,1.14,10.34,10.34,0,0,1-4.1-.76V192a9.29,9.29,0,0,0,1.82.68,7.82,7.82,0,0,0,2,.26,3.82,3.82,0,0,0,2.2-.51,1.84,1.84,0,0,0,.71-1.62,1.46,1.46,0,0,0-.82-1.42,6,6,0,0,0-2.61-.42H36.29v-2.3h1.09a5.08,5.08,0,0,0,2.42-.44,1.55,1.55,0,0,0,.76-1.48c0-1.08-.67-1.61-2-1.61a4.48,4.48,0,0,0-1.42.23,6.73,6.73,0,0,0-1.61.81l-1.39-2.07a7.66,7.66,0,0,1,4.64-1.4,5.94,5.94,0,0,1,3.48.89A2.89,2.89,0,0,1,43.52,184.11Z" style="fill: #314041"/>
    <path d="M52.08,185.17a5.44,5.44,0,0,1-.87,3.36,3,3,0,0,1-2.53,1.12,2.92,2.92,0,0,1-2.48-1.15,5.39,5.39,0,0,1-.88-3.33q0-4.44,3.36-4.44a3,3,0,0,1,2.52,1.15A5.3,5.3,0,0,1,52.08,185.17Zm-4.31,0A5.65,5.65,0,0,0,48,187c.15.41.38.61.71.61.62,0,.93-.82.93-2.45s-.31-2.43-.93-2.43c-.33,0-.56.2-.71.6A5.58,5.58,0,0,0,47.77,185.19Zm11-4.26-7.89,14.22H48.55l7.89-14.22ZM62,190.85a5.41,5.41,0,0,1-.87,3.35,3,3,0,0,1-2.53,1.12,2.92,2.92,0,0,1-2.48-1.15,5.36,5.36,0,0,1-.88-3.32q0-4.44,3.36-4.44a3,3,0,0,1,2.52,1.15A5.3,5.3,0,0,1,62,190.85Zm-4.31,0a5.65,5.65,0,0,0,.22,1.84c.15.41.38.61.71.61.62,0,.93-.82.93-2.45s-.31-2.43-.93-2.43c-.33,0-.56.2-.71.6A5.54,5.54,0,0,0,57.73,190.87Z" style="fill: #314041"/>
  </g>
  <g>
    <path d="M343.72,59.35H342V62.3h-2.93V59.35H333V57.26l6.23-9.18H342V57h1.71ZM339.08,57V54.61c0-.41,0-1,0-1.75s.06-1.21.08-1.34h-.08a10.9,10.9,0,0,1-.86,1.56L335.65,57Z" style="fill: #314041"/>
    <path d="M352.26,62.3h-3V54.07l0-1.35,0-1.48c-.5.5-.85.83-1,1l-1.64,1.32-1.45-1.81,4.58-3.65h2.47Z" style="fill: #314041"/>
    <path d="M362.78,52.32a5.44,5.44,0,0,1-.87,3.36,3,3,0,0,1-2.54,1.12,2.93,2.93,0,0,1-2.48-1.15,5.46,5.46,0,0,1-.87-3.33q0-4.44,3.35-4.44A3,3,0,0,1,361.9,49,5.37,5.37,0,0,1,362.78,52.32Zm-4.31,0a5.65,5.65,0,0,0,.22,1.84c.14.41.38.61.7.61.63,0,.94-.82.94-2.45s-.31-2.43-.94-2.43c-.32,0-.56.2-.7.6A5.58,5.58,0,0,0,358.47,52.34Zm11-4.26L361.58,62.3h-2.33l7.89-14.22ZM372.74,58a5.41,5.41,0,0,1-.87,3.35,3,3,0,0,1-2.54,1.12,2.93,2.93,0,0,1-2.48-1.15A5.43,5.43,0,0,1,366,58q0-4.44,3.35-4.44a3,3,0,0,1,2.53,1.15A5.37,5.37,0,0,1,372.74,58Zm-4.31,0a5.65,5.65,0,0,0,.22,1.84c.14.41.38.61.7.61.63,0,.94-.82.94-2.45s-.31-2.43-.94-2.43c-.32,0-.56.2-.7.6A5.58,5.58,0,0,0,368.43,58Z" style="fill: #314041"/>
  </g>
  <circle cx="63.96" cy="208.01" r="6.06" style="fill: #fff;stroke: #304041;stroke-linecap: round;stroke-linejoin: round;stroke-width: 2.25px"/>
  <circle cx="353.01" cy="76.01" r="6.06" style="fill: #fff;stroke: #304041;stroke-linecap: round;stroke-linejoin: round;stroke-width: 2.25px"/>
  <g>
    <path d="M248.29,126.42h-9.94v-2.09l3.57-3.61a30,30,0,0,0,2.07-2.25,4.64,4.64,0,0,0,.7-1.16,3,3,0,0,0,.22-1.11,1.59,1.59,0,0,0-.48-1.27,1.8,1.8,0,0,0-1.25-.42,3.66,3.66,0,0,0-1.61.38A7.86,7.86,0,0,0,240,116L238.31,114a11.24,11.24,0,0,1,1.74-1.26,6.2,6.2,0,0,1,1.51-.57,8,8,0,0,1,1.83-.2,5.31,5.31,0,0,1,2.35.49,3.72,3.72,0,0,1,1.59,1.36,3.65,3.65,0,0,1,.56,2,4.94,4.94,0,0,1-.34,1.85,7.16,7.16,0,0,1-1.07,1.76,26.79,26.79,0,0,1-2.56,2.58l-1.82,1.72v.14h6.19Z" style="fill: #314041"/>
    <path d="M259.66,126.42h-9.94v-2.09l3.57-3.61a30,30,0,0,0,2.07-2.25,4.64,4.64,0,0,0,.7-1.16,2.82,2.82,0,0,0,.22-1.11,1.59,1.59,0,0,0-.48-1.27,1.8,1.8,0,0,0-1.25-.42,3.66,3.66,0,0,0-1.61.38,7.86,7.86,0,0,0-1.62,1.08L249.68,114a11.24,11.24,0,0,1,1.74-1.26,6.2,6.2,0,0,1,1.51-.57,7.89,7.89,0,0,1,1.83-.2,5.31,5.31,0,0,1,2.35.49,3.72,3.72,0,0,1,1.59,1.36,3.65,3.65,0,0,1,.56,2,4.94,4.94,0,0,1-.34,1.85,7.16,7.16,0,0,1-1.07,1.76,28.05,28.05,0,0,1-2.56,2.58l-1.82,1.72v.14h6.19Z" style="fill: #314041"/>
    <path d="M267.67,116.45a5.44,5.44,0,0,1-.87,3.36,3,3,0,0,1-2.54,1.12,2.93,2.93,0,0,1-2.48-1.15,5.46,5.46,0,0,1-.87-3.33c0-3,1.11-4.45,3.35-4.45a3,3,0,0,1,2.53,1.15A5.4,5.4,0,0,1,267.67,116.45Zm-4.31,0a5.69,5.69,0,0,0,.22,1.84c.14.4.38.61.7.61.62,0,.93-.82.93-2.45s-.31-2.44-.93-2.44c-.32,0-.56.2-.7.6A5.61,5.61,0,0,0,263.36,116.47Zm11-4.26-7.89,14.21h-2.33L272,112.21Zm3.26,9.92a5.43,5.43,0,0,1-.86,3.35,3,3,0,0,1-2.54,1.12,2.92,2.92,0,0,1-2.48-1.15,5.45,5.45,0,0,1-.87-3.32c0-3,1.11-4.45,3.35-4.45a3,3,0,0,1,2.53,1.15A5.4,5.4,0,0,1,277.62,122.13Zm-4.3,0a5.72,5.72,0,0,0,.22,1.85c.14.4.38.61.7.61q.93,0,.93-2.46t-.93-2.43c-.32,0-.56.2-.7.6A5.58,5.58,0,0,0,273.32,122.14Z" style="fill: #314041"/>
  </g>
  <circle cx="257.87" cy="142.19" r="6.06" style="fill: #fff;stroke: #304041;stroke-linecap: round;stroke-linejoin: round;stroke-width: 2.25px"/>
  <g>
    <path d="M151.37,123.42h-9.94v-2.09l3.57-3.61a30,30,0,0,0,2.07-2.25,4.64,4.64,0,0,0,.7-1.16,2.82,2.82,0,0,0,.22-1.11,1.62,1.62,0,0,0-.47-1.27,1.84,1.84,0,0,0-1.26-.42,3.69,3.69,0,0,0-1.61.38A7.86,7.86,0,0,0,143,113L141.39,111a11.24,11.24,0,0,1,1.74-1.26,6.2,6.2,0,0,1,1.51-.57,8,8,0,0,1,1.83-.2,5.31,5.31,0,0,1,2.35.49,3.72,3.72,0,0,1,1.59,1.36,3.57,3.57,0,0,1,.56,2,4.94,4.94,0,0,1-.34,1.85,7.16,7.16,0,0,1-1.07,1.76A26.79,26.79,0,0,1,147,119l-1.82,1.72v.14h6.19Z" style="fill: #314041"/>
    <path d="M162.19,112.39a3.33,3.33,0,0,1-.81,2.26,4.24,4.24,0,0,1-2.27,1.29v0a4.55,4.55,0,0,1,2.61,1.05,2.92,2.92,0,0,1,.89,2.24,3.82,3.82,0,0,1-1.49,3.2,6.87,6.87,0,0,1-4.25,1.14,10.39,10.39,0,0,1-4.11-.77v-2.56a8.91,8.91,0,0,0,1.82.68,7.48,7.48,0,0,0,2,.27,3.82,3.82,0,0,0,2.2-.51,1.86,1.86,0,0,0,.7-1.62,1.47,1.47,0,0,0-.81-1.42,6.06,6.06,0,0,0-2.61-.42H155V115h1.1a5.12,5.12,0,0,0,2.42-.43,1.56,1.56,0,0,0,.76-1.48c0-1.08-.67-1.62-2-1.62a4.56,4.56,0,0,0-1.43.24,6.84,6.84,0,0,0-1.61.8l-1.39-2.07a7.77,7.77,0,0,1,4.64-1.4,6,6,0,0,1,3.49.9A2.86,2.86,0,0,1,162.19,112.39Z" style="fill: #314041"/>
    <path d="M170.75,113.45a5.44,5.44,0,0,1-.87,3.36,3,3,0,0,1-2.54,1.12,2.93,2.93,0,0,1-2.48-1.15,5.46,5.46,0,0,1-.87-3.33q0-4.45,3.35-4.45a3,3,0,0,1,2.53,1.15A5.4,5.4,0,0,1,170.75,113.45Zm-4.31,0a5.69,5.69,0,0,0,.22,1.84c.14.4.38.61.7.61.62,0,.94-.82.94-2.45S168,111,167.36,111c-.32,0-.56.2-.7.6A5.61,5.61,0,0,0,166.44,113.47Zm11-4.26-7.89,14.21h-2.33l7.88-14.21Zm3.27,9.92a5.43,5.43,0,0,1-.87,3.35,3,3,0,0,1-2.54,1.12,2.93,2.93,0,0,1-2.48-1.15,5.45,5.45,0,0,1-.87-3.32c0-3,1.11-4.45,3.35-4.45a3,3,0,0,1,2.53,1.15A5.4,5.4,0,0,1,180.71,119.13Zm-4.31,0a5.72,5.72,0,0,0,.22,1.85c.14.4.38.61.7.61q.93,0,.93-2.46t-.93-2.43c-.32,0-.56.2-.7.6A5.58,5.58,0,0,0,176.4,119.14Z" style="fill: #314041"/>
  </g>
  <circle cx="160.96" cy="139.19" r="6.06" style="fill: #fff;stroke: #304041;stroke-linecap: round;stroke-linejoin: round;stroke-width: 2.25px"/>
  <g>
    <path d="M454,160h-3v-8.23l0-1.35,0-1.48c-.5.5-.85.83-1,1l-1.63,1.31L447,149.39l4.58-3.64H454Z" style="fill: #314041"/>
    <path d="M465.39,160h-3v-8.23l0-1.35,0-1.48c-.5.5-.85.83-1,1l-1.64,1.31-1.45-1.81,4.59-3.64h2.47Z" style="fill: #314041"/>
    <path d="M475.9,150a5.44,5.44,0,0,1-.87,3.36,3,3,0,0,1-2.53,1.12,2.92,2.92,0,0,1-2.48-1.15,5.39,5.39,0,0,1-.88-3.33q0-4.45,3.36-4.45A3,3,0,0,1,475,146.7,5.28,5.28,0,0,1,475.9,150Zm-4.31,0a5.94,5.94,0,0,0,.22,1.84c.15.41.38.61.71.61.62,0,.93-.82.93-2.45s-.31-2.43-.93-2.43c-.33,0-.56.2-.71.59A5.89,5.89,0,0,0,471.59,150Zm11-4.26L474.7,160h-2.33l7.89-14.22Zm3.27,9.92A5.43,5.43,0,0,1,485,159a3,3,0,0,1-2.53,1.12A2.92,2.92,0,0,1,480,159a5.38,5.38,0,0,1-.88-3.32c0-3,1.12-4.45,3.36-4.45a3,3,0,0,1,2.52,1.16A5.28,5.28,0,0,1,485.86,155.67Zm-4.31,0a5.65,5.65,0,0,0,.22,1.84c.15.41.38.61.7.61.63,0,.94-.82.94-2.45s-.31-2.43-.94-2.43c-.32,0-.55.2-.7.59A5.61,5.61,0,0,0,481.55,155.69Z" style="fill: #314041"/>
  </g>
  <circle cx="449.87" cy="183.51" r="6.06" style="fill: #fff;stroke: #304041;stroke-linecap: round;stroke-linejoin: round;stroke-width: 2.25px"/>
</svg>
