<svg id="Layer_1" data-name="Layer 1" xmlns="http://www.w3.org/2000/svg" viewBox="0 0 511 271">
  <title>other_overall</title>
  <g style="opacity: 0.1">
    <polyline points="62.48 218.43 158.8 138.81 254.67 72.86 351.88 165.73 446.48 213.51" style="fill: none;stroke: #304041;stroke-linecap: round;stroke-linejoin: round;stroke-width: 2.25px"/>
  </g>
  <polyline points="63.48 208.43 159.8 128.81 255.67 62.85 352.88 155.73 447.48 203.51" style="fill: none;stroke: #304041;stroke-linecap: round;stroke-linejoin: round;stroke-width: 2.25px"/>
  <g>
    <path d="M47.74,179.68a3.33,3.33,0,0,1-.81,2.26,4.25,4.25,0,0,1-2.26,1.29v.05a4.61,4.61,0,0,1,2.6,1.05,2.92,2.92,0,0,1,.89,2.24,3.81,3.81,0,0,1-1.49,3.2,6.87,6.87,0,0,1-4.25,1.14,10.42,10.42,0,0,1-4.11-.77v-2.56a9.14,9.14,0,0,0,1.82.68,7.48,7.48,0,0,0,2,.27,3.82,3.82,0,0,0,2.2-.51A1.87,1.87,0,0,0,45,186.4a1.48,1.48,0,0,0-.82-1.42,6.06,6.06,0,0,0-2.61-.42H40.5v-2.31h1.1a5.12,5.12,0,0,0,2.42-.43,1.56,1.56,0,0,0,.76-1.48c0-1.08-.67-1.62-2-1.62a4.56,4.56,0,0,0-1.43.24,6.84,6.84,0,0,0-1.61.8l-1.39-2.07a7.77,7.77,0,0,1,4.64-1.4,6,6,0,0,1,3.49.9A2.86,2.86,0,0,1,47.74,179.68Z" style="fill: #314041"/>
    <path d="M56.3,180.74a5.44,5.44,0,0,1-.87,3.36,3,3,0,0,1-2.54,1.12,2.93,2.93,0,0,1-2.48-1.15,5.46,5.46,0,0,1-.87-3.33q0-4.45,3.35-4.45a3,3,0,0,1,2.53,1.15A5.4,5.4,0,0,1,56.3,180.74Zm-4.31,0a5.69,5.69,0,0,0,.22,1.84c.14.4.38.61.7.61.63,0,.94-.82.94-2.45s-.31-2.44-.94-2.44c-.32,0-.56.2-.7.6A5.61,5.61,0,0,0,52,180.76Zm11-4.26L55.1,190.71H52.77l7.89-14.21Zm3.27,9.92a5.43,5.43,0,0,1-.87,3.35,3,3,0,0,1-2.54,1.12,2.93,2.93,0,0,1-2.48-1.15,5.45,5.45,0,0,1-.87-3.32q0-4.46,3.35-4.45a3,3,0,0,1,2.53,1.15A5.4,5.4,0,0,1,66.26,186.42Zm-4.31,0a5.69,5.69,0,0,0,.22,1.84c.14.4.38.61.7.61.63,0,.94-.82.94-2.45S63.5,184,62.87,184c-.32,0-.56.2-.7.6A5.61,5.61,0,0,0,62,186.44Z" style="fill: #314041"/>
  </g>
  <g>
    <path d="M144.74,103a3.33,3.33,0,0,1-.81,2.26,4.25,4.25,0,0,1-2.26,1.29v.05a4.54,4.54,0,0,1,2.6,1,2.92,2.92,0,0,1,.89,2.24,3.82,3.82,0,0,1-1.49,3.2,6.87,6.87,0,0,1-4.25,1.14,10.42,10.42,0,0,1-4.11-.77v-2.56a9.14,9.14,0,0,0,1.82.68,7.48,7.48,0,0,0,2,.27,3.82,3.82,0,0,0,2.2-.51,1.87,1.87,0,0,0,.71-1.62,1.47,1.47,0,0,0-.82-1.42,6.06,6.06,0,0,0-2.61-.42H137.5v-2.31h1.1a5.12,5.12,0,0,0,2.42-.43,1.56,1.56,0,0,0,.76-1.48c0-1.08-.67-1.62-2-1.62a4.56,4.56,0,0,0-1.43.24,6.84,6.84,0,0,0-1.61.8L135.33,101a7.77,7.77,0,0,1,4.64-1.4,6,6,0,0,1,3.49.9A2.86,2.86,0,0,1,144.74,103Z" style="fill: #314041"/>
    <path d="M154.15,114.05h-3v-8.22l0-1.36,0-1.47c-.5.5-.85.82-1,1l-1.63,1.31-1.45-1.81,4.58-3.64h2.47Z" style="fill: #314041"/>
    <path d="M164.67,104.08a5.44,5.44,0,0,1-.87,3.36,3,3,0,0,1-2.54,1.12,3,3,0,0,1-2.48-1.15,5.46,5.46,0,0,1-.87-3.33q0-4.45,3.35-4.45a3,3,0,0,1,2.53,1.15A5.4,5.4,0,0,1,164.67,104.08Zm-4.31,0a5.72,5.72,0,0,0,.22,1.85c.14.4.38.61.7.61.63,0,.94-.82.94-2.46s-.31-2.43-.94-2.43c-.32,0-.56.2-.7.6A5.58,5.58,0,0,0,160.36,104.09Zm11-4.25-7.89,14.21h-2.33L169,99.84Zm3.27,9.92a5.43,5.43,0,0,1-.87,3.35,3,3,0,0,1-2.54,1.12,2.93,2.93,0,0,1-2.48-1.15,5.45,5.45,0,0,1-.87-3.32q0-4.45,3.35-4.45a3,3,0,0,1,2.53,1.15A5.4,5.4,0,0,1,174.63,109.76Zm-4.31,0a5.69,5.69,0,0,0,.22,1.84c.14.4.38.61.7.61.62,0,.93-.82.93-2.45s-.31-2.44-.93-2.44c-.32,0-.56.2-.7.6A5.61,5.61,0,0,0,170.32,109.78Z" style="fill: #314041"/>
  </g>
  <circle cx="63.48" cy="209.2" r="6.06" style="fill: #fff;stroke: #304041;stroke-linecap: round;stroke-linejoin: round;stroke-width: 2.25px"/>
  <circle cx="160.21" cy="129.02" r="6.06" style="fill: #fff;stroke: #304041;stroke-linecap: round;stroke-linejoin: round;stroke-width: 2.25px"/>
  <g>
    <path d="M246.39,43.24h-1.72v2.94h-2.93V43.24h-6.07v-2.1L241.9,32h2.77V40.9h1.72Zm-4.65-2.34V38.49c0-.4,0-1,0-1.75s.05-1.21.07-1.33h-.07a10.35,10.35,0,0,1-.87,1.55l-2.61,3.94Z" style="fill: #314041"/>
    <path d="M252.67,37.1A4.54,4.54,0,0,1,256,38.26a4.16,4.16,0,0,1,1.22,3.17,4.58,4.58,0,0,1-1.47,3.66,6.17,6.17,0,0,1-4.2,1.29,8.25,8.25,0,0,1-3.83-.77V43a8,8,0,0,0,1.79.67,8,8,0,0,0,1.94.26c1.83,0,2.75-.76,2.75-2.26s-1-2.15-2.85-2.15a6.86,6.86,0,0,0-1.14.1,8.46,8.46,0,0,0-1,.22l-1.2-.64.54-7.25h7.71v2.55h-5.08l-.26,2.79.34-.07A6.79,6.79,0,0,1,252.67,37.1Z" style="fill: #314041"/>
    <path d="M265.44,36.2a5.4,5.4,0,0,1-.87,3.36A3,3,0,0,1,262,40.69a3,3,0,0,1-2.48-1.15,5.4,5.4,0,0,1-.88-3.34q0-4.44,3.36-4.44a3,3,0,0,1,2.52,1.15A5.32,5.32,0,0,1,265.44,36.2Zm-4.31,0a5.72,5.72,0,0,0,.22,1.85c.15.4.38.6.7.6.63,0,.94-.81.94-2.45s-.31-2.43-.94-2.43c-.32,0-.55.2-.7.6A5.58,5.58,0,0,0,261.13,36.22Zm11-4.26-7.89,14.22h-2.33L269.8,32Zm3.27,9.92a5.39,5.39,0,0,1-.87,3.35A3,3,0,0,1,272,46.36a3,3,0,0,1-2.48-1.15,5.46,5.46,0,0,1-.87-3.33q0-4.44,3.35-4.44a3,3,0,0,1,2.53,1.15A5.39,5.39,0,0,1,275.4,41.88Zm-4.31,0a5.72,5.72,0,0,0,.22,1.85c.14.4.38.6.7.6.63,0,.94-.81.94-2.45s-.31-2.43-.94-2.43c-.32,0-.56.2-.7.6A5.58,5.58,0,0,0,271.09,41.9Z" style="fill: #314041"/>
  </g>
  <circle cx="255.67" cy="62.85" r="6.06" style="fill: #fff;stroke: #304041;stroke-linecap: round;stroke-linejoin: round;stroke-width: 2.25px"/>
  <g>
    <path d="M358.72,140h-3v-8.23l0-1.35.05-1.48a12.68,12.68,0,0,1-1.05,1l-1.63,1.32-1.45-1.81,4.58-3.65h2.47Z" style="fill: #314041"/>
    <path d="M367.56,125.63a5.4,5.4,0,0,1,3.3.93,3,3,0,0,1,1.25,2.51,3.24,3.24,0,0,1-.61,1.94,5.13,5.13,0,0,1-1.94,1.52,7,7,0,0,1,2.29,1.78,3.49,3.49,0,0,1-.68,4.86,5.7,5.7,0,0,1-3.61,1.06,6,6,0,0,1-3.66-1,3.29,3.29,0,0,1-1.33-2.81,3.74,3.74,0,0,1,.64-2.16,5.31,5.31,0,0,1,2.08-1.66,5.19,5.19,0,0,1-1.75-1.65,3.56,3.56,0,0,1-.54-1.91,2.93,2.93,0,0,1,1.27-2.47A5.35,5.35,0,0,1,367.56,125.63Zm-2.21,10.63a1.57,1.57,0,0,0,.58,1.3,3,3,0,0,0,3.27,0,1.59,1.59,0,0,0,.55-1.27,1.73,1.73,0,0,0-.55-1.22,7,7,0,0,0-1.78-1.21C366,134.48,365.35,135.28,365.35,136.26Zm2.19-8.43a1.8,1.8,0,0,0-1.23.4,1.28,1.28,0,0,0-.48,1.05,1.63,1.63,0,0,0,.38,1.05,4.35,4.35,0,0,0,1.35.95,3.91,3.91,0,0,0,1.34-.92,1.67,1.67,0,0,0,.38-1.08,1.3,1.3,0,0,0-.49-1.06A1.93,1.93,0,0,0,367.54,127.83Z" style="fill: #314041"/>
    <path d="M380.61,130.06a5.44,5.44,0,0,1-.87,3.36,3,3,0,0,1-2.54,1.12,2.93,2.93,0,0,1-2.48-1.15,5.46,5.46,0,0,1-.87-3.33c0-3,1.12-4.45,3.35-4.45a3,3,0,0,1,2.53,1.16A5.37,5.37,0,0,1,380.61,130.06Zm-4.31,0a5.65,5.65,0,0,0,.22,1.84c.14.41.38.61.7.61.62,0,.94-.82.94-2.45s-.32-2.43-.94-2.43c-.32,0-.56.2-.7.6A5.54,5.54,0,0,0,376.3,130.08Zm11-4.26L379.41,140h-2.33L385,125.82Zm3.27,9.92a5.43,5.43,0,0,1-.87,3.35,3,3,0,0,1-2.54,1.12,2.93,2.93,0,0,1-2.48-1.15,5.43,5.43,0,0,1-.87-3.32c0-3,1.11-4.45,3.35-4.45a3,3,0,0,1,2.53,1.16A5.37,5.37,0,0,1,390.57,135.74Zm-4.31,0a5.65,5.65,0,0,0,.22,1.84c.14.41.38.61.7.61.62,0,.94-.82.94-2.45s-.32-2.43-.94-2.43c-.32,0-.56.2-.7.6A5.54,5.54,0,0,0,386.26,135.76Z" style="fill: #314041"/>
  </g>
  <circle cx="352.88" cy="155.73" r="6.06" style="fill: #fff;stroke: #304041;stroke-linecap: round;stroke-linejoin: round;stroke-width: 2.25px"/>
  <g>
    <path d="M446.51,175a3.32,3.32,0,0,1-.81,2.26,4.09,4.09,0,0,1-2.26,1.29v.06a4.54,4.54,0,0,1,2.6,1,2.94,2.94,0,0,1,.89,2.24,3.81,3.81,0,0,1-1.49,3.2,6.87,6.87,0,0,1-4.25,1.14,10.17,10.17,0,0,1-4.1-.77v-2.56a9.3,9.3,0,0,0,1.82.69,7.82,7.82,0,0,0,2,.26,3.82,3.82,0,0,0,2.2-.51,1.85,1.85,0,0,0,.71-1.62,1.46,1.46,0,0,0-.82-1.42,6,6,0,0,0-2.61-.42h-1.08v-2.3h1.1a5.08,5.08,0,0,0,2.42-.44,1.56,1.56,0,0,0,.76-1.48c0-1.08-.67-1.62-2-1.62a4.46,4.46,0,0,0-1.42.24,6.38,6.38,0,0,0-1.61.81L437.11,173a7.73,7.73,0,0,1,4.64-1.4,5.94,5.94,0,0,1,3.48.9A2.89,2.89,0,0,1,446.51,175Z" style="fill: #314041"/>
    <path d="M455.07,176a5.44,5.44,0,0,1-.87,3.36,3,3,0,0,1-2.53,1.12,2.92,2.92,0,0,1-2.48-1.15,5.39,5.39,0,0,1-.88-3.33c0-3,1.12-4.45,3.36-4.45a3,3,0,0,1,2.52,1.16A5.28,5.28,0,0,1,455.07,176Zm-4.31,0a5.65,5.65,0,0,0,.22,1.84c.15.41.38.61.71.61.62,0,.93-.82.93-2.45s-.31-2.43-.93-2.43c-.33,0-.56.2-.71.59A5.61,5.61,0,0,0,450.76,176.06Zm11-4.26L453.87,186h-2.33l7.89-14.22Zm3.27,9.92a5.43,5.43,0,0,1-.87,3.35,3,3,0,0,1-2.54,1.12,2.91,2.91,0,0,1-2.47-1.15,5.38,5.38,0,0,1-.88-3.32c0-3,1.12-4.45,3.35-4.45a3,3,0,0,1,2.53,1.16A5.28,5.28,0,0,1,465,181.72Zm-4.31,0a5.65,5.65,0,0,0,.22,1.84c.14.41.38.61.7.61.63,0,.94-.82.94-2.45s-.31-2.43-.94-2.43a.75.75,0,0,0-.7.59A5.61,5.61,0,0,0,460.72,181.74Z" style="fill: #314041"/>
  </g>
  <circle cx="447.48" cy="203.51" r="6.06" style="fill: #fff;stroke: #304041;stroke-linecap: round;stroke-linejoin: round;stroke-width: 2.25px"/>
</svg>
