<svg id="Layer_1" data-name="Layer 1" xmlns="http://www.w3.org/2000/svg" viewBox="0 0 511 271">
  <title>other_structural</title>
  <g style="opacity: 0.1">
    <polyline points="63.48 198.23 160.87 70.01 258.88 176.17 352.87 151.01 450.88 214.01" style="fill: none;stroke: #304041;stroke-linecap: round;stroke-linejoin: round;stroke-width: 2.25px"/>
  </g>
  <polyline points="63.48 186.23 160.87 58.01 258.88 164.17 352.87 139.01 450.88 202.01" style="fill: none;stroke: #304041;stroke-linecap: round;stroke-linejoin: round;stroke-width: 2.25px"/>
  <g>
    <path d="M22.91,177.41h-3v-8.22l0-1.36.05-1.48c-.5.5-.85.83-1,1l-1.64,1.31-1.44-1.81,4.58-3.65h2.47Z" style="fill: #314041"/>
    <path d="M36.71,170.3a10,10,0,0,1-1.22,5.52,4.25,4.25,0,0,1-3.76,1.79A4.19,4.19,0,0,1,28,175.76a9.71,9.71,0,0,1-1.25-5.46q0-3.77,1.21-5.55A4.22,4.22,0,0,1,31.73,163a4.19,4.19,0,0,1,3.72,1.87A9.75,9.75,0,0,1,36.71,170.3Zm-7,0a11,11,0,0,0,.46,3.75,1.56,1.56,0,0,0,1.52,1.14A1.6,1.6,0,0,0,33.25,174a10.86,10.86,0,0,0,.46-3.74,10.65,10.65,0,0,0-.47-3.76,1.58,1.58,0,0,0-3,0A11.21,11.21,0,0,0,29.75,170.3Z" style="fill: #314041"/>
    <path d="M44.79,167.43a5.4,5.4,0,0,1-.87,3.36,3,3,0,0,1-2.53,1.13,3,3,0,0,1-2.48-1.15,5.4,5.4,0,0,1-.88-3.34Q38,163,41.39,163a3,3,0,0,1,2.52,1.15A5.32,5.32,0,0,1,44.79,167.43Zm-4.31,0a5.72,5.72,0,0,0,.22,1.85c.15.4.38.6.71.6.62,0,.93-.81.93-2.45S42,165,41.41,165c-.33,0-.56.2-.71.6A5.58,5.58,0,0,0,40.48,167.45Zm11-4.26-7.89,14.22H41.26l7.89-14.22Zm3.27,9.92a5.39,5.39,0,0,1-.87,3.35,3,3,0,0,1-2.54,1.13,2.94,2.94,0,0,1-2.47-1.15,5.39,5.39,0,0,1-.88-3.33q0-4.44,3.35-4.44a3,3,0,0,1,2.53,1.15A5.32,5.32,0,0,1,54.75,173.11Zm-4.31,0a5.72,5.72,0,0,0,.22,1.85c.15.4.38.6.7.6.63,0,.94-.81.94-2.45s-.31-2.43-.94-2.43c-.32,0-.55.2-.7.6A5.58,5.58,0,0,0,50.44,173.13Z" style="fill: #314041"/>
  </g>
  <circle cx="63.48" cy="186.23" r="6.06" style="fill: #fff;stroke: #304041;stroke-linecap: round;stroke-linejoin: round;stroke-width: 2.25px"/>
  <g>
    <path d="M153.67,41H152V44H149V41H143V38.92l6.23-9.19H152v8.94h1.71ZM149,38.67V36.26c0-.4,0-1,0-1.75s.06-1.21.08-1.33h-.08a10.35,10.35,0,0,1-.87,1.55l-2.6,3.94Z" style="fill: #314041"/>
    <path d="M156.19,44l5.34-11.67h-7V29.75h10.21v1.89L159.34,44Z" style="fill: #314041"/>
    <path d="M172.72,34a5.51,5.51,0,0,1-.86,3.36,3,3,0,0,1-2.54,1.12,3,3,0,0,1-2.48-1.15A5.39,5.39,0,0,1,166,34q0-4.45,3.36-4.45a3,3,0,0,1,2.52,1.15A5.34,5.34,0,0,1,172.72,34Zm-4.31,0a6,6,0,0,0,.22,1.85c.15.4.38.61.71.61q.93,0,.93-2.46t-.93-2.43c-.33,0-.56.2-.71.6A5.87,5.87,0,0,0,168.41,34Zm11-4.26L171.52,44h-2.33l7.89-14.22Zm3.27,9.92a5.51,5.51,0,0,1-.86,3.36,3,3,0,0,1-2.54,1.12A3,3,0,0,1,176.8,43a5.39,5.39,0,0,1-.88-3.33q0-4.44,3.36-4.44a3,3,0,0,1,2.52,1.15A5.32,5.32,0,0,1,182.68,39.65Zm-4.31,0a5.72,5.72,0,0,0,.22,1.85c.15.4.38.61.71.61q.93,0,.93-2.46t-.93-2.43c-.33,0-.56.2-.71.6A5.58,5.58,0,0,0,178.37,39.67Z" style="fill: #314041"/>
  </g>
  <circle cx="160.95" cy="57.18" r="6.06" style="fill: #fff;stroke: #304041;stroke-linecap: round;stroke-linejoin: round;stroke-width: 2.25px"/>
  <g>
    <path d="M257.76,143.67h-3v-8.23l0-1.35.05-1.48c-.5.5-.85.83-1,1l-1.64,1.31-1.45-1.8,4.58-3.65h2.47Z" style="fill: #314041"/>
    <path d="M261.61,137.63c0-2.82.59-4.91,1.78-6.29a6.7,6.7,0,0,1,5.35-2.06,9.37,9.37,0,0,1,1.9.15v2.4a7.66,7.66,0,0,0-1.71-.19,5.88,5.88,0,0,0-2.52.46,3.13,3.13,0,0,0-1.47,1.38,6.47,6.47,0,0,0-.57,2.6h.13a3.3,3.3,0,0,1,3.08-1.65,3.83,3.83,0,0,1,3,1.19,4.76,4.76,0,0,1,1.08,3.31,4.92,4.92,0,0,1-1.28,3.6,4.71,4.71,0,0,1-3.56,1.33,5.07,5.07,0,0,1-2.75-.73,4.71,4.71,0,0,1-1.81-2.13A8.17,8.17,0,0,1,261.61,137.63Zm5.13,3.83a1.79,1.79,0,0,0,1.48-.65,2.9,2.9,0,0,0,.52-1.84,2.51,2.51,0,0,0-.49-1.64,1.74,1.74,0,0,0-1.45-.6,2.21,2.21,0,0,0-1.56.6,1.81,1.81,0,0,0-.65,1.38,3.15,3.15,0,0,0,.61,1.95A1.88,1.88,0,0,0,266.74,141.46Z" style="fill: #314041"/>
    <path d="M279.65,133.69a5.44,5.44,0,0,1-.87,3.36,3,3,0,0,1-2.53,1.12,2.94,2.94,0,0,1-2.49-1.15,5.46,5.46,0,0,1-.87-3.33c0-3,1.12-4.45,3.36-4.45a3,3,0,0,1,2.52,1.16A5.35,5.35,0,0,1,279.65,133.69Zm-4.31,0a5.65,5.65,0,0,0,.22,1.84c.14.41.38.61.7.61.63,0,.94-.82.94-2.45s-.31-2.43-.94-2.43a.75.75,0,0,0-.7.59A5.61,5.61,0,0,0,275.34,133.71Zm11-4.26-7.89,14.22h-2.33L284,129.45Zm3.27,9.92a5.43,5.43,0,0,1-.87,3.35,3,3,0,0,1-2.54,1.12,2.93,2.93,0,0,1-2.48-1.15,5.45,5.45,0,0,1-.87-3.32c0-3,1.12-4.45,3.35-4.45a3,3,0,0,1,2.53,1.16A5.35,5.35,0,0,1,289.61,139.37Zm-4.31,0a5.65,5.65,0,0,0,.22,1.84c.14.41.38.61.7.61.63,0,.94-.82.94-2.45s-.31-2.43-.94-2.43a.75.75,0,0,0-.7.59A5.61,5.61,0,0,0,285.3,139.39Z" style="fill: #314041"/>
  </g>
  <circle cx="258.88" cy="164.17" r="6.06" style="fill: #fff;stroke: #304041;stroke-linecap: round;stroke-linejoin: round;stroke-width: 2.25px"/>
  <g>
    <path d="M349.33,122.38h-9.94v-2.09l3.57-3.61c1.05-1.08,1.75-1.83,2.07-2.25a5.17,5.17,0,0,0,.7-1.16,3,3,0,0,0,.21-1.11,1.61,1.61,0,0,0-.47-1.28,1.81,1.81,0,0,0-1.26-.42,3.65,3.65,0,0,0-1.6.38,9.16,9.16,0,0,0-1.63,1.08L339.35,110a10.77,10.77,0,0,1,1.74-1.27,7,7,0,0,1,1.51-.57,7.83,7.83,0,0,1,1.83-.2,5.45,5.45,0,0,1,2.35.49,3.86,3.86,0,0,1,1.59,1.36,3.68,3.68,0,0,1,.56,2,4.9,4.9,0,0,1-.35,1.84,6.86,6.86,0,0,1-1.07,1.76A24.3,24.3,0,0,1,345,118l-1.83,1.72v.14h6.2Z" style="fill: #314041"/>
    <path d="M360.14,111.34a3.36,3.36,0,0,1-.8,2.26,4.15,4.15,0,0,1-2.27,1.29V115a4.54,4.54,0,0,1,2.61,1,2.93,2.93,0,0,1,.88,2.24,3.78,3.78,0,0,1-1.49,3.2,6.85,6.85,0,0,1-4.25,1.14,10.17,10.17,0,0,1-4.1-.77v-2.55a10.26,10.26,0,0,0,1.82.68,7.82,7.82,0,0,0,2,.26,3.78,3.78,0,0,0,2.2-.51,1.84,1.84,0,0,0,.71-1.62,1.46,1.46,0,0,0-.82-1.42,6,6,0,0,0-2.6-.42h-1.08v-2.3H354a5,5,0,0,0,2.41-.44,1.55,1.55,0,0,0,.77-1.48c0-1.08-.68-1.61-2-1.61a4.48,4.48,0,0,0-1.42.23,6.55,6.55,0,0,0-1.61.81l-1.39-2.08a7.75,7.75,0,0,1,4.64-1.4,5.94,5.94,0,0,1,3.48.9A2.86,2.86,0,0,1,360.14,111.34Z" style="fill: #314041"/>
    <path d="M368.7,112.4a5.51,5.51,0,0,1-.86,3.36,3,3,0,0,1-2.54,1.12,2.92,2.92,0,0,1-2.48-1.15,5.46,5.46,0,0,1-.88-3.33c0-3,1.12-4.45,3.36-4.45a3,3,0,0,1,2.52,1.16A5.3,5.3,0,0,1,368.7,112.4Zm-4.31,0a5.94,5.94,0,0,0,.22,1.84c.15.41.38.61.71.61.62,0,.93-.82.93-2.45s-.31-2.43-.93-2.43c-.33,0-.56.2-.71.6A5.82,5.82,0,0,0,364.39,112.42Zm11-4.26-7.88,14.22h-2.34l7.89-14.22Zm3.27,9.92a5.5,5.5,0,0,1-.86,3.35,3,3,0,0,1-2.54,1.12,2.92,2.92,0,0,1-2.48-1.15,5.38,5.38,0,0,1-.88-3.32c0-3,1.12-4.45,3.36-4.45a3,3,0,0,1,2.52,1.16A5.3,5.3,0,0,1,378.66,118.08Zm-4.31,0a5.94,5.94,0,0,0,.22,1.84c.15.41.38.61.71.61.62,0,.93-.82.93-2.45s-.31-2.43-.93-2.43c-.33,0-.56.2-.71.6A5.82,5.82,0,0,0,374.35,118.1Z" style="fill: #314041"/>
  </g>
  <circle cx="352.87" cy="139.01" r="6.06" style="fill: #fff;stroke: #304041;stroke-linecap: round;stroke-linejoin: round;stroke-width: 2.25px"/>
  <g>
    <path d="M451.6,171.43a4.56,4.56,0,0,1,3.28,1.16,4.14,4.14,0,0,1,1.23,3.17,4.62,4.62,0,0,1-1.47,3.67,6.22,6.22,0,0,1-4.2,1.28,8.17,8.17,0,0,1-3.84-.77v-2.59a8.14,8.14,0,0,0,1.79.66,8,8,0,0,0,1.94.26c1.83,0,2.75-.75,2.75-2.26s-.95-2.15-2.85-2.15a7,7,0,0,0-1.14.11,6.86,6.86,0,0,0-1,.22l-1.19-.65.53-7.24h7.71v2.55h-5.07l-.27,2.79.34-.07A6.78,6.78,0,0,1,451.6,171.43Z" style="fill: #314041"/>
    <path d="M464.37,170.54a5.51,5.51,0,0,1-.86,3.36A3,3,0,0,1,461,175a2.92,2.92,0,0,1-2.48-1.15,5.46,5.46,0,0,1-.88-3.33q0-4.46,3.36-4.45a3,3,0,0,1,2.52,1.16A5.28,5.28,0,0,1,464.37,170.54Zm-4.31,0a5.94,5.94,0,0,0,.22,1.84c.15.41.38.61.71.61.62,0,.93-.82.93-2.45s-.31-2.43-.93-2.43c-.33,0-.56.2-.71.6A5.78,5.78,0,0,0,460.06,170.56Zm11-4.26-7.88,14.22h-2.34l7.89-14.22Zm3.27,9.92a5.5,5.5,0,0,1-.86,3.35,3,3,0,0,1-2.54,1.12,2.92,2.92,0,0,1-2.48-1.15,5.38,5.38,0,0,1-.88-3.32c0-3,1.12-4.45,3.36-4.45a3,3,0,0,1,2.52,1.16A5.28,5.28,0,0,1,474.33,176.22Zm-4.31,0a5.94,5.94,0,0,0,.22,1.84c.15.41.38.61.71.61.62,0,.93-.82.93-2.45s-.31-2.43-.93-2.43c-.33,0-.56.2-.71.59A5.89,5.89,0,0,0,470,176.24Z" style="fill: #314041"/>
  </g>
  <circle cx="450.87" cy="202.01" r="6.06" style="fill: #fff;stroke: #304041;stroke-linecap: round;stroke-linejoin: round;stroke-width: 2.25px"/>
</svg>
