<svg id="Layer_1" data-name="Layer 1" xmlns="http://www.w3.org/2000/svg" viewBox="0 0 511 271">
  <title>other_portfolio</title>
  <g style="opacity: 0.1">
    <polyline points="64.87 212.01 160.95 67.18 257.87 155.34 351.94 147.2 449.38 216.11" style="fill: none;stroke: #304041;stroke-linecap: round;stroke-linejoin: round;stroke-width: 2.25px"/>
  </g>
  <polyline points="64.87 202.01 160.95 57.18 257.87 145.34 351.94 137.2 449.38 206.11" style="fill: none;stroke: #304041;stroke-linecap: round;stroke-linejoin: round;stroke-width: 2.25px"/>
  <g>
    <path d="M46.94,183.56H45.23v2.94H42.29v-2.94H36.22v-2.09l6.24-9.19h2.77v8.94h1.71Zm-4.65-2.34v-2.41c0-.4,0-1,.05-1.75s.06-1.21.08-1.33h-.08a10.35,10.35,0,0,1-.87,1.55l-2.6,3.94Z" style="fill: #314041"/>
    <path d="M54.62,176.52a5.47,5.47,0,0,1-.86,3.36A3,3,0,0,1,51.22,181a3,3,0,0,1-2.48-1.15,5.4,5.4,0,0,1-.88-3.34q0-4.44,3.36-4.44a3,3,0,0,1,2.52,1.15A5.32,5.32,0,0,1,54.62,176.52Zm-4.31,0a6,6,0,0,0,.22,1.85c.15.4.38.6.71.6.62,0,.93-.81.93-2.45s-.31-2.43-.93-2.43c-.33,0-.56.2-.71.6A5.87,5.87,0,0,0,50.31,176.54Zm11-4.26L53.43,186.5H51.09L59,172.28Zm3.27,9.92a5.45,5.45,0,0,1-.86,3.35,3,3,0,0,1-2.54,1.13,3,3,0,0,1-2.48-1.15,5.39,5.39,0,0,1-.88-3.33q0-4.44,3.36-4.44a3,3,0,0,1,2.52,1.15A5.32,5.32,0,0,1,64.58,182.2Zm-4.31,0a6,6,0,0,0,.22,1.85c.15.4.38.6.71.6.62,0,.93-.81.93-2.45s-.31-2.43-.93-2.43c-.33,0-.56.2-.71.6A5.87,5.87,0,0,0,60.27,182.22Z" style="fill: #314041"/>
  </g>
  <circle cx="64.87" cy="202.2" r="6.06" style="fill: #fff;stroke: #304041;stroke-linecap: round;stroke-linejoin: round;stroke-width: 2.25px"/>
  <g>
    <path d="M153.67,39.82H152v3H149v-3H143V37.73l6.23-9.18H152v8.94h1.71ZM149,37.49V35.07c0-.4,0-1,0-1.75s.06-1.21.08-1.33h-.08a11,11,0,0,1-.87,1.56l-2.6,3.94Z" style="fill: #314041"/>
    <path d="M156.19,42.77l5.34-11.67h-7V28.57h10.21v1.88l-5.38,12.32Z" style="fill: #314041"/>
    <path d="M172.72,32.79a5.51,5.51,0,0,1-.86,3.36,3,3,0,0,1-2.54,1.12,2.92,2.92,0,0,1-2.48-1.15,5.39,5.39,0,0,1-.88-3.33q0-4.45,3.36-4.45a3,3,0,0,1,2.52,1.16A5.28,5.28,0,0,1,172.72,32.79Zm-4.31,0a5.94,5.94,0,0,0,.22,1.84c.15.41.38.61.71.61.62,0,.93-.82.93-2.45s-.31-2.43-.93-2.43c-.33,0-.56.2-.71.59A5.89,5.89,0,0,0,168.41,32.81Zm11-4.26-7.88,14.22h-2.34l7.89-14.22Zm3.27,9.92a5.5,5.5,0,0,1-.86,3.35,3,3,0,0,1-2.54,1.12,2.92,2.92,0,0,1-2.48-1.15,5.38,5.38,0,0,1-.88-3.32c0-3,1.12-4.45,3.36-4.45a3,3,0,0,1,2.52,1.16A5.28,5.28,0,0,1,182.68,38.47Zm-4.31,0a5.94,5.94,0,0,0,.22,1.84c.15.41.38.61.71.61.62,0,.93-.82.93-2.45s-.31-2.43-.93-2.43c-.33,0-.56.2-.71.59A5.89,5.89,0,0,0,178.37,38.49Z" style="fill: #314041"/>
  </g>
  <circle cx="160.95" cy="57.18" r="6.06" style="fill: #fff;stroke: #304041;stroke-linecap: round;stroke-linejoin: round;stroke-width: 2.25px"/>
  <g>
    <path d="M260.28,127.1h-9.95V125l3.58-3.6c1.05-1.09,1.74-1.84,2.07-2.26a5.11,5.11,0,0,0,.7-1.16,3,3,0,0,0,.21-1.11,1.62,1.62,0,0,0-.47-1.27,1.84,1.84,0,0,0-1.26-.42,3.69,3.69,0,0,0-1.61.38,8.43,8.43,0,0,0-1.62,1.08l-1.63-1.94a11.24,11.24,0,0,1,1.74-1.26,6.13,6.13,0,0,1,1.5-.57,8,8,0,0,1,1.83-.2,5.35,5.35,0,0,1,2.36.49,3.7,3.7,0,0,1,1.58,1.36,3.57,3.57,0,0,1,.57,2,5,5,0,0,1-.35,1.85,7.16,7.16,0,0,1-1.07,1.76,26.39,26.39,0,0,1-2.55,2.58l-1.83,1.72v.14h6.2Z" style="fill: #314041"/>
    <path d="M269.14,127.1h-3v-8.22l0-1.36,0-1.47c-.5.5-.85.82-1,1l-1.64,1.31-1.45-1.81,4.59-3.65h2.47Z" style="fill: #314041"/>
    <path d="M279.65,117.13a5.44,5.44,0,0,1-.87,3.36,3,3,0,0,1-2.53,1.12,3,3,0,0,1-2.48-1.15,5.39,5.39,0,0,1-.88-3.33q0-4.45,3.36-4.45a3,3,0,0,1,2.52,1.15A5.34,5.34,0,0,1,279.65,117.13Zm-4.31,0a5.72,5.72,0,0,0,.22,1.85c.15.4.38.61.7.61.63,0,.94-.82.94-2.46s-.31-2.43-.94-2.43c-.32,0-.55.2-.7.6A5.58,5.58,0,0,0,275.34,117.14Zm11-4.26-7.89,14.22h-2.33L284,112.88Zm3.27,9.93a5.43,5.43,0,0,1-.87,3.35,3,3,0,0,1-2.54,1.12,2.93,2.93,0,0,1-2.48-1.15,5.45,5.45,0,0,1-.87-3.32q0-4.45,3.35-4.45a3,3,0,0,1,2.53,1.15A5.34,5.34,0,0,1,289.61,122.81Zm-4.31,0a5.69,5.69,0,0,0,.22,1.84c.15.4.38.61.7.61.63,0,.94-.82.94-2.45s-.31-2.44-.94-2.44c-.32,0-.55.2-.7.6A5.61,5.61,0,0,0,285.3,122.83Z" style="fill: #314041"/>
  </g>
  <circle cx="257.95" cy="145.34" r="6.06" style="fill: #fff;stroke: #304041;stroke-linecap: round;stroke-linejoin: round;stroke-width: 2.25px"/>
  <g>
    <path d="M342.39,122.38h-9.94v-2.09l3.57-3.61q1.59-1.64,2.07-2.25a4.68,4.68,0,0,0,.7-1.17,3,3,0,0,0,.22-1.1,1.62,1.62,0,0,0-.48-1.28,1.8,1.8,0,0,0-1.25-.42,3.66,3.66,0,0,0-1.61.38,8.28,8.28,0,0,0-1.62,1.08L332.41,110a10.77,10.77,0,0,1,1.74-1.27,7.15,7.15,0,0,1,1.51-.57,8,8,0,0,1,1.83-.2,5.45,5.45,0,0,1,2.35.49,3.79,3.79,0,0,1,1.59,1.36,3.66,3.66,0,0,1,.56,2,4.93,4.93,0,0,1-.34,1.84,7.16,7.16,0,0,1-1.07,1.76A25.7,25.7,0,0,1,338,118l-1.82,1.72v.14h6.19Z" style="fill: #314041"/>
    <path d="M354.08,119.43h-1.71v2.95h-2.94v-2.95h-6.07v-2.09l6.24-9.18h2.77v8.94h1.71Zm-4.65-2.33v-2.42c0-.4,0-1,.05-1.75s.06-1.21.08-1.33h-.08a12,12,0,0,1-.86,1.56L346,117.1Z" style="fill: #314041"/>
    <path d="M361.76,112.4a5.44,5.44,0,0,1-.86,3.36,3,3,0,0,1-2.54,1.12,2.92,2.92,0,0,1-2.48-1.15,5.46,5.46,0,0,1-.87-3.33c0-3,1.11-4.45,3.35-4.45a3,3,0,0,1,2.53,1.16A5.37,5.37,0,0,1,361.76,112.4Zm-4.3,0a5.65,5.65,0,0,0,.22,1.84c.14.41.38.61.7.61.62,0,.93-.82.93-2.45S359,110,358.38,110c-.32,0-.56.2-.7.6A5.5,5.5,0,0,0,357.46,112.42Zm11-4.26-7.89,14.22h-2.33l7.88-14.22Zm3.26,9.92a5.43,5.43,0,0,1-.86,3.35,3,3,0,0,1-2.54,1.12,2.92,2.92,0,0,1-2.48-1.15,5.45,5.45,0,0,1-.88-3.32c0-3,1.12-4.45,3.36-4.45a3,3,0,0,1,2.52,1.16A5.28,5.28,0,0,1,371.72,118.08Zm-4.3,0a6,6,0,0,0,.21,1.84c.15.41.39.61.71.61.62,0,.93-.82.93-2.45s-.31-2.43-.93-2.43a.77.77,0,0,0-.71.59A6,6,0,0,0,367.42,118.1Z" style="fill: #314041"/>
  </g>
  <circle cx="351.94" cy="137.2" r="6.06" style="fill: #fff;stroke: #304041;stroke-linecap: round;stroke-linejoin: round;stroke-width: 2.25px"/>
  <g>
    <path d="M451,177.48a3.31,3.31,0,0,1-.8,2.26,4.15,4.15,0,0,1-2.27,1.29v.06a4.54,4.54,0,0,1,2.61,1,2.93,2.93,0,0,1,.88,2.24,3.8,3.8,0,0,1-1.48,3.2,6.9,6.9,0,0,1-4.26,1.14,10.17,10.17,0,0,1-4.1-.77v-2.55a10.26,10.26,0,0,0,1.82.68,7.82,7.82,0,0,0,2,.26,3.78,3.78,0,0,0,2.2-.51,1.83,1.83,0,0,0,.71-1.62,1.47,1.47,0,0,0-.81-1.42,6.06,6.06,0,0,0-2.61-.42h-1.08v-2.3h1.1a5.1,5.1,0,0,0,2.42-.44,1.56,1.56,0,0,0,.76-1.48c0-1.08-.68-1.61-2-1.61a4.5,4.5,0,0,0-1.43.23,6.55,6.55,0,0,0-1.61.81l-1.39-2.08a7.75,7.75,0,0,1,4.64-1.4,6,6,0,0,1,3.49.9A2.88,2.88,0,0,1,451,177.48Z" style="fill: #314041"/>
    <path d="M459.52,178.54a5.44,5.44,0,0,1-.86,3.36,3,3,0,0,1-2.54,1.12,2.92,2.92,0,0,1-2.48-1.15,5.46,5.46,0,0,1-.88-3.33c0-3,1.12-4.45,3.36-4.45a3,3,0,0,1,2.52,1.16A5.28,5.28,0,0,1,459.52,178.54Zm-4.31,0a5.94,5.94,0,0,0,.22,1.84c.15.41.38.61.71.61.62,0,.93-.82.93-2.45s-.31-2.43-.93-2.43c-.33,0-.56.2-.71.59A5.89,5.89,0,0,0,455.21,178.56Zm11-4.26-7.88,14.22H456l7.89-14.22Zm3.27,9.92a5.5,5.5,0,0,1-.86,3.35,3,3,0,0,1-2.54,1.12,2.92,2.92,0,0,1-2.48-1.15,5.38,5.38,0,0,1-.88-3.32c0-3,1.12-4.45,3.36-4.45a3,3,0,0,1,2.52,1.16A5.28,5.28,0,0,1,469.48,184.22Zm-4.31,0a5.94,5.94,0,0,0,.22,1.84c.15.41.38.61.71.61.62,0,.93-.82.93-2.45s-.31-2.43-.93-2.43c-.33,0-.56.2-.71.59A5.94,5.94,0,0,0,465.17,184.24Z" style="fill: #314041"/>
  </g>
  <circle cx="449.38" cy="206.11" r="6.06" style="fill: #fff;stroke: #304041;stroke-linecap: round;stroke-linejoin: round;stroke-width: 2.25px"/>
</svg>
