<svg id="Layer_1" data-name="Layer 1" xmlns="http://www.w3.org/2000/svg" viewBox="0 0 511 271">
  <title>other_process</title>
  <g style="opacity: 0.1">
    <polyline points="62.96 198.01 162.87 123.68 258.48 162.9 353.01 116.69 448.38 198.01" style="fill: none;stroke: #304041;stroke-linecap: round;stroke-linejoin: round;stroke-width: 2.25px"/>
  </g>
  <polyline points="62.96 188.01 162.87 113.68 258.48 152.9 353.01 106.69 448.38 188.01" style="fill: none;stroke: #304041;stroke-linecap: round;stroke-linejoin: round;stroke-width: 2.25px"/>
  <g>
    <path d="M42.25,165.86q0,4.2-1.77,6.27a6.68,6.68,0,0,1-5.36,2.07,10.2,10.2,0,0,1-1.92-.13v-2.42a6.91,6.91,0,0,0,1.71.21,6.09,6.09,0,0,0,2.48-.44,3.11,3.11,0,0,0,1.49-1.4,6.14,6.14,0,0,0,.59-2.61h-.11a3.36,3.36,0,0,1-1.31,1.29,4.18,4.18,0,0,1-1.84.37,3.72,3.72,0,0,1-2.93-1.2,4.77,4.77,0,0,1-1.07-3.31,4.93,4.93,0,0,1,1.3-3.61A4.68,4.68,0,0,1,37,159.62a5.13,5.13,0,0,1,2.76.74,4.7,4.7,0,0,1,1.81,2.15A8.1,8.1,0,0,1,42.25,165.86ZM37.1,162a1.79,1.79,0,0,0-1.46.65,2.82,2.82,0,0,0-.52,1.84,2.62,2.62,0,0,0,.47,1.64,1.74,1.74,0,0,0,1.45.6,2.25,2.25,0,0,0,1.57-.6,1.82,1.82,0,0,0,.65-1.37,3.1,3.1,0,0,0-.61-2A1.87,1.87,0,0,0,37.1,162Z" style="fill: #314041"/>
    <path d="M50.31,164a5.44,5.44,0,0,1-.87,3.36,3,3,0,0,1-2.54,1.12,2.93,2.93,0,0,1-2.48-1.15,5.46,5.46,0,0,1-.87-3.33q0-4.46,3.35-4.45a3,3,0,0,1,2.53,1.16A5.35,5.35,0,0,1,50.31,164Zm-4.31,0a5.65,5.65,0,0,0,.22,1.84c.14.41.38.61.7.61.63,0,.94-.82.94-2.45s-.31-2.43-.94-2.43a.75.75,0,0,0-.7.59A5.61,5.61,0,0,0,46,164.05Zm11-4.26L49.11,174H46.78l7.89-14.22Zm3.27,9.92a5.43,5.43,0,0,1-.87,3.35,3,3,0,0,1-2.54,1.12A2.93,2.93,0,0,1,54.38,173a5.45,5.45,0,0,1-.87-3.32c0-3,1.12-4.45,3.35-4.45a3,3,0,0,1,2.53,1.16A5.35,5.35,0,0,1,60.27,169.71Zm-4.31,0a5.65,5.65,0,0,0,.22,1.84c.14.41.38.61.7.61.62,0,.94-.82.94-2.45s-.32-2.43-.94-2.43a.75.75,0,0,0-.7.59A5.61,5.61,0,0,0,56,169.73Z" style="fill: #314041"/>
  </g>
  <circle cx="62.96" cy="188.01" r="6.06" style="fill: #fff;stroke: #304041;stroke-linecap: round;stroke-linejoin: round;stroke-width: 2.25px"/>
  <g>
    <path d="M152.72,89a3.32,3.32,0,0,1-.81,2.26,4.18,4.18,0,0,1-2.27,1.29v.06a4.54,4.54,0,0,1,2.61,1,2.93,2.93,0,0,1,.88,2.24,3.8,3.8,0,0,1-1.48,3.2,6.89,6.89,0,0,1-4.25,1.14,10.39,10.39,0,0,1-4.11-.77V96.87a9.55,9.55,0,0,0,1.82.69,7.9,7.9,0,0,0,2,.26,3.76,3.76,0,0,0,2.19-.51,1.84,1.84,0,0,0,.71-1.62,1.47,1.47,0,0,0-.81-1.42,6.06,6.06,0,0,0-2.61-.42h-1.08v-2.3h1.1a5.1,5.1,0,0,0,2.42-.44,1.57,1.57,0,0,0,.76-1.48c0-1.08-.68-1.62-2-1.62a4.52,4.52,0,0,0-1.43.24,6.84,6.84,0,0,0-1.61.8L143.31,87a7.75,7.75,0,0,1,4.64-1.4,6,6,0,0,1,3.49.9A2.86,2.86,0,0,1,152.72,89Z" style="fill: #314041"/>
    <path d="M162.13,100h-3V91.78l0-1.35,0-1.48c-.5.5-.84.82-1,1l-1.63,1.31-1.45-1.81,4.58-3.64h2.47Z" style="fill: #314041"/>
    <path d="M172.64,90a5.44,5.44,0,0,1-.86,3.36,3,3,0,0,1-2.54,1.12,2.92,2.92,0,0,1-2.48-1.15,5.46,5.46,0,0,1-.87-3.33c0-3,1.11-4.45,3.35-4.45a3,3,0,0,1,2.52,1.16A5.28,5.28,0,0,1,172.64,90Zm-4.3,0a5.69,5.69,0,0,0,.22,1.84c.14.41.38.61.7.61.62,0,.93-.82.93-2.45s-.31-2.43-.93-2.43a.74.74,0,0,0-.7.59A5.61,5.61,0,0,0,168.34,90.05Zm11-4.26L171.45,100h-2.34L177,85.79Zm3.26,9.92a5.43,5.43,0,0,1-.86,3.35,3,3,0,0,1-2.54,1.12A2.92,2.92,0,0,1,176.72,99a5.45,5.45,0,0,1-.88-3.32q0-4.45,3.36-4.45a3,3,0,0,1,2.52,1.16A5.28,5.28,0,0,1,182.6,95.71Zm-4.3,0a6,6,0,0,0,.21,1.84c.15.4.39.61.71.61.62,0,.93-.82.93-2.45s-.31-2.43-.93-2.43a.77.77,0,0,0-.71.59A6,6,0,0,0,178.3,95.73Z" style="fill: #314041"/>
  </g>
  <circle cx="162.87" cy="113.68" r="6.06" style="fill: #fff;stroke: #304041;stroke-linecap: round;stroke-linejoin: round;stroke-width: 2.25px"/>
  <g>
    <path d="M246.84,181.52h-3v-8.23l0-1.35,0-1.48c-.5.5-.85.83-1,1l-1.64,1.31-1.45-1.81,4.58-3.64h2.47Z" style="fill: #314041"/>
    <path d="M260.67,173.37q0,4.2-1.77,6.27a6.67,6.67,0,0,1-5.36,2.07,10.27,10.27,0,0,1-1.92-.13v-2.42a6.91,6.91,0,0,0,1.71.21,6.09,6.09,0,0,0,2.48-.44,3.11,3.11,0,0,0,1.49-1.4,6.14,6.14,0,0,0,.59-2.61h-.11a3.36,3.36,0,0,1-1.31,1.29,4.15,4.15,0,0,1-1.84.37,3.72,3.72,0,0,1-2.93-1.2,4.77,4.77,0,0,1-1.07-3.31,4.92,4.92,0,0,1,1.3-3.61,4.72,4.72,0,0,1,3.53-1.33,5.13,5.13,0,0,1,2.76.74A4.7,4.7,0,0,1,260,170,8,8,0,0,1,260.67,173.37Zm-5.15-3.83a1.79,1.79,0,0,0-1.46.65,2.82,2.82,0,0,0-.52,1.84,2.62,2.62,0,0,0,.47,1.64,1.74,1.74,0,0,0,1.45.6,2.25,2.25,0,0,0,1.57-.6,1.82,1.82,0,0,0,.65-1.37,3.1,3.1,0,0,0-.61-2A1.87,1.87,0,0,0,255.52,169.54Z" style="fill: #314041"/>
    <path d="M268.73,171.54a5.44,5.44,0,0,1-.87,3.36,3,3,0,0,1-2.53,1.12,2.94,2.94,0,0,1-2.49-1.15,5.46,5.46,0,0,1-.87-3.33c0-3,1.12-4.45,3.36-4.45a3,3,0,0,1,2.52,1.16A5.35,5.35,0,0,1,268.73,171.54Zm-4.31,0a5.65,5.65,0,0,0,.22,1.84c.14.41.38.61.7.61.63,0,.94-.82.94-2.45s-.31-2.43-.94-2.43a.75.75,0,0,0-.7.59A5.61,5.61,0,0,0,264.42,171.56Zm11-4.26-7.89,14.22H265.2l7.89-14.22Zm3.27,9.92a5.43,5.43,0,0,1-.87,3.35,3,3,0,0,1-2.54,1.12,2.93,2.93,0,0,1-2.48-1.15,5.45,5.45,0,0,1-.87-3.32c0-3,1.12-4.45,3.35-4.45a3,3,0,0,1,2.53,1.16A5.35,5.35,0,0,1,278.69,177.22Zm-4.31,0a5.65,5.65,0,0,0,.22,1.84c.14.41.38.61.7.61.63,0,.94-.82.94-2.45s-.31-2.43-.94-2.43a.75.75,0,0,0-.7.59A5.61,5.61,0,0,0,274.38,177.24Z" style="fill: #314041"/>
  </g>
  <circle cx="258.48" cy="152.9" r="6.06" style="fill: #fff;stroke: #304041;stroke-linecap: round;stroke-linejoin: round;stroke-width: 2.25px"/>
  <g>
    <path d="M342.85,81.93A3.34,3.34,0,0,1,342,84.2a4.17,4.17,0,0,1-2.26,1.28v.06a4.48,4.48,0,0,1,2.6,1,2.92,2.92,0,0,1,.89,2.24A3.79,3.79,0,0,1,341.78,92a6.8,6.8,0,0,1-4.25,1.15,10.34,10.34,0,0,1-4.1-.77V89.84a8.82,8.82,0,0,0,1.81.68,7.52,7.52,0,0,0,2,.26,3.83,3.83,0,0,0,2.2-.5,1.87,1.87,0,0,0,.71-1.62,1.47,1.47,0,0,0-.82-1.42,6,6,0,0,0-2.61-.42h-1.08V84.51h1.1a5.09,5.09,0,0,0,2.42-.43,1.56,1.56,0,0,0,.76-1.48c0-1.08-.67-1.62-2-1.62a4.74,4.74,0,0,0-1.42.23,7.13,7.13,0,0,0-1.61.81L333.44,80a7.77,7.77,0,0,1,4.64-1.4,6,6,0,0,1,3.49.89A2.89,2.89,0,0,1,342.85,81.93Z" style="fill: #314041"/>
    <path d="M354.77,93h-9.94V90.88l3.57-3.61c1.06-1.08,1.75-1.83,2.08-2.25a4.89,4.89,0,0,0,.69-1.16,2.85,2.85,0,0,0,.22-1.11,1.62,1.62,0,0,0-.47-1.27,1.84,1.84,0,0,0-1.26-.42,3.69,3.69,0,0,0-1.61.38,7.86,7.86,0,0,0-1.62,1.08l-1.63-1.94a10.6,10.6,0,0,1,1.74-1.26,6.13,6.13,0,0,1,1.5-.57,8,8,0,0,1,1.83-.2,5.38,5.38,0,0,1,2.36.49,3.69,3.69,0,0,1,1.58,1.36,3.57,3.57,0,0,1,.56,2,4.86,4.86,0,0,1-.34,1.84A7,7,0,0,1,353,86a26.39,26.39,0,0,1-2.55,2.58l-1.83,1.72v.13h6.19Z" style="fill: #314041"/>
    <path d="M362.78,83a5.39,5.39,0,0,1-.87,3.35,3,3,0,0,1-2.54,1.13,3,3,0,0,1-2.48-1.15A5.46,5.46,0,0,1,356,83q0-4.45,3.35-4.45a3,3,0,0,1,2.53,1.15A5.34,5.34,0,0,1,362.78,83Zm-4.31,0a5.72,5.72,0,0,0,.22,1.85c.14.4.38.61.7.61.63,0,.94-.82.94-2.46s-.31-2.43-.94-2.43c-.32,0-.56.2-.7.6A5.58,5.58,0,0,0,358.47,83Zm11-4.26L361.58,93h-2.33l7.89-14.22Zm3.27,9.93a5.37,5.37,0,0,1-.87,3.34,3,3,0,0,1-2.54,1.13A3,3,0,0,1,366.85,92a5.45,5.45,0,0,1-.87-3.32q0-4.46,3.35-4.45a3,3,0,0,1,2.53,1.15A5.4,5.4,0,0,1,372.74,88.68Zm-4.31,0a5.72,5.72,0,0,0,.22,1.85c.14.4.38.6.7.6.63,0,.94-.81.94-2.45s-.31-2.43-.94-2.43c-.32,0-.56.2-.7.6A5.58,5.58,0,0,0,368.43,88.69Z" style="fill: #314041"/>
  </g>
  <circle cx="353.01" cy="106.69" r="6.06" style="fill: #fff;stroke: #304041;stroke-linecap: round;stroke-linejoin: round;stroke-width: 2.25px"/>
  <g>
    <path d="M450.33,165.86c0,2.8-.58,4.89-1.77,6.27a6.65,6.65,0,0,1-5.35,2.07,9.26,9.26,0,0,1-1.92-.14v-2.41a6.85,6.85,0,0,0,1.71.21,5.91,5.91,0,0,0,2.48-.45A3,3,0,0,0,447,170a6.14,6.14,0,0,0,.59-2.61h-.11a3.36,3.36,0,0,1-1.31,1.29,4.2,4.2,0,0,1-1.85.37,3.71,3.71,0,0,1-2.92-1.2,4.73,4.73,0,0,1-1.07-3.31,4.92,4.92,0,0,1,1.3-3.61,4.68,4.68,0,0,1,3.53-1.33,5.13,5.13,0,0,1,2.76.74,4.7,4.7,0,0,1,1.81,2.15A8.11,8.11,0,0,1,450.33,165.86ZM445.19,162a1.79,1.79,0,0,0-1.46.65,2.82,2.82,0,0,0-.52,1.84,2.56,2.56,0,0,0,.47,1.64,1.74,1.74,0,0,0,1.45.6,2.25,2.25,0,0,0,1.57-.6,1.84,1.84,0,0,0,.65-1.37,3.1,3.1,0,0,0-.61-2A1.87,1.87,0,0,0,445.19,162Z" style="fill: #314041"/>
    <path d="M458.4,164a5.44,5.44,0,0,1-.87,3.36,3,3,0,0,1-2.54,1.12,2.93,2.93,0,0,1-2.48-1.15,5.46,5.46,0,0,1-.87-3.33q0-4.46,3.35-4.45a3,3,0,0,1,2.53,1.16A5.35,5.35,0,0,1,458.4,164Zm-4.31,0a5.69,5.69,0,0,0,.22,1.84c.14.41.38.61.7.61.63,0,.94-.82.94-2.45s-.31-2.43-.94-2.43a.74.74,0,0,0-.7.59A5.61,5.61,0,0,0,454.09,164.05Zm11-4.26L457.2,174h-2.33l7.88-14.22Zm3.27,9.92a5.43,5.43,0,0,1-.87,3.35,3,3,0,0,1-2.54,1.12,2.93,2.93,0,0,1-2.48-1.15,5.45,5.45,0,0,1-.87-3.32q0-4.46,3.35-4.45a3,3,0,0,1,2.53,1.16A5.35,5.35,0,0,1,468.36,169.71Zm-4.31,0a5.65,5.65,0,0,0,.22,1.84c.14.4.38.61.7.61.62,0,.94-.82.94-2.45s-.32-2.43-.94-2.43a.75.75,0,0,0-.7.59A5.61,5.61,0,0,0,464.05,169.73Z" style="fill: #314041"/>
  </g>
  <circle cx="448.38" cy="188.01" r="6.06" style="fill: #fff;stroke: #304041;stroke-linecap: round;stroke-linejoin: round;stroke-width: 2.25px"/>
</svg>
