<svg id="Layer_1" data-name="Layer 1" xmlns="http://www.w3.org/2000/svg" viewBox="0 0 511 271">
  <title>other_leadership</title>
  <g style="opacity: 0.1">
    <polyline points="64.87 192.01 159.87 61.01 256.38 174.12 351.94 155.61 450.87 212.01" style="fill: none;stroke: #304041;stroke-linecap: round;stroke-linejoin: round;stroke-width: 2.25px"/>
  </g>
  <polyline points="64.87 182.01 159.87 51.01 256.38 164.12 351.94 145.61 450.87 202.01" style="fill: none;stroke: #304041;stroke-linecap: round;stroke-linejoin: round;stroke-width: 2.25px"/>
  <g>
    <path d="M22.79,175.93h-3V167.7l0-1.35.05-1.48c-.5.5-.85.83-1,1l-1.64,1.32-1.45-1.81,4.58-3.65h2.47Z" style="fill: #314041"/>
    <path d="M34.16,175.93h-3V167.7l0-1.35,0-1.48a12.68,12.68,0,0,1-1,1l-1.63,1.32-1.45-1.81,4.58-3.65h2.47Z" style="fill: #314041"/>
    <path d="M44.68,166a5.44,5.44,0,0,1-.87,3.36,3,3,0,0,1-2.54,1.12,2.93,2.93,0,0,1-2.48-1.15,5.46,5.46,0,0,1-.87-3.33q0-4.44,3.35-4.44a3,3,0,0,1,2.53,1.15A5.37,5.37,0,0,1,44.68,166Zm-4.31,0a5.65,5.65,0,0,0,.22,1.84c.14.41.38.61.7.61.63,0,.94-.82.94-2.45s-.31-2.43-.94-2.43c-.32,0-.56.2-.7.6A5.54,5.54,0,0,0,40.37,166Zm11-4.26-7.89,14.22H41.15L49,161.71Zm3.27,9.92a5.43,5.43,0,0,1-.87,3.35,3,3,0,0,1-2.54,1.12A2.92,2.92,0,0,1,48.75,175a5.43,5.43,0,0,1-.87-3.32q0-4.44,3.35-4.44a3,3,0,0,1,2.53,1.15A5.37,5.37,0,0,1,54.64,171.63Zm-4.31,0a5.65,5.65,0,0,0,.22,1.84c.14.41.38.61.7.61.62,0,.93-.82.93-2.45s-.31-2.43-.93-2.43c-.32,0-.56.2-.7.6A5.58,5.58,0,0,0,50.33,171.65Z" style="fill: #314041"/>
  </g>
  <circle cx="64.87" cy="183.51" r="6.06" style="fill: #fff;stroke: #304041;stroke-linecap: round;stroke-linejoin: round;stroke-width: 2.25px"/>
  <g>
    <path d="M150.12,35.08h-1.71v3h-2.94v-3H139.4V33l6.23-9.18h2.78v8.94h1.71Zm-4.65-2.33V30.34c0-.4,0-1,.05-1.75s.06-1.21.07-1.34h-.07a10.45,10.45,0,0,1-.87,1.56L142,32.75Z" style="fill: #314041"/>
    <path d="M156.13,23.63a5.37,5.37,0,0,1,3.29.93,3,3,0,0,1,1.25,2.5,3.28,3.28,0,0,1-.6,1.94,5.1,5.1,0,0,1-1.95,1.52,6.88,6.88,0,0,1,2.29,1.79,3.27,3.27,0,0,1,.7,2,3.4,3.4,0,0,1-1.37,2.82,5.74,5.74,0,0,1-3.61,1.06,6,6,0,0,1-3.67-1,3.29,3.29,0,0,1-1.33-2.81,3.67,3.67,0,0,1,.65-2.16,5.35,5.35,0,0,1,2.07-1.66A5.37,5.37,0,0,1,152.1,29a3.7,3.7,0,0,1-.53-1.92,2.94,2.94,0,0,1,1.26-2.47A5.36,5.36,0,0,1,156.13,23.63Zm-2.22,10.62a1.57,1.57,0,0,0,.58,1.3,3.05,3.05,0,0,0,3.27,0,1.62,1.62,0,0,0,.56-1.27,1.75,1.75,0,0,0-.55-1.22A7.08,7.08,0,0,0,156,31.83C154.6,32.47,153.91,33.27,153.91,34.25Zm2.2-8.43a1.88,1.88,0,0,0-1.24.4,1.27,1.27,0,0,0-.47,1.05,1.62,1.62,0,0,0,.37,1.05,4.14,4.14,0,0,0,1.36.95,3.85,3.85,0,0,0,1.33-.92,1.67,1.67,0,0,0,.38-1.08,1.28,1.28,0,0,0-.49-1.06A1.92,1.92,0,0,0,156.11,25.82Z" style="fill: #314041"/>
    <path d="M169.17,28.05a5.51,5.51,0,0,1-.86,3.36,3,3,0,0,1-2.54,1.12,2.92,2.92,0,0,1-2.48-1.15,5.39,5.39,0,0,1-.88-3.33q0-4.44,3.36-4.44a3,3,0,0,1,2.52,1.15A5.3,5.3,0,0,1,169.17,28.05Zm-4.31,0a5.65,5.65,0,0,0,.22,1.84c.15.41.38.61.71.61.62,0,.93-.82.93-2.45s-.31-2.43-.93-2.43c-.33,0-.56.2-.71.6A5.58,5.58,0,0,0,164.86,28.07Zm11-4.26L168,38h-2.33l7.89-14.22Zm3.27,9.92a5.41,5.41,0,0,1-.87,3.35,3,3,0,0,1-2.53,1.13,2.93,2.93,0,0,1-2.48-1.16,5.36,5.36,0,0,1-.88-3.32q0-4.44,3.36-4.44a3,3,0,0,1,2.52,1.15A5.32,5.32,0,0,1,179.13,33.73Zm-4.31,0a5.65,5.65,0,0,0,.22,1.84c.15.41.38.61.71.61.62,0,.93-.82.93-2.45s-.31-2.43-.93-2.43c-.33,0-.56.2-.71.6A5.58,5.58,0,0,0,174.82,33.75Z" style="fill: #314041"/>
  </g>
  <circle cx="159.4" cy="52.41" r="6.06" style="fill: #fff;stroke: #304041;stroke-linecap: round;stroke-linejoin: round;stroke-width: 2.25px"/>
  <g>
    <path d="M253.36,149.09h-3v-8.23l0-1.35.05-1.48c-.5.5-.85.83-1,1l-1.64,1.31-1.45-1.81,4.58-3.65h2.47Z" style="fill: #314041"/>
    <path d="M262.48,140a4.54,4.54,0,0,1,3.28,1.16,4.16,4.16,0,0,1,1.22,3.17,4.6,4.6,0,0,1-1.47,3.66,6.17,6.17,0,0,1-4.2,1.29,8.25,8.25,0,0,1-3.83-.77v-2.6a8.62,8.62,0,0,0,3.72.93c1.84,0,2.76-.76,2.76-2.26s-.95-2.15-2.85-2.15a6.77,6.77,0,0,0-1.14.1,8,8,0,0,0-1,.22l-1.2-.64.54-7.25H266v2.55h-5.08l-.26,2.79.34-.07A6.79,6.79,0,0,1,262.48,140Z" style="fill: #314041"/>
    <path d="M275.25,139.11a5.42,5.42,0,0,1-.87,3.36,3,3,0,0,1-2.54,1.13,2.94,2.94,0,0,1-2.48-1.16,5.42,5.42,0,0,1-.87-3.33q0-4.44,3.35-4.44a3,3,0,0,1,2.53,1.15A5.39,5.39,0,0,1,275.25,139.11Zm-4.31,0a5.72,5.72,0,0,0,.22,1.85c.14.4.38.6.7.6.63,0,.94-.81.94-2.45s-.31-2.43-.94-2.43c-.32,0-.56.2-.7.6A5.58,5.58,0,0,0,270.94,139.13Zm11-4.26-7.89,14.22h-2.33l7.89-14.22Zm3.27,9.92a5.41,5.41,0,0,1-.87,3.35,3,3,0,0,1-2.54,1.13,2.94,2.94,0,0,1-2.48-1.16,5.41,5.41,0,0,1-.87-3.32q0-4.44,3.35-4.44a3,3,0,0,1,2.53,1.15A5.39,5.39,0,0,1,285.21,144.79Zm-4.31,0a5.72,5.72,0,0,0,.22,1.85c.14.4.38.6.7.6.63,0,.94-.81.94-2.45s-.31-2.43-.94-2.43c-.32,0-.56.2-.7.6A5.58,5.58,0,0,0,280.9,144.81Z" style="fill: #314041"/>
  </g>
  <circle cx="256.38" cy="164.12" r="6.06" style="fill: #fff;stroke: #304041;stroke-linecap: round;stroke-linejoin: round;stroke-width: 2.25px"/>
  <g>
    <path d="M342.33,130.74h-9.94v-2.09l3.57-3.6c1.06-1.09,1.75-1.84,2.07-2.26a4.47,4.47,0,0,0,.7-1.16,2.82,2.82,0,0,0,.22-1.11,1.62,1.62,0,0,0-.47-1.27,1.84,1.84,0,0,0-1.26-.42,3.69,3.69,0,0,0-1.61.38,7.86,7.86,0,0,0-1.62,1.08l-1.64-1.94a11.24,11.24,0,0,1,1.74-1.26,6.2,6.2,0,0,1,1.51-.57,8,8,0,0,1,1.83-.2,5.31,5.31,0,0,1,2.35.49,3.79,3.79,0,0,1,1.59,1.36,3.57,3.57,0,0,1,.56,2,4.94,4.94,0,0,1-.34,1.85,7.16,7.16,0,0,1-1.07,1.76,27.63,27.63,0,0,1-2.55,2.58l-1.83,1.72v.14h6.19Z" style="fill: #314041"/>
    <path d="M351.19,130.74h-3v-8.22l0-1.36,0-1.47a13.26,13.26,0,0,1-1,1L345.59,122l-1.45-1.81,4.58-3.64h2.47Z" style="fill: #314041"/>
    <path d="M361.71,120.77a5.44,5.44,0,0,1-.87,3.36,3,3,0,0,1-2.54,1.12,2.93,2.93,0,0,1-2.48-1.15,5.46,5.46,0,0,1-.87-3.33q0-4.45,3.35-4.45a3,3,0,0,1,2.53,1.15A5.4,5.4,0,0,1,361.71,120.77Zm-4.31,0a5.69,5.69,0,0,0,.22,1.84c.14.4.38.61.7.61.62,0,.93-.82.93-2.45s-.31-2.44-.93-2.44c-.32,0-.56.2-.7.6A5.61,5.61,0,0,0,357.4,120.79Zm11-4.26-7.89,14.21h-2.33l7.88-14.21Zm3.27,9.92a5.43,5.43,0,0,1-.87,3.35,3,3,0,0,1-2.54,1.12,2.92,2.92,0,0,1-2.48-1.15,5.45,5.45,0,0,1-.87-3.32c0-3,1.11-4.45,3.35-4.45a3,3,0,0,1,2.53,1.15A5.4,5.4,0,0,1,371.67,126.45Zm-4.31,0a5.69,5.69,0,0,0,.22,1.84c.14.4.38.61.7.61.62,0,.93-.82.93-2.45s-.31-2.44-.93-2.44c-.32,0-.56.2-.7.6A5.61,5.61,0,0,0,367.36,126.47Z" style="fill: #314041"/>
  </g>
  <circle cx="351.94" cy="145.61" r="6.06" style="fill: #fff;stroke: #304041;stroke-linecap: round;stroke-linejoin: round;stroke-width: 2.25px"/>
  <g>
    <path d="M451.6,171.43a4.56,4.56,0,0,1,3.28,1.16,4.14,4.14,0,0,1,1.23,3.17,4.62,4.62,0,0,1-1.47,3.67,6.22,6.22,0,0,1-4.2,1.28,8.17,8.17,0,0,1-3.84-.77v-2.59a8.14,8.14,0,0,0,1.79.66,8,8,0,0,0,1.94.26c1.83,0,2.75-.75,2.75-2.26s-.95-2.15-2.85-2.15a7,7,0,0,0-1.14.11,6.86,6.86,0,0,0-1,.22l-1.19-.65.53-7.24h7.71v2.55h-5.07l-.27,2.79.34-.07A6.78,6.78,0,0,1,451.6,171.43Z" style="fill: #314041"/>
    <path d="M464.37,170.54a5.51,5.51,0,0,1-.86,3.36A3,3,0,0,1,461,175a2.92,2.92,0,0,1-2.48-1.15,5.46,5.46,0,0,1-.88-3.33q0-4.46,3.36-4.45a3,3,0,0,1,2.52,1.16A5.28,5.28,0,0,1,464.37,170.54Zm-4.31,0a5.94,5.94,0,0,0,.22,1.84c.15.41.38.61.71.61.62,0,.93-.82.93-2.45s-.31-2.43-.93-2.43c-.33,0-.56.2-.71.6A5.78,5.78,0,0,0,460.06,170.56Zm11-4.26-7.88,14.22h-2.34l7.89-14.22Zm3.27,9.92a5.5,5.5,0,0,1-.86,3.35,3,3,0,0,1-2.54,1.12,2.92,2.92,0,0,1-2.48-1.15,5.38,5.38,0,0,1-.88-3.32c0-3,1.12-4.45,3.36-4.45a3,3,0,0,1,2.52,1.16A5.28,5.28,0,0,1,474.33,176.22Zm-4.31,0a5.94,5.94,0,0,0,.22,1.84c.15.41.38.61.71.61.62,0,.93-.82.93-2.45s-.31-2.43-.93-2.43c-.33,0-.56.2-.71.59A5.89,5.89,0,0,0,470,176.24Z" style="fill: #314041"/>
  </g>
  <circle cx="450.87" cy="202.01" r="6.06" style="fill: #fff;stroke: #304041;stroke-linecap: round;stroke-linejoin: round;stroke-width: 2.25px"/>
</svg>
