<svg id="Layer_1" data-name="Layer 1" xmlns="http://www.w3.org/2000/svg" viewBox="0 0 511 271">
  <title>process_manufacturing_structural</title>
  <g style="opacity: 0.1">
    <polyline points="63.88 197.01 159.88 51.01 256.88 197.01 352.88 160.01 449.88 203.01" style="fill: none;stroke: #304041;stroke-linecap: round;stroke-linejoin: round;stroke-width: 2.25px"/>
  </g>
  <polyline points="63.88 185.01 159.88 39.01 256.88 185.01 352.88 148.01 449.88 191.01" style="fill: none;stroke: #304041;stroke-linecap: round;stroke-linejoin: round;stroke-width: 2.25px"/>
  <g>
    <path d="M22.91,177.41h-3v-8.22l0-1.36.05-1.48c-.5.5-.85.83-1,1l-1.64,1.31-1.44-1.81,4.58-3.65h2.47Z" style="fill: #314041"/>
    <path d="M36.71,170.3a10,10,0,0,1-1.22,5.52,4.25,4.25,0,0,1-3.76,1.79A4.19,4.19,0,0,1,28,175.76a9.71,9.71,0,0,1-1.25-5.46q0-3.77,1.21-5.55A4.22,4.22,0,0,1,31.73,163a4.19,4.19,0,0,1,3.72,1.87A9.75,9.75,0,0,1,36.71,170.3Zm-7,0a10.77,10.77,0,0,0,.46,3.75,1.57,1.57,0,0,0,1.52,1.14A1.6,1.6,0,0,0,33.25,174a10.86,10.86,0,0,0,.46-3.74,10.65,10.65,0,0,0-.47-3.76,1.58,1.58,0,0,0-3,0A11.21,11.21,0,0,0,29.75,170.3Z" style="fill: #314041"/>
    <path d="M44.79,167.43a5.4,5.4,0,0,1-.87,3.36,3,3,0,0,1-2.53,1.13,3,3,0,0,1-2.48-1.15,5.4,5.4,0,0,1-.88-3.34Q38,163,41.39,163a3,3,0,0,1,2.52,1.15A5.32,5.32,0,0,1,44.79,167.43Zm-4.31,0a5.72,5.72,0,0,0,.22,1.85c.15.4.38.6.71.6.62,0,.93-.81.93-2.45S42,165,41.41,165c-.33,0-.56.2-.71.6A5.58,5.58,0,0,0,40.48,167.45Zm11-4.26-7.89,14.22H41.26l7.89-14.22Zm3.27,9.92a5.39,5.39,0,0,1-.87,3.35,3.33,3.33,0,0,1-5,0,5.46,5.46,0,0,1-.87-3.33q0-4.44,3.36-4.44a3,3,0,0,1,2.52,1.15A5.32,5.32,0,0,1,54.75,173.11Zm-4.31,0a5.72,5.72,0,0,0,.22,1.85c.15.4.38.6.7.6.63,0,.94-.81.94-2.45s-.31-2.43-.94-2.43c-.32,0-.55.2-.7.6A5.58,5.58,0,0,0,50.44,173.13Z" style="fill: #314041"/>
  </g>
  <g>
    <path d="M146,17.35a4.58,4.58,0,0,1,3.28,1.16,4.14,4.14,0,0,1,1.22,3.17,4.65,4.65,0,0,1-1.46,3.67,6.18,6.18,0,0,1-4.21,1.28,8.25,8.25,0,0,1-3.83-.76v-2.6a8.47,8.47,0,0,0,1.79.67,8,8,0,0,0,1.94.25c1.83,0,2.75-.75,2.75-2.25s-.95-2.15-2.85-2.15a7,7,0,0,0-1.14.1,8.46,8.46,0,0,0-1,.22l-1.2-.64.54-7.25h7.71v2.55h-5.08l-.26,2.79.34-.07A6.78,6.78,0,0,1,146,17.35Z" style="fill: #314041"/>
    <path d="M162.17,26.44h-9.94V24.35l3.57-3.61q1.57-1.62,2.07-2.25a5.58,5.58,0,0,0,.7-1.16,3,3,0,0,0,.21-1.11,1.65,1.65,0,0,0-.47-1.28,1.83,1.83,0,0,0-1.26-.42,3.69,3.69,0,0,0-1.61.38A9.48,9.48,0,0,0,153.82,16l-1.63-1.93a10.77,10.77,0,0,1,1.74-1.27,6.45,6.45,0,0,1,1.51-.56,7.3,7.3,0,0,1,1.82-.2,5.5,5.5,0,0,1,2.36.48,3.77,3.77,0,0,1,1.58,1.36,3.61,3.61,0,0,1,.57,2,4.9,4.9,0,0,1-.35,1.84,7.39,7.39,0,0,1-1.07,1.77,25.46,25.46,0,0,1-2.55,2.57L156,23.77v.14h6.2Z" style="fill: #314041"/>
    <path d="M170.17,16.46a5.51,5.51,0,0,1-.86,3.36,3,3,0,0,1-2.54,1.12,2.92,2.92,0,0,1-2.48-1.15,5.39,5.39,0,0,1-.88-3.33q0-4.44,3.36-4.44a3,3,0,0,1,2.52,1.15A5.3,5.3,0,0,1,170.17,16.46Zm-4.31,0a5.94,5.94,0,0,0,.22,1.84c.15.41.38.61.71.61.62,0,.93-.82.93-2.45s-.31-2.43-.93-2.43c-.33,0-.56.2-.71.6A5.87,5.87,0,0,0,165.86,16.48Zm11-4.26L169,26.44h-2.33l7.89-14.22Zm3.27,9.92a5.41,5.41,0,0,1-.87,3.35,3,3,0,0,1-2.53,1.12,2.92,2.92,0,0,1-2.48-1.15,5.36,5.36,0,0,1-.88-3.32q0-4.44,3.36-4.44a3,3,0,0,1,2.52,1.15A5.3,5.3,0,0,1,180.13,22.14Zm-4.31,0A5.65,5.65,0,0,0,176,24c.15.41.38.61.7.61.63,0,.94-.82.94-2.45s-.31-2.43-.94-2.43c-.32,0-.55.2-.7.6A5.58,5.58,0,0,0,175.82,22.16Z" style="fill: #314041"/>
  </g>
  <g>
    <path d="M256,168.13h-3V159.9l0-1.35,0-1.48c-.5.5-.84.82-1,1l-1.63,1.31L249,157.55l4.58-3.64H256Z" style="fill: #314041"/>
    <path d="M269.83,161a9.93,9.93,0,0,1-1.22,5.51,4.24,4.24,0,0,1-3.76,1.79,4.19,4.19,0,0,1-3.71-1.85,9.78,9.78,0,0,1-1.25-5.45,10,10,0,0,1,1.22-5.55,4.72,4.72,0,0,1,7.46.08A9.79,9.79,0,0,1,269.83,161Zm-6.95,0a11.15,11.15,0,0,0,.45,3.75,1.58,1.58,0,0,0,3,0,10.74,10.74,0,0,0,.47-3.73,10.53,10.53,0,0,0-.48-3.76,1.57,1.57,0,0,0-3,0A11.18,11.18,0,0,0,262.88,161Z" style="fill: #314041"/>
    <path d="M277.91,158.15a5.51,5.51,0,0,1-.86,3.36,3,3,0,0,1-2.54,1.12,2.92,2.92,0,0,1-2.48-1.15,5.46,5.46,0,0,1-.88-3.33q0-4.46,3.36-4.45a3,3,0,0,1,2.52,1.15A5.34,5.34,0,0,1,277.91,158.15Zm-4.3,0a6,6,0,0,0,.21,1.84c.15.4.38.61.71.61.62,0,.93-.82.93-2.45s-.31-2.44-.93-2.44c-.33,0-.56.2-.71.6A6,6,0,0,0,273.61,158.17Zm11-4.26-7.89,14.22h-2.34l7.89-14.22Zm3.26,9.92a5.5,5.5,0,0,1-.86,3.35,3,3,0,0,1-2.54,1.12,2.92,2.92,0,0,1-2.48-1.15,5.45,5.45,0,0,1-.88-3.32q0-4.46,3.36-4.45a3,3,0,0,1,2.52,1.15A5.34,5.34,0,0,1,287.87,163.83Zm-4.31,0a6,6,0,0,0,.22,1.84c.15.4.38.61.71.61.62,0,.93-.82.93-2.45s-.31-2.44-.93-2.44c-.33,0-.56.2-.71.6A5.89,5.89,0,0,0,283.56,163.85Z" style="fill: #314041"/>
  </g>
  <g>
    <path d="M343.4,135.81h-9.94v-2.09l3.57-3.61q1.59-1.63,2.07-2.25a4.68,4.68,0,0,0,.7-1.17,2.77,2.77,0,0,0,.22-1.1,1.63,1.63,0,0,0-.47-1.28,1.84,1.84,0,0,0-1.26-.42,3.69,3.69,0,0,0-1.61.38,7.86,7.86,0,0,0-1.62,1.08l-1.64-1.93a10.35,10.35,0,0,1,1.75-1.27,7.06,7.06,0,0,1,1.5-.57,8,8,0,0,1,1.83-.2,5.53,5.53,0,0,1,2.36.49,3.76,3.76,0,0,1,1.58,1.36,3.57,3.57,0,0,1,.56,2,4.94,4.94,0,0,1-.34,1.85,7.16,7.16,0,0,1-1.07,1.76,24.3,24.3,0,0,1-2.55,2.58l-1.83,1.72v.14h6.19Z" style="fill: #314041"/>
    <path d="M354.69,128.7a9.84,9.84,0,0,1-1.22,5.51,4.22,4.22,0,0,1-3.75,1.79,4.16,4.16,0,0,1-3.71-1.85,9.7,9.7,0,0,1-1.25-5.45q0-3.76,1.21-5.55a4.73,4.73,0,0,1,7.47.08A9.9,9.9,0,0,1,354.69,128.7Zm-6.95,0a11.15,11.15,0,0,0,.45,3.75,1.58,1.58,0,0,0,3,0,15.16,15.16,0,0,0,0-7.49,1.59,1.59,0,0,0-1.51-1.14,1.57,1.57,0,0,0-1.52,1.14A10.87,10.87,0,0,0,347.74,128.7Z" style="fill: #314041"/>
    <path d="M362.78,125.83a5.44,5.44,0,0,1-.87,3.36,3,3,0,0,1-2.54,1.12,2.93,2.93,0,0,1-2.48-1.15,5.46,5.46,0,0,1-.87-3.33q0-4.45,3.35-4.45a3,3,0,0,1,2.53,1.16A5.35,5.35,0,0,1,362.78,125.83Zm-4.31,0a5.65,5.65,0,0,0,.22,1.84c.14.41.38.61.7.61.63,0,.94-.82.94-2.45s-.31-2.43-.94-2.43a.75.75,0,0,0-.7.59A5.61,5.61,0,0,0,358.47,125.85Zm11-4.26-7.89,14.22h-2.33l7.88-14.22Zm3.27,9.92a5.43,5.43,0,0,1-.87,3.35,3,3,0,0,1-2.54,1.12,2.93,2.93,0,0,1-2.48-1.15,5.45,5.45,0,0,1-.87-3.32c0-3,1.12-4.45,3.35-4.45a3,3,0,0,1,2.53,1.16A5.35,5.35,0,0,1,372.74,131.51Zm-4.31,0a5.65,5.65,0,0,0,.22,1.84c.14.41.38.61.7.61.62,0,.94-.82.94-2.45s-.32-2.43-.94-2.43a.75.75,0,0,0-.7.59A5.61,5.61,0,0,0,368.43,131.53Z" style="fill: #314041"/>
  </g>
  <g>
    <path d="M440.92,163a5.42,5.42,0,0,1,3.3.93,3,3,0,0,1,1.24,2.5,3.28,3.28,0,0,1-.6,1.94,5,5,0,0,1-1.94,1.52,7.12,7.12,0,0,1,2.29,1.79,3.35,3.35,0,0,1,.69,2,3.4,3.4,0,0,1-1.37,2.81,5.72,5.72,0,0,1-3.61,1.07,6,6,0,0,1-3.66-1,3.32,3.32,0,0,1-1.34-2.82,3.74,3.74,0,0,1,.65-2.16,5.4,5.4,0,0,1,2.08-1.66,5.27,5.27,0,0,1-1.75-1.64,3.57,3.57,0,0,1-.54-1.92,2.93,2.93,0,0,1,1.27-2.47A5.35,5.35,0,0,1,440.92,163Zm-2.21,10.62a1.56,1.56,0,0,0,.58,1.3,2.49,2.49,0,0,0,1.59.47,2.51,2.51,0,0,0,1.68-.48,1.6,1.6,0,0,0,.55-1.27,1.71,1.71,0,0,0-.55-1.22,6.93,6.93,0,0,0-1.78-1.21C439.4,171.85,438.71,172.66,438.71,173.63Zm2.19-8.42a1.9,1.9,0,0,0-1.24.39,1.32,1.32,0,0,0-.47,1.06,1.61,1.61,0,0,0,.38,1,4,4,0,0,0,1.35,1,3.91,3.91,0,0,0,1.34-.91,1.7,1.7,0,0,0,.37-1.08,1.28,1.28,0,0,0-.48-1.06A2,2,0,0,0,440.9,165.21Z" style="fill: #314041"/>
    <path d="M454,167.43a5.4,5.4,0,0,1-.87,3.36,3,3,0,0,1-2.54,1.13,3,3,0,0,1-2.48-1.15,5.47,5.47,0,0,1-.87-3.34c0-3,1.11-4.44,3.35-4.44a3,3,0,0,1,2.53,1.15A5.39,5.39,0,0,1,454,167.43Zm-4.31,0a5.72,5.72,0,0,0,.22,1.85c.14.4.38.6.7.6.62,0,.93-.81.93-2.45s-.31-2.43-.93-2.43c-.32,0-.56.2-.7.6A5.58,5.58,0,0,0,449.66,167.45Zm11-4.26-7.89,14.22h-2.33l7.88-14.22Zm3.26,9.92a5.39,5.39,0,0,1-.86,3.35,3,3,0,0,1-2.54,1.13,3,3,0,0,1-2.48-1.15,5.46,5.46,0,0,1-.88-3.33q0-4.44,3.36-4.44a3,3,0,0,1,2.52,1.15A5.32,5.32,0,0,1,463.92,173.11Zm-4.3,0a6.07,6.07,0,0,0,.21,1.85c.15.4.39.6.71.6.62,0,.93-.81.93-2.45s-.31-2.43-.93-2.43c-.32,0-.56.2-.71.6A5.92,5.92,0,0,0,459.62,173.13Z" style="fill: #314041"/>
  </g>
  <circle cx="63.48" cy="186.23" r="6.06" style="fill: #fff;stroke: #304041;stroke-linecap: round;stroke-linejoin: round;stroke-width: 2.25px"/>
  <circle cx="160.4" cy="39.01" r="6.06" style="fill: #fff;stroke: #304041;stroke-linecap: round;stroke-linejoin: round;stroke-width: 2.25px"/>
  <circle cx="256.88" cy="184.52" r="6.06" style="fill: #fff;stroke: #304041;stroke-linecap: round;stroke-linejoin: round;stroke-width: 2.25px"/>
  <circle cx="353.01" cy="149.51" r="6.06" style="fill: #fff;stroke: #304041;stroke-linecap: round;stroke-linejoin: round;stroke-width: 2.25px"/>
  <circle cx="449.88" cy="190.58" r="6.06" style="fill: #fff;stroke: #304041;stroke-linecap: round;stroke-linejoin: round;stroke-width: 2.25px"/>
</svg>
