<svg xmlns="http://www.w3.org/2000/svg" viewBox="0 0 511 271">
  <title>process_manufacturing_leadership</title>
  <g style="opacity: 0.1">
    <polyline points="63.88 203.01 159.88 84.01 256.88 177.01 352.88 137.01 449.88 207.01" style="fill: none;stroke: #304041;stroke-linecap: round;stroke-linejoin: round;stroke-width: 2.25px"/>
  </g>
  <polyline points="63.88 191.01 159.88 72.01 256.88 165.01 352.88 125.01 449.88 195.01" style="fill: none;stroke: #304041;stroke-linecap: round;stroke-linejoin: round;stroke-width: 2.25px"/>
  <g>
    <path d="M34.94,160.52a5.37,5.37,0,0,1,3.29.93A3,3,0,0,1,39.48,164a3.3,3.3,0,0,1-.6,1.94,5.1,5.1,0,0,1-2,1.52,6.88,6.88,0,0,1,2.29,1.79,3.25,3.25,0,0,1,.7,2,3.4,3.4,0,0,1-1.37,2.82,5.74,5.74,0,0,1-3.61,1.06,6,6,0,0,1-3.67-1,3.29,3.29,0,0,1-1.33-2.81,3.67,3.67,0,0,1,.65-2.16,5.35,5.35,0,0,1,2.07-1.66,5.29,5.29,0,0,1-1.75-1.65,3.64,3.64,0,0,1-.53-1.91,2.94,2.94,0,0,1,1.26-2.47A5.36,5.36,0,0,1,34.94,160.52Zm-2.22,10.63a1.57,1.57,0,0,0,.58,1.3,2.5,2.5,0,0,0,1.6.47,2.45,2.45,0,0,0,1.67-.49,1.59,1.59,0,0,0,.56-1.26,1.78,1.78,0,0,0-.55-1.23,7.09,7.09,0,0,0-1.79-1.21C33.41,169.37,32.72,170.17,32.72,171.15Zm2.2-8.43a1.83,1.83,0,0,0-1.24.4,1.27,1.27,0,0,0-.47,1,1.62,1.62,0,0,0,.37,1.05,4.14,4.14,0,0,0,1.36.95,3.85,3.85,0,0,0,1.33-.92,1.67,1.67,0,0,0,.38-1.08,1.28,1.28,0,0,0-.49-1.06A1.92,1.92,0,0,0,34.92,162.72Z" style="fill: #314041"/>
    <path d="M48,165a5.44,5.44,0,0,1-.87,3.36,3,3,0,0,1-2.53,1.12,2.92,2.92,0,0,1-2.48-1.15,5.39,5.39,0,0,1-.88-3.33q0-4.44,3.36-4.44a3,3,0,0,1,2.52,1.15A5.3,5.3,0,0,1,48,165Zm-4.31,0a5.65,5.65,0,0,0,.22,1.84c.15.41.38.61.71.61.62,0,.93-.82.93-2.45s-.31-2.43-.93-2.43c-.33,0-.56.2-.71.6A5.54,5.54,0,0,0,43.67,165Zm11-4.26-7.89,14.22H44.45l7.89-14.22Zm3.27,9.92a5.43,5.43,0,0,1-.87,3.35,3,3,0,0,1-2.53,1.12A2.92,2.92,0,0,1,52.06,174a5.36,5.36,0,0,1-.88-3.32q0-4.44,3.36-4.44a3,3,0,0,1,2.52,1.15A5.3,5.3,0,0,1,57.94,170.63Zm-4.31,0a5.65,5.65,0,0,0,.22,1.84c.15.41.38.61.71.61.62,0,.93-.82.93-2.45s-.31-2.43-.93-2.43c-.33,0-.56.2-.71.6A5.58,5.58,0,0,0,53.63,170.65Z" style="fill: #314041"/>
  </g>
  <g>
    <path d="M149.12,55.52h-1.71v2.95h-2.94V55.52H138.4V53.43l6.23-9.18h2.78v8.94h1.71Zm-4.65-2.33V50.77c0-.4,0-1,.05-1.75s0-1.2.07-1.33h-.07a11,11,0,0,1-.87,1.56L141,53.19Z" style="fill: #314041"/>
    <path d="M159.61,47.43a3.36,3.36,0,0,1-.81,2.27A4.14,4.14,0,0,1,156.54,51V51a4.51,4.51,0,0,1,2.6,1,3,3,0,0,1,.89,2.25,3.8,3.8,0,0,1-1.49,3.19,6.87,6.87,0,0,1-4.25,1.14,10.17,10.17,0,0,1-4.1-.77V55.34A9.29,9.29,0,0,0,152,56a7.82,7.82,0,0,0,2,.26,3.82,3.82,0,0,0,2.2-.51,1.84,1.84,0,0,0,.71-1.62,1.46,1.46,0,0,0-.82-1.42,6,6,0,0,0-2.61-.42h-1.08V50h1.1a5.08,5.08,0,0,0,2.42-.44,1.55,1.55,0,0,0,.76-1.48c0-1.07-.67-1.61-2-1.61a4.44,4.44,0,0,0-1.42.23,6.73,6.73,0,0,0-1.61.81l-1.39-2.07a7.66,7.66,0,0,1,4.64-1.4,5.94,5.94,0,0,1,3.48.89A2.86,2.86,0,0,1,159.61,47.43Z" style="fill: #314041"/>
    <path d="M168.17,48.49a5.44,5.44,0,0,1-.87,3.36A3,3,0,0,1,164.77,53a2.92,2.92,0,0,1-2.48-1.15,5.39,5.39,0,0,1-.88-3.33q0-4.44,3.36-4.44a3,3,0,0,1,2.52,1.15A5.3,5.3,0,0,1,168.17,48.49Zm-4.31,0a5.94,5.94,0,0,0,.22,1.84c.15.41.38.61.71.61.62,0,.93-.82.93-2.45s-.31-2.43-.93-2.43c-.33,0-.56.2-.71.6A5.82,5.82,0,0,0,163.86,48.51Zm11-4.26L167,58.47h-2.33l7.89-14.22Zm3.27,9.92a5.43,5.43,0,0,1-.87,3.35,3,3,0,0,1-2.53,1.12,2.92,2.92,0,0,1-2.48-1.15,5.36,5.36,0,0,1-.88-3.32q0-4.44,3.36-4.44a3,3,0,0,1,2.52,1.15A5.3,5.3,0,0,1,178.13,54.17Zm-4.31,0A5.65,5.65,0,0,0,174,56c.15.41.38.61.7.61.63,0,.94-.82.94-2.45s-.31-2.43-.94-2.43c-.32,0-.55.2-.7.6A5.54,5.54,0,0,0,173.82,54.19Z" style="fill: #314041"/>
  </g>
  <g>
    <path d="M250.32,144.26h-3V136l0-1.36.05-1.47c-.5.5-.85.82-1,1l-1.64,1.31-1.45-1.81,4.58-3.64h2.47Z" style="fill: #314041"/>
    <path d="M254.17,138.23c0-2.82.59-4.91,1.78-6.29a6.7,6.7,0,0,1,5.35-2.06,9.37,9.37,0,0,1,1.9.15v2.4a7.81,7.81,0,0,0-1.71-.2,5.87,5.87,0,0,0-2.52.47,3.13,3.13,0,0,0-1.47,1.38,6.47,6.47,0,0,0-.57,2.6h.13a3.3,3.3,0,0,1,3.08-1.66,3.8,3.8,0,0,1,3,1.2,4.76,4.76,0,0,1,1.08,3.31,4.92,4.92,0,0,1-1.28,3.6,4.71,4.71,0,0,1-3.56,1.33,5.07,5.07,0,0,1-2.75-.73,4.82,4.82,0,0,1-1.81-2.13A8.17,8.17,0,0,1,254.17,138.23Zm5.13,3.83a1.79,1.79,0,0,0,1.48-.65,2.92,2.92,0,0,0,.52-1.84,2.49,2.49,0,0,0-.49-1.64,1.74,1.74,0,0,0-1.45-.6,2.24,2.24,0,0,0-1.56.59,1.84,1.84,0,0,0-.65,1.38,3.16,3.16,0,0,0,.61,2A1.88,1.88,0,0,0,259.3,142.06Z" style="fill: #314041"/>
    <path d="M272.21,134.29a5.44,5.44,0,0,1-.87,3.36,3,3,0,0,1-2.54,1.12,2.93,2.93,0,0,1-2.48-1.15,5.46,5.46,0,0,1-.87-3.33q0-4.46,3.35-4.45a3,3,0,0,1,2.53,1.15A5.4,5.4,0,0,1,272.21,134.29Zm-4.31,0a5.69,5.69,0,0,0,.22,1.84c.14.4.38.61.7.61.63,0,.94-.82.94-2.45s-.31-2.44-.94-2.44c-.32,0-.56.2-.7.6A5.61,5.61,0,0,0,267.9,134.31Zm11-4.26L271,144.26h-2.33l7.89-14.21Zm3.27,9.92a5.43,5.43,0,0,1-.87,3.35,3,3,0,0,1-2.54,1.12,2.93,2.93,0,0,1-2.48-1.15,5.45,5.45,0,0,1-.87-3.32q0-4.46,3.35-4.45a3,3,0,0,1,2.53,1.15A5.4,5.4,0,0,1,282.17,140Zm-4.31,0a5.72,5.72,0,0,0,.22,1.85c.14.4.38.61.7.61.62,0,.94-.82.94-2.46s-.32-2.43-.94-2.43c-.32,0-.56.2-.7.6A5.58,5.58,0,0,0,277.86,140Z" style="fill: #314041"/>
  </g>
  <g>
    <path d="M343.4,109h-9.94v-2.1l3.57-3.6c1.06-1.09,1.75-1.84,2.08-2.26a4.7,4.7,0,0,0,.69-1.16,2.78,2.78,0,0,0,.22-1.11,1.62,1.62,0,0,0-.47-1.27,1.84,1.84,0,0,0-1.26-.42,3.69,3.69,0,0,0-1.61.38,7.86,7.86,0,0,0-1.62,1.08l-1.63-1.94a10.36,10.36,0,0,1,1.74-1.26,6.13,6.13,0,0,1,1.5-.57,8,8,0,0,1,1.83-.2,5.38,5.38,0,0,1,2.36.49,3.76,3.76,0,0,1,1.58,1.36,3.57,3.57,0,0,1,.56,2,4.94,4.94,0,0,1-.34,1.85,7.16,7.16,0,0,1-1.07,1.76,26.39,26.39,0,0,1-2.55,2.58l-1.83,1.72v.14h6.19Z" style="fill: #314041"/>
    <path d="M346.24,109l5.34-11.68h-7V94.81h10.2V96.7L349.39,109Z" style="fill: #314041"/>
    <path d="M362.78,99a5.44,5.44,0,0,1-.87,3.36,3,3,0,0,1-2.54,1.12,2.93,2.93,0,0,1-2.48-1.15A5.46,5.46,0,0,1,356,99q0-4.46,3.35-4.45a3,3,0,0,1,2.53,1.15A5.4,5.4,0,0,1,362.78,99Zm-4.31,0a5.69,5.69,0,0,0,.22,1.84c.14.4.38.61.7.61.63,0,.94-.82.94-2.45s-.31-2.44-.94-2.44c-.32,0-.56.2-.7.6A5.61,5.61,0,0,0,358.47,99.06Zm11-4.26L361.58,109h-2.33l7.88-14.22Zm3.27,9.92a5.43,5.43,0,0,1-.87,3.35,3,3,0,0,1-2.54,1.12,2.93,2.93,0,0,1-2.48-1.15,5.45,5.45,0,0,1-.87-3.32q0-4.45,3.35-4.45a3,3,0,0,1,2.53,1.15A5.4,5.4,0,0,1,372.74,104.72Zm-4.31,0a5.69,5.69,0,0,0,.22,1.84c.14.4.38.61.7.61.62,0,.94-.82.94-2.45s-.32-2.44-.94-2.44c-.32,0-.56.2-.7.6A5.61,5.61,0,0,0,368.43,104.74Z" style="fill: #314041"/>
  </g>
  <g>
    <path d="M437.43,174.93l5.34-11.67h-7v-2.53H446v1.89l-5.38,12.31Z" style="fill: #314041"/>
    <path d="M454,165a5.44,5.44,0,0,1-.86,3.36,3,3,0,0,1-2.54,1.12,2.92,2.92,0,0,1-2.48-1.15,5.46,5.46,0,0,1-.87-3.33c0-3,1.11-4.44,3.35-4.44a3,3,0,0,1,2.52,1.15A5.3,5.3,0,0,1,454,165Zm-4.3,0a5.65,5.65,0,0,0,.22,1.84c.14.41.38.61.7.61.62,0,.93-.82.93-2.45s-.31-2.43-.93-2.43c-.32,0-.56.2-.7.6A5.54,5.54,0,0,0,449.66,165Zm11-4.26-7.89,14.22h-2.34l7.89-14.22Zm3.26,9.92a5.43,5.43,0,0,1-.86,3.35,3,3,0,0,1-2.54,1.12A2.92,2.92,0,0,1,458,174a5.43,5.43,0,0,1-.88-3.32q0-4.44,3.36-4.44a3,3,0,0,1,2.52,1.15A5.3,5.3,0,0,1,463.92,170.63Zm-4.3,0a6,6,0,0,0,.21,1.84c.15.41.39.61.71.61.62,0,.93-.82.93-2.45s-.31-2.43-.93-2.43c-.32,0-.56.2-.71.6A5.88,5.88,0,0,0,459.62,170.65Z" style="fill: #314041"/>
  </g>
  <circle cx="65.48" cy="188.8" r="6.06" style="fill: #fff;stroke: #304041;stroke-linecap: round;stroke-linejoin: round;stroke-width: 2.25px"/>
  <circle cx="160.4" cy="72.01" r="6.06" style="fill: #fff;stroke: #304041;stroke-linecap: round;stroke-linejoin: round;stroke-width: 2.25px"/>
  <circle cx="256.38" cy="163.87" r="6.06" style="fill: #fff;stroke: #304041;stroke-linecap: round;stroke-linejoin: round;stroke-width: 2.25px"/>
  <circle cx="353.01" cy="125.52" r="6.06" style="fill: #fff;stroke: #304041;stroke-linecap: round;stroke-linejoin: round;stroke-width: 2.25px"/>
  <circle cx="449.88" cy="194.86" r="6.06" style="fill: #fff;stroke: #304041;stroke-linecap: round;stroke-linejoin: round;stroke-width: 2.25px"/>
</svg>
