<svg id="Layer_1" data-name="Layer 1" xmlns="http://www.w3.org/2000/svg" viewBox="0 0 511 271">
  <title>process_manufacturing_technology</title>
  <g style="opacity: 0.1">
    <polyline points="63.88 223.01 159.88 180.01 256.88 150.01 352.88 71.01 449.88 184.01" style="fill: none;stroke: #304041;stroke-linecap: round;stroke-linejoin: round;stroke-width: 2.25px"/>
  </g>
  <polyline points="63.88 211.01 159.88 168.01 256.88 138.01 352.88 59.01 449.88 172.01" style="fill: none;stroke: #304041;stroke-linecap: round;stroke-linejoin: round;stroke-width: 2.25px"/>
  <g>
    <path d="M40,202.46H30v-2.09l3.57-3.61q1.57-1.62,2.07-2.25a5.11,5.11,0,0,0,.7-1.16,3,3,0,0,0,.21-1.11,1.62,1.62,0,0,0-.47-1.27,1.81,1.81,0,0,0-1.26-.42,3.62,3.62,0,0,0-1.6.38A7.9,7.9,0,0,0,31.63,192L30,190.07a11.24,11.24,0,0,1,1.74-1.26,6.05,6.05,0,0,1,1.51-.57,7.8,7.8,0,0,1,1.82-.2,5.35,5.35,0,0,1,2.36.49A3.7,3.7,0,0,1,39,189.89a3.57,3.57,0,0,1,.57,2,5,5,0,0,1-.35,1.85,6.86,6.86,0,0,1-1.07,1.76,26.39,26.39,0,0,1-2.55,2.58l-1.83,1.72v.14H40Z" style="fill: #314041"/>
    <path d="M48,192.49a5.44,5.44,0,0,1-.87,3.36A3,3,0,0,1,44.58,197a2.92,2.92,0,0,1-2.48-1.15,5.39,5.39,0,0,1-.88-3.33q0-4.45,3.36-4.45a3,3,0,0,1,2.52,1.15A5.34,5.34,0,0,1,48,192.49Zm-4.31,0a5.69,5.69,0,0,0,.22,1.84c.15.4.38.61.71.61.62,0,.93-.82.93-2.45s-.31-2.44-.93-2.44c-.33,0-.56.2-.71.6A5.61,5.61,0,0,0,43.67,192.51Zm11-4.26-7.89,14.21H44.45l7.89-14.21Zm3.27,9.92a5.43,5.43,0,0,1-.87,3.35,3,3,0,0,1-2.53,1.12,2.92,2.92,0,0,1-2.48-1.15,5.38,5.38,0,0,1-.88-3.32q0-4.46,3.36-4.45a3,3,0,0,1,2.52,1.15A5.34,5.34,0,0,1,57.94,198.17Zm-4.31,0a5.72,5.72,0,0,0,.22,1.85c.15.4.38.61.71.61q.93,0,.93-2.46t-.93-2.43c-.33,0-.56.2-.71.6A5.58,5.58,0,0,0,53.63,198.18Z" style="fill: #314041"/>
  </g>
  <g>
    <path d="M148.29,155.24h-3V147l0-1.36.05-1.47c-.5.49-.85.82-1,1l-1.63,1.31-1.45-1.81,4.58-3.65h2.47Z" style="fill: #314041"/>
    <path d="M157.4,146.16a4.58,4.58,0,0,1,3.28,1.16,4.14,4.14,0,0,1,1.22,3.17,4.61,4.61,0,0,1-1.46,3.66,6.18,6.18,0,0,1-4.21,1.29,8.25,8.25,0,0,1-3.83-.77v-2.6a7.5,7.5,0,0,0,1.79.67,8,8,0,0,0,1.94.26c1.83,0,2.75-.75,2.75-2.26s-.95-2.15-2.85-2.15a8.26,8.26,0,0,0-1.14.1,8.46,8.46,0,0,0-1,.22l-1.2-.64.54-7.25h7.71v2.55h-5.08l-.26,2.79.34-.06A6.78,6.78,0,0,1,157.4,146.16Z" style="fill: #314041"/>
    <path d="M170.17,145.26a5.52,5.52,0,0,1-.86,3.37,3,3,0,0,1-2.54,1.12,3,3,0,0,1-2.48-1.15,5.4,5.4,0,0,1-.88-3.34q0-4.44,3.36-4.44a3,3,0,0,1,2.52,1.15A5.32,5.32,0,0,1,170.17,145.26Zm-4.31,0a6,6,0,0,0,.22,1.85c.15.4.38.61.71.61q.93,0,.93-2.46t-.93-2.43c-.33,0-.56.2-.71.6A5.87,5.87,0,0,0,165.86,145.28Zm11-4.26L169,155.24h-2.33L174.53,141Zm3.27,9.92a5.44,5.44,0,0,1-.87,3.36,3,3,0,0,1-2.53,1.12,3,3,0,0,1-2.48-1.15,5.39,5.39,0,0,1-.88-3.33q0-4.44,3.36-4.44a3,3,0,0,1,2.52,1.15A5.32,5.32,0,0,1,180.13,150.94Zm-4.31,0a5.72,5.72,0,0,0,.22,1.85c.15.4.38.61.71.61q.93,0,.93-2.46t-.93-2.43c-.33,0-.56.2-.71.6A5.58,5.58,0,0,0,175.82,151Z" style="fill: #314041"/>
  </g>
  <g>
    <path d="M222,126.42H212v-2.09l3.57-3.61a30,30,0,0,0,2.07-2.25,4.64,4.64,0,0,0,.7-1.16,3,3,0,0,0,.22-1.11,1.59,1.59,0,0,0-.48-1.27,1.81,1.81,0,0,0-1.26-.42,3.65,3.65,0,0,0-1.6.38,7.86,7.86,0,0,0-1.62,1.08L212,114a10.6,10.6,0,0,1,1.74-1.26,6.2,6.2,0,0,1,1.51-.57,7.83,7.83,0,0,1,1.83-.2,5.31,5.31,0,0,1,2.35.49,3.72,3.72,0,0,1,1.59,1.36,3.65,3.65,0,0,1,.56,2,4.86,4.86,0,0,1-.34,1.84,7,7,0,0,1-1.07,1.77,28.05,28.05,0,0,1-2.56,2.58l-1.82,1.72v.13H222Z" style="fill: #314041"/>
    <path d="M232.78,115.39a3.33,3.33,0,0,1-.81,2.26,4.2,4.2,0,0,1-2.27,1.28V119a4.55,4.55,0,0,1,2.61,1.05,2.92,2.92,0,0,1,.88,2.24,3.82,3.82,0,0,1-1.48,3.2,6.89,6.89,0,0,1-4.25,1.14,10.35,10.35,0,0,1-4.11-.77v-2.56a8.91,8.91,0,0,0,1.82.68,7.46,7.46,0,0,0,2,.27,3.78,3.78,0,0,0,2.2-.51,1.84,1.84,0,0,0,.71-1.62,1.46,1.46,0,0,0-.81-1.42,6.06,6.06,0,0,0-2.61-.42h-1.08V118h1.1a5.12,5.12,0,0,0,2.42-.43,1.57,1.57,0,0,0,.76-1.48c0-1.08-.68-1.62-2-1.62a4.52,4.52,0,0,0-1.43.24,6.84,6.84,0,0,0-1.61.8l-1.39-2.07A7.75,7.75,0,0,1,228,112a6.07,6.07,0,0,1,3.49.89A2.89,2.89,0,0,1,232.78,115.39Z" style="fill: #314041"/>
    <path d="M241.33,116.45a5.39,5.39,0,0,1-.86,3.35,3,3,0,0,1-2.54,1.13,3,3,0,0,1-2.48-1.15,5.46,5.46,0,0,1-.88-3.33q0-4.45,3.36-4.45a3,3,0,0,1,2.52,1.15A5.34,5.34,0,0,1,241.33,116.45Zm-4.3,0a6.07,6.07,0,0,0,.21,1.85c.15.4.39.61.71.61q.93,0,.93-2.46T238,114c-.32,0-.56.2-.71.6A5.92,5.92,0,0,0,237,116.46Zm11-4.26-7.89,14.22H237.8l7.89-14.22Zm3.26,9.93a5.43,5.43,0,0,1-.86,3.35,3,3,0,0,1-2.54,1.12,2.92,2.92,0,0,1-2.48-1.15,5.45,5.45,0,0,1-.88-3.32q0-4.45,3.36-4.45a3,3,0,0,1,2.52,1.15A5.34,5.34,0,0,1,251.29,122.13Zm-4.31,0a6,6,0,0,0,.22,1.85c.15.4.38.61.71.61q.93,0,.93-2.46t-.93-2.43c-.33,0-.56.2-.71.6A5.87,5.87,0,0,0,247,122.14Z" style="fill: #314041"/>
  </g>
  <g>
    <path d="M343.73,43.15H342v3h-2.93v-3H333V41.06l6.23-9.18H342v8.94h1.72Zm-4.65-2.33V38.41c0-.4,0-1,0-1.75s.06-1.21.08-1.34h-.08a10.38,10.38,0,0,1-.86,1.56l-2.61,3.94Z" style="fill: #314041"/>
    <path d="M346.24,46.1l5.34-11.67h-7V31.9h10.2v1.89L349.4,46.1Z" style="fill: #314041"/>
    <path d="M362.78,36.12a5.44,5.44,0,0,1-.87,3.36,3,3,0,0,1-2.54,1.13,2.94,2.94,0,0,1-2.48-1.16,5.46,5.46,0,0,1-.87-3.33q0-4.44,3.35-4.44a3,3,0,0,1,2.53,1.15A5.39,5.39,0,0,1,362.78,36.12Zm-4.31,0a5.61,5.61,0,0,0,.22,1.84c.14.41.38.61.7.61.63,0,.94-.81.94-2.45s-.31-2.43-.94-2.43c-.32,0-.56.2-.7.6A5.58,5.58,0,0,0,358.47,36.14Zm11-4.26L361.58,46.1h-2.33l7.89-14.22Zm3.27,9.92a5.41,5.41,0,0,1-.87,3.35,3,3,0,0,1-2.54,1.13,2.94,2.94,0,0,1-2.48-1.16A5.43,5.43,0,0,1,366,41.8q0-4.44,3.35-4.44a3,3,0,0,1,2.53,1.15A5.39,5.39,0,0,1,372.74,41.8Zm-4.31,0a5.65,5.65,0,0,0,.22,1.84c.14.41.38.61.7.61.63,0,.94-.81.94-2.45s-.31-2.43-.94-2.43c-.32,0-.56.2-.7.6A5.58,5.58,0,0,0,368.43,41.82Z" style="fill: #314041"/>
  </g>
  <g>
    <path d="M452.63,155.24h-3V147l0-1.36.05-1.47c-.5.49-.84.82-1,1L447,146.48l-1.45-1.81,4.58-3.65h2.47Z" style="fill: #314041"/>
    <path d="M466.83,152.3h-1.71v2.94h-2.94V152.3h-6.07v-2.09l6.24-9.19h2.77V150h1.71ZM462.18,150v-2.41c0-.4,0-1,.05-1.75s.06-1.21.08-1.33h-.08a10.35,10.35,0,0,1-.87,1.55l-2.6,3.94Z" style="fill: #314041"/>
    <path d="M474.51,145.26a5.52,5.52,0,0,1-.86,3.37,3,3,0,0,1-2.54,1.12,3,3,0,0,1-2.48-1.15,5.4,5.4,0,0,1-.88-3.34q0-4.44,3.36-4.44a3,3,0,0,1,2.52,1.15A5.32,5.32,0,0,1,474.51,145.26Zm-4.31,0a6,6,0,0,0,.22,1.85c.15.4.38.61.71.61q.93,0,.93-2.46t-.93-2.43c-.33,0-.56.2-.71.6A5.87,5.87,0,0,0,470.2,145.28Zm11-4.26-7.88,14.22H471L478.87,141Zm3.27,9.92a5.51,5.51,0,0,1-.86,3.36,3,3,0,0,1-2.54,1.12,3,3,0,0,1-2.48-1.15,5.39,5.39,0,0,1-.88-3.33q0-4.44,3.36-4.44a3,3,0,0,1,2.52,1.15A5.32,5.32,0,0,1,484.47,150.94Zm-4.31,0a6,6,0,0,0,.22,1.85c.15.4.38.61.71.61q.93,0,.93-2.46t-.93-2.43c-.33,0-.56.2-.71.6A5.87,5.87,0,0,0,480.16,151Z" style="fill: #314041"/>
  </g>
  <circle cx="63.88" cy="211.01" r="6.06" style="fill: #fff;stroke: #304041;stroke-linecap: round;stroke-linejoin: round;stroke-width: 2.25px"/>
  <circle cx="159.4" cy="168.43" r="6.06" style="fill: #fff;stroke: #304041;stroke-linecap: round;stroke-linejoin: round;stroke-width: 2.25px"/>
  <circle cx="256.88" cy="137.19" r="6.06" style="fill: #fff;stroke: #304041;stroke-linecap: round;stroke-linejoin: round;stroke-width: 2.25px"/>
  <circle cx="352.88" cy="60.4" r="6.06" style="fill: #fff;stroke: #304041;stroke-linecap: round;stroke-linejoin: round;stroke-width: 2.25px"/>
  <circle cx="449.88" cy="171.43" r="6.06" style="fill: #fff;stroke: #304041;stroke-linecap: round;stroke-linejoin: round;stroke-width: 2.25px"/>
</svg>
