<svg id="Layer_1" data-name="Layer 1" xmlns="http://www.w3.org/2000/svg" viewBox="0 0 511 271">
  <title>process_manufacturing_process</title>
  <g style="opacity: 0.1">
    <polyline points="63.88 213.01 159.88 104.01 256.88 184.01 352.88 120.01 449.88 187.01" style="fill: none;stroke: #304041;stroke-linecap: round;stroke-linejoin: round;stroke-width: 2.25px"/>
  </g>
  <polyline points="63.88 201.01 159.88 92.01 256.88 172.01 352.88 108.01 449.88 175.01" style="fill: none;stroke: #304041;stroke-linecap: round;stroke-linejoin: round;stroke-width: 2.25px"/>
  <g>
    <path d="M38.2,180.29a4.6,4.6,0,0,1,3.29,1.16,4.17,4.17,0,0,1,1.22,3.17,4.62,4.62,0,0,1-1.47,3.67,6.22,6.22,0,0,1-4.2,1.28,8.29,8.29,0,0,1-3.84-.77v-2.59a8.14,8.14,0,0,0,1.79.66,8,8,0,0,0,1.94.26c1.83,0,2.75-.75,2.75-2.26s-1-2.15-2.85-2.15a7,7,0,0,0-1.14.11,6.86,6.86,0,0,0-1,.22l-1.19-.65.53-7.24h7.71v2.55H36.66l-.27,2.79.34-.07A6.78,6.78,0,0,1,38.2,180.29Z" style="fill: #314041"/>
    <path d="M51,179.4a5.44,5.44,0,0,1-.86,3.36,3,3,0,0,1-2.54,1.12,2.92,2.92,0,0,1-2.48-1.15,5.46,5.46,0,0,1-.88-3.33q0-4.46,3.36-4.45a3,3,0,0,1,2.52,1.16A5.28,5.28,0,0,1,51,179.4Zm-4.31,0a6,6,0,0,0,.22,1.84c.15.41.38.61.71.61.62,0,.93-.82.93-2.45s-.31-2.43-.93-2.43c-.33,0-.56.19-.71.59A5.89,5.89,0,0,0,46.66,179.42Zm11-4.26-7.88,14.22H47.44l7.89-14.22Zm3.27,9.92a5.5,5.5,0,0,1-.86,3.35,3,3,0,0,1-2.54,1.12,2.92,2.92,0,0,1-2.48-1.15,5.38,5.38,0,0,1-.88-3.32q0-4.46,3.36-4.45a3,3,0,0,1,2.52,1.16A5.28,5.28,0,0,1,60.93,185.08Zm-4.31,0a5.94,5.94,0,0,0,.22,1.84c.15.4.38.61.71.61.62,0,.93-.82.93-2.45s-.31-2.43-.93-2.43c-.33,0-.56.2-.71.59A5.89,5.89,0,0,0,56.62,185.1Z" style="fill: #314041"/>
  </g>
  <g>
    <path d="M149.24,65.72a3.33,3.33,0,0,1-.81,2.26,4.21,4.21,0,0,1-2.26,1.29v0a4.48,4.48,0,0,1,2.6,1.05,2.92,2.92,0,0,1,.89,2.24,3.82,3.82,0,0,1-1.49,3.2A6.87,6.87,0,0,1,143.92,77a10.34,10.34,0,0,1-4.1-.77V73.62a8.91,8.91,0,0,0,1.82.68,7.41,7.41,0,0,0,2,.27,3.8,3.8,0,0,0,2.2-.51,1.87,1.87,0,0,0,.71-1.62,1.46,1.46,0,0,0-.82-1.42,6,6,0,0,0-2.6-.42H142V68.29h1.1a5.08,5.08,0,0,0,2.41-.43,1.56,1.56,0,0,0,.76-1.48c0-1.08-.67-1.62-2-1.62a4.5,4.5,0,0,0-1.42.24,6.66,6.66,0,0,0-1.61.8l-1.39-2.07a7.73,7.73,0,0,1,4.64-1.4,5.94,5.94,0,0,1,3.48.9A2.84,2.84,0,0,1,149.24,65.72Z" style="fill: #314041"/>
    <path d="M152.64,76.75,158,65.08h-7V62.55h10.21v1.89l-5.38,12.31Z" style="fill: #314041"/>
    <path d="M169.17,66.78a5.51,5.51,0,0,1-.86,3.36,3,3,0,0,1-2.54,1.12,2.92,2.92,0,0,1-2.48-1.15,5.39,5.39,0,0,1-.88-3.33q0-4.45,3.36-4.45a3,3,0,0,1,2.52,1.15A5.34,5.34,0,0,1,169.17,66.78Zm-4.31,0a6,6,0,0,0,.22,1.84c.15.4.38.61.71.61.62,0,.93-.82.93-2.45s-.31-2.44-.93-2.44c-.33,0-.56.2-.71.6A5.89,5.89,0,0,0,164.86,66.8Zm11-4.26L168,76.75h-2.33l7.89-14.21Zm3.27,9.92a5.43,5.43,0,0,1-.87,3.35,3,3,0,0,1-2.53,1.12,2.92,2.92,0,0,1-2.48-1.15,5.38,5.38,0,0,1-.88-3.32q0-4.45,3.36-4.45a3,3,0,0,1,2.52,1.15A5.34,5.34,0,0,1,179.13,72.46Zm-4.31,0a5.72,5.72,0,0,0,.22,1.85c.15.4.38.61.7.61.63,0,.94-.82.94-2.46s-.31-2.43-.94-2.43c-.32,0-.55.2-.7.6A5.58,5.58,0,0,0,174.82,72.47Z" style="fill: #314041"/>
  </g>
  <g>
    <path d="M244.77,153.09h-3v-8.23l0-1.35.05-1.48c-.5.5-.85.83-1,1l-1.64,1.31-1.45-1.81,4.58-3.65h2.48Z" style="fill: #314041"/>
    <path d="M259,150.15h-1.71v2.94h-2.93v-2.94h-6.07v-2.1l6.23-9.18h2.77v8.94H259Zm-4.64-2.34V145.4c0-.4,0-1,0-1.75s.06-1.21.08-1.33h-.08a10.29,10.29,0,0,1-.86,1.55l-2.61,3.94Z" style="fill: #314041"/>
    <path d="M266.65,143.11a5.4,5.4,0,0,1-.87,3.36,3,3,0,0,1-2.54,1.13,3,3,0,0,1-2.48-1.15,5.47,5.47,0,0,1-.87-3.34q0-4.44,3.35-4.44a3,3,0,0,1,2.53,1.15A5.32,5.32,0,0,1,266.65,143.11Zm-4.31,0a5.72,5.72,0,0,0,.22,1.85c.14.4.38.6.7.6.63,0,.94-.81.94-2.45s-.31-2.43-.94-2.43c-.32,0-.56.2-.7.6A5.58,5.58,0,0,0,262.34,143.13Zm11-4.26-7.89,14.22h-2.33L271,138.87Zm3.27,9.92a5.39,5.39,0,0,1-.87,3.35,3,3,0,0,1-2.54,1.13,3,3,0,0,1-2.48-1.15,5.46,5.46,0,0,1-.87-3.33q0-4.44,3.35-4.44a3,3,0,0,1,2.53,1.15A5.39,5.39,0,0,1,276.61,148.79Zm-4.31,0a5.72,5.72,0,0,0,.22,1.85c.14.4.38.6.7.6.63,0,.94-.81.94-2.45s-.31-2.43-.94-2.43c-.32,0-.56.2-.7.6A5.58,5.58,0,0,0,272.3,148.81Z" style="fill: #314041"/>
  </g>
  <g>
    <path d="M342.85,81.93A3.34,3.34,0,0,1,342,84.2a4.17,4.17,0,0,1-2.26,1.28v.06a4.48,4.48,0,0,1,2.6,1,2.92,2.92,0,0,1,.89,2.24A3.79,3.79,0,0,1,341.78,92a6.8,6.8,0,0,1-4.25,1.15,10.34,10.34,0,0,1-4.1-.77V89.84a8.82,8.82,0,0,0,1.81.68,7.46,7.46,0,0,0,2,.26,3.83,3.83,0,0,0,2.2-.5,1.87,1.87,0,0,0,.71-1.62,1.47,1.47,0,0,0-.82-1.42,6,6,0,0,0-2.61-.42h-1.08V84.51h1.1a5.12,5.12,0,0,0,2.42-.43,1.56,1.56,0,0,0,.76-1.48c0-1.08-.67-1.62-2-1.62a4.85,4.85,0,0,0-1.43.23,7.29,7.29,0,0,0-1.6.81L333.44,80a7.77,7.77,0,0,1,4.64-1.4,6,6,0,0,1,3.49.89A2.89,2.89,0,0,1,342.85,81.93Z" style="fill: #314041"/>
    <path d="M354.77,93h-9.94V90.88l3.57-3.61A30,30,0,0,0,350.47,85a4.64,4.64,0,0,0,.7-1.16,2.85,2.85,0,0,0,.22-1.11,1.62,1.62,0,0,0-.47-1.27,1.84,1.84,0,0,0-1.26-.42,3.69,3.69,0,0,0-1.61.38,7.86,7.86,0,0,0-1.62,1.08l-1.64-1.94a10.2,10.2,0,0,1,1.75-1.26,6.13,6.13,0,0,1,1.5-.57,8,8,0,0,1,1.83-.2,5.38,5.38,0,0,1,2.36.49,3.69,3.69,0,0,1,1.58,1.36,3.57,3.57,0,0,1,.56,2,4.86,4.86,0,0,1-.34,1.84A7,7,0,0,1,353,86a26.39,26.39,0,0,1-2.55,2.58l-1.83,1.72v.13h6.19Z" style="fill: #314041"/>
    <path d="M362.78,83a5.39,5.39,0,0,1-.87,3.35,3,3,0,0,1-2.54,1.13,3,3,0,0,1-2.48-1.15A5.46,5.46,0,0,1,356,83q0-4.45,3.35-4.45a3,3,0,0,1,2.53,1.15A5.4,5.4,0,0,1,362.78,83Zm-4.31,0a5.72,5.72,0,0,0,.22,1.85c.14.4.38.61.7.61.63,0,.94-.82.94-2.46s-.31-2.43-.94-2.43c-.32,0-.56.2-.7.6A5.58,5.58,0,0,0,358.47,83Zm11-4.26L361.58,93h-2.33l7.89-14.22Zm3.27,9.93a5.37,5.37,0,0,1-.87,3.34,3,3,0,0,1-2.54,1.13A3,3,0,0,1,366.85,92a5.45,5.45,0,0,1-.87-3.32q0-4.46,3.35-4.45a3,3,0,0,1,2.53,1.15A5.4,5.4,0,0,1,372.74,88.68Zm-4.31,0a5.72,5.72,0,0,0,.22,1.85c.14.4.38.6.7.6.63,0,.94-.81.94-2.45s-.31-2.43-.94-2.43c-.32,0-.56.2-.7.6A5.58,5.58,0,0,0,368.43,88.69Z" style="fill: #314041"/>
  </g>
  <g>
    <path d="M443.82,160.81h-3v-8.23l0-1.35,0-1.48c-.5.5-.85.83-1,1l-1.64,1.31-1.45-1.81,4.58-3.65h2.47Z" style="fill: #314041"/>
    <path d="M457.15,149.77a3.34,3.34,0,0,1-.81,2.27,4.17,4.17,0,0,1-2.27,1.28v.06a4.48,4.48,0,0,1,2.61,1.05,2.92,2.92,0,0,1,.89,2.24,3.79,3.79,0,0,1-1.49,3.19,6.8,6.8,0,0,1-4.25,1.15,10.39,10.39,0,0,1-4.11-.77v-2.56a8.91,8.91,0,0,0,1.82.68,7.46,7.46,0,0,0,2,.26,3.91,3.91,0,0,0,2.2-.5,1.87,1.87,0,0,0,.71-1.63,1.49,1.49,0,0,0-.82-1.42,6.06,6.06,0,0,0-2.61-.41h-1.08v-2.31H451a5.12,5.12,0,0,0,2.42-.43,1.57,1.57,0,0,0,.76-1.49c0-1.07-.67-1.61-2-1.61a4.85,4.85,0,0,0-1.43.23,7.34,7.34,0,0,0-1.61.81l-1.39-2.07a7.71,7.71,0,0,1,4.64-1.4,6,6,0,0,1,3.49.89A2.89,2.89,0,0,1,457.15,149.77Z" style="fill: #314041"/>
    <path d="M465.71,150.83a5.44,5.44,0,0,1-.87,3.36,3,3,0,0,1-2.54,1.13,2.94,2.94,0,0,1-2.48-1.16,5.42,5.42,0,0,1-.87-3.33q0-4.44,3.35-4.44a3,3,0,0,1,2.53,1.15A5.39,5.39,0,0,1,465.71,150.83Zm-4.31,0a5.72,5.72,0,0,0,.22,1.85c.14.4.38.6.7.6.62,0,.94-.81.94-2.45s-.32-2.43-.94-2.43c-.32,0-.56.2-.7.6A5.58,5.58,0,0,0,461.4,150.85Zm11-4.26-7.89,14.22h-2.33l7.88-14.22Zm3.27,9.92a5.41,5.41,0,0,1-.87,3.35,3,3,0,0,1-2.54,1.13,2.94,2.94,0,0,1-2.48-1.16,5.41,5.41,0,0,1-.87-3.32c0-3,1.11-4.44,3.35-4.44a3,3,0,0,1,2.53,1.15A5.39,5.39,0,0,1,475.67,156.51Zm-4.31,0a5.72,5.72,0,0,0,.22,1.85c.14.4.38.6.7.6.62,0,.94-.81.94-2.45s-.32-2.43-.94-2.43c-.32,0-.56.2-.7.6A5.58,5.58,0,0,0,471.36,156.53Z" style="fill: #314041"/>
  </g>
  <circle cx="63.88" cy="201.01" r="6.06" style="fill: #fff;stroke: #304041;stroke-linecap: round;stroke-linejoin: round;stroke-width: 2.25px"/>
  <circle cx="159.4" cy="92.01" r="6.06" style="fill: #fff;stroke: #304041;stroke-linecap: round;stroke-linejoin: round;stroke-width: 2.25px"/>
  <circle cx="256.88" cy="172.01" r="6.06" style="fill: #fff;stroke: #304041;stroke-linecap: round;stroke-linejoin: round;stroke-width: 2.25px"/>
  <circle cx="353.01" cy="106.69" r="6.06" style="fill: #fff;stroke: #304041;stroke-linecap: round;stroke-linejoin: round;stroke-width: 2.25px"/>
  <circle cx="450.59" cy="175.01" r="6.06" style="fill: #fff;stroke: #304041;stroke-linecap: round;stroke-linejoin: round;stroke-width: 2.25px"/>
</svg>
