<svg xmlns="http://www.w3.org/2000/svg" viewBox="0 0 511 271">
  <title>process_manufacturing_portfolio</title>
  <g style="opacity: 0.1">
    <polyline points="63.88 193.01 159.88 71.01 256.88 190.01 352.88 147.01 449.88 207.01" style="fill: none;stroke: #304041;stroke-linecap: round;stroke-linejoin: round;stroke-width: 2.25px"/>
  </g>
  <polyline points="63.88 181.01 159.88 59.01 256.88 178.01 352.88 135.01 449.88 195.01" style="fill: none;stroke: #304041;stroke-linecap: round;stroke-linejoin: round;stroke-width: 2.25px"/>
  <g>
    <path d="M21.91,176.45h-3v-8.23l0-1.35.05-1.48c-.5.5-.85.83-1,1l-1.64,1.31-1.44-1.8,4.58-3.65h2.47Z" style="fill: #314041"/>
    <path d="M33.28,176.45h-3v-8.23l0-1.35.05-1.48c-.5.5-.85.83-1,1l-1.64,1.31-1.44-1.8,4.58-3.65h2.47Z" style="fill: #314041"/>
    <path d="M43.79,166.47a5.44,5.44,0,0,1-.87,3.36A3,3,0,0,1,40.39,171a2.92,2.92,0,0,1-2.48-1.15,5.39,5.39,0,0,1-.88-3.33c0-3,1.12-4.45,3.36-4.45a3,3,0,0,1,2.52,1.16A5.3,5.3,0,0,1,43.79,166.47Zm-4.31,0a5.65,5.65,0,0,0,.22,1.84c.15.41.38.61.71.61.62,0,.93-.82.93-2.45s-.31-2.43-.93-2.43c-.33,0-.56.2-.71.6A5.54,5.54,0,0,0,39.48,166.49Zm11-4.26-7.89,14.22H40.26l7.89-14.22Zm3.27,9.92a5.43,5.43,0,0,1-.87,3.35,3,3,0,0,1-2.53,1.12,2.94,2.94,0,0,1-2.49-1.15,5.45,5.45,0,0,1-.87-3.32c0-3,1.12-4.45,3.36-4.45a3,3,0,0,1,2.52,1.16A5.3,5.3,0,0,1,53.75,172.15Zm-4.31,0a5.65,5.65,0,0,0,.22,1.84c.15.41.38.61.7.61.63,0,.94-.82.94-2.45s-.31-2.43-.94-2.43c-.32,0-.55.2-.7.6A5.5,5.5,0,0,0,49.44,172.17Z" style="fill: #314041"/>
  </g>
  <g>
    <path d="M150.12,39.82h-1.71v3h-2.94v-3H139.4V37.73l6.23-9.18h2.78v8.93h1.71Zm-4.65-2.34V35.07c0-.4,0-1,.05-1.75s0-1.21.07-1.33h-.07a11,11,0,0,1-.87,1.56L142,37.48Z" style="fill: #314041"/>
    <path d="M152.64,42.77,158,31.1h-7V28.57h10.21v1.88l-5.38,12.32Z" style="fill: #314041"/>
    <path d="M169.17,32.79a5.51,5.51,0,0,1-.86,3.36,3,3,0,0,1-2.54,1.12,2.92,2.92,0,0,1-2.48-1.15,5.39,5.39,0,0,1-.88-3.33q0-4.45,3.36-4.45a3,3,0,0,1,2.52,1.16A5.28,5.28,0,0,1,169.17,32.79Zm-4.31,0a6,6,0,0,0,.22,1.84c.15.4.38.61.71.61.62,0,.93-.82.93-2.45s-.31-2.43-.93-2.43c-.33,0-.56.19-.71.59A5.89,5.89,0,0,0,164.86,32.81Zm11-4.26L168,42.77h-2.33l7.89-14.22Zm3.27,9.92a5.43,5.43,0,0,1-.87,3.35,3,3,0,0,1-2.53,1.12,2.92,2.92,0,0,1-2.48-1.15,5.38,5.38,0,0,1-.88-3.32q0-4.45,3.36-4.45a3,3,0,0,1,2.52,1.16A5.28,5.28,0,0,1,179.13,38.47Zm-4.31,0a5.65,5.65,0,0,0,.22,1.84c.15.4.38.61.7.61.63,0,.94-.82.94-2.45s-.31-2.44-.94-2.44c-.32,0-.55.21-.7.6A5.61,5.61,0,0,0,174.82,38.49Z" style="fill: #314041"/>
  </g>
  <g>
    <path d="M250.82,157.56h-3v-8.23l0-1.35.05-1.48c-.5.5-.85.83-1,1l-1.64,1.31-1.45-1.8,4.58-3.65h2.47Z" style="fill: #314041"/>
    <path d="M264.7,157.56h-9.94v-2.09l3.57-3.61q1.59-1.63,2.07-2.25a4.68,4.68,0,0,0,.7-1.17,2.77,2.77,0,0,0,.22-1.1,1.63,1.63,0,0,0-.47-1.28,1.84,1.84,0,0,0-1.26-.42A3.69,3.69,0,0,0,258,146a7.86,7.86,0,0,0-1.62,1.08l-1.64-1.93a10.77,10.77,0,0,1,1.74-1.27,7.36,7.36,0,0,1,1.51-.57,8,8,0,0,1,1.83-.2,5.45,5.45,0,0,1,2.35.49,3.73,3.73,0,0,1,1.59,1.36,3.58,3.58,0,0,1,.56,2,4.93,4.93,0,0,1-.34,1.84,7.16,7.16,0,0,1-1.07,1.76,25.34,25.34,0,0,1-2.55,2.58l-1.83,1.72V155h6.19Z" style="fill: #314041"/>
    <path d="M272.71,147.58a5.44,5.44,0,0,1-.87,3.36,3,3,0,0,1-2.54,1.12,2.93,2.93,0,0,1-2.48-1.15,5.46,5.46,0,0,1-.87-3.33c0-3,1.12-4.45,3.35-4.45a3,3,0,0,1,2.53,1.16A5.35,5.35,0,0,1,272.71,147.58Zm-4.31,0a5.65,5.65,0,0,0,.22,1.84c.14.41.38.61.7.61.62,0,.94-.82.94-2.45s-.32-2.43-.94-2.43a.75.75,0,0,0-.7.59A5.61,5.61,0,0,0,268.4,147.6Zm11-4.26-7.89,14.22h-2.33l7.88-14.22Zm3.27,9.92a5.43,5.43,0,0,1-.87,3.35,3,3,0,0,1-2.54,1.12,2.93,2.93,0,0,1-2.48-1.15,5.45,5.45,0,0,1-.87-3.32c0-3,1.11-4.45,3.35-4.45a3,3,0,0,1,2.53,1.16A5.35,5.35,0,0,1,282.67,153.26Zm-4.31,0a5.65,5.65,0,0,0,.22,1.84c.14.41.38.61.7.61.62,0,.94-.82.94-2.45s-.32-2.43-.94-2.43a.75.75,0,0,0-.7.59A5.61,5.61,0,0,0,278.36,153.28Z" style="fill: #314041"/>
  </g>
  <g>
    <path d="M343.4,122.38h-9.94v-2.09l3.57-3.61c1.06-1.08,1.75-1.84,2.08-2.25a5.37,5.37,0,0,0,.7-1.17,3,3,0,0,0,.21-1.1,1.65,1.65,0,0,0-.47-1.28,1.84,1.84,0,0,0-1.26-.42,3.69,3.69,0,0,0-1.61.38,8.76,8.76,0,0,0-1.62,1.08L333.43,110a10.77,10.77,0,0,1,1.74-1.27,7.06,7.06,0,0,1,1.5-.57,8,8,0,0,1,1.83-.2,5.5,5.5,0,0,1,2.36.49,3.7,3.7,0,0,1,1.58,1.36,3.61,3.61,0,0,1,.57,2,4.9,4.9,0,0,1-.35,1.84,7.16,7.16,0,0,1-1.07,1.76A24.3,24.3,0,0,1,339,118l-1.83,1.72v.14h6.19Z" style="fill: #314041"/>
    <path d="M355.09,119.43h-1.71v2.95h-2.93v-2.95h-6.07v-2.09l6.23-9.18h2.77v8.94h1.71Zm-4.64-2.33v-2.42c0-.4,0-1,0-1.75s.06-1.21.08-1.33h-.08a10.9,10.9,0,0,1-.86,1.56L347,117.1Z" style="fill: #314041"/>
    <path d="M362.78,112.4a5.44,5.44,0,0,1-.87,3.36,3,3,0,0,1-2.54,1.12,2.93,2.93,0,0,1-2.48-1.15,5.46,5.46,0,0,1-.87-3.33c0-3,1.12-4.45,3.35-4.45a3,3,0,0,1,2.53,1.16A5.37,5.37,0,0,1,362.78,112.4Zm-4.31,0a5.65,5.65,0,0,0,.22,1.84c.14.41.38.61.7.61.63,0,.94-.82.94-2.45S360,110,359.39,110c-.32,0-.56.2-.7.6A5.5,5.5,0,0,0,358.47,112.42Zm11-4.26-7.89,14.22h-2.33l7.89-14.22Zm3.27,9.92a5.43,5.43,0,0,1-.87,3.35,3,3,0,0,1-2.54,1.12,2.93,2.93,0,0,1-2.48-1.15,5.45,5.45,0,0,1-.87-3.32c0-3,1.12-4.45,3.35-4.45a3,3,0,0,1,2.53,1.16A5.35,5.35,0,0,1,372.74,118.08Zm-4.31,0a5.65,5.65,0,0,0,.22,1.84c.14.41.38.61.7.61.63,0,.94-.82.94-2.45s-.31-2.43-.94-2.43a.75.75,0,0,0-.7.59A5.65,5.65,0,0,0,368.43,118.1Z" style="fill: #314041"/>
  </g>
  <g>
    <path d="M441,177.45l5.34-11.67h-7v-2.53h10.21v1.88l-5.38,12.32Z" style="fill: #314041"/>
    <path d="M457.52,167.47a5.51,5.51,0,0,1-.86,3.36,3,3,0,0,1-2.54,1.12,2.92,2.92,0,0,1-2.48-1.15,5.39,5.39,0,0,1-.88-3.33c0-3,1.12-4.45,3.36-4.45a3,3,0,0,1,2.52,1.16A5.3,5.3,0,0,1,457.52,167.47Zm-4.31,0a5.94,5.94,0,0,0,.22,1.84c.15.41.38.61.71.61.62,0,.93-.82.93-2.45s-.31-2.43-.93-2.43c-.33,0-.56.2-.71.6A5.82,5.82,0,0,0,453.21,167.49Zm11-4.26-7.89,14.22H454l7.89-14.22Zm3.27,9.92a5.43,5.43,0,0,1-.87,3.35,3,3,0,0,1-2.53,1.12,2.92,2.92,0,0,1-2.48-1.15,5.38,5.38,0,0,1-.88-3.32c0-3,1.12-4.45,3.36-4.45a3,3,0,0,1,2.52,1.16A5.3,5.3,0,0,1,467.48,173.15Zm-4.31,0a5.65,5.65,0,0,0,.22,1.84c.15.41.38.61.71.61.62,0,.93-.82.93-2.45s-.31-2.43-.93-2.43c-.33,0-.56.2-.71.6A5.5,5.5,0,0,0,463.17,173.17Z" style="fill: #314041"/>
  </g>
  <circle cx="63.48" cy="183.51" r="6.06" style="fill: #fff;stroke: #304041;stroke-linecap: round;stroke-linejoin: round;stroke-width: 2.25px"/>
  <circle cx="158.4" cy="59.01" r="6.06" style="fill: #fff;stroke: #304041;stroke-linecap: round;stroke-linejoin: round;stroke-width: 2.25px"/>
  <circle cx="256.38" cy="177.45" r="6.06" style="fill: #fff;stroke: #304041;stroke-linecap: round;stroke-linejoin: round;stroke-width: 2.25px"/>
  <circle cx="352.88" cy="135.01" r="6.06" style="fill: #fff;stroke: #304041;stroke-linecap: round;stroke-linejoin: round;stroke-width: 2.25px"/>
  <circle cx="449.88" cy="195.01" r="6.06" style="fill: #fff;stroke: #304041;stroke-linecap: round;stroke-linejoin: round;stroke-width: 2.25px"/>
</svg>
