<svg id="Layer_1" data-name="Layer 1" xmlns="http://www.w3.org/2000/svg" viewBox="0 0 511 271">
  <title>stage1</title>
  <path d="M15,13H496M15,47H496M15,81H496M15,115H496M15,149H496M15,183H496" style="fill: none;stroke: #d9d9d9;stroke-linejoin: round;stroke-width: 0.75px"/>
  <line x1="14.98" y1="217.01" x2="495.98" y2="217.01" style="fill: none;stroke: #d9d9d9;stroke-linejoin: round;stroke-width: 0.75px"/>
  <rect x="38.13" y="167.48" width="50.99" height="49.53" style="fill: #8db8a3"/>
  <rect x="132.91" y="129.96" width="50.99" height="87.05" style="fill: #e3e2e3"/>
  <rect x="227.68" y="90.05" width="50.99" height="126.96" style="fill: #e3e2e3"/>
  <rect x="322.45" y="51.05" width="50.99" height="165.95" style="fill: #e3e2e3"/>
  <rect x="417.23" y="13.01" width="50.99" height="204" style="fill: #e3e2e3"/>
  <g>
    <path d="M47.27,233v-7.14h1.51v5.89h2.9V233Z" style="fill: #304041"/>
    <path d="M55.27,233.06a2.8,2.8,0,0,1-2.06-.73,2.76,2.76,0,0,1-.74-2.06,3.07,3.07,0,0,1,.68-2.12,2.45,2.45,0,0,1,1.9-.75,2.4,2.4,0,0,1,1.8.66,2.5,2.5,0,0,1,.65,1.82v.72H54a1.39,1.39,0,0,0,.37,1,1.34,1.34,0,0,0,1,.36,4,4,0,0,0,.93-.1,4.65,4.65,0,0,0,.92-.33v1.15a3.41,3.41,0,0,1-.83.29A4.88,4.88,0,0,1,55.27,233.06Zm-.21-4.6a1,1,0,0,0-.74.3,1.4,1.4,0,0,0-.31.85H56.1a1.23,1.23,0,0,0-.29-.85A1,1,0,0,0,55.06,228.46Z" style="fill: #304041"/>
    <path d="M60,233l-2.08-5.46h1.56l1,3.11a5.52,5.52,0,0,1,.22,1.12h0a5.21,5.21,0,0,1,.22-1.12l1.05-3.11h1.56L61.54,233Z" style="fill: #304041"/>
    <path d="M66.87,233.06a2.79,2.79,0,0,1-2.06-.73,2.72,2.72,0,0,1-.74-2.06,3,3,0,0,1,.68-2.12,2.45,2.45,0,0,1,1.9-.75,2.4,2.4,0,0,1,1.8.66,2.5,2.5,0,0,1,.64,1.82v.72H65.57a1.44,1.44,0,0,0,.38,1,1.31,1.31,0,0,0,1,.36,4,4,0,0,0,.93-.1,4.89,4.89,0,0,0,.92-.33v1.15A3.34,3.34,0,0,1,68,233,4.72,4.72,0,0,1,66.87,233.06Zm-.21-4.6a.92.92,0,0,0-.74.3,1.34,1.34,0,0,0-.31.85H67.7a1.23,1.23,0,0,0-.29-.85A1,1,0,0,0,66.66,228.46Z" style="fill: #304041"/>
    <path d="M71.8,233H70.31v-7.6H71.8Z" style="fill: #304041"/>
    <path d="M79.3,233H77.8v-4.81l0-.74a6.92,6.92,0,0,1-.53.49l-.82.66-.73-.91,2.3-1.83H79.3Z" style="fill: #304041"/>
    <path d="M55.94,244.06a1.74,1.74,0,0,1-.69,1.47,3,3,0,0,1-1.85.53,4.65,4.65,0,0,1-2-.33v-.8a5.65,5.65,0,0,0,1,.29,4.57,4.57,0,0,0,1,.11,2.08,2.08,0,0,0,1.25-.31,1,1,0,0,0,.42-.88,1.13,1.13,0,0,0-.15-.61,1.36,1.36,0,0,0-.5-.43,6.41,6.41,0,0,0-1.06-.46A3.5,3.5,0,0,1,52,241.8a1.9,1.9,0,0,1-.42-1.28,1.55,1.55,0,0,1,.62-1.31,2.54,2.54,0,0,1,1.64-.49,4.78,4.78,0,0,1,2,.39l-.25.72a4.6,4.6,0,0,0-1.72-.37,1.64,1.64,0,0,0-1,.29.91.91,0,0,0-.37.78,1.23,1.23,0,0,0,.13.61,1.28,1.28,0,0,0,.46.43,5.25,5.25,0,0,0,1,.44,3.87,3.87,0,0,1,1.54.86A1.66,1.66,0,0,1,55.94,244.06Z" style="fill: #304041"/>
    <path d="M59,245.39a2.86,2.86,0,0,0,.42,0,1.44,1.44,0,0,0,.31-.07v.62a1.48,1.48,0,0,1-.38.11,2.71,2.71,0,0,1-.47,0c-1,0-1.55-.55-1.55-1.64v-3.18h-.76v-.39l.76-.34.34-1.14h.47v1.24H59.7v.63H58.14v3.15a1.09,1.09,0,0,0,.23.74A.83.83,0,0,0,59,245.39Z" style="fill: #304041"/>
    <path d="M64.09,246l-.16-.76h0a2.18,2.18,0,0,1-.79.68,2.45,2.45,0,0,1-1,.18,1.83,1.83,0,0,1-1.25-.41,1.49,1.49,0,0,1-.45-1.17c0-1.08.87-1.65,2.6-1.7l.9,0v-.33a1.36,1.36,0,0,0-.27-.93,1.11,1.11,0,0,0-.86-.3,3.62,3.62,0,0,0-1.52.41L61,241a4.77,4.77,0,0,1,.87-.34,3.81,3.81,0,0,1,1-.12,2,2,0,0,1,1.41.43,1.75,1.75,0,0,1,.47,1.36V246Zm-1.83-.57a1.65,1.65,0,0,0,1.19-.41,1.55,1.55,0,0,0,.43-1.17v-.48l-.81,0a3.12,3.12,0,0,0-1.39.3.93.93,0,0,0-.43.83.82.82,0,0,0,.27.67A1.11,1.11,0,0,0,62.26,245.39Z" style="fill: #304041"/>
    <path d="M68.09,245.39a2.77,2.77,0,0,0,.42,0,1.73,1.73,0,0,0,.32-.07v.62a1.72,1.72,0,0,1-.39.11,2.68,2.68,0,0,1-.46,0c-1,0-1.56-.55-1.56-1.64v-3.18h-.76v-.39l.76-.34.35-1.14h.46v1.24h1.56v.63H67.23v3.15a1.09,1.09,0,0,0,.23.74A.83.83,0,0,0,68.09,245.39Z" style="fill: #304041"/>
    <path d="M69.83,239.16a.55.55,0,0,1,.13-.41.52.52,0,0,1,.35-.13.49.49,0,0,1,.33.13.67.67,0,0,1,0,.82.44.44,0,0,1-.33.13.48.48,0,0,1-.35-.13A.56.56,0,0,1,69.83,239.16Zm.88,6.8H69.9v-5.35h.81Z" style="fill: #304041"/>
    <path d="M74.56,246.06a2.29,2.29,0,0,1-1.8-.72,3,3,0,0,1-.63-2,3,3,0,0,1,.64-2.07,2.35,2.35,0,0,1,1.85-.74,3.44,3.44,0,0,1,.77.09,2.36,2.36,0,0,1,.6.19l-.24.69a4.55,4.55,0,0,0-.59-.18,2.44,2.44,0,0,0-.56-.07c-1.09,0-1.63.69-1.63,2.08a2.49,2.49,0,0,0,.39,1.51,1.37,1.37,0,0,0,1.18.53,3.68,3.68,0,0,0,1.38-.29v.72A2.89,2.89,0,0,1,74.56,246.06Z" style="fill: #304041"/>
  </g>
  <g>
    <path d="M142,233v-7.14h1.52v5.89h2.89V233Z" style="fill: #304041"/>
    <path d="M150.05,233.06a2.79,2.79,0,0,1-2.06-.73,2.73,2.73,0,0,1-.75-2.06,3,3,0,0,1,.69-2.12,2.45,2.45,0,0,1,1.9-.75,2.4,2.4,0,0,1,1.8.66,2.5,2.5,0,0,1,.64,1.82v.72h-3.52a1.4,1.4,0,0,0,.38,1,1.3,1.3,0,0,0,1,.36,4.11,4.11,0,0,0,.94-.1,4.57,4.57,0,0,0,.91-.33v1.15a3.26,3.26,0,0,1-.83.29A4.84,4.84,0,0,1,150.05,233.06Zm-.21-4.6a1,1,0,0,0-.75.3,1.39,1.39,0,0,0-.3.85h2.09a1.28,1.28,0,0,0-.29-.85A1,1,0,0,0,149.84,228.46Z" style="fill: #304041"/>
    <path d="M154.78,233l-2.08-5.46h1.56l1.05,3.11a5.52,5.52,0,0,1,.22,1.12h0a5.21,5.21,0,0,1,.22-1.12l1.05-3.11h1.56L156.31,233Z" style="fill: #304041"/>
    <path d="M161.64,233.06a2.8,2.8,0,0,1-2.06-.73,2.76,2.76,0,0,1-.74-2.06,3,3,0,0,1,.69-2.12,2.43,2.43,0,0,1,1.89-.75,2.39,2.39,0,0,1,1.8.66,2.5,2.5,0,0,1,.65,1.82v.72h-3.52a1.44,1.44,0,0,0,.37,1,1.34,1.34,0,0,0,1,.36,4,4,0,0,0,.93-.1,4.65,4.65,0,0,0,.92-.33v1.15a3.41,3.41,0,0,1-.83.29A4.88,4.88,0,0,1,161.64,233.06Zm-.21-4.6a1,1,0,0,0-.74.3,1.4,1.4,0,0,0-.31.85h2.09a1.18,1.18,0,0,0-.29-.85A1,1,0,0,0,161.43,228.46Z" style="fill: #304041"/>
    <path d="M166.57,233h-1.49v-7.6h1.49Z" style="fill: #304041"/>
    <path d="M175.34,233h-5v-1.05l1.79-1.81a15.19,15.19,0,0,0,1-1.13,2.48,2.48,0,0,0,.35-.58,1.55,1.55,0,0,0,.11-.56.8.8,0,0,0-.24-.64.9.9,0,0,0-.63-.21,1.81,1.81,0,0,0-.81.19,4.38,4.38,0,0,0-.81.54l-.82-1a5,5,0,0,1,.87-.63,3.15,3.15,0,0,1,.76-.29,3.71,3.71,0,0,1,.92-.1,2.76,2.76,0,0,1,1.18.24,2,2,0,0,1,.8.69,1.88,1.88,0,0,1,.28,1,2.6,2.6,0,0,1-.17.93,3.92,3.92,0,0,1-.54.89,13.39,13.39,0,0,1-1.28,1.29l-.92.86v.07h3.11Z" style="fill: #304041"/>
    <path d="M133.43,242.32a3.63,3.63,0,0,1-1,2.71,3.81,3.81,0,0,1-2.76.93h-2v-7.14h2.19a3.22,3.22,0,0,1,3.51,3.5Zm-.88,0a2.89,2.89,0,0,0-.7-2.1,2.83,2.83,0,0,0-2.09-.71h-1.2v5.7h1a3.06,3.06,0,0,0,2.23-.73A2.86,2.86,0,0,0,132.55,242.35Z" style="fill: #304041"/>
    <path d="M134.83,239.16a.55.55,0,0,1,.13-.41.54.54,0,0,1,.35-.13.49.49,0,0,1,.33.13.64.64,0,0,1,0,.82.44.44,0,0,1-.33.13.49.49,0,0,1-.35-.13A.56.56,0,0,1,134.83,239.16Zm.88,6.8h-.81v-5.35h.81Z" style="fill: #304041"/>
    <path d="M140.88,244.5a1.34,1.34,0,0,1-.56,1.15,2.61,2.61,0,0,1-1.56.41,3.34,3.34,0,0,1-1.66-.34V245a4.31,4.31,0,0,0,.83.31,3.61,3.61,0,0,0,.85.11,2,2,0,0,0,1-.2.68.68,0,0,0,.35-.62.65.65,0,0,0-.27-.53,4.39,4.39,0,0,0-1.06-.53,5.17,5.17,0,0,1-1.06-.49,1.32,1.32,0,0,1-.47-.47,1.14,1.14,0,0,1-.16-.63,1.2,1.2,0,0,1,.54-1,2.48,2.48,0,0,1,1.46-.38,4.37,4.37,0,0,1,1.69.35l-.29.66a3.94,3.94,0,0,0-1.46-.33,1.66,1.66,0,0,0-.87.18.55.55,0,0,0-.29.5.66.66,0,0,0,.1.37,1.22,1.22,0,0,0,.36.28,6.24,6.24,0,0,0,.94.4,3.38,3.38,0,0,1,1.28.7A1.2,1.2,0,0,1,140.88,244.5Z" style="fill: #304041"/>
    <path d="M144.34,246.06a2.26,2.26,0,0,1-1.8-.72,2.9,2.9,0,0,1-.64-2,3,3,0,0,1,.65-2.07,2.32,2.32,0,0,1,1.84-.74,3.37,3.37,0,0,1,.77.09,2.6,2.6,0,0,1,.61.19l-.25.69a4.55,4.55,0,0,0-.59-.18,2.44,2.44,0,0,0-.56-.07c-1.09,0-1.63.69-1.63,2.08a2.43,2.43,0,0,0,.4,1.51,1.36,1.36,0,0,0,1.18.53,3.67,3.67,0,0,0,1.37-.29v.72A2.87,2.87,0,0,1,144.34,246.06Z" style="fill: #304041"/>
    <path d="M151.58,243.28a2.94,2.94,0,0,1-.66,2,2.33,2.33,0,0,1-1.82.74,2.38,2.38,0,0,1-1.28-.34,2.18,2.18,0,0,1-.86-1,3.43,3.43,0,0,1-.3-1.48,3,3,0,0,1,.65-2,2.36,2.36,0,0,1,1.82-.73,2.25,2.25,0,0,1,1.78.75A2.9,2.9,0,0,1,151.58,243.28Zm-4.08,0a2.55,2.55,0,0,0,.41,1.56,1.62,1.62,0,0,0,2.41,0,2.51,2.51,0,0,0,.42-1.57,2.45,2.45,0,0,0-.42-1.55,1.66,1.66,0,0,0-2.42,0A2.53,2.53,0,0,0,147.5,243.28Z" style="fill: #304041"/>
    <path d="M156.66,246V242.5a1.4,1.4,0,0,0-.3-1,1.23,1.23,0,0,0-.93-.32,1.52,1.52,0,0,0-1.23.46,2.27,2.27,0,0,0-.39,1.49V246H153v-5.35h.66l.13.73h0a1.61,1.61,0,0,1,.7-.61,2.19,2.19,0,0,1,1-.22A2,2,0,0,1,157,241a2,2,0,0,1,.49,1.49V246Z" style="fill: #304041"/>
    <path d="M162.8,246V242.5a1.4,1.4,0,0,0-.3-1,1.23,1.23,0,0,0-.93-.32,1.52,1.52,0,0,0-1.23.46,2.27,2.27,0,0,0-.39,1.49V246h-.82v-5.35h.66l.14.73h0a1.67,1.67,0,0,1,.7-.61,2.22,2.22,0,0,1,1-.22,2,2,0,0,1,1.46.47,2,2,0,0,1,.49,1.49V246Z" style="fill: #304041"/>
    <path d="M167.53,246.06a2.46,2.46,0,0,1-1.87-.72,2.8,2.8,0,0,1-.69-2,3.15,3.15,0,0,1,.64-2.06,2.15,2.15,0,0,1,1.71-.76,2.05,2.05,0,0,1,1.6.66,2.57,2.57,0,0,1,.58,1.75v.51h-3.69a2.13,2.13,0,0,0,.48,1.43,1.64,1.64,0,0,0,1.27.49,4.3,4.3,0,0,0,1.71-.36v.72a4.27,4.27,0,0,1-.81.27A5,5,0,0,1,167.53,246.06Zm-.22-4.87a1.3,1.3,0,0,0-1,.42,2,2,0,0,0-.46,1.16h2.8a1.76,1.76,0,0,0-.34-1.17A1.21,1.21,0,0,0,167.31,241.19Z" style="fill: #304041"/>
    <path d="M173,246.06a2.29,2.29,0,0,1-1.8-.72,3,3,0,0,1-.63-2,3,3,0,0,1,.64-2.07,2.34,2.34,0,0,1,1.85-.74,3.44,3.44,0,0,1,.77.09,2.5,2.5,0,0,1,.6.19l-.25.69a4.39,4.39,0,0,0-.58-.18,2.44,2.44,0,0,0-.56-.07c-1.09,0-1.64.69-1.64,2.08a2.49,2.49,0,0,0,.4,1.51,1.37,1.37,0,0,0,1.18.53,3.59,3.59,0,0,0,1.37-.29v.72A2.82,2.82,0,0,1,173,246.06Z" style="fill: #304041"/>
    <path d="M177.37,245.39a2.86,2.86,0,0,0,.42,0,1.44,1.44,0,0,0,.31-.07v.62a1.48,1.48,0,0,1-.38.11,2.71,2.71,0,0,1-.47,0c-1,0-1.55-.55-1.55-1.64v-3.18h-.76v-.39l.76-.34.34-1.14h.47v1.24h1.56v.63h-1.56v3.15a1.09,1.09,0,0,0,.23.74A.83.83,0,0,0,177.37,245.39Z" style="fill: #304041"/>
    <path d="M181.43,246.06a2.46,2.46,0,0,1-1.87-.72,2.8,2.8,0,0,1-.68-2,3.15,3.15,0,0,1,.63-2.06,2.15,2.15,0,0,1,1.71-.76,2,2,0,0,1,1.6.66,2.57,2.57,0,0,1,.58,1.75v.51h-3.68a2.08,2.08,0,0,0,.47,1.43,1.64,1.64,0,0,0,1.27.49,4.3,4.3,0,0,0,1.71-.36v.72a4.05,4.05,0,0,1-.81.27A4.88,4.88,0,0,1,181.43,246.06Zm-.22-4.87a1.31,1.31,0,0,0-1,.42,1.88,1.88,0,0,0-.45,1.16h2.79a1.76,1.76,0,0,0-.34-1.17A1.21,1.21,0,0,0,181.21,241.19Z" style="fill: #304041"/>
    <path d="M188.43,245.24h-.05a1.88,1.88,0,0,1-1.68.82,2,2,0,0,1-1.63-.72,3.9,3.9,0,0,1,0-4.09,2,2,0,0,1,1.63-.74,2,2,0,0,1,1.67.79h.07l0-.38,0-.38v-2.18h.81V246h-.66Zm-1.62.14a1.48,1.48,0,0,0,1.2-.45,2.28,2.28,0,0,0,.37-1.46v-.17a2.61,2.61,0,0,0-.38-1.62,1.41,1.41,0,0,0-1.2-.49,1.26,1.26,0,0,0-1.1.56,2.77,2.77,0,0,0-.37,1.56,2.67,2.67,0,0,0,.37,1.55A1.27,1.27,0,0,0,186.81,245.38Z" style="fill: #304041"/>
  </g>
  <g>
    <path d="M236.82,233v-7.14h1.51v5.89h2.9V233Z" style="fill: #304041"/>
    <path d="M244.82,233.06a2.79,2.79,0,0,1-2.06-.73,2.72,2.72,0,0,1-.74-2.06,3.07,3.07,0,0,1,.68-2.12,2.45,2.45,0,0,1,1.9-.75,2.4,2.4,0,0,1,1.8.66,2.5,2.5,0,0,1,.65,1.82v.72h-3.52a1.39,1.39,0,0,0,.37,1,1.34,1.34,0,0,0,1,.36,4,4,0,0,0,.93-.1,4.89,4.89,0,0,0,.92-.33v1.15a3.34,3.34,0,0,1-.84.29A4.72,4.72,0,0,1,244.82,233.06Zm-.21-4.6a1,1,0,0,0-.74.3,1.4,1.4,0,0,0-.31.85h2.09a1.23,1.23,0,0,0-.29-.85A1,1,0,0,0,244.61,228.46Z" style="fill: #304041"/>
    <path d="M249.56,233l-2.08-5.46H249l1.06,3.11a5.52,5.52,0,0,1,.22,1.12h0a4.66,4.66,0,0,1,.22-1.12l1.05-3.11h1.56L251.09,233Z" style="fill: #304041"/>
    <path d="M256.42,233.06a2.79,2.79,0,0,1-2.06-.73,2.73,2.73,0,0,1-.75-2.06,3,3,0,0,1,.69-2.12,2.45,2.45,0,0,1,1.9-.75,2.4,2.4,0,0,1,1.8.66,2.5,2.5,0,0,1,.64,1.82v.72h-3.52a1.4,1.4,0,0,0,.38,1,1.31,1.31,0,0,0,1,.36,4,4,0,0,0,.93-.1,4.89,4.89,0,0,0,.92-.33v1.15a3.34,3.34,0,0,1-.84.29A4.78,4.78,0,0,1,256.42,233.06Zm-.21-4.6a1,1,0,0,0-.75.3,1.39,1.39,0,0,0-.3.85h2.09a1.28,1.28,0,0,0-.29-.85A1,1,0,0,0,256.21,228.46Z" style="fill: #304041"/>
    <path d="M261.34,233h-1.49v-7.6h1.49Z" style="fill: #304041"/>
    <path d="M269.84,227.42a1.68,1.68,0,0,1-.41,1.14,2.13,2.13,0,0,1-1.14.64v0a2.26,2.26,0,0,1,1.31.53,1.44,1.44,0,0,1,.45,1.12,1.92,1.92,0,0,1-.75,1.61,3.47,3.47,0,0,1-2.14.57,5.15,5.15,0,0,1-2.06-.39v-1.28a4.75,4.75,0,0,0,.92.34,3.72,3.72,0,0,0,1,.13,1.94,1.94,0,0,0,1.11-.25,1,1,0,0,0,.35-.82.73.73,0,0,0-.41-.71,3,3,0,0,0-1.31-.21h-.54v-1.16h.55a2.67,2.67,0,0,0,1.22-.21.81.81,0,0,0,.38-.75c0-.54-.34-.81-1-.81a2.27,2.27,0,0,0-.72.12,3.76,3.76,0,0,0-.81.4l-.7-1a3.87,3.87,0,0,1,2.33-.7,3,3,0,0,1,1.75.45A1.45,1.45,0,0,1,269.84,227.42Z" style="fill: #304041"/>
    <path d="M231.6,246v-7.14h.83V246Z" style="fill: #304041"/>
    <path d="M237.93,246V242.5a1.4,1.4,0,0,0-.3-1,1.2,1.2,0,0,0-.93-.32,1.52,1.52,0,0,0-1.23.46,2.27,2.27,0,0,0-.39,1.49V246h-.81v-5.35h.66l.13.73h0a1.67,1.67,0,0,1,.7-.61,2.19,2.19,0,0,1,1-.22,2,2,0,0,1,1.45.47,2,2,0,0,1,.49,1.49V246Z" style="fill: #304041"/>
    <path d="M249.83,246v-3.48a1.39,1.39,0,0,0-.28-1,1.06,1.06,0,0,0-.85-.32,1.36,1.36,0,0,0-1.11.44,2,2,0,0,0-.37,1.33v3h-.81v-3.48a1.45,1.45,0,0,0-.27-1,1.07,1.07,0,0,0-.85-.32,1.32,1.32,0,0,0-1.12.46,2.42,2.42,0,0,0-.35,1.49V246H243v-5.35h.66l.13.73h0a1.63,1.63,0,0,1,.64-.61,2.07,2.07,0,0,1,.94-.22,1.61,1.61,0,0,1,1.64.91h0a1.69,1.69,0,0,1,.69-.66,2.08,2.08,0,0,1,1-.25,1.84,1.84,0,0,1,1.36.47,2.09,2.09,0,0,1,.45,1.49V246Z" style="fill: #304041"/>
    <path d="M256.93,243.28a2.94,2.94,0,0,1-.66,2,2.33,2.33,0,0,1-1.82.74,2.38,2.38,0,0,1-1.28-.34,2.18,2.18,0,0,1-.86-1,3.43,3.43,0,0,1-.3-1.48,3,3,0,0,1,.65-2,2.36,2.36,0,0,1,1.82-.73,2.25,2.25,0,0,1,1.78.75A2.9,2.9,0,0,1,256.93,243.28Zm-4.08,0a2.55,2.55,0,0,0,.41,1.56,1.62,1.62,0,0,0,2.41,0,2.51,2.51,0,0,0,.42-1.57,2.45,2.45,0,0,0-.42-1.55,1.66,1.66,0,0,0-2.42,0A2.53,2.53,0,0,0,252.85,243.28Z" style="fill: #304041"/>
    <path d="M260.08,245.39a2.73,2.73,0,0,0,.41,0,1.56,1.56,0,0,0,.32-.07v.62a1.72,1.72,0,0,1-.39.11,2.6,2.6,0,0,1-.46,0c-1,0-1.55-.55-1.55-1.64v-3.18h-.77v-.39l.77-.34.34-1.14h.47v1.24h1.55v.63h-1.55v3.15a1,1,0,0,0,.23.74A.8.8,0,0,0,260.08,245.39Z" style="fill: #304041"/>
    <path d="M261.81,239.16a.55.55,0,0,1,.14-.41.49.49,0,0,1,.34-.13.53.53,0,0,1,.34.13.67.67,0,0,1,0,.82.48.48,0,0,1-.34.13.45.45,0,0,1-.34-.13A.56.56,0,0,1,261.81,239.16Zm.88,6.8h-.81v-5.35h.81Z" style="fill: #304041"/>
    <path d="M269,243.28a2.94,2.94,0,0,1-.66,2,2.33,2.33,0,0,1-1.82.74,2.38,2.38,0,0,1-1.28-.34,2.18,2.18,0,0,1-.86-1,3.43,3.43,0,0,1-.3-1.48,3,3,0,0,1,.65-2,2.36,2.36,0,0,1,1.82-.73,2.25,2.25,0,0,1,1.78.75A2.9,2.9,0,0,1,269,243.28Zm-4.08,0a2.55,2.55,0,0,0,.41,1.56,1.62,1.62,0,0,0,2.41,0,2.51,2.51,0,0,0,.42-1.57,2.45,2.45,0,0,0-.42-1.55,1.66,1.66,0,0,0-2.42,0A2.53,2.53,0,0,0,265,243.28Z" style="fill: #304041"/>
    <path d="M274.11,246V242.5a1.4,1.4,0,0,0-.3-1,1.23,1.23,0,0,0-.93-.32,1.52,1.52,0,0,0-1.23.46,2.27,2.27,0,0,0-.39,1.49V246h-.81v-5.35h.66l.13.73h0a1.61,1.61,0,0,1,.7-.61,2.19,2.19,0,0,1,1-.22,2,2,0,0,1,1.45.47,2,2,0,0,1,.49,1.49V246Z" style="fill: #304041"/>
  </g>
  <g>
    <path d="M331.59,233v-7.14h1.52v5.89H336V233Z" style="fill: #304041"/>
    <path d="M339.59,233.06a2.82,2.82,0,0,1-2.06-.73,2.76,2.76,0,0,1-.74-2.06,3,3,0,0,1,.69-2.12,2.44,2.44,0,0,1,1.89-.75,2.41,2.41,0,0,1,1.81.66,2.5,2.5,0,0,1,.64,1.82v.72H338.3a1.4,1.4,0,0,0,.38,1,1.3,1.3,0,0,0,1,.36,4.11,4.11,0,0,0,.94-.1,4.81,4.81,0,0,0,.91-.33v1.15a3.41,3.41,0,0,1-.83.29A4.88,4.88,0,0,1,339.59,233.06Zm-.21-4.6a1,1,0,0,0-.74.3,1.4,1.4,0,0,0-.31.85h2.09a1.22,1.22,0,0,0-.28-.85A1,1,0,0,0,339.38,228.46Z" style="fill: #304041"/>
    <path d="M344.33,233l-2.08-5.46h1.56l1.05,3.11a5.52,5.52,0,0,1,.22,1.12h0a5.21,5.21,0,0,1,.22-1.12l1.05-3.11h1.56L345.86,233Z" style="fill: #304041"/>
    <path d="M351.19,233.06a2.8,2.8,0,0,1-2.06-.73,2.76,2.76,0,0,1-.74-2.06,3.07,3.07,0,0,1,.68-2.12,2.45,2.45,0,0,1,1.9-.75,2.4,2.4,0,0,1,1.8.66,2.5,2.5,0,0,1,.65,1.82v.72H349.9a1.39,1.39,0,0,0,.37,1,1.34,1.34,0,0,0,1,.36,4,4,0,0,0,.93-.1,4.89,4.89,0,0,0,.92-.33v1.15a3.41,3.41,0,0,1-.83.29A4.88,4.88,0,0,1,351.19,233.06Zm-.21-4.6a1,1,0,0,0-.74.3,1.4,1.4,0,0,0-.31.85H352a1.23,1.23,0,0,0-.29-.85A1,1,0,0,0,351,228.46Z" style="fill: #304041"/>
    <path d="M356.12,233h-1.49v-7.6h1.49Z" style="fill: #304041"/>
    <path d="M365.05,231.48h-.86V233h-1.48v-1.48h-3v-1l3.13-4.61h1.39v4.49h.86Zm-2.34-1.17V229.1c0-.2,0-.5,0-.88s0-.61,0-.67h0a5,5,0,0,1-.44.78l-1.3,2Z" style="fill: #304041"/>
    <path d="M321.57,244.06a1.73,1.73,0,0,1-.68,1.47,3,3,0,0,1-1.85.53,4.65,4.65,0,0,1-2-.33v-.8a5.39,5.39,0,0,0,1,.29,4.51,4.51,0,0,0,1,.11,2.1,2.1,0,0,0,1.25-.31,1,1,0,0,0,.41-.88,1.13,1.13,0,0,0-.14-.61,1.36,1.36,0,0,0-.5-.43,6.41,6.41,0,0,0-1.06-.46,3.5,3.5,0,0,1-1.43-.84,1.9,1.9,0,0,1-.42-1.28,1.55,1.55,0,0,1,.62-1.31,2.54,2.54,0,0,1,1.64-.49,4.78,4.78,0,0,1,1.95.39l-.25.72a4.6,4.6,0,0,0-1.72-.37,1.64,1.64,0,0,0-1,.29.91.91,0,0,0-.37.78,1.23,1.23,0,0,0,.13.61,1.28,1.28,0,0,0,.46.43,5.25,5.25,0,0,0,1,.44,3.87,3.87,0,0,1,1.54.86A1.7,1.7,0,0,1,321.57,244.06Z" style="fill: #304041"/>
    <path d="M322.06,240.61h.87l1.17,3a11.08,11.08,0,0,1,.48,1.51h0c0-.17.13-.45.27-.85s.57-1.64,1.32-3.71h.87l-2.3,6.09A3,3,0,0,1,324,248a1.68,1.68,0,0,1-1.12.37,3,3,0,0,1-.73-.08v-.65a2.77,2.77,0,0,0,.6.06,1.22,1.22,0,0,0,1.19-.94l.3-.76Z" style="fill: #304041"/>
    <path d="M331.61,246V242.5a1.45,1.45,0,0,0-.29-1,1.24,1.24,0,0,0-.94-.32,1.52,1.52,0,0,0-1.23.46,2.27,2.27,0,0,0-.39,1.49V246H328v-5.35h.66l.13.73h0a1.67,1.67,0,0,1,.7-.61,2.19,2.19,0,0,1,1-.22,2,2,0,0,1,1.46.47,2,2,0,0,1,.48,1.49V246Z" style="fill: #304041"/>
    <path d="M336.23,246.06a2.26,2.26,0,0,1-1.8-.72,2.9,2.9,0,0,1-.64-2,3,3,0,0,1,.65-2.07,2.32,2.32,0,0,1,1.84-.74,3.31,3.31,0,0,1,.77.09,2.6,2.6,0,0,1,.61.19l-.25.69a4.12,4.12,0,0,0-.59-.18,2.38,2.38,0,0,0-.56-.07c-1.08,0-1.63.69-1.63,2.08a2.43,2.43,0,0,0,.4,1.51,1.36,1.36,0,0,0,1.18.53,3.67,3.67,0,0,0,1.37-.29v.72A2.87,2.87,0,0,1,336.23,246.06Z" style="fill: #304041"/>
    <path d="M342.51,246V242.5a1.4,1.4,0,0,0-.3-1,1.22,1.22,0,0,0-.93-.32,1.52,1.52,0,0,0-1.23.46,2.32,2.32,0,0,0-.39,1.5V246h-.81v-7.6h.81v2.3a4.41,4.41,0,0,1,0,.69h.05a1.68,1.68,0,0,1,.68-.61,2.34,2.34,0,0,1,1-.22,2.08,2.08,0,0,1,1.47.47,1.94,1.94,0,0,1,.49,1.48V246Z" style="fill: #304041"/>
    <path d="M347.43,240.51a3.1,3.1,0,0,1,.64.06l-.11.75a2.75,2.75,0,0,0-.59-.07,1.44,1.44,0,0,0-1.11.53,1.91,1.91,0,0,0-.46,1.31V246H345v-5.35h.67l.09,1h0a2.26,2.26,0,0,1,.72-.8A1.59,1.59,0,0,1,347.43,240.51Z" style="fill: #304041"/>
    <path d="M353.69,243.28a2.94,2.94,0,0,1-.66,2,2.33,2.33,0,0,1-1.82.74,2.4,2.4,0,0,1-1.28-.34,2.24,2.24,0,0,1-.86-1,3.43,3.43,0,0,1-.3-1.48,2.94,2.94,0,0,1,.66-2,2.32,2.32,0,0,1,1.81-.73,2.27,2.27,0,0,1,1.79.75A2.94,2.94,0,0,1,353.69,243.28Zm-4.08,0a2.55,2.55,0,0,0,.41,1.56,1.44,1.44,0,0,0,1.21.54,1.46,1.46,0,0,0,1.21-.53,2.58,2.58,0,0,0,.41-1.57,2.51,2.51,0,0,0-.41-1.55,1.46,1.46,0,0,0-1.22-.53,1.42,1.42,0,0,0-1.2.52A2.53,2.53,0,0,0,349.61,243.28Z" style="fill: #304041"/>
    <path d="M358.77,246V242.5a1.4,1.4,0,0,0-.3-1,1.22,1.22,0,0,0-.93-.32,1.52,1.52,0,0,0-1.23.46,2.27,2.27,0,0,0-.39,1.49V246h-.81v-5.35h.66l.13.73h0a1.67,1.67,0,0,1,.7-.61,2.19,2.19,0,0,1,1-.22,2,2,0,0,1,1.45.47,2,2,0,0,1,.49,1.49V246Z" style="fill: #304041"/>
    <path d="M361.18,239.16a.55.55,0,0,1,.14-.41.49.49,0,0,1,.34-.13.49.49,0,0,1,.33.13.64.64,0,0,1,0,.82.44.44,0,0,1-.33.13.45.45,0,0,1-.34-.13A.56.56,0,0,1,361.18,239.16Zm.88,6.8h-.81v-5.35h.81Z" style="fill: #304041"/>
    <path d="M367.2,246h-3.88v-.55l2.92-4.17H363.5v-.63h3.63v.63l-2.88,4.09h2.95Z" style="fill: #304041"/>
    <path d="M370.72,246.06a2.47,2.47,0,0,1-1.88-.72,2.84,2.84,0,0,1-.68-2,3.15,3.15,0,0,1,.63-2.06,2.16,2.16,0,0,1,1.72-.76,2,2,0,0,1,1.59.66,2.57,2.57,0,0,1,.58,1.75v.51H369a2.08,2.08,0,0,0,.47,1.43,1.64,1.64,0,0,0,1.27.49,4.3,4.3,0,0,0,1.71-.36v.72a4.05,4.05,0,0,1-.81.27A4.77,4.77,0,0,1,370.72,246.06Zm-.22-4.87a1.32,1.32,0,0,0-1,.42,1.88,1.88,0,0,0-.45,1.16h2.79a1.76,1.76,0,0,0-.34-1.17A1.2,1.2,0,0,0,370.5,241.19Z" style="fill: #304041"/>
    <path d="M377.71,245.24h0a1.88,1.88,0,0,1-1.68.82,2,2,0,0,1-1.63-.72,3.9,3.9,0,0,1,0-4.09,2,2,0,0,1,1.63-.74,2,2,0,0,1,1.67.79h.07l0-.38,0-.38v-2.18h.81V246h-.65Zm-1.62.14a1.48,1.48,0,0,0,1.2-.45,2.28,2.28,0,0,0,.37-1.46v-.17a2.68,2.68,0,0,0-.37-1.62,1.44,1.44,0,0,0-1.21-.49,1.26,1.26,0,0,0-1.1.56,2.77,2.77,0,0,0-.37,1.56,2.67,2.67,0,0,0,.37,1.55A1.27,1.27,0,0,0,376.09,245.38Z" style="fill: #304041"/>
  </g>
  <g>
    <path d="M426.37,233v-7.14h1.51v5.89h2.9V233Z" style="fill: #304041"/>
    <path d="M434.37,233.06a2.79,2.79,0,0,1-2.06-.73,2.72,2.72,0,0,1-.74-2.06,3,3,0,0,1,.68-2.12,2.45,2.45,0,0,1,1.9-.75,2.4,2.4,0,0,1,1.8.66,2.5,2.5,0,0,1,.65,1.82v.72h-3.53a1.44,1.44,0,0,0,.38,1,1.32,1.32,0,0,0,1,.36,4,4,0,0,0,.93-.1,4.89,4.89,0,0,0,.92-.33v1.15a3.34,3.34,0,0,1-.84.29A4.72,4.72,0,0,1,434.37,233.06Zm-.21-4.6a.94.94,0,0,0-.74.3,1.4,1.4,0,0,0-.31.85h2.09a1.23,1.23,0,0,0-.29-.85A1,1,0,0,0,434.16,228.46Z" style="fill: #304041"/>
    <path d="M439.11,233,437,227.5h1.55l1.06,3.11a6.31,6.31,0,0,1,.22,1.12h0a4.66,4.66,0,0,1,.22-1.12l1.05-3.11h1.55L440.63,233Z" style="fill: #304041"/>
    <path d="M446,233.06a2.83,2.83,0,0,1-2.07-.73,2.76,2.76,0,0,1-.74-2.06,3,3,0,0,1,.69-2.12,2.45,2.45,0,0,1,1.9-.75,2.4,2.4,0,0,1,1.8.66,2.5,2.5,0,0,1,.64,1.82v.72h-3.52a1.4,1.4,0,0,0,.38,1,1.3,1.3,0,0,0,1,.36,4.11,4.11,0,0,0,.94-.1,4.57,4.57,0,0,0,.91-.33v1.15a3.26,3.26,0,0,1-.83.29A4.84,4.84,0,0,1,446,233.06Zm-.21-4.6a1,1,0,0,0-.75.3,1.33,1.33,0,0,0-.3.85h2.09a1.28,1.28,0,0,0-.29-.85A1,1,0,0,0,445.76,228.46Z" style="fill: #304041"/>
    <path d="M450.89,233H449.4v-7.6h1.49Z" style="fill: #304041"/>
    <path d="M457.27,228.4a2.29,2.29,0,0,1,1.65.58,2.09,2.09,0,0,1,.61,1.59,2.3,2.3,0,0,1-.74,1.84,3.1,3.1,0,0,1-2.11.65,4.09,4.09,0,0,1-1.92-.39v-1.3a3.66,3.66,0,0,0,.9.33,3.76,3.76,0,0,0,1,.13c.92,0,1.38-.37,1.38-1.13s-.48-1.08-1.43-1.08a4.13,4.13,0,0,0-.57,0c-.21,0-.38.07-.51.11l-.6-.32.27-3.64H459v1.28h-2.55l-.13,1.4.17,0A3.15,3.15,0,0,1,457.27,228.4Z" style="fill: #304041"/>
    <path d="M437,246l-.88-2.27H433.2l-.87,2.27h-.84l2.82-7.17h.7l2.8,7.17Zm-1.14-3-.83-2.21a9.77,9.77,0,0,1-.33-1c-.08.31-.18.66-.31,1l-.84,2.21Z" style="fill: #304041"/>
    <path d="M443.05,240.61v.51l-1,.12a1.85,1.85,0,0,1,.25.45,1.72,1.72,0,0,1,.1.62,1.59,1.59,0,0,1-.53,1.25A2.56,2.56,0,0,1,440,244a.82.82,0,0,0-.51.69.35.35,0,0,0,.18.33,1.31,1.31,0,0,0,.62.1h.94a2.1,2.1,0,0,1,1.34.37,1.26,1.26,0,0,1,.46,1.06,1.52,1.52,0,0,1-.71,1.36,3.82,3.82,0,0,1-2.08.46,2.85,2.85,0,0,1-1.62-.39,1.26,1.26,0,0,1-.57-1.1,1.2,1.2,0,0,1,.32-.84,1.62,1.62,0,0,1,.88-.49.82.82,0,0,1-.35-.29.77.77,0,0,1-.14-.45.8.8,0,0,1,.16-.51,1.64,1.64,0,0,1,.49-.43,1.44,1.44,0,0,1-.67-.58,1.65,1.65,0,0,1-.27-.94A1.74,1.74,0,0,1,439,241a2.15,2.15,0,0,1,1.5-.48,2.48,2.48,0,0,1,.75.1Zm-4.26,6.25a.73.73,0,0,0,.36.66,2.05,2.05,0,0,0,1.05.22,3,3,0,0,0,1.51-.3.93.93,0,0,0,.49-.83.66.66,0,0,0-.26-.6,2.14,2.14,0,0,0-1-.17h-1a1.32,1.32,0,0,0-.86.26A1,1,0,0,0,438.79,246.86Zm.44-4.54a1.08,1.08,0,0,0,.31.85,1.24,1.24,0,0,0,.89.29,1,1,0,0,0,1.18-1.15,1.06,1.06,0,0,0-1.2-1.21,1.22,1.22,0,0,0-.88.31A1.26,1.26,0,0,0,439.23,242.32Z" style="fill: #304041"/>
    <path d="M444.08,239.16a.55.55,0,0,1,.14-.41.51.51,0,0,1,.34-.13.53.53,0,0,1,.34.13.67.67,0,0,1,0,.82.48.48,0,0,1-.34.13.47.47,0,0,1-.34-.13A.56.56,0,0,1,444.08,239.16ZM445,246h-.81v-5.35H445Z" style="fill: #304041"/>
    <path d="M447.49,246h-.81v-7.6h.81Z" style="fill: #304041"/>
    <path d="M451.47,246.06a2.46,2.46,0,0,1-1.87-.72,2.8,2.8,0,0,1-.69-2,3.1,3.1,0,0,1,.64-2.06,2.14,2.14,0,0,1,1.71-.76,2,2,0,0,1,1.59.66,2.57,2.57,0,0,1,.59,1.75v.51h-3.69a2.13,2.13,0,0,0,.48,1.43,1.62,1.62,0,0,0,1.27.49,4.3,4.3,0,0,0,1.71-.36v.72a4.52,4.52,0,0,1-.81.27A5,5,0,0,1,451.47,246.06Zm-.22-4.87a1.33,1.33,0,0,0-1,.42,2,2,0,0,0-.45,1.16h2.8a1.76,1.76,0,0,0-.34-1.17A1.22,1.22,0,0,0,451.25,241.19Z" style="fill: #304041"/>
  </g>
</svg>
