<svg id="Layer_1" data-name="Layer 1" xmlns="http://www.w3.org/2000/svg" viewBox="0 0 511 271">
  <title>stage5de</title>
  <path d="M15,13H496M15,47H496M15,81H496M15,115H496M15,149H496M15,183H496" style="fill: none;stroke: #d9d9d9;stroke-linejoin: round;stroke-width: 0.75px"/>
  <line x1="14.98" y1="217.01" x2="495.98" y2="217.01" style="fill: none;stroke: #d9d9d9;stroke-linejoin: round;stroke-width: 0.75px"/>
  <rect x="38.13" y="167.48" width="50.99" height="49.53" style="fill: #e3e2e3"/>
  <rect x="132.91" y="129.96" width="50.99" height="87.05" style="fill: #e3e2e3"/>
  <rect x="227.68" y="90.05" width="50.99" height="126.96" style="fill: #e3e2e3"/>
  <rect x="322.45" y="51.05" width="50.99" height="165.95" style="fill: #e3e2e3"/>
  <rect x="417.23" y="13.01" width="50.99" height="204" style="fill: #ecdc79"/>
  <g>
    <path d="M47.27,233v-7.14h1.51v5.89h2.9V233Z" style="fill: #304041"/>
    <path d="M55.27,233.06a2.8,2.8,0,0,1-2.06-.73,2.76,2.76,0,0,1-.74-2.06,3.07,3.07,0,0,1,.68-2.12,2.45,2.45,0,0,1,1.9-.75,2.4,2.4,0,0,1,1.8.66,2.48,2.48,0,0,1,.65,1.82v.72H54a1.39,1.39,0,0,0,.37,1,1.34,1.34,0,0,0,1,.36,4.57,4.57,0,0,0,.93-.1,4.65,4.65,0,0,0,.92-.33v1.15a3.41,3.41,0,0,1-.83.29A4.88,4.88,0,0,1,55.27,233.06Zm-.21-4.6a1,1,0,0,0-.74.3,1.4,1.4,0,0,0-.31.85H56.1a1.18,1.18,0,0,0-.29-.85A1,1,0,0,0,55.06,228.46Z" style="fill: #304041"/>
    <path d="M60,233l-2.08-5.46h1.56l1,3.11a5.52,5.52,0,0,1,.22,1.12h0a5.09,5.09,0,0,1,.22-1.12l1.05-3.11h1.56L61.54,233Z" style="fill: #304041"/>
    <path d="M66.87,233.06a2.79,2.79,0,0,1-2.06-.73,2.72,2.72,0,0,1-.74-2.06,3,3,0,0,1,.68-2.12,2.45,2.45,0,0,1,1.9-.75,2.4,2.4,0,0,1,1.8.66,2.48,2.48,0,0,1,.65,1.82v.72H65.57a1.44,1.44,0,0,0,.38,1,1.32,1.32,0,0,0,1,.36,4.57,4.57,0,0,0,.93-.1,4.89,4.89,0,0,0,.92-.33v1.15A3.34,3.34,0,0,1,68,233,4.72,4.72,0,0,1,66.87,233.06Zm-.21-4.6a.94.94,0,0,0-.74.3,1.4,1.4,0,0,0-.31.85H67.7a1.23,1.23,0,0,0-.29-.85A1,1,0,0,0,66.66,228.46Z" style="fill: #304041"/>
    <path d="M71.8,233H70.31v-7.6H71.8Z" style="fill: #304041"/>
    <path d="M79.31,233H77.8v-4.81l0-.74c-.26.25-.43.41-.53.49l-.82.66-.72-.91,2.29-1.83h1.25Z" style="fill: #304041"/>
    <path d="M50.48,244.06a1.76,1.76,0,0,1-.68,1.47,3,3,0,0,1-1.86.53,4.63,4.63,0,0,1-1.95-.33v-.8a5.15,5.15,0,0,0,1,.29,5.05,5.05,0,0,0,1,.11,2.06,2.06,0,0,0,1.25-.31,1,1,0,0,0,.42-.88,1.13,1.13,0,0,0-.15-.61,1.43,1.43,0,0,0-.49-.44,7.82,7.82,0,0,0-1.07-.45,3.45,3.45,0,0,1-1.42-.84,1.92,1.92,0,0,1-.43-1.28,1.58,1.58,0,0,1,.62-1.31,2.56,2.56,0,0,1,1.64-.49,4.83,4.83,0,0,1,2,.39l-.26.72a4.37,4.37,0,0,0-1.72-.37,1.73,1.73,0,0,0-1,.28,1,1,0,0,0-.37.79,1.22,1.22,0,0,0,.14.61,1.21,1.21,0,0,0,.46.43,6.19,6.19,0,0,0,1,.44,3.93,3.93,0,0,1,1.55.86A1.7,1.7,0,0,1,50.48,244.06Z" style="fill: #304041"/>
    <path d="M53.55,245.39a2.6,2.6,0,0,0,.73-.1v.62a1.72,1.72,0,0,1-.39.11,4.09,4.09,0,0,1-.46,0c-1,0-1.55-.55-1.55-1.64v-3.18h-.77v-.39l.77-.34.34-1.14h.47v1.24h1.55v.63H52.69v3.15a1.09,1.09,0,0,0,.23.74A.8.8,0,0,0,53.55,245.39Z" style="fill: #304041"/>
    <path d="M58.64,246l-.16-.76h0a2.31,2.31,0,0,1-.8.68,2.37,2.37,0,0,1-1,.18,1.81,1.81,0,0,1-1.25-.41,1.51,1.51,0,0,1-.45-1.17c0-1.08.86-1.65,2.59-1.7l.91,0v-.33a1.36,1.36,0,0,0-.27-.93,1.12,1.12,0,0,0-.87-.3,3.58,3.58,0,0,0-1.51.41l-.25-.62a3.84,3.84,0,0,1,1.81-.46,2,2,0,0,1,1.42.43,1.75,1.75,0,0,1,.46,1.36V246Zm-1.83-.57A1.65,1.65,0,0,0,58,245a1.51,1.51,0,0,0,.43-1.16v-.48l-.81,0a3.12,3.12,0,0,0-1.39.3.91.91,0,0,0-.43.83.86.86,0,0,0,.26.67A1.14,1.14,0,0,0,56.81,245.39Z" style="fill: #304041"/>
    <path d="M62.64,245.39l.42,0,.31-.07v.62A1.58,1.58,0,0,1,63,246a4.09,4.09,0,0,1-.46,0c-1,0-1.55-.55-1.55-1.64v-3.18H60.2v-.39l.77-.34.34-1.14h.47v1.24h1.55v.63H61.78v3.15a1.09,1.09,0,0,0,.23.74A.8.8,0,0,0,62.64,245.39Z" style="fill: #304041"/>
    <path d="M64.37,239.16a.55.55,0,0,1,.14-.41.47.47,0,0,1,.34-.13.48.48,0,0,1,.34.13.67.67,0,0,1,0,.82.48.48,0,0,1-.34.13.47.47,0,0,1-.34-.13A.56.56,0,0,1,64.37,239.16Zm.88,6.8h-.81v-5.35h.81Z" style="fill: #304041"/>
    <path d="M70.42,244.5a1.33,1.33,0,0,1-.55,1.15,2.62,2.62,0,0,1-1.57.41,3.34,3.34,0,0,1-1.66-.34V245a4.57,4.57,0,0,0,.83.31,3.74,3.74,0,0,0,.85.11,2,2,0,0,0,1-.2.67.67,0,0,0,.34-.62.68.68,0,0,0-.27-.54,4.44,4.44,0,0,0-1.06-.52,6.12,6.12,0,0,1-1.06-.49,1.41,1.41,0,0,1-.47-.47,1.22,1.22,0,0,1-.15-.63,1.21,1.21,0,0,1,.53-1,2.5,2.5,0,0,1,1.46-.38,4.34,4.34,0,0,1,1.69.35l-.29.66a3.85,3.85,0,0,0-1.46-.33,1.71,1.71,0,0,0-.87.18.57.57,0,0,0-.29.5.67.67,0,0,0,.11.37,1,1,0,0,0,.35.28,8.3,8.3,0,0,0,.94.4,3.36,3.36,0,0,1,1.29.7A1.23,1.23,0,0,1,70.42,244.5Z" style="fill: #304041"/>
    <path d="M73.88,246.06a2.29,2.29,0,0,1-1.8-.72,3,3,0,0,1-.64-2,3,3,0,0,1,.65-2.08,2.32,2.32,0,0,1,1.84-.73,4.13,4.13,0,0,1,.78.08,2.62,2.62,0,0,1,.6.2l-.25.69a4.39,4.39,0,0,0-.58-.18,2.52,2.52,0,0,0-.57-.07c-1.08,0-1.63.69-1.63,2.08a2.49,2.49,0,0,0,.4,1.51,1.4,1.4,0,0,0,1.18.53,3.63,3.63,0,0,0,1.37-.29v.72A2.87,2.87,0,0,1,73.88,246.06Z" style="fill: #304041"/>
    <path d="M80.16,246V242.5a1.45,1.45,0,0,0-.29-1,1.24,1.24,0,0,0-.94-.32,1.52,1.52,0,0,0-1.23.46,2.31,2.31,0,0,0-.39,1.5V246H76.5v-7.6h.81v2.3a4.41,4.41,0,0,1,0,.69h0a1.68,1.68,0,0,1,.68-.61,2.21,2.21,0,0,1,1-.22,2,2,0,0,1,1.47.47,1.94,1.94,0,0,1,.5,1.48V246Z" style="fill: #304041"/>
  </g>
  <g>
    <path d="M142,233v-7.14h1.52v5.89h2.89V233Z" style="fill: #304041"/>
    <path d="M150.05,233.06a2.79,2.79,0,0,1-2.06-.73,2.73,2.73,0,0,1-.75-2.06,3,3,0,0,1,.69-2.12,2.45,2.45,0,0,1,1.9-.75,2.4,2.4,0,0,1,1.8.66,2.48,2.48,0,0,1,.64,1.82v.72h-3.52a1.4,1.4,0,0,0,.38,1,1.3,1.3,0,0,0,1,.36,4.75,4.75,0,0,0,.94-.1,4.89,4.89,0,0,0,.92-.33v1.15a3.48,3.48,0,0,1-.84.29A4.84,4.84,0,0,1,150.05,233.06Zm-.21-4.6a1,1,0,0,0-.75.3,1.39,1.39,0,0,0-.3.85h2.09a1.28,1.28,0,0,0-.29-.85A1,1,0,0,0,149.84,228.46Z" style="fill: #304041"/>
    <path d="M154.78,233l-2.08-5.46h1.56l1.05,3.11a4.91,4.91,0,0,1,.22,1.12h0a5.09,5.09,0,0,1,.22-1.12l1.05-3.11h1.56L156.31,233Z" style="fill: #304041"/>
    <path d="M161.64,233.06a2.8,2.8,0,0,1-2.06-.73,2.76,2.76,0,0,1-.74-2.06,3,3,0,0,1,.69-2.12,2.78,2.78,0,0,1,3.7-.09,2.52,2.52,0,0,1,.64,1.82v.72h-3.52a1.4,1.4,0,0,0,.38,1,1.3,1.3,0,0,0,1,.36,4.57,4.57,0,0,0,.93-.1,4.65,4.65,0,0,0,.92-.33v1.15a3.41,3.41,0,0,1-.83.29A4.88,4.88,0,0,1,161.64,233.06Zm-.21-4.6a1,1,0,0,0-.74.3,1.4,1.4,0,0,0-.31.85h2.09a1.22,1.22,0,0,0-.28-.85A1,1,0,0,0,161.43,228.46Z" style="fill: #304041"/>
    <path d="M166.57,233h-1.49v-7.6h1.49Z" style="fill: #304041"/>
    <path d="M175.34,233h-5v-1.05l1.79-1.81a15.19,15.19,0,0,0,1-1.13,2.7,2.7,0,0,0,.35-.58,1.55,1.55,0,0,0,.11-.56.8.8,0,0,0-.24-.64.9.9,0,0,0-.63-.21,1.74,1.74,0,0,0-.8.19,4.12,4.12,0,0,0-.82.54l-.82-1a5.81,5.81,0,0,1,.87-.64,3.83,3.83,0,0,1,.76-.28,3.71,3.71,0,0,1,.92-.1,2.76,2.76,0,0,1,1.18.24,1.93,1.93,0,0,1,.8.69,1.88,1.88,0,0,1,.28,1,2.6,2.6,0,0,1-.17.93,3.67,3.67,0,0,1-.54.88,12.18,12.18,0,0,1-1.28,1.3l-.92.86v.07h3.11Z" style="fill: #304041"/>
    <path d="M141.56,242.22H144v3.47a7.38,7.38,0,0,1-2.51.37,3.29,3.29,0,0,1-2.53-1,3.8,3.8,0,0,1-.9-2.7,4.07,4.07,0,0,1,.45-1.95,3.1,3.1,0,0,1,1.28-1.28,4.24,4.24,0,0,1,2-.44,5.4,5.4,0,0,1,2.13.42l-.32.73a4.86,4.86,0,0,0-1.86-.41,2.67,2.67,0,0,0-2,.78,3,3,0,0,0-.73,2.15,3.08,3.08,0,0,0,.71,2.19,2.71,2.71,0,0,0,2.07.75,6.39,6.39,0,0,0,1.45-.17V243h-1.6Z" style="fill: #304041"/>
    <path d="M147.84,246.06a2.43,2.43,0,0,1-1.87-.73,2.78,2.78,0,0,1-.69-2,3.1,3.1,0,0,1,.64-2.06,2.11,2.11,0,0,1,1.71-.76,2,2,0,0,1,1.59.66,2.56,2.56,0,0,1,.59,1.75v.51h-3.69a2.13,2.13,0,0,0,.48,1.43,1.62,1.62,0,0,0,1.27.49,4.3,4.3,0,0,0,1.71-.36v.72a5.48,5.48,0,0,1-.81.27A5,5,0,0,1,147.84,246.06Zm-.22-4.87a1.33,1.33,0,0,0-1,.42,2,2,0,0,0-.45,1.16h2.8a1.76,1.76,0,0,0-.34-1.17A1.19,1.19,0,0,0,147.62,241.19Z" style="fill: #304041"/>
    <path d="M152.92,245.39a2.6,2.6,0,0,0,.73-.1v.62a1.58,1.58,0,0,1-.39.11,4.09,4.09,0,0,1-.46,0c-1,0-1.55-.55-1.55-1.64v-3.18h-.77v-.39l.77-.34.34-1.14h.47v1.24h1.55v.63h-1.55v3.15a1.09,1.09,0,0,0,.23.74A.8.8,0,0,0,152.92,245.39Z" style="fill: #304041"/>
    <path d="M157.16,240.51a3.1,3.1,0,0,1,.64.06l-.11.75a2.68,2.68,0,0,0-.59-.07,1.41,1.41,0,0,0-1.11.53,2,2,0,0,0-.46,1.31V246h-.81v-5.35h.67l.09,1h0a2.38,2.38,0,0,1,.72-.81A1.69,1.69,0,0,1,157.16,240.51Z" style="fill: #304041"/>
    <path d="M161.06,246.06a2.43,2.43,0,0,1-1.87-.73,2.77,2.77,0,0,1-.68-2,3.15,3.15,0,0,1,.63-2.06,2.12,2.12,0,0,1,1.71-.76,2,2,0,0,1,1.6.66,2.55,2.55,0,0,1,.58,1.75v.51h-3.68a2.08,2.08,0,0,0,.47,1.43,1.64,1.64,0,0,0,1.27.49,4.3,4.3,0,0,0,1.71-.36v.72a5.12,5.12,0,0,1-.81.27A4.88,4.88,0,0,1,161.06,246.06Zm-.22-4.87a1.3,1.3,0,0,0-1,.42,2,2,0,0,0-.46,1.16h2.8a1.76,1.76,0,0,0-.34-1.17A1.18,1.18,0,0,0,160.84,241.19Z" style="fill: #304041"/>
    <path d="M168.08,246V242.5a1.4,1.4,0,0,0-.3-1,1.23,1.23,0,0,0-.93-.32,1.58,1.58,0,0,0-1.24.45,2.32,2.32,0,0,0-.39,1.5V246h-.81v-5.35h.66l.13.73h0a1.67,1.67,0,0,1,.7-.61,2.19,2.19,0,0,1,1-.22,2,2,0,0,1,1.46.47,2,2,0,0,1,.49,1.49V246Z" style="fill: #304041"/>
    <path d="M174.21,246V242.5a1.45,1.45,0,0,0-.29-1,1.24,1.24,0,0,0-.94-.32,1.54,1.54,0,0,0-1.23.45,2.32,2.32,0,0,0-.39,1.5V246h-.81v-5.35h.66l.13.73h0a1.67,1.67,0,0,1,.7-.61,2.19,2.19,0,0,1,1-.22,2,2,0,0,1,1.46.47,2,2,0,0,1,.48,1.49V246Z" style="fill: #304041"/>
    <path d="M178.42,245.39a2.6,2.6,0,0,0,.73-.1v.62a1.72,1.72,0,0,1-.39.11,4.09,4.09,0,0,1-.46,0c-1,0-1.55-.55-1.55-1.64v-3.18H176v-.39l.77-.34.34-1.14h.47v1.24h1.55v.63h-1.55v3.15a1,1,0,0,0,.23.74A.8.8,0,0,0,178.42,245.39Z" style="fill: #304041"/>
  </g>
  <g>
    <path d="M236.82,233v-7.14h1.51v5.89h2.9V233Z" style="fill: #304041"/>
    <path d="M244.82,233.06a2.79,2.79,0,0,1-2.06-.73,2.72,2.72,0,0,1-.74-2.06,3.07,3.07,0,0,1,.68-2.12,2.45,2.45,0,0,1,1.9-.75,2.4,2.4,0,0,1,1.8.66,2.48,2.48,0,0,1,.65,1.82v.72h-3.52a1.39,1.39,0,0,0,.37,1,1.34,1.34,0,0,0,1,.36,4.57,4.57,0,0,0,.93-.1,4.89,4.89,0,0,0,.92-.33v1.15a3.34,3.34,0,0,1-.84.29A4.72,4.72,0,0,1,244.82,233.06Zm-.21-4.6a.94.94,0,0,0-.74.3,1.4,1.4,0,0,0-.31.85h2.09a1.23,1.23,0,0,0-.29-.85A1,1,0,0,0,244.61,228.46Z" style="fill: #304041"/>
    <path d="M249.56,233l-2.08-5.46H249l1.06,3.11a5.52,5.52,0,0,1,.22,1.12h0a4.57,4.57,0,0,1,.22-1.12l1.05-3.11h1.55L251.08,233Z" style="fill: #304041"/>
    <path d="M256.42,233.06a2.79,2.79,0,0,1-2.06-.73,2.73,2.73,0,0,1-.75-2.06,3,3,0,0,1,.69-2.12,2.45,2.45,0,0,1,1.9-.75,2.4,2.4,0,0,1,1.8.66,2.48,2.48,0,0,1,.64,1.82v.72h-3.52a1.4,1.4,0,0,0,.38,1,1.3,1.3,0,0,0,1,.36,4.75,4.75,0,0,0,.94-.1,4.89,4.89,0,0,0,.92-.33v1.15a3.48,3.48,0,0,1-.84.29A4.84,4.84,0,0,1,256.42,233.06Zm-.21-4.6a1,1,0,0,0-.75.3,1.39,1.39,0,0,0-.3.85h2.09a1.28,1.28,0,0,0-.29-.85A1,1,0,0,0,256.21,228.46Z" style="fill: #304041"/>
    <path d="M261.34,233h-1.49v-7.6h1.49Z" style="fill: #304041"/>
    <path d="M269.83,227.42a1.71,1.71,0,0,1-.4,1.14,2.13,2.13,0,0,1-1.14.64v0a2.32,2.32,0,0,1,1.31.52,1.47,1.47,0,0,1,.44,1.13,1.88,1.88,0,0,1-.74,1.6,3.41,3.41,0,0,1-2.14.58,5.15,5.15,0,0,1-2.06-.39v-1.28a4.75,4.75,0,0,0,.92.34,3.72,3.72,0,0,0,1,.13,1.94,1.94,0,0,0,1.11-.25,1,1,0,0,0,.35-.82.73.73,0,0,0-.41-.71,3,3,0,0,0-1.31-.21h-.54v-1.16h.55a2.52,2.52,0,0,0,1.22-.22.78.78,0,0,0,.38-.74q0-.81-1-.81a2.25,2.25,0,0,0-.71.12,3.76,3.76,0,0,0-.81.4l-.7-1a3.87,3.87,0,0,1,2.33-.7,3,3,0,0,1,1.75.45A1.43,1.43,0,0,1,269.83,227.42Z" style="fill: #304041"/>
    <path d="M224,246v-7.14h.83V246Z" style="fill: #304041"/>
    <path d="M230.37,246V242.5a1.4,1.4,0,0,0-.3-1,1.23,1.23,0,0,0-.93-.32,1.54,1.54,0,0,0-1.23.45,2.27,2.27,0,0,0-.39,1.5V246h-.82v-5.35h.66l.14.73h0a1.67,1.67,0,0,1,.7-.61,2.22,2.22,0,0,1,1-.22,2,2,0,0,1,1.46.47,2,2,0,0,1,.49,1.49V246Z" style="fill: #304041"/>
    <path d="M235.56,238.82h2a3.7,3.7,0,0,1,2,.43,1.48,1.48,0,0,1,.64,1.34,1.56,1.56,0,0,1-.36,1,1.7,1.7,0,0,1-1,.53v.05c1.09.19,1.63.76,1.63,1.71a1.82,1.82,0,0,1-.65,1.49,2.73,2.73,0,0,1-1.81.54h-2.49Zm.83,3.06h1.37a2.13,2.13,0,0,0,1.26-.28,1.05,1.05,0,0,0,.39-.93.92.92,0,0,0-.43-.86,2.66,2.66,0,0,0-1.37-.27h-1.22Zm0,.7v2.67h1.49a2.13,2.13,0,0,0,1.3-.33,1.25,1.25,0,0,0,.44-1,1.12,1.12,0,0,0-.45-1,2.44,2.44,0,0,0-1.36-.31Z" style="fill: #304041"/>
    <path d="M244.18,246.06a2.43,2.43,0,0,1-1.87-.73,2.78,2.78,0,0,1-.69-2,3.1,3.1,0,0,1,.64-2.06,2.09,2.09,0,0,1,1.71-.76,2,2,0,0,1,1.59.66,2.56,2.56,0,0,1,.59,1.75v.51h-3.69a2.13,2.13,0,0,0,.48,1.43,1.62,1.62,0,0,0,1.27.49,4.34,4.34,0,0,0,1.71-.36v.72a5.22,5.22,0,0,1-.82.27A4.77,4.77,0,0,1,244.18,246.06Zm-.22-4.87a1.33,1.33,0,0,0-1,.42,2,2,0,0,0-.45,1.16h2.8a1.81,1.81,0,0,0-.34-1.17A1.19,1.19,0,0,0,244,241.19Z" style="fill: #304041"/>
    <path d="M251.9,246l-1-3.14c-.06-.19-.18-.63-.35-1.31h0c-.13.57-.24,1-.34,1.32l-1,3.13h-.94l-1.46-5.35h.85c.35,1.34.61,2.37.79,3.07a13.65,13.65,0,0,1,.31,1.42h0c0-.19.09-.43.17-.72s.15-.53.21-.7l1-3.07H251l1,3.07a11.55,11.55,0,0,1,.37,1.41h0c0-.12.05-.3.1-.54s.4-1.56,1-3.94h.84L252.86,246Z" style="fill: #304041"/>
    <path d="M257.57,246.06a2.42,2.42,0,0,1-1.87-.73,2.78,2.78,0,0,1-.69-2,3.1,3.1,0,0,1,.64-2.06,2.09,2.09,0,0,1,1.71-.76,2,2,0,0,1,1.59.66,2.56,2.56,0,0,1,.59,1.75v.51h-3.69a2.08,2.08,0,0,0,.48,1.43,1.62,1.62,0,0,0,1.27.49,4.38,4.38,0,0,0,1.71-.36v.72a5.22,5.22,0,0,1-.82.27A4.77,4.77,0,0,1,257.57,246.06Zm-.22-4.87a1.33,1.33,0,0,0-1,.42,2,2,0,0,0-.45,1.16h2.8a1.81,1.81,0,0,0-.34-1.17A1.19,1.19,0,0,0,257.35,241.19Z" style="fill: #304041"/>
    <path d="M265.3,240.61v.51l-1,.12a1.57,1.57,0,0,1,.24.45,1.71,1.71,0,0,1,.11.62,1.57,1.57,0,0,1-.54,1.25,2.13,2.13,0,0,1-1.47.47,2.15,2.15,0,0,1-.45,0,.79.79,0,0,0-.52.69.35.35,0,0,0,.18.33,1.49,1.49,0,0,0,.62.1h.95a2.07,2.07,0,0,1,1.33.37,1.27,1.27,0,0,1,.47,1.06,1.55,1.55,0,0,1-.71,1.36,3.84,3.84,0,0,1-2.08.46,2.85,2.85,0,0,1-1.62-.39,1.26,1.26,0,0,1-.57-1.1,1.24,1.24,0,0,1,.31-.85,1.61,1.61,0,0,1,.88-.48.79.79,0,0,1-.34-.29.71.71,0,0,1-.14-.45.85.85,0,0,1,.15-.51,1.69,1.69,0,0,1,.5-.43,1.41,1.41,0,0,1-.68-.58,1.75,1.75,0,0,1-.26-.94,1.73,1.73,0,0,1,.53-1.35,2.14,2.14,0,0,1,1.49-.48,2.59,2.59,0,0,1,.76.1ZM261,246.86a.72.72,0,0,0,.37.66,2,2,0,0,0,1.05.22,3,3,0,0,0,1.51-.3.94.94,0,0,0,.49-.83.65.65,0,0,0-.27-.6,2,2,0,0,0-1-.17h-1a1.3,1.3,0,0,0-.86.26A.94.94,0,0,0,261,246.86Zm.44-4.54a1.09,1.09,0,0,0,.32.85,1.26,1.26,0,0,0,.88.29,1,1,0,0,0,1.19-1.15,1.06,1.06,0,0,0-1.2-1.21,1.17,1.17,0,0,0-.88.31A1.21,1.21,0,0,0,261.47,242.32Z" style="fill: #304041"/>
    <path d="M267.16,240.61v3.47a1.4,1.4,0,0,0,.3,1,1.22,1.22,0,0,0,.93.32,1.52,1.52,0,0,0,1.23-.46,2.32,2.32,0,0,0,.39-1.5v-2.81h.81V246h-.67l-.12-.72h0a1.63,1.63,0,0,1-.69.61,2.37,2.37,0,0,1-1,.21,2.08,2.08,0,0,1-1.47-.47,2,2,0,0,1-.48-1.48v-3.5Z" style="fill: #304041"/>
    <path d="M276.2,246V242.5a1.4,1.4,0,0,0-.3-1,1.23,1.23,0,0,0-.93-.32,1.54,1.54,0,0,0-1.23.45,2.32,2.32,0,0,0-.39,1.5V246h-.82v-5.35h.66l.14.73h0a1.67,1.67,0,0,1,.7-.61,2.22,2.22,0,0,1,1-.22,2,2,0,0,1,1.46.47,2,2,0,0,1,.49,1.49V246Z" style="fill: #304041"/>
    <path d="M283.05,240.61v.51l-1,.12a1.85,1.85,0,0,1,.25.45,1.72,1.72,0,0,1,.1.62,1.59,1.59,0,0,1-.53,1.25A2.56,2.56,0,0,1,280,244a.8.8,0,0,0-.52.69.35.35,0,0,0,.18.33,1.49,1.49,0,0,0,.62.1h.95a2.1,2.1,0,0,1,1.34.37,1.26,1.26,0,0,1,.46,1.06,1.53,1.53,0,0,1-.71,1.36,3.82,3.82,0,0,1-2.08.46,2.85,2.85,0,0,1-1.62-.39,1.26,1.26,0,0,1-.57-1.1,1.25,1.25,0,0,1,.32-.85,1.58,1.58,0,0,1,.87-.48.85.85,0,0,1-.34-.29.77.77,0,0,1-.14-.45.8.8,0,0,1,.16-.51,1.64,1.64,0,0,1,.49-.43,1.46,1.46,0,0,1-.68-.58,1.75,1.75,0,0,1-.26-.94A1.73,1.73,0,0,1,279,241a2.14,2.14,0,0,1,1.49-.48,2.5,2.5,0,0,1,.76.1Zm-4.27,6.25a.74.74,0,0,0,.37.66,2,2,0,0,0,1.05.22,3,3,0,0,0,1.51-.3.94.94,0,0,0,.49-.83.65.65,0,0,0-.27-.6,2,2,0,0,0-1-.17h-1a1.32,1.32,0,0,0-.86.26A1,1,0,0,0,278.78,246.86Zm.44-4.54a1.09,1.09,0,0,0,.32.85,1.29,1.29,0,0,0,.89.29,1,1,0,0,0,1.18-1.15,1.06,1.06,0,0,0-1.2-1.21,1.18,1.18,0,0,0-.88.31A1.25,1.25,0,0,0,279.22,242.32Z" style="fill: #304041"/>
  </g>
  <g>
    <path d="M331.59,233v-7.14h1.51v5.89H336V233Z" style="fill: #304041"/>
    <path d="M339.59,233.06a2.82,2.82,0,0,1-2.06-.73,2.76,2.76,0,0,1-.74-2.06,3,3,0,0,1,.69-2.12,2.44,2.44,0,0,1,1.89-.75,2.41,2.41,0,0,1,1.81.66,2.48,2.48,0,0,1,.64,1.82v.72H338.3a1.4,1.4,0,0,0,.38,1,1.3,1.3,0,0,0,1,.36,4.75,4.75,0,0,0,.94-.1,4.81,4.81,0,0,0,.91-.33v1.15a3.41,3.41,0,0,1-.83.29A4.88,4.88,0,0,1,339.59,233.06Zm-.21-4.6a1,1,0,0,0-.74.3,1.4,1.4,0,0,0-.31.85h2.09a1.22,1.22,0,0,0-.28-.85A1,1,0,0,0,339.38,228.46Z" style="fill: #304041"/>
    <path d="M344.33,233l-2.08-5.46h1.56l1.05,3.11a5.52,5.52,0,0,1,.22,1.12h0a5.09,5.09,0,0,1,.22-1.12l1.05-3.11h1.56L345.86,233Z" style="fill: #304041"/>
    <path d="M351.19,233.06a2.8,2.8,0,0,1-2.06-.73,2.76,2.76,0,0,1-.74-2.06,3.07,3.07,0,0,1,.68-2.12,2.45,2.45,0,0,1,1.9-.75,2.4,2.4,0,0,1,1.8.66,2.48,2.48,0,0,1,.65,1.82v.72H349.9a1.39,1.39,0,0,0,.37,1,1.34,1.34,0,0,0,1,.36,4.57,4.57,0,0,0,.93-.1,4.89,4.89,0,0,0,.92-.33v1.15a3.34,3.34,0,0,1-.84.29A4.72,4.72,0,0,1,351.19,233.06Zm-.21-4.6a1,1,0,0,0-.74.3,1.4,1.4,0,0,0-.31.85H352a1.23,1.23,0,0,0-.29-.85A1,1,0,0,0,351,228.46Z" style="fill: #304041"/>
    <path d="M356.12,233h-1.49v-7.6h1.49Z" style="fill: #304041"/>
    <path d="M365.05,231.48h-.86V233h-1.48v-1.48h-3v-1l3.13-4.61h1.39v4.49h.86Zm-2.34-1.17V229.1c0-.2,0-.5,0-.88s0-.61,0-.67h0a5,5,0,0,1-.44.78l-1.3,2Z" style="fill: #304041"/>
    <path d="M319.52,244.06a1.76,1.76,0,0,1-.68,1.47,3,3,0,0,1-1.86.53,4.6,4.6,0,0,1-2-.33v-.8a5.15,5.15,0,0,0,1,.29,5.05,5.05,0,0,0,1,.11,2.08,2.08,0,0,0,1.25-.31,1,1,0,0,0,.42-.88,1.13,1.13,0,0,0-.15-.61,1.38,1.38,0,0,0-.5-.44,7.09,7.09,0,0,0-1.06-.45,3.45,3.45,0,0,1-1.42-.84,1.87,1.87,0,0,1-.43-1.28,1.58,1.58,0,0,1,.62-1.31,2.54,2.54,0,0,1,1.64-.49,4.86,4.86,0,0,1,2,.39l-.26.72a4.37,4.37,0,0,0-1.72-.37,1.73,1.73,0,0,0-1,.28,1,1,0,0,0-.37.79,1.22,1.22,0,0,0,.14.61,1.21,1.21,0,0,0,.46.43,6.19,6.19,0,0,0,1,.44,3.93,3.93,0,0,1,1.55.86A1.7,1.7,0,0,1,319.52,244.06Z" style="fill: #304041"/>
    <path d="M320,240.61h.87l1.17,3a11.08,11.08,0,0,1,.48,1.51h0c0-.17.13-.45.26-.85s.58-1.64,1.33-3.71H325l-2.3,6.09a3.1,3.1,0,0,1-.8,1.28,1.65,1.65,0,0,1-1.12.38,3.55,3.55,0,0,1-.73-.08v-.65a2.77,2.77,0,0,0,.6.06,1.24,1.24,0,0,0,1.19-.94l.3-.76Z" style="fill: #304041"/>
    <path d="M329.56,246V242.5a1.4,1.4,0,0,0-.3-1,1.23,1.23,0,0,0-.93-.32,1.54,1.54,0,0,0-1.23.45,2.32,2.32,0,0,0-.39,1.5V246h-.81v-5.35h.66l.13.73h0a1.61,1.61,0,0,1,.7-.61,2.19,2.19,0,0,1,1-.22,2,2,0,0,1,1.45.47,2,2,0,0,1,.49,1.49V246Z" style="fill: #304041"/>
    <path d="M334.17,246.06a2.26,2.26,0,0,1-1.79-.72,2.9,2.9,0,0,1-.64-2,3,3,0,0,1,.65-2.08,2.31,2.31,0,0,1,1.84-.73,4.11,4.11,0,0,1,.77.08,2.32,2.32,0,0,1,.6.2l-.24.69a4.55,4.55,0,0,0-.59-.18,2.44,2.44,0,0,0-.56-.07c-1.09,0-1.63.69-1.63,2.08a2.43,2.43,0,0,0,.4,1.51,1.37,1.37,0,0,0,1.17.53,3.68,3.68,0,0,0,1.38-.29v.72A2.89,2.89,0,0,1,334.17,246.06Z" style="fill: #304041"/>
    <path d="M340.46,246V242.5a1.4,1.4,0,0,0-.3-1,1.23,1.23,0,0,0-.93-.32,1.49,1.49,0,0,0-1.23.46,2.31,2.31,0,0,0-.39,1.5V246h-.81v-7.6h.81v2.3a6.12,6.12,0,0,1,0,.69h.05a1.62,1.62,0,0,1,.68-.61,2.18,2.18,0,0,1,1-.22,2.08,2.08,0,0,1,1.47.47,2,2,0,0,1,.49,1.48V246Z" style="fill: #304041"/>
    <path d="M345.38,240.51a3.16,3.16,0,0,1,.64.06l-.12.75a2.6,2.6,0,0,0-.58-.07,1.38,1.38,0,0,0-1.11.53,1.91,1.91,0,0,0-.47,1.31V246h-.81v-5.35h.67l.1,1h0a2.38,2.38,0,0,1,.72-.81A1.69,1.69,0,0,1,345.38,240.51Z" style="fill: #304041"/>
    <path d="M351.64,243.28a2.94,2.94,0,0,1-.66,2,2.34,2.34,0,0,1-1.83.74,2.37,2.37,0,0,1-1.27-.34,2.2,2.2,0,0,1-.86-1,3.38,3.38,0,0,1-.3-1.47,3,3,0,0,1,.65-2,2.31,2.31,0,0,1,1.82-.73,2.25,2.25,0,0,1,1.78.75A3,3,0,0,1,351.64,243.28Zm-4.08,0a2.5,2.5,0,0,0,.41,1.56,1.41,1.41,0,0,0,1.2.54,1.42,1.42,0,0,0,1.21-.54,3.09,3.09,0,0,0,0-3.11,1.45,1.45,0,0,0-1.22-.53,1.42,1.42,0,0,0-1.2.52A2.53,2.53,0,0,0,347.56,243.28Z" style="fill: #304041"/>
    <path d="M356.72,246V242.5a1.4,1.4,0,0,0-.3-1,1.23,1.23,0,0,0-.93-.32,1.54,1.54,0,0,0-1.23.45,2.32,2.32,0,0,0-.39,1.5V246h-.81v-5.35h.66l.13.73h0a1.58,1.58,0,0,1,.69-.61,2.23,2.23,0,0,1,1-.22A2,2,0,0,1,357,241a2,2,0,0,1,.49,1.49V246Z" style="fill: #304041"/>
    <path d="M359.13,239.16a.55.55,0,0,1,.13-.41.51.51,0,0,1,.68,0,.67.67,0,0,1,0,.82.51.51,0,0,1-.68,0A.56.56,0,0,1,359.13,239.16ZM360,246h-.81v-5.35H360Z" style="fill: #304041"/>
    <path d="M365.18,244.5a1.34,1.34,0,0,1-.56,1.15,2.61,2.61,0,0,1-1.56.41,3.32,3.32,0,0,1-1.66-.34V245a4.22,4.22,0,0,0,.82.31,3.76,3.76,0,0,0,.86.11,2,2,0,0,0,1-.2.67.67,0,0,0,.34-.62.68.68,0,0,0-.27-.54,4.52,4.52,0,0,0-1.05-.52A6,6,0,0,1,362,243a1.29,1.29,0,0,1-.46-.47,1.14,1.14,0,0,1-.16-.63,1.21,1.21,0,0,1,.53-1,2.53,2.53,0,0,1,1.46-.38,4.34,4.34,0,0,1,1.69.35l-.29.66a3.85,3.85,0,0,0-1.46-.33,1.64,1.64,0,0,0-.86.18.56.56,0,0,0-.3.5.67.67,0,0,0,.11.37,1.1,1.1,0,0,0,.36.28,7.2,7.2,0,0,0,.93.4,3.36,3.36,0,0,1,1.29.7A1.24,1.24,0,0,1,365.18,244.5Z" style="fill: #304041"/>
    <path d="M366.43,239.16a.55.55,0,0,1,.13-.41.51.51,0,0,1,.68,0,.67.67,0,0,1,0,.82.51.51,0,0,1-.68,0A.56.56,0,0,1,366.43,239.16Zm.87,6.8h-.81v-5.35h.81Z" style="fill: #304041"/>
    <path d="M371.28,246.06a2.43,2.43,0,0,1-1.87-.73,2.77,2.77,0,0,1-.68-2,3.15,3.15,0,0,1,.63-2.06,2.12,2.12,0,0,1,1.71-.76,2.05,2.05,0,0,1,1.6.66,2.55,2.55,0,0,1,.58,1.75v.51h-3.69a2.13,2.13,0,0,0,.48,1.43,1.64,1.64,0,0,0,1.27.49A4.3,4.3,0,0,0,373,245v.72a5.12,5.12,0,0,1-.81.27A5,5,0,0,1,371.28,246.06Zm-.22-4.87a1.3,1.3,0,0,0-1,.42,2,2,0,0,0-.46,1.16h2.8a1.76,1.76,0,0,0-.34-1.17A1.18,1.18,0,0,0,371.06,241.19Z" style="fill: #304041"/>
    <path d="M377.07,240.51a3,3,0,0,1,.64.06l-.11.75a2.6,2.6,0,0,0-.58-.07,1.41,1.41,0,0,0-1.12.53,2,2,0,0,0-.46,1.31V246h-.81v-5.35h.67l.09,1h0a2.38,2.38,0,0,1,.72-.81A1.69,1.69,0,0,1,377.07,240.51Z" style="fill: #304041"/>
    <path d="M380.44,245.39a2.77,2.77,0,0,0,.42,0l.32-.07v.62a1.72,1.72,0,0,1-.39.11,4.3,4.3,0,0,1-.46,0c-1,0-1.56-.55-1.56-1.64v-3.18H378v-.39l.76-.34.35-1.14h.46v1.24h1.56v.63h-1.56v3.15a1.09,1.09,0,0,0,.23.74A.83.83,0,0,0,380.44,245.39Z" style="fill: #304041"/>
  </g>
  <g>
    <path d="M426.37,233v-7.14h1.51v5.89h2.89V233Z" style="fill: #304041"/>
    <path d="M434.37,233.06a2.79,2.79,0,0,1-2.06-.73,2.72,2.72,0,0,1-.74-2.06,3,3,0,0,1,.68-2.12,2.45,2.45,0,0,1,1.9-.75,2.4,2.4,0,0,1,1.8.66,2.48,2.48,0,0,1,.65,1.82v.72h-3.53a1.44,1.44,0,0,0,.38,1,1.32,1.32,0,0,0,1,.36,4.57,4.57,0,0,0,.93-.1,4.89,4.89,0,0,0,.92-.33v1.15a3.34,3.34,0,0,1-.84.29A4.72,4.72,0,0,1,434.37,233.06Zm-.21-4.6a.94.94,0,0,0-.74.3,1.4,1.4,0,0,0-.31.85h2.09a1.23,1.23,0,0,0-.29-.85A1,1,0,0,0,434.16,228.46Z" style="fill: #304041"/>
    <path d="M439.1,233,437,227.5h1.56l1.06,3.11a6.31,6.31,0,0,1,.22,1.12h0a4.57,4.57,0,0,1,.22-1.12l1.05-3.11h1.55L440.63,233Z" style="fill: #304041"/>
    <path d="M446,233.06a2.83,2.83,0,0,1-2.07-.73,2.76,2.76,0,0,1-.74-2.06,3,3,0,0,1,.69-2.12,2.45,2.45,0,0,1,1.9-.75,2.4,2.4,0,0,1,1.8.66,2.48,2.48,0,0,1,.64,1.82v.72h-3.52a1.4,1.4,0,0,0,.38,1,1.3,1.3,0,0,0,1,.36,4.75,4.75,0,0,0,.94-.1,4.81,4.81,0,0,0,.91-.33v1.15a3.26,3.26,0,0,1-.83.29A4.84,4.84,0,0,1,446,233.06Zm-.21-4.6a1,1,0,0,0-.75.3,1.33,1.33,0,0,0-.3.85h2.09a1.28,1.28,0,0,0-.29-.85A1,1,0,0,0,445.76,228.46Z" style="fill: #304041"/>
    <path d="M450.89,233H449.4v-7.6h1.49Z" style="fill: #304041"/>
    <path d="M457.27,228.4a2.29,2.29,0,0,1,1.65.58,2.09,2.09,0,0,1,.61,1.59,2.32,2.32,0,0,1-.74,1.84,3.1,3.1,0,0,1-2.11.65,4.09,4.09,0,0,1-1.92-.39v-1.3a4.12,4.12,0,0,0,.9.33,3.76,3.76,0,0,0,1,.13c.92,0,1.38-.38,1.38-1.13s-.48-1.08-1.43-1.08a4.13,4.13,0,0,0-.57,0c-.21,0-.38.07-.51.11l-.6-.32.27-3.64H459v1.28h-2.55l-.13,1.4.17,0A3.15,3.15,0,0,1,457.27,228.4Z" style="fill: #304041"/>
    <path d="M439.76,246l-.89-2.27H436l-.88,2.27h-.84l2.82-7.17h.7l2.81,7.17Zm-1.15-3-.83-2.21a9.77,9.77,0,0,1-.33-1,7.74,7.74,0,0,1-.31,1l-.84,2.21Z" style="fill: #304041"/>
    <path d="M445.86,240.61v.51l-1,.12a1.57,1.57,0,0,1,.24.45,1.71,1.71,0,0,1,.11.62,1.57,1.57,0,0,1-.54,1.25,2.13,2.13,0,0,1-1.47.47,2.15,2.15,0,0,1-.45,0,.79.79,0,0,0-.52.69.35.35,0,0,0,.18.33,1.49,1.49,0,0,0,.62.1H444a2.07,2.07,0,0,1,1.33.37,1.27,1.27,0,0,1,.47,1.06,1.55,1.55,0,0,1-.71,1.36,3.84,3.84,0,0,1-2.08.46,2.85,2.85,0,0,1-1.62-.39,1.26,1.26,0,0,1-.57-1.1,1.24,1.24,0,0,1,.31-.85,1.61,1.61,0,0,1,.88-.48.79.79,0,0,1-.34-.29.71.71,0,0,1-.14-.45.85.85,0,0,1,.15-.51,1.69,1.69,0,0,1,.5-.43,1.41,1.41,0,0,1-.68-.58,1.75,1.75,0,0,1-.26-.94,1.69,1.69,0,0,1,.53-1.35,2.14,2.14,0,0,1,1.49-.48,2.59,2.59,0,0,1,.76.1Zm-4.27,6.25a.72.72,0,0,0,.37.66,2,2,0,0,0,1.05.22,3,3,0,0,0,1.51-.3.94.94,0,0,0,.49-.83.65.65,0,0,0-.27-.6,2,2,0,0,0-1-.17h-1a1.3,1.3,0,0,0-.86.26A.94.94,0,0,0,441.59,246.86Zm.44-4.54a1.09,1.09,0,0,0,.32.85,1.26,1.26,0,0,0,.88.29,1,1,0,0,0,1.19-1.15,1.06,1.06,0,0,0-1.2-1.21,1.17,1.17,0,0,0-.88.31A1.21,1.21,0,0,0,442,242.32Z" style="fill: #304041"/>
    <path d="M446.89,239.16a.55.55,0,0,1,.13-.41.49.49,0,0,1,.35-.13.44.44,0,0,1,.33.13.64.64,0,0,1,0,.82.44.44,0,0,1-.33.13.49.49,0,0,1-.35-.13A.56.56,0,0,1,446.89,239.16Zm.88,6.8H447v-5.35h.81Z" style="fill: #304041"/>
    <path d="M450.3,246h-.81v-7.6h.81Z" style="fill: #304041"/>
  </g>
</svg>
