<svg id="Layer_1" data-name="Layer 1" xmlns="http://www.w3.org/2000/svg" viewBox="0 0 511 271">
  <title>stage5fr</title>
  <path d="M15,13H496M15,47H496M15,81H496M15,115H496M15,149H496M15,183H496" style="fill: none;stroke: #d9d9d9;stroke-linejoin: round;stroke-width: 0.75px"/>
  <line x1="14.98" y1="217.01" x2="495.98" y2="217.01" style="fill: none;stroke: #d9d9d9;stroke-linejoin: round;stroke-width: 0.75px"/>
  <rect x="38.13" y="167.48" width="50.99" height="49.53" style="fill: #e3e2e3"/>
  <rect x="132.91" y="129.96" width="50.99" height="87.05" style="fill: #e3e2e3"/>
  <rect x="227.68" y="90.05" width="50.99" height="126.96" style="fill: #e3e2e3"/>
  <rect x="322.45" y="51.05" width="50.99" height="165.95" style="fill: #e3e2e3"/>
  <rect x="417.23" y="13.01" width="50.99" height="204" style="fill: #ecdc79"/>
  <g>
    <path d="M49,233H47.09L44,227.56h0q.09,1.42.09,2V233H42.68v-7.14h1.91l3.1,5.35h0c0-.93-.07-1.59-.07-2v-3.38H49Z" style="fill: #304041"/>
    <path d="M50.63,226.09c0-.48.27-.73.81-.73s.81.25.81.73a.7.7,0,0,1-.21.54.82.82,0,0,1-.6.19C50.9,226.82,50.63,226.58,50.63,226.09ZM52.18,233H50.69V227.5h1.49Z" style="fill: #304041"/>
    <path d="M55,233,53,227.5h1.56l1,3.11a5.52,5.52,0,0,1,.22,1.12h0a5.21,5.21,0,0,1,.22-1.12l1.05-3.11h1.56L56.57,233Z" style="fill: #304041"/>
    <path d="M61.9,233.06a2.83,2.83,0,0,1-2.06-.73,2.72,2.72,0,0,1-.74-2.06,3.07,3.07,0,0,1,.68-2.12,2.45,2.45,0,0,1,1.9-.75,2.4,2.4,0,0,1,1.8.66,2.48,2.48,0,0,1,.65,1.82v.72H60.61a1.39,1.39,0,0,0,.37,1,1.34,1.34,0,0,0,1,.36,4,4,0,0,0,.93-.1,4.89,4.89,0,0,0,.92-.33v1.15A3.34,3.34,0,0,1,63,233,4.72,4.72,0,0,1,61.9,233.06Zm-.21-4.6a.94.94,0,0,0-.74.3,1.4,1.4,0,0,0-.31.85h2.09a1.23,1.23,0,0,0-.29-.85A1,1,0,0,0,61.69,228.46Z" style="fill: #304041"/>
    <path d="M68.8,233l-.28-.74h0a2.33,2.33,0,0,1-.78.66,2.5,2.5,0,0,1-1,.18,1.67,1.67,0,0,1-1.24-.45,1.74,1.74,0,0,1-.45-1.28,1.44,1.44,0,0,1,.6-1.28,3.51,3.51,0,0,1,1.84-.46l.94,0v-.24a.74.74,0,0,0-.84-.83,3.78,3.78,0,0,0-1.54.4l-.5-1a4.44,4.44,0,0,1,2.09-.49,2.6,2.6,0,0,1,1.69.48,1.76,1.76,0,0,1,.58,1.45V233Zm-.44-2.53-.57,0a1.87,1.87,0,0,0-1,.23.76.76,0,0,0-.32.66c0,.42.25.63.73.63a1.12,1.12,0,0,0,.82-.3,1,1,0,0,0,.31-.79Z" style="fill: #304041"/>
    <path d="M75.24,233l-.2-.7H75a1.57,1.57,0,0,1-.68.59,2.33,2.33,0,0,1-1,.21,1.86,1.86,0,0,1-1.45-.52,2,2,0,0,1-.49-1.48V227.5h1.49v3.19a1.56,1.56,0,0,0,.21.89.78.78,0,0,0,.67.29,1,1,0,0,0,.9-.42,2.52,2.52,0,0,0,.28-1.38V227.5h1.49V233Z" style="fill: #304041"/>
    <path d="M83.9,233H82.39v-4.81l0-.74a7.14,7.14,0,0,1-.53.49l-.82.66-.72-.91,2.3-1.83H83.9Z" style="fill: #304041"/>
    <path d="M49.38,244.06a1.74,1.74,0,0,1-.69,1.47,3,3,0,0,1-1.85.53,4.57,4.57,0,0,1-2-.33v-.8a5.28,5.28,0,0,0,1,.29,4.57,4.57,0,0,0,1,.11,2.15,2.15,0,0,0,1.25-.31,1,1,0,0,0,.42-.88,1.13,1.13,0,0,0-.15-.61,1.47,1.47,0,0,0-.5-.44,7.09,7.09,0,0,0-1.06-.45,3.45,3.45,0,0,1-1.42-.84,1.85,1.85,0,0,1-.43-1.28,1.58,1.58,0,0,1,.62-1.31,2.54,2.54,0,0,1,1.64-.49,4.86,4.86,0,0,1,2,.39l-.26.72a4.37,4.37,0,0,0-1.72-.37,1.73,1.73,0,0,0-1,.28.94.94,0,0,0-.37.79,1.13,1.13,0,0,0,.14.61,1.21,1.21,0,0,0,.46.43,4.83,4.83,0,0,0,1,.44,4,4,0,0,1,1.55.86A1.7,1.7,0,0,1,49.38,244.06Z" style="fill: #304041"/>
    <path d="M52.44,245.39a2.77,2.77,0,0,0,.42,0l.32-.07v.62a1.72,1.72,0,0,1-.39.11,4.3,4.3,0,0,1-.46,0c-1,0-1.56-.55-1.56-1.64v-3.18H50v-.39l.76-.34.35-1.14h.47v1.24h1.55v.63H51.59v3.15a1.09,1.09,0,0,0,.22.74A.83.83,0,0,0,52.44,245.39Z" style="fill: #304041"/>
    <path d="M57.54,246l-.16-.76h0a2.4,2.4,0,0,1-.8.68,2.43,2.43,0,0,1-1,.18,1.81,1.81,0,0,1-1.25-.41,1.52,1.52,0,0,1-.45-1.17c0-1.08.86-1.65,2.59-1.7l.91,0v-.33a1.36,1.36,0,0,0-.27-.93,1.13,1.13,0,0,0-.87-.3,3.54,3.54,0,0,0-1.51.41l-.25-.62a3.76,3.76,0,0,1,1.81-.46,2,2,0,0,1,1.42.43,1.78,1.78,0,0,1,.46,1.36V246Zm-1.83-.57a1.61,1.61,0,0,0,1.18-.42,1.51,1.51,0,0,0,.44-1.16v-.48l-.81,0a3.17,3.17,0,0,0-1.4.3.92.92,0,0,0-.42.83.83.83,0,0,0,.26.67A1.14,1.14,0,0,0,55.71,245.39Z" style="fill: #304041"/>
    <path d="M61.54,245.39a2.6,2.6,0,0,0,.73-.1v.62a1.72,1.72,0,0,1-.39.11,4.09,4.09,0,0,1-.46,0c-1,0-1.55-.55-1.55-1.64v-3.18H59.1v-.39l.77-.34.34-1.14h.47v1.24h1.55v.63H60.68v3.15a1,1,0,0,0,.23.74A.8.8,0,0,0,61.54,245.39Z" style="fill: #304041"/>
    <path d="M63.27,239.16a.55.55,0,0,1,.14-.41.45.45,0,0,1,.34-.13.53.53,0,0,1,.34.13.67.67,0,0,1,0,.82.48.48,0,0,1-.34.13.45.45,0,0,1-.34-.13A.56.56,0,0,1,63.27,239.16Zm.88,6.8h-.81v-5.35h.81Z" style="fill: #304041"/>
    <path d="M67.77,246.06a2,2,0,0,1-1.62-.73,3.15,3.15,0,0,1-.58-2,3.21,3.21,0,0,1,.59-2.05,2.15,2.15,0,0,1,3.32.09h0l.12-.73h.64v7.75h-.81v-2.29a5.06,5.06,0,0,1,0-.83h-.06A1.91,1.91,0,0,1,67.77,246.06Zm.12-.68a1.47,1.47,0,0,0,1.18-.44,2.34,2.34,0,0,0,.4-1.46v-.18a2.72,2.72,0,0,0-.38-1.62,1.44,1.44,0,0,0-1.21-.49,1.23,1.23,0,0,0-1.09.55,2.8,2.8,0,0,0-.38,1.57,2.65,2.65,0,0,0,.37,1.54A1.28,1.28,0,0,0,67.89,245.38Z" style="fill: #304041"/>
    <path d="M72.76,240.61v3.47a1.4,1.4,0,0,0,.3,1,1.2,1.2,0,0,0,.93.32,1.52,1.52,0,0,0,1.23-.46,2.39,2.39,0,0,0,.38-1.5v-2.81h.81V246h-.66l-.12-.72h0a1.52,1.52,0,0,1-.69.61,2.29,2.29,0,0,1-1,.21,2.06,2.06,0,0,1-1.47-.47,2,2,0,0,1-.48-1.48v-3.5Z" style="fill: #304041"/>
    <path d="M80.39,246.06a2.46,2.46,0,0,1-1.87-.72,2.81,2.81,0,0,1-.68-2,3.15,3.15,0,0,1,.63-2.06,2.15,2.15,0,0,1,1.71-.76,2,2,0,0,1,1.6.66,2.55,2.55,0,0,1,.58,1.75v.51H78.68a2.08,2.08,0,0,0,.47,1.43,1.64,1.64,0,0,0,1.27.49,4.3,4.3,0,0,0,1.71-.36v.72a5.12,5.12,0,0,1-.81.27A4.88,4.88,0,0,1,80.39,246.06Zm-.22-4.87a1.3,1.3,0,0,0-1,.42,2,2,0,0,0-.46,1.16h2.8a1.76,1.76,0,0,0-.34-1.17A1.21,1.21,0,0,0,80.17,241.19Z" style="fill: #304041"/>
  </g>
  <g>
    <path d="M143.78,233h-1.92l-3.11-5.4h0q.09,1.42.09,2V233h-1.35v-7.14h1.91l3.1,5.35h0c0-.93-.07-1.59-.07-2v-3.38h1.36Z" style="fill: #304041"/>
    <path d="M145.4,226.09c0-.48.27-.73.81-.73s.81.25.81.73a.73.73,0,0,1-.2.54.86.86,0,0,1-.61.19C145.67,226.82,145.4,226.58,145.4,226.09ZM147,233h-1.49V227.5H147Z" style="fill: #304041"/>
    <path d="M149.81,233l-2.08-5.46h1.56l1.06,3.11a6.31,6.31,0,0,1,.22,1.12h0a5.11,5.11,0,0,1,.21-1.12l1.05-3.11h1.56L151.34,233Z" style="fill: #304041"/>
    <path d="M156.67,233.06a2.86,2.86,0,0,1-2.06-.73,2.76,2.76,0,0,1-.74-2.06,3,3,0,0,1,.69-2.12,2.44,2.44,0,0,1,1.89-.75,2.41,2.41,0,0,1,1.81.66,2.48,2.48,0,0,1,.64,1.82v.72h-3.52a1.4,1.4,0,0,0,.38,1,1.3,1.3,0,0,0,1,.36,4.11,4.11,0,0,0,.94-.1,4.81,4.81,0,0,0,.91-.33v1.15a3.41,3.41,0,0,1-.83.29A4.88,4.88,0,0,1,156.67,233.06Zm-.21-4.6a1,1,0,0,0-.74.3,1.4,1.4,0,0,0-.31.85h2.09a1.22,1.22,0,0,0-.28-.85A1,1,0,0,0,156.46,228.46Z" style="fill: #304041"/>
    <path d="M163.58,233l-.29-.74h0a2.41,2.41,0,0,1-.77.66,2.56,2.56,0,0,1-1,.18,1.69,1.69,0,0,1-1.24-.45,1.74,1.74,0,0,1-.45-1.28,1.42,1.42,0,0,1,.61-1.28,3.44,3.44,0,0,1,1.83-.46l.95,0v-.24a.74.74,0,0,0-.85-.83,3.78,3.78,0,0,0-1.54.4l-.49-1a4.41,4.41,0,0,1,2.09-.49,2.59,2.59,0,0,1,1.68.48,1.76,1.76,0,0,1,.59,1.45V233Zm-.44-2.53-.58,0a1.83,1.83,0,0,0-1,.23.74.74,0,0,0-.32.66q0,.63.72.63a1.14,1.14,0,0,0,.83-.3,1,1,0,0,0,.31-.79Z" style="fill: #304041"/>
    <path d="M170,233l-.2-.7h-.08a1.57,1.57,0,0,1-.68.59,2.26,2.26,0,0,1-1,.21,1.89,1.89,0,0,1-1.45-.52,2.08,2.08,0,0,1-.49-1.48V227.5h1.49v3.19a1.56,1.56,0,0,0,.21.89.79.79,0,0,0,.67.29,1,1,0,0,0,.9-.42,2.52,2.52,0,0,0,.28-1.38V227.5h1.49V233Z" style="fill: #304041"/>
    <path d="M179.93,233h-5v-1.05l1.79-1.81a15.19,15.19,0,0,0,1-1.13,2.35,2.35,0,0,0,.35-.58,1.36,1.36,0,0,0,.11-.56.83.83,0,0,0-.23-.64.93.93,0,0,0-.64-.21,1.77,1.77,0,0,0-.8.19,4.43,4.43,0,0,0-.82.54l-.82-1a5.34,5.34,0,0,1,.88-.64,3.52,3.52,0,0,1,.75-.28,3.76,3.76,0,0,1,.92-.1,2.73,2.73,0,0,1,1.18.24,1.93,1.93,0,0,1,.8.69,1.8,1.8,0,0,1,.28,1,2.6,2.6,0,0,1-.17.93,3.67,3.67,0,0,1-.54.88,12.18,12.18,0,0,1-1.28,1.3l-.92.86v.07h3.11Z" style="fill: #304041"/>
    <path d="M137.34,242.32a3.63,3.63,0,0,1-1,2.71,3.81,3.81,0,0,1-2.76.93h-2v-7.14h2.19a3.21,3.21,0,0,1,3.51,3.5Zm-.88,0a2.89,2.89,0,0,0-.7-2.1,2.83,2.83,0,0,0-2.09-.71h-1.2v5.7h1a3.06,3.06,0,0,0,2.23-.73A2.86,2.86,0,0,0,136.46,242.35Z" style="fill: #304041"/>
    <path d="M141.07,246.06a2.49,2.49,0,0,1-1.88-.72,2.86,2.86,0,0,1-.68-2,3.1,3.1,0,0,1,.64-2.06,2.12,2.12,0,0,1,1.71-.76,2,2,0,0,1,1.59.66,2.55,2.55,0,0,1,.58,1.75v.51h-3.68a2.08,2.08,0,0,0,.47,1.43,1.66,1.66,0,0,0,1.28.49,4.38,4.38,0,0,0,1.71-.36v.72a5.22,5.22,0,0,1-.82.27A4.77,4.77,0,0,1,141.07,246.06Zm-.22-4.87a1.32,1.32,0,0,0-1,.42,1.88,1.88,0,0,0-.45,1.16h2.8a1.76,1.76,0,0,0-.35-1.17A1.19,1.19,0,0,0,140.85,241.19Zm-.6-1.41c.15-.2.32-.45.5-.73s.32-.54.43-.75h1v.1a9,9,0,0,1-.64.78,7.88,7.88,0,0,1-.74.72h-.54Z" style="fill: #304041"/>
    <path d="M146.56,246.06a2.26,2.26,0,0,1-1.8-.72,2.9,2.9,0,0,1-.64-2,3,3,0,0,1,.65-2.08,2.34,2.34,0,0,1,1.84-.73,4,4,0,0,1,.77.08,3.1,3.1,0,0,1,.61.2l-.25.69a4.55,4.55,0,0,0-.59-.18,2.44,2.44,0,0,0-.56-.07c-1.09,0-1.63.69-1.63,2.08a2.43,2.43,0,0,0,.4,1.51,1.39,1.39,0,0,0,1.18.53,3.67,3.67,0,0,0,1.37-.29v.72A2.87,2.87,0,0,1,146.56,246.06Z" style="fill: #304041"/>
    <path d="M153.8,243.28a2.94,2.94,0,0,1-.66,2,2.33,2.33,0,0,1-1.82.74,2.38,2.38,0,0,1-1.28-.34,2.2,2.2,0,0,1-.86-1,3.38,3.38,0,0,1-.3-1.47,3,3,0,0,1,.65-2,2.32,2.32,0,0,1,1.82-.73,2.25,2.25,0,0,1,1.78.75A2.9,2.9,0,0,1,153.8,243.28Zm-4.08,0a2.57,2.57,0,0,0,.41,1.56,1.42,1.42,0,0,0,1.21.54,1.41,1.41,0,0,0,1.2-.54,3.09,3.09,0,0,0,0-3.11,1.66,1.66,0,0,0-2.42,0A2.53,2.53,0,0,0,149.72,243.28Z" style="fill: #304041"/>
    <path d="M158.88,246V242.5a1.4,1.4,0,0,0-.3-1,1.23,1.23,0,0,0-.93-.32,1.54,1.54,0,0,0-1.23.45,2.32,2.32,0,0,0-.39,1.5V246h-.81v-5.35h.66l.13.73h0a1.61,1.61,0,0,1,.7-.61,2.19,2.19,0,0,1,1-.22,2,2,0,0,1,1.45.47,2,2,0,0,1,.49,1.49V246Z" style="fill: #304041"/>
    <path d="M165,246V242.5a1.4,1.4,0,0,0-.3-1,1.23,1.23,0,0,0-.93-.32,1.54,1.54,0,0,0-1.23.45,2.32,2.32,0,0,0-.39,1.5V246h-.82v-5.35H162l.14.73h0a1.58,1.58,0,0,1,.69-.61,2.22,2.22,0,0,1,1-.22,2,2,0,0,1,1.46.47,2,2,0,0,1,.49,1.49V246Z" style="fill: #304041"/>
    <path d="M169.75,246.06a2.46,2.46,0,0,1-1.87-.72,2.82,2.82,0,0,1-.69-2,3.15,3.15,0,0,1,.64-2.06,2.15,2.15,0,0,1,1.71-.76,2.05,2.05,0,0,1,1.6.66,2.55,2.55,0,0,1,.58,1.75v.51H168a2.13,2.13,0,0,0,.48,1.43,1.64,1.64,0,0,0,1.27.49,4.3,4.3,0,0,0,1.71-.36v.72a5.12,5.12,0,0,1-.81.27A5,5,0,0,1,169.75,246.06Zm-.22-4.87a1.3,1.3,0,0,0-1,.42,2,2,0,0,0-.46,1.16h2.8a1.76,1.76,0,0,0-.34-1.17A1.21,1.21,0,0,0,169.53,241.19Z" style="fill: #304041"/>
    <path d="M175.24,246.06a2.29,2.29,0,0,1-1.8-.72,3,3,0,0,1-.63-2,3,3,0,0,1,.64-2.08,2.37,2.37,0,0,1,1.85-.73,4.11,4.11,0,0,1,.77.08,3,3,0,0,1,.6.2l-.25.69a4.39,4.39,0,0,0-.58-.18,2.44,2.44,0,0,0-.56-.07c-1.09,0-1.64.69-1.64,2.08a2.49,2.49,0,0,0,.4,1.51,1.4,1.4,0,0,0,1.18.53,3.59,3.59,0,0,0,1.37-.29v.72A2.82,2.82,0,0,1,175.24,246.06Z" style="fill: #304041"/>
    <path d="M179.59,245.39a2.86,2.86,0,0,0,.42,0l.31-.07v.62a1.48,1.48,0,0,1-.38.11,4.3,4.3,0,0,1-.46,0c-1,0-1.56-.55-1.56-1.64v-3.18h-.76v-.39l.76-.34.34-1.14h.47v1.24h1.56v.63h-1.56v3.15a1.09,1.09,0,0,0,.23.74A.83.83,0,0,0,179.59,245.39Z" style="fill: #304041"/>
    <path d="M183.65,246.06a2.46,2.46,0,0,1-1.87-.72,2.81,2.81,0,0,1-.68-2,3.15,3.15,0,0,1,.63-2.06,2.15,2.15,0,0,1,1.71-.76,2,2,0,0,1,1.6.66,2.55,2.55,0,0,1,.58,1.75v.51h-3.68a2.08,2.08,0,0,0,.47,1.43,1.64,1.64,0,0,0,1.27.49,4.3,4.3,0,0,0,1.71-.36v.72a4.81,4.81,0,0,1-.81.27A4.88,4.88,0,0,1,183.65,246.06Zm-.21-4.87a1.32,1.32,0,0,0-1,.42,1.88,1.88,0,0,0-.45,1.16h2.79a1.76,1.76,0,0,0-.34-1.17A1.2,1.2,0,0,0,183.44,241.19Zm-.61-1.41c.16-.2.33-.45.51-.73s.32-.54.43-.75h1v.1a6.36,6.36,0,0,1-.64.78,8,8,0,0,1-.73.72h-.55Z" style="fill: #304041"/>
  </g>
  <g>
    <path d="M238.56,233h-1.93l-3.1-5.4h-.05c.07.95.1,1.63.1,2V233h-1.36v-7.14h1.91l3.1,5.35h0c-.05-.93-.08-1.59-.08-2v-3.38h1.37Z" style="fill: #304041"/>
    <path d="M240.17,226.09c0-.48.27-.73.81-.73s.81.25.81.73a.69.69,0,0,1-.2.54.84.84,0,0,1-.61.19C240.44,226.82,240.17,226.58,240.17,226.09Zm1.56,6.87h-1.49V227.5h1.49Z" style="fill: #304041"/>
    <path d="M244.59,233l-2.08-5.46h1.55l1.06,3.11a5.52,5.52,0,0,1,.22,1.12h0a5.21,5.21,0,0,1,.22-1.12l1-3.11h1.56L246.12,233Z" style="fill: #304041"/>
    <path d="M251.45,233.06a2.83,2.83,0,0,1-2.06-.73,2.73,2.73,0,0,1-.75-2.06,3,3,0,0,1,.69-2.12,2.45,2.45,0,0,1,1.9-.75,2.4,2.4,0,0,1,1.8.66,2.48,2.48,0,0,1,.64,1.82v.72h-3.52a1.44,1.44,0,0,0,.38,1,1.31,1.31,0,0,0,1,.36,4,4,0,0,0,.93-.1,4.89,4.89,0,0,0,.92-.33v1.15a3.34,3.34,0,0,1-.84.29A4.78,4.78,0,0,1,251.45,233.06Zm-.21-4.6a.92.92,0,0,0-.74.3,1.34,1.34,0,0,0-.31.85h2.09a1.23,1.23,0,0,0-.29-.85A1,1,0,0,0,251.24,228.46Z" style="fill: #304041"/>
    <path d="M258.35,233l-.29-.74h0a2.31,2.31,0,0,1-.77.66,2.52,2.52,0,0,1-1,.18,1.66,1.66,0,0,1-1.23-.45,1.7,1.7,0,0,1-.46-1.28,1.44,1.44,0,0,1,.61-1.28,3.51,3.51,0,0,1,1.84-.46l.94,0v-.24a.74.74,0,0,0-.85-.83,3.82,3.82,0,0,0-1.54.4l-.49-1a4.44,4.44,0,0,1,2.09-.49,2.62,2.62,0,0,1,1.69.48,1.76,1.76,0,0,1,.58,1.45V233Zm-.44-2.53-.57,0a1.84,1.84,0,0,0-1,.23.76.76,0,0,0-.32.66q0,.63.72.63a1.13,1.13,0,0,0,.83-.3,1,1,0,0,0,.31-.79Z" style="fill: #304041"/>
    <path d="M264.79,233l-.2-.7h-.08a1.54,1.54,0,0,1-.67.59,2.34,2.34,0,0,1-1,.21,1.89,1.89,0,0,1-1.45-.52,2.08,2.08,0,0,1-.48-1.48V227.5h1.49v3.19a1.56,1.56,0,0,0,.21.89.76.76,0,0,0,.66.29,1,1,0,0,0,.91-.42,2.61,2.61,0,0,0,.28-1.38V227.5h1.49V233Z" style="fill: #304041"/>
    <path d="M274.43,227.42a1.72,1.72,0,0,1-.41,1.14,2.13,2.13,0,0,1-1.14.64v0a2.29,2.29,0,0,1,1.31.52,1.48,1.48,0,0,1,.45,1.13,1.89,1.89,0,0,1-.75,1.6,3.4,3.4,0,0,1-2.13.58,5.16,5.16,0,0,1-2.07-.39v-1.28a5,5,0,0,0,.92.34,3.72,3.72,0,0,0,1,.13,1.94,1.94,0,0,0,1.11-.25.93.93,0,0,0,.35-.82.73.73,0,0,0-.41-.71,3,3,0,0,0-1.3-.21h-.55v-1.16h.56a2.5,2.5,0,0,0,1.21-.22.78.78,0,0,0,.38-.74c0-.54-.34-.81-1-.81a2.27,2.27,0,0,0-.72.12,3.76,3.76,0,0,0-.81.4l-.7-1a3.89,3.89,0,0,1,2.33-.7,3,3,0,0,1,1.75.45A1.45,1.45,0,0,1,274.43,227.42Z" style="fill: #304041"/>
    <path d="M222.78,246h-4v-7.14h4v.74h-3.15v2.3h3v.73h-3v2.63h3.15Z" style="fill: #304041"/>
    <path d="M227.91,246V242.5a1.4,1.4,0,0,0-.3-1,1.23,1.23,0,0,0-.93-.32,1.58,1.58,0,0,0-1.24.45,2.32,2.32,0,0,0-.39,1.5V246h-.81v-5.35h.66l.13.73h0a1.67,1.67,0,0,1,.7-.61,2.19,2.19,0,0,1,1-.22,2,2,0,0,1,1.46.47,2,2,0,0,1,.49,1.49V246Z" style="fill: #304041"/>
    <path d="M236.26,246l-2.42-6.33h0c0,.5.07,1.1.07,1.79V246h-.77v-7.14h1.25l2.26,5.89h0l2.28-5.89h1.24V246h-.83v-4.6c0-.53,0-1.1.07-1.72h0L236.93,246Z" style="fill: #304041"/>
    <path d="M246.63,243.28a2.94,2.94,0,0,1-.66,2,2.33,2.33,0,0,1-1.82.74,2.38,2.38,0,0,1-1.28-.34,2.2,2.2,0,0,1-.86-1,3.38,3.38,0,0,1-.3-1.47,3,3,0,0,1,.65-2,2.32,2.32,0,0,1,1.82-.73,2.25,2.25,0,0,1,1.78.75A2.9,2.9,0,0,1,246.63,243.28Zm-4.08,0a2.57,2.57,0,0,0,.41,1.56,1.42,1.42,0,0,0,1.21.54,1.41,1.41,0,0,0,1.2-.54,3.09,3.09,0,0,0,0-3.11,1.66,1.66,0,0,0-2.42,0A2.53,2.53,0,0,0,242.55,243.28Z" style="fill: #304041"/>
    <path d="M248.81,240.61v3.47a1.4,1.4,0,0,0,.3,1,1.23,1.23,0,0,0,.93.32,1.52,1.52,0,0,0,1.23-.46,2.32,2.32,0,0,0,.39-1.5v-2.81h.81V246h-.67l-.12-.72h0a1.63,1.63,0,0,1-.69.61,2.37,2.37,0,0,1-1,.21,2,2,0,0,1-1.46-.47,1.93,1.93,0,0,1-.49-1.48v-3.5Z" style="fill: #304041"/>
    <path d="M255.36,246l-2-5.35h.86l1.16,3.17c.26.74.41,1.23.46,1.45h0a7.81,7.81,0,0,1,.34-1.07c.18-.55.61-1.73,1.28-3.55h.87l-2,5.35Z" style="fill: #304041"/>
    <path d="M261.46,246.06a2.47,2.47,0,0,1-1.88-.72,2.86,2.86,0,0,1-.68-2,3.15,3.15,0,0,1,.63-2.06,2.16,2.16,0,0,1,1.72-.76,2,2,0,0,1,1.59.66,2.55,2.55,0,0,1,.58,1.75v.51h-3.68a2.08,2.08,0,0,0,.47,1.43,1.64,1.64,0,0,0,1.27.49,4.3,4.3,0,0,0,1.71-.36v.72a3.79,3.79,0,0,1-1.73.35Zm-.22-4.87a1.32,1.32,0,0,0-1,.42,1.88,1.88,0,0,0-.45,1.16h2.79a1.76,1.76,0,0,0-.34-1.17A1.2,1.2,0,0,0,261.24,241.19Z" style="fill: #304041"/>
    <path d="M271.63,246v-3.48a1.39,1.39,0,0,0-.28-1,1.06,1.06,0,0,0-.85-.32,1.36,1.36,0,0,0-1.11.43A2,2,0,0,0,269,243v3h-.81v-3.48a1.45,1.45,0,0,0-.27-1,1.07,1.07,0,0,0-.85-.32,1.32,1.32,0,0,0-1.12.46,2.42,2.42,0,0,0-.35,1.49V246h-.81v-5.35h.65l.14.73h0a1.57,1.57,0,0,1,.64-.61,2,2,0,0,1,.94-.22,1.59,1.59,0,0,1,1.64.91h0a1.69,1.69,0,0,1,.69-.66,2.08,2.08,0,0,1,1-.25A1.8,1.8,0,0,1,272,241a2,2,0,0,1,.46,1.49V246Z" style="fill: #304041"/>
    <path d="M276.37,246.06a2.45,2.45,0,0,1-1.87-.72,2.82,2.82,0,0,1-.69-2,3.1,3.1,0,0,1,.64-2.06,2.12,2.12,0,0,1,1.71-.76,2,2,0,0,1,1.59.66,2.56,2.56,0,0,1,.59,1.75v.51h-3.69a2.13,2.13,0,0,0,.47,1.43,1.66,1.66,0,0,0,1.28.49,4.38,4.38,0,0,0,1.71-.36v.72a5.22,5.22,0,0,1-.82.27A4.77,4.77,0,0,1,276.37,246.06Zm-.22-4.87a1.33,1.33,0,0,0-1,.42,1.88,1.88,0,0,0-.45,1.16h2.8a1.76,1.76,0,0,0-.35-1.17A1.19,1.19,0,0,0,276.15,241.19Z" style="fill: #304041"/>
    <path d="M283.38,246V242.5a1.4,1.4,0,0,0-.3-1,1.23,1.23,0,0,0-.93-.32,1.54,1.54,0,0,0-1.23.45,2.32,2.32,0,0,0-.39,1.5V246h-.81v-5.35h.66l.13.73h0a1.61,1.61,0,0,1,.7-.61,2.19,2.19,0,0,1,1-.22,2,2,0,0,1,1.45.47,2,2,0,0,1,.49,1.49V246Z" style="fill: #304041"/>
    <path d="M287.58,245.39a2.86,2.86,0,0,0,.42,0l.32-.07v.62a1.72,1.72,0,0,1-.39.11,4.3,4.3,0,0,1-.46,0c-1,0-1.56-.55-1.56-1.64v-3.18h-.76v-.39l.76-.34.35-1.14h.46v1.24h1.56v.63h-1.56v3.15a1.09,1.09,0,0,0,.23.74A.83.83,0,0,0,287.58,245.39Z" style="fill: #304041"/>
  </g>
  <g>
    <path d="M333.33,233h-1.92l-3.11-5.4h0q.09,1.42.09,2V233H327v-7.14h1.91l3.1,5.35h0c-.05-.93-.07-1.59-.07-2v-3.38h1.36Z" style="fill: #304041"/>
    <path d="M335,226.09c0-.48.27-.73.81-.73s.81.25.81.73a.73.73,0,0,1-.2.54.86.86,0,0,1-.61.19C335.22,226.82,335,226.58,335,226.09ZM336.5,233H335V227.5h1.49Z" style="fill: #304041"/>
    <path d="M339.36,233l-2.08-5.46h1.56l1.05,3.11a5.52,5.52,0,0,1,.22,1.12h0a5.21,5.21,0,0,1,.22-1.12l1.05-3.11H343L340.89,233Z" style="fill: #304041"/>
    <path d="M346.22,233.06a2.85,2.85,0,0,1-2.06-.73,2.76,2.76,0,0,1-.74-2.06,3.07,3.07,0,0,1,.68-2.12,2.45,2.45,0,0,1,1.9-.75,2.4,2.4,0,0,1,1.8.66,2.48,2.48,0,0,1,.65,1.82v.72h-3.52a1.39,1.39,0,0,0,.37,1,1.34,1.34,0,0,0,1,.36,4,4,0,0,0,.93-.1,4.65,4.65,0,0,0,.92-.33v1.15a3.41,3.41,0,0,1-.83.29A4.88,4.88,0,0,1,346.22,233.06Zm-.21-4.6a1,1,0,0,0-.74.3,1.4,1.4,0,0,0-.31.85h2.09a1.18,1.18,0,0,0-.29-.85A1,1,0,0,0,346,228.46Z" style="fill: #304041"/>
    <path d="M353.13,233l-.29-.74h0a2.33,2.33,0,0,1-.78.66,2.5,2.5,0,0,1-1,.18,1.67,1.67,0,0,1-1.24-.45,1.74,1.74,0,0,1-.45-1.28,1.42,1.42,0,0,1,.61-1.28,3.44,3.44,0,0,1,1.83-.46l.95,0v-.24a.75.75,0,0,0-.85-.83,3.78,3.78,0,0,0-1.54.4l-.49-1a4.38,4.38,0,0,1,2.09-.49,2.59,2.59,0,0,1,1.68.48,1.76,1.76,0,0,1,.59,1.45V233Zm-.44-2.53-.58,0a1.89,1.89,0,0,0-1,.23.76.76,0,0,0-.31.66q0,.63.72.63a1.16,1.16,0,0,0,.83-.3,1.07,1.07,0,0,0,.31-.79Z" style="fill: #304041"/>
    <path d="M359.57,233l-.2-.7h-.08a1.57,1.57,0,0,1-.68.59,2.29,2.29,0,0,1-1,.21,1.88,1.88,0,0,1-1.45-.52,2,2,0,0,1-.49-1.48V227.5h1.49v3.19a1.56,1.56,0,0,0,.21.89.78.78,0,0,0,.67.29,1,1,0,0,0,.9-.42,2.52,2.52,0,0,0,.28-1.38V227.5h1.49V233Z" style="fill: #304041"/>
    <path d="M369.64,231.48h-.86V233h-1.47v-1.48h-3.05v-1l3.13-4.61h1.39v4.49h.86Zm-2.33-1.17V229.1c0-.2,0-.5,0-.88s0-.61,0-.67h0a5.93,5.93,0,0,1-.43.78l-1.31,2Z" style="fill: #304041"/>
    <path d="M324.59,244.06a1.76,1.76,0,0,1-.68,1.47,3,3,0,0,1-1.86.53,4.63,4.63,0,0,1-1.95-.33v-.8a5.15,5.15,0,0,0,1,.29,4.43,4.43,0,0,0,1,.11,2.13,2.13,0,0,0,1.25-.31,1,1,0,0,0,.42-.88,1.13,1.13,0,0,0-.15-.61,1.43,1.43,0,0,0-.49-.44,7.82,7.82,0,0,0-1.07-.45,3.45,3.45,0,0,1-1.42-.84,1.9,1.9,0,0,1-.43-1.28,1.58,1.58,0,0,1,.62-1.31,2.56,2.56,0,0,1,1.64-.49,4.83,4.83,0,0,1,2,.39l-.26.72a4.37,4.37,0,0,0-1.72-.37,1.73,1.73,0,0,0-1,.28,1,1,0,0,0-.37.79,1.22,1.22,0,0,0,.14.61,1.21,1.21,0,0,0,.46.43,5.4,5.4,0,0,0,1,.44,3.93,3.93,0,0,1,1.55.86A1.7,1.7,0,0,1,324.59,244.06Z" style="fill: #304041"/>
    <path d="M325.08,240.61H326l1.17,3a11.08,11.08,0,0,1,.48,1.51h0c0-.17.13-.45.26-.85s.58-1.64,1.33-3.71h.87l-2.3,6.09A2.94,2.94,0,0,1,327,248a1.65,1.65,0,0,1-1.12.38,3.55,3.55,0,0,1-.73-.08v-.65a2.77,2.77,0,0,0,.6.06,1.23,1.23,0,0,0,1.19-.94l.3-.76Z" style="fill: #304041"/>
    <path d="M334.63,246V242.5a1.4,1.4,0,0,0-.3-1,1.22,1.22,0,0,0-.93-.32,1.54,1.54,0,0,0-1.23.45,2.32,2.32,0,0,0-.39,1.5V246H331v-5.35h.66l.13.73h0a1.67,1.67,0,0,1,.7-.61,2.19,2.19,0,0,1,1-.22A2,2,0,0,1,335,241a2,2,0,0,1,.49,1.49V246Z" style="fill: #304041"/>
    <path d="M339.25,246.06a2.26,2.26,0,0,1-1.8-.72,2.9,2.9,0,0,1-.64-2,3,3,0,0,1,.65-2.08,2.34,2.34,0,0,1,1.84-.73,4,4,0,0,1,.77.08,3.1,3.1,0,0,1,.61.2l-.25.69a4.55,4.55,0,0,0-.59-.18,2.44,2.44,0,0,0-.56-.07c-1.09,0-1.63.69-1.63,2.08a2.43,2.43,0,0,0,.4,1.51,1.39,1.39,0,0,0,1.18.53,3.67,3.67,0,0,0,1.37-.29v.72A2.87,2.87,0,0,1,339.25,246.06Z" style="fill: #304041"/>
    <path d="M345.53,246V242.5a1.4,1.4,0,0,0-.3-1,1.23,1.23,0,0,0-.93-.32,1.5,1.5,0,0,0-1.23.46,2.32,2.32,0,0,0-.39,1.5V246h-.81v-7.6h.81v2.3a4.41,4.41,0,0,1,0,.69h.05a1.62,1.62,0,0,1,.68-.61,2.31,2.31,0,0,1,1-.22,2.08,2.08,0,0,1,1.47.47,1.94,1.94,0,0,1,.49,1.48V246Z" style="fill: #304041"/>
    <path d="M350.45,240.51a3.16,3.16,0,0,1,.64.06l-.12.75a2.6,2.6,0,0,0-.58-.07,1.41,1.41,0,0,0-1.11.53,1.89,1.89,0,0,0-.46,1.31V246H348v-5.35h.66l.1,1h0a2.26,2.26,0,0,1,.71-.81A1.69,1.69,0,0,1,350.45,240.51Z" style="fill: #304041"/>
    <path d="M356.71,243.28a2.94,2.94,0,0,1-.66,2,2.33,2.33,0,0,1-1.82.74,2.38,2.38,0,0,1-1.28-.34,2.2,2.2,0,0,1-.86-1,3.38,3.38,0,0,1-.3-1.47,3,3,0,0,1,.65-2,2.32,2.32,0,0,1,1.82-.73,2.25,2.25,0,0,1,1.78.75A2.9,2.9,0,0,1,356.71,243.28Zm-4.08,0a2.57,2.57,0,0,0,.41,1.56,1.42,1.42,0,0,0,1.21.54,1.41,1.41,0,0,0,1.2-.54,3.09,3.09,0,0,0,0-3.11,1.66,1.66,0,0,0-2.42,0A2.53,2.53,0,0,0,352.63,243.28Z" style="fill: #304041"/>
    <path d="M361.79,246V242.5a1.4,1.4,0,0,0-.3-1,1.23,1.23,0,0,0-.93-.32,1.54,1.54,0,0,0-1.23.45,2.32,2.32,0,0,0-.39,1.5V246h-.81v-5.35h.66l.13.73h0a1.61,1.61,0,0,1,.7-.61,2.19,2.19,0,0,1,1-.22,2,2,0,0,1,1.45.47,2,2,0,0,1,.49,1.49V246Z" style="fill: #304041"/>
    <path d="M364.2,239.16a.55.55,0,0,1,.13-.41.48.48,0,0,1,.35-.13.49.49,0,0,1,.33.13.67.67,0,0,1,0,.82.44.44,0,0,1-.33.13.48.48,0,0,1-.35-.13A.56.56,0,0,1,364.2,239.16Zm.88,6.8h-.81v-5.35h.81Z" style="fill: #304041"/>
    <path d="M370.25,244.5a1.34,1.34,0,0,1-.56,1.15,2.61,2.61,0,0,1-1.56.41,3.32,3.32,0,0,1-1.66-.34V245a4.22,4.22,0,0,0,.82.31,3.76,3.76,0,0,0,.86.11,2,2,0,0,0,1-.2.68.68,0,0,0,.35-.62.69.69,0,0,0-.28-.54,4.52,4.52,0,0,0-1.05-.52,5.46,5.46,0,0,1-1.06-.49,1.24,1.24,0,0,1-.47-.47,1.14,1.14,0,0,1-.16-.63,1.21,1.21,0,0,1,.53-1,2.53,2.53,0,0,1,1.46-.38,4.34,4.34,0,0,1,1.69.35l-.28.66a3.94,3.94,0,0,0-1.46-.33,1.66,1.66,0,0,0-.87.18.56.56,0,0,0-.3.5.61.61,0,0,0,.11.36,1,1,0,0,0,.36.29,6.9,6.9,0,0,0,.94.4,3.38,3.38,0,0,1,1.28.7A1.18,1.18,0,0,1,370.25,244.5Z" style="fill: #304041"/>
    <path d="M373.83,246.06a2.47,2.47,0,0,1-1.88-.72,2.86,2.86,0,0,1-.68-2,3.15,3.15,0,0,1,.63-2.06,2.16,2.16,0,0,1,1.72-.76,2,2,0,0,1,1.59.66,2.55,2.55,0,0,1,.58,1.75v.51h-3.68a2.08,2.08,0,0,0,.47,1.43,1.64,1.64,0,0,0,1.27.49,4.3,4.3,0,0,0,1.71-.36v.72a3.79,3.79,0,0,1-1.73.35Zm-.22-4.87a1.32,1.32,0,0,0-1,.42,1.88,1.88,0,0,0-.45,1.16h2.79a1.76,1.76,0,0,0-.34-1.17A1.2,1.2,0,0,0,373.61,241.19Zm-.6-1.41c.15-.2.32-.45.5-.73s.32-.54.43-.75h1v.1a6.36,6.36,0,0,1-.64.78,6.86,6.86,0,0,1-.73.72H373Z" style="fill: #304041"/>
  </g>
  <g>
    <path d="M428.11,233h-1.93l-3.1-5.4H423c.06.95.1,1.63.1,2V233h-1.36v-7.14h1.91l3.1,5.35h0c-.05-.93-.08-1.59-.08-2v-3.38h1.37Z" style="fill: #304041"/>
    <path d="M429.72,226.09c0-.48.27-.73.81-.73s.81.25.81.73a.69.69,0,0,1-.2.54.84.84,0,0,1-.61.19C430,226.82,429.72,226.58,429.72,226.09Zm1.55,6.87h-1.48V227.5h1.48Z" style="fill: #304041"/>
    <path d="M434.14,233l-2.08-5.46h1.55l1.06,3.11a5.52,5.52,0,0,1,.22,1.12h0a4.66,4.66,0,0,1,.22-1.12l1.05-3.11h1.55L435.66,233Z" style="fill: #304041"/>
    <path d="M441,233.06a2.83,2.83,0,0,1-2.06-.73,2.73,2.73,0,0,1-.75-2.06,3,3,0,0,1,.69-2.12,2.45,2.45,0,0,1,1.9-.75,2.4,2.4,0,0,1,1.8.66,2.48,2.48,0,0,1,.64,1.82v.72H439.7a1.4,1.4,0,0,0,.38,1,1.3,1.3,0,0,0,1,.36,4.11,4.11,0,0,0,.94-.1,4.89,4.89,0,0,0,.92-.33v1.15a3.48,3.48,0,0,1-.84.29A4.84,4.84,0,0,1,441,233.06Zm-.21-4.6a1,1,0,0,0-.75.3,1.39,1.39,0,0,0-.3.85h2.09a1.28,1.28,0,0,0-.29-.85A1,1,0,0,0,440.79,228.46Z" style="fill: #304041"/>
    <path d="M447.9,233l-.29-.74h0a2.41,2.41,0,0,1-.77.66,2.56,2.56,0,0,1-1,.18,1.7,1.7,0,0,1-1.24-.45,1.74,1.74,0,0,1-.45-1.28,1.44,1.44,0,0,1,.61-1.28,3.5,3.5,0,0,1,1.83-.46l.95,0v-.24a.74.74,0,0,0-.85-.83,3.82,3.82,0,0,0-1.54.4l-.49-1a4.44,4.44,0,0,1,2.09-.49,2.59,2.59,0,0,1,1.68.48,1.74,1.74,0,0,1,.59,1.45V233Zm-.44-2.53-.57,0a1.84,1.84,0,0,0-1,.23.76.76,0,0,0-.32.66q0,.63.72.63a1.14,1.14,0,0,0,.83-.3,1,1,0,0,0,.31-.79Z" style="fill: #304041"/>
    <path d="M454.34,233l-.2-.7h-.08a1.51,1.51,0,0,1-.68.59,2.26,2.26,0,0,1-1,.21,1.89,1.89,0,0,1-1.45-.52,2.08,2.08,0,0,1-.49-1.48V227.5h1.49v3.19a1.56,1.56,0,0,0,.21.89.79.79,0,0,0,.67.29,1,1,0,0,0,.91-.42,2.63,2.63,0,0,0,.27-1.38V227.5h1.49V233Z" style="fill: #304041"/>
    <path d="M461.86,228.4a2.29,2.29,0,0,1,1.65.58,2.09,2.09,0,0,1,.61,1.59,2.28,2.28,0,0,1-.74,1.84,3.1,3.1,0,0,1-2.11.65,4.09,4.09,0,0,1-1.92-.39v-1.3a3.66,3.66,0,0,0,.9.33,3.82,3.82,0,0,0,1,.13c.92,0,1.38-.37,1.38-1.13s-.47-1.08-1.43-1.08a4.13,4.13,0,0,0-.57,0c-.21,0-.38.07-.51.11l-.6-.32.27-3.64h3.87v1.28h-2.55l-.13,1.4.17,0A3.15,3.15,0,0,1,461.86,228.4Z" style="fill: #304041"/>
    <path d="M437,246l-.88-2.27H433.2l-.87,2.27h-.84l2.82-7.17h.7l2.8,7.17Zm-1.14-3-.83-2.21c-.11-.28-.22-.62-.34-1a9.38,9.38,0,0,1-.3,1l-.84,2.21Z" style="fill: #304041"/>
    <path d="M443.05,240.61v.51l-1,.12a1.85,1.85,0,0,1,.25.45,1.72,1.72,0,0,1,.1.62,1.59,1.59,0,0,1-.53,1.25A2.56,2.56,0,0,1,440,244a.79.79,0,0,0-.51.69.35.35,0,0,0,.18.33,1.31,1.31,0,0,0,.62.1h.94a2.1,2.1,0,0,1,1.34.37,1.26,1.26,0,0,1,.46,1.06,1.52,1.52,0,0,1-.71,1.36,3.82,3.82,0,0,1-2.08.46,2.85,2.85,0,0,1-1.62-.39,1.26,1.26,0,0,1-.57-1.1,1.25,1.25,0,0,1,.32-.85,1.63,1.63,0,0,1,.88-.48.82.82,0,0,1-.35-.29.77.77,0,0,1-.14-.45.8.8,0,0,1,.16-.51,1.64,1.64,0,0,1,.49-.43,1.44,1.44,0,0,1-.67-.58,1.67,1.67,0,0,1-.27-.94A1.74,1.74,0,0,1,439,241a2.15,2.15,0,0,1,1.5-.48,2.48,2.48,0,0,1,.75.1Zm-4.26,6.25a.73.73,0,0,0,.36.66,2.05,2.05,0,0,0,1.05.22,3,3,0,0,0,1.51-.3.94.94,0,0,0,.49-.83.66.66,0,0,0-.26-.6,2,2,0,0,0-1-.17h-1a1.32,1.32,0,0,0-.86.26A1,1,0,0,0,438.79,246.86Zm.44-4.54a1.08,1.08,0,0,0,.31.85,1.29,1.29,0,0,0,.89.29,1,1,0,0,0,1.18-1.15,1.06,1.06,0,0,0-1.2-1.21,1.18,1.18,0,0,0-.88.31A1.25,1.25,0,0,0,439.23,242.32Z" style="fill: #304041"/>
    <path d="M444.08,239.16a.55.55,0,0,1,.14-.41.47.47,0,0,1,.34-.13.53.53,0,0,1,.34.13.67.67,0,0,1,0,.82.48.48,0,0,1-.34.13.47.47,0,0,1-.34-.13A.56.56,0,0,1,444.08,239.16ZM445,246h-.81v-5.35H445Z" style="fill: #304041"/>
    <path d="M447.49,246h-.81v-7.6h.81Z" style="fill: #304041"/>
    <path d="M451.47,246.06a2.46,2.46,0,0,1-1.87-.72,2.82,2.82,0,0,1-.69-2,3.1,3.1,0,0,1,.64-2.06,2.14,2.14,0,0,1,1.71-.76,2,2,0,0,1,1.59.66,2.56,2.56,0,0,1,.59,1.75v.51h-3.69a2.13,2.13,0,0,0,.48,1.43,1.62,1.62,0,0,0,1.27.49,4.3,4.3,0,0,0,1.71-.36v.72a5.48,5.48,0,0,1-.81.27A5,5,0,0,1,451.47,246.06Zm-.22-4.87a1.33,1.33,0,0,0-1,.42,2,2,0,0,0-.45,1.16h2.8a1.76,1.76,0,0,0-.34-1.17A1.22,1.22,0,0,0,451.25,241.19Z" style="fill: #304041"/>
  </g>
</svg>
