<svg id="Layer_1" data-name="Layer 1" xmlns="http://www.w3.org/2000/svg" viewBox="0 0 511 271">
  <title>stage5</title>
  <path d="M15,13H496M15,47H496M15,81H496M15,115H496M15,149H496M15,183H496" style="fill: none;stroke: #d9d9d9;stroke-linejoin: round;stroke-width: 0.75px"/>
  <line x1="14.98" y1="217.01" x2="495.98" y2="217.01" style="fill: none;stroke: #d9d9d9;stroke-linejoin: round;stroke-width: 0.75px"/>
  <rect x="38.13" y="167.48" width="50.99" height="49.53" style="fill: #e3e2e3"/>
  <rect x="132.91" y="129.96" width="50.99" height="87.05" style="fill: #e3e2e3"/>
  <rect x="227.68" y="90.05" width="50.99" height="126.96" style="fill: #e3e2e3"/>
  <rect x="322.45" y="51.05" width="50.99" height="165.95" style="fill: #e3e2e3"/>
  <rect x="417.23" y="13.01" width="50.99" height="204" style="fill: #ecdc79"/>
  <text transform="translate(46.37 232.96)" style="font-size: 10px;fill: #304041;font-family: OpenSans-Bold, Open Sans;font-weight: 700">Level 1<tspan style="font-family: OpenSans, Open Sans;font-weight: 400"><tspan x="4.56" y="13">Static</tspan></tspan></text>
  <text transform="translate(141.14 232.96)" style="font-size: 10px;fill: #304041;font-family: OpenSans-Bold, Open Sans;font-weight: 700">Level 2<tspan style="font-family: OpenSans, Open Sans;font-weight: 400"><tspan x="-14.4" y="13">Disconnected</tspan></tspan></text>
  <text transform="translate(235.92 232.96)" style="font-size: 10px;fill: #304041;font-family: OpenSans-Bold, Open Sans;font-weight: 700">Level 3<tspan style="font-family: OpenSans, Open Sans;font-weight: 400"><tspan x="-5.3" y="13">In motion</tspan></tspan></text>
  <text transform="translate(330.69 232.96)" style="font-size: 10px;fill: #304041;font-family: OpenSans-Bold, Open Sans;font-weight: 700">Level 4<tspan style="font-family: OpenSans, Open Sans;font-weight: 400"><tspan x="-14.13" y="13">Synchronized</tspan></tspan></text>
  <text transform="translate(425.47 232.96)" style="font-size: 10px;fill: #304041;font-family: OpenSans-Bold, Open Sans;font-weight: 700">Level 5<tspan style="font-family: OpenSans, Open Sans;font-weight: 400"><tspan x="6.02" y="13">Agile</tspan></tspan></text>
</svg>
