<svg id="Layer_1" data-name="Layer 1" xmlns="http://www.w3.org/2000/svg" viewBox="0 0 511 271">
  <title>stage4es</title>
  <path d="M15,13H496M15,47H496M15,81H496M15,115H496M15,149H496M15,183H496" style="fill: none;stroke: #d9d9d9;stroke-linejoin: round;stroke-width: 0.75px"/>
  <line x1="14.98" y1="217.01" x2="495.98" y2="217.01" style="fill: none;stroke: #d9d9d9;stroke-linejoin: round;stroke-width: 0.75px"/>
  <rect x="38.13" y="167.48" width="50.99" height="49.53" style="fill: #e3e2e3"/>
  <rect x="132.91" y="129.96" width="50.99" height="87.05" style="fill: #e3e2e3"/>
  <rect x="227.68" y="90.05" width="50.99" height="126.96" style="fill: #e3e2e3"/>
  <rect x="322.45" y="51.05" width="50.99" height="165.95" style="fill: #e3e2e3"/>
  <rect x="417.23" y="13.01" width="50.99" height="204" style="fill: #ecdc79"/>
  <g>
    <path d="M53.79,233H51.87l-3.11-5.4h0q.09,1.42.09,2V233H47.46v-7.14h1.91l3.1,5.35h0c0-.93-.07-1.59-.07-2v-3.38h1.36Z" style="fill: #304041"/>
    <path d="M55.41,226.09c0-.49.27-.73.81-.73s.81.24.81.73a.73.73,0,0,1-.2.54.86.86,0,0,1-.61.19C55.68,226.82,55.41,226.58,55.41,226.09ZM57,233H55.47V227.5H57Z" style="fill: #304041"/>
    <path d="M59.82,233l-2.08-5.46H59.3l1.05,3.11a5.4,5.4,0,0,1,.22,1.12h0a5.09,5.09,0,0,1,.22-1.12l1-3.11h1.56L61.35,233Z" style="fill: #304041"/>
    <path d="M66.68,233.06a2.85,2.85,0,0,1-2.06-.73,2.78,2.78,0,0,1-.74-2.06,3.05,3.05,0,0,1,.68-2.12,2.45,2.45,0,0,1,1.9-.75,2.4,2.4,0,0,1,1.8.66,2.48,2.48,0,0,1,.65,1.82v.72H65.39a1.43,1.43,0,0,0,.37,1,1.34,1.34,0,0,0,1,.36,4.57,4.57,0,0,0,.93-.1,4.65,4.65,0,0,0,.92-.33v1.15a3.41,3.41,0,0,1-.83.29A4.88,4.88,0,0,1,66.68,233.06Zm-.21-4.6a1,1,0,0,0-.74.3,1.4,1.4,0,0,0-.31.85h2.09a1.23,1.23,0,0,0-.29-.85A1,1,0,0,0,66.47,228.46Z" style="fill: #304041"/>
    <path d="M71.61,233H70.12v-7.6h1.49Z" style="fill: #304041"/>
    <path d="M79.12,233H77.61v-4.81l0-.74c-.25.25-.43.41-.52.49l-.82.66-.73-.91,2.3-1.83h1.24Z" style="fill: #304041"/>
    <path d="M50.45,246h-4v-7.14h4v.74H47.3v2.3h3v.73h-3v2.63h3.15Z" style="fill: #304041"/>
    <path d="M55.36,244.5a1.34,1.34,0,0,1-.56,1.15,2.61,2.61,0,0,1-1.56.41,3.34,3.34,0,0,1-1.66-.34V245a4.31,4.31,0,0,0,.83.31,3.61,3.61,0,0,0,.85.11,2,2,0,0,0,1-.2.69.69,0,0,0,.35-.62.68.68,0,0,0-.27-.54,4.89,4.89,0,0,0-1.06-.52,5.77,5.77,0,0,1-1.06-.49,1.4,1.4,0,0,1-.47-.47,1.14,1.14,0,0,1-.16-.63,1.2,1.2,0,0,1,.54-1,2.48,2.48,0,0,1,1.46-.38,4.37,4.37,0,0,1,1.69.35l-.29.66a3.94,3.94,0,0,0-1.46-.33,1.66,1.66,0,0,0-.87.18.55.55,0,0,0-.29.5.61.61,0,0,0,.1.36,1.23,1.23,0,0,0,.36.29,8.53,8.53,0,0,0,.94.4,3.38,3.38,0,0,1,1.28.7A1.18,1.18,0,0,1,55.36,244.5Z" style="fill: #304041"/>
    <path d="M58.4,245.39a2.77,2.77,0,0,0,.42,0l.32-.07v.62a1.72,1.72,0,0,1-.39.11,4.3,4.3,0,0,1-.46,0c-1,0-1.56-.55-1.56-1.64v-3.18H56v-.39l.76-.34.35-1.14h.47v1.24H59.1v.63H57.55v3.15a1.09,1.09,0,0,0,.22.74A.83.83,0,0,0,58.4,245.39Z" style="fill: #304041"/>
    <path d="M63.5,246l-.16-.76h0a2.4,2.4,0,0,1-.8.68,2.43,2.43,0,0,1-1,.18,1.81,1.81,0,0,1-1.25-.41,1.52,1.52,0,0,1-.45-1.17c0-1.08.86-1.65,2.59-1.7l.91,0v-.33a1.36,1.36,0,0,0-.27-.93,1.13,1.13,0,0,0-.87-.3,3.54,3.54,0,0,0-1.51.41l-.25-.62a3.76,3.76,0,0,1,1.81-.46,2,2,0,0,1,1.42.43,1.78,1.78,0,0,1,.46,1.36V246Zm-1.83-.57a1.61,1.61,0,0,0,1.18-.42,1.51,1.51,0,0,0,.44-1.16v-.48l-.81,0a3,3,0,0,0-1.4.3.92.92,0,0,0-.42.83.83.83,0,0,0,.26.67A1.14,1.14,0,0,0,61.67,245.39Zm-.19-5.61c.15-.2.32-.45.5-.73s.32-.54.43-.75h1v.1a7.17,7.17,0,0,1-.63.78,7.88,7.88,0,0,1-.74.72h-.54Z" style="fill: #304041"/>
    <path d="M67.5,245.39a2.6,2.6,0,0,0,.73-.1v.62a1.72,1.72,0,0,1-.39.11,4.09,4.09,0,0,1-.46,0c-1,0-1.55-.55-1.55-1.64v-3.18h-.77v-.39l.77-.34.34-1.14h.47v1.24h1.55v.63H66.64v3.15a1,1,0,0,0,.23.74A.8.8,0,0,0,67.5,245.39Z" style="fill: #304041"/>
    <path d="M69.23,239.16a.55.55,0,0,1,.14-.41.45.45,0,0,1,.34-.13.48.48,0,0,1,.34.13.67.67,0,0,1,0,.82.48.48,0,0,1-.34.13.45.45,0,0,1-.34-.13A.56.56,0,0,1,69.23,239.16Zm.88,6.8H69.3v-5.35h.81Z" style="fill: #304041"/>
    <path d="M74,246.06a2.26,2.26,0,0,1-1.8-.72,2.9,2.9,0,0,1-.64-2,3,3,0,0,1,.65-2.08,2.31,2.31,0,0,1,1.84-.73,4,4,0,0,1,.77.08,2.55,2.55,0,0,1,.61.2l-.25.69a4.55,4.55,0,0,0-.59-.18,2.44,2.44,0,0,0-.56-.07c-1.09,0-1.63.69-1.63,2.08a2.43,2.43,0,0,0,.4,1.51,1.39,1.39,0,0,0,1.18.53,3.67,3.67,0,0,0,1.37-.29v.72A3,3,0,0,1,74,246.06Z" style="fill: #304041"/>
    <path d="M81.21,243.28a2.94,2.94,0,0,1-.66,2,2.33,2.33,0,0,1-1.82.74,2.38,2.38,0,0,1-1.28-.34,2.27,2.27,0,0,1-.86-1,3.38,3.38,0,0,1-.3-1.47,3,3,0,0,1,.65-2,2.32,2.32,0,0,1,1.82-.73,2.28,2.28,0,0,1,1.79.75A2.94,2.94,0,0,1,81.21,243.28Zm-4.08,0a2.57,2.57,0,0,0,.41,1.56,1.63,1.63,0,0,0,2.42,0,3.15,3.15,0,0,0,0-3.11,1.48,1.48,0,0,0-1.22-.53,1.42,1.42,0,0,0-1.2.52A2.53,2.53,0,0,0,77.13,243.28Z" style="fill: #304041"/>
  </g>
  <g>
    <path d="M148.56,233h-1.92l-3.1-5.4h0q.09,1.42.09,2V233h-1.35v-7.14h1.91l3.1,5.35h0c-.05-.93-.08-1.59-.08-2v-3.38h1.36Z" style="fill: #304041"/>
    <path d="M150.18,226.09c0-.49.27-.73.81-.73s.81.24.81.73a.73.73,0,0,1-.2.54.86.86,0,0,1-.61.19C150.45,226.82,150.18,226.58,150.18,226.09Zm1.55,6.87h-1.49V227.5h1.49Z" style="fill: #304041"/>
    <path d="M154.6,233l-2.08-5.46h1.55l1.06,3.11a6.14,6.14,0,0,1,.22,1.12h0a4.57,4.57,0,0,1,.22-1.12l1.05-3.11h1.55L156.12,233Z" style="fill: #304041"/>
    <path d="M161.46,233.06a2.87,2.87,0,0,1-2.07-.73,2.78,2.78,0,0,1-.74-2.06,3,3,0,0,1,.69-2.12,2.45,2.45,0,0,1,1.9-.75,2.4,2.4,0,0,1,1.8.66,2.48,2.48,0,0,1,.64,1.82v.72h-3.52a1.43,1.43,0,0,0,.38,1,1.3,1.3,0,0,0,1,.36,4.75,4.75,0,0,0,.94-.1,4.57,4.57,0,0,0,.91-.33v1.15a3.26,3.26,0,0,1-.83.29A4.84,4.84,0,0,1,161.46,233.06Zm-.21-4.6a1,1,0,0,0-.75.3,1.33,1.33,0,0,0-.3.85h2.09a1.28,1.28,0,0,0-.29-.85A1,1,0,0,0,161.25,228.46Z" style="fill: #304041"/>
    <path d="M166.38,233h-1.49v-7.6h1.49Z" style="fill: #304041"/>
    <path d="M175.15,233h-5v-1.05L172,230.1c.53-.55.88-.92,1-1.13a2.6,2.6,0,0,0,.36-.59,1.49,1.49,0,0,0,.1-.55.83.83,0,0,0-.23-.64.93.93,0,0,0-.64-.21,1.77,1.77,0,0,0-.8.19,4.79,4.79,0,0,0-.82.54l-.82-1a5.34,5.34,0,0,1,.88-.64,3.52,3.52,0,0,1,.75-.28,3.76,3.76,0,0,1,.92-.1,2.73,2.73,0,0,1,1.18.24,1.86,1.86,0,0,1,.8.69,1.77,1.77,0,0,1,.28,1,2.6,2.6,0,0,1-.17.93,3.67,3.67,0,0,1-.54.88,12.18,12.18,0,0,1-1.28,1.3l-.92.86v.07h3.11Z" style="fill: #304041"/>
    <path d="M132,242.32a3.59,3.59,0,0,1-1,2.7,3.77,3.77,0,0,1-2.76.94h-2v-7.14h2.19a3.2,3.2,0,0,1,3.51,3.5Zm-.88,0a2.85,2.85,0,0,0-.7-2.1,2.78,2.78,0,0,0-2.08-.71h-1.21v5.7h1a3,3,0,0,0,2.23-.73A2.88,2.88,0,0,0,131.08,242.35Z" style="fill: #304041"/>
    <path d="M135.69,246.06a2.43,2.43,0,0,1-1.87-.73,2.78,2.78,0,0,1-.69-2,3.08,3.08,0,0,1,.64-2.06,2.11,2.11,0,0,1,1.71-.76,2,2,0,0,1,1.59.66,2.56,2.56,0,0,1,.59,1.75v.51H134a2.15,2.15,0,0,0,.48,1.43,1.62,1.62,0,0,0,1.27.49,4.3,4.3,0,0,0,1.71-.36v.72a5.48,5.48,0,0,1-.81.27A5,5,0,0,1,135.69,246.06Zm-.22-4.87a1.33,1.33,0,0,0-1,.42,2,2,0,0,0-.45,1.16h2.8a1.76,1.76,0,0,0-.34-1.17A1.19,1.19,0,0,0,135.47,241.19Z" style="fill: #304041"/>
    <path d="M142.49,244.5a1.33,1.33,0,0,1-.55,1.15,2.66,2.66,0,0,1-1.57.41,3.34,3.34,0,0,1-1.66-.34V245a4.57,4.57,0,0,0,.83.31,3.74,3.74,0,0,0,.85.11,2,2,0,0,0,1-.2.71.71,0,0,0,.07-1.16,4.44,4.44,0,0,0-1.06-.52,6.12,6.12,0,0,1-1.06-.49,1.4,1.4,0,0,1-.47-.47,1.22,1.22,0,0,1-.15-.63,1.21,1.21,0,0,1,.53-1,2.5,2.5,0,0,1,1.46-.38,4.34,4.34,0,0,1,1.69.35l-.29.66a3.85,3.85,0,0,0-1.46-.33,1.71,1.71,0,0,0-.87.18.57.57,0,0,0-.29.5.61.61,0,0,0,.11.36,1.06,1.06,0,0,0,.35.29c.17.09.48.22.94.4a3.36,3.36,0,0,1,1.29.7A1.22,1.22,0,0,1,142.49,244.5Z" style="fill: #304041"/>
    <path d="M146,246.06a2.28,2.28,0,0,1-1.8-.72,3,3,0,0,1-.64-2,3,3,0,0,1,.65-2.08,2.32,2.32,0,0,1,1.84-.73,3.94,3.94,0,0,1,.77.08,2.55,2.55,0,0,1,.61.2l-.25.69a4.39,4.39,0,0,0-.58-.18,2.52,2.52,0,0,0-.57-.07c-1.08,0-1.63.69-1.63,2.08a2.49,2.49,0,0,0,.4,1.51,1.4,1.4,0,0,0,1.18.53,3.63,3.63,0,0,0,1.37-.29v.72A3,3,0,0,1,146,246.06Z" style="fill: #304041"/>
    <path d="M153.19,243.28a2.94,2.94,0,0,1-.66,2,2.58,2.58,0,0,1-3.09.4,2.14,2.14,0,0,1-.86-1,3.25,3.25,0,0,1-.31-1.47,2.94,2.94,0,0,1,.66-2,2.56,2.56,0,0,1,3.6,0A2.94,2.94,0,0,1,153.19,243.28Zm-4.08,0a2.57,2.57,0,0,0,.41,1.56,1.63,1.63,0,0,0,2.42,0,3.15,3.15,0,0,0,0-3.11,1.46,1.46,0,0,0-1.22-.53,1.42,1.42,0,0,0-1.2.52A2.53,2.53,0,0,0,149.11,243.28Z" style="fill: #304041"/>
    <path d="M158.27,246V242.5a1.45,1.45,0,0,0-.29-1,1.24,1.24,0,0,0-.94-.32,1.54,1.54,0,0,0-1.23.45,2.31,2.31,0,0,0-.39,1.5V246h-.81v-5.35h.66l.13.73h0a1.67,1.67,0,0,1,.7-.61,2.19,2.19,0,0,1,1-.22,2,2,0,0,1,1.46.47,2,2,0,0,1,.48,1.49V246Z" style="fill: #304041"/>
    <path d="M163,246.06a2.43,2.43,0,0,1-1.87-.73,2.78,2.78,0,0,1-.69-2,3.08,3.08,0,0,1,.64-2.06,2.09,2.09,0,0,1,1.71-.76,2,2,0,0,1,1.59.66,2.56,2.56,0,0,1,.59,1.75v.51h-3.69a2.15,2.15,0,0,0,.48,1.43,1.62,1.62,0,0,0,1.27.49,4.3,4.3,0,0,0,1.71-.36v.72a5.48,5.48,0,0,1-.81.27A5,5,0,0,1,163,246.06Zm-.22-4.87a1.33,1.33,0,0,0-1,.42,2,2,0,0,0-.45,1.16h2.8a1.81,1.81,0,0,0-.34-1.17A1.19,1.19,0,0,0,162.79,241.19Z" style="fill: #304041"/>
    <path d="M168.5,246.06a2.26,2.26,0,0,1-1.8-.72,2.9,2.9,0,0,1-.64-2,3,3,0,0,1,.65-2.08,2.31,2.31,0,0,1,1.84-.73,3.94,3.94,0,0,1,.77.08,2.55,2.55,0,0,1,.61.2l-.25.69a4.12,4.12,0,0,0-.59-.18,2.38,2.38,0,0,0-.56-.07c-1.08,0-1.63.69-1.63,2.08a2.43,2.43,0,0,0,.4,1.51,1.39,1.39,0,0,0,1.18.53,3.63,3.63,0,0,0,1.37-.29v.72A3,3,0,0,1,168.5,246.06Z" style="fill: #304041"/>
    <path d="M172.85,245.39a2.6,2.6,0,0,0,.73-.1v.62a1.72,1.72,0,0,1-.39.11,4.09,4.09,0,0,1-.46,0c-1,0-1.55-.55-1.55-1.64v-3.18h-.77v-.39l.77-.34.34-1.14H172v1.24h1.55v.63H172v3.15a1.09,1.09,0,0,0,.23.74A.8.8,0,0,0,172.85,245.39Z" style="fill: #304041"/>
    <path d="M177.94,246l-.16-.76h0a2.22,2.22,0,0,1-.8.68,2.37,2.37,0,0,1-1,.18,1.81,1.81,0,0,1-1.25-.41,1.52,1.52,0,0,1-.45-1.17c0-1.08.86-1.65,2.59-1.7l.91,0v-.33a1.36,1.36,0,0,0-.27-.93,1.12,1.12,0,0,0-.87-.3,3.58,3.58,0,0,0-1.51.41l-.25-.62a3.84,3.84,0,0,1,1.81-.46,2,2,0,0,1,1.42.43,1.75,1.75,0,0,1,.46,1.36V246Zm-1.83-.57a1.63,1.63,0,0,0,1.19-.42,1.51,1.51,0,0,0,.43-1.16v-.48l-.81,0a3,3,0,0,0-1.39.3.91.91,0,0,0-.43.83.83.83,0,0,0,.27.67A1.09,1.09,0,0,0,176.11,245.39Z" style="fill: #304041"/>
    <path d="M183.85,245.24h0a1.91,1.91,0,0,1-1.68.82,2,2,0,0,1-1.63-.72,3.16,3.16,0,0,1-.59-2,3.24,3.24,0,0,1,.59-2.06,2,2,0,0,1,1.63-.73,1.94,1.94,0,0,1,1.67.79h.06l0-.38,0-.38v-2.18h.81V246H184Zm-1.62.14a1.49,1.49,0,0,0,1.21-.45,2.28,2.28,0,0,0,.37-1.46v-.17a2.66,2.66,0,0,0-.38-1.63,1.44,1.44,0,0,0-1.21-.48,1.25,1.25,0,0,0-1.09.55,2.78,2.78,0,0,0-.38,1.57,2.66,2.66,0,0,0,.38,1.55A1.29,1.29,0,0,0,182.23,245.38Z" style="fill: #304041"/>
    <path d="M191,243.28a2.94,2.94,0,0,1-.66,2,2.33,2.33,0,0,1-1.82.74,2.4,2.4,0,0,1-1.28-.34,2.18,2.18,0,0,1-.85-1,3.25,3.25,0,0,1-.31-1.47,2.94,2.94,0,0,1,.66-2,2.56,2.56,0,0,1,3.6,0A2.94,2.94,0,0,1,191,243.28Zm-4.08,0a2.57,2.57,0,0,0,.41,1.56,1.63,1.63,0,0,0,2.42,0,3.15,3.15,0,0,0,0-3.11,1.46,1.46,0,0,0-1.22-.53,1.42,1.42,0,0,0-1.2.52A2.53,2.53,0,0,0,186.88,243.28Z" style="fill: #304041"/>
  </g>
  <g>
    <path d="M243.34,233h-1.93l-3.1-5.4h0q.09,1.42.09,2V233H237v-7.14h1.9l3.11,5.35h0c-.05-.93-.07-1.59-.07-2v-3.38h1.36Z" style="fill: #304041"/>
    <path d="M245,226.09c0-.49.28-.73.82-.73s.81.24.81.73a.7.7,0,0,1-.21.54.82.82,0,0,1-.6.19C245.23,226.82,245,226.58,245,226.09Zm1.56,6.87H245V227.5h1.49Z" style="fill: #304041"/>
    <path d="M249.37,233l-2.08-5.46h1.56l1.05,3.11a5.4,5.4,0,0,1,.22,1.12h0a5.09,5.09,0,0,1,.22-1.12l1-3.11H253L250.9,233Z" style="fill: #304041"/>
    <path d="M256.23,233.06a2.83,2.83,0,0,1-2.06-.73,2.74,2.74,0,0,1-.74-2.06,3,3,0,0,1,.68-2.12,2.45,2.45,0,0,1,1.9-.75,2.4,2.4,0,0,1,1.8.66,2.48,2.48,0,0,1,.65,1.82v.72h-3.52a1.43,1.43,0,0,0,.37,1,1.32,1.32,0,0,0,1,.36,4.57,4.57,0,0,0,.93-.1,4.89,4.89,0,0,0,.92-.33v1.15a3.34,3.34,0,0,1-.84.29A4.72,4.72,0,0,1,256.23,233.06Zm-.21-4.6a.94.94,0,0,0-.74.3,1.4,1.4,0,0,0-.31.85h2.09a1.23,1.23,0,0,0-.29-.85A1,1,0,0,0,256,228.46Z" style="fill: #304041"/>
    <path d="M261.16,233h-1.49v-7.6h1.49Z" style="fill: #304041"/>
    <path d="M269.65,227.42a1.72,1.72,0,0,1-.41,1.14,2.13,2.13,0,0,1-1.14.64v0a2.29,2.29,0,0,1,1.31.52,1.48,1.48,0,0,1,.45,1.13,1.89,1.89,0,0,1-.75,1.6,3.4,3.4,0,0,1-2.13.58,5.08,5.08,0,0,1-2.06-.39v-1.28a4.65,4.65,0,0,0,.91.34,3.72,3.72,0,0,0,1,.13,1.94,1.94,0,0,0,1.11-.25.93.93,0,0,0,.35-.82.73.73,0,0,0-.41-.71,3,3,0,0,0-1.3-.21H266v-1.16h.56a2.5,2.5,0,0,0,1.21-.22.78.78,0,0,0,.38-.74c0-.54-.34-.81-1-.81a2.27,2.27,0,0,0-.72.12,3.35,3.35,0,0,0-.81.4l-.69-1a3.84,3.84,0,0,1,2.32-.7,3,3,0,0,1,1.76.45A1.45,1.45,0,0,1,269.65,227.42Z" style="fill: #304041"/>
    <path d="M223.11,246h-4v-7.14h4v.74H220v2.3h3v.73h-3v2.63h3.15Z" style="fill: #304041"/>
    <path d="M228.23,246V242.5a1.4,1.4,0,0,0-.3-1,1.23,1.23,0,0,0-.93-.32,1.54,1.54,0,0,0-1.23.45,2.31,2.31,0,0,0-.39,1.5V246h-.81v-5.35h.66l.13.73h0a1.61,1.61,0,0,1,.7-.61,2.19,2.19,0,0,1,1-.22,2,2,0,0,1,1.45.47,2,2,0,0,1,.49,1.49V246Z" style="fill: #304041"/>
    <path d="M236.59,246l-2.43-6.33h0c0,.5.07,1.1.07,1.79V246h-.76v-7.14h1.25l2.26,5.89h0l2.28-5.89h1.24V246h-.83v-4.6c0-.53,0-1.1.06-1.72h0L237.25,246Z" style="fill: #304041"/>
    <path d="M247,243.28a2.94,2.94,0,0,1-.66,2,2.32,2.32,0,0,1-1.82.74,2.34,2.34,0,0,1-1.27-.34,2.2,2.2,0,0,1-.86-1,3.38,3.38,0,0,1-.31-1.47,2.94,2.94,0,0,1,.66-2,2.31,2.31,0,0,1,1.82-.73,2.26,2.26,0,0,1,1.78.75A2.94,2.94,0,0,1,247,243.28Zm-4.08,0a2.57,2.57,0,0,0,.41,1.56,1.63,1.63,0,0,0,2.42,0,3.15,3.15,0,0,0,0-3.11,1.46,1.46,0,0,0-1.22-.53,1.42,1.42,0,0,0-1.2.52A2.53,2.53,0,0,0,242.87,243.28Z" style="fill: #304041"/>
    <path d="M249.54,246l-2-5.35h.87l1.15,3.17a11.49,11.49,0,0,1,.46,1.45h0c0-.18.15-.53.34-1.07s.62-1.73,1.28-3.55h.87l-2,5.35Z" style="fill: #304041"/>
    <path d="M253.31,239.16a.55.55,0,0,1,.14-.41.47.47,0,0,1,.34-.13.48.48,0,0,1,.34.13.67.67,0,0,1,0,.82.48.48,0,0,1-.34.13.47.47,0,0,1-.34-.13A.56.56,0,0,1,253.31,239.16Zm.88,6.8h-.81v-5.35h.81Z" style="fill: #304041"/>
    <path d="M262.73,246v-3.48a1.45,1.45,0,0,0-.27-1,1.07,1.07,0,0,0-.85-.32,1.36,1.36,0,0,0-1.12.43,2.08,2.08,0,0,0-.36,1.34v3h-.81v-3.48a1.45,1.45,0,0,0-.27-1,1.09,1.09,0,0,0-.86-.32,1.29,1.29,0,0,0-1.11.46,2.41,2.41,0,0,0-.36,1.49V246h-.81v-5.35h.66l.13.73h0a1.6,1.6,0,0,1,.65-.61,1.93,1.93,0,0,1,.93-.22,1.58,1.58,0,0,1,1.64.91h0a1.74,1.74,0,0,1,.7-.67,2.15,2.15,0,0,1,1-.24,1.81,1.81,0,0,1,1.36.47,2.07,2.07,0,0,1,.45,1.49V246Z" style="fill: #304041"/>
    <path d="M265.14,239.16a.55.55,0,0,1,.14-.41.51.51,0,0,1,.68,0,.67.67,0,0,1,0,.82.51.51,0,0,1-.68,0A.56.56,0,0,1,265.14,239.16ZM266,246h-.81v-5.35H266Z" style="fill: #304041"/>
    <path d="M270,246.06a2.43,2.43,0,0,1-1.87-.73,2.78,2.78,0,0,1-.69-2,3.13,3.13,0,0,1,.64-2.06,2.12,2.12,0,0,1,1.71-.76,2.05,2.05,0,0,1,1.6.66,2.55,2.55,0,0,1,.58,1.75v.51h-3.69a2.15,2.15,0,0,0,.48,1.43,1.64,1.64,0,0,0,1.27.49,4.3,4.3,0,0,0,1.71-.36v.72a5.12,5.12,0,0,1-.81.27A5,5,0,0,1,270,246.06Zm-.22-4.87a1.3,1.3,0,0,0-1,.42,2,2,0,0,0-.46,1.16h2.8a1.76,1.76,0,0,0-.34-1.17A1.18,1.18,0,0,0,269.78,241.19Z" style="fill: #304041"/>
    <path d="M277,246V242.5a1.4,1.4,0,0,0-.3-1,1.24,1.24,0,0,0-.94-.32,1.56,1.56,0,0,0-1.23.45,2.31,2.31,0,0,0-.39,1.5V246h-.81v-5.35H274l.13.73h0a1.67,1.67,0,0,1,.7-.61,2.19,2.19,0,0,1,1-.22,2,2,0,0,1,1.46.47,2,2,0,0,1,.49,1.49V246Z" style="fill: #304041"/>
    <path d="M281.22,245.39a2.6,2.6,0,0,0,.73-.1v.62a1.72,1.72,0,0,1-.39.11,4.09,4.09,0,0,1-.46,0c-1,0-1.55-.55-1.55-1.64v-3.18h-.77v-.39l.77-.34.34-1.14h.47v1.24h1.55v.63h-1.55v3.15a1.09,1.09,0,0,0,.23.74A.8.8,0,0,0,281.22,245.39Z" style="fill: #304041"/>
    <path d="M287.64,243.28a2.94,2.94,0,0,1-.66,2,2.58,2.58,0,0,1-3.09.4,2.14,2.14,0,0,1-.86-1,3.25,3.25,0,0,1-.31-1.47,2.94,2.94,0,0,1,.66-2,2.56,2.56,0,0,1,3.6,0A2.94,2.94,0,0,1,287.64,243.28Zm-4.08,0a2.57,2.57,0,0,0,.41,1.56,1.63,1.63,0,0,0,2.42,0,3.15,3.15,0,0,0,0-3.11,1.46,1.46,0,0,0-1.22-.53,1.42,1.42,0,0,0-1.2.52A2.53,2.53,0,0,0,283.56,243.28Z" style="fill: #304041"/>
  </g>
  <g>
    <path d="M338.11,233h-1.92l-3.11-5.4h0q.09,1.42.09,2V233h-1.35v-7.14h1.91l3.1,5.35h0c-.05-.93-.07-1.59-.07-2v-3.38h1.36Z" style="fill: #304041"/>
    <path d="M339.73,226.09c0-.49.27-.73.81-.73s.81.24.81.73a.73.73,0,0,1-.2.54.86.86,0,0,1-.61.19C340,226.82,339.73,226.58,339.73,226.09Zm1.55,6.87h-1.49V227.5h1.49Z" style="fill: #304041"/>
    <path d="M344.14,233l-2.08-5.46h1.56l1.06,3.11a5.35,5.35,0,0,1,.21,1.12h0a5.09,5.09,0,0,1,.22-1.12l1.05-3.11h1.56L345.67,233Z" style="fill: #304041"/>
    <path d="M351,233.06a2.85,2.85,0,0,1-2.06-.73,2.78,2.78,0,0,1-.74-2.06,3,3,0,0,1,.69-2.12,2.78,2.78,0,0,1,3.7-.09,2.48,2.48,0,0,1,.64,1.82v.72h-3.52a1.43,1.43,0,0,0,.38,1,1.3,1.3,0,0,0,1,.36,4.57,4.57,0,0,0,.93-.1,4.65,4.65,0,0,0,.92-.33v1.15a3.41,3.41,0,0,1-.83.29A4.88,4.88,0,0,1,351,233.06Zm-.21-4.6a1,1,0,0,0-.74.3,1.4,1.4,0,0,0-.31.85h2.09a1.22,1.22,0,0,0-.28-.85A1,1,0,0,0,350.79,228.46Z" style="fill: #304041"/>
    <path d="M355.93,233h-1.49v-7.6h1.49Z" style="fill: #304041"/>
    <path d="M364.86,231.48H364V233h-1.47v-1.48h-3v-1l3.13-4.61H364v4.49h.86Zm-2.33-1.17V229.1c0-.2,0-.5,0-.88s0-.61,0-.67h0a5,5,0,0,1-.43.78l-1.31,2Z" style="fill: #304041"/>
    <path d="M322.9,244.06a1.73,1.73,0,0,1-.68,1.47,3,3,0,0,1-1.86.53,4.63,4.63,0,0,1-1.95-.33v-.8a5.15,5.15,0,0,0,1,.29,5.05,5.05,0,0,0,1,.11,2.05,2.05,0,0,0,1.25-.32,1,1,0,0,0,.42-.87,1.13,1.13,0,0,0-.15-.61,1.43,1.43,0,0,0-.49-.44,7.82,7.82,0,0,0-1.07-.45,3.42,3.42,0,0,1-1.42-.85,1.88,1.88,0,0,1-.43-1.27,1.58,1.58,0,0,1,.62-1.31,2.56,2.56,0,0,1,1.64-.49,4.83,4.83,0,0,1,2,.39l-.26.72a4.37,4.37,0,0,0-1.72-.37,1.68,1.68,0,0,0-1,.28,1,1,0,0,0-.37.79,1.22,1.22,0,0,0,.14.61,1.28,1.28,0,0,0,.46.43,6,6,0,0,0,1,.44,4,4,0,0,1,1.54.86A1.68,1.68,0,0,1,322.9,244.06Z" style="fill: #304041"/>
    <path d="M324.17,239.16a.55.55,0,0,1,.14-.41.45.45,0,0,1,.34-.13.48.48,0,0,1,.34.13.67.67,0,0,1,0,.82.48.48,0,0,1-.34.13.45.45,0,0,1-.34-.13A.56.56,0,0,1,324.17,239.16Zm.88,6.8h-.81v-5.35h.81Z" style="fill: #304041"/>
    <path d="M330.43,246V242.5a1.4,1.4,0,0,0-.3-1,1.22,1.22,0,0,0-.93-.32,1.54,1.54,0,0,0-1.23.45,2.31,2.31,0,0,0-.39,1.5V246h-.81v-5.35h.66l.13.73h0a1.67,1.67,0,0,1,.7-.61,2.19,2.19,0,0,1,1-.22,2,2,0,0,1,1.45.47,2,2,0,0,1,.49,1.49V246Z" style="fill: #304041"/>
    <path d="M335.05,246.06a2.26,2.26,0,0,1-1.8-.72,2.9,2.9,0,0,1-.64-2,3,3,0,0,1,.65-2.08,2.31,2.31,0,0,1,1.84-.73,4,4,0,0,1,.77.08,2.55,2.55,0,0,1,.61.2l-.25.69a4.55,4.55,0,0,0-.59-.18,2.44,2.44,0,0,0-.56-.07c-1.09,0-1.63.69-1.63,2.08a2.43,2.43,0,0,0,.4,1.51,1.39,1.39,0,0,0,1.18.53,3.67,3.67,0,0,0,1.37-.29v.72A3,3,0,0,1,335.05,246.06Z" style="fill: #304041"/>
    <path d="M340.11,240.51a3.1,3.1,0,0,1,.64.06l-.11.75a2.68,2.68,0,0,0-.59-.07,1.41,1.41,0,0,0-1.11.53,1.89,1.89,0,0,0-.46,1.31V246h-.81v-5.35h.67l.09,1h0a2.38,2.38,0,0,1,.72-.81A1.58,1.58,0,0,1,340.11,240.51Z" style="fill: #304041"/>
    <path d="M346.37,243.28a2.94,2.94,0,0,1-.66,2,2.33,2.33,0,0,1-1.82.74,2.4,2.4,0,0,1-1.28-.34,2.18,2.18,0,0,1-.85-1,3.25,3.25,0,0,1-.31-1.47,2.94,2.94,0,0,1,.66-2,2.56,2.56,0,0,1,3.6,0A2.94,2.94,0,0,1,346.37,243.28Zm-4.08,0a2.57,2.57,0,0,0,.41,1.56,1.63,1.63,0,0,0,2.42,0,3.15,3.15,0,0,0,0-3.11,1.46,1.46,0,0,0-1.22-.53,1.42,1.42,0,0,0-1.2.52A2.53,2.53,0,0,0,342.29,243.28Z" style="fill: #304041"/>
    <path d="M351.45,246V242.5a1.4,1.4,0,0,0-.3-1,1.22,1.22,0,0,0-.93-.32,1.54,1.54,0,0,0-1.23.45,2.31,2.31,0,0,0-.39,1.5V246h-.81v-5.35h.66l.13.73h0a1.67,1.67,0,0,1,.7-.61,2.19,2.19,0,0,1,1-.22,2,2,0,0,1,1.45.47,2,2,0,0,1,.49,1.49V246Z" style="fill: #304041"/>
    <path d="M353.86,239.16a.55.55,0,0,1,.14-.41.45.45,0,0,1,.34-.13.48.48,0,0,1,.34.13.67.67,0,0,1,0,.82.48.48,0,0,1-.34.13.45.45,0,0,1-.34-.13A.56.56,0,0,1,353.86,239.16Zm.88,6.8h-.81v-5.35h.81Z" style="fill: #304041"/>
    <path d="M359.88,246H356v-.55l2.92-4.17h-2.74v-.63h3.63v.63l-2.88,4.09h2.95Z" style="fill: #304041"/>
    <path d="M364.43,246l-.16-.76h0a2.4,2.4,0,0,1-.8.68,2.45,2.45,0,0,1-1,.18,1.78,1.78,0,0,1-1.24-.41,1.53,1.53,0,0,1-.46-1.17c0-1.08.87-1.65,2.6-1.7l.91,0v-.33a1.41,1.41,0,0,0-.27-.93,1.13,1.13,0,0,0-.87-.3,3.62,3.62,0,0,0-1.52.41l-.24-.62a3.76,3.76,0,0,1,1.81-.46,2,2,0,0,1,1.41.43,1.75,1.75,0,0,1,.47,1.36V246Zm-1.83-.57a1.61,1.61,0,0,0,1.18-.42,1.51,1.51,0,0,0,.44-1.16v-.48l-.81,0a3,3,0,0,0-1.4.3.93.93,0,0,0-.43.83.83.83,0,0,0,.27.67A1.14,1.14,0,0,0,362.6,245.39Z" style="fill: #304041"/>
    <path d="M370.34,245.24h0a1.93,1.93,0,0,1-1.68.82,2,2,0,0,1-1.64-.72,3.16,3.16,0,0,1-.58-2,3.24,3.24,0,0,1,.58-2.06,2,2,0,0,1,1.64-.73,2,2,0,0,1,1.67.79h.06l0-.38v-2.56h.81V246h-.66Zm-1.62.14a1.48,1.48,0,0,0,1.2-.45,2.28,2.28,0,0,0,.38-1.46v-.17a2.73,2.73,0,0,0-.38-1.63,1.46,1.46,0,0,0-1.21-.48,1.23,1.23,0,0,0-1.09.55,2.7,2.7,0,0,0-.38,1.57,2.67,2.67,0,0,0,.37,1.55A1.31,1.31,0,0,0,368.72,245.38Z" style="fill: #304041"/>
    <path d="M377.44,243.28a2.94,2.94,0,0,1-.66,2,2.3,2.3,0,0,1-1.82.74,2.34,2.34,0,0,1-1.27-.34,2.2,2.2,0,0,1-.86-1,3.38,3.38,0,0,1-.3-1.47,2.94,2.94,0,0,1,.65-2,2.31,2.31,0,0,1,1.82-.73,2.25,2.25,0,0,1,1.78.75A2.94,2.94,0,0,1,377.44,243.28Zm-4.07,0a2.5,2.5,0,0,0,.41,1.56,1.41,1.41,0,0,0,1.2.54,1.42,1.42,0,0,0,1.21-.54,3.15,3.15,0,0,0,0-3.11,1.45,1.45,0,0,0-1.22-.53,1.42,1.42,0,0,0-1.2.52A2.53,2.53,0,0,0,373.37,243.28Z" style="fill: #304041"/>
  </g>
  <g>
    <path d="M432.89,233H431l-3.1-5.4h-.05c.07.95.1,1.63.1,2V233h-1.36v-7.14h1.91l3.1,5.35h0c-.05-.93-.08-1.59-.08-2v-3.38h1.37Z" style="fill: #304041"/>
    <path d="M434.5,226.09c0-.49.27-.73.81-.73s.81.24.81.73a.69.69,0,0,1-.2.54.84.84,0,0,1-.61.19C434.77,226.82,434.5,226.58,434.5,226.09Zm1.56,6.87h-1.49V227.5h1.49Z" style="fill: #304041"/>
    <path d="M438.92,233l-2.08-5.46h1.55l1.06,3.11a5.4,5.4,0,0,1,.22,1.12h0a5.09,5.09,0,0,1,.22-1.12L441,227.5h1.56L440.45,233Z" style="fill: #304041"/>
    <path d="M445.78,233.06a2.83,2.83,0,0,1-2.06-.73,2.74,2.74,0,0,1-.74-2.06,3,3,0,0,1,.68-2.12,2.45,2.45,0,0,1,1.9-.75,2.4,2.4,0,0,1,1.8.66,2.48,2.48,0,0,1,.64,1.82v.72h-3.52a1.48,1.48,0,0,0,.38,1,1.31,1.31,0,0,0,1,.36,4.57,4.57,0,0,0,.93-.1,4.89,4.89,0,0,0,.92-.33v1.15a3.34,3.34,0,0,1-.84.29A4.78,4.78,0,0,1,445.78,233.06Zm-.21-4.6a.92.92,0,0,0-.74.3,1.34,1.34,0,0,0-.31.85h2.09a1.23,1.23,0,0,0-.29-.85A1,1,0,0,0,445.57,228.46Z" style="fill: #304041"/>
    <path d="M450.7,233h-1.48v-7.6h1.48Z" style="fill: #304041"/>
    <path d="M457.08,228.4a2.29,2.29,0,0,1,1.65.58,2.09,2.09,0,0,1,.61,1.59,2.28,2.28,0,0,1-.74,1.84,3.09,3.09,0,0,1-2.1.65,4.11,4.11,0,0,1-1.93-.39v-1.3a4.12,4.12,0,0,0,.9.33,3.82,3.82,0,0,0,1,.13c.92,0,1.38-.38,1.38-1.13s-.47-1.08-1.43-1.08a4.13,4.13,0,0,0-.57,0,3.37,3.37,0,0,0-.51.11l-.6-.32.27-3.64h3.87v1.28h-2.54l-.14,1.4.17,0A3.15,3.15,0,0,1,457.08,228.4Z" style="fill: #304041"/>
    <path d="M439.76,246l-.89-2.27H436l-.88,2.27h-.84l2.82-7.17h.7l2.81,7.17Zm-1.15-3-.83-2.21a9.77,9.77,0,0,1-.33-1,7.74,7.74,0,0,1-.31,1l-.84,2.21Zm-1.75-4.81c.16-.2.32-.45.5-.73a8.34,8.34,0,0,0,.43-.75h1v.1a9,9,0,0,1-.64.78,7.88,7.88,0,0,1-.74.72h-.54Z" style="fill: #304041"/>
    <path d="M445.86,240.61v.51l-1,.12a1.64,1.64,0,0,1,.24.44,1.81,1.81,0,0,1,.11.63,1.57,1.57,0,0,1-.54,1.25,2.18,2.18,0,0,1-1.47.47,2.15,2.15,0,0,1-.45,0,.79.79,0,0,0-.52.69.33.33,0,0,0,.18.32,1.31,1.31,0,0,0,.62.11H444a2.07,2.07,0,0,1,1.33.37,1.26,1.26,0,0,1,.47,1.06,1.55,1.55,0,0,1-.71,1.36,3.84,3.84,0,0,1-2.08.46,2.85,2.85,0,0,1-1.62-.39,1.26,1.26,0,0,1-.57-1.1,1.24,1.24,0,0,1,.31-.85,1.55,1.55,0,0,1,.88-.48.79.79,0,0,1-.34-.29.71.71,0,0,1-.14-.45.91.91,0,0,1,.15-.52,1.84,1.84,0,0,1,.5-.42,1.41,1.41,0,0,1-.68-.58,1.75,1.75,0,0,1-.26-.94,1.69,1.69,0,0,1,.53-1.35,2.14,2.14,0,0,1,1.49-.48,2.59,2.59,0,0,1,.76.1Zm-4.27,6.25a.72.72,0,0,0,.37.66,2,2,0,0,0,1.05.22,3,3,0,0,0,1.51-.3.94.94,0,0,0,.49-.83.65.65,0,0,0-.27-.6,2,2,0,0,0-1-.17h-1a1.3,1.3,0,0,0-.86.26A.94.94,0,0,0,441.59,246.86Zm.44-4.54a1.09,1.09,0,0,0,.32.85,1.26,1.26,0,0,0,.88.29,1,1,0,0,0,1.19-1.15,1.06,1.06,0,0,0-1.2-1.21,1.17,1.17,0,0,0-.88.31A1.21,1.21,0,0,0,442,242.32Z" style="fill: #304041"/>
    <path d="M446.89,239.16a.55.55,0,0,1,.13-.41.49.49,0,0,1,.35-.13.44.44,0,0,1,.33.13.64.64,0,0,1,0,.82.44.44,0,0,1-.33.13.49.49,0,0,1-.35-.13A.56.56,0,0,1,446.89,239.16Zm.88,6.8H447v-5.35h.81Z" style="fill: #304041"/>
    <path d="M450.3,246h-.81v-7.6h.81Z" style="fill: #304041"/>
  </g>
</svg>
