<svg id="Layer_1" data-name="Layer 1" xmlns="http://www.w3.org/2000/svg" viewBox="0 0 511 271">
  <title>stage3it</title>
  <path d="M15,13H496M15,47H496M15,81H496M15,115H496M15,149H496M15,183H496" style="fill: none;stroke: #d9d9d9;stroke-linejoin: round;stroke-width: 0.75px"/>
  <line x1="14.98" y1="217.01" x2="495.98" y2="217.01" style="fill: none;stroke: #d9d9d9;stroke-linejoin: round;stroke-width: 0.75px"/>
  <rect x="38.13" y="167.48" width="50.99" height="49.53" style="fill: #e3e2e3"/>
  <rect x="132.91" y="129.96" width="50.99" height="87.05" style="fill: #e3e2e3"/>
  <rect x="227.68" y="90.05" width="50.99" height="126.96" style="fill: #ebac7b"/>
  <rect x="322.45" y="51.05" width="50.99" height="165.95" style="fill: #e3e2e3"/>
  <rect x="417.23" y="13.01" width="50.99" height="204" style="fill: #e3e2e3"/>
  <g>
    <path d="M44.08,233v-7.14h1.51v5.89h2.89V233Z" style="fill: #304041"/>
    <path d="M49.54,226.09c0-.48.27-.73.81-.73s.81.25.81.73a.69.69,0,0,1-.2.54.84.84,0,0,1-.61.19C49.81,226.82,49.54,226.58,49.54,226.09ZM51.1,233H49.61V227.5H51.1Z" style="fill: #304041"/>
    <path d="M54,233l-2.08-5.46h1.56l1.05,3.11a5.52,5.52,0,0,1,.22,1.12h0a5.21,5.21,0,0,1,.22-1.12l1-3.11h1.56L55.49,233Z" style="fill: #304041"/>
    <path d="M60.82,233.06a2.79,2.79,0,0,1-2.06-.73,2.72,2.72,0,0,1-.74-2.06,3,3,0,0,1,.68-2.12,2.45,2.45,0,0,1,1.9-.75,2.4,2.4,0,0,1,1.8.66,2.5,2.5,0,0,1,.64,1.82v.72H59.52a1.44,1.44,0,0,0,.38,1,1.31,1.31,0,0,0,1,.36,4,4,0,0,0,.93-.1,4.89,4.89,0,0,0,.92-.33v1.15a3.34,3.34,0,0,1-.84.29A4.78,4.78,0,0,1,60.82,233.06Zm-.21-4.6a.92.92,0,0,0-.74.3,1.34,1.34,0,0,0-.31.85h2.09a1.23,1.23,0,0,0-.29-.85A1,1,0,0,0,60.61,228.46Z" style="fill: #304041"/>
    <path d="M65.74,233H64.26v-7.6h1.48Z" style="fill: #304041"/>
    <path d="M68.8,233H67.31v-7.6H68.8Z" style="fill: #304041"/>
    <path d="M75.32,230.22a2.94,2.94,0,0,1-.7,2.09,2.55,2.55,0,0,1-2,.75,2.73,2.73,0,0,1-1.39-.34,2.26,2.26,0,0,1-.92-1,3.26,3.26,0,0,1-.32-1.51,2.91,2.91,0,0,1,.7-2.08,2.57,2.57,0,0,1,2-.74,2.78,2.78,0,0,1,1.39.34,2.35,2.35,0,0,1,.92,1A3.38,3.38,0,0,1,75.32,230.22Zm-3.77,0a2.3,2.3,0,0,0,.26,1.23,1,1,0,0,0,.87.41.93.93,0,0,0,.86-.41,2.35,2.35,0,0,0,.26-1.23,2.19,2.19,0,0,0-.27-1.21.94.94,0,0,0-.86-.41,1,1,0,0,0-.86.4A2.24,2.24,0,0,0,71.55,230.22Z" style="fill: #304041"/>
    <path d="M82.5,233H81v-4.81l0-.74c-.25.25-.43.42-.52.49l-.82.66-.73-.91,2.3-1.83H82.5Z" style="fill: #304041"/>
    <path d="M52.92,244.06a1.74,1.74,0,0,1-.69,1.47,3,3,0,0,1-1.85.53,4.65,4.65,0,0,1-2-.33v-.8a4.87,4.87,0,0,0,1,.29,4.57,4.57,0,0,0,1,.11,2.08,2.08,0,0,0,1.25-.31,1,1,0,0,0,.42-.88,1.13,1.13,0,0,0-.15-.61,1.36,1.36,0,0,0-.5-.43,6.41,6.41,0,0,0-1.06-.46,3.5,3.5,0,0,1-1.43-.84,1.9,1.9,0,0,1-.42-1.28,1.55,1.55,0,0,1,.62-1.31,2.54,2.54,0,0,1,1.64-.49,4.86,4.86,0,0,1,2,.39l-.26.72a4.6,4.6,0,0,0-1.72-.37,1.64,1.64,0,0,0-1,.29.92.92,0,0,0-.37.78,1.23,1.23,0,0,0,.13.61,1.4,1.4,0,0,0,.46.44,6.1,6.1,0,0,0,1,.43,4,4,0,0,1,1.54.86A1.66,1.66,0,0,1,52.92,244.06Z" style="fill: #304041"/>
    <path d="M56,245.39a2.86,2.86,0,0,0,.42,0,1.44,1.44,0,0,0,.31-.07v.62a1.16,1.16,0,0,1-.38.11,2.68,2.68,0,0,1-.46,0c-1,0-1.56-.55-1.56-1.64v-3.18h-.76v-.39l.76-.34.34-1.14h.47v1.24h1.56v.63H55.12v3.15a1.09,1.09,0,0,0,.23.74A.83.83,0,0,0,56,245.39Z" style="fill: #304041"/>
    <path d="M61.08,246l-.17-.76h0a2.18,2.18,0,0,1-.79.68,2.45,2.45,0,0,1-1,.18,1.83,1.83,0,0,1-1.25-.41,1.49,1.49,0,0,1-.45-1.17c0-1.08.87-1.64,2.6-1.7l.9,0v-.33a1.36,1.36,0,0,0-.27-.93,1.11,1.11,0,0,0-.86-.3,3.62,3.62,0,0,0-1.52.41L58,241a4.77,4.77,0,0,1,.87-.34,3.81,3.81,0,0,1,.95-.12,2,2,0,0,1,1.41.43,1.75,1.75,0,0,1,.47,1.36V246Zm-1.84-.57a1.65,1.65,0,0,0,1.19-.41,1.55,1.55,0,0,0,.44-1.17v-.48l-.82,0a3.15,3.15,0,0,0-1.39.3.93.93,0,0,0-.43.83.83.83,0,0,0,.27.67A1.11,1.11,0,0,0,59.24,245.39Z" style="fill: #304041"/>
    <path d="M65.07,245.39a2.77,2.77,0,0,0,.42,0,1.73,1.73,0,0,0,.32-.07v.62a1.32,1.32,0,0,1-.39.11,2.68,2.68,0,0,1-.46,0c-1,0-1.56-.55-1.56-1.64v-3.18h-.76v-.39l.76-.34.35-1.14h.46v1.24h1.56v.63H64.21v3.15a1.09,1.09,0,0,0,.23.74A.83.83,0,0,0,65.07,245.39Z" style="fill: #304041"/>
    <path d="M66.81,239.16a.55.55,0,0,1,.13-.41.54.54,0,0,1,.35-.13.49.49,0,0,1,.33.13.67.67,0,0,1,0,.82.44.44,0,0,1-.33.13.49.49,0,0,1-.35-.13A.56.56,0,0,1,66.81,239.16Zm.88,6.8h-.81v-5.35h.81Z" style="fill: #304041"/>
    <path d="M71.54,246.06a2.29,2.29,0,0,1-1.8-.72,3,3,0,0,1-.63-2,3.06,3.06,0,0,1,.64-2.08,2.38,2.38,0,0,1,1.85-.73,3.44,3.44,0,0,1,.77.09,2.36,2.36,0,0,1,.6.19l-.24.69a4.55,4.55,0,0,0-.59-.18,2.44,2.44,0,0,0-.56-.07c-1.09,0-1.63.69-1.63,2.08a2.49,2.49,0,0,0,.39,1.51,1.37,1.37,0,0,0,1.18.53,3.49,3.49,0,0,0,1.38-.29v.72A2.89,2.89,0,0,1,71.54,246.06Z" style="fill: #304041"/>
    <path d="M78.79,243.28a3,3,0,0,1-.66,2.05,2.61,2.61,0,0,1-3.1.39,2.18,2.18,0,0,1-.86-1,3.43,3.43,0,0,1-.3-1.48,3,3,0,0,1,.65-2,2.34,2.34,0,0,1,1.82-.73,2.25,2.25,0,0,1,1.78.75A3,3,0,0,1,78.79,243.28Zm-4.08,0a2.48,2.48,0,0,0,.41,1.56,1.41,1.41,0,0,0,1.2.54,1.44,1.44,0,0,0,1.21-.53,2.51,2.51,0,0,0,.42-1.57,2.45,2.45,0,0,0-.42-1.55,1.66,1.66,0,0,0-2.42,0A2.53,2.53,0,0,0,74.71,243.28Z" style="fill: #304041"/>
  </g>
  <g>
    <path d="M140.15,233v-7.14h1.51v5.89h2.9V233Z" style="fill: #304041"/>
    <path d="M145.62,226.09c0-.48.27-.73.81-.73s.81.25.81.73a.73.73,0,0,1-.2.54.86.86,0,0,1-.61.19C145.89,226.82,145.62,226.58,145.62,226.09Zm1.55,6.87h-1.49V227.5h1.49Z" style="fill: #304041"/>
    <path d="M150,233,148,227.5h1.56l1.05,3.11a5.52,5.52,0,0,1,.22,1.12h0a5.21,5.21,0,0,1,.22-1.12l1.05-3.11h1.56L151.56,233Z" style="fill: #304041"/>
    <path d="M156.89,233.06a2.8,2.8,0,0,1-2.06-.73,2.76,2.76,0,0,1-.74-2.06,3.07,3.07,0,0,1,.68-2.12,2.45,2.45,0,0,1,1.9-.75,2.4,2.4,0,0,1,1.8.66,2.5,2.5,0,0,1,.65,1.82v.72H155.6a1.39,1.39,0,0,0,.37,1,1.34,1.34,0,0,0,1,.36,4,4,0,0,0,.93-.1,4.65,4.65,0,0,0,.92-.33v1.15a3.41,3.41,0,0,1-.83.29A4.88,4.88,0,0,1,156.89,233.06Zm-.21-4.6a1,1,0,0,0-.74.3,1.4,1.4,0,0,0-.31.85h2.09a1.23,1.23,0,0,0-.29-.85A1,1,0,0,0,156.68,228.46Z" style="fill: #304041"/>
    <path d="M161.82,233h-1.49v-7.6h1.49Z" style="fill: #304041"/>
    <path d="M164.87,233h-1.49v-7.6h1.49Z" style="fill: #304041"/>
    <path d="M171.39,230.22a2.94,2.94,0,0,1-.7,2.09,2.55,2.55,0,0,1-2,.75,2.72,2.72,0,0,1-1.38-.34,2.34,2.34,0,0,1-.93-1,3.39,3.39,0,0,1-.32-1.51,2.91,2.91,0,0,1,.7-2.08,2.57,2.57,0,0,1,2-.74,2.73,2.73,0,0,1,1.39.34,2.29,2.29,0,0,1,.92,1A3.25,3.25,0,0,1,171.39,230.22Zm-3.77,0a2.29,2.29,0,0,0,.27,1.23.92.92,0,0,0,.86.41.93.93,0,0,0,.86-.41,2.35,2.35,0,0,0,.26-1.23,2.29,2.29,0,0,0-.26-1.21,1.13,1.13,0,0,0-1.73,0A2.33,2.33,0,0,0,167.62,230.22Z" style="fill: #304041"/>
    <path d="M177.23,233h-5v-1.05l1.8-1.81c.53-.54.87-.92,1-1.13a2.48,2.48,0,0,0,.35-.58,1.54,1.54,0,0,0,.1-.56.83.83,0,0,0-.23-.64.93.93,0,0,0-.64-.21,1.77,1.77,0,0,0-.8.19,4.79,4.79,0,0,0-.82.54l-.82-1a5.42,5.42,0,0,1,.88-.63,3.07,3.07,0,0,1,.75-.29,3.76,3.76,0,0,1,.92-.1A2.73,2.73,0,0,1,176,226a1.94,1.94,0,0,1,.8.69,1.8,1.8,0,0,1,.28,1,2.4,2.4,0,0,1-.17.93,3.59,3.59,0,0,1-.54.89,13.39,13.39,0,0,1-1.28,1.29l-.92.86v.07h3.11Z" style="fill: #304041"/>
    <path d="M135.65,242.32a3.63,3.63,0,0,1-1,2.71,3.81,3.81,0,0,1-2.76.93h-2v-7.14h2.19a3.21,3.21,0,0,1,3.51,3.5Zm-.88,0a2.85,2.85,0,0,0-.7-2.1,2.82,2.82,0,0,0-2.08-.71h-1.21v5.7h1a3.08,3.08,0,0,0,2.24-.73A2.9,2.9,0,0,0,134.77,242.35Z" style="fill: #304041"/>
    <path d="M137.05,239.16a.55.55,0,0,1,.14-.41.49.49,0,0,1,.34-.13.53.53,0,0,1,.34.13.67.67,0,0,1,0,.82.48.48,0,0,1-.34.13.45.45,0,0,1-.34-.13A.56.56,0,0,1,137.05,239.16Zm.88,6.8h-.81v-5.35h.81Z" style="fill: #304041"/>
    <path d="M143.1,244.5a1.33,1.33,0,0,1-.55,1.15,2.66,2.66,0,0,1-1.57.41,3.34,3.34,0,0,1-1.66-.34V245a4.57,4.57,0,0,0,.83.31,3.74,3.74,0,0,0,.85.11,2,2,0,0,0,1-.2.67.67,0,0,0,.34-.62.65.65,0,0,0-.27-.53,4,4,0,0,0-1.06-.53,5.9,5.9,0,0,1-1.06-.48,1.43,1.43,0,0,1-.47-.48,1.22,1.22,0,0,1-.15-.63,1.21,1.21,0,0,1,.53-1,2.5,2.5,0,0,1,1.46-.38,4.34,4.34,0,0,1,1.69.35l-.29.66a3.89,3.89,0,0,0-1.46-.33,1.71,1.71,0,0,0-.87.18.57.57,0,0,0-.29.5.65.65,0,0,0,.11.37,1,1,0,0,0,.35.28,6.76,6.76,0,0,0,.94.4,3.44,3.44,0,0,1,1.29.7A1.23,1.23,0,0,1,143.1,244.5Z" style="fill: #304041"/>
    <path d="M146.56,246.06a2.28,2.28,0,0,1-1.8-.72,2.9,2.9,0,0,1-.64-2,3.07,3.07,0,0,1,.65-2.08,2.36,2.36,0,0,1,1.84-.73,3.31,3.31,0,0,1,.77.09,2.6,2.6,0,0,1,.61.19l-.25.69a4.39,4.39,0,0,0-.58-.18,2.52,2.52,0,0,0-.57-.07c-1.08,0-1.63.69-1.63,2.08a2.49,2.49,0,0,0,.4,1.51,1.37,1.37,0,0,0,1.18.53,3.45,3.45,0,0,0,1.37-.29v.72A2.87,2.87,0,0,1,146.56,246.06Z" style="fill: #304041"/>
    <path d="M153.8,243.28a3,3,0,0,1-.66,2.05,2.6,2.6,0,0,1-3.09.39,2.12,2.12,0,0,1-.86-1,3.29,3.29,0,0,1-.31-1.48,2.94,2.94,0,0,1,.66-2,2.32,2.32,0,0,1,1.81-.73,2.27,2.27,0,0,1,1.79.75A2.94,2.94,0,0,1,153.8,243.28Zm-4.08,0a2.55,2.55,0,0,0,.41,1.56,1.44,1.44,0,0,0,1.21.54,1.46,1.46,0,0,0,1.21-.53,2.58,2.58,0,0,0,.41-1.57,2.51,2.51,0,0,0-.41-1.55,1.46,1.46,0,0,0-1.22-.53,1.45,1.45,0,0,0-1.2.52A2.53,2.53,0,0,0,149.72,243.28Z" style="fill: #304041"/>
    <path d="M158.88,246V242.5a1.45,1.45,0,0,0-.29-1,1.24,1.24,0,0,0-.94-.32,1.52,1.52,0,0,0-1.23.46,2.27,2.27,0,0,0-.39,1.49V246h-.81v-5.35h.66l.13.73h0a1.67,1.67,0,0,1,.7-.61,2.19,2.19,0,0,1,1-.22,2,2,0,0,1,1.46.47,2,2,0,0,1,.48,1.49V246Z" style="fill: #304041"/>
    <path d="M165,246V242.5a1.4,1.4,0,0,0-.3-1,1.22,1.22,0,0,0-.93-.32,1.52,1.52,0,0,0-1.23.46,2.27,2.27,0,0,0-.39,1.49V246h-.81v-5.35H162l.13.73h0a1.67,1.67,0,0,1,.7-.61,2.19,2.19,0,0,1,1-.22,2,2,0,0,1,1.45.47,2,2,0,0,1,.49,1.49V246Z" style="fill: #304041"/>
    <path d="M169.76,246.06a2.45,2.45,0,0,1-1.87-.72,2.79,2.79,0,0,1-.69-2,3.1,3.1,0,0,1,.64-2.06,2.12,2.12,0,0,1,1.71-.76,2,2,0,0,1,1.59.66,2.57,2.57,0,0,1,.59,1.75v.51H168a2.13,2.13,0,0,0,.47,1.43,1.66,1.66,0,0,0,1.28.49,4.38,4.38,0,0,0,1.71-.36v.72a3.73,3.73,0,0,1-.82.27A4.77,4.77,0,0,1,169.76,246.06Zm-.22-4.87a1.33,1.33,0,0,0-1,.42,1.88,1.88,0,0,0-.45,1.16h2.8a1.76,1.76,0,0,0-.35-1.17A1.19,1.19,0,0,0,169.54,241.19Z" style="fill: #304041"/>
    <path d="M176.56,244.5a1.34,1.34,0,0,1-.56,1.15,2.61,2.61,0,0,1-1.56.41,3.34,3.34,0,0,1-1.66-.34V245a4.31,4.31,0,0,0,.83.31,3.67,3.67,0,0,0,.85.11,2,2,0,0,0,1-.2.69.69,0,0,0,.34-.62.65.65,0,0,0-.27-.53,4.2,4.2,0,0,0-1.06-.53,5.9,5.9,0,0,1-1.06-.48,1.43,1.43,0,0,1-.47-.48,1.22,1.22,0,0,1-.15-.63,1.19,1.19,0,0,1,.53-1,2.48,2.48,0,0,1,1.46-.38,4.37,4.37,0,0,1,1.69.35l-.29.66a3.89,3.89,0,0,0-1.46-.33,1.71,1.71,0,0,0-.87.18.55.55,0,0,0-.29.5.58.58,0,0,0,.11.37,1,1,0,0,0,.35.28,6.24,6.24,0,0,0,.94.4,3.38,3.38,0,0,1,1.28.7A1.2,1.2,0,0,1,176.56,244.5Z" style="fill: #304041"/>
    <path d="M181.33,244.5a1.34,1.34,0,0,1-.56,1.15,2.61,2.61,0,0,1-1.56.41,3.34,3.34,0,0,1-1.66-.34V245a4.31,4.31,0,0,0,.83.31,3.67,3.67,0,0,0,.85.11,2,2,0,0,0,1-.2.69.69,0,0,0,.34-.62.65.65,0,0,0-.27-.53,4.2,4.2,0,0,0-1.06-.53,5.9,5.9,0,0,1-1.06-.48,1.43,1.43,0,0,1-.47-.48,1.22,1.22,0,0,1-.15-.63,1.19,1.19,0,0,1,.53-1,2.48,2.48,0,0,1,1.46-.38,4.37,4.37,0,0,1,1.69.35l-.29.66a3.89,3.89,0,0,0-1.46-.33,1.71,1.71,0,0,0-.87.18.57.57,0,0,0-.29.5.58.58,0,0,0,.11.37,1,1,0,0,0,.35.28,6.24,6.24,0,0,0,.94.4,3.38,3.38,0,0,1,1.28.7A1.2,1.2,0,0,1,181.33,244.5Z" style="fill: #304041"/>
    <path d="M187.27,243.28a3,3,0,0,1-.66,2.05,2.61,2.61,0,0,1-3.1.39,2.24,2.24,0,0,1-.86-1,3.43,3.43,0,0,1-.3-1.48,3,3,0,0,1,.65-2,2.36,2.36,0,0,1,1.82-.73,2.28,2.28,0,0,1,1.79.75A2.94,2.94,0,0,1,187.27,243.28Zm-4.08,0a2.55,2.55,0,0,0,.41,1.56,1.42,1.42,0,0,0,1.21.54,1.46,1.46,0,0,0,1.21-.53,2.58,2.58,0,0,0,.41-1.57,2.51,2.51,0,0,0-.41-1.55,1.48,1.48,0,0,0-1.22-.53,1.45,1.45,0,0,0-1.2.52A2.53,2.53,0,0,0,183.19,243.28Z" style="fill: #304041"/>
  </g>
  <g>
    <path d="M233.62,233v-7.14h1.52v5.89H238V233Z" style="fill: #304041"/>
    <path d="M239.09,226.09c0-.48.27-.73.81-.73s.81.25.81.73a.69.69,0,0,1-.2.54.84.84,0,0,1-.61.19C239.36,226.82,239.09,226.58,239.09,226.09Zm1.56,6.87h-1.49V227.5h1.49Z" style="fill: #304041"/>
    <path d="M243.51,233l-2.08-5.46H243l1.06,3.11a5.52,5.52,0,0,1,.22,1.12h0a4.66,4.66,0,0,1,.22-1.12l1.05-3.11h1.56L245,233Z" style="fill: #304041"/>
    <path d="M250.37,233.06a2.79,2.79,0,0,1-2.06-.73,2.73,2.73,0,0,1-.75-2.06,3,3,0,0,1,.69-2.12,2.45,2.45,0,0,1,1.9-.75,2.4,2.4,0,0,1,1.8.66,2.5,2.5,0,0,1,.64,1.82v.72h-3.52a1.4,1.4,0,0,0,.38,1,1.31,1.31,0,0,0,1,.36,4,4,0,0,0,.93-.1,4.89,4.89,0,0,0,.92-.33v1.15a3.34,3.34,0,0,1-.84.29A4.78,4.78,0,0,1,250.37,233.06Zm-.21-4.6a1,1,0,0,0-.75.3,1.39,1.39,0,0,0-.3.85h2.09a1.28,1.28,0,0,0-.29-.85A1,1,0,0,0,250.16,228.46Z" style="fill: #304041"/>
    <path d="M255.29,233H253.8v-7.6h1.49Z" style="fill: #304041"/>
    <path d="M258.35,233h-1.49v-7.6h1.49Z" style="fill: #304041"/>
    <path d="M264.87,230.22a3,3,0,0,1-.7,2.09,2.57,2.57,0,0,1-2,.75,2.73,2.73,0,0,1-1.39-.34,2.26,2.26,0,0,1-.92-1,3.26,3.26,0,0,1-.32-1.51,3,3,0,0,1,.69-2.08,2.59,2.59,0,0,1,2-.74,2.72,2.72,0,0,1,1.38.34,2.38,2.38,0,0,1,.93,1A3.38,3.38,0,0,1,264.87,230.22Zm-3.78,0a2.29,2.29,0,0,0,.27,1.23,1,1,0,0,0,.87.41.92.92,0,0,0,.85-.41,2.24,2.24,0,0,0,.27-1.23,2.19,2.19,0,0,0-.27-1.21.94.94,0,0,0-.86-.41,1,1,0,0,0-.86.4A2.23,2.23,0,0,0,261.09,230.22Z" style="fill: #304041"/>
    <path d="M273,227.42a1.7,1.7,0,0,1-.41,1.14,2.14,2.14,0,0,1-1.13.64v0a2.23,2.23,0,0,1,1.3.53,1.44,1.44,0,0,1,.45,1.12,1.92,1.92,0,0,1-.75,1.61,3.46,3.46,0,0,1-2.13.57,5.11,5.11,0,0,1-2.06-.39v-1.28a4.65,4.65,0,0,0,.91.34,3.74,3.74,0,0,0,1,.13,1.92,1.92,0,0,0,1.1-.25.93.93,0,0,0,.36-.82.74.74,0,0,0-.41-.71,3.06,3.06,0,0,0-1.31-.21h-.54v-1.16H270a2.62,2.62,0,0,0,1.21-.21.79.79,0,0,0,.38-.75c0-.54-.34-.81-1-.81a2.31,2.31,0,0,0-.72.12,3.76,3.76,0,0,0-.81.4l-.69-1a3.85,3.85,0,0,1,2.33-.7,3,3,0,0,1,1.75.45A1.46,1.46,0,0,1,273,227.42Z" style="fill: #304041"/>
    <path d="M221.78,246v-7.14h.83V246Z" style="fill: #304041"/>
    <path d="M228.11,246V242.5a1.4,1.4,0,0,0-.3-1,1.23,1.23,0,0,0-.93-.32,1.52,1.52,0,0,0-1.23.46,2.27,2.27,0,0,0-.39,1.49V246h-.81v-5.35h.66l.13.73h0a1.58,1.58,0,0,1,.69-.61,2.23,2.23,0,0,1,1-.22,2,2,0,0,1,1.45.47,2,2,0,0,1,.49,1.49V246Z" style="fill: #304041"/>
    <path d="M236.46,246,234,239.63h0c.05.51.07,1.1.07,1.79V246h-.77v-7.14h1.25l2.26,5.89h0l2.28-5.89h1.24V246h-.83v-4.6c0-.53,0-1.1.07-1.72h0L237.13,246Z" style="fill: #304041"/>
    <path d="M246.83,243.28a3,3,0,0,1-.66,2.05,2.36,2.36,0,0,1-1.82.73,2.4,2.4,0,0,1-1.28-.34,2.24,2.24,0,0,1-.86-1,3.43,3.43,0,0,1-.3-1.48,2.94,2.94,0,0,1,.66-2,2.32,2.32,0,0,1,1.81-.73,2.27,2.27,0,0,1,1.79.75A2.94,2.94,0,0,1,246.83,243.28Zm-4.08,0a2.55,2.55,0,0,0,.41,1.56,1.44,1.44,0,0,0,1.21.54,1.46,1.46,0,0,0,1.21-.53,2.58,2.58,0,0,0,.41-1.57,2.51,2.51,0,0,0-.41-1.55,1.46,1.46,0,0,0-1.22-.53,1.45,1.45,0,0,0-1.2.52A2.53,2.53,0,0,0,242.75,243.28Z" style="fill: #304041"/>
    <path d="M249.42,246l-2-5.35h.87l1.15,3.17a14.38,14.38,0,0,1,.46,1.45h0c0-.17.15-.53.34-1.07s.62-1.73,1.28-3.55h.87l-2,5.35Z" style="fill: #304041"/>
    <path d="M253.19,239.16a.55.55,0,0,1,.14-.41.49.49,0,0,1,.34-.13.53.53,0,0,1,.34.13.67.67,0,0,1,0,.82.48.48,0,0,1-.34.13.45.45,0,0,1-.34-.13A.56.56,0,0,1,253.19,239.16Zm.88,6.8h-.81v-5.35h.81Z" style="fill: #304041"/>
    <path d="M262.61,246v-3.48a1.45,1.45,0,0,0-.27-1,1.09,1.09,0,0,0-.85-.32,1.37,1.37,0,0,0-1.12.44A2.05,2.05,0,0,0,260,243v3h-.81v-3.48a1.39,1.39,0,0,0-.28-1,1.06,1.06,0,0,0-.85-.32,1.32,1.32,0,0,0-1.12.46,2.49,2.49,0,0,0-.35,1.49V246h-.81v-5.35h.66l.13.73h0a1.6,1.6,0,0,1,.65-.61,2,2,0,0,1,.93-.22,1.6,1.6,0,0,1,1.64.91h0a1.69,1.69,0,0,1,.69-.66,2.11,2.11,0,0,1,1-.25A1.82,1.82,0,0,1,263,241a2.09,2.09,0,0,1,.45,1.49V246Z" style="fill: #304041"/>
    <path d="M267.35,246.06a2.46,2.46,0,0,1-1.87-.72,2.79,2.79,0,0,1-.69-2,3.1,3.1,0,0,1,.64-2.06,2.14,2.14,0,0,1,1.71-.76,2,2,0,0,1,1.59.66,2.57,2.57,0,0,1,.59,1.75v.51h-3.69a2.13,2.13,0,0,0,.48,1.43,1.62,1.62,0,0,0,1.27.49,4.3,4.3,0,0,0,1.71-.36v.72a3.84,3.84,0,0,1-.81.27A5,5,0,0,1,267.35,246.06Zm-.22-4.87a1.33,1.33,0,0,0-1,.42,2,2,0,0,0-.45,1.16h2.8a1.76,1.76,0,0,0-.34-1.17A1.22,1.22,0,0,0,267.13,241.19Z" style="fill: #304041"/>
    <path d="M274.36,246V242.5a1.45,1.45,0,0,0-.29-1,1.24,1.24,0,0,0-.94-.32,1.52,1.52,0,0,0-1.23.46,2.27,2.27,0,0,0-.39,1.49V246h-.81v-5.35h.66l.13.73h0a1.67,1.67,0,0,1,.7-.61,2.19,2.19,0,0,1,1-.22,2.07,2.07,0,0,1,1.46.47,2,2,0,0,1,.48,1.49V246Z" style="fill: #304041"/>
    <path d="M278.57,245.39a2.73,2.73,0,0,0,.41,0,1.56,1.56,0,0,0,.32-.07v.62a1.32,1.32,0,0,1-.39.11,2.6,2.6,0,0,1-.46,0c-1,0-1.55-.55-1.55-1.64v-3.18h-.77v-.39l.77-.34.34-1.14h.47v1.24h1.55v.63h-1.55v3.15a1,1,0,0,0,.23.74A.8.8,0,0,0,278.57,245.39Z" style="fill: #304041"/>
    <path d="M285,243.28a3,3,0,0,1-.66,2.05,2.61,2.61,0,0,1-3.1.39,2.24,2.24,0,0,1-.86-1,3.43,3.43,0,0,1-.3-1.48,2.94,2.94,0,0,1,.66-2,2.32,2.32,0,0,1,1.81-.73,2.27,2.27,0,0,1,1.79.75A2.94,2.94,0,0,1,285,243.28Zm-4.08,0a2.55,2.55,0,0,0,.41,1.56,1.42,1.42,0,0,0,1.21.54,1.46,1.46,0,0,0,1.21-.53,2.58,2.58,0,0,0,.41-1.57,2.51,2.51,0,0,0-.41-1.55,1.48,1.48,0,0,0-1.22-.53,1.45,1.45,0,0,0-1.2.52A2.53,2.53,0,0,0,280.91,243.28Z" style="fill: #304041"/>
  </g>
  <g>
    <path d="M328.4,233v-7.14h1.51v5.89h2.9V233Z" style="fill: #304041"/>
    <path d="M333.87,226.09c0-.48.27-.73.81-.73s.81.25.81.73a.73.73,0,0,1-.2.54.86.86,0,0,1-.61.19C334.14,226.82,333.87,226.58,333.87,226.09Zm1.55,6.87h-1.49V227.5h1.49Z" style="fill: #304041"/>
    <path d="M338.28,233l-2.08-5.46h1.56l1.05,3.11a5.52,5.52,0,0,1,.22,1.12h0a5.21,5.21,0,0,1,.22-1.12l1.05-3.11h1.56L339.81,233Z" style="fill: #304041"/>
    <path d="M345.14,233.06a2.8,2.8,0,0,1-2.06-.73,2.76,2.76,0,0,1-.74-2.06,3.07,3.07,0,0,1,.68-2.12,2.45,2.45,0,0,1,1.9-.75,2.4,2.4,0,0,1,1.8.66,2.5,2.5,0,0,1,.65,1.82v.72h-3.52a1.39,1.39,0,0,0,.37,1,1.34,1.34,0,0,0,1,.36,4,4,0,0,0,.93-.1,4.65,4.65,0,0,0,.92-.33v1.15a3.41,3.41,0,0,1-.83.29A4.88,4.88,0,0,1,345.14,233.06Zm-.21-4.6a1,1,0,0,0-.74.3,1.4,1.4,0,0,0-.31.85H346a1.23,1.23,0,0,0-.29-.85A1,1,0,0,0,344.93,228.46Z" style="fill: #304041"/>
    <path d="M350.07,233h-1.49v-7.6h1.49Z" style="fill: #304041"/>
    <path d="M353.12,233h-1.49v-7.6h1.49Z" style="fill: #304041"/>
    <path d="M359.64,230.22a2.94,2.94,0,0,1-.7,2.09,2.55,2.55,0,0,1-2,.75,2.72,2.72,0,0,1-1.38-.34,2.34,2.34,0,0,1-.93-1,3.39,3.39,0,0,1-.32-1.51,2.91,2.91,0,0,1,.7-2.08,2.57,2.57,0,0,1,2-.74,2.73,2.73,0,0,1,1.39.34,2.29,2.29,0,0,1,.92,1A3.25,3.25,0,0,1,359.64,230.22Zm-3.77,0a2.29,2.29,0,0,0,.27,1.23.92.92,0,0,0,.86.41.93.93,0,0,0,.86-.41,2.35,2.35,0,0,0,.26-1.23,2.29,2.29,0,0,0-.26-1.21,1.13,1.13,0,0,0-1.73,0A2.33,2.33,0,0,0,355.87,230.22Z" style="fill: #304041"/>
    <path d="M368.24,231.48h-.86V233h-1.47v-1.48h-3.05v-1l3.13-4.61h1.39v4.49h.86Zm-2.33-1.17V229.1c0-.2,0-.49,0-.88s0-.61,0-.67h0a5,5,0,0,1-.43.78l-1.31,2Z" style="fill: #304041"/>
    <path d="M321.86,244.06a1.76,1.76,0,0,1-.68,1.47,3,3,0,0,1-1.86.53,4.63,4.63,0,0,1-1.95-.33v-.8a4.49,4.49,0,0,0,1,.29,4.43,4.43,0,0,0,1,.11,2.06,2.06,0,0,0,1.25-.31,1,1,0,0,0,.42-.88,1.13,1.13,0,0,0-.15-.61,1.32,1.32,0,0,0-.49-.43,6.59,6.59,0,0,0-1.07-.46,3.45,3.45,0,0,1-1.42-.84,1.9,1.9,0,0,1-.43-1.28,1.58,1.58,0,0,1,.62-1.31,2.56,2.56,0,0,1,1.64-.49,4.83,4.83,0,0,1,2,.39l-.26.72a4.56,4.56,0,0,0-1.72-.37,1.66,1.66,0,0,0-1,.29,1,1,0,0,0-.37.78,1.22,1.22,0,0,0,.14.61,1.3,1.3,0,0,0,.46.44,6.33,6.33,0,0,0,1,.43,4.05,4.05,0,0,1,1.55.86A1.7,1.7,0,0,1,321.86,244.06Z" style="fill: #304041"/>
    <path d="M323.13,239.16a.55.55,0,0,1,.14-.41.49.49,0,0,1,.34-.13.53.53,0,0,1,.34.13.67.67,0,0,1,0,.82.48.48,0,0,1-.34.13.45.45,0,0,1-.34-.13A.56.56,0,0,1,323.13,239.16ZM324,246h-.81v-5.35H324Z" style="fill: #304041"/>
    <path d="M329.39,246V242.5a1.4,1.4,0,0,0-.3-1,1.22,1.22,0,0,0-.93-.32,1.52,1.52,0,0,0-1.23.46,2.27,2.27,0,0,0-.39,1.49V246h-.81v-5.35h.66l.13.73h0a1.67,1.67,0,0,1,.7-.61,2.19,2.19,0,0,1,1-.22,2,2,0,0,1,1.45.47,2,2,0,0,1,.49,1.49V246Z" style="fill: #304041"/>
    <path d="M334,246.06a2.26,2.26,0,0,1-1.8-.72,2.9,2.9,0,0,1-.64-2,3.07,3.07,0,0,1,.65-2.08,2.34,2.34,0,0,1,1.84-.73,3.37,3.37,0,0,1,.77.09,2.6,2.6,0,0,1,.61.19l-.25.69a4.55,4.55,0,0,0-.59-.18,2.44,2.44,0,0,0-.56-.07c-1.09,0-1.63.69-1.63,2.08a2.43,2.43,0,0,0,.4,1.51,1.36,1.36,0,0,0,1.18.53,3.48,3.48,0,0,0,1.37-.29v.72A2.87,2.87,0,0,1,334,246.06Z" style="fill: #304041"/>
    <path d="M339.07,240.51a3.1,3.1,0,0,1,.64.06l-.11.75a2.75,2.75,0,0,0-.59-.07,1.44,1.44,0,0,0-1.11.53,1.91,1.91,0,0,0-.46,1.31V246h-.81v-5.35h.67l.09,1h0a2.35,2.35,0,0,1,.72-.8A1.59,1.59,0,0,1,339.07,240.51Z" style="fill: #304041"/>
    <path d="M345.33,243.28a3,3,0,0,1-.66,2.05,2.36,2.36,0,0,1-1.82.73,2.4,2.4,0,0,1-1.28-.34,2.24,2.24,0,0,1-.86-1,3.43,3.43,0,0,1-.3-1.48,2.94,2.94,0,0,1,.66-2,2.32,2.32,0,0,1,1.81-.73,2.27,2.27,0,0,1,1.79.75A2.94,2.94,0,0,1,345.33,243.28Zm-4.08,0a2.55,2.55,0,0,0,.41,1.56,1.44,1.44,0,0,0,1.21.54,1.46,1.46,0,0,0,1.21-.53,2.58,2.58,0,0,0,.41-1.57,2.51,2.51,0,0,0-.41-1.55,1.46,1.46,0,0,0-1.22-.53,1.45,1.45,0,0,0-1.2.52A2.53,2.53,0,0,0,341.25,243.28Z" style="fill: #304041"/>
    <path d="M350.41,246V242.5a1.4,1.4,0,0,0-.3-1,1.22,1.22,0,0,0-.93-.32,1.52,1.52,0,0,0-1.23.46,2.27,2.27,0,0,0-.39,1.49V246h-.81v-5.35h.66l.13.73h0a1.67,1.67,0,0,1,.7-.61,2.19,2.19,0,0,1,1-.22,2,2,0,0,1,1.45.47,2,2,0,0,1,.49,1.49V246Z" style="fill: #304041"/>
    <path d="M352.82,239.16a.55.55,0,0,1,.14-.41.49.49,0,0,1,.34-.13.49.49,0,0,1,.33.13.64.64,0,0,1,0,.82.44.44,0,0,1-.33.13.45.45,0,0,1-.34-.13A.56.56,0,0,1,352.82,239.16Zm.88,6.8h-.81v-5.35h.81Z" style="fill: #304041"/>
    <path d="M358.84,246H355v-.55l2.92-4.17h-2.74v-.63h3.63v.63l-2.88,4.09h2.95Z" style="fill: #304041"/>
    <path d="M363.52,246h-3.88v-.55l2.92-4.17h-2.74v-.63h3.62v.63l-2.88,4.09h3Z" style="fill: #304041"/>
    <path d="M368.06,246l-.16-.76h0a2.18,2.18,0,0,1-.79.68,2.45,2.45,0,0,1-1,.18,1.81,1.81,0,0,1-1.25-.41,1.49,1.49,0,0,1-.45-1.17c0-1.08.87-1.64,2.59-1.7l.91,0v-.33a1.36,1.36,0,0,0-.27-.93,1.11,1.11,0,0,0-.86-.3,3.62,3.62,0,0,0-1.52.41L365,241a4.77,4.77,0,0,1,.87-.34,3.79,3.79,0,0,1,.94-.12,2,2,0,0,1,1.42.43,1.75,1.75,0,0,1,.46,1.36V246Zm-1.83-.57a1.67,1.67,0,0,0,1.19-.41,1.55,1.55,0,0,0,.43-1.17v-.48l-.81,0a3.12,3.12,0,0,0-1.39.3.91.91,0,0,0-.43.83.83.83,0,0,0,.27.67A1.09,1.09,0,0,0,366.23,245.39Z" style="fill: #304041"/>
    <path d="M372.06,245.39a2.86,2.86,0,0,0,.42,0,1.44,1.44,0,0,0,.31-.07v.62a1.16,1.16,0,0,1-.38.11,2.68,2.68,0,0,1-.46,0c-1,0-1.56-.55-1.56-1.64v-3.18h-.76v-.39l.76-.34.34-1.14h.47v1.24h1.56v.63H371.2v3.15a1.09,1.09,0,0,0,.23.74A.83.83,0,0,0,372.06,245.39Z" style="fill: #304041"/>
    <path d="M378.48,243.28a3,3,0,0,1-.66,2.05,2.6,2.6,0,0,1-3.09.39,2.18,2.18,0,0,1-.86-1,3.43,3.43,0,0,1-.3-1.48,2.94,2.94,0,0,1,.65-2,2.34,2.34,0,0,1,1.82-.73,2.25,2.25,0,0,1,1.78.75A2.94,2.94,0,0,1,378.48,243.28Zm-4.07,0a2.48,2.48,0,0,0,.41,1.56,1.41,1.41,0,0,0,1.2.54,1.44,1.44,0,0,0,1.21-.53,2.51,2.51,0,0,0,.41-1.57,2.45,2.45,0,0,0-.41-1.55,1.66,1.66,0,0,0-2.42,0A2.53,2.53,0,0,0,374.41,243.28Z" style="fill: #304041"/>
  </g>
  <g>
    <path d="M423.17,233v-7.14h1.52v5.89h2.89V233Z" style="fill: #304041"/>
    <path d="M428.64,226.09c0-.48.27-.73.81-.73s.81.25.81.73a.69.69,0,0,1-.2.54.86.86,0,0,1-.61.19C428.91,226.82,428.64,226.58,428.64,226.09Zm1.55,6.87H428.7V227.5h1.49Z" style="fill: #304041"/>
    <path d="M433.06,233,431,227.5h1.55l1.06,3.11a6.31,6.31,0,0,1,.22,1.12h0a4.66,4.66,0,0,1,.22-1.12l1.05-3.11h1.55L434.58,233Z" style="fill: #304041"/>
    <path d="M439.92,233.06a2.79,2.79,0,0,1-2.06-.73,2.73,2.73,0,0,1-.75-2.06,3,3,0,0,1,.69-2.12,2.45,2.45,0,0,1,1.9-.75,2.4,2.4,0,0,1,1.8.66,2.5,2.5,0,0,1,.64,1.82v.72h-3.52a1.4,1.4,0,0,0,.38,1,1.3,1.3,0,0,0,1,.36,4.11,4.11,0,0,0,.94-.1,4.57,4.57,0,0,0,.91-.33v1.15a3.26,3.26,0,0,1-.83.29A4.84,4.84,0,0,1,439.92,233.06Zm-.21-4.6a1,1,0,0,0-.75.3,1.39,1.39,0,0,0-.3.85h2.09a1.28,1.28,0,0,0-.29-.85A1,1,0,0,0,439.71,228.46Z" style="fill: #304041"/>
    <path d="M444.84,233h-1.49v-7.6h1.49Z" style="fill: #304041"/>
    <path d="M447.89,233h-1.48v-7.6h1.48Z" style="fill: #304041"/>
    <path d="M454.42,230.22a2.94,2.94,0,0,1-.71,2.09,2.53,2.53,0,0,1-1.95.75,2.73,2.73,0,0,1-1.39-.34,2.26,2.26,0,0,1-.92-1,3.26,3.26,0,0,1-.33-1.51,3,3,0,0,1,.7-2.08,2.59,2.59,0,0,1,2-.74,2.72,2.72,0,0,1,1.38.34,2.38,2.38,0,0,1,.93,1A3.38,3.38,0,0,1,454.42,230.22Zm-3.78,0a2.29,2.29,0,0,0,.27,1.23,1,1,0,0,0,.87.41.92.92,0,0,0,.85-.41,2.25,2.25,0,0,0,.26-1.23,2.2,2.2,0,0,0-.26-1.21,1.12,1.12,0,0,0-1.72,0A2.23,2.23,0,0,0,450.64,230.22Z" style="fill: #304041"/>
    <path d="M460.46,228.4a2.34,2.34,0,0,1,1.65.58,2.09,2.09,0,0,1,.61,1.59,2.3,2.3,0,0,1-.73,1.84,3.13,3.13,0,0,1-2.11.65,4.11,4.11,0,0,1-1.93-.39v-1.3a3.66,3.66,0,0,0,.9.33,3.82,3.82,0,0,0,1,.13c.92,0,1.38-.37,1.38-1.13s-.47-1.08-1.43-1.08a4.13,4.13,0,0,0-.57,0,5,5,0,0,0-.5.11l-.61-.32.27-3.64h3.88v1.28h-2.55l-.14,1.4.18,0A3,3,0,0,1,460.46,228.4Z" style="fill: #304041"/>
    <path d="M437,246l-.88-2.27H433.2l-.87,2.27h-.84l2.82-7.17h.7l2.8,7.17Zm-1.14-3-.83-2.21a9.77,9.77,0,0,1-.33-1c-.08.31-.18.66-.31,1l-.84,2.21Z" style="fill: #304041"/>
    <path d="M443.05,240.61v.51l-1,.12a1.57,1.57,0,0,1,.25.45,1.72,1.72,0,0,1,.1.62,1.56,1.56,0,0,1-.53,1.25A2.56,2.56,0,0,1,440,244a.82.82,0,0,0-.51.69.35.35,0,0,0,.18.33,1.31,1.31,0,0,0,.62.1h.94a2.1,2.1,0,0,1,1.34.37,1.27,1.27,0,0,1,.47,1.06,1.51,1.51,0,0,1-.72,1.36,3.82,3.82,0,0,1-2.08.46,2.85,2.85,0,0,1-1.62-.39,1.25,1.25,0,0,1-.57-1.1,1.2,1.2,0,0,1,.32-.84,1.62,1.62,0,0,1,.88-.49.88.88,0,0,1-.35-.29.77.77,0,0,1-.14-.45.8.8,0,0,1,.16-.51,1.64,1.64,0,0,1,.49-.43,1.44,1.44,0,0,1-.67-.58,1.65,1.65,0,0,1-.27-.94A1.74,1.74,0,0,1,439,241a2.15,2.15,0,0,1,1.5-.48,2.84,2.84,0,0,1,.75.1Zm-4.26,6.25a.73.73,0,0,0,.36.66,2.05,2.05,0,0,0,1.05.22,3,3,0,0,0,1.51-.3.93.93,0,0,0,.49-.83.66.66,0,0,0-.26-.6,2.14,2.14,0,0,0-1-.17h-1a1.32,1.32,0,0,0-.86.26A1,1,0,0,0,438.79,246.86Zm.44-4.54a1.08,1.08,0,0,0,.31.85,1.24,1.24,0,0,0,.89.29,1,1,0,0,0,1.18-1.15,1.07,1.07,0,0,0-1.2-1.21,1.22,1.22,0,0,0-.88.31A1.26,1.26,0,0,0,439.23,242.32Z" style="fill: #304041"/>
    <path d="M444.08,239.16a.55.55,0,0,1,.14-.41.51.51,0,0,1,.34-.13.53.53,0,0,1,.34.13.67.67,0,0,1,0,.82.48.48,0,0,1-.34.13.47.47,0,0,1-.34-.13A.56.56,0,0,1,444.08,239.16ZM445,246h-.81v-5.35H445Z" style="fill: #304041"/>
    <path d="M447.49,246h-.81v-7.6h.81Z" style="fill: #304041"/>
    <path d="M451.47,246.06a2.46,2.46,0,0,1-1.87-.72,2.79,2.79,0,0,1-.69-2,3.1,3.1,0,0,1,.64-2.06,2.14,2.14,0,0,1,1.71-.76,2,2,0,0,1,1.59.66,2.57,2.57,0,0,1,.59,1.75v.51h-3.69a2.13,2.13,0,0,0,.48,1.43,1.62,1.62,0,0,0,1.27.49,4.3,4.3,0,0,0,1.71-.36v.72a3.84,3.84,0,0,1-.81.27A5,5,0,0,1,451.47,246.06Zm-.22-4.87a1.33,1.33,0,0,0-1,.42,2,2,0,0,0-.45,1.16h2.8a1.76,1.76,0,0,0-.34-1.17A1.22,1.22,0,0,0,451.25,241.19Z" style="fill: #304041"/>
  </g>
</svg>
