<svg xmlns="http://www.w3.org/2000/svg" viewBox="0 0 511 271">
  <title>telecommunications_leadership</title>
  <g style="opacity: 0.1">
    <polyline points="63.88 180.17 159.88 46.17 256.88 189.17 352.88 176.17 449.88 216.17" style="fill: none;stroke: #304041;stroke-linecap: round;stroke-linejoin: round;stroke-width: 2.25px"/>
  </g>
  <polyline points="63.88 168.17 159.88 34.17 256.88 177.17 352.88 164.17 449.88 204.17" style="fill: none;stroke: #304041;stroke-linecap: round;stroke-linejoin: round;stroke-width: 2.25px"/>
  <g>
    <path d="M27.24,155.73h-3V147.5l0-1.35,0-1.48c-.5.5-.85.83-1,1L21.63,147l-1.45-1.81,4.59-3.65h2.47Z" style="fill: #314041"/>
    <path d="M41.44,152.78H39.72v2.95H36.79v-2.95H30.72v-2.09L37,141.51h2.77v8.94h1.72Zm-4.65-2.33V148c0-.4,0-1,.05-1.75s0-1.21.07-1.34h-.07a10.45,10.45,0,0,1-.87,1.56l-2.61,3.94Z" style="fill: #314041"/>
    <path d="M49.12,145.75a5.51,5.51,0,0,1-.86,3.36,3,3,0,0,1-2.54,1.13,2.93,2.93,0,0,1-2.48-1.16,5.39,5.39,0,0,1-.88-3.33q0-4.44,3.36-4.44a3,3,0,0,1,2.52,1.15A5.32,5.32,0,0,1,49.12,145.75Zm-4.31,0a5.61,5.61,0,0,0,.22,1.84c.15.41.38.61.71.61.62,0,.93-.81.93-2.45s-.31-2.43-.93-2.43c-.33,0-.56.2-.71.6A5.58,5.58,0,0,0,44.81,145.77Zm11-4.26-7.89,14.22H45.59l7.89-14.22Zm3.27,9.92a5.41,5.41,0,0,1-.87,3.35,3,3,0,0,1-2.53,1.13,3,3,0,0,1-2.49-1.16,5.43,5.43,0,0,1-.87-3.32q0-4.44,3.36-4.44a3,3,0,0,1,2.52,1.15A5.32,5.32,0,0,1,59.08,151.43Zm-4.31,0a5.65,5.65,0,0,0,.22,1.84c.15.41.38.61.7.61.63,0,.94-.81.94-2.45s-.31-2.43-.94-2.43c-.32,0-.55.2-.7.6A5.58,5.58,0,0,0,54.77,151.45Z" style="fill: #314041"/>
  </g>
  <g>
    <path d="M178,29a4.57,4.57,0,0,1,3.28,1.15,4.14,4.14,0,0,1,1.22,3.17A4.62,4.62,0,0,1,181,36.94a6.17,6.17,0,0,1-4.2,1.28,8.25,8.25,0,0,1-3.83-.76v-2.6a8,8,0,0,0,1.79.66,7.57,7.57,0,0,0,1.94.26c1.83,0,2.75-.75,2.75-2.25s-1-2.15-2.85-2.15a6.77,6.77,0,0,0-1.14.1,8,8,0,0,0-1,.22l-1.2-.64.54-7.25h7.71v2.55H176.4l-.26,2.79.34-.07A6.85,6.85,0,0,1,178,29Z" style="fill: #314041"/>
    <path d="M194.41,35.08h-1.72v3h-2.93v-3h-6.07V33l6.23-9.18h2.77v8.94h1.72Zm-4.65-2.33V30.34c0-.41,0-1,0-1.75s.06-1.21.08-1.34h-.08a10.9,10.9,0,0,1-.86,1.56l-2.61,3.94Z" style="fill: #314041"/>
    <path d="M202.09,28.05a5.44,5.44,0,0,1-.87,3.36,3,3,0,0,1-2.54,1.12,2.91,2.91,0,0,1-2.47-1.15,5.39,5.39,0,0,1-.88-3.33q0-4.44,3.35-4.44a3,3,0,0,1,2.53,1.15A5.3,5.3,0,0,1,202.09,28.05Zm-4.31,0a5.65,5.65,0,0,0,.22,1.84c.14.41.38.61.7.61.63,0,.94-.82.94-2.45s-.31-2.43-.94-2.43c-.32,0-.56.2-.7.6A5.58,5.58,0,0,0,197.78,28.07Zm11-4.26L200.89,38h-2.33l7.89-14.22Zm3.27,9.92a5.41,5.41,0,0,1-.87,3.35,3,3,0,0,1-2.54,1.12,2.93,2.93,0,0,1-2.48-1.15,5.43,5.43,0,0,1-.87-3.32q0-4.44,3.35-4.44a3,3,0,0,1,2.53,1.15A5.3,5.3,0,0,1,212.05,33.73Zm-4.31,0a5.65,5.65,0,0,0,.22,1.84c.14.41.38.61.7.61.63,0,.94-.82.94-2.45s-.31-2.43-.94-2.43c-.32,0-.56.2-.7.6A5.58,5.58,0,0,0,207.74,33.75Z" style="fill: #314041"/>
  </g>
  <g>
    <path d="M257.35,162.11h-3v-8.22l0-1.36.05-1.47c-.5.49-.85.82-1,1l-1.64,1.31-1.45-1.81,4.59-3.65h2.46Z" style="fill: #314041"/>
    <path d="M271.23,162.11h-9.94V160l3.57-3.61a30,30,0,0,0,2.07-2.25,5,5,0,0,0,.71-1.16,3,3,0,0,0,.21-1.11,1.62,1.62,0,0,0-.47-1.27,1.84,1.84,0,0,0-1.26-.42,3.69,3.69,0,0,0-1.61.38,7.86,7.86,0,0,0-1.62,1.08l-1.63-1.94a10.6,10.6,0,0,1,1.74-1.26,6.13,6.13,0,0,1,1.5-.57,8,8,0,0,1,1.83-.2,5.35,5.35,0,0,1,2.36.49,3.69,3.69,0,0,1,1.58,1.36,3.57,3.57,0,0,1,.57,2,4.86,4.86,0,0,1-.35,1.84,7,7,0,0,1-1.07,1.77,26.39,26.39,0,0,1-2.55,2.58L265,159.45v.13h6.19Z" style="fill: #314041"/>
    <path d="M279.24,152.13a5.4,5.4,0,0,1-.87,3.36,3,3,0,0,1-2.54,1.13,3,3,0,0,1-2.48-1.15,5.47,5.47,0,0,1-.87-3.34q0-4.44,3.35-4.44a3,3,0,0,1,2.53,1.15A5.39,5.39,0,0,1,279.24,152.13Zm-4.31,0a5.72,5.72,0,0,0,.22,1.85c.14.4.38.6.7.6.63,0,.94-.81.94-2.45s-.31-2.43-.94-2.43c-.32,0-.56.2-.7.6A5.58,5.58,0,0,0,274.93,152.15Zm11-4.26L278,162.11h-2.33l7.89-14.22Zm3.27,9.92a5.39,5.39,0,0,1-.87,3.35,3,3,0,0,1-2.54,1.13,3,3,0,0,1-2.48-1.15,5.46,5.46,0,0,1-.87-3.33q0-4.44,3.35-4.44a3,3,0,0,1,2.53,1.15A5.39,5.39,0,0,1,289.2,157.81Zm-4.31,0a5.72,5.72,0,0,0,.22,1.85c.14.4.38.6.7.6.63,0,.94-.81.94-2.45s-.31-2.43-.94-2.43c-.32,0-.56.2-.7.6A5.58,5.58,0,0,0,284.89,157.83Z" style="fill: #314041"/>
  </g>
  <g>
    <path d="M340.76,149.67h-3v-8.23l0-1.35,0-1.48c-.5.5-.85.83-1,1l-1.64,1.31-1.45-1.8,4.59-3.65h2.46Z" style="fill: #314041"/>
    <path d="M344.61,143.63c0-2.82.59-4.91,1.78-6.29a6.7,6.7,0,0,1,5.35-2.06,9.37,9.37,0,0,1,1.9.15v2.4a7.79,7.79,0,0,0-1.71-.19,5.88,5.88,0,0,0-2.52.46,3.18,3.18,0,0,0-1.47,1.38,6.47,6.47,0,0,0-.57,2.6h.13a3.3,3.3,0,0,1,3.08-1.65,3.81,3.81,0,0,1,3,1.19,4.76,4.76,0,0,1,1.08,3.31,4.92,4.92,0,0,1-1.28,3.6,4.71,4.71,0,0,1-3.56,1.33,5.07,5.07,0,0,1-2.75-.73,4.71,4.71,0,0,1-1.81-2.13A8.17,8.17,0,0,1,344.61,143.63Zm5.13,3.83a1.79,1.79,0,0,0,1.48-.65,2.9,2.9,0,0,0,.52-1.84,2.51,2.51,0,0,0-.49-1.64,1.74,1.74,0,0,0-1.45-.6,2.21,2.21,0,0,0-1.56.6,1.81,1.81,0,0,0-.65,1.38,3.15,3.15,0,0,0,.61,1.95A1.88,1.88,0,0,0,349.74,147.46Z" style="fill: #314041"/>
    <path d="M362.65,139.69a5.44,5.44,0,0,1-.87,3.36,3,3,0,0,1-2.54,1.12,3,3,0,0,1-2.48-1.15,5.46,5.46,0,0,1-.87-3.33c0-3,1.12-4.45,3.35-4.45a3,3,0,0,1,2.53,1.16A5.35,5.35,0,0,1,362.65,139.69Zm-4.31,0a5.65,5.65,0,0,0,.22,1.84c.14.41.38.61.7.61.63,0,.94-.82.94-2.45s-.31-2.43-.94-2.43a.75.75,0,0,0-.7.59A5.61,5.61,0,0,0,358.34,139.71Zm11-4.26-7.89,14.22h-2.33L367,135.45Zm3.27,9.92a5.43,5.43,0,0,1-.87,3.35,3,3,0,0,1-2.54,1.12,2.93,2.93,0,0,1-2.48-1.15,5.45,5.45,0,0,1-.87-3.32c0-3,1.12-4.45,3.35-4.45a3,3,0,0,1,2.53,1.16A5.35,5.35,0,0,1,372.61,145.37Zm-4.31,0a5.65,5.65,0,0,0,.22,1.84c.14.41.38.61.7.61.63,0,.94-.82.94-2.45s-.31-2.43-.94-2.43a.75.75,0,0,0-.7.59A5.61,5.61,0,0,0,368.3,145.39Z" style="fill: #314041"/>
  </g>
  <g>
    <path d="M446.28,185.85h-1.71v3h-2.94v-3h-6.07v-2.09l6.24-9.18h2.77v8.94h1.71Zm-4.65-2.33v-2.41c0-.4,0-1,.05-1.75s.06-1.21.08-1.34h-.08a10.45,10.45,0,0,1-.87,1.56l-2.6,3.94Z" style="fill: #314041"/>
    <path d="M454,178.82a5.44,5.44,0,0,1-.86,3.36,3,3,0,0,1-2.54,1.13,2.93,2.93,0,0,1-2.48-1.16,5.44,5.44,0,0,1-.88-3.33q0-4.44,3.36-4.44a3,3,0,0,1,2.52,1.15A5.32,5.32,0,0,1,454,178.82Zm-4.3,0a6.07,6.07,0,0,0,.21,1.85c.15.4.39.6.71.6.62,0,.93-.81.93-2.45s-.31-2.43-.93-2.43c-.32,0-.56.2-.71.6A5.92,5.92,0,0,0,449.66,178.84Zm11-4.26-7.89,14.22h-2.34l7.89-14.22Zm3.26,9.92a5.41,5.41,0,0,1-.86,3.35,3,3,0,0,1-2.54,1.13,2.93,2.93,0,0,1-2.48-1.16,5.41,5.41,0,0,1-.88-3.32q0-4.44,3.36-4.44a3,3,0,0,1,2.52,1.15A5.32,5.32,0,0,1,463.92,184.5Zm-4.31,0a5.89,5.89,0,0,0,.22,1.84c.15.41.38.61.71.61.62,0,.93-.81.93-2.45s-.31-2.43-.93-2.43c-.33,0-.56.2-.71.6A5.87,5.87,0,0,0,459.61,184.52Z" style="fill: #314041"/>
  </g>
  <circle cx="63.88" cy="168.17" r="6.06" style="fill: #fff;stroke: #304041;stroke-linecap: round;stroke-linejoin: round;stroke-width: 2.25px"/>
  <circle cx="160.69" cy="34.17" r="6.06" style="fill: #fff;stroke: #304041;stroke-linecap: round;stroke-linejoin: round;stroke-width: 2.25px"/>
  <circle cx="256.88" cy="176.93" r="6.06" style="fill: #fff;stroke: #304041;stroke-linecap: round;stroke-linejoin: round;stroke-width: 2.25px"/>
  <circle cx="352.88" cy="164.17" r="6.06" style="fill: #fff;stroke: #304041;stroke-linecap: round;stroke-linejoin: round;stroke-width: 2.25px"/>
  <circle cx="449.88" cy="204.17" r="6.06" style="fill: #fff;stroke: #304041;stroke-linecap: round;stroke-linejoin: round;stroke-width: 2.25px"/>
</svg>
