<svg xmlns="http://www.w3.org/2000/svg" viewBox="0 0 511 271">
  <title>telecommunications_technology</title>
  <g style="opacity: 0.1">
    <polyline points="63.88 225.17 159.88 140.17 256.88 167.17 352.88 109.17 449.88 167.17" style="fill: none;stroke: #304041;stroke-linecap: round;stroke-linejoin: round;stroke-width: 2.25px"/>
  </g>
  <polyline points="63.88 213.17 159.88 128.17 256.88 155.17 352.88 97.17 449.88 155.17" style="fill: none;stroke: #304041;stroke-linecap: round;stroke-linejoin: round;stroke-width: 2.25px"/>
  <g>
    <path d="M32.92,202.46h-3v-8.22l0-1.36,0-1.47a13.26,13.26,0,0,1-1,1l-1.63,1.31-1.45-1.81,4.58-3.64h2.47Z" style="fill: #314041"/>
    <path d="M43.44,192.49a5.44,5.44,0,0,1-.87,3.36A3,3,0,0,1,40,197a2.93,2.93,0,0,1-2.48-1.15,5.46,5.46,0,0,1-.87-3.33Q36.68,188,40,188a3,3,0,0,1,2.53,1.15A5.4,5.4,0,0,1,43.44,192.49Zm-4.31,0a5.69,5.69,0,0,0,.22,1.84c.14.4.38.61.7.61.62,0,.93-.82.93-2.45s-.31-2.44-.93-2.44c-.32,0-.56.2-.7.6A5.61,5.61,0,0,0,39.13,192.51Zm11-4.26-7.89,14.21H39.91l7.88-14.21Zm3.26,9.92a5.43,5.43,0,0,1-.86,3.35A3,3,0,0,1,50,202.64a2.92,2.92,0,0,1-2.48-1.15,5.45,5.45,0,0,1-.87-3.32c0-3,1.11-4.45,3.35-4.45a3,3,0,0,1,2.52,1.15A5.34,5.34,0,0,1,53.39,198.17Zm-4.3,0A6.07,6.07,0,0,0,49.3,200c.15.4.39.61.71.61q.93,0,.93-2.46T50,195.75c-.32,0-.56.2-.71.6A5.92,5.92,0,0,0,49.09,198.18Z" style="fill: #314041"/>
  </g>
  <g>
    <path d="M150.27,110.68h-9.94v-2.09L143.9,105c1.06-1.08,1.75-1.83,2.08-2.25a5.33,5.33,0,0,0,.7-1.16,3,3,0,0,0,.21-1.11,1.62,1.62,0,0,0-.47-1.27,1.84,1.84,0,0,0-1.26-.42,3.69,3.69,0,0,0-1.61.38,8.13,8.13,0,0,0-1.62,1.08l-1.63-1.94A10.6,10.6,0,0,1,142,97a6.13,6.13,0,0,1,1.5-.57,8,8,0,0,1,1.83-.2,5.35,5.35,0,0,1,2.36.49,3.64,3.64,0,0,1,1.58,1.36,3.57,3.57,0,0,1,.57,2,4.86,4.86,0,0,1-.35,1.84,7,7,0,0,1-1.07,1.77,26.39,26.39,0,0,1-2.55,2.58L144.08,108v.13h6.19Z" style="fill: #314041"/>
    <path d="M151.61,104.64q0-4.22,1.78-6.28a6.7,6.7,0,0,1,5.35-2.06,10.31,10.31,0,0,1,1.9.14v2.41a7.81,7.81,0,0,0-1.71-.2,5.87,5.87,0,0,0-2.52.47,3.18,3.18,0,0,0-1.47,1.38,6.43,6.43,0,0,0-.57,2.6h.13a3.29,3.29,0,0,1,3.08-1.66,3.79,3.79,0,0,1,3,1.2,4.76,4.76,0,0,1,1.08,3.31,4.94,4.94,0,0,1-1.28,3.6,4.74,4.74,0,0,1-3.56,1.33,5.15,5.15,0,0,1-2.75-.73,4.82,4.82,0,0,1-1.81-2.13A8.22,8.22,0,0,1,151.61,104.64Zm5.13,3.83a1.78,1.78,0,0,0,1.48-.64,2.92,2.92,0,0,0,.52-1.84,2.49,2.49,0,0,0-.49-1.64,1.74,1.74,0,0,0-1.45-.6,2.24,2.24,0,0,0-1.56.59,1.84,1.84,0,0,0-.65,1.38,3.18,3.18,0,0,0,.61,2A1.87,1.87,0,0,0,156.74,108.47Z" style="fill: #314041"/>
    <path d="M169.65,100.7a5.4,5.4,0,0,1-.87,3.36,3.33,3.33,0,0,1-5,0,5.47,5.47,0,0,1-.87-3.34q0-4.44,3.35-4.44a3,3,0,0,1,2.53,1.15A5.39,5.39,0,0,1,169.65,100.7Zm-4.31,0a5.72,5.72,0,0,0,.22,1.85c.14.4.38.61.7.61.63,0,.94-.82.94-2.46s-.31-2.43-.94-2.43c-.32,0-.56.2-.7.6A5.58,5.58,0,0,0,165.34,100.72Zm11-4.26-7.89,14.22h-2.33L174,96.46Zm3.27,9.92a5.39,5.39,0,0,1-.87,3.35,3,3,0,0,1-2.54,1.13,3,3,0,0,1-2.48-1.15,5.46,5.46,0,0,1-.87-3.33q0-4.44,3.35-4.44a3,3,0,0,1,2.53,1.15A5.39,5.39,0,0,1,179.61,106.38Zm-4.31,0a5.72,5.72,0,0,0,.22,1.85c.14.4.38.6.7.6.63,0,.94-.81.94-2.45s-.31-2.43-.94-2.43c-.32,0-.56.2-.7.6A5.58,5.58,0,0,0,175.3,106.4Z" style="fill: #314041"/>
  </g>
  <g>
    <path d="M238.21,141.28h-3v-8.23l0-1.35.05-1.48c-.5.5-.85.83-1,1l-1.64,1.31-1.44-1.8,4.58-3.65h2.47Z" style="fill: #314041"/>
    <path d="M247.05,126.87a5.37,5.37,0,0,1,3.29.93,3,3,0,0,1,1.25,2.51,3.3,3.3,0,0,1-.6,1.94,5.28,5.28,0,0,1-2,1.52,6.87,6.87,0,0,1,2.29,1.78,3.3,3.3,0,0,1,.7,2,3.4,3.4,0,0,1-1.37,2.82,5.74,5.74,0,0,1-3.61,1.06,6,6,0,0,1-3.67-1,3.29,3.29,0,0,1-1.33-2.81,3.67,3.67,0,0,1,.65-2.16,5.35,5.35,0,0,1,2.07-1.66A5.39,5.39,0,0,1,243,132.2a3.55,3.55,0,0,1-.53-1.91,2.94,2.94,0,0,1,1.26-2.47A5.36,5.36,0,0,1,247.05,126.87Zm-2.22,10.62a1.58,1.58,0,0,0,.58,1.31,3.08,3.08,0,0,0,3.27,0,1.6,1.6,0,0,0,.56-1.27,1.77,1.77,0,0,0-.55-1.22,7.29,7.29,0,0,0-1.79-1.21C245.52,135.72,244.83,136.52,244.83,137.49Zm2.2-8.42a1.83,1.83,0,0,0-1.24.4,1.27,1.27,0,0,0-.47,1.05,1.62,1.62,0,0,0,.37,1,4.14,4.14,0,0,0,1.36.94,3.72,3.72,0,0,0,1.33-.91,1.67,1.67,0,0,0,.38-1.08,1.27,1.27,0,0,0-.49-1.06A1.92,1.92,0,0,0,247,129.07Z" style="fill: #314041"/>
    <path d="M260.09,131.3a5.44,5.44,0,0,1-.87,3.36,3,3,0,0,1-2.53,1.12,2.92,2.92,0,0,1-2.48-1.15,5.39,5.39,0,0,1-.88-3.33c0-3,1.12-4.45,3.36-4.45a3,3,0,0,1,2.52,1.16A5.28,5.28,0,0,1,260.09,131.3Zm-4.31,0a5.65,5.65,0,0,0,.22,1.84c.15.41.38.61.71.61.62,0,.93-.82.93-2.45s-.31-2.43-.93-2.43c-.33,0-.56.2-.71.59A5.61,5.61,0,0,0,255.78,131.32Zm11-4.26-7.89,14.22h-2.33l7.89-14.22Zm3.27,9.92a5.43,5.43,0,0,1-.87,3.35,3,3,0,0,1-2.54,1.12,2.91,2.91,0,0,1-2.47-1.15,5.38,5.38,0,0,1-.88-3.32q0-4.46,3.35-4.45a3,3,0,0,1,2.53,1.16A5.28,5.28,0,0,1,270.05,137Zm-4.31,0a5.65,5.65,0,0,0,.22,1.84c.15.41.38.61.7.61.63,0,.94-.82.94-2.45s-.31-2.43-.94-2.43c-.32,0-.55.2-.7.59A5.61,5.61,0,0,0,265.74,137Z" style="fill: #314041"/>
  </g>
  <g>
    <path d="M342.72,70.63a3.34,3.34,0,0,1-.81,2.27,4.17,4.17,0,0,1-2.26,1.28v.06a4.48,4.48,0,0,1,2.6,1.05,2.92,2.92,0,0,1,.89,2.24,3.79,3.79,0,0,1-1.49,3.19,6.8,6.8,0,0,1-4.25,1.15,10.34,10.34,0,0,1-4.1-.77V78.54a8.82,8.82,0,0,0,1.81.68,7.52,7.52,0,0,0,2,.26,3.83,3.83,0,0,0,2.2-.5,1.87,1.87,0,0,0,.71-1.63,1.49,1.49,0,0,0-.82-1.42,6.19,6.19,0,0,0-2.61-.41h-1.08V73.21h1.1a5.12,5.12,0,0,0,2.42-.43,1.56,1.56,0,0,0,.76-1.48c0-1.08-.67-1.62-2-1.62a4.74,4.74,0,0,0-1.42.23,7.13,7.13,0,0,0-1.61.81l-1.4-2.07a7.77,7.77,0,0,1,4.64-1.4,6,6,0,0,1,3.49.89A2.89,2.89,0,0,1,342.72,70.63Z" style="fill: #314041"/>
    <path d="M344.61,75.63c0-2.81.59-4.91,1.78-6.28a6.67,6.67,0,0,1,5.35-2.06,10.31,10.31,0,0,1,1.9.14v2.41a7.81,7.81,0,0,0-1.71-.2,5.87,5.87,0,0,0-2.52.47,3.18,3.18,0,0,0-1.47,1.38,6.43,6.43,0,0,0-.57,2.6h.13a3.29,3.29,0,0,1,3.08-1.66,3.79,3.79,0,0,1,3,1.2,4.76,4.76,0,0,1,1.08,3.31,5,5,0,0,1-1.28,3.6,4.74,4.74,0,0,1-3.56,1.33,5.15,5.15,0,0,1-2.75-.73A4.82,4.82,0,0,1,345.24,79,8.22,8.22,0,0,1,344.61,75.63Zm5.13,3.83a1.78,1.78,0,0,0,1.48-.64,2.93,2.93,0,0,0,.52-1.85,2.46,2.46,0,0,0-.49-1.63,1.74,1.74,0,0,0-1.45-.6,2.24,2.24,0,0,0-1.56.59,1.84,1.84,0,0,0-.65,1.38,3.18,3.18,0,0,0,.61,2A1.87,1.87,0,0,0,349.74,79.46Z" style="fill: #314041"/>
    <path d="M362.65,71.69a5.44,5.44,0,0,1-.87,3.36,3,3,0,0,1-2.54,1.13A3,3,0,0,1,356.76,75a5.42,5.42,0,0,1-.87-3.33q0-4.44,3.35-4.44a3,3,0,0,1,2.53,1.15A5.39,5.39,0,0,1,362.65,71.69Zm-4.31,0a5.72,5.72,0,0,0,.22,1.85c.14.4.38.6.7.6.63,0,.94-.81.94-2.45s-.31-2.43-.94-2.43c-.32,0-.56.2-.7.6A5.58,5.58,0,0,0,358.34,71.71Zm11-4.26-7.89,14.22h-2.33L367,67.45Zm3.27,9.92a5.41,5.41,0,0,1-.87,3.35,3,3,0,0,1-2.54,1.13,2.94,2.94,0,0,1-2.48-1.16,5.41,5.41,0,0,1-.87-3.32q0-4.44,3.35-4.44a3,3,0,0,1,2.53,1.15A5.39,5.39,0,0,1,372.61,77.37Zm-4.31,0a5.72,5.72,0,0,0,.22,1.85c.14.4.38.6.7.6.63,0,.94-.81.94-2.45s-.31-2.43-.94-2.43c-.32,0-.56.2-.7.6A5.58,5.58,0,0,0,368.3,77.39Z" style="fill: #314041"/>
  </g>
  <g>
    <path d="M443.82,141.28h-3v-8.23l0-1.35,0-1.48c-.5.5-.85.83-1,1l-1.64,1.31-1.45-1.8,4.58-3.65h2.47Z" style="fill: #314041"/>
    <path d="M452.67,126.87a5.39,5.39,0,0,1,3.29.93,3,3,0,0,1,1.25,2.51,3.24,3.24,0,0,1-.61,1.94,5.23,5.23,0,0,1-1.94,1.52,6.87,6.87,0,0,1,2.29,1.78,3.47,3.47,0,0,1-.68,4.86,5.69,5.69,0,0,1-3.6,1.06,6,6,0,0,1-3.67-1,3.29,3.29,0,0,1-1.33-2.81,3.74,3.74,0,0,1,.64-2.16,5.39,5.39,0,0,1,2.08-1.66,5.39,5.39,0,0,1-1.75-1.65,3.56,3.56,0,0,1-.54-1.91,3,3,0,0,1,1.27-2.47A5.36,5.36,0,0,1,452.67,126.87Zm-2.22,10.62a1.58,1.58,0,0,0,.58,1.31,3.08,3.08,0,0,0,3.27,0,1.59,1.59,0,0,0,.55-1.27,1.73,1.73,0,0,0-.55-1.22,7,7,0,0,0-1.78-1.21C451.14,135.72,450.45,136.52,450.45,137.49Zm2.2-8.42a1.81,1.81,0,0,0-1.24.4,1.28,1.28,0,0,0-.48,1.05,1.63,1.63,0,0,0,.38,1,4.14,4.14,0,0,0,1.36.94,3.72,3.72,0,0,0,1.33-.91,1.67,1.67,0,0,0,.38-1.08,1.27,1.27,0,0,0-.49-1.06A1.92,1.92,0,0,0,452.65,129.07Z" style="fill: #314041"/>
    <path d="M465.71,131.3a5.44,5.44,0,0,1-.87,3.36,3,3,0,0,1-2.54,1.12,2.93,2.93,0,0,1-2.48-1.15,5.46,5.46,0,0,1-.87-3.33c0-3,1.12-4.45,3.35-4.45a3,3,0,0,1,2.53,1.16A5.35,5.35,0,0,1,465.71,131.3Zm-4.31,0a5.65,5.65,0,0,0,.22,1.84c.14.41.38.61.7.61.63,0,.94-.82.94-2.45s-.31-2.43-.94-2.43a.75.75,0,0,0-.7.59A5.61,5.61,0,0,0,461.4,131.32Zm11-4.26-7.89,14.22h-2.33l7.89-14.22Zm3.27,9.92a5.43,5.43,0,0,1-.87,3.35,3,3,0,0,1-2.54,1.12,2.93,2.93,0,0,1-2.48-1.15,5.45,5.45,0,0,1-.87-3.32q0-4.46,3.35-4.45a3,3,0,0,1,2.53,1.16A5.35,5.35,0,0,1,475.67,137Zm-4.31,0a5.65,5.65,0,0,0,.22,1.84c.14.41.38.61.7.61.63,0,.94-.82.94-2.45s-.31-2.43-.94-2.43a.75.75,0,0,0-.7.59A5.65,5.65,0,0,0,471.36,137Z" style="fill: #314041"/>
  </g>
  <circle cx="63.88" cy="213.17" r="6.06" style="fill: #fff;stroke: #304041;stroke-linecap: round;stroke-linejoin: round;stroke-width: 2.25px"/>
  <circle cx="159.88" cy="126.42" r="6.06" style="fill: #fff;stroke: #304041;stroke-linecap: round;stroke-linejoin: round;stroke-width: 2.25px"/>
  <circle cx="256.38" cy="155.17" r="6.06" style="fill: #fff;stroke: #304041;stroke-linecap: round;stroke-linejoin: round;stroke-width: 2.25px"/>
  <circle cx="352.88" cy="97.17" r="6.06" style="fill: #fff;stroke: #304041;stroke-linecap: round;stroke-linejoin: round;stroke-width: 2.25px"/>
  <circle cx="449.88" cy="155.17" r="6.06" style="fill: #fff;stroke: #304041;stroke-linecap: round;stroke-linejoin: round;stroke-width: 2.25px"/>
</svg>
