<svg id="Layer_1" data-name="Layer 1" xmlns="http://www.w3.org/2000/svg" viewBox="0 0 511 271">
  <title>telecommunications_process</title>
  <g style="opacity: 0.1">
    <polyline points="63.88 185.17 159.88 91.17 256.88 180.17 352.88 163.17 449.88 189.17" style="fill: none;stroke: #304041;stroke-linecap: round;stroke-linejoin: round;stroke-width: 2.25px"/>
  </g>
  <polyline points="63.88 173.17 159.88 79.17 256.88 168.17 352.88 151.17 449.88 177.17" style="fill: none;stroke: #304041;stroke-linecap: round;stroke-linejoin: round;stroke-width: 2.25px"/>
  <g>
    <path d="M30.2,165.21h-3V157l0-1.35.05-1.48a13.1,13.1,0,0,1-1,1l-1.63,1.32-1.45-1.81L27.73,151H30.2Z" style="fill: #314041"/>
    <path d="M43.52,154.17a3.4,3.4,0,0,1-.8,2.27,4.2,4.2,0,0,1-2.27,1.28v.06a4.54,4.54,0,0,1,2.61,1,3,3,0,0,1,.88,2.25,3.8,3.8,0,0,1-1.49,3.19,6.87,6.87,0,0,1-4.25,1.14,10.34,10.34,0,0,1-4.1-.76v-2.56a9.54,9.54,0,0,0,1.82.68,7.82,7.82,0,0,0,2,.26,3.89,3.89,0,0,0,2.2-.5,1.87,1.87,0,0,0,.71-1.63,1.46,1.46,0,0,0-.82-1.42,6,6,0,0,0-2.6-.42H36.29v-2.3h1.1a5.06,5.06,0,0,0,2.41-.44,1.55,1.55,0,0,0,.77-1.48c0-1.07-.68-1.61-2-1.61a4.79,4.79,0,0,0-1.42.23,7.34,7.34,0,0,0-1.61.81l-1.39-2.07a7.66,7.66,0,0,1,4.64-1.4,5.94,5.94,0,0,1,3.48.89A2.86,2.86,0,0,1,43.52,154.17Z" style="fill: #314041"/>
    <path d="M52.08,155.23a5.51,5.51,0,0,1-.86,3.36,3,3,0,0,1-2.54,1.12,2.92,2.92,0,0,1-2.48-1.15,5.39,5.39,0,0,1-.88-3.33q0-4.44,3.36-4.44a3,3,0,0,1,2.52,1.15A5.3,5.3,0,0,1,52.08,155.23Zm-4.31,0a5.94,5.94,0,0,0,.22,1.84c.15.41.38.61.71.61.62,0,.93-.82.93-2.45s-.31-2.43-.93-2.43c-.33,0-.56.2-.71.6A5.87,5.87,0,0,0,47.77,155.25Zm11-4.26-7.88,14.22H48.55L56.44,151ZM62,160.91a5.47,5.47,0,0,1-.86,3.35,3,3,0,0,1-2.54,1.13,2.93,2.93,0,0,1-2.48-1.16,5.36,5.36,0,0,1-.88-3.32q0-4.44,3.36-4.44a3,3,0,0,1,2.52,1.15A5.3,5.3,0,0,1,62,160.91Zm-4.31,0a5.65,5.65,0,0,0,.22,1.84c.15.41.38.61.71.61.62,0,.93-.82.93-2.45s-.31-2.43-.93-2.43c-.33,0-.56.2-.71.6A5.58,5.58,0,0,0,57.73,160.93Z" style="fill: #314041"/>
  </g>
  <g>
    <path d="M154.07,62.5h-1.71v3h-2.94v-3h-6.06V60.41l6.23-9.18h2.77v8.94h1.71Zm-4.65-2.33V57.75c0-.4,0-1,.05-1.75s.06-1.21.08-1.33h-.08a12,12,0,0,1-.86,1.56L146,60.17Z" style="fill: #314041"/>
    <path d="M162.61,65.45h-3V57.22l0-1.35.05-1.48a12.68,12.68,0,0,1-1.05,1L157,56.68l-1.45-1.8,4.58-3.65h2.47Z" style="fill: #314041"/>
    <path d="M173.13,55.47a5.44,5.44,0,0,1-.87,3.36A3,3,0,0,1,169.72,60a2.93,2.93,0,0,1-2.48-1.15,5.46,5.46,0,0,1-.87-3.33c0-3,1.12-4.45,3.35-4.45a3,3,0,0,1,2.53,1.16A5.35,5.35,0,0,1,173.13,55.47Zm-4.31,0a5.65,5.65,0,0,0,.22,1.84c.14.41.38.61.7.61.62,0,.94-.82.94-2.45s-.32-2.43-.94-2.43a.75.75,0,0,0-.7.59A5.61,5.61,0,0,0,168.82,55.49Zm11-4.26-7.89,14.22H169.6l7.88-14.22Zm3.27,9.92a5.43,5.43,0,0,1-.87,3.35,3,3,0,0,1-2.54,1.12,2.93,2.93,0,0,1-2.48-1.15,5.45,5.45,0,0,1-.87-3.32c0-3,1.11-4.45,3.35-4.45a3,3,0,0,1,2.53,1.16A5.35,5.35,0,0,1,183.09,61.15Zm-4.31,0A5.65,5.65,0,0,0,179,63c.14.41.38.61.7.61.62,0,.94-.82.94-2.45s-.32-2.43-.94-2.43a.75.75,0,0,0-.7.59A5.61,5.61,0,0,0,178.78,61.17Z" style="fill: #314041"/>
  </g>
  <g>
    <path d="M250.82,150.67h-3v-8.23l0-1.35.05-1.48c-.5.5-.85.83-1,1l-1.64,1.32-1.45-1.81,4.58-3.65h2.47Z" style="fill: #314041"/>
    <path d="M265,147.72h-1.71v2.95h-2.93v-2.95h-6.07v-2.09l6.23-9.18h2.77v8.94H265Zm-4.64-2.33V143c0-.4,0-1,0-1.75s.06-1.21.08-1.33h-.08a11.25,11.25,0,0,1-.86,1.55L257,145.39Z" style="fill: #314041"/>
    <path d="M272.71,140.69a5.44,5.44,0,0,1-.87,3.36,3,3,0,0,1-2.54,1.13,2.94,2.94,0,0,1-2.48-1.16,5.42,5.42,0,0,1-.87-3.33q0-4.44,3.35-4.44a3,3,0,0,1,2.53,1.15A5.39,5.39,0,0,1,272.71,140.69Zm-4.31,0a5.72,5.72,0,0,0,.22,1.85c.14.4.38.6.7.6.63,0,.94-.81.94-2.45s-.31-2.43-.94-2.43c-.32,0-.56.2-.7.6A5.58,5.58,0,0,0,268.4,140.71Zm11-4.26-7.89,14.22h-2.33l7.88-14.22Zm3.27,9.92a5.41,5.41,0,0,1-.87,3.35,3,3,0,0,1-2.54,1.13,2.94,2.94,0,0,1-2.48-1.16,5.41,5.41,0,0,1-.87-3.32q0-4.44,3.35-4.44a3,3,0,0,1,2.53,1.15A5.39,5.39,0,0,1,282.67,146.37Zm-4.31,0a5.72,5.72,0,0,0,.22,1.85c.14.4.38.6.7.6.62,0,.94-.81.94-2.45s-.32-2.43-.94-2.43c-.32,0-.56.2-.7.6A5.58,5.58,0,0,0,278.36,146.39Z" style="fill: #314041"/>
  </g>
  <g>
    <path d="M343.27,136.81h-9.93v-2.09l3.56-3.61c1.06-1.09,1.75-1.84,2.08-2.25a5.37,5.37,0,0,0,.7-1.17,3,3,0,0,0,.21-1.1,1.63,1.63,0,0,0-.47-1.28,1.84,1.84,0,0,0-1.26-.42,3.69,3.69,0,0,0-1.61.38,8.59,8.59,0,0,0-1.62,1.08l-1.63-1.93a10.77,10.77,0,0,1,1.74-1.27,7.06,7.06,0,0,1,1.5-.57,8,8,0,0,1,1.83-.2,5.5,5.5,0,0,1,2.36.49,3.7,3.7,0,0,1,1.58,1.36,3.58,3.58,0,0,1,.57,2,4.94,4.94,0,0,1-.35,1.84,7.16,7.16,0,0,1-1.07,1.76,24.3,24.3,0,0,1-2.55,2.58l-1.83,1.72v.14h6.19Z" style="fill: #314041"/>
    <path d="M354.57,129.7a9.93,9.93,0,0,1-1.22,5.51,4.23,4.23,0,0,1-3.76,1.79,4.17,4.17,0,0,1-3.71-1.85,9.7,9.7,0,0,1-1.25-5.45q0-3.76,1.21-5.55a4.73,4.73,0,0,1,7.47.08A9.81,9.81,0,0,1,354.57,129.7Zm-7,0a11.15,11.15,0,0,0,.45,3.75,1.58,1.58,0,0,0,3,0,10.5,10.5,0,0,0,.47-3.73,10.82,10.82,0,0,0-.47-3.76,1.59,1.59,0,0,0-1.51-1.14,1.57,1.57,0,0,0-1.52,1.14A10.87,10.87,0,0,0,347.61,129.7Z" style="fill: #314041"/>
    <path d="M362.65,126.83a5.44,5.44,0,0,1-.87,3.36,3,3,0,0,1-2.53,1.12,3,3,0,0,1-2.49-1.15,5.46,5.46,0,0,1-.87-3.33c0-3,1.12-4.45,3.36-4.45a3,3,0,0,1,2.52,1.16A5.35,5.35,0,0,1,362.65,126.83Zm-4.31,0a5.65,5.65,0,0,0,.22,1.84c.14.41.38.61.7.61.63,0,.94-.82.94-2.45s-.31-2.43-.94-2.43a.75.75,0,0,0-.7.59A5.61,5.61,0,0,0,358.34,126.85Zm11-4.26-7.89,14.22h-2.33L367,122.59Zm3.27,9.92a5.43,5.43,0,0,1-.87,3.35A3,3,0,0,1,369.2,137a2.93,2.93,0,0,1-2.48-1.15,5.45,5.45,0,0,1-.87-3.32c0-3,1.12-4.45,3.35-4.45a3,3,0,0,1,2.53,1.16A5.35,5.35,0,0,1,372.61,132.51Zm-4.31,0a5.65,5.65,0,0,0,.22,1.84c.14.41.38.61.7.61.63,0,.94-.82.94-2.45s-.31-2.43-.94-2.43a.75.75,0,0,0-.7.59A5.61,5.61,0,0,0,368.3,132.53Z" style="fill: #314041"/>
  </g>
  <g>
    <path d="M437.76,160.81h-3v-8.23l0-1.35,0-1.48c-.5.5-.85.83-1,1l-1.64,1.31-1.45-1.81,4.59-3.65h2.46Z" style="fill: #314041"/>
    <path d="M451.64,160.81H441.7v-2.09l3.57-3.61c1.06-1.08,1.75-1.83,2.08-2.25a5.33,5.33,0,0,0,.7-1.16,3,3,0,0,0,.21-1.11,1.61,1.61,0,0,0-.47-1.27,1.84,1.84,0,0,0-1.26-.42,3.56,3.56,0,0,0-1.61.38,7.86,7.86,0,0,0-1.62,1.08l-1.63-1.94a10,10,0,0,1,1.74-1.26,6.13,6.13,0,0,1,1.5-.57,8,8,0,0,1,1.83-.2,5.35,5.35,0,0,1,2.36.49,3.69,3.69,0,0,1,1.58,1.36,3.57,3.57,0,0,1,.57,2,4.9,4.9,0,0,1-.35,1.84,7,7,0,0,1-1.07,1.77,26.39,26.39,0,0,1-2.55,2.58l-1.83,1.72v.13h6.19Z" style="fill: #314041"/>
    <path d="M459.65,150.83a5.44,5.44,0,0,1-.87,3.36,3,3,0,0,1-2.54,1.13,3,3,0,0,1-2.48-1.16,5.42,5.42,0,0,1-.87-3.33q0-4.44,3.35-4.44a3,3,0,0,1,2.53,1.15A5.39,5.39,0,0,1,459.65,150.83Zm-4.31,0a5.72,5.72,0,0,0,.22,1.85c.14.4.38.6.7.6.63,0,.94-.81.94-2.45s-.31-2.43-.94-2.43c-.32,0-.56.2-.7.6A5.58,5.58,0,0,0,455.34,150.85Zm11-4.26-7.89,14.22h-2.33L464,146.59Zm3.27,9.92a5.41,5.41,0,0,1-.87,3.35A3,3,0,0,1,466.2,161a2.94,2.94,0,0,1-2.48-1.16,5.41,5.41,0,0,1-.87-3.32q0-4.44,3.35-4.44a3,3,0,0,1,2.53,1.15A5.39,5.39,0,0,1,469.61,156.51Zm-4.31,0a5.72,5.72,0,0,0,.22,1.85c.14.4.38.6.7.6.63,0,.94-.81.94-2.45s-.31-2.43-.94-2.43c-.32,0-.56.2-.7.6A5.58,5.58,0,0,0,465.3,156.53Z" style="fill: #314041"/>
  </g>
  <circle cx="63.88" cy="174.01" r="6.06" style="fill: #fff;stroke: #304041;stroke-linecap: round;stroke-linejoin: round;stroke-width: 2.25px"/>
  <circle cx="160.69" cy="79.17" r="6.06" style="fill: #fff;stroke: #304041;stroke-linecap: round;stroke-linejoin: round;stroke-width: 2.25px"/>
  <circle cx="256.88" cy="168.17" r="6.06" style="fill: #fff;stroke: #304041;stroke-linecap: round;stroke-linejoin: round;stroke-width: 2.25px"/>
  <circle cx="352.88" cy="150.67" r="6.06" style="fill: #fff;stroke: #304041;stroke-linecap: round;stroke-linejoin: round;stroke-width: 2.25px"/>
  <circle cx="449.88" cy="177.17" r="6.06" style="fill: #fff;stroke: #304041;stroke-linecap: round;stroke-linejoin: round;stroke-width: 2.25px"/>
</svg>
