<svg xmlns="http://www.w3.org/2000/svg" viewBox="0 0 511 271">
  <title>telecoms_portfolio</title>
  <g style="opacity: 0.1">
    <polyline points="63.88 221.17 159.88 64.17 256.88 145.17 352.88 167.17 449.88 212.17" style="fill: none;stroke: #304041;stroke-linecap: round;stroke-linejoin: round;stroke-width: 2.25px"/>
  </g>
  <polyline points="63.88 209.17 159.88 52.17 256.88 133.17 352.88 155.17 449.88 200.17" style="fill: none;stroke: #304041;stroke-linecap: round;stroke-linejoin: round;stroke-width: 2.25px"/>
  <g>
    <path d="M28.23,192.07a3.34,3.34,0,0,1-.81,2.27,4.17,4.17,0,0,1-2.27,1.28v.06a4.55,4.55,0,0,1,2.61,1,2.92,2.92,0,0,1,.88,2.24,3.82,3.82,0,0,1-1.48,3.2,6.89,6.89,0,0,1-4.25,1.14,10.35,10.35,0,0,1-4.11-.77V200a8.91,8.91,0,0,0,1.82.68,7.48,7.48,0,0,0,2,.27,3.76,3.76,0,0,0,2.19-.51,1.84,1.84,0,0,0,.71-1.62,1.46,1.46,0,0,0-.81-1.42,6.06,6.06,0,0,0-2.61-.42H21v-2.31h1.1a5.12,5.12,0,0,0,2.42-.43,1.57,1.57,0,0,0,.76-1.48c0-1.08-.67-1.62-2-1.62a4.8,4.8,0,0,0-1.43.23,7.34,7.34,0,0,0-1.61.81l-1.39-2.07a7.75,7.75,0,0,1,4.64-1.4,6.07,6.07,0,0,1,3.49.89A2.89,2.89,0,0,1,28.23,192.07Z" style="fill: #314041"/>
    <path d="M36.78,193.13a5.4,5.4,0,0,1-.86,3.36,3,3,0,0,1-2.54,1.13,3,3,0,0,1-2.48-1.15,5.47,5.47,0,0,1-.87-3.34c0-3,1.11-4.44,3.35-4.44a3,3,0,0,1,2.52,1.15A5.32,5.32,0,0,1,36.78,193.13Zm-4.3,0A5.72,5.72,0,0,0,32.7,195c.14.4.38.6.7.6.62,0,.93-.81.93-2.45s-.31-2.43-.93-2.43c-.32,0-.56.2-.7.6A5.58,5.58,0,0,0,32.48,193.15Zm11-4.26-7.89,14.22H33.25l7.89-14.22Zm3.26,9.92a5.44,5.44,0,0,1-.86,3.36,3,3,0,0,1-2.54,1.12,3,3,0,0,1-2.48-1.15,5.46,5.46,0,0,1-.88-3.33q0-4.44,3.36-4.44a3,3,0,0,1,2.52,1.15A5.32,5.32,0,0,1,46.74,198.81Zm-4.3,0a6.07,6.07,0,0,0,.21,1.85c.15.4.39.6.71.6.62,0,.93-.81.93-2.45s-.31-2.43-.93-2.43c-.32,0-.56.2-.71.6A5.92,5.92,0,0,0,42.44,198.83Z" style="fill: #314041"/>
  </g>
  <g>
    <path d="M150.6,33.26h-1.72V36.2H146V33.26h-6.07V31.17L146.11,22h2.77v8.93h1.72ZM146,30.92V28.51c0-.4,0-1,.05-1.75s.05-1.21.07-1.33H146a10.35,10.35,0,0,1-.87,1.55l-2.61,3.94Z" style="fill: #314041"/>
    <path d="M161.59,28.05q0,4.22-1.77,6.28a6.67,6.67,0,0,1-5.36,2.07,10.1,10.1,0,0,1-1.92-.14V33.85a6.9,6.9,0,0,0,1.71.2,5.92,5.92,0,0,0,2.48-.44,3.09,3.09,0,0,0,1.49-1.39,6.14,6.14,0,0,0,.59-2.61h-.11a3.26,3.26,0,0,1-1.31,1.28,4,4,0,0,1-1.84.37,3.71,3.71,0,0,1-2.93-1.19,4.79,4.79,0,0,1-1.07-3.31,4.92,4.92,0,0,1,1.3-3.61,4.68,4.68,0,0,1,3.53-1.33,5.13,5.13,0,0,1,2.76.74A4.72,4.72,0,0,1,161,24.7,8,8,0,0,1,161.59,28.05Zm-5.15-3.82a1.81,1.81,0,0,0-1.46.64,2.87,2.87,0,0,0-.52,1.85,2.64,2.64,0,0,0,.47,1.64,1.74,1.74,0,0,0,1.45.6,2.25,2.25,0,0,0,1.57-.6A1.84,1.84,0,0,0,158.6,27,3.09,3.09,0,0,0,158,25,1.87,1.87,0,0,0,156.44,24.23Z" style="fill: #314041"/>
    <path d="M169.65,26.23a5.44,5.44,0,0,1-.87,3.36,3,3,0,0,1-2.53,1.12,3,3,0,0,1-2.49-1.15,5.46,5.46,0,0,1-.87-3.33q0-4.45,3.36-4.45a3,3,0,0,1,2.52,1.15A5.34,5.34,0,0,1,169.65,26.23Zm-4.31,0a5.69,5.69,0,0,0,.22,1.84c.15.4.38.61.7.61.63,0,.94-.82.94-2.45s-.31-2.44-.94-2.44c-.32,0-.55.2-.7.6A5.61,5.61,0,0,0,165.34,26.25Zm11-4.26L168.45,36.2h-2.33L174,22Zm3.27,9.92a5.43,5.43,0,0,1-.87,3.35,3,3,0,0,1-2.54,1.12,2.93,2.93,0,0,1-2.48-1.15,5.45,5.45,0,0,1-.87-3.32q0-4.45,3.35-4.45a3,3,0,0,1,2.53,1.15A5.4,5.4,0,0,1,179.61,31.91Zm-4.31,0a5.69,5.69,0,0,0,.22,1.84c.14.4.38.61.7.61.63,0,.94-.82.94-2.45s-.31-2.44-.94-2.44c-.32,0-.56.2-.7.6A5.61,5.61,0,0,0,175.3,31.93Z" style="fill: #314041"/>
  </g>
  <g>
    <path d="M259.86,118h-9.94v-2.09l3.57-3.61a30,30,0,0,0,2.07-2.25,4.68,4.68,0,0,0,.7-1.17,2.77,2.77,0,0,0,.22-1.1,1.65,1.65,0,0,0-.47-1.28,1.84,1.84,0,0,0-1.26-.42,3.69,3.69,0,0,0-1.61.38,8.76,8.76,0,0,0-1.62,1.08l-1.63-1.93a10.77,10.77,0,0,1,1.74-1.27,7.06,7.06,0,0,1,1.5-.57,8,8,0,0,1,1.83-.2,5.5,5.5,0,0,1,2.36.49,3.83,3.83,0,0,1,1.58,1.36,3.61,3.61,0,0,1,.57,2,4.94,4.94,0,0,1-.35,1.84,7.16,7.16,0,0,1-1.07,1.76,24.3,24.3,0,0,1-2.55,2.58l-1.83,1.72v.14h6.19Z" style="fill: #314041"/>
    <path d="M266.47,108.86a4.58,4.58,0,0,1,3.28,1.16,4.17,4.17,0,0,1,1.22,3.17,4.62,4.62,0,0,1-1.47,3.67,6.22,6.22,0,0,1-4.2,1.28,8.12,8.12,0,0,1-3.83-.77v-2.59a8,8,0,0,0,1.79.66,7.5,7.5,0,0,0,1.93.26c1.84,0,2.76-.75,2.76-2.26s-.95-2.14-2.85-2.14a6.77,6.77,0,0,0-1.14.1,8,8,0,0,0-1,.22l-1.2-.65.54-7.24H270v2.55h-5.08l-.26,2.79L265,109A6.65,6.65,0,0,1,266.47,108.86Z" style="fill: #314041"/>
    <path d="M279.24,108a5.44,5.44,0,0,1-.87,3.36,3,3,0,0,1-2.54,1.12,2.93,2.93,0,0,1-2.48-1.15,5.46,5.46,0,0,1-.87-3.33c0-3,1.12-4.45,3.35-4.45a3,3,0,0,1,2.53,1.16A5.37,5.37,0,0,1,279.24,108Zm-4.31,0a5.65,5.65,0,0,0,.22,1.84c.14.41.38.61.7.61.63,0,.94-.82.94-2.45s-.31-2.43-.94-2.43c-.32,0-.56.2-.7.6A5.54,5.54,0,0,0,274.93,108Zm11-4.26L278,118h-2.33l7.89-14.22Zm3.27,9.92a5.43,5.43,0,0,1-.87,3.35,3,3,0,0,1-2.54,1.12,2.93,2.93,0,0,1-2.48-1.15,5.45,5.45,0,0,1-.87-3.32c0-3,1.12-4.45,3.35-4.45a3,3,0,0,1,2.53,1.16A5.37,5.37,0,0,1,289.2,113.65Zm-4.31,0a5.65,5.65,0,0,0,.22,1.84c.14.41.38.61.7.61.62,0,.94-.82.94-2.45s-.32-2.43-.94-2.43c-.32,0-.56.2-.7.6A5.5,5.5,0,0,0,284.89,113.67Z" style="fill: #314041"/>
  </g>
  <g>
    <path d="M340.76,141.22h-3V133l0-1.36,0-1.47c-.5.5-.85.82-1,1l-1.64,1.31-1.45-1.81L338.3,127h2.46Z" style="fill: #314041"/>
    <path d="M349.61,126.82a5.37,5.37,0,0,1,3.29.93,3,3,0,0,1,1.25,2.5,3.26,3.26,0,0,1-.6,1.94,5.19,5.19,0,0,1-1.95,1.53,6.87,6.87,0,0,1,2.29,1.78,3.46,3.46,0,0,1-.68,4.85,5.69,5.69,0,0,1-3.6,1.07,6,6,0,0,1-3.67-1,3.29,3.29,0,0,1-1.33-2.81,3.74,3.74,0,0,1,.64-2.16,5.4,5.4,0,0,1,2.08-1.67,5.37,5.37,0,0,1-1.75-1.64,3.57,3.57,0,0,1-.54-1.92,3,3,0,0,1,1.27-2.47A5.42,5.42,0,0,1,349.61,126.82Zm-2.22,10.62a1.59,1.59,0,0,0,.58,1.31,3.08,3.08,0,0,0,3.27,0,1.59,1.59,0,0,0,.55-1.27,1.76,1.76,0,0,0-.54-1.22,7.29,7.29,0,0,0-1.79-1.21C348.08,135.67,347.39,136.47,347.39,137.44Zm2.2-8.42a1.86,1.86,0,0,0-1.24.39,1.31,1.31,0,0,0-.47,1.06,1.58,1.58,0,0,0,.37,1,4,4,0,0,0,1.36,1,3.85,3.85,0,0,0,1.33-.91,1.67,1.67,0,0,0,.38-1.08,1.27,1.27,0,0,0-.49-1.06A1.92,1.92,0,0,0,349.59,129Z" style="fill: #314041"/>
    <path d="M362.65,131.25a5.44,5.44,0,0,1-.87,3.36,3,3,0,0,1-2.53,1.12,3,3,0,0,1-2.49-1.15,5.46,5.46,0,0,1-.87-3.33q0-4.45,3.36-4.45a3,3,0,0,1,2.52,1.15A5.4,5.4,0,0,1,362.65,131.25Zm-4.31,0a5.69,5.69,0,0,0,.22,1.84c.14.4.38.61.7.61.63,0,.94-.82.94-2.45s-.31-2.44-.94-2.44c-.32,0-.56.2-.7.6A5.61,5.61,0,0,0,358.34,131.27Zm11-4.26-7.89,14.21h-2.33L367,127Zm3.27,9.92a5.43,5.43,0,0,1-.87,3.35,3,3,0,0,1-2.54,1.12,2.93,2.93,0,0,1-2.48-1.15,5.45,5.45,0,0,1-.87-3.32q0-4.45,3.35-4.45a3,3,0,0,1,2.53,1.15A5.4,5.4,0,0,1,372.61,136.93Zm-4.31,0a5.69,5.69,0,0,0,.22,1.84c.14.4.38.61.7.61.63,0,.94-.82.94-2.45s-.31-2.44-.94-2.44c-.32,0-.56.2-.7.6A5.61,5.61,0,0,0,368.3,137Z" style="fill: #314041"/>
  </g>
  <g>
    <path d="M444.57,173.92a4.58,4.58,0,0,1,3.28,1.16,4.17,4.17,0,0,1,1.22,3.17,4.62,4.62,0,0,1-1.47,3.67,6.22,6.22,0,0,1-4.2,1.28,8.12,8.12,0,0,1-3.83-.77v-2.59a8,8,0,0,0,1.79.66,7.5,7.5,0,0,0,1.93.26c1.84,0,2.76-.75,2.76-2.26s-.95-2.15-2.85-2.15a6.84,6.84,0,0,0-1.14.11,6.57,6.57,0,0,0-1,.22l-1.2-.65.54-7.24h7.71v2.55H443l-.26,2.79.34-.07A6.72,6.72,0,0,1,444.57,173.92Z" style="fill: #314041"/>
    <path d="M457.34,173a5.44,5.44,0,0,1-.87,3.36,3,3,0,0,1-2.54,1.12,2.93,2.93,0,0,1-2.48-1.15,5.46,5.46,0,0,1-.87-3.33c0-3,1.12-4.45,3.35-4.45a3,3,0,0,1,2.53,1.16A5.3,5.3,0,0,1,457.34,173Zm-4.31,0a5.65,5.65,0,0,0,.22,1.84c.14.41.38.61.7.61.63,0,.94-.82.94-2.45s-.31-2.43-.94-2.43c-.32,0-.56.2-.7.6A5.5,5.5,0,0,0,453,173.05Zm11-4.26L456.14,183h-2.33l7.89-14.22Zm3.27,9.92a5.43,5.43,0,0,1-.87,3.35,3,3,0,0,1-2.54,1.12,2.93,2.93,0,0,1-2.48-1.15,5.45,5.45,0,0,1-.87-3.32c0-3,1.12-4.45,3.35-4.45a3,3,0,0,1,2.53,1.16A5.35,5.35,0,0,1,467.3,178.71Zm-4.31,0a5.65,5.65,0,0,0,.22,1.84c.14.41.38.61.7.61.63,0,.94-.82.94-2.45s-.31-2.43-.94-2.43a.75.75,0,0,0-.7.59A5.61,5.61,0,0,0,463,178.73Z" style="fill: #314041"/>
  </g>
  <circle cx="63.88" cy="209.17" r="6.06" style="fill: #fff;stroke: #304041;stroke-linecap: round;stroke-linejoin: round;stroke-width: 2.25px"/>
  <circle cx="159.88" cy="52.17" r="6.06" style="fill: #fff;stroke: #304041;stroke-linecap: round;stroke-linejoin: round;stroke-width: 2.25px"/>
  <circle cx="255.88" cy="131.67" r="6.06" style="fill: #fff;stroke: #304041;stroke-linecap: round;stroke-linejoin: round;stroke-width: 2.25px"/>
  <circle cx="352.88" cy="156.76" r="6.06" style="fill: #fff;stroke: #304041;stroke-linecap: round;stroke-linejoin: round;stroke-width: 2.25px"/>
  <circle cx="449.88" cy="200.17" r="6.06" style="fill: #fff;stroke: #304041;stroke-linecap: round;stroke-linejoin: round;stroke-width: 2.25px"/>
</svg>
