<svg id="Layer_1" data-name="Layer 1" xmlns="http://www.w3.org/2000/svg" viewBox="0 0 511 271">
  <title>telecommunications_structural</title>
  <g style="opacity: 0.1">
    <polyline points="63.88 194.17 159.88 68.17 256.88 172.17 352.88 167.17 449.88 207.17" style="fill: none;stroke: #304041;stroke-linecap: round;stroke-linejoin: round;stroke-width: 2.25px"/>
  </g>
  <polyline points="63.88 182.17 159.88 56.17 256.88 160.17 352.88 155.17 449.88 195.17" style="fill: none;stroke: #304041;stroke-linecap: round;stroke-linejoin: round;stroke-width: 2.25px"/>
  <g>
    <path d="M24.24,175.05h-3v-8.23l0-1.35,0-1.48c-.5.5-.85.82-1,1l-1.63,1.31-1.45-1.81,4.58-3.64h2.47Z" style="fill: #314041"/>
    <path d="M35.61,175.05h-3v-8.23l0-1.35,0-1.48c-.5.5-.85.82-1,1L30,166.28l-1.45-1.81,4.59-3.64h2.47Z" style="fill: #314041"/>
    <path d="M46.12,165.07a5.51,5.51,0,0,1-.86,3.36,3,3,0,0,1-2.54,1.12,2.92,2.92,0,0,1-2.48-1.15,5.39,5.39,0,0,1-.88-3.33q0-4.45,3.36-4.45a3,3,0,0,1,2.52,1.15A5.34,5.34,0,0,1,46.12,165.07Zm-4.31,0a6,6,0,0,0,.22,1.84c.15.41.38.61.71.61.62,0,.93-.82.93-2.45s-.31-2.43-.93-2.43c-.33,0-.56.19-.71.59A5.89,5.89,0,0,0,41.81,165.09Zm11-4.26-7.89,14.22H42.59l7.89-14.22Zm3.27,9.92a5.43,5.43,0,0,1-.87,3.35,3,3,0,0,1-2.53,1.12,2.92,2.92,0,0,1-2.48-1.15,5.38,5.38,0,0,1-.88-3.32q0-4.45,3.36-4.45a3,3,0,0,1,2.52,1.16A5.28,5.28,0,0,1,56.08,170.75Zm-4.31,0a5.69,5.69,0,0,0,.22,1.84c.15.41.38.61.7.61.63,0,.94-.82.94-2.45s-.31-2.43-.94-2.43c-.32,0-.55.19-.7.59A5.61,5.61,0,0,0,51.77,170.77Z" style="fill: #314041"/>
  </g>
  <g>
    <path d="M151.41,40h-1.72V43h-2.93V40h-6.07V37.92l6.23-9.19h2.77v8.94h1.72Zm-4.65-2.34V35.26c0-.4,0-1,.05-1.75s.05-1.21.07-1.33h-.07a10.35,10.35,0,0,1-.87,1.55l-2.61,3.94Z" style="fill: #314041"/>
    <path d="M153.93,43l5.33-11.67h-7V28.75h10.21v1.89L157.08,43Z" style="fill: #314041"/>
    <path d="M170.46,33a5.39,5.39,0,0,1-.87,3.35,3,3,0,0,1-2.53,1.13,3,3,0,0,1-2.48-1.15A5.39,5.39,0,0,1,163.7,33q0-4.45,3.36-4.45a3,3,0,0,1,2.52,1.15A5.34,5.34,0,0,1,170.46,33Zm-4.31,0a5.72,5.72,0,0,0,.22,1.85c.15.4.38.6.71.6.62,0,.93-.81.93-2.45s-.31-2.43-.93-2.43c-.33,0-.56.2-.71.6A5.58,5.58,0,0,0,166.15,33Zm11-4.26L169.26,43h-2.33l7.89-14.22Zm3.27,9.92a5.44,5.44,0,0,1-.87,3.36A3,3,0,0,1,177,43.13,3,3,0,0,1,174.53,42a5.46,5.46,0,0,1-.87-3.33q0-4.44,3.35-4.44a3,3,0,0,1,2.53,1.15A5.32,5.32,0,0,1,180.42,38.65Zm-4.31,0a5.72,5.72,0,0,0,.22,1.85c.14.4.38.6.7.6.63,0,.94-.81.94-2.45s-.31-2.43-.94-2.43c-.32,0-.56.2-.7.6A5.58,5.58,0,0,0,176.11,38.67Z" style="fill: #314041"/>
  </g>
  <g>
    <path d="M257.35,146h-3v-8.23l0-1.35.05-1.48c-.5.5-.85.83-1,1l-1.64,1.32-1.45-1.81,4.59-3.65h2.46Z" style="fill: #314041"/>
    <path d="M262.7,146,268,134.37h-7v-2.53h10.2v1.89L265.86,146Z" style="fill: #314041"/>
    <path d="M279.24,136.06a5.44,5.44,0,0,1-.87,3.36,3,3,0,0,1-2.53,1.13,3,3,0,0,1-2.49-1.16,5.46,5.46,0,0,1-.87-3.33q0-4.44,3.36-4.44a3,3,0,0,1,2.52,1.15A5.39,5.39,0,0,1,279.24,136.06Zm-4.31,0a5.65,5.65,0,0,0,.22,1.84c.14.41.38.61.7.61.63,0,.94-.81.94-2.45s-.31-2.43-.94-2.43c-.32,0-.56.2-.7.6A5.58,5.58,0,0,0,274.93,136.08Zm11-4.26L278,146h-2.33l7.89-14.22Zm3.27,9.92a5.41,5.41,0,0,1-.87,3.35,3,3,0,0,1-2.54,1.13,2.94,2.94,0,0,1-2.48-1.16,5.41,5.41,0,0,1-.87-3.32q0-4.44,3.35-4.44a3,3,0,0,1,2.53,1.15A5.39,5.39,0,0,1,289.2,141.74Zm-4.31,0a5.65,5.65,0,0,0,.22,1.84c.14.41.38.61.7.61.63,0,.94-.82.94-2.45s-.31-2.43-.94-2.43c-.32,0-.56.2-.7.6A5.58,5.58,0,0,0,284.89,141.76Z" style="fill: #314041"/>
  </g>
  <g>
    <path d="M340.76,143h-3v-8.22l0-1.36,0-1.47c-.5.5-.85.82-1,1l-1.64,1.31-1.45-1.81,4.59-3.65h2.46Z" style="fill: #314041"/>
    <path d="M349.61,128.63a5.37,5.37,0,0,1,3.29.93,3,3,0,0,1,1.25,2.5,3.26,3.26,0,0,1-.6,1.94,5.19,5.19,0,0,1-1.95,1.53,6.87,6.87,0,0,1,2.29,1.78,3.46,3.46,0,0,1-.68,4.85,5.69,5.69,0,0,1-3.6,1.07,6,6,0,0,1-3.67-1,3.3,3.3,0,0,1-1.33-2.81,3.69,3.69,0,0,1,.64-2.16,5.4,5.4,0,0,1,2.08-1.67,5.37,5.37,0,0,1-1.75-1.64A3.57,3.57,0,0,1,345,132a3,3,0,0,1,1.27-2.47A5.36,5.36,0,0,1,349.61,128.63Zm-2.22,10.62a1.56,1.56,0,0,0,.58,1.3,3.05,3.05,0,0,0,3.27,0,1.59,1.59,0,0,0,.55-1.27,1.76,1.76,0,0,0-.54-1.22,7.29,7.29,0,0,0-1.79-1.21C348.08,137.47,347.39,138.28,347.39,139.25Zm2.2-8.42a1.86,1.86,0,0,0-1.24.39,1.29,1.29,0,0,0-.47,1.06,1.6,1.6,0,0,0,.37,1,4,4,0,0,0,1.36,1,3.85,3.85,0,0,0,1.33-.91,1.67,1.67,0,0,0,.38-1.08,1.27,1.27,0,0,0-.49-1.06A1.92,1.92,0,0,0,349.59,130.83Z" style="fill: #314041"/>
    <path d="M362.65,133.06a5.39,5.39,0,0,1-.87,3.35,3.33,3.33,0,0,1-5,0,5.46,5.46,0,0,1-.87-3.33q0-4.45,3.36-4.45a3,3,0,0,1,2.52,1.15A5.4,5.4,0,0,1,362.65,133.06Zm-4.31,0a5.72,5.72,0,0,0,.22,1.85c.14.4.38.61.7.61.63,0,.94-.82.94-2.46s-.31-2.43-.94-2.43c-.32,0-.56.2-.7.6A5.58,5.58,0,0,0,358.34,133.07Zm11-4.26L361.45,143h-2.33L367,128.81Zm3.27,9.92a5.44,5.44,0,0,1-.87,3.36,3,3,0,0,1-2.54,1.12,3,3,0,0,1-2.48-1.15,5.46,5.46,0,0,1-.87-3.33q0-4.44,3.35-4.44a3,3,0,0,1,2.53,1.15A5.39,5.39,0,0,1,372.61,138.73Zm-4.31,0a5.72,5.72,0,0,0,.22,1.85c.14.4.38.61.7.61.63,0,.94-.82.94-2.46s-.31-2.43-.94-2.43c-.32,0-.56.2-.7.6A5.58,5.58,0,0,0,368.3,138.75Z" style="fill: #314041"/>
  </g>
  <g>
    <path d="M440.8,177.41l5.34-11.67h-7v-2.53h10.2v1.89L444,177.41Z" style="fill: #314041"/>
    <path d="M457.34,167.44a5.39,5.39,0,0,1-.87,3.35,3,3,0,0,1-2.54,1.13,3,3,0,0,1-2.48-1.15,5.46,5.46,0,0,1-.87-3.33q0-4.45,3.35-4.45a3,3,0,0,1,2.53,1.15A5.34,5.34,0,0,1,457.34,167.44Zm-4.31,0a5.72,5.72,0,0,0,.22,1.85c.14.4.38.6.7.6.63,0,.94-.81.94-2.45S454.58,165,454,165c-.32,0-.56.2-.7.6A5.58,5.58,0,0,0,453,167.45Zm11-4.26-7.89,14.22h-2.33l7.89-14.22Zm3.27,9.92a5.44,5.44,0,0,1-.87,3.36,3,3,0,0,1-2.54,1.12,3,3,0,0,1-2.48-1.15,5.46,5.46,0,0,1-.87-3.33q0-4.44,3.35-4.44a3,3,0,0,1,2.53,1.15A5.39,5.39,0,0,1,467.3,173.11Zm-4.31,0a5.72,5.72,0,0,0,.22,1.85c.14.4.38.6.7.6.63,0,.94-.81.94-2.45s-.31-2.43-.94-2.43c-.32,0-.56.2-.7.6A5.58,5.58,0,0,0,463,173.13Z" style="fill: #314041"/>
  </g>
  <circle cx="63.88" cy="182.17" r="6.06" style="fill: #fff;stroke: #304041;stroke-linecap: round;stroke-linejoin: round;stroke-width: 2.25px"/>
  <circle cx="160.69" cy="55.96" r="6.06" style="fill: #fff;stroke: #304041;stroke-linecap: round;stroke-linejoin: round;stroke-width: 2.25px"/>
  <circle cx="256.88" cy="160.17" r="6.06" style="fill: #fff;stroke: #304041;stroke-linecap: round;stroke-linejoin: round;stroke-width: 2.25px"/>
  <circle cx="352.88" cy="155.73" r="6.06" style="fill: #fff;stroke: #304041;stroke-linecap: round;stroke-linejoin: round;stroke-width: 2.25px"/>
  <circle cx="449.88" cy="195.17" r="6.06" style="fill: #fff;stroke: #304041;stroke-linecap: round;stroke-linejoin: round;stroke-width: 2.25px"/>
</svg>
