<svg xmlns="http://www.w3.org/2000/svg" viewBox="0 0 511 271">
  <title>telecommunications_overall</title>
  <polyline points="63.48 201.51 159.8 91.06 256.12 56.39 351.16 156.56 447.48 196.37" style="fill: none;stroke: #304041;stroke-linecap: round;stroke-linejoin: round;stroke-width: 2.25px"/>
  <g>
    <path d="M46.17,183.57H44.46v3H41.52v-3H35.45v-2.09l6.24-9.18h2.77v8.94h1.71Zm-4.65-2.33v-2.42c0-.4,0-1,0-1.75s.06-1.21.08-1.33h-.08a12,12,0,0,1-.86,1.56l-2.61,3.94Z" style="fill: #314041"/>
    <path d="M53.85,176.54A5.44,5.44,0,0,1,53,179.9,3,3,0,0,1,50.45,181,2.92,2.92,0,0,1,48,179.87a5.46,5.46,0,0,1-.87-3.33c0-3,1.11-4.45,3.35-4.45A3,3,0,0,1,53,173.25,5.28,5.28,0,0,1,53.85,176.54Zm-4.3,0a6,6,0,0,0,.21,1.84c.15.41.39.61.71.61.62,0,.93-.82.93-2.45s-.31-2.43-.93-2.43a.77.77,0,0,0-.71.59A6,6,0,0,0,49.55,176.56Zm11-4.26-7.89,14.22H50.32l7.89-14.22Zm3.26,9.92a5.43,5.43,0,0,1-.86,3.35,3,3,0,0,1-2.54,1.12,2.92,2.92,0,0,1-2.48-1.15,5.45,5.45,0,0,1-.88-3.32c0-3,1.12-4.45,3.36-4.45a3,3,0,0,1,2.52,1.16A5.28,5.28,0,0,1,63.81,182.22Zm-4.3,0a6,6,0,0,0,.21,1.84c.15.41.38.61.71.61.62,0,.93-.82.93-2.45s-.31-2.43-.93-2.43c-.33,0-.56.2-.71.59A6,6,0,0,0,59.51,182.24Z" style="fill: #314041"/>
  </g>
  <g>
    <path d="M152.68,67.1a3.36,3.36,0,0,1-.81,2.27,4.2,4.2,0,0,1-2.27,1.28v.06a4.54,4.54,0,0,1,2.61,1,3,3,0,0,1,.88,2.25,3.78,3.78,0,0,1-1.49,3.19,6.85,6.85,0,0,1-4.25,1.14,10.34,10.34,0,0,1-4.1-.76V75a9.54,9.54,0,0,0,1.82.68,7.88,7.88,0,0,0,2,.26,3.86,3.86,0,0,0,2.2-.5,1.85,1.85,0,0,0,.71-1.63,1.46,1.46,0,0,0-.82-1.42,6,6,0,0,0-2.6-.42h-1.08v-2.3h1.1a5.17,5.17,0,0,0,2.41-.43,1.58,1.58,0,0,0,.77-1.49c0-1.07-.68-1.61-2-1.61a4.79,4.79,0,0,0-1.42.23,7.34,7.34,0,0,0-1.61.81l-1.39-2.07a7.69,7.69,0,0,1,4.64-1.4,6,6,0,0,1,3.49.89A2.89,2.89,0,0,1,152.68,67.1Z" style="fill: #314041"/>
    <path d="M164,67.1a3.35,3.35,0,0,1-.8,2.27A4.2,4.2,0,0,1,161,70.65v.06a4.54,4.54,0,0,1,2.61,1,3,3,0,0,1,.88,2.25A3.78,3.78,0,0,1,163,77.19a6.85,6.85,0,0,1-4.25,1.14,10.34,10.34,0,0,1-4.1-.76V75a9.54,9.54,0,0,0,1.82.68,7.88,7.88,0,0,0,2,.26,3.86,3.86,0,0,0,2.2-.5,1.85,1.85,0,0,0,.71-1.63,1.46,1.46,0,0,0-.82-1.42,6,6,0,0,0-2.6-.42h-1.08v-2.3h1.1a5.17,5.17,0,0,0,2.41-.43,1.58,1.58,0,0,0,.77-1.49c0-1.07-.68-1.61-2-1.61a4.79,4.79,0,0,0-1.42.23,7.34,7.34,0,0,0-1.61.81l-1.39-2.07a7.69,7.69,0,0,1,4.64-1.4,5.94,5.94,0,0,1,3.48.89A2.86,2.86,0,0,1,164,67.1Z" style="fill: #314041"/>
    <path d="M172.6,68.16a5.51,5.51,0,0,1-.86,3.36,3,3,0,0,1-2.54,1.12,2.92,2.92,0,0,1-2.48-1.15,5.46,5.46,0,0,1-.88-3.33q0-4.44,3.36-4.44a3,3,0,0,1,2.52,1.15A5.3,5.3,0,0,1,172.6,68.16Zm-4.31,0a5.94,5.94,0,0,0,.22,1.84c.15.41.38.61.71.61.62,0,.93-.82.93-2.45s-.31-2.43-.93-2.43c-.33,0-.56.2-.71.6A5.87,5.87,0,0,0,168.29,68.18Zm11-4.26-7.88,14.22h-2.34L177,63.92Zm3.27,9.92a5.47,5.47,0,0,1-.86,3.35,3,3,0,0,1-2.54,1.13,2.93,2.93,0,0,1-2.48-1.16,5.43,5.43,0,0,1-.88-3.32q0-4.44,3.36-4.44a3,3,0,0,1,2.52,1.15A5.3,5.3,0,0,1,182.56,73.84Zm-4.31,0a5.94,5.94,0,0,0,.22,1.84c.15.41.38.61.71.61.62,0,.93-.82.93-2.45s-.31-2.43-.93-2.43c-.33,0-.56.2-.71.6A5.87,5.87,0,0,0,178.25,73.86Z" style="fill: #314041"/>
  </g>
  <g>
    <path d="M250.65,41.05h-1.71v3H246v-3h-6.07V39l6.24-9.18h2.77v8.94h1.71ZM246,38.72V36.31c0-.41,0-1,.05-1.75s.06-1.21.08-1.34h-.08a12,12,0,0,1-.86,1.56l-2.61,3.94Z" style="fill: #314041"/>
    <path d="M261.7,44h-9.94V41.91l3.57-3.61a30,30,0,0,0,2.07-2.25,4.82,4.82,0,0,0,.7-1.16,2.85,2.85,0,0,0,.22-1.11,1.65,1.65,0,0,0-.47-1.28,1.84,1.84,0,0,0-1.26-.41,3.65,3.65,0,0,0-1.61.37,8.76,8.76,0,0,0-1.62,1.08l-1.64-1.93a10.77,10.77,0,0,1,1.74-1.27,6.62,6.62,0,0,1,1.51-.56,7.44,7.44,0,0,1,1.83-.2,5.45,5.45,0,0,1,2.35.48,3.86,3.86,0,0,1,1.59,1.36,3.68,3.68,0,0,1,.56,2,4.89,4.89,0,0,1-.34,1.84A7.39,7.39,0,0,1,259.89,37a27,27,0,0,1-2.56,2.57l-1.82,1.72v.14h6.19Z" style="fill: #314041"/>
    <path d="M269.71,34a5.44,5.44,0,0,1-.87,3.36,3,3,0,0,1-2.54,1.12,2.93,2.93,0,0,1-2.48-1.15A5.46,5.46,0,0,1,263,34c0-3,1.11-4.44,3.35-4.44a3,3,0,0,1,2.53,1.15A5.37,5.37,0,0,1,269.71,34Zm-4.31,0a5.65,5.65,0,0,0,.22,1.84c.14.41.38.61.7.61.62,0,.94-.82.94-2.45s-.32-2.43-.94-2.43c-.32,0-.56.2-.7.6A5.58,5.58,0,0,0,265.4,34Zm11-4.26L268.51,44h-2.33l7.88-14.22Zm3.27,9.92a5.41,5.41,0,0,1-.87,3.35,3,3,0,0,1-2.54,1.12A2.92,2.92,0,0,1,273.78,43a5.43,5.43,0,0,1-.87-3.32c0-3,1.11-4.44,3.35-4.44a3,3,0,0,1,2.52,1.15A5.3,5.3,0,0,1,279.67,39.7Zm-4.31,0a5.65,5.65,0,0,0,.22,1.84c.14.41.38.61.7.61.62,0,.93-.82.93-2.45s-.31-2.43-.93-2.43c-.32,0-.56.2-.7.6A5.58,5.58,0,0,0,275.36,39.72Z" style="fill: #314041"/>
  </g>
  <g>
    <path d="M349.75,142.19h-3V134l0-1.35.05-1.48c-.5.5-.84.82-1,1l-1.63,1.31-1.45-1.81,4.58-3.64h2.47Z" style="fill: #314041"/>
    <path d="M353.59,136.15c0-2.82.6-4.91,1.79-6.29a6.69,6.69,0,0,1,5.34-2.06,9.48,9.48,0,0,1,1.91.15v2.4a7.81,7.81,0,0,0-1.71-.2,5.89,5.89,0,0,0-2.53.47,3.11,3.11,0,0,0-1.46,1.38,6.29,6.29,0,0,0-.58,2.6h.13a3.3,3.3,0,0,1,3.08-1.65,3.82,3.82,0,0,1,3,1.19,4.76,4.76,0,0,1,1.08,3.31,5,5,0,0,1-1.28,3.6,4.73,4.73,0,0,1-3.57,1.33,5,5,0,0,1-2.74-.73,4.76,4.76,0,0,1-1.81-2.13A8,8,0,0,1,353.59,136.15Zm5.14,3.83a1.77,1.77,0,0,0,1.47-.65,2.84,2.84,0,0,0,.52-1.84,2.54,2.54,0,0,0-.48-1.64,1.76,1.76,0,0,0-1.46-.6,2.28,2.28,0,0,0-1.56.59,1.84,1.84,0,0,0-.64,1.39,3.14,3.14,0,0,0,.6,2A1.88,1.88,0,0,0,358.73,140Z" style="fill: #314041"/>
    <path d="M371.63,132.21a5.51,5.51,0,0,1-.86,3.36,3,3,0,0,1-2.54,1.12,2.92,2.92,0,0,1-2.48-1.15,5.46,5.46,0,0,1-.88-3.33q0-4.45,3.36-4.45a3,3,0,0,1,2.52,1.15A5.34,5.34,0,0,1,371.63,132.21Zm-4.31,0a6,6,0,0,0,.22,1.84c.15.4.38.61.71.61.62,0,.93-.82.93-2.45s-.31-2.43-.93-2.43c-.33,0-.56.19-.71.59A5.89,5.89,0,0,0,367.32,132.23Zm11-4.26-7.88,14.22H368.1L376,128Zm3.27,9.92a5.5,5.5,0,0,1-.86,3.35,3,3,0,0,1-2.54,1.12,2.92,2.92,0,0,1-2.48-1.15,5.38,5.38,0,0,1-.88-3.32q0-4.45,3.36-4.45a3,3,0,0,1,2.52,1.15A5.34,5.34,0,0,1,381.59,137.89Zm-4.31,0a6,6,0,0,0,.22,1.84c.15.4.38.61.71.61.62,0,.93-.82.93-2.45s-.31-2.44-.93-2.44c-.33,0-.56.2-.71.6A5.89,5.89,0,0,0,377.28,137.91Z" style="fill: #314041"/>
  </g>
  <g>
    <path d="M442.3,171.43a4.58,4.58,0,0,1,3.28,1.16,4.17,4.17,0,0,1,1.22,3.17,4.62,4.62,0,0,1-1.47,3.67,6.22,6.22,0,0,1-4.2,1.28,8.12,8.12,0,0,1-3.83-.77v-2.59a8.81,8.81,0,0,0,3.72.92c1.84,0,2.76-.75,2.76-2.26s-.95-2.15-2.85-2.15a6.84,6.84,0,0,0-1.14.11,6.57,6.57,0,0,0-1,.22l-1.2-.65.54-7.24h7.71v2.55h-5.08l-.26,2.79.34-.07A6.78,6.78,0,0,1,442.3,171.43Z" style="fill: #314041"/>
    <path d="M455.07,170.54a5.44,5.44,0,0,1-.87,3.36,3,3,0,0,1-2.53,1.12,3,3,0,0,1-2.49-1.15,5.46,5.46,0,0,1-.87-3.33c0-3,1.12-4.45,3.36-4.45a3,3,0,0,1,2.52,1.16A5.28,5.28,0,0,1,455.07,170.54Zm-4.31,0a5.65,5.65,0,0,0,.22,1.84c.15.41.38.61.7.61.63,0,.94-.82.94-2.45s-.31-2.43-.94-2.43c-.32,0-.55.2-.7.59A5.61,5.61,0,0,0,450.76,170.56Zm11-4.26-7.89,14.22h-2.33l7.89-14.22Zm3.27,9.92a5.43,5.43,0,0,1-.87,3.35,3,3,0,0,1-2.54,1.12,2.93,2.93,0,0,1-2.48-1.15,5.45,5.45,0,0,1-.87-3.32c0-3,1.12-4.45,3.35-4.45a3,3,0,0,1,2.53,1.16A5.35,5.35,0,0,1,465,176.22Zm-4.31,0a5.65,5.65,0,0,0,.22,1.84c.14.41.38.61.7.61.63,0,.94-.82.94-2.45s-.31-2.43-.94-2.43a.75.75,0,0,0-.7.59A5.61,5.61,0,0,0,460.72,176.24Z" style="fill: #314041"/>
  </g>
  <circle cx="63.48" cy="200.51" r="6.06" style="fill: #fff;stroke: #304041;stroke-linecap: round;stroke-linejoin: round;stroke-width: 2.25px"/>
  <circle cx="160.21" cy="91.3" r="6.06" style="fill: #fff;stroke: #304041;stroke-linecap: round;stroke-linejoin: round;stroke-width: 2.25px"/>
  <circle cx="255.48" cy="56.39" r="6.06" style="fill: #fff;stroke: #304041;stroke-linecap: round;stroke-linejoin: round;stroke-width: 2.25px"/>
  <circle cx="351.48" cy="156.5" r="6.06" style="fill: #fff;stroke: #304041;stroke-linecap: round;stroke-linejoin: round;stroke-width: 2.25px"/>
  <circle cx="447.48" cy="197.51" r="6.06" style="fill: #fff;stroke: #304041;stroke-linecap: round;stroke-linejoin: round;stroke-width: 2.25px"/>
</svg>
