<svg xmlns="http://www.w3.org/2000/svg" viewBox="0 0 14.17 14.17"><defs><style>.a{fill:#1167a6;}</style></defs><title>email</title><path class="a" d="M12.3,6.15V11.5a1,1,0,0,1-1,1H2.85a1,1,0,0,1-1-1V6.15a1.11,1.11,0,0,1,.36-.76l.62-.5V4a1,1,0,0,1,1-1H5.18A3.24,3.24,0,0,1,7.09,2,3.24,3.24,0,0,1,9,3h1.35a1,1,0,0,1,1,1V4.9l.62.5A1,1,0,0,1,12.3,6.15Zm-1,1.51L9.19,9.38a3.73,3.73,0,0,1-2.1,1.14A3.73,3.73,0,0,1,5,9.38L2.85,7.66v3.72A.12.12,0,0,0,3,11.5H11.2a.12.12,0,0,0,.12-.12ZM3.83,7.2,5.59,8.62c.36.29,1,.92,1.5.92s1.13-.63,1.5-.92L10.35,7.2V4H3.83Zm1.3-1.56V5.31A.33.33,0,0,1,5.46,5H8.72A.33.33,0,0,1,9,5.31v.33A.33.33,0,0,1,8.72,6H5.46A.33.33,0,0,1,5.13,5.63Zm3.59,2H5.46a.33.33,0,0,1-.33-.33V6.94a.33.33,0,0,1,.33-.33H8.72A.33.33,0,0,1,9,6.94v.33A.33.33,0,0,1,8.72,7.59Z"/></svg>