<svg xmlns="http://www.w3.org/2000/svg" viewBox="0 0 14.17 14.17"><defs><style>.a{fill:#1167a6;}</style></defs><title>web</title><path class="a" d="M9.55,9.45H9.21l.38.88a1.26,1.26,0,0,1,0,1,1.28,1.28,0,0,1-.69.71h0l-.85.35a1.29,1.29,0,0,1-1.67-.67h0L6,10.87l-.49.48a1.29,1.29,0,0,1-2.19-.91V3.33a1.29,1.29,0,0,1,2.2-.9l4.9,4.83A1.28,1.28,0,0,1,9.55,9.45ZM9.77,8,4.84,3.12a.31.31,0,0,0-.53.21v7.11a.31.31,0,0,0,.53.21L6.35,9.18l.92,2.14a.31.31,0,0,0,.41.16l.85-.35a.3.3,0,0,0,.16-.4l-1-2.25H9.55A.3.3,0,0,0,9.77,8Z"/></svg>