<svg xmlns="http://www.w3.org/2000/svg" viewBox="0 0 14.17 14.17"><defs><style>.a{fill:#1167a6;}</style></defs><title>youtube</title><path class="a" d="M12.43,4.54a9.16,9.16,0,0,1,.2,1.67l0,1,0,1a9.27,9.27,0,0,1-.2,1.69,1.45,1.45,0,0,1-1,1,14.58,14.58,0,0,1-2.49.2l-1.85,0-1.85,0a14.58,14.58,0,0,1-2.49-.2,1.45,1.45,0,0,1-1-1,9.27,9.27,0,0,1-.2-1.69l0-1q0-.45,0-1a9.16,9.16,0,0,1,.2-1.67,1.43,1.43,0,0,1,1-1,14.58,14.58,0,0,1,2.49-.2l1.85,0,1.85,0a14.58,14.58,0,0,1,2.49.2,1.43,1.43,0,0,1,1,1ZM5.95,8.9,8.86,7.23,5.95,5.58Z"/></svg>