<?xml version="1.0" standalone="no"?>
<!DOCTYPE svg PUBLIC "-//W3C//DTD SVG 1.1//EN" "http://www.w3.org/Graphics/SVG/1.1/DTD/svg11.dtd" >
<svg xmlns="http://www.w3.org/2000/svg">
<metadata></metadata>
<defs>
<font id="hp_simplifieditalic" horiz-adv-x="1097" >
<font-face units-per-em="2048" ascent="1665" descent="-383" />
<missing-glyph horiz-adv-x="421" />
<glyph horiz-adv-x="0" />
<glyph horiz-adv-x="682" />
<glyph unicode=" "  horiz-adv-x="421" />
<glyph unicode="&#x09;" horiz-adv-x="421" />
<glyph unicode="&#xa0;" horiz-adv-x="421" />
<glyph unicode="!" horiz-adv-x="528" d="M141 88q0 -46 31 -74q32 -26 86 -26q74 0 117 43q41 41 41 121q0 46 -31 71q-28 25 -86 25q-74 0 -115 -41q-43 -40 -43 -119zM272 473q0 -20 11 -35q11 -8 30 -8h101q7 27 96 373q28 113 84 364l29 138q3 12 8 47q4 16 4 30q0 19 -8 27q-5 10 -37 10h-154l-71 -366 q-19 -104 -29 -154q-5 -29 -15.5 -85.5t-15.5 -84.5q-22 -150 -22 -151q-11 -82 -11 -105z" />
<glyph unicode="&#x22;" horiz-adv-x="671" d="M276 995q0 -32 37 -32h101q34 112 35 116q8 26 22 74.5t16 56.5q12 44 29 113q12 53 12 66q0 30 -36 30h-150l-55 -332q-3 -18 -8 -57q0 -8 -1.5 -19t-1.5 -16zM600 995q0 -32 37 -32h100q34 112 35 116q11 36 39 131q12 44 29 113q12 53 12 66q0 30 -37 30h-149 l-56 -332q-3 -18 -8 -57q0 -7 -1 -18.5t-1 -16.5z" />
<glyph unicode="#" horiz-adv-x="1157" d="M168 391q0 -41 41 -41h123q-36 -146 -56 -231q-5 -26 -10 -49.5t-7.5 -33t-2.5 -11.5q0 -25 27 -25h127l84 350h274q-24 -97 -55 -231q-5 -26 -10.5 -49.5t-8 -33.5t-2.5 -11q0 -25 27 -25h127l84 350h221v119q0 39 -43 39h-139l90 379h198v119q0 38 -43 38h-116 q7 30 25.5 107t25.5 109q18 73 18 90q0 15 -8 20q-4 4 -18 4h-129l-80 -330h-270q7 30 25.5 107t25.5 109q18 73 18 90q0 15 -8 20q-4 4 -18 4h-130l-79 -330h-222v-116q0 -41 41 -41h144l-90 -379h-201v-117zM532 508l91 379h272l-90 -379h-273z" />
<glyph unicode="$" d="M160 156q0 -31 37 -58q41 -27 84 -43q54 -20 94 -30q29 -7 65 -13l-39 -143q-1 -4 -3 -12.5t-3 -12.5q0 -3 -1 -8.5t-1 -9.5q0 -7 8 -19q7 -5 29 -8h70l55 203q101 0 199 29q101 33 161 80q70 55 107 131q39 77 39 176q0 69 -25 127q-28 65 -63 100q-40 45 -92 78 q-39 28 -111 63l115 410q73 -14 133 -43q56 -24 80 -45l28 59q17 33 17 60q0 41 -62 76q-52 32 -153 55l33 117q16 55 16 67q0 16 -8 21q-5 8 -29 8h-68l-55 -197q-18 4 -59 4q-106 0 -183 -28q-75 -25 -137 -78q-60 -53 -88 -117q-31 -70 -31 -143q0 -63 25 -121 q24 -54 64 -96q51 -51 94 -80q35 -24 114 -68l-129 -469q-78 12 -149 39q-89 39 -129 64l-33 -68q-2 -4 -12 -29q-4 -8 -4 -28zM512 1026q0 48 18 86q16 33 48 59q30 24 67 33q34 10 80 10q35 0 47 -4l-102 -370q-20 12 -60 32q-27 18 -51 39q-20 23 -35 50q-12 30 -12 65z M602 176l117 418q73 -40 110 -86q35 -41 35 -107q0 -104 -69 -161q-67 -55 -193 -64z" />
<glyph unicode="%" horiz-adv-x="1628" d="M254 918q0 -129 68 -203q69 -72 170 -72q81 0 151 39q77 44 121 104q53 69 80 156q26 79 26 195q0 134 -65 202q-61 70 -168 70q-86 0 -154 -39q-71 -39 -121 -104q-50 -69 -79 -156q-29 -95 -29 -192zM379 29q0 -29 39 -29h108l973 1319q17 23 17 39q0 28 -39 28h-109 l-973 -1318q-16 -22 -16 -39zM414 934q0 45 14 113q14 55 39 108q31 56 63 82q36 33 82 33q58 0 78 -41q21 -35 21 -109q0 -53 -15 -114q-12 -60 -39 -109q-21 -43 -63 -82q-41 -33 -82 -33q-54 0 -78 41q-20 41 -20 111zM1020 256q0 -130 67 -203q68 -71 170 -71 q84 0 152 38q76 44 121 105q53 69 80 156q26 79 26 194q0 135 -65 203q-61 70 -168 70q-86 0 -154 -39q-69 -38 -121 -105q-51 -70 -79 -155q-29 -95 -29 -193zM1180 272q0 45 14 113q14 57 39 109q30 54 63 81q36 33 82 33q58 0 78 -41q21 -35 21 -108q0 -53 -15 -115 q-12 -58 -39 -108q-21 -43 -63 -82q-41 -33 -82 -33q-54 0 -78 41q-20 41 -20 110z" />
<glyph unicode="&#x26;" horiz-adv-x="1247" d="M119 307q0 -160 106 -246q106 -81 281 -81q149 0 256 49q104 46 192 125q3 -6 12.5 -26.5t14.5 -31.5q15 -28 27 -67q13 -29 43 -29h151q-20 83 -47 143q-30 79 -70 146q48 64 97 153q41 78 73 172q17 46 19 58q4 12 4 28q0 27 -35 27h-119q-18 -64 -53 -145 q-26 -68 -76 -146q-65 97 -106 146q-16 21 -131 155q81 46 143 86q67 46 113 95q49 52 76 110q26 53 26 133q0 136 -92 207q-90 72 -236 72q-106 0 -182 -33q-73 -28 -127 -86q-53 -56 -78 -119q-24 -68 -24 -133q0 -90 37 -168q37 -75 82 -135q-90 -46 -150 -88 q-70 -48 -119 -100q-50 -57 -80 -123q-28 -63 -28 -148zM317 330q0 53 23 104q25 52 59 86q47 47 88 72q35 23 109 61q76 -83 147 -174q75 -90 131 -188q-68 -71 -153 -111q-81 -37 -191 -37q-84 0 -151 45q-62 47 -62 142zM561 1067q0 112 62 168q58 55 157 55 q83 0 119 -39q39 -36 39 -102q0 -51 -20 -92q-16 -36 -56 -76q-40 -37 -90 -68q-53 -30 -117 -63q-41 50 -67 98q-27 59 -27 119z" />
<glyph unicode="'" horiz-adv-x="348" d="M276 995q0 -32 37 -32h101q34 112 35 116q8 26 22 74.5t16 56.5q12 44 29 113q12 53 12 66q0 30 -36 30h-150l-55 -332q-3 -18 -8 -57q0 -8 -1.5 -19t-1.5 -16z" />
<glyph unicode="(" horiz-adv-x="593" d="M211 403q0 -147 29 -286q33 -140 77 -238q16 -28 23 -35q12 -12 41 -12h121q-41 128 -70 272q-26 149 -26 299q0 142 28 291q28 139 80 283q52 140 125 268q63 114 160 246q28 38 28 55q0 27 -36 27h-117q-120 -130 -199 -260q-81 -130 -145 -287q-58 -146 -88 -305 q-31 -161 -31 -318z" />
<glyph unicode=")" horiz-adv-x="593" d="M16 -141q0 -27 35 -27h125q231 258 340 555q111 294 111 627q0 155 -27 278q-22 117 -76 234q-8 21 -22 35q-12 12 -41 12h-113q24 -74 37 -127q16 -56 29 -127q9 -46 16 -137q6 -70 6 -156q0 -305 -104 -592q-107 -290 -289 -520q-27 -39 -27 -55z" />
<glyph unicode="*" horiz-adv-x="808" d="M246 1092l248 -54l-170 -161l-27 -27q-12 -12 -12 -27q0 -10 14 -24l96 -80l183 248l84 -201q15 -35 36 -35q9 0 17 4q3 2 6 3.5t4 2.5l109 68l-158 223l211 43q24 7 37 12q16 8 16 31q0 22 -8 49l-27 82l-241 -108l53 209q6 12 6 24q2 8 2 21q0 24 -27 24h-137l-10 -274 l-176 82q-13 7 -27 10q-8 4 -20 4q-23 0 -37 -35z" />
<glyph unicode="+" horiz-adv-x="1060" d="M256 651q0 -37 45 -37h258l-53 -262l-6 -30q0 -4 -1 -12t-1 -9q0 -31 43 -31h129l69 344h314l16 82q6 15 6 29q2 10 2 23q0 38 -45 38h-260l53 261q6 18 6 30q3 15 3 23q0 30 -43 30h-129l-70 -344h-311l-17 -81q-2 -10 -6 -31q0 -6 -1 -13t-1 -10z" />
<glyph unicode="," horiz-adv-x="454" d="M49 -231q0 -23 31 -23h92l117 172q40 58 71 115q31 53 31 114q0 101 -123 101q-73 0 -116 -43q-39 -42 -39 -121q0 -30 20 -53q21 -18 55 -27l-118 -188q-21 -35 -21 -47z" />
<glyph unicode="-" horiz-adv-x="761" d="M180 500q0 -9 8 -25q8 -8 31 -8h543l22 108q4 12 4 23q3 15 3 20q0 16 -9 25q-4 8 -30 8h-543l-23 -108q0 -3 -4 -23q0 -4 -1 -10.5t-1 -9.5z" />
<glyph unicode="." horiz-adv-x="454" d="M102 94q0 -47 31 -78q28 -28 86 -28q73 0 117 41q41 41 41 116q0 46 -31 74q-29 29 -86 29q-73 0 -115 -39q-43 -37 -43 -115z" />
<glyph unicode="/" horiz-adv-x="751" d="M20 -139q0 -31 35 -31h150l786 1673q3 6 8 21q5 10 5 18q0 31 -35 31h-150l-786 -1673q-5 -15 -8 -21q-5 -15 -5 -18z" />
<glyph unicode="0" d="M197 432q0 -455 344 -455q160 0 280 91q121 92 195 229q71 126 112 317q37 176 37 351q0 454 -346 454q-155 0 -270 -84q-117 -82 -195 -221q-74 -133 -118 -315q-39 -172 -39 -367zM406 426q0 70 10 172q16 119 28 180q22 96 50 170q32 88 73 146q43 63 97 100 q51 37 120 37q58 0 88 -27q35 -25 52 -65q16 -35 22 -88q6 -50 6 -95q0 -124 -22 -251q-23 -147 -68 -259q-47 -122 -117 -200q-71 -80 -172 -80q-90 0 -131 65q-36 65 -36 195z" />
<glyph unicode="1" d="M393 1083q0 -28 27 -28q6 0 22 4q4 2 13.5 5.5t13.5 4.5q23 9 69.5 29.5t69.5 29.5q70 33 144 58l-209 -1012q-3 -14 -9.5 -42t-9.5 -42q-6 -40 -6 -51q0 -16 10 -29q13 -10 39 -10h148l270 1327q4 24 4 27q2 8 2 20q0 45 -51 45q-24 0 -57 -8q-18 -3 -90 -29 q-85 -29 -162 -63q-117 -49 -211 -92l-17 -82q-6 -30 -8 -37q-2 -12 -2 -25z" />
<glyph unicode="2" d="M127 45q0 -18 12 -33q12 -12 33 -12h768l16 78q7 21 7 35q2 12 2 28q0 37 -47 37h-553q12 38 41 90q26 46 69 94q49 56 100 99q31 27 142 104q87 59 172 121q82 61 141 123q59 65 96 137q35 69 35 166q0 88 -35 143q-33 59 -86 95q-54 38 -120 53q-60 16 -136 16 q-69 0 -118 -10q-59 -10 -107 -27q-44 -13 -86 -32q-35 -17 -61 -33q-5 -36 -13 -68q-2 -19 -6 -37q0 -10 -4 -18v-8q0 -29 25 -29q7 0 35 14q31 17 69 33q47 20 103 31q57 14 124 14q95 0 154 -39q59 -36 59 -116q0 -71 -47 -129q-52 -69 -108 -117q-50 -45 -129 -96 q-20 -13 -39.5 -26.5t-39 -27.5t-28.5 -20q-100 -69 -174 -137q-71 -65 -121 -133q-43 -58 -82 -142q-34 -84 -53 -160q-4 -14 -8 -38q0 -6 -1 -13t-1 -10z" />
<glyph unicode="3" d="M137 96q0 -23 33 -49q26 -16 84 -37q26 -7 111 -24q61 -9 118 -9q94 0 203 33q103 36 170 92q78 65 119 146q45 83 45 196q0 109 -51 177q-50 74 -158 100q80 16 135 51q55 33 96 88q41 53 58 111q18 53 18 121q0 162 -106 243q-103 84 -281 84q-111 0 -199 -26 q-84 -23 -145 -62l-18 -80q0 -6 -4 -18v-14q0 -33 26 -33q8 0 35 10q23 10 63 23q49 14 93 22q46 10 112 10q118 0 170 -49q54 -48 54 -139q0 -43 -17 -90q-15 -46 -53 -84q-39 -39 -100 -62q-61 -24 -158 -24h-103l-18 -82q-10 -48 -10 -53q0 -33 43 -33h78q120 0 174 -45 q57 -42 57 -139q0 -133 -94 -215q-92 -80 -256 -80q-87 0 -160 18q-60 15 -131 43l-16 -51q-4 -16 -13 -43q-4 -20 -4 -27z" />
<glyph unicode="4" d="M176 385q0 -23 19 -33q18 -6 36 -6h529l-45 -223q-1 -8 -10 -53q-5 -23 -5 -33q0 -37 50 -37h129l69 346h146l10 53q12 58 12 74q0 20 -8 25q-5 8 -31 8h-96l149 766q2 10 6 26.5t5 22.5q2 7 2 31q0 19 -9.5 26.5t-31.5 7.5h-187q-110 -78 -213 -178q-93 -87 -194 -217 q-98 -126 -172 -248q-78 -126 -141 -268q-9 -27 -13 -47q-6 -27 -6 -43zM387 506q38 73 105 180q81 124 135 197q75 101 157 186q102 106 162 152l-158 -715h-401z" />
<glyph unicode="5" d="M160 96q0 -29 37 -53q28 -16 90 -37q41 -11 112 -22q72 -7 101 -7q130 0 231 43q102 42 176 113q73 73 111 168q37 90 37 201q0 95 -33 157q-28 64 -86 109q-55 43 -127 61q-74 21 -152 21q-45 0 -65 -4q-52 -6 -53 -6l98 370h512l14 78q8 39 8 62q0 17 -12 26 q-10 10 -39 10h-624l-162 -618q-4 -30 -8 -41q-4 -24 -4 -29q0 -36 38 -36q13 0 37 6q9 2 31.5 5.5t28.5 4.5q13 2 37 5t36 5q29 4 80 4q130 0 183 -53q55 -52 55 -145q0 -84 -29 -146q-27 -61 -76 -104q-47 -42 -116 -66q-71 -22 -148 -22q-88 0 -168 22q-113 37 -118 39 l-17 -51q-2 -6 -7 -21.5t-7 -21.5q-2 -8 -2 -27z" />
<glyph unicode="6" d="M227 408q0 -81 27 -170q26 -78 72 -138q46 -54 116 -90q78 -33 156 -33q123 0 217 48q100 53 158 127q68 83 96 180q33 100 33 209q0 81 -27 143q-26 69 -71 109q-45 45 -107 69q-64 25 -133 25q-96 0 -166 -33q-65 -26 -125 -90q63 262 176 373q114 114 289 114 q74 0 135 -18q54 -15 90 -31l19 47q2 4 5 14.5t5 14.5q4 10 4 27q0 27 -16 38q-20 20 -43 29q-58 28 -117 37q-51 10 -119 10q-151 0 -276 -73q-122 -73 -213 -207q-88 -132 -138 -320q-47 -175 -47 -411zM420 383q0 20 4 78q8 61 14 88q46 79 119 125q70 47 160 47 q94 0 139 -57q47 -53 47 -158q0 -67 -20 -131q-17 -60 -56 -115q-40 -53 -90 -80q-53 -30 -121 -30q-54 0 -96 22q-35 22 -59 57q-24 42 -33 76q-8 39 -8 78z" />
<glyph unicode="7" d="M297 39q0 -39 43 -39h149q121 301 295 610q162 288 392 617l14 65q6 18 6 33q2 12 2 25q0 18 -10 26q-8 10 -35 10h-782l-13 -65q-4 -30 -8 -45q-4 -28 -4 -33q0 -35 45 -35h574q-183 -259 -334 -508q-169 -281 -277 -503q-40 -88 -41 -91q-16 -39 -16 -67z" />
<glyph unicode="8" d="M172 326q0 -76 31 -146q27 -57 84 -108q61 -48 129 -70q80 -25 162 -25q109 0 213 33q94 33 161 94q68 62 105 146t37 188q0 100 -43 170q-43 72 -121 115q119 52 184 147q64 94 64 220q0 70 -27 131q-23 59 -74 104q-51 48 -116 70q-60 24 -154 24q-109 0 -191 -33 q-83 -29 -145 -88q-53 -48 -94 -135q-33 -73 -33 -172q0 -68 31 -141q29 -64 98 -109q-144 -47 -221 -155q-80 -109 -80 -260zM373 348q0 57 20 119q19 49 60 94q40 42 94 66q51 22 123 22q121 0 172 -63q53 -59 53 -154q0 -58 -21 -113q-16 -45 -59 -92q-33 -35 -92 -61 q-61 -23 -123 -23q-93 0 -164 58q-63 57 -63 147zM528 991q0 117 74 191q70 73 195 73q109 0 151 -57q43 -51 43 -129q0 -115 -73 -188q-73 -70 -197 -70q-102 0 -148 55q-45 57 -45 125z" />
<glyph unicode="9" d="M162 92q0 -24 14 -41q19 -15 43 -26q67 -25 121 -35q73 -13 127 -13q166 0 293 86q124 82 211 220q82 129 127 305q43 171 43 336q0 259 -99 376q-98 119 -276 119q-121 0 -215 -49q-97 -53 -156 -125q-64 -79 -96 -172q-31 -98 -31 -190q0 -82 27 -158q27 -67 72 -115 q49 -46 108 -69q62 -23 135 -23q80 0 164 33q79 34 129 90q-59 -262 -176 -379q-115 -115 -291 -115q-74 0 -149 21q-51 17 -90 33l-21 -49q-14 -35 -14 -60zM467 901q0 59 20 127q21 65 56 111q38 50 90 80q52 28 121 28q62 0 96 -22q39 -20 59 -56q25 -36 33 -75 q8 -29 8 -82q0 -47 -4 -76q-3 -44 -14 -80q-41 -73 -119 -125q-74 -47 -160 -47q-88 0 -139 57q-47 59 -47 160z" />
<glyph unicode=":" horiz-adv-x="454" d="M102 94q0 -47 31 -78q28 -28 86 -28q73 0 117 41q41 41 41 116q0 46 -31 74q-29 29 -86 29q-73 0 -115 -39q-43 -37 -43 -115zM248 897q0 -47 31 -78q28 -28 86 -28q73 0 116 40q41 41 41 117q0 47 -30 74q-29 29 -86 29q-73 0 -115 -39q-43 -37 -43 -115z" />
<glyph unicode=";" horiz-adv-x="454" d="M49 -231q0 -23 31 -23h92l117 172q40 58 71 115q31 53 31 114q0 101 -123 101q-73 0 -116 -43q-39 -42 -39 -121q0 -30 20 -53q21 -18 55 -27l-118 -188q-21 -35 -21 -47zM242 897q0 -48 30 -78q28 -28 86 -28q74 0 117 40q41 41 41 117q0 46 -31 74q-29 29 -86 29 q-72 0 -114 -39q-43 -37 -43 -115z" />
<glyph unicode="&#x3c;" d="M319 649q0 -13 11 -28q22 -16 30 -21l596 -326l23 115q6 18 6 29q2 8 2 16q0 20 -8 25q-3 4 -27 16l-424 221l566 256l20 101q6 18 6 28q2 8 2 19q0 24 -24 24q-16 0 -43 -12l-713 -338l-16 -84q0 -6 -4 -22q0 -4 -1.5 -10t-1.5 -9z" />
<glyph unicode="=" d="M274 436q0 -6 9 -24q9 -9 30 -9h754l20 97q5 15 5 22q2 10 2 21q0 15 -9 24q-4 8 -30 8h-754l-20 -96q0 -2 -1 -5t-2 -8t-2 -9q0 -4 -1 -11t-1 -10zM346 844q0 -9 8 -25q8 -8 31 -8h754l20 96q4 12 4 23q2 10 2 20q0 17 -8 25q-4 8 -31 8h-753l-21 -96q0 -3 -4 -23 q0 -4 -1 -10.5t-1 -9.5z" />
<glyph unicode="&#x3e;" d="M270 299q0 -25 25 -25q14 0 43 13l713 338l16 84q4 16 4 22q2 8 2 19q0 20 -10 28q-7 9 -31 21l-596 325l-22 -114q-5 -25 -6 -29q0 -5 -1 -10t-1 -6q0 -13 8 -25q2 -1 10.5 -6t15.5 -10l424 -222l-565 -256l-20 -100q-1 -5 -7 -29q0 -5 -1 -11t-1 -7z" />
<glyph unicode="?" horiz-adv-x="839" d="M219 88q0 -46 31 -74q32 -26 86 -26q74 0 117 43q41 41 41 121q0 46 -31 71q-28 25 -84 25q-76 0 -117 -41q-43 -40 -43 -119zM309 1251q0 -10 8 -26q11 -11 27 -11q4 0 35 9q5 2 24 8.5t31 11.5q40 14 74 19q39 8 86 8q182 0 182 -146q0 -44 -18 -84q-18 -37 -45 -71 q-23 -29 -66 -66q-34 -27 -76 -63q-68 -56 -98 -82q-30 -27 -80 -84q-32 -40 -53 -90q-21 -54 -21 -105q0 -34 15 -49q13 -8 41 -8h92q9 56 27 96q12 30 47 74q29 36 65 65q16 13 49 40.5t43 35.5q98 82 107 90q50 44 90 97q36 47 59 110q23 59 23 129q0 131 -86 205 q-85 76 -242 76q-113 0 -196 -29q-89 -28 -127 -49l-9 -43q-1 -6 -3 -19.5t-3 -19.5q0 -6 -1 -16t-1 -13z" />
<glyph unicode="@" horiz-adv-x="1669" d="M160 344q0 -172 51 -299q51 -119 139 -201q85 -73 209 -112q125 -35 258 -35q109 0 217 18q107 17 191 49l-23 93q-6 37 -35 37q-7 0 -22 -5q-25 -5 -37 -8q-86 -16 -131 -22q-64 -6 -129 -6q-107 0 -209 26q-95 28 -162 86q-63 57 -102 156q-35 92 -35 233q0 171 53 332 q57 164 156 283q107 126 248 196q148 74 333 74q109 0 185 -22q80 -20 145 -72q63 -51 92 -127q33 -73 33 -184q0 -80 -18 -179q-18 -96 -60 -178q-43 -88 -106 -145q-63 -60 -162 -72q6 45 8 57q2 10 5 31.5t5 32.5q2 13 7 33.5t6 27.5q8 40 12 56l84 346q2 9 5.5 22.5 t4.5 16.5q2 5 2 28q0 36 -49 60q-40 21 -98 37q-59 20 -146 20q-125 0 -221 -57q-96 -56 -162 -146q-61 -83 -96 -200q-33 -122 -33 -222q0 -142 64 -231q63 -84 182 -84q86 0 150 39q67 42 106 92q0 -17 4 -45q6 -29 29 -49q25 -19 63 -19q145 0 259 66q110 67 182 170 q67 96 108 236q37 130 37 260q0 158 -55 262q-56 109 -141 174q-82 65 -197 96q-107 29 -223 29q-220 0 -400 -82q-180 -80 -309 -221q-127 -139 -201 -336q-71 -195 -71 -416zM758 406q0 71 20 159q21 84 58 150q42 71 98 112q57 43 141 43q37 0 64 -6q41 -8 51 -14 l-117 -492q-35 -41 -90 -75q-54 -31 -111 -31q-65 0 -90 45q-24 46 -24 109z" />
<glyph unicode="A" horiz-adv-x="1073" d="M59 37q0 -12 11 -27q13 -10 34 -10h146q39 118 67 195q75 194 78 202h432q0 -47 -6 -102q-6 -103 -6 -107q-1 -16 -2 -46t-2 -44q0 -15 -1 -32t-1 -19q0 -47 45 -47h154q9 123 12 258q4 90 4 287q0 249 -18 461q-19 221 -41 350q-12 63 -70 63h-182q-260 -438 -402 -745 q-138 -295 -229 -549q-14 -42 -16 -49q-7 -21 -7 -39zM463 563q18 38 78 170q11 23 36.5 79t40.5 87q15 28 44 85t43 85q89 170 96 182q21 -135 28 -299q5 -118 5 -286q0 -23 -3 -50q0 -35 -2 -53h-366z" />
<glyph unicode="B" horiz-adv-x="1107" d="M147 35q0 -35 48 -35h348q98 0 209 27q99 26 176 82q77 54 121 137q45 83 45 200q0 94 -45 168q-40 73 -140 113q133 51 197 145q68 100 68 234q0 93 -37 154q-37 64 -93 100q-51 38 -131 57q-69 17 -147 17q-108 0 -186 -11q-94 -10 -160 -26l-252 -1239 q-21 -107 -21 -123zM369 166l96 481h186q240 0 240 -196q0 -73 -27 -129q-24 -52 -73 -89q-43 -32 -111 -51q-66 -16 -135 -16h-176zM496 807l90 444q29 6 69 9q27 4 88 4q107 0 168 -43q62 -42 62 -140q0 -136 -86 -207q-85 -67 -219 -67h-172z" />
<glyph unicode="C" horiz-adv-x="1001" d="M211 453q0 -243 106 -361q106 -115 308 -115q109 0 202 35q106 43 152 76l-31 90q-6 25 -18 37q-7 12 -25 12q-9 0 -24 -6q-5 -2 -14 -5.5t-13 -4.5q-46 -19 -92 -33q-46 -12 -100 -12q-124 0 -181 72q-53 74 -53 233q0 123 31 266q28 130 94 256q64 117 160 191 q98 76 223 76q66 0 121 -15q50 -11 88 -26l22 57q15 40 15 59q0 25 -27 43q-25 22 -63 33q-39 16 -84 21q-41 8 -86 8q-116 0 -209 -41q-100 -43 -176 -113q-82 -73 -140 -166q-54 -84 -102 -205q-38 -97 -64 -227q-20 -111 -20 -235z" />
<glyph unicode="D" horiz-adv-x="1177" d="M147 39q0 -14 11 -29q13 -10 39 -10h268q171 0 315 72q146 76 240 190q95 115 154 283q53 156 53 342q0 277 -140 411q-137 134 -380 134q-83 0 -156 -11q-69 -8 -133 -22l-230 -1137q-8 -40 -14 -65q-2 -11 -6 -33.5t-6 -34.5q-2 -8 -5 -27t-5 -28q-1 -6 -3 -18.5 t-2 -16.5zM375 172l217 1081q31 6 59 9q10 2 66 2q155 0 229 -86q74 -83 74 -279q0 -166 -41 -293q-37 -124 -115 -229q-77 -99 -174 -152q-95 -53 -215 -53h-100z" />
<glyph unicode="E" horiz-adv-x="1036" d="M147 39q0 -14 11 -29q13 -10 39 -10h741l16 82q7 25 7 35q2 10 2 22q0 37 -48 37h-544l92 453h528l17 82q6 21 6 34q2 10 2 23q0 39 -47 39h-471l88 436h581l17 82q6 21 6 35q2 10 2 22q0 37 -47 37h-725l-250 -1253q-4 -31 -16 -80q-7 -44 -7 -47z" />
<glyph unicode="F" horiz-adv-x="960" d="M147 39q0 -14 11 -29q13 -10 39 -10h147l123 621h485l17 81q3 7 8 35q2 6 2 25q0 37 -47 37h-430l88 444h553l16 82q6 21 6 35q2 10 2 22q0 37 -47 37h-700l-250 -1253q-14 -68 -16 -80q-7 -44 -7 -47z" />
<glyph unicode="G" horiz-adv-x="1155" d="M211 465q0 -124 35 -217q40 -98 94 -152q59 -59 147 -90q83 -29 191 -29q102 0 199 19q91 17 163 45l113 575q2 8 5.5 27t4.5 25q6 30 6 43q0 19 -10 26q-6 8 -37 8h-336l-16 -88q-3 -19 -6 -32v-15q0 -37 41 -37h158l-80 -395q-37 -9 -74 -16q-47 -6 -98 -6 q-78 0 -138 26q-50 24 -86 70q-34 52 -47 104q-14 72 -14 125q0 127 31 267q29 135 92 251q62 113 162 187q96 71 237 71q88 0 150 -18q74 -21 100 -31l23 58q2 6 6 18.5t6 18.5q6 21 6 30q0 23 -22 39q-25 22 -64 35q-35 15 -94 25q-37 8 -117 8q-176 0 -313 -88 q-136 -86 -230 -226q-93 -141 -141 -313q-47 -167 -47 -348z" />
<glyph unicode="H" horiz-adv-x="1218" d="M147 39q0 -14 11 -29q13 -10 39 -10h147l127 637h514l-92 -463q-13 -61 -16 -84q-7 -44 -7 -51q0 -14 11 -29q13 -10 39 -10h147l250 1249q2 11 5.5 28t6 30t4.5 24q6 25 6 49q0 22 -10 29q-7 10 -39 10h-147l-121 -602h-516l88 432q8 29 16 82q6 37 6 49q0 22 -10 29 q-8 10 -39 10h-147l-250 -1245q-13 -61 -16 -84q-7 -44 -7 -51z" />
<glyph unicode="I" horiz-adv-x="503" d="M152 39q0 -16 10 -29q13 -10 39 -10h147l250 1249q2 11 5.5 28t6 30t4.5 24q7 29 7 49q0 21 -11 29q-7 10 -39 10h-147l-250 -1245q-13 -61 -16 -84q-6 -38 -6 -51z" />
<glyph unicode="J" horiz-adv-x="737" d="M31 76q0 -13 18 -31q22 -19 47 -31q33 -13 72 -24q39 -8 90 -8q111 0 184 43q77 45 123 114q48 71 78 170q27 88 53 213l164 791q2 10 8 43q2 6 2 24q0 22 -10 29q-7 10 -39 10h-147l-199 -975q-10 -50 -31 -112q-18 -50 -45 -90q-23 -36 -65 -58q-42 -20 -94 -20 q-43 0 -101 14q-59 19 -71 25l-19 -53q-2 -7 -7 -22.5t-7 -21.5q-4 -16 -4 -30z" />
<glyph unicode="K" horiz-adv-x="1034" d="M147 37q0 -12 11 -27q13 -10 39 -10h147l137 694q58 -72 107 -159q28 -44 82 -164q36 -76 65 -162q33 -87 51 -148q9 -24 25 -43q18 -18 49 -18h160q-23 83 -66 201q-38 106 -82 200q-52 118 -94 189q-46 86 -108 160q78 61 166 143q80 77 151 154q75 81 129 149 q49 59 107 139q26 36 26 56q0 28 -32 28h-168q-121 -172 -269 -329q-139 -145 -268 -250l82 409q2 11 5.5 28t6 30t4.5 24q6 25 6 49q0 22 -10 29q-8 10 -39 10h-147l-250 -1245q-13 -61 -16 -84q-7 -44 -7 -53z" />
<glyph unicode="L" horiz-adv-x="911" d="M147 39q0 -14 11 -29q13 -10 39 -10h688l16 86q6 15 6 33q2 12 2 24q0 37 -47 37h-481l213 1073q12 45 18 80q6 25 6 47t-10 29q-7 10 -39 10h-149l-250 -1253q-14 -68 -16 -80q-7 -44 -7 -47z" />
<glyph unicode="M" horiz-adv-x="1400" d="M127 35q0 -35 45 -35h143q8 40 28 129.5t30 138.5q7 29 31 137.5t38 167.5q2 7 70 310q17 70 66 280l104 -755q8 -26 14 -35q13 -13 37 -13h113l444 805q-13 -90 -24 -151q-8 -54 -21 -121q-2 -16 -22 -121q-3 -16 -11.5 -67t-15.5 -84q-3 -18 -10 -58t-13.5 -78.5 t-13.5 -74.5q-25 -144 -55 -304q-5 -27 -8 -36q-2 -12 -2 -33q0 -37 45 -37h147q35 193 39 219q34 200 41 248q37 227 41 256q8 48 20 129.5t17 112.5q30 198 31 202q18 111 22 146q6 18 6 39q2 14 2 28q0 39 -51 39h-184l-463 -864l-113 809q-6 55 -49 55h-190 q-48 -197 -80 -307q-16 -58 -60 -231q-10 -42 -45 -185q-18 -82 -39 -168q-19 -89 -41 -178q-7 -33 -22.5 -105.5t-24.5 -111.5q-1 -5 -4.5 -21.5t-5.5 -29.5q-6 -30 -6 -47z" />
<glyph unicode="N" horiz-adv-x="1222" d="M147 39q0 -39 48 -39h137l217 1083q24 -61 51 -147q15 -40 57 -180q36 -113 60 -195q6 -21 27.5 -88.5t31.5 -103.5q5 -16 51 -179q26 -88 39 -143q12 -47 60 -47h149l250 1253q14 68 16 80q7 29 7 47q0 21 -11 29q-7 10 -39 10h-135l-213 -1061q-50 177 -82 273 q-86 279 -92 295q-66 210 -86 264q-54 164 -61 182q-9 29 -25 39q-8 8 -47 8h-137l-250 -1253q-14 -68 -16 -80q-7 -44 -7 -47z" />
<glyph unicode="O" horiz-adv-x="1249" d="M221 487q0 -245 115 -378q120 -132 311 -132q146 0 273 76q124 77 210 207q88 132 138 305q47 167 47 371q0 120 -31 215q-29 92 -86 158q-50 61 -135 98q-70 33 -172 33q-146 0 -270 -74q-120 -72 -213 -203q-89 -130 -138 -303q-49 -171 -49 -373zM432 477 q0 142 31 285q29 136 86 250q56 107 141 176q85 67 189 67q57 0 100 -24q44 -24 70 -66q29 -39 41 -98q14 -52 14 -119q0 -140 -29 -276q-25 -133 -86 -254q-55 -113 -139 -185q-83 -71 -191 -71q-57 0 -100 24q-37 21 -70 68q-28 46 -43 100q-14 68 -14 123z" />
<glyph unicode="P" horiz-adv-x="1083" d="M147 39q0 -14 11 -29q13 -10 39 -10h143l106 532q120 -30 238 -30q119 0 215 41q105 46 166 110q64 67 104 172q37 101 37 224q0 107 -35 176q-35 75 -92 118q-58 49 -137 70q-70 21 -166 21q-104 0 -188 -11q-98 -10 -170 -26l-232 -1153q-8 -50 -24 -115 q-15 -73 -15 -90zM479 698l115 559q9 1 36 5.5t40 5.5q12 2 84 2q115 0 180 -56q65 -53 65 -165q0 -83 -20 -150q-18 -67 -61 -119q-41 -50 -105 -80q-57 -28 -143 -28q-37 0 -99 8q-8 2 -40.5 7.5t-51.5 10.5z" />
<glyph unicode="Q" horiz-adv-x="1249" d="M221 487q0 -245 109 -378q114 -132 305 -132q58 0 131 17q22 -33 27 -43q22 -36 30 -51q21 -32 31 -56q13 -23 27 -55q9 -21 16 -35q9 -12 35 -12h174q-32 96 -80 180q-46 88 -90 150q90 62 158 147q64 79 118 201q54 123 76 244q27 132 27 272q0 244 -111 373 q-110 131 -303 131q-145 0 -272 -74q-123 -74 -215 -203q-89 -125 -142 -303q-51 -178 -51 -373zM432 477q0 133 33 285q36 148 90 250q60 108 143 176q85 67 191 67q58 0 98 -24q43 -23 66 -66q27 -41 39 -98q12 -55 12 -119q0 -130 -31 -276q-30 -139 -90 -254 q-57 -111 -143 -185q-86 -71 -193 -71q-55 0 -98 24q-41 24 -68 68q-25 46 -37 100q-12 58 -12 123z" />
<glyph unicode="R" horiz-adv-x="1085" d="M147 39q0 -39 48 -39h143l117 580h168q6 0 18 1t18 1q12 2 35 2q23 -55 43 -121q14 -40 39 -141q21 -88 31 -146q9 -42 18 -121q7 -30 17 -43q12 -12 41 -12h157q-8 72 -22 135q-19 102 -37 170q-21 92 -47 174q-23 83 -55 148q150 63 231 178q84 118 84 268 q0 180 -109 270q-107 91 -337 91q-97 0 -175 -11q-88 -10 -155 -26l-240 -1198q-1 -5 -10 -41q-2 -8 -5 -24.5t-5 -24.5t-4 -23.5t-4 -22.5q-3 -18 -3 -24zM487 741l105 519q23 5 65 8q13 2 80 2q131 0 189 -49q59 -47 59 -158q0 -77 -27 -139q-21 -54 -71 -101 q-43 -40 -99 -61q-65 -21 -112 -21h-189z" />
<glyph unicode="S" horiz-adv-x="1001" d="M115 131q0 -21 18 -39q13 -11 57 -39q45 -26 125 -49q85 -24 197 -24q108 0 193 30q88 30 153 86q60 52 100 137q37 81 37 185q0 81 -22 135q-20 58 -60 104q-36 48 -96 86q-33 24 -127 74q-16 8 -44.5 24t-41.5 23q-41 26 -67 47q-22 22 -43 62q-15 37 -15 80 q0 87 66 147t182 60q51 0 100 -9q40 -5 91 -20q33 -9 69 -27q40 -16 49 -22l27 59q14 35 14 57t-14 39q-12 18 -55 39q-52 28 -123 47q-64 17 -164 17q-107 0 -186 -33q-82 -31 -140 -86q-57 -57 -86 -131q-30 -74 -30 -162q0 -76 24 -135q24 -55 68 -102q32 -32 100 -78 q43 -26 119 -68q111 -56 158 -108q47 -50 47 -134q0 -56 -25 -104q-29 -53 -63 -76q-40 -30 -93 -47q-49 -14 -112 -14q-110 0 -201 31q-86 30 -145 65l-27 -65q-2 -6 -5 -17t-5 -16q-4 -20 -4 -29z" />
<glyph unicode="T" horiz-adv-x="1024" d="M291 1276q0 -37 47 -37h307l-215 -1065q-9 -44 -18 -84q-6 -38 -6 -51q0 -16 10 -29q13 -10 39 -10h147l248 1239h369l14 86q6 15 6 33q2 12 2 24q0 37 -45 37h-881l-16 -86q-1 -6 -6 -33q0 -7 -1 -14.5t-1 -9.5z" />
<glyph unicode="U" horiz-adv-x="1206" d="M221 326q0 -94 31 -164q26 -59 84 -107q57 -42 125 -59q78 -19 155 -19q108 0 203 29q86 28 156 92q71 67 115 162q44 91 73 242l150 747q11 57 14 76q8 41 8 55q0 22 -10 29q-7 10 -37 10h-151l-189 -934q-30 -151 -106 -239q-74 -86 -215 -86q-113 0 -156 49t-43 131 q0 30 8 100q3 20 9 49.5t8 40.5l145 719q6 27 8 35q3 10 8 41l7 35q2 6 2 20q0 19 -13 29q-10 10 -39 10h-149l-172 -860q-9 -55 -21 -123q-8 -57 -8 -110z" />
<glyph unicode="V" horiz-adv-x="1040" d="M313 889q0 -94 4 -246q1 -23 5 -97t6 -112q4 -66 16 -184q4 -29 11.5 -85.5t11.5 -84.5q6 -39 22 -62q18 -18 53 -18h187q89 141 172 305q99 192 168 348q79 173 149 359q75 190 123 327q4 9 8 31q4 12 4 21q0 14 -6 20q-5 8 -28 8h-170q-42 -136 -86 -256 q-62 -177 -115 -305q-95 -234 -141 -334q-74 -166 -164 -336q-1 9 -5.5 72t-7.5 98q-2 30 -4 89.5t-4 89.5q-1 30 -2 88.5t-2 87.5v164q0 76 4 178q2 31 4 78.5t2 56.5q2 18 3 36.5t2 37.5t2 28q2 15 3 78q0 26 -12 37q-7 12 -32 12h-166q-2 -49 -6.5 -139t-6.5 -127 q-2 -86 -2 -264z" />
<glyph unicode="W" horiz-adv-x="1591" d="M319 678q0 -98 9 -328q9 -151 24 -299q6 -51 60 -51h180l399 1026v-326q0 -50 1 -138t1 -126q2 -78 2 -211q1 -27 1 -56.5t-0.5 -64t-0.5 -51.5q0 -53 47 -53h191q94 187 166 356q79 190 147 369q78 209 121 340q48 138 84 274q1 3 8 31q2 4 2 16q0 33 -41 33h-151 q-93 -311 -187 -588q-92 -281 -237 -616v92q0 12 1 31.5t1 26.5v47v63q0 99 -2 152q0 111 -2 164q0 83 -6 159q-4 115 -7 142l-8 122q0 39 -16 58q-12 20 -51 20h-111l-422 -1081q-3 108 -6 207q0 34 -1 99.5t-1 98.5q0 216 12 375q14 186 29 314q6 21 6 43v32q0 39 -41 39 h-160q-19 -168 -32 -375q-9 -182 -9 -366z" />
<glyph unicode="X" horiz-adv-x="1101" d="M68 31q0 -31 51 -31h137q42 82 78 143q75 124 96 154q83 118 111 154q72 89 125 145q67 -114 106 -254q41 -143 66 -287q8 -30 14 -41q14 -14 41 -14h160q-26 201 -86 389q-54 178 -148 330q71 74 131 145q64 75 131 162q54 69 115 158q54 77 84 139q23 45 23 66 q0 30 -39 30h-152q-29 -65 -80 -147q-53 -87 -100 -152q-50 -71 -109 -145q-88 -107 -104 -125q-58 110 -98 242q-34 115 -66 280q-3 18 -12 33q-5 14 -31 14h-172q8 -79 31 -178q32 -122 51 -180q36 -105 65 -172q35 -76 76 -154q-70 -67 -153 -164q-72 -83 -134 -170 q-47 -63 -108 -161q-54 -89 -78 -138q-12 -27 -18 -45q-4 -20 -4 -26z" />
<glyph unicode="Y" horiz-adv-x="1030" d="M311 1419q7 -93 25 -225q19 -114 41 -213q10 -44 57 -213q32 -96 78 -221l-76 -373q-9 -44 -18 -84q-6 -38 -6 -53q0 -14 10 -27q13 -10 39 -10h149l105 530q184 220 305 414q122 190 219 389q14 28 14 51q0 35 -47 35h-149q-23 -63 -72 -159q-63 -124 -94 -175 q-70 -118 -113 -182q-68 -102 -127 -176q-30 97 -49 176q-4 21 -16.5 79.5t-18.5 88.5q-15 101 -24 158q-11 91 -15 135q-3 29 -10 43q-5 12 -35 12h-172z" />
<glyph unicode="Z" horiz-adv-x="987" d="M63 37q0 -37 48 -37h813q5 24 11.5 57.5t8.5 42.5q4 20 4 43q0 37 -45 37h-594q56 80 170 232q118 154 207 262q83 103 232 282q173 207 243 287q23 115 23 139q0 37 -45 37h-789l-20 -110q-4 -32 -4 -33q0 -37 47 -37h559q-103 -117 -232 -272q-74 -89 -225 -281 q-58 -72 -209 -272q-155 -206 -182 -244q-21 -122 -21 -133z" />
<glyph unicode="[" horiz-adv-x="690" d="M133 -133q0 -37 45 -37h414l14 70q6 18 6 30q2 10 2 25q0 37 -45 37h-225l289 1419h278l15 70q6 18 6 32q2 12 2 25q0 18 -12 27q-8 8 -31 8h-418l-330 -1647q-10 -52 -10 -59z" />
<glyph unicode="\" horiz-adv-x="808" d="M233 1573l426 -1688q9 -29 23 -43q15 -12 37 -12h145l-426 1688q-6 30 -22 43q-12 12 -37 12h-146z" />
<glyph unicode="]" horiz-adv-x="690" d="M27 -135q0 -15 12 -27q11 -8 31 -8h417l330 1647q10 41 10 59q0 37 -45 37h-413l-15 -70l-6 -30q0 -4 -1 -12.5t-1 -12.5q0 -37 45 -37h225l-288 -1419h-279l-14 -70q-3 -15 -6 -33q0 -5 -1 -12.5t-1 -11.5z" />
<glyph unicode="^" horiz-adv-x="1062" d="M254 717q0 -27 35 -27h141l332 484l121 -437q9 -27 18 -39q11 -8 33 -8h147l-188 662q-6 28 -19 34q-9 9 -34 9h-123l-445 -639q-18 -24 -18 -39z" />
<glyph unicode="_" horiz-adv-x="1024" d="M-41 -262h1063l35 184h-1063z" />
<glyph unicode="`" horiz-adv-x="673" d="M219 1450l156 -244q22 -28 47 -28h98q-30 79 -51 127q-11 31 -47 114q-16 31 -43 31h-160z" />
<glyph unicode="a" horiz-adv-x="1044" d="M168 344q0 -171 78 -272q82 -97 211 -97q74 0 155 33q75 35 148 111l8 -72q7 -27 14 -37q10 -10 39 -10h109q0 3 0.5 9.5l1.5 19.5l2 26q2 17 4 53.5t4 55.5q4 43 16 133q7 42 25 129l86 362q12 40 21 84q8 31 8 60q0 36 -17 47q-16 16 -57 33q-46 20 -119 37 q-77 18 -164 18q-139 0 -243 -59q-110 -61 -181 -160q-70 -94 -112 -232q-37 -127 -37 -272zM373 358q0 102 24 201q23 96 72 176q47 76 117 127q67 47 157 47q54 0 88 -10q48 -10 58 -14l-139 -596q-41 -57 -101 -96q-61 -39 -129 -39q-46 0 -76 18q-27 18 -45 45 q-17 34 -22 66q-4 25 -4 75z" />
<glyph unicode="b" horiz-adv-x="1048" d="M150 102q0 -24 16 -43q18 -15 59 -32q46 -16 113 -33q83 -17 149 -17q140 0 252 62q110 61 183 162q77 110 112 231q37 121 37 270q0 176 -80 271q-75 94 -213 94q-61 0 -131 -25q-70 -26 -125 -81l82 403q2 10 8 43q4 14 4 29q0 34 -45 34h-147l-258 -1275l-12 -54 q-4 -16 -4 -39zM358 164l129 620q27 27 43 39q20 17 56 39q28 17 63 29q31 10 72 10q77 0 113 -53q36 -50 36 -146q0 -112 -24 -217q-24 -100 -72 -178q-44 -73 -117 -121q-70 -45 -155 -45q-27 0 -88 9q-50 12 -56 14z" />
<glyph unicode="c" horiz-adv-x="837" d="M164 377q0 -189 88 -297q87 -103 260 -103q77 0 170 27q81 26 141 64l-18 71q-5 21 -17 37q-6 14 -26 14q-9 0 -27 -6q-18 -7 -37 -12q-38 -11 -67 -16q-37 -6 -76 -6q-104 0 -147 61q-41 58 -41 166q0 90 22 186q25 99 66 168q46 75 112 121q64 47 156 47q75 0 119 -16 q54 -16 67 -25l23 53q2 4 5 14.5t5 14.5q6 18 6 25q0 20 -22 36q-28 24 -56 33q-42 18 -77 25q-29 8 -91 8q-130 0 -231 -61q-101 -62 -170 -160q-63 -92 -102 -221q-35 -125 -35 -248z" />
<glyph unicode="d" horiz-adv-x="1044" d="M164 344q0 -170 76 -272q79 -97 215 -97q70 0 157 33q78 34 152 111l8 -72q7 -27 14 -37q10 -10 39 -10h111q0 3 0.5 10.5t1.5 20.5l2 26q2 19 5.5 56.5t4.5 52.5q2 19 4.5 40.5t6.5 49t6 43.5q2 14 8.5 60t11.5 67l189 938q1 4 8 39q4 12 4 27q0 22 -12.5 31t-40.5 9 h-140l-90 -440q-42 19 -88 27q-39 10 -98 10q-128 0 -232 -61q-102 -59 -174 -160q-68 -96 -110 -232q-39 -134 -39 -270zM371 348q0 111 24 213q22 95 72 178q51 82 111 125q61 45 149 45q61 0 92 -10q47 -10 58 -16l-125 -602q-39 -54 -105 -95q-64 -39 -131 -39 q-71 0 -110 54q-35 52 -35 147z" />
<glyph unicode="e" horiz-adv-x="960" d="M164 375q0 -99 26 -182q28 -76 72 -123q46 -46 113 -70q74 -23 149 -23q104 0 195 31q89 29 151 70l-22 69q-8 26 -19 41q-7 13 -26 13q-17 0 -25 -4q-4 -1 -15 -5t-18 -6q-30 -10 -79 -24q-62 -15 -115 -15q-106 0 -150 56q-39 53 -39 147v37h46q180 0 299 35 q121 38 190 92q70 56 98 125q29 68 29 141q0 140 -88 213q-83 74 -234 74q-141 0 -247 -68q-101 -67 -166 -168q-68 -107 -96 -223q-29 -119 -29 -233zM377 535q12 75 35 139q23 65 63 121q39 54 92 84q48 30 123 30q80 0 113 -39q35 -35 35 -98q0 -107 -107 -174 q-103 -63 -311 -63h-43z" />
<glyph unicode="f" horiz-adv-x="714" d="M-59 -279q0 -44 36 -61q35 -14 72 -14q101 0 174 55q75 57 125 137q47 74 80 178q33 110 43 172l133 701h238l14 72q6 18 6 28q2 8 2 21q0 19 -11 26.5t-36 7.5h-184l16 76q24 100 68 156q44 55 141 55q53 0 86 -8q35 -5 72 -20l18 61q6 24 6 37q0 22 -20 39 q-15 15 -53 28q-34 14 -70 19q-37 6 -74 6q-73 0 -137 -27q-62 -24 -111 -73q-38 -36 -81 -113q-32 -61 -48 -143l-18 -93h-143l-15 -71q-5 -25 -6 -29q0 -4 -1 -10.5t-1 -9.5q0 -35 47 -35h88l-129 -705q-38 -207 -102 -295q-62 -86 -168 -86h-21q-3 0 -9.5 1t-10.5 1 l-10 -41q-6 -24 -6 -43z" />
<glyph unicode="g" horiz-adv-x="1038" d="M109 -252q0 -34 45 -59q19 -10 88 -31q78 -20 166 -20q91 0 174 22q86 25 147 72q63 46 109 127q48 82 65 182l156 842l78 -9l14 62q6 34 6 49q0 17 -10 27q-7 10 -39 16q-41 12 -123 23q-73 12 -215 12q-152 0 -258 -53q-107 -51 -186 -148q-75 -93 -115 -221 q-37 -124 -37 -268q0 -62 21 -137q19 -57 59 -109q38 -44 96 -72q58 -24 129 -24q59 0 127 20q67 22 127 76l-18 -90q-20 -102 -99 -168q-74 -62 -208 -62q-64 0 -140 17q-66 18 -123 41l-16 -39q-13 -35 -16 -45q-4 -12 -4 -33zM381 381q0 113 25 211q24 97 71 166 q49 70 117 108q68 39 160 39q53 0 73 -4q43 -4 47 -6l-122 -588q-41 -50 -103 -80q-61 -30 -123 -30q-74 0 -112 53q-33 53 -33 131z" />
<glyph unicode="h" horiz-adv-x="1081" d="M141 37q0 -12 11 -27q13 -10 41 -10h141l158 782q39 42 104 78q65 39 154 39q137 0 137 -119q0 -32 -6 -69q-16 -91 -17 -97l-98 -489q-3 -22 -10 -51q-4 -16 -4 -35q0 -16 10 -29q10 -10 41 -10h141l121 596q18 101 20 119q7 43 7 88q0 130 -74 198q-72 66 -195 66 q-96 0 -174 -37q-92 -45 -127 -76l82 410q1 4 8 39q4 12 4 27q0 22 -12.5 31t-40.5 9h-137l-270 -1345q-1 -8 -5 -25.5t-6 -25.5q-4 -18 -4 -37z" />
<glyph unicode="i" horiz-adv-x="473" d="M141 39q0 -14 11 -29q10 -10 38 -10h144l188 920q2 8 5 25.5t5 25.5q5 22 5 37q0 18 -11 26q-8 10 -41 10h-143l-186 -919q-2 -7 -5.5 -25.5t-5.5 -27.5q-4 -32 -4 -33zM371 1290q0 -35 26 -61q26 -23 84 -23q72 0 111 39q37 40 37 103q0 35 -27 59q-25 25 -86 25 q-72 0 -108 -39q-37 -37 -37 -103z" />
<glyph unicode="j" horiz-adv-x="479" d="M-137 -293q0 -37 35 -55q35 -14 73 -14q77 0 138 34q63 38 110 97q46 60 82 149q35 83 57 195l164 805q2 8 5 25.5t5 25.5q5 22 5 37q0 18 -11 26q-8 10 -41 10h-143l-178 -882q-17 -95 -43 -172q-23 -73 -49 -111q-24 -39 -66 -59q-40 -19 -88 -19h-18q-2 0 -8 1t-11 1 l-10 -37q-8 -40 -8 -57zM371 1290q0 -35 26 -61q26 -23 84 -23q72 0 111 39q37 40 37 103q0 35 -27 59q-25 25 -86 25q-72 0 -108 -39q-37 -37 -37 -103z" />
<glyph unicode="k" horiz-adv-x="995" d="M141 39q0 -39 52 -39h141l102 506q100 -100 180 -230q95 -151 132 -229q13 -25 30 -37q20 -10 47 -10h168q-55 126 -143 270q-86 149 -227 293q91 59 163 117q100 81 142 119q21 20 104 102q48 51 55 62q6 6 21 26q10 13 10 29q0 13 -8 18q-4 6 -23 6h-167 q-60 -71 -187 -192q-105 -100 -274 -219l145 712q2 8 5 25t5 25q7 32 7 37q0 40 -54 40h-139l-274 -1355q-3 -21 -9 -45q-4 -28 -4 -31z" />
<glyph unicode="l" horiz-adv-x="585" d="M158 156q0 -81 53 -125q53 -39 137 -39q76 0 137 18q54 16 76 29l-12 80q-3 23 -12 35q-6 12 -25 12q-23 0 -39 -4q-28 -4 -51 -4q-17 0 -37 10q-16 11 -16 37q0 6 1 17.5t1 17.5q2 12 6 32l217 1092q2 7 3.5 15t2.5 15.5t2 10.5q4 12 4 27q0 38 -49 38h-143l-244 -1210 q-12 -58 -12 -104z" />
<glyph unicode="m" horiz-adv-x="1638" d="M141 39q0 -14 11 -29q10 -10 41 -10h141l158 782q40 44 94 78q59 39 141 39q131 0 131 -119q0 -32 -6 -69q-1 -4 -6 -38.5t-10 -58.5l-99 -489q-3 -22 -10 -51q-4 -16 -4 -35q0 -16 10 -29q10 -10 43 -10h139l121 596q15 73 19 102q8 62 8 74q12 14 45 43q24 21 57 41 q43 22 70 31q37 12 78 12q58 0 94 -31q35 -28 35 -88q0 -32 -6 -69q-16 -91 -17 -97l-98 -489q-3 -22 -10 -51q-4 -16 -4 -35q0 -16 10 -29q10 -10 41 -10h141l123 596q25 134 25 207q0 135 -72 198q-69 66 -199 66q-113 0 -194 -47q-87 -47 -142 -105q-23 77 -88 115 q-61 37 -157 37q-103 0 -172 -41q-78 -43 -121 -86v39v22q0 13 -2 19q0 11 -11 18q-6 6 -32 6h-117l-184 -919q-1 -6 -2.5 -14t-4.5 -18.5t-4 -16.5q-4 -16 -4 -37z" />
<glyph unicode="n" horiz-adv-x="1085" d="M143 39q0 -14 11 -29q10 -10 39 -10h143l158 782q21 21 45 39q27 21 57 39q30 15 72 29q34 10 80 10q141 0 141 -119q0 -32 -6 -69q-16 -91 -17 -97l-98 -489q-3 -22 -10 -51q-4 -16 -4 -35q0 -16 10 -29q10 -10 43 -10h139l121 596q18 101 20 119q7 43 7 88 q0 137 -76 201q-69 63 -193 63q-107 0 -188 -41q-85 -41 -133 -88v43v20q0 13 -2 19q0 24 -43 24h-117l-184 -919q-1 -6 -2.5 -14t-4.5 -18.5t-4 -16.5q-4 -16 -4 -37z" />
<glyph unicode="o" horiz-adv-x="1060" d="M174 369q0 -196 102 -295q103 -97 275 -97q128 0 233 60q104 61 170 153q68 95 103 224q35 120 35 262q0 195 -101 293q-95 98 -272 98q-131 0 -232 -59q-102 -58 -170 -154q-69 -97 -106 -223q-37 -124 -37 -262zM375 373q0 96 22 192q27 105 64 168q44 74 106 121 q59 45 148 45q93 0 135 -63q41 -58 41 -162q0 -102 -23 -193q-23 -99 -63 -170q-44 -74 -105 -118q-65 -46 -145 -46q-92 0 -137 64q-43 64 -43 162z" />
<glyph unicode="p" horiz-adv-x="1058" d="M86 -311q0 -25 16 -31q18 -6 39 -6h133l86 414q54 -36 113 -50q72 -14 119 -14q129 0 221 59q95 64 154 152q61 91 88 201q26 96 26 215q0 120 -34 192q-35 84 -95 135q-63 57 -145 80q-79 25 -184 25q-107 0 -189 -10q-94 -9 -168 -21l-12 -55q-1 -5 -6 -35q0 -7 -1 -15 t-1 -10q0 -18 12 -24t29 -6h37l-228 -1129q-10 -55 -10 -67zM393 213l135 684q43 6 95 6q256 0 256 -239q0 -78 -15 -166q-12 -84 -51 -164q-40 -78 -96 -123q-61 -49 -152 -49q-64 0 -112 20q-49 24 -60 31z" />
<glyph unicode="q" horiz-adv-x="1046" d="M164 338q0 -153 84 -246q84 -90 219 -90q50 0 125 21q68 21 129 73q-14 -79 -33 -170q-5 -28 -35 -170q-10 -55 -10 -65q0 -23 16 -33q18 -6 37 -6h135q6 31 125 614q63 294 117 617l78 -9l10 46q5 11 8 32q2 6 2 29q0 22 -10 29q-9 12 -39 18q-38 11 -133 23 q-89 12 -217 12q-154 0 -266 -59q-117 -60 -191 -156q-75 -100 -114 -232q-37 -130 -37 -278zM369 358q0 106 26 213q27 101 78 177q49 71 125 116q73 43 164 43q52 0 72 -2q33 0 51 -6l-129 -614q-40 -46 -107 -80q-71 -33 -127 -33q-75 0 -116 53q-37 55 -37 133z" />
<glyph unicode="r" horiz-adv-x="720" d="M141 39q0 -14 11 -29q10 -10 38 -10h144l147 739q63 63 140 92q71 31 153 31h31q23 0 35 -4l18 78q4 11 8 37q4 12 4 31q0 45 -63 45q-92 0 -174 -43q-87 -47 -135 -101l4 51q4 20 4 29v23q0 24 -12 30q-8 6 -31 6h-123l-184 -919q-1 -6 -2.5 -14t-4.5 -18.5t-4 -16.5 q-4 -16 -4 -37z" />
<glyph unicode="s" horiz-adv-x="864" d="M90 96q0 -20 14 -37q10 -8 46 -26q51 -21 116 -37q81 -19 158 -19q81 0 168 23q91 28 139 63q54 38 92 109q35 63 35 150q0 65 -20 106q-18 48 -54 76q-33 33 -82 57q-61 31 -102 47q-19 7 -50.5 20t-35.5 15q-41 19 -59 31q-23 18 -35 35q-10 17 -10 45q0 47 22 75 q25 31 53 45q33 17 70 23q41 6 76 6q98 0 168 -20q64 -15 104 -35l19 47q14 38 14 61q0 19 -12 31q-15 19 -41 29q-25 14 -88 31q-61 20 -164 20q-90 0 -166 -20q-69 -16 -133 -64q-59 -46 -90 -102q-33 -68 -33 -142q0 -57 22 -106q21 -39 62 -76q44 -33 90 -55 q13 -5 48 -20t56 -23q101 -35 136 -70q34 -31 34 -82q0 -49 -20 -78q-19 -32 -55 -49q-32 -17 -80 -26q-65 -9 -88 -9q-21 0 -95 9q-15 3 -88 18q-15 4 -38.5 11.5t-30.5 9.5q-35 14 -39 16l-17 -45q-2 -5 -12 -35q-4 -12 -4 -33z" />
<glyph unicode="t" horiz-adv-x="729" d="M225 924q0 -35 47 -35h86l-106 -522q-1 -6 -8 -39.5t-11 -51.5q-6 -43 -6 -88q0 -94 58 -149q60 -51 159 -51q65 0 134 16q63 17 118 45l-16 74q-6 25 -14 35q-5 10 -25 10q-17 0 -51 -10q-46 -11 -76 -11q-32 0 -59 17q-23 17 -23 55q0 5 1 16t1 17q2 15 6 43l121 594 h262l13 61q2 9 4.5 21.5t3.5 15.5q2 5 2 23q0 19 -11 26.5t-36 7.5h-209l35 166q10 39 10 66q0 37 -49 37h-131l-68 -269h-139l-12 -61q-3 -23 -9 -37q-2 -8 -2 -22z" />
<glyph unicode="u" horiz-adv-x="1069" d="M180 250q0 -132 76 -205q77 -68 199 -68q106 0 188 43q84 43 141 103l11 -76q7 -28 16 -37q13 -10 39 -10h106q0 4 1 12.5t2 22t2 26.5q7 58 12 109q3 22 8 66t8 63q3 18 10 61.5t11 65.5l98 494q2 8 5 24.5t5 24.5q4 18 4 39q0 18 -10 26q-8 10 -41 10h-141l-158 -780 q-18 -18 -45 -39q-41 -30 -57 -39q-27 -16 -70 -30q-34 -11 -78 -11q-137 0 -137 123q0 32 6 66q8 51 17 94l98 492q2 8 5 25t5 26q4 16 4 35q0 18 -10 28q-8 10 -41 10h-141l-121 -595q-20 -113 -21 -121q-6 -50 -6 -78z" />
<glyph unicode="v" horiz-adv-x="927" d="M221 870q0 -116 12 -233q13 -122 29 -221q12 -73 41 -197q8 -30 21.5 -83.5t19.5 -76.5q12 -38 29 -49q15 -10 53 -10h109q71 96 143 209q63 95 133 225q50 90 117 232q60 127 96 225q31 88 31 121q0 32 -41 32h-142q-75 -232 -174 -434q-110 -230 -211 -399 q-31 136 -51 307q-14 148 -14 359v104q0 43 -10 53q-7 10 -41 10h-144q-3 -56 -6 -100v-74z" />
<glyph unicode="w" horiz-adv-x="1419" d="M221 870q0 -214 19 -428q18 -197 59 -383q12 -38 29 -49q15 -10 51 -10h119l333 717l50 -647q6 -37 20 -54q19 -16 53 -16h117q56 91 123 211q66 123 113 227q36 75 102 232q33 77 84 221q20 48 25 74q8 27 8 47q0 16 -8 24q-4 8 -31 8h-146q-26 -90 -65 -200 q-36 -101 -80 -207q-67 -162 -88 -205q-74 -158 -90 -188l-51 665q0 47 -49 47h-134l-335 -731q-15 124 -17 156q-2 25 -5 75t-5 76q-1 23 -2 68t-2 66v104q0 34 1 82.5t1 62.5v70q0 37 -12 49q-10 10 -41 10h-142q-4 -82 -4 -100v-74z" />
<glyph unicode="x" horiz-adv-x="915" d="M39 29q0 -29 47 -29h127q67 110 145 219q74 104 187 207q32 -52 49 -94q20 -41 41 -99q29 -80 33 -96q15 -47 24 -84q9 -30 25 -43q15 -10 45 -10h141q-6 40 -24 100q-16 58 -48 136q-29 78 -69 149q-41 81 -84 143q29 25 88 84q39 39 90 97q43 48 88 106q46 59 80 109 q39 56 39 88t-45 32h-121q-54 -93 -141 -202q-77 -98 -170 -191q-37 57 -86 164q-37 90 -66 176q-9 30 -20 41q-9 12 -37 12h-158q13 -49 43 -137q19 -48 57 -133q15 -31 66 -123q54 -85 66 -104q-128 -110 -215 -217q-97 -119 -156 -207q-20 -27 -29 -51q-12 -27 -12 -43z " />
<glyph unicode="y" horiz-adv-x="964" d="M-8 -283q0 -32 33 -55q35 -18 77 -18q136 0 252 104q123 110 250 291q92 135 137 213q59 98 129 231q55 105 107 222q52 114 74 186q17 53 24 76q8 20 8 45q0 16 -8 24q-4 8 -31 8h-143q-73 -218 -172 -436q-87 -196 -209 -391q-46 149 -63 307q-19 176 -19 353v104 q0 41 -10 51q-9 12 -39 12h-147q-4 -82 -4 -100v-74q0 -112 12 -229q9 -85 35 -219q30 -132 49 -201q32 -102 63 -170q-88 -123 -161 -182q-74 -62 -164 -62q-4 0 -17 1.5t-20 1.5q-12 2 -29 2l-8 -41q-6 -35 -6 -54z" />
<glyph unicode="z" horiz-adv-x="911" d="M76 35q0 -11 8 -27q8 -8 33 -8h708l15 68q10 41 10 61q0 35 -43 35h-492q33 40 134 149q130 140 165 176q183 189 187 193q33 34 198 199l13 61q4 14 8 41q4 12 4 27q0 18 -8 26q-4 8 -33 8h-692l-15 -65q-10 -55 -10 -64q0 -34 43 -34h465q-169 -169 -362 -375 q-197 -211 -314 -348l-12 -60q-10 -52 -10 -63z" />
<glyph unicode="{" horiz-adv-x="690" d="M186 18q0 -90 60 -147q60 -51 162 -51q24 0 86 8q71 13 88 18q20 103 20 119q0 19 -27 19q-22 0 -38 -4q-21 -3 -52 -3q-102 0 -102 84q0 25 6 62q2 10 5.5 30t4.5 29l56 275q3 12 7.5 35.5t6.5 33.5q4 20 4 47q0 57 -27 84q-26 32 -65 43q46 8 78 37q36 36 51 70 q17 36 31 92q20 89 22 98q49 242 66 312q13 42 28 63q18 27 48 39q28 14 75 14q46 0 66 -4q36 -4 49 -8q20 76 20 100t-20 35q-21 17 -53 23q-27 8 -66 8q-20 2 -55 2q-77 0 -129 -27q-49 -24 -84 -71q-36 -52 -51 -101q-17 -52 -29 -114l-70 -348q-15 -80 -43 -105 q-21 -21 -82 -24q-27 -124 -28 -127q-2 -8 -2 -21q0 -19 14 -29q5 -2 33 -16q18 -6 24 -18q9 -9 9 -29q0 -9 -7 -37q-2 -6 -3.5 -14t-3.5 -19t-3 -18l-55 -279q-15 -72 -18 -88q-7 -51 -7 -78z" />
<glyph unicode="|" horiz-adv-x="526" d="M135 -135q0 -35 45 -35h135l326 1624q2 8 5 24.5t5 24.5q4 16 4 35q0 35 -45 35h-135l-325 -1628q-1 -6 -11 -47q-4 -14 -4 -33z" />
<glyph unicode="}" horiz-adv-x="690" d="M33 -113q0 -21 22 -37q19 -9 54 -20q17 -3 63 -8q13 0 31 -1t24 -1q75 0 129 26q53 27 84 72q29 40 49 100q22 72 31 115l70 348q18 80 43 105q27 24 82 24l20 97l8 32q2 5 2 19q0 20 -12 26q-6 4 -35 19q-7 5 -15.5 11t-10.5 7q-6 9 -6 29q0 16 6 37q2 9 5 26t5 25 l55 279q14 50 19 88q6 31 6 77q0 97 -60 148q-54 51 -161 51q-42 0 -86 -8q-36 -5 -88 -19q-5 -29 -10.5 -58.5t-8 -43t-2.5 -16.5q0 -19 27 -19q11 0 39 4q8 2 51 2q102 0 102 -84q0 -23 -6 -61q-8 -53 -10 -59l-55 -275q-2 -16 -8 -41t-7 -29q-4 -18 -4 -47q0 -50 27 -84 q30 -30 65 -43q-48 -6 -78 -36q-30 -27 -51 -70q-18 -42 -30 -92q-4 -17 -11.5 -50t-11.5 -49q-55 -270 -68 -311q-9 -37 -26 -63q-19 -25 -47 -39q-38 -15 -76 -15q-16 0 -66 5q-18 4 -49 8l-12 -49q-8 -46 -8 -52z" />
<glyph unicode="~" horiz-adv-x="935" d="M174 567q0 -15 10 -28q15 -11 37 -11h94q18 72 41 113q24 43 74 43q42 0 74 -22q34 -19 74 -56q44 -35 94 -59q55 -25 112 -25q51 0 109 21q55 22 90 57q39 36 61 88q23 50 23 109q0 20 -8 28q-5 11 -37 11h-96q-12 -69 -37 -115q-21 -43 -76 -43q-33 0 -65 16 q-26 17 -66 47q-46 40 -111 72q-57 29 -116 29q-57 0 -107 -23q-52 -22 -90 -57q-38 -38 -61 -88q-23 -47 -23 -107z" />
<glyph unicode="&#xa1;" horiz-adv-x="528" d="M100 -311q0 -9 9 -27q10 -10 36 -10h154l72 366q3 19 12.5 71t15.5 83q20 96 31 170q11 65 23 152q10 59 10 104q0 28 -10 35q-6 8 -31 8h-100q-92 -353 -97 -373q-32 -127 -84 -364l-28 -137q-3 -24 -9 -48q-4 -28 -4 -30zM319 920q0 -44 31 -72q31 -25 86 -25 q71 0 115 41q43 43 43 119q0 49 -31 74q-29 26 -86 26q-74 0 -117 -43q-41 -41 -41 -120z" />
<glyph unicode="&#xa2;" d="M326 559q0 -168 67 -266q64 -94 197 -119l-29 -104q-1 -6 -5 -20t-5 -19q-6 -21 -6 -29t6 -20q6 -9 29 -9h71l51 195q93 6 177 31q91 31 133 61l-19 72q-7 28 -14 37q-6 14 -27 14q-16 0 -32 -8q-9 -3 -41 -15q-5 -1 -15.5 -3.5t-20.5 -5t-20 -5.5q-30 -6 -73 -6l204 747 q56 -6 101 -22q41 -11 57 -21l23 54q4 12 12 28q4 8 4 27q0 28 -45 51q-44 27 -109 39l23 78q7 28 12 43q4 14 4 29q0 11 -6 20q-4 8 -26 8h-74l-47 -161q-140 0 -244 -64q-99 -58 -174 -162q-65 -92 -105 -225q-34 -121 -34 -250zM528 571q0 80 19 170q18 84 57 158 q41 75 98 123q60 51 136 63l-199 -731q-60 25 -86 78q-25 58 -25 139z" />
<glyph unicode="&#xa3;" d="M195 39q0 -39 47 -39h764l14 76q6 21 6 39q2 12 2 26q0 21 -10 29q-6 8 -33 8h-547q39 36 74 82q32 43 66 105q37 73 51 124q21 68 24 140h316l8 39q12 61 12 77q0 37 -43 37h-284v78q0 12 1 37t1 37q9 136 77 219q69 84 224 84q63 0 118 -12q54 -12 101 -33l18 39 q2 6 7.5 18.5t7.5 18.5q8 19 8 35q0 29 -31 51q-33 26 -72 37q-50 17 -90 22q-31 6 -78 6q-138 0 -227 -41q-90 -40 -152 -114q-57 -72 -88 -179q-26 -101 -26 -227q0 -6 1 -18.5t1 -18.5q1 -4 1 -10t-0.5 -14.5t-0.5 -14.5h-148l-8 -41q-12 -55 -12 -75q0 -37 43 -37h121 q-9 -135 -76 -248q-65 -111 -164 -203l-10 -51q-2 -18 -10 -53q-4 -16 -4 -35z" />
<glyph unicode="&#xa4;" d="M180 334q0 -12 6 -21q5 -5 15 -22l59 -76l170 145q85 -57 215 -57q108 0 203 45l61 -78q20 -20 25 -30q9 -9 20 -9q13 0 23 7q12 6 24 18l89 76l-103 131q46 59 72 129q28 69 28 164q0 51 -8 82q-6 39 -22 65l129 111q26 23 26 45q0 18 -20 41l-59 76l-181 -154 q-82 59 -217 59q-51 0 -100 -12q-55 -14 -90 -31l-78 105q-6 8 -14 14q-6 6 -19 6q-21 0 -37 -16l-98 -82l104 -135q-47 -55 -75 -142q-27 -89 -27 -182q0 -27 8 -67q15 -50 19 -60l-121 -102q-27 -20 -27 -43zM467 645q0 61 18 111q15 44 54 86q43 43 79 59q43 21 99 21 q91 0 147 -50t56 -135q0 -58 -21 -110q-19 -52 -53 -86q-36 -39 -80 -58q-52 -20 -102 -20q-91 0 -146 49q-51 48 -51 133z" />
<glyph unicode="&#xa5;" d="M199 248q0 -37 43 -37h252q-1 -6 -2.5 -14t-4.5 -18.5t-4 -16.5q-2 -8 -6 -25.5t-6 -25.5t-4 -23t-4 -22q-2 -12 -2 -29q0 -15 12 -27q13 -10 39 -10h147l41 211h314l6 33q4 11 8 37q2 7 2 26q0 37 -39 37h-264l39 188h313l6 33q5 15 9 39q2 7 2 27q0 37 -39 37h-185 q128 162 230 319q86 133 176 313q14 28 14 52q0 19 -11 26.5t-36 7.5h-149q-28 -74 -70 -153q-48 -95 -92 -166q-43 -74 -111 -172q-59 -85 -123 -168q-51 159 -84 330q-20 117 -36 274q0 28 -11 43q-5 12 -34 12h-173q19 -206 54 -366q38 -174 100 -352h-235l-9 -45 q-1 -5 -3 -15.5t-3 -15.5q0 -4 -1 -11t-1 -10q0 -39 43 -39h252l-39 -188h-305l-8 -39q-3 -15 -6 -33q0 -6 -1 -14t-1 -10z" />
<glyph unicode="&#xa6;" horiz-adv-x="526" d="M137 -135q0 -35 45 -35h135l113 563q2 8 5 24.5t5 24.5q4 16 4 35q0 35 -45 35h-135l-112 -567q-1 -6 -11 -47q-4 -14 -4 -33zM348 926q0 -35 45 -35h135l113 563q2 8 5 24.5t5 24.5q4 16 4 35q0 35 -45 35h-135l-113 -567q-2 -16 -10 -48q-4 -14 -4 -32z" />
<glyph unicode="&#xa7;" horiz-adv-x="1021" d="M106 -86q0 -21 19 -37l33 -22q9 -3 49 -19q38 -10 72 -20q48 -10 90 -15q50 -6 96 -6q84 0 168 19q82 18 143 55q60 38 98 100q37 61 37 150q0 71 -30 121q-33 54 -76 84q124 56 194 141q72 87 72 207q0 78 -29 129q-24 49 -75 88q-51 41 -107 63q-51 24 -123 47 q-77 27 -131 62q-43 30 -43 90q0 43 27 70q32 32 61 41q26 10 78 18q29 4 72 4q92 0 149 -16q66 -15 119 -39l21 55q7 21 10 33q4 10 4 22q0 18 -23 35q-21 21 -61 35q-30 13 -100 27q-49 10 -134 10q-75 0 -159 -19q-80 -19 -135 -55q-60 -38 -95 -96q-35 -55 -35 -143 q0 -66 29 -119q26 -41 74 -82q-119 -52 -193 -141q-71 -86 -71 -207q0 -73 28 -127q32 -52 76 -88q51 -38 109 -64q21 -8 62 -23.5t61 -23.5q92 -32 131 -63q43 -28 43 -97q0 -42 -25 -73q-25 -28 -63 -45q-37 -15 -84 -21q-29 -4 -84 -4q-91 0 -174 22q-98 30 -138 46 l-22 -56q-2 -4 -5 -14t-5 -14q-5 -20 -5 -25zM399 606q0 84 64 154q59 61 158 102q21 -8 57 -22.5t51 -20.5q49 -18 78 -41q31 -19 47 -51q16 -27 16 -76q0 -87 -63 -153q-60 -66 -158 -103q-15 6 -52 21t-56 22q-41 19 -78 41q-29 23 -47 53q-17 34 -17 74z" />
<glyph unicode="&#xa8;" horiz-adv-x="747" d="M190 1288q0 -32 27 -59q26 -23 82 -23q70 0 109 39q36 39 36 101q0 36 -26 59q-22 22 -84 22q-74 0 -109 -38q-35 -35 -35 -101zM578 1288q0 -33 26 -59q26 -23 82 -23q70 0 109 39q36 39 36 101q0 36 -26 59q-22 22 -84 22q-74 0 -109 -38q-34 -34 -34 -101z" />
<glyph unicode="&#xa9;" horiz-adv-x="1589" d="M236 559q0 -139 45 -254q44 -105 127 -182q83 -74 190 -113q110 -37 244 -37q172 0 325 64q148 65 252 178q107 115 166 277q57 152 57 354q0 153 -47 258q-46 113 -131 186q-83 77 -196 113q-104 37 -252 37q-177 0 -318 -66q-142 -65 -247 -182q-100 -112 -160 -279 q-55 -158 -55 -354zM387 580q0 151 45 284q47 133 127 228q74 88 195 149q109 53 245 53q108 0 193 -26q89 -23 158 -80q67 -55 104 -146q37 -81 37 -213q0 -164 -47 -286q-49 -135 -129 -224q-84 -94 -199 -145q-121 -51 -254 -51q-90 0 -186 27q-91 29 -152 79 q-59 51 -100 144q-37 87 -37 207zM639 608q0 -293 248 -293q58 0 123 21q66 24 96 43l-14 67q-2 12 -11 25q-5 10 -16 10q-12 0 -18 -2q-5 0 -17 -6q-30 -11 -49 -16q-21 -6 -51 -6q-72 0 -103 45q-30 46 -30 116q0 67 16 136q18 69 47 116q33 50 82 80q48 29 113 29 q48 0 73 -10q30 -8 48 -15l14 43q4 9 8 23q2 4 2 20q0 21 -18 33q-17 14 -43 23q-9 5 -56 14q-20 4 -53 4q-93 0 -166 -43q-69 -41 -123 -113q-47 -64 -75 -159q-27 -100 -27 -185z" />
<glyph unicode="&#xaa;" horiz-adv-x="796" d="M268 549q0 -37 43 -37h494q14 80 14 94q0 37 -43 37h-493q-3 -23 -7 -46t-6 -34t-2 -14zM322 995q0 -102 47 -170q48 -63 137 -63q55 0 102 26q40 25 76 64l8 -43q5 -15 13 -27q9 -6 30 -6h68q1 21 10 125q10 82 25 143q16 72 31 136t23 98t9 39q6 20 6 37q0 37 -59 63 q-57 29 -168 29q-87 0 -154 -37q-61 -34 -112 -100q-46 -60 -70 -144q-22 -73 -22 -170zM469 997q0 51 12 109q13 65 35 111q22 49 66 86q39 34 96 34q29 0 47 -6q28 -8 31 -10q-2 -12 -41 -180q-21 -105 -41 -180q-17 -28 -51 -52q-35 -24 -76 -24q-39 0 -60 30 q-18 30 -18 82z" />
<glyph unicode="&#xab;" horiz-adv-x="901" d="M170 535l88 -340q9 -29 23 -43q14 -11 36 -11h132l-91 379l222 328q11 16 14 26q2 4 2 19q0 27 -33 27h-137zM543 535l88 -340q9 -30 22 -43q14 -11 37 -11h131l-90 379l221 328q13 19 15 26q2 4 2 19q0 27 -33 27h-137z" />
<glyph unicode="&#xac;" d="M293 768q0 -35 43 -35h555l-47 -252q-4 -30 -8 -43q-1 -5 -3 -14t-2 -12q0 -27 35 -27h138l79 416q5 21 7 33q4 16 4 32q0 39 -45 39h-732l-16 -84q-3 -12 -6 -30q0 -5 -1 -13t-1 -10z" />
<glyph unicode="&#xad;" horiz-adv-x="761" d="M180 500q0 -9 8 -25q8 -8 31 -8h543l22 108q4 12 4 23q3 15 3 20q0 16 -9 25q-4 8 -30 8h-543l-23 -108q0 -3 -4 -23q0 -4 -1 -10.5t-1 -9.5z" />
<glyph unicode="&#xae;" horiz-adv-x="911" d="M246 979q0 -169 100 -258q105 -88 262 -88q101 0 187 39q82 39 145 108q58 66 94 162q33 83 33 205q0 174 -100 258q-98 88 -262 88q-107 0 -189 -39q-82 -36 -145 -108q-55 -60 -92 -162q-33 -101 -33 -205zM346 983q0 87 25 164q23 74 71 131q49 55 109 84 q67 31 143 31q60 0 109 -15q42 -10 86 -45q41 -33 57 -76q21 -47 21 -114q0 -86 -25 -166q-26 -79 -72 -131q-46 -55 -108 -84q-64 -31 -144 -31q-112 0 -194 60q-78 63 -78 192zM477 872q0 -24 29 -24h57l35 168h16h23q4 0 11.5 1t10.5 1q16 -40 23 -76q7 -26 12 -65 q1 -3 5.5 -11t5.5 -10q8 -8 22 -8h66q0 3 -9 39q-2 9 -5 26t-5 25q-6 33 -14 55q-4 18 -17 49q44 18 68 56q25 39 25 82q0 54 -37 84q-33 30 -119 30q-41 0 -66 -4q-35 -3 -55 -8l-78 -383q0 -8 -4 -16v-11zM610 1092l25 122q18 5 41 5q39 0 53 -11q14 -7 14 -39 q0 -37 -26 -57q-27 -20 -62 -20h-45z" />
<glyph unicode="&#xaf;" horiz-adv-x="888" d="M348 1272q0 -9 8 -25q8 -8 31 -8h455l14 76q4 12 4 22q2 10 2 21q0 16 -8 24q-4 9 -31 9h-454l-15 -76q0 -3 -4 -23q0 -4 -1 -10.5t-1 -9.5z" />
<glyph unicode="&#xb0;" horiz-adv-x="743" d="M313 1116q0 -47 21 -98q18 -38 55 -70q38 -27 78 -41q54 -14 92 -14q67 0 125 22q54 22 96 64q40 40 62 98q22 54 22 125q0 65 -22 105q-21 45 -56 71q-34 29 -79 41q-38 13 -95 13q-134 0 -217 -89q-82 -88 -82 -227zM442 1137q0 75 47 125q49 49 117 49q53 0 92 -31 q37 -27 37 -94q0 -78 -47 -125t-121 -47q-53 0 -90 30q-35 28 -35 93z" />
<glyph unicode="&#xb1;" horiz-adv-x="1060" d="M131 35q0 -9 8 -25q8 -8 31 -8h754l20 96q4 12 4 23q2 10 2 20q0 17 -8 25q-4 8 -31 8h-753l-21 -96q0 -3 -4 -23q0 -4 -1 -10.5t-1 -9.5zM256 651q0 -37 45 -37h258l-53 -262l-6 -30q0 -4 -1 -12t-1 -9q0 -31 43 -31h129l69 344h314l16 82q6 15 6 29q2 10 2 23 q0 38 -45 38h-260l53 261q6 18 6 30q3 15 3 23q0 30 -43 30h-129l-70 -344h-311l-17 -81q-2 -10 -6 -31q0 -6 -1 -13t-1 -10z" />
<glyph unicode="&#xb2;" horiz-adv-x="780" d="M221 614q0 -10 8 -26q10 -13 29 -13h516l8 33q11 40 11 60q0 34 -43 34h-344q23 62 83 113q54 43 134 94q18 11 52 33.5t40 26.5q63 44 86 67q34 32 61 80q23 42 23 96q0 48 -21 86q-18 38 -53 60q-34 24 -80 35q-39 10 -96 10q-85 0 -150 -23q-56 -18 -98 -45l-8 -43 q0 -8 -4 -24v-15q0 -24 22 -24q9 0 33 8q8 3 23.5 8.5t21.5 7.5q23 10 62 17q33 8 75 8q58 0 88 -21q31 -16 31 -59q0 -58 -53 -100q-38 -31 -150 -101q-134 -83 -204 -172q-66 -88 -95 -170q-4 -10 -8 -26v-15z" />
<glyph unicode="&#xb3;" horiz-adv-x="780" d="M246 639q0 -15 22 -31q30 -15 56 -24q65 -16 75 -17q29 -4 86 -4q60 0 125 19q61 18 107 55q46 35 74 86q26 45 26 113q0 57 -31 96q-29 39 -81 57q80 35 122 88q45 54 45 125q0 102 -71 150q-66 49 -185 49q-73 0 -131 -17q-54 -14 -98 -38l-10 -52q-2 -4 -6 -20v-14 q0 -21 20 -21q16 0 74 21q50 20 131 20q60 0 94 -27q33 -21 33 -67q0 -27 -10 -47q-8 -21 -33 -43q-24 -20 -57 -31q-35 -12 -84 -12h-99l-8 -45q-5 -25 -6 -29v-16q0 -15 8 -23q9 -6 29 -6h65q63 0 99 -23q37 -21 37 -69q0 -69 -54 -111q-53 -41 -137 -41q-61 0 -111 12 q-48 12 -90 29l-16 -47q-4 -19 -8 -25q-2 -4 -2 -20z" />
<glyph unicode="&#xb4;" horiz-adv-x="704" d="M346 1194q0 -16 25 -16h94l188 196q17 17 23 29q4 8 4 20q0 13 -6 19q-5 8 -23 8h-137q-65 -93 -86 -123q-17 -23 -42.5 -61t-33.5 -49q-6 -12 -6 -23z" />
<glyph unicode="&#xb5;" horiz-adv-x="1081" d="M57 -317q0 -31 39 -31h146l80 381q33 -30 69 -43q47 -13 78 -13q110 0 190 50q80 48 138 106l10 -86q7 -28 16 -37q13 -10 39 -10h107q0 4 0.5 12t1.5 22.5t2 26.5q7 58 12 109q3 22 8 66t8 63q3 18 10 61.5t11 65.5l98 494q2 8 5 24.5t5 24.5q5 22 5 39q0 18 -11 26 q-8 10 -41 10h-141l-158 -780q-20 -20 -47 -39q-52 -35 -61 -39q-38 -20 -72 -30q-34 -11 -78 -11q-137 0 -137 123q0 32 6 66q8 51 17 94l98 492q2 8 5 25t5 26q4 16 4 35q0 18 -10 28q-7 10 -41 10h-141l-264 -1298q-1 -7 -3.5 -18t-3.5 -17t-2 -10q0 -5 -1 -11t-1 -7z " />
<glyph unicode="&#xb6;" horiz-adv-x="1187" d="M270 891q0 -135 76 -227q76 -85 193 -103l-123 -614q-2 -11 -10 -49q-7 -28 -7 -37q0 -31 43 -31h117l289 1432q16 4 47 4h35q42 0 67 -2q46 0 62 -4l-264 -1313q-1 -6 -2.5 -14t-4.5 -18.5t-4 -16.5q-4 -16 -4 -37q0 -31 43 -31h117l285 1419l67 -10l6 31q2 8 5.5 23.5 t5.5 23.5q4 16 4 39q0 24 -19 33q-10 7 -47 14q-66 15 -137 20q-82 9 -170 9q-148 0 -278 -31q-125 -31 -211 -96q-85 -64 -134 -168q-47 -106 -47 -246z" />
<glyph unicode="&#xb7;" horiz-adv-x="438" d="M225 672q0 -47 31 -78q29 -29 86 -29q73 0 117 41q41 41 41 117q0 46 -31 74q-28 28 -86 28q-73 0 -115 -39q-43 -37 -43 -114z" />
<glyph unicode="&#xb8;" horiz-adv-x="888" d="M229 -360q0 -16 21 -27q50 -16 108 -16q97 0 164 45q64 44 64 122q0 51 -29 80q-25 32 -74 47l-28 11l65 108h-114l-60 -98q-14 -28 -20 -37q-9 -15 -9 -31q0 -14 31 -26q59 -19 74 -29q16 -8 16 -31q0 -35 -35 -49q-40 -14 -79 -14q-7 0 -21.5 1t-21.5 1q-30 5 -35 6 l-10 -35q-7 -17 -7 -28z" />
<glyph unicode="&#xb9;" horiz-adv-x="780" d="M371 1186q0 -27 24 -27q1 0 29 8l24 8t29 11t34.5 12t31.5 10q12 4 34.5 12t32.5 11l-108 -531q-2 -11 -10 -49q-5 -20 -5 -41q0 -35 41 -35h105l149 742q9 37 9 45q0 41 -48 41q-23 0 -57 -10q-18 -4 -86 -29q-87 -32 -104 -39q-39 -15 -109 -45l-10 -55q-6 -27 -6 -39z " />
<glyph unicode="&#xba;" horiz-adv-x="784" d="M244 549q0 -37 43 -37h477l6 35q6 18 6 33q2 12 2 26q0 37 -43 37h-477l-6 -35q-3 -15 -6 -33q0 -5 -1 -13.5t-1 -12.5zM313 999q0 -106 56 -174q54 -63 172 -63q84 0 149 35q72 40 113 94q42 53 69 141q23 79 23 174q0 112 -55 176q-53 64 -172 64q-87 0 -150 -35 q-65 -35 -110 -94q-49 -70 -70 -141q-25 -83 -25 -177zM463 991q0 49 12 111q11 56 37 110q25 55 59 86q35 35 86 35q31 0 48 -14q15 -10 26 -35q8 -12 12 -45q2 -8 2 -45q0 -56 -14 -111q-10 -46 -37 -102q-26 -50 -61 -78q-36 -29 -82 -29q-43 0 -68 31q-20 29 -20 86z " />
<glyph unicode="&#xbb;" horiz-adv-x="901" d="M111 168q0 -27 32 -27h138l256 385l-88 340q-6 29 -23 43q-11 11 -37 11h-131l90 -379l-221 -328q-3 -5 -14 -27q-2 -6 -2 -18zM483 168q0 -12 9 -19.5t24 -7.5h137l256 385l-88 340q-6 30 -22 43q-11 11 -37 11h-131l90 -379l-221 -328q-9 -15 -15 -27q-2 -6 -2 -18z " />
<glyph unicode="&#xbc;" horiz-adv-x="1845" d="M362 1186q0 -27 25 -27q1 0 29 8l24 8t29 11t34.5 12t31.5 10q12 4 34.5 12t32.5 11l-108 -531q-1 -6 -2.5 -14t-4.5 -18.5t-4 -16.5q-4 -16 -4 -41q0 -35 41 -35h105l149 742q8 33 8 45q0 41 -47 41q-23 0 -57 -10q-18 -4 -86 -29q-93 -34 -105 -39q-31 -12 -108 -45 l-10 -55q-7 -31 -7 -39zM465 29q0 -29 39 -29h108l973 1319q17 23 17 39q0 28 -39 28h-109l-973 -1318q-16 -22 -16 -39zM1079 223q0 -24 33 -24h336l-23 -115q-1 -5 -3 -15.5t-3 -15.5v-16q0 -35 43 -35h99l38 197h103l10 47q4 16 6 26q2 6 2 29q0 21 -30 21h-66l78 376 q2 7 5.5 22t4.5 21q4 18 4 41q0 29 -37 29h-137q-78 -61 -139 -119q-62 -59 -127 -137q-74 -89 -109 -139q-33 -45 -75 -127l-9 -33q0 -4 -4 -20v-13zM1245 322q10 16 55 81q45 60 78 97q44 50 90 96q57 57 88 80l-86 -354h-225z" />
<glyph unicode="&#xbd;" horiz-adv-x="1845" d="M319 1186q0 -27 25 -27q1 0 29 8l24 8t29 11t34.5 12t31.5 10q12 4 34.5 12t32.5 11l-108 -531q-1 -6 -2.5 -14t-4.5 -18.5t-4 -16.5q-4 -16 -4 -41q0 -35 41 -35h105l149 742q8 33 8 45q0 41 -47 41q-23 0 -57 -10q-18 -4 -86 -29q-93 -34 -105 -39q-31 -12 -108 -45 l-10 -55q-7 -31 -7 -39zM422 29q0 -29 39 -29h108l973 1319q17 23 17 39q0 28 -39 28h-109l-973 -1318q-16 -22 -16 -39zM1135 43q0 -11 8 -27q9 -12 28 -12h517l8 33q10 36 10 59q0 35 -43 35h-344q23 61 84 113q57 46 133 94q5 3 92 59q59 41 86 68q37 34 62 80 q22 40 22 96q0 50 -20 86q-17 35 -54 59q-35 24 -79 35q-39 10 -97 10q-87 0 -149 -22q-58 -19 -99 -45l-8 -43q0 -9 -4 -25v-14q0 -25 23 -25q5 0 32 9q8 3 24 8.5t22 7.5q20 9 61 16q38 9 76 9q58 0 88 -21q31 -16 31 -59q0 -59 -54 -101q-36 -30 -149 -100 q-135 -84 -205 -172q-64 -85 -94 -170q-3 -8 -8 -27v-14z" />
<glyph unicode="&#xbe;" horiz-adv-x="1845" d="M279 639q0 -15 22 -31q32 -16 55 -24q64 -15 76 -17q29 -4 86 -4q60 0 125 19q61 18 107 55q44 34 73 86q27 47 27 113q0 57 -31 96q-29 39 -82 57q82 36 123 88q45 54 45 125q0 102 -71 150q-66 49 -185 49q-73 0 -131 -17q-54 -14 -98 -38l-10 -52q-4 -8 -7 -20v-14 q0 -9 6 -15t15 -6q16 0 74 21q50 20 131 20q60 0 94 -27q33 -21 33 -67q0 -25 -11 -47q-8 -22 -32 -43q-23 -20 -58 -31q-35 -12 -84 -12h-98l-8 -45q-5 -25 -6 -29v-16q0 -15 8 -23q9 -6 29 -6h65q62 0 98 -23q37 -21 37 -69q0 -69 -53 -111q-53 -41 -137 -41 q-62 0 -111 12q-48 12 -90 29l-16 -47q-4 -19 -8 -25q-2 -4 -2 -20zM545 29q0 -29 39 -29h108l973 1319q16 21 16 39q0 28 -39 28h-108l-973 -1318q-16 -22 -16 -39zM1159 223q0 -24 33 -24h336l-23 -115q-1 -5 -3 -15.5t-3 -15.5v-16q0 -35 43 -35h98l39 197h103l10 47 q4 16 6 26q2 6 2 29q0 21 -31 21h-65l78 376q2 7 5.5 22t4.5 21q4 18 4 41q0 29 -37 29h-137q-78 -61 -139 -119q-62 -59 -127 -137q-74 -89 -109 -139q-36 -49 -76 -127l-8 -33q0 -4 -4 -20v-13zM1325 322q10 16 55 81q45 60 78 97q44 50 90 96q57 57 88 80l-86 -354h-225z " />
<glyph unicode="&#xbf;" horiz-adv-x="839" d="M78 -88q0 -128 86 -205q88 -76 242 -76q104 0 196 29q93 33 127 49l8 43q6 21 6 39q2 12 2 29q0 18 -8 26q-5 11 -26 11q-11 0 -35 -9q-8 -2 -26.5 -9.5t-28.5 -10.5q-14 -6 -74 -18q-61 -9 -86 -9q-182 0 -182 146q0 47 18 84q14 31 45 71q33 41 64 66q33 31 77 63 q12 10 32.5 26.5t36.5 30t30 25.5q49 43 80 82q34 39 53 92q20 47 20 105q0 41 -14 49q-8 8 -41 8h-92q-7 -43 -29 -96q-18 -40 -45 -74q-23 -29 -65 -65q-9 -7 -40.5 -33t-52.5 -43q-38 -30 -106 -90q-50 -44 -90 -96q-34 -45 -60 -111q-22 -61 -22 -129zM561 920 q0 -44 31 -72q31 -25 84 -25q73 0 117 41q43 43 43 119q0 49 -31 74q-29 26 -86 26q-74 0 -117 -43q-41 -41 -41 -120z" />
<glyph unicode="&#xc0;" horiz-adv-x="1073" d="M59 37q0 -12 11 -27q13 -10 34 -10h146q39 118 67 195q75 194 78 202h432q0 -47 -6 -102q-6 -103 -6 -107q-1 -16 -2 -46t-2 -44q0 -15 -1 -32t-1 -19q0 -47 45 -47h154q9 123 12 258q4 90 4 287q0 249 -18 461q-19 221 -41 350q-12 63 -70 63h-182q-260 -438 -402 -745 q-138 -295 -229 -549q-14 -42 -16 -49q-7 -21 -7 -39zM463 563q18 38 78 170q11 23 36.5 79t40.5 87q15 28 44 85t43 85q89 170 96 182q21 -135 28 -299q5 -118 5 -286q0 -23 -3 -50q0 -35 -2 -53h-366zM604 1808l158 -254q19 -28 45 -28h106q-19 58 -49 135q-26 69 -49 117 q-9 23 -20 26q-6 4 -25 4h-166z" />
<glyph unicode="&#xc1;" horiz-adv-x="1073" d="M59 37q0 -12 11 -27q13 -10 34 -10h146q39 118 67 195q75 194 78 202h432q0 -47 -6 -102q-6 -103 -6 -107q-1 -16 -2 -46t-2 -44q0 -15 -1 -32t-1 -19q0 -47 45 -47h154q9 123 12 258q4 90 4 287q0 249 -18 461q-19 221 -41 350q-12 63 -70 63h-182q-260 -438 -402 -745 q-138 -295 -229 -549q-14 -42 -16 -49q-7 -21 -7 -39zM463 563q18 38 78 170q11 23 36.5 79t40.5 87q15 28 44 85t43 85q89 170 96 182q21 -135 28 -299q5 -118 5 -286q0 -23 -3 -50q0 -35 -2 -53h-366zM723 1542q0 -16 25 -16h104l195 207q16 16 22 28q4 8 4 23 q0 13 -10 18q-9 6 -19 6h-141q-29 -38 -94 -127q-17 -23 -43 -61.5t-37 -54.5q-6 -12 -6 -23z" />
<glyph unicode="&#xc2;" horiz-adv-x="1073" d="M59 37q0 -12 11 -27q13 -10 34 -10h146q39 118 67 195q75 194 78 202h432q0 -47 -6 -102q-6 -103 -6 -107q-1 -16 -2 -46t-2 -44q0 -15 -1 -32t-1 -19q0 -47 45 -47h154q9 123 12 258q4 90 4 287q0 249 -18 461q-19 221 -41 350q-12 63 -70 63h-182q-260 -438 -402 -745 q-138 -295 -229 -549q-14 -42 -16 -49q-7 -21 -7 -39zM463 563q18 38 78 170q11 23 36.5 79t40.5 87q15 28 44 85t43 85q89 170 96 182q21 -135 28 -299q5 -118 5 -286q0 -23 -3 -50q0 -35 -2 -53h-366zM567 1548q0 -22 25 -22h127l158 166l59 -129q14 -21 22 -29 q11 -8 33 -8h117q-11 30 -53 125q-23 52 -58 116q-14 28 -24 33q-11 8 -35 8h-131q-73 -67 -105 -100q-47 -47 -112 -119q-23 -30 -23 -41z" />
<glyph unicode="&#xc3;" horiz-adv-x="1073" d="M59 37q0 -12 11 -27q13 -10 34 -10h146q39 118 67 195q75 194 78 202h432q0 -47 -6 -102q-6 -103 -6 -107q-1 -16 -2 -46t-2 -44q0 -15 -1 -32t-1 -19q0 -47 45 -47h154q9 123 12 258q4 90 4 287q0 249 -18 461q-19 221 -41 350q-12 63 -70 63h-182q-260 -438 -402 -745 q-138 -295 -229 -549q-14 -42 -16 -49q-7 -21 -7 -39zM463 563q18 38 78 170q11 23 36.5 79t40.5 87q15 28 44 85t43 85q89 170 96 182q21 -135 28 -299q5 -118 5 -286q0 -23 -3 -50q0 -35 -2 -53h-366zM541 1571q0 -12 6 -21q6 -6 24 -6h84q13 59 29 86q19 31 49 31 q28 0 47 -16q27 -17 51 -41q76 -64 152 -64q36 0 76 16q38 18 65 48q28 28 43 69q17 41 17 90q0 15 -6 21q-4 6 -25 6h-84q-5 -44 -29 -86q-17 -33 -51 -33q-17 0 -49 21q-8 7 -53 43q-27 24 -62 41q-34 18 -82 18q-42 0 -75 -16q-35 -14 -66 -45q-29 -32 -45 -68 q-16 -33 -16 -94z" />
<glyph unicode="&#xc4;" horiz-adv-x="1073" d="M59 37q0 -12 11 -27q13 -10 34 -10h146q39 118 67 195q75 194 78 202h432q0 -47 -6 -102q-6 -103 -6 -107q-1 -16 -2 -46t-2 -44q0 -15 -1 -32t-1 -19q0 -47 45 -47h154q9 123 12 258q4 90 4 287q0 249 -18 461q-19 221 -41 350q-12 63 -70 63h-182q-260 -438 -402 -745 q-138 -295 -229 -549q-14 -42 -16 -49q-7 -21 -7 -39zM463 563q18 38 78 170q11 23 36.5 79t40.5 87q15 28 44 85t43 85q89 170 96 182q21 -135 28 -299q5 -118 5 -286q0 -23 -3 -50q0 -35 -2 -53h-366zM557 1634q0 -30 27 -57q30 -23 80 -23q69 0 108 39q35 38 35 99 q0 33 -27 57q-23 23 -82 23q-70 0 -106 -39q-35 -35 -35 -99zM936 1634q0 -30 27 -57q30 -23 79 -23q70 0 109 39q35 38 35 99q0 33 -27 57q-23 23 -82 23q-70 0 -106 -39q-35 -35 -35 -99z" />
<glyph unicode="&#xc5;" horiz-adv-x="1073" d="M59 37q0 -12 11 -27q13 -10 34 -10h146q39 118 67 195q75 194 78 202h432q0 -47 -6 -102q-6 -103 -6 -107q-1 -16 -2 -46t-2 -44q0 -15 -1 -32t-1 -19q0 -47 45 -47h154q9 123 12 258q4 90 4 287q0 249 -18 461q-19 221 -41 350q-12 63 -70 63h-182q-260 -438 -402 -745 q-138 -295 -229 -549q-14 -42 -16 -49q-7 -21 -7 -39zM463 563q18 38 78 170q11 23 36.5 79t40.5 87q15 28 44 85t43 85q89 170 96 182q21 -135 28 -299q5 -118 5 -286q0 -23 -3 -50q0 -35 -2 -53h-366zM662 1661q0 -45 18 -80q19 -32 45 -55q31 -22 66 -33q42 -10 75 -10 q97 0 160 57q61 58 61 160q0 46 -18 80q-18 37 -45 59q-25 22 -68 35q-38 12 -75 12q-101 0 -160 -59q-59 -56 -59 -166zM768 1677q0 54 33 84q33 29 84 29q48 0 73 -31q25 -28 25 -71q0 -53 -33 -82q-30 -27 -84 -27q-45 3 -73 31q-25 31 -25 67z" />
<glyph unicode="&#xc6;" horiz-adv-x="1591" d="M39 31q0 -31 31 -31h159q64 134 95 193q13 23 35 63.5t40.5 74t34.5 64.5h391l-61 -303q-3 -18 -6 -33q0 -4 -1 -12t-1 -12q0 -35 47 -35h706l17 82q6 15 6 33q2 12 2 24q0 37 -47 37h-508l92 453h492l16 82q6 18 6 32q2 12 2 25q0 39 -45 39h-436l88 436h545l16 82 q6 15 6 33q2 12 2 24q0 37 -47 37h-798q-108 -128 -195 -245q-68 -89 -211 -300q-91 -134 -213 -339q-119 -202 -201 -365q-16 -32 -20 -39q-10 -20 -19 -41q-2 -6 -7 -18.5t-7 -18.5q-6 -15 -6 -22zM522 571q96 167 219 344q133 190 256 347l-137 -691h-338z" />
<glyph unicode="&#xc7;" horiz-adv-x="1001" d="M211 453q0 -218 86 -336q83 -114 250 -135l-41 -70q-11 -22 -21 -37q-8 -13 -8 -31q0 -14 31 -26l27 -8q28 -8 47 -21q16 -8 16 -31q0 -41 -39 -53q-31 -10 -76 -10q-7 0 -21.5 1t-21.5 1q-24 4 -34 6l-11 -35q-6 -15 -6 -28q0 -16 21 -27q50 -16 108 -16q97 0 164 45 q63 43 63 122q0 52 -28 80q-25 32 -74 47l-29 11l45 78q102 6 181 36q80 29 139 72l-23 90q-12 49 -41 49q-9 0 -24 -6q-4 -2 -14.5 -5t-14.5 -5q-44 -18 -96 -33q-50 -12 -104 -12q-124 0 -181 72q-53 74 -53 233q0 123 31 266q28 130 94 256q64 117 160 191q98 76 223 76 q66 0 121 -15q50 -11 88 -26l22 57q15 40 15 59q0 25 -27 43q-25 22 -63 33q-39 16 -84 21q-41 8 -86 8q-116 0 -209 -41q-100 -43 -176 -113q-82 -73 -140 -166q-54 -84 -102 -205q-38 -97 -64 -227q-20 -111 -20 -235z" />
<glyph unicode="&#xc8;" horiz-adv-x="1036" d="M147 39q0 -14 11 -29q13 -10 39 -10h741l16 82q7 25 7 35q2 10 2 22q0 37 -48 37h-544l92 453h528l17 82q6 21 6 34q2 10 2 23q0 39 -47 39h-471l88 436h581l17 82q6 21 6 35q2 10 2 22q0 37 -47 37h-725l-250 -1253q-4 -31 -16 -80q-7 -44 -7 -47zM629 1808l157 -254 q19 -28 45 -28h107q-19 58 -49 135q-26 69 -49 117q-9 23 -21 26q-6 4 -24 4h-166z" />
<glyph unicode="&#xc9;" horiz-adv-x="1036" d="M147 39q0 -14 11 -29q13 -10 39 -10h741l16 82q7 25 7 35q2 10 2 22q0 37 -48 37h-544l92 453h528l17 82q6 21 6 34q2 10 2 23q0 39 -47 39h-471l88 436h581l17 82q6 21 6 35q2 10 2 22q0 37 -47 37h-725l-250 -1253q-4 -31 -16 -80q-7 -44 -7 -47zM731 1542 q0 -16 25 -16h104l195 207q16 16 22 28q4 8 4 23q0 13 -10 18q-9 6 -18 6h-142q-29 -38 -94 -127q-17 -23 -43 -61.5t-37 -54.5q-6 -12 -6 -23z" />
<glyph unicode="&#xca;" horiz-adv-x="1036" d="M147 39q0 -14 11 -29q13 -10 39 -10h741l16 82q7 25 7 35q2 10 2 22q0 37 -48 37h-544l92 453h528l17 82q6 21 6 34q2 10 2 23q0 39 -47 39h-471l88 436h581l17 82q6 21 6 35q2 10 2 22q0 37 -47 37h-725l-250 -1253q-4 -31 -16 -80q-7 -44 -7 -47zM567 1548 q0 -22 25 -22h127l158 166l59 -129q14 -21 22 -29q11 -8 33 -8h117q-11 30 -53 125q-23 52 -58 116q-14 28 -24 33q-11 8 -35 8h-131q-73 -67 -105 -100q-47 -47 -112 -119q-23 -30 -23 -41z" />
<glyph unicode="&#xcb;" horiz-adv-x="1036" d="M147 39q0 -14 11 -29q13 -10 39 -10h741l16 82q7 25 7 35q2 10 2 22q0 37 -48 37h-544l92 453h528l17 82q6 21 6 34q2 10 2 23q0 39 -47 39h-471l88 436h581l17 82q6 21 6 35q2 10 2 22q0 37 -47 37h-725l-250 -1253q-4 -31 -16 -80q-7 -44 -7 -47zM530 1634 q0 -30 27 -57q30 -23 80 -23q69 0 108 39q35 38 35 99q0 34 -26 57q-23 23 -82 23q-71 0 -107 -39q-35 -35 -35 -99zM909 1634q0 -30 27 -57q30 -23 80 -23q69 0 108 39q35 38 35 99q0 34 -26 57q-23 23 -82 23q-71 0 -107 -39q-35 -35 -35 -99z" />
<glyph unicode="&#xcc;" horiz-adv-x="503" d="M152 39q0 -16 10 -29q13 -10 39 -10h147l250 1249q2 11 5.5 28t6 30t4.5 24q7 29 7 49q0 21 -11 29q-7 10 -39 10h-147l-250 -1245q-13 -61 -16 -84q-6 -38 -6 -51zM279 1808l157 -254q19 -28 45 -28h107q-19 58 -49 135q-23 60 -50 117q-9 23 -20 26q-6 4 -25 4h-165z " />
<glyph unicode="&#xcd;" horiz-adv-x="503" d="M152 39q0 -16 10 -29q13 -10 39 -10h147l250 1249q2 11 5.5 28t6 30t4.5 24q7 29 7 49q0 21 -11 29q-7 10 -39 10h-147l-250 -1245q-13 -61 -16 -84q-6 -38 -6 -51zM453 1542q0 -16 24 -16h105l194 207q18 18 23 28q4 8 4 23q0 13 -10 18q-9 6 -19 6h-141 q-29 -38 -94 -127q-17 -23 -43 -61.5t-37 -54.5q-6 -12 -6 -23z" />
<glyph unicode="&#xce;" horiz-adv-x="503" d="M152 39q0 -16 10 -29q13 -10 39 -10h147l250 1249q2 11 5.5 28t6 30t4.5 24q7 29 7 49q0 21 -11 29q-7 10 -39 10h-147l-250 -1245q-13 -61 -16 -84q-6 -38 -6 -51zM287 1548q0 -22 24 -22h127l158 166l59 -129q12 -18 23 -29q11 -8 33 -8h116q-11 30 -53 125 q-28 62 -57 116q-14 27 -25 33q-11 8 -35 8h-131q-58 -54 -104 -100q-58 -58 -113 -119q-22 -28 -22 -41z" />
<glyph unicode="&#xcf;" horiz-adv-x="503" d="M152 39q0 -16 10 -29q13 -10 39 -10h147l250 1249q2 11 5.5 28t6 30t4.5 24q7 29 7 49q0 21 -11 29q-7 10 -39 10h-147l-250 -1245q-13 -61 -16 -84q-6 -38 -6 -51zM264 1634q0 -30 27 -57q30 -23 80 -23q69 0 108 39q35 38 35 99q0 33 -27 57q-23 23 -81 23 q-71 0 -107 -39q-35 -35 -35 -99zM643 1634q0 -30 27 -57q30 -23 80 -23q69 0 108 39q35 38 35 99q0 33 -27 57q-23 23 -82 23q-70 0 -106 -39q-35 -35 -35 -99z" />
<glyph unicode="&#xd0;" horiz-adv-x="1177" d="M125 696q0 -37 43 -37h100l-80 -397q-8 -40 -14 -65q-2 -11 -6 -33.5t-6 -34.5q-2 -8 -5 -27t-5 -28q-1 -6 -3 -18.5t-2 -16.5q0 -14 11 -29q13 -10 39 -10h268q171 0 315 72q146 76 240 190q95 115 154 283q53 156 53 342q0 277 -140 411q-137 134 -380 134 q-83 0 -156 -11q-69 -8 -133 -22l-121 -594h-154q-3 -18 -7 -37t-6 -30.5t-3 -16.5q0 -7 -1 -15t-1 -10zM375 172l98 487h250q15 66 18 82q2 6 2 25q0 39 -45 39h-196l90 448q31 6 59 9q10 2 66 2q155 0 229 -86q74 -83 74 -279q0 -166 -41 -293q-37 -124 -115 -229 q-77 -99 -174 -152q-95 -53 -215 -53h-100z" />
<glyph unicode="&#xd1;" horiz-adv-x="1222" d="M147 39q0 -39 48 -39h137l217 1083q24 -61 51 -147q15 -40 57 -180q36 -113 60 -195q6 -21 27.5 -88.5t31.5 -103.5q5 -16 51 -179q26 -88 39 -143q12 -47 60 -47h149l250 1253q14 68 16 80q7 29 7 47q0 21 -11 29q-7 10 -39 10h-135l-213 -1061q-50 177 -82 273 q-86 279 -92 295q-66 210 -86 264q-54 164 -61 182q-9 29 -25 39q-8 8 -47 8h-137l-250 -1253q-14 -68 -16 -80q-7 -44 -7 -47zM604 1571q0 -12 6 -21q6 -6 25 -6h84q13 59 29 86q19 31 49 31q28 0 47 -16q27 -17 51 -41q76 -64 152 -64q35 0 75 16q40 19 66 48q28 28 43 69 q16 39 16 90q0 15 -6 21q-4 6 -24 6h-84q-5 -44 -29 -86q-17 -33 -51 -33q-17 0 -49 21q-9 8 -29.5 24t-24.5 19q-29 25 -61 41q-34 18 -82 18q-43 0 -76 -16q-33 -13 -65 -45q-29 -32 -45 -68q-17 -35 -17 -94z" />
<glyph unicode="&#xd2;" horiz-adv-x="1249" d="M221 487q0 -245 115 -378q120 -132 311 -132q146 0 273 76q124 77 210 207q88 132 138 305q47 167 47 371q0 120 -31 215q-29 92 -86 158q-50 61 -135 98q-70 33 -172 33q-146 0 -270 -74q-120 -72 -213 -203q-89 -130 -138 -303q-49 -171 -49 -373zM432 477 q0 142 31 285q29 136 86 250q56 107 141 176q85 67 189 67q57 0 100 -24q44 -24 70 -66q29 -39 41 -98q14 -52 14 -119q0 -140 -29 -276q-25 -133 -86 -254q-55 -113 -139 -185q-83 -71 -191 -71q-57 0 -100 24q-37 21 -70 68q-28 46 -43 100q-14 68 -14 123zM698 1808 l158 -254q19 -28 45 -28h107q-14 42 -50 135q-26 69 -49 117q-9 23 -20 26q-6 4 -25 4h-166z" />
<glyph unicode="&#xd3;" horiz-adv-x="1249" d="M221 487q0 -245 115 -378q120 -132 311 -132q146 0 273 76q124 77 210 207q88 132 138 305q47 167 47 371q0 120 -31 215q-29 92 -86 158q-50 61 -135 98q-70 33 -172 33q-146 0 -270 -74q-120 -72 -213 -203q-89 -130 -138 -303q-49 -171 -49 -373zM432 477 q0 142 31 285q29 136 86 250q56 107 141 176q85 67 189 67q57 0 100 -24q44 -24 70 -66q29 -39 41 -98q14 -52 14 -119q0 -140 -29 -276q-25 -133 -86 -254q-55 -113 -139 -185q-83 -71 -191 -71q-57 0 -100 24q-37 21 -70 68q-28 46 -43 100q-14 68 -14 123zM842 1542 q0 -16 24 -16h105l194 207q18 18 23 28q4 8 4 23q0 13 -10 18q-9 6 -19 6h-141q-29 -38 -94 -127q-17 -23 -43 -61.5t-37 -54.5q-6 -12 -6 -23z" />
<glyph unicode="&#xd4;" horiz-adv-x="1249" d="M221 487q0 -245 115 -378q120 -132 311 -132q146 0 273 76q124 77 210 207q88 132 138 305q47 167 47 371q0 120 -31 215q-29 92 -86 158q-50 61 -135 98q-70 33 -172 33q-146 0 -270 -74q-120 -72 -213 -203q-89 -130 -138 -303q-49 -171 -49 -373zM432 477 q0 142 31 285q29 136 86 250q56 107 141 176q85 67 189 67q57 0 100 -24q44 -24 70 -66q29 -39 41 -98q14 -52 14 -119q0 -140 -29 -276q-25 -133 -86 -254q-55 -113 -139 -185q-83 -71 -191 -71q-57 0 -100 24q-37 21 -70 68q-28 46 -43 100q-14 68 -14 123zM680 1548 q0 -22 25 -22h126l158 166l60 -129q14 -21 22 -29q11 -8 33 -8h117q-7 18 -54 125q-28 62 -57 116q-14 27 -25 33q-11 8 -34 8h-131q-73 -67 -105 -100q-58 -58 -113 -119q-22 -28 -22 -41z" />
<glyph unicode="&#xd5;" horiz-adv-x="1249" d="M221 487q0 -245 115 -378q120 -132 311 -132q146 0 273 76q124 77 210 207q88 132 138 305q47 167 47 371q0 120 -31 215q-29 92 -86 158q-50 61 -135 98q-70 33 -172 33q-146 0 -270 -74q-120 -72 -213 -203q-89 -130 -138 -303q-49 -171 -49 -373zM432 477 q0 142 31 285q29 136 86 250q56 107 141 176q85 67 189 67q57 0 100 -24q44 -24 70 -66q29 -39 41 -98q14 -52 14 -119q0 -140 -29 -276q-25 -133 -86 -254q-55 -113 -139 -185q-83 -71 -191 -71q-57 0 -100 24q-37 21 -70 68q-28 46 -43 100q-14 68 -14 123zM631 1571 q0 -12 6 -21q6 -6 25 -6h83q13 59 29 86q19 31 49 31q28 0 47 -16q29 -18 52 -41q76 -64 151 -64q36 0 76 16q38 18 65 48q28 28 43 69q17 41 17 90q0 15 -6 21q-4 6 -25 6h-84q-5 -44 -29 -86q-17 -33 -51 -33q-17 0 -49 21q-8 7 -53 43q-27 24 -62 41q-34 18 -81 18 q-43 0 -76 -16q-35 -14 -66 -45q-29 -32 -45 -68q-16 -33 -16 -94z" />
<glyph unicode="&#xd6;" horiz-adv-x="1249" d="M221 487q0 -245 115 -378q120 -132 311 -132q146 0 273 76q124 77 210 207q88 132 138 305q47 167 47 371q0 120 -31 215q-29 92 -86 158q-50 61 -135 98q-70 33 -172 33q-146 0 -270 -74q-120 -72 -213 -203q-89 -130 -138 -303q-49 -171 -49 -373zM432 477 q0 142 31 285q29 136 86 250q56 107 141 176q85 67 189 67q57 0 100 -24q44 -24 70 -66q29 -39 41 -98q14 -52 14 -119q0 -140 -29 -276q-25 -133 -86 -254q-55 -113 -139 -185q-83 -71 -191 -71q-57 0 -100 24q-37 21 -70 68q-28 46 -43 100q-14 68 -14 123zM641 1634 q0 -30 27 -57q30 -23 80 -23q69 0 108 39q35 38 35 99q0 33 -27 57q-23 23 -82 23q-70 0 -106 -39q-35 -35 -35 -99zM1020 1634q0 -30 27 -57q30 -23 79 -23q70 0 109 39q35 38 35 99q0 33 -27 57q-23 23 -82 23q-70 0 -106 -39q-35 -35 -35 -99z" />
<glyph unicode="&#xd7;" d="M311 471q0 -17 17 -37l73 -88l269 227l170 -215q19 -22 39 -22q8 0 24 8q20 15 21 16l86 74l-201 258l240 201q24 21 24 45q0 12 -6 18q-2 3 -5 9.5t-5 9.5l-72 88l-287 -240l-168 219q-14 23 -36 23q-16 0 -27 -8q-8 -4 -21 -17l-86 -73l201 -260l-225 -191 q-25 -22 -25 -45z" />
<glyph unicode="&#xd8;" horiz-adv-x="1249" d="M80 -51q0 -21 22 -21h111l133 168q116 -119 301 -119q146 0 273 76q124 77 210 207q88 132 138 305q47 167 47 371q0 86 -19 164q-19 79 -47 133l156 197q18 24 18 36q0 21 -22 21h-111l-119 -152q-111 105 -280 105q-146 0 -270 -74q-120 -72 -213 -203 q-89 -130 -138 -303q-49 -171 -49 -373q0 -162 53 -280l-176 -221q-18 -21 -18 -37zM432 444v33q0 142 31 285q29 136 86 250q56 107 141 176q85 67 189 67q57 0 94 -22q44 -21 69 -59l-606 -764q-4 24 -4 34zM481 266l615 774q6 -21 6 -47q2 -16 2 -45q0 -140 -29 -276 q-25 -133 -86 -254q-55 -113 -139 -185q-83 -71 -191 -71q-58 0 -106 28q-45 31 -72 76z" />
<glyph unicode="&#xd9;" horiz-adv-x="1206" d="M221 326q0 -94 31 -164q26 -59 84 -107q57 -42 125 -59q78 -19 155 -19q108 0 203 29q86 28 156 92q71 67 115 162q44 91 73 242l150 747q11 57 14 76q8 41 8 55q0 22 -10 29q-7 10 -37 10h-151l-189 -934q-30 -151 -106 -239q-74 -86 -215 -86q-113 0 -156 49t-43 131 q0 30 8 100q3 20 9 49.5t8 40.5l145 719q6 27 8 35q3 10 8 41l7 35q2 6 2 20q0 19 -13 29q-10 10 -39 10h-149l-172 -860q-9 -55 -21 -123q-8 -57 -8 -110zM672 1808l157 -254q19 -28 45 -28h107q-19 58 -49 135q-26 69 -49 117q-9 23 -21 26q-6 4 -24 4h-166z" />
<glyph unicode="&#xda;" horiz-adv-x="1206" d="M221 326q0 -94 31 -164q26 -59 84 -107q57 -42 125 -59q78 -19 155 -19q108 0 203 29q86 28 156 92q71 67 115 162q44 91 73 242l150 747q11 57 14 76q8 41 8 55q0 22 -10 29q-7 10 -37 10h-151l-189 -934q-30 -151 -106 -239q-74 -86 -215 -86q-113 0 -156 49t-43 131 q0 30 8 100q3 20 9 49.5t8 40.5l145 719q6 27 8 35q3 10 8 41l7 35q2 6 2 20q0 19 -13 29q-10 10 -39 10h-149l-172 -860q-9 -55 -21 -123q-8 -57 -8 -110zM819 1542q0 -16 25 -16h104l195 207q16 16 22 28q4 8 4 23q0 13 -10 18q-9 6 -18 6h-142q-29 -38 -94 -127 q-17 -23 -43 -61.5t-37 -54.5q-6 -12 -6 -23z" />
<glyph unicode="&#xdb;" horiz-adv-x="1206" d="M221 326q0 -94 31 -164q26 -59 84 -107q57 -42 125 -59q78 -19 155 -19q108 0 203 29q86 28 156 92q71 67 115 162q44 91 73 242l150 747q11 57 14 76q8 41 8 55q0 22 -10 29q-7 10 -37 10h-151l-189 -934q-30 -151 -106 -239q-74 -86 -215 -86q-113 0 -156 49t-43 131 q0 30 8 100q3 20 9 49.5t8 40.5l145 719q6 27 8 35q3 10 8 41l7 35q2 6 2 20q0 19 -13 29q-10 10 -39 10h-149l-172 -860q-9 -55 -21 -123q-8 -57 -8 -110zM643 1548q0 -22 25 -22h127l157 166l60 -129q14 -21 22 -29q11 -8 33 -8h117q-7 18 -54 125q-28 62 -57 116 q-14 28 -24 33q-11 8 -35 8h-131q-72 -67 -105 -100q-47 -47 -112 -119q-23 -30 -23 -41z" />
<glyph unicode="&#xdc;" horiz-adv-x="1206" d="M221 326q0 -94 31 -164q26 -59 84 -107q57 -42 125 -59q78 -19 155 -19q108 0 203 29q86 28 156 92q71 67 115 162q44 91 73 242l150 747q11 57 14 76q8 41 8 55q0 22 -10 29q-7 10 -37 10h-151l-189 -934q-30 -151 -106 -239q-74 -86 -215 -86q-113 0 -156 49t-43 131 q0 30 8 100q3 20 9 49.5t8 40.5l145 719q6 27 8 35q3 10 8 41l7 35q2 6 2 20q0 19 -13 29q-10 10 -39 10h-149l-172 -860q-9 -55 -21 -123q-8 -57 -8 -110zM614 1634q0 -30 27 -57q30 -23 80 -23q69 0 108 39q35 38 35 99q0 34 -26 57q-23 23 -82 23q-71 0 -107 -39 q-35 -35 -35 -99zM993 1634q0 -30 27 -57q30 -23 80 -23q69 0 108 39q35 38 35 99q0 34 -26 57q-23 23 -82 23q-71 0 -107 -39q-35 -35 -35 -99z" />
<glyph unicode="&#xdd;" horiz-adv-x="1030" d="M311 1419q7 -93 25 -225q19 -114 41 -213q10 -44 57 -213q32 -96 78 -221l-76 -373q-9 -44 -18 -84q-6 -38 -6 -53q0 -14 10 -27q13 -10 39 -10h149l105 530q184 220 305 414q122 190 219 389q14 28 14 51q0 35 -47 35h-149q-23 -63 -72 -159q-63 -124 -94 -175 q-70 -118 -113 -182q-68 -102 -127 -176q-30 97 -49 176q-4 21 -16.5 79.5t-18.5 88.5q-15 101 -24 158q-11 91 -15 135q-3 29 -10 43q-5 12 -35 12h-172zM702 1542q0 -16 25 -16h104l195 207q18 18 23 28q4 8 4 23q0 12 -11 18q-9 6 -18 6h-141q-62 -82 -95 -127 q-17 -23 -42.5 -61.5t-36.5 -54.5q-7 -14 -7 -23z" />
<glyph unicode="&#xde;" horiz-adv-x="1046" d="M147 39q0 -14 11 -29q13 -10 39 -10h143l59 305q123 -26 228 -26q122 0 215 40q104 46 166 113q64 67 104 172q37 101 37 217q0 103 -33 168q-29 69 -92 113q-56 45 -137 63q-80 21 -168 21q-71 0 -141 -6q20 92 24 112q12 49 12 88q0 22 -10 29q-7 10 -39 10h-143 l-236 -1175q-3 -15 -26 -123q-13 -60 -13 -82zM432 471l113 545q25 4 71 8q12 2 80 2q125 0 185 -45q61 -41 61 -154q0 -80 -20 -147q-18 -68 -62 -121q-44 -54 -102 -82q-57 -28 -146 -28q-50 0 -94 6q-26 4 -86 16z" />
<glyph unicode="&#xdf;" horiz-adv-x="1122" d="M143 39q0 -39 47 -39h144l209 1036q10 50 32 115q20 52 50 90q27 37 73 59q38 21 99 21q82 0 131 -41q51 -37 51 -117q0 -63 -35 -104q-36 -45 -80 -84q-25 -20 -67 -62q-17 -15 -52 -59q-20 -29 -32 -63q-13 -33 -13 -72q0 -59 37 -105q56 -65 82 -96q42 -49 66 -90 q26 -38 26 -104q0 -83 -57 -131q-54 -48 -149 -48q-42 0 -111 15q-63 18 -88 28l-21 -47q-14 -40 -14 -61q0 -26 39 -51q36 -18 84 -31q56 -12 125 -12q80 0 160 26q75 27 125 72t81 111q29 65 29 145q0 92 -35 149q-37 70 -80 115q-45 55 -71 84q-33 45 -33 68q0 30 31 61 q28 32 92 90q64 59 112 123q41 58 41 150q0 76 -30 135q-29 59 -78 96q-48 39 -115 57q-58 19 -137 19q-207 0 -317 -119q-109 -115 -150 -319l-184 -914q-1 -5 -6 -25t-7 -32q-4 -18 -4 -39z" />
<glyph unicode="&#xe0;" horiz-adv-x="1044" d="M168 344q0 -171 78 -272q82 -97 211 -97q74 0 155 33q75 35 148 111l8 -72q7 -27 14 -37q10 -10 39 -10h109q0 3 0.5 9.5l1.5 19.5l2 26q2 17 4 53.5t4 55.5q4 43 16 133q7 42 25 129l86 362q12 40 21 84q8 31 8 60q0 36 -17 47q-16 16 -57 33q-46 20 -119 37 q-77 18 -164 18q-139 0 -243 -59q-110 -61 -181 -160q-70 -94 -112 -232q-37 -127 -37 -272zM373 358q0 102 24 201q23 96 72 176q47 76 117 127q67 47 157 47q54 0 88 -10q48 -10 58 -14l-139 -596q-41 -57 -101 -96q-61 -39 -129 -39q-46 0 -76 18q-27 18 -45 45 q-17 34 -22 66q-4 25 -4 75zM582 1450l155 -244q22 -28 47 -28h99q-23 59 -52 127q-11 31 -47 114q-16 31 -43 31h-159z" />
<glyph unicode="&#xe1;" horiz-adv-x="1044" d="M168 344q0 -171 78 -272q82 -97 211 -97q74 0 155 33q75 35 148 111l8 -72q7 -27 14 -37q10 -10 39 -10h109q0 3 0.5 9.5l1.5 19.5l2 26q2 17 4 53.5t4 55.5q4 43 16 133q7 42 25 129l86 362q12 40 21 84q8 31 8 60q0 36 -17 47q-16 16 -57 33q-46 20 -119 37 q-77 18 -164 18q-139 0 -243 -59q-110 -61 -181 -160q-70 -94 -112 -232q-37 -127 -37 -272zM373 358q0 102 24 201q23 96 72 176q47 76 117 127q67 47 157 47q54 0 88 -10q48 -10 58 -14l-139 -596q-41 -57 -101 -96q-61 -39 -129 -39q-46 0 -76 18q-27 18 -45 45 q-17 34 -22 66q-4 25 -4 75zM739 1194q0 -16 25 -16h94l189 196q15 15 22 29q4 8 4 20q0 13 -6 19q-5 8 -23 8h-137q-65 -93 -86 -123q-17 -23 -42.5 -61t-33.5 -49q-6 -12 -6 -23z" />
<glyph unicode="&#xe2;" horiz-adv-x="1044" d="M168 344q0 -171 78 -272q82 -97 211 -97q74 0 155 33q75 35 148 111l8 -72q7 -27 14 -37q10 -10 39 -10h109q0 3 0.5 9.5l1.5 19.5l2 26q2 17 4 53.5t4 55.5q4 43 16 133q7 42 25 129l86 362q12 40 21 84q8 31 8 60q0 36 -17 47q-16 16 -57 33q-46 20 -119 37 q-77 18 -164 18q-139 0 -243 -59q-110 -61 -181 -160q-70 -94 -112 -232q-37 -127 -37 -272zM373 358q0 102 24 201q23 96 72 176q47 76 117 127q67 47 157 47q54 0 88 -10q48 -10 58 -14l-139 -596q-41 -57 -101 -96q-61 -39 -129 -39q-46 0 -76 18q-27 18 -45 45 q-17 34 -22 66q-4 25 -4 75zM543 1194q0 -20 22 -20h125l156 184l61 -152q7 -14 19 -26q12 -6 28 -6h117l-106 262q-9 28 -25 34q-9 7 -35 7h-125q-50 -50 -118 -125q-40 -45 -101 -121q-18 -21 -18 -37z" />
<glyph unicode="&#xe3;" horiz-adv-x="1044" d="M168 344q0 -171 78 -272q82 -97 211 -97q74 0 155 33q75 35 148 111l8 -72q7 -27 14 -37q10 -10 39 -10h109q0 3 0.5 9.5l1.5 19.5l2 26q2 17 4 53.5t4 55.5q4 43 16 133q7 42 25 129l86 362q12 40 21 84q8 31 8 60q0 36 -17 47q-16 16 -57 33q-46 20 -119 37 q-77 18 -164 18q-139 0 -243 -59q-110 -61 -181 -160q-70 -94 -112 -232q-37 -127 -37 -272zM373 358q0 102 24 201q23 96 72 176q47 76 117 127q67 47 157 47q54 0 88 -10q48 -10 58 -14l-139 -596q-41 -57 -101 -96q-61 -39 -129 -39q-46 0 -76 18q-27 18 -45 45 q-17 34 -22 66q-4 25 -4 75zM502 1219q0 -12 6 -21q6 -6 24 -6h84q8 35 25 78q17 39 53 39q32 0 56 -21q24 -18 43 -37q75 -63 151 -63q36 0 76 16q40 19 65 47q27 27 43 70q17 41 17 90q0 15 -6 21q-4 6 -25 6h-84q-9 -48 -26 -84q-15 -35 -54 -35q-21 0 -45 18 q-30 26 -49 39q-34 30 -70 47q-36 19 -81 19q-41 0 -76 -17q-35 -14 -66 -45q-30 -34 -45 -69q-16 -36 -16 -92z" />
<glyph unicode="&#xe4;" horiz-adv-x="1044" d="M168 344q0 -171 78 -272q82 -97 211 -97q74 0 155 33q75 35 148 111l8 -72q7 -27 14 -37q10 -10 39 -10h109q0 3 0.5 9.5l1.5 19.5l2 26q2 17 4 53.5t4 55.5q4 43 16 133q7 42 25 129l86 362q12 40 21 84q8 31 8 60q0 36 -17 47q-16 16 -57 33q-46 20 -119 37 q-77 18 -164 18q-139 0 -243 -59q-110 -61 -181 -160q-70 -94 -112 -232q-37 -127 -37 -272zM373 358q0 102 24 201q23 96 72 176q47 76 117 127q67 47 157 47q54 0 88 -10q48 -10 58 -14l-139 -596q-41 -57 -101 -96q-61 -39 -129 -39q-46 0 -76 18q-27 18 -45 45 q-17 34 -22 66q-4 25 -4 75zM498 1288q0 -33 26 -59q26 -23 82 -23q70 0 109 39q37 40 37 101q0 35 -27 59q-22 22 -84 22q-74 0 -109 -38q-34 -34 -34 -101zM885 1288q0 -33 26 -59q26 -23 82 -23q70 0 109 39q37 40 37 101q0 35 -27 59q-22 22 -84 22q-73 0 -108 -38 q-35 -35 -35 -101z" />
<glyph unicode="&#xe5;" horiz-adv-x="1044" d="M168 344q0 -171 78 -272q82 -97 211 -97q74 0 155 33q75 35 148 111l8 -72q7 -27 14 -37q10 -10 39 -10h109q0 3 0.5 9.5l1.5 19.5l2 26q2 17 4 53.5t4 55.5q4 43 16 133q7 42 25 129l86 362q12 40 21 84q8 31 8 60q0 36 -17 47q-16 16 -57 33q-46 20 -119 37 q-77 18 -164 18q-139 0 -243 -59q-110 -61 -181 -160q-70 -94 -112 -232q-37 -127 -37 -272zM373 358q0 102 24 201q23 96 72 176q47 76 117 127q67 47 157 47q54 0 88 -10q48 -10 58 -14l-139 -596q-41 -57 -101 -96q-61 -39 -129 -39q-46 0 -76 18q-27 18 -45 45 q-17 34 -22 66q-4 25 -4 75zM629 1337q0 -45 18 -80q19 -32 45 -55q31 -22 66 -33q42 -10 76 -10q95 0 159 58q62 59 62 159q0 44 -19 80q-19 39 -45 60q-24 21 -67 34q-41 13 -76 13q-100 0 -160 -60q-59 -56 -59 -166zM735 1354q0 54 33 84q32 28 84 28q50 0 74 -30 q24 -27 24 -72q0 -54 -32 -82q-30 -27 -84 -27q-46 3 -74 31q-25 31 -25 68z" />
<glyph unicode="&#xe6;" horiz-adv-x="1579" d="M168 344q0 -170 65 -270q67 -99 201 -99q62 0 121 19q52 17 102 49q44 27 86 72q44 47 68 82q37 -115 123 -168q90 -52 213 -52q104 0 192 31q90 31 150 70l-16 72q-7 27 -15 38q-5 13 -28 13q-20 0 -41 -8q-9 -2 -29.5 -9t-28.5 -10q-50 -13 -74 -18q-61 -9 -90 -9 q-113 0 -155 60q-37 61 -37 180h69q171 0 287 35q120 38 185 92q72 60 98 127q28 69 28 145q0 133 -86 207t-235 74q-105 0 -178 -33q-75 -31 -121 -71q-46 43 -121 71q-73 33 -176 33q-135 0 -236 -59q-98 -55 -174 -160q-68 -96 -110 -232q-37 -127 -37 -272zM373 350 q0 108 24 207q24 101 70 180q51 82 111 125q64 47 151 47q57 0 107 -18q52 -18 69 -35q-39 -75 -57 -127q-20 -56 -41 -135q-17 -76 -27 -133q-3 -25 -7 -65l-5 -50q-20 -33 -47 -67q-19 -25 -66 -62q-46 -33 -75 -45q-40 -18 -80 -18q-69 0 -99 53q-28 52 -28 143zM989 535 q13 65 41 143q28 72 66 119q47 56 94 82q56 30 131 30q67 0 100 -39q35 -35 35 -98q0 -111 -106 -174q-108 -63 -306 -63h-55z" />
<glyph unicode="&#xe7;" horiz-adv-x="837" d="M164 377q0 -170 72 -277q72 -100 213 -118l-41 -70q-7 -14 -19 -35q-10 -20 -10 -33q0 -14 31 -26l26 -8q28 -8 47 -21q17 -9 17 -31q0 -41 -39 -53q-31 -10 -76 -10q-7 0 -21.5 1t-21.5 1q-30 5 -35 6q-16 -53 -16 -63q0 -17 20 -27q50 -16 109 -16q97 0 164 45 q63 43 63 122q0 51 -29 80q-26 33 -73 47l-29 11l47 78q75 9 142 30q68 23 118 58q-25 99 -32 108q-6 14 -29 14q-9 0 -27 -6q-5 -2 -41 -14q-44 -11 -63 -14q-37 -6 -76 -6q-104 0 -147 61q-41 58 -41 166q0 90 22 186q25 99 66 168q46 75 112 121q64 47 156 47 q75 0 119 -16q54 -16 67 -25q26 60 33 80q6 18 6 27q0 20 -22 36q-28 24 -56 33q-42 18 -77 25q-29 8 -91 8q-130 0 -231 -61q-101 -62 -170 -160q-63 -92 -102 -221q-35 -125 -35 -248z" />
<glyph unicode="&#xe8;" horiz-adv-x="960" d="M164 375q0 -99 26 -182q28 -76 72 -123q46 -46 113 -70q74 -23 149 -23q104 0 195 31q89 29 151 70l-22 69q-8 26 -19 41q-7 13 -26 13q-17 0 -25 -4q-4 -1 -15 -5t-18 -6q-30 -10 -79 -24q-62 -15 -115 -15q-106 0 -150 56q-39 53 -39 147v37h46q180 0 299 35 q121 38 190 92q70 56 98 125q29 68 29 141q0 140 -88 213q-83 74 -234 74q-141 0 -247 -68q-101 -67 -166 -168q-68 -107 -96 -223q-29 -119 -29 -233zM377 535q12 75 35 139q23 65 63 121q39 54 92 84q48 30 123 30q80 0 113 -39q35 -35 35 -98q0 -107 -107 -174 q-103 -63 -311 -63h-43zM459 1450l155 -244q22 -28 48 -28h98q-30 79 -51 127q-11 31 -47 114q-16 31 -44 31h-159z" />
<glyph unicode="&#xe9;" horiz-adv-x="960" d="M164 375q0 -99 26 -182q28 -76 72 -123q46 -46 113 -70q74 -23 149 -23q104 0 195 31q89 29 151 70l-22 69q-8 26 -19 41q-7 13 -26 13q-17 0 -25 -4q-4 -1 -15 -5t-18 -6q-30 -10 -79 -24q-62 -15 -115 -15q-106 0 -150 56q-39 53 -39 147v37h46q180 0 299 35 q121 38 190 92q70 56 98 125q29 68 29 141q0 140 -88 213q-83 74 -234 74q-141 0 -247 -68q-101 -67 -166 -168q-68 -107 -96 -223q-29 -119 -29 -233zM377 535q12 75 35 139q23 65 63 121q39 54 92 84q48 30 123 30q80 0 113 -39q35 -35 35 -98q0 -107 -107 -174 q-103 -63 -311 -63h-43zM657 1194q0 -16 25 -16h94l189 196q15 15 22 29q4 8 4 20q0 13 -6 19q-5 8 -22 8h-138q-65 -93 -86 -123q-16 -23 -41 -60t-34 -50q-7 -14 -7 -23z" />
<glyph unicode="&#xea;" horiz-adv-x="960" d="M164 375q0 -99 26 -182q28 -76 72 -123q46 -46 113 -70q74 -23 149 -23q104 0 195 31q89 29 151 70l-22 69q-8 26 -19 41q-7 13 -26 13q-17 0 -25 -4q-4 -1 -15 -5t-18 -6q-30 -10 -79 -24q-62 -15 -115 -15q-106 0 -150 56q-39 53 -39 147v37h46q180 0 299 35 q121 38 190 92q70 56 98 125q29 68 29 141q0 140 -88 213q-83 74 -234 74q-141 0 -247 -68q-101 -67 -166 -168q-68 -107 -96 -223q-29 -119 -29 -233zM377 535q12 75 35 139q23 65 63 121q39 54 92 84q48 30 123 30q80 0 113 -39q35 -35 35 -98q0 -107 -107 -174 q-103 -63 -311 -63h-43zM469 1194q0 -20 23 -20h124l156 184l62 -152q8 -16 18 -26q12 -6 29 -6h116l-106 262q-9 28 -25 34q-9 7 -35 7h-124q-61 -60 -119 -125q-40 -45 -101 -121q-18 -21 -18 -37z" />
<glyph unicode="&#xeb;" horiz-adv-x="960" d="M164 375q0 -99 26 -182q28 -76 72 -123q46 -46 113 -70q74 -23 149 -23q104 0 195 31q89 29 151 70l-22 69q-8 26 -19 41q-7 13 -26 13q-17 0 -25 -4q-4 -1 -15 -5t-18 -6q-30 -10 -79 -24q-62 -15 -115 -15q-106 0 -150 56q-39 53 -39 147v37h46q180 0 299 35 q121 38 190 92q70 56 98 125q29 68 29 141q0 140 -88 213q-83 74 -234 74q-141 0 -247 -68q-101 -67 -166 -168q-68 -107 -96 -223q-29 -119 -29 -233zM377 535q12 75 35 139q23 65 63 121q39 54 92 84q48 30 123 30q80 0 113 -39q35 -35 35 -98q0 -107 -107 -174 q-103 -63 -311 -63h-43zM438 1288q0 -32 27 -59q26 -23 82 -23q69 0 108 39q37 40 37 101q0 36 -26 59q-22 22 -84 22q-74 0 -109 -38q-35 -35 -35 -101zM825 1288q0 -32 27 -59q26 -23 82 -23q69 0 108 39q37 40 37 101q0 36 -26 59q-22 22 -84 22q-74 0 -109 -38 q-35 -35 -35 -101z" />
<glyph unicode="&#xec;" horiz-adv-x="473" d="M141 39q0 -14 11 -29q10 -10 38 -10h144l188 920q2 8 5 25.5t5 25.5q5 22 5 37q0 18 -11 26q-8 10 -41 10h-143l-186 -919q-2 -7 -5.5 -25.5t-5.5 -27.5q-4 -32 -4 -33zM246 1450l155 -244q22 -28 48 -28h98q-30 79 -51 127q-11 31 -47 114q-15 31 -43 31h-160z" />
<glyph unicode="&#xed;" horiz-adv-x="473" d="M141 39q0 -14 11 -29q10 -10 38 -10h144l188 920q2 8 5 25.5t5 25.5q5 22 5 37q0 18 -11 26q-8 10 -41 10h-143l-186 -919q-2 -7 -5.5 -25.5t-5.5 -27.5q-4 -32 -4 -33zM385 1194q0 -16 25 -16h94l188 196q17 17 23 29q4 8 4 20q0 13 -6 19q-5 8 -23 8h-137 q-65 -93 -86 -123q-17 -23 -42.5 -61t-33.5 -49q-6 -12 -6 -23z" />
<glyph unicode="&#xee;" horiz-adv-x="473" d="M141 39q0 -14 11 -29q10 -10 38 -10h144l188 920q2 8 5 25.5t5 25.5q5 22 5 37q0 18 -11 26q-8 10 -41 10h-143l-186 -919q-2 -7 -5.5 -25.5t-5.5 -27.5q-4 -32 -4 -33zM203 1194q0 -20 22 -20h125l156 184l61 -152q7 -14 19 -26q12 -6 28 -6h117l-106 262q-9 28 -25 34 q-9 7 -35 7h-125q-50 -50 -118 -125q-40 -45 -101 -121q-18 -21 -18 -37z" />
<glyph unicode="&#xef;" horiz-adv-x="473" d="M141 39q0 -14 11 -29q10 -10 38 -10h144l188 920q2 8 5 25.5t5 25.5q5 22 5 37q0 18 -11 26q-8 10 -41 10h-143l-186 -919q-2 -7 -5.5 -25.5t-5.5 -27.5q-4 -32 -4 -33zM174 1288q0 -32 27 -59q26 -23 82 -23q69 0 108 39q37 40 37 101q0 35 -27 59q-22 22 -84 22 q-73 0 -108 -38q-35 -35 -35 -101zM561 1288q0 -32 27 -59q26 -23 82 -23q69 0 108 39q37 40 37 101q0 35 -27 59q-22 22 -83 22q-74 0 -109 -38q-35 -35 -35 -101z" />
<glyph unicode="&#xf0;" horiz-adv-x="1081" d="M174 365q0 -184 100 -287q104 -101 279 -101q143 0 250 66q104 67 170 172q69 114 98 246q31 127 31 287q0 158 -39 282q-37 127 -102 236l190 67l-16 51q-7 23 -15 37q-5 15 -28 15q-11 0 -23 -6q-4 -2 -13.5 -4.5t-13.5 -4.5l-147 -51q-47 66 -59 78q-15 18 -29 25 q-12 6 -35 6h-170q49 -45 74 -82q37 -44 61 -82l-231 -84l14 -51q8 -20 17 -39q8 -11 26 -11q3 0 23 5q9 5 26 8l185 65q32 -57 49 -108q23 -60 33 -113q-49 24 -91 29q-39 8 -94 8q-133 0 -229 -57q-92 -52 -164 -152q-60 -85 -96 -211q-31 -121 -31 -239zM375 367 q0 91 18 176q18 86 60 157q46 75 100 113q61 43 149 43q67 0 111 -16q50 -14 84 -35q4 -24 4 -41q1 -5 1 -11.5t-0.5 -14.5t-0.5 -13q0 -81 -18 -186q-14 -98 -56 -189q-37 -85 -100 -145q-61 -58 -160 -58q-101 0 -149 64q-43 64 -43 156z" />
<glyph unicode="&#xf1;" horiz-adv-x="1085" d="M143 39q0 -14 11 -29q10 -10 39 -10h143l158 782q21 21 45 39q27 21 57 39q30 15 72 29q34 10 80 10q141 0 141 -119q0 -32 -6 -69q-16 -91 -17 -97l-98 -489q-3 -22 -10 -51q-4 -16 -4 -35q0 -16 10 -29q10 -10 43 -10h139l121 596q18 101 20 119q7 43 7 88 q0 137 -76 201q-69 63 -193 63q-107 0 -188 -41q-85 -41 -133 -88v43v20q0 13 -2 19q0 24 -43 24h-117l-184 -919q-1 -6 -2.5 -14t-4.5 -18.5t-4 -16.5q-4 -16 -4 -37zM461 1219q0 -12 6 -21q6 -6 25 -6h83q8 35 25 78q17 39 53 39q32 0 56 -21q24 -18 43 -37 q75 -63 151 -63q36 0 76 16q40 19 65 47q27 27 43 70q17 41 17 90q0 15 -6 21q-4 6 -25 6h-84q-9 -48 -26 -84q-15 -35 -54 -35q-21 0 -45 18q-30 26 -49 39q-34 30 -70 47q-36 19 -81 19q-41 0 -76 -17q-35 -14 -66 -45q-30 -34 -45 -69q-16 -36 -16 -92z" />
<glyph unicode="&#xf2;" horiz-adv-x="1060" d="M174 369q0 -196 102 -295q103 -97 275 -97q128 0 233 60q104 61 170 153q68 95 103 224q35 120 35 262q0 195 -101 293q-95 98 -272 98q-131 0 -232 -59q-102 -58 -170 -154q-69 -97 -106 -223q-37 -124 -37 -262zM375 373q0 96 22 192q27 105 64 168q44 74 106 121 q59 45 148 45q93 0 135 -63q41 -58 41 -162q0 -102 -23 -193q-23 -99 -63 -170q-44 -74 -105 -118q-65 -46 -145 -46q-92 0 -137 64q-43 64 -43 162zM545 1450l155 -244q22 -28 48 -28h98q-30 79 -51 127q-11 31 -47 114q-16 31 -43 31h-160z" />
<glyph unicode="&#xf3;" horiz-adv-x="1060" d="M174 369q0 -196 102 -295q103 -97 275 -97q128 0 233 60q104 61 170 153q68 95 103 224q35 120 35 262q0 195 -101 293q-95 98 -272 98q-131 0 -232 -59q-102 -58 -170 -154q-69 -97 -106 -223q-37 -124 -37 -262zM375 373q0 96 22 192q27 105 64 168q44 74 106 121 q59 45 148 45q93 0 135 -63q41 -58 41 -162q0 -102 -23 -193q-23 -99 -63 -170q-44 -74 -105 -118q-65 -46 -145 -46q-92 0 -137 64q-43 64 -43 162zM694 1194q0 -16 25 -16h94l188 196q17 17 23 29q4 8 4 20q0 13 -6 19q-5 8 -23 8h-137q-65 -93 -86 -123 q-17 -23 -42.5 -61t-33.5 -49q-6 -12 -6 -23z" />
<glyph unicode="&#xf4;" horiz-adv-x="1060" d="M174 369q0 -196 102 -295q103 -97 275 -97q128 0 233 60q104 61 170 153q68 95 103 224q35 120 35 262q0 195 -101 293q-95 98 -272 98q-131 0 -232 -59q-102 -58 -170 -154q-69 -97 -106 -223q-37 -124 -37 -262zM375 373q0 96 22 192q27 105 64 168q44 74 106 121 q59 45 148 45q93 0 135 -63q41 -58 41 -162q0 -102 -23 -193q-23 -99 -63 -170q-44 -74 -105 -118q-65 -46 -145 -46q-92 0 -137 64q-43 64 -43 162zM500 1194q0 -20 22 -20h125l156 184l61 -152q7 -14 19 -26q12 -6 28 -6h117l-106 262q-9 28 -25 34q-9 7 -35 7h-125 q-61 -60 -119 -125q-32 -36 -100 -121q-18 -21 -18 -37z" />
<glyph unicode="&#xf5;" horiz-adv-x="1060" d="M174 369q0 -196 102 -295q103 -97 275 -97q128 0 233 60q104 61 170 153q68 95 103 224q35 120 35 262q0 195 -101 293q-95 98 -272 98q-131 0 -232 -59q-102 -58 -170 -154q-69 -97 -106 -223q-37 -124 -37 -262zM375 373q0 96 22 192q27 105 64 168q44 74 106 121 q59 45 148 45q93 0 135 -63q41 -58 41 -162q0 -102 -23 -193q-23 -99 -63 -170q-44 -74 -105 -118q-65 -46 -145 -46q-92 0 -137 64q-43 64 -43 162zM475 1219q0 -12 6 -21q6 -6 25 -6h84q9 40 24 78q17 39 54 39q31 0 55 -21q24 -18 43 -37q75 -63 152 -63q35 0 75 16 q42 20 66 47q27 27 43 70q16 39 16 90q0 15 -6 21q-4 6 -25 6h-83q-8 -45 -27 -84q-15 -35 -53 -35q-21 0 -45 18q-25 22 -50 39q-36 31 -69 47q-36 19 -82 19q-41 0 -76 -17q-33 -13 -65 -45q-30 -34 -45 -69q-17 -38 -17 -92z" />
<glyph unicode="&#xf6;" horiz-adv-x="1060" d="M174 369q0 -196 102 -295q103 -97 275 -97q128 0 233 60q104 61 170 153q68 95 103 224q35 120 35 262q0 195 -101 293q-95 98 -272 98q-131 0 -232 -59q-102 -58 -170 -154q-69 -97 -106 -223q-37 -124 -37 -262zM375 373q0 96 22 192q27 105 64 168q44 74 106 121 q59 45 148 45q93 0 135 -63q41 -58 41 -162q0 -102 -23 -193q-23 -99 -63 -170q-44 -74 -105 -118q-65 -46 -145 -46q-92 0 -137 64q-43 64 -43 162zM481 1288q0 -32 27 -59q26 -23 82 -23q69 0 108 39q37 40 37 101q0 36 -26 59q-22 22 -84 22q-74 0 -109 -38 q-35 -35 -35 -101zM868 1288q0 -32 27 -59q26 -23 82 -23q69 0 108 39q37 40 37 101q0 36 -26 59q-22 22 -84 22q-74 0 -109 -38q-35 -35 -35 -101z" />
<glyph unicode="&#xf7;" d="M274 647q0 -6 9 -24q9 -9 30 -9h754l20 97q5 15 5 22q2 10 2 21q0 15 -9 24q-4 8 -30 8h-754l-20 -96q0 -2 -1 -5t-2 -8t-2 -9q0 -4 -1 -11t-1 -10zM494 338q0 -38 26 -70q26 -26 78 -26q67 0 104 37q37 34 37 106q0 45 -26 68q-21 24 -78 24q-67 0 -105 -35 q-36 -33 -36 -104zM625 1018q0 -38 26 -70q26 -26 78 -26q69 0 105 36q36 33 36 107q0 45 -26 68q-21 24 -78 24q-66 0 -104 -35q-37 -34 -37 -104z" />
<glyph unicode="&#xf8;" horiz-adv-x="1060" d="M66 -55q0 -19 20 -19h102l111 129q101 -78 252 -78q128 0 233 60q104 61 170 153q68 95 103 224q35 120 35 262q0 138 -54 227l136 156q18 21 18 22q4 4 4 15q0 18 -20 18h-103l-108 -125q-93 78 -246 78q-131 0 -232 -59q-102 -58 -170 -154q-69 -97 -106 -223 q-37 -124 -37 -262q0 -136 53 -228l-139 -159q-11 -11 -16 -21q-6 -9 -6 -16zM375 342v31q0 96 22 192q27 105 64 168q44 74 106 121q59 45 148 45q43 0 71 -14q31 -12 54 -39l-461 -531q0 11 -4 27zM426 201l461 528q4 -16 4 -27v-28q0 -102 -23 -193q-23 -99 -63 -170 q-44 -74 -105 -118q-65 -46 -145 -46q-84 0 -129 54z" />
<glyph unicode="&#xf9;" horiz-adv-x="1069" d="M180 250q0 -132 76 -205q77 -68 199 -68q106 0 188 43q84 43 141 103l11 -76q7 -28 16 -37q13 -10 39 -10h106q0 4 1 12.5t2 22t2 26.5q7 58 12 109q3 22 8 66t8 63q3 18 10 61.5t11 65.5l98 494q2 8 5 24.5t5 24.5q4 18 4 39q0 18 -10 26q-8 10 -41 10h-141l-158 -780 q-18 -18 -45 -39q-41 -30 -57 -39q-27 -16 -70 -30q-34 -11 -78 -11q-137 0 -137 123q0 32 6 66q8 51 17 94l98 492q2 8 5 25t5 26q4 16 4 35q0 18 -10 28q-8 10 -41 10h-141l-121 -595q-20 -113 -21 -121q-6 -50 -6 -78zM518 1450l156 -244q22 -28 47 -28h98 q-30 79 -51 127q-11 31 -47 114q-15 31 -43 31h-160z" />
<glyph unicode="&#xfa;" horiz-adv-x="1069" d="M180 250q0 -132 76 -205q77 -68 199 -68q106 0 188 43q84 43 141 103l11 -76q7 -28 16 -37q13 -10 39 -10h106q0 4 1 12.5t2 22t2 26.5q7 58 12 109q3 22 8 66t8 63q3 18 10 61.5t11 65.5l98 494q2 8 5 24.5t5 24.5q4 18 4 39q0 18 -10 26q-8 10 -41 10h-141l-158 -780 q-18 -18 -45 -39q-41 -30 -57 -39q-27 -16 -70 -30q-34 -11 -78 -11q-137 0 -137 123q0 32 6 66q8 51 17 94l98 492q2 8 5 25t5 26q4 16 4 35q0 18 -10 28q-8 10 -41 10h-141l-121 -595q-20 -113 -21 -121q-6 -50 -6 -78zM662 1194q0 -16 24 -16h94l189 196q15 15 22 29 q4 8 4 20q0 13 -6 19q-5 8 -22 8h-138q-65 -93 -86 -123q-16 -23 -41 -60t-34 -50q-6 -12 -6 -23z" />
<glyph unicode="&#xfb;" horiz-adv-x="1069" d="M180 250q0 -132 76 -205q77 -68 199 -68q106 0 188 43q84 43 141 103l11 -76q7 -28 16 -37q13 -10 39 -10h106q0 4 1 12.5t2 22t2 26.5q7 58 12 109q3 22 8 66t8 63q3 18 10 61.5t11 65.5l98 494q2 8 5 24.5t5 24.5q4 18 4 39q0 18 -10 26q-8 10 -41 10h-141l-158 -780 q-18 -18 -45 -39q-41 -30 -57 -39q-27 -16 -70 -30q-34 -11 -78 -11q-137 0 -137 123q0 32 6 66q8 51 17 94l98 492q2 8 5 25t5 26q4 16 4 35q0 18 -10 28q-8 10 -41 10h-141l-121 -595q-20 -113 -21 -121q-6 -50 -6 -78zM487 1194q0 -20 23 -20h125l156 184l61 -152 q8 -16 18 -26q12 -6 29 -6h117l-107 262q-9 28 -24 34q-9 7 -35 7h-125q-60 -60 -119 -125q-32 -36 -100 -121q-19 -22 -19 -37z" />
<glyph unicode="&#xfc;" horiz-adv-x="1069" d="M180 250q0 -132 76 -205q77 -68 199 -68q106 0 188 43q84 43 141 103l11 -76q7 -28 16 -37q13 -10 39 -10h106q0 4 1 12.5t2 22t2 26.5q7 58 12 109q3 22 8 66t8 63q3 18 10 61.5t11 65.5l98 494q2 8 5 24.5t5 24.5q4 18 4 39q0 18 -10 26q-8 10 -41 10h-141l-158 -780 q-18 -18 -45 -39q-41 -30 -57 -39q-27 -16 -70 -30q-34 -11 -78 -11q-137 0 -137 123q0 32 6 66q8 51 17 94l98 492q2 8 5 25t5 26q4 16 4 35q0 18 -10 28q-8 10 -41 10h-141l-121 -595q-20 -113 -21 -121q-6 -50 -6 -78zM449 1288q0 -33 26 -59q26 -23 82 -23q70 0 109 39 q36 39 36 101q0 36 -26 59q-22 22 -84 22q-74 0 -109 -38q-34 -34 -34 -101zM836 1288q0 -33 26 -59q26 -23 82 -23q70 0 109 39q37 40 37 101q0 35 -27 59q-22 22 -84 22q-74 0 -109 -38q-34 -34 -34 -101z" />
<glyph unicode="&#xfd;" horiz-adv-x="964" d="M-8 -283q0 -32 33 -55q35 -18 77 -18q136 0 252 104q123 110 250 291q92 135 137 213q59 98 129 231q55 105 107 222q52 114 74 186q17 53 24 76q8 20 8 45q0 16 -8 24q-4 8 -31 8h-143q-73 -218 -172 -436q-87 -196 -209 -391q-46 149 -63 307q-19 176 -19 353v104 q0 41 -10 51q-9 12 -39 12h-147q-4 -82 -4 -100v-74q0 -112 12 -229q9 -85 35 -219q30 -132 49 -201q32 -102 63 -170q-88 -123 -161 -182q-74 -62 -164 -62q-4 0 -17 1.5t-20 1.5q-12 2 -29 2l-8 -41q-6 -35 -6 -54zM612 1194q0 -16 25 -16h94l189 196q15 15 22 29 q4 8 4 20q0 13 -6 19q-5 8 -22 8h-138q-65 -93 -86 -123q-17 -23 -42.5 -61t-33.5 -49q-6 -12 -6 -23z" />
<glyph unicode="&#xfe;" horiz-adv-x="1048" d="M68 -311q0 -25 16 -31q18 -6 39 -6h131l86 414q54 -36 113 -50q72 -14 118 -14q133 0 224 55q94 55 155 146q62 92 92 213q29 119 29 254q0 94 -16 159q-16 78 -51 127q-36 53 -95 82q-57 29 -145 29q-62 0 -123 -27q-61 -24 -119 -79l82 403q2 10 8 43q4 14 4 29 q0 34 -45 34h-147l-346 -1714q-10 -55 -10 -67zM373 213l114 571q27 27 43 39q20 17 56 39q28 17 63 29q31 10 70 10q53 0 82 -20q30 -18 45 -56q13 -25 20 -75q4 -29 4 -82q0 -100 -16 -181q-15 -88 -55 -161q-35 -66 -101 -119q-60 -45 -153 -45q-65 0 -113 20 q-45 22 -59 31z" />
<glyph unicode="&#xff;" horiz-adv-x="964" d="M-8 -283q0 -32 33 -55q35 -18 77 -18q136 0 252 104q123 110 250 291q92 135 137 213q59 98 129 231q55 105 107 222q52 114 74 186q17 53 24 76q8 20 8 45q0 16 -8 24q-4 8 -31 8h-143q-73 -218 -172 -436q-87 -196 -209 -391q-46 149 -63 307q-19 176 -19 353v104 q0 41 -10 51q-9 12 -39 12h-147q-4 -82 -4 -100v-74q0 -112 12 -229q9 -85 35 -219q30 -132 49 -201q32 -102 63 -170q-88 -123 -161 -182q-74 -62 -164 -62q-4 0 -17 1.5t-20 1.5q-12 2 -29 2l-8 -41q-6 -35 -6 -54zM379 1288q0 -32 27 -59q26 -23 81 -23q70 0 109 39 q37 40 37 101q0 35 -27 59q-22 22 -84 22q-73 0 -108 -38q-35 -35 -35 -101zM766 1288q0 -32 27 -59q26 -23 81 -23q70 0 109 39q37 40 37 101q0 35 -27 59q-22 22 -84 22q-73 0 -108 -38q-35 -35 -35 -101z" />
<glyph unicode="&#x152;" horiz-adv-x="1687" d="M221 451q0 -231 109 -355q110 -119 315 -119q53 0 111 7q42 5 96 16h737l17 82q6 15 6 33q2 12 2 24q0 37 -47 37h-506l90 453h491l17 82q6 18 6 32q2 12 2 25q0 39 -45 39h-434l86 436h545l16 82q6 18 6 35q2 12 2 22q0 37 -47 37h-674q-76 23 -174 23q-175 0 -311 -92 q-138 -93 -227 -234q-93 -144 -142 -319q-47 -167 -47 -346zM436 465q0 115 33 270q34 141 98 256q73 127 162 193q94 73 227 73q46 0 66 -4q22 -2 53 -10l-213 -1065q-34 -7 -88 -14q-29 -2 -90 -2q-132 0 -192 82q-56 83 -56 221z" />
<glyph unicode="&#x153;" horiz-adv-x="1644" d="M174 365q0 -195 98 -293q97 -97 269 -97q119 0 211 50q89 47 159 135q40 -98 117 -142q79 -43 189 -43q94 0 186 29q84 29 147 68l-16 71q-8 31 -14 39q-5 13 -29 13q-13 0 -37 -9q-28 -8 -53 -18q-6 -2 -70 -16q-44 -7 -80 -7q-110 0 -155 64q-41 61 -41 178h84 q166 0 276 37q114 38 176 92q65 57 90 129q27 73 27 141q0 137 -84 209q-81 72 -223 72q-128 0 -217 -51q-85 -46 -156 -133q-79 184 -313 184q-131 0 -232 -59q-100 -57 -170 -156q-68 -100 -104 -223q-35 -118 -35 -264zM375 362q0 96 22 195q26 108 64 172q44 78 104 123 q61 47 142 47q91 0 133 -59q41 -55 41 -160q0 -100 -23 -195q-22 -100 -63 -172q-42 -71 -103 -120q-63 -48 -143 -48q-88 0 -133 58q-41 55 -41 159zM1065 535q11 57 37 131t59 120q35 52 90 88q52 35 127 35q71 0 107 -39q37 -37 37 -98q0 -111 -90 -174q-91 -63 -281 -63 h-86z" />
<glyph unicode="&#x178;" horiz-adv-x="1030" d="M311 1419q7 -93 25 -225q19 -114 41 -213q10 -44 57 -213q32 -96 78 -221l-76 -373q-9 -44 -18 -84q-6 -38 -6 -53q0 -14 10 -27q13 -10 39 -10h149l105 530q184 220 305 414q122 190 219 389q14 28 14 51q0 35 -47 35h-149q-23 -63 -72 -159q-63 -124 -94 -175 q-70 -118 -113 -182q-68 -102 -127 -176q-30 97 -49 176q-4 21 -16.5 79.5t-18.5 88.5q-15 101 -24 158q-11 91 -15 135q-3 29 -10 43q-5 12 -35 12h-172zM514 1634q0 -30 27 -57q30 -23 80 -23q69 0 108 39q35 38 35 99q0 33 -27 57q-23 23 -82 23q-70 0 -106 -39 q-35 -35 -35 -99zM893 1634q0 -30 27 -57q30 -23 79 -23q70 0 109 39q35 38 35 99q0 33 -27 57q-23 23 -82 23q-70 0 -106 -39q-35 -35 -35 -99z" />
<glyph unicode="&#x2c6;" horiz-adv-x="729" d="M217 1194q0 -20 23 -20h125l155 184l62 -152q8 -16 18 -26q12 -6 29 -6h116l-106 262q-9 28 -25 34q-9 7 -34 7h-125q-60 -60 -119 -125q-32 -36 -100 -121q-19 -22 -19 -37z" />
<glyph unicode="&#x2dc;" horiz-adv-x="741" d="M188 1219q0 -11 7 -21q6 -6 24 -6h84q8 35 25 78q17 39 53 39q31 0 55 -21q24 -18 43 -37q75 -63 152 -63q36 0 76 16q40 19 65 47q27 27 43 70q16 39 16 90q0 15 -6 21q-4 6 -24 6h-84q-8 -45 -27 -84q-15 -35 -53 -35q-21 0 -45 18q-30 26 -49 39q-34 30 -70 47 q-36 19 -82 19q-41 0 -76 -17q-33 -13 -65 -45q-30 -34 -45 -69q-17 -38 -17 -92z" />
<glyph unicode="&#x2000;" horiz-adv-x="943" />
<glyph unicode="&#x2001;" horiz-adv-x="1886" />
<glyph unicode="&#x2002;" horiz-adv-x="943" />
<glyph unicode="&#x2003;" horiz-adv-x="1886" />
<glyph unicode="&#x2004;" horiz-adv-x="628" />
<glyph unicode="&#x2005;" horiz-adv-x="471" />
<glyph unicode="&#x2006;" horiz-adv-x="314" />
<glyph unicode="&#x2007;" horiz-adv-x="314" />
<glyph unicode="&#x2008;" horiz-adv-x="235" />
<glyph unicode="&#x2009;" horiz-adv-x="377" />
<glyph unicode="&#x200a;" horiz-adv-x="104" />
<glyph unicode="&#x2010;" horiz-adv-x="761" d="M180 500q0 -9 8 -25q8 -8 31 -8h543l22 108q4 12 4 23q3 15 3 20q0 16 -9 25q-4 8 -30 8h-543l-23 -108q0 -3 -4 -23q0 -4 -1 -10.5t-1 -9.5z" />
<glyph unicode="&#x2011;" horiz-adv-x="761" d="M180 500q0 -9 8 -25q8 -8 31 -8h543l22 108q4 12 4 23q3 15 3 20q0 16 -9 25q-4 8 -30 8h-543l-23 -108q0 -3 -4 -23q0 -4 -1 -10.5t-1 -9.5z" />
<glyph unicode="&#x2012;" horiz-adv-x="761" d="M180 500q0 -9 8 -25q8 -8 31 -8h543l22 108q4 12 4 23q3 15 3 20q0 16 -9 25q-4 8 -30 8h-543l-23 -108q0 -3 -4 -23q0 -4 -1 -10.5t-1 -9.5z" />
<glyph unicode="&#x2013;" horiz-adv-x="1024" d="M88 553h1063l35 184h-1063z" />
<glyph unicode="&#x2014;" horiz-adv-x="2048" d="M88 553h2087l35 184h-2087z" />
<glyph unicode="&#x2018;" horiz-adv-x="421" d="M276 1053q0 -45 31 -76q30 -27 84 -27q74 0 115 41q39 39 39 109q0 44 -23 61q-22 22 -55 27l111 168q22 28 22 45q0 22 -31 22h-90l-104 -149q-55 -82 -70 -109q-29 -51 -29 -112z" />
<glyph unicode="&#x2019;" horiz-adv-x="421" d="M270 975q0 -21 31 -21h90l105 148q43 55 69 108q29 54 29 113q0 48 -31 76q-28 28 -84 28q-73 0 -114 -41q-39 -39 -39 -108q0 -39 22 -61q30 -22 55 -29l-110 -166q-23 -33 -23 -47z" />
<glyph unicode="&#x201a;" horiz-adv-x="421" d="M45 -201q0 -20 31 -20h90l104 147q45 57 70 109q29 54 29 112q0 48 -31 76q-29 29 -84 29q-74 0 -115 -41q-39 -39 -39 -109q0 -38 23 -61q30 -22 55 -29l-110 -166q-23 -33 -23 -47z" />
<glyph unicode="&#x201c;" horiz-adv-x="770" d="M276 1053q0 -45 31 -76q30 -27 84 -27q74 0 115 41q39 39 39 109q0 44 -23 61q-22 22 -55 27l111 168q22 28 22 45q0 22 -31 22h-90l-104 -149q-55 -82 -70 -109q-29 -51 -29 -112zM625 1053q0 -46 30 -76q30 -27 84 -27q74 0 115 41q39 39 39 109q0 44 -23 61 q-22 22 -55 27l111 168q22 28 22 45q0 22 -30 22h-91l-104 -149q-55 -82 -70 -109q-28 -49 -28 -112z" />
<glyph unicode="&#x201d;" horiz-adv-x="770" d="M270 975q0 -21 31 -21h90l105 148q43 55 69 108q29 54 29 113q0 48 -31 76q-28 28 -84 28q-73 0 -114 -41q-39 -39 -39 -108q0 -39 22 -61q30 -22 55 -29l-110 -166q-23 -33 -23 -47zM618 975q0 -21 31 -21h90l105 148q43 55 69 108q29 54 29 113q0 48 -31 76 q-28 28 -84 28q-73 0 -114 -41q-39 -39 -39 -108q0 -39 22 -61q29 -22 56 -29l-111 -166q-23 -33 -23 -47z" />
<glyph unicode="&#x201e;" horiz-adv-x="770" d="M45 -201q0 -20 31 -20h90l104 147q45 57 70 109q29 54 29 112q0 48 -31 76q-29 29 -84 29q-74 0 -115 -41q-39 -39 -39 -109q0 -38 23 -61q30 -22 55 -29l-110 -166q-23 -33 -23 -47zM389 -201q0 -20 31 -20h90l104 147q45 57 70 109q29 54 29 112q0 48 -31 76 q-29 29 -84 29q-74 0 -115 -41q-39 -39 -39 -109q0 -38 23 -61q30 -22 55 -29l-110 -166q-23 -33 -23 -47z" />
<glyph unicode="&#x2022;" horiz-adv-x="784" d="M244 651q0 -104 67 -159q68 -56 185 -56q146 0 237 88q88 85 88 244q0 111 -69 162q-64 53 -187 53q-145 0 -233 -88t-88 -244z" />
<glyph unicode="&#x2026;" horiz-adv-x="1409" d="M102 94q0 -47 31 -78q28 -28 86 -28q73 0 117 41q41 41 41 116q0 46 -31 74q-29 29 -86 29q-73 0 -115 -39q-43 -37 -43 -115zM588 94q0 -48 30 -78q28 -28 87 -28q72 0 116 41q41 41 41 116q0 46 -31 74q-29 29 -86 29q-72 0 -114 -39q-43 -37 -43 -115zM1073 94 q0 -47 31 -78q28 -28 86 -28q73 0 117 41q41 41 41 116q0 46 -31 74q-29 29 -86 29q-73 0 -115 -39q-43 -37 -43 -115z" />
<glyph unicode="&#x202f;" horiz-adv-x="377" />
<glyph unicode="&#x2039;" horiz-adv-x="528" d="M170 535l88 -340q9 -29 23 -43q14 -11 36 -11h132l-91 379l222 328q11 16 14 26q2 4 2 19q0 27 -33 27h-137z" />
<glyph unicode="&#x203a;" horiz-adv-x="528" d="M111 168q0 -27 32 -27h138l256 385l-88 340q-6 29 -23 43q-11 11 -37 11h-131l90 -379l-221 -328q-3 -5 -14 -27q-2 -6 -2 -18z" />
<glyph unicode="&#x205f;" horiz-adv-x="471" />
<glyph unicode="&#x20ac;" d="M197 514q0 -37 47 -37h88q0 -3 -1 -9t-1 -9v-17q0 -106 24 -192t74 -148q48 -56 127 -92q87 -33 186 -33q122 0 215 35q102 42 142 66l-29 82q-8 28 -18 47q-5 16 -27 16q-10 0 -25 -6q-4 -2 -14 -5t-14 -5q-51 -21 -92 -31q-47 -12 -101 -12q-127 0 -180 74 q-48 71 -51 239h409q17 70 17 78q2 12 2 23q0 36 -45 36h-375q12 90 37 183h418q3 15 7 32t6 26.5t3 14.5q2 6 2 27q0 37 -47 37h-330q26 56 72 119q49 62 90 96q48 40 109 65q59 23 131 23q73 0 125 -16q59 -14 84 -27l26 66q15 40 15 63q0 20 -25 39q-31 23 -64 33 q-34 14 -86 20q-33 6 -92 6q-109 0 -202 -37q-100 -41 -172 -102q-76 -64 -138 -156q-56 -80 -102 -192h-154q-4 -16 -9 -41.5t-7 -32.5q-4 -24 -4 -26q0 -37 47 -37h82q-25 -93 -37 -183h-123q-20 -95 -20 -100z" />
<glyph unicode="&#x2122;" horiz-adv-x="1433" d="M319 1327q0 -33 46 -33h135l-92 -458q-2 -14 -19 -88q-8 -50 -8 -54q0 -10 8 -26q11 -11 39 -11h82l131 637h188l9 43q6 15 6 27v18q0 37 -47 37h-463l-8 -41q-7 -40 -7 -51zM778 692q0 -8 8 -24q11 -11 33 -11h88l125 584l53 -360q2 -12 11 -25q12 -8 26 -8h74l219 393 q-9 -58 -47 -246q-40 -222 -47 -256q0 -4 -4 -24q0 -4 -1 -12t-1 -11q0 -8 8 -24q11 -11 37 -11h84q68 375 90 523q27 166 27 211q0 17 -13 24q-8 4 -24 4h-121l-232 -432l-49 387q-3 23 -12 35q-5 10 -31 10h-127q-19 -81 -49 -184q-7 -26 -20.5 -78.5t-20.5 -79.5 q-5 -20 -17.5 -72t-19.5 -81q-7 -28 -19 -86.5t-18 -85.5q-10 -52 -10 -60z" />
<glyph unicode="&#x25fc;" horiz-adv-x="1044" d="M0 0v1044h1044v-1044h-1044z" />
<glyph unicode="&#xfb01;" horiz-adv-x="1136" d="M-59 -279q0 -44 36 -61q35 -14 72 -14q101 0 174 55q75 57 125 137q47 74 80 178q33 110 43 172l133 701h367l-154 -764q-2 -8 -5 -26.5t-5 -26.5q-4 -32 -4 -35q0 -14 10 -27q13 -10 41 -10h141l187 920q9 45 10 53q4 16 4 35q0 18 -10 26q-7 10 -41 10h-512l16 76 q24 107 66 160q41 55 121 55q59 0 104 -22l18 59q7 28 7 37q0 23 -17 37q-14 17 -41 27q-17 8 -55 16q-20 4 -55 4q-130 0 -222 -92q-85 -85 -124 -250l-23 -107h-143q-3 -15 -9 -39.5t-8 -33.5q-4 -20 -4 -47q0 -35 45 -35h88l-129 -705q-38 -207 -102 -295 q-62 -86 -168 -86h-21q-3 0 -9.5 1t-10.5 1l-10 -41q-6 -24 -6 -43zM1028 1290q0 -34 27 -61q26 -23 84 -23q71 0 110 39q37 40 37 103q0 36 -26 59q-25 25 -86 25q-73 0 -109 -39q-37 -37 -37 -103z" />
<glyph unicode="&#xfb02;" horiz-adv-x="1269" d="M-59 -279q0 -35 28 -57q30 -18 80 -18q101 0 174 55q75 57 125 137q47 74 80 178q33 110 43 172l133 701h377l-127 -629q-12 -59 -12 -104q0 -78 51 -123q49 -41 139 -41q72 0 133 18q59 17 80 29l-8 53q-6 52 -14 62q-5 12 -27 12q-23 0 -39 -4q-28 -4 -51 -4 q-24 0 -39 12q-14 14 -14 35q0 6 1 17t1 16q0 2 4 20.5t6 34.5l213 1071q3 9 8 39q4 14 4 29q0 38 -49 38h-143l-86 -426h-379l16 76q24 107 66 160q41 55 121 55q66 0 122 -26l13 39q12 38 12 57q0 22 -20 39q-17 17 -48 26q-25 11 -59 17q-30 6 -59 6q-130 0 -222 -92 q-85 -85 -124 -250l-23 -107h-143q-5 -28 -10.5 -58t-8 -43.5t-2.5 -18.5q0 -35 45 -35h88l-129 -705q-38 -207 -102 -295q-62 -86 -168 -86q-7 0 -21 1t-20 1l-10 -41q-6 -24 -6 -43z" />
</font>
</defs>
</svg>
