<svg xmlns="http://www.w3.org/2000/svg" viewBox="0 0 170.4 170.4"><defs><style>.cls-1,.cls-4{fill:#fff;}.cls-2{fill:#333;}.cls-3{fill:#d32129;}.cls-4{stroke:#000;stroke-miterlimit:10;}</style></defs><title>boat</title><g id="Layer_2" data-name="Layer 2"><g id="Layer_1-2" data-name="Layer 1"><path class="cls-1" d="M48.39,119.77A34.51,34.51,0,0,1,50.45,107a15.85,15.85,0,0,1,5.84-7.66A17.74,17.74,0,0,1,70,97.49v2.34a13.53,13.53,0,0,0-4.67-.72,12.17,12.17,0,0,0-10.21,4.73q-3.65,4.73-4.1,13.76h.34A13.8,13.8,0,0,1,56,113.66a11.94,11.94,0,0,1,5.5-1.33q5.44,0,8.51,3.11T73,124q0,5.95-3.23,9.39a11.35,11.35,0,0,1-8.7,3.44,11.05,11.05,0,0,1-9.31-4.5Q48.39,127.84,48.39,119.77Zm12.72,14.74a8.56,8.56,0,0,0,6.77-2.74Q70.3,129,70.3,124a9.66,9.66,0,0,0-2.39-7,8.59,8.59,0,0,0-6.51-2.5,10.84,10.84,0,0,0-5,1.2,10,10,0,0,0-3.71,3.17,7,7,0,0,0-1.38,4,12.89,12.89,0,0,0,1.31,5.67,11.08,11.08,0,0,0,3.56,4.32A8.37,8.37,0,0,0,61.11,134.51Z"/><path class="cls-1" d="M90.21,113q6.21,0,9.79,3a10.21,10.21,0,0,1,3.57,8.26q0,6-3.72,9.29T89.6,136.85a25.6,25.6,0,0,1-5.5-.57,14.29,14.29,0,0,1-4.35-1.63v-2.74a25.44,25.44,0,0,0,5.1,2,19.1,19.1,0,0,0,4.75.57,12,12,0,0,0,8.18-2.7,9.19,9.19,0,0,0,3.08-7.29,8.33,8.33,0,0,0-3-6.8q-3-2.47-8.15-2.47a27.3,27.3,0,0,0-7.22,1l-1.59-1,1.54-17.77h18.7V100H84.93l-1.2,13.7A37.82,37.82,0,0,1,90.21,113Z"/><path class="cls-1" d="M117.65,102.32a10,10,0,0,1-1.16,5.32,3.73,3.73,0,0,1-3.34,1.82,3.63,3.63,0,0,1-3.23-1.87,9.94,9.94,0,0,1-1.17-5.27,10.14,10.14,0,0,1,1.12-5.26,3.62,3.62,0,0,1,3.28-1.81,3.72,3.72,0,0,1,3.33,1.87A9.76,9.76,0,0,1,117.65,102.32Zm-7.38,0a10.37,10.37,0,0,0,.7,4.33,2.29,2.29,0,0,0,2.18,1.45q3,0,3-5.77a9.36,9.36,0,0,0-.77-4.28,2.41,2.41,0,0,0-2.22-1.43A2.29,2.29,0,0,0,111,98,10.17,10.17,0,0,0,110.26,102.32Zm16.55-6.75L114.26,118.2h-1.49l12.56-22.63Zm4,15.85a10.07,10.07,0,0,1-1.15,5.32,3.7,3.7,0,0,1-3.33,1.82,3.65,3.65,0,0,1-3.27-1.88,10,10,0,0,1-1.16-5.26,10,10,0,0,1,1.14-5.28,3.88,3.88,0,0,1,6.59.06A9.74,9.74,0,0,1,130.84,111.42Zm-7.38,0a10.23,10.23,0,0,0,.7,4.3,2.29,2.29,0,0,0,2.18,1.43q3,0,3-5.73t-3-5.71a2.3,2.3,0,0,0-2.18,1.42A10.17,10.17,0,0,0,123.45,111.42Z"/><path class="cls-2" d="M85.2,12a73.09,73.09,0,1,0,28,5.56A73.28,73.28,0,0,0,85.2,12V0A85.09,85.09,0,1,1,52.59,6.48,85.3,85.3,0,0,1,85.2,0Z"/><path class="cls-3" d="M19,116.36a73.84,73.84,0,0,0,25.1,29.38A73,73,0,0,0,80.6,158.24a75,75,0,0,0,19.45-1.35,73.16,73.16,0,0,0,18.37-6.47,73,73,0,0,0,28.57-26,73.32,73.32,0,0,0,2.35-74.47A73.24,73.24,0,0,0,85.2,12V0a85.14,85.14,0,0,1,71.92,130.85,85,85,0,0,1-33.24,30.26,85.17,85.17,0,0,1-21.4,7.54,87,87,0,0,1-22.62,1.57A85.16,85.16,0,0,1,8.11,121.48Z"/><path class="cls-4" d="M97.94,77.33H67.79l-3.91-4.83h42ZM62.38,61.91,84.48,34.75V62H62.38Zm23.47,2.88H97.71l3.91,4.83h-30l2.65-4.83Zm1.5-18.18,15.3,15.3H87.47V46.6Zm25,24a1.49,1.49,0,0,0-1.38-1H105.3l-3.91-4.83H106a1.4,1.4,0,0,0,.8-2.53L87.35,42.58V25.78a1.38,1.38,0,1,0-2.76,0v4.37L58.24,62.48A1.44,1.44,0,0,0,58,64a1.41,1.41,0,0,0,1.27.8H70.78l-2.65,4.83H60.77a1.38,1.38,0,0,0-1,2.3L66,79.62a1.41,1.41,0,0,0,1.15.58H98.4a2.14,2.14,0,0,0,.8-.23l12.43-7.71a1.55,1.55,0,0,0,.69-1.61Z"/><path class="cls-4" d="M80.79,67.2a1.61,1.61,0,1,1-3.22,0,1.61,1.61,0,1,1,3.22,0"/><path class="cls-4" d="M87.47,67.2a1.61,1.61,0,0,1-3.22,0,1.61,1.61,0,0,1,3.22,0"/><path class="cls-4" d="M94.26,67.2a1.61,1.61,0,0,1-3.22,0,1.61,1.61,0,0,1,3.22,0"/></g></g></svg>