<svg xmlns="http://www.w3.org/2000/svg" viewBox="0 0 64.98 85.22"><defs><style>.cls-1{fill:#333;}</style></defs><title>lock</title><g id="Layer_2" data-name="Layer 2"><g id="Layer_1-2" data-name="Layer 1"><path class="cls-1" d="M58,37.76H7a1.84,1.84,0,0,0-1.28.53,1.91,1.91,0,0,0-.53,1.28V78.29a1.82,1.82,0,0,0,.53,1.25A1.72,1.72,0,0,0,7,80.06H58a1.81,1.81,0,0,0,1.78-1.78V39.57a1.76,1.76,0,0,0-.53-1.28A1.83,1.83,0,0,0,58,37.76ZM7,32.59H58a7,7,0,0,1,7,7V78.28a7,7,0,0,1-7,6.94H7A7.07,7.07,0,0,1,2,83.2a7.05,7.05,0,0,1-2-4.92V39.56a7,7,0,0,1,7-7Z"/><path class="cls-1" d="M52.29,34.49v-9.8a19.81,19.81,0,0,0-39.62,0v9.8H7.78v-9.8a24.7,24.7,0,0,1,49.4,0v9.8Z"/><path class="cls-1" d="M35.33,56.09a3.92,3.92,0,0,0-2.83-1.18,4,4,0,0,0-2.86,6.84,4.13,4.13,0,0,0,2.86,1.18,4,4,0,0,0,4-4A4,4,0,0,0,35.33,56.09Zm-2.83-6.35A9.18,9.18,0,1,1,26,65.43a9.25,9.25,0,0,1,0-13A9.17,9.17,0,0,1,32.49,49.74Z"/></g></g></svg>