<svg xmlns="http://www.w3.org/2000/svg" viewBox="0 0 63 63"><defs><style>.cls-1{fill:#d32129;stroke:#000;stroke-miterlimit:10;}</style></defs><title>money</title><g id="Layer_2" data-name="Layer 2"><g id="Layer_1-2" data-name="Layer 1"><path class="cls-1" d="M31.5,9.46a2.22,2.22,0,0,0-2.07,2.07v2.26c-5.3.85-9,4.87-9,9.45A8.9,8.9,0,0,0,24,30.45a20.64,20.64,0,0,0,7,3,18,18,0,0,1,5.6,2.35,4.23,4.23,0,0,1,1.85,3.94c0,2.74-2.32,5.51-6.89,5.51a8.49,8.49,0,0,1-5-1.66,4.28,4.28,0,0,1-1.94-3.16,2.07,2.07,0,1,0-4.13,0,8.28,8.28,0,0,0,3.57,6.46,12.38,12.38,0,0,0,5.38,2.32v2.24a2.07,2.07,0,0,0,4.13,0V49.24c5.3-.85,9-4.89,9-9.47A8.94,8.94,0,0,0,39,32.53a20.64,20.64,0,0,0-7-3,18,18,0,0,1-5.6-2.35,4.19,4.19,0,0,1-1.85-3.92c0-2.74,2.32-5.51,6.89-5.51a8.47,8.47,0,0,1,5,1.64,4.31,4.31,0,0,1,1.94,3.19,2.07,2.07,0,1,0,4.13,0,8.28,8.28,0,0,0-3.57-6.46,12.38,12.38,0,0,0-5.38-2.32V11.52A2.21,2.21,0,0,0,31.5,9.46Zm0-4.82A26.87,26.87,0,1,1,4.63,31.5,26.84,26.84,0,0,1,31.5,4.63ZM31.5.5a31,31,0,1,0,31,31A31,31,0,0,0,31.5.5Z"/></g></g></svg>