<svg id="Layer_1" data-name="Layer 1" xmlns="http://www.w3.org/2000/svg" viewBox="0 0 940 140"><defs><style>.cls-1,.cls-5{fill:#4d4d4d;}.cls-2{fill:#e6e6e6;}.cls-3{fill:none;stroke:#333;stroke-linecap:round;stroke-miterlimit:10;stroke-width:5px;stroke-dasharray:1 10;}.cls-4{fill:#009245;}.cls-5{fill-rule:evenodd;}</style></defs><title>progress_sales _3</title><path class="cls-1" d="M353.63,43.39a6.5,6.5,0,0,1-3.5,5.76v-14a6.5,6.5,0,0,1,3.45,5.74Zm-9.5-15V70.15c-8-4.22-25-12.33-40-13.34V31.5c14.45-1.05,31.87-9.22,40-13.4ZM310.32,86.9l-.38.2-.33.19c-.73.48-3.49,2.1-8.75,2.61v-.2l-9.28-27h9.63c1.17,0,2.38.06,3.6.17.36,11.71,3.57,19.79,5.32,22.53l.09.13h0a1.31,1.31,0,0,1,.1,1.4ZM279.58,44.16a12.55,12.55,0,0,1,12.49-12.54h6.1V56.7h-6.1A12.55,12.55,0,0,1,279.58,44.16Zm70.55-15.39V13.08a3,3,0,0,0-4.49-2.6c-.26.15-26.6,15.14-44.46,15.14h-9.1a18.53,18.53,0,0,0-7.4,35.53L295.1,91.58a5.85,5.85,0,0,0,5.54,4.35,5.48,5.48,0,0,0,.8-.06,26.43,26.43,0,0,0,11.34-3.49,7.3,7.3,0,0,0,2-1.37,3,3,0,0,0,.32-.38,7.29,7.29,0,0,0,.06-8.51c-1.07-1.72-3.81-8.32-4.3-18.34,16.72,3.45,34.53,13.91,34.72,14a3,3,0,0,0,4.53-2.58V55.51a12.52,12.52,0,0,0,9.47-12.12v-2.5a12.51,12.51,0,0,0-9.45-12.12Z"/><path class="cls-1" d="M587.11,47.66a30,30,0,0,1-30,30h-3.33V71h3.33a23.33,23.33,0,0,0,23.34-23.34V41a3.33,3.33,0,1,1,6.66,0Z"/><path class="cls-1" d="M613.78,47.66A56.53,56.53,0,0,1,593.59,91H582a50,50,0,0,0,25.13-43.34V41a23.33,23.33,0,1,0-46.66,0v6.66a3.33,3.33,0,1,1-6.67,0V41a30,30,0,1,1,60,0Z"/><polygon class="cls-1" points="557.11 11 543.78 11 543.78 24.33 550.45 24.33 550.45 17.67 557.11 17.67 557.11 11"/><polygon class="cls-1" points="543.78 77.66 543.78 91 557.11 91 557.11 84.34 550.45 84.34 550.45 77.66 543.78 77.66"/><polygon class="cls-1" points="610.45 91 623.78 91 623.78 77.66 617.11 77.66 617.11 84.34 610.45 84.34 610.45 91"/><polygon class="cls-1" points="623.78 24.33 623.78 11 610.45 11 610.45 17.67 617.11 17.67 617.11 24.33 623.78 24.33"/><path class="cls-1" d="M583.78,24.33A16.67,16.67,0,0,0,567.11,41v6.66a10,10,0,0,1-10,10h-3.33v6.67h3.33a16.66,16.66,0,0,0,16.67-16.67V41a10,10,0,0,1,20,0v6.66a36.65,36.65,0,0,1-30,36v6.73a43.3,43.3,0,0,0,36.67-42.77V41a16.67,16.67,0,0,0-16.67-16.67Z"/><path class="cls-2" d="M817.67,76V52.67h10l10,16.66H841l17.9-29.82,7.89,13.16h17.55V76Zm66.66-53.33V46H870.56l-10-16.67h-3.33l-17.9,29.82L831.44,46H817.67V22.67Zm0-6.67H817.67A6.69,6.69,0,0,0,811,22.67V76a6.69,6.69,0,0,0,6.67,6.67h30v6.66h-10A6.67,6.67,0,0,0,831,96h40a6.67,6.67,0,0,0-6.67-6.67h-10V82.66h30A6.68,6.68,0,0,0,891,76V22.67A6.69,6.69,0,0,0,884.33,16Z"/><rect class="cls-2" x="824.33" y="29.33" width="20" height="6.67"/><rect class="cls-2" x="871" y="62.67" width="6.67" height="6.66"/><rect class="cls-2" x="854.33" y="62.67" width="10" height="6.66"/><line class="cls-3" x1="107.5" y1="51" x2="255.5" y2="51"/><line class="cls-3" x1="377.5" y1="51.5" x2="525.5" y2="51.5"/><line class="cls-3" x1="647.5" y1="52" x2="795.5" y2="52"/><path class="cls-4" d="M101.76,18l1.84-1.84L107,19.53l6-6,1.84,1.84L107,23.2Zm6.5-10.4A10.4,10.4,0,1,0,118.66,18,10.4,10.4,0,0,0,108.26,7.6Zm0,23.4a13,13,0,1,1,13-13A13,13,0,0,1,108.26,31Z"/><path class="cls-4" d="M370.76,18l1.84-1.84L376,19.53l6-6,1.84,1.84L376,23.2Zm6.5-10.4A10.4,10.4,0,1,0,387.66,18,10.4,10.4,0,0,0,377.26,7.6Zm0,23.4a13,13,0,1,1,13-13A13,13,0,0,1,377.26,31Z"/><path class="cls-4" d="M639.76,18l1.84-1.84L645,19.53l6-6,1.84,1.84L645,23.2Zm6.5-10.4A10.4,10.4,0,1,0,656.66,18,10.4,10.4,0,0,0,646.26,7.6Zm0,23.4a13,13,0,1,1,13-13A13,13,0,0,1,646.26,31Z"/><path class="cls-4" d="M908.76,18l1.84-1.84L914,19.53l6-6,1.84,1.84L914,23.2Zm6.5-10.4A10.4,10.4,0,1,0,925.66,18,10.4,10.4,0,0,0,915.26,7.6Zm0,23.4a13,13,0,1,1,13-13A13,13,0,0,1,915.26,31Z"/><path class="cls-5" d="M84,82.17a2.65,2.65,0,0,1-2.82,1.66c-2.62-.07-5.24,0-7.86,0a2.21,2.21,0,0,1-2.46-2.45q0-16.84,0-33.68a2.2,2.2,0,0,1,2.46-2.44c2.62,0,5.24,0,7.86,0A2.64,2.64,0,0,1,84,46.88V82.17Z"/><path class="cls-5" d="M84,33.89a5.8,5.8,0,0,1-1,1.28,2.16,2.16,0,0,1-3.41-1.61c-.24-2.06-.47-4.12-.84-6.3a2.34,2.34,0,0,1-.16.34C71.32,39,61.4,47.41,49.46,53.57a82.73,82.73,0,0,1-20.63,7.59A52.9,52.9,0,0,1,17.3,62.45a9.58,9.58,0,0,1-1.63-.13A2.35,2.35,0,0,1,14,60.7V59.61A2.74,2.74,0,0,1,17,58a42.25,42.25,0,0,0,11.31-1.27C43.6,53.09,57,45.91,67.86,34.36a61.49,61.49,0,0,0,7.35-9.59c.13-.21.25-.43.43-.74-.26,0-.42.07-.58.11-2.28.65-4.55,1.32-6.83,1.94a2.16,2.16,0,0,1-2.84-2.44,2,2,0,0,1,1.54-1.74q6.43-1.85,12.87-3.67a2.14,2.14,0,0,1,2.7,1.89c.47,4,.91,8,1.37,12a3.9,3.9,0,0,0,.13.52c0,.4,0,.81,0,1.22Z"/><path class="cls-5" d="M14,70.68A2.63,2.63,0,0,1,16.78,69c2.64.07,5.28,0,7.92,0a2.21,2.21,0,0,1,2.4,2.44q0,4.95,0,9.9a2.22,2.22,0,0,1-2.46,2.44c-2.62,0-5.24,0-7.85,0A2.64,2.64,0,0,1,14,82.18V70.69Z"/><path class="cls-5" d="M65,71V81.22c0,1.79-.8,2.6-2.57,2.6H54.37a2.23,2.23,0,0,1-2.49-2.5q0-10.39,0-20.79A2.22,2.22,0,0,1,54.3,58.1h8.21A2.22,2.22,0,0,1,65,60.62Q65,65.79,65,71s0,0,0,0Z"/><path class="cls-5" d="M32.94,75q0-3.18,0-6.36a2.2,2.2,0,0,1,2.42-2.41h8.13a2.28,2.28,0,0,1,2.58,2.56q0,6.22,0,12.44c0,1.78-.83,2.61-2.58,2.61H35.35a2.19,2.19,0,0,1-2.41-2.41q0-3.21,0-6.42Z"/></svg>