<svg xmlns="http://www.w3.org/2000/svg" viewBox="0 0 170.4 170.4"><defs><style>.cls-1,.cls-4{fill:#fff;}.cls-2{fill:#333;}.cls-3{fill:#d32129;}.cls-4{stroke:#000;stroke-miterlimit:10;}</style></defs><title>services</title><g id="Layer_2" data-name="Layer 2"><g id="Layer_1-2" data-name="Layer 1"><path class="cls-1" d="M75.21,126.41H68.52v9.91H66v-9.91h-20v-1.78L65.3,97.28h3.21v26.85h6.69ZM66,124.13V113q0-8,.37-13.46h-.21q-.53,1-3.27,5l-13.7,19.57Z"/><path class="cls-1" d="M79.43,119.77A34.53,34.53,0,0,1,81.49,107a15.86,15.86,0,0,1,5.84-7.66A17.74,17.74,0,0,1,101,97.49v2.34a13.51,13.51,0,0,0-4.67-.72,12.17,12.17,0,0,0-10.21,4.73q-3.65,4.73-4.1,13.76h.34A13.78,13.78,0,0,1,87,113.66a11.93,11.93,0,0,1,5.5-1.33q5.44,0,8.51,3.11t3.07,8.58q0,5.95-3.23,9.39a11.35,11.35,0,0,1-8.7,3.44,11.05,11.05,0,0,1-9.31-4.5Q79.43,127.84,79.43,119.77Zm12.72,14.74a8.56,8.56,0,0,0,6.77-2.74q2.42-2.73,2.42-7.81a9.65,9.65,0,0,0-2.39-7,8.59,8.59,0,0,0-6.51-2.5,10.84,10.84,0,0,0-5,1.2,10,10,0,0,0-3.7,3.17,7,7,0,0,0-1.38,4,12.89,12.89,0,0,0,1.31,5.67,11.07,11.07,0,0,0,3.56,4.32A8.37,8.37,0,0,0,92.15,134.51Z"/><path class="cls-1" d="M117.65,102.32a10,10,0,0,1-1.16,5.32,3.73,3.73,0,0,1-3.34,1.82,3.63,3.63,0,0,1-3.23-1.87,9.94,9.94,0,0,1-1.17-5.27,10.14,10.14,0,0,1,1.12-5.26,3.62,3.62,0,0,1,3.28-1.81,3.72,3.72,0,0,1,3.33,1.87A9.76,9.76,0,0,1,117.65,102.32Zm-7.38,0a10.37,10.37,0,0,0,.7,4.33,2.29,2.29,0,0,0,2.18,1.45q3,0,3-5.77a9.36,9.36,0,0,0-.77-4.28,2.41,2.41,0,0,0-2.22-1.43A2.29,2.29,0,0,0,111,98,10.16,10.16,0,0,0,110.26,102.32Zm16.55-6.75L114.26,118.2h-1.49l12.56-22.63Zm4,15.85a10.07,10.07,0,0,1-1.15,5.32,3.7,3.7,0,0,1-3.33,1.82,3.65,3.65,0,0,1-3.27-1.88,10,10,0,0,1-1.16-5.26,10,10,0,0,1,1.14-5.28,3.88,3.88,0,0,1,6.59.06A9.74,9.74,0,0,1,130.84,111.42Zm-7.38,0a10.23,10.23,0,0,0,.7,4.3,2.3,2.3,0,0,0,2.18,1.43q3,0,3-5.73t-3-5.71a2.3,2.3,0,0,0-2.18,1.42A10.17,10.17,0,0,0,123.45,111.42Z"/><path class="cls-2" d="M85.2,12a73.09,73.09,0,1,0,28,5.56A73.28,73.28,0,0,0,85.2,12V0A85.09,85.09,0,1,1,52.59,6.48,85.3,85.3,0,0,1,85.2,0Z"/><path class="cls-3" d="M103.41,156.12A73.2,73.2,0,0,0,157.81,76,72,72,0,0,0,149.9,51a73.85,73.85,0,0,0-16.3-20.65,72.51,72.51,0,0,0-22.52-13.58A74.08,74.08,0,0,0,85.2,12V0a86.09,86.09,0,0,1,30.12,5.5,84.52,84.52,0,0,1,26.21,15.81,85.85,85.85,0,0,1,19,24,84,84,0,0,1,9.22,29.2,85.3,85.3,0,0,1-63.32,93.21Z"/><path class="cls-4" d="M105.88,64h0a4.49,4.49,0,0,1-4.24,4H97.41V51.28h4.24a4.66,4.66,0,0,1,4.24,4.24ZM72,68H67.76a4.66,4.66,0,0,1-4.24-4.24V55.32a4.49,4.49,0,0,1,4.24-4H72ZM102.6,48.57c-1.92-10.67-8.47-16.94-17.9-16.94S68.69,38,66.8,48.57a7.35,7.35,0,0,0-6.1,6.75v8.47a7.46,7.46,0,0,0,6.18,6.95l3,6.27a1.41,1.41,0,0,0,1,.76l6.78,1.47v.28h0A1.41,1.41,0,0,0,79,80.93h5.65a1.41,1.41,0,0,0,1.41-1.41V76.7a1.41,1.41,0,0,0-1.41-1.41H79.05a1.38,1.38,0,0,0-1.36,1.07l-5.65-1.21L70,70.82h3.41a1.42,1.42,0,0,0,1.41-1.41V49.87a1.41,1.41,0,0,0-1.41-1.41H69.65c1.07-5.22,4.43-14.12,15-14.12s14.12,8.89,15,14.12H96a1.41,1.41,0,0,0-1.41,1.41V69.44A1.41,1.41,0,0,0,96,70.85h5.65A7.34,7.34,0,0,0,108.7,64V55.52a7.48,7.48,0,0,0-6.1-6.95Z"/></g></g></svg>