<svg xmlns="http://www.w3.org/2000/svg" viewBox="0 0 600 600"><defs><style>.a{fill:#132e44;}</style></defs><title>overall_icon</title><path class="a" d="M538.4,295.2h0L501.6,246l7.32-61.06a8,8,0,0,0-4.8-8.31l-56.56-24.12L423.39,95.91a8,8,0,0,0-8.31-4.8L354,98.44,304.8,61.6a8,8,0,0,0-9.6,0L246,98.44l-61.06-7.33a8,8,0,0,0-8.31,4.8l-24.13,56.58L95.92,176.61a8,8,0,0,0-4.8,8.31L98.44,246,61.6,295.2a8,8,0,0,0,0,9.6L98.45,354l-7.33,61.06a8,8,0,0,0,4.8,8.31l56.56,24.12,24.13,56.58a8,8,0,0,0,8.31,4.8L246,501.56,295.2,538.4a8,8,0,0,0,9.6,0L354,501.6l61.06,7.33a8,8,0,0,0,8.31-4.8l24.13-56.58,56.57-24.12a8,8,0,0,0,4.8-8.31L501.6,354l36.8-49.22A8,8,0,0,0,538.4,295.2ZM161.72,434.06l-54-23,7-58.28a8,8,0,0,0-1.54-5.75L78,300l35.2-47a8,8,0,0,0,1.54-5.75L112.4,228H180V436H164.39A7.94,7.94,0,0,0,161.72,434.06Zm325.11-87a8,8,0,0,0-1.54,5.75l7,58.28-54,23a8,8,0,0,0-4.22,4.22l-23,54-58.28-7a8,8,0,0,0-5.74,1.54L300,522l-47-35.2a8,8,0,0,0-4.8-1.6,7.77,7.77,0,0,0-1,.06l-58.28,7L171.79,452H196V436H396a32,32,0,0,0,26.58-49.79,32,32,0,0,0,13.91-50.78,32.51,32.51,0,0,0,6.12-4.8,31.58,31.58,0,0,0-6.34-49.78,31.81,31.81,0,0,0,7.63-23.14A32.8,32.8,0,0,0,410.64,228H332V164a40,40,0,0,0-40-40H276a8,8,0,0,0-8,8v32a64.07,64.07,0,0,1-64,64h-8V212H110.48l-2.77-23,54-23a8,8,0,0,0,4.22-4.22l23-54,58.28,7a7.94,7.94,0,0,0,5.74-1.54L300,78l47,35.2a8,8,0,0,0,5.74,1.54l58.28-7,23,54a8,8,0,0,0,4.22,4.22l54,23-7,58.28a8,8,0,0,0,1.54,5.75L522,300ZM324,244h86.64a17,17,0,0,1,17.3,14.85,15.68,15.68,0,0,1-4.64,12.46A15.86,15.86,0,0,1,412,276H396a8,8,0,1,0,0,16h22.64a17,17,0,0,1,17.3,14.85,15.68,15.68,0,0,1-4.64,12.46A15.86,15.86,0,0,1,420,324H396a8,8,0,0,0,0,16h16a16,16,0,1,1,0,32H388a8,8,0,0,0,0,16h8a16,16,0,1,1,0,32H196V244h8a80.09,80.09,0,0,0,80-80V140h8a24,24,0,0,1,24,24v72A8,8,0,0,0,324,244Z"/></svg>