<svg id="Layer_1" data-name="Layer 1" xmlns="http://www.w3.org/2000/svg" viewBox="0 0 519 234.99">
  <title>approach</title>
  <rect y="-0.01" width="519" height="235" style="fill: #fff"/>
  <text transform="translate(27.97 179.47)" style="font-size: 10px;fill: #524f59;font-family: OpenSans, Open Sans">including usage and <tspan x="19.62" y="12">strategy for </tspan><tspan x="6.72" y="24">software-defned </tspan><tspan x="20.19" y="36">networking</tspan></text>
  <text transform="translate(199.61 179.47)" style="font-size: 10px;fill: #524f59;font-family: OpenSans, Open Sans">covering intelligence and <tspan x="1.95" y="12">analytics to improve the </tspan><tspan x="-1.43" y="24">performance of networks </tspan><tspan x="19.52" y="36">and applications</tspan></text>
  <text transform="translate(387.6 179.47)" style="font-size: 10px;fill: #524f59;font-family: OpenSans, Open Sans">focusing on risk, <tspan x="-3.32" y="12">technology, and a </tspan><tspan x="-4.51" y="24">security-by-design </tspan><tspan x="15.65" y="36">approach</tspan></text>
  <text transform="translate(45.61 143.32)" style="font-size: 14px;fill: #2476ba;font-family: OpenSans-Semibold, Open Sans;font-weight: 600">Network<tspan x="-18.06" y="15">infrastructure</tspan></text>
  <text transform="translate(191.61 143.32)" style="font-size: 14px;fill: #2476ba;font-family: OpenSans-Semibold, Open Sans;font-weight: 600"><tspan xml:space="preserve"> Intelligent network</tspan><tspan x="29.64" y="15">operations</tspan></text>
  <text transform="translate(367.25 143.32)" style="font-size: 14px;fill: #2476ba;font-family: OpenSans-Semibold, Open Sans;font-weight: 600">Security-enabled<tspan x="18.23" y="15">networking</tspan></text>
  <g>
    <path d="M91.15,59.84a1.52,1.52,0,0,1-.15-3h.15a1.52,1.52,0,0,1,1.52,1.52,1.44,1.44,0,0,1-1.52,1.51Zm0,20.46a1.52,1.52,0,0,1-.15-3h.15a1.52,1.52,0,0,1,1.52,1.52,1.44,1.44,0,0,1-1.52,1.51Zm-3.94,0a1.52,1.52,0,0,1-.15-3h.15a1.52,1.52,0,0,1,1.52,1.52,1.43,1.43,0,0,1-1.52,1.51Zm-3.94,0a1.51,1.51,0,0,1-1.51-1.51,1.49,1.49,0,0,1,1.36-1.52h.15a1.52,1.52,0,0,1,1.52,1.52,1.44,1.44,0,0,1-1.52,1.51Zm-10,0H61a1.52,1.52,0,1,1,0-3H73.27a1.52,1.52,0,0,1,1.52,1.52A1.62,1.62,0,0,1,73.27,80.3ZM58.88,66.06H91.3v5.3H58.88ZM61,56.82H73.27a1.52,1.52,0,1,1,0,3H61a1.52,1.52,0,0,1-1.52-1.52A1.63,1.63,0,0,1,61,56.82Zm22.27,0a1.43,1.43,0,0,1,1.52,1.51,1.52,1.52,0,1,1-3,0A1.51,1.51,0,0,1,83.27,56.82Zm3.94,0a1.43,1.43,0,0,1,1.52,1.51,1.52,1.52,0,1,1-1.52-1.51Zm9.24,9.24A1.52,1.52,0,0,0,98,64.54V52.12a1.52,1.52,0,0,0-1.52-1.52H53.72a1.52,1.52,0,0,0-1.51,1.52V64.54a1.52,1.52,0,0,0,1.51,1.52H56v5.3H53.72a1.52,1.52,0,0,0-1.51,1.52V85.31a1.51,1.51,0,0,0,1.51,1.51H96.45A1.52,1.52,0,0,0,98,85.31V72.88a1.52,1.52,0,0,0-1.52-1.52H94.18v-5.3Z" style="fill: #29abe2"/>
    <path d="M102.21,109.39A5.69,5.69,0,0,1,96.6,115a5.38,5.38,0,0,1-5.3-4.09H80.54A1.52,1.52,0,0,1,79,109.39V89.54h2.88V108h9.24a5.68,5.68,0,0,1,5.45-4.25,5.51,5.51,0,0,1,5.61,5.61Z" style="fill: #29abe2"/>
    <path d="M49,57.27v2.88h-17a1.52,1.52,0,0,1-1.52-1.52V47.88a5.24,5.24,0,0,1-3.94-5.16,5.61,5.61,0,1,1,7,5.46v9.24H49Z" style="fill: #29abe2"/>
    <path d="M33.57,80.15v9.09a5.53,5.53,0,1,1-2.88,0V78.63a1.52,1.52,0,0,1,1.52-1.51h17V80H33.57Z" style="fill: #29abe2"/>
    <path d="M70.69,27.88V47.72H67.82V29.39H58.73a5.53,5.53,0,1,1,0-2.88h10.6c.61-.15,1.36.46,1.36,1.37Z" style="fill: #29abe2"/>
    <path d="M102.21,27.88a5.62,5.62,0,0,1-11.06,1.36H81.91V47.72H79V27.87a1.51,1.51,0,0,1,1.51-1.51H91.3a5.69,5.69,0,0,1,5.3-4.09,5.59,5.59,0,0,1,5.61,5.6Z" style="fill: #29abe2"/>
    <path d="M70.69,89.54v19.85a1.52,1.52,0,0,1-1.51,1.52H58.57A5.55,5.55,0,0,1,53.12,115a5.61,5.61,0,1,1,5.45-7h9.09V89.54Z" style="fill: #29abe2"/>
    <path d="M123.57,94.54a5.61,5.61,0,1,1-7-5.45V80H100.69V77.12h17.43a1.52,1.52,0,0,1,1.52,1.51V89.24a5.39,5.39,0,0,1,3.93,5.3Z" style="fill: #29abe2"/>
    <path d="M123.57,42.72A5.39,5.39,0,0,1,119.48,48V58.79A1.51,1.51,0,0,1,118,60.3H100.69V57.42H116.6V48.18A5.62,5.62,0,0,1,118,37.12a5.58,5.58,0,0,1,5.6,5.6Z" style="fill: #29abe2"/>
  </g>
  <g>
    <path d="M258.11,41A23.47,23.47,0,0,0,234.67,64.4,25.57,25.57,0,0,0,244,84a12.43,12.43,0,0,1,4.41,7h5V82.85a1.25,1.25,0,0,0-1.26-1.26,8,8,0,0,1-8-6.48,7.82,7.82,0,0,1,.4-4.13,7.77,7.77,0,0,1,0-13.17,7.8,7.8,0,0,1,13.53-7.47,7.82,7.82,0,0,1,13.55,7.48,7.77,7.77,0,0,1,0,13.18,7.75,7.75,0,0,1-7.54,10.59,1.26,1.26,0,0,0-1.29,1.26V91h5a12.49,12.49,0,0,1,4.41-7,25.57,25.57,0,0,0,9.33-19.59A23.47,23.47,0,0,0,258.11,41Z" style="fill: #29abe2"/>
    <path d="M247.24,74.59a4.89,4.89,0,0,0,4.92,3.87,4.4,4.4,0,0,1,4.39,4.39V91h3.12V82.85a4.4,4.4,0,0,1,4.39-4.39,4.89,4.89,0,0,0,5-4.22,4.66,4.66,0,0,0-1.2-3.62,4.72,4.72,0,0,0-3.47-1.53V66a7.86,7.86,0,0,1,5.61,2.4A4.66,4.66,0,0,0,269,60l-1.91-.67,1.14-1.68A4.69,4.69,0,1,0,259.67,55h-3.12a4.69,4.69,0,1,0-4.69,4.68v3.13a7.79,7.79,0,0,1-5.61-2.4,4.66,4.66,0,0,0,.95,8.36l1.91.67L248,71.15a4.76,4.76,0,0,0-.73,3.44Z" style="fill: #29abe2"/>
    <path d="M272.17,94.09H244.05a1.56,1.56,0,1,0,0,3.12h28.12a1.56,1.56,0,1,0,0-3.12Z" style="fill: #29abe2"/>
    <path d="M272.17,100.34H244.05a1.56,1.56,0,1,0,0,3.12h28.12a1.56,1.56,0,1,0,0-3.12Z" style="fill: #29abe2"/>
    <path d="M258.11,116a9.38,9.38,0,0,0,9.38-9.37H248.74A9.38,9.38,0,0,0,258.11,116Z" style="fill: #29abe2"/>
    <path d="M295.61,112.84a4.69,4.69,0,1,1,4.69-4.69A4.69,4.69,0,0,1,295.61,112.84Zm0-12.5a7.81,7.81,0,1,0,7.81,7.81A7.81,7.81,0,0,0,295.61,100.34Z" style="fill: #29abe2"/>
    <path d="M297.17,108.15a1.56,1.56,0,1,1-3.12,0,1.56,1.56,0,1,1,3.12,0" style="fill: #29abe2"/>
    <path d="M222.17,98.78a1.56,1.56,0,0,1-3.12,0,1.56,1.56,0,1,1,3.12,0" style="fill: #29abe2"/>
    <path d="M220.61,103.46a4.69,4.69,0,1,1,4.69-4.68A4.69,4.69,0,0,1,220.61,103.46Zm0-12.5a7.82,7.82,0,1,0,7.81,7.82A7.82,7.82,0,0,0,220.61,91Z" style="fill: #29abe2"/>
    <path d="M256.55,31.3v6.62c.52,0,1-.08,1.56-.08s1,0,1.56.08V31.3a4.69,4.69,0,1,0-3.12,0Z" style="fill: #29abe2"/>
    <path d="M301.86,59.71a4.7,4.7,0,0,0-4.4,3.13H284.59c0,.52.08,1,.08,1.56s0,1,0,1.56h12.83a4.68,4.68,0,1,0,4.4-6.25Z" style="fill: #29abe2"/>
    <path d="M218.76,66h12.83c0-.52,0-1,0-1.56s0-1,.08-1.56H218.76a4.69,4.69,0,1,0,0,3.12Z" style="fill: #29abe2"/>
    <path d="M228.42,33.15a7.81,7.81,0,1,1-7.81-7.81,7.8,7.8,0,0,1,7.81,7.81" style="fill: #29abe2"/>
    <path d="M306.55,37.84A7.82,7.82,0,1,1,298.74,30a7.81,7.81,0,0,1,7.81,7.81" style="fill: #29abe2"/>
    <path d="M220.61,44.09a10.05,10.05,0,0,1-1.56-.13v1.69a4.69,4.69,0,0,0,4.69,4.69h11.88a26.08,26.08,0,0,1,2.28-3.13H223.74a1.57,1.57,0,0,1-1.57-1.56V44a10.05,10.05,0,0,1-1.56.13Z" style="fill: #29abe2"/>
    <path d="M286.5,50.34A4.67,4.67,0,0,0,289.82,49l2.38-2.38A10.52,10.52,0,0,1,290,44.37l-2.38,2.38a1.55,1.55,0,0,1-1.11.46h-8.17a26,26,0,0,1,2.27,3.13Z" style="fill: #29abe2"/>
    <path d="M294.05,81.59V97.34a9.42,9.42,0,0,1,3.12,0V81.59a4.69,4.69,0,0,0-4.68-4.69H281.72A29.39,29.39,0,0,1,279.93,80h12.56a1.57,1.57,0,0,1,1.56,1.56Z" style="fill: #29abe2"/>
    <path d="M223.74,78.46a4.69,4.69,0,0,0-4.69,4.69V88a10.2,10.2,0,0,1,3.12,0V83.15a1.57,1.57,0,0,1,1.57-1.56h13.64a28.56,28.56,0,0,1-2-3.13Z" style="fill: #29abe2"/>
  </g>
  <g>
    <path d="M425.49,73.23a3.49,3.49,0,0,0,1.67-3,3.64,3.64,0,1,0-7.27,0,2.6,2.6,0,0,0,1.51,2.57,1.09,1.09,0,0,1,.76,1.37l-1.52,6.36h5.46l-1.37-6.06a3.56,3.56,0,0,1,.76-1.21Z" style="fill: #29abe2"/>
    <path d="M428.83,81.56c0,.31,0,.76-.31.91a1.06,1.06,0,0,1-.91.46h-8.33a1.35,1.35,0,0,1-.91-.46,1,1,0,0,1-.15-.91l1.67-6.81a4.91,4.91,0,0,1-2.12-4.25,5.91,5.91,0,1,1,9.7,4.55Zm-15-30.76a9.5,9.5,0,0,1,9.55-9.54h.6a9.5,9.5,0,0,1,9.55,9.54v5.46h-19.7Zm22.57,5.46h-.6V50.81A11.84,11.84,0,0,0,424,39h-.6a11.84,11.84,0,0,0-11.82,11.82v5.45h-.45a5,5,0,0,0-5,5v4.09h7.42a1.21,1.21,0,1,1,0,2.42h-7.42V79.29h7.42a1.21,1.21,0,0,1,0,2.42h-7.42v4.55a5,5,0,0,0,5,5h25.3a5,5,0,0,0,5-5V81.71H434a1.21,1.21,0,1,1,0-2.42h7.42V67.63H434a1.22,1.22,0,0,1,0-2.43h7.42V61.11a5,5,0,0,0-5-4.85Z" style="fill: #29abe2"/>
    <path d="M443.68,63.23h5.75a7,7,0,0,0,7-7V52.78a5.69,5.69,0,0,0,4.7-5.61,5.76,5.76,0,0,0-11.52,0,5.69,5.69,0,0,0,4.7,5.61v3.48a4.72,4.72,0,0,1-4.7,4.7h-5.76v2.27Z" style="fill: #29abe2"/>
    <path d="M397.92,88.08H404a11.88,11.88,0,0,1-.3-2.27h-5.76a7,7,0,0,0-7,7v3.49a5.83,5.83,0,0,0-4.7,5.6,5.76,5.76,0,1,0,11.52,0,5.68,5.68,0,0,0-4.7-5.6V92.77a5,5,0,0,1,4.85-4.69Z" style="fill: #29abe2"/>
    <path d="M389.28,75.66h14.4V73.38h-14.4a5.68,5.68,0,0,0-5.6-4.69,5.76,5.76,0,1,0,0,11.51A5.32,5.32,0,0,0,389.28,75.66Z" style="fill: #29abe2"/>
    <path d="M432.61,93.38a5.75,5.75,0,0,0-5.75,5.76,5.69,5.69,0,0,0,4.69,5.61v8.63a1.21,1.21,0,0,0,2.42,0v-8.63a5.84,5.84,0,0,0,4.7-5.61,6.23,6.23,0,0,0-6.06-5.76Z" style="fill: #29abe2"/>
    <path d="M432.61,38.84a5.76,5.76,0,0,0,5.76-5.76,5.69,5.69,0,0,0-4.69-5.61V18.84a1.22,1.22,0,0,0-2.43,0v8.63a5.84,5.84,0,0,0-4.69,5.61,6.23,6.23,0,0,0,6.05,5.76Z" style="fill: #29abe2"/>
    <path d="M414.74,38.84a5.76,5.76,0,0,0,5.76-5.76,5.69,5.69,0,0,0-4.7-5.61V18.84a1.22,1.22,0,0,0-2.43,0v8.63a5.84,5.84,0,0,0-4.69,5.61,6.23,6.23,0,0,0,6.06,5.76Z" style="fill: #29abe2"/>
    <path d="M456.4,96.26V92.78a7,7,0,0,0-7-7h-5.75a11.8,11.8,0,0,1-.31,2.27h6.06a4.72,4.72,0,0,1,4.7,4.69v3.49a5.83,5.83,0,0,0-4.7,5.6,5.76,5.76,0,1,0,11.52,0,5.68,5.68,0,0,0-4.55-5.6Z" style="fill: #29abe2"/>
    <path d="M463.68,68.84a5.69,5.69,0,0,0-5.61,4.69H443.68v2.28h14.39a5.83,5.83,0,0,0,5.61,4.69,5.83,5.83,0,0,0,0-11.66Z" style="fill: #29abe2"/>
    <path d="M391,52.93v3.48a7,7,0,0,0,7,7h5.91V61.11h-5.91a4.72,4.72,0,0,1-4.7-4.7V52.93a5.69,5.69,0,0,0,4.7-5.61,5.76,5.76,0,0,0-11.52,0A5.68,5.68,0,0,0,391,52.93Z" style="fill: #29abe2"/>
    <path d="M414.74,93.38A5.76,5.76,0,0,0,409,99.14a5.69,5.69,0,0,0,4.7,5.61v8.63a1.21,1.21,0,0,0,2.42,0v-8.63a6,6,0,0,0,4.69-5.61,6.23,6.23,0,0,0-6.05-5.76Z" style="fill: #29abe2"/>
  </g>
  <line x1="161" y1="126.99" x2="161" y2="231.99" style="fill: none;stroke: #b3b3b3;stroke-miterlimit: 10"/>
  <line x1="347.5" y1="126.99" x2="347.5" y2="231.99" style="fill: none;stroke: #b3b3b3;stroke-miterlimit: 10"/>
</svg>
