<svg xmlns="http://www.w3.org/2000/svg" xmlns:xlink="http://www.w3.org/1999/xlink" viewBox="0 0 1615.75 391.18"><defs><style>.a{fill:none;stroke:gray;stroke-miterlimit:10;}.b{font-size:37px;}.b,.c,.l{font-family:Helvetica, Helvetica;}.c{font-size:26.13px;}.d{fill:#999;}.e{letter-spacing:-0.07em;}.f{letter-spacing:-0.04em;}.g{font-size:36.85px;}.h{letter-spacing:-0.07em;}.i{letter-spacing:0em;}.j{letter-spacing:-0.04em;}.k{opacity:0.5;fill:url(#a);}.l{font-size:32px;}.m{letter-spacing:-0.09em;}.n{fill:#132e44;}</style><linearGradient id="a" x1="338.12" y1="227.04" x2="1614.87" y2="227.04" gradientUnits="userSpaceOnUse"><stop offset="0" stop-color="#fff"/><stop offset="1" stop-color="#ccc"/></linearGradient></defs><title>comparison_business</title><line class="a" x1="322.98" y1="0.04" x2="322.98" y2="323.54"/><line class="a" x1="752.98" y1="0.04" x2="752.98" y2="323.54"/><line class="a" x1="1184.98" y1="0.04" x2="1184.98" y2="323.54"/><text class="b" transform="translate(19.9 211.26)">Digital Business<tspan x="51.42" y="46">Performance</tspan></text><line class="a" x1="0.37" y1="131.04" x2="1614.27" y2="131.04"/><line class="a" x1="0.91" y1="324.04" x2="1614.8" y2="324.04"/><text class="c" transform="translate(432.93 56.67)"><tspan class="d">DIGI<tspan class="e" x="53.72" y="0">T</tspan><tspan x="67.75" y="0">A</tspan><tspan class="f" x="85.18" y="0">L</tspan></tspan><tspan class="g"><tspan x="0" y="37.56">Improver</tspan></tspan></text><text class="c" transform="translate(864.03 56.67)"><tspan class="d">DIGI<tspan class="h" x="53.72" y="0">T</tspan><tspan class="i" x="67.75" y="0">A</tspan><tspan class="f" x="85.18" y="0">L</tspan></tspan><tspan class="g"><tspan x="0" y="37.56">Achiever</tspan></tspan></text><text class="c" transform="translate(1295.12 56.67)"><tspan class="d">DIGI<tspan class="h" x="53.72" y="0">T</tspan><tspan class="i" x="67.75" y="0">A</tspan><tspan class="j" x="85.18" y="0">L</tspan></tspan><tspan class="g"><tspan x="0" y="37.56">Native</tspan></tspan></text><rect class="k" x="338.12" y="145.02" width="1276.75" height="164.05"/><text class="l" transform="translate(1342.63 376.12)"><tspan class="m">Y</tspan><tspan x="18.41" y="0">our Organization</tspan></text><rect class="n" x="1278.87" y="343.88" width="41.67" height="41.67"/></svg>