<svg xmlns="http://www.w3.org/2000/svg" viewBox="0 0 600 600"><defs><style>.a{fill:#132e44;}</style></defs><title>digital_delivery_icon</title><path class="a" d="M112,540H472a8,8,0,0,0,8-8V324H464V524H112a24,24,0,0,1,0-48h16a8,8,0,0,0,8-8V228H264V212H136V156a8,8,0,0,0-8-8H112a40,40,0,0,0-40,40V500A40,40,0,0,0,112,540ZM88,220V188a24,24,0,0,1,24-24h8V460h-8a39.84,39.84,0,0,0-24,8Z"/><path class="a" d="M256,252H160a8,8,0,0,0-8,8v64a8,8,0,0,0,8,8h96a8,8,0,0,0,8-8V300h32V284H264V260A8,8,0,0,0,256,252Zm-8,64H168V268h80Z"/><path class="a" d="M336,476h96a8,8,0,0,0,8-8V404a8,8,0,0,0-8-8H392V348H376v48H336a8,8,0,0,0-8,8v24H264V404a8,8,0,0,0-8-8H160a8,8,0,0,0-8,8v64a8,8,0,0,0,8,8h96a8,8,0,0,0,8-8V444h64v24A8,8,0,0,0,336,476Zm8-64h80v48H344Zm-96,48H168V412h80Z"/><path class="a" d="M416,124a72,72,0,1,0,72,72A72,72,0,0,0,416,124Zm0,128a56,56,0,1,1,56-56A56,56,0,0,1,416,252Z"/><path class="a" d="M544,228a8,8,0,0,0,8-8V172a8,8,0,0,0-8-8H514.86a106,106,0,0,0-6.33-15.28l20.64-20.57a8,8,0,0,0,0-11.33l-34-34a8,8,0,0,0-11.31,0l-20.61,20.64A106.42,106.42,0,0,0,448,97.14V68a8,8,0,0,0-8-8H392a8,8,0,0,0-8,8V97.14a106.42,106.42,0,0,0-15.28,6.33L348.14,82.83a8,8,0,0,0-11.31,0l-34,34a8,8,0,0,0,0,11.33l20.64,20.57a105.77,105.77,0,0,0-6.32,15.3H288a8,8,0,0,0-8,8v48a8,8,0,0,0,8,8h29.14a106,106,0,0,0,6.33,15.28l-20.64,20.57a8,8,0,0,0,0,11.34l34,33.91a8,8,0,0,0,11.31,0l20.57-20.57A107,107,0,0,0,384,294.86V324a8,8,0,0,0,8,8h48a8,8,0,0,0,8-8V294.86a106.51,106.51,0,0,0,15.29-6.33l20.57,20.57a8,8,0,0,0,11.3,0l34-33.92a8,8,0,0,0,0-11.34l-20.64-20.57A105.88,105.88,0,0,0,514.86,228Zm-42.85-10a91.49,91.49,0,0,1-9.43,22.73,8,8,0,0,0,1.27,9.7l19.2,19.14-22.66,22.62L470.4,273a8,8,0,0,0-9.69-1.26A91.12,91.12,0,0,1,438,281.14a8,8,0,0,0-6,7.73V316H400V288.88a8,8,0,0,0-6-7.73,91.12,91.12,0,0,1-22.73-9.42,8,8,0,0,0-9.69,1.26l-19.14,19.14-22.66-22.61L339,250.38a8,8,0,0,0,1.27-9.7A91.49,91.49,0,0,1,330.86,218a8,8,0,0,0-7.73-6H296V180h27.12a8,8,0,0,0,7.73-6,91.49,91.49,0,0,1,9.43-22.73,8,8,0,0,0-1.27-9.7l-19.2-19.14L342.48,99.8,361.63,119a8,8,0,0,0,9.7,1.27A91.12,91.12,0,0,1,394,110.85a8,8,0,0,0,6-7.73V76h32v27.12a8,8,0,0,0,6,7.73,91.12,91.12,0,0,1,22.73,9.42A8,8,0,0,0,470.4,119l19.14-19.2,22.67,22.67L493,141.63a8,8,0,0,0-1.26,9.7A91.63,91.63,0,0,1,501.18,174a8,8,0,0,0,7.7,6H536v32H508.88A8,8,0,0,0,501.15,218Z"/><path class="a" d="M416,164a32,32,0,1,0,32,32A32,32,0,0,0,416,164Zm0,48a16,16,0,1,1,16-16A16,16,0,0,1,416,212Z"/></svg>