<svg xmlns="http://www.w3.org/2000/svg" viewBox="0 0 600 600"><defs><style>.a{fill:#132e44;}</style></defs><title>digital_design_icon</title><path class="a" d="M508,68H92A24,24,0,0,0,68,92V508a24,24,0,0,0,24,24H508a24,24,0,0,0,24-24V92A24,24,0,0,0,508,68Zm8,24V292H441.76a8,8,0,0,0-6.4,12.8A45.2,45.2,0,0,1,444,332c0,22.05-14.35,40-32,40s-32-17.95-32-40a45.19,45.19,0,0,1,8.63-27.2,8,8,0,0,0-6.4-12.8H308V231.38A63.87,63.87,0,0,0,332,236c30.88,0,56-21.53,56-48s-25.12-48-56-48a63.87,63.87,0,0,0-24,4.62V84H508A8,8,0,0,1,516,92ZM84,92a8,8,0,0,1,8-8H292v74.24a8,8,0,0,0,12.8,6.4A45.28,45.28,0,0,1,332,156c22.05,0,40,14.35,40,32s-17.95,32-40,32a45.28,45.28,0,0,1-27.2-8.62,8,8,0,0,0-12.8,6.4V292H231.38A63.87,63.87,0,0,0,236,268c0-30.87-21.53-56-48-56s-48,25.13-48,56a63.87,63.87,0,0,0,4.62,24H84Zm0,416V308h74.24a8,8,0,0,0,6.4-12.8A45.2,45.2,0,0,1,156,268c0-22.05,14.35-40,32-40s32,17.95,32,40a45.19,45.19,0,0,1-8.62,27.2,8,8,0,0,0,6.4,12.8H292v60.62A63.87,63.87,0,0,0,268,364c-30.88,0-56,21.53-56,48s25.12,48,56,48a63.87,63.87,0,0,0,24-4.62V516H92A8,8,0,0,1,84,508Zm432,0a8,8,0,0,1-8,8H308V441.76a8,8,0,0,0-12.8-6.4A45.28,45.28,0,0,1,268,444c-22.05,0-40-14.35-40-32s17.95-32,40-32a45.28,45.28,0,0,1,27.2,8.63,8,8,0,0,0,12.8-6.4V308h60.62A63.87,63.87,0,0,0,364,332c0,30.87,21.53,56,48,56s48-25.13,48-56a63.87,63.87,0,0,0-4.62-24H516Z"/></svg>