<svg xmlns="http://www.w3.org/2000/svg" viewBox="0 0 600 600"><defs><style>.a{fill:#132e44;}</style></defs><title>digital_business_icon</title><path class="a" d="M145.09,480.28a9.05,9.05,0,1,0,2.66,6.41A9.12,9.12,0,0,0,145.09,480.28Z"/><path class="a" d="M493.5,233.79a9,9,0,1,0,2.66,6.41A9.11,9.11,0,0,0,493.5,233.79Z"/><path class="a" d="M529.35,70.65A9.07,9.07,0,0,0,522.94,68H300a9.06,9.06,0,0,0-9.06,9.06V103L205,126a9.06,9.06,0,0,0-6.41,11.1l44.52,166.15-38.52,38.51a27.18,27.18,0,0,0-22.44-11.86h-87A27.19,27.19,0,0,0,68,357.09V504.81A27.19,27.19,0,0,0,95.19,532h87a27.23,27.23,0,0,0,26.39-20.64l10.78,9.4a45.67,45.67,0,0,0,30,11.25H522.94a9.06,9.06,0,0,0,9.06-9.06V77.06A9.07,9.07,0,0,0,529.35,70.65ZM191.25,504.81a9.07,9.07,0,0,1-9.06,9.06h-87a9.06,9.06,0,0,1-9.06-9.06V357.09A9.06,9.06,0,0,1,95.19,348h34.44V452.14a9.25,9.25,0,0,0,7.72,9.25,9.07,9.07,0,0,0,10.41-9V348h34.44a9.06,9.06,0,0,1,9.06,9.06V504.81Zm27.23-363.64,72.46-19.42v33.58l-6.3,1.69a7.09,7.09,0,0,0-1.51.56,9.14,9.14,0,0,0-4.67,10.48A24.43,24.43,0,0,1,261.14,198a8.09,8.09,0,0,0-2,.77,9.13,9.13,0,0,0-4.37,10.33l35.32,130.81H271.93l-9.37-36.67A9,9,0,0,0,261,300Zm72.46,55.72v76.47l-16.53-61.2A42.46,42.46,0,0,0,290.94,196.89Zm130.22,317H249.37a27.54,27.54,0,0,1-18.1-6.78L209.38,488V362.67l39.55-39.55,7.17,28.06a9.06,9.06,0,0,0,8.78,6.81H443a12.7,12.7,0,0,1,12.6,14.15,12.91,12.91,0,0,1-12.95,11.21H352.05a9.25,9.25,0,0,0-9.25,7.72,9.07,9.07,0,0,0,9,10.41H471.09A12.91,12.91,0,0,1,484,412.71a12.7,12.7,0,0,1-12.6,14.16H352.05a9.25,9.25,0,0,0-9.25,7.72,9.07,9.07,0,0,0,9,10.41H451.7a12.91,12.91,0,0,1,12.95,11.21A12.7,12.7,0,0,1,452,470.37h-100a9.25,9.25,0,0,0-9.25,7.72,9.07,9.07,0,0,0,9,10.41h69.05a12.91,12.91,0,0,1,12.95,11.21A12.7,12.7,0,0,1,421.16,513.87Zm92.71,0H448.79a30.7,30.7,0,0,0,0-25.37H451c15.86,0,29.59-11.77,31.23-27.55a30.69,30.69,0,0,0-3.1-17.05,30.79,30.79,0,0,0,16.58-48.06V281.25A9.25,9.25,0,0,0,488,272a9.07,9.07,0,0,0-10.41,9V384.09a30.82,30.82,0,0,0-6.61-.72h-.3a30.73,30.73,0,0,0,2.49-16.68c-2-15.46-15.54-26.82-31.13-26.82H428.93a43.37,43.37,0,1,0-34.08,0H345.31V167.55a42.66,42.66,0,0,0,32.49-32.49h67.33a42.66,42.66,0,0,0,32.49,32.49v27.89a9.25,9.25,0,0,0,7.72,9.25,9.07,9.07,0,0,0,10.41-9V159.46a9,9,0,0,0-9-9.06,24.43,24.43,0,0,1-24.49-24.49,9,9,0,0,0-9.06-9H370.51a9,9,0,0,0-9.06,9c.05,13.6-11.34,24.65-25.29,24.49a9,9,0,0,0-9,9.06c0,40.28,0,180.41,0,180.41H309.06V86.12H513.87ZM411.46,325.25A25.25,25.25,0,1,1,436.7,300,25.27,25.27,0,0,1,411.46,325.25Z"/></svg>