<svg id="Layer_1" data-name="Layer 1" xmlns="http://www.w3.org/2000/svg" viewBox="0 0 600 600">
  <title>intelligent-network-operations_icon</title>
  <path d="M300,577.5c153.26,0,277.5-124.24,277.5-277.5S453.26,22.5,300,22.5,22.5,146.74,22.5,300,146.74,577.5,300,577.5" style="fill: #f7f6f7"/>
  <g>
    <path d="M300,193.2a89.11,89.11,0,0,0-89,89c0,28.48,13.57,57,35.42,74.37a47.2,47.2,0,0,1,16.73,26.5H282.2V352.26a4.8,4.8,0,0,0-4.79-4.79c-15,0-28.05-10.58-30.4-24.6a29.92,29.92,0,0,1,1.55-15.69,29.49,29.49,0,0,1,.07-50,29.39,29.39,0,0,1-2-10.56A29.66,29.66,0,0,1,300,228.82a29.67,29.67,0,0,1,51.44,28.4,29.49,29.49,0,0,1-.11,50,29.62,29.62,0,0,1,1.93,13.44c-1.44,15-14.85,26.78-30.55,26.78a4.82,4.82,0,0,0-4.91,4.79v30.81h19a47.45,47.45,0,0,1,16.73-26.5C375.42,339.17,389,310.68,389,282.2a89.12,89.12,0,0,0-89-89Z" style="fill: #29abe2"/>
    <path d="M258.73,320.9c1.4,8.38,9.42,14.7,18.68,14.7a16.68,16.68,0,0,1,16.66,16.66v30.8h11.86v-30.8a16.68,16.68,0,0,1,16.66-16.66c9.78,0,18-7.05,18.87-16a17.67,17.67,0,0,0-4.54-13.73A17.88,17.88,0,0,0,323.73,300V288.13A29.71,29.71,0,0,1,345,297.24a17.68,17.68,0,0,0-3.58-31.76l-7.26-2.55,4.31-6.38a17.8,17.8,0,1,0-32.56-10H294.07a17.8,17.8,0,1,0-17.8,17.8v11.86a29.53,29.53,0,0,1-21.3-9.1,17.67,17.67,0,0,0,3.59,31.75l7.26,2.56-4.31,6.37a17.91,17.91,0,0,0-2.78,13.06Z" style="fill: #29abe2"/>
    <path d="M353.4,394.93H246.6a5.94,5.94,0,1,0,0,11.87H353.4a5.94,5.94,0,0,0,0-11.87Z" style="fill: #29abe2"/>
    <path d="M353.4,418.67H246.6a5.93,5.93,0,1,0,0,11.86H353.4a5.93,5.93,0,0,0,0-11.86Z" style="fill: #29abe2"/>
    <path d="M300,478a35.63,35.63,0,0,0,35.6-35.6H264.4A35.63,35.63,0,0,0,300,478Z" style="fill: #29abe2"/>
    <path d="M442.4,466.13a17.8,17.8,0,1,1,17.8-17.8A17.81,17.81,0,0,1,442.4,466.13Zm0-47.46a29.67,29.67,0,1,0,29.66,29.66A29.7,29.7,0,0,0,442.4,418.67Z" style="fill: #29abe2"/>
    <path d="M448.33,448.33c0,7.91-11.87,7.91-11.87,0s11.87-7.9,11.87,0" style="fill: #29abe2"/>
    <path d="M163.53,412.73c0,7.91-11.86,7.91-11.86,0s11.86-7.9,11.86,0" style="fill: #29abe2"/>
    <path d="M157.6,430.53a17.8,17.8,0,1,1,17.8-17.8A17.81,17.81,0,0,1,157.6,430.53Zm0-47.47a29.67,29.67,0,1,0,29.67,29.67A29.7,29.7,0,0,0,157.6,383.06Z" style="fill: #29abe2"/>
    <path d="M294.07,156.5v25.13c2-.12,3.93-.3,5.93-.3s4,.18,5.93.3V156.5a17.8,17.8,0,1,0-11.86,0Z" style="fill: #29abe2"/>
    <path d="M466.13,264.4a17.76,17.76,0,0,0-16.7,11.86H400.57c.12,2,.3,3.94.3,5.94s-.06,4-.18,5.93h48.74a17.77,17.77,0,1,0,16.7-23.73Z" style="fill: #29abe2"/>
    <path d="M150.57,288.13h48.74c-.12-2-.18-4-.18-5.93s.18-4,.3-5.94H150.57a17.81,17.81,0,1,0,0,11.87Z" style="fill: #29abe2"/>
    <path d="M187.27,163.53a29.67,29.67,0,1,1-29.67-29.66,29.66,29.66,0,0,1,29.67,29.66" style="fill: #29abe2"/>
    <path d="M483.93,181.34a29.67,29.67,0,1,1-29.66-29.67,29.65,29.65,0,0,1,29.66,29.67" style="fill: #29abe2"/>
    <path d="M157.6,205.07a40,40,0,0,1-5.93-.48V211a17.81,17.81,0,0,0,17.8,17.8h45.12a99.11,99.11,0,0,1,8.65-11.86H169.47a6,6,0,0,1-5.93-5.94v-6.41a40.22,40.22,0,0,1-5.94.48Z" style="fill: #29abe2"/>
    <path d="M407.81,228.8a17.7,17.7,0,0,0,12.59-5.22l9-9a42.05,42.05,0,0,1-8.4-8.4l-9,9a5.91,5.91,0,0,1-4.2,1.75H376.76a99.11,99.11,0,0,1,8.65,11.86Z" style="fill: #29abe2"/>
    <path d="M436.47,347.47v59.81a36.87,36.87,0,0,1,11.86,0V347.47a17.81,17.81,0,0,0-17.8-17.8H389.64a112,112,0,0,1-6.77,11.86h47.66a6,6,0,0,1,5.94,5.94Z" style="fill: #29abe2"/>
    <path d="M169.47,335.6a17.81,17.81,0,0,0-17.8,17.8v18.27a37.64,37.64,0,0,1,11.86,0V353.4a6,6,0,0,1,5.94-5.94h51.8a109.07,109.07,0,0,1-7.78-11.86Z" style="fill: #29abe2"/>
  </g>
</svg>
