<svg id="Layer_1" data-name="Layer 1" xmlns="http://www.w3.org/2000/svg" viewBox="0 0 600 600">
  <title>network-infrastructure_icon</title>
  <path d="M300,577.5c153.26,0,277.5-124.24,277.5-277.5S453.26,22.5,300,22.5,22.5,146.74,22.5,300,146.74,577.5,300,577.5" style="fill: #f7f6f7"/>
  <g>
    <path d="M362,266.1a5.85,5.85,0,0,1-5.84-5.84c0-2.93,2.33-5.85,5.26-5.85H362a5.86,5.86,0,0,1,5.85,5.85A5.53,5.53,0,0,1,362,266.1Zm0,78.9a5.85,5.85,0,0,1-5.84-5.84c0-2.93,2.33-5.85,5.26-5.85H362a5.86,5.86,0,0,1,5.85,5.85A5.53,5.53,0,0,1,362,345Zm-15.2,0a5.85,5.85,0,0,1-5.84-5.84c0-2.93,2.33-5.85,5.25-5.85h.59a5.86,5.86,0,0,1,5.85,5.85,5.52,5.52,0,0,1-5.85,5.84Zm-15.18,0a5.85,5.85,0,0,1-5.85-5.84c0-2.93,2.34-5.85,5.26-5.85h.59a5.86,5.86,0,0,1,5.84,5.85,5.53,5.53,0,0,1-5.84,5.84ZM293,345H245.66a5.85,5.85,0,0,1,0-11.69H293a5.86,5.86,0,0,1,5.84,5.85C298.25,342.67,295.9,345,293,345Zm-55.52-54.93H362.54v20.46H237.48Zm8.18-35.64H293a5.85,5.85,0,1,1,0,11.69H245.66a5.86,5.86,0,0,1-5.85-5.85A6.27,6.27,0,0,1,245.66,254.43Zm85.9,0a5.52,5.52,0,0,1,5.85,5.84,5.85,5.85,0,1,1-5.85-5.84Zm15.19,0a5.51,5.51,0,0,1,5.84,5.84,5.85,5.85,0,1,1-5.84-5.84Zm35.65,35.64a5.85,5.85,0,0,0,5.84-5.84V236.3a5.85,5.85,0,0,0-5.84-5.84H217.6a5.85,5.85,0,0,0-5.84,5.84v47.93a5.85,5.85,0,0,0,5.84,5.84h8.77v20.46H217.6a5.86,5.86,0,0,0-5.84,5.85V364.3a5.85,5.85,0,0,0,5.84,5.85H382.4a5.86,5.86,0,0,0,5.84-5.85V316.38a5.86,5.86,0,0,0-5.84-5.85h-8.77V290.07Z" style="fill: #29abe2"/>
    <path d="M404.6,457.2A22,22,0,0,1,383,478.82a20.75,20.75,0,0,1-20.46-15.77H321a5.86,5.86,0,0,1-5.84-5.85V380.65h11.1v71.29h35.65a21.89,21.89,0,0,1,21-16.36A21.21,21.21,0,0,1,404.6,457.2Z" style="fill: #29abe2"/>
    <path d="M199.48,256.17v11.11H134a5.86,5.86,0,0,1-5.84-5.85V219.94c-8.76-1.75-15.19-10.52-15.19-19.87a21.62,21.62,0,1,1,26.88,21v35.65h59.6Z" style="fill: #29abe2"/>
    <path d="M139.88,344.42v35.06a21.33,21.33,0,1,1-11.11,0V338.57a5.86,5.86,0,0,1,5.85-5.84h65.45v11.1H139.88Z" style="fill: #29abe2"/>
    <path d="M283.05,142.8v76.55H272v-70.7H236.89a21.33,21.33,0,1,1,0-11.11h40.9c2.33-.58,5.26,1.75,5.26,5.26Z" style="fill: #29abe2"/>
    <path d="M404.6,142.8A21.65,21.65,0,0,1,362,148.06H326.3v71.29H315.2V142.8A5.86,5.86,0,0,1,321,137h41.49c2.34-8.76,11.11-15.77,20.46-15.77A21.57,21.57,0,0,1,404.6,142.8Z" style="fill: #29abe2"/>
    <path d="M283.05,380.65V457.2a5.87,5.87,0,0,1-5.85,5.85H236.3c-2.33,9.35-11.1,15.77-21,15.77a21.62,21.62,0,1,1,21-26.88h35.06V380.65Z" style="fill: #29abe2"/>
    <path d="M487,399.93a21.62,21.62,0,1,1-26.88-21V343.84H398.76V332.72H466a5.86,5.86,0,0,1,5.84,5.85v40.9A20.88,20.88,0,0,1,487,399.93Z" style="fill: #29abe2"/>
    <path d="M487,200.07a20.75,20.75,0,0,1-15.78,20.46V262a5.86,5.86,0,0,1-5.84,5.85H398.76V256.76h61.36V221.12a21.66,21.66,0,0,1,5.26-42.66A21.56,21.56,0,0,1,487,200.07Z" style="fill: #29abe2"/>
  </g>
</svg>
