<svg id="Layer_1" data-name="Layer 1" xmlns="http://www.w3.org/2000/svg" viewBox="0 0 600 600">
  <title>security-enabled-networking_icon</title>
  <path d="M300,577.5c153.26,0,277.5-124.24,277.5-277.5S453.26,22.5,300,22.5,22.5,146.74,22.5,300,146.74,577.5,300,577.5" style="fill: #f7f6f7"/>
  <g>
    <path d="M307.45,329.23a14.31,14.31,0,0,0,6.85-12.44,14.93,14.93,0,1,0-29.85,0c0,5,2.48,9.33,6.22,10.56a4.46,4.46,0,0,1,3.11,5.6l-6.22,26.12h22.38l-5.6-24.89a14,14,0,0,1,3.11-4.95Z" style="fill: #29abe2"/>
    <path d="M321.15,363.43c0,1.25,0,3.11-1.25,3.73-.62,1.25-2.48,1.86-3.74,1.86H282a5.4,5.4,0,0,1-3.74-1.86c-.62-1.25-1.25-2.48-.62-3.73l6.84-28c-5.59-3.74-8.7-10-8.7-17.41a24.26,24.26,0,1,1,48.51,0c0,7.45-3.11,13.67-8.7,18.66ZM259.58,237.18A39,39,0,0,1,298.77,198h2.48a39,39,0,0,1,39.19,39.18v22.38H259.6Zm92.66,22.4h-2.49V237.2a48.56,48.56,0,0,0-48.49-48.5h-2.49a48.57,48.57,0,0,0-48.5,48.5v22.38h-1.86a20.31,20.31,0,0,0-20.52,20.52v16.79h30.48a5,5,0,0,1,0,9.94H227.89V354.1h30.48a5,5,0,1,1,0,9.94H227.89V382.7a20.71,20.71,0,0,0,20.52,20.52H352.28A20.71,20.71,0,0,0,372.8,382.7V364H342.32a5,5,0,1,1,0-9.94H372.8l0-47.88H342.29a5,5,0,1,1,0-9.94h30.48V279.49c0-10.58-9.34-19.91-20.53-19.91Z" style="fill: #29abe2"/>
    <path d="M382.09,288.18h23.63a28.94,28.94,0,0,0,28.61-28.6v-14.3a23.34,23.34,0,0,0,19.27-23,23.64,23.64,0,0,0-47.27,0,23.34,23.34,0,0,0,19.27,23v14.3a19.36,19.36,0,0,1-19.27,19.27H382.7v1.25l0,8.08Z" style="fill: #29abe2"/>
    <path d="M194.28,390.17h24.88a48.18,48.18,0,0,1-1.25-9.33H194.28a28.52,28.52,0,0,0-28.6,28.6v14.3a24,24,0,0,0-19.28,23,23.64,23.64,0,0,0,47.27,0,23.34,23.34,0,0,0-19.27-23v-14.3c.61-10.56,9.31-19.27,19.88-19.27Z" style="fill: #29abe2"/>
    <path d="M158.83,339.19h59.08v-9.34H158.83a23.34,23.34,0,0,0-23-19.27,23.64,23.64,0,0,0,0,47.27C147.64,358.46,157,350.38,158.83,339.19Z" style="fill: #29abe2"/>
    <path d="M336.69,411.94a23.62,23.62,0,0,0-23.64,23.63,23.34,23.34,0,0,0,19.28,23V494a5,5,0,1,0,9.94,0V458.58a24,24,0,0,0,19.27-23c-1.22-13.06-11.79-23.63-24.85-23.63Z" style="fill: #29abe2"/>
    <path d="M336.69,188.06a23.62,23.62,0,0,0,23.63-23.63,23.34,23.34,0,0,0-19.27-23V106a5,5,0,0,0-9.94,0v35.45a24,24,0,0,0-19.27,23c1.23,13.06,11.8,23.63,24.85,23.63Z" style="fill: #29abe2"/>
    <path d="M263.32,188.06A23.62,23.62,0,0,0,287,164.43a23.34,23.34,0,0,0-19.27-23l0-35.45a5,5,0,0,0-9.94,0v35.45a24,24,0,0,0-19.27,23c1.23,13.06,11.8,23.63,24.87,23.63Z" style="fill: #29abe2"/>
    <path d="M434.33,423.76v-14.3a28.94,28.94,0,0,0-28.61-28.61H382.09a47.42,47.42,0,0,1-1.25,9.33h24.88A19.37,19.37,0,0,1,425,409.44v14.3a24,24,0,0,0-19.28,23,23.64,23.64,0,0,0,47.27,0c.62-11.18-8.08-20.51-18.66-23Z" style="fill: #29abe2"/>
    <path d="M464.18,311.19a23.34,23.34,0,0,0-23,19.27H382.09v9.34h59.08a24,24,0,0,0,23,19.27,23.61,23.61,0,0,0,23.63-23.64C487.81,321.77,477.25,311.19,464.18,311.19Z" style="fill: #29abe2"/>
    <path d="M165.67,245.89v14.3a28.53,28.53,0,0,0,28.61,28.6h24.26v-9.33l-24.26,0A19.37,19.37,0,0,1,175,260.2V245.9a23.33,23.33,0,0,0,19.27-23,23.64,23.64,0,1,0-47.27,0c-.62,11.17,8.08,20.5,18.66,23Z" style="fill: #29abe2"/>
    <path d="M263.32,411.94a23.62,23.62,0,0,0-23.64,23.63,23.34,23.34,0,0,0,19.27,23V494a5,5,0,1,0,9.94,0V458.58c10.57-2.48,19.28-11.82,19.28-23-1.24-13.06-11.8-23.63-24.85-23.63Z" style="fill: #29abe2"/>
  </g>
</svg>
