<svg id="Layer_1" data-name="Layer 1" xmlns="http://www.w3.org/2000/svg" viewBox="0 0 600 600">
  <title>security-enabled-networking_icon copy</title>
  <path d="M300,577.5c153.26,0,277.5-124.24,277.5-277.5S453.26,22.5,300,22.5,22.5,146.74,22.5,300,146.74,577.5,300,577.5" style="fill: #f7f6f7"/>
  <path d="M263.4,198.16l-15,15L202,166.79l15-15Zm129.12-11.83L361.6,217.25l-15-15L393,155.85l15,15Zm-95-18.19h21.37V190H297.5Zm20.93-21.83H297.06V124.49h21.37ZM204.76,269.54H182.93V248.17h21.83Zm21.81-21.37H248.4v21.37H226.57Zm141,21.37V248.17h21.82v21.37Zm43.65-21.37H433v21.37H411.17Zm-15,185.5c-.46,5.45-2.27,20.46-25.46,20.46H261.11a18.45,18.45,0,0,1-18.65-18.65l0-95c3.18-.9,55-16.37,55-64.12V240.43c4.55-.46,10.46,0,15,3.18,5,3.64,7.73,11.37,7.73,22.27v56.84h72.3a18.44,18.44,0,0,1,18.65,18.65Zm-175,11.83a2,2,0,0,1-1.81,1.81H190.21a2,2,0,0,1-1.81-1.81l0-108.66a2,2,0,0,1,1.81-1.81h29.1a2,2,0,0,1,1.81,1.81Zm171-143.69H341.14V266.34q0-27.27-16.37-39.55c-16.82-12.27-38.65-5.92-40.92-5l-7.28,2.27v52.76c0,31.82-37.75,43.19-39.56,43.65l.46,2.27a22.61,22.61,0,0,0-18.18-8.63H190.2A23.29,23.29,0,0,0,167,337.3l0,108.2a23.29,23.29,0,0,0,23.19,23.19h29.1a24.86,24.86,0,0,0,14.1-4.54,39.2,39.2,0,0,0,27.74,11.36H370.74c26.37,0,43.65-14.54,46.37-38.64l15-93.21v-1.81a40.12,40.12,0,0,0-40-40Z" style="fill: #29abe2"/>
</svg>
