<svg id="Layer_1" data-name="Layer 1" xmlns="http://www.w3.org/2000/svg" viewBox="0 0 175.25 29.96">
  <title>vmware_logo</title>
  <g>
    <path d="M75.47,25.86,67.89,4.8a4.29,4.29,0,0,1-.24-1A1.85,1.85,0,0,1,69.49,2h0A2,2,0,0,1,71.41,3.5l6.27,18.15L84,3.45A1.92,1.92,0,0,1,85.82,2H86A2,2,0,0,1,88,3.45l6.26,18.2,6.37-18.24A1.83,1.83,0,0,1,102.36,2a1.77,1.77,0,0,1,1.83,1.73h0a3.11,3.11,0,0,1-.24,1L96.34,25.86a2.19,2.19,0,0,1-2,1.68h-.15a2.1,2.1,0,0,1-2-1.68L85.92,8l-6.27,17.9a2,2,0,0,1-2,1.68h-.1a2.2,2.2,0,0,1-2.08-1.68" style="fill: #787477"/>
    <path d="M130.61,3.84a1.86,1.86,0,0,1,3.72,0V8.12A10.15,10.15,0,0,1,142.92,2a1.8,1.8,0,0,1,1.85,1.74.66.66,0,0,1,0,.14,1.84,1.84,0,0,1-1.64,1.89c-4.83.58-8.79,4.2-8.79,11.39v8.47a1.86,1.86,0,0,1-3.72,0h0V3.84" style="fill: #787477"/>
    <path d="M156.69,27.75c-6.72,0-12.21-5.21-12.21-12.86v-.1c0-7.11,5-12.83,11.74-12.83,7.25,0,11.35,6,11.35,12.5a1.7,1.7,0,0,1-1.7,1.72H148.18c.51,5.35,4.25,8.36,8.6,8.36a9.89,9.89,0,0,0,7.05-2.87,1.63,1.63,0,0,1,1-.42,1.6,1.6,0,0,1,1.64,1.56v0A1.53,1.53,0,0,1,165.9,24a12.36,12.36,0,0,1-9.22,3.73m7.24-14.3c-.38-4.49-2.94-8.4-7.81-8.4-4.26,0-7.48,3.58-7.94,8.4Z" style="fill: #787477"/>
    <path d="M104.26,20V20c0-5.24,4.33-8,10.64-8a26.66,26.66,0,0,1,7.65,1v-.9c0-4.47-2.75-6.78-7.41-6.78a12.88,12.88,0,0,0-5.8,1.13,1.72,1.72,0,0,1-.67.15A1.67,1.67,0,0,1,107,5a1.55,1.55,0,0,1,1-1.54A16.44,16.44,0,0,1,115.5,2c3.51,0,6.21.91,8,2.74s2.55,4.09,2.55,7.27V25.75a1.76,1.76,0,0,1-1.68,1.83h-.1a1.7,1.7,0,0,1-1.77-1.64.28.28,0,0,1,0-.09V23.47a10.88,10.88,0,0,1-9,4.29c-4.62,0-9.29-2.65-9.29-7.75m18.34-1.93v-2.4a26.24,26.24,0,0,0-7.32-1.07c-4.66,0-7.27,2-7.27,5.16v.09c0,3.13,2.89,5,6.26,5,4.57,0,8.33-2.79,8.33-6.74" style="fill: #787477"/>
    <path d="M8,3.57a3.48,3.48,0,0,0-4.6-1.8l-.11,0A3.44,3.44,0,0,0,1.5,6.32l.09.2L9.47,23.69c1.24,2.69,2.55,4.1,5,4.1,2.62,0,3.77-1.54,5-4.1l7-15.16a1,1,0,0,1,1-.64A1.09,1.09,0,0,1,28.55,9V23.68c0,2.26,1.25,4.11,3.67,4.11s3.71-1.85,3.71-4.11v-12A3.7,3.7,0,0,1,39.5,7.86c.12,0,.24,0,.35,0a3.61,3.61,0,0,1,3.78,3.42c0,.13,0,.27,0,.4v12c0,2.26,1.26,4.11,3.67,4.11S51,25.94,51,23.68v-12a3.69,3.69,0,0,1,3.55-3.82,2.16,2.16,0,0,1,.36,0,3.61,3.61,0,0,1,3.78,3.42c0,.13,0,.27,0,.4v12c0,2.26,1.26,4.11,3.67,4.11s3.72-1.85,3.72-4.11V10a8.56,8.56,0,0,0-8.59-8.54h-.31a11.44,11.44,0,0,0-7.89,3.36c-1.62-2.09-3.82-3.35-7.61-3.35-4,0-7.46,3.35-7.46,3.35a8.94,8.94,0,0,0-6.65-3.35c-3.52,0-6.32,1.54-8,5.45l-5.1,11.89L8,3.57" style="fill: #787477"/>
    <path d="M167.87,5.05h0a3.08,3.08,0,0,1,6.16,0h0a3.08,3.08,0,0,1-6.16,0m5.56,0h0A2.47,2.47,0,0,0,171,2.53H171A2.5,2.5,0,0,0,168.47,5h0a2.5,2.5,0,1,0,5,0" style="fill: #787477"/>
    <path d="M169.77,3.82a.34.34,0,0,1,.31-.33h1a1.19,1.19,0,0,1,.87.3.91.91,0,0,1,.26.68h0a.92.92,0,0,1-.6.91l.46.55a.35.35,0,0,1,.1.25.31.31,0,0,1-.31.31.4.4,0,0,1-.32-.17l-.64-.81h-.45v.65a.33.33,0,0,1-.33.33h0a.33.33,0,0,1-.33-.33h0ZM171.09,5c.32,0,.5-.16.5-.42h0c0-.27-.19-.42-.51-.42h-.61V5Z" style="fill: #787477"/>
  </g>
</svg>
