<svg width="650" height="440" version="1.1" xmlns:xlink="http://www.w3.org/1999/xlink" xmlns="http://www.w3.org/2000/svg"><rect width="100%" height="100%" fill="#FFF" stroke-width="0px"></rect><g class="grid"><path d="M295 10v381M376.5 10v381M458 10v381M539.5 10v381M621 10v381" stroke="#EFEFEF"></path></g><rect y="368.79" height="17.214" x="295" width="0" stroke="" stroke-width="1px" fill="#c6dd64" id="e2"></rect><rect y="341.57" height="17.214" x="295" width="16.3" stroke="" stroke-width="1px" fill="#c6dd64" id="e3"></rect><rect y="314.36" height="17.214" x="295" width="104.32" stroke="" stroke-width="1px" fill="#c6dd64" id="e4"></rect><rect y="287.14" height="17.214" x="295" width="143.44" stroke="" stroke-width="1px" fill="#c6dd64" id="e5"></rect><rect y="259.93" height="17.214" x="295" width="176.04" stroke="" stroke-width="1px" fill="#c6dd64" id="e6"></rect><rect y="232.71" height="17.214" x="295" width="187.45" stroke="" stroke-width="1px" fill="#c6dd64" id="e7"></rect><rect y="205.5" height="17.214" x="295" width="198.05" stroke="" stroke-width="1px" fill="#c6dd64" id="e8"></rect><rect y="178.29" height="17.214" x="295" width="198.05" stroke="" stroke-width="1px" fill="#c6dd64" id="e9"></rect><rect y="151.07" height="17.214" x="295" width="209.46" stroke="" stroke-width="1px" fill="#c6dd64" id="ea"></rect><rect y="123.86" height="17.214" x="295" width="215.16" stroke="" stroke-width="1px" fill="#c6dd64" id="eb"></rect><rect y="96.643" height="17.214" x="295" width="259.17" stroke="" stroke-width="1px" fill="#c6dd64" id="ec"></rect><rect y="69.429" height="17.214" x="295" width="269.77" stroke="" stroke-width="1px" fill="#c6dd64" id="ed"></rect><rect y="42.214" height="17.214" x="295" width="275.47" stroke="" stroke-width="1px" fill="#c6dd64" id="ee"></rect><rect y="15" height="17.214" x="295" width="281.17" stroke="" stroke-width="1px" fill="#c6dd64" id="ef"></rect><line stroke="#842573" fill="none" x1="295" y1="268.54" x2="471.04" y2="268.54" stroke-width="2px"></line><circle stroke="#FFF" fill="#842573" cx="471.04" cy="268.54" r="10" stroke-width="2px"></circle><line stroke="#842573" fill="none" x1="295" y1="105.25" x2="554.17" y2="105.25" stroke-width="2px"></line><circle stroke="#FFF" fill="#842573" cx="554.17" cy="105.25" r="10" stroke-width="2px"></circle><line stroke="#842573" fill="none" x1="295" y1="23.607" x2="576.17" y2="23.607" stroke-width="2px"></line><circle stroke="#FFF" fill="#842573" cx="576.17" cy="23.607" r="10" stroke-width="2px"></circle><path d="M295 394v-3M376.5 394v-3M458 394v-3M539.5 394v-3M621 394v-3" stroke="#FFF" fill="none"></path><path stroke="#FFF" d="M293 391h330" stroke-width="2px"></path><g font-family="system-ui, BlinkMacSystemFont, -apple-system, Segoe UI, Roboto, Oxygen, Ubuntu, Cantarell, Fira Sans, Droid Sans, Helvetica Neue, sans-serif" font-size="10px" fill="#000"><text x="295" y="404.5" text-anchor="middle">0%</text><text x="376.5" y="404.5" text-anchor="middle">10%</text><text x="458" y="404.5" text-anchor="middle">20%</text><text x="539.5" y="404.5" text-anchor="middle">30%</text><text x="621" y="404.5" text-anchor="middle">40%</text></g><text text-anchor="middle" font-family="Arial" font-size="10px" fill="#000" x="458" y="421.1">average survey responses</text><path d="M292 391h3M292 363.79h3M292 336.57h3M292 309.36h3M292 282.14h3M292 254.93h3M292 227.71h3M292 200.5h3M292 173.29h3M292 146.07h3M292 118.86h3M292 91.643h3M292 64.429h3M292 37.214h3M292 10h3" stroke="#FFF" fill="none"></path><path stroke="#FFF" d="M295 8v385" stroke-width="2px"></path><g font-family="system-ui, BlinkMacSystemFont, -apple-system, Segoe UI, Roboto, Oxygen, Ubuntu, Cantarell, Fira Sans, Droid Sans, Helvetica Neue, sans-serif" font-size="10px" fill="#000"><text x="290" y="380.89" text-anchor="end">All the above</text><text x="290" y="353.68" text-anchor="end">Other, please specify</text><text x="290" y="326.46" text-anchor="end">HR and legal</text><text x="290" y="299.25" text-anchor="end">Research and development (R&amp;D)</text><text x="290" y="272.04" text-anchor="end">Governance, risk, and compliance</text><text x="290" y="244.82" text-anchor="end">Finance</text><text x="290" y="217.61" text-anchor="end">Engineering</text><text x="290" y="190.39" text-anchor="end">Product innovation (new business initiatives)</text><text x="290" y="163.18" text-anchor="end">Maintenance and logistics</text><text x="290" y="135.96" text-anchor="end">Customer service and support</text><text x="290" y="108.75" text-anchor="end">Sales</text><text x="290" y="81.536" text-anchor="end">Product management</text><text x="290" y="54.321" text-anchor="end">IT and data operations</text><text x="290" y="27.107" text-anchor="end">Marketing</text></g></svg>