<svg id="Layer_1" data-name="Layer 1" xmlns="http://www.w3.org/2000/svg" xmlns:xlink="http://www.w3.org/1999/xlink" viewBox="0 0 841.89 93.54">
  <defs>
    <clipPath id="clip-path">
      <rect id="SVGID" x="-11" y="272.42" width="852.8" height="104.35" style="fill: none"/>
    </clipPath>
    <clipPath id="clip-path-2">
      <rect id="SVGID-2" data-name="SVGID" x="-5" y="134.42" width="846.8" height="104.35" style="fill: none"/>
    </clipPath>
    <clipPath id="clip-path-3">
      <rect x="-5" y="-4.58" width="846.8" height="104.35" style="fill: none"/>
    </clipPath>
    <linearGradient id="linear-gradient" x1="-5" y1="45.77" x2="633" y2="45.77" gradientUnits="userSpaceOnUse">
      <stop offset="0.44"/>
      <stop offset="1" stop-opacity="0"/>
    </linearGradient>
    <clipPath id="clip-path-4">
      <rect x="697.23" y="31.83" width="85.04" height="29.63" style="fill: none"/>
    </clipPath>
    <clipPath id="clip-path-6">
      <rect x="-5.11" y="-150.23" width="852.11" height="112" style="fill: none"/>
    </clipPath>
  </defs>
  <title>processes-bg</title>
  <g style="clip-path: url(#clip-path)">
    <image width="1200" height="797" transform="translate(-16.11 19.32) scale(0.73)" xlink:href="../../../../../../Dropbox/IDC/SAP%20Agility%20Global%20Tool/_res/supplier_gray.png"/>
  </g>
  <g style="clip-path: url(#clip-path-2)">
    <image width="1200" height="800" transform="translate(-2.11 -90.44) scale(0.71)" xlink:href="../../../../../../Dropbox/IDC/SAP%20Agility%20Global%20Tool/_res/customer_purple.png"/>
  </g>
  <g style="clip-path: url(#clip-path-3)">
    <image width="1200" height="899" transform="translate(-8.24 -270.69) scale(0.71)" xlink:href="../../../../../../Dropbox/IDC/SAP%20Agility%20Global%20Tool/_res/processes_blue.png"/>
  </g>
  <rect x="-5" y="-11.23" width="638" height="114" style="opacity: 0.3;fill: url(#linear-gradient)"/>
  <g>
    <path d="M738.35,35c0-2-2.18-1.43-2.18-2,0-.24.05-.3.27-.3,1,0,2,.11,3,.11s1.67-.11,2.51-.11c.43,0,.51.06.51.27,0,.65-1.94,0-1.94,2.05V49.5c0,1.83,2.4,1.21,2.4,2,0,.19-.08.27-.54.27-.62,0-1.78-.11-2.94-.11-1.64,0-2.21.11-2.58.11s-.57-.14-.57-.41c0-.78,2.1.11,2.1-2.56V35Z" style="fill: #fff"/>
    <g style="clip-path: url(#clip-path-4)">
      <path d="M748.53,47.88c0,.43-.08,1.73.16,2,.89.89,2.94,1.21,4.15,1.21,3.83,0,7.46-2.05,7.46-8.27,0-6-4-9.38-9.1-9.4-2.56,0-2.67.43-2.67,1.69v12.8ZM746.4,35.59c0-2.74-2.21-1.88-2.21-2.61,0-.19.22-.27.38-.27.83,0,1.62.11,2.42.11,1.78,0,3.53-.11,5.85-.11,4.77,0,9.46,3.61,9.46,8.6,0,6.19-2.94,10.48-10.4,10.48-1.38,0-2.75-.11-4.13-.11l-3,.11c-.22,0-.27-.11-.27-.27,0-.62,1.91,0,1.91-2.51V35.59Z" style="fill: #fff"/>
      <path d="M773.84,32.47c5.06,0,6.47,2.07,7.25,2.07.21,0,.37-.27.64-.27s.3.44.38,2.19c0,1.43.3,2.31-.16,2.31s-.51-.7-.62-.88c-1.67-2.89-3.58-4.64-7.06-4.64-5.25,0-7.79,3.5-7.79,8.51,0,4.69,2.7,9.38,7.87,9.38,4.23,0,6.87-2.69,7.28-3.93a.44.44,0,0,1,.37-.35.28.28,0,0,1,.25.29l-.62,2.7c0,.11-1.94,2.13-8,2.13-5.52,0-9.48-3.8-9.48-9.38s4-10.13,9.7-10.13Z" style="fill: #fff"/>
    </g>
    <path d="M698.36,60.06h1.57L699.14,58l-.78,2.06Zm1.74.52h-1.91l-.31.81h-.65l1.55-3.9h.73l1.55,3.9h-.64l-.32-.81Z" style="fill: #fff"/>
    <polygon points="703.71 58.4 703.71 61.39 703.12 61.39 703.12 57.49 703.73 57.49 705.85 60.41 705.85 57.49 706.43 57.49 706.43 61.39 705.86 61.39 703.71 58.4 703.71 58.4" style="fill: #fff"/>
    <path d="M709.62,60.06h1.57L710.4,58l-.78,2.06Zm1.74.52h-1.91l-.31.81h-.65l1.55-3.9h.73l1.55,3.9h-.64l-.32-.81Z" style="fill: #fff"/>
    <polygon points="714.38 57.49 714.97 57.49 714.97 60.88 716.74 60.88 716.74 61.39 714.38 61.39 714.38 57.49 714.38 57.49" style="fill: #fff"/>
    <polygon points="719.43 59.76 717.9 57.49 718.58 57.49 719.72 59.23 720.86 57.49 721.53 57.49 720.01 59.76 720.01 61.39 719.43 61.39 719.43 59.76 719.43 59.76" style="fill: #fff"/>
    <polygon points="723.52 60.91 725.61 58.01 723.52 58.01 723.52 57.49 726.36 57.49 726.36 57.97 724.27 60.88 726.4 60.88 726.4 61.39 723.52 61.39 723.52 60.91 723.52 60.91" style="fill: #fff"/>
    <polygon points="728.61 57.49 731.23 57.49 731.23 58.01 729.2 58.01 729.2 59.15 731.19 59.15 731.19 59.66 729.2 59.66 729.2 60.88 731.23 60.88 731.23 61.39 728.61 61.39 728.61 57.49 728.61 57.49" style="fill: #fff"/>
    <polygon points="737.39 58.01 736.18 58.01 736.18 57.49 739.17 57.49 739.17 58.01 737.97 58.01 737.97 61.39 737.39 61.39 737.39 58.01 737.39 58.01" style="fill: #fff"/>
    <polygon points="744.04 59.65 741.89 59.65 741.89 61.39 741.3 61.39 741.3 57.49 741.89 57.49 741.89 59.13 744.04 59.13 744.04 57.49 744.63 57.49 744.63 61.39 744.04 61.39 744.04 59.65 744.04 59.65" style="fill: #fff"/>
    <polygon points="747.12 57.49 749.74 57.49 749.74 58.01 747.7 58.01 747.7 59.15 749.7 59.15 749.7 59.66 747.7 59.66 747.7 60.88 749.74 60.88 749.74 61.39 747.12 61.39 747.12 57.49 747.12 57.49" style="fill: #fff"/>
    <polygon points="754.81 57.49 757.43 57.49 757.43 58.01 755.39 58.01 755.39 59.15 757.38 59.15 757.38 59.66 755.39 59.66 755.39 61.39 754.81 61.39 754.81 57.49 754.81 57.49" style="fill: #fff"/>
    <path d="M759.31,57.49h.59v2.36a1,1,0,1,0,2.09,0V57.49h.59v2.37a1.64,1.64,0,0,1-3.27,0V57.49Z" style="fill: #fff"/>
    <polygon points="765.64 58.01 764.43 58.01 764.43 57.49 767.42 57.49 767.42 58.01 766.22 58.01 766.22 61.39 765.64 61.39 765.64 58.01 765.64 58.01" style="fill: #fff"/>
    <path d="M769.26,57.49h.59v2.36a1.05,1.05,0,1,0,2.1,0V57.49h.59v2.37a1.64,1.64,0,0,1-3.28,0V57.49Z" style="fill: #fff"/>
    <path d="M776.3,58h-1v1.37h1a.68.68,0,0,0,.72-.69.67.67,0,0,0-.72-.68Zm-.25,1.88h-.73v1.5h-.59v-3.9h1.64a1.17,1.17,0,0,1,1.26,1.2,1.09,1.09,0,0,1-1,1.14l1,1.56H777l-.93-1.5Z" style="fill: #fff"/>
    <g style="clip-path: url(#clip-path-4)">
      <polygon points="779.65 57.49 782.27 57.49 782.27 58.01 780.23 58.01 780.23 59.15 782.23 59.15 782.23 59.66 780.23 59.66 780.23 60.88 782.27 60.88 782.27 61.39 779.65 61.39 779.65 57.49 779.65 57.49" style="fill: #fff"/>
      <path d="M731,35.91H705.69a9.55,9.55,0,0,0-.86,1.22h-7.36a.25.25,0,0,0,0,.49H723.9a11.91,11.91,0,0,0-.77-1.22H731a.24.24,0,1,0,0-.48Z" style="fill: #fff"/>
      <path d="M731,39.05H703.9a11.42,11.42,0,0,0-.38,1.3h-6a.24.24,0,1,0,0,.48H725c-.09-.44-.19-.87-.32-1.29H731a.25.25,0,0,0,0-.49Z" style="fill: #fff"/>
      <path d="M731,42H703.27c0,.27,0,.54,0,.82s0,.45,0,.67h-5.79a.24.24,0,0,0-.24.24.24.24,0,0,0,.24.24h27.67a11.27,11.27,0,0,0,.06-1.16v-.34H731a.25.25,0,0,0,0-.49Z" style="fill: #fff"/>
      <path d="M731,45H703.46a11.28,11.28,0,0,0,.47,1.63h-6.46a.24.24,0,1,0,0,.48h26.86a11.15,11.15,0,0,0,.55-1.63H731a.24.24,0,0,0,.24-.24A.24.24,0,0,0,731,45Z" style="fill: #fff"/>
      <path d="M731,48H704.55a11.18,11.18,0,0,0,1.19,1.77h-8.27a.24.24,0,0,0,0,.48h24.82a10.92,10.92,0,0,0,1.33-1.77H731a.24.24,0,0,0,.24-.24A.24.24,0,0,0,731,48Z" style="fill: #fff"/>
      <path d="M731,51H706.93a11,11,0,0,0,14,.48h10a.25.25,0,0,0,0-.49Z" style="fill: #fff"/>
      <path d="M697.47,34.61h24a11.26,11.26,0,0,0-1.5-1.12h11a.24.24,0,0,0,.24-.24A.24.24,0,0,0,731,33H719.15a11,11,0,0,0-11.64,1.13h-10a.24.24,0,0,0-.24.24.24.24,0,0,0,.24.24Z" style="fill: #fff"/>
    </g>
  </g>
  <g style="clip-path: url(#clip-path-6)">
    <image width="1200" height="800" transform="translate(-11.01 -416.2) scale(0.72)" xlink:href="../../../../../../Dropbox/IDC/SAP%20Agility%20Global%20Tool/_res/strategic_green.png"/>
  </g>
</svg>
